<svg xmlns="http://www.w3.org/2000/svg" width="48" height="48" viewBox="0 0 48 48" fill="none"><rect width="48" height="48" fill="none"/>
<path d="M26 2C24.8954 2 24 2.89543 24 4.00001V6.00001C24 7.10457 24.8954 8.00001 26 8.00001H38C39.1046 8.00001 40 7.10457 40 6.00001V4.00001C40 2.89543 39.1046 2 38 2L26 2Z" fill="black"/>
<path fill-rule="evenodd" clip-rule="evenodd" d="M2 38C2 35.7908 3.79086 34 6 34L6.8264 15.8183C6.92352 13.682 8.68378 12 10.8223 12H37.1776C39.3162 12 41.0764 13.6821 41.1736 15.8184L42 34C44.2092 34 46 35.7908 46 38V42H2V38ZM12 18V24H36V18C36 16.8954 35.1046 16 34 16L14 16C12.8954 16 12 16.8954 12 18Z" fill="black"/>
</svg>
