<svg xmlns="http://www.w3.org/2000/svg" width="48" height="48" viewBox="0 0 48 48" fill="none"><rect width="48" height="48" fill="none"/>
<path d="M23.9889 4.18764C24.0021 4.17445 24.0235 4.17445 24.0367 4.18764L34.6549 14.8059C34.6552 14.8061 34.6552 14.8056 34.6549 14.8059C34.6546 14.8061 34.6546 14.8077 34.6549 14.808C35.6171 15.8426 35.2283 17.5383 33.8902 18.0402L30.3459 19.3694C30.0786 19.4697 29.8358 19.626 29.6339 19.8278L26.6735 22.7883L38.1287 34.2435L35.468 36.9042L24.0128 25.449L21.052 28.4098C20.8501 28.6117 20.6938 28.8544 20.5936 29.1217L19.2644 32.6658C18.7626 34.0039 17.0669 34.3927 16.0322 33.4305C16.0321 33.4303 16.0325 33.4304 16.0322 33.4305L15.9853 33.3855L15.9776 33.3778L5.73651 23.1367L5.72876 23.1289L5.412 22.8122C5.39886 22.799 5.39885 22.7777 5.412 22.7645C5.42293 22.7536 5.42493 22.7366 5.41716 22.7232C4.81736 21.6925 5.25596 20.297 6.44852 19.8498L9.04785 18.8751C9.3152 18.7749 9.55798 18.6186 9.75987 18.4167L19.6412 8.53535C19.8431 8.33346 19.9994 8.09068 20.0997 7.82334L21.0742 5.22428C21.5214 4.03178 22.9167 3.59317 23.9475 4.19282C23.9609 4.20061 23.9779 4.1986 23.9889 4.18764Z" fill="black"/>
<path d="M5.99995 38.0001L5.99995 42.0001H24V38.0001H5.99995Z" fill="black"/>
</svg>
