<svg xmlns="http://www.w3.org/2000/svg" width="48" height="48" viewBox="0 0 48 48" fill="none"><rect width="48" height="48" fill="none"/>
<path d="M9.06461 14.2183C9.06461 10.1481 10.5485 6 15.0001 6C19.4517 6 20.9355 10.0721 20.9355 14.2183C20.9355 18.3645 18.3054 21.6148 15.0001 21.6148C11.6948 21.6148 9.06461 18.2885 9.06461 14.2183Z" fill="black"/>
<path d="M29.0646 19.2183C29.0646 15.1481 30.5485 11 35.0001 11C39.4517 11 40.9355 15.0721 40.9355 19.2183C40.9355 23.3645 38.3054 26.6148 35.0001 26.6148C31.6948 26.6148 29.0646 23.2885 29.0646 19.2183Z" fill="black"/>
<path d="M2 34.9232V40.6155H28V34.9232C27.9148 33.3168 27.3471 32.3577 26.4775 31.1928C24.648 28.7417 20.7898 25.6924 15 25.6924C8.65548 25.6924 4.92535 28.9343 3.28812 31.3662C2.57043 32.4322 2.07443 33.52 2 34.9232Z" fill="black"/>
<path d="M31.0862 31.0464C32.2317 30.7774 33.5333 30.6152 35.0001 30.6152C39.8991 30.6152 43.1638 32.6586 44.7118 34.3011C45.4476 35.0817 45.928 35.7244 46.0001 36.8008V40.6152H32.0001V34.8171L31.9945 34.7113C31.9159 33.2311 31.5629 32.0478 31.0862 31.0464Z" fill="black"/>
</svg>
