<svg xmlns="http://www.w3.org/2000/svg" width="48" height="48" viewBox="0 0 48 48" fill="none"><rect width="48" height="48" fill="none"/>
<path fill-rule="evenodd" clip-rule="evenodd" d="M39.9991 8.00098C39.9991 5.79184 38.2083 4.00098 35.9991 4.00098L11.9991 4.00098C9.79001 4.00098 7.99915 5.79184 7.99915 8.00098L7.99915 40.001C7.99915 42.2101 9.79 44.001 11.9991 44.001L35.9991 44.001C38.2083 44.001 39.9991 42.2101 39.9991 40.001L39.9991 8.00098ZM23.9991 38.001C25.656 38.001 26.9991 36.6578 26.9991 35.001C26.9991 33.3441 25.656 32.001 23.9991 32.001C22.3423 32.001 20.9992 33.3441 20.9992 35.001C20.9992 36.6578 22.3423 38.001 23.9991 38.001ZM32.9991 22.001C34.3799 22.001 35.4991 23.1203 35.4991 24.501L35.4991 35.501C35.4991 36.8817 34.3799 38.001 32.9991 38.001C31.6184 38.001 30.4991 36.8817 30.4991 35.501L30.4992 24.501C30.4992 23.1203 31.6184 22.001 32.9991 22.001ZM11.9991 12.001C11.9991 10.8964 12.8946 10.001 13.9991 10.001L33.9991 10.001C35.1037 10.001 35.9991 10.8964 35.9991 12.001L35.9991 16.001L11.9991 16.001L11.9991 12.001ZM14.9992 38.001C16.656 38.001 17.9992 36.6578 17.9992 35.001C17.9992 33.3441 16.656 32.001 14.9992 32.001C13.3424 32.001 11.9992 33.3441 11.9992 35.001C11.9992 36.6578 13.3424 38.001 14.9992 38.001ZM26.9991 25.001C26.9991 26.6578 25.656 28.001 23.9991 28.001C22.3423 28.001 20.9991 26.6578 20.9991 25.001C20.9991 23.3441 22.3423 22.001 23.9991 22.001C25.656 22.001 26.9991 23.3441 26.9991 25.001ZM17.9991 25.001C17.9991 26.6578 16.6559 28.001 14.9991 28.001C13.3423 28.001 11.9991 26.6578 11.9991 25.001C11.9991 23.3441 13.3423 22.001 14.9991 22.001C16.6559 22.001 17.9991 23.3441 17.9991 25.001Z" fill="black"/>
</svg>
