<svg xmlns="http://www.w3.org/2000/svg" width="48" height="48" viewBox="0 0 48 48" fill="none"><rect width="48" height="48" fill="none"/>
<path d="M20.6004 22C20.6004 23.4359 19.4363 24.6 18.0004 24.6C16.5645 24.6 15.4004 23.4359 15.4004 22C15.4004 20.5641 16.5645 19.4 18.0004 19.4C19.4363 19.4 20.6004 20.5641 20.6004 22Z" fill="black"/>
<path fill-rule="evenodd" clip-rule="evenodd" d="M4 10C4 8.89543 4.89543 8 6 8H42C43.1046 8 44 8.89543 44 10V40C44 41.1046 43.1046 42 42 42H39.4415C38.5807 42 37.8164 41.4491 37.5442 40.6325L36.4558 37.3675C36.1836 36.5509 35.4193 36 34.5585 36H13.4415C12.5807 36 11.8164 36.5509 11.5442 37.3675L10.4558 40.6325C10.1836 41.4491 9.41934 42 8.55848 42H6C4.89543 42 4 41.1046 4 40V10ZM32 16H36V28H32V16ZM24 22C24 25.3137 21.3137 28 18 28C14.6863 28 12 25.3137 12 22C12 18.6863 14.6863 16 18 16C21.3137 16 24 18.6863 24 22Z" fill="black"/>
</svg>
