<svg xmlns="http://www.w3.org/2000/svg" width="48" height="48" viewBox="0 0 48 48" fill="none"><rect width="48" height="48" fill="none"/>
<path d="M20.2254 7.99871C19.7612 9.1815 19.3519 10.5162 19.0151 11.9998L28.9849 11.9998C28.6481 10.5162 28.2388 9.1815 27.7746 7.99871C26.6709 5.18648 25.3138 3.36667 24 2.35742C22.6862 3.36667 21.3291 5.18648 20.2254 7.99871Z" fill="black"/>
<path d="M6.67564 11.9998C9.21945 7.60234 13.3895 4.26331 18.3634 2.80508C17.6627 3.91476 17.0397 5.16688 16.5019 6.53738C15.8648 8.16063 15.3322 9.98513 14.9243 11.9998L6.67564 11.9998Z" fill="black"/>
<path d="M4.9156 15.9998C4.32071 17.8939 4 19.9094 4 21.9998C4 24.0902 4.32071 26.1057 4.9156 27.9998L14.3108 27.9998C14.1076 26.125 14 24.1227 14 21.9994C14 19.8764 14.1075 17.8744 14.3107 15.9998H4.9156Z" fill="black"/>
<path d="M6.67564 31.9998C8.43204 35.0361 10.9637 37.5678 14 39.3242V31.9998H6.67564Z" fill="black"/>
<path d="M44 21.9998C44 24.0902 43.6793 26.1057 43.0844 27.9998H33.6892C33.8924 26.125 34 24.1227 34 21.9994C34 19.8764 33.8925 17.8744 33.6893 15.9998L43.0844 15.9998C43.6793 17.8939 44 19.9094 44 21.9998Z" fill="black"/>
<path d="M29.6366 2.80508C34.6105 4.26331 38.7806 7.60234 41.3244 11.9998L33.0757 11.9998C32.6678 9.98513 32.1352 8.16063 31.4981 6.53738C30.9603 5.16688 30.3373 3.91476 29.6366 2.80508Z" fill="black"/>
<path d="M18.3362 15.9998C18.1191 17.8357 18 19.8368 18 21.9994C18 24.1623 18.1191 26.1637 18.3363 27.9998H29.6637C29.8809 26.1637 30 24.1623 30 21.9994C30 19.8368 29.8809 17.8357 29.6638 15.9998H18.3362Z" fill="black"/>
<path fill-rule="evenodd" clip-rule="evenodd" d="M18 32H44V46H18V32ZM35 39C35 41.2091 33.2091 43 31 43C28.7909 43 27 41.2091 27 39C27 36.7909 28.7909 35 31 35C33.2091 35 35 36.7909 35 39Z" fill="black"/>
</svg>
