<svg xmlns="http://www.w3.org/2000/svg" width="48" height="48" viewBox="0 0 48 48" fill="none"><rect width="48" height="48" fill="none"/>
<path fill-rule="evenodd" clip-rule="evenodd" d="M36.5657 13.2371L11.7172 15.4688C10.3375 15.6434 10 16.4534 10 17.4487V17.9999H38C40.2091 17.9999 42 19.7908 42 21.9999V37.9999C42 40.2091 40.2091 41.9999 38 41.9999H10C7.79086 41.9999 6 40.2091 6 37.9999V17.4487C6 14.4628 7.2125 11.9997 11.1515 11.509L32.2192 9.61684C34.3385 9.4265 36.2359 10.9287 36.5368 13.0351L36.5657 13.2371ZM30 30.0229C30 32.2629 31.7829 34 34.0229 34C36.2629 34 38 32.2629 38 30.0229C38 27.7829 36.2629 26 34.0229 26C31.7829 26 30 27.7829 30 30.0229Z" fill="black"/>
</svg>
