<svg xmlns="http://www.w3.org/2000/svg" width="48" height="48" viewBox="0 0 48 48">
  <g fill="#FFF">
    <path d="M45,32 L45,20 L33,20 C29.6862915,20 27,22.6862915 27,26 C27,29.3137085 29.6862915,32 33,32 L45,32 Z M33,19 L46,19 L46,33 L33,33 C29.1340068,33 26,29.8659932 26,26 C26,22.1340068 29.1340068,19 33,19 Z"/>
    <circle cx="33" cy="26" r="3" opacity=".3"/>
    <path d="M41,10 L41.5,10 C43.9852814,10 46,12.0147186 46,14.5 L46,37.5 C46,39.9852814 43.9852814,42 41.5,42 L6.5,42 C4.01471862,42 2,39.9852814 2,37.5 L2,10.5 C2,8.01471863 4.01471862,6 6.5,6 L37.5,6 C39.4329966,6 41,7.56700338 41,9.5 L41,10 Z M40,10 L40,9.5 C40,8.11928813 38.8807119,7 37.5,7 L6.5,7 C4.56700337,7 3,8.56700338 3,10.5 L3,37.5 C3,39.4329966 4.56700337,41 6.5,41 L41.5,41 C43.4329966,41 45,39.4329966 45,37.5 L45,14.5 C45,12.5670034 43.4329966,11 41.5,11 L8,11 L8,10 L40,10 Z"/>
  </g>
</svg>
