<svg height="36" viewBox="0 0 36 36" width="36" xmlns="http://www.w3.org/2000/svg">
  <rect width="36" height="36" fill="none"/>
  <path d="M33.5 9a2.5 2.5 0 0 1 2.5 2.5v17A2.5 2.5 0 0 1 33.5 31h-23A2.5 2.5 0 0 1 8 28.5V26H2.5A2.5 2.5 0 0 1 0 23.5V6.5A2.5 2.5 0 0 1 2.5 4h23A2.5 2.5 0 0 1 28 6.5V9Zm-23 1A1.5 1.5 0 0 0 9 11.5v17a1.5 1.5 0 0 0 1.5 1.5h23A1.5 1.5 0 0 0 35 28.5v-17A1.5 1.5 0 0 0 33.5 10ZM27 9V6.5A1.5 1.5 0 0 0 25.5 5H2.5A1.5 1.5 0 0 0 1 6.5v17A1.5 1.5 0 0 0 2.5 25H8V11.5A2.5 2.5 0 0 1 10.5 9Z" fill="#ffffff"/>
  <path d="M10.5 9A2.5 2.5 0 0 0 8 11.5V13H1V9Z" fill="#ffffff" opacity=".3"/>
  <path d="M17.47 27h9.06a0.17 0.17 0 0 0 0.15 -0.16V25.16A0.17 0.17 0 0 0 26.53 25h-9.06a0.17 0.17 0 0 0 -0.15 0.16v1.68A0.17 0.17 0 0 0 17.47 27Z" fill="#ffffff" opacity=".35"/>
  <path d="M20.58 14.54c-0.1 0.35 -2.45 6.91 -2.54 7.15 -0.09 0.24 0 0.2 0 0.2 0 0 1.38 0.54 1.42 0.54 0.04 0 0.15 -0.05 0.15 -0.1 0 -0.05 0.54 -1.52 0.59 -1.67h3.52c0 0.15 0.59 1.62 0.59 1.67a0.2 0.2 0 0 0 0.2 0.1c0.09 0 1.32 -0.54 1.42 -0.54a0.29 0.29 0 0 0 0.05 -0.2c-0.05 -0.2 -2.45 -6.85 -2.55 -7.15 -0.25 -0.68 -0.54 -1.37 -1.47 -1.37 -0.93 0 -1.18 0.64 -1.38 1.37zM23.27 19H20.83L22 15.33Z" fill="#ffffff" opacity=".35"/>
</svg>
