<svg width="24" height="24" xmlns="http://www.w3.org/2000/svg"><g fill="none" fill-rule="evenodd"><path d="M0 0h24v24H0z"/><g fill="#0B1F35" fill-rule="nonzero"><path d="M22 21v-2h2v-1h-2v-2h-1v2h-2v1h2v2z"/><path opacity=".3" d="M2 8h19v2H2zM5 13h4v2H5z"/><path d="M22 14V6.564c0-.892-.093-1.215-.267-1.54a1.817 1.817 0 0 0-.756-.757c-.326-.174-.65-.267-1.54-.267H3.563c-.892 0-1.215.093-1.54.267-.327.174-.583.43-.757.756-.174.326-.267.65-.267 1.54v9.873c0 .892.093 1.215.267 1.54.174.327.43.583.756.757.326.174.65.267 1.54.267H17v-1H3.564c-.662 0-.864-.039-1.07-.149a.818.818 0 0 1-.345-.346C2.039 17.3 2 17.098 2 16.436V6.564c0-.662.039-.864.149-1.07a.818.818 0 0 1 .346-.345C2.7 5.039 2.902 5 3.564 5h15.872c.662 0 .864.039 1.07.149a.818.818 0 0 1 .345.346c.11.205.149.407.149 1.069V14h1z"/></g></g></svg>