<svg width="36" height="36" viewBox="0 0 36 36" fill="none" xmlns="http://www.w3.org/2000/svg">
<rect width="36" height="36" fill="none"></rect>
<path d="M18 0C27.9405 0 36 8.0595 36 18C36 27.9405 27.9405 36 18 36C8.0595 36 0 27.9405 0 18H1.5C1.5 27.1125 8.8875 34.5 18 34.5C27.1125 34.5 34.5 27.1125 34.5 18C34.5 8.8875 27.1125 1.5 18 1.5V0ZM18 0C27.9405 0 36 8.0595 36 18C36 27.9405 27.9405 36 18 36C8.0595 36 0 27.9405 0 18H1.5C1.5 27.1125 8.8875 34.5 18 34.5C27.1125 34.5 34.5 27.1125 34.5 18C34.5 8.8875 27.1125 1.5 18 1.5V0Z" fill="#0B1F35"/>
<path opacity="0.3" fill-rule="evenodd" clip-rule="evenodd" d="M21.3342 19.873L21.3505 19.8894L26.6006 9.86451C26.9914 9.11867 26.7042 8.85219 25.9758 9.23628L16.5772 14.2041C15.9484 14.4025 15.3782 14.7541 14.9172 15.2276C14.4561 15.7011 14.1186 16.2818 13.9347 16.9181C13.7507 17.5543 13.726 18.2265 13.8627 18.8747C13.9994 19.5229 14.2933 20.1271 14.7183 20.6336C15.1433 21.14 15.6861 21.533 16.2986 21.7776C16.9111 22.0222 17.5742 22.1108 18.2289 22.0355C18.8836 21.9602 19.5097 21.7234 20.0515 21.3462C20.5933 20.9689 21.0339 20.4629 21.3342 19.873V19.873Z" fill="#0B1F35"/>
</svg>
