<svg xmlns="http://www.w3.org/2000/svg" width="24" height="24" viewBox="0 0 24 24">
  <g>
    <rect width="24" height="24" fill="none"/>
    <path fill="#FFFFFF" fill-rule="nonzero" d="M18,6V4a1,1,0,0,0-1-1H2A1,1,0,0,0,1,4V15a1,1,0,0,0,1,1H5V8A2,2,0,0,1,7,6Zm1,0h3a2,2,0,0,1,2,2V19a2,2,0,0,1-2,2H7a2,2,0,0,1-2-2V17H2a2,2,0,0,1-2-2V4A2,2,0,0,1,2,2H17a2,2,0,0,1,2,2ZM7,7A1,1,0,0,0,6,8V19a1,1,0,0,0,1,1H22a1,1,0,0,0,1-1V8a1,1,0,0,0-1-1Z"/>
    <path fill="#FFFFFF" d="M7,6A2,2,0,0,0,5,8V9H1V6Z" opacity="0.3"/>
    <path fill="#FFFFFF" fill-rule="nonzero" d="M11.86,16.61h5.28a.09.09,0,0,1,.09.09v1a.09.09,0,0,1-.08.09H11.86a.09.09,0,0,1-.09-.09v-1A.09.09,0,0,1,11.86,16.61Z" opacity="0.35"/>
    <path fill="#FFFFFF" fill-rule="nonzero" d="M13.46,13.84,13,15a.09.09,0,0,1-.11.06L12,14.71a.08.08,0,0,1,0-.11c.05-.16,1.5-4.27,1.58-4.48.14-.41.35-.84.92-.84s.77.43.91.84c.08.21,1.53,4.32,1.58,4.48a.08.08,0,0,1,0,.11l-.86.35a.09.09,0,0,1-.11-.06l-.46-1.16Zm.29-1h1.49l-.66-2.25H14.4Z" opacity="0.35"/>
  </g>
</svg>
