<svg xmlns="http://www.w3.org/2000/svg" width="24" height="24" viewBox="0 0 24 24">
  <title>icon_card-to-card_m_white copy</title>
  <g>
    <rect width="24" height="24" fill="none"/>
    <path d="M21,3H14V4h7a1,1,0,0,1,1,1V18a1,1,0,0,1-1,1H13.9l1.47-1.47-.71-.71L12,19.5l2.68,2.68.71-.71L13.9,20H21a2,2,0,0,0,2-2V5A2,2,0,0,0,21,3Z" fill="#fff"/>
    <rect x="2" y="8" width="20" height="3" fill="#fff" opacity="0.3"/>
    <rect x="5" y="14" width="4" height="2" fill="#fff" opacity="0.3"/>
    <path d="M2,18V5A1,1,0,0,1,3,4h7.1L8.63,5.47l.71.71L12,3.5,9.34.82l-.71.71L10.1,3H3A2,2,0,0,0,1,5V18a2,2,0,0,0,2,2h7V19H3A1,1,0,0,1,2,18Z" fill="#fff"/>
  </g>
</svg>
