<svg xmlns="http://www.w3.org/2000/svg" width="36" height="36" viewBox="0 0 36 36">
  <title>icon_balance-transfer_xl_black</title>
  <g>
    <rect width="36" height="36" fill="none"/>
    <path d="M17.47,28h9.06a.16.16,0,0,0,.15-.16V26.16a.16.16,0,0,0-.15-.16H17.47a.16.16,0,0,0-.15.16v1.68A.16.16,0,0,0,17.47,28Zm3.11-12.46c-.1.35-2.45,6.91-2.54,7.15s0,.2,0,.2,1.38.54,1.42.54.15-.05.15-.1.54-1.52.59-1.67h3.52c0,.15.59,1.62.59,1.67a.2.2,0,0,0,.2.1c.09,0,1.32-.54,1.42-.54a.3.3,0,0,0,.05-.2c-.05-.2-2.45-6.85-2.55-7.15-.25-.68-.54-1.37-1.47-1.37S20.78,14.81,20.58,15.54ZM23.27,20H20.83L22,16.33Z" fill="#0b1f35" opacity="0.35"/>
    <path d="M8,12.5A2.5,2.5,0,0,1,10.5,10H1v4H8Z" fill="#0b1f35" opacity="0.3"/>
    <path d="M33.5,10H28V6.5A2.5,2.5,0,0,0,25.5,4H2.5A2.5,2.5,0,0,0,0,6.5v17A2.5,2.5,0,0,0,2.5,26H8v3.5A2.5,2.5,0,0,0,10.5,32h23A2.5,2.5,0,0,0,36,29.5v-17A2.5,2.5,0,0,0,33.5,10ZM8,12.5V25H2.5A1.5,1.5,0,0,1,1,23.5V6.5A1.5,1.5,0,0,1,2.5,5h23A1.5,1.5,0,0,1,27,6.5V10H10.5A2.5,2.5,0,0,0,8,12.5Zm27,17A1.5,1.5,0,0,1,33.5,31h-23A1.5,1.5,0,0,1,9,29.5v-17A1.5,1.5,0,0,1,10.5,11h23A1.5,1.5,0,0,1,35,12.5Z" fill="#0b1f35"/>
  </g>
</svg>
