<svg height="48" viewBox="0 0 48 48" width="48" xmlns="http://www.w3.org/2000/svg">
  <rect width="48" height="48" fill="none"/>
  <path d="M37 13h7.5a3.5 3.5 0 0 1 3.5 3.5v22A3.5 3.5 0 0 1 44.5 42h-30A3.5 3.5 0 0 1 11 38.5V35H3.5A3.5 3.5 0 0 1 0 31.5V9.5A3.5 3.5 0 0 1 3.5 6h30A3.5 3.5 0 0 1 37 9.5ZM14.5 14A2.5 2.5 0 0 0 12 16.5v22a2.5 2.5 0 0 0 2.5 2.5h30A2.5 2.5 0 0 0 47 38.5v-22A2.5 2.5 0 0 0 44.5 14ZM36 13V9.5A2.5 2.5 0 0 0 33.5 7H3.5A2.5 2.5 0 0 0 1 9.5v22A2.5 2.5 0 0 0 3.5 34H11V16.5A3.5 3.5 0 0 1 14.5 13Z" fill="#ffffff"/>
  <path d="M14 13a3.49 3.49 0 0 0 -3 3.46V18H1v-5z" fill="#ffffff" opacity=".3"/>
  <path d="M35 33.65H24a0.17 0.17 0 0 0 -0.17 0.18v2A0.18 0.18 0 0 0 24 36h11a0.17 0.17 0 0 0 0.17 -0.18v-2A0.18 0.18 0 0 0 35 33.65Z" fill="#ffffff" opacity=".35"/>
  <path d="M34.72 29.26l-3.33 -9.13c-0.32 -0.86 -0.69 -1.72 -1.89 -1.72 -1.2 0 -1.59 0.87 -1.89 1.72 -0.16 0.43 -3.22 8.81 -3.33 9.13a0.17 0.17 0 0 0 0 0.14 0.18 0.18 0 0 0 0.1 0.09l1.81 0.7a0.19 0.19 0 0 0 0.23 -0.1c0 -0.09 0.7 -1.94 0.78 -2.15h4.61c0.07 0.21 0.74 2.06 0.78 2.15a0.18 0.18 0 0 0 0.09 0.1 0.15 0.15 0 0 0 0.13 0l1.81 -0.7a0.18 0.18 0 0 0 0.1 -0.09 0.17 0.17 0 0 0 0 -0.14zm-6.79 -3.39l1.56 -4.68 1.56 4.68z" fill="#ffffff" opacity=".35"/>
</svg>
