<?xml version="1.0" encoding="UTF-8"?>
<svg width="21px" height="22px" viewBox="0 0 21 22" version="1.1" xmlns="http://www.w3.org/2000/svg" xmlns:xlink="http://www.w3.org/1999/xlink">
    <!-- Generator: Sketch 48.2 (47327) - http://www.bohemiancoding.com/sketch -->
    <title>icon_transfer-in_m_black</title>
    <desc>Created with Sketch.</desc>
    <defs></defs>
    <g id="Page-1" stroke="none" stroke-width="1" fill="none" fill-rule="evenodd">
        <g id="icon_transfer-in_m_black" transform="translate(-1.000000, -1.000000)">
            <rect id="Rectangle" x="0" y="0" width="24" height="24"></rect>
            <path d="M4.004,5.147 C2.146,7.04 1,9.637 1,12.5 C1,18.3 5.7,23 11.5,23 C17.3,23 22,18.3 22,12.5 C22,9.814 20.992,7.364 19.333,5.507 L18.61,6.199 C20.097,7.875 21,10.082 21,12.5 C21,17.747 16.747,22 11.5,22 C6.253,22 2,17.747 2,12.5 C2,9.92 3.027,7.583 4.695,5.87 L4.005,5.147 L4.004,5.147 Z" id="Shape" fill="#0B1F35" fill-rule="nonzero"></path>
            <polyline id="Shape" fill="#0B1F35" fill-rule="nonzero" points="15.182 9.9 12.012 13 12.012 1 10.989 1 10.989 13 7.817 9.9 7 10.6 11.5 15 16 10.6"></polyline>
        </g>
    </g>
</svg>