<?xml version="1.0" encoding="UTF-8"?>
<svg width="36px" height="36px" viewBox="0 0 36 36" version="1.1" xmlns="http://www.w3.org/2000/svg" xmlns:xlink="http://www.w3.org/1999/xlink">
    <!-- Generator: Sketch 48.2 (47327) - http://www.bohemiancoding.com/sketch -->
    <title>icon_overdraft_xl_black</title>
    <desc>Created with Sketch.</desc>
    <defs>
        <path d="M17,34 C7.61115925,34 0,26.3888407 0,17 C0,7.61115925 7.61115925,0 17,0 C26.3888407,0 34,7.61115925 34,17 C34,26.3888407 26.3888407,34 17,34 Z M17.032458,27.3097309 C22.7084391,27.3097309 27.3097309,22.7084391 27.3097309,17.032458 C27.3097309,11.3564769 22.7084391,6.75518511 17.032458,6.75518511 C11.3564769,6.75518511 6.75518511,11.3564769 6.75518511,17.032458 C6.75518511,22.7084391 11.3564769,27.3097309 17.032458,27.3097309 Z" id="path-1"></path>
    </defs>
    <g id="icon_overdraft_xl_black" stroke="none" stroke-width="1" fill="none" fill-rule="evenodd">
        <g id="ic" transform="translate(1.000000, 1.000000)">
            <mask id="mask-2" fill="white">
                <use xlink:href="#path-1"></use>
            </mask>
            <path stroke="#0B1F35" d="M17,34.5 C7.33501688,34.5 -0.5,26.6649831 -0.5,17 C-0.5,7.33501688 7.33501688,-0.5 17,-0.5 C26.6649831,-0.5 34.5,7.33501688 34.5,17 C34.5,26.6649831 26.6649831,34.5 17,34.5 Z M17.032458,26.8097309 C22.4322967,26.8097309 26.8097309,22.4322967 26.8097309,17.032458 C26.8097309,11.6326193 22.4322967,7.25518511 17.032458,7.25518511 C11.6326193,7.25518511 7.25518511,11.6326193 7.25518511,17.032458 C7.25518511,22.4322967 11.6326193,26.8097309 17.032458,26.8097309 Z"></path>
            <g id="Group-7" opacity="0.300000012" mask="url(#mask-2)" fill="#0B1F35">
                <g transform="translate(17.000000, 17.000000) rotate(45.000000) translate(-17.000000, -17.000000) translate(-1.545455, -1.545455)" id="Path-2">
                    <polygon transform="translate(18.316345, 18.384949) scale(-1, 1) translate(-18.316345, -18.384949) " points="12.8471544 0.128597285 23.7855364 36.6413008 12.8471544 36.6413008 23.7855364 0.128597285"></polygon>
                    <polygon transform="translate(18.316345, 18.384949) rotate(90.000000) translate(-18.316345, -18.384949) " points="12.8471544 0.128597285 23.7855364 36.6413008 12.8471544 36.6413008 23.7855364 0.128597285"></polygon>
                </g>
            </g>
        </g>
    </g>
</svg>