<svg xmlns="http://www.w3.org/2000/svg" width="18" height="18" viewBox="0 0 18 18">
  <g fill="#FFF">
    <path d="M17,13 L17,8 L12.5,8 C11.1192881,8 10,9.11928813 10,10.5 C10,11.8807119 11.1192881,13 12.5,13 L17,13 Z M12.5,7 L18,7 L18,14 L12.5,14 C10.5670034,14 9,12.4329966 9,10.5 C9,8.56700338 10.5670034,7 12.5,7 Z"/>
    <path d="M15.2142857,4 L15.5,4 C16.8807119,4 18,5.11928813 18,6.5 L18,15.5 C18,16.3284271 17.3284271,17 16.5,17 L1.5,17 C0.671572875,17 -2.48326359e-12,16.3284271 -2.48334686e-12,15.5 L-2.51232368e-12,3 C-2.48817633e-12,2.17157288 0.671572875,1.5 1.5,1.5 L13.7142857,1.5 C14.5427128,1.5 15.2142857,2.17157288 15.2142857,3 L15.2142857,4 Z M14.2142857,4 L14.2142857,3 C14.2142857,2.72385763 13.9904281,2.5 13.7142857,2.5 L1.5,2.5 C1.22385763,2.5 1,2.72385763 1,3 L1,15.5 C1,15.7761424 1.22385763,16 1.5,16 L16.5,16 C16.7761424,16 17,15.7761424 17,15.5 L17,6.5 C17,5.67157288 16.3284271,5 15.5,5 L3,5 L3,4 L14.2142857,4 Z"/>
    <circle cx="12.5" cy="10.5" r="1.5" opacity=".3"/>
  </g>
</svg>
