<?xml version="1.0" encoding="UTF-8"?>
<svg width="21px" height="22px" viewBox="0 0 21 22" version="1.1" xmlns="http://www.w3.org/2000/svg" xmlns:xlink="http://www.w3.org/1999/xlink">
    <!-- Generator: Sketch 48.2 (47327) - http://www.bohemiancoding.com/sketch -->
    <title>icon_transfer-out_m_black</title>
    <desc>Created with Sketch.</desc>
    <defs></defs>
    <g id="Page-1" stroke="none" stroke-width="1" fill="none" fill-rule="evenodd">
        <g id="icon_transfer-out_m_black" transform="translate(-1.000000, -1.000000)">
            <rect id="Rectangle" x="0" y="0" width="24" height="24"></rect>
            <path d="M2.683,6.797 C1.618,8.44 1,10.397 1,12.5 C1,18.3 5.7,23 11.5,23 C17.3,23 22,18.3 22,12.5 C22,10.61 21.5,8.84 20.63,7.308 L19.884,8.028 C20.596,9.363 21,10.885 21,12.5 C21,17.747 16.747,22 11.5,22 C6.253,22 2,17.747 2,12.5 C2,10.686 2.51,8.99 3.39,7.548 L2.683,6.798 L2.683,6.797 Z" id="Shape" fill="#0B1F35" fill-rule="nonzero"></path>
            <polyline id="Shape" fill="#0B1F35" fill-rule="nonzero" points="7 5.4 7.818 6.1 10.988 3 10.988 14 12.011 14 12.011 3 15.183 6.1 16.001 5.4 11.5 1"></polyline>
        </g>
    </g>
</svg>