<svg xmlns="http://www.w3.org/2000/svg" width="36" height="36" viewBox="0 0 36 36"><title>icon_balance-transfer_xl_black</title><rect width="36" height="36" fill="none"/><rect x="4" y="6" width="28" height="3" fill="#0b1f35" opacity="0.3"/><rect x="9" y="14" width="6" height="3" fill="#0b1f35" opacity="0.3"/><path d="M30.25,0H5.75A2.75,2.75,0,0,0,3,2.75v17.5A2.75,2.75,0,0,0,5.75,23H16l.58-1H5.75A1.76,1.76,0,0,1,4,20.25V2.75A1.75,1.75,0,0,1,5.75,1h24.5A1.75,1.75,0,0,1,32,2.75v17.5A1.76,1.76,0,0,1,30.25,22H19.68l4.89-8.47a.5.5,0,1,0-.86-.5L14,29.88a2.66,2.66,0,0,0-1.2-2.08,2.46,2.46,0,0,0-1.88-.2,5.39,5.39,0,0,0-3.05,2.61c-1.27,2.22-1.1,4.63.39,5.49a2.21,2.21,0,0,0,1.14.3,2.8,2.8,0,0,0,.74-.1,5.41,5.41,0,0,0,3-2.61h0L18,24.9l4.84,8.39h0a5.38,5.38,0,0,0,3,2.61,2.74,2.74,0,0,0,.74.1,2.23,2.23,0,0,0,1.14-.3c1.48-.86,1.65-3.28.38-5.49a5.38,5.38,0,0,0-3-2.61,2.42,2.42,0,0,0-1.88.2A2.64,2.64,0,0,0,22,29.88l-3.45-6,.52-.9H30.25A2.75,2.75,0,0,0,33,20.25V2.75A2.75,2.75,0,0,0,30.25,0Zm-18,32.79a4.4,4.4,0,0,1-2.43,2.14,1.49,1.49,0,0,1-1.12-.09c-1-.57-1-2.46,0-4.13a4.38,4.38,0,0,1,2.44-2.14,1.66,1.66,0,0,1,.47-.07,1.27,1.27,0,0,1,.64.16C13.24,29.23,13.25,31.12,12.29,32.79Zm11.44-4.13a1.27,1.27,0,0,1,.64-.16,1.73,1.73,0,0,1,.48.07,4.42,4.42,0,0,1,2.44,2.14c1,1.67.95,3.56,0,4.13a1.49,1.49,0,0,1-1.12.09,4.42,4.42,0,0,1-2.44-2.14C22.75,31.12,22.76,29.23,23.73,28.66Z" fill="#0b1f35"/></svg>