<?xml version="1.0" encoding="UTF-8"?>
<svg width="24px" height="24px" viewBox="0 0 24 24" version="1.1" xmlns="http://www.w3.org/2000/svg" xmlns:xlink="http://www.w3.org/1999/xlink">
    <!-- Generator: Sketch 48.1 (47250) - http://www.bohemiancoding.com/sketch -->
    <title>icon_card-add_m_black</title>
    <desc>Created with Sketch.</desc>
    <defs></defs>
    <g id="Page-1" stroke="none" stroke-width="1" fill="none" fill-rule="evenodd">
        <g id="add_new_card">
            <rect id="ph" x="0" y="0" width="24" height="24"></rect>
            <g id="Group-13" transform="translate(1.000000, 4.000000)" fill="#FFFFFF" fill-rule="nonzero">
                <polygon id="Shape-Copy" points="21 17 21 15 23 15 23 14 21 14 21 12 20 12 20 14 18 14 18 15 20 15 20 17"></polygon>
                <rect id="shape" opacity="0.300000012" x="1" y="4" width="19" height="2"></rect>
                <rect id="rect" opacity="0.300000012" x="4" y="9" width="4" height="2"></rect>
                <path d="M21,10 L21,2.5638852 C21,1.67236646 20.9071744,1.34908022 20.7328673,1.0231543 C20.5585602,0.697228371 20.3027716,0.441439796 19.9768457,0.267132704 C19.6509198,0.0928256111 19.3276335,0 18.4361148,0 L2.5638852,0 C1.67236646,0 1.34908022,0.0928256111 1.0231543,0.267132704 C0.697228371,0.441439796 0.441439796,0.697228371 0.267132704,1.0231543 C0.0928256111,1.34908022 0,1.67236646 0,2.5638852 L0,12.4361148 C0,13.3276335 0.0928256111,13.6509198 0.267132704,13.9768457 C0.441439796,14.3027716 0.697228371,14.5585602 1.0231543,14.7328673 C1.34908022,14.9071744 1.67236646,15 2.5638852,15 L16,15 L16,14 L2.5638852,14 C1.90203328,14 1.70048072,13.9610784 1.49475316,13.8510541 C1.3430957,13.7699468 1.2300532,13.6569043 1.1489459,13.5052468 C1.03892159,13.2995193 1,13.0979667 1,12.4361148 L1,2.5638852 C1,1.90203328 1.03892159,1.70048072 1.1489459,1.49475316 C1.2300532,1.3430957 1.3430957,1.2300532 1.49475316,1.1489459 C1.70048072,1.03892159 1.90203328,1 2.5638852,1 L18.4361148,1 C19.0979667,1 19.2995193,1.03892159 19.5052468,1.1489459 C19.6569043,1.2300532 19.7699468,1.3430957 19.8510541,1.49475316 C19.9610784,1.70048072 20,1.90203328 20,2.5638852 L20,10 L21,10 Z" id="Combined-Shape"></path>
            </g>
        </g>
    </g>
</svg>
