<svg xmlns="http://www.w3.org/2000/svg" width="48" height="48" viewBox="0 0 48 48">
  <g>
    <rect width="48" height="48" fill="none"/>
    <path fill="#0B1F35" d="M37,13h7.5A3.5,3.5,0,0,1,48,16.5v22A3.5,3.5,0,0,1,44.5,42h-30A3.5,3.5,0,0,1,11,38.5V35H3.5A3.5,3.5,0,0,1,0,31.5V9.5A3.5,3.5,0,0,1,3.5,6h30A3.5,3.5,0,0,1,37,9.5ZM14.5,14A2.5,2.5,0,0,0,12,16.5v22A2.5,2.5,0,0,0,14.5,41h30A2.5,2.5,0,0,0,47,38.5v-22A2.5,2.5,0,0,0,44.5,14ZM36,13V9.5A2.5,2.5,0,0,0,33.5,7H3.5A2.5,2.5,0,0,0,1,9.5v22A2.5,2.5,0,0,0,3.5,34H11V16.5A3.5,3.5,0,0,1,14.5,13Z"/>
    <path fill="#0B1F35" d="M14,13a3.49,3.49,0,0,0-3,3.46V18H1V13H14Z" opacity="0.3"/>
    <path fill="#0B1F35" d="M35,33.65H24a.17.17,0,0,0-.17.18v2A.18.18,0,0,0,24,36H35a.17.17,0,0,0,.17-.18v-2A.18.18,0,0,0,35,33.65Z" opacity="0.35"/>
    <path fill="#0B1F35" d="M34.72,29.26l-3.33-9.13c-.32-.86-.69-1.72-1.89-1.72s-1.59.87-1.89,1.72c-.16.43-3.22,8.81-3.33,9.13a.17.17,0,0,0,0,.14.18.18,0,0,0,.1.09l1.81.7a.19.19,0,0,0,.23-.1c0-.09.7-1.94.78-2.15h4.61c.07.21.74,2.06.78,2.15a.18.18,0,0,0,.09.1.15.15,0,0,0,.13,0l1.81-.7a.18.18,0,0,0,.1-.09A.17.17,0,0,0,34.72,29.26Zm-6.79-3.39,1.56-4.68,1.56,4.68Z" opacity="0.35"/>
  </g>
</svg>
