<?xml version="1.0" encoding="UTF-8"?>
<svg width="24px" height="24px" viewBox="0 0 24 24" version="1.1" xmlns="http://www.w3.org/2000/svg" xmlns:xlink="http://www.w3.org/1999/xlink">
    <!-- Generator: Sketch 53 (72520) - https://sketchapp.com -->
    <title>Artboard</title>
    <desc>Created with Sketch.</desc>
    <g id="AM-main-page" stroke="none" stroke-width="1" fill="none" fill-rule="evenodd">
        <g id="Artboard" transform="translate(-161.000000, -93.000000)">
            <rect fill="#FFFFFF" x="0" y="0" width="320" height="144"></rect>
            <g id="icon_card-add_m_black" transform="translate(161.000000, 93.000000)">
                <polygon id="Shape" points="0 0 24 0 24 24 0 24"></polygon>
                <path d="M4,14 L8,14 L8,16 L4,16 L4,14 Z M1,8 L21,8 L21,11 L1,11 L1,8 Z" id="Shape" fill="#0B1F35" fill-rule="nonzero" opacity="0.3"></path>
                <path d="M22,11.0013275 L21,11.0013275 L21,5.42857143 C21,4.62923673 20.3999848,4 19.6842105,4 L2.31578947,4 C1.60001521,4 1,4.62923673 1,5.42857143 L1,17.5714286 C1,18.3707633 1.60001521,19 2.31578947,19 L12.9989941,19 L12.9989941,20 L2.31578947,20 C1.03681426,20 0,18.9126915 0,17.5714286 L0,5.42857143 C0,4.08730846 1.03681426,3 2.31578947,3 L19.6842105,3 C20.9631857,3 22,4.08730846 22,5.42857143 L22,11.0013275 Z" id="Path" fill="#0B1F35" fill-rule="nonzero"></path>
                <path d="M22,11.0013275 L21,11.0013275 L21,5.42857143 C21,4.62923673 20.3999848,4 19.6842105,4 L2.31578947,4 C1.60001521,4 1,4.62923673 1,5.42857143 L1,17.5714286 C1,18.3707633 1.60001521,19 2.31578947,19 L12.9989941,19 L12.9989941,20 L2.31578947,20 C1.03681426,20 0,18.9126915 0,17.5714286 L0,5.42857143 C0,4.08730846 1.03681426,3 2.31578947,3 L19.6842105,3 C20.9631857,3 22,4.08730846 22,5.42857143 L22,11.0013275 Z" id="Path" fill="#0B1F35" fill-rule="nonzero"></path>
            </g>
            <g id="Group-8" transform="translate(176.000000, 107.000000)" fill-rule="nonzero">
                <polygon id="Path" fill="#0B1F35" points="1 7.42832053 7.33906328 0 8 0.572557629 1.66093672 8"></polygon>
                <g id="Group-7" transform="translate(5.000000, 4.000000)">
                    <path d="M2,4 C0.89597872,3.99867752 0.00132248,3.10402128 0,2 C0,0.8976 0.8968,0 2,0 C3.1032,0 4,0.8976 4,2 C4,3.1024 3.1032,4 2,4 Z" id="Path" fill="#0B1F35"></path>
                    <path d="M2,0.8 C1.3384,0.8 0.8,1.3384 0.8,2 C0.8,2.6616 1.3384,3.2 2,3.2 C2.6616,3.2 3.2,2.6616 3.2,2 C3.2,1.3384 2.6616,0.8 2,0.8 Z" id="Path" fill="#FFFFFF"></path>
                </g>
                <g id="Group-6">
                    <path d="M2,4 C0.895978736,3.99867752 0.001322448,3.10402128 0,2 C0,0.8976 0.8968,0 2,0 C3.1032,0 4,0.8976 4,2 C4,3.1024 3.1032,4 2,4 Z" id="Path" fill="#0B1F35"></path>
                    <path d="M2,0.8 C1.3384,0.8 0.8,1.3384 0.8,2 C0.8,2.6616 1.3384,3.2 2,3.2 C2.6616,3.2 3.2,2.6616 3.2,2 C3.2,1.3384 2.6616,0.8 2,0.8 Z" id="Path" fill="#FFFFFF"></path>
                </g>
            </g>
            <g id="icon_card-add_m_black" transform="translate(161.000000, 93.000000)">
                <polygon id="Shape" points="0 0 24 0 24 24 0 24"></polygon>
                <path d="M4,14 L8,14 L8,16 L4,16 L4,14 Z M1,8 L21,8 L21,11 L1,11 L1,8 Z" id="Shape" fill="#0B1F35" fill-rule="nonzero" opacity="0.3"></path>
                <path d="M22,11.0013275 L21,11.0013275 L21,5.42857143 C21,4.62923673 20.3999848,4 19.6842105,4 L2.31578947,4 C1.60001521,4 1,4.62923673 1,5.42857143 L1,17.5714286 C1,18.3707633 1.60001521,19 2.31578947,19 L12.9989941,19 L12.9989941,20 L2.31578947,20 C1.03681426,20 0,18.9126915 0,17.5714286 L0,5.42857143 C0,4.08730846 1.03681426,3 2.31578947,3 L19.6842105,3 C20.9631857,3 22,4.08730846 22,5.42857143 L22,11.0013275 Z" id="Path" fill="#0B1F35" fill-rule="nonzero"></path>
                <path d="M22,11.0013275 L21,11.0013275 L21,5.42857143 C21,4.62923673 20.3999848,4 19.6842105,4 L2.31578947,4 C1.60001521,4 1,4.62923673 1,5.42857143 L1,17.5714286 C1,18.3707633 1.60001521,19 2.31578947,19 L12.9989941,19 L12.9989941,20 L2.31578947,20 C1.03681426,20 0,18.9126915 0,17.5714286 L0,5.42857143 C0,4.08730846 1.03681426,3 2.31578947,3 L19.6842105,3 C20.9631857,3 22,4.08730846 22,5.42857143 L22,11.0013275 Z" id="Path" fill="#0B1F35" fill-rule="nonzero"></path>
            </g>
            <g id="Group-8" transform="translate(176.000000, 107.000000)" fill="#0B1F35" fill-rule="nonzero">
                <polygon id="Path" points="1 7.42832053 7.33906328 0 8 0.572557629 1.66093672 8"></polygon>
                <g id="Group-7" transform="translate(5.000000, 4.000000)">
                    <path d="M2,4 C0.89597872,3.99867752 0.00132248,3.10402128 0,2 C0,0.8976 0.8968,0 2,0 C3.1032,0 4,0.8976 4,2 C4,3.1024 3.1032,4 2,4 Z M2,0.8 C1.3384,0.8 0.8,1.3384 0.8,2 C0.8,2.6616 1.3384,3.2 2,3.2 C2.6616,3.2 3.2,2.6616 3.2,2 C3.2,1.3384 2.6616,0.8 2,0.8 Z" id="Combined-Shape"></path>
                </g>
                <g id="Group-6">
                    <path d="M2,4 C0.895978736,3.99867752 0.001322448,3.10402128 0,2 C0,0.8976 0.8968,0 2,0 C3.1032,0 4,0.8976 4,2 C4,3.1024 3.1032,4 2,4 Z M2,0.8 C1.3384,0.8 0.8,1.3384 0.8,2 C0.8,2.6616 1.3384,3.2 2,3.2 C2.6616,3.2 3.2,2.6616 3.2,2 C3.2,1.3384 2.6616,0.8 2,0.8 Z" id="Combined-Shape"></path>
                </g>
            </g>
        </g>
    </g>
</svg>