<svg width="36" height="36" viewBox="0 0 36 36" fill="none" xmlns="http://www.w3.org/2000/svg">
<rect width="36" height="36" fill="none"/>
<path fill-rule="evenodd" clip-rule="evenodd" d="M2.5 0C1.11929 0 0 1.11929 0 2.5V19.5C0 20.8807 1.11929 22 2.5 22H8V24.5C8 25.8807 9.11929 27 10.5 27H33.5C34.8807 27 36 25.8807 36 24.5V7.5C36 6.11929 34.8807 5 33.5 5H28V2.5C28 1.11929 26.8807 0 25.5 0H2.5ZM2.5 1C1.67157 1 1 1.67157 1 2.5V19.5C1 20.3284 1.67157 21 2.5 21H8V7.5C8 6.11929 9.11929 5 10.5 5H27V2.5C27 1.67157 26.3284 1 25.5 1H2.5ZM10.5 6C9.67157 6 9 6.67157 9 7.5V24.5C9 25.3284 9.67157 26 10.5 26H33.5C34.3284 26 35 25.3284 35 24.5V7.5C35 6.67157 34.3284 6 33.5 6H10.5Z" transform="translate(0 4)" fill="#FFFFFF"/>
<path opacity="0.3" fill-rule="evenodd" clip-rule="evenodd" d="M9.5 0H0V4H7V2.5C7 1.11929 8.11929 0 9.5 0Z" transform="translate(1 9)" fill="#FFFFFF"/>
<path opacity="0.35" d="M4.5 0C5.45471 0 5.75463 0.682233 6.00493 1.36552C6.11159 1.65549 8.59129 8.43459 8.66522 8.6381C8.68529 8.69504 8.67261 8.78888 8.5839 8.82157C8.49624 8.85531 7.20781 9.35512 7.13706 9.38254C7.06524 9.4089 6.98498 9.36989 6.95963 9.29924C6.93323 9.22859 6.39885 7.7513 6.33865 7.5847C6.16123 7.5847 2.84194 7.5847 2.66452 7.5847C2.60432 7.75024 2.06466 9.23175 2.03931 9.29924C2.01396 9.36672 1.93687 9.41207 1.86189 9.38254C1.7869 9.35302 0.492138 8.8511 0.413987 8.82157C0.341117 8.7931 0.308379 8.7098 0.333725 8.6381C0.424549 8.38397 2.86728 1.71349 2.9919 1.36552C3.23375 0.693832 3.54529 0 4.5 0ZM0.138348 12.1315C0.062309 12.1315 0 12.1948 0 12.2739V13.8576C0 13.9367 0.062309 14 0.138348 14H8.86165C8.93769 14 9 13.9367 9 13.8576V12.2739C9 12.1948 8.93875 12.1315 8.86165 12.1315H0.138348ZM4.49261 2.21436L3.24959 5.93869H5.75464L4.50845 2.21436H4.49261Z" transform="translate(17.5 13)" fill="#FFFFFF"/>
</svg>
