<svg xmlns="http://www.w3.org/2000/svg" width="24" height="24" viewBox="0 0 24 24" fill="none"><rect width="24" height="24" fill="none"/>
<path d="M6.56995 19L17.6599 6.04999L18.4199 6.69999L7.32995 19.62L6.56995 19Z" fill="#0B1F35"/>
<path d="M8 11C8.59334 11 9.17336 10.8241 9.66671 10.4944C10.1601 10.1648 10.5446 9.69623 10.7716 9.14805C10.9987 8.59987 11.0581 7.99667 10.9424 7.41473C10.8266 6.83279 10.5409 6.29824 10.1213 5.87868C9.70176 5.45912 9.16721 5.1734 8.58527 5.05765C8.00333 4.94189 7.40013 5.0013 6.85195 5.22836C6.30377 5.45543 5.83524 5.83994 5.50559 6.33329C5.17595 6.82664 5 7.40666 5 8C5 8.79565 5.31607 9.55871 5.87868 10.1213C6.44129 10.6839 7.20435 11 8 11ZM8 6C8.39556 6 8.78224 6.1173 9.11114 6.33706C9.44004 6.55682 9.69638 6.86918 9.84776 7.23463C9.99913 7.60009 10.0387 8.00222 9.96157 8.39018C9.8844 8.77814 9.69392 9.13451 9.41421 9.41421C9.13451 9.69392 8.77814 9.8844 8.39018 9.96157C8.00222 10.0387 7.60009 9.99914 7.23463 9.84776C6.86918 9.69638 6.55682 9.44004 6.33706 9.11114C6.1173 8.78224 6 8.39556 6 8C6 7.46957 6.21071 6.96086 6.58579 6.58579C6.96086 6.21071 7.46957 6 8 6Z" fill="#0B1F35"/>
<path d="M17 14C16.4067 14 15.8266 14.1759 15.3333 14.5056C14.8399 14.8352 14.4554 15.3038 14.2284 15.8519C14.0013 16.4001 13.9419 17.0033 14.0576 17.5853C14.1734 18.1672 14.4591 18.7018 14.8787 19.1213C15.2982 19.5409 15.8328 19.8266 16.4147 19.9424C16.9967 20.0581 17.5999 19.9987 18.1481 19.7716C18.6962 19.5446 19.1648 19.1601 19.4944 18.6667C19.8241 18.1734 20 17.5933 20 17C20 16.2044 19.6839 15.4413 19.1213 14.8787C18.5587 14.3161 17.7957 14 17 14ZM17 19C16.6044 19 16.2178 18.8827 15.8889 18.6629C15.56 18.4432 15.3036 18.1308 15.1522 17.7654C15.0009 17.3999 14.9613 16.9978 15.0384 16.6098C15.1156 16.2219 15.3061 15.8655 15.5858 15.5858C15.8655 15.3061 16.2219 15.1156 16.6098 15.0384C16.9978 14.9613 17.3999 15.0009 17.7654 15.1522C18.1308 15.3036 18.4432 15.56 18.6629 15.8889C18.8827 16.2178 19 16.6044 19 17C19 17.5304 18.7893 18.0391 18.4142 18.4142C18.0391 18.7893 17.5304 19 17 19Z" fill="#0B1F35"/>
</svg>
