<svg xmlns="http://www.w3.org/2000/svg" width="24" height="24" viewBox="0 0 24 24">
  <g fill="none" fill-rule="evenodd">
    <polygon points="0 0 24 0 24 24 0 24"/>
    <path fill="#0B1F35" fill-rule="nonzero" d="M4,14 L8,14 L8,16 L4,16 L4,14 Z M1,8 L21,8 L21,11 L1,11 L1,8 Z" opacity=".3"/>
    <path fill="#0B1F35" fill-rule="nonzero" d="M22,11.0013275 L21,11.0013275 L21,5.42857143 C21,4.62923673 20.3999848,4 19.6842105,4 L2.31578947,4 C1.60001521,4 1,4.62923673 1,5.42857143 L1,17.5714286 C1,18.3707633 1.60001521,19 2.31578947,19 L12.9989941,19 L12.9989941,20 L2.31578947,20 C1.03681426,20 0,18.9126915 0,17.5714286 L0,5.42857143 C0,4.08730846 1.03681426,3 2.31578947,3 L19.6842105,3 C20.9631857,3 22,4.08730846 22,5.42857143 L22,11.0013275 Z"/>
    <path fill="#0B1F35" fill-rule="nonzero" d="M22,11.0013275 L21,11.0013275 L21,5.42857143 C21,4.62923673 20.3999848,4 19.6842105,4 L2.31578947,4 C1.60001521,4 1,4.62923673 1,5.42857143 L1,17.5714286 C1,18.3707633 1.60001521,19 2.31578947,19 L12.9989941,19 L12.9989941,20 L2.31578947,20 C1.03681426,20 0,18.9126915 0,17.5714286 L0,5.42857143 C0,4.08730846 1.03681426,3 2.31578947,3 L19.6842105,3 C20.9631857,3 22,4.08730846 22,5.42857143 L22,11.0013275 Z"/>
    <g fill="#0B1F35" fill-rule="nonzero" transform="translate(15 14)">
      <polygon points="1 7.428 7.339 0 8 .573 1.661 8"/>
      <path d="M2,4 C0.89597872,3.99867752 0.00132248,3.10402128 0,2 C0,0.8976 0.8968,0 2,0 C3.1032,0 4,0.8976 4,2 C4,3.1024 3.1032,4 2,4 Z M2,0.8 C1.3384,0.8 0.8,1.3384 0.8,2 C0.8,2.6616 1.3384,3.2 2,3.2 C2.6616,3.2 3.2,2.6616 3.2,2 C3.2,1.3384 2.6616,0.8 2,0.8 Z" transform="translate(5 4)"/>
      <path d="M2,4 C0.895978736,3.99867752 0.001322448,3.10402128 0,2 C0,0.8976 0.8968,0 2,0 C3.1032,0 4,0.8976 4,2 C4,3.1024 3.1032,4 2,4 Z M2,0.8 C1.3384,0.8 0.8,1.3384 0.8,2 C0.8,2.6616 1.3384,3.2 2,3.2 C2.6616,3.2 3.2,2.6616 3.2,2 C3.2,1.3384 2.6616,0.8 2,0.8 Z"/>
    </g>
  </g>
</svg>
