<svg width="18" height="18" fill="none" xmlns="http://www.w3.org/2000/svg"><path fill-rule="evenodd" clip-rule="evenodd" d="M9.5 1C5.364 1 2 4.364 2 8.5S5.364 16 9.5 16 17 12.636 17 8.5 13.636 1 9.5 1zm0 14A6.508 6.508 0 013 8.5C3 4.916 5.916 2 9.5 2S16 4.916 16 8.5 13.084 15 9.5 15z" fill="#fff"/><path fill-rule="evenodd" clip-rule="evenodd" d="M11.621 5.672l.707.707-4.95 4.95-.706-.708 4.95-4.95z" fill="#fff"/><path fill-rule="evenodd" clip-rule="evenodd" d="M7.379 5.672l4.95 4.95-.708.706-4.95-4.95.708-.706z" fill="#fff"/></svg>