<?xml version="1.0" encoding="UTF-8"?>
<svg width="24px" height="24px" viewBox="0 0 24 24" version="1.1" xmlns="http://www.w3.org/2000/svg" xmlns:xlink="http://www.w3.org/1999/xlink">
    <!-- Generator: Sketch 47 (45396) - http://www.bohemiancoding.com/sketch -->
    <title>icon_tool-sent_m_black</title>
    <desc>Created with Sketch.</desc>
    <defs></defs>
    <g id="Page-1" stroke="none" stroke-width="1" fill="none" fill-rule="evenodd">
        <g id="icon_tool-sent_m_black">
            <polygon id="Shape" points="0 0 24 0 24 24 0 24"></polygon>
            <path d="M20,23 L4,23 C2.6,23 1.5,21.9 1.5,20.5 L1.5,8.5 C1.5,7.7 2.2,7 3,7 L7.5,7 L7.5,8 L3,8 C2.7,8 2.5,8.2 2.5,8.5 L2.5,20.5 C2.5,21.3 3.2,22 4,22 L20,22 C20.8,22 21.5,21.3 21.5,20.5 L21.5,8.5 C21.5,8.2 21.3,8 21,8 L16.5,8 L16.5,7 L21,7 C21.8,7 22.5,7.7 22.5,8.5 L22.5,20.5 C22.5,21.9 21.4,23 20,23 Z" id="Shape" fill="#FFFFFF" fill-rule="nonzero"></path>
            <path d="M2,22 L2,16 L9.5,16 L9.5,16.5 C9.5,17.9 10.6,19 12,19 C13.4,19 14.5,17.9 14.5,16.5 L14.5,16 L22,16 L22,22 L2,22 Z" id="Shape" fill="#FFFFFF" fill-rule="nonzero" opacity="0.2"></path>
            <polygon id="Shape" fill="#FFFFFF" fill-rule="nonzero" points="7.6 4.4 8.4 5.1 11.5 2 11.5 12.2 12.5 12.2 12.5 2 15.6 5.1 16.4 4.4 12 0"></polygon>
        </g>
    </g>
</svg>
