<svg width="24" height="24" viewBox="0 0 24 24" xmlns="http://www.w3.org/2000/svg"><g fill="none" fill-rule="evenodd"><path d="M0 0h24v24H0z"/><path d="M1.5 23.065h21a.5.5 0 0 0 .5-.5V11.5a.5.5 0 0 0-.5-.5H15V1a.5.5 0 0 0-.697-.459l-13 5.565A.5.5 0 0 0 1 6.565v16a.5.5 0 0 0 .5.5zM15 12h7v10.065h-7V12zM2 6.895l12-5.137V22.065H2V6.895z" fill="#FFF"/><path d="M17.5 12a.5.5 0 0 0 .5-.5V8a.5.5 0 0 0-1 0v3.5a.5.5 0 0 0 .5.5zM5 9h2v3H5zM9 7h2v3H9zM17 14h2v3h-2zM5 14h2v3H5zM19.5 9.5a.5.5 0 0 0-.5.5v1.5a.5.5 0 0 0 1 0V10a.5.5 0 0 0-.5-.5z" fill="#FFF" opacity=".3"/></g></svg>