<svg width="24" height="24" viewBox="0 0 24 24" fill="none" xmlns="http://www.w3.org/2000/svg">
<path fill-rule="evenodd" clip-rule="evenodd" d="M2 0C0.895431 0 0 0.895431 0 2V13C0 14.1046 0.895431 15 2 15H5V17C5 18.1046 5.89543 19 7 19H22C23.1046 19 24 18.1046 24 17V6C24 4.89543 23.1046 4 22 4H19V2C19 0.895431 18.1046 0 17 0H2ZM2 1C1.44772 1 1 1.44772 1 2V13C1 13.5523 1.44772 14 2 14H5V6C5 4.89543 5.89543 4 7 4H18V2C18 1.44772 17.5523 1 17 1H2ZM7 5C6.44772 5 6 5.44772 6 6V17C6 17.5523 6.44772 18 7 18H22C22.5523 18 23 17.5523 23 17V6C23 5.44772 22.5523 5 22 5H7Z" transform="translate(0 2)" fill="#FFFFFF"/>
<path opacity="0.3" d="M6 0H0V3H4V2C4 0.895431 4.89543 0 6 0Z" transform="translate(1 6)" fill="#FFFFFF"/>
<path opacity="0.35" d="M2.7921 0C3.38446 0 3.57056 0.423959 3.72586 0.848573C3.79204 1.02877 5.33061 5.24149 5.37648 5.36796C5.38893 5.40334 5.38106 5.46166 5.32602 5.48198C5.27163 5.50294 4.47221 5.81354 4.4283 5.83058C4.38375 5.84696 4.33395 5.82272 4.31822 5.77881C4.30184 5.73491 3.97027 4.81688 3.93292 4.71335C3.82284 4.71335 1.76333 4.71335 1.65324 4.71335C1.61589 4.81622 1.28105 5.73688 1.26532 5.77881C1.2496 5.82075 1.20176 5.84893 1.15524 5.83058C1.10871 5.81223 0.305355 5.50032 0.256865 5.48198C0.211652 5.46428 0.191339 5.41252 0.207065 5.36796C0.263418 5.21004 1.77905 1.06481 1.85638 0.848573C2.00643 0.431167 2.19974 0 2.7921 0ZM0.08584 7.53886C0.0386607 7.53886 0 7.57818 0 7.62732V8.61154C0 8.66068 0.0386607 8.7 0.08584 8.7H5.49836C5.54554 8.7 5.5842 8.66068 5.5842 8.61154V7.62732C5.5842 7.57818 5.54619 7.53886 5.49836 7.53886H0.08584ZM2.78751 1.37606L2.01626 3.69047H3.57056L2.79734 1.37606H2.78751Z" transform="translate(11.71 9.3)" fill="#FFFFFF"/>
</svg>
