<svg width="48" height="48" viewBox="0 0 48 48" fill="none" xmlns="http://www.w3.org/2000/svg">
<rect width="48" height="48" fill="none"/>
<path fill-rule="evenodd" clip-rule="evenodd" d="M3.5 0C1.567 0 0 1.567 0 3.5V25.5C0 27.433 1.567 29 3.5 29H11V32.5C11 34.433 12.567 36 14.5 36H44.5C46.433 36 48 34.433 48 32.5V10.5C48 8.567 46.433 7 44.5 7H37V3.5C37 1.567 35.433 0 33.5 0H3.5ZM3.5 1C2.11929 1 1 2.11929 1 3.5V25.5C1 26.8807 2.11929 28 3.5 28H11V10.5C11 8.567 12.567 7 14.5 7H36V3.5C36 2.11929 34.8807 1 33.5 1H3.5ZM14.5 8C13.1193 8 12 9.11929 12 10.5V32.5C12 33.8807 13.1193 35 14.5 35H44.5C45.8807 35 47 33.8807 47 32.5V10.5C47 9.11929 45.8807 8 44.5 8H14.5Z" transform="translate(0 6)" fill="#FFFFFF"/>
<path opacity="0.3" d="M13.5 0H0V5H10V3.5C10 1.567 11.567 0 13.5 0Z" transform="translate(1 13)" fill="#FFFFFF"/>
<path opacity="0.35" d="M5.66176 0C6.86295 0 7.24031 0.852791 7.55522 1.7069C7.68942 2.06937 10.8093 10.5432 10.9023 10.7976C10.9276 10.8688 10.9116 10.9861 10.8 11.027C10.6897 11.0691 9.06866 11.6939 8.97963 11.7282C8.88928 11.7611 8.78829 11.7124 8.7564 11.624C8.72318 11.5357 8.05084 9.68912 7.9751 9.48087C7.75187 9.48087 3.57564 9.48087 3.35241 9.48087C3.27668 9.68781 2.59769 11.5397 2.5658 11.624C2.53391 11.7084 2.43691 11.7651 2.34257 11.7282C2.24823 11.6913 0.619193 11.0639 0.520866 11.027C0.429183 10.9914 0.387993 10.8872 0.419883 10.7976C0.534154 10.48 3.60753 2.14186 3.76432 1.7069C4.0686 0.867289 4.46058 0 5.66176 0ZM0.174065 15.1644C0.0783954 15.1644 0 15.2435 0 15.3423V17.3221C0 17.4209 0.0783954 17.5 0.174065 17.5H11.1495C11.2451 17.5 11.3235 17.4209 11.3235 17.3221V15.3423C11.3235 15.2435 11.2465 15.1644 11.1495 15.1644H0.174065ZM5.65246 2.76794L4.08854 7.42336H7.24031L5.67239 2.76794H5.65246Z" transform="translate(23.84 18.55)" fill="#FFFFFF"/>
</svg>
