<svg xmlns="http://www.w3.org/2000/svg" width="48" height="48" viewBox="0 0 48 48">
  <g fill="none" fill-rule="evenodd">
    <rect width="48" height="48"/>
    <path fill="#0B1F35" fill-rule="nonzero" d="M27.06 39L41.5 39C42.8807119 39 44 37.8807119 44 36.5L44 10.5C44 9.11928813 42.8807119 8 41.5 8L28 8 28 7 41.5 7C43.4329966 7 45 8.56700338 45 10.5L45 36.5C45 38.4329966 43.4329966 40 41.5 40L27.06 40 31.21 44.15 30.5 44.85 25.15 39.5 30.5 34.15 31.21 34.85 27.06 39zM21.29 7L17.15 2.85 17.85 2.15 23.21 7.5 17.85 12.85 17.15 12.15 21.29 8 6.5 8C5.11928813 8 4 9.11928813 4 10.5L4 36.5C4 37.8807119 5.11928813 39 6.5 39L20 39 20 40 6.5 40C4.56700338 40 3 38.4329966 3 36.5L3 10.5C3 8.56700338 4.56700338 7 6.5 7L21.29 7z"/>
    <rect width="40" height="6" x="4" y="16" fill="#0B1F35" opacity=".3"/>
    <rect width="8" height="4" x="10" y="28" fill="#0B1F35" opacity=".3"/>
  </g>
</svg>
