<?xml version="1.0" encoding="UTF-8"?>
<svg width="24px" height="24px" viewBox="0 0 24 24" version="1.1" xmlns="http://www.w3.org/2000/svg" xmlns:xlink="http://www.w3.org/1999/xlink">
    <!-- Generator: Sketch 52.5 (67469) - http://www.bohemiancoding.com/sketch -->
    <title>Slice</title>
    <desc>Created with Sketch.</desc>
    <g id="Marketplace-3.0" stroke="none" stroke-width="1" fill="none" fill-rule="evenodd">
        <g id="Group-36">
            <rect id="Rectangle" x="0" y="0" width="24" height="24"></rect>
            <path d="M21.7220872,3.95922 C21.7269449,4.01858186 21.7338763,4.1274821 21.7406915,4.28214132 C21.7965344,5.54940179 21.7401458,7.15029298 21.4853613,8.93814554 C20.5625237,15.413805 17.6135731,20.7142484 11.8436213,23.451737 L11.6292998,23.5534194 L11.4149783,23.451737 C7.5342513,21.6105698 4.88401217,18.5435814 3.27548664,14.6088615 C2.44187248,12.5697032 1.92958935,10.3958108 1.67701575,8.18883391 C1.50432679,6.67988548 1.47112355,5.34383599 1.51790804,4.28214132 C1.52472323,4.1274821 1.53165463,4.01858186 1.53651237,3.95922 L1.5700048,3.54994032 L1.97798886,3.50324332 C3.90564152,3.28260825 5.87950066,2.7846193 7.82021563,2.09260921 C8.76470405,1.75582841 9.63932054,1.39499709 10.4216531,1.03450526 C10.8888635,0.81921894 11.2196711,0.652896911 11.3918434,0.559983537 L11.6292998,0.43183944 L11.8667561,0.559983537 C12.0389284,0.652896911 12.3697361,0.81921894 12.8369464,1.03450526 C13.619279,1.39499709 14.4938955,1.75582841 15.4383839,2.09260921 C17.3790989,2.7846193 19.352958,3.28260825 21.2806107,3.50324332 L21.6885947,3.54994032 L21.7220872,3.95922 Z" id="Path" stroke="#FFFFFF" stroke-linecap="round" stroke-linejoin="round"></path>
            <path d="M16.912,10.728 L12.688,10.728 L12.688,6.48 C12.688,6.216 12.472,6 12.208,6 C11.944,6 11.728,6.216 11.728,6.48 L11.728,10.728 L7.48,10.728 C7.216,10.728 7,10.944 7,11.208 C7,11.472 7.216,11.688 7.48,11.688 L11.728,11.688 L11.728,15.936 C11.728,16.2 11.944,16.416 12.208,16.416 C12.472,16.416 12.688,16.2 12.688,15.936 L12.688,11.688 L16.936,11.688 C17.2,11.688 17.416,11.472 17.416,11.208 C17.416,10.944 17.176,10.728 16.912,10.728 Z" id="Path" stroke-opacity="0.4" stroke="#FFFFFF" stroke-width="0.2" fill-opacity="0.4" fill="#FFFFFF"></path>
        </g>
    </g>
</svg>