<svg xmlns="http://www.w3.org/2000/svg" width="36" height="36" viewBox="0 0 36 36">
  <g fill="#FFF">
    <path d="M34,25 L34,16 L24.5,16 C22.0147186,16 20,18.0147186 20,20.5 C20,22.9852814 22.0147186,25 24.5,25 L34,25 Z M24.5,15 L35,15 L35,26 L24.5,26 C21.4624339,26 19,23.5375661 19,20.5 C19,17.4624339 21.4624339,15 24.5,15 Z"/>
    <path d="M32.5,8.5 C33.8807119,8.5 35,9.61928813 35,11 L35,29.5 C35,31.4329966 33.4329966,33 31.5,33 L4.5,33 C2.56700338,33 1,31.4329966 1,29.5 L1,8 C1,6.06700338 2.56700338,4.5 4.5,4.5 L27.5,4.5 C29.4329966,4.5 31,6.06700338 31,8 L31,8.5 L32.5,8.5 Z M30,8 C30,6.61928813 28.8807119,5.5 27.5,5.5 L4.5,5.5 C3.11928813,5.5 2,6.61928813 2,8 L2,29.5 C2,30.8807119 3.11928813,32 4.5,32 L31.5,32 C32.8807119,32 34,30.8807119 34,29.5 L34,11 C34,10.1715729 33.3284271,9.5 32.5,9.5 L5.5,9.5 L5.5,8.5 L30,8.5 L30,8 Z"/>
    <circle cx="25.5" cy="20.5" r="2.5" opacity=".3"/>
  </g>
</svg>
