<svg height="24" viewBox="0 0 24 24" width="24" xmlns="http://www.w3.org/2000/svg">
  <rect width="24" height="24" fill="none"/>
  <path d="M18 6V4A1 1 0 0 0 17 3H2A1 1 0 0 0 1 4v11a1 1 0 0 0 1 1H5V8A2 2 0 0 1 7 6Zm1 0h3a2 2 0 0 1 2 2v11a2 2 0 0 1 -2 2H7A2 2 0 0 1 5 19V17H2A2 2 0 0 1 0 15V4A2 2 0 0 1 2 2h15a2 2 0 0 1 2 2zM7 7A1 1 0 0 0 6 8v11a1 1 0 0 0 1 1h15a1 1 0 0 0 1 -1V8A1 1 0 0 0 22 7Z" fill="#0b1f35"/>
  <path d="M7 6A2 2 0 0 0 5 8V9H1V6Z" fill="#0b1f35" opacity=".3"/>
  <path d="M11.86 16.61h5.28a0.09 0.09 0 0 1 0.09 0.09v1a0.09 0.09 0 0 1 -0.08 0.09H11.86A0.09 0.09 0 0 1 11.77 17.7v-1a0.09 0.09 0 0 1 0.09 -0.09z" fill="#0b1f35" opacity=".4"/>
  <path d="M13.46 13.84L13 15a0.09 0.09 0 0 1 -0.11 0.06L12 14.71a0.08 0.08 0 0 1 0 -0.11c0.05 -0.16 1.5 -4.27 1.58 -4.48 0.14 -0.41 0.35 -0.84 0.92 -0.84 0.57 0 0.77 0.43 0.91 0.84 0.08 0.21 1.53 4.32 1.58 4.48a0.08 0.08 0 0 1 0 0.11l-0.86 0.35A0.09 0.09 0 0 1 16.02 15l-0.46 -1.16zm0.29 -1h1.49L14.58 10.59H14.4Z" fill="#0b1f35" opacity=".4"/>
</svg>