<svg width="36" height="36" viewBox="0 0 36 36" xmlns="http://www.w3.org/2000/svg"><g fill="none" fill-rule="evenodd"><path d="M18 34.5C8.887 34.5 1.5 27.113 1.5 18S8.887 1.5 18 1.5 34.5 8.887 34.5 18 27.113 34.5 18 34.5zm.03-7.297a9.173 9.173 0 1 0 0-18.345 9.173 9.173 0 0 0 0 18.345z" stroke="#FFF"/><path d="M13.46 26.052l-3.25 6.149c-1.868-1.193-3.154-2.13-3.859-2.813-.704-.682-1.681-1.937-2.931-3.765l6.06-3.291m16.552-8.896l6.185-3.334c-1.126-1.709-2.011-2.892-2.656-3.548-.644-.657-1.932-1.687-3.863-3.091l-3.333 6.185m.143 16.542l3.319 6.157c1.976-1.213 3.308-2.169 3.994-2.868.686-.7 1.572-2.003 2.658-3.91l-6.165-3.323-3.806 3.944zM9.92 13.41L3.7 10.06c1.178-1.832 2.138-3.107 2.88-3.826.744-.72 1.999-1.59 3.766-2.61l3.366 6.246-3.792 3.542z" fill="#FFF" opacity=".3"/></g></svg>