<svg xmlns="http://www.w3.org/2000/svg" width="48" height="48" viewBox="0 0 48 48">
  <title>icon_balance-transfer_xxl_white</title>
  <g>
    <rect width="48" height="48" fill="none"/>
    <path d="M44.5,13H37V9.5A3.5,3.5,0,0,0,33.5,6H3.5A3.5,3.5,0,0,0,0,9.5v22A3.5,3.5,0,0,0,3.5,35H11v3.5A3.5,3.5,0,0,0,14.5,42h30A3.5,3.5,0,0,0,48,38.5v-22A3.5,3.5,0,0,0,44.5,13ZM3.5,34A2.5,2.5,0,0,1,1,31.5V9.5A2.5,2.5,0,0,1,3.5,7h30A2.5,2.5,0,0,1,36,9.5V13H14.5A3.5,3.5,0,0,0,11,16.5V34ZM47,38.5A2.5,2.5,0,0,1,44.5,41h-30A2.5,2.5,0,0,1,12,38.5v-22A2.5,2.5,0,0,1,14.5,14h30A2.5,2.5,0,0,1,47,16.5Z" fill="#fff"/>
    <path d="M11,16.5A3.5,3.5,0,0,1,14.5,13H1v5.9H11Z" fill="#fff" opacity="0.3"/>
    <g opacity="0.35">
      <path d="M35,33.65H24a.17.17,0,0,0-.17.18v2A.17.17,0,0,0,24,36H35a.17.17,0,0,0,.17-.18v-2A.17.17,0,0,0,35,33.65Z" fill="#fff"/>
      <path d="M24.38,29.49l1.81.7a.18.18,0,0,0,.23-.1c0-.09.7-1.94.78-2.15h4.61c.07.21.74,2.06.78,2.15a.16.16,0,0,0,.22.1l1.81-.7a.17.17,0,0,0,.1-.23l-3.33-9.13c-.32-.86-.69-1.72-1.89-1.72s-1.59.87-1.89,1.72c-.16.43-3.22,8.81-3.33,9.13A.17.17,0,0,0,24.38,29.49Zm5.11-8.3h0l1.56,4.68H27.93Z" fill="#fff"/>
    </g>
  </g>
</svg>
