<?xml version="1.0" encoding="UTF-8"?>
<svg width="48px" height="48px" viewBox="0 0 48 48" version="1.1" xmlns="http://www.w3.org/2000/svg" xmlns:xlink="http://www.w3.org/1999/xlink">
    <!-- Generator: Sketch 48.2 (47327) - http://www.bohemiancoding.com/sketch -->
    <title>icon_package_xxl_white</title>
    <desc>Created with Sketch.</desc>
    <defs></defs>
    <g id="set" stroke="none" stroke-width="1" fill="none" fill-rule="evenodd">
        <rect id="_ph_" x="0" y="0" width="48" height="48"></rect>
        <g id="icon_package_xxl_white" fill="#FFFFFF">
            <g id="art" transform="translate(4.000000, 2.000000)">
                <polygon id="Shape" opacity="0.3" points="25 32.4 20.5 27.4 16 32.4 16 14.4 25 14.4"></polygon>
                <path d="M39,43 L39,25 L41,25 L41,14 L0,14 L0,25 L2,25 L2,43 L39,43 L39,43 Z M1,15 L40,15 L40,24 L33,24 L33,25 L38,25 L38,42 L3,42 L3,25 L8,25 L8,24 L1,24 L1,15 L1,15 Z" id="Shape"></path>
                <path d="M33.6,11.6 L34.1,12.4 C36,11.2 37.2,9.2 37.3,7 C37.4,5 36.7,3.2 35.3,2.1 C34,1 32.4,0.6 30.7,0.8 C27.5,1.2 24.1,4 20.4,9 C16.7,4 13.3,1.2 10.1,0.8 C8.5,0.5 6.9,1 5.5,2.1 C4.1,3.3 3.4,5.1 3.5,7 C3.6,9.2 4.9,11.2 6.7,12.4 L7.2,11.6 C5.6,10.6 4.6,8.9 4.4,7 C4.4,5.3 5,3.8 6.2,2.9 C7.3,2 8.6,1.6 10,1.8 C13,2.2 16.4,5 20,10.2 L20.4,10.8 L20.8,10.2 C24.5,5 27.8,2.2 30.8,1.8 C32.2,1.6 33.5,2 34.6,2.9 C35.8,3.8 36.3,5.3 36.2,7 C36.2,8.9 35.2,10.6 33.6,11.6 L33.6,11.6 Z" id="Shape"></path>
            </g>
        </g>
    </g>
</svg>