<svg height="48" viewBox="0 0 48 48" width="48" xmlns="http://www.w3.org/2000/svg"><path d="m24.1447 14.3755-.0002-.0001c-1.1613-.6673-1.5555-2.1004-.934-3.1778 0-.0002.0001-.0003.0002-.0004l3.8786-6.68843c.0001-.00015.0002-.0003.0003-.00046.6261-1.07518 2.0682-1.45253 3.2306-.78765l1.5147.89204.3032.22716c.6304.47226 1.2114 1.05893 1.7024 1.72345.456.61989.8081 1.25258 1.0837 1.93739.1051.27328 2.9448 7.8797-4.2181 20.2343-5.2439 9.0438-9.7287 12.924-15.4811 13.7414l-.0037.0005c-.6992.1048-1.4259.1195-2.2206.0396-.8311-.093-1.6318-.3011-2.3576-.6092l-.4096-.1738-.0018.0032-1.46639-.8374c-1.16397-.669-1.55726-2.1028-.9344-3.1773.00002-.0001.00004-.0001.00006-.0001l3.87993-6.6899c.6247-1.0759 2.0672-1.4541 3.2307-.7855l.0002.0001 1.1173.6415.0006.0003 2.2685 1.3064.3311.1906.2721-.2686c.1161-.1146.2381-.2318.3675-.3559.0215-.0206.0432-.0414.0652-.0625l.0006-.0005.0127-.0123c1.4399-1.3869 3.4444-3.3177 5.2586-6.4469zm0 0 3.3842 1.946.3256.1872-.0903.3642c-.048.1937-.0985.3942-.1525.6052m-3.467-3.1026 3.467 3.1026m0 0c-.4842 1.9349-1.1597 4.6311-2.9756 7.7604z" fill="none" stroke="#fff"/></svg>