<svg xmlns="http://www.w3.org/2000/svg" width="24" height="24" viewBox="0 0 24 24">
  <title>icon_balance-transfer_m_black</title>
  <g>
    <rect width="24" height="24" fill="none"/>
    <path d="M5,8A2,2,0,0,1,7,6H1V9H5Z" fill="#0b1f35" opacity="0.3"/>
    <path d="M15.4,10.07c.06.18,1.53,4.35,1.58,4.48a.09.09,0,0,1-.05.11l-.86.35A.1.1,0,0,1,16,15s-.35-1.06-.39-1.16H13.46L13,15a.09.09,0,0,1-.11.06l-.86-.35a.08.08,0,0,1,0-.11c.05-.16,1.5-4.27,1.58-4.48.14-.41.32-.84.89-.84s.75.42.9.84Zm-3.54,6.54a.09.09,0,0,0-.09.09v1a.09.09,0,0,0,.09.09h5.29a.09.09,0,0,0,.08-.09v-1a.09.09,0,0,0-.09-.09H11.86Zm1.89-3.76h1.49l-.66-2.25H14.4Z" fill="#0b1f35" opacity="0.35"/>
    <path d="M22,6H19V4a2,2,0,0,0-2-2H2A2,2,0,0,0,0,4V15a2,2,0,0,0,2,2H5v2a2,2,0,0,0,2,2H22a2,2,0,0,0,2-2V8A2,2,0,0,0,22,6ZM5,8v8H2a1,1,0,0,1-1-1V4A1,1,0,0,1,2,3H17a1,1,0,0,1,1,1V6H7A2,2,0,0,0,5,8ZM23,19a1,1,0,0,1-1,1H7a1,1,0,0,1-1-1V8A1,1,0,0,1,7,7H22a1,1,0,0,1,1,1Z" fill="#0b1f35"/>
  </g>
</svg>
