<?xml version="1.0" encoding="UTF-8"?>
<svg width="48px" height="48px" viewBox="0 0 48 48" version="1.1" xmlns="http://www.w3.org/2000/svg" xmlns:xlink="http://www.w3.org/1999/xlink">
    <!-- Generator: Sketch 48.2 (47327) - http://www.bohemiancoding.com/sketch -->
    <title>icon_overdraft_xxl_black</title>
    <desc>Created with Sketch.</desc>
    <defs>
        <path d="M23,46 C10.2974508,46 0,35.7025492 0,23 C0,10.2974508 10.2974508,0 23,0 C35.7025492,0 46,10.2974508 46,23 C46,35.7025492 35.7025492,46 23,46 Z M23.0439137,36.9484594 C30.7231823,36.9484594 36.9484594,30.7231823 36.9484594,23.0439137 C36.9484594,15.3646452 30.7231823,9.13936809 23.0439137,9.13936809 C15.3646452,9.13936809 9.13936809,15.3646452 9.13936809,23.0439137 C9.13936809,30.7231823 15.3646452,36.9484594 23.0439137,36.9484594 Z" id="path-1"></path>
    </defs>
    <g id="icon_overdraft_xxl_black" stroke="none" stroke-width="1" fill="none" fill-rule="evenodd">
        <g id="ic" transform="translate(1.000000, 1.000000)">
            <mask id="mask-2" fill="white">
                <use xlink:href="#path-1"></use>
            </mask>
            <path stroke="#0B1F35" d="M23,46.5 C10.0213084,46.5 -0.5,35.9786916 -0.5,23 C-0.5,10.0213084 10.0213084,-0.5 23,-0.5 C35.9786916,-0.5 46.5,10.0213084 46.5,23 C46.5,35.9786916 35.9786916,46.5 23,46.5 Z M23.0439137,36.4484594 C30.4470399,36.4484594 36.4484594,30.4470399 36.4484594,23.0439137 C36.4484594,15.6407876 30.4470399,9.63936809 23.0439137,9.63936809 C15.6407876,9.63936809 9.63936809,15.6407876 9.63936809,23.0439137 C9.63936809,30.4470399 15.6407876,36.4484594 23.0439137,36.4484594 Z"></path>
            <g id="Group-7" opacity="0.300000012" mask="url(#mask-2)" fill="#0B1F35">
                <g transform="translate(23.000000, 22.871435) rotate(45.000000) translate(-23.000000, -22.871435) translate(-2.000000, -2.128565)" id="Path-2">
                    <polygon transform="translate(24.780938, 24.873755) scale(-1, 1) translate(-24.780938, -24.873755) " points="17.3814441 0.173984562 32.1804316 49.5735246 17.3814441 49.5735246 32.1804316 0.173984562"></polygon>
                    <polygon transform="translate(24.780938, 24.873755) rotate(90.000000) translate(-24.780938, -24.873755) " points="17.3814441 0.173984562 32.1804316 49.5735246 17.3814441 49.5735246 32.1804316 0.173984562"></polygon>
                </g>
            </g>
        </g>
    </g>
</svg>