<svg xmlns="http://www.w3.org/2000/svg" width="36" height="36" viewBox="0 0 36 36">
  <g>
    <rect width="36" height="36" fill="none"/>
    <path fill="#FFFFFF" fill-rule="nonzero" d="M33.5,9A2.5,2.5,0,0,1,36,11.5v17A2.5,2.5,0,0,1,33.5,31h-23A2.5,2.5,0,0,1,8,28.5V26H2.5A2.5,2.5,0,0,1,0,23.5V6.5A2.5,2.5,0,0,1,2.5,4h23A2.5,2.5,0,0,1,28,6.5V9Zm-23,1A1.5,1.5,0,0,0,9,11.5v17A1.5,1.5,0,0,0,10.5,30h23A1.5,1.5,0,0,0,35,28.5v-17A1.5,1.5,0,0,0,33.5,10ZM27,9V6.5A1.5,1.5,0,0,0,25.5,5H2.5A1.5,1.5,0,0,0,1,6.5v17A1.5,1.5,0,0,0,2.5,25H8V11.5A2.5,2.5,0,0,1,10.5,9Z"/>
    <path fill="#FFFFFF" d="M10.5,9A2.5,2.5,0,0,0,8,11.5V13H1V9Z" opacity="0.3"/>
    <path fill="#FFFFFF" d="M17.47,27h9.06a.17.17,0,0,0,.15-.16V25.16a.17.17,0,0,0-.15-.16H17.47a.17.17,0,0,0-.15.16v1.68A.17.17,0,0,0,17.47,27Z" opacity="0.35"/>
    <path fill="#FFFFFF" d="M20.58,14.54c-.1.35-2.45,6.91-2.54,7.15s0,.2,0,.2,1.38.54,1.42.54.15-.05.15-.1.54-1.52.59-1.67h3.52c0,.15.59,1.62.59,1.67a.2.2,0,0,0,.2.1c.09,0,1.32-.54,1.42-.54a.29.29,0,0,0,.05-.2c-.05-.2-2.45-6.85-2.55-7.15-.25-.68-.54-1.37-1.47-1.37S20.78,13.81,20.58,14.54ZM23.27,19H20.83L22,15.33Z" opacity="0.35"/>
  </g>
</svg>
