<?xml version="1.0" encoding="UTF-8"?>
<svg width="27px" height="25px" viewBox="0 0 27 25" version="1.1" xmlns="http://www.w3.org/2000/svg" xmlns:xlink="http://www.w3.org/1999/xlink">
    <!-- Generator: Sketch 48.2 (47327) - http://www.bohemiancoding.com/sketch -->
    <title>icon_transfer-out_l_black</title>
    <desc>Created with Sketch.</desc>
    <defs>
        <polygon id="path-1" points="30 0 13.929 15.077 0 0 0 28 30 28"></polygon>
    </defs>
    <g id="Page-1" stroke="none" stroke-width="1" fill="none" fill-rule="evenodd">
        <g id="icon_transfer-out_l_black" transform="translate(-1.000000, -3.000000)">
            <rect id="Rectangle" x="0" y="0" width="30" height="30"></rect>
            <g id="Clipped" transform="translate(0.000000, 1.000000)">
                <mask id="mask-2" fill="white">
                    <use xlink:href="#path-1"></use>
                </mask>
                <g id="path-1"></g>
                <path d="M14.5,26.5 C17.0124902,26.5 19.3585072,25.7872435 21.3468827,24.5528988 C25.0404967,22.2599753 27.5,18.1672115 27.5,13.5 C27.5,6.32029825 21.6797017,0.5 14.5,0.5 C7.32029825,0.5 1.5,6.32029825 1.5,13.5 C1.5,20.6797017 7.32029825,26.5 14.5,26.5 Z" id="Oval" stroke="#0B1F35" mask="url(#mask-2)"></path>
            </g>
            <polygon id="Shape" fill="#0B1F35" fill-rule="nonzero" points="9 8.4 9.8 9.1 13.9 5 13.9 18 14.9 18 14.9 5 19 9.1 19.8 8.4 14.4 3"></polygon>
        </g>
    </g>
</svg>