<?xml version="1.0" encoding="UTF-8"?>
<svg width="24px" height="24px" viewBox="0 0 24 24" version="1.1" xmlns="http://www.w3.org/2000/svg" xmlns:xlink="http://www.w3.org/1999/xlink">
    <!-- Generator: Sketch 48.1 (47250) - http://www.bohemiancoding.com/sketch -->
    <title>icon_card_m_black</title>
    <desc>Created with Sketch.</desc>
    <defs></defs>
    <g id="Page-1" stroke="none" stroke-width="1" fill="none" fill-rule="evenodd">
        <g id="icon_card_m_black">
            <polygon id="Shape" points="0 0 24 0 24 24 0 24"></polygon>
            <path d="M2,18 C2,18.556 2.442,19 2.991,19 L21.01,19 C21.2738914,18.9986772 21.5264487,18.8925765 21.7121105,18.7050394 C21.8977722,18.5175023 22.0013294,18.2638914 22,18 L22,5 C22,4.444 21.558,4 21.009,4 L2.99,4 C2.72610855,4.00132276 2.47355125,4.10742352 2.28788952,4.29496063 C2.10222779,4.48249773 1.99867058,4.73610859 2,5 L2,18 Z M2.991,3 L21.01,3 C22.109,3 23,3.89 23,5 L23,18 C23,19.105 22.11,20 21.009,20 L2.99,20 C1.891,20 1,19.11 1,18 L1,5 C1,3.895 1.89,3 2.991,3 Z" id="Shape" fill="#0B1F35" fill-rule="nonzero"></path>
            <path d="M2,8 L22,8 L22,11 L2,11 L2,8 Z M5,14 L9,14 L9,16 L5,16 L5,14 Z" id="Shape" fill="#0B1F35" fill-rule="nonzero" opacity="0.3"></path>
        </g>
    </g>
</svg>