<?xml version="1.0" encoding="UTF-8"?>
<svg width="24px" height="24px" viewBox="0 0 24 24" version="1.1" xmlns="http://www.w3.org/2000/svg" xmlns:xlink="http://www.w3.org/1999/xlink">
    <!-- Generator: Sketch 48.2 (47327) - http://www.bohemiancoding.com/sketch -->
    <title>icon_overdraft_m_white</title>
    <desc>Created with Sketch.</desc>
    <defs>
        <path d="M11,22 C4.92486775,22 0,17.0751322 0,11 C0,4.92486775 4.92486775,0 11,0 C17.0751322,0 22,4.92486775 22,11 C22,17.0751322 17.0751322,22 11,22 Z M11.0210022,17.6710023 C14.6936959,17.6710023 17.6710023,14.6936959 17.6710023,11.0210022 C17.6710023,7.34830859 14.6936959,4.37100213 11.0210022,4.37100213 C7.34830859,4.37100213 4.37100213,7.34830859 4.37100213,11.0210022 C4.37100213,14.6936959 7.34830859,17.6710023 11.0210022,17.6710023 Z" id="path-1"></path>
    </defs>
    <g id="icon_overdraft_m_white" stroke="none" stroke-width="1" fill="none" fill-rule="evenodd">
        <g id="ic" transform="translate(1.000000, 1.000000)">
            <mask id="mask-2" fill="white">
                <use xlink:href="#path-1"></use>
            </mask>
            <path stroke="#FFFFFF" d="M11,22.5 C4.64872538,22.5 -0.5,17.3512746 -0.5,11 C-0.5,4.64872538 4.64872538,-0.5 11,-0.5 C17.3512746,-0.5 22.5,4.64872538 22.5,11 C22.5,17.3512746 17.3512746,22.5 11,22.5 Z M11.0210022,17.1710023 C14.4175535,17.1710023 17.1710023,14.4175535 17.1710023,11.0210022 C17.1710023,7.62445096 14.4175535,4.87100213 11.0210022,4.87100213 C7.62445096,4.87100213 4.87100213,7.62445096 4.87100213,11.0210022 C4.87100213,14.4175535 7.62445096,17.1710023 11.0210022,17.1710023 Z"></path>
            <g id="Group-7" opacity="0.300000012" mask="url(#mask-2)" fill="#FFFFFF">
                <g transform="translate(11.000000, 11.000000) rotate(45.000000) translate(-11.000000, -11.000000) translate(-1.000000, -1.000000)" id="Path-2">
                    <polygon transform="translate(11.851753, 11.896143) scale(-1, 1) translate(-11.851753, -11.896143) " points="8.31286459 0.0832100081 15.3906412 23.709077 8.31286459 23.709077 15.3906412 0.0832100081"></polygon>
                    <polygon transform="translate(11.851753, 11.896143) rotate(90.000000) translate(-11.851753, -11.896143) " points="8.31286459 0.0832100081 15.3906412 23.709077 8.31286459 23.709077 15.3906412 0.0832100081"></polygon>
                </g>
            </g>
        </g>
    </g>
</svg>