<svg xmlns="http://www.w3.org/2000/svg" width="24" height="24" viewBox="0 0 24 24">
  <g fill="#0B1F35">
    <path d="M22,11 L16,11 C14.3431458,11 13,12.3431458 13,14 C13,15.6568542 14.3431458,17 16,17 L22,17 L22,11 Z M16,10 L23,10 L23,18 L16,18 C13.790861,18 12,16.209139 12,14 C12,11.790861 13.790861,10 16,10 Z"/>
    <path d="M20.5,6 C21.8807119,6 23,7.11928813 23,8.5 L23,19.5 C23,20.8807119 21.8807119,22 20.5,22 L3.5,22 C2.11928813,22 1,20.8807119 1,19.5 L1,5.5 C1,4.11928813 2.11928813,3 3.5,3 L17.5,3 C18.8807119,3 20,4.11928813 20,5.5 L20,6 L20.5,6 Z M19,5.5 C19,4.67157288 18.3284271,4 17.5,4 L3.5,4 C2.67157288,4 2,4.67157288 2,5.5 L2,19.5 C2,20.3284271 2.67157288,21 3.5,21 L20.5,21 C21.3284271,21 22,20.3284271 22,19.5 L22,8.5 C22,7.67157288 21.3284271,7 20.5,7 L5,7 L5,6 L19,6 L19,5.5 Z"/>
    <circle cx="16.5" cy="14" r="1.5" opacity=".3"/>
  </g>
</svg>
