<svg width="36" height="36" fill="none" xmlns="http://www.w3.org/2000/svg"><path fill-rule="evenodd" clip-rule="evenodd" d="M20.8 36h-4.7L7.5 21.3c-.5-.9-.6-1.9-.3-2.9L11.4 6h14.2l4.2 12.3c.3 1 .2 2-.3 2.9L20.8 36zm-4.1-1h3.6l8.3-14.2c.4-.6.5-1.4.2-2.1L24.9 7H12.1L8.2 18.7c-.2.7-.2 1.5.2 2.1L16.7 35z" fill="#fff"/><path fill-rule="evenodd" clip-rule="evenodd" d="M10 0h17v3H10V0zm8.5 16c-1.7 0-3 1.3-3 3 0 1.1.6 2.1 1.5 2.6v13.9h3V21.6c.9-.5 1.5-1.5 1.5-2.6 0-1.7-1.3-3-3-3z" fill="#fff" fill-opacity=".3"/></svg>