<svg xmlns="http://www.w3.org/2000/svg" width="24" height="24" viewBox="0 0 24 24" fill="none"><rect width="24" height="24" fill="none"/>
<path d="M12.2389 11C12.1034 10.4341 12.1896 9.83684 12.4813 9.33156C12.7832 8.80871 13.2804 8.42719 13.8636 8.27093C14.4467 8.11467 15.0681 8.19648 15.5909 8.49834C16.1138 8.80021 16.4953 9.29742 16.6516 9.88059C16.7505 10.25 16.754 10.6347 16.6665 11H12.2389Z" fill="#B6BCC3"/>
<path fill-rule="evenodd" clip-rule="evenodd" d="M20.0028 11.4537C19.8873 11.365 19.7653 11.292 19.6392 11.2326L22.6603 6L14 1L10.5871 6.91134L9.90755 6.95091C8.68892 7.02187 7.57862 7.58995 6.66439 8.23024C5.74144 8.87663 4.92415 9.66476 4.29479 10.2908C3.7142 10.8682 3.00362 11.4458 2.42463 11.887C2.13787 12.1055 1.88899 12.2864 1.7125 12.4122C1.62435 12.475 1.5545 12.5239 1.50731 12.5566L1.45413 12.5933L1.43859 12.604L1 12.9017V22.9998H11.4588C12.3563 22.9998 13.1596 22.7829 13.6623 22.1722C13.9731 21.7946 14.0812 21.3734 14.0954 20.9956C14.5672 20.9567 15.0439 20.7821 15.4142 20.4244C15.8012 20.0505 16 19.5444 16 19C16 18.721 15.9618 18.3534 15.7866 18H16C16.4875 18 17.011 17.8639 17.4357 17.5281C17.8847 17.1731 18.1641 16.6367 18.1641 16.0022C18.1641 15.6131 18.0685 15.2779 17.9133 15H18.5C18.9938 15 19.5327 14.8785 19.9745 14.5456C20.4482 14.1887 20.7324 13.6427 20.7324 13C20.7324 12.3921 20.4952 11.8319 20.0028 11.4537ZM21.2942 6.36603L18.6176 11.002C18.5781 11.0007 18.5389 11 18.5 11H9.3771L10 9.9077V9.92822L14.366 2.36603L21.2942 6.36603ZM14.2957 18.0255C14.2076 18.0089 14.1094 18 14 18H13.0084V17H16C16.6224 17 17.1641 16.6491 17.1641 16.0022C17.1641 15.8274 17.1305 15.6804 17.0754 15.5577C16.8858 15.1352 16.4423 15 16.2434 15H13.48V14H18.5C19.1842 14 19.7324 13.6584 19.7324 13C19.7324 12.3247 19.2399 12 18.5 12H8.51638C8.13266 12 7.89196 11.5856 8.08204 11.2523L9.96568 7.94922C9.51391 7.97553 9.06742 8.09101 8.63243 8.2685C7.23403 8.83908 5.95442 10.0504 5 10.9998C3.74869 12.2444 2 13.4315 2 13.4315V21.9998H11.4588C12.672 21.9998 13.0553 21.5304 13.0942 21H12.0014V20H14C14.5849 19.9571 15 19.5901 15 19C15 18.6604 14.9163 18.35 14.6541 18.1679C14.6271 18.1492 14.5982 18.1318 14.5673 18.1159C14.4899 18.0759 14.3999 18.0453 14.2957 18.0255Z" fill="#0B1F35"/>
</svg>
