<?xml version="1.0" encoding="UTF-8"?>
<svg width="28px" height="35px" viewBox="0 0 28 35" version="1.1" xmlns="http://www.w3.org/2000/svg" xmlns:xlink="http://www.w3.org/1999/xlink">
    <!-- Generator: Sketch 51.3 (57544) - http://www.bohemiancoding.com/sketch -->
    <title>marketplace_xl_white</title>
    <desc>Created with Sketch.</desc>
    <defs></defs>
    <g id="Icons-set" stroke="none" stroke-width="1" fill="none" fill-rule="evenodd">
        <g id="Group-41-Copy-2" transform="translate(-4.000000, 0.000000)">
            <polygon id="Shape" points="0 0 36 0 36 36 0 36"></polygon>
            <path d="M28.822695,8.85057471 L23.9574468,8.85057471 L23.9574468,5.93390805 C23.9574468,2.61494253 21.4751773,0 18.4964539,0 L17.5035461,0 C14.5248227,0 12.0425532,2.71551724 12.0425532,5.93390805 L12.0425532,8.85057471 L7.17730496,8.85057471 L4,35 L32,35 L28.822695,8.85057471 Z M13.035461,5.93390805 C13.035461,3.2183908 15.0212766,1.00574713 17.5035461,1.00574713 L18.4964539,1.00574713 C20.9787234,0.905172414 22.964539,3.11781609 22.964539,5.93390805 L22.964539,8.85057471 L13.035461,8.85057471 L13.035461,5.93390805 Z M7.97163121,9.85632184 L28.0283688,9.85632184 L30.9078014,33.9942529 L5.19148936,33.9942529 L7.97163121,9.85632184 Z" id="Shape" fill="#FFFFFF" fill-rule="nonzero"></path>
            <path d="M17.9687389,14 C19.5632782,14 20.0817296,15.1510424 20.5198009,16.3410862 C20.6795563,16.8171037 24.8653477,28.363529 24.984913,28.7205421 C25.025103,28.799545 24.984913,28.9585509 24.8653477,29.0375538 C24.7055923,29.0775553 22.5534163,29.9505874 22.433851,29.9895889 C22.3142857,30.0295903 22.1947203,29.9495874 22.115345,29.830583 C22.075155,29.7115786 21.1588223,27.2114866 21.0784423,26.9344764 L14.8992255,26.9344764 C14.7796602,27.2124866 13.9025128,29.7515801 13.8623228,29.830583 C13.8221328,29.9495874 13.7025674,30.0285903 13.5830021,29.9895889 C13.4634368,29.9495874 11.2710707,29.0765552 11.1515054,29.0375538 C11.0319401,28.9975523 10.9525648,28.8395465 11.0319401,28.7205421 C11.1916954,28.2845261 15.2971068,16.9361081 15.4970522,16.3410862 C15.8557482,15.1510424 16.3741995,14 17.9687389,14 Z M17.9687389,17.7691388 L15.8959382,24.1173726 L20.1219196,24.1173726 L17.9687389,17.7691388 Z" id="Shape" fill="#FFFFFF" fill-rule="nonzero" opacity="0.3"></path>
        </g>
    </g>
</svg>