<svg xmlns="http://www.w3.org/2000/svg" width="30" height="30" viewBox="0 0 30 30">
  <g fill="#FFF" transform="translate(-.5)">
    <path d="M28.5,12 L21.1666667,12 C19.1416226,12 17.5,13.790861 17.5,16 C17.5,18.209139 19.1416226,20 21.1666667,20 L28.5,20 L28.5,12 Z M21.1428571,11 L29.5,11 L29.5,21 L21.1428571,21 C18.5786779,21 16.5,18.7614237 16.5,16 C16.5,13.2385763 18.5786779,11 21.1428571,11 Z"/>
    <path d="M27,6.5 C28.3807119,6.5 29.5,7.61928813 29.5,9 L29.5,23.5 C29.5,24.8807119 28.3807119,26 27,26 L4,26 C2.61928813,26 1.5,24.8807119 1.5,23.5 L1.5,6 C1.5,4.61928813 2.61928813,3.5 4,3.5 L23.5,3.5 C24.8807119,3.5 26,4.61928813 26,6 L26,6.5 L27,6.5 Z M25,6 C25,5.17157288 24.3284271,4.5 23.5,4.5 L4,4.5 C3.17157288,4.5 2.5,5.17157288 2.5,6 L2.5,23.5 C2.5,24.3284271 3.17157288,25 4,25 L27,25 C27.8284271,25 28.5,24.3284271 28.5,23.5 L28.5,9 C28.5,8.17157288 27.8284271,7.5 27,7.5 L5,7.5 L5,6.5 L25,6.5 L25,6 Z"/>
    <circle cx="22" cy="16" r="2" opacity=".3"/>
  </g>
</svg>
