<?xml version="1.0" encoding="UTF-8"?>
<svg width="24px" height="24px" viewBox="0 0 24 24" version="1.1" xmlns="http://www.w3.org/2000/svg" xmlns:xlink="http://www.w3.org/1999/xlink">
    <!-- Generator: Sketch 47.1 (45422) - http://www.bohemiancoding.com/sketch -->
    <title>icon_plans-by-category_m_white</title>
    <desc>Created with Sketch.</desc>
    <defs></defs>
    <g id="Symbols" stroke="none" stroke-width="1" fill="none" fill-rule="evenodd">
        <g id="icon_plans-by-category_m_white">
            <g id="ungroup">
                <g>
                    <rect id="Rectangle-path" x="0" y="0" width="24" height="24"></rect>
                    <path d="M6,0.5 L6,0.5 C5.4,0.5 5,0.9 5,1.5 L5,4.5 C5,5.1 5.4,5.5 6,5.5 L6,5.5 C6.6,5.5 7,5.1 7,4.5 L7,1.5 C7,0.9 6.6,0.5 6,0.5 L6,0.5 Z" id="Shape" fill="#FFFFFF" opacity="0.3"></path>
                    <path d="M13,0.5 L13,0.5 C12.4,0.5 12,0.9 12,1.5 L12,4.5 C12,5.1 12.4,5.5 13,5.5 L13,5.5 C13.6,5.5 14,5.1 14,4.5 L14,1.5 C14,0.9 13.6,0.5 13,0.5 L13,0.5 Z" id="Shape" fill="#FFFFFF" opacity="0.3"></path>
                    <path d="M8,16 L4,16 C2.9,16 2,15.1 2,14 L2,5 C2,3.9 2.9,3 4,3 L5,3 L5,4 L4,4 C3.4,4 3,4.4 3,5 L3,14 C3,14.6 3.4,15 4,15 L8,15 L8,16 L8,16 Z" id="Shape" fill="#FFFFFF"></path>
                    <path d="M17,7.8 L16,7.8 L16,5 C16,4.4 15.6,4 15,4 L14,4 L14,3 L15,3 C16.1,3 17,3.9 17,5 L17,7.8 L17,7.8 Z" id="Shape" fill="#FFFFFF"></path>
                    <rect id="Rectangle-path" fill="#FFFFFF" x="7" y="3" width="5" height="1"></rect>
                    <path d="M16,23 C12.1,23 9,19.9 9,16 C9,12.1 12.1,9 16,9 L16,10 C12.7,10 10,12.7 10,16 C10,19.3 12.7,22 16,22 C18.8,22 21.3,20 21.9,17.2 L22.9,17.4 C22.2,20.6 19.3,23 16,23 L16,23 Z" id="Shape" fill="#FFFFFF"></path>
                    <path d="M16,16 L19.5,9.9 C20.6,10.5 21.4,11.4 22.1,12.5 C22.8,13.6 23,14.8 23,16 L16,16 L16,16 Z" id="Shape" fill="#FFFFFF" opacity="0.3"></path>
                    <path d="M17.8,10.3 C17.2,10.1 16.6,10 16,10 L16,9 C16.7,9 17.4,9.1 18.1,9.3 L17.8,10.3 L17.8,10.3 Z" id="Shape" fill="#FFFFFF"></path>
                    <g id="Group" opacity="0.3"></g>
                </g>
            </g>
        </g>
    </g>
</svg>