<?xml version="1.0" encoding="UTF-8"?>
<svg width="21px" height="22px" viewBox="0 0 21 22" version="1.1" xmlns="http://www.w3.org/2000/svg" xmlns:xlink="http://www.w3.org/1999/xlink">
    <!-- Generator: Sketch 48.2 (47327) - http://www.bohemiancoding.com/sketch -->
    <title>icon_transfer-in_m_black</title>
    <desc>Created with Sketch.</desc>
    <defs></defs>
    <g id="Page-1" stroke="none" stroke-width="1" fill="none" fill-rule="evenodd">
        <g id="icon_transfer-in_m_black" transform="translate(-1.000000, -1.000000)" fill="#0B1F35" fill-rule="nonzero">
            <g id="Group-3" transform="translate(1.000000, 1.000000)">
                <path d="M3.004,4.147 C1.146,6.04 0,8.637 0,11.5 C0,17.3 4.7,22 10.5,22 C16.3,22 21,17.3 21,11.5 C21,8.814 19.992,6.364 18.333,4.507 L17.61,5.199 C19.097,6.875 20,9.082 20,11.5 C20,16.747 15.747,21 10.5,21 C5.253,21 1,16.747 1,11.5 C1,8.92 2.027,6.583 3.695,4.87 L3.005,4.147 L3.004,4.147 Z" id="Shape"></path>
                <polyline id="Shape" points="14.182 8.9 11.012 12 11.012 0 9.989 0 9.989 12 6.817 8.9 6 9.6 10.5 14 15 9.6"></polyline>
            </g>
        </g>
    </g>
</svg>