<svg width="24" height="24" viewBox="0 0 24 24" xmlns="http://www.w3.org/2000/svg"><g fill="none" fill-rule="evenodd"><path d="M12 22.5C6.201 22.5 1.5 17.799 1.5 12S6.201 1.5 12 1.5 22.5 6.201 22.5 12 17.799 22.5 12 22.5zm.02-4.935a5.545 5.545 0 1 0 0-11.091 5.545 5.545 0 0 0 0 11.09z" stroke="#FFF"/><path d="M9.162 17.033l-2.031 3.843c-1.167-.746-1.971-1.332-2.411-1.759-.44-.426-1.051-1.21-1.833-2.353l3.788-2.057m10.345-5.56l3.866-2.083c-.704-1.068-1.257-1.808-1.66-2.218-.403-.41-1.208-1.054-2.415-1.932L14.728 6.78M14.818 17.119l2.074 3.848c1.235-.758 2.067-1.356 2.496-1.793.43-.437.983-1.252 1.661-2.444l-3.852-2.076-2.38 2.465zM6.95 9.132L3.063 7.037c.736-1.145 1.336-1.942 1.8-2.392.464-.45 1.249-.993 2.353-1.63L9.32 6.918 6.95 9.132z" fill="#FFF" opacity=".3"/></g></svg>