<svg width="36" height="36" viewBox="0 0 36 36" xmlns="http://www.w3.org/2000/svg"><g fill="none" fill-rule="evenodd"><path d="M0 0h36v36H0z"/><path d="M0 0h36v36H0z"/><path d="M2.5 34h31a.5.5 0 0 0 .5-.5v-16a.5.5 0 0 0-.5-.5H22V1.5a.5.5 0 0 0-.7-.459l-19 8.258c-.182.08-.3.26-.3.459V33.5a.5.5 0 0 0 .5.5zM22 18h11v15H22V18zM3 10.086l18-7.823V33H3V10.086z" fill="#0B1F35"/><path d="M26.5 18a.5.5 0 0 0 .5-.5v-5a.5.5 0 0 0-1 0v5a.5.5 0 0 0 .5.5zM26 21h3v4h-3zM7 13h3v4H7zM7 20h3v4H7zM13 10h3v4h-3zM29.5 18a.5.5 0 0 0 .5-.5v-2a.5.5 0 0 0-1 0v2a.5.5 0 0 0 .5.5z" fill="#0B1F35" opacity=".3"/></g></svg>