<svg width="48" height="48" fill="none" xmlns="http://www.w3.org/2000/svg"><path fill-rule="evenodd" clip-rule="evenodd" d="M27 48h-3v-1h2.5l11.1-18.4c.5-.9.7-2 .3-2.9L32.6 10H24V9h9.4l5.5 16.3c.4 1.3.3 2.6-.4 3.8L27 48zm-3 0h-3L9.5 29.1c-.7-1.1-.8-2.5-.4-3.8L14.6 9H24v1h-8.6l-5.3 15.6c-.3 1-.2 2 .3 2.9L21.5 47H24v1z" fill="#fff"/><path fill-rule="evenodd" clip-rule="evenodd" d="M12 0h24v4H12V0zm12 22c-2.2 0-4 1.8-4 4 0 1.5.8 2.8 2 3.4V47h4V29.4c1.2-.7 2-2 2-3.4 0-2.2-1.8-4-4-4z" fill="#fff" fill-opacity=".3"/></svg>