<?xml version="1.0" encoding="UTF-8"?>
<svg width="24px" height="24px" viewBox="0 0 24 24" version="1.1" xmlns="http://www.w3.org/2000/svg" xmlns:xlink="http://www.w3.org/1999/xlink">
    <!-- Generator: Sketch 46.2 (44496) - http://www.bohemiancoding.com/sketch -->
    <title>icon_account-shared_m_white@2x</title>
    <desc>Created with Sketch.</desc>
    <defs></defs>
    <g id="Symbols" stroke="none" stroke-width="1" fill="none" fill-rule="evenodd">
        <g id="icon_account-shared_m_white">
            <g>
                <rect id="_ph_" x="0" y="0" width="24" height="24"></rect>
                <path d="M14.9997,11 L15.9997,11 C15.9977,13.209 14.2067,15 11.9967,15 L5.0037,15 C2.7927,15 0.9997,13.208 0.9997,10.997 L0.9997,8.003 C0.9997,5.792 2.7927,4 5.0037,4 L11.9967,4 C14.2067,4 15.9977,5.791 15.9997,8 L14.9997,8 C14.9977,6.345 13.6517,5 11.9967,5 L5.0037,5 C3.3477,5 1.9997,6.347 1.9997,8.003 L1.9997,10.997 C1.9997,12.653 3.3477,14 5.0037,14 L11.9967,14 C13.6517,14 14.9977,12.655 14.9997,11 Z M18.9968,9 C21.2078,9 22.9998,10.792 22.9998,13.003 L22.9998,15.997 C22.9998,18.208 21.2078,20 18.9968,20 L12.0038,20 C9.7938,20 8.0018,18.209 8.0008,16 L9.0008,16 C9.0018,17.655 10.3488,19 12.0038,19 L18.9968,19 C20.6528,19 21.9998,17.653 21.9998,15.997 L21.9998,13.003 C21.9998,11.347 20.6528,10 18.9968,10 L12.0038,10 C10.3488,10 9.0018,11.345 9.0008,13 L8.0008,13 C8.0018,10.791 9.7938,9 12.0038,9 L18.9968,9 Z" id="Combined-Shape" fill="#FFFFFF"></path>
            </g>
        </g>
    </g>
</svg>