<svg xmlns="http://www.w3.org/2000/svg" width="36" height="36" viewBox="0 0 36 36">
  <title>icon_card-to-card_xl_white copy</title>
  <g>
    <rect width="36" height="36" fill="none"/>
    <rect x="3" y="12" width="30" height="4" fill="#fff" opacity="0.3"/>
    <rect x="8" y="21" width="6" height="3" fill="#fff" opacity="0.3"/>
    <path d="M13.44,9.73,17.67,5.5,13.44,1.27l-.7.71,3,3H4.5A2.5,2.5,0,0,0,2,7.5v20A2.5,2.5,0,0,0,4.5,30H15V29H4.5A1.5,1.5,0,0,1,3,27.5V7.5A1.5,1.5,0,0,1,4.5,6H15.76l-3,3Z" fill="#fff"/>
    <path d="M31.5,5H21V6H31.5A1.5,1.5,0,0,1,33,7.5v20A1.5,1.5,0,0,1,31.5,29H20.24l2.88-2.87-.71-.71L18.33,29.5l4,4,.7-.71L20.24,30H31.5A2.5,2.5,0,0,0,34,27.5V7.5A2.5,2.5,0,0,0,31.5,5Z" fill="#fff"/>
  </g>
</svg>
