<svg xmlns="http://www.w3.org/2000/svg" width="24" height="24" viewBox="0 0 24 24"><title>icon_balance-transfer_m_black</title><rect width="24" height="24" fill="none"/><rect x="6" y="9" width="4" height="2" fill="#0b1f35" opacity="0.3"/><rect x="3" y="4" width="18" height="2" fill="#0b1f35" opacity="0.3"/><path d="M20,0H4A2,2,0,0,0,2,2V13a2,2,0,0,0,2,2h6.38L11,14H4a1,1,0,0,1-1-1V2A1,1,0,0,1,4,1H20a1,1,0,0,1,1,1V13a1,1,0,0,1-1,1H13.6l2.92-5.07a.5.5,0,0,0-.86-.5L9.39,19.29a1.81,1.81,0,0,0-.79-1.07,1.81,1.81,0,0,0-1.38-.15,3.75,3.75,0,0,0-2.13,1.82c-.9,1.56-.76,3.27.31,3.89a1.66,1.66,0,0,0,.85.22,2,2,0,0,0,.53-.07,3.78,3.78,0,0,0,2.13-1.82h0L12,16.76l3.09,5.35h0a3.82,3.82,0,0,0,2.13,1.82,2.11,2.11,0,0,0,.54.07,1.62,1.62,0,0,0,.84-.22c1.07-.62,1.21-2.33.32-3.89a3.82,3.82,0,0,0-2.13-1.82,1.81,1.81,0,0,0-1.38.15,1.83,1.83,0,0,0-.8,1.06l-2-3.52L13,15h7a2,2,0,0,0,2-2V2A2,2,0,0,0,20,0ZM15.91,19.09a.64.64,0,0,1,.34-.09,1,1,0,0,1,.28,0,2.78,2.78,0,0,1,1.52,1.35c.65,1.13.55,2.23.05,2.52a.76.76,0,0,1-.62.05A2.78,2.78,0,0,1,16,21.61C15.31,20.48,15.42,19.37,15.91,19.09ZM6.52,23a.74.74,0,0,1-.61-.05c-.5-.29-.6-1.39,0-2.52A2.83,2.83,0,0,1,7.48,19a.88.88,0,0,1,.27,0,.64.64,0,0,1,.34.09c.5.28.6,1.39,0,2.52A2.83,2.83,0,0,1,6.52,23Z" fill="#0b1f35"/></svg>