<svg xmlns="http://www.w3.org/2000/svg" width="96" height="29" viewBox="0 0 96 29" fill="none"><rect width="96" height="29" fill="none"/>
<path d="M40.7384 0H44.4269V4.19474H40.7384V0Z" fill="#0B1F35"/>
<path fill-rule="evenodd" clip-rule="evenodd" d="M28.8824 0.759796H22.7239V19.8508H28.8824C34.9751 19.8508 38.7295 16.1845 38.7295 10.3053C38.7295 7.36569 37.8073 4.92152 36.0289 3.27004C34.3164 1.61857 31.8464 0.759796 28.8824 0.759796ZM26.4454 4.06274H28.8824C32.7027 4.06274 34.9751 6.40784 34.9751 10.3053C34.9751 14.1698 32.6368 16.5479 28.8824 16.5479H26.4454V4.06274Z" fill="#0B1F35"/>
<path d="M44.3284 6.20953H40.7716V19.8507H44.3284V6.20953Z" fill="#0B1F35"/>
<path d="M96 10.173V7.03521H91.8834V1.15597H88.3266V7.03521H85.0991V10.173H88.3266V15.4247C88.3266 18.3313 89.8744 19.8176 92.9043 19.8176H96V16.6468H94.0569C92.4103 16.6468 91.8504 16.0523 91.8504 14.4338V10.173H96Z" fill="#0B1F35"/>
<path fill-rule="evenodd" clip-rule="evenodd" d="M57.4357 12.8815C57.4357 17.2083 60.1362 20.181 64.1541 20.181C68.4354 20.181 69.9503 17.3735 70.1479 15.656H66.6241C66.6241 15.656 66.0642 17.1423 64.1541 17.1423C62.2439 17.1423 61.2889 15.6229 61.1242 13.5751H70.2796V12.8485C70.2796 8.45556 67.7767 5.61502 63.8906 5.61502C60.0374 5.61502 57.4357 8.52161 57.4357 12.8815ZM63.8906 8.58767C65.7349 8.58767 66.3606 10.074 66.5582 11.1309H61.1572C61.4536 9.64461 62.3098 8.58767 63.8906 8.58767Z" fill="#0B1F35"/>
<path fill-rule="evenodd" clip-rule="evenodd" d="M12.7125 3.40199C12.1856 1.81657 11.5599 0.561462 9.48509 0.561462C7.4103 0.561462 6.75164 1.81657 6.19177 3.40199L0.428468 19.8176H4.24872L5.56604 15.9201H12.9101L14.1287 19.8176H18.1795L12.7125 3.40199ZM6.65284 12.6172L9.25456 4.82227H9.35336L11.8233 12.6172H6.65284Z" fill="#0B1F35"/>
<path d="M0 25.1025H18.6072V29H0V25.1025Z" fill="#0B1F35"/>
<path d="M50.5193 8.15843V6.24273H46.9955V19.8839H50.5193V12.6835C50.5193 10.6026 51.6061 9.67778 54.142 9.67778H56.8755V6.14364H54.6689C53.8785 6.14364 51.4744 6.30878 50.5193 8.15843Z" fill="#0B1F35"/>
<path d="M78.3151 16.9771C79.5336 16.9771 80.4228 16.4156 80.8839 15.3256V15.2926H84.3419V15.3587C84.2101 16.7129 82.8599 20.181 78.2492 20.181C74.4619 20.181 71.7285 17.1092 71.7285 12.8815C71.7285 8.6537 74.4619 5.58197 78.2163 5.58197C82.5635 5.58197 84.0125 8.71975 84.276 10.173H80.7851C80.4887 9.61155 79.7971 8.78583 78.348 8.78583C76.6355 8.78583 75.384 10.4373 75.384 12.8815C75.384 15.2926 76.6026 16.9771 78.3151 16.9771Z" fill="#0B1F35"/>
</svg>
