<svg xmlns="http://www.w3.org/2000/svg" width="182" height="30" viewBox="0 0 182 30" fill="none"><rect width="182" height="30" fill="none"/>
<path d="M28.9503 0.20166H25.1403V20.3361H28.9503V0.20166Z" fill="black"/>
<path d="M13.4401 3.00002C12.8787 1.32215 12.2315 0 10.0115 0C7.79149 0 7.10149 1.31787 6.51006 3.00002L0.411438 20.338H4.45504L5.86291 16.2173H13.6458L14.953 20.338H19.2537L13.4401 3.00002ZM7.04149 12.7351L9.81222 4.51289H9.91508L12.5272 12.7308L7.04149 12.7351Z" fill="black"/>
<path d="M19.7144 25.9028H0V30H19.7144V25.9028Z" fill="black"/>
<path d="M67.7448 20.6914C63.4998 20.6914 60.6476 17.5607 60.6476 12.9771C60.6476 8.39345 63.3884 5.30557 67.4706 5.30557C71.5527 5.30557 74.2378 8.30559 74.2378 12.9492V13.7335H64.5413C64.7148 15.9107 65.7413 17.4942 67.7556 17.4942C69.7699 17.4942 70.3806 15.9257 70.3806 15.9257H74.0985C73.8842 17.7321 72.2727 20.6914 67.7448 20.6914ZM70.2949 11.1342C70.0956 10.0092 69.412 8.44274 67.4706 8.44274C65.7905 8.44274 64.8841 9.54632 64.5884 11.1342H70.2949Z" fill="black"/>
<path d="M133.67 20.6914C129.425 20.6914 126.573 17.5607 126.573 12.9771C126.573 8.39345 129.316 5.30557 133.396 5.30557C137.476 5.30557 140.163 8.30559 140.163 12.9492V13.7335H130.467C130.64 15.9107 131.669 17.4942 133.681 17.4942C135.693 17.4942 136.306 15.9257 136.306 15.9257H140.041C139.818 17.7321 138.202 20.6914 133.67 20.6914ZM136.22 11.1342C136.023 10.0092 135.337 8.44274 133.396 8.44274C131.718 8.44274 130.81 9.54632 130.514 11.1342H136.22Z" fill="black"/>
<path d="M39.9303 5.29937C39.1403 5.27974 38.359 5.4672 37.6639 5.84313C36.9688 6.21906 36.3842 6.77037 35.9682 7.44224V5.94223H32.2396V20.3338H35.9682V11.9637C35.9682 9.86584 36.8532 8.66368 38.7175 8.66368C40.5282 8.66368 41.4646 9.86584 41.4646 11.9637V20.3338H45.2211V11.3166C45.2211 7.66082 43.2411 5.29937 39.9303 5.29937Z" fill="black"/>
<path d="M149.956 5.29941C149.166 5.27951 148.385 5.46688 147.69 5.84285C146.996 6.21882 146.411 6.77028 145.996 7.44228V5.94227H142.265V20.3338H145.996V11.9637C145.996 9.86587 146.879 8.66372 148.743 8.66372C150.554 8.66372 151.49 9.86587 151.49 11.9637V20.3338H155.249V11.3166C155.251 7.66085 153.271 5.29941 149.956 5.29941Z" fill="black"/>
<path d="M83.3535 11.3313L81.6392 11.147C80.3149 10.9927 79.7106 10.5298 79.7106 9.60839C79.7106 8.8391 80.6342 8.16195 81.9885 8.16195C84.05 8.16195 84.6028 9.32981 84.6349 9.4241H88.3271C88.265 8.86909 87.47 5.29907 81.9564 5.29907C78.5106 5.29907 76.2327 7.22766 76.2327 9.88482C76.2327 12.377 77.8656 14.0377 81.3113 14.4384L83.1564 14.6527C84.5407 14.8049 84.8707 15.3277 84.8707 16.1891C84.8707 17.1449 84.1014 17.7277 82.6571 17.7277C80.1671 17.7277 79.8263 16.622 79.5328 15.917H75.8127C75.9049 17.7985 77.8206 20.6828 82.6528 20.6828C86.345 20.6828 88.5907 18.8977 88.5907 15.9684C88.5843 13.4227 87.17 11.762 83.3535 11.3313Z" fill="black"/>
<path d="M176.262 11.3313L174.548 11.147C173.223 10.9927 172.619 10.5298 172.619 9.60839C172.619 8.8391 173.543 8.16195 174.897 8.16195C176.958 8.16195 177.511 9.32981 177.543 9.4241H181.236C181.173 8.86909 180.378 5.29907 174.865 5.29907C171.419 5.29907 169.143 7.22766 169.143 9.88482C169.143 12.377 170.774 14.0377 174.22 14.4384L176.065 14.6527C177.449 14.8049 177.779 15.3277 177.779 16.1891C177.779 17.1449 177.01 17.7277 175.566 17.7277C173.076 17.7277 172.735 16.622 172.441 15.917H168.728C168.818 17.7985 170.733 20.6828 175.566 20.6828C179.258 20.6828 181.503 18.8977 181.503 15.9684C181.493 13.4227 180.076 11.762 176.262 11.3313Z" fill="black"/>
<path d="M99.9672 9.1653V5.95099H95.8529V0.20166H92.0986V5.94242H89.4093V9.15672H92.0986V15.7996C92.0986 18.8768 93.5986 20.3232 96.8129 20.3232H99.9651V16.9718H98.0494C96.3201 16.9718 95.8508 16.4703 95.8508 14.7411V9.16958L99.9672 9.1653Z" fill="black"/>
<path d="M167.151 9.1653V5.95099H163.038V0.20166H159.28V5.94242H156.599V9.15672H159.284V15.7996C159.284 18.8768 160.784 20.3232 163.998 20.3232H167.151V16.9589H165.237C163.508 16.9589 163.038 16.4596 163.038 14.7303V9.15887L167.151 9.1653Z" fill="black"/>
<path d="M119.463 5.2994C116.57 5.2994 115.392 7.10584 114.924 8.01014C114.007 6.28512 112.501 5.2994 110.405 5.2994C109.633 5.27623 108.869 5.45697 108.189 5.8234C107.509 6.18983 106.938 6.729 106.533 7.38656V5.92512H102.779V20.3338H106.533V11.8909C106.533 9.913 107.405 8.67657 109.171 8.67657C110.937 8.67657 111.894 9.87443 111.894 11.8909V20.3338H115.67V11.8909C115.67 9.913 116.553 8.67657 118.338 8.67657C120.123 8.67657 121.059 9.87443 121.059 11.8909V20.3338H124.842V11.2373C124.848 7.68656 122.808 5.2994 119.463 5.2994Z" fill="black"/>
<path d="M56.6833 5.94193L53.3704 15.2227L50.0232 5.94193H45.9432L51.4911 20.3335H55.0054L60.4054 5.94193H56.6833Z" fill="black"/>
</svg>
