<svg xmlns="http://www.w3.org/2000/svg" width="244" height="30" viewBox="0 0 244 30" fill="none"><rect width="244" height="30" fill="none"/>
<path d="M21.9214 13.7357C21.8357 16.4143 21.4928 16.9714 19.9714 16.9714V20.3571H20.5286C24.3 20.3571 25.2 18.4071 25.35 14.0786L25.5 9.29999H29.0357V20.3571H32.7214V5.9357H22.1786L21.9214 13.7357Z" fill="black"/>
<path d="M41.8714 10.3071H39.2143V5.9357H35.5286V20.3571H41.9357C45.9643 20.3571 47.3786 17.7428 47.3786 15.2786C47.3786 12.1071 45.3857 10.3071 41.8714 10.3071ZM41.5929 17.1643H39.2143V13.5H41.5929C42.8786 13.5 43.65 14.0571 43.65 15.2571C43.65 16.5857 42.9 17.1643 41.5929 17.1643Z" fill="black"/>
<path d="M59.3786 5.59288V0.235735H55.6929V5.59288C51.4714 5.95716 48.6214 8.93574 48.6214 13.1143C48.6214 17.3143 51.4714 20.3143 55.6929 20.6572V26.0786H59.3786V20.6572C63.6 20.3143 66.45 17.3143 66.45 13.1143C66.45 8.93574 63.6214 5.93574 59.3786 5.59288ZM55.6929 17.1857C53.6357 16.9072 52.3714 15.3643 52.3714 13.1143C52.3714 10.8643 53.6571 9.32145 55.6929 9.04288V17.1857ZM59.3786 17.1857V9.04288C61.4357 9.32145 62.7 10.8643 62.7 13.1143C62.7214 15.3857 61.4357 16.9072 59.3786 17.1857Z" fill="black"/>
<path d="M80.2714 15.9214V11.0786C80.2714 7.54287 78.0214 5.3143 74.2286 5.3143C70.3072 5.3143 68.2286 7.67144 68.0572 10.1357H71.7857C71.9143 9.60001 72.4714 8.67858 74.2072 8.67858C75.6429 8.67858 76.5643 9.34287 76.5643 11.0786H72.9C69.6214 11.0786 67.6714 12.7929 67.6714 15.6643C67.6714 18.6643 69.7929 20.7 72.8572 20.7C75.1072 20.7 76.35 19.6286 76.9072 18.8357C77.4 19.8 78.4714 20.3357 79.8857 20.3357H81.1714V17.0143C80.5286 17.0143 80.2714 16.7143 80.2714 15.9214ZM76.5857 14.9572C76.5857 16.6286 75.4072 17.5714 73.8643 17.5714C72.5357 17.5714 71.4857 17.0786 71.4857 15.6429C71.4857 14.2286 72.6429 14.0143 73.6286 14.0143H76.5643V14.9572H76.5857Z" fill="black"/>
<path d="M13.4571 3C12.9 1.32857 12.2571 0 10.0286 0C7.8 0 7.11429 1.32857 6.53571 3C0.428571 20.3357 0.428571 20.3357 0.428571 20.3357H4.47857L5.89286 16.2214H13.6714L14.9786 20.3357H19.2857C19.2857 20.3357 19.2857 20.3357 13.4571 3ZM7.07143 12.75L9.83571 4.54286H9.94286L12.5571 12.75H7.07143Z" fill="black"/>
<path d="M19.7143 25.9071H0V30H19.7143V25.9071Z" fill="black"/>
<path d="M91.95 14.7429V0.171439H88.0928V20.3357H91.9286L101.936 5.78572V20.3357H105.793V0.171439H101.936L91.95 14.7429Z" fill="black"/>
<path d="M168.364 5.95715V9.19287H173.036V20.3357H176.786V9.19287H181.479V5.95715H168.364Z" fill="black"/>
<path d="M118.179 11.4214H112.543V5.95715H108.879V20.3357H112.543V14.5714H118.179V20.3357H121.843V5.95715H118.179V11.4214Z" fill="black"/>
<path d="M192.343 5.95715L187.2 14.7429V5.95715H183.536V20.3357H187.179L192.3 11.4857V20.3357H196.007V5.95715H192.343Z" fill="black"/>
<path d="M224.636 5.95715L219.514 14.7429V5.95715H215.829V20.3357H219.471L224.593 11.4857V20.3357H228.3V5.95715H224.636Z" fill="black"/>
<path d="M240.021 5.95715L234.9 14.7429V5.95715H231.214V20.3357H234.857L239.979 11.4857V20.3357H243.686V5.95715H240.021Z" fill="black"/>
<path d="M152.421 12.9643C152.421 8.37858 149.743 5.3143 145.607 5.3143C141.493 5.3143 138.75 8.6143 138.75 13.1357C138.75 17.6572 141.621 20.7 145.907 20.7C150.771 20.7 152.271 17.4643 152.486 16.1357C151.671 16.1357 148.714 16.1357 148.714 16.1357C148.714 16.1357 147.729 17.5286 145.886 17.5072C143.957 17.4857 142.65 16.1572 142.457 13.65H152.421V12.9643ZM145.607 8.25001C147.171 8.25001 148.35 9.45001 148.586 11.1H142.564C142.843 9.3643 144 8.25001 145.607 8.25001Z" fill="black"/>
<path d="M134.936 12.9214C135.943 12.5143 136.95 11.5072 136.95 9.8143C136.95 7.4143 135.107 5.95715 132 5.95715H124.736V20.3357H132C135.279 20.3357 137.314 18.7286 137.314 16.1572C137.314 14.3357 136.136 13.3072 134.936 12.9214ZM128.421 14.4429H131.507C132.771 14.4429 133.521 14.9571 133.521 15.8571C133.521 16.9286 132.836 17.4643 131.486 17.4643H128.421V14.4429ZM131.4 11.6572H128.421V8.82858H131.4C132.579 8.82858 133.264 9.32144 133.264 10.1786C133.264 11.4643 132.086 11.6572 131.4 11.6572Z" fill="black"/>
<path d="M161.1 17.3357C159.279 17.3357 157.993 15.5572 157.993 13.0072C157.993 10.4143 159.236 8.67858 161.079 8.67858C163.136 8.67858 163.586 10.1143 163.736 10.4786C164.293 10.4786 166.886 10.4786 167.25 10.4786C167.143 8.9143 165.75 5.3143 161.079 5.3143C157.093 5.3143 154.221 8.55001 154.221 13.0072C154.221 17.4643 157.114 20.7 161.121 20.7C166.007 20.7 167.464 16.9714 167.571 15.5357C166.971 15.5357 164.936 15.5357 163.95 15.5357C163.586 16.2857 162.707 17.3357 161.1 17.3357Z" fill="black"/>
<path d="M211.371 17.1214V5.95715H207.707V17.1214H202.586V5.95715H198.921V20.3357H210.514V24.5357H213.879V17.1214H211.371Z" fill="black"/>
</svg>
