<svg xmlns="http://www.w3.org/2000/svg" width="181" height="30" viewBox="0 0 181 30" fill="none"><rect width="181" height="30" fill="none"/>
<path d="M13.4571 3C12.9 1.32857 12.2571 0 10.0286 0C7.79999 0 7.11428 1.32857 6.53571 3C0.428571 20.3357 0.428571 20.3357 0.428571 20.3357H4.47857L5.89285 16.2214H13.65L14.9571 20.3357H19.2643C19.2643 20.3357 19.2643 20.3357 13.4571 3ZM7.04999 12.7286L9.81428 4.52143H9.92142L12.5357 12.7286H7.04999Z" fill="black"/>
<path d="M19.7143 25.9072H0V30H19.7143V25.9072Z" fill="black"/>
<path d="M29.0143 14.7214V0.171432H25.1571V20.3357H28.9928L39 5.76429V20.3357H42.8571V0.171432H39.0214L29.0143 14.7214Z" fill="black"/>
<path d="M105.428 5.93571V9.19285H110.1V20.3357H113.85V9.19285H118.543V5.93571H105.428Z" fill="black"/>
<path d="M55.2428 11.4H49.6071V5.93571H45.9428V20.3357H49.6071V14.55H55.2428V20.3357H58.9071V5.93571H55.2428V11.4Z" fill="black"/>
<path d="M129.407 5.93571L124.286 14.7428V5.93571H120.6V20.3357H124.243L129.364 11.4857V20.3357H133.071V5.93571H129.407Z" fill="black"/>
<path d="M161.7 5.93571L156.578 14.7428V5.93571H152.914V20.3357H156.536L161.678 11.4857V20.3357H165.364V5.93571H161.7Z" fill="black"/>
<path d="M177.086 5.93571L171.964 14.7428V5.93571H168.3V20.3357H171.921L177.064 11.4857V20.3357H180.75V5.93571H177.086Z" fill="black"/>
<path d="M89.5071 12.9429C89.5071 8.35714 86.8285 5.29286 82.6928 5.29286C78.5785 5.29286 75.8357 8.59285 75.8357 13.1143C75.8357 17.6357 78.7071 20.6786 82.9928 20.6786C87.8571 20.6786 89.3571 17.4428 89.5714 16.1143C88.7571 16.1143 85.7999 16.1143 85.7999 16.1143C85.7999 16.1143 84.8142 17.5071 82.9714 17.4857C81.0428 17.4643 79.7357 16.1357 79.5428 13.6286H89.5071V12.9429ZM82.6928 8.24999C84.2571 8.24999 85.4356 9.45 85.6714 11.1H79.6499C79.9071 9.34285 81.0642 8.24999 82.6928 8.24999Z" fill="black"/>
<path d="M71.9999 12.9C73.0071 12.4928 74.0142 11.4857 74.0142 9.79285C74.0142 7.39285 72.1714 5.93571 69.0642 5.93571H61.8V20.3143H69.0642C72.3428 20.3143 74.3785 18.7071 74.3785 16.1357C74.3999 14.3143 73.1999 13.2857 71.9999 12.9ZM65.4857 14.4214H68.5714C69.8357 14.4214 70.5857 14.9357 70.5857 15.8357C70.5857 16.9071 69.8999 17.4428 68.5499 17.4428H65.4857V14.4214ZM68.4642 11.6571H65.4857V8.82857H68.4642C69.6428 8.82857 70.3285 9.32142 70.3285 10.1786C70.3285 11.4643 69.1499 11.6571 68.4642 11.6571Z" fill="black"/>
<path d="M98.1856 17.3357C96.3642 17.3357 95.0785 15.5571 95.0785 13.0071C95.0785 10.4143 96.3214 8.67856 98.1642 8.67856C100.221 8.67856 100.671 10.1143 100.821 10.4786C101.378 10.4786 103.971 10.4786 104.336 10.4786C104.228 8.91428 102.836 5.31428 98.1642 5.31428C94.1785 5.31428 91.3071 8.55 91.3071 13.0071C91.3071 17.4643 94.1999 20.7 98.2071 20.7C103.093 20.7 104.55 16.9714 104.657 15.5357C104.057 15.5357 102.021 15.5357 101.036 15.5357C100.65 16.2643 99.7713 17.3357 98.1856 17.3357Z" fill="black"/>
<path d="M148.436 17.1V5.93571H144.793V17.1H139.65V5.93571H135.986V20.3357H147.578V24.5143H150.943V17.1H148.436Z" fill="black"/>
</svg>
