<svg xmlns="http://www.w3.org/2000/svg" width="215" height="30" viewBox="0 0 215 30" fill="none"><rect width="215" height="30" fill="none"/>
<path d="M64.43 0.678937H60.681V20.4906H64.43V0.678937Z" fill="black"/>
<path d="M32.8591 5.11948C32.8591 3.73208 33.439 3.10163 34.7737 3.10163H38.8558V0.00211058H33.7405C30.7886 0.00211058 29.2304 1.53922 29.2304 4.43V7.17107H25.979V10.4456H29.2241V20.4758H32.8528V10.4583H36.4057V7.18372H32.8591V5.11948Z" fill="black"/>
<path d="M24.0877 0H20.4589V20.4885H24.0877V0Z" fill="black"/>
<path d="M13.2246 3.43267C12.6722 1.7817 12.0333 0.480748 9.851 0.480748C7.66869 0.480748 6.98975 1.77749 6.4078 3.43267L0.404845 20.4927H4.38573L5.77102 16.438H13.4292L14.7132 20.4927H18.945L13.2246 3.43267ZM6.92649 13.0117L9.64859 4.9255H9.7498L12.318 13.0117H6.92649Z" fill="black"/>
<path d="M49.6176 16.1302V11.367C49.6176 7.88797 47.3995 5.69511 43.6695 5.69511C39.813 5.69511 37.7657 8.01448 37.597 10.4329H41.2763C41.4007 9.90371 41.9553 8.99705 43.6695 8.99705C45.0801 8.99705 45.9889 9.6528 45.9889 11.367H42.3833C39.1594 11.367 37.2428 13.0538 37.2428 15.8771C37.2428 18.8291 39.3386 20.8427 42.3601 20.8427C44.5741 20.8427 45.8033 19.7884 46.341 19.002C46.8196 19.9592 47.8781 20.4779 49.2634 20.4779H50.5285V17.2118C49.8686 17.2118 49.6176 16.9103 49.6176 16.1302ZM45.9889 15.1961C45.9889 16.8344 44.8292 17.7664 43.3174 17.7664C42.0059 17.7664 40.9727 17.2877 40.9727 15.8687C40.9727 14.4497 42.1071 14.2557 43.0812 14.2557H45.9804L45.9889 15.1961Z" fill="black"/>
<path d="M19.3984 25.9685H0V30H19.3984V25.9685Z" fill="black"/>
<path d="M102.373 20.8427C98.1958 20.8427 95.3894 17.7601 95.3894 13.252C95.3894 8.74404 98.0862 5.70355 102.101 5.70355C106.147 5.70355 108.759 8.65548 108.759 13.2246V13.9964H99.2269C99.3977 16.1386 100.408 17.6968 102.379 17.6968C104.351 17.6968 104.96 16.1534 104.96 16.1534H108.631C108.418 17.9287 106.818 20.8427 102.373 20.8427ZM104.882 11.445C104.686 10.3381 104.013 8.79675 102.101 8.79675C100.45 8.79675 99.5579 9.88264 99.2669 11.445H104.882Z" fill="black"/>
<path d="M167.245 20.8427C163.069 20.8427 160.262 17.7601 160.262 13.252C160.262 8.74404 162.959 5.70355 166.976 5.70355C170.992 5.70355 173.634 8.65548 173.634 13.2246V13.9964H164.093C164.264 16.1386 165.276 17.6968 167.245 17.6968C169.215 17.6968 169.828 16.1534 169.828 16.1534H173.504C173.291 17.9287 171.701 20.8427 167.245 20.8427ZM169.755 11.4366C169.561 10.3296 168.886 8.78831 166.976 8.78831C165.323 8.78831 164.431 9.87421 164.14 11.4366H169.755Z" fill="black"/>
<path d="M75.0042 5.69512C74.2269 5.6758 73.458 5.86026 72.7741 6.23016C72.0901 6.60007 71.5149 7.14253 71.1055 7.80364V6.32768H67.4367V20.4885H71.1055V12.2526C71.1055 10.1884 71.9764 9.00549 73.8087 9.00549C75.5904 9.00549 76.5139 10.1884 76.5139 12.2526V20.4885H80.2101V11.6158C80.2101 8.0187 78.264 5.69512 75.0042 5.69512Z" fill="black"/>
<path d="M183.268 5.69512C182.491 5.6758 181.722 5.86026 181.038 6.23016C180.354 6.60007 179.779 7.14253 179.37 7.80364V6.32768H175.701V20.4885H179.37V12.2526C179.37 10.1884 180.24 9.00549 182.075 9.00549C183.856 9.00549 184.778 10.1884 184.778 12.2526V20.4885H188.476V11.6158C188.476 8.0187 186.52 5.69512 183.268 5.69512Z" fill="black"/>
<path d="M117.731 11.6306L116.044 11.4493C114.741 11.2974 114.136 10.842 114.136 9.93534C114.136 9.17838 115.045 8.51209 116.378 8.51209C118.406 8.51209 118.95 9.66122 118.979 9.754H122.612C122.553 9.20789 121.769 5.69511 116.346 5.69511C112.955 5.69511 110.714 7.59277 110.714 10.2073C110.714 12.6595 112.319 14.2936 115.711 14.6879L117.527 14.8988C118.889 15.0485 119.214 15.563 119.214 16.4127C119.214 17.351 118.457 17.9245 117.033 17.9245C114.585 17.9245 114.25 16.8365 113.959 16.1428H110.305C110.396 17.9941 112.281 20.8322 117.033 20.8322C120.666 20.8322 122.878 19.0758 122.878 16.1934C122.878 13.6885 121.484 12.0544 117.731 11.6306Z" fill="black"/>
<path d="M209.15 11.6306L207.463 11.4493C206.16 11.2974 205.566 10.842 205.566 9.93534C205.566 9.17838 206.474 8.51209 207.807 8.51209C209.835 8.51209 210.379 9.66122 210.409 9.754H214.044C213.983 9.20789 213.201 5.69511 207.775 5.69511C204.385 5.69511 202.144 7.59277 202.144 10.2073C202.144 12.6595 203.748 14.2936 207.141 14.6879L208.956 14.8988C210.318 15.0485 210.643 15.563 210.643 16.4127C210.643 17.351 209.886 17.9245 208.463 17.9245C206.015 17.9245 205.68 16.8365 205.389 16.1428H201.735C201.825 17.9941 203.71 20.8322 208.463 20.8322C212.098 20.8322 214.308 19.0758 214.308 16.1934C214.297 13.6885 212.903 12.0544 209.15 11.6306Z" fill="black"/>
<path d="M134.079 9.49887V6.33609H130.03V0.678937H126.334V6.32766H123.686V9.49043H126.33V16.0268C126.33 19.0547 127.806 20.4779 130.968 20.4779H134.072V17.1802H132.187C130.486 17.1802 130.024 16.6868 130.024 14.9852V9.50308L134.079 9.49887Z" fill="black"/>
<path d="M200.185 9.49887V6.33609H196.139V0.678937H192.44V6.32766H189.798V9.49043H192.44V16.0268C192.44 19.0547 193.916 20.4779 197.079 20.4779H200.181V17.1675H198.298C196.596 17.1675 196.134 16.6763 196.134 14.9747V9.49254L200.185 9.49887Z" fill="black"/>
<path d="M153.262 5.69513C150.415 5.69513 149.256 7.4726 148.794 8.3624C147.894 6.66504 146.411 5.69513 144.347 5.69513C143.588 5.67248 142.836 5.8504 142.167 6.21096C141.499 6.57152 140.937 7.10197 140.539 7.74882V6.31081H136.845V20.4885H140.539V12.1809C140.539 10.2348 141.397 9.01814 143.135 9.01814C144.872 9.01814 145.812 10.1968 145.812 12.1809V20.4885H149.536V12.1809C149.536 10.2348 150.405 9.01814 152.159 9.01814C153.913 9.01814 154.839 10.1968 154.839 12.1809V20.4885H158.561V11.5378C158.561 8.04401 156.553 5.69513 153.262 5.69513Z" fill="black"/>
<path d="M91.4865 6.32766L88.2288 15.4596L84.9353 6.32766H80.9186L86.3775 20.4885H89.8376L95.1511 6.32766H91.4865Z" fill="black"/>
</svg>
