<svg xmlns="http://www.w3.org/2000/svg" width="179" height="30" viewBox="0 0 179 30" fill="none"><rect width="179" height="30" fill="none"/>
<path d="M104.183 16.207V0.136997H91.03L90.127 10.2C89.849 13.092 89.381 15.065 88.69 16.206H86.504V24.012H89.95V19.625H103.658V24.012H107.104V16.206L104.183 16.207ZM100.391 3.556V16.206H92.503C93.057 15.057 93.433 13.205 93.679 10.403L94.304 3.548L100.391 3.556ZM160.139 12.379L166.16 5.736H161.675L156.743 11.264V5.736H153.174V19.692H156.743V13.816L162.022 19.692H166.633L160.139 12.379ZM117.209 5.757L112.241 14.272V5.757H108.683V19.692H112.204L117.172 11.125V19.692H120.756V5.757H117.209ZM130.944 5.106C130.155 5.08835 129.376 5.28689 128.691 5.68012C128.006 6.07335 127.442 6.64631 127.06 7.337V5.761H123.479V25.331H127.06V17.961C127.58 18.742 128.699 19.994 130.944 19.994C134.481 19.994 136.622 17.072 136.622 12.725C136.624 8.382 134.476 5.106 130.944 5.106ZM132.934 12.548C132.934 14.992 131.885 16.819 129.991 16.819C128.095 16.819 127.009 14.992 127.009 12.548C127.009 10.06 128.069 8.306 129.991 8.306C131.912 8.306 132.932 10.06 132.932 12.548H132.934ZM144.991 19.986C140.873 19.986 138.105 16.998 138.105 12.548C138.105 8.098 140.759 5.107 144.723 5.107C148.684 5.107 151.286 8.017 151.286 12.52V13.279H141.882C142.05 15.392 143.231 16.695 144.99 16.695C145.493 16.7129 145.992 16.6001 146.438 16.3675C146.884 16.1349 147.262 15.7905 147.535 15.368H151.159C150.95 17.116 149.383 19.986 144.991 19.986ZM147.462 10.763C147.274 9.674 146.608 8.154 144.723 8.154C143.096 8.154 142.215 9.224 141.931 10.763H147.462ZM179 5.736H166.931V8.985H171.181V19.692H174.75V8.985H179V5.736ZM21.211 13.298C21.128 15.899 20.792 16.419 19.33 16.419V19.692H19.874C23.523 19.692 24.401 17.807 24.534 13.618L24.683 8.974H28.102V19.692H31.671V5.736H21.462L21.211 13.298ZM40.542 9.975H37.964V5.736H34.395V19.692H40.587C44.476 19.692 45.865 17.164 45.865 14.785C45.873 11.719 43.939 9.975 40.542 9.975ZM40.271 16.609H37.965V13.072H40.271C41.51 13.072 42.261 13.616 42.261 14.782C42.253 16.05 41.534 16.62 40.271 16.62V16.609ZM57.491 5.414V0.233997H53.928V5.414C49.836 5.761 47.086 8.662 47.086 12.711C47.086 16.76 49.836 19.674 53.928 20.022V25.276H57.491V20.012C61.585 19.693 64.348 16.768 64.348 12.702C64.348 8.635 61.585 5.736 57.491 5.414ZM53.928 16.641C51.938 16.37 50.704 14.872 50.704 12.702C50.704 10.532 51.944 9.034 53.928 8.762V16.641ZM57.497 16.641V8.761C59.487 9.033 60.72 10.531 60.72 12.701C60.72 14.871 59.483 16.362 57.492 16.64L57.497 16.641ZM77.722 15.4V10.717C77.722 7.297 75.538 5.141 71.873 5.141C68.079 5.141 66.071 7.42 65.902 9.801H69.521C69.644 9.28 70.184 8.388 71.875 8.388C73.263 8.388 74.156 9.034 74.156 10.717H70.618C67.444 10.717 65.56 12.378 65.56 15.154C65.56 18.055 67.62 20.038 70.592 20.038C72.772 20.038 73.982 19.011 74.51 18.229C74.981 19.17 76.018 19.693 77.384 19.693H78.622V16.469C77.969 16.468 77.722 16.172 77.722 15.4ZM74.153 14.486C74.153 16.096 73.011 17.013 71.526 17.013C70.236 17.013 69.22 16.541 69.22 15.154C69.22 13.765 70.335 13.57 71.303 13.57H74.153V14.486ZM13.032 2.906C12.488 1.283 11.863 0 9.713 0C7.564 0 6.896 1.276 6.324 2.906L0.42 19.692H4.334L5.698 15.712H13.232L14.497 19.692H18.661L13.032 2.906ZM6.842 12.33L9.516 4.369H9.616L12.143 12.33H6.842ZM0 25.082H19.079V29.062H0V25.082Z" fill="#0B1F35"/>
</svg>
