<svg xmlns="http://www.w3.org/2000/svg" width="179" height="32" viewBox="0 0 179 32" fill="none"><rect width="179" height="32" fill="none"/>
<path d="M104.183 17.207V1.137H91.03L90.127 11.2C89.849 14.092 89.381 16.065 88.69 17.206H86.504V25.012H89.95V20.625H103.658V25.012H107.104V17.206L104.183 17.207ZM100.391 4.556V17.206H92.503C93.057 16.057 93.433 14.205 93.679 11.403L94.304 4.548L100.391 4.556ZM160.139 13.379L166.16 6.736H161.675L156.743 12.264V6.736H153.174V20.692H156.743V14.816L162.022 20.692H166.633L160.139 13.379ZM117.209 6.757L112.241 15.272V6.757H108.683V20.692H112.204L117.172 12.125V20.692H120.756V6.757H117.209ZM130.944 6.106C130.155 6.08835 129.376 6.28689 128.691 6.68012C128.006 7.07335 127.442 7.64631 127.06 8.337V6.761H123.479V26.331H127.06V18.961C127.58 19.742 128.699 20.994 130.944 20.994C134.481 20.994 136.622 18.072 136.622 13.725C136.624 9.382 134.476 6.106 130.944 6.106ZM132.934 13.548C132.934 15.992 131.885 17.819 129.991 17.819C128.095 17.819 127.009 15.992 127.009 13.548C127.009 11.06 128.069 9.306 129.991 9.306C131.912 9.306 132.932 11.06 132.932 13.548H132.934ZM144.991 20.986C140.873 20.986 138.105 17.998 138.105 13.548C138.105 9.098 140.759 6.107 144.723 6.107C148.684 6.107 151.286 9.017 151.286 13.52V14.279H141.882C142.05 16.392 143.231 17.695 144.99 17.695C145.493 17.7129 145.992 17.6001 146.438 17.3675C146.884 17.1349 147.262 16.7905 147.535 16.368H151.159C150.95 18.116 149.383 20.986 144.991 20.986ZM147.462 11.763C147.274 10.674 146.608 9.154 144.723 9.154C143.096 9.154 142.215 10.224 141.931 11.763H147.462ZM179 6.736H166.931V9.985H171.181V20.692H174.75V9.985H179V6.736ZM21.211 14.298C21.128 16.899 20.792 17.419 19.33 17.419V20.692H19.874C23.523 20.692 24.401 18.807 24.534 14.618L24.683 9.974H28.102V20.692H31.671V6.736H21.462L21.211 14.298ZM40.542 10.975H37.964V6.736H34.395V20.692H40.587C44.476 20.692 45.865 18.164 45.865 15.785C45.873 12.719 43.939 10.975 40.542 10.975ZM40.271 17.609H37.965V14.072H40.271C41.51 14.072 42.261 14.616 42.261 15.782C42.253 17.05 41.534 17.62 40.271 17.62V17.609ZM57.491 6.414V1.234H53.928V6.414C49.836 6.761 47.086 9.662 47.086 13.711C47.086 17.76 49.836 20.674 53.928 21.022V26.276H57.491V21.012C61.585 20.693 64.348 17.768 64.348 13.702C64.348 9.635 61.585 6.736 57.491 6.414ZM53.928 17.641C51.938 17.37 50.704 15.872 50.704 13.702C50.704 11.532 51.944 10.034 53.928 9.762V17.641ZM57.497 17.641V9.761C59.487 10.033 60.72 11.531 60.72 13.701C60.72 15.871 59.483 17.362 57.492 17.64L57.497 17.641ZM77.722 16.4V11.717C77.722 8.297 75.538 6.141 71.873 6.141C68.079 6.141 66.071 8.42 65.902 10.801H69.521C69.644 10.28 70.184 9.388 71.875 9.388C73.263 9.388 74.156 10.034 74.156 11.717H70.618C67.444 11.717 65.56 13.378 65.56 16.154C65.56 19.055 67.62 21.038 70.592 21.038C72.772 21.038 73.982 20.011 74.51 19.229C74.981 20.17 76.018 20.693 77.384 20.693H78.622V17.469C77.969 17.468 77.722 17.172 77.722 16.4ZM74.153 15.486C74.153 17.096 73.011 18.013 71.526 18.013C70.236 18.013 69.22 17.541 69.22 16.154C69.22 14.765 70.335 14.57 71.303 14.57H74.153V15.486ZM13.032 3.906C12.488 2.283 11.863 1 9.713 1C7.564 1 6.896 2.276 6.324 3.906L0.42 20.692H4.334L5.698 16.712H13.232L14.497 20.692H18.661L13.032 3.906ZM6.842 13.33L9.516 5.369H9.616L12.143 13.33H6.842ZM0 26.082H19.079V30.062H0V26.082Z" fill="#0B1F35"/>
</svg>
