<svg xmlns="http://www.w3.org/2000/svg" width="24" height="24" viewBox="0 0 24 24" fill="none"><rect width="24" height="24" fill="none"/>
<path d="M3.20768 5.87879C4.09781 3.16473 6.68562 1.48305 9.40745 1.62504C7.52386 3.62294 6.68851 6.52167 7.45136 9.36868C7.95074 11.2324 9.05433 12.7729 10.4949 13.8358C10.1847 13.9085 9.86767 13.9575 9.54661 13.9814C9.50458 14.026 9.45913 14.0676 9.41054 14.1058L8.59937 14.743C8.2064 15.0517 8.0376 15.5664 8.17141 16.0479L8.32701 16.6078C8.46083 17.0892 8.29202 17.6039 7.89906 17.9126L7.4421 18.2716C7.04913 18.5803 6.88032 19.095 7.01414 19.5765L7.16974 20.1363C7.30356 20.6178 7.13475 21.1325 6.74178 21.4412L5.34117 22.5415C4.64656 23.0872 3.62038 22.7506 3.38386 21.8996L2.78629 19.7495C2.72085 19.5141 2.72657 19.2645 2.80273 19.0323L4.96864 12.4283C3.18875 10.8396 2.41666 8.29067 3.20768 5.87879Z" fill="#0B1F35"/>
<path fill-rule="evenodd" clip-rule="evenodd" d="M19.1189 12.1683C21.0514 10.6907 22.0075 8.14253 21.3388 5.64696C20.4541 2.34523 17.0604 0.385838 13.7587 1.27053C10.4569 2.15523 8.49753 5.54899 9.38223 8.85072C10.0391 11.3022 12.0792 13.0137 14.4378 13.3705L16.2363 20.0823C16.2995 20.3184 16.4312 20.5304 16.6148 20.6917L18.291 22.1649C18.9545 22.748 19.9977 22.4684 20.2807 21.6317L20.8515 19.9445C21.0116 19.4712 20.8714 18.948 20.496 18.6181L20.0596 18.2345C19.6842 17.9046 19.544 17.3814 19.7041 16.908L19.8903 16.3576C20.0505 15.8842 19.9103 15.361 19.5349 15.0311L19.0984 14.6475C18.7231 14.3176 18.5829 13.7944 18.743 13.321L19.0736 12.3439C19.093 12.2863 19.1082 12.2276 19.1189 12.1683ZM17.4438 5.45733C17.44 5.44196 17.4361 5.42659 17.4319 5.41122C17.0781 4.09053 15.7206 3.30678 14.3999 3.66066C13.0792 4.01453 12.2954 5.37204 12.6493 6.69273L12.6496 6.69387L17.4318 5.41248L17.4438 5.45733Z" fill="#0B1F35"/>
</svg>
