<svg xmlns="http://www.w3.org/2000/svg" width="24" height="24" viewBox="0 0 24 24" fill="none"><rect width="24" height="24" fill="none"/>
<path fill-rule="evenodd" clip-rule="evenodd" d="M5.03555 18.9205L7.39113 15H16.5314L18.8356 18.8809C19.2475 19.5747 19.9946 20 20.8015 20C22.2142 20 23.2888 18.7314 23.0566 17.3379L21.4195 7.51551C21.1776 6.06392 19.9217 5 18.45 5H5.55047C4.07886 5 2.82294 6.06392 2.581 7.51551L0.932202 17.4083C0.70609 18.765 1.75229 20 3.12768 20C3.90902 20 4.63315 19.5903 5.03555 18.9205ZM8 7.5H6.5V9L5 9V10.5H6.5V12H8V10.5H9.5V9H8V7.5ZM18.45 9.45004C18.45 10.5546 17.5546 11.45 16.45 11.45C15.3455 11.45 14.45 10.5546 14.45 9.45004C14.45 8.34547 15.3455 7.45004 16.45 7.45004C17.5546 7.45004 18.45 8.34547 18.45 9.45004Z" fill="#0B1F35"/>
</svg>
