<svg xmlns="http://www.w3.org/2000/svg" width="24" height="24" viewBox="0 0 24 24" fill="none"><rect width="24" height="24" fill="none"/>
<path d="M14.0003 1.33398H16.0003L14.667 4.00065H12.667L14.0003 1.33398Z" fill="#0B1F35"/>
<path fill-rule="evenodd" clip-rule="evenodd" d="M6.91484 5.33398C5.48705 5.33398 4.31259 6.45857 4.25068 7.88502L3.78772 18.5517C3.73889 19.6767 4.39301 20.6635 5.35367 21.0982C5.34009 21.1745 5.33301 21.2531 5.33301 21.3333V22C5.33301 22.7364 5.92996 23.3333 6.66634 23.3333C7.40272 23.3333 7.99967 22.7364 7.99967 22V21.334H16V22C16 22.7364 16.597 23.3333 17.3333 23.3333C18.0697 23.3333 18.6667 22.7364 18.6667 22V21.3333C18.6667 21.2532 18.6596 21.1748 18.6461 21.0986C19.6072 20.6641 20.2617 19.677 20.2129 18.5517L19.7499 7.88502C19.688 6.45857 18.5135 5.33398 17.0857 5.33398H6.91484ZM6.26316 8.59336C6.30241 7.8868 6.88679 7.33398 7.59444 7.33398H16.4051C17.1128 7.33398 17.6972 7.8868 17.7364 8.59336L17.9998 13.334H5.99979L6.26316 8.59336ZM7.99947 17.3333C7.99947 18.0697 7.40251 18.6667 6.66613 18.6667C5.92975 18.6667 5.3328 18.0697 5.3328 17.3333C5.3328 16.597 5.92975 16 6.66613 16C7.40251 16 7.99947 16.597 7.99947 17.3333ZM18.6665 17.3333C18.6665 18.0697 18.0695 18.6667 17.3331 18.6667C16.5967 18.6667 15.9998 18.0697 15.9998 17.3333C15.9998 16.597 16.5967 16 17.3331 16C18.0695 16 18.6665 16.597 18.6665 17.3333Z" fill="#0B1F35"/>
<path d="M12.0003 1.33398H10.0003L8.66699 4.00065H10.667L12.0003 1.33398Z" fill="#0B1F35"/>
</svg>
