<svg xmlns="http://www.w3.org/2000/svg" width="24" height="24" viewBox="0 0 24 24" fill="none"><rect width="24" height="24" fill="none"/>
<path fill-rule="evenodd" clip-rule="evenodd" d="M7 5C7 3.89543 7.89543 3 9 3H16V8H21V19C21 20.1046 20.1046 21 19 21H9C7.89543 21 7 20.1046 7 19V5ZM10 8.00022H14V10.0002H10V8.00022ZM18 11.5002V13.5002H10V11.5002H18ZM18 17.0002V15.0002H10V17.0002H18Z" fill="#0B1F35"/>
<path d="M5.49998 6.5V18.5C5.49998 19 5.59998 20.1 5.99998 20.5C3.49998 20 1.99998 19.5 2.49998 17.5C2.89998 15.9 4.66664 9.5 5.49998 6.5Z" fill="#0B1F35"/>
</svg>
