<svg xmlns="http://www.w3.org/2000/svg" width="24" height="24" viewBox="0 0 24 24" fill="none"><rect width="24" height="24" fill="none"/>
<path fill-rule="evenodd" clip-rule="evenodd" d="M10 3.5C8.89543 3.5 8 4.39543 8 5.5V6.5H10V5.5H14.5V6.5H16.5V5.5C16.5 4.39543 15.6046 3.5 14.5 3.5H10ZM4 8C3.44772 8 3 8.44771 3 9V12H21V9C21 8.44772 20.5523 8 20 8H4ZM21 13.5H3V19C3 19.5523 3.44772 20 4 20H20C20.5523 20 21 19.5523 21 19V13.5ZM12 17C12.8284 17 13.5 16.3284 13.5 15.5H10.5C10.5 16.3284 11.1716 17 12 17Z" fill="#0B1F35"/>
</svg>
