<svg xmlns="http://www.w3.org/2000/svg" width="24" height="24" viewBox="0 0 24 24" fill="none"><rect width="24" height="24" fill="none"/>
<path fill-rule="evenodd" clip-rule="evenodd" d="M18.9999 2.58208V6.85994L15.9999 3.69539V2.58208C15.9999 2.26061 16.2238 2 16.4999 2H18.4999C18.7761 2 18.9999 2.26061 18.9999 2.58208ZM1.5 13.582V12.582L10.9394 2.64245C11.5251 2.05668 12.4749 2.05668 13.0607 2.64245L22.5 12.582V13.582L19.9998 13.5816V19.5814C19.9998 20.6859 19.1044 21.5814 17.9998 21.5814H5.99979C4.89522 21.5814 3.99979 20.6859 3.99979 19.5814V13.5816L1.5 13.582ZM11.4628 11.2121L9.48418 14.18C8.21961 16.0769 9.57939 18.6176 11.8591 18.6176C14.1388 18.6176 15.4986 16.0769 14.234 14.18L12.2554 11.2121C12.0669 10.9293 11.6513 10.9293 11.4628 11.2121Z" fill="#0B1F35"/>
</svg>
