<svg xmlns="http://www.w3.org/2000/svg" width="24" height="24" viewBox="0 0 24 24" fill="none"><rect width="24" height="24" fill="none"/>
<path fill-rule="evenodd" clip-rule="evenodd" d="M3.00001 5C3.00001 4.44771 3.44772 4 4.00001 4L20 4.00001C20.5523 4.00001 21 4.44773 21 5.00001L21 15C21 15.5523 20.5523 16 20 16L4 16C3.44771 16 3 15.5523 3 15L3.00001 5ZM14 10C14 11.1046 13.1046 12 12 12C10.8954 12 10 11.1046 10 10C10 8.89543 10.8954 8 12 8C13.1046 8 14 8.89543 14 10ZM5.00001 10L5.00001 14L8.50001 14L5.00001 10ZM19 6L19 9.99999L15.5 5.99999L19 6Z" fill="#0B1F35"/>
<path d="M4.47755 19.6842L4.05763 18H15.3663L5.68977 20.4126C5.15389 20.5462 4.61116 20.2201 4.47755 19.6842Z" fill="#0B1F35"/>
</svg>
