<svg xmlns="http://www.w3.org/2000/svg" width="24" height="24" viewBox="0 0 24 24" fill="none"><rect width="24" height="24" fill="none"/>
<path fill-rule="evenodd" clip-rule="evenodd" d="M1 4.51724C1 4.23158 1.23158 4 1.51724 4H13.4828C13.7684 4 14 4.23158 14 4.51724V12.5C14 16.0899 11.0899 19 7.5 19C3.91015 19 1 16.0899 1 12.5V4.51724ZM4.5 10C5.32843 10 6 9.88562 6 9.33333C6 8.78105 5.5 8 4.5 8C3.5 8 3 8.78105 3 9.33333C3 9.88562 3.67157 10 4.5 10ZM11 13C11 14.6569 9.433 16 7.5 16C5.567 16 4 14.6569 4 13H11ZM10.5 10C11.3284 10 12 9.88562 12 9.33333C12 8.78105 11.5 8 10.5 8C9.5 8 9 8.78105 9 9.33333C9 9.88562 9.67157 10 10.5 10Z" fill="#0B1F35"/>
<path fill-rule="evenodd" clip-rule="evenodd" d="M11.1973 19.5964C12.2917 21.0558 14.0358 22 16.0004 22C19.3141 22 22.0004 19.3137 22.0004 16V7.51724C22.0004 7.23158 21.7688 7 21.4831 7H15.5004V12.5C15.5004 13.3801 15.3583 14.227 15.0957 15.019C15.3674 15.0064 15.668 15 16.0001 15C17.6569 15 19.0001 16.3431 19.0001 18H13.3099C12.7018 18.6421 11.9884 19.1835 11.1973 19.5964ZM18.5001 11C17.6716 11 17.0001 11.1144 17.0001 11.6667C17.0001 12.219 17.5001 13 18.5001 13C19.5001 13 20.0001 12.219 20.0001 11.6667C20.0001 11.1144 19.3285 11 18.5001 11Z" fill="#0B1F35"/>
</svg>
