<?xml version="1.0" encoding="UTF-8"?>
<svg width="30px" height="10px" viewBox="0 0 30 10" version="1.1" xmlns="http://www.w3.org/2000/svg" xmlns:xlink="http://www.w3.org/1999/xlink">
    <!-- Generator: Sketch 46.2 (44496) - http://www.bohemiancoding.com/sketch -->
    <title>icon_mir_l_color</title>
    <desc>Created with Sketch.</desc>
    <defs></defs>
    <g id="Page-1" stroke="none" stroke-width="1" fill="none" fill-rule="evenodd">
        <g id="icon_mir_l_color">
            <g id="Combined-Shape">
                <g id="path-1-link" transform="translate(1.000000, 1.000000)" fill="#269836">
                    <path d="M18.0690717,0.0622302344 L19.1585811,0.0622302344 L19.1585811,7.8400969 L16.7132981,7.8400969 L16.7132981,3.2976969 C16.7132981,3.18543023 16.5584302,3.15076357 16.5089811,3.2520969 L14.4981434,7.3640969 C14.3557736,7.65503023 14.0560906,7.8400969 13.7276075,7.8400969 L13.645283,7.8400969 L12.4992604,7.8400969 L11.2,7.8400969 L11.2,0.0622302344 L13.5681208,0.0622302344 C13.6107774,0.0622302344 13.645283,0.096096901 13.645283,0.137963568 L13.645283,4.58756357 C13.645283,4.7816969 13.9142642,4.83983023 13.9971321,4.66356357 L15.9378717,0.548630234 C16.0775245,0.252096901 16.3804679,0.0622302344 16.7132981,0.0622302344 L18.0690717,0.0622302344 Z M8.35967972,0.0622302344 L9.95199966,0.0622302344 L9.95199966,7.8400969 L7.56351974,7.8400969 L7.56351974,3.35423023 C7.56351974,3.23316357 7.39367228,3.20756357 7.35837586,3.3232969 L5.9711998,7.8400969 L5.70581314,7.8400969 L4.24618652,7.8400969 L3.98079987,7.8400969 L2.59362381,3.3232969 C2.55832738,3.20756357 2.38847992,3.23316357 2.38847992,3.35423023 L2.38847992,7.8400969 L0,7.8400969 L0,0.0622302344 L1.59231995,0.0622302344 L2.38847992,0.0622302344 L2.82371404,0.0622302344 C3.19472459,0.0622302344 3.52141556,0.308363568 3.62518174,0.666496901 L4.80296773,4.72703023 C4.8533912,4.9008969 5.09860847,4.9008969 5.14903193,4.72703023 L6.32681792,0.666496901 C6.4305841,0.308363568 6.75727508,0.0622302344 7.12828563,0.0622302344 L7.56351974,0.0622302344 L8.35967972,0.0622302344 Z M22.445283,3.6966569 L27.8080604,3.6966569 C27.4092075,4.6694569 26.4406038,5.35692357 25.3068075,5.35692357 L22.445283,5.35692357 L22.445283,7.84012357 L20,7.84012357 L20,5.35692357 L20,3.6966569 L22.445283,3.6966569 Z" id="path-1"></path>
                </g>
                <path d="M17.2132981,5.9949113 L15.9472529,8.58387107 C15.7205887,9.04706032 15.2461838,9.3400969 14.7276075,9.3400969 L11.7,9.3400969 L11.7,0.562230234 L14.5681208,0.562230234 C14.8848494,0.562230234 15.145283,0.817840978 15.145283,1.13796357 L15.145283,4.17730191 L16.4855257,1.33559718 C16.7080738,0.86304729 17.1877544,0.562230234 17.7132981,0.562230234 L20.6585811,0.562230234 L20.6585811,9.3400969 L17.2132981,9.3400969 L17.2132981,5.9949113 Z M8.06351974,6.986486 L7.34069104,9.3400969 L4.61130862,9.3400969 L4.50283284,8.98688764 L3.88847992,6.98648456 L3.88847992,9.3400969 L0.5,9.3400969 L0.5,0.562230234 L3.82371404,0.562230234 C4.41767205,0.562230234 4.9398384,0.955836442 5.105389,1.52720944 L5.97599983,4.52872617 L6.84657019,1.52734908 C7.01216127,0.955836442 7.53432761,0.562230234 8.12828563,0.562230234 L11.4519997,0.562230234 L11.4519997,9.3400969 L8.06351974,9.3400969 L8.06351974,6.986486 Z M23.945283,6.85692357 L23.945283,9.34012357 L20.5,9.34012357 L20.5,4.1966569 L29.5534572,4.1966569 L29.2706855,4.88633551 C28.7860574,6.06834106 27.6205638,6.85692357 26.3068075,6.85692357 L23.945283,6.85692357 Z" id="Shape" stroke="#FFFFFF"></path>
            </g>
            <g id="Fill-8" transform="translate(20.000000, 0.000000)">
                <g id="path-2-link" transform="translate(0.000000, 1.000000)" fill="#1A89D6">
                    <path d="M0.6,0.0623902344 C0.6,1.81732357 2.8646038,3.23999023 4.6526491,3.23999023 L4.6526491,3.23999023 L8.9131472,3.23999023 C8.9487396,3.06852357 8.9677585,2.89119023 8.9677585,2.70959023 L8.9677585,2.70959023 C8.9677585,1.2474569 7.7597887,0.0623902344 6.2703396,0.0623902344 L6.2703396,0.0623902344 L0.6,0.0623902344 Z" id="path-2"></path>
                </g>
                <path d="M0.1,0.562390234 L6.2703396,0.562390234 C8.0339836,0.562390234 9.4677585,1.96932008 9.4677585,3.70959023 C9.4677585,3.92281914 9.4457691,4.13418068 9.4027112,4.34161224 L9.3200173,4.73999023 L4.6526491,4.73999023 C2.4610133,4.73999023 0.1,3.02068426 0.1,1.06239023 L0.1,0.562390234 Z" id="Shape" stroke="#FFFFFF"></path>
            </g>
        </g>
    </g>
</svg>