<svg xmlns="http://www.w3.org/2000/svg" width="36" height="36" viewBox="0 0 36 36" fill="none"><rect width="36" height="36" fill="none"/>
<g clip-path="url(#clip0)">
<path d="M32.7761 6H3.22397C3.10089 6 2.97759 6 2.85473 6.00072C2.75087 6.00146 2.64726 6.00261 2.54364 6.00544C2.31766 6.01155 2.08975 6.02487 1.8666 6.06497C1.63989 6.10576 1.42892 6.17229 1.2231 6.27705C1.02076 6.37992 0.835523 6.51446 0.674993 6.67501C0.514392 6.83556 0.379806 7.02044 0.276931 7.22294C0.17212 7.42869 0.105523 7.63966 0.065004 7.86648C0.0246826 8.08963 0.011261 8.31743 0.00517116 8.54311C0.00238722 8.64669 0.00119318 8.75027 0.000516768 8.85383C-0.000200965 8.97692 3.82791e-05 9.09992 3.82791e-05 9.22323V25.817C3.82791e-05 25.9403 -0.000200965 26.0631 0.000516768 26.1864C0.00119318 26.29 0.00238722 26.3936 0.00517116 26.4972C0.011261 26.7226 0.0246826 26.9504 0.065004 27.1735C0.105523 27.4004 0.17212 27.6113 0.276931 27.8171C0.379806 28.0196 0.514392 28.2047 0.674993 28.365C0.835523 28.5258 1.02076 28.6603 1.2231 28.7629C1.42892 28.868 1.63989 28.9345 1.8666 28.9753C2.08975 29.0151 2.31766 29.0287 2.54364 29.0348C2.64726 29.0372 2.75087 29.0386 2.85473 29.039C2.97759 29.04 3.10089 29.04 3.22397 29.04H32.7761C32.8989 29.04 33.0222 29.04 33.1451 29.039C33.2487 29.0386 33.3523 29.0372 33.4564 29.0348C33.6819 29.0287 33.9098 29.0151 34.1335 28.9753C34.3599 28.9345 34.5709 28.868 34.7767 28.7629C34.9793 28.6603 35.164 28.5258 35.3248 28.365C35.4852 28.2047 35.6198 28.0196 35.7229 27.8171C35.8279 27.6113 35.8945 27.4004 35.9348 27.1735C35.9751 26.9504 35.9882 26.7226 35.9943 26.4972C35.9972 26.3936 35.9986 26.29 35.999 26.1864C36 26.0631 36 25.9403 36 25.817V9.22323C36 9.09992 36 8.97692 35.999 8.85383C35.9986 8.75027 35.9972 8.64669 35.9943 8.54311C35.9882 8.31743 35.9751 8.08963 35.9348 7.86648C35.8945 7.63966 35.8279 7.42869 35.7229 7.22294C35.6198 7.02044 35.4852 6.83556 35.3248 6.67501C35.164 6.51446 34.9793 6.37992 34.7767 6.27705C34.5709 6.17229 34.3599 6.10576 34.1335 6.06497C33.9098 6.02487 33.6819 6.01155 33.4564 6.00544C33.3523 6.00261 33.2487 6.00146 33.1451 6.00072C33.0222 6 32.8989 6 32.7761 6Z" fill="black"/>
<path d="M32.7759 6.76807L33.1395 6.76876C33.2379 6.76946 33.3364 6.77052 33.4355 6.77322C33.6077 6.77787 33.8092 6.7872 33.9971 6.82086C34.1603 6.85025 34.2973 6.89496 34.4287 6.96184C34.5584 7.02774 34.6773 7.11411 34.7811 7.21771C34.8852 7.32201 34.9717 7.44103 35.0385 7.57217C35.1051 7.70252 35.1495 7.83876 35.1787 8.00318C35.2123 8.18891 35.2216 8.3909 35.2263 8.56417C35.229 8.66197 35.2303 8.75977 35.2308 8.8599C35.2317 8.98098 35.2317 9.102 35.2317 9.22333V25.8171C35.2317 25.9384 35.2317 26.0592 35.2307 26.1829C35.2303 26.2807 35.229 26.3785 35.2263 26.4765C35.2216 26.6495 35.2123 26.8514 35.1783 27.0393C35.1495 27.2014 35.1051 27.3377 35.0382 27.4687C34.9716 27.5995 34.8852 27.7184 34.7815 27.8221C34.6771 27.9264 34.5586 28.0125 34.4274 28.079C34.2969 28.1456 34.1602 28.1903 33.9986 28.2193C33.8069 28.2535 33.597 28.2629 33.4389 28.2672C33.3394 28.2694 33.2404 28.2707 33.139 28.2712C33.0181 28.2722 32.8968 28.2721 32.7759 28.2721H3.22382C3.22221 28.2721 3.22065 28.2721 3.21902 28.2721C3.09953 28.2721 2.97979 28.2721 2.85813 28.2712C2.75893 28.2707 2.65995 28.2694 2.56425 28.2672C2.40252 28.2629 2.19244 28.2535 2.00237 28.2196C1.83932 28.1903 1.70262 28.1456 1.57047 28.0782C1.44043 28.0122 1.32205 27.9262 1.21763 27.8217C1.11401 27.7183 1.02791 27.5997 0.961332 27.4687C0.894692 27.3379 0.850106 27.2012 0.820789 27.0371C0.786902 26.8495 0.777593 26.6485 0.772941 26.4766C0.770285 26.3782 0.769176 26.2799 0.768545 26.1821L0.768066 25.8933L0.768088 25.8171V9.22333L0.768066 9.1471L0.768523 8.85898C0.769176 8.7606 0.770285 8.66223 0.772941 8.56393C0.777593 8.39192 0.786901 8.19075 0.82107 8.00163C0.850127 7.83902 0.894692 7.70234 0.96168 7.57082C1.02773 7.44082 1.11399 7.32214 1.21815 7.21804C1.3219 7.11428 1.44067 7.02803 1.57154 6.96149C1.70227 6.89494 1.83923 6.85025 2.00229 6.82092C2.19016 6.78718 2.3918 6.77787 2.56449 6.7732C2.66293 6.77052 2.76136 6.76946 2.85906 6.76878L3.22382 6.76807H32.7759Z" fill="white"/>
<path d="M9.82811 13.7494C10.1364 13.364 10.3455 12.8465 10.2904 12.3176C9.83914 12.3401 9.2885 12.6152 8.96972 13.001C8.68348 13.3313 8.43013 13.8705 8.49618 14.3771C9.0027 14.4211 9.50875 14.124 9.82811 13.7494Z" fill="black"/>
<path d="M10.2843 14.4761C9.54872 14.4323 8.92329 14.8934 8.57201 14.8934C8.22053 14.8934 7.6826 14.4982 7.10079 14.5088C6.34352 14.5199 5.64086 14.948 5.25658 15.6287C4.46618 16.9906 5.04799 19.0108 5.81662 20.12C6.18988 20.6687 6.63972 21.273 7.23246 21.2512C7.79249 21.2293 8.01201 20.8887 8.69275 20.8887C9.373 20.8887 9.57074 21.2512 10.1636 21.2403C10.7784 21.2293 11.1627 20.6912 11.536 20.142C11.9642 19.5164 12.1394 18.9124 12.1505 18.8792C12.1394 18.8683 10.965 18.4178 10.9541 17.0673C10.943 15.9364 11.8762 15.3985 11.9201 15.3652C11.3931 14.586 10.5698 14.4982 10.2843 14.4761Z" fill="black"/>
<path d="M16.6893 12.9456C18.2881 12.9456 19.4014 14.0473 19.4014 15.6513C19.4014 17.2611 18.2652 18.3686 16.6492 18.3686H14.879V21.1828H13.6001V12.9456H16.6893V12.9456ZM14.879 17.2953H16.3466C17.4601 17.2953 18.0938 16.696 18.0938 15.6571C18.0938 14.6182 17.4601 14.0245 16.3523 14.0245H14.879V17.2953Z" fill="black"/>
<path d="M19.7356 19.476C19.7356 18.4256 20.5407 17.7806 21.9684 17.7007L23.6128 17.6037V17.1413C23.6128 16.4734 23.1616 16.0738 22.408 16.0738C21.6941 16.0738 21.2487 16.4163 21.1403 16.9529H19.9755C20.044 15.8683 20.9689 15.0691 22.4536 15.0691C23.9097 15.0691 24.8404 15.8397 24.8404 17.0442V21.1828H23.6584V20.1953H23.6299C23.2817 20.8632 22.5221 21.2855 21.7342 21.2855C20.5579 21.2855 19.7356 20.5549 19.7356 19.476ZM23.6128 18.9338V18.46L22.1338 18.5512C21.3972 18.6027 20.9804 18.928 20.9804 19.4418C20.9804 19.9669 21.4144 20.3094 22.0767 20.3094C22.9389 20.3094 23.6128 19.7157 23.6128 18.9338Z" fill="black"/>
<path d="M25.9564 23.3919V22.3929C26.0476 22.4157 26.2531 22.4157 26.356 22.4157C26.927 22.4157 27.2354 22.176 27.4237 21.5595C27.4237 21.5481 27.5323 21.1942 27.5323 21.1885L25.3625 15.1775H26.6986L28.2176 20.0639H28.2403L29.7594 15.1775H31.0612L28.8113 21.4967C28.2976 22.9524 27.7037 23.4205 26.4589 23.4205C26.356 23.4205 26.0476 23.409 25.9564 23.3919Z" fill="black"/>
</g>
<defs>
<clipPath id="clip0">
<rect width="36" height="23.04" fill="white" transform="translate(0 6)"/>
</clipPath>
</defs>
</svg>
