<svg xmlns="http://www.w3.org/2000/svg" width="18" height="18" viewBox="0 0 18 18" fill="none"><rect width="18" height="18" fill="none"/>
<path fill-rule="evenodd" clip-rule="evenodd" d="M5.3115 6.69995V6.70193C5.30952 6.70193 4.68653 6.69995 4.5204 7.29525C4.36811 7.84111 3.93894 9.34816 3.92707 9.38969H3.80841C3.80841 9.38969 3.36935 7.84903 3.21508 7.29328C3.04895 6.69797 2.42398 6.69995 2.42398 6.69995H1V11.229H2.42398V8.53926H2.48331H2.54265L3.3733 11.229H4.36218L5.19284 8.54124H5.3115V11.229H6.73548V6.69995H5.3115Z" fill="#4DB45E"/>
<path fill-rule="evenodd" clip-rule="evenodd" d="M10.5128 6.69995C10.5128 6.69995 10.0955 6.73753 9.89969 7.17461L8.89104 9.38969H8.77237V6.69995H7.34839V11.229H8.69326C8.69326 11.229 9.13034 11.1894 9.32614 10.7543L10.315 8.53926H10.4337V11.229H11.8577V6.69995H10.5128Z" fill="#4DB45E"/>
<path fill-rule="evenodd" clip-rule="evenodd" d="M12.4907 8.75659V11.2288H13.9147V9.78502H15.4574C16.1298 9.78502 16.6994 9.35585 16.911 8.75659H12.4907Z" fill="#4DB45E"/>
<path fill-rule="evenodd" clip-rule="evenodd" d="M15.4574 6.69995H12.291C12.4492 7.56225 13.096 8.25446 13.9326 8.47993C14.1224 8.53135 14.3222 8.55904 14.5279 8.55904H16.9684C16.9902 8.4562 17 8.35137 17 8.2426C17 7.39019 16.3098 6.69995 15.4574 6.69995Z" fill="url(#paint0_linear)"/>
<defs>
<linearGradient id="paint0_linear" x1="12.2914" y1="7.6295" x2="17" y2="7.6295" gradientUnits="userSpaceOnUse">
<stop offset="0.3" stop-color="#00B4E6"/>
<stop offset="1" stop-color="#088CCB"/>
</linearGradient>
</defs>
</svg>
