<svg xmlns="http://www.w3.org/2000/svg" width="22" height="20" viewBox="0 0 22 20"><g fill="#FFF"><path d="M7 10V6H6v8h1v-3h8v3h1V6h-1v4zm2 6h4v1H9zm-1 3h6v1H8zM8 3.083V5h1V4h4v1h1V3H8z"/><path d="M10 6h2v1h-2zM9 0h4v1H9zM4 1h1v1H4zm0 2h1v1H4zM1 3h1v1H1zm2-1h1v1H3zm0 2h1v1H3zM0 4h1v1H0zm2 1h1v1H2zm1 1h1v1H3zM1 6h1v1H1zm1 1h1v1H2zm1 5h1v1H3zm-2 0h1v1H1zm0 2h1v1H1zm1-1h1v1H2zm0 2h1v1H2zm1-7h1v1H3zM1 8h1v1H1zm1 1h1v1H2zm1 5h1v1H3zm0 2h1v1H3zm4-2h1v1H7zm0-9h1v1H7zm2 0h1v1H9zm5 0h1v1h-1zm-2 0h1v1h-1zM6 19h2v-1H6zm2-4h1v1H8zm-5-5h1v1H3zm-2 0h1v1H1zm1 1h1v1H2zM0 7h1v1H0zm0 2h1v1H0zm0 2h1v1H0zM17 1h1v1h-1zm0 2h1v1h-1zm3 0h1v1h-1zm-2-1h1v1h-1zm0 2h1v1h-1zm3 0h1v1h-1zm-2 1h1v1h-1zm-1 1h1v1h-1zm2 0h1v1h-1zm-1 1h1v1h-1zm-1 5h1v1h-1zm2 0h1v1h-1zm0 2h1v1h-1zm-1-1h1v1h-1zm0 2h1v1h-1zm-1-7h1v1h-1zm2 0h1v1h-1zm-1 1h1v1h-1zm-1 5h1v1h-1zm0 2h1v1h-1zm-2 3v-1h-2v1h1zm2-9h1v1h-1zm2 0h1v1h-1zm-1 1h1v1h-1zm2-4h1v1h-1zm0 2h1v1h-1zm0 2h1v1h-1zm-8 4h1v1h-1zm1-1h1v1h-1z"/></g></svg>