<svg xmlns="http://www.w3.org/2000/svg" width="36" height="32" viewBox="0 0 36 32"><g fill="#FFF"><path d="M11.836 29.162c.805.389 1.92.954 2.941 1.234l-.241.658s1.295.59 3.451.595v.001h.029v-.001c2.159-.006 3.453-.595 3.453-.595l-.242-.658c1.021-.279 2.138-.845 2.94-1.234l-.701-.262-.631-.242.174-.652.192-.711s-1.118.607-2.695 1.062a8.192 8.192 0 0 1-.786.186v.484s-.843.146-1.695.146h-.048c-.853 0-1.694-.146-1.694-.146v-.484s-.339-.059-.786-.186c-1.576-.455-2.693-1.062-2.693-1.062l.189.711.178.652-.633.242-.702.262zm10.852-1.303l-.306 1.002 1.037.345c-.627.315-1.388.608-2.309.861l-.5-1.377c.596-.181 1.62-.571 2.078-.831zm-7.057 1.356c.511.15 1.575.308 2.346.303h.049c.772.005 1.834-.153 2.347-.303l.615 1.667c-.406.145-1.782.422-2.986.422-1.206 0-2.583-.277-2.988-.422l.617-1.667zm-2.008-.354l-.307-1.002c.458.259 1.483.649 2.077.83l-.501 1.377a12.541 12.541 0 0 1-2.308-.861l1.039-.344zm7.259-25.106s.169-1.016.745-1.912l-1.035.118-.542-1.15-1.04.536L18.001.35l-1.006.997-1.042-.536-.541 1.15-1.035-.118c.576.896.744 1.912.744 1.912.572-.454 1.596-.88 2.879-.88 1.286 0 2.314.426 2.882.88zm-5.788-1.424l.273.033.287.03.124-.262.362-.773.671.347.26.133.207-.205.724-.718.726.718.208.205.26-.133.667-.347.366.773.122.262.287-.03.274-.033a6.565 6.565 0 0 0-.284.774c-.724-.403-1.665-.633-2.626-.633-.956 0-1.896.23-2.623.633a6.968 6.968 0 0 0-.285-.774zm17.98 14.017c1.661 0 2.217-1.69 2.24-1.762l.186-.596-.623.02h-.002c-.219 0-2.053-.049-3.353-1.701l-.122-.154c-.849-1.08-1.654-2.107-3.095-2.576.042-.038.101-.084.183-.137.764-.502 1.208-1.113 1.32-1.821.164-1.066-.517-1.917-.547-1.951l-.462-.572-.289.679c-.019.043-.505 1.129-1.528 1.129h-.076c-.07-.004-.137-.007-.203-.012.036-.484-.052-1.234-.733-1.938-.818-.847-1.821-.974-2.345-.974-.28 0-.466.035-.487.037l-.698.138.431.568c.338.438.645 1.246.281 1.668-.117.135-.356.243-.584.353-.471.216-1.114.519-1.114 1.287 0 .497.386 1.017 1.085 1.459 2.069 1.301 3.345 2.659 3.896 4.157.853 2.305-.26 3.62-1.341 4.313l-.485.312.424.39c.057.05.576.508 1.343.573.145.009.284.018.414.018.491 0 .91-.077 1.25-.181a3.17 3.17 0 0 1-.353.499c-.618.715-1.378 1.041-2.47 1.059l-.406.007-.031.407c-.004.082-.034.838.68 1.479.109.1.241.181.38.248-.485.437-.978 1.197-1.073 2.499-.081 1.087-.339 1.489-.343 1.493l-.448.685.811.011c1.34 0 2.366-.37 3.077-1.102.42-.433.66-.923.802-1.356a2.187 2.187 0 0 0 1.415.52c.378 0 .695-.08.731-.089l.518-.138-.229-.483c-.017-.039-.449-1.009.016-2.392.2-.599.302-1.134.352-1.552.326.17.763.31 1.327.312 1.282 0 1.847-.958 1.872-.998l.253-.44-.468-.193c-1.528-.634-1.866-2.338-1.934-3.259.138.027.296.051.474.056l.081.001zm1.211 3.61s-.447.778-1.474.778h-.013c-1.232-.007-1.729-.759-1.729-.759s.071.978-.372 2.297c-.535 1.591.005 2.727.005 2.727s-.288.078-.619.078c-.127 0-.259-.013-.384-.045-1.029-.244-1.286-1.181-1.286-1.181s.095 3.164-3.595 3.164h-.028s.325-.442.421-1.715c.175-2.348 1.765-2.67 1.765-2.67s-.848-.107-1.216-.436c-.575-.521-.534-1.123-.534-1.123 1.298-.018 2.148-.46 2.796-1.21.702-.812.817-1.686.817-1.686s-.698.633-2.047.633c-.119 0-.246-.006-.376-.018-.639-.052-1.08-.458-1.08-.458 1.405-.901 2.39-2.473 1.517-4.84-.7-1.897-2.383-3.314-4.077-4.382-.563-.352-.878-.744-.878-1.08 0-.793 1.128-.818 1.59-1.351.534-.619.199-1.623-.263-2.227 0 0 .156-.032.401-.032.488 0 1.331.123 2.025.842.921.952.539 1.99.539 1.99l.247.048c.147.031.294.037.447.045l.099.002c1.338 0 1.936-1.399 1.936-1.399s1.422 1.749-.672 3.121c-.36.234-.519.452-.477.683l.032.152.149.027c1.518.412 2.286 1.459 3.224 2.649 1.425 1.81 3.439 1.869 3.688 1.869h.027s-.46 1.452-1.815 1.452l-.064-.001c-.622-.022-.942-.261-.942-.261s-.244 3.295 2.216 4.317z"/><path d="M30.154 9.763c.62.33.981.773 1.297 1.165.311.383.606.751 1.068.905.164.056.338.083.516.083.693 0 1.389-.424 1.653-1.012l.266-.589-.643-.038c-.03-.001-.857-.077-1.777-1.016-.378-.386-.836-.588-1.329-.588-.602 0-1.049.301-1.098.332l-.591.416.638.342zm1.053-.647c.309 0 .67.105 1.011.458 1.071 1.087 2.067 1.148 2.067 1.148-.181.401-.706.752-1.249.752a1.15 1.15 0 0 1-.377-.062c-.737-.249-1-1.353-2.294-2.042 0 0 .361-.254.842-.254zm-.762 6.538c-.373-3.009-2.558-5.182-4.989-6.503a17.374 17.374 0 0 0-.634-.321c.74.115 1.932.129 2.852-.67 0 0-1.408 1.036-4.292.095.798.518 2.349 1.249 3.766 2.433 3.54 3.111 1.008 6.145 1.008 6.145 1.272-1.328 1.325-2.75.951-3.912.67 1.115 1.098 2.468 1.031 4.138-.097 2.391-1.412 4.459-2.794 6.121-.665.806-.813 1.797-.813 1.797s.268-.874 1.037-1.774c1.482-1.735 2.749-3.537 2.915-6.134.153.472.785 1.781 1.786 2.275 0 0-1.258-.758-1.824-3.713v.023zm-27.516.694l.08-.002a2.91 2.91 0 0 0 .474-.056c-.069.922-.408 2.625-1.936 3.259l-.467.193.253.44c.024.04.591.998 1.876.998a2.85 2.85 0 0 0 1.324-.312c.05.417.152.952.352 1.551.465 1.383.032 2.354.016 2.392l-.23.483.519.138c.034.008.353.089.73.089a2.168 2.168 0 0 0 1.415-.52c.141.433.382.923.801 1.356.713.733 1.738 1.102 3.077 1.102l.812-.011-.449-.685c-.001-.004-.259-.406-.341-1.493-.096-1.302-.589-2.062-1.075-2.499.14-.067.271-.148.38-.248.714-.642.684-1.397.679-1.479l-.028-.407-.409-.007c-1.089-.017-1.851-.343-2.468-1.059a3.443 3.443 0 0 1-.354-.499c.34.104.756.181 1.249.181.132 0 .27-.008.415-.017.767-.066 1.286-.523 1.344-.573l.425-.39-.485-.312c-1.084-.693-2.193-2.008-1.341-4.313.552-1.499 1.826-2.856 3.898-4.157.699-.442 1.082-.962 1.082-1.459 0-.768-.641-1.07-1.112-1.287-.229-.11-.468-.218-.584-.353-.364-.422-.057-1.23.281-1.668l.434-.568-.702-.139c-.021-.002-.205-.037-.486-.037-.525 0-1.525.127-2.343.974-.681.706-.77 1.455-.735 1.94a6.16 6.16 0 0 1-.202.011h-.075c-1.025 0-1.51-1.086-1.529-1.129l-.288-.678-.467.572c-.026.035-.708.885-.542 1.951.11.708.555 1.319 1.319 1.821.083.053.141.099.183.137-1.442.468-2.247 1.496-3.096 2.576l-.123.153c-1.298 1.652-3.135 1.701-3.355 1.701l-.625-.02.191.596c.022.072.576 1.763 2.238 1.763zm-1.788-1.896c.25 0 2.263-.059 3.687-1.869.938-1.19 1.707-2.237 3.223-2.649l.152-.026.032-.152c.042-.232-.117-.449-.477-.684-2.093-1.372-.671-3.121-.671-3.121S7.682 7.35 9.023 7.35l.098-.001c.151-.009.299-.015.447-.046l.247-.048s-.383-1.038.54-1.991c.694-.719 1.537-.841 2.024-.841.247 0 .4.031.4.031-.461.605-.796 1.608-.262 2.227.462.532 1.588.558 1.588 1.351 0 .336-.314.728-.877 1.08-1.695 1.067-3.377 2.484-4.077 4.382-.873 2.367.112 3.939 1.519 4.84 0 0-.442.406-1.082.458-.13.013-.256.018-.377.018-1.348 0-2.046-.633-2.046-.633s.116.875.814 1.687c.652.749 1.501 1.191 2.799 1.209 0 0 .041.602-.533 1.123-.368.329-1.218.436-1.218.436s1.591.322 1.766 2.67c.095 1.272.418 1.715.418 1.715h-.026c-3.69 0-3.595-3.164-3.595-3.164s-.257.937-1.286 1.181a1.492 1.492 0 0 1-.383.045 2.63 2.63 0 0 1-.617-.078s.536-1.136.002-2.727c-.442-1.319-.371-2.297-.371-2.297s-.496.752-1.729.759h-.013c-1.026 0-1.474-.778-1.474-.778 2.458-1.021 2.218-4.316 2.218-4.316s-.32.238-.943.261l-.065.001c-1.356 0-1.815-1.452-1.815-1.452h.027z"/><path d="M1.693 10.277l-.642.038.264.589c.265.587.961 1.011 1.653 1.011.178 0 .352-.027.517-.083.464-.154.758-.521 1.069-.905.318-.392.676-.835 1.295-1.165l.638-.342-.592-.416c-.05-.031-.494-.331-1.096-.331-.494 0-.952.202-1.331.588-.921.94-1.745 1.015-1.775 1.016zm3.105-1.161c.478 0 .84.254.84.254-1.292.689-1.559 1.794-2.297 2.042a1.12 1.12 0 0 1-.374.062c-.543 0-1.068-.351-1.248-.752 0 0 .995-.061 2.065-1.148.343-.352.703-.458 1.014-.458zM3.735 19.345c1-.494 1.63-1.803 1.784-2.275.167 2.597 1.434 4.399 2.916 6.134.769.9 1.04 1.774 1.04 1.774s-.15-.991-.818-1.797c-1.38-1.661-2.694-3.729-2.79-6.121-.069-1.669.359-3.022 1.03-4.138-.374 1.162-.323 2.584.951 3.912 0 0-2.533-3.035 1.009-6.146 1.416-1.184 2.966-1.915 3.764-2.433-2.883.941-4.291-.095-4.291-.095.92.798 2.112.784 2.852.669-.2.098-.41.2-.633.321-2.432 1.321-4.616 3.494-4.991 6.503v-.023c-.566 2.957-1.823 3.715-1.823 3.715zm14.037-7.975v.86s-.014.423-.164.606h.86c-.148-.183-.164-.606-.164-.606v-.86s.398-.051.603.199v-.597h-1.739v.597c.207-.25.604-.199.604-.199zm-.973-3.936c.276.218.434.255.439.258l.108.05V7.18l-1.011-.425s.008.325.464.679zm2.405 0c.457-.354.466-.679.466-.679l-1.012.425v.562l.107-.05c.005-.004.164-.04.439-.258z"/><path d="M15.544 27.109c1.459 0 1.655-.067 2.46.735.801-.802.997-.735 2.457-.735 1.888 0 3.63-1.082 3.63-3.351v-9.372c0-.72.296-1.383.608-2.008h-4.236c.094-.132.19-.269.285-.425.078-.124.161-.239.246-.346.342-.428.761-.711 1.313-.711.765 0 1.173.54 1.264 1.058.364-.262.232-.897-.397-1.331a6.684 6.684 0 0 0-.539-.307h.006l-1.646-.96-.633-.369.633-3.631.031-.21c0-.853-1.435-1.62-3.019-1.62h-.009c-1.584 0-3.019.767-3.019 1.62l.031.21.633 3.631-.635.369-1.644.96h.006s-.37.19-.541.307c-.626.435-.759 1.069-.395 1.331.089-.517.498-1.058 1.264-1.058.551 0 .972.285 1.31.711.088.108.17.223.248.346.095.156.191.293.285.425h-4.234c.311.626.607 1.288.607 2.008v9.372c-.002 2.268 1.743 3.351 3.63 3.351zm4.621-.606c-.166 0-.32.002-.457.008l.362-1.126c.057-.156-.229-.356-.347-.532.178.112.64.357.862.455-.024.036-.42 1.195-.42 1.195zm1.136-1.28l-.236 1.233c-.151.021-.31.032-.475.039l.249-1.185c.074-.352-.871-.462-1.338-1.154-.228.256-.657.333-1.089.333-.394 0-.787-.063-1.026-.11a1.066 1.066 0 0 0-.176-.016c-.138 0-.264.043-.351.189l-.068.116-1.288-.304-.32.531c-.045.086-.049.158.024.239l.087.095c-.06.188-.328.471-.328.471l-.191-.239c-.152-.169-.127-.48.031-.767l.511-.863 1.091.158-.169-.386c-.228-.511.119-1.161.156-1.536-.013.113-.117.139-.237.139-.11 0-.233-.021-.315-.021-.032 0-.06.003-.074.014l-.296.179-.233-.206c-.028-.039-.037-.132.031-.202l.54-.606-.638-.745.893.448.273-.33c.075.073.042.265.042.265.278.007 1.06.439 1.102 1.448.002.031.002.065.002.099 0 0 .007.013.021.033.055.076.208.271.401.289l1.234.122h.005c.135 0 .405-.159.751-.159.188 0 .397.048.621.189 0 0 .112-.089.294-.098.014-.002.03-.002.043-.002.553 0 .783.5 1.081.916.223.317.522.787.522.787-.11.131-.213.204-.385.204a.785.785 0 0 1-.159-.016c-.594-.109-.679-1.33-1.018-1.426a.205.205 0 0 0-.054-.007c-.109 0-.157.097-.157.097.155.416.064.584.231.905.124.238.345.433.437.526-.001-.001-.026.18-.052.314zm-6.633-1.164l.057.143c-.038.125-.465.301-.465.301l-.093-.203a.672.672 0 0 1 .221-.801l.693-.422.735.156a.652.652 0 0 0 .126.408l-.77-.148-.461.319c-.078.053-.084.153-.043.247zm6.749 2.33l.212-1.103c.011-.065.025-.141.034-.204a1.181 1.181 0 0 0 .409.081c.323 0 .512-.17.637-.315l.162-.189-.133-.207a20.504 20.504 0 0 0-.531-.803 4.597 4.597 0 0 1-.13-.192c-.257-.385-.578-.866-1.223-.866l-.058.001a.944.944 0 0 0-.271.056 1.468 1.468 0 0 0-.629-.144c-.267 0-.491.074-.641.124-.043.013-.081.026-.111.032l-1.205-.118c-.015-.003-.064-.032-.124-.103v-.006l.261-.104c-.074-.869-.908-1.403-1.373-1.584a.485.485 0 0 0-.135-.244l-.259-.246-.228.273-.112.139-1.688-.693 1.098 1.379-.433.657c-.159.168.016.337.016.337l.448.308.464-.173c.016 0 .03.004.046.006-.023.071-.052.347-.071.424l-.806-.158-.846.478c-.435.32-.494.848-.333 1.21l.094.205.133.29.296-.123a.037.037 0 0 0 .011-.005c-.107.34-.063.664.126.875l.18.226.239.302.263-.282c.077-.077.328-.358.405-.598l.057-.183-.128-.141-.021-.025.144-.238 1.051.248.237.055.126-.208.068-.113c.013-.024.016-.028.065-.028.037 0 .074.004.115.013.397.075.763.112 1.088.112.315 0 .503-.012.728-.087 0 0 .564.641.584.666l-.346 1.067-.015.064c-.655.053-.973.197-1.359.582-.56-.555-.956-.614-2.46-.614-1.8 0-3.02-1.055-3.02-2.741V19.64h10.957l.002 4.121c-.001 1.363-.804 2.317-2.067 2.628zm2.368-13.401c-.168.443-.306.921-.306 1.398l.001 3.075c-.643-.108-.718-.8-.721-.83l-.012-.141-.138-.012a.98.98 0 0 1-.621-.297c-.315-.315-.316-.826-.315-.83-.005.026-.347.506.051 1.03.167.22.409.356.723.41.074.384.359.926 1.034 1.008v1.505h-1.896c-.874-.487-.504-1.343-.487-1.379l.074-.162-.167-.063c-.947-.351-.686-1.295-.673-1.336l.038-.138-.129-.061c-.781-.363-.676-1.338-.665-1.379-.241.195-.327.593-.162.982-.089.103-.21.226-.342.363a1.061 1.061 0 0 1-.835-.984l-.002-.115-.107-.041c-.316-.117-.533-.293-.64-.528a1.035 1.035 0 0 1-.045-.666 2.826 2.826 0 0 0 .551.058h.013c.094 0 .186-.006.278-.015.505-.05 1.069-.267 1.658-.85h3.842v-.002zm-3.592 4.5c-.338.249-1.208.885-1.524 1.105l-3.039-.546.021-.081a2.63 2.63 0 0 0 .083-.626l2.554.041.049-.05c.039-.039.848-.821 1.261-1.27.098.123.22.24.382.343-.056.299-.033.725.213 1.084zm-.376-8.535l-1.638.863V6.321l2.222-.754-.584 3.386zm-1.816-4.887c1.276.001 2.231.418 2.437.909l-2.437.962-2.436-.962c.207-.491 1.162-.908 2.436-.909zm-2.402 1.501l2.224.754v3.494l-1.637-.863-.587-3.385zm-.108 5.752a4.531 4.531 0 0 0-.217-.257c-.013-.01-.021-.023-.032-.033a2.206 2.206 0 0 0-1.018-.604l.19-.11h.008l.75-.435.77-.441 2.056 1.119.004-.005.006.005 2.055-1.119.769.441.749.435h.01l.188.11a2.209 2.209 0 0 0-1.017.606l-.03.029a3.796 3.796 0 0 0-.183.211l-.035.045a3.556 3.556 0 0 0-.193.271 5.096 5.096 0 0 0-.181.294c-.533.919-1.384 1.468-2.141 1.469-.756-.001-1.607-.55-2.139-1.469a6.777 6.777 0 0 0-.178-.29c-.012-.017-.023-.036-.035-.051a4.127 4.127 0 0 0-.156-.221zm.569 1.669c.365.363.723.589 1.063.713-.044.175-.102.537.061.897.134.291.377.515.727.664.038.359.266.899.894 1.138-.276.277-.543.539-.651.645l-2.549-.041a.46.46 0 0 1-.201-.186c-.005-.013-.013-.02-.019-.032l.416.067a.244.244 0 0 0 .027.001.164.164 0 0 0 .164-.138.167.167 0 0 0-.138-.191l-.512-.081.568-1.961-.538-1.132-.861.911-.053 2.039-.579-.092c-.089-.017-.175.048-.191.139a.169.169 0 0 0 .138.191l.243.037a1.826 1.826 0 0 0-.151.094l-.049.035-.014.06c-.141.572.178 1.115.522 1.358l-.012.072a.323.323 0 0 0 .059.246.322.322 0 0 0 .266.138.327.327 0 0 0 .316-.254c.128.015.246.018.326.018h.068l3.344.604.057-.038c.266-.186 1.282-.926 1.615-1.172.091.079.194.15.317.21-.108.361-.115.918.312 1.358h-8.523v-4.918c0-.476-.139-.955-.304-1.398h3.842v-.001zm-.956 3.974a.773.773 0 0 0 .292.308c-.003.141-.016.36-.054.554-.009.043-.02.083-.032.123-.006.025-.014.046-.019.062-.134 0-.397-.016-.614-.095-.239-.088-.595-.526-.513-1.009.103-.063.343-.198.567-.198.173 0 .291.081.373.255zm-.316-.607l.052-1.958.439-.465.276.578-.544 1.879-.223-.034z"/></g></svg>