<?xml version="1.0" encoding="UTF-8"?>
<svg width="18px" height="18px" viewBox="0 0 18 18" version="1.1" xmlns="http://www.w3.org/2000/svg" xmlns:xlink="http://www.w3.org/1999/xlink">
    <!-- Generator: Sketch 47.1 (45422) - http://www.bohemiancoding.com/sketch -->
    <title>icon_bank-uralskiy_s_color</title>
    <desc>Created with Sketch.</desc>
    <defs></defs>
    <g id="Page-1" stroke="none" stroke-width="1" fill="none" fill-rule="evenodd">
        <g id="icon_bank-uralskiy_s_color">
            <g>
                <rect id="_ph_" opacity="0" x="0" y="0" width="18" height="18"></rect>
                <path d="M3.027,12.014 C2.806,11.627 2.64,11.185 2.64,10.687 L2.64,5.267 C1.921,5.433 1.368,5.931 1.036,6.539 L1.036,9.968 C1.47438155,10.8378713 2.16939434,11.5520833 3.027,12.014" id="Shape" fill="#D4132F" fill-rule="nonzero"></path>
                <path d="M3.304,4.604 L4.908,4.604 C5.35,4.604 5.737,4.217 5.737,3.775 C5.737,3.333 5.35,3 4.907,3 L3.304,3 C2.70061574,2.99323944 2.11995731,3.22987923 1.69317935,3.65646902 C1.26640139,4.0830588 1.02950554,4.66361281 1.036,5.267 L1.036,5.986 C1.423,5.157 2.308,4.604 3.304,4.604" id="Shape" fill="#940449" fill-rule="nonzero"></path>
                <path d="M8.225,3 L8.225,10.687 C8.225,12.18 6.953,13.397 5.46,13.397 C3.69,13.397 1.921,12.402 1.036,10.743 C1.092,13.065 3.027,15 5.46,15 C7.893,15 9.884,13.065 9.884,10.687 L9.884,4.604 L8.225,3 Z" id="Shape" fill="#2865A7" fill-rule="nonzero"></path>
                <path d="M12.317,3 L8.225,3 L9.884,4.604 L12.538,4.604 C13.7,4.604 14.861,5.101 15.746,5.876 C15.414,4.217 14.032,3 12.317,3 Z" id="Shape" fill="#B10540" fill-rule="nonzero"></path>
                <path d="M15.58,7.7 C15.746,7.258 15.801,6.705 15.801,6.428 C15.2246633,5.92034239 14.5455287,5.54308324 13.81,5.322 C14.031,5.598 14.197,6.096 14.197,6.483 C14.197,6.87 14.086,7.202 13.865,7.589 C13.644,7.921 13.644,8.363 14.031,8.584 C14.75,8.971 15.248,9.69 15.303,10.464 C15.3616879,11.0620852 15.225974,11.6631541 14.916,12.178 C15.801,11.736 16.52,11.017 16.907,10.187 C16.797,9.304 16.41,8.475 15.58,7.7" id="Shape" fill="#D4132F" fill-rule="nonzero"></path>
                <path d="M12.926,13.341 L10.327,13.341 C9.87381814,13.3520645 9.50906454,13.7168181 9.498,14.17 C9.50906454,14.6231819 9.87381814,14.9879355 10.327,14.999 L12.926,14.999 C15.138,14.999 17.018,13.119 16.963,10.796 C16.41,12.235 14.916,13.341 12.926,13.341" id="Shape" fill="#940449" fill-rule="nonzero"></path>
            </g>
        </g>
    </g>
</svg>