<?xml version="1.0" encoding="UTF-8"?>
<svg width="36px" height="36px" viewBox="0 0 36 36" version="1.1" xmlns="http://www.w3.org/2000/svg" xmlns:xlink="http://www.w3.org/1999/xlink">
    <!-- Generator: Sketch 47.1 (45422) - http://www.bohemiancoding.com/sketch -->
    <title>icon_bank-uralskiy_xl_color</title>
    <desc>Created with Sketch.</desc>
    <defs></defs>
    <g id="Page-1" stroke="none" stroke-width="1" fill="none" fill-rule="evenodd">
        <g id="icon_bank-uralskiy_xl_color">
            <g>
                <rect id="_ph_" fill="#940449" opacity="0" x="0" y="0" width="36" height="36"></rect>
                <path d="M5.25,24.434 C4.778,23.608 4.424,22.663 4.424,21.601 L4.424,10.032 C2.889,10.386 1.708,11.448 1,12.747 L1,20.066 C1.93471868,21.9237333 3.41855522,23.4487681 5.25,24.434" id="Shape" fill="#D4132F" fill-rule="nonzero"></path>
                <path d="M5.84,8.615 L9.263,8.615 C10.207,8.615 11.034,7.789 11.034,6.844 C11.034,5.899 10.208,5.191 9.263,5.191 L5.84,5.191 C3.125,5.192 1,7.317 1,10.032 L1,11.567 C1.826,9.796 3.715,8.615 5.84,8.615" id="Shape" fill="#B10540" fill-rule="nonzero"></path>
                <path d="M25.081,5.192 L16.346,5.192 L19.888,8.615 L25.554,8.615 C28.033,8.615 30.512,9.678 32.4,11.33 C31.692,7.789 28.741,5.192 25.081,5.192 Z" id="Shape" fill="#B10540" fill-rule="nonzero"></path>
                <path d="M16.346,5.192 L16.346,21.6 C16.346,24.787 13.631,27.384 10.444,27.384 C6.667,27.384 2.889,25.259 1,21.718 C1.118,26.676 5.25,30.808 10.444,30.808 C15.638,30.808 19.888,26.676 19.888,21.6 L19.888,8.615 L16.346,5.192 Z" id="Shape" fill="#2865A7" fill-rule="nonzero"></path>
                <path d="M32.046,15.226 C32.4,14.282 32.518,13.101 32.518,12.511 C31.456,11.567 29.921,10.622 28.268,10.15 C28.74,10.74 29.094,11.803 29.094,12.629 C29.094,13.455 28.858,14.164 28.386,14.99 C27.914,15.698 27.914,16.643 28.74,17.115 C30.275,17.941 31.337,19.476 31.455,21.129 C31.5803003,22.4057566 31.2906395,23.6888909 30.629,24.788 C32.518,23.844 34.052,22.309 34.879,20.538 C34.643,18.649 33.817,16.879 32.046,15.226" id="Shape" fill="#D4132F" fill-rule="nonzero"></path>
                <path d="M26.38,27.267 L20.832,27.267 C19.888,27.267 19.061,28.093 19.061,29.038 C19.061,29.982 19.887,30.809 20.832,30.809 L26.38,30.809 C31.102,30.809 35.115,26.795 34.997,21.837 C33.817,24.906 30.63,27.267 26.38,27.267" id="Shape" fill="#B10540" fill-rule="nonzero"></path>
            </g>
        </g>
    </g>
</svg>