<svg id="Слой_1" data-name="Слой 1" xmlns="http://www.w3.org/2000/svg" viewBox="0 0 24 24"><defs><style>.cls-1{fill:none;}.cls-2{opacity:0.4;}.cls-3{fill:#fff;}</style></defs><title>icon_card-maestro_m_white</title><g id="cards"><g id="icon_card_maestro_m" data-name="icon card maestro  m"><rect id="ph" class="cls-1" width="24" height="24"/><g id="art" class="cls-2"><path id="Combined-Shape" class="cls-3" d="M4.06,11.13h0l-.48,2.62H2.82l.64-3.51H4.78l.13,2.09.9-2.09H7.19l-.64,3.51H5.79l.48-2.62h0L5.1,13.76H4.25v-.11l0-.29,0-.41,0-.47,0-.48,0-.42,0-.31v-.13h0Zm3,1.31.06-.07.06-.07.07-.06.08-.05.08-.05.09,0,.09,0,.09,0,.09,0,.1,0h1v-.28l0,0,0,0,0,0,0,0,0,0,0,0,0,0H7.62l-.07,0H7.5l-.05,0,0,0,0,0,.2-.63.06,0,.06,0,.06,0,.07,0H9l.09,0,.09,0,.09,0,.09,0,.08,0,.08.05.07.06.06.07.05.07,0,.08,0,.09,0,.1v.1l0,.11-.29,1.4-.11.59h-.7v-.3h0l0,0,0,0-.05,0-.06,0-.06,0-.07,0-.07,0-.08,0-.08,0-.08,0-.08,0h-.4l-.1,0-.09,0-.08,0-.07,0-.06,0-.05,0,0-.05,0-.06,0-.06,0-.06,0-.06,0-.06v-.34l0-.1,0-.1,0-.09,0-.08Zm.69.42v0l0,0,0,0,0,0,0,0,0,0,0,0,0,0,0,0,0,0,0,0h.67v.41l0,0,0,0,0,0,0,0,0,0,0,0,0,0,0,0-.05,0-.06,0-.06,0H8l0,0,0,0,0,0,0-.06v-.16Zm4.64-1.11v.38l0,.11,0,.12,0,.16H10.54v.18l0,.05,0,.05,0,0,0,0,0,0,0,0,0,0,0,0,.05,0,.05,0,.06,0h.79l.08,0,.08,0,.08,0,.08,0,.08,0,.08,0-.12.66,0,0,0,0,0,0h0l0,0H10.81l-.07,0h-.07l-.07,0-.07,0-.07,0-.07,0-.06,0-.06,0-.06,0-.06,0-.05,0-.05,0L10,13.31l0-.06,0-.06,0-.06,0-.07,0-.07,0-.08,0-.08,0-.09V12l0-.05,0-.06,0-.06,0-.06,0-.06,0-.06,0-.06,0-.06,0-.06,0-.06,0-.05,0-.05.05-.05.06,0,.06,0,.06,0,.07,0,.07,0,.08,0,.08,0,.09,0,.09,0,.1,0h.72l.06,0,.06,0,.06,0,.05,0L12,11,12,11l.05,0,0,0,0,0,0,0,0,0,0,.05,0,.05,0,.06,0,.06,0,.07,0,.07,0,.08Zm-.77.18V12h-1V11.9l0-.06,0-.05,0,0,0,0,0,0,0,0,0,0,0,0,0,0,0,0,0,0,0,0h.3l0,0,0,0,0,0,0,0,0,0,0,0,0,0,0,0,0,.05v.18Zm.7,1.72,0,0,.12-.58h1.09l.06,0,0,0,0,0,0,0,0,0,0,0v-.16l0,0,0,0,0,0,0,0,0,0,0,0,0,0,0,0-.05,0-.05,0-.05,0-.06,0-.06,0-.06,0-.05,0-.05,0-.05,0-.05,0,0,0,0,0,0,0,0,0,0-.05,0-.06,0-.06,0-.07v-.54l0,0,0,0,0,0,0,0,0,0,0,0,0,0,0,0,0,0,0,0,0,0,0,0,0,0,0,0,0,0,.05,0,.05,0h1.48l-.14.6h-.91l0,0,0,0,0,0,0,0,0,0,0,0v.17l0,0,0,0,.06,0,.07,0,.08,0,.08,0L14,12l.09,0,.09,0,.09,0,.08,0,.08.05.07.07.06.08,0,.1,0,.12v.31l0,.12,0,.11,0,.1-.06.09-.07.08-.07.07-.08.06-.09.05-.09,0-.09,0-.1,0-.1,0-.1,0H12.42Zm2.41-.42v-.07l.52-2.91h.78L16,10.9h.48l-.11.59h-.49L15.6,13v.14l0,0h.54l-.08.51h-.89l-.09,0-.08,0-.06,0-.06,0,0,0,0,0,0,0,0,0v-.27Zm2.33.53h-.79l.52-2.86h.79l-.09.48,0-.05,0-.05,0-.05,0,0,0,0,0,0,0,0,0,0,0,0L18,11l.06,0,.06,0,.07,0h.36v0l0,0,0,0,0,0,0,.05,0,.05,0,.05,0,.07,0,.07,0,.07,0,.07,0,.06v.08H18l-.09,0-.08,0-.07,0-.06,0-.05,0,0,0,0,0,0,0,0,.05,0,.05,0,.05,0,.06v.12Zm1.37-2.35,0-.06,0-.05,0-.05.05,0,.06,0,.06,0,.06,0,.06,0L19,11l.07,0,.07,0,.07,0,.07,0,.08,0,.08,0h.67l.08,0,.08,0,.07,0,.07,0,.07,0,.06,0,.06,0,.06,0,.06,0,.05,0,.05,0,0,0,0,0,0,.05,0,.05,0,.06,0,.06,0,.06,0,.06,0,.06,0,.07,0,.07,0,.07v.65l0,.09,0,.08,0,.08,0,.08,0,.07L21,13l0,.07,0,.06,0,.06,0,.06,0,.05-.05.05-.05,0-.05,0-.06,0-.06,0-.06,0-.06,0-.07,0-.07,0-.07,0-.07,0-.07,0-.07,0h-.85l-.07,0-.07,0-.07,0-.06,0-.06,0-.06,0-.06,0-.05,0-.05,0-.05,0,0,0,0-.05,0-.05,0-.06,0-.06,0-.06,0-.06,0-.07,0-.07,0-.07,0-.07V12.1l0-.08,0-.08,0-.08,0-.07,0-.07,0-.07,0-.07,0-.06,0-.06Zm.63,1v-.33l0-.06,0-.06,0-.06,0-.06,0-.06,0-.06,0-.05,0,0,.05,0,.06,0,.06,0,.07,0h.28l.05,0,.05,0,0,0,0,0,0,0,0,0,0,.05,0,.06,0,.06v.37l0,.1,0,.1,0,.09,0,.08,0,.07,0,.07,0,.06,0,.05,0,0,0,0-.05,0-.05,0-.06,0H19.4l0,0,0,0,0,0,0,0,0,0,0-.05,0-.06,0-.07v-.24Z"/><path id="Shape" class="cls-3" d="M12.12,18.28h-.24a7.85,7.85,0,0,0,3.79,1A7.43,7.43,0,0,0,23.25,12a7.43,7.43,0,0,0-7.58-7.25,7.85,7.85,0,0,0-3.79,1h.24a7.85,7.85,0,0,0-3.79-1A7.43,7.43,0,0,0,.75,12a7.43,7.43,0,0,0,7.58,7.25A7.85,7.85,0,0,0,12.12,18.28ZM11.3,6.52l0-.43a7.31,7.31,0,0,0-2.6,3.09l-.1.24.24.1.56.23.22.09.1-.22a6.24,6.24,0,0,1,2.43-2.78h-.26A6.24,6.24,0,0,1,14.3,9.6l.1.22.22-.09.56-.23.24-.1-.1-.24a7.32,7.32,0,0,0-2.59-3.08l0,.43a6.72,6.72,0,0,1,3-.69A6.33,6.33,0,0,1,22.14,12a6.33,6.33,0,0,1-6.47,6.17,6.72,6.72,0,0,1-3-.69l0,.43a7.31,7.31,0,0,0,2.6-3.09l.1-.24-.24-.1-.56-.23-.22-.09-.1.22a6.24,6.24,0,0,1-2.43,2.78h.26A6.24,6.24,0,0,1,9.7,14.4l-.1-.22-.22.09-.56.23-.24.1.1.24a7.31,7.31,0,0,0,2.59,3.08l0-.43a6.72,6.72,0,0,1-3,.69A6.33,6.33,0,0,1,1.86,12,6.33,6.33,0,0,1,8.33,5.83,6.73,6.73,0,0,1,11.3,6.52Z"/></g></g></g></svg>