<svg xmlns="http://www.w3.org/2000/svg" width="30" height="30" viewBox="0 0 30 30" fill="none"><rect width="30" height="30" fill="none"/>
<rect x="0.3" y="5.3" width="29.4" height="18.5667" rx="1.7" fill="white" stroke="black" stroke-width="0.6"/>
<path d="M10.4541 15.4344H11.6861C12.4301 15.4344 12.982 16.006 12.982 16.7156C12.982 17.4301 12.4301 18.0017 11.6811 18.0017H11.1243V19.0317H10.4541V15.4344ZM11.1243 16.0552V17.3809H11.6367C12.036 17.3809 12.307 17.0852 12.307 16.7156C12.307 16.3509 12.036 16.0552 11.6367 16.0552H11.1243Z" fill="black"/>
<path d="M13.1104 17.5928C13.1104 16.6368 13.8102 16.0897 14.5395 16.0897C14.9191 16.0897 15.2589 16.2475 15.4658 16.4938V16.1489H16.1312V19.0317H15.4658V18.6571C15.2541 18.9233 14.9091 19.0908 14.5295 19.0908C13.8349 19.0908 13.1104 18.534 13.1104 17.5928ZM15.5004 17.583C15.5004 17.0951 15.1308 16.6958 14.6381 16.6958C14.1453 16.6958 13.7658 17.0851 13.7658 17.583C13.7658 18.0855 14.1453 18.4798 14.6381 18.4798C15.1308 18.4798 15.5004 18.0807 15.5004 17.583Z" fill="black"/>
<path d="M17.5312 18.8889L16.3484 16.1491H17.058L17.8614 18.0907L18.6202 16.1491H19.32L17.6001 20.3623H16.9251L17.5312 18.8889Z" fill="black"/>
<path d="M22.5648 9.88388L22.6106 12.5249H22.5921L21.8187 9.88388H20.5701V13.2136H21.3973L21.351 10.4815H21.3693L22.2 13.2136H23.398V9.88388H22.5648Z" fill="black"/>
<path d="M6.72673 9.88391L6.10303 13.2483H7.01253L7.47268 10.1956L7.49136 10.1954L7.93986 13.2483H8.84387L8.22342 9.88391H6.72673Z" fill="black"/>
<path d="M11.811 9.88391L11.396 12.4564H11.3771L10.9627 9.88391H9.59035L9.51611 13.2483H10.3581L10.3792 10.2239H10.398L10.9598 13.2483H11.8138L12.3758 10.2242L12.3943 10.2239L12.4154 13.2483H13.2571L13.1827 9.88391H11.811Z" fill="black"/>
<path d="M4.68718 12.2994C4.7201 12.3808 4.70964 12.485 4.69387 12.5483C4.66643 12.6602 4.59031 12.7746 4.36607 12.7746C4.15571 12.7746 4.02798 12.6529 4.02798 12.4696L4.0273 12.1435H3.125V12.4029C3.125 13.1533 3.71527 13.3801 4.34772 13.3801C4.95617 13.3801 5.45678 13.1725 5.53685 12.6109C5.57765 12.3204 5.54782 12.1301 5.53324 12.0593C5.39112 11.3547 4.11473 11.1447 4.01958 10.7507C4.00347 10.6823 4.00741 10.6115 4.01581 10.574C4.03981 10.4658 4.11285 10.348 4.32321 10.348C4.52019 10.348 4.63575 10.4696 4.63575 10.6527V10.8613H5.47547V10.6242C5.47547 9.89145 4.81696 9.77676 4.34087 9.77676C3.74305 9.77676 3.25392 9.97512 3.1646 10.5237C3.14043 10.6737 3.137 10.808 3.17249 10.9775C3.31839 11.6652 4.51385 11.8639 4.68718 12.2994Z" fill="black"/>
<path d="M15.6259 12.2929C15.658 12.3738 15.6482 12.4764 15.6325 12.5393C15.6052 12.65 15.5299 12.763 15.3081 12.763C15.0996 12.763 14.9729 12.6428 14.9729 12.4609L14.9722 12.1386H14.0792L14.0789 12.3954C14.0789 13.1385 14.6638 13.3625 15.2896 13.3625C15.8924 13.3625 16.3878 13.1573 16.467 12.601C16.5075 12.3137 16.4778 12.1256 16.4634 12.055C16.3223 11.3572 15.0588 11.1494 14.965 10.7594C14.9486 10.692 14.9527 10.622 14.9608 10.5847C14.9846 10.4779 15.0571 10.3608 15.2651 10.3608C15.4607 10.3608 15.5749 10.4808 15.5749 10.6627V10.8688H16.4062V10.6344C16.4062 9.90885 15.7542 9.7957 15.2827 9.7957C14.6911 9.7957 14.2068 9.99131 14.1186 10.535C14.0943 10.6834 14.091 10.8163 14.1263 10.9838C14.2705 11.6651 15.4545 11.8616 15.6259 12.2929Z" fill="black"/>
<path d="M18.4506 12.7448C18.6846 12.7448 18.7564 12.5837 18.7732 12.5009C18.7803 12.4647 18.7815 12.4156 18.7811 12.3724V9.88345H19.6329V12.2958C19.6337 12.3577 19.6274 12.4842 19.6243 12.5171C19.5655 13.145 19.069 13.3486 18.4506 13.3486C17.8319 13.3486 17.3355 13.145 17.2766 12.5171C17.2736 12.4842 17.2671 12.3577 17.2688 12.2958V9.88345H18.1199V12.3724C18.1188 12.4156 18.1206 12.4647 18.1278 12.5009C18.1442 12.5837 18.2164 12.7448 18.4506 12.7448Z" fill="black"/>
<path d="M25.4678 12.7097C25.7114 12.7097 25.7963 12.5554 25.8117 12.4656C25.8186 12.4275 25.8205 12.3806 25.8198 12.3379V11.8493H25.4748V11.3588H26.6665V12.2607C26.666 12.324 26.6645 12.3703 26.6544 12.4821C26.5988 13.095 26.0675 13.3137 25.4712 13.3137C24.8746 13.3137 24.3438 13.095 24.2876 12.4821C24.2782 12.3703 24.2763 12.324 24.2761 12.2607L24.2763 10.8451C24.2763 10.7855 24.2835 10.68 24.2905 10.6238C24.3654 9.99478 24.8746 9.7923 25.4714 9.7923C26.068 9.7923 26.5904 9.99289 26.6523 10.6238C26.6633 10.7309 26.6595 10.8451 26.6602 10.8451V10.9574H25.8117V10.7688C25.8121 10.7692 25.8112 10.6889 25.8011 10.6406C25.7858 10.5665 25.7219 10.3965 25.4647 10.3965C25.2201 10.3965 25.1482 10.5576 25.1294 10.6406C25.12 10.685 25.116 10.745 25.116 10.7999V12.3379C25.1157 12.3806 25.1172 12.4275 25.1237 12.4656C25.1395 12.5554 25.2245 12.7097 25.4678 12.7097Z" fill="black"/>
</svg>
