<svg id="Слой_1" data-name="Слой 1" xmlns="http://www.w3.org/2000/svg" viewBox="0 0 24 24"><defs><style>.cls-1{fill:none;}.cls-2,.cls-3,.cls-4{fill:#fff;isolation:isolate;}.cls-2{opacity:0.2;}.cls-3{opacity:0.4;}.cls-4{opacity:0.3;}</style></defs><title>icon_card-mastercard_m_white</title><g id="Page-1"><g id="icon_card-mastercard_m_white" data-name="icon card-mastercard m white"><polygon id="Shape" class="cls-1" points="0 0 24 0 24 24 0 24 0 0"/><g id="Group"><path id="Shape-2" data-name="Shape" class="cls-2" d="M12,17.73a7,7,0,0,0,4.4,1.55,6.85,6.85,0,0,0,6.91-6.79,6.85,6.85,0,0,0-6.91-6.79A7,7,0,0,0,12,7.27a6.71,6.71,0,0,1,0,10.46Z"/><path id="Shape-3" data-name="Shape" class="cls-3" d="M12,7.27a7,7,0,0,0-4.4-1.55A6.85,6.85,0,0,0,.65,12.5a6.85,6.85,0,0,0,6.91,6.79A7,7,0,0,0,12,17.73,6.71,6.71,0,0,1,12,7.27Z"/><path id="Shape-4" data-name="Shape" class="cls-4" d="M12,7.24a6.71,6.71,0,0,1,0,10.52A6.71,6.71,0,0,1,12,7.24Z"/></g></g></g></svg>