<svg xmlns="http://www.w3.org/2000/svg" width="48" height="48" viewBox="0 0 48 48" fill="none"><rect width="48" height="48" fill="none"/>
<path d="M43.7014 8H4.29862C4.13451 8 3.97012 8 3.8063 8.00097C3.66783 8.00196 3.52968 8.00351 3.39152 8.00731C3.09022 8.01553 2.78634 8.03347 2.4888 8.08741C2.18651 8.1423 1.90522 8.23182 1.6308 8.37277C1.36102 8.51117 1.11403 8.6922 0.89999 8.90822C0.685856 9.12424 0.506408 9.37299 0.369241 9.64544C0.229494 9.92228 0.140698 10.2061 0.086672 10.5113C0.0329102 10.8116 0.0150147 11.1181 0.00689488 11.4217C0.00318297 11.5611 0.0015909 11.7005 0.000689024 11.8398C-0.000267954 12.0054 5.10388e-05 12.1709 5.10388e-05 12.3368V34.6635C5.10388e-05 34.8294 -0.000267954 34.9946 0.000689024 35.1606C0.0015909 35.2999 0.00318297 35.4393 0.00689488 35.5786C0.0150147 35.882 0.0329102 36.1885 0.086672 36.4887C0.140698 36.794 0.229494 37.0777 0.369241 37.3546C0.506408 37.627 0.685856 37.8761 0.89999 38.0918C1.11403 38.3082 1.36102 38.4892 1.6308 38.6272C1.90522 38.7686 2.18651 38.8581 2.4888 38.913C2.78634 38.9666 3.09022 38.9848 3.39152 38.993C3.52968 38.9962 3.66783 38.9981 3.8063 38.9987C3.97012 39 4.13451 39 4.29862 39H43.7014C43.8652 39 44.0296 39 44.1934 38.9987C44.3316 38.9981 44.4697 38.9962 44.6085 38.993C44.9092 38.9848 45.213 38.9666 45.5113 38.913C45.8132 38.8581 46.0945 38.7686 46.369 38.6272C46.639 38.4892 46.8853 38.3082 47.0998 38.0918C47.3136 37.8761 47.493 37.627 47.6305 37.3546C47.7706 37.0777 47.8593 36.794 47.9131 36.4887C47.9669 36.1885 47.9843 35.882 47.9925 35.5786C47.9962 35.4393 47.9981 35.2999 47.9987 35.1606C48 34.9946 48 34.8294 48 34.6635V12.3368C48 12.1709 48 12.0054 47.9987 11.8398C47.9981 11.7005 47.9962 11.5611 47.9925 11.4217C47.9843 11.1181 47.9669 10.8116 47.9131 10.5113C47.8593 10.2061 47.7706 9.92228 47.6305 9.64544C47.493 9.37299 47.3136 9.12424 47.0998 8.90822C46.8853 8.6922 46.639 8.51117 46.369 8.37277C46.0945 8.23182 45.8132 8.1423 45.5113 8.08741C45.213 8.03347 44.9092 8.01553 44.6085 8.00731C44.4697 8.00351 44.3316 8.00196 44.1934 8.00097C44.0296 8 43.8652 8 43.7014 8Z" fill="black"/>
<path d="M43.7016 9.03345L44.1863 9.03438C44.3176 9.03532 44.4489 9.03675 44.5809 9.04038C44.8106 9.04664 45.0793 9.05919 45.3297 9.10448C45.5474 9.14403 45.73 9.20418 45.9052 9.29417C46.0782 9.38284 46.2367 9.49904 46.3751 9.63844C46.514 9.77877 46.6293 9.93892 46.7184 10.1154C46.8071 10.2907 46.8663 10.474 46.9053 10.6953C46.9501 10.9452 46.9625 11.2169 46.9687 11.4501C46.9723 11.5817 46.974 11.7133 46.9747 11.848C46.9759 12.0109 46.9759 12.1737 46.9759 12.337V34.6637C46.9759 34.8269 46.9759 34.9895 46.9746 35.1559C46.974 35.2874 46.9723 35.419 46.9687 35.5508C46.9624 35.7836 46.9501 36.0552 46.9047 36.3081C46.8663 36.5263 46.8071 36.7096 46.7179 36.8859C46.6291 37.0619 46.514 37.2218 46.3756 37.3613C46.2365 37.5017 46.0785 37.6176 45.9035 37.7071C45.7296 37.7966 45.5473 37.8567 45.3318 37.8958C45.0763 37.9418 44.7963 37.9544 44.5855 37.9602C44.4529 37.9632 44.3208 37.965 44.1856 37.9657C44.0245 37.9669 43.8627 37.9669 43.7016 37.9669H4.29876C4.29661 37.9669 4.29452 37.9669 4.29235 37.9669C4.13303 37.9669 3.97338 37.9669 3.81116 37.9656C3.6789 37.965 3.54692 37.9632 3.41932 37.9603C3.20368 37.9544 2.92358 37.9418 2.67016 37.8961C2.45275 37.8567 2.27049 37.7966 2.09429 37.7059C1.9209 37.6172 1.76306 37.5015 1.62383 37.3608C1.48568 37.2216 1.37087 37.0622 1.2821 36.8859C1.19325 36.7098 1.1338 36.5259 1.09471 36.3051C1.04953 36.0528 1.03712 35.7822 1.03091 35.551C1.02737 35.4187 1.02589 35.2863 1.02505 35.1547L1.02441 34.7662L1.02444 34.6637V12.337L1.02441 12.2344L1.02502 11.8467C1.02589 11.7144 1.02737 11.582 1.03091 11.4498C1.03712 11.2183 1.04953 10.9477 1.09509 10.6932C1.13383 10.4744 1.19325 10.2905 1.28257 10.1135C1.37064 9.93862 1.48565 9.77895 1.62453 9.63888C1.76286 9.49927 1.92122 9.38322 2.09571 9.2937C2.27002 9.20415 2.45263 9.14403 2.67004 9.10457C2.92054 9.05916 3.18939 9.04664 3.41964 9.04035C3.55089 9.03675 3.68214 9.03532 3.81241 9.03441L4.29876 9.03345H43.7016Z" fill="white"/>
<path d="M13.1037 18.4267C13.5147 17.9081 13.7936 17.2118 13.7201 16.5002C13.1184 16.5304 12.3843 16.9007 11.9592 17.4197C11.5776 17.8641 11.2398 18.5896 11.3278 19.2713C12.0032 19.3304 12.6779 18.9307 13.1037 18.4267Z" fill="black"/>
<path d="M13.7123 19.4043C12.7315 19.3454 11.8976 19.9659 11.4293 19.9659C10.9606 19.9659 10.2434 19.434 9.46763 19.4484C8.45794 19.4633 7.52107 20.0393 7.00869 20.9552C5.95482 22.7876 6.73058 25.5057 7.75541 26.9981C8.25309 27.7365 8.85288 28.5494 9.64319 28.5202C10.3899 28.4907 10.6826 28.0325 11.5903 28.0325C12.4973 28.0325 12.7609 28.5202 13.5513 28.5055C14.3711 28.4907 14.8835 27.7668 15.3812 27.0277C15.9521 26.186 16.1858 25.3733 16.2005 25.3287C16.1858 25.314 14.6199 24.7079 14.6054 22.8907C14.5906 21.3692 15.8348 20.6455 15.8934 20.6006C15.1908 19.5522 14.0929 19.434 13.7123 19.4043Z" fill="black"/>
<path d="M22.2523 17.3452C24.384 17.3452 25.8684 18.8276 25.8684 20.9858C25.8684 23.1517 24.3534 24.6418 22.1988 24.6418H19.8386V28.4283H18.1333V17.3452H22.2523V17.3452ZM19.8386 23.1978H21.7952C23.2799 23.1978 24.1249 22.3914 24.1249 20.9935C24.1249 19.5957 23.2799 18.7969 21.8029 18.7969H19.8386V23.1978Z" fill="black"/>
<path d="M26.3137 26.1319C26.3137 24.7185 27.3872 23.8507 29.2907 23.7431L31.4833 23.6126V22.9905C31.4833 22.0919 30.8818 21.5542 29.877 21.5542C28.9251 21.5542 28.3312 22.015 28.1867 22.7371H26.6336C26.7249 21.2777 27.9582 20.2024 29.9378 20.2024C31.8792 20.2024 33.1201 21.2393 33.1201 22.8599V28.4283H31.5441V27.0996H31.5062C31.0418 27.9982 30.0291 28.5665 28.9785 28.5665C27.4101 28.5665 26.3137 27.5834 26.3137 26.1319ZM31.4833 25.4022V24.7648L29.5113 24.8876C28.5292 24.9568 27.9735 25.3945 27.9735 26.0858C27.9735 26.7923 28.5521 27.2532 29.4352 27.2532C30.5848 27.2532 31.4833 26.4544 31.4833 25.4022Z" fill="black"/>
<path d="M34.608 31.4006V30.0564C34.7296 30.0871 35.0036 30.0871 35.1408 30.0871C35.9021 30.0871 36.3133 29.7646 36.5644 28.9351C36.5644 28.9197 36.7092 28.4435 36.7092 28.4358L33.8162 20.3481H35.5975L37.6229 26.9228H37.6532L39.6786 20.3481H41.4144L38.4145 28.8505C37.7295 30.8092 36.9377 31.439 35.2779 31.439C35.1408 31.439 34.7296 31.4235 34.608 31.4006Z" fill="black"/>
</svg>
