<svg xmlns="http://www.w3.org/2000/svg" width="24" height="24" viewBox="0 0 24 24" fill="none"><rect width="24" height="24" fill="none"/>
<g clip-path="url(#clip0)">
<path d="M12.0001 22.6583C17.2051 22.6583 21.4559 18.3643 21.4559 13.1086C21.4559 7.84613 17.2068 3.55884 12.0001 3.55884C6.79685 3.55884 2.54602 7.84613 2.54602 13.1086C2.54602 18.3643 6.79517 22.6583 12.0001 22.6583Z" fill="#0B1F35"/>
<path d="M12 3.4104C6.71122 3.4104 2.40002 7.76437 2.40002 13.1052C2.40002 18.4393 6.71122 22.7982 12 22.7999C17.2872 22.7982 21.6 18.4393 21.6 13.1052C21.5983 7.76604 17.2872 3.4104 12 3.4104ZM10.241 19.5561V22.3448C9.91066 22.2798 9.58535 22.1982 9.26843 22.0998V13.6719H10.6602C11.0207 13.6719 11.2723 13.7453 11.4182 13.8836C11.5657 14.022 11.6311 14.2703 11.6311 14.6304V18.5976C11.6311 18.956 11.564 19.2044 11.4182 19.3427C11.1985 19.5628 10.7927 19.5628 10.454 19.5628C10.3802 19.5561 10.3064 19.5561 10.241 19.5561ZM12 22.5149C11.5456 22.5149 11.0979 22.4799 10.6602 22.4165V19.9645C11.3025 19.9645 11.7217 19.7461 11.9195 19.3077V21.7564C11.9195 22.0581 11.9665 22.3098 12.0604 22.5115C12.0403 22.5132 12.0201 22.5149 12 22.5149ZM14.6511 16.7374H13.6953V14.562H13.2811V21.8948H13.6936V17.1424H14.6495V21.7548C14.6495 21.8964 14.6377 22.0198 14.6176 22.1315C13.9452 22.3315 13.2409 22.4565 12.5148 22.4982C12.3471 22.3032 12.3253 22.0031 12.3253 21.7564V14.7037C12.3253 14.337 12.3991 14.0803 12.5383 13.9336C12.6775 13.7869 12.929 13.7152 13.2828 13.7152C13.6433 13.7152 14.1732 13.6636 14.4432 13.9336C14.5824 14.0803 14.6495 14.337 14.6495 14.7037V16.7374H14.6511ZM17.7131 20.5246C17.3911 20.7796 17.049 21.0163 16.6919 21.228V17.1924H16.2559V21.4681C15.9272 21.6431 15.5851 21.7931 15.2347 21.9265V17.3074C15.2347 16.8824 15.337 16.564 15.7696 16.4173L15.2917 13.8019H16.2542L16.4185 16.6573H16.5359L16.6986 13.8019H17.7131L17.1698 16.4173C17.6276 16.579 17.7147 16.8557 17.7147 17.3074V20.5246H17.7131ZM15.0636 16.4056V14.7821L15.3504 16.239C15.2296 16.2823 15.1374 16.339 15.0636 16.4056ZM18.0518 16.6707C17.9747 16.4823 17.8372 16.329 17.594 16.239L18.0518 13.8919V16.6707ZM21.2194 14.412C21.2143 14.4537 21.2076 14.4987 21.2009 14.542H19.6347V14.9204H19.8712C20.3223 14.9088 20.8253 14.9004 21.0685 15.2288C20.8656 16.1123 20.5403 16.9491 20.1059 17.7192V15.6839H19.6364V18.4743C19.3195 18.931 18.9657 19.3594 18.5767 19.7561C18.5582 19.7728 18.5414 19.7911 18.5247 19.8045V13.7819H21.2177L21.2194 14.412ZM14.7903 13.3985L14.8859 13.8703C14.6746 13.4885 14.2772 13.2969 13.6936 13.2969H13.2811C12.5802 13.2969 12.1526 13.5752 11.9916 14.1286C11.8407 13.5469 11.398 13.2585 10.6585 13.2585H8.84754V21.9548C7.55133 21.4797 6.38256 20.7196 5.4234 19.7528C3.73648 18.0476 2.69012 15.6939 2.69012 13.1068C2.69012 10.5148 3.73648 8.16276 5.4234 6.45918C7.11031 4.75726 9.43779 3.70044 11.9983 3.70044C14.5606 3.70044 16.8864 4.75726 18.5733 6.45918C20.2619 8.16443 21.3083 10.5181 21.3083 13.1068C21.3083 13.2052 21.3066 13.3019 21.3015 13.4002H14.7903V13.3985ZM10.241 18.736H10.6602V14.4904H10.241V18.736Z" fill="white"/>
<path d="M3.98143 7.99805L3.99652 8.30643L4.04012 8.5998L4.11223 8.87651L4.19607 9.14822L4.30507 9.40492L4.43083 9.65162L4.5633 9.89332L4.71757 10.1217L4.88023 10.3401L5.06468 10.5601L5.447 10.9835L5.8528 11.3802L6.27202 11.7836L6.68452 12.177L7.09703 12.5804L7.47097 12.9971L7.65542 13.2171L7.82479 13.4372L7.98073 13.6639L8.11321 13.9039L8.24568 14.1539L8.34797 14.4173L8.42845 14.6824L8.50224 14.9657L8.53913 15.2524L8.56093 15.5592L8.54751 18.1279L8.53242 17.8212L8.48714 17.5294L8.41336 17.2511L8.33455 16.9794L8.22891 16.7243L8.09811 16.466L7.96564 16.2326L7.81137 15.9992L7.64872 15.7792L7.46426 15.5592L7.08194 15.1408L6.67614 14.7324L6.26363 14.3456L5.84442 13.9489L5.43191 13.5389L5.0563 13.1155L4.87352 12.9088L4.70416 12.6754L4.55659 12.4487L4.42412 12.207L4.29836 11.957L4.1793 11.7019L4.10049 11.4319L4.03341 11.1535L3.98982 10.8618L3.96802 10.5518L3.98143 7.99805Z" fill="white"/>
<path d="M3.55383 11.2468L3.5773 11.5752L3.61922 11.8803L3.70139 12.1803L3.79026 12.4637L3.91603 12.7404L4.0485 13.0021L4.19606 13.2571L4.36375 13.5005L4.54149 13.7339L4.73936 13.9672L5.15858 14.4073L5.60127 14.834L6.06408 15.2608L6.51515 15.6791L6.95617 16.1042L7.37538 16.5443L7.57493 16.7793L7.751 17.0127L7.92204 17.256L8.06792 17.5111L8.21549 17.7728L8.32616 18.0495L8.41336 18.3345L8.49552 18.6329L8.53912 18.938L8.56092 19.2663L8.5475 21.9851L8.52403 21.6584L8.48043 21.355L8.40665 21.0533L8.31107 20.7699L8.20039 20.4932L8.05451 20.2298L7.91365 19.9748L7.74261 19.7331L7.55984 19.4997L7.36197 19.2663L6.94946 18.8246L6.50006 18.3929L6.05067 17.9728L5.59456 17.5544L5.14516 17.121L4.73266 16.6726L4.5264 16.4526L4.35033 16.2126L4.17929 15.9642L4.03341 15.7142L3.89926 15.4458L3.77517 15.1757L3.68798 14.884L3.61419 14.5923L3.56892 14.2873L3.54712 13.9522L3.55383 11.2468Z" fill="white"/>
<path d="M21.1906 9.76123H15.1405C15.0801 9.61121 14.9862 9.51453 14.8822 9.51453C14.7766 9.51453 14.6827 9.61454 14.6223 9.76123H14.4043C14.3457 9.61121 14.2517 9.51453 14.1444 9.51453C14.0388 9.51453 13.9449 9.61454 13.8845 9.76123H13.7135C13.8426 9.58621 13.9197 9.37618 13.9197 9.14781C13.9197 8.54105 13.4837 8.04932 12.8214 8.04932C12.159 8.04932 11.6224 8.54105 11.6224 9.14781C11.6224 9.42452 11.832 9.67789 11.9025 9.86791C11.7918 9.89292 11.7096 9.9896 11.7096 10.1079C11.7096 10.2346 11.8035 10.3346 11.9243 10.3513C11.8572 10.5864 11.6241 10.758 11.6241 11.1298C11.6241 11.7365 12.1607 12.2283 12.8231 12.2283C13.4871 12.2283 13.9214 11.7365 13.9214 11.1298C13.9214 10.9014 13.8443 10.6914 13.7152 10.518H13.8845C13.9449 10.668 14.0405 10.7614 14.1444 10.7614C14.2501 10.7614 14.3457 10.6647 14.4043 10.518H14.6207C14.681 10.668 14.7749 10.7614 14.8806 10.7614C14.9845 10.7614 15.0801 10.6647 15.1388 10.518H19.5808V10.763H19.3729V11.2581H19.5808L19.777 11.5298L19.3729 11.4698V12.1332H19.777V11.8332H20.374V12.1349H20.7781V11.4698L20.374 11.5298L20.5701 11.2581H20.7781V10.763H20.5701V10.518H21.1856C21.3415 10.518 21.4706 10.388 21.4706 10.228V10.0529C21.4756 9.89292 21.3465 9.76123 21.1906 9.76123ZM13.0209 9.68455C13.2104 9.69122 13.3613 9.88458 13.3613 10.1296C13.3613 10.373 13.2104 10.568 13.0209 10.5747L12.9186 10.8147C13.1819 10.8147 13.4837 10.8497 13.4837 11.1548C13.4837 11.5265 13.2406 11.8249 12.8197 11.8249C12.3988 11.8249 12.0584 11.5248 12.0584 11.1548C12.0584 10.8647 12.1641 10.8231 12.4575 10.728L12.372 10.5563L12.5581 10.3863C12.4542 10.3413 12.3804 10.2396 12.3804 10.118C12.3804 9.99627 12.4542 9.89292 12.5598 9.84791L12.3971 9.72623L12.4575 9.54953C12.1657 9.45452 12.0584 9.41452 12.0584 9.12281C12.0584 8.75109 12.4005 8.45271 12.8214 8.45271C13.2423 8.45271 13.4837 8.75275 13.4837 9.12281C13.4837 9.43118 13.2255 9.46286 12.9186 9.46286L13.0209 9.68455Z" fill="#0B1F35"/>
<path d="M11.573 11.1264C11.5747 10.763 11.7826 10.5746 11.8597 10.3846C11.744 10.3463 11.6585 10.2379 11.6585 10.1062C11.6585 9.98623 11.7323 9.87954 11.8346 9.8362C11.7575 9.66285 11.5764 9.42281 11.573 9.14777C11.573 8.50934 12.1364 7.99927 12.8239 7.99927C13.5131 7.99927 13.9743 8.51934 13.9759 9.14777C13.9759 9.3528 13.9172 9.54449 13.8133 9.71119H13.8518C13.9156 9.5695 14.0145 9.46782 14.1453 9.46448C14.2761 9.46948 14.375 9.5695 14.4387 9.71119H14.588C14.6517 9.5695 14.7523 9.46782 14.8831 9.46448C15.0106 9.46948 15.1112 9.5695 15.1749 9.71119H21.1914V9.76119V9.80953H15.1061L15.0944 9.77786C15.0374 9.63617 14.9535 9.56116 14.8814 9.5645C14.811 9.56116 14.7255 9.63617 14.6702 9.77786L14.6567 9.8112H14.37L14.3566 9.77786C14.3012 9.63617 14.2157 9.56116 14.1453 9.5645C14.0749 9.56116 13.9893 9.63617 13.934 9.77786L13.9206 9.8112H13.6154L13.6758 9.72952C13.7999 9.56116 13.872 9.3628 13.872 9.1461C13.8703 8.56268 13.4595 8.09928 12.8239 8.09762C12.1867 8.09762 11.677 8.56935 11.6753 9.1461C11.6736 9.39947 11.8748 9.64618 11.952 9.84787L11.9721 9.90288L11.9151 9.91455C11.8279 9.93455 11.7608 10.0129 11.7625 10.1062C11.7625 10.2046 11.8363 10.2829 11.9318 10.2963L11.9905 10.3063L11.9738 10.3596C11.8966 10.618 11.6736 10.7763 11.6753 11.1247C11.677 11.7015 12.1867 12.1715 12.8239 12.1732C13.4578 12.1715 13.8703 11.7081 13.872 11.1247C13.872 10.908 13.7999 10.708 13.6758 10.5413L13.6154 10.4596H13.9206L13.934 10.4896C13.9893 10.6347 14.0749 10.7097 14.1453 10.7063C14.2157 10.7097 14.3012 10.6347 14.3583 10.4913L14.37 10.4613H14.6567L14.6718 10.4913C14.7255 10.6347 14.811 10.7097 14.8814 10.7063C14.9519 10.7097 15.0374 10.6347 15.0944 10.4913L15.1061 10.4613H19.6336V10.8097H19.4257V11.2014H19.6068L19.8902 11.5915L19.4257 11.5231V12.0749H19.7292V11.7748H20.4302V12.0749H20.732V11.5231L20.2692 11.5898L20.5509 11.2014H20.732V10.808H20.5241V10.4596H21.1914C21.3189 10.4596 21.4245 10.3513 21.4262 10.2196V10.0462C21.4262 9.91455 21.3206 9.80787 21.1931 9.80787V9.75786V9.70785C21.3793 9.70785 21.5285 9.86121 21.5285 10.0462V10.2196C21.5285 10.4046 21.3776 10.558 21.1914 10.558H20.6263V10.7047H20.8343V11.3014H20.6029L20.4922 11.4531L20.836 11.4031V12.1782H20.3295V11.8765H19.8315V12.1799H19.3251V11.4048L19.6689 11.4548L19.5599 11.3031H19.3251V10.7063H19.533V10.5596H15.1782C15.1145 10.7013 15.0156 10.803 14.8848 10.8063C14.754 10.803 14.6551 10.7013 14.5897 10.5596H14.4421C14.3784 10.7013 14.2794 10.803 14.1486 10.8063C14.0179 10.803 13.9189 10.7013 13.8552 10.5596H13.8166C13.9189 10.7263 13.9793 10.918 13.9793 11.1231C13.9793 11.7548 13.5198 12.2699 12.8273 12.2716C12.1364 12.2749 11.573 11.7665 11.573 11.1264ZM12.8239 11.8748C12.3796 11.8748 12.014 11.5598 12.0123 11.1514C12.0123 11.003 12.0408 10.8997 12.118 10.828C12.1834 10.768 12.2706 10.7347 12.388 10.6963L12.3125 10.543L12.4768 10.3946C12.3896 10.3313 12.3343 10.2279 12.3343 10.1162C12.3343 10.0029 12.388 9.90288 12.4735 9.8412L12.3427 9.74119L12.398 9.57617C12.2773 9.53783 12.1867 9.50449 12.118 9.44115C12.0408 9.37114 12.0123 9.26779 12.0123 9.11776C12.014 8.71604 12.3812 8.39599 12.8239 8.39599C13.0453 8.39599 13.2281 8.476 13.3505 8.60936C13.4712 8.74104 13.5349 8.92274 13.5349 9.11776C13.5366 9.28779 13.4561 9.39947 13.3371 9.44948C13.2415 9.49282 13.1241 9.50449 13 9.50782L13.0553 9.63284C13.2649 9.66284 13.4142 9.87621 13.4142 10.1246C13.4142 10.3713 13.2649 10.5863 13.0553 10.6163L12.995 10.7613C13.1073 10.7647 13.2213 10.7763 13.3203 10.818C13.441 10.868 13.5366 10.9797 13.5332 11.1497C13.5332 11.3464 13.4695 11.5281 13.3488 11.6598C13.2281 11.7948 13.047 11.8748 12.8239 11.8748ZM12.1129 9.11943C12.1129 9.26279 12.1381 9.32446 12.1867 9.36947C12.237 9.41614 12.3309 9.45115 12.4768 9.49782L12.5255 9.51449L12.4601 9.70618L12.663 9.85954L12.5825 9.89621C12.4936 9.93122 12.4349 10.0162 12.4349 10.1179C12.4349 10.2179 12.4936 10.2996 12.5825 10.3396L12.6562 10.3729L12.4383 10.568L12.5322 10.758L12.4751 10.7763C12.3293 10.8213 12.2354 10.8597 12.1851 10.9047C12.1364 10.9497 12.1129 11.013 12.1113 11.1531C12.1113 11.4914 12.4248 11.7732 12.8223 11.7748C13.2146 11.7715 13.4293 11.5031 13.4326 11.1531C13.431 11.018 13.3739 10.958 13.28 10.9147C13.1828 10.8747 13.047 10.8647 12.9195 10.8647H12.8424L12.9883 10.523L13.0201 10.5213C13.171 10.5196 13.3119 10.3496 13.3119 10.1296C13.3119 9.90788 13.1727 9.73952 13.0201 9.73786L13.0218 9.68785L13.0688 9.66618L13.0218 9.68451L13.0201 9.73452H12.9883L12.8407 9.41114H12.9212C13.0721 9.41281 13.2079 9.40281 13.2968 9.36113C13.384 9.32113 13.4326 9.26112 13.4343 9.1211C13.431 8.77105 13.218 8.50434 12.8239 8.50101C12.4248 8.50101 12.1129 8.78272 12.1129 9.11943Z" fill="white"/>
<path d="M8.71533 11.5178V13.023L10.969 10.8227V9.33081L8.71533 11.5178Z" fill="#0B1F35"/>
<path d="M8.66272 11.5181V11.4948L11.0187 9.20776V10.8397L8.66272 13.1433V11.5181ZM8.76501 12.9033L10.9164 10.8013V9.44947L8.76501 11.5398V12.9033Z" fill="white"/>
<path d="M8.71533 6.01947V7.52469L10.969 5.32436V3.83081L8.71533 6.01947Z" fill="#0B1F35"/>
<path d="M8.66272 6.01941V5.99774L11.0187 3.7124V5.34431L8.66272 7.64632V6.01941ZM8.76501 7.40461L10.9164 5.30264V3.95077L8.76501 6.04108V7.40461Z" fill="white"/>
<path d="M6.9071 3.1688V0H7.14857V0.0816787V0H7.25086V3.1688H6.9071Z" fill="white"/>
<path d="M8.71533 7.85296V9.35818L10.969 7.15619V5.66431L8.71533 7.85296Z" fill="#0B1F35"/>
<path d="M8.66272 7.85091V7.82924L11.0187 5.54224V7.17581L8.66272 9.47948V7.85091ZM8.76501 9.23611L10.9164 7.13414V5.78227L8.76501 7.87258V9.23611Z" fill="white"/>
<path d="M7.66858 3.76055V0H7.91172V0.0816786V0H8.01401V3.76055H7.66858Z" fill="white"/>
<path d="M7.14894 0.0812988H7.00977V3.08674H7.14894V0.0812988Z" fill="#0B1F35"/>
<path d="M7.91197 0.0812988H7.77112V3.67849H7.91197V0.0812988Z" fill="#0B1F35"/>
<path d="M8.43176 4.15228V0H8.67323V0.0816787V0H8.77552V4.15228H8.43176Z" fill="white"/>
<path d="M8.71533 9.68808V11.19L10.969 8.98965V7.49609L8.71533 9.68808Z" fill="#0B1F35"/>
<path d="M8.66272 9.68823V9.66322L11.0187 7.37622V9.00979L8.66272 11.3118V9.68823ZM8.76501 11.0718L10.9164 8.96812V7.61626L8.76501 9.70656V11.0718Z" fill="white"/>
<path d="M8.67373 0.0812988H8.53455V4.07022H8.67373V0.0812988Z" fill="#0B1F35"/>
<path d="M9.19434 3.8339V0H9.4358V0.0816787V0H9.53809V3.8339H9.19434Z" fill="white"/>
<path d="M8.49356 11.5178V13.023L6.23987 10.8227V9.33081L8.49356 11.5178Z" fill="#0B1F35"/>
<path d="M6.18762 10.8448V9.21118L8.53019 11.4832L8.4933 11.5182L8.53019 11.4832L8.54528 11.4982V13.1451L6.18762 10.8448ZM6.28991 10.8014L8.44132 12.9034V11.5415L6.28991 9.45122V10.8014Z" fill="white"/>
<path d="M9.95581 3.24714V0H10.2057V0.0816787V0H10.308V3.24714H9.95581Z" fill="white"/>
<path d="M9.43557 0.0812988H9.29639V3.75184H9.43557V0.0812988Z" fill="#0B1F35"/>
<path d="M10.6753 2.6954V0H10.9168V0.0816787V0H11.019V2.6954H10.6753Z" fill="white"/>
<path d="M10.2055 0.0812988H10.058V3.16508H10.2055V0.0812988Z" fill="#0B1F35"/>
<path d="M10.917 0.0812988H10.7778V2.61334H10.917V0.0812988Z" fill="#0B1F35"/>
<path d="M8.49356 6.01947V7.52469L6.23987 5.32436V3.83081L8.49356 6.01947Z" fill="#0B1F35"/>
<path d="M6.18762 5.34431V3.7124L8.53019 5.98274L8.4933 6.01774L8.53019 5.98274L8.54528 5.99774V7.64632L6.18762 5.34431ZM6.28991 5.3043L8.44132 7.40628V6.04275L6.28991 3.95244V5.3043Z" fill="white"/>
<path d="M8.49356 7.85296V9.35818L6.23987 7.15619V5.66431L8.49356 7.85296Z" fill="#0B1F35"/>
<path d="M6.18762 7.17947V5.5459L8.53019 7.8179L8.4933 7.85124L8.53019 7.81623L8.54528 7.83123V9.47981L6.18762 7.17947ZM6.28991 7.13613L8.44132 9.23811V7.87791L6.28991 5.78593V7.13613Z" fill="white"/>
<path d="M8.49356 9.68808V11.19L6.23987 8.98965V7.49609L8.49356 9.68808Z" fill="#0B1F35"/>
<path d="M6.18762 9.01126V7.37769L8.53019 9.64969L8.4933 9.68802L8.53019 9.65135L8.54528 9.66635V11.3149L6.18762 9.01126ZM6.28991 8.96792L8.44132 11.0716V9.70803L6.28991 7.61772V8.96792Z" fill="white"/>
<path d="M6.18762 2.67706V0H6.43747V0.0816787V0H6.53976V2.67706H6.18762Z" fill="white"/>
<path d="M6.43724 0.0812988H6.28967V2.59667H6.43724V0.0812988Z" fill="#0B1F35"/>
<path d="M8.71533 4.18552V5.69074L10.969 3.49042V1.99854L8.71533 4.18552Z" fill="#0B1F35"/>
<path d="M8.66272 4.18563V4.16396L11.0187 1.87695V3.51053L8.66272 5.81253V4.18563ZM8.76501 5.57083L10.9164 3.46885V2.11699L8.76501 4.20563V5.57083Z" fill="white"/>
<path d="M8.49356 4.18552V5.69074L6.23987 3.49042V1.99854L8.49356 4.18552Z" fill="#0B1F35"/>
<path d="M6.18762 3.51224V1.87866L8.52851 4.15066L8.49162 4.184L8.52851 4.15066L8.5436 4.16566V5.81424L6.18762 3.51224ZM6.28991 3.4689L8.44132 5.57087V4.209L6.28991 2.1187V3.4689Z" fill="white"/>
</g>
<defs>
<clipPath id="clip0">
<rect width="19.2" height="22.8" fill="white" transform="translate(2.40002)"/>
</clipPath>
</defs>
</svg>
