<svg xmlns="http://www.w3.org/2000/svg" width="30" height="30" viewBox="0 0 30 30" fill="none"><rect width="30" height="30" fill="none"/>
<g clip-path="url(#clip0)">
<path d="M27.3134 5H2.68664C2.58407 5 2.48132 5 2.37894 5.0006C2.29239 5.00121 2.20605 5.00217 2.1197 5.00453C1.93139 5.00962 1.74146 5.02073 1.5555 5.05414C1.36657 5.08813 1.19076 5.14358 1.01925 5.23087C0.850637 5.3166 0.69627 5.42872 0.562494 5.56251C0.42866 5.6963 0.316505 5.85037 0.230776 6.01911C0.143434 6.19057 0.0879361 6.36638 0.05417 6.5554C0.0205689 6.74136 0.00938418 6.9312 0.0043093 7.11925C0.00198935 7.20557 0.000994314 7.29189 0.00043064 7.3782C-0.000167471 7.48077 3.18993e-05 7.58327 3.18993e-05 7.68602V21.5142C3.18993e-05 21.6169 -0.000167471 21.7192 0.00043064 21.822C0.000994314 21.9083 0.00198935 21.9946 0.0043093 22.081C0.00938418 22.2689 0.0205689 22.4587 0.05417 22.6446C0.0879361 22.8337 0.143434 23.0094 0.230776 23.1809C0.316505 23.3496 0.42866 23.5039 0.562494 23.6375C0.69627 23.7715 0.850637 23.8836 1.01925 23.9691C1.19076 24.0567 1.36657 24.1121 1.5555 24.1461C1.74146 24.1793 1.93139 24.1906 2.1197 24.1957C2.20605 24.1976 2.29239 24.1988 2.37894 24.1992C2.48132 24.2 2.58407 24.2 2.68664 24.2H27.3134C27.4158 24.2 27.5185 24.2 27.6209 24.1992C27.7072 24.1988 27.7936 24.1976 27.8803 24.1957C28.0682 24.1906 28.2581 24.1793 28.4445 24.1461C28.6332 24.1121 28.8091 24.0567 28.9806 23.9691C29.1494 23.8836 29.3033 23.7715 29.4374 23.6375C29.571 23.5039 29.6831 23.3496 29.7691 23.1809C29.8566 23.0094 29.9121 22.8337 29.9457 22.6446C29.9793 22.4587 29.9902 22.2689 29.9953 22.081C29.9976 21.9946 29.9988 21.9083 29.9992 21.822C30 21.7192 30 21.6169 30 21.5142V7.68602C30 7.58327 30 7.48077 29.9992 7.3782C29.9988 7.29189 29.9976 7.20557 29.9953 7.11925C29.9902 6.9312 29.9793 6.74136 29.9457 6.5554C29.9121 6.36638 29.8566 6.19057 29.7691 6.01911C29.6831 5.85037 29.571 5.6963 29.4374 5.56251C29.3033 5.42872 29.1494 5.3166 28.9806 5.23087C28.8091 5.14358 28.6332 5.08813 28.4445 5.05414C28.2581 5.02073 28.0682 5.00962 27.8803 5.00453C27.7936 5.00217 27.7072 5.00121 27.6209 5.0006C27.5185 5 27.4158 5 27.3134 5Z" fill="black"/>
<path d="M27.3134 5.64014L27.6163 5.64072C27.6984 5.6413 27.7804 5.64218 27.863 5.64443C28.0065 5.64831 28.1744 5.65608 28.331 5.68413C28.467 5.70863 28.5811 5.74588 28.6906 5.80161C28.7988 5.85653 28.8978 5.9285 28.9843 6.01484C29.0711 6.10176 29.1432 6.20094 29.1989 6.31022C29.2543 6.41884 29.2913 6.53238 29.3157 6.6694C29.3437 6.82417 29.3514 6.9925 29.3553 7.13689C29.3576 7.21839 29.3586 7.29989 29.359 7.38333C29.3598 7.48423 29.3598 7.58508 29.3598 7.68619V21.5143C29.3598 21.6154 29.3598 21.7161 29.359 21.8192C29.3586 21.9007 29.3576 21.9822 29.3553 22.0638C29.3514 22.208 29.3437 22.3762 29.3153 22.5328C29.2913 22.668 29.2543 22.7815 29.1986 22.8907C29.1431 22.9997 29.0711 23.0988 28.9847 23.1851C28.8977 23.2721 28.799 23.3439 28.6896 23.3993C28.5809 23.4547 28.4669 23.492 28.3322 23.5162C28.1725 23.5446 27.9976 23.5525 27.8658 23.556C27.7829 23.5579 27.7004 23.559 27.6159 23.5594C27.5152 23.5602 27.4141 23.5602 27.3134 23.5602H2.6866C2.68526 23.5602 2.68395 23.5602 2.6826 23.5602C2.58302 23.5602 2.48324 23.5602 2.38185 23.5594C2.29919 23.559 2.2167 23.5579 2.13696 23.5561C2.00218 23.5525 1.82712 23.5447 1.66872 23.5164C1.53285 23.492 1.41893 23.4547 1.30881 23.3986C1.20044 23.3436 1.10179 23.2719 1.01477 23.1848C0.928426 23.0986 0.856671 22.9999 0.801192 22.8907C0.745658 22.7816 0.708503 22.6677 0.684073 22.531C0.655833 22.3747 0.648075 22.2071 0.644198 22.0639C0.641985 21.9819 0.641061 21.9 0.640535 21.8185L0.640137 21.5779L0.640155 21.5143V7.68619L0.640137 7.62266L0.640517 7.38257C0.641061 7.30058 0.641985 7.21861 0.644198 7.13669C0.648075 6.99335 0.655833 6.82571 0.684306 6.66811C0.708521 6.5326 0.745658 6.4187 0.801482 6.3091C0.856526 6.20076 0.928408 6.10187 1.01521 6.01511C1.10166 5.92865 1.20064 5.85677 1.3097 5.80132C1.41864 5.74586 1.53277 5.70863 1.66865 5.68418C1.82521 5.65606 1.99325 5.64831 2.13715 5.64441C2.21919 5.64218 2.30122 5.6413 2.38263 5.64073L2.6866 5.64014H27.3134Z" fill="white"/>
<path d="M8.1903 11.4578C8.44717 11.1366 8.62148 10.7053 8.5755 10.2646C8.19948 10.2833 7.74062 10.5126 7.47497 10.8341C7.23643 11.1094 7.02531 11.5587 7.08035 11.9809C7.50245 12.0175 7.92417 11.77 8.1903 11.4578Z" fill="black"/>
<path d="M8.5703 12.0632C7.95731 12.0267 7.43611 12.411 7.14338 12.411C6.85048 12.411 6.40221 12.0816 5.91736 12.0905C5.28631 12.0998 4.70076 12.4565 4.38052 13.0238C3.72186 14.1587 4.2067 15.8422 4.84722 16.7665C5.15827 17.2238 5.53314 17.7273 6.02709 17.7092C6.49379 17.6909 6.67671 17.4071 7.244 17.4071C7.81088 17.4071 7.97565 17.7092 8.46968 17.7001C8.982 17.6909 9.30229 17.2425 9.61334 16.7848C9.97017 16.2635 10.1162 15.7602 10.1254 15.7325C10.1162 15.7234 9.13754 15.348 9.12846 14.2226C9.11922 13.2802 9.89686 12.8319 9.93346 12.8041C9.49432 12.1548 8.80818 12.0816 8.5703 12.0632Z" fill="black"/>
<path d="M13.9078 10.7881C15.2402 10.7881 16.1679 11.7062 16.1679 13.0429C16.1679 14.3844 15.2211 15.3073 13.8744 15.3073H12.3993V17.6525H11.3335V10.7881H13.9078V10.7881ZM12.3993 14.4129H13.6222C14.5501 14.4129 15.0783 13.9135 15.0783 13.0477C15.0783 12.182 14.5501 11.6872 13.627 11.6872H12.3993V14.4129Z" fill="black"/>
<path d="M16.4463 16.2301C16.4463 15.3547 17.1172 14.8172 18.3069 14.7506L19.6773 14.6698V14.2845C19.6773 13.7279 19.3013 13.3949 18.6733 13.3949C18.0784 13.3949 17.7072 13.6803 17.6169 14.1275H16.6462C16.7033 13.2236 17.4741 12.5576 18.7113 12.5576C19.9247 12.5576 20.7003 13.1998 20.7003 14.2035V17.6524H19.7153V16.8294H19.6916C19.4014 17.386 18.7684 17.738 18.1118 17.738C17.1315 17.738 16.4463 17.1291 16.4463 16.2301ZM19.6773 15.7782V15.3833L18.4448 15.4594C17.8309 15.5023 17.4836 15.7734 17.4836 16.2015C17.4836 16.6391 17.8453 16.9246 18.3972 16.9246C19.1157 16.9246 19.6773 16.4298 19.6773 15.7782Z" fill="black"/>
<path d="M21.6304 19.4933V18.6608C21.7064 18.6798 21.8777 18.6798 21.9634 18.6798C22.4392 18.6798 22.6962 18.4801 22.8531 17.9663C22.8531 17.9568 22.9436 17.6619 22.9436 17.6571L21.1355 12.6479H22.2488L23.5147 16.72H23.5336L24.7995 12.6479H25.8844L24.0094 17.9139C23.5814 19.127 23.0865 19.5171 22.0491 19.5171C21.9634 19.5171 21.7064 19.5076 21.6304 19.4933Z" fill="black"/>
</g>
<defs>
<clipPath id="clip0">
<rect width="30" height="19.2" fill="white" transform="translate(0 5)"/>
</clipPath>
</defs>
</svg>
