<?xml version="1.0" encoding="UTF-8"?>
<svg width="24px" height="24px" viewBox="0 0 24 24" version="1.1" xmlns="http://www.w3.org/2000/svg" xmlns:xlink="http://www.w3.org/1999/xlink">
    <!-- Generator: Sketch 47.1 (45422) - http://www.bohemiancoding.com/sketch -->
    <title>icon_bank-uralskiy_m_color</title>
    <desc>Created with Sketch.</desc>
    <defs></defs>
    <g id="Page-1" stroke="none" stroke-width="1" fill="none" fill-rule="evenodd">
        <g id="icon_bank-uralskiy_m_color">
            <g>
                <rect id="_ph_" opacity="0" x="0" y="0" width="24" height="24"></rect>
                <path d="M4.069,16.018 C3.774,15.502 3.553,14.912 3.553,14.248 L3.553,7.023 C2.594,7.244 1.857,7.908 1.415,8.719 L1.415,13.29 C1.99833784,14.4504396 2.92503729,15.4029777 4.069,16.018" id="Shape" fill="#D4132F" fill-rule="nonzero"></path>
                <path d="M4.438,6.138 L6.576,6.138 C7.166,6.138 7.682,5.622 7.682,5.032 C7.682,4.442 7.166,4 6.576,4 L4.438,4 C3.63354659,3.99107132 2.85943607,4.30669707 2.29056657,4.87556657 C1.72169707,5.44443607 1.40607132,6.21854659 1.415,7.023 L1.415,7.982 C1.931,6.876 3.111,6.138 4.438,6.138" id="Shape" fill="#940449" fill-rule="nonzero"></path>
                <path d="M11,4 L11,14.249 C11,16.24 9.304,17.862 7.313,17.862 C4.954,17.862 2.594,16.535 1.414,14.323 C1.488,17.419 4.069,20 7.313,20 C10.557,20 13.212,17.419 13.212,14.249 L13.212,6.138 L11,4 Z" id="Shape" fill="#2865A7" fill-rule="nonzero"></path>
                <path d="M16.456,4 L11,4 L13.212,6.138 L16.751,6.138 C18.299,6.138 19.848,6.802 21.028,7.834 C20.585,5.622 18.742,4 16.456,4 Z" id="Shape" fill="#B10540" fill-rule="nonzero"></path>
                <path d="M20.806,10.267 C21.027,9.677 21.101,8.94 21.101,8.571 C20.437,7.981 19.479,7.391 18.447,7.096 C18.742,7.465 18.963,8.128 18.963,8.644 C18.963,9.16 18.816,9.603 18.521,10.119 C18.226,10.561 18.226,11.151 18.742,11.446 C19.701,11.962 20.364,12.921 20.438,13.953 C20.5162047,14.750656 20.3352611,15.5522785 19.922,16.239 C21.102,15.649 22.06,14.691 22.576,13.585 C22.429,12.406 21.912,11.3 20.806,10.267" id="Shape" fill="#D4132F" fill-rule="nonzero"></path>
                <path d="M17.267,17.788 L13.802,17.788 C13.212,17.788 12.696,18.304 12.696,18.894 C12.696,19.484 13.212,20 13.802,20 L17.267,20 C20.216,20 22.723,17.493 22.649,14.396 C21.912,16.313 19.922,17.788 17.267,17.788" id="Shape" fill="#940449" fill-rule="nonzero"></path>
            </g>
        </g>
    </g>
</svg>