<svg id="Слой_1" data-name="Слой 1" xmlns="http://www.w3.org/2000/svg" viewBox="0 0 36 36"><defs><style>.cls-1{fill:#fff;}</style></defs><title>icon_card-belkart_xl_white</title><g id="Page-1"><g id="icon_card-belkart_xl_white" data-name="icon card-belkart xl white"><path id="Shape" class="cls-1" d="M8.65,16.47H7.32a.28.28,0,0,0-.28.28v5.37a.28.28,0,0,0,.28.28H13l-.93.93a.28.28,0,0,0,0,.4l3.8,3.8a.28.28,0,0,0,.4,0l4-4v1.31a.28.28,0,0,0,.28.28H26a.28.28,0,0,0,.28-.28V19.08l1,1a.28.28,0,0,0,.4,0l3.8-3.8a.28.28,0,0,0,0-.4l-5.71-5.71,1.63,1.63h1.34a.28.28,0,0,0,.28-.28V6.11a.28.28,0,0,0-.28-.28H23l.93-.93a.28.28,0,0,0,0-.4L20.1.7a.28.28,0,0,0-.4,0L15.65,4.75h0V3.4a.28.28,0,0,0-.28-.28H10a.28.28,0,0,0-.28.28V9.15l-1-1a.28.28,0,0,0-.4,0L4.57,12a.28.28,0,0,0,0,.4Zm6.72-4.71a.28.28,0,0,0,.28-.28V8.91L14,6.81l3.8,3.8a.28.28,0,0,0,.4,0L20,8.74l.28-2.63v5.37a.28.28,0,0,0,.28.28h2.67l2-1.63-3.8,3.8a.28.28,0,0,0,0,.4l1.86,1.86,2.61.28H20.62a.28.28,0,0,0-.28.28v2.52L22,21.42l-3.8-3.8a.28.28,0,0,0-.4,0L16,19.43l-.34,2.69V16.75a.28.28,0,0,0-.28-.28H12.69l-2,1.63,3.8-3.8a.28.28,0,0,0,0-.4L12.58,12,10,11.76h5.37ZM8.49,32.15A.31.31,0,0,1,8.63,32a.59.59,0,0,1,.29-.06h1.81a.13.13,0,0,0,.11,0,.19.19,0,0,0,0-.12v-.61a.24.24,0,0,0,0-.14.13.13,0,0,0-.11,0h-2a1.54,1.54,0,0,0-.61.11,1.06,1.06,0,0,0-.41.3,1.21,1.21,0,0,0-.22.42,1.64,1.64,0,0,0-.07.49v2.37a1.87,1.87,0,0,0,.06.48,1.13,1.13,0,0,0,.21.42,1,1,0,0,0,.4.3,1.67,1.67,0,0,0,.65.11H10.8a.14.14,0,0,0,.11,0,.19.19,0,0,0,0-.12v-.61a.23.23,0,0,0,0-.14s-.06,0-.12,0H8.91a.72.72,0,0,1-.26,0,.28.28,0,0,1-.16-.13.55.55,0,0,1-.05-.26v-.81h2c.06,0,.09,0,.11,0a.22.22,0,0,0,0-.12V33.1a.24.24,0,0,0,0-.14.13.13,0,0,0-.11,0h-2v-.55A.59.59,0,0,1,8.49,32.15Zm19.56-1a2,2,0,0,0-.7-.12H25.6a.54.54,0,0,0-.26.05.29.29,0,0,0-.13.15.62.62,0,0,0,0,.23v4.41a.15.15,0,0,0,0,.12.18.18,0,0,0,.13,0h.86a.07.07,0,0,0,0,0,.27.27,0,0,0,0-.1V34.19h.95a2.56,2.56,0,0,0,.69-.09,1.63,1.63,0,0,0,.49-.23,1.4,1.4,0,0,0,.52-.67,1.79,1.79,0,0,0,.11-.64,1.68,1.68,0,0,0-.11-.63,1.4,1.4,0,0,0-.33-.49A1.52,1.52,0,0,0,28,31.12ZM27.83,33a.57.57,0,0,1-.23.24.82.82,0,0,1-.4.09h-.93V32h.93a.82.82,0,0,1,.35.07.56.56,0,0,1,.22.17.67.67,0,0,1,.11.22.83.83,0,0,1,0,.22A.77.77,0,0,1,27.83,33ZM29.11,31a.18.18,0,0,0,0,.12v.64a.15.15,0,0,0,0,.11.13.13,0,0,0,.1,0h1.26v3.92a.15.15,0,0,0,0,.12.18.18,0,0,0,.13,0h.76a.21.21,0,0,0,.14,0,.15.15,0,0,0,0-.12V31.93h1.29a.15.15,0,0,0,.11,0,.14.14,0,0,0,0-.11v-.64A.17.17,0,0,0,33,31a.15.15,0,0,0-.11,0H29.22A.14.14,0,0,0,29.11,31ZM18.25,33.81a.58.58,0,0,1,.28.18,1,1,0,0,1,.19.38l.44,1.53a.13.13,0,0,0,.06.08h.91a.12.12,0,0,0,.08,0,.09.09,0,0,0,0-.06.16.16,0,0,0,0-.06l-.44-1.65a2.89,2.89,0,0,0-.09-.29,1,1,0,0,0-.13-.24.81.81,0,0,0-.2-.19,1.31,1.31,0,0,0-.31-.15v0a1.23,1.23,0,0,0,.38-.36,1.51,1.51,0,0,0,.22-.53L20,31.14a.15.15,0,0,0,0-.06A.08.08,0,0,0,20,31a.13.13,0,0,0-.09,0H19a.11.11,0,0,0-.06.09l-.32,1.2a1,1,0,0,1-.15.35.64.64,0,0,1-.21.19.75.75,0,0,1-.23.08l-.23,0h-.57V31.13c0-.05,0-.08,0-.1a.17.17,0,0,0-.1,0H16.3a.16.16,0,0,0-.1,0s0,0,0,.1v4.76c0,.05,0,.08,0,.1l.1,0h.83a.16.16,0,0,0,.1,0s0,0,0-.1V33.77h.59A1.38,1.38,0,0,1,18.25,33.81ZM14.46,36a.18.18,0,0,0,.11,0h.89a.06.06,0,0,0,0,0,.26.26,0,0,0,0-.08V31.48a.68.68,0,0,0,0-.27.31.31,0,0,0-.14-.16.6.6,0,0,0-.27-.05H12.5a.6.6,0,0,0-.27,0,.29.29,0,0,0-.14.16.85.85,0,0,0-.05.27L12,32.56c0,.37,0,.69-.07,1,0,.45-.09,1.53-.67,1.53-.06,0-.1,0-.12,0a.24.24,0,0,0,0,.14v.61a.21.21,0,0,0,0,.13.14.14,0,0,0,.11,0,1.21,1.21,0,0,0,1.19-.55,2.21,2.21,0,0,0,.26-.54,4.12,4.12,0,0,0,.16-.67q.06-.37.09-.82c0-.3,0-.62.07-1l0-.5h1.39v3.92A.13.13,0,0,0,14.46,36Zm8.8-4.83a.32.32,0,0,0-.17-.11,1,1,0,0,0-.26,0H22.4a.74.74,0,0,0-.24,0,.35.35,0,0,0-.17.12.73.73,0,0,0-.11.24L20.4,35.86a.14.14,0,0,0,0,.1s0,0,.1,0h.83a.22.22,0,0,0,.14,0,.19.19,0,0,0,.06-.1l.28-.91h1.63l.28.93a.13.13,0,0,0,.07.1l.13,0h.85a.1.1,0,0,0,.08,0,.08.08,0,0,0,0-.06.15.15,0,0,0,0-.06l-1.48-4.47A.78.78,0,0,0,23.26,31.13Zm-1.19,2.94.27-.9.27-1h0l.26,1,.27.9ZM3.3,36a.65.65,0,0,0,.27,0h1.8A1.94,1.94,0,0,0,6,35.88a1.67,1.67,0,0,0,.54-.33,1.49,1.49,0,0,0,.5-1.12,2.44,2.44,0,0,0,0-.29A1.76,1.76,0,0,0,7,33.8a1.27,1.27,0,0,0-.5-.67A1.61,1.61,0,0,0,6,32.9a2.8,2.8,0,0,0-.72-.09h-1v-.89H6.38a.14.14,0,0,0,.11,0,.17.17,0,0,0,0-.11v-.63a.21.21,0,0,0,0-.12.12.12,0,0,0-.11,0H3.6a.6.6,0,0,0-.27.05.29.29,0,0,0-.14.16.7.7,0,0,0,0,.28v4.09a.69.69,0,0,0,0,.25A.24.24,0,0,0,3.3,36Zm.92-2.23h1a.78.78,0,0,1,.38.09.56.56,0,0,1,.23.23.77.77,0,0,1,0,.55.66.66,0,0,1-.11.22.57.57,0,0,1-.21.17.77.77,0,0,1-.34.07h-1Z"/></g></g></svg>