<svg width="48" height="48" viewBox="0 0 48 48" fill="none" xmlns="http://www.w3.org/2000/svg">
<rect width="48" height="48"/>
<path d="M11.7031 4.04297C11.293 4.14844 11 4.50781 11 5.12109C11 6.92187 11 23.9141 11 23.9141C11 23.9141 11 42.2812 11 43.0898C11 43.5352 11.1953 43.8359 11.5 43.9453L31.6797 23.8828L11.7031 4.04297Z" fill="#00C3FF"/>
<path d="M37.2383 18.3594L28.9297 13.5625C28.9297 13.5625 13.6836 4.76172 12.7891 4.24219C12.4023 4.01953 12.0195 3.96094 11.7031 4.04297L31.6836 23.8828L37.2383 18.3594Z" fill="#12DC76"/>
<path d="M12.418 43.8008C12.9492 43.4922 27.6992 34.9766 37.2812 29.4453L31.6797 23.8828L11.5 43.9453C11.7461 44.0391 12.0664 44.0039 12.418 43.8008Z" fill="#FF3A44"/>
<path d="M45.3984 23.0703C44.6016 22.6406 37.2969 18.3945 37.2969 18.3945L37.2383 18.3594L31.6797 23.8828L37.2812 29.4453C41.7148 26.8867 45.043 24.9648 45.3398 24.793C46.2852 24.2461 46.1953 23.5 45.3984 23.0703Z" fill="#FBB817"/>
</svg>
