<svg width="24" height="25" viewBox="0 0 24 25" xmlns="http://www.w3.org/2000/svg"><g fill="#FFF" fill-rule="nonzero"><path d="M12.501 17.078a6.467 6.467 0 0 0 4.079 1.433c3.537 0 6.405-2.8 6.405-6.255s-2.868-6.254-6.405-6.254c-1.549 0-2.97.537-4.079 1.433 1.422 1.148 2.326 2.88 2.326 4.822 0 1.94-.906 3.674-2.326 4.821zm-.994-9.643a6.467 6.467 0 0 0-4.079-1.433c-3.537 0-6.404 2.8-6.404 6.255s2.867 6.254 6.404 6.254c1.549 0 2.97-.537 4.079-1.433-1.422-1.148-2.326-2.88-2.326-4.822 0-1.94.906-3.674 2.326-4.821z"/><path d="M12 7.582c1.44 1.108 2.36 2.797 2.36 4.688 0 1.89-.92 3.58-2.36 4.687-1.44-1.108-2.36-2.796-2.36-4.687 0-1.891.92-3.58 2.36-4.688z"/></g></svg>