<svg width="24" height="25" viewBox="0 0 24 25" xmlns="http://www.w3.org/2000/svg"><g fill="#FFF" fill-rule="evenodd"><path d="M12.125 17.982h-.234c1.13.633 2.4.968 3.695.975a7.244 7.244 0 0 0 7.39-7.098 7.244 7.244 0 0 0-7.39-7.069 7.654 7.654 0 0 0-3.695.975h.234a7.654 7.654 0 0 0-3.696-.975 7.244 7.244 0 0 0-7.39 7.07 7.244 7.244 0 0 0 7.39 7.068 7.654 7.654 0 0 0 3.696-.946zm-.8-11.466v-.42A7.127 7.127 0 0 0 8.79 9.11l-.097.234.234.097.546.224.214.088.098-.214a6.084 6.084 0 0 1 2.369-2.711H11.9a6.084 6.084 0 0 1 2.35 2.691l.098.215.214-.088.546-.224.234-.098-.097-.234a7.137 7.137 0 0 0-2.526-3.003v.42a6.552 6.552 0 0 1 2.926-.674 6.172 6.172 0 0 1 6.25 6.026 6.172 6.172 0 0 1-6.309 6.016 6.552 6.552 0 0 1-2.925-.673v.42a7.127 7.127 0 0 0 2.535-3.013l.098-.234-.234-.098-.546-.224-.215-.088-.097.215a6.084 6.084 0 0 1-2.37 2.71h.254a6.084 6.084 0 0 1-2.32-2.69l-.098-.215-.215.087-.546.225-.234.097.098.234a7.127 7.127 0 0 0 2.525 3.003v-.419a6.552 6.552 0 0 1-2.925.673 6.172 6.172 0 0 1-6.25-6.026 6.172 6.172 0 0 1 6.308-6.016c1.004 0 1.995.23 2.896.673z" fill-rule="nonzero"/><path d="M13.48 11.53l.01-.029.018-.028.022-.025.028-.024.034-.022.036-.019.042-.016.046-.014.051-.012.054-.005.074-.006.07-.004.06-.002h.056l.05.002.046.004.041.003.04.005.037.005.035.004.034.006.034.006.032.003.034.005.038.004.037.002.134-.569-.021-.002-.022-.004-.025-.003-.025-.005-.03-.003-.036-.005-.037-.005-.043-.006-.046-.002-.054-.006-.06-.003-.065-.005-.074-.003h-.08l-.09-.004h-.178l-.076.004-.075.003-.07.006-.067.007-.063.01-.062.01-.06.011-.055.014-.053.015-.05.018-.047.017-.044.021-.043.021-.038.024-.038.023-.035.027-.032.028-.03.03-.028.032-.025.033-.025.033-.02.037-.02.037-.018.04-.016.041-.013.043-.012.045-.01.046-.008.047-.007.05-.006.05-.006.082.002.078.01.07.015.065.022.058.026.054.031.05.036.046.039.04.043.039.044.033.05.03.05.028.05.027.053.023.052.021.054.02.053.02.05.018.05.019.048.017.046.02.043.019.039.02.036.02.031.024.026.023.021.028.015.028.01.034v.035l-.005.04-.01.04-.018.038-.02.038-.028.038-.037.031-.047.028-.06.02-.075.012-.08.003h-.079l-.078-.001-.076-.004-.076-.007-.073-.007-.07-.009-.067-.01-.063-.009-.06-.011-.056-.012-.05-.008-.043-.01-.04-.01-.031-.008-.026-.006-.115.552.046.016.045.016.044.012.046.012.047.011.05.01.05.009.057.007.059.007.068.006.07.003.08.004.088.002h.094l.105.002h.115l.083-.002.086-.005.09-.009.091-.013.091-.02.091-.026.09-.032.085-.038.081-.047.077-.055.07-.064.062-.073.054-.084.043-.095.034-.105.02-.119.009-.158-.01-.133-.027-.113-.042-.093-.056-.08-.068-.065-.076-.05-.08-.042-.085-.035-.09-.03-.088-.026-.083-.027-.08-.027-.074-.031-.063-.036-.055-.047-.026-.033-.02-.032-.014-.035-.007-.033v-.031l.006-.03zm1.94 1.234l.247-1.4.471.009.105-.562h-.46l.115-.614h-.747l-.497 2.749-.009.063-.006.058-.002.056.002.05.007.05.014.043.02.04.028.039.035.032.043.03.053.026.06.021.074.02.082.014.096.01.106.007h.2l.045-.004.043-.006.037-.006.035-.005.034-.004.032-.006.028-.006.025-.006.027-.008.022-.007.022-.006.021-.008.02-.01.021-.007.02-.01.019-.009.077-.48-.006.002-.015.007-.025.008-.031.01-.041.008-.048.008-.052.003h-.091l-.032-.002-.03-.001-.03-.006-.026-.005-.026-.006-.022-.009-.022-.01-.019-.01-.017-.015-.013-.017-.01-.018-.009-.02-.003-.024v-.026l.003-.03zm-5.559-1.242v-.095l-.018-.089-.03-.083-.042-.076-.05-.068-.063-.062-.068-.056-.075-.05-.078-.041-.084-.037-.083-.03-.084-.024-.084-.019-.08-.011-.076-.006-.093-.002h-.42l-.077.004-.075.004-.072.007-.071.008-.066.012-.066.011-.063.015-.06.02-.059.023-.056.024-.19.598.027-.016.04-.014.049-.014.056-.013.065-.015.069-.012.076-.012.08-.011.084-.009.085-.009.085-.007.087-.005.085-.005.084-.003h.08l.076.001.031.004.032.005.031.007.03.009.029.012.028.014.024.015.025.017.022.021.018.021.019.024.015.023.012.027.01.028.005.03.003.031v.045l-.009.049-.013.042-.006.017h-.02l-.015-.001H8.96l-.02-.002h-.024l-.026-.003h-.121l-.034-.003h-.125l-.035.002h-.04l-.04.006-.045.004-.046.002-.045.006-.045.003-.044.004-.041.006-.037.002-.032.003-.028.004-.02.002-.014.003h-.003l-.091.015-.09.02-.087.03-.086.035-.081.04-.078.047-.074.052-.069.057-.06.065-.058.07-.048.072-.043.078-.035.085-.025.09-.016.093-.008.098.002.054.004.056.007.058.011.057.016.059.021.056.026.053.032.053.037.053.044.047.05.047.06.04.066.038.076.032.084.03.094.02.073.012.074.005.076-.002.078-.006.078-.01.078-.015.079-.02.075-.023.073-.027.07-.028.067-.032.062-.033.057-.035.05-.037.045-.039.035-.038-.007.011-.007.021-.006.032-.007.037-.007.045-.007.046-.007.054-.007.052h.671l.109-.56.277-1.317.014-.105zm-.94.795l-.009.038-.007.038-.007.042-.01.044-.008.042-.01.041-.01.039-.008.026-.012.028-.015.028-.019.03-.022.03-.026.028-.03.03-.035.027-.038.026-.046.024-.05.021-.056.018-.06.016-.07.012-.073.007-.082.002-.044-.002-.046-.009-.044-.017-.04-.027-.034-.038-.022-.053-.013-.066.003-.087.01-.041.015-.041.018-.038.026-.032.028-.032.032-.029.033-.027.035-.023.035-.02.035-.02.035-.016.032-.012.03-.011.028-.01.022-.007.017-.002.03-.01.035-.009.04-.005.04-.007.043-.007.044-.005.043-.007.043-.004h.08l.034.003.032.003.024.006.019.008.011.012.003.014-.01.031zm-2.83-2.12l-.862 1.97-.125-1.97H3.84l-.612 3.308h.728l.46-2.477h.028l.008.121.017.29.024.398.028.451.028.448.024.39.017.277.007.102h.815l1.083-2.477h.028l-.46 2.477h.728l.614-3.308H6.09zm11.781 1.284l.012.002.015.002h.015l.013.001.01.002.009.002h.003l.001-.01.008-.03.01-.047.015-.057.019-.064.02-.07.024-.071.028-.068.02-.047.024-.05.025-.046.025-.044.022-.038.02-.029.012-.02.005-.007h-.005l-.01-.003-.012-.001-.019-.004-.018-.003-.023-.003-.02-.003h-.018l-.083.006-.073.008-.07.015-.063.015-.06.021-.053.023-.053.027-.046.03-.047.036-.042.035-.04.038-.04.043-.039.044-.037.047-.04.05-.038.052.087-.454-.758-.007-.498 2.701h.757l.259-1.429.01-.056.014-.054.014-.054.019-.052.021-.05.026-.046.031-.047.036-.044.042-.039.05-.035.056-.031.064-.028.074-.024.084-.017.093-.01.104-.008h.01zm1.433-.704l-.08.004-.078.008-.076.01-.075.013-.072.016-.071.02-.07.02-.064.023-.066.027-.063.032-.061.032-.058.035-.055.039-.054.04-.053.045-.047.047-.047.046-.044.054-.041.053-.04.059-.037.058-.034.06-.03.065-.027.067-.025.07-.022.07-.018.074-.017.076-.012.079-.01.082-.006.083-.002.082.002.082.006.077.01.075.012.072.017.07.02.07.023.064.025.061.028.06.034.058.034.054.04.053.04.05.044.046.044.045.049.042.052.039.053.037.056.033.057.031.06.028.061.027.066.023.065.021.066.018.071.014.071.012.073.011.072.006.076.004.076.002.075-.002.076-.004.075-.006.074-.01.072-.01.07-.016.072-.017.066-.021.067-.024.063-.025.063-.03.061-.031.058-.033.057-.037.053-.04.053-.043.05-.046.049-.047.047-.051.043-.054.04-.056.038-.06.034-.062.033-.066.028-.068.026-.07.025-.075.018-.077.016-.082.013-.081.012-.086.006-.089.002-.075-.002-.073-.004-.071-.007-.069-.011-.068-.016-.067-.016-.066-.02-.061-.024-.063-.028-.059-.028-.058-.034-.055-.035-.052-.037-.05-.041-.05-.044-.046-.047-.044-.049-.039-.052-.038-.055-.037-.056-.033-.062-.03-.062-.028-.065-.027-.069-.024-.069-.02-.072-.016-.074-.014-.079-.011-.08-.006-.082-.006-.084-.002-.079.003zm.209.596l.056.01.052.013.048.024.043.028.04.035.034.04.03.044.024.05.021.054.016.059.009.063.006.066v.07l-.006.072-.01.076-.016.098-.018.089-.025.081-.031.076-.03.069-.036.063-.037.056-.04.049-.044.044-.047.037-.05.032-.051.024-.056.02-.057.012-.062.007-.063.002-.057-.003-.054-.006-.052-.015-.047-.02-.043-.023-.038-.033-.035-.037-.032-.045-.025-.05-.021-.056-.018-.062-.012-.07-.005-.078v-.081l.005-.092.012-.098.012-.059.013-.06.018-.059.022-.059.025-.06.03-.055.034-.056.04-.054.04-.049.047-.044.053-.039.056-.035.061-.027.066-.02.07-.012.076-.006h.059zm-7.109.237l-.01-.077-.014-.074-.018-.07-.022-.065-.026-.058-.03-.057-.031-.05-.035-.05-.04-.044-.04-.04-.045-.038-.044-.035-.05-.03-.047-.028-.05-.024-.053-.022-.053-.02-.055-.015-.054-.014-.053-.011-.056-.012-.054-.007-.055-.005-.053-.003-.053-.004h-.051l-.112.004-.104.007-.101.012-.095.018-.088.021-.084.027-.08.03-.075.03-.07.038-.066.038-.061.044-.056.044-.054.046-.049.05-.044.05-.042.05-.038.053-.035.054-.032.055-.03.053-.026.056-.023.054-.021.052-.02.055-.014.053-.015.05-.013.05-.01.047-.009.046-.007.042-.006.042-.006.038-.009.104-.003.103v.093l.007.094.011.087.017.08.02.077.026.075.03.069.034.064.038.06.04.058.044.053.049.05.05.046.052.042.056.038.056.035.06.032.061.03.063.027.063.023.066.019.065.02.066.015.067.014.066.012.069.008.066.007.066.002.066.004h.155l.082-.003h.075l.066-.004.062-.003.057-.006.052-.005.05-.005.046-.01.043-.008.04-.011.042-.014.04-.015.04-.016.043-.02.043-.02.115-.622-.08.043-.075.039-.078.033-.075.025-.075.023-.073.018-.075.012-.072.011-.071.005-.072.003h-.14l-.07-.004-.068-.006-.068-.01-.066-.008-.056-.011-.056-.019-.051-.023-.052-.028-.046-.034-.042-.035-.041-.04-.035-.043-.031-.044-.027-.044-.022-.047-.016-.048-.011-.046-.004-.047.003-.044.007-.035h1.723l.03-.157.022-.108.017-.105.009-.097.006-.093v-.089l-.004-.081v-.001zm-.733.175l-.006.066h-.968l.01-.047.013-.053.015-.053.018-.05.022-.045.026-.043.03-.041.03-.038.033-.035.035-.029.039-.028.04-.023.044-.02.044-.013.05-.009.047-.006h.052l.048.003.047.004.044.012.043.014.04.017.037.021.035.027.032.032.028.035.024.04.019.042.014.047.011.052.004.059v.062z"/></g></svg>