<?xml version="1.0" encoding="UTF-8"?>
<svg width="24px" height="24px" viewBox="0 0 24 24" version="1.1" xmlns="http://www.w3.org/2000/svg" xmlns:xlink="http://www.w3.org/1999/xlink">
    <!-- Generator: Sketch 47.1 (45422) - http://www.bohemiancoding.com/sketch -->
    <title>icon_bank-saint-petersburg_m_color</title>
    <desc>Created with Sketch.</desc>
    <defs></defs>
    <g id="Page-1" stroke="none" stroke-width="1" fill="none" fill-rule="evenodd">
        <g id="icon_bank-saint-petersburg_m_color">
            <g>
                <rect id="_ph_" opacity="0" x="0" y="0" width="24" height="24"></rect>
                <circle id="Oval" fill="#DE3934" fill-rule="nonzero" cx="12" cy="7" r="6"></circle>
                <path d="M11.994,15.143 C8.68,15.156 5.996,16.174 6,17.418 C6.003,18.659 8.694,19.655 12.007,19.642 C15.32,19.63 18.003,18.612 18,17.369 C17.996,16.127 15.306,15.131 11.994,15.143 Z" id="Shape" fill="#DE3934" fill-rule="nonzero"></path>
                <path d="M18,22.171 C18.004,22.585 15.32,22.925 12.007,22.929 C8.694,22.933 6.003,22.601 6,22.187 C5.996,21.772 8.68,21.433 11.994,21.429 C15.306,21.425 17.996,21.757 18,22.171 Z" id="Shape" fill="#DE3934" fill-rule="nonzero"></path>
            </g>
        </g>
    </g>
</svg>