<svg id="Слой_1" data-name="Слой 1" xmlns="http://www.w3.org/2000/svg" viewBox="0 0 24 24"><defs><style>.cls-1{fill:none;}.cls-2{fill:#fff;opacity:0.4;isolation:isolate;}</style></defs><title>icon_card-visa_m_white</title><g id="Page-1"><g id="icon_card-visa_m_white" data-name="icon card-visa m white"><polygon id="Shape" class="cls-1" points="0 0 24 0 24 24 0 24 0 0"/><path id="Shape-2" data-name="Shape" class="cls-2" d="M8.09,15.38,9.27,8.62h1.88L10,15.38ZM21.5,8.62,23,15.38H21.28l-.22-1H18.67l-.39,1h-2l2.8-6.26a.86.86,0,0,1,.87-.5ZM19.21,13l1-2.53L20.75,13Zm-7.81.61c.77.58,3.1.74,3.1-.17s-2.6-.94-2.6-2.69S14.12,8.5,15,8.5a5.72,5.72,0,0,1,1.69.3l-.27,1.45c-.8-.41-2.63-.51-2.63.25s2.62.93,2.62,2.69-1.93,2.31-3.21,2.31a5.55,5.55,0,0,1-2.12-.38ZM3.88,9.23l.63,3,.21,1L6.51,8.62h2l-3,6.76h-2L2,9.51l-.11-.07-.17-.09L1.4,9.22l-.15-.07L.93,9,.84,9l-.29-.1-.11,0-.16,0-.08,0-.11,0H0l0-.11H3C3.81,8.62,3.88,9.23,3.88,9.23Z"/></g></g></svg>