<svg xmlns="http://www.w3.org/2000/svg" width="24" height="24" viewBox="0 0 24 24" fill="none"><rect width="24" height="24" fill="none"/>
<g clip-path="url(#clip0)">
<path d="M12.0005 22.6583C17.2055 22.6583 21.4563 18.3643 21.4563 13.1086C21.4563 7.84613 17.2071 3.55884 12.0005 3.55884C6.79722 3.55884 2.54639 7.84613 2.54639 13.1086C2.54639 18.3643 6.79554 22.6583 12.0005 22.6583Z" fill="#008A52"/>
<path d="M12.0004 3.4104C6.71159 3.4104 2.40039 7.76437 2.40039 13.1052C2.40039 18.4393 6.71159 22.7982 12.0004 22.7999C17.2875 22.7982 21.6004 18.4393 21.6004 13.1052C21.5987 7.76604 17.2875 3.4104 12.0004 3.4104ZM10.2414 19.5561V22.3448C9.91103 22.2798 9.58572 22.1982 9.26879 22.0998V13.6719H10.6606C11.0211 13.6719 11.2726 13.7453 11.4185 13.8836C11.5661 14.022 11.6315 14.2703 11.6315 14.6304V18.5976C11.6315 18.956 11.5644 19.2044 11.4185 19.3427C11.1989 19.5628 10.7931 19.5628 10.4543 19.5628C10.3805 19.5561 10.3068 19.5561 10.2414 19.5561ZM12.0004 22.5149C11.546 22.5149 11.0982 22.4799 10.6606 22.4165V19.9645C11.3028 19.9645 11.722 19.7461 11.9199 19.3077V21.7564C11.9199 22.0581 11.9669 22.3098 12.0608 22.5115C12.0406 22.5132 12.0205 22.5149 12.0004 22.5149ZM14.6515 16.7374H13.6957V14.562H13.2815V21.8948H13.694V17.1424H14.6498V21.7548C14.6498 21.8964 14.6381 22.0198 14.618 22.1315C13.9455 22.3315 13.2413 22.4565 12.5152 22.4982C12.3475 22.3032 12.3257 22.0031 12.3257 21.7564V14.7037C12.3257 14.337 12.3995 14.0803 12.5387 13.9336C12.6778 13.7869 12.9294 13.7152 13.2832 13.7152C13.6437 13.7152 14.1736 13.6636 14.4436 13.9336C14.5827 14.0803 14.6498 14.337 14.6498 14.7037V16.7374H14.6515ZM17.7134 20.5246C17.3915 20.7796 17.0494 21.0163 16.6922 21.228V17.1924H16.2562V21.4681C15.9276 21.6431 15.5855 21.7931 15.235 21.9265V17.3074C15.235 16.8824 15.3373 16.564 15.77 16.4173L15.2921 13.8019H16.2546L16.4189 16.6573H16.5363L16.6989 13.8019H17.7134L17.1701 16.4173C17.6279 16.579 17.7151 16.8557 17.7151 17.3074V20.5246H17.7134ZM15.064 16.4056V14.7821L15.3507 16.239C15.23 16.2823 15.1378 16.339 15.064 16.4056ZM18.0522 16.6707C17.975 16.4823 17.8375 16.329 17.5944 16.239L18.0522 13.8919V16.6707ZM21.2197 14.412C21.2147 14.4537 21.208 14.4987 21.2013 14.542H19.6351V14.9204H19.8716C20.3226 14.9088 20.8257 14.9004 21.0688 15.2288C20.8659 16.1123 20.5406 16.9491 20.1063 17.7192V15.6839H19.6368V18.4743C19.3199 18.931 18.966 19.3594 18.577 19.7561C18.5586 19.7728 18.5418 19.7911 18.525 19.8045V13.7819H21.2181L21.2197 14.412ZM14.7907 13.3985L14.8863 13.8703C14.675 13.4885 14.2776 13.2969 13.694 13.2969H13.2815C12.5806 13.2969 12.153 13.5752 11.992 14.1286C11.8411 13.5469 11.3984 13.2585 10.6589 13.2585H8.8479V21.9548C7.55169 21.4797 6.38292 20.7196 5.42376 19.7528C3.73684 18.0476 2.69049 15.6939 2.69049 13.1068C2.69049 10.5148 3.73684 8.16277 5.42376 6.45918C7.11068 4.75726 9.43815 3.70044 11.9987 3.70044C14.5609 3.70044 16.8867 4.75726 18.5737 6.45918C20.2623 8.16443 21.3086 10.5181 21.3086 13.1068C21.3086 13.2052 21.3069 13.3019 21.3019 13.4002H14.7907V13.3985ZM10.2414 18.736H10.6606V14.4904H10.2414V18.736Z" fill="white"/>
<path d="M3.9818 7.99805L3.99689 8.30643L4.04049 8.5998L4.11259 8.87651L4.19644 9.14822L4.30543 9.40492L4.4312 9.65162L4.56367 9.89332L4.71794 10.1217L4.88059 10.3401L5.06505 10.5601L5.44737 10.9835L5.85317 11.3802L6.27238 11.7836L6.68489 12.177L7.0974 12.5804L7.47134 12.9971L7.65579 13.2171L7.82515 13.4372L7.9811 13.6639L8.11357 13.9039L8.24604 14.1539L8.34833 14.4173L8.42882 14.6824L8.5026 14.9657L8.53949 15.2524L8.56129 15.5592L8.54788 18.1279L8.53279 17.8211L8.48751 17.5294L8.41373 17.2511L8.33492 16.9794L8.22927 16.7243L8.09848 16.466L7.96601 16.2326L7.81174 15.9992L7.64908 15.7792L7.46463 15.5592L7.08231 15.1408L6.67651 14.7324L6.264 14.3456L5.84479 13.9489L5.43228 13.5389L5.05666 13.1155L4.87389 12.9088L4.70452 12.6754L4.55696 12.4487L4.42449 12.207L4.29872 11.957L4.17967 11.7019L4.10086 11.4319L4.03378 11.1535L3.99018 10.8618L3.96838 10.5518L3.9818 7.99805Z" fill="white"/>
<path d="M3.55419 11.2468L3.57767 11.5752L3.61959 11.8803L3.70176 12.1803L3.79063 12.4637L3.91639 12.7404L4.04887 13.0021L4.19643 13.2571L4.36411 13.5005L4.54186 13.7339L4.73973 13.9672L5.15894 14.4073L5.60163 14.834L6.06445 15.2608L6.51552 15.6791L6.95653 16.1042L7.37575 16.5443L7.57529 16.7793L7.75136 17.0127L7.9224 17.256L8.06829 17.5111L8.21585 17.7728L8.32652 18.0495L8.41372 18.3345L8.49589 18.6329L8.53949 18.938L8.56129 19.2663L8.54787 21.9851L8.52439 21.6584L8.4808 21.355L8.40701 21.0533L8.31143 20.7699L8.20076 20.4932L8.05487 20.2298L7.91402 19.9748L7.74298 19.7331L7.5602 19.4997L7.36233 19.2663L6.94983 18.8246L6.50043 18.3929L6.05103 17.9728L5.59493 17.5544L5.14553 17.121L4.73302 16.6726L4.52677 16.4526L4.3507 16.2126L4.17966 15.9642L4.03377 15.7142L3.89963 15.4458L3.77554 15.1757L3.68834 14.884L3.61456 14.5923L3.56928 14.2873L3.54749 13.9522L3.55419 11.2468Z" fill="white"/>
<path d="M21.1909 9.76123H15.1408C15.0805 9.61121 14.9866 9.51453 14.8826 9.51453C14.777 9.51453 14.6831 9.61454 14.6227 9.76123H14.4047C14.346 9.61121 14.2521 9.51453 14.1448 9.51453C14.0392 9.51453 13.9452 9.61454 13.8849 9.76123H13.7138C13.843 9.58621 13.9201 9.37618 13.9201 9.14781C13.9201 8.54105 13.4841 8.04932 12.8218 8.04932C12.1594 8.04932 11.6228 8.54105 11.6228 9.14781C11.6228 9.42452 11.8324 9.67789 11.9028 9.86791C11.7922 9.89292 11.71 9.9896 11.71 10.1079C11.71 10.2346 11.8039 10.3346 11.9246 10.3513C11.8576 10.5864 11.6245 10.758 11.6245 11.1298C11.6245 11.7365 12.1611 12.2283 12.8234 12.2283C13.4875 12.2283 13.9218 11.7365 13.9218 11.1298C13.9218 10.9014 13.8446 10.6914 13.7155 10.518H13.8849C13.9452 10.668 14.0408 10.7614 14.1448 10.7614C14.2504 10.7614 14.346 10.6647 14.4047 10.518H14.621C14.6814 10.668 14.7753 10.7614 14.8809 10.7614C14.9849 10.7614 15.0805 10.6647 15.1392 10.518H19.5812V10.763H19.3732V11.2581H19.5812L19.7774 11.5298L19.3732 11.4698V12.1332H19.7774V11.8332H20.3743V12.1349H20.7784V11.4698L20.3743 11.5298L20.5705 11.2581H20.7784V10.763H20.5705V10.518H21.1859C21.3419 10.518 21.471 10.388 21.471 10.228V10.0529C21.476 9.89292 21.3469 9.76123 21.1909 9.76123ZM13.0213 9.68455C13.2108 9.69122 13.3617 9.88458 13.3617 10.1296C13.3617 10.373 13.2108 10.568 13.0213 10.5747L12.919 10.8147C13.1823 10.8147 13.4841 10.8497 13.4841 11.1548C13.4841 11.5265 13.241 11.8249 12.8201 11.8249C12.3992 11.8249 12.0588 11.5248 12.0588 11.1548C12.0588 10.8647 12.1644 10.8231 12.4579 10.728L12.3724 10.5563L12.5585 10.3863C12.4545 10.3413 12.3807 10.2396 12.3807 10.118C12.3807 9.99627 12.4545 9.89292 12.5602 9.84791L12.3975 9.72623L12.4579 9.54953C12.1661 9.45452 12.0588 9.41452 12.0588 9.12281C12.0588 8.75109 12.4009 8.45271 12.8218 8.45271C13.2426 8.45271 13.4841 8.75275 13.4841 9.12281C13.4841 9.43118 13.2259 9.46286 12.919 9.46286L13.0213 9.68455Z" fill="#FFCA38"/>
<path d="M11.5734 11.1264C11.575 10.763 11.783 10.5746 11.8601 10.3846C11.7444 10.3463 11.6589 10.2379 11.6589 10.1062C11.6589 9.98623 11.7327 9.87954 11.835 9.8362C11.7578 9.66285 11.5767 9.42281 11.5734 9.14777C11.5734 8.50934 12.1368 7.99927 12.8243 7.99927C13.5135 7.99927 13.9746 8.51934 13.9763 9.14777C13.9763 9.3528 13.9176 9.54449 13.8136 9.71119H13.8522C13.9159 9.5695 14.0149 9.46782 14.1457 9.46448C14.2765 9.46948 14.3754 9.5695 14.4391 9.71119H14.5884C14.6521 9.5695 14.7527 9.46782 14.8835 9.46448C15.0109 9.46948 15.1115 9.5695 15.1753 9.71119H21.1918V9.76119V9.80953H15.1065L15.0948 9.77786C15.0377 9.63617 14.9539 9.56116 14.8818 9.5645C14.8114 9.56116 14.7259 9.63617 14.6705 9.77786L14.6571 9.8112H14.3704L14.3569 9.77786C14.3016 9.63617 14.2161 9.56116 14.1457 9.5645C14.0752 9.56116 13.9897 9.63617 13.9344 9.77786L13.921 9.8112H13.6158L13.6761 9.72952C13.8002 9.56116 13.8723 9.3628 13.8723 9.1461C13.8707 8.56268 13.4598 8.09928 12.8243 8.09762C12.1871 8.09762 11.6773 8.56935 11.6757 9.1461C11.674 9.39947 11.8752 9.64618 11.9523 9.84787L11.9725 9.90288L11.9154 9.91455C11.8282 9.93455 11.7612 10.0129 11.7628 10.1062C11.7628 10.2046 11.8366 10.2829 11.9322 10.2963L11.9909 10.3063L11.9741 10.3596C11.897 10.618 11.674 10.7763 11.6757 11.1247C11.6773 11.7015 12.1871 12.1715 12.8243 12.1732C13.4582 12.1715 13.8707 11.7081 13.8723 11.1247C13.8723 10.908 13.8002 10.708 13.6761 10.5413L13.6158 10.4596H13.921L13.9344 10.4896C13.9897 10.6347 14.0752 10.7097 14.1457 10.7063C14.2161 10.7097 14.3016 10.6347 14.3586 10.4913L14.3704 10.4613H14.6571L14.6722 10.4913C14.7259 10.6347 14.8114 10.7097 14.8818 10.7063C14.9522 10.7097 15.0377 10.6347 15.0948 10.4913L15.1065 10.4613H19.634V10.8097H19.4261V11.2014H19.6072L19.8906 11.5915L19.4261 11.5231V12.0749H19.7296V11.7748H20.4305V12.0749H20.7324V11.5231L20.2695 11.5898L20.5513 11.2014H20.7324V10.808H20.5244V10.4596H21.1918C21.3193 10.4596 21.4249 10.3513 21.4266 10.2196V10.0462C21.4266 9.91455 21.3209 9.80787 21.1935 9.80787V9.75786V9.70785C21.3796 9.70785 21.5289 9.86121 21.5289 10.0462V10.2196C21.5289 10.4046 21.3779 10.558 21.1918 10.558H20.6267V10.7047H20.8346V11.3014H20.6032L20.4926 11.4531L20.8363 11.4031V12.1782H20.3299V11.8765H19.8319V12.1799H19.3255V11.4048L19.6692 11.4548L19.5602 11.3031H19.3255V10.7063H19.5334V10.5596H15.1786C15.1149 10.7013 15.016 10.803 14.8852 10.8063C14.7544 10.803 14.6554 10.7013 14.59 10.5596H14.4425C14.3787 10.7013 14.2798 10.803 14.149 10.8063C14.0182 10.803 13.9193 10.7013 13.8556 10.5596H13.817C13.9193 10.7263 13.9797 10.918 13.9797 11.1231C13.9797 11.7548 13.5202 12.2699 12.8277 12.2716C12.1368 12.2749 11.5734 11.7665 11.5734 11.1264ZM12.8243 11.8748C12.3799 11.8748 12.0144 11.5598 12.0127 11.1514C12.0127 11.003 12.0412 10.8997 12.1183 10.828C12.1837 10.768 12.2709 10.7347 12.3883 10.6963L12.3129 10.543L12.4772 10.3946C12.39 10.3313 12.3347 10.2279 12.3347 10.1162C12.3347 10.0029 12.3883 9.90288 12.4738 9.8412L12.343 9.74119L12.3984 9.57617C12.2776 9.53783 12.1871 9.50449 12.1183 9.44115C12.0412 9.37114 12.0127 9.26779 12.0127 9.11776C12.0144 8.71604 12.3816 8.39599 12.8243 8.39599C13.0456 8.39599 13.2284 8.476 13.3508 8.60936C13.4716 8.74104 13.5353 8.92274 13.5353 9.11776C13.537 9.28779 13.4565 9.39947 13.3374 9.44948C13.2418 9.49282 13.1245 9.50449 13.0004 9.50782L13.0557 9.63284C13.2653 9.66284 13.4146 9.87621 13.4146 10.1246C13.4146 10.3713 13.2653 10.5863 13.0557 10.6163L12.9953 10.7613C13.1077 10.7647 13.2217 10.7763 13.3206 10.818C13.4414 10.868 13.537 10.9797 13.5336 11.1497C13.5336 11.3464 13.4699 11.5281 13.3492 11.6598C13.2284 11.7948 13.0473 11.8748 12.8243 11.8748ZM12.1133 9.11943C12.1133 9.26279 12.1385 9.32446 12.1871 9.36947C12.2374 9.41614 12.3313 9.45115 12.4772 9.49782L12.5258 9.51449L12.4604 9.70618L12.6633 9.85954L12.5828 9.89621C12.494 9.93122 12.4353 10.0162 12.4353 10.1179C12.4353 10.2179 12.494 10.2996 12.5828 10.3396L12.6566 10.3729L12.4386 10.568L12.5325 10.758L12.4755 10.7763C12.3296 10.8213 12.2357 10.8597 12.1854 10.9047C12.1368 10.9497 12.1133 11.013 12.1116 11.1531C12.1116 11.4914 12.4252 11.7732 12.8226 11.7748C13.215 11.7715 13.4296 11.5031 13.433 11.1531C13.4313 11.018 13.3743 10.958 13.2804 10.9147C13.1831 10.8747 13.0473 10.8647 12.9199 10.8647H12.8427L12.9886 10.523L13.0205 10.5213C13.1714 10.5196 13.3123 10.3496 13.3123 10.1296C13.3123 9.90788 13.1731 9.73952 13.0205 9.73786L13.0222 9.68785L13.0691 9.66618L13.0222 9.68451L13.0205 9.73452H12.9886L12.8411 9.41114H12.9216C13.0725 9.41281 13.2083 9.40281 13.2972 9.36113C13.3844 9.32113 13.433 9.26112 13.4347 9.1211C13.4313 8.77105 13.2184 8.50434 12.8243 8.50101C12.4252 8.50101 12.1133 8.78272 12.1133 9.11943Z" fill="white"/>
<path d="M8.7157 11.5178V13.023L10.9694 10.8227V9.33081L8.7157 11.5178Z" fill="#FFCA38"/>
<path d="M8.66309 11.5181V11.4948L11.0191 9.20776V10.8397L8.66309 13.1433V11.5181ZM8.76537 12.9033L10.9168 10.8013V9.44947L8.76537 11.5398V12.9033Z" fill="white"/>
<path d="M8.7157 6.01947V7.52469L10.9694 5.32436V3.83081L8.7157 6.01947Z" fill="#FFCA38"/>
<path d="M8.66309 6.01941V5.99774L11.0191 3.7124V5.34431L8.66309 7.64632V6.01941ZM8.76537 7.40461L10.9168 5.30264V3.95077L8.76537 6.04108V7.40461Z" fill="white"/>
<path d="M6.90747 3.1688V0H7.14894V0.0816787V0H7.25123V3.1688H6.90747Z" fill="white"/>
<path d="M8.7157 7.85296V9.35818L10.9694 7.15619V5.66431L8.7157 7.85296Z" fill="#FFCA38"/>
<path d="M8.66309 7.85091V7.82924L11.0191 5.54224V7.17581L8.66309 9.47948V7.85091ZM8.76537 9.23611L10.9168 7.13414V5.78227L8.76537 7.87258V9.23611Z" fill="white"/>
<path d="M7.66895 3.76055V0H7.91209V0.0816787V0H8.01438V3.76055H7.66895Z" fill="white"/>
<path d="M7.14931 0.0812988H7.01013V3.08674H7.14931V0.0812988Z" fill="#FFCA38"/>
<path d="M7.91234 0.0812988H7.77148V3.67849H7.91234V0.0812988Z" fill="#FFCA38"/>
<path d="M8.43213 4.15228V0H8.6736V0.0816787V0H8.77589V4.15228H8.43213Z" fill="white"/>
<path d="M8.7157 9.68808V11.19L10.9694 8.98965V7.49609L8.7157 9.68808Z" fill="#FFCA38"/>
<path d="M8.66309 9.68823V9.66322L11.0191 7.37622V9.00979L8.66309 11.3118V9.68823ZM8.76537 11.0718L10.9168 8.96812V7.61626L8.76537 9.70656V11.0718Z" fill="white"/>
<path d="M8.67409 0.0812988H8.53491V4.07022H8.67409V0.0812988Z" fill="#FFCA38"/>
<path d="M9.1947 3.8339V0H9.43617V0.0816787V0H9.53846V3.8339H9.1947Z" fill="white"/>
<path d="M8.49393 11.5178V13.023L6.24023 10.8227V9.33081L8.49393 11.5178Z" fill="#FFCA38"/>
<path d="M6.18799 10.8448V9.21118L8.53056 11.4832L8.49366 11.5182L8.53056 11.4832L8.54565 11.4982V13.1451L6.18799 10.8448ZM6.29028 10.8014L8.44168 12.9034V11.5415L6.29028 9.45122V10.8014Z" fill="white"/>
<path d="M9.95618 3.24714V0H10.206V0.0816787V0H10.3083V3.24714H9.95618Z" fill="white"/>
<path d="M9.43593 0.0812988H9.29675V3.75184H9.43593V0.0812988Z" fill="#FFCA38"/>
<path d="M10.6757 2.6954V0H10.9171V0.0816787V0H11.0194V2.6954H10.6757Z" fill="white"/>
<path d="M10.2059 0.0812988H10.0583V3.16508H10.2059V0.0812988Z" fill="#FFCA38"/>
<path d="M10.9174 0.0812988H10.7782V2.61334H10.9174V0.0812988Z" fill="#FFCA38"/>
<path d="M8.49393 6.01947V7.52469L6.24023 5.32436V3.83081L8.49393 6.01947Z" fill="#FFCA38"/>
<path d="M6.18799 5.34431V3.7124L8.53056 5.98274L8.49366 6.01774L8.53056 5.98274L8.54565 5.99774V7.64632L6.18799 5.34431ZM6.29028 5.3043L8.44168 7.40628V6.04275L6.29028 3.95244V5.3043Z" fill="white"/>
<path d="M8.49393 7.85296V9.35818L6.24023 7.15619V5.66431L8.49393 7.85296Z" fill="#FFCA38"/>
<path d="M6.18799 7.17947V5.5459L8.53056 7.8179L8.49366 7.85124L8.53056 7.81623L8.54565 7.83123V9.47981L6.18799 7.17947ZM6.29028 7.13613L8.44168 9.23811V7.87791L6.29028 5.78593V7.13613Z" fill="white"/>
<path d="M8.49393 9.68808V11.19L6.24023 8.98965V7.49609L8.49393 9.68808Z" fill="#FFCA38"/>
<path d="M6.18799 9.01126V7.37769L8.53056 9.64969L8.49366 9.68802L8.53056 9.65135L8.54565 9.66635V11.3149L6.18799 9.01126ZM6.29028 8.96792L8.44168 11.0716V9.70803L6.29028 7.61772V8.96792Z" fill="white"/>
<path d="M6.18799 2.67706V0H6.43784V0.0816787V0H6.54013V2.67706H6.18799Z" fill="white"/>
<path d="M6.4376 0.0812988H6.29004V2.59667H6.4376V0.0812988Z" fill="#FFCA38"/>
<path d="M8.7157 4.18552V5.69074L10.9694 3.49042V1.99854L8.7157 4.18552Z" fill="#FFCA38"/>
<path d="M8.66309 4.18563V4.16396L11.0191 1.87695V3.51053L8.66309 5.81253V4.18563ZM8.76537 5.57083L10.9168 3.46885V2.11699L8.76537 4.20563V5.57083Z" fill="white"/>
<path d="M8.49393 4.18552V5.69074L6.24023 3.49042V1.99854L8.49393 4.18552Z" fill="#FFCA38"/>
<path d="M6.18799 3.51224V1.87866L8.52888 4.15066L8.49199 4.184L8.52888 4.15066L8.54397 4.16566V5.81424L6.18799 3.51224ZM6.29028 3.4689L8.44168 5.57087V4.209L6.29028 2.1187V3.4689Z" fill="white"/>
</g>
<defs>
<clipPath id="clip0">
<rect width="19.2" height="22.8" fill="white" transform="translate(2.40039)"/>
</clipPath>
</defs>
</svg>
