<svg xmlns="http://www.w3.org/2000/svg" width="48" height="48" viewBox="0 0 48 48" fill="none"><rect width="48" height="48" fill="none"/>
<rect x="0.5" y="8.5" width="47" height="30" rx="2.5" fill="white" stroke="black"/>
<path d="M16.7266 24.6951H18.6977C19.8882 24.6951 20.7712 25.6097 20.7712 26.745C20.7712 27.8884 19.8882 28.8029 18.6898 28.8029H17.7988V30.4509H16.7266V24.6951ZM17.7988 25.6884V27.8096H18.6187C19.2576 27.8096 19.6913 27.3364 19.6913 26.745C19.6913 26.1616 19.2576 25.6884 18.6187 25.6884H17.7988Z" fill="black"/>
<path d="M20.9766 28.1485C20.9766 26.619 22.0963 25.7437 23.2632 25.7437C23.8705 25.7437 24.4142 25.996 24.7453 26.3902V25.8383H25.8099V30.4508H24.7453V29.8514C24.4065 30.2774 23.8546 30.5454 23.2473 30.5454C22.1358 30.5454 20.9766 29.6545 20.9766 28.1485ZM24.8007 28.1329C24.8007 27.3522 24.2093 26.7133 23.4209 26.7133C22.6326 26.7133 22.0252 27.3363 22.0252 28.1329C22.0252 28.9369 22.6326 29.5678 23.4209 29.5678C24.2093 29.5678 24.8007 28.9292 24.8007 28.1329Z" fill="black"/>
<path d="M28.0499 30.2222L26.1575 25.8385H27.2928L28.5782 28.945L29.7923 25.8385H30.912L28.1602 32.5796H27.0802L28.0499 30.2222Z" fill="black"/>
<path d="M36.1037 15.8143L36.1769 20.04H36.1473L34.9099 15.8143H32.9121V21.1418H34.2356L34.1616 16.7705H34.1909L35.5199 21.1418H37.4368V15.8143H36.1037Z" fill="black"/>
<path d="M10.7626 15.8143L9.76465 21.1973H11.2198L11.9561 16.313L11.986 16.3127L12.7036 21.1973H14.15L13.1573 15.8143H10.7626Z" fill="black"/>
<path d="M18.8977 15.8143L18.2336 19.9302H18.2034L17.5404 15.8143H15.3446L15.2258 21.1973H16.573L16.6067 16.3582H16.6369L17.5358 21.1973H18.9021L19.8013 16.3588L19.8309 16.3582L19.8646 21.1973H21.2115L21.0924 15.8143H18.8977Z" fill="black"/>
<path d="M7.49949 19.679C7.55215 19.8093 7.53542 19.976 7.51018 20.0773C7.4663 20.2564 7.3445 20.4394 6.98571 20.4394C6.64913 20.4394 6.44478 20.2446 6.44478 19.9514L6.44368 19.4296H5V19.8447C5 21.0453 5.94444 21.4082 6.95636 21.4082C7.92987 21.4082 8.73085 21.076 8.85895 20.1774C8.92424 19.7127 8.87651 19.4082 8.85319 19.2949C8.62579 18.1675 6.58357 17.8315 6.43133 17.2012C6.40555 17.0917 6.41186 16.9784 6.4253 16.9183C6.4637 16.7453 6.58056 16.5568 6.91713 16.5568C7.23231 16.5568 7.41719 16.7513 7.41719 17.0443V17.3781H8.76075V16.9987C8.76075 15.8263 7.70714 15.6428 6.94539 15.6428C5.98888 15.6428 5.20628 15.9602 5.06337 16.838C5.02469 17.078 5.0192 17.2928 5.07598 17.5641C5.30942 18.6643 7.22216 18.9822 7.49949 19.679Z" fill="black"/>
<path d="M25.0012 19.6685C25.0525 19.798 25.0369 19.962 25.0116 20.0627C24.968 20.2399 24.8476 20.4206 24.4927 20.4206C24.1591 20.4206 23.9564 20.2283 23.9564 19.9373L23.9553 19.4216H22.5264L22.5259 19.8325C22.5259 21.0214 23.4618 21.3799 24.463 21.3799C25.4275 21.3799 26.2202 21.0515 26.347 20.1614C26.4117 19.7017 26.3643 19.4008 26.3412 19.2877C26.1155 18.1713 24.0938 17.8389 23.9438 17.2148C23.9174 17.107 23.924 16.9951 23.9369 16.9353C23.975 16.7644 24.0911 16.577 24.4238 16.577C24.7368 16.577 24.9195 16.7691 24.9195 17.0601V17.3898H26.2496V17.0148C26.2496 15.854 25.2064 15.6729 24.4521 15.6729C23.5054 15.6729 22.7305 15.9859 22.5895 16.8557C22.5506 17.0933 22.5454 17.3059 22.6019 17.5739C22.8326 18.664 24.7269 18.9783 25.0012 19.6685Z" fill="black"/>
<path d="M29.5206 20.3918C29.8951 20.3918 30.01 20.134 30.0369 20.0015C30.0481 19.9436 30.0501 19.8651 30.0495 19.796V15.8136H31.4123V19.6734C31.4136 19.7724 31.4035 19.9749 31.3986 20.0275C31.3045 21.032 30.5101 21.3579 29.5206 21.3579C28.5307 21.3579 27.7366 21.032 27.6422 20.0275C27.6375 19.9749 27.6271 19.7724 27.6298 19.6734V15.8136H28.9915V19.796C28.9899 19.8651 28.9926 19.9436 29.0041 20.0015C29.0305 20.134 29.1459 20.3918 29.5206 20.3918Z" fill="black"/>
<path d="M40.7485 20.3356C41.1383 20.3356 41.2741 20.0887 41.2988 19.945C41.3097 19.8841 41.3128 19.8089 41.3117 19.7406V18.9589H40.7598V18.1741H42.6665V19.6172C42.6656 19.7184 42.6632 19.7925 42.647 19.9713C42.5581 20.952 41.708 21.302 40.754 21.302C39.7994 21.302 38.9501 20.952 38.8602 19.9713C38.8451 19.7925 38.8421 19.7184 38.8418 19.6172L38.8421 17.3523C38.8421 17.2568 38.8536 17.0881 38.8648 16.9981C38.9847 15.9917 39.7994 15.6677 40.7543 15.6677C41.7089 15.6677 42.5447 15.9887 42.6437 16.9981C42.6612 17.1696 42.6552 17.3523 42.6563 17.3523V17.5319H41.2988V17.2302C41.2993 17.2307 41.2979 17.1024 41.2818 17.025C41.2573 16.9065 41.155 16.6344 40.7436 16.6344C40.3521 16.6344 40.2372 16.8922 40.207 17.025C40.1919 17.0961 40.1856 17.1921 40.1856 17.2798V19.7406C40.1851 19.8089 40.1875 19.8841 40.198 19.945C40.2232 20.0887 40.3593 20.3356 40.7485 20.3356Z" fill="black"/>
</svg>
