<svg xmlns="http://www.w3.org/2000/svg" width="36" height="36" viewBox="0 0 36 36" fill="none"><rect width="36" height="36" fill="none"/>
<rect x="0.4" y="6.4" width="35.2" height="22.2" rx="1.6" fill="white" stroke="black" stroke-width="0.8"/>
<path d="M12.5449 18.5213H14.0233C14.9162 18.5213 15.5784 19.2072 15.5784 20.0587C15.5784 20.9162 14.9162 21.6021 14.0173 21.6021H13.3491V22.8381H12.5449V18.5213ZM13.3491 19.2662V20.8572H13.964C14.4432 20.8572 14.7685 20.5023 14.7685 20.0587C14.7685 19.6211 14.4432 19.2662 13.964 19.2662H13.3491Z" fill="black"/>
<path d="M15.7324 21.1113C15.7324 19.9641 16.5722 19.3076 17.4474 19.3076C17.9029 19.3076 18.3106 19.4969 18.559 19.7925V19.3786H19.3574V22.838H18.559V22.3884C18.3049 22.7079 17.8909 22.9089 17.4355 22.9089C16.6018 22.9089 15.7324 22.2407 15.7324 21.1113ZM18.6005 21.0995C18.6005 20.514 18.157 20.0349 17.5657 20.0349C16.9744 20.0349 16.5189 20.5021 16.5189 21.0995C16.5189 21.7025 16.9744 22.1757 17.5657 22.1757C18.157 22.1757 18.6005 21.6968 18.6005 21.0995Z" fill="black"/>
<path d="M21.0377 22.6665L19.6184 19.3787H20.4699L21.434 21.7086L22.3445 19.3787H23.1843L21.1204 24.4346H20.3105L21.0377 22.6665Z" fill="black"/>
<path d="M27.0778 11.8608L27.1327 15.03H27.1105L26.1824 11.8608H24.6841V15.8564H25.6767L25.6212 12.5779H25.6432L26.64 15.8564H28.0776V11.8608H27.0778Z" fill="black"/>
<path d="M8.07193 11.8609L7.32349 15.8982H8.41489L8.96707 12.235L8.98949 12.2348L9.52768 15.8982H10.6125L9.86796 11.8609H8.07193Z" fill="black"/>
<path d="M14.1736 11.8609L13.6755 14.9479H13.6529L13.1556 11.8609H11.5088L11.4197 15.8982H12.43L12.4553 12.2689H12.478L13.1521 15.8982H14.1769L14.8513 12.2693L14.8735 12.2689L14.8988 15.8982H15.9089L15.8196 11.8609H14.1736Z" fill="black"/>
<path d="M5.62461 14.7592C5.66411 14.857 5.65157 14.982 5.63264 15.0579C5.59972 15.1923 5.50838 15.3295 5.23928 15.3295C4.98685 15.3295 4.83358 15.1834 4.83358 14.9635L4.83276 14.5722H3.75V14.8835C3.75 15.784 4.45833 16.0562 5.21727 16.0562C5.94741 16.0562 6.54814 15.807 6.64421 15.133C6.69318 14.7845 6.65738 14.5562 6.63989 14.4712C6.46934 13.6257 4.93768 13.3736 4.8235 12.9009C4.80416 12.8188 4.80889 12.7338 4.81897 12.6888C4.84778 12.5589 4.93542 12.4176 5.18785 12.4176C5.42423 12.4176 5.5629 12.5635 5.5629 12.7832V13.0336H6.57056V12.749C6.57056 11.8697 5.78035 11.7321 5.20904 11.7321C4.49166 11.7321 3.90471 11.9701 3.79752 12.6285C3.76852 12.8085 3.7644 12.9696 3.80699 13.173C3.98206 13.9982 5.41662 14.2367 5.62461 14.7592Z" fill="black"/>
<path d="M18.751 14.7516C18.7895 14.8487 18.7778 14.9717 18.7589 15.0472C18.7261 15.1801 18.6358 15.3157 18.3696 15.3157C18.1194 15.3157 17.9674 15.1715 17.9674 14.9532L17.9666 14.5664H16.8949L16.8945 14.8746C16.8945 15.7663 17.5965 16.0352 18.3474 16.0352C19.0707 16.0352 19.6653 15.7889 19.7604 15.1213C19.8089 14.7765 19.7733 14.5508 19.756 14.4661C19.5867 13.6287 18.0705 13.3794 17.958 12.9113C17.9382 12.8305 17.9431 12.7466 17.9528 12.7017C17.9814 12.5735 18.0684 12.433 18.318 12.433C18.5527 12.433 18.6897 12.577 18.6897 12.7953V13.0426H19.6873V12.7614C19.6873 11.8907 18.9049 11.7549 18.3392 11.7549C17.6292 11.7549 17.048 11.9897 16.9423 12.642C16.913 12.8202 16.9091 12.9796 16.9515 13.1806C17.1245 13.9982 18.5453 14.234 18.751 14.7516Z" fill="black"/>
<path d="M22.1406 15.2937C22.4214 15.2937 22.5076 15.1003 22.5278 15.001C22.5362 14.9576 22.5377 14.8987 22.5373 14.8469V11.8601H23.5593V14.7549C23.5604 14.8292 23.5527 14.981 23.549 15.0205C23.4785 15.7739 22.8827 16.0183 22.1406 16.0183C21.3981 16.0183 20.8025 15.7739 20.7318 15.0205C20.7283 14.981 20.7205 14.8292 20.7225 14.7549V11.8601H21.7438V14.8469C21.7425 14.8987 21.7446 14.9576 21.7532 15.001C21.773 15.1003 21.8596 15.2937 22.1406 15.2937Z" fill="black"/>
<path d="M30.5614 15.2518C30.8537 15.2518 30.9556 15.0666 30.9741 14.9588C30.9823 14.9131 30.9846 14.8568 30.9837 14.8055V14.2192H30.5698V13.6306H31.9998V14.713C31.9992 14.7889 31.9974 14.8444 31.9852 14.9786C31.9186 15.7141 31.281 15.9766 30.5655 15.9766C29.8496 15.9766 29.2126 15.7141 29.1451 14.9786C29.1338 14.8444 29.1316 14.7889 29.1313 14.713L29.1316 13.0143C29.1316 12.9427 29.1402 12.8161 29.1486 12.7487C29.2385 11.9938 29.8496 11.7509 30.5657 11.7509C31.2816 11.7509 31.9085 11.9916 31.9828 12.7487C31.9959 12.8772 31.9914 13.0143 31.9922 13.0143V13.149H30.9741V12.9227C30.9745 12.9231 30.9735 12.8268 30.9613 12.7688C30.943 12.6799 30.8663 12.4759 30.5577 12.4759C30.2641 12.4759 30.1779 12.6692 30.1553 12.7688C30.144 12.8221 30.1392 12.8941 30.1392 12.9599V14.8055C30.1388 14.8568 30.1407 14.9131 30.1485 14.9588C30.1674 15.0666 30.2694 15.2518 30.5614 15.2518Z" fill="black"/>
</svg>
