<svg xmlns="http://www.w3.org/2000/svg" width="30" height="30" viewBox="0 0 30 30" fill="none"><rect width="30" height="30" fill="none"/>
<path fill-rule="evenodd" clip-rule="evenodd" d="M27.3134 5H2.68663C2.58405 5 2.48128 5 2.37888 5.00054C2.29242 5.00127 2.20615 5.00217 2.1197 5.00453C1.93138 5.0096 1.74144 5.02065 1.55548 5.05416C1.36662 5.08803 1.19081 5.14346 1.01935 5.23077C0.850615 5.31644 0.696375 5.42856 0.562434 5.56224C0.428675 5.6961 0.316484 5.85007 0.230755 6.01888C0.143394 6.19024 0.0879332 6.36594 0.0542215 6.55486C0.0205098 6.74089 0.00945378 6.93053 0.0043789 7.11855C0.0020227 7.20495 0.000935228 7.29117 0.000391491 7.37739C-0.000152246 7.47992 2.89993e-05 7.58244 2.89993e-05 7.68514V21.509C2.89993e-05 21.6117 -0.000152246 21.714 0.000391491 21.8167C0.000935228 21.903 0.0020227 21.9894 0.0043789 22.0756C0.00945378 22.2634 0.0205098 22.4532 0.0542215 22.6391C0.0879332 22.828 0.143394 23.0037 0.230755 23.1752C0.316484 23.3439 0.428675 23.498 0.562434 23.6317C0.696375 23.7656 0.850615 23.8777 1.01935 23.9632C1.19081 24.0507 1.36662 24.1061 1.55548 24.1401C1.74144 24.1733 1.93138 24.1845 2.1197 24.1896C2.20615 24.1916 2.29242 24.1929 2.37888 24.1932C2.48128 24.1939 2.58405 24.1939 2.68663 24.1939H27.3134C27.4158 24.1939 27.5186 24.1939 27.621 24.1932C27.7072 24.1929 27.7935 24.1916 27.8803 24.1896C28.0683 24.1845 28.2582 24.1733 28.4445 24.1401C28.6332 24.1061 28.809 24.0507 28.9807 23.9632C29.1494 23.8777 29.3033 23.7656 29.4374 23.6317C29.571 23.498 29.6832 23.3439 29.7691 23.1752C29.8566 23.0037 29.9121 22.828 29.9456 22.6391C29.9793 22.4532 29.9902 22.2634 29.9953 22.0756C29.9976 21.9894 29.9987 21.903 29.9993 21.8167C30 21.714 30 21.6117 30 21.509V7.68514C30 7.58244 30 7.47992 29.9993 7.37739C29.9987 7.29117 29.9976 7.20495 29.9953 7.11855C29.9902 6.93053 29.9793 6.74089 29.9456 6.55486C29.9121 6.36594 29.8566 6.19024 29.7691 6.01888C29.6832 5.85007 29.571 5.6961 29.4374 5.56224C29.3033 5.42856 29.1494 5.31644 28.9807 5.23077C28.809 5.14346 28.6332 5.08803 28.4445 5.05416C28.2582 5.02065 28.0683 5.0096 27.8803 5.00453C27.7935 5.00217 27.7072 5.00127 27.621 5.00054C27.5186 5 27.4158 5 27.3134 5Z" fill="#3C4043"/>
<path fill-rule="evenodd" clip-rule="evenodd" d="M27.3136 5.6394L27.6166 5.63995C27.6986 5.64049 27.7807 5.6414 27.8631 5.64375C28.0067 5.64756 28.1747 5.65534 28.3313 5.68342C28.4672 5.70787 28.5814 5.74519 28.6909 5.8008C28.7991 5.85568 28.898 5.92777 28.9845 6.01399C29.0713 6.10094 29.1434 6.20002 29.1991 6.30924C29.2545 6.41792 29.2915 6.53131 29.316 6.66825C29.3439 6.82312 29.3517 6.99139 29.3555 7.13576C29.3579 7.21709 29.3589 7.2986 29.3593 7.3821C29.36 7.48299 29.36 7.5837 29.36 7.68478V21.5086C29.36 21.6097 29.36 21.7104 29.3593 21.8133C29.3589 21.8948 29.3579 21.9763 29.3555 22.058C29.3517 22.202 29.3439 22.3703 29.3156 22.5268C29.2915 22.6619 29.2545 22.7753 29.1987 22.8845C29.1433 22.9936 29.0713 23.0925 28.9849 23.1789C28.8979 23.2658 28.7993 23.3375 28.6898 23.393C28.581 23.4484 28.4672 23.4857 28.3326 23.5098C28.1727 23.5382 27.9978 23.5462 27.866 23.5496C27.7832 23.5516 27.7007 23.5527 27.6161 23.5531C27.5155 23.5538 27.4144 23.5538 27.3136 23.5538H2.68683C2.68556 23.5538 2.68429 23.5538 2.68284 23.5538C2.58333 23.5538 2.48347 23.5538 2.38215 23.5531C2.2995 23.5527 2.21704 23.5516 2.13729 23.5498C2.00244 23.5462 1.82736 23.5382 1.66895 23.51C1.53302 23.4857 1.41919 23.4484 1.309 23.3922C1.20061 23.3374 1.10201 23.2656 1.01502 23.1785C0.928743 23.0925 0.85697 22.9937 0.801508 22.8845C0.745866 22.7755 0.708711 22.6617 0.684242 22.525C0.656149 22.3686 0.648356 22.2013 0.644368 22.058C0.642193 21.9761 0.641287 21.8941 0.640743 21.8127L0.640381 21.5722V7.62138L0.640743 7.38138C0.641287 7.29932 0.642193 7.21745 0.644368 7.13558C0.648356 6.99212 0.656149 6.82457 0.684605 6.66698C0.708711 6.53167 0.745866 6.41774 0.80169 6.30815C0.856788 6.19984 0.928743 6.10094 1.01538 6.01435C1.10183 5.92777 1.20097 5.85604 1.3099 5.80061C1.41883 5.74501 1.53302 5.70787 1.66895 5.68342C1.82555 5.65534 1.99356 5.64756 2.13747 5.64375C2.21939 5.6414 2.3015 5.64049 2.38288 5.63995L2.68683 5.6394H27.3136Z" fill="#FFFFFE"/>
<path d="M14.4431 15.0394V17.7751H13.5884V11.0221H15.8552C16.402 11.0114 16.9329 11.2214 17.3205 11.6091C18.0955 12.3415 18.1433 13.5747 17.416 14.3663C17.3842 14.3986 17.3523 14.4309 17.3205 14.4632C16.9223 14.8456 16.4339 15.0394 15.8552 15.0394H14.4431ZM14.4431 11.8514V14.2101H15.8765C16.195 14.2209 16.5029 14.0916 16.7206 13.8601C17.1665 13.3916 17.1559 12.6377 16.694 12.1853C16.4764 11.9699 16.1844 11.8514 15.8765 11.8514H14.4431Z" fill="#3C4043"/>
<path d="M19.9058 13.0037C20.5376 13.0037 21.0366 13.176 21.4029 13.5152C21.7692 13.8545 21.9497 14.3284 21.9497 14.9261V17.7749H21.1322V17.134H21.095C20.7393 17.6618 20.2721 17.9257 19.6829 17.9257C19.1838 17.9257 18.7591 17.7749 18.4247 17.4733C18.0955 17.1933 17.9097 16.7786 17.9204 16.3424C17.9204 15.8632 18.1009 15.4862 18.4565 15.2008C18.8122 14.9154 19.29 14.7754 19.8846 14.7754C20.3943 14.7754 20.8083 14.8723 21.1375 15.0554V14.8561C21.1375 14.56 21.0101 14.2799 20.7871 14.0861C20.5588 13.8814 20.2668 13.7683 19.9642 13.7683C19.4864 13.7683 19.1095 13.973 18.8335 14.3822L18.0796 13.903C18.4831 13.3052 19.0936 13.0037 19.9058 13.0037ZM18.8016 16.3586C18.8016 16.5848 18.9078 16.7948 19.083 16.924C19.2741 17.0748 19.5077 17.1556 19.7466 17.1502C20.1076 17.1502 20.4526 17.0048 20.7075 16.7463C20.9888 16.4771 21.1322 16.1593 21.1322 15.7931C20.8667 15.5777 20.4951 15.47 20.0173 15.4754C19.6723 15.4754 19.3803 15.5616 19.1467 15.7285C18.9184 15.8955 18.8016 16.1055 18.8016 16.3586Z" fill="#3C4043"/>
<path fill-rule="evenodd" clip-rule="evenodd" d="M26.6419 13.1545L23.7858 19.8052H22.9045L23.9663 17.4788L22.0923 13.1545H23.0213L24.3751 16.4718H24.391L25.7129 13.1545H26.6419Z" fill="#3C4043"/>
<path fill-rule="evenodd" clip-rule="evenodd" d="M10.9877 14.4474C10.9877 14.1835 10.9665 13.9196 10.924 13.6611H7.31934V15.1528H9.38446C9.29952 15.6321 9.02346 16.0629 8.61999 16.3321V17.3015H9.85163C10.5736 16.6283 10.9877 15.6321 10.9877 14.4474Z" fill="#4285F4"/>
<path fill-rule="evenodd" clip-rule="evenodd" d="M7.31981 18.2384C8.34972 18.2384 9.22036 17.8937 9.85211 17.3014L8.62046 16.3321C8.27539 16.569 7.83476 16.7036 7.31981 16.7036C6.32175 16.7036 5.47765 16.0197 5.17505 15.1042H3.90625V16.1059C4.55392 17.4145 5.87581 18.2384 7.31981 18.2384Z" fill="#34A853"/>
<path fill-rule="evenodd" clip-rule="evenodd" d="M5.175 15.1041C5.01574 14.6248 5.01574 14.1025 5.175 13.6178V12.6216H3.9062C3.35939 13.7148 3.35939 15.0072 3.9062 16.1004L5.175 15.1041Z" fill="#FBBC04"/>
<path fill-rule="evenodd" clip-rule="evenodd" d="M7.31907 12.0186C7.86588 12.0079 8.39145 12.2179 8.7843 12.6002L9.87792 11.4909C9.18246 10.8339 8.26935 10.4731 7.31907 10.4839C5.87508 10.4839 4.55319 11.3132 3.90552 12.6218L5.17432 13.6234C5.47692 12.7025 6.32102 12.0186 7.31907 12.0186Z" fill="#EA4335"/>
</svg>
