<svg xmlns="http://www.w3.org/2000/svg" width="16" height="15" viewBox="0 0 16 15"><g fill="#FFF" fill-rule="evenodd"><path d="M12.5 0h-9C1.57 0 0 1.472 0 3.281v8.438C0 13.529 1.57 15 3.5 15h9c1.93 0 3.5-1.472 3.5-3.281V3.28C16 1.471 14.43 0 12.5 0zM15 11.719c0 1.293-1.122 2.344-2.5 2.344h-9c-1.378 0-2.5-1.051-2.5-2.344V3.28C1 1.988 2.122.937 3.5.937h9c1.378 0 2.5 1.051 2.5 2.344v8.438z"/><path d="M9.908 7.14V7.1c.344-.134.613-.344.809-.63a1.69 1.69 0 0 0 .293-.977 1.63 1.63 0 0 0-.212-.836 1.506 1.506 0 0 0-.642-.58 2.698 2.698 0 0 0-.852-.264c-.303-.042-.748-.063-1.335-.063H5.143v7.5h3.202c.555 0 1.013-.047 1.373-.14.36-.094.69-.253.991-.474a2.04 2.04 0 0 0 .607-.7c.15-.283.226-.61.226-.983 0-.51-.149-.916-.446-1.217-.298-.3-.693-.498-1.188-.596zM7.142 5.125h.14c.358 0 .628.003.809.008.18.005.336.035.469.088.14.057.243.149.309.276a.81.81 0 0 1 .099.374c0 .165-.03.309-.091.433a.634.634 0 0 1-.333.292 1.216 1.216 0 0 1-.427.105c-.138.008-.379.01-.723.01h-.252V5.126zm2.205 4.28a.79.79 0 0 1-.4.324 1.75 1.75 0 0 1-.612.136c-.201.007-.562.01-1.085.01h-.108v-1.88h.371a45 45 0 0 1 .857.008c.213.005.38.03.502.074a.91.91 0 0 1 .451.297c.1.131.15.312.15.543a.94.94 0 0 1-.126.487z"/></g></svg>