<?xml version="1.0" encoding="UTF-8"?>
<svg width="18px" height="18px" viewBox="0 0 18 18" version="1.1" xmlns="http://www.w3.org/2000/svg" xmlns:xlink="http://www.w3.org/1999/xlink">
    <!-- Generator: Sketch 47.1 (45422) - http://www.bohemiancoding.com/sketch -->
    <title>icon_bank-saint-petersburg_s_color</title>
    <desc>Created with Sketch.</desc>
    <defs></defs>
    <g id="Page-1" stroke="none" stroke-width="1" fill="none" fill-rule="evenodd">
        <g id="icon_bank-saint-petersburg_s_color">
            <g>
                <rect id="_ph_" opacity="0" x="0" y="0" width="18" height="18"></rect>
                <circle id="Oval" fill="#DE3934" fill-rule="nonzero" cx="9" cy="5" r="4"></circle>
                <path d="M8.996,11 C6.786,11.008 4.998,11.687 5,12.517 C5.002,13.344 6.796,14.008 9.005,14 C11.214,13.992 13.003,13.313 13,12.485 C12.997,11.656 11.204,10.992 8.996,11 Z" id="Shape" fill="#DE3934" fill-rule="nonzero"></path>
                <path d="M13,16.495 C13.002,16.771 11.214,16.998 9.005,17 C6.796,17.003 5.002,16.781 5,16.506 C4.998,16.229 6.786,16.003 8.996,16 C11.204,15.997 12.997,16.219 13,16.495 L13,16.495 Z" id="Shape" fill="#DE3934" fill-rule="nonzero"></path>
            </g>
        </g>
    </g>
</svg>