<svg xmlns="http://www.w3.org/2000/svg" width="48" height="48" viewBox="0 0 48 48" fill="none"><rect width="48" height="48" fill="none"/>
<path fill-rule="evenodd" clip-rule="evenodd" d="M43.6779 8.01147H4.2963C4.13225 8.01147 3.96792 8.01147 3.80416 8.01235C3.6659 8.01352 3.52794 8.01498 3.38969 8.01878C3.08855 8.02697 2.7848 8.0448 2.48743 8.09887C2.18542 8.15353 1.90428 8.24298 1.63009 8.38386C1.36025 8.52212 1.1136 8.70306 0.899411 8.91877C0.685511 9.13478 0.506102 9.38324 0.369009 9.65566C0.229307 9.93218 0.140617 10.2157 0.0867076 10.5206C0.032798 10.8208 0.0151179 11.1268 0.00700246 11.4302C0.00323458 11.5696 0.00149556 11.7088 0.000626048 11.8479C-0.000243463 12.0133 4.63739e-05 12.1788 4.63739e-05 12.3445V34.6523C4.63739e-05 34.818 -0.000243463 34.9831 0.000626048 35.1489C0.00149556 35.288 0.00323458 35.4274 0.00700246 35.5666C0.0151179 35.8697 0.032798 36.176 0.0867076 36.4759C0.140617 36.7808 0.229307 37.0643 0.369009 37.3411C0.506102 37.6132 0.685511 37.862 0.899411 38.0777C1.1136 38.2937 1.36025 38.4747 1.63009 38.6126C1.90428 38.7538 2.18542 38.8432 2.48743 38.8982C2.7848 38.9517 3.08855 38.9698 3.38969 38.978C3.52794 38.9812 3.6659 38.9833 3.80416 38.9838C3.96792 38.985 4.13225 38.985 4.2963 38.985H43.6779C43.8417 38.985 44.006 38.985 44.1698 38.9838C44.3077 38.9833 44.4457 38.9812 44.5845 38.978C44.8851 38.9698 45.1888 38.9517 45.4868 38.8982C45.7885 38.8432 46.0696 38.7538 46.3441 38.6126C46.6139 38.4747 46.86 38.2937 47.0745 38.0777C47.2881 37.862 47.4675 37.6132 47.6049 37.3411C47.7449 37.0643 47.8336 36.7808 47.8872 36.4759C47.9411 36.176 47.9585 35.8697 47.9666 35.5666C47.9704 35.4274 47.9721 35.288 47.973 35.1489C47.9742 34.9831 47.9742 34.818 47.9742 34.6523V12.3445C47.9742 12.1788 47.9742 12.0133 47.973 11.8479C47.9721 11.7088 47.9704 11.5696 47.9666 11.4302C47.9585 11.1268 47.9411 10.8208 47.8872 10.5206C47.8336 10.2157 47.7449 9.93218 47.6049 9.65566C47.4675 9.38324 47.2881 9.13478 47.0745 8.91877C46.86 8.70306 46.6139 8.52212 46.3441 8.38386C46.0696 8.24298 45.7885 8.15353 45.4868 8.09887C45.1888 8.0448 44.8851 8.02697 44.5845 8.01878C44.4457 8.01498 44.3077 8.01352 44.1698 8.01235C44.006 8.01147 43.8417 8.01147 43.6779 8.01147Z" fill="#3C4043"/>
<path fill-rule="evenodd" clip-rule="evenodd" d="M43.6781 9.04272L44.1627 9.0436C44.2937 9.04448 44.425 9.04594 44.5569 9.04974C44.7864 9.05588 45.0551 9.06845 45.3055 9.11375C45.5229 9.15321 45.7055 9.21343 45.8806 9.30316C46.0536 9.39173 46.2118 9.50807 46.3501 9.6472C46.4889 9.7875 46.6043 9.94739 46.6933 10.1236C46.7819 10.299 46.8411 10.482 46.8802 10.703C46.9248 10.9529 46.9373 11.2244 46.9434 11.4574C46.9472 11.5887 46.9489 11.7202 46.9495 11.8549C46.9506 12.0177 46.9506 12.1803 46.9506 12.3434V34.6511C46.9506 34.8142 46.9506 34.9767 46.9495 35.1427C46.9489 35.2743 46.9472 35.4058 46.9434 35.5376C46.9373 35.77 46.9248 36.0416 46.8796 36.2941C46.8411 36.5122 46.7819 36.6951 46.6927 36.8714C46.604 37.0474 46.4889 37.207 46.3507 37.3464C46.2115 37.4867 46.0539 37.6024 45.8788 37.6919C45.7049 37.7813 45.5229 37.8415 45.3075 37.8804C45.0519 37.9263 44.7722 37.9392 44.5615 37.9447C44.429 37.9479 44.2972 37.9497 44.1618 37.9503C44.001 37.9514 43.8392 37.9514 43.6781 37.9514H4.29648C4.29445 37.9514 4.29242 37.9514 4.2901 37.9514C4.13098 37.9514 3.97128 37.9514 3.80926 37.9503C3.67709 37.9497 3.54522 37.9479 3.41769 37.945C3.20205 37.9392 2.92207 37.9263 2.66875 37.8807C2.45137 37.8415 2.26936 37.7813 2.09313 37.6907C1.91981 37.6021 1.76214 37.4864 1.62302 37.3458C1.48506 37.207 1.37028 37.0477 1.28159 36.8714C1.19261 36.6954 1.13319 36.5119 1.09407 36.2912C1.04914 36.0389 1.03668 35.7688 1.0303 35.5376C1.02682 35.4055 1.02537 35.2731 1.02451 35.1419L1.02393 34.7537V12.2411L1.02451 11.8538C1.02537 11.7214 1.02682 11.5892 1.0303 11.4571C1.03668 11.2256 1.04914 10.9552 1.09465 10.7009C1.13319 10.4826 1.19261 10.2987 1.28188 10.1219C1.36999 9.9471 1.48506 9.7875 1.6236 9.64778C1.76185 9.50807 1.92039 9.39231 2.09458 9.30287C2.26878 9.21314 2.45137 9.15321 2.66875 9.11375C2.91917 9.06845 3.18785 9.05588 3.41798 9.04974C3.54899 9.04594 3.68028 9.04448 3.81042 9.0436L4.29648 9.04272H43.6781Z" fill="#FFFFFE"/>
<path d="M23.0968 24.2122V28.6267H21.73V17.7294H25.355C26.2294 17.712 27.0784 18.0509 27.6981 18.6766C28.9376 19.8585 29.014 21.8485 27.8509 23.1259C27.8 23.178 27.749 23.2302 27.6981 23.2823C27.0614 23.8993 26.2804 24.2122 25.355 24.2122H23.0968ZM23.0968 19.0677V22.8739H25.389C25.8983 22.8913 26.3907 22.6827 26.7388 22.309C27.4519 21.553 27.4349 20.3364 26.6963 19.6064C26.3483 19.2588 25.8813 19.0677 25.389 19.0677H23.0968Z" fill="#3C4043"/>
<path d="M31.8327 20.927C32.843 20.927 33.641 21.2051 34.2268 21.7526C34.8126 22.3 35.1012 23.0647 35.1012 24.0293V28.6264H33.7938V27.5922H33.7344C33.1656 28.4439 32.4185 28.8697 31.4762 28.8697C30.6782 28.8697 29.999 28.6264 29.4642 28.1397C28.9378 27.6878 28.6407 27.0187 28.6577 26.3148C28.6577 25.5414 28.9463 24.9331 29.5151 24.4725C30.0839 24.012 30.848 23.786 31.7988 23.786C32.6138 23.786 33.276 23.9424 33.8023 24.2379V23.9164C33.8023 23.4384 33.5986 22.9865 33.242 22.6737C32.877 22.3435 32.41 22.161 31.9261 22.161C31.1621 22.161 30.5593 22.4912 30.1179 23.1516L28.9124 22.3782C29.5576 21.4136 30.5339 20.927 31.8327 20.927ZM30.0669 26.3409C30.0669 26.7059 30.2367 27.0448 30.5169 27.2533C30.8225 27.4967 31.196 27.627 31.5781 27.6183C32.1553 27.6183 32.7072 27.3837 33.1147 26.9666C33.5646 26.5321 33.7938 26.0194 33.7938 25.4284C33.3693 25.0808 32.7751 24.907 32.011 24.9157C31.4592 24.9157 30.9923 25.0548 30.6187 25.3242C30.2537 25.5935 30.0669 25.9325 30.0669 26.3409Z" fill="#3C4043"/>
<path fill-rule="evenodd" clip-rule="evenodd" d="M42.6046 21.1704L38.0373 31.9026H36.628L38.3259 28.1485L35.3291 21.1704H36.8148L38.9796 26.5235H39.0051L41.1189 21.1704H42.6046Z" fill="#3C4043"/>
<path fill-rule="evenodd" clip-rule="evenodd" d="M17.5711 23.256C17.5711 22.8302 17.5371 22.4044 17.4692 21.9873H11.7048V24.3944H15.0073C14.8714 25.1679 14.43 25.8631 13.7848 26.2976V27.8618H15.7543C16.9089 26.7755 17.5711 25.1679 17.5711 23.256Z" fill="#4285F4"/>
<path fill-rule="evenodd" clip-rule="evenodd" d="M11.7053 29.374C13.3523 29.374 14.7446 28.8178 15.7548 27.8619L13.7853 26.2977C13.2334 26.6801 12.5288 26.8973 11.7053 26.8973C10.1093 26.8973 8.75948 25.7937 8.27557 24.3164H6.24658V25.9328C7.2823 28.0444 9.39619 29.374 11.7053 29.374Z" fill="#34A853"/>
<path fill-rule="evenodd" clip-rule="evenodd" d="M8.27538 24.3162C8.0207 23.5427 8.0207 22.6998 8.27538 21.9177V20.3101H6.24639C5.37197 22.0741 5.37197 24.1597 6.24639 25.9238L8.27538 24.3162Z" fill="#FBBC04"/>
<path fill-rule="evenodd" clip-rule="evenodd" d="M11.7053 19.3369C12.5798 19.3195 13.4202 19.6584 14.0484 20.2754L15.7973 18.4853C14.6851 17.4251 13.225 16.8429 11.7053 16.8602C9.39619 16.8602 7.2823 18.1985 6.24658 20.3102L8.27557 21.9265C8.75948 20.4405 10.1093 19.3369 11.7053 19.3369Z" fill="#EA4335"/>
</svg>
