<?xml version="1.0" encoding="UTF-8"?>
<svg width="30px" height="30px" viewBox="0 0 30 30" version="1.1" xmlns="http://www.w3.org/2000/svg" xmlns:xlink="http://www.w3.org/1999/xlink">
    <!-- Generator: Sketch 47.1 (45422) - http://www.bohemiancoding.com/sketch -->
    <title>icon_bank-uralskiy_l_color</title>
    <desc>Created with Sketch.</desc>
    <defs></defs>
    <g id="Page-1" stroke="none" stroke-width="1" fill="none" fill-rule="evenodd">
        <g id="icon_bank-uralskiy_l_color">
            <g>
                <rect id="_ph_" opacity="0" x="0" y="0" width="30" height="30"></rect>
                <path d="M5.615,19.92 C5.254,19.288 4.983,18.566 4.983,17.753 L4.983,8.907 C3.809,9.178 2.906,9.99 2.365,10.983 L2.365,16.58 C3.07985223,18.0005122 4.2145395,19.1666216 5.615,19.92" id="Shape" fill="#D4132F" fill-rule="nonzero"></path>
                <path d="M6.066,7.823 L8.684,7.823 C9.406,7.823 10.038,7.191 10.038,6.469 C10.038,5.747 9.406,5.206 8.684,5.206 L6.066,5.206 C5.08107392,5.19490347 4.13324903,5.58126481 3.43675692,6.27775692 C2.74026481,6.97424903 2.35390347,7.92207392 2.365,8.907 L2.365,10.081 C2.997,8.726 4.441,7.823 6.066,7.823" id="Shape" fill="#940449" fill-rule="nonzero"></path>
                <path d="M14.1,5.206 L14.1,17.754 C14.1,20.191 12.024,22.177 9.586,22.177 C6.697,22.177 3.809,20.552 2.364,17.844 C2.454,21.635 5.614,24.795 9.586,24.795 C13.558,24.795 16.808,21.636 16.808,17.754 L16.808,7.824 L14.1,5.206 Z" id="Shape" fill="#2865A7" fill-rule="nonzero"></path>
                <path d="M20.78,5.206 L14.1,5.206 L16.808,7.824 L21.141,7.824 C23.037,7.823 24.933,8.636 26.377,9.9 C25.835,7.192 23.579,5.206 20.78,5.206 Z" id="Shape" fill="#B10540" fill-rule="nonzero"></path>
                <path d="M26.106,12.879 C26.377,12.157 26.467,11.254 26.467,10.803 C25.655,10.081 24.481,9.359 23.217,8.998 C23.578,9.449 23.849,10.262 23.849,10.894 C23.849,11.526 23.668,12.068 23.307,12.699 C22.946,13.241 22.946,13.963 23.578,14.324 C24.752,14.956 25.564,16.129 25.654,17.393 C25.744,18.296 25.564,19.289 25.022,20.191 C26.466,19.469 27.64,18.295 28.272,16.941 C28.092,15.496 27.46,14.142 26.106,12.879" id="Shape" fill="#D4132F" fill-rule="nonzero"></path>
                <path d="M21.773,22.086 L17.53,22.086 C16.808,22.086 16.176,22.718 16.176,23.44 C16.176,24.162 16.808,24.794 17.53,24.794 L21.773,24.794 C25.384,24.794 28.453,21.725 28.363,17.933 C27.46,20.281 25.023,22.086 21.773,22.086" id="Shape" fill="#940449" fill-rule="nonzero"></path>
            </g>
        </g>
    </g>
</svg>