<?xml version="1.0" encoding="UTF-8"?>
<svg width="18px" height="18px" viewBox="0 0 18 18" version="1.1" xmlns="http://www.w3.org/2000/svg" xmlns:xlink="http://www.w3.org/1999/xlink">
    <!-- Generator: Sketch 47.1 (45422) - http://www.bohemiancoding.com/sketch -->
    <title>icon_mastercard_s_color</title>
    <desc>Created with Sketch.</desc>
    <defs></defs>
    <g id="Page-1" stroke="none" stroke-width="1" fill="none" fill-rule="evenodd">
        <g id="icon_mastercard_s_color">
            <g>
                <rect id="_ph_" x="0" y="0" width="18" height="18"></rect>
                <path d="M9.02727439,13.298989 C9.92356139,14.0268946 11.0734109,14.4642857 12.3272761,14.4642857 C15.1891152,14.4642857 17.5090942,12.1857349 17.5090942,9.375 C17.5090942,6.56426511 15.1891152,4.28571429 12.3272761,4.28571429 C11.0734109,4.28571429 9.92356139,4.72310537 9.02727439,5.45101105 C10.1766853,6.38448739 10.9090909,7.79573979 10.9090909,9.375 C10.9090909,10.9542602 10.1766853,12.3655126 9.02727439,13.298989 Z" id="Combined-Shape" fill="#F79E1B"></path>
                <path d="M8.97272561,5.45101105 C8.07643861,4.72310537 6.92658907,4.28571429 5.67272394,4.28571429 C2.81088479,4.28571429 0.490905762,6.56426511 0.490905762,9.375 C0.490905762,12.1857349 2.81088479,14.4642857 5.67272394,14.4642857 C6.92658907,14.4642857 8.07643861,14.0268946 8.97272561,13.298989 C7.82331473,12.3655126 7.09090909,10.9542602 7.09090909,9.375 C7.09090909,7.79573979 7.82331473,6.38448739 8.97272561,5.45101105 Z" id="Oval-2" fill="#EB001B"></path>
                <path d="M9,5.42901296 C10.1650865,6.36223633 10.9090909,7.78328393 10.9090909,9.375 C10.9090909,10.9667161 10.1650865,12.3877637 9,13.320987 C7.83491347,12.3877637 7.09090909,10.9667161 7.09090909,9.375 C7.09090909,7.78328393 7.83491347,6.36223633 9,5.42901296 Z" id="Combined-Shape" fill="#FF5F00"></path>
            </g>
        </g>
    </g>
</svg>