<svg width="30" height="10" viewBox="0 0 30 10" fill="none" xmlns="http://www.w3.org/2000/svg">
<g clip-path="url(#clip0)">
<path fill-rule="evenodd" clip-rule="evenodd" d="M8.08406 0.75V0.753708C8.08035 0.753708 6.91224 0.75 6.60074 1.86619C6.3152 2.88968 5.51051 5.71539 5.48826 5.79326H5.26576C5.26576 5.79326 4.44252 2.90451 4.15328 1.86248C3.84178 0.746292 2.66996 0.75 2.66996 0.75H0V9.24197H2.66996V4.1987H2.78121H2.89246L4.44994 9.24197H6.30408L7.86156 4.20241H8.08406V9.24197H10.754V0.75H8.08406Z" fill="white"/>
<path fill-rule="evenodd" clip-rule="evenodd" d="M17.8368 0.75C17.8368 0.75 17.0544 0.820457 16.6873 1.63999L14.7961 5.79326H14.5736V0.75H11.9036V9.24197H14.4252C14.4252 9.24197 15.2448 9.1678 15.6119 8.35198L17.466 4.1987H17.6885V9.24197H20.3585V0.75H17.8368Z" fill="white"/>
<path fill-rule="evenodd" clip-rule="evenodd" d="M21.5451 4.60657V9.24192H24.2151V6.53487H27.1075C28.3683 6.53487 29.4363 5.73018 29.8331 4.60657H21.5451Z" fill="white"/>
<path fill-rule="evenodd" clip-rule="evenodd" d="M27.1076 0.75H21.1706C21.4673 2.36681 22.6799 3.66471 24.2485 4.08745C24.6045 4.18387 24.979 4.23578 25.3647 4.23578H29.9407C29.9815 4.04295 30 3.84642 30 3.64246C30 2.04419 28.7058 0.75 27.1076 0.75Z" fill="white"/>
</g>
<defs>
<clipPath id="clip0">
<rect y="0.75" width="30" height="8.49197" fill="white"/>
</clipPath>
</defs>
</svg>
