<svg xmlns="http://www.w3.org/2000/svg" width="24" height="24" viewBox="0 0 24 24" fill="none"><rect width="24" height="24" fill="none"/>
<path d="M12.1821 6.56299C13.4917 6.54176 14.7571 7.02672 15.7047 7.91295L18.3255 5.34428C16.6638 3.8142 14.462 2.97424 12.1821 3.0006C8.71089 3.00076 5.53644 4.91935 3.97776 7.9592C2.67407 10.5018 2.67409 13.4989 3.97776 16.0415C5.5368 19.0808 8.71117 21.0001 12.1821 21C14.6601 21 16.7466 20.2025 18.2681 18.8276C20.0013 17.2614 21 14.944 21 12.2054C21.001 11.5921 20.9481 10.9798 20.8418 10.3754H12.1822V13.8416H17.142C16.7141 16.1758 14.4614 17.4389 12.1821 17.4389C8.4771 17.4389 5.87112 13.6436 7.02717 10.278C7.75415 8.14559 9.78704 6.56299 12.1821 6.56299Z" fill="black"/>
</svg>
