<svg xmlns="http://www.w3.org/2000/svg" width="48" height="18" viewBox="0 0 48 18" fill="none"><rect width="48" height="18" fill="none"/>
<path d="M46.695 14.5775V14.2875H46.8125V14.2275H46.515V14.2875H46.6325V14.5775H46.695ZM47.2725 14.5775V14.2275H47.1825L47.0775 14.4675L46.9725 14.2275H46.88V14.5775H46.945V14.315L47.0425 14.5425H47.11L47.2075 14.315V14.58H47.2725V14.5775ZM32.195 16.315C32.265 16.375 32.34 16.435 32.4125 16.495C30.985 17.445 29.2725 18 27.43 18C22.46 18 18.43 13.97 18.43 9C18.43 4.03 22.46 0 27.43 0C29.2725 0 30.985 0.555 32.4125 1.505C32.34 1.565 32.265 1.6225 32.195 1.685C30.075 3.53 28.8575 6.195 28.8575 9C28.8575 11.805 30.075 14.47 32.195 16.315ZM38.555 0C36.7125 0 35 0.555 33.5725 1.505C33.645 1.565 33.72 1.6225 33.79 1.685C35.91 3.53 37.125 6.195 37.125 9C37.125 11.805 35.91 14.47 33.79 16.315C33.72 16.375 33.645 16.435 33.5725 16.495C35 17.445 36.7125 18 38.555 18C43.525 18 47.555 13.97 47.555 9C47.555 4.03 43.525 0 38.555 0ZM32.9925 1.9275C32.8775 2.02 32.7625 2.1125 32.6525 2.21C30.755 3.86 29.555 6.29 29.555 9C29.555 11.71 30.755 14.14 32.6525 15.79C32.7625 15.8875 32.8775 15.98 32.9925 16.0725C33.1075 15.98 33.2225 15.8875 33.3325 15.79C35.23 14.14 36.43 11.71 36.43 9C36.43 6.29 35.23 3.86 33.3325 2.21C33.2225 2.1125 33.1075 2.02 32.9925 1.9275Z" fill="#0B1F35"/>
</svg>
