<svg xmlns="http://www.w3.org/2000/svg" width="30" height="20" viewBox="0 0 30 20" fill="none"><rect width="30" height="20" fill="none"/>
<path d="M9.25781 11.5227H10.814C11.7539 11.5227 12.451 12.2447 12.451 13.141C12.451 14.0436 11.7539 14.7656 10.8077 14.7656H10.1043V16.0667H9.25781V11.5227ZM10.1043 12.3068V13.9815H10.7516C11.256 13.9815 11.5984 13.6079 11.5984 13.141C11.5984 12.6804 11.256 12.3068 10.7516 12.3068H10.1043Z" fill="black"/>
<path d="M12.6131 14.249C12.6131 13.0415 13.4971 12.3505 14.4183 12.3505C14.8978 12.3505 15.327 12.5497 15.5884 12.8609V12.4252H16.4288V16.0666H15.5884V15.5934C15.3209 15.9297 14.8852 16.1413 14.4057 16.1413C13.5283 16.1413 12.6131 15.4379 12.6131 14.249ZM15.6321 14.2367C15.6321 13.6204 15.1652 13.116 14.5428 13.116C13.9204 13.116 13.441 13.6078 13.441 14.2367C13.441 14.8714 13.9204 15.3695 14.5428 15.3695C15.1652 15.3695 15.6321 14.8654 15.6321 14.2367Z" fill="black"/>
<path d="M18.1975 15.8862L16.7035 12.4253H17.5998L18.6146 14.8779L19.5731 12.4253H20.4571L18.2846 17.7473H17.432L18.1975 15.8862Z" fill="black"/>
<path d="M24.5555 4.51146L24.6133 7.84754H24.59L23.6131 4.51146H22.0359V8.71745H23.0808L23.0223 5.26638H23.0455L24.0947 8.71745H25.608V4.51146H24.5555Z" fill="black"/>
<path d="M4.54941 4.51166L3.76157 8.7614H4.91041L5.49165 4.90536L5.51525 4.90515L6.08177 8.7614H7.22368L6.43996 4.51166H4.54941Z" fill="black"/>
<path d="M10.9721 4.51166L10.4478 7.76112H10.424L9.90053 4.51166H8.16699L8.07322 8.7614H9.13673L9.16337 4.9411H9.18719L9.89685 8.7614H10.9755L11.6854 4.94153L11.7088 4.9411L11.7354 8.7614H12.7987L12.7047 4.51166H10.9721Z" fill="black"/>
<path d="M1.97328 7.56255C2.01486 7.66542 2.00165 7.79708 1.98172 7.87699C1.94707 8.01841 1.85092 8.16285 1.56766 8.16285C1.30195 8.16285 1.14061 8.0091 1.14061 7.77759L1.13975 7.3657H0V7.69335C0 8.64123 0.74561 8.92773 1.54449 8.92773C2.31306 8.92773 2.94541 8.66548 3.04654 7.95604C3.09808 7.58919 3.0604 7.34881 3.04199 7.25937C2.86247 6.36932 1.25019 6.10403 1.13 5.60638C1.10964 5.51997 1.11463 5.43054 1.12524 5.38311C1.15555 5.24646 1.24781 5.09769 1.51353 5.09769C1.76235 5.09769 1.90831 5.25123 1.90831 5.48251V5.74606H2.96901V5.44656C2.96901 4.52099 2.13721 4.37611 1.53583 4.37611C0.780693 4.37611 0.162852 4.62667 0.0500251 5.31966C0.0194904 5.50915 0.0151592 5.67871 0.0599867 5.89289C0.244278 6.7615 1.75434 7.01249 1.97328 7.56255Z" fill="black"/>
<path d="M15.7904 7.55446C15.8309 7.65668 15.8186 7.78618 15.7987 7.86566C15.7642 8.00556 15.6692 8.14827 15.3889 8.14827C15.1256 8.14827 14.9656 7.99646 14.9656 7.76669L14.9647 7.35956H13.8367L13.8362 7.68397C13.8362 8.62253 14.5751 8.90557 15.3656 8.90557C16.127 8.90557 16.7528 8.64635 16.8529 7.94362C16.904 7.58067 16.8665 7.3431 16.8483 7.25388C16.6701 6.37249 15.0741 6.11002 14.9556 5.61735C14.9348 5.53224 14.94 5.44389 14.9502 5.39668C14.9803 5.26176 15.0719 5.11385 15.3346 5.11385C15.5817 5.11385 15.7259 5.26544 15.7259 5.49521V5.75552H16.776V5.45948C16.776 4.54301 15.9524 4.40008 15.3569 4.40008C14.6095 4.40008 13.9978 4.64717 13.8865 5.33388C13.8557 5.52142 13.8516 5.68925 13.8962 5.90083C14.0783 6.76143 15.5739 7.0096 15.7904 7.55446Z" fill="black"/>
<path d="M19.3584 8.12531C19.654 8.12531 19.7447 7.92175 19.766 7.81715C19.7748 7.77146 19.7764 7.70952 19.7759 7.65495V4.51096H20.8518V7.55815C20.8529 7.63632 20.8449 7.79614 20.841 7.83772C20.7667 8.63076 20.1395 8.88803 19.3584 8.88803C18.5768 8.88803 17.9499 8.63076 17.8754 7.83772C17.8717 7.79614 17.8635 7.63632 17.8657 7.55815V4.51096H18.9407V7.65495C18.9394 7.70952 18.9415 7.77146 18.9506 7.81715C18.9714 7.92175 19.0626 8.12531 19.3584 8.12531Z" fill="black"/>
<path d="M28.2225 8.08096C28.5302 8.08096 28.6374 7.88606 28.6569 7.77258C28.6656 7.72451 28.668 7.66517 28.6671 7.61125V6.99406H28.2314V6.37448H29.7367V7.51379C29.736 7.5937 29.7341 7.65218 29.7213 7.79337C29.6511 8.56757 28.98 8.8439 28.2268 8.8439C27.4732 8.8439 26.8027 8.56757 26.7317 7.79337C26.7198 7.65218 26.7174 7.5937 26.7172 7.51379L26.7174 5.72567C26.7174 5.65031 26.7265 5.51713 26.7354 5.4461C26.83 4.65154 27.4732 4.39579 28.2271 4.39579C28.9807 4.39579 29.6405 4.64916 29.7187 5.4461C29.7326 5.58145 29.7287 5.72567 29.7287 5.72567V5.86752H28.6569V5.62931C28.6569 5.62931 28.6563 5.52839 28.6435 5.46732C28.6242 5.37377 28.5434 5.15894 28.2186 5.15894C27.9096 5.15894 27.8188 5.36251 27.795 5.46732C27.7831 5.52341 27.7781 5.5992 27.7781 5.6685V7.61125C27.7777 7.66517 27.7796 7.72451 27.7879 7.77258C27.8078 7.88606 27.9152 8.08096 28.2225 8.08096Z" fill="black"/>
</svg>
