<svg xmlns="http://www.w3.org/2000/svg" width="24" height="24" viewBox="0 0 24 24" fill="none"><rect width="24" height="24" fill="none"/>
<path fill-rule="evenodd" clip-rule="evenodd" d="M12 22C17.5228 22 22 17.5228 22 12C22 6.47715 17.5228 2 12 2C6.47715 2 2 6.47715 2 12C2 17.5228 6.47715 22 12 22ZM16.8642 7.83868C17.0179 7.99242 17.0152 8.32557 16.9807 8.55592L15.8041 16.25C15.7466 16.6246 15.5729 17.0843 15.2726 17.2328C14.9414 17.3966 14.4379 17.2713 14.0914 17.0375L10.7854 14.8081C10.4331 14.5704 10.3891 14.0686 10.6948 13.7732L14.0819 10.5003C14.1747 10.4107 14.2256 10.2388 14.1485 10.1476C14.0719 10.057 13.8834 10.068 13.7847 10.1354L9.60489 12.9869C8.94758 13.4353 8.12471 13.5677 7.35991 13.3482L5.86755 12.901C5.62219 12.8246 5.39951 12.6528 5.39215 12.4865C5.385 12.3247 5.54979 12.1488 5.82733 12.0161L15.8955 7.79677C16.2007 7.66721 16.6698 7.64202 16.8642 7.83868Z" fill="black"/>
</svg>
