<svg xmlns="http://www.w3.org/2000/svg" width="108" height="24" viewBox="0 0 108 24" fill="none"><rect width="108" height="24" fill="none"/>
<path d="M61.5348 7.17712L61.6794 15.551H61.6209L59.1784 7.17712H55.2351V17.7345H57.8475L57.7013 9.07204H57.7593L60.3826 17.7345H64.1662V7.17712H61.5348Z" fill="black"/>
<path d="M11.5146 7.17762L9.54483 17.8448H12.4172L13.8705 8.16585L13.9295 8.16531L15.3459 17.8448H18.201L16.2415 7.17762H11.5146Z" fill="black"/>
<path d="M27.5728 7.17762L26.262 15.334H26.2024L24.8937 7.17762H20.5595L20.325 17.8448H22.9841L23.0507 8.25554H23.1102L24.8845 17.8448H27.5815L29.3564 8.25663L29.4148 8.25554L29.4814 17.8448H32.1399L31.905 7.17762H27.5728Z" fill="black"/>
<path d="M5.07368 14.8356C5.17763 15.0938 5.14461 15.4243 5.09479 15.6249C5.00816 15.9799 4.76776 16.3424 4.05954 16.3424C3.39519 16.3424 2.99181 15.9565 2.99181 15.3754L2.98964 14.3415H0.139999V15.1639C0.139999 17.5432 2.00421 18.2624 4.00161 18.2624C5.92321 18.2624 7.50424 17.6041 7.75709 15.8233C7.88596 14.9025 7.79175 14.2991 7.74572 14.0746C7.29686 11.8405 3.26578 11.1746 2.96528 9.92546C2.91438 9.70858 2.92683 9.48408 2.95336 9.36503C3.02917 9.02203 3.25982 8.64859 3.92418 8.64859C4.54631 8.64859 4.91124 9.03399 4.91124 9.61454V10.2761H7.56326V9.5243C7.56326 7.20104 5.48355 6.83739 3.97995 6.83739C2.09192 6.83739 0.547169 7.46631 0.265074 9.20576C0.18873 9.6814 0.177901 10.107 0.289981 10.6446C0.750753 12.8249 4.52627 13.4549 5.07368 14.8356Z" fill="black"/>
<path d="M39.6199 14.8153C39.7212 15.0719 39.6903 15.397 39.6405 15.5964C39.5544 15.9476 39.3167 16.3058 38.6161 16.3058C37.9577 16.3058 37.5576 15.9248 37.5576 15.348L37.5554 14.3261H34.735L34.7339 15.1404C34.7339 17.4963 36.5813 18.2067 38.5576 18.2067C40.4614 18.2067 42.0261 17.5561 42.2763 15.7921C42.4041 14.8811 42.3104 14.2848 42.2649 14.0608C41.8193 11.8485 37.8288 11.1896 37.5327 9.953C37.4807 9.73937 37.4937 9.51759 37.5191 9.39909C37.5944 9.06044 37.8234 8.68918 38.4802 8.68918C39.098 8.68918 39.4586 9.06968 39.4586 9.64642V10.2998H42.0841V9.55673C42.0841 7.2563 40.0249 6.89754 38.536 6.89754C36.6674 6.89754 35.1378 7.51776 34.8595 9.24145C34.7826 9.71219 34.7724 10.1335 34.8839 10.6645C35.3393 12.8247 39.0785 13.4477 39.6199 14.8153Z" fill="black"/>
<path d="M48.5407 16.2482C49.2798 16.2482 49.5067 15.7372 49.5597 15.4747C49.5819 15.36 49.5857 15.2045 49.5846 15.0675V7.17585H52.2745V14.8246C52.2773 15.0208 52.2572 15.422 52.2475 15.5263C52.0618 17.5169 50.4937 18.1627 48.5407 18.1627C46.5866 18.1627 45.0191 17.5169 44.8329 15.5263C44.8237 15.422 44.8031 15.0208 44.8085 14.8246V7.17585H47.4963V15.0675C47.493 15.2045 47.4984 15.36 47.5212 15.4747C47.5732 15.7372 47.8011 16.2482 48.5407 16.2482Z" fill="black"/>
<path d="M70.7031 16.1369C71.4725 16.1369 71.7405 15.6477 71.7893 15.3628C71.8109 15.2421 71.8169 15.0932 71.8147 14.9578V13.4086H70.7253V11.8535H74.4889V14.7132C74.4873 14.9138 74.4824 15.0606 74.4505 15.415C74.2751 17.3583 72.5971 18.0519 70.714 18.0519C68.8297 18.0519 67.1534 17.3583 66.9758 15.415C66.946 15.0606 66.9401 14.9138 66.9395 14.7132L66.9401 10.2249C66.9401 10.0357 66.9628 9.70143 66.985 9.52314C67.2216 7.52874 68.8297 6.88677 70.7145 6.88677C72.5987 6.88677 74.2485 7.52276 74.444 9.52314C74.4786 9.86287 74.4689 10.2249 74.4689 10.2249V10.5809H71.7893V9.98301C71.7893 9.98301 71.7877 9.7297 71.7557 9.57641C71.7075 9.34158 71.5056 8.80235 70.6934 8.80235C69.9207 8.80235 69.6939 9.31331 69.6343 9.57641C69.6045 9.71719 69.5921 9.90745 69.5921 10.0814V14.9578C69.591 15.0932 69.5959 15.2421 69.6164 15.3628C69.6663 15.6477 69.9348 16.1369 70.7031 16.1369Z" fill="black"/>
<path d="M82.5047 12.2279V17.8285H80.728V4.00079H85.4402C86.5774 3.97887 87.6762 4.41281 88.4916 5.20589C89.2674 5.92751 89.7247 6.92786 89.7628 7.98675C89.8009 9.04563 89.4166 10.0762 88.6946 10.8517C88.6295 10.9213 88.5611 10.9897 88.4916 11.0548C87.6676 11.8405 86.6504 12.233 85.4402 12.2323H82.5047V12.2279ZM82.5047 5.70029V10.5284H85.4788C86.1393 10.548 86.7775 10.2884 87.2368 9.81329C87.9149 9.11093 88.1063 8.07075 87.7227 7.17302C87.3391 6.27528 86.4551 5.69464 85.4788 5.69918L82.5047 5.69916V5.70029Z" fill="black"/>
<path d="M93.8604 8.05642C95.1736 8.05642 96.2102 8.40735 96.9702 9.10922C97.7302 9.81109 98.1098 10.7734 98.1091 11.9962V17.8285H96.4096V16.5153H96.3324C95.5966 17.5968 94.6181 18.1375 93.3969 18.1375C92.3543 18.1375 91.4822 17.8285 90.7803 17.2105C90.0981 16.6361 89.7114 15.7847 89.7275 14.893C89.7275 13.9138 90.0975 13.135 90.8377 12.5568C91.5778 11.9785 92.5659 11.6886 93.8019 11.6872C94.8569 11.6872 95.7258 11.8803 96.4085 12.2665V11.8604C96.4144 11.2506 96.1447 10.6708 95.6746 10.2823C95.204 9.86032 94.5917 9.63101 93.9597 9.64004C92.9672 9.64004 92.1818 10.0587 91.6036 10.8959L90.0387 9.91041C90.8995 8.67442 92.1734 8.05642 93.8604 8.05642ZM91.5616 14.9317C91.5594 15.3904 91.7789 15.822 92.1509 16.0904C92.544 16.3993 93.0317 16.563 93.5315 16.5539C94.2812 16.5525 94.9999 16.2541 95.5301 15.724C96.1186 15.17 96.4129 14.52 96.4129 13.774C95.8589 13.3326 95.0864 13.1137 94.0954 13.1174C93.3737 13.1174 92.7719 13.2914 92.29 13.6394C91.8033 13.987 91.5616 14.4119 91.5616 14.9317Z" fill="black"/>
<path d="M107.865 8.36539L101.932 22H100.098L102.299 17.2348L98.3983 8.37091H100.33L103.149 15.1689H103.188L105.93 8.37091L107.865 8.36539Z" fill="black"/>
</svg>
