<svg xmlns="http://www.w3.org/2000/svg" width="24" height="24" viewBox="0 0 24 24" fill="none"><rect width="24" height="24" fill="none"/>
<path d="M15.1273 4.86546C15.8516 3.95949 16.3432 2.74306 16.2135 1.5C15.1532 1.55272 13.8593 2.19951 13.1102 3.10619C12.4376 3.88261 11.8423 5.14998 11.9975 6.34093C13.1878 6.44417 14.3769 5.746 15.1273 4.86546Z" fill="black"/>
<path d="M16.2 6.57346C14.4715 6.4705 13.0019 7.55448 12.1764 7.55448C11.3505 7.55448 10.0865 6.62535 8.7193 6.65039C6.93985 6.67653 5.28874 7.68264 4.38574 9.28283C2.52844 12.484 3.8956 17.2324 5.70173 19.8396C6.57883 21.1295 7.63588 22.5497 9.0287 22.4987C10.3447 22.447 10.8605 21.6465 12.4601 21.6465C14.0586 21.6465 14.5232 22.4987 15.9163 22.4728C17.3609 22.447 18.2641 21.1824 19.1412 19.8913C20.1473 18.4209 20.5592 17.0011 20.5852 16.9232C20.5592 16.8974 17.7995 15.8387 17.7739 12.6641C17.7479 10.006 19.9406 8.74167 20.0438 8.66326C18.8055 6.83185 16.8708 6.62535 16.2 6.57346Z" fill="black"/>
</svg>
