<svg xmlns="http://www.w3.org/2000/svg" width="48" height="18" viewBox="0 0 48 18" fill="none"><rect width="48" height="18" fill="none"/>
<path fill-rule="evenodd" clip-rule="evenodd" d="M19.0148 2.00117L13.1481 15.9989H9.32003L6.43319 4.82767C6.25769 4.13939 6.10527 3.88779 5.57214 3.59803C4.70264 3.12592 3.26506 2.6826 2 2.4077L2.0866 2.00117H8.24783C9.03301 2.00117 9.73935 2.52378 9.91759 3.42825L11.4425 11.5287L15.2107 2.00117H19.0148ZM34.0134 11.4286C34.0289 7.73417 28.904 7.53056 28.9397 5.88022C28.9502 5.37772 29.4289 4.84413 30.4753 4.70725C30.995 4.6396 32.4236 4.58751 34.0461 5.33407L34.6814 2.36587C33.81 2.04938 32.6887 1.745 31.2941 1.745C27.7153 1.745 25.1959 3.64808 25.1747 6.37267C25.1523 8.38772 26.9729 9.51156 28.3453 10.1818C29.7555 10.868 30.2297 11.3075 30.2235 11.921C30.2144 12.8607 29.098 13.2745 28.0572 13.2912C26.2361 13.3198 25.1797 12.7997 24.3374 12.4071L23.6813 15.474C24.5271 15.8629 26.0887 16.2004 27.7087 16.2178C31.5121 16.2178 34.0008 14.3383 34.0134 11.4286ZM43.4637 15.9989H46.813L43.8903 2.00117H40.7985C40.104 2.00117 39.5179 2.40541 39.2572 3.02812L33.8247 15.9989H37.6267L38.3819 13.9084H43.0274L43.4637 15.9989ZM39.4235 11.0394L41.33 5.7831L42.4271 11.0394H39.4235ZM24.1891 2.00117L21.1944 15.9989H17.5736L20.5685 2.00117H24.1891Z" fill="#0B1F35"/>
</svg>
