<svg xmlns="http://www.w3.org/2000/svg" width="18" height="18" viewBox="0 0 18 18" fill="none"><rect width="18" height="18" fill="none"/>
<path d="M8.99949 14.9986C12.41 14.9986 15.1747 12.3126 15.1747 8.99931C15.1747 5.68597 12.41 3 8.99949 3C5.58907 3 2.82436 5.68597 2.82436 8.99931C2.82436 12.3126 5.58907 14.9986 8.99949 14.9986Z" fill="#FFC800"/>
<path fill-rule="evenodd" clip-rule="evenodd" d="M9.78136 3.44002C10.2065 4.15472 9.17893 5.50497 7.48541 6.45363C5.79191 7.40346 4.07566 7.5932 3.65049 6.87733C3.63252 6.84358 3.61575 6.80633 3.60378 6.76792C3.49359 6.43501 3.62533 6.00433 3.94272 5.55036C3.99422 5.47936 4.04691 5.40952 4.10081 5.34084C4.57988 4.7344 5.18709 4.20827 5.91048 3.80319C6.63387 3.39695 7.40637 3.15018 8.18603 3.05008C8.27705 3.03728 8.36569 3.02796 8.45195 3.02214C9.0148 2.9814 9.46393 3.08616 9.70587 3.34457C9.73462 3.37484 9.75977 3.40743 9.78136 3.44002ZM11.6563 13.4691C9.5592 14.6448 7.28484 14.8554 5.83207 14.1512C7.69205 15.2279 10.0802 15.3211 12.0875 14.1955C14.0948 13.0687 15.2062 11.0131 15.1762 8.9097C15.0781 10.4834 13.7523 12.2923 11.6563 13.4691ZM9.06253 9.10402C11.6519 7.65136 13.1502 5.46186 12.4076 4.21288C12.2854 4.00801 12.1154 3.83807 11.9058 3.70421C12.6591 4.09299 13.337 4.63774 13.8819 5.32218C13.9742 5.43625 14.0616 5.55614 14.1454 5.67836C14.367 6.05434 14.464 6.4792 14.4485 6.93084C14.3946 8.53016 12.9346 10.4659 10.6387 11.7545C8.34154 13.043 5.88513 13.3026 4.43236 12.5471C4.02036 12.333 3.68981 12.0373 3.46585 11.6613C3.46465 11.659 3.46315 11.6564 3.46165 11.6538C3.46016 11.6512 3.45866 11.6485 3.45746 11.6462C3.39758 11.5275 3.34129 11.4076 3.28979 11.2865C2.94366 10.4764 2.79515 9.62316 2.82749 8.78391C2.84066 9.03301 2.90654 9.26465 3.0299 9.47301C3.77125 10.722 6.47318 10.5567 9.06253 9.10402ZM12.4088 4.21521L12.4076 4.21288C12.4076 4.21288 12.4088 4.21404 12.4088 4.21521Z" fill="black"/>
<path d="M8.99949 14.9986C12.41 14.9986 15.1747 12.3126 15.1747 8.99931C15.1747 5.68597 12.41 3 8.99949 3C5.58907 3 2.82436 5.68597 2.82436 8.99931C2.82436 12.3126 5.58907 14.9986 8.99949 14.9986Z" fill="url(#paint0_radial_53737_8762)"/>
<defs>
<radialGradient id="paint0_radial_53737_8762" cx="0" cy="0" r="1" gradientUnits="userSpaceOnUse" gradientTransform="translate(8.99984 8.99936) scale(6.175 6.00151)">
<stop offset="0.5" stop-color="white" stop-opacity="0"/>
<stop offset="1" stop-color="white" stop-opacity="0.35"/>
</radialGradient>
</defs>
</svg>
