<svg xmlns="http://www.w3.org/2000/svg" width="12" height="12" viewBox="0 0 12 12" fill="none"><rect width="12" height="12" fill="none"/>
<path fill-rule="evenodd" clip-rule="evenodd" d="M8.49464 0.0862323C8.81565 -0.0912846 9.22612 0.0140618 9.41145 0.32153C10.4521 2.048 11 4.00644 11 6C11 7.99356 10.4521 9.952 9.41145 11.6785C9.22612 11.9859 8.81565 12.0913 8.49464 11.9138C8.17363 11.7362 8.06364 11.3431 8.24898 11.0356C9.17184 9.5046 9.65769 7.76787 9.65769 6C9.65769 4.23213 9.17184 2.4954 8.24898 0.964376C8.06364 0.656907 8.17363 0.263749 8.49464 0.0862323ZM6.03374 1.26478C6.35474 1.08727 6.76522 1.19261 6.95055 1.50008C7.77524 2.86823 8.2094 4.4202 8.2094 6C8.2094 7.5798 7.77524 9.13177 6.95055 10.4999C6.76522 10.8074 6.35474 10.9127 6.03374 10.7352C5.71273 10.5577 5.60274 10.1645 5.78808 9.85707C6.49495 8.68437 6.86709 7.35412 6.86709 6C6.86709 4.64588 6.49495 3.31562 5.78808 2.14293C5.60274 1.83546 5.71273 1.4423 6.03374 1.26478ZM3.68735 2.34544C4.00921 2.16933 4.41917 2.27648 4.60304 2.58475C5.21484 3.61052 5.53665 4.7736 5.53665 5.95714C5.53665 7.14069 5.21484 8.30376 4.60304 9.32953C4.41917 9.63781 4.00921 9.74495 3.68735 9.56884C3.3655 9.39273 3.25364 9.00006 3.43751 8.69178C3.93314 7.86078 4.19434 6.91761 4.19434 5.95714C4.19434 4.99667 3.93314 4.0535 3.43751 3.2225C3.25364 2.91423 3.3655 2.52155 3.68735 2.34544ZM1.30124 3.53512C1.6105 3.3394 2.02685 3.42086 2.23119 3.71708C2.70148 4.39881 2.95301 5.18988 2.95301 6C2.95301 6.81012 2.70148 7.60119 2.23119 8.28292C2.02685 8.57913 1.6105 8.6606 1.30124 8.46488C0.99198 8.26916 0.906928 7.87036 1.11127 7.57415C1.4391 7.09893 1.6107 6.55362 1.6107 6C1.6107 5.44638 1.4391 4.90107 1.11127 4.42585C0.906928 4.12964 0.99198 3.73084 1.30124 3.53512Z" fill="#0B1F35"/>
</svg>
