<svg xmlns="http://www.w3.org/2000/svg" width="24" height="24" viewBox="0 0 24 24" fill="none"><rect width="24" height="24" fill="none"/>
<path d="M15.1273 4.36546C15.8516 3.45949 16.3432 2.24306 16.2135 1C15.1532 1.05272 13.8593 1.69951 13.1102 2.60619C12.4376 3.38261 11.8423 4.64998 11.9975 5.84093C13.1878 5.94417 14.3769 5.246 15.1273 4.36546Z" fill="black"/>
<path d="M16.2 6.07346C14.4715 5.9705 13.0019 7.05448 12.1764 7.05448C11.3505 7.05448 10.0865 6.12535 8.7193 6.15039C6.93985 6.17653 5.28874 7.18264 4.38574 8.78283C2.52844 11.984 3.8956 16.7324 5.70173 19.3396C6.57882 20.6295 7.63588 22.0497 9.0287 21.9987C10.3447 21.947 10.8605 21.1465 12.4601 21.1465C14.0586 21.1465 14.5232 21.9987 15.9163 21.9728C17.3609 21.947 18.2641 20.6824 19.1412 19.3913C20.1473 17.9209 20.5592 16.5011 20.5852 16.4232C20.5592 16.3974 17.7995 15.3387 17.7739 12.1641C17.7479 9.50601 19.9406 8.24167 20.0438 8.16326C18.8055 6.33185 16.8708 6.12535 16.2 6.07346Z" fill="black"/>
</svg>
