<svg xmlns="http://www.w3.org/2000/svg" width="51" height="24" viewBox="0 0 51 24" fill="none"><rect width="51" height="24" fill="none"/>
<path d="M8.63681 5.29278C9.82297 5.27316 10.9692 5.72134 11.8274 6.54036L14.2013 4.1665C12.6961 2.75245 10.7019 1.9762 8.63681 2.00056C5.4927 2.0007 2.61741 3.77379 1.20562 6.58311C0.024783 8.93284 0.0248039 11.7027 1.20562 14.0524C2.61773 16.8613 5.49296 18.635 8.63681 18.6349C10.8813 18.6349 12.7712 17.8979 14.1493 16.6272C15.7191 15.1798 16.6237 13.0382 16.6237 10.5073C16.6246 9.94047 16.5767 9.37465 16.4804 8.81609H8.63686V12.0194H13.1293C12.7417 14.1766 10.7012 15.3438 8.63681 15.3438C5.28095 15.3438 2.92055 11.8364 3.96765 8.72603C4.62613 6.75536 6.46744 5.29278 8.63681 5.29278Z" fill="black"/>
<path fill-rule="evenodd" clip-rule="evenodd" d="M24.1391 17.6336V11.7758H27.2119C28.4787 11.7765 29.5434 11.3657 30.4059 10.5432C30.4787 10.4751 30.5503 10.4034 30.6185 10.3307C31.3742 9.5189 31.7765 8.44009 31.7366 7.3317C31.6967 6.22331 31.2181 5.17618 30.4059 4.42082C29.5524 3.59066 28.4023 3.13643 27.2119 3.15937H22.2793V17.6336H24.1391ZM24.1391 9.99219V4.93833L27.2523 4.93718C28.2742 4.93242 29.1996 5.54021 29.6011 6.47992C30.0026 7.41963 29.8023 8.50844 29.0925 9.24364C28.6117 9.74094 27.9437 10.0127 27.2523 9.99219H24.1391Z" fill="black"/>
<path fill-rule="evenodd" clip-rule="evenodd" d="M39.2811 8.5066C38.4856 7.77191 37.4005 7.40457 36.0259 7.40457C34.26 7.40457 32.9266 8.05147 32.0255 9.34525L33.6636 10.3768C34.2689 9.50043 35.091 9.06224 36.1299 9.06224C36.7915 9.05279 37.4324 9.29282 37.925 9.73454C38.4171 10.1411 38.6993 10.7481 38.6932 11.3864V11.8115C37.9785 11.4072 37.069 11.2051 35.9647 11.2051C34.6709 11.2066 33.6366 11.51 32.8619 12.1153C32.0872 12.7207 31.6998 13.5358 31.6998 14.5608C31.6829 15.4942 32.0878 16.3854 32.8018 16.9867C33.5365 17.6336 34.4495 17.957 35.5407 17.957C36.8191 17.957 37.8434 17.391 38.6135 16.2589H38.6943V17.6336H40.4733V11.5285C40.474 10.2486 40.0767 9.24129 39.2811 8.5066ZM34.2365 15.8142C33.8471 15.5332 33.6173 15.0815 33.6197 14.6013C33.6197 14.0572 33.8727 13.6124 34.3821 13.2486C34.8865 12.8843 35.5165 12.7022 36.2719 12.7022C37.3093 12.6983 38.1179 12.9274 38.6978 13.3895C38.6978 14.1704 38.3897 14.8508 37.7737 15.4307C37.2187 15.9856 36.4664 16.2979 35.6816 16.2994C35.1584 16.3089 34.648 16.1375 34.2365 15.8142Z" fill="black"/>
<path d="M50.685 7.72791L44.4748 22H42.5549L44.8595 17.012L40.7759 7.73368H42.7975L45.7489 14.8495H45.7894L48.66 7.73368L50.685 7.72791Z" fill="black"/>
</svg>
