<svg xmlns="http://www.w3.org/2000/svg" width="18" height="18" viewBox="0 0 18 18" fill="none"><rect width="18" height="18" fill="none"/>
<path fill-rule="evenodd" clip-rule="evenodd" d="M8.66382 1.50783C9.62204 1.46391 10.5797 1.60513 11.4845 1.92377C13.0503 2.46945 14.4196 3.5565 15.3121 4.95325C15.7311 5.60219 16.0466 6.31241 16.2471 7.05839C16.5047 8.02593 16.5663 9.03519 16.4283 10.0269C16.2903 11.0186 15.9554 11.9726 15.4434 12.8331C14.9313 13.6935 14.2525 14.4429 13.4466 15.0373C12.6408 15.6316 11.7243 16.0589 10.751 16.294C9.33542 16.6339 7.8198 16.5527 6.45075 16.054C4.89763 15.4936 3.54324 14.4033 2.66279 13.0077C2.186 12.2574 1.84738 11.4279 1.66294 10.5583C1.47185 9.65253 1.44862 8.71935 1.59441 7.80515C1.76439 6.75284 2.15787 5.74915 2.74836 4.86166C3.35771 3.94345 4.16105 3.17005 5.10174 2.59596C6.17774 1.93736 7.40345 1.56294 8.66382 1.50783Z" fill="#FEFFFE"/>
<path fill-rule="evenodd" clip-rule="evenodd" d="M8.75072 2.44694C8.92373 2.43367 9.09753 2.43439 9.27042 2.44909C9.73443 2.46069 10.195 2.53508 10.6448 2.64795C10.9349 2.7305 11.228 2.81112 11.5012 2.94054C11.2131 2.95387 10.9241 2.94054 10.6364 2.96053C9.82582 2.99085 8.99391 3.09296 8.2607 3.46252C7.93234 3.62651 7.63666 3.84901 7.38815 4.11908C7.04584 4.48972 6.8076 4.94677 6.65344 5.42425C6.53432 5.80692 6.44874 6.19819 6.35026 6.5871C6.15524 7.38964 5.94517 8.1883 5.75616 8.99213C6.18276 9.1682 6.60656 9.35158 7.03101 9.53303C7.05278 9.54374 7.07646 9.55003 7.10067 9.55152C7.17765 9.42919 7.24861 9.30235 7.34192 9.19142C7.56948 8.88471 7.88239 8.65186 8.24156 8.52196C8.45554 8.44809 8.68235 8.41867 8.9081 8.43549C9.13385 8.45231 9.35379 8.51502 9.55446 8.61978C9.86897 8.7834 10.1159 9.05243 10.252 9.37975C10.3511 9.63076 10.3839 9.9031 10.347 10.1705C10.297 10.5787 10.1274 10.9631 9.85957 11.2753C9.57425 11.613 9.16679 11.8557 8.72557 11.9118C8.40304 11.9573 8.07446 11.897 7.78916 11.7398C7.47201 11.5749 7.23012 11.2961 7.05251 10.9917C7.02056 10.9322 6.99185 10.8709 6.9665 10.8083C6.46981 10.9319 5.97462 11.0616 5.47858 11.188C5.59791 11.5289 5.73552 11.8686 5.94 12.1685C6.35865 12.8186 7.04885 13.275 7.79884 13.4472C8.54347 13.614 9.32218 13.5336 10.017 13.2181C10.6836 12.9164 11.244 12.421 11.6251 11.7964C11.84 11.444 11.9927 11.0572 12.0766 10.6531C12.1895 10.1801 12.2031 9.67879 12.0925 9.20324C11.9351 8.49763 11.5122 7.87964 10.9114 7.47735C10.2462 7.02158 9.36589 6.8999 8.60215 7.15853C8.32477 7.24624 8.0646 7.38405 7.82486 7.5455C7.75455 7.59602 7.68595 7.64912 7.61156 7.69384C7.74186 7.16777 7.88033 6.64386 8.01278 6.11844C8.14143 6.11306 8.27028 6.11478 8.39874 6.1236C9.12787 6.13241 9.86086 6.13929 10.5838 6.02728C11.0953 5.9443 11.604 5.80198 12.0564 5.54378C12.6297 5.22604 13.0855 4.71244 13.3549 4.11693C13.3734 4.12458 13.3912 4.13386 13.408 4.14467C14.3504 4.99847 15.0242 6.10781 15.3473 7.33762C15.6704 8.56742 15.6289 9.86462 15.2279 11.0713C14.8269 12.2779 14.0836 13.342 13.0886 14.1338C12.0936 14.9257 10.8897 15.4112 9.6237 15.5313C9.46717 15.5481 9.30956 15.5474 9.15281 15.5612C8.29441 15.5782 7.44082 15.4292 6.63903 15.1222C5.84224 14.8143 5.11334 14.3536 4.49336 13.7661C3.34022 12.6866 2.60593 11.1757 2.46724 9.60355C2.44961 9.31719 2.42424 9.02954 2.44574 8.74361C2.48049 7.83107 2.70583 6.93591 3.10729 6.11566C3.50874 5.2954 4.07741 4.56822 4.77676 3.98085C5.88044 3.04653 7.30344 2.49337 8.75072 2.44694Z" fill="#EB2316"/>
<path fill-rule="evenodd" clip-rule="evenodd" d="M10.9475 3.92744C11.5133 3.91219 12.0805 3.93116 12.6457 3.89587C12.4974 4.22409 12.269 4.5298 11.9534 4.75588C11.5172 5.06903 10.9563 5.21479 10.4037 5.2843C9.45544 5.40363 8.49447 5.32934 7.5415 5.3499C7.65952 5.08137 7.84134 4.83715 8.07526 4.633C8.36821 4.38475 8.74082 4.21594 9.13272 4.11664C9.72047 3.96804 10.3376 3.93418 10.9475 3.92744Z" fill="#008F33"/>
</svg>
