<svg xmlns="http://www.w3.org/2000/svg" width="24" height="24" viewBox="0 0 24 24" fill="none"><rect width="24" height="24" fill="none"/>
<rect width="24" height="24" rx="12" fill="#F5F1E8"/>
<path d="M5 7.01538L7.23846 11.0077V13.4423L5 17.4346V7.01538Z" fill="#656CAE"/>
<path d="M13.6076 9.55384L15.7076 8.27307H19.9999L13.6076 12.1731V9.55384Z" fill="#C25169"/>
<path d="M13.5962 6.99231L13.6077 12.2769L11.3577 10.9038V3L13.5962 6.99231Z" fill="#EBAD4C"/>
<path d="M20 8.27308H15.7077L13.5962 6.99231L11.3577 3L20 8.27308Z" fill="#DB754B"/>
<path d="M13.6077 17.4576V14.8845L11.3577 13.5345V21.4499L13.6077 17.4576Z" fill="#81BB5D"/>
<path d="M15.6962 16.1769L7.23846 11.0077L5 7.01538L20 16.1769H15.6962Z" fill="#608BC9"/>
<path d="M11.3577 21.4501L13.6077 17.4578L15.6962 16.177H20L11.3577 21.4501Z" fill="#548254"/>
<path d="M5 17.4346L11.3808 13.5346L9.23461 12.2307L7.23846 13.4423L5 17.4346Z" fill="#8366A8"/>
</svg>
