<svg xmlns="http://www.w3.org/2000/svg" width="24" height="24" viewBox="0 0 24 24" fill="none"><rect width="24" height="24" fill="none"/>
<path d="M11.9992 21.7115C17.5206 21.7115 21.9965 17.3629 21.9965 11.9989C21.9965 6.63476 17.5206 2.2863 11.9992 2.2863C6.47786 2.2863 2.00192 6.63476 2.00192 11.9989C2.00192 17.3629 6.47786 21.7115 11.9992 21.7115Z" fill="#FFC800"/>
<path d="M16.3005 19.2353C12.9053 21.1386 9.22325 21.4797 6.87129 20.3396C9.88251 22.0827 13.7488 22.2334 16.9985 20.4112C20.2482 18.587 22.0476 15.259 21.999 11.8538C21.8401 14.4016 19.6937 17.3301 16.3005 19.2353Z" fill="black"/>
<path d="M13.265 2.99872C13.9533 4.15579 12.2897 6.34176 9.54796 7.87761C6.80626 9.41534 4.02773 9.72251 3.3394 8.56356C3.31031 8.50891 3.28317 8.4486 3.26378 8.38642C3.08539 7.84746 3.29868 7.1502 3.81251 6.41526C3.89588 6.30031 3.98119 6.18724 4.06845 6.07605C4.84404 5.09425 5.82708 4.24247 6.99821 3.58668C8.16936 2.929 9.41999 2.52949 10.6822 2.36742C10.8296 2.34669 10.9731 2.33162 11.1127 2.3222C12.024 2.25624 12.7511 2.42584 13.1428 2.84419C13.1893 2.89319 13.23 2.94596 13.265 2.99872Z" fill="black"/>
<path d="M17.5167 4.24989C18.7189 6.27193 16.2932 9.81662 12.1012 12.1684C7.9092 14.5202 3.5349 14.7878 2.33469 12.7658C2.13497 12.4285 2.02833 12.0535 2.007 11.6502C1.95465 13.0089 2.19508 14.3902 2.75544 15.7018C2.83881 15.8978 2.92995 16.0919 3.02689 16.2841C3.03078 16.2916 3.03659 16.301 3.04047 16.3086C3.40305 16.9173 3.93821 17.3959 4.60521 17.7427C6.95718 18.9657 10.934 18.5455 14.6529 16.4593C18.3699 14.3732 20.7335 11.2394 20.8208 8.65013C20.8459 7.91896 20.6889 7.23112 20.3302 6.62244C20.1945 6.42457 20.0529 6.23047 19.9036 6.04579C19.0214 4.93772 17.924 4.05579 16.7043 3.42638C17.0436 3.64309 17.319 3.91822 17.5167 4.24989C17.5167 4.24989 17.5187 4.25177 17.5187 4.25366L17.5167 4.24989Z" fill="black"/>
<path d="M11.9992 21.7115C17.5206 21.7115 21.9965 17.3629 21.9965 11.9989C21.9965 6.63476 17.5206 2.2863 11.9992 2.2863C6.47786 2.2863 2.00192 6.63476 2.00192 11.9989C2.00192 17.3629 6.47786 21.7115 11.9992 21.7115Z" fill="url(#paint0_radial_53737_8710)"/>
<defs>
<radialGradient id="paint0_radial_53737_8710" cx="0" cy="0" r="1" gradientUnits="userSpaceOnUse" gradientTransform="translate(11.9997 11.999) scale(9.99703 9.71615)">
<stop offset="0.5" stop-color="white" stop-opacity="0"/>
<stop offset="1" stop-color="white" stop-opacity="0.35"/>
</radialGradient>
</defs>
</svg>
