<svg xmlns="http://www.w3.org/2000/svg" width="24" height="24" viewBox="0 0 24 24" fill="none"><rect width="24" height="24" fill="none"/>
<path d="M15.1273 3.36546C15.8516 2.45949 16.3432 1.24306 16.2135 0C15.1532 0.0527224 13.8593 0.699513 13.1102 1.60619C12.4376 2.38261 11.8423 3.64998 11.9975 4.84093C13.1878 4.94417 14.3769 4.246 15.1273 3.36546Z" fill="black"/>
<path d="M16.2 5.07346C14.4715 4.9705 13.0019 6.05448 12.1764 6.05448C11.3505 6.05448 10.0865 5.12535 8.7193 5.15039C6.93985 5.17653 5.28874 6.18264 4.38574 7.78283C2.52844 10.984 3.8956 15.7324 5.70173 18.3396C6.57882 19.6295 7.63588 21.0497 9.0287 20.9987C10.3447 20.947 10.8605 20.1465 12.4601 20.1465C14.0586 20.1465 14.5232 20.9987 15.9163 20.9728C17.3609 20.947 18.2641 19.6824 19.1412 18.3913C20.1473 16.9209 20.5592 15.5011 20.5852 15.4232C20.5592 15.3974 17.7995 14.3387 17.7739 11.1641C17.7479 8.50601 19.9406 7.24167 20.0438 7.16326C18.8055 5.33185 16.8708 5.12535 16.2 5.07346Z" fill="black"/>
</svg>
