<svg xmlns="http://www.w3.org/2000/svg" width="30" height="18" viewBox="0 0 30 18" fill="none"><rect width="30" height="18" fill="none"/>
<path d="M28.695 14.5775V14.2875H28.8125V14.2275H28.515V14.2875H28.6325V14.5775H28.695ZM29.2725 14.5775V14.2275H29.1825L29.0775 14.4675L28.9725 14.2275H28.88V14.5775H28.945V14.315L29.0425 14.5425H29.11L29.2075 14.315V14.58H29.2725V14.5775ZM14.195 16.315C14.265 16.375 14.34 16.435 14.4125 16.495C12.985 17.445 11.2725 18 9.42999 18C4.45999 18 0.429993 13.97 0.429993 9C0.429993 4.03 4.45999 0 9.42999 0C11.2725 0 12.985 0.555 14.4125 1.505C14.34 1.565 14.265 1.6225 14.195 1.685C12.075 3.53 10.8575 6.195 10.8575 9C10.8575 11.805 12.075 14.47 14.195 16.315ZM20.555 0C18.7125 0 17 0.555 15.5725 1.505C15.645 1.565 15.72 1.6225 15.79 1.685C17.91 3.53 19.125 6.195 19.125 9C19.125 11.805 17.91 14.47 15.79 16.315C15.72 16.375 15.645 16.435 15.5725 16.495C17 17.445 18.7125 18 20.555 18C25.525 18 29.555 13.97 29.555 9C29.555 4.03 25.525 0 20.555 0ZM14.9925 1.9275C14.8775 2.02 14.7625 2.1125 14.6525 2.21C12.755 3.86 11.555 6.29 11.555 9C11.555 11.71 12.755 14.14 14.6525 15.79C14.7625 15.8875 14.8775 15.98 14.9925 16.0725C15.1075 15.98 15.2225 15.8875 15.3325 15.79C17.23 14.14 18.43 11.71 18.43 9C18.43 6.29 17.23 3.86 15.3325 2.21C15.2225 2.1125 15.1075 2.02 14.9925 1.9275Z" fill="#0B1F35"/>
</svg>
