<svg xmlns="http://www.w3.org/2000/svg" width="48" height="18" viewBox="0 0 48 18" fill="none"><rect width="48" height="18" fill="none"/>
<path d="M32.8806 2.4L28.6847 2.40002C28.1167 2.39746 27.5981 2.71898 27.3529 3.22573L24.0233 10.2103C23.8806 10.5104 23.4192 10.4113 23.4192 10.0813V2.52768C23.4192 2.45706 23.3588 2.40002 23.286 2.40002L19.222 2.4V15.6032L23.5606 15.6032C24.1211 15.6054 24.634 15.2919 24.8828 14.7952L28.3332 7.81466C28.4183 7.64218 28.6847 7.70194 28.6847 7.89207V15.6032L32.8806 15.6032V2.4Z" fill="#0B1F35"/>
<path d="M17.0801 2.40002H12.2334C11.5977 2.40002 11.0375 2.81695 10.859 3.42536L8.83661 10.3189C8.75149 10.6136 8.32998 10.6136 8.24348 10.3189L6.22105 3.42536C6.04394 2.81695 5.48238 2.40002 4.84668 2.40002H0V15.6032H4.09977V7.98849C4.09977 7.78206 4.39085 7.73861 4.45126 7.93553L6.83204 15.6032H10.2481L12.6288 7.93553C12.6892 7.73861 12.9803 7.78206 12.9803 7.98849V15.6032H17.0801V2.40002Z" fill="#0B1F35"/>
<path d="M47.7254 8.56975H34.3249V15.6032H38.5222V11.3877H43.4334C45.3093 11.3959 47.0045 10.2828 47.7254 8.56975Z" fill="#0B1F35"/>
<path d="M40.5941 7.79428C37.524 7.79428 33.6384 5.37963 33.6384 2.40001H43.3703C45.9268 2.40001 48 4.41132 48 6.89388C48 7.19645 47.9683 7.4982 47.9053 7.79428H40.5941Z" fill="#0B1F35"/>
</svg>
