<svg xmlns="http://www.w3.org/2000/svg" width="24" height="24" viewBox="0 0 24 24" fill="none"><rect width="24" height="24" fill="none"/>
<path d="M12.1922 6.76094C13.5746 6.73852 14.9103 7.25043 15.9105 8.1859L18.6769 5.47452C16.9229 3.85943 14.5988 2.97281 12.1922 3.00064C8.52816 3.0008 5.17736 5.02598 3.53208 8.23471C2.15596 10.9185 2.15598 14.0822 3.53208 16.766C5.17773 19.9742 8.52846 22.0001 12.1922 22C14.8079 22 17.0103 21.1582 18.6163 19.7069C20.4458 18.0537 21.5 15.6076 21.5 12.7168C21.501 12.0694 21.4452 11.4232 21.3331 10.7852H12.1923V14.4439H17.4277C16.976 16.9078 14.5981 18.241 12.1922 18.241C8.28139 18.241 5.53062 14.2349 6.7509 10.6823C7.51827 8.43146 9.6641 6.76094 12.1922 6.76094Z" fill="black"/>
</svg>
