<svg xmlns="http://www.w3.org/2000/svg" width="30" height="20" viewBox="0 0 30 20" fill="none"><rect width="30" height="20" fill="none"/>
<path d="M4.95392 6.96135C5.66046 6.94966 6.34319 7.21663 6.85439 7.70448L8.26839 6.29048C7.37185 5.4482 6.18397 4.98582 4.95392 5.00033C3.08112 5.00042 1.36845 6.05656 0.527513 7.72994C-0.175854 9.12956 -0.175842 10.7794 0.527513 12.1791C1.36864 13.8522 3.08128 14.9087 4.95392 14.9086C6.29086 14.9086 7.41655 14.4696 8.23743 13.7127C9.17253 12.8506 9.71132 11.5749 9.71132 10.0674C9.71186 9.72976 9.68331 9.39273 9.626 9.06002H4.95395V10.9681H7.62989C7.399 12.253 6.18361 12.9483 4.95392 12.9483C2.95499 12.9483 1.54901 10.8591 2.17273 9.00637C2.56495 7.83254 3.66173 6.96135 4.95392 6.96135Z" fill="#0B1F35"/>
<path fill-rule="evenodd" clip-rule="evenodd" d="M14.1879 14.3122V10.823H16.0182C16.7728 10.8234 17.407 10.5787 17.9207 10.0888C17.9641 10.0482 18.0068 10.0055 18.0474 9.96217C18.4975 9.47865 18.7371 8.83606 18.7134 8.17584C18.6896 7.51562 18.4045 6.8919 17.9207 6.44197C17.4124 5.94748 16.7273 5.67692 16.0182 5.69058H13.0801V14.3122H14.1879ZM14.1879 9.76057V6.75022L16.0423 6.74954C16.651 6.7467 17.2022 7.10874 17.4413 7.66848C17.6805 8.22821 17.5612 8.87677 17.1384 9.31469C16.852 9.61091 16.4541 9.77277 16.0423 9.76057H14.1879Z" fill="#0B1F35"/>
<path fill-rule="evenodd" clip-rule="evenodd" d="M23.2073 8.87567C22.7334 8.43805 22.0871 8.21925 21.2683 8.21925C20.2164 8.21925 19.4222 8.60457 18.8855 9.37522L19.8612 9.98967C20.2217 9.46765 20.7114 9.20664 21.3302 9.20664C21.7243 9.20101 22.1061 9.34398 22.3995 9.6071C22.6926 9.84929 22.8607 10.2108 22.8571 10.5911V10.8443C22.4314 10.6034 21.8896 10.483 21.2318 10.483C20.4612 10.4839 19.8451 10.6647 19.3836 11.0252C18.9222 11.3858 18.6914 11.8713 18.6914 12.4819C18.6814 13.0378 18.9225 13.5687 19.3479 13.9269C19.7855 14.3122 20.3293 14.5048 20.9793 14.5048C21.7408 14.5048 22.3509 14.1677 22.8096 13.4934H22.8577V14.3122H23.9174V10.6757C23.9178 9.91329 23.6812 9.31329 23.2073 8.87567ZM20.2025 13.2285C19.9705 13.0611 19.8336 12.792 19.835 12.506C19.835 12.1819 19.9857 11.917 20.2892 11.7002C20.5896 11.4833 20.9648 11.3748 21.4149 11.3748C22.0327 11.3725 22.5144 11.5089 22.8598 11.7842C22.8598 12.2493 22.6763 12.6546 22.3094 13C21.9788 13.3305 21.5307 13.5166 21.0632 13.5174C20.7516 13.5231 20.4475 13.421 20.2025 13.2285Z" fill="#0B1F35"/>
<path d="M30 8.41184L26.3009 16.913H25.1573L26.53 13.9419L24.0977 8.41528H25.3018L27.0598 12.6538H27.0839L28.7938 8.41528L30 8.41184Z" fill="#0B1F35"/>
</svg>
