<svg xmlns="http://www.w3.org/2000/svg" width="24" height="24" viewBox="0 0 24 24" fill="none"><rect width="24" height="24" fill="none"/>
<path fill-rule="evenodd" clip-rule="evenodd" d="M13.265 2.98033C13.9533 4.1374 12.2897 6.32338 9.54796 7.85922C6.80626 9.39695 4.02773 9.70412 3.3394 8.54517C3.31031 8.49052 3.28316 8.43022 3.26377 8.36803C3.08539 7.82907 3.29867 7.13182 3.8125 6.39687C3.89588 6.28192 3.98119 6.16885 4.06844 6.05767C4.84403 5.07587 5.82708 4.22409 6.99821 3.56829C8.16935 2.91061 9.41998 2.5111 10.6822 2.34904C10.8296 2.32831 10.9731 2.31323 11.1127 2.30381C12.024 2.23785 12.7511 2.40745 13.1428 2.82581C13.1893 2.8748 13.23 2.92757 13.265 2.98033ZM16.3005 19.2169C12.9053 21.1202 9.22325 21.4613 6.87129 20.3212C9.8825 22.0643 13.7488 22.2151 16.9985 20.3928C20.2482 18.5686 22.0476 15.2406 21.999 11.8354C21.8401 14.3832 19.6937 17.3117 16.3005 19.2169ZM12.1012 12.15C16.2932 9.79823 18.7189 6.25353 17.5167 4.2315C17.319 3.89983 17.0436 3.6247 16.7043 3.40798C17.924 4.0374 19.0214 4.91933 19.9036 6.0274C20.0529 6.21208 20.1945 6.40618 20.3302 6.60405C20.6889 7.21273 20.8459 7.90056 20.8208 8.63174C20.7335 11.221 18.3699 14.3548 14.6529 16.441C10.934 18.5271 6.95718 18.9473 4.60521 17.7243C3.93821 17.3775 3.40305 16.8989 3.04047 16.2902C3.03853 16.2864 3.03611 16.2822 3.03368 16.2779C3.03126 16.2737 3.02883 16.2695 3.02689 16.2657C2.92995 16.0735 2.83881 15.8794 2.75544 15.6834C2.19508 14.3718 1.95465 12.9905 2.007 11.6318C2.02833 12.0351 2.13497 12.4101 2.33469 12.7474C3.5349 14.7694 7.9092 14.5018 12.1012 12.15ZM17.5187 4.23527L17.5167 4.2315C17.5167 4.2315 17.5187 4.23338 17.5187 4.23527Z" fill="black"/>
</svg>
