<svg xmlns="http://www.w3.org/2000/svg" width="48" height="18" viewBox="0 0 48 18" fill="none"><rect width="48" height="18" fill="none"/>
<path d="M23.8113 12.1995L23.2528 15.2359C23.2528 15.2359 24.9284 16 27.4889 16C30.0493 16 33.9144 14.7558 33.9144 11.3693C33.9144 9.24998 32.0118 8.28878 30.4999 7.52499C29.5032 7.02147 28.6763 6.60375 28.6763 5.99657C28.6763 4.46635 32.3325 4.66438 33.9379 5.4945L34.473 2.59008C34.473 2.59008 32.8207 2 31.0982 2C29.2349 2 24.8133 2.76411 24.8133 6.47864C24.8133 8.50502 26.5589 9.37115 28.0256 10.0989C29.0882 10.6262 30.0045 11.0808 30.0045 11.8514C30.0045 13.6857 25.3484 13.3576 23.8113 12.1995Z" fill="#0B1F35"/>
<path d="M20.9397 15.768H17.1875L19.5326 2.24004H23.2869L20.9397 15.768Z" fill="#0B1F35"/>
<path fill-rule="evenodd" clip-rule="evenodd" d="M47 15.768L43.994 2.24004H40.9774C39.5831 2.24004 39.2442 3.24819 39.2442 3.24819L33.6479 15.768H37.56L38.3424 13.7597H43.1136L43.5527 15.768H47ZM42.5017 10.9833H39.4211L41.3931 5.92057L42.5017 10.9833Z" fill="#0B1F35"/>
<path d="M6.98424 2.24004C8.61088 2.24004 8.76438 3.45822 8.76438 3.45822L10.0265 9.53909L10.4507 11.5434L14.0302 2.24004H18.0701L12.0987 15.768H8.18877L4.93122 4.0303C4.89661 4.01081 4.86154 3.99004 4.82664 3.96936C4.78632 3.94548 4.74623 3.92173 4.70737 3.90028C4.68149 3.88659 4.65571 3.87291 4.63001 3.85926C4.53929 3.81109 4.44958 3.76346 4.35987 3.71825C4.17227 3.62224 3.98892 3.53223 3.80984 3.45022C3.78419 3.43818 3.75854 3.42602 3.73296 3.41389C3.65648 3.37764 3.5806 3.34167 3.50711 3.3102C3.28326 3.21418 3.07007 3.12617 2.86754 3.04816C2.80575 3.02417 2.74386 3.00014 2.6842 2.97615C2.47527 2.90014 2.28127 2.83213 2.10432 2.77412C2.06471 2.76106 2.02725 2.74952 1.99059 2.73822C1.95425 2.72702 1.91869 2.71606 1.88261 2.70411C1.84752 2.69375 1.81284 2.68338 1.77891 2.67325C1.7015 2.65012 1.62804 2.62818 1.56282 2.6101C1.53655 2.60279 1.51072 2.59591 1.48575 2.58925C1.456 2.58131 1.42745 2.5737 1.4008 2.56609C1.38405 2.56187 1.36762 2.55773 1.35159 2.55369C1.28395 2.53664 1.22348 2.5214 1.17695 2.51008C1.16843 2.50808 1.1592 2.50586 1.14997 2.50364C1.13148 2.4992 1.113 2.49475 1.1002 2.49208C1.04903 2.48008 1 2.47008 1 2.47008L1.07035 2.24004H6.98424Z" fill="#0B1F35"/>
</svg>
