<svg xmlns="http://www.w3.org/2000/svg" width="30" height="20" viewBox="0 0 30 20" fill="none"><rect width="30" height="20" fill="none"/>
<path d="M5.67201 5.64142C6.02525 5.19956 6.26495 4.60627 6.20173 4C5.68464 4.02571 5.05363 4.34117 4.68831 4.78338C4.36029 5.16206 4.06996 5.78019 4.14565 6.36104C4.72611 6.4114 5.30603 6.07088 5.67201 5.64142Z" fill="#0B1F35"/>
<path d="M6.19361 6.47238C5.68088 6.44183 5.21485 6.62546 4.83782 6.77402C4.59498 6.8697 4.38906 6.95084 4.23135 6.95084C4.05744 6.95084 3.8437 6.86636 3.60328 6.77134C3.28687 6.64628 2.92424 6.50295 2.54537 6.50989C1.67756 6.52264 0.872339 7.01335 0.431964 7.7938C-0.473814 9.35509 0.192929 11.671 1.07375 12.9426C1.5015 13.5717 2.017 14.2644 2.69626 14.2395C2.99371 14.2278 3.20733 14.1377 3.4286 14.0444C3.68476 13.9363 3.95116 13.8239 4.36973 13.8239C4.76877 13.8239 5.02293 13.9328 5.26709 14.0374C5.49991 14.1372 5.72364 14.2331 6.05524 14.2269C6.75976 14.2143 7.20021 13.5975 7.62796 12.9678C8.09318 12.2879 8.29789 11.6302 8.32867 11.5313L8.33217 11.5202C8.33217 11.5202 8.32545 11.5167 8.31499 11.5119C8.15731 11.4394 6.97288 10.895 6.96117 9.44294C6.94923 8.22423 7.89353 7.60623 8.04859 7.50476C8.05848 7.49829 8.06516 7.49392 8.06817 7.49162C7.46429 6.5984 6.52073 6.49768 6.19361 6.47238Z" fill="#0B1F35"/>
<path fill-rule="evenodd" clip-rule="evenodd" d="M16.6379 7.82075C16.6379 5.98186 15.362 4.71882 13.5299 4.71882L9.98971 4.71882V14.1621H11.4554V10.9358H13.4839C15.3358 10.9358 16.6379 9.66621 16.6379 7.82075ZM13.1371 9.70547H11.4553V5.95573H13.1436C14.4131 5.95573 15.1394 6.63635 15.1394 7.82731C15.1394 9.0184 14.4131 9.70547 13.1371 9.70547Z" fill="#0B1F35"/>
<path fill-rule="evenodd" clip-rule="evenodd" d="M19.5816 10.1732C17.9456 10.2649 17.0229 11.0043 17.0229 12.2085C17.0229 13.4453 17.9653 14.283 19.3133 14.283C20.2162 14.283 21.0866 13.7988 21.4857 13.0331H21.5183V14.1652H22.8729V9.42065C22.8729 8.03984 21.8063 7.15637 20.1377 7.15637C18.4363 7.15637 17.3763 8.07253 17.2978 9.31601H18.6327C18.7569 8.70077 19.2673 8.3082 20.0855 8.3082C20.949 8.3082 21.466 8.76628 21.466 9.53199V10.062L19.5816 10.1732ZM21.466 11.0437V11.5869C21.466 12.4833 20.6938 13.1639 19.7058 13.1639C18.9467 13.1639 18.4494 12.7713 18.4494 12.1693C18.4494 11.5803 18.927 11.2073 19.7712 11.1483L21.466 11.0437Z" fill="#0B1F35"/>
<path d="M24.1502 16.6974V15.5521C24.2547 15.5782 24.4902 15.5782 24.6081 15.5782C25.2624 15.5782 25.6158 15.3034 25.8316 14.5967C25.8316 14.589 25.8744 14.4466 25.9097 14.3286C25.9347 14.2452 25.9561 14.174 25.9561 14.1713L23.4696 7.28024H25.0006L26.7414 12.8821H26.7674L28.5082 7.28024H30.0001L27.4217 14.5246C26.8331 16.1935 26.1525 16.7301 24.726 16.7301C24.6081 16.7301 24.2547 16.7169 24.1502 16.6974Z" fill="#0B1F35"/>
</svg>
