<svg xmlns="http://www.w3.org/2000/svg" width="102" height="30" viewBox="0 0 102 30" fill="none"><rect width="102" height="30" fill="none"/>
<path d="M24.7193 26.0908L21.8163 21.2592L18.9573 26.0908H15.5265L19.925 18.7994L15.4386 12.0352H19.0013L21.9043 16.5593L24.6313 12.0352H28.0181L23.6197 19.019L28.15 26.0908H24.7193Z" fill="black"/>
<path d="M39.278 21.303C39.278 24.3777 36.9468 26.3104 33.9119 26.3104C31.2288 26.3104 28.9417 24.817 28.7217 21.6105H31.6247C31.8446 23.0161 32.9442 23.631 34.1758 23.631C35.7153 23.631 36.375 22.6208 36.375 21.303C36.375 19.8975 35.3634 19.0629 33.9119 19.0629C32.7243 19.0629 31.9326 19.6339 31.5807 20.2489H28.8097L29.7774 12.079H38.9261L38.6182 14.8023H32.0646L31.8006 17.4817C31.8006 17.4817 32.5044 16.691 34.5717 16.691C37.0788 16.6471 39.278 18.3601 39.278 21.303Z" fill="black"/>
<path d="M29.0297 10.2782C27.4902 4.26061 22.564 0 12.3596 0H0L1.6714 11.3324C2.94695 21.5227 6.86156 24.817 13.7671 26.0029C13.8111 26.0029 14.031 26.0469 14.031 25.7833C14.031 25.6955 13.987 25.6076 13.8991 25.5637C9.23671 23.5871 8.7089 17.1303 7.69726 10.6735L6.90554 5.53441H13.943C20.4527 5.53441 25.4669 5.44656 28.6338 10.4539C28.6778 10.5417 28.7658 10.5857 28.8537 10.5857C28.9857 10.5857 29.0736 10.4978 29.0736 10.366C29.0297 10.3221 29.0297 10.3221 29.0297 10.2782Z" fill="black"/>
<path d="M50.8461 19.8975H47.8992V26.0908H45.9199V12.0352H47.8992V18.1406H50.8461L55.2885 12.0352H57.4438L52.4295 18.8434L57.6637 26.0908H55.3765L50.8461 19.8975Z" fill="black"/>
<path d="M66.372 16.4275C67.1637 17.1303 67.5596 18.2284 67.5596 19.6779V26.0908H65.7122V24.6852C65.4043 25.1684 64.9205 25.5637 64.3487 25.8272C63.7329 26.0908 63.0292 26.2225 62.2374 26.2225C61.0499 26.2225 60.0822 25.9151 59.3785 25.3441C58.6747 24.773 58.3228 24.0263 58.3228 23.06C58.3228 22.1376 58.6747 21.3909 59.3345 20.8199C60.0382 20.2489 61.0939 19.9853 62.5893 19.9853H65.6242V19.59C65.6242 18.7555 65.4043 18.1405 64.9205 17.7013C64.4367 17.2621 63.7329 17.0424 62.8092 17.0424C62.1935 17.0424 61.5777 17.1303 60.9619 17.3499C60.3461 17.5695 59.8623 17.8331 59.4225 18.1845L58.6307 16.735C59.1585 16.2957 59.8183 15.9443 60.61 15.7247C61.3578 15.5051 62.1935 15.3733 63.0292 15.3733C64.4807 15.3294 65.5803 15.7247 66.372 16.4275ZM64.4367 24.246C64.9645 23.9385 65.3603 23.4553 65.5803 22.8404V21.347H62.5893C60.9619 21.347 60.1262 21.8741 60.1262 22.9722C60.1262 23.4993 60.3461 23.9385 60.742 24.246C61.1378 24.5534 61.7536 24.7291 62.4574 24.7291C63.2931 24.7291 63.9089 24.5534 64.4367 24.246Z" fill="black"/>
<path d="M78.8644 16.0322C79.7001 16.4714 80.3159 17.1303 80.7997 17.9209C81.2835 18.7555 81.5034 19.6779 81.5034 20.7321C81.5034 21.7862 81.2835 22.7526 80.7997 23.5871C80.3159 24.4217 79.7001 25.0366 78.8644 25.5198C78.0287 25.959 77.105 26.2225 76.0934 26.2225C75.3456 26.2225 74.6419 26.0908 73.9821 25.7833C73.3663 25.4758 72.7945 25.0805 72.3547 24.5095V30H70.4194V15.4612H72.2667V17.1303C72.7066 16.5593 73.2344 16.0761 73.8941 15.8126C74.5539 15.5051 75.2577 15.3733 76.0494 15.3733C77.105 15.3294 78.0287 15.593 78.8644 16.0322ZM77.7648 24.0703C78.2926 23.7628 78.7324 23.3236 79.0403 22.7526C79.3482 22.1815 79.5241 21.5227 79.5241 20.776C79.5241 20.0293 79.3482 19.3704 79.0403 18.7994C78.7324 18.2284 78.2926 17.7892 77.7648 17.4817C77.237 17.1742 76.6212 16.9985 75.9174 16.9985C75.2577 16.9985 74.6419 17.1742 74.1141 17.4817C73.5862 17.7892 73.1464 18.2284 72.8385 18.7994C72.5306 19.3704 72.3547 20.0293 72.3547 20.7321C72.3547 21.4788 72.4866 22.1376 72.8385 22.7086C73.1464 23.2796 73.5862 23.7189 74.1141 24.0263C74.6419 24.3338 75.2577 24.5095 75.9614 24.5095C76.5772 24.5095 77.193 24.3777 77.7648 24.0703Z" fill="black"/>
<path d="M91.7509 17.1303H87.8803V26.0908H85.9449V17.1303H82.0303V15.4612H91.7509V17.1303Z" fill="black"/>
<path d="M100.812 16.4275C101.604 17.1303 102 18.2284 102 19.6779V26.0908H100.153V24.6852C99.8447 25.1684 99.3609 25.5637 98.7891 25.8272C98.1733 26.0908 97.4696 26.2225 96.6779 26.2225C95.4903 26.2225 94.5226 25.9151 93.8189 25.3441C93.1151 24.773 92.7632 24.0263 92.7632 23.06C92.7632 22.1376 93.1151 21.3909 93.7749 20.8199C94.4786 20.2489 95.5343 19.9853 97.0297 19.9853H100.065V19.59C100.065 18.7555 99.8447 18.1405 99.3609 17.7013C98.8771 17.2621 98.1733 17.0424 97.2497 17.0424C96.6339 17.0424 96.0181 17.1303 95.4023 17.3499C94.7865 17.5695 94.3027 17.8331 93.8629 18.1845L93.0711 16.735C93.599 16.2957 94.2587 15.9443 95.0504 15.7247C95.7982 15.5051 96.6339 15.3733 97.4696 15.3733C98.9211 15.3294 100.065 15.7247 100.812 16.4275ZM98.9211 24.246C99.4489 23.9385 99.8447 23.4553 100.109 22.8404V21.347H97.1177C95.4903 21.347 94.6546 21.8741 94.6546 22.9722C94.6546 23.4993 94.8745 23.9385 95.2704 24.246C95.6662 24.5534 96.282 24.7291 96.9858 24.7291C97.7335 24.7291 98.3933 24.5534 98.9211 24.246Z" fill="black"/>
</svg>
