<svg xmlns="http://www.w3.org/2000/svg" width="18" height="18" viewBox="0 0 18 18" fill="none"><rect width="18" height="18" fill="none"/>
<path fill-rule="evenodd" clip-rule="evenodd" d="M7.51216 2.97638C7.76798 2.78079 8.06176 2.64067 8.37476 2.56496C8.68776 2.48925 9.0131 2.4796 9.33004 2.53664C9.64697 2.59368 9.94853 2.71614 10.2155 2.89623C10.4825 3.07632 10.709 3.31007 10.8805 3.58258C11.0925 3.92066 11.2184 4.30548 11.2474 4.70345C11.2764 5.10141 11.2075 5.50043 11.0468 5.86564C10.897 6.1854 10.6861 6.47273 10.4259 6.7114L8.92013 8.2416C8.36281 7.68428 7.81037 7.11717 7.25794 6.55496C7.02199 6.31201 6.84001 6.02197 6.7239 5.70382C6.60779 5.38567 6.56017 5.04659 6.58417 4.70877C6.60817 4.37095 6.70324 4.04201 6.86316 3.74347C7.02307 3.44493 7.24423 3.18353 7.51216 2.97638Z" fill="black"/>
<path fill-rule="evenodd" clip-rule="evenodd" d="M7.27269 11.2726L8.91532 9.5957C9.50687 10.197 10.1082 10.7886 10.6851 11.4046C11.0525 11.8402 11.254 12.3917 11.254 12.9616C11.254 13.5315 11.0525 14.0831 10.6851 14.5187C10.3369 14.9277 9.85771 15.2034 9.32911 15.2988C8.8005 15.3942 8.25517 15.3034 7.78601 15.0418C7.44949 14.8515 7.1645 14.5819 6.95577 14.2565C6.74704 13.931 6.62089 13.5595 6.58826 13.1743C6.55787 12.8267 6.60333 12.4766 6.7215 12.1482C6.83967 11.8199 7.02773 11.5211 7.27269 11.2726Z" fill="black"/>
<path fill-rule="evenodd" clip-rule="evenodd" d="M2.99082 7.58664C3.19855 7.2731 3.47919 7.01457 3.80869 6.83321C4.1382 6.65186 4.50674 6.55308 4.88278 6.54533C5.19536 6.53788 5.50617 6.59431 5.79618 6.71116C6.0862 6.828 6.34931 7.0028 6.56942 7.22486L8.24138 8.92127C7.64495 9.5226 7.06318 10.1337 6.45697 10.7204C6.02622 11.0967 5.47171 11.3009 4.89974 11.2937C4.32777 11.2864 3.7786 11.0684 3.35748 10.6812C2.94584 10.2887 2.68401 9.76481 2.61708 9.19994C2.55015 8.63507 2.68232 8.06455 2.99082 7.58664Z" fill="black"/>
<path fill-rule="evenodd" clip-rule="evenodd" d="M11.2623 7.21485C11.5208 6.95939 11.8355 6.76815 12.1813 6.6565C12.5272 6.54486 12.8943 6.51593 13.2534 6.57204C13.6124 6.62816 13.9533 6.76774 14.2485 6.97958C14.5438 7.19142 14.7852 7.46958 14.9534 7.79172C15.2214 8.30252 15.2978 8.89242 15.1687 9.45467C15.0396 10.0169 14.7135 10.5144 14.2494 10.857C13.8151 11.1704 13.2859 11.324 12.7514 11.292C12.2168 11.2599 11.7097 11.0441 11.3161 10.681C10.7294 10.1041 10.1623 9.50769 9.58057 8.92592C10.1428 8.34905 10.7001 7.78195 11.2623 7.21485Z" fill="black"/>
</svg>
