<svg xmlns="http://www.w3.org/2000/svg" width="24" height="24" viewBox="0 0 24 24" fill="none"><rect width="24" height="24" fill="none"/>
<path d="M20.1689 10.396L5.46883 0.992785C5.2154 0.830785 4.93325 0.75 4.65109 0.75C4.64535 0.75 4.6397 0.750857 4.63405 0.750857C4.59613 0.751286 4.55832 0.753429 4.52059 0.75675C4.50355 0.75825 4.4866 0.760286 4.46956 0.762429C4.44007 0.766071 4.41068 0.770678 4.38138 0.776143C4.37075 0.778178 4.36003 0.778821 4.3494 0.781071L4.34998 0.781928C4.16682 0.81975 3.98807 0.891964 3.82195 0.999856C3.31318 1.33018 3 1.93864 3 2.59681V21.4032C3 22.0614 3.31318 22.6698 3.82195 23.0001C3.98797 23.108 4.16673 23.1804 4.34988 23.2182L4.3494 23.2189C4.35898 23.221 4.36865 23.2216 4.37813 23.2233C4.40963 23.2293 4.44122 23.2343 4.47291 23.238C4.48881 23.2399 4.5046 23.2419 4.5205 23.2432C4.55774 23.2466 4.59489 23.2485 4.63223 23.249C4.63855 23.2491 4.64477 23.25 4.65109 23.25C4.93325 23.25 5.2154 23.1692 5.46883 23.0072L20.1689 13.6039C20.6828 13.275 21 12.6635 21 12.0008C21 12.0008 21 12.0005 21 12.0004C21 12.0004 21 12.0001 21 11.9999C21 11.9999 21 11.9996 21 11.9995C21 11.9995 21 11.9992 21 11.9991C21 11.3365 20.6828 10.725 20.1689 10.396ZM14.3555 8.52864L12.8939 10.6744L9.17524 5.21484L14.3555 8.52864ZM19.4561 12.2086L9.17524 18.7851L15.6124 9.33446L19.456 11.7931C19.5226 11.8356 19.5639 11.9153 19.5639 12.0007C19.5639 12.0864 19.5225 12.1661 19.4561 12.2086Z" fill="#0B1F35"/>
</svg>
