<svg xmlns="http://www.w3.org/2000/svg" width="24" height="24" viewBox="0 0 24 24" fill="none"><rect width="24" height="24" fill="none"/>
<path d="M3.91601 8.24095C2.07977 11.3658 3.2471 16.1078 5.27768 18.9831C6.29127 20.4206 7.31745 21.711 8.72299 21.711C8.74948 21.711 8.77605 21.7105 8.80325 21.7095C9.46361 21.6836 9.94082 21.4842 10.4022 21.2916C10.9202 21.0751 11.456 20.8513 12.2963 20.8513C13.0957 20.8513 13.6059 21.0678 14.0993 21.2772C14.5855 21.4835 15.0863 21.6969 15.8264 21.6833C17.4096 21.6544 18.3817 20.262 19.2393 19.0336C20.1342 17.7511 20.5832 16.5058 20.7346 16.03L20.7408 16.0111C20.7696 15.9265 20.7289 15.8342 20.6462 15.7969C20.6439 15.7959 20.6355 15.7925 20.6332 15.7915C20.3544 15.6797 17.9088 14.6157 17.883 11.7159C17.8592 9.35987 19.7177 8.11225 20.0904 7.88612L20.1078 7.8755C20.1482 7.85001 20.1763 7.80958 20.1859 7.76335C20.1954 7.71718 20.1854 7.66914 20.1584 7.63031C18.8755 5.78929 16.9093 5.51183 16.1177 5.47845C16.0029 5.4672 15.8843 5.46155 15.7652 5.46155C14.8355 5.46155 13.9448 5.80591 13.2292 6.0826C12.7353 6.2736 12.3087 6.43855 12.0144 6.43855C11.6838 6.43855 11.2547 6.27158 10.7578 6.07827C10.0934 5.81967 9.34034 5.52664 8.54311 5.52664C8.52409 5.52664 8.50537 5.52684 8.48692 5.52719C6.63323 5.55394 4.88167 6.59394 3.91601 8.24095Z" fill="#0B1F35"/>
<path d="M16.1193 0.000134186C14.9968 0.044969 13.6502 0.722589 12.8454 1.64708C12.1614 2.42414 11.4932 3.71974 11.6692 5.02568C11.6802 5.10739 11.748 5.17045 11.8319 5.1768C11.9076 5.1826 11.985 5.18553 12.062 5.1856C13.1596 5.1856 14.3437 4.59011 15.1523 3.63126C16.0034 2.61878 16.4337 1.31941 16.3036 0.155519C16.2933 0.0643135 16.2115 -0.00342746 16.1193 0.000134186Z" fill="#0B1F35"/>
</svg>
