<svg xmlns="http://www.w3.org/2000/svg" width="36" height="36" viewBox="0 0 36 36" fill="none"><rect width="36" height="36" fill="none"/>
<path fill-rule="evenodd" clip-rule="evenodd" d="M16.2191 31.9469L15.4883 32.5076L18.0801 35.8861L22.3608 30.3077L21.6299 29.7463L18.0801 34.3722L16.2191 31.9469Z" fill="#0B1F35"/>
<mask id="path-3-inside-1" fill="white">
<path fill-rule="evenodd" clip-rule="evenodd" d="M24.5153 32.3771C30.0982 30.1075 34 24.938 34 18.5C34 9.93959 27.0604 3 18.5 3C9.93959 3 3 9.93959 3 18.5C3 24.9591 6.9508 30.1366 12.5677 32.3927"/>
</mask>
<path d="M24.8919 33.3035C30.821 30.8932 35 25.377 35 18.5H33C33 24.4991 29.3753 29.3219 24.1387 31.4507L24.8919 33.3035ZM35 18.5C35 9.3873 27.6127 2 18.5 2V4C26.5081 4 33 10.4919 33 18.5H35ZM18.5 2C9.3873 2 2 9.3873 2 18.5H4C4 10.4919 10.4919 4 18.5 4V2ZM2 18.5C2 25.4027 6.23287 30.9259 12.1949 33.3206L12.9404 31.4647C7.66874 29.3473 4 24.5155 4 18.5H2Z" fill="#0B1F35" mask="url(#path-3-inside-1)"/>
<path fill-rule="evenodd" clip-rule="evenodd" d="M12.1334 21.3609C11.9442 21.282 11.7283 21.0226 11.664 20.7969C11.5925 20.5449 11.6511 20.3448 11.9349 19.8741C12.3001 19.2687 12.3852 18.9439 12.3852 18.1526C12.3852 17.3615 12.3001 17.0365 11.9349 16.4311C11.8112 16.2259 11.687 15.98 11.6588 15.8847C11.5411 15.4856 11.871 14.9966 12.3138 14.9128C12.6894 14.8418 12.9472 15.0108 13.2923 15.5542C14.2918 17.1271 14.2917 19.2286 13.2918 20.7883C12.9391 21.3386 12.5458 21.533 12.1334 21.3609ZM15.0236 22.8577C14.7849 22.7492 14.5794 22.4946 14.5235 22.238C14.4894 22.0818 14.5482 21.9088 14.8314 21.3306C15.8717 19.2061 15.8829 17.1599 14.8656 15.085C14.4189 14.1735 14.4092 13.9922 14.7869 13.6327C14.9734 13.4555 15.0526 13.424 15.3145 13.424C15.7537 13.424 15.9815 13.6466 16.3741 14.4596C16.9778 15.7099 17.2249 16.7947 17.2229 18.1844C17.2207 19.613 16.9897 20.5937 16.3447 21.9122C15.9753 22.6671 15.7928 22.8665 15.423 22.9176C15.3101 22.9332 15.1305 22.9061 15.0236 22.8577ZM18.1211 24.4644C17.7347 24.351 17.456 23.873 17.5678 23.5149C17.5949 23.4282 17.7768 23.0289 17.9719 22.6275C18.7985 20.9279 19.1423 19.106 18.9739 17.3173C18.8354 15.8475 18.5741 14.9206 17.916 13.5644C17.4745 12.6544 17.454 12.5134 17.7107 12.147C17.9548 11.7987 18.5641 11.7421 18.8841 12.0383C19.106 12.2435 19.796 13.6962 20.0622 14.5188C20.9435 17.2415 20.8091 20.1643 19.6797 22.839C19.101 24.209 18.6948 24.6327 18.1211 24.4644ZM21.1248 26.0487C20.8729 25.9752 20.6175 25.6729 20.5638 25.3845C20.5289 25.1966 20.5715 25.0661 20.8386 24.5453C21.9177 22.4406 22.3867 20.5038 22.3867 18.1528C22.3867 15.8807 21.9714 14.1129 20.94 11.994C20.7184 11.5392 20.5373 11.1169 20.5373 11.0558C20.5373 10.8303 20.7245 10.5035 20.9271 10.3752C21.2049 10.1995 21.6704 10.2323 21.8934 10.4432C21.979 10.5245 22.2016 10.8928 22.3879 11.2618C23.1259 12.723 23.6317 14.3262 23.8813 15.9947C24.0359 17.0276 24.0666 18.9847 23.9432 19.93C23.7154 21.674 23.2588 23.23 22.5279 24.7545C22.0861 25.676 21.8088 26.0551 21.5766 26.0551C21.5301 26.0551 21.4544 26.0668 21.4082 26.0812C21.3619 26.0952 21.2345 26.0808 21.1248 26.0487Z" fill="#0B1F35"/>
</svg>
