<svg xmlns="http://www.w3.org/2000/svg" width="36" height="36" viewBox="0 0 36 36" fill="none"><rect width="36" height="36" fill="none"/>
<mask id="path-2-inside-1" fill="white">
<path fill-rule="evenodd" clip-rule="evenodd" d="M23.5153 32.3771C29.0982 30.1075 33 24.938 33 18.5C33 9.93959 26.0604 3 17.5 3C8.93959 3 2 9.93959 2 18.5C2 24.9591 5.9508 30.1366 11.5677 32.3927"/>
</mask>
<path d="M23.8919 33.3035C29.821 30.8932 34 25.377 34 18.5H32C32 24.4991 28.3753 29.3219 23.1387 31.4507L23.8919 33.3035ZM34 18.5C34 9.3873 26.6127 2 17.5 2V4C25.5081 4 32 10.4919 32 18.5H34ZM17.5 2C8.3873 2 1 9.3873 1 18.5H3C3 10.4919 9.49187 4 17.5 4V2ZM1 18.5C1 25.4027 5.23287 30.9259 11.1949 33.3206L11.9404 31.4647C6.66874 29.3473 3 24.5155 3 18.5H1Z" fill="#0B1F35" mask="url(#path-2-inside-1)"/>
<path fill-rule="evenodd" clip-rule="evenodd" d="M12.0931 20.4647C11.9192 20.3922 11.7207 20.1537 11.6616 19.9463C11.5959 19.7146 11.6498 19.5307 11.9107 19.098C12.2463 18.5414 12.3246 18.2429 12.3246 17.5155C12.3246 16.7882 12.2463 16.4895 11.9107 15.9329C11.797 15.7444 11.6828 15.5183 11.6569 15.4307C11.5487 15.0638 11.8519 14.6143 12.259 14.5373C12.6042 14.4719 12.8412 14.6274 13.1585 15.1268C14.0773 16.5727 14.0771 18.5046 13.158 19.9383C12.8338 20.4442 12.4723 20.6229 12.0931 20.4647ZM14.75 21.8406C14.5305 21.7409 14.3416 21.5069 14.2903 21.271C14.2589 21.1274 14.3129 20.9684 14.5733 20.4369C15.5296 18.4839 15.5399 16.6029 14.6047 14.6955C14.1941 13.8577 14.1852 13.691 14.5324 13.3605C14.7038 13.1976 14.7767 13.1687 15.0174 13.1687C15.4211 13.1687 15.6305 13.3733 15.9914 14.1206C16.5464 15.27 16.7735 16.2672 16.7717 17.5447C16.7696 18.8579 16.5573 19.7594 15.9644 20.9715C15.6248 21.6654 15.457 21.8487 15.1171 21.8957C15.0134 21.91 14.8483 21.8851 14.75 21.8406ZM17.5974 23.3176C17.2422 23.2134 16.986 22.774 17.0888 22.4448C17.1136 22.3651 17.2809 21.9981 17.4602 21.629C18.2201 20.0667 18.5361 18.3919 18.3813 16.7476C18.254 15.3965 18.0137 14.5444 17.4088 13.2977C17.003 12.4612 16.9841 12.3316 17.2201 11.9948C17.4445 11.6746 18.0046 11.6226 18.2988 11.8949C18.5028 12.0835 19.137 13.4189 19.3818 14.1751C20.1919 16.6779 20.0683 19.3647 19.0301 21.8235C18.4981 23.0828 18.1247 23.4723 17.5974 23.3176ZM20.3586 24.774C20.1269 24.7064 19.8922 24.4286 19.8428 24.1634C19.8107 23.9907 19.8499 23.8708 20.0955 23.392C21.0874 21.4572 21.5186 19.6768 21.5186 17.5156C21.5186 15.427 21.1368 13.802 20.1887 11.8541C19.985 11.436 19.8185 11.0478 19.8185 10.9917C19.8185 10.7844 19.9905 10.484 20.1768 10.366C20.4322 10.2045 20.8601 10.2347 21.065 10.4286C21.1437 10.5033 21.3483 10.8418 21.5196 11.181C22.198 12.5242 22.663 13.998 22.8924 15.5318C23.0346 16.4812 23.0628 18.2804 22.9494 19.1493C22.74 20.7525 22.3202 22.1829 21.6483 23.5843C21.2422 24.4314 20.9873 24.7799 20.7738 24.7799C20.7311 24.7799 20.6615 24.7906 20.6191 24.8038C20.5765 24.8168 20.4593 24.8035 20.3586 24.774Z" fill="#0B1F35"/>
<path fill-rule="evenodd" clip-rule="evenodd" d="M15.1884 35.5L17.5 33.1884L19.8116 35.5L20.5 34.8116L18.1884 32.5L20.5 30.1884L19.8116 29.5L17.5 31.8116L15.1884 29.5L14.5 30.1884L16.8116 32.5L14.5 34.8116L15.1884 35.5Z" fill="#0B1F35"/>
</svg>
