<svg width="96" height="96" viewBox="0 0 96 96" xmlns="http://www.w3.org/2000/svg"><title>art_credit_m_white</title><g fill="none" fill-rule="evenodd"><path d="M0 0h96v96H0z"/><path d="M81.596 10H71v1h10.596C85.679 11 89 14.364 89 18.5v65c0 4.136-3.321 7.5-7.404 7.5H14.404C10.321 91 7 87.636 7 83.5v-65c0-4.136 3.321-7.5 7.404-7.5H25v-1H14.404C9.771 10 6 13.813 6 18.5v65c0 4.687 3.771 8.5 8.404 8.5h67.191C86.229 92 90 88.187 90 83.5v-65c0-4.687-3.771-8.5-8.404-8.5z" fill="#FFF" fill-rule="nonzero"/><path fill="#FFF" fill-rule="nonzero" d="M30 10h36v1H30z"/><path d="M27 19h1a2 2 0 0 0 2-2V5a2 2 0 0 0-2-2h-1a2 2 0 0 0-2 2v12a2 2 0 0 0 2 2zm41 0h1a2 2 0 0 0 2-2V5a2 2 0 0 0-2-2h-1a2 2 0 0 0-2 2v12a2 2 0 0 0 2 2zm-8 37c-5.514 0-10 4.486-10 10s4.486 10 10 10 10-4.486 10-10-4.486-10-10-10zm0 16c-3.309 0-6-2.691-6-6s2.691-6 6-6 6 2.691 6 6-2.691 6-6 6zM26 42c0 5.514 4.486 10 10 10s10-4.486 10-10-4.486-10-10-10-10 4.486-10 10zm10-6c3.309 0 6 2.691 6 6s-2.691 6-6 6-6-2.691-6-6 2.691-6 6-6zm-4.047 33.62l29.065-33.848 3.035 2.606-29.065 33.847z" fill="#FFF" fill-rule="nonzero" opacity=".3"/></g></svg>