<svg width="96" height="96" viewBox="0 0 96 96" xmlns="http://www.w3.org/2000/svg"><title>art_goals_m_white</title><g fill="none" fill-rule="evenodd"><path d="M0 0h96v96H0z"/><path d="M59 40.353V5h-1v35.353L40.183 67.937 29.597 51.546 5.338 90H0v1h96v-1h-4.933L59 40.353zM89.876 90H27.124L58.5 41.421 89.876 90zm-60.27-36.595l9.982 15.454L25.933 90H6.52l23.086-36.595z" fill="#FFF" fill-rule="nonzero"/><path fill="#FFF" fill-rule="nonzero" opacity=".3" d="M58.5 5l-34 12 34 11.333zM46.228 59.5L48.5 62l4-4 5 6 5-6 3 2 3.334-3.5-10.334-16z"/></g></svg>