<svg width="96" height="96" viewBox="0 0 96 96" xmlns="http://www.w3.org/2000/svg"><title>art_tool-atm_m_white</title><g fill="none" fill-rule="evenodd"><path d="M0 0h96v96H0z"/><path d="M11 90l-1-1h76l-1 1V22.62C85 14.008 78.01 7 69.422 7H26.578C17.991 7 11 14.008 11 22.62V90zm-1-67.38C10 13.456 17.438 6 26.578 6h42.844C78.562 6 86 13.456 86 22.62V90H10V22.62z" fill="#FFF" fill-rule="nonzero"/><path fill="#FFF" fill-rule="nonzero" opacity=".3" d="M24 20h48v28H24zm28 36h20v4H52zm-28 0h8v8h-8zm12 0h8v8h-8zM24 68h8v8h-8zm12 0h8v8h-8z"/></g></svg>