<svg width="24" height="24" viewBox="0 0 24 24" fill="none" xmlns="http://www.w3.org/2000/svg">
<path fill-rule="evenodd" clip-rule="evenodd" d="M16.9997 3.99984C13.5623 3.99961 10.4377 3.99956 7.00031 3.99975C6.44781 3.99978 6 4.44774 6 4.99973V19.9891L10.5097 17.4078C11.433 16.8794 12.567 16.8794 13.4903 17.4078L18 19.9891V4.99983C18 4.44785 17.5522 3.99988 16.9997 3.99984ZM7.0002 1.99975C10.4377 1.99956 13.5623 1.99961 16.9998 1.99984C18.6563 1.99996 20 3.3428 20 4.99983V21.7137C20 22.0703 19.8101 22.3999 19.5016 22.5788C19.1931 22.7576 18.8127 22.7587 18.5032 22.5816L12.4968 19.1436C12.189 18.9674 11.811 18.9674 11.5032 19.1436L5.49676 22.5816C5.18727 22.7587 4.80687 22.7576 4.49838 22.5788C4.18989 22.3999 4 22.0703 4 21.7137V4.99973C4 3.3427 5.34369 1.99985 7.0002 1.99975Z" fill="#0B1F35"/>
</svg>
