<svg xmlns="http://www.w3.org/2000/svg" width="30" height="30" version="1" viewBox="0 0 30 30"><linearGradient id="a" x1="3.99" x2="3.99" y1="8.907" y2="19.92" gradientUnits="userSpaceOnUse"><stop offset="0" stop-color="#571356"/><stop offset=".252" stop-color="#a30046"/><stop offset=".334" stop-color="#b30a3b"/><stop offset=".509" stop-color="#d31e25"/><stop offset=".742" stop-color="#a30046"/><stop offset=".762" stop-color="#9c0247"/><stop offset=".921" stop-color="#6a0e52"/><stop offset="1" stop-color="#571356"/></linearGradient><path fill="url(#a)" d="M5.615 19.92c-.361-.632-.632-1.354-.632-2.167V8.907c-1.174.271-2.077 1.083-2.618 2.076v5.597a7.747 7.747 0 0 0 3.25 3.34"/><linearGradient id="b" x1="1.809" x2="9.693" y1="8.777" y2="5.414" gradientUnits="userSpaceOnUse"><stop offset="0" stop-color="#ec1c24"/><stop offset=".099" stop-color="#d7142e"/><stop offset=".26" stop-color="#ba093b"/><stop offset=".4" stop-color="#a90243"/><stop offset=".503" stop-color="#a30046"/><stop offset=".568" stop-color="#950349"/><stop offset=".75" stop-color="#730c50"/><stop offset=".9" stop-color="#5f1154"/><stop offset="1" stop-color="#571356"/></linearGradient><path fill="url(#b)" d="M6.066 7.823h2.618c.722 0 1.354-.632 1.354-1.354s-.632-1.263-1.354-1.263H6.066a3.66 3.66 0 0 0-3.701 3.701v1.174c.632-1.355 2.076-2.258 3.701-2.258"/><linearGradient id="c" x1="2.377" x2="26.333" y1="19.048" y2="9.515" gradientUnits="userSpaceOnUse"><stop offset="0" stop-color="#00adee"/><stop offset=".143" stop-color="#02aaeb"/><stop offset=".247" stop-color="#07a1e2"/><stop offset=".34" stop-color="#1091d2"/><stop offset=".425" stop-color="#1d7abc"/><stop offset=".506" stop-color="#2d5d9f"/><stop offset=".582" stop-color="#413a7c"/><stop offset=".65" stop-color="#571356"/><stop offset=".691" stop-color="#641053"/><stop offset=".765" stop-color="#85074c"/><stop offset=".822" stop-color="#a30046"/><stop offset=".841" stop-color="#ac0342"/><stop offset=".947" stop-color="#da152c"/><stop offset="1" stop-color="#ec1c24"/></linearGradient><path fill="url(#c)" d="M26.377 9.9c-.542-2.708-2.798-4.694-5.597-4.694H14.1v12.548c0 2.437-2.076 4.423-4.514 4.423-2.889 0-5.777-1.625-7.222-4.333.09 3.791 3.25 6.951 7.222 6.951s7.222-3.159 7.222-7.041v-9.93h4.333c1.896-.001 3.792.812 5.236 2.076"/><linearGradient id="d" x1="25.668" x2="25.668" y1="8.997" y2="20.191" gradientUnits="userSpaceOnUse"><stop offset="0" stop-color="#571356"/><stop offset=".258" stop-color="#a30046"/><stop offset=".413" stop-color="#c5152f"/><stop offset=".503" stop-color="#d31e25"/><stop offset=".641" stop-color="#b50c39"/><stop offset=".749" stop-color="#a30046"/><stop offset=".906" stop-color="#700d51"/><stop offset="1" stop-color="#571356"/></linearGradient><path fill="url(#d)" d="M26.106 12.879c.271-.722.361-1.625.361-2.076-.812-.722-1.986-1.444-3.25-1.805.361.451.632 1.264.632 1.896s-.181 1.174-.542 1.805c-.361.542-.361 1.264.271 1.625 1.174.632 1.986 1.805 2.076 3.069.09.903-.09 1.896-.632 2.798 1.444-.722 2.618-1.896 3.25-3.25-.18-1.445-.812-2.799-2.166-4.062"/><linearGradient id="e" x1="16.176" x2="28.365" y1="21.364" y2="21.364" gradientUnits="userSpaceOnUse"><stop offset="0" stop-color="#571356"/><stop offset=".1" stop-color="#5f1154"/><stop offset=".25" stop-color="#730c50"/><stop offset=".432" stop-color="#950349"/><stop offset=".497" stop-color="#a30046"/><stop offset=".577" stop-color="#b00540"/><stop offset=".857" stop-color="#db162c"/><stop offset="1" stop-color="#ec1c24"/></linearGradient><path fill="url(#e)" d="M21.773 22.086H17.53c-.722 0-1.354.632-1.354 1.354 0 .722.632 1.354 1.354 1.354h4.243c3.611 0 6.68-3.069 6.59-6.861-.903 2.348-3.34 4.153-6.59 4.153"/></svg>