<svg xmlns="http://www.w3.org/2000/svg" width="24" height="24" version="1" viewBox="0 0 24 24"><linearGradient id="a" x1="2.742" x2="2.742" y1="7.023" y2="16.018" gradientUnits="userSpaceOnUse"><stop offset="0" stop-color="#571356"/><stop offset=".252" stop-color="#a30046"/><stop offset=".334" stop-color="#b30a3b"/><stop offset=".509" stop-color="#d31e25"/><stop offset=".742" stop-color="#a30046"/><stop offset=".762" stop-color="#9c0247"/><stop offset=".921" stop-color="#6a0e52"/><stop offset="1" stop-color="#571356"/></linearGradient><path fill="url(#a)" d="M4.069 16.018c-.295-.516-.516-1.106-.516-1.77V7.023c-.959.221-1.696.885-2.138 1.696v4.571a6.32 6.32 0 0 0 2.654 2.728"/><linearGradient id="b" x1=".961" x2="7.4" y1="6.917" y2="4.17" gradientUnits="userSpaceOnUse"><stop offset="0" stop-color="#ec1c24"/><stop offset=".099" stop-color="#d7142e"/><stop offset=".26" stop-color="#ba093b"/><stop offset=".4" stop-color="#a90243"/><stop offset=".503" stop-color="#a30046"/><stop offset=".568" stop-color="#950349"/><stop offset=".75" stop-color="#730c50"/><stop offset=".9" stop-color="#5f1154"/><stop offset="1" stop-color="#571356"/></linearGradient><path fill="url(#b)" d="M4.438 6.138h2.138c.59 0 1.106-.516 1.106-1.106S7.166 4 6.576 4H4.438a2.99 2.99 0 0 0-3.023 3.023v.959c.516-1.106 1.696-1.844 3.023-1.844"/><linearGradient id="c" x1="1.425" x2="20.992" y1="15.307" y2="7.52" gradientUnits="userSpaceOnUse"><stop offset="0" stop-color="#00adee"/><stop offset=".143" stop-color="#02aaeb"/><stop offset=".247" stop-color="#07a1e2"/><stop offset=".34" stop-color="#1091d2"/><stop offset=".425" stop-color="#1d7abc"/><stop offset=".506" stop-color="#2d5d9f"/><stop offset=".582" stop-color="#413a7c"/><stop offset=".65" stop-color="#571356"/><stop offset=".691" stop-color="#641053"/><stop offset=".765" stop-color="#85074c"/><stop offset=".822" stop-color="#a30046"/><stop offset=".841" stop-color="#ac0342"/><stop offset=".947" stop-color="#da152c"/><stop offset="1" stop-color="#ec1c24"/></linearGradient><path fill="url(#c)" d="M21.028 7.834C20.585 5.622 18.742 4 16.456 4H11v10.249c0 1.991-1.696 3.613-3.687 3.613-2.359 0-4.719-1.327-5.899-3.539C1.488 17.419 4.069 20 7.313 20s5.899-2.581 5.899-5.751V6.138h3.539c1.548 0 3.097.664 4.277 1.696"/><linearGradient id="d" x1="20.449" x2="20.449" y1="7.097" y2="16.24" gradientUnits="userSpaceOnUse"><stop offset="0" stop-color="#571356"/><stop offset=".258" stop-color="#a30046"/><stop offset=".413" stop-color="#c5152f"/><stop offset=".503" stop-color="#d31e25"/><stop offset=".641" stop-color="#b50c39"/><stop offset=".749" stop-color="#a30046"/><stop offset=".906" stop-color="#700d51"/><stop offset="1" stop-color="#571356"/></linearGradient><path fill="url(#d)" d="M20.806 10.267c.221-.59.295-1.327.295-1.696-.664-.59-1.622-1.18-2.654-1.475.295.369.516 1.032.516 1.548s-.147.959-.442 1.475c-.295.442-.295 1.032.221 1.327.959.516 1.622 1.475 1.696 2.507a3.728 3.728 0 0 1-.516 2.286c1.18-.59 2.138-1.548 2.654-2.654-.147-1.179-.664-2.285-1.77-3.318"/><linearGradient id="e" x1="12.696" x2="22.651" y1="17.198" y2="17.198" gradientUnits="userSpaceOnUse"><stop offset="0" stop-color="#571356"/><stop offset=".1" stop-color="#5f1154"/><stop offset=".25" stop-color="#730c50"/><stop offset=".432" stop-color="#950349"/><stop offset=".497" stop-color="#a30046"/><stop offset=".577" stop-color="#b00540"/><stop offset=".857" stop-color="#db162c"/><stop offset="1" stop-color="#ec1c24"/></linearGradient><path fill="url(#e)" d="M17.267 17.788h-3.465c-.59 0-1.106.516-1.106 1.106S13.212 20 13.802 20h3.465c2.949 0 5.456-2.507 5.382-5.604-.737 1.917-2.727 3.392-5.382 3.392"/></svg>