<svg width="48" height="48" viewBox="0 0 48 48" xmlns="http://www.w3.org/2000/svg"><title>icon_tool-email_xxl_white</title><g fill="#FFF"><path fill-opacity=".01" d="M-.5 0h48v48h-48z"/><path d="M5.495 34.686s-.674-.417-.968-.712A3.49 3.49 0 0 1 3.5 31.5v-22C3.5 7.57 5.07 6 7 6h32c1.93 0 3.5 1.57 3.5 3.5V27h-1V9.5C41.5 8.122 40.378 7 39 7H7a2.503 2.503 0 0 0-2.5 2.5v22c0 .814.995 1.995.995 1.995v1.191z"/><path d="M15.5 38.99h-5V36h5v-1h-5v-3l5 .01V31h-6v9h6v-1.01zm11 1.01v-9H25l-2.95 7h-.1L19 31h-1.5v9h.998v-7l3.021 7h.962l3.023-7-.004 7h1zm7.5 0l-1-3h-3l-1 3h-1.5l3.427-9h1.146l3.427 9H34zm-2.5-7.99l-1 3.99h2l-1-3.99zm6 7.99v-9h-1v9h1zm8-1h-5v-8h-1v9h6v-1z" opacity=".3"/><path opacity=".4" d="M23 21.111L4.45 8.076l.575-.819L23 19.889 40.975 7.257l.575.819z"/></g></svg>