<svg width="32" height="10" viewBox="0 0 32 10" xmlns="http://www.w3.org/2000/svg"><title>icon_card-visa_xl_black</title><path d="M11.435 9.834h2.515L15.523.173h-2.516l-1.572 9.661zM25.61 8.399h3.197l.295 1.435h2.309L29.398.173h-2.022c-.934 0-1.161.72-1.161.72l-3.751 8.941h2.621l.525-1.435zm2.046-5.598l.743 3.615h-2.065l1.322-3.615zM15.874 7.285L15.5 9.454s1.123.546 2.839.546 4.306-.889 4.306-3.307c0-2.512-3.51-2.746-3.51-3.838s2.449-.952 3.526-.359L23.02.421S21.912 0 20.758 0c-1.248 0-4.212.546-4.212 3.198 0 2.496 3.479 2.527 3.479 3.838s-3.121 1.076-4.151.249zM5.792 1.043S5.69.173 4.599.173H.635L.589.337l.064.015.061.016c.037.009.087.023.14.038L.969.44c.062.018.135.042.21.067l.149.049c.114.039.241.087.375.139l.149.061c.132.054.271.115.416.182.066.031.137.067.205.101.204.101.404.208.601.322.049.028.099.062.148.091l2.183 8.383h2.62L12.027.174H9.32L6.922 6.819l-.284-1.431-.846-4.345z" fill="#FFF"/></svg>