<svg xmlns="http://www.w3.org/2000/svg" width="36" height="36" version="1" viewBox="0 0 36 36"><linearGradient id="a" x1="3.125" x2="3.125" y1="10.032" y2="24.433" gradientUnits="userSpaceOnUse"><stop offset="0" stop-color="#571356"/><stop offset=".252" stop-color="#a30046"/><stop offset=".334" stop-color="#b30a3b"/><stop offset=".509" stop-color="#d31e25"/><stop offset=".742" stop-color="#a30046"/><stop offset=".762" stop-color="#9c0247"/><stop offset=".921" stop-color="#6a0e52"/><stop offset="1" stop-color="#571356"/></linearGradient><path fill="url(#a)" d="M5.25 24.434c-.472-.826-.826-1.771-.826-2.833V10.032c-1.535.354-2.716 1.416-3.424 2.715v7.319a10.13 10.13 0 0 0 4.25 4.368"/><linearGradient id="b" x1=".273" x2="10.582" y1="9.862" y2="5.465" gradientUnits="userSpaceOnUse"><stop offset="0" stop-color="#ec1c24"/><stop offset=".099" stop-color="#d7142e"/><stop offset=".26" stop-color="#ba093b"/><stop offset=".4" stop-color="#a90243"/><stop offset=".503" stop-color="#a30046"/><stop offset=".568" stop-color="#950349"/><stop offset=".75" stop-color="#730c50"/><stop offset=".9" stop-color="#5f1154"/><stop offset="1" stop-color="#571356"/></linearGradient><path fill="url(#b)" d="M5.84 8.615h3.423c.944 0 1.771-.826 1.771-1.771s-.826-1.653-1.771-1.653H5.84C3.125 5.192 1 7.317 1 10.032v1.535c.826-1.771 2.715-2.952 4.84-2.952"/><linearGradient id="c" x1="1.016" x2="32.343" y1="23.294" y2="10.827" gradientUnits="userSpaceOnUse"><stop offset="0" stop-color="#00adee"/><stop offset=".143" stop-color="#02aaeb"/><stop offset=".247" stop-color="#07a1e2"/><stop offset=".34" stop-color="#1091d2"/><stop offset=".425" stop-color="#1d7abc"/><stop offset=".506" stop-color="#2d5d9f"/><stop offset=".582" stop-color="#413a7c"/><stop offset=".65" stop-color="#571356"/><stop offset=".691" stop-color="#641053"/><stop offset=".765" stop-color="#85074c"/><stop offset=".822" stop-color="#a30046"/><stop offset=".841" stop-color="#ac0342"/><stop offset=".947" stop-color="#da152c"/><stop offset="1" stop-color="#ec1c24"/></linearGradient><path fill="url(#c)" d="M32.4 11.33c-.708-3.541-3.659-6.138-7.319-6.138h-8.735V21.6c0 3.187-2.715 5.784-5.902 5.784-3.777 0-7.555-2.125-9.444-5.666.118 4.958 4.25 9.09 9.444 9.09s9.444-4.132 9.444-9.208V8.615h5.666c2.479 0 4.958 1.063 6.846 2.715"/><linearGradient id="d" x1="31.474" x2="31.474" y1="10.15" y2="24.788" gradientUnits="userSpaceOnUse"><stop offset="0" stop-color="#571356"/><stop offset=".258" stop-color="#a30046"/><stop offset=".413" stop-color="#c5152f"/><stop offset=".503" stop-color="#d31e25"/><stop offset=".641" stop-color="#b50c39"/><stop offset=".749" stop-color="#a30046"/><stop offset=".906" stop-color="#700d51"/><stop offset="1" stop-color="#571356"/></linearGradient><path fill="url(#d)" d="M32.046 15.226c.354-.944.472-2.125.472-2.715-1.062-.944-2.597-1.889-4.25-2.361.472.59.826 1.653.826 2.479 0 .826-.236 1.535-.708 2.361-.472.708-.472 1.653.354 2.125 1.535.826 2.597 2.361 2.715 4.014a5.965 5.965 0 0 1-.826 3.659c1.889-.944 3.423-2.479 4.25-4.25-.236-1.889-1.062-3.659-2.833-5.312"/><linearGradient id="e" x1="19.061" x2="35" y1="26.322" y2="26.322" gradientUnits="userSpaceOnUse"><stop offset="0" stop-color="#571356"/><stop offset=".1" stop-color="#5f1154"/><stop offset=".25" stop-color="#730c50"/><stop offset=".432" stop-color="#950349"/><stop offset=".497" stop-color="#a30046"/><stop offset=".577" stop-color="#b00540"/><stop offset=".857" stop-color="#db162c"/><stop offset="1" stop-color="#ec1c24"/></linearGradient><path fill="url(#e)" d="M26.38 27.267h-5.548c-.944 0-1.771.826-1.771 1.771 0 .944.826 1.771 1.771 1.771h5.548c4.722 0 8.735-4.014 8.617-8.972-1.18 3.069-4.367 5.43-8.617 5.43"/></svg>