<svg xmlns="http://www.w3.org/2000/svg" width="48" height="46" viewBox="0 0 48 46"><g fill="none" fill-rule="evenodd"><path d="M0-1h48v48H0z"/><path stroke="#FFF" d="M35.5 20h.001"/><path d="M0-1h48v48H0z"/><path fill="#FFF" d="M40.541 28.525a44.83 44.83 0 0 1-.783-.454l-.509-.302c-2.183-1.283-3.189-1.882-3.244-7.158C37.936 17.969 39 14.127 39 10.357 39 5.535 37.977 0 30 0c-4.24 0-6.893 1.557-8.129 4.712C20.693 4.265 19.266 4 17.5 4 9.08 4 8 9.765 8 14.786c0 4.431 1.433 8.951 3.995 11.671-.051 5.542-1.011 5.839-3.057 7.016-.221.128-.453.453-.695.599-.241.145-.504.295-.783.454C4.669 36.117 0 38.783 0 46h1c0-6.637 4.186-9.073 6.956-10.655.286-.163.555-.365.802-.513.237-.142.463-.369.679-.493 2.212-1.273 3.365-2.193 3.538-6.988C14.266 28.381 15.779 29 17.5 29c1.721 0 3.234-.619 4.526-1.648.173 4.795 1.326 5.716 3.538 6.988.216.124.442.447.679.589.247.148.516.302.802.465C29.814 36.975 34 39.363 34 46h1c0-7.217-4.669-9.931-7.459-11.523-.279-.159-.542-.358-.783-.502-.242-.146-.474-.375-.695-.502-2.046-1.176-3.007-1.474-3.057-7.016 1.052-1.116 1.916-2.531 2.565-4.125C26.881 23.439 28.368 24 30 24c1.975 0 3.665-.865 5.035-2.262.207 4.611 1.406 5.542 3.707 6.894l.501.297c.247.148.516.302.802.465C42.814 30.975 47 33.363 47 40h1c0-7.217-4.669-9.883-7.459-11.475zM22.106 26H22l.001.1C20.792 27.267 19.3 28 17.5 28c-1.8 0-3.292-.733-4.501-1.9L13 26h-.106C10.236 23.341 9 18.541 9 14.786 9 7.835 11.462 5 17.5 5S26 7.835 26 14.786c0 3.755-1.236 8.555-3.894 11.214zM30 23c-1.5 0-2.862-.571-4.057-1.683A20.611 20.611 0 0 0 27 14.786c0-3.68-.593-7.751-4.218-9.667C23.859 2.323 26.155 1 30 1c5.682 0 8 2.711 8 9.357C38 15.607 35.518 23 30 23z"/></g></svg>