<?xml version="1.0" encoding="UTF-8"?>
<svg width="22px" height="13px" viewBox="0 0 22 13" version="1.1" xmlns="http://www.w3.org/2000/svg" xmlns:xlink="http://www.w3.org/1999/xlink">
    <!-- Generator: Sketch 46.2 (44496) - http://www.bohemiancoding.com/sketch -->
    <title>icon_maestro_l_color</title>
    <desc>Created with Sketch.</desc>
    <defs></defs>
    <g id="aic-test" stroke="none" stroke-width="1" fill="none" fill-rule="evenodd">
        <g id="aic_android-copy-5" transform="translate(-68.000000, -603.000000)" fill-rule="nonzero">
            <g id="icon_maestro_l_color" transform="translate(68.000000, 603.000000)">
                <g id="Group-8">
                    <rect id="Rectangle-path" fill="#6C6BBD" x="8.08048142" y="0.755590441" width="5.8021978" height="9.55843014"></rect>
                    <path d="M8.44887493,6.31129077 C8.44670558,4.4457831 9.38069755,2.68302893 10.9815803,1.53123147 C8.26279759,-0.427385291 4.35851655,-0.142095823 2.01256099,2.1866061 C-0.333394567,4.51530802 -0.333394567,8.10558505 2.01256099,10.434287 C4.35851655,12.7629889 8.26279759,13.0482784 10.9815803,11.0896616 C9.38120684,9.9382298 8.44727193,8.17620593 8.44887493,6.31129077 L8.44887493,6.31129077 Z" id="_Path_" fill="#D32011"></path>
                    <path d="M21.7110413,6.31129077 C21.7109822,8.63857356 20.2613062,10.7615328 17.9776964,11.7785396 C15.6940866,12.7955463 12.9774608,12.5280517 10.9815803,11.0896616 C12.5812555,9.93725226 13.5152607,8.17546266 13.5152607,6.31044654 C13.5152607,4.44543042 12.5812555,2.68364082 10.9815803,1.53123147 C12.9774608,0.092841411 15.6940866,-0.17465324 17.9776964,0.842353518 C20.2613062,1.85936028 21.7109822,3.98231952 21.7110413,6.3096023 L21.7110413,6.31129077 Z" id="Shape" fill="#0099DF"></path>
                </g>
            </g>
        </g>
    </g>
</svg>