<?xml version="1.0" encoding="UTF-8"?>
<svg width="22px" height="14px" viewBox="0 0 22 14" version="1.1" xmlns="http://www.w3.org/2000/svg" xmlns:xlink="http://www.w3.org/1999/xlink">
    <!-- Generator: Sketch 46.2 (44496) - http://www.bohemiancoding.com/sketch -->
    <title>icon_mastercard_l_color</title>
    <desc>Created with Sketch.</desc>
    <defs></defs>
    <g id="aic-test" stroke="none" stroke-width="1" fill="none" fill-rule="evenodd">
        <g id="aic_android-copy-5" transform="translate(-68.000000, -515.000000)" fill-rule="nonzero">
            <g id="icon_mastercard_l_color" transform="translate(68.000000, 515.000000)">
                <g id="Group-8">
                    <rect id="Rectangle-path" fill="#FF5F00" x="8.08048142" y="0.809561187" width="5.8021978" height="10.2411752"></rect>
                    <path d="M8.44887493,6.76209726 C8.44670558,4.76333903 9.38069755,2.87467385 10.9815803,1.64060514 C8.26279759,-0.457912812 4.35851655,-0.152245525 2.01256099,2.34279225 C-0.333394567,4.83783003 -0.333394567,8.68455541 2.01256099,11.1795932 C4.35851655,13.674631 8.26279759,13.9802982 10.9815803,11.8817803 C9.38120684,10.6481034 8.44727193,8.76022064 8.44887493,6.76209726 L8.44887493,6.76209726 Z" id="_Path_" fill="#EB001B"></path>
                    <path d="M21.7110413,6.76209726 C21.7109822,9.25561453 20.2613062,11.5302137 17.9776964,12.6198638 C15.6940866,13.7095139 12.9774608,13.4229125 10.9815803,11.8817803 C12.5812555,10.647056 13.5152607,8.75942428 13.5152607,6.76119272 C13.5152607,4.76296116 12.5812555,2.87532945 10.9815803,1.64060514 C12.9774608,0.0994729404 15.6940866,-0.187128472 17.9776964,0.902521627 C20.2613062,1.99217173 21.7109822,4.26677091 21.7110413,6.76028818 L21.7110413,6.76209726 Z" id="Shape" fill="#F79E1B"></path>
                </g>
            </g>
        </g>
    </g>
</svg>