<svg xmlns="http://www.w3.org/2000/svg" width="46" height="45" viewBox="0 0 46 45"><g fill="none" fill-rule="evenodd"><path d="M-1-2h48v48H-1z"/><path fill="#FFF" d="M17 28c-5.6 0-9-6.6-9-13.1C8 10.3 9 5 17 5s9 5.3 9 9.9c0 6.5-3.4 13.1-9 13.1zm0-22c-5.7 0-8 2.6-8 8.9 0 5 2.5 12.1 8 12.1s8-7.1 8-12.1C25 8.6 22.7 6 17 6z"/><path fill="#FFF" d="M29.4 22c-1.8 0-3.5-.7-4.9-2.1l.7-.7c1.2 1.2 2.6 1.8 4.2 1.8 5.3 0 7.6-6.7 7.6-11.5 0-6-2.2-8.5-7.6-8.5C25 1 22.7 2.7 22 6.4l-1-.2C21.8 2 24.5 0 29.4 0 37 0 38 5.1 38 9.5c0 6.1-3.2 12.5-8.6 12.5zM1 45H0c0-7.4 4.5-10 7.2-11.6l.6-.3c.4-.2.7-.4 1-.6 1.9-1 3.1-1.7 3.1-6.9h1c0 5.5-1.3 6.5-3.6 7.8-.3.2-.7.4-1 .6l-.6.3C5 35.8 1 38.2 1 45zm33 0h-1c0-6.8-4-9.2-6.7-10.7l-.6-.3c-.4-.2-.7-.4-1-.6-2.3-1.3-3.6-2.2-3.6-7.8h1c0 5.2 1.2 5.8 3.1 6.9.3.2.7.4 1 .6l.6.3C29.5 35 34 37.6 34 45z"/><path fill="#FFF" d="M46 39h-1c0-6.8-4-9.2-6.7-10.7l-.6-.3c-.4-.2-.7-.4-1-.6-2.3-1.2-3.6-2.2-3.6-7.5h1c0 5 1.2 5.6 3.1 6.6.3.2.7.4 1 .6l.6.3C41.5 29 46 31.6 46 39z"/></g></svg>