<svg xmlns="http://www.w3.org/2000/svg" width="24" height="24" version="1" viewBox="0 0 24 24"><linearGradient id="a" x1="6" x2="18" y1="7" y2="7" gradientUnits="userSpaceOnUse"><stop offset="0" stop-color="#de3934"/><stop offset="1" stop-color="#e6552f"/></linearGradient><circle cx="12" cy="7" r="6" fill="url(#a)"/><linearGradient id="b" x1="6" x2="18" y1="17.393" y2="17.393" gradientUnits="userSpaceOnUse"><stop offset="0" stop-color="#de3934"/><stop offset="1" stop-color="#e6552f"/></linearGradient><path fill="url(#b)" d="M11.994 15.143C8.68 15.156 5.996 16.174 6 17.418c.003 1.241 2.694 2.237 6.007 2.224 3.313-.012 5.996-1.03 5.993-2.273-.004-1.242-2.694-2.238-6.006-2.226z"/><linearGradient id="c" x1="6" x2="18" y1="22.179" y2="22.179" gradientUnits="userSpaceOnUse"><stop offset="0" stop-color="#de3934"/><stop offset="1" stop-color="#e6552f"/></linearGradient><path fill="url(#c)" d="M18 22.171c.004.414-2.68.754-5.993.758-3.313.004-6.004-.328-6.007-.742-.004-.415 2.68-.754 5.994-.758 3.312-.004 6.002.328 6.006.742z"/></svg>