<svg xmlns="http://www.w3.org/2000/svg" width="14" height="15" viewBox="0 0 14 15"><path fill="#FFF" d="M6 .889h2v1H6zM4 6.556v3.777h1V6.556h4v3.777h1V4.667H9v.944H5v-.944H4v.944zm2-2.834h2v.945h1V2.778H5v1.889h1zM3 1.833h1v1H3zm0 1.889h1v1H3zm-1-.944h1v1H2zm0 1.889h1v1H2zm-2 0h1v1H0zm1 .944h1v1H1zm1 .945h1v1H2zm-2 0h1v1H0zM1 7.5h1v1H1zm1 .944h1v1H2zm-2 0h1v1H0zm1 .945h1v1H1zm1 .944h1v1H2zm1 .945h1v1H3zm2-.945h1v1H5zm0 1.889H4v.945h2v-.945zm1 .945v.944h2v-.944H7zm4-11.334h1v1h-1zm0 1.889h1v1h-1zm1-.944h1v1h-1zm0 1.889h1v1h-1zm2 0h1v1h-1zm-1 .944h1v1h-1zm-1 .945h1v1h-1zm2 0h1v1h-1zM12 7.5h1v1h-1zm-1 .944h1v1h-1zm2 0h1v1h-1zm-1 .945h1v1h-1zm-1 .944h1v1h-1zm-1 .945h1v1h-1zm-2 .944v.945h2v-.945H9zm0 0v-.944H6v.944h1zm0-1.889h1v1H8z"/></svg>