<svg xmlns="http://www.w3.org/2000/svg" width="18" height="18" version="1" viewBox="0 0 18 18"><linearGradient id="a" x1="5" x2="13" y1="5" y2="5" gradientUnits="userSpaceOnUse"><stop offset="0" stop-color="#de3934"/><stop offset="1" stop-color="#e6552f"/></linearGradient><circle cx="9" cy="5" r="4" fill="url(#a)"/><linearGradient id="b" x1="5" x2="13" y1="12.5" y2="12.5" gradientUnits="userSpaceOnUse"><stop offset="0" stop-color="#de3934"/><stop offset="1" stop-color="#e6552f"/></linearGradient><path fill="url(#b)" d="M8.996 11c-2.21.008-3.998.687-3.996 1.517.002.827 1.796 1.491 4.005 1.483 2.209-.008 3.998-.687 3.995-1.515-.003-.829-1.796-1.493-4.004-1.485z"/><linearGradient id="c" x1="5" x2="13" y1="16.5" y2="16.5" gradientUnits="userSpaceOnUse"><stop offset="0" stop-color="#de3934"/><stop offset="1" stop-color="#e6552f"/></linearGradient><path fill="url(#c)" d="M13 16.495c.002.276-1.786.503-3.995.505-2.209.003-4.003-.219-4.005-.494-.002-.277 1.786-.503 3.996-.506 2.208-.003 4.001.219 4.004.495z"/></svg>