<svg xmlns="http://www.w3.org/2000/svg" width="48" height="48" viewBox="0 0 48 48"><g fill="none" fill-rule="evenodd"><path d="M0 0h48v48H0z"/><circle cx="24" cy="24" r="20" fill="#EC342E"/><path fill="#FFF" d="M18 30.972c0-.093.083-.167.186-.167h11.63c.102 0 .184.074.184.167v1.861c0 .093-.082.167-.184.167h-11.63c-.103 0-.186-.074-.186-.167v-1.861zm7.924-14.215l3.51 9.35c.028.072.01.193-.106.236-.116.043-1.816.686-1.91.72a.186.186 0 0 1-.234-.107c-.035-.09-.667-2.085-.747-2.297h-4.889c-.08.212-.822 2.21-.855 2.297a.182.182 0 0 1-.234.107l-1.908-.72a.182.182 0 0 1-.108-.236c.12-.327 3.342-8.904 3.507-9.35.319-.865.729-1.757 1.988-1.757 1.26 0 1.656.878 1.986 1.757zm-3.635 5.879h3.305l-1.645-4.79h-.02l-1.64 4.79z"/></g></svg>