<svg xmlns="http://www.w3.org/2000/svg" width="36" height="36" version="1" viewBox="0 0 36 36"><linearGradient id="a" x1="9" x2="27" y1="11" y2="11" gradientUnits="userSpaceOnUse"><stop offset="0" stop-color="#de3934"/><stop offset="1" stop-color="#e6552f"/></linearGradient><circle cx="18" cy="11" r="9" fill="url(#a)"/><linearGradient id="b" x1="9" x2="27" y1="25.5" y2="25.5" gradientUnits="userSpaceOnUse"><stop offset="0" stop-color="#de3934"/><stop offset="1" stop-color="#e6552f"/></linearGradient><path fill="url(#b)" d="M27 25.464c-.007-1.932-4.04-3.482-9.009-3.464-4.972.02-8.996 1.604-8.991 3.54.004 1.93 4.04 3.48 9.011 3.46 4.97-.019 8.994-1.602 8.989-3.536z"/><linearGradient id="c" x1="9" x2="27" y1="32.5" y2="32.5" gradientUnits="userSpaceOnUse"><stop offset="0" stop-color="#de3934"/><stop offset="1" stop-color="#e6552f"/></linearGradient><path fill="url(#c)" d="M27 32.485c.005.829-4.019 1.508-8.989 1.515-4.971.008-9.007-.656-9.011-1.483-.005-.83 4.019-1.509 8.991-1.517 4.969-.008 9.002.656 9.009 1.485z"/></svg>