<svg width="24" height="24" viewBox="0 0 24 24" xmlns="http://www.w3.org/2000/svg"><title>icon__account-shared_m_white</title><g fill="none" fill-rule="evenodd"><path d="M0 0h24v24H0z"/><path d="M5 5a3 3 0 0 0-3 3v3a3 3 0 0 0 3 3h7a3 3 0 0 0 3-3V8a3 3 0 0 0-3-3H5zm0-1h7a4 4 0 0 1 4 4v3a4 4 0 0 1-4 4H5a4 4 0 0 1-4-4V8a4 4 0 0 1 4-4zm11 4h-1v1h1V8zm0 2h-1v1h1v-1z" fill="#FFF" fill-rule="nonzero"/><path d="M12 10a3 3 0 0 0-3 3v3a3 3 0 0 0 3 3h7a3 3 0 0 0 3-3v-3a3 3 0 0 0-3-3h-7zm0-1h7a4 4 0 0 1 4 4v3a4 4 0 0 1-4 4h-7a4 4 0 0 1-4-4v-3a4 4 0 0 1 4-4zm-3 4H8v1h1v-1zm0 2H8v1h1v-1z" fill="#FFF" fill-rule="nonzero"/></g></svg>