<svg xmlns="http://www.w3.org/2000/svg" width="23" height="23" viewBox="0 0 23 23"><g fill="none" fill-rule="evenodd"><path d="M0-1h24v24H0z"/><path fill="#FFF" d="M8.9 15.1l-.7.7 2.1 2.1H6.5c-1.6 0-3.1-.7-4.1-1.9l-.8.7c1.2 1.4 3 2.2 4.9 2.2h3.8L8.2 21l.7.7 3.4-3.4-3.4-3.2zM17.5 3h-3.8L15.8.9l-.7-.7-3.4 3.4L15.1 7l.7-.7L13.7 4h3.8c1.6 0 3.1.7 4.1 1.9l.8-.7c-1.3-1.4-3-2.2-4.9-2.2z" opacity=".3"/><path fill="#FFF" d="M2 13h1v-2h4v-1H3V8h2.9C8.4 8 10 6.3 10 4S8.4 0 5.9 0H2v7H.2v1H2v2H.2v1H2v2zM3 1h2.6C7.6 1 9 2.2 9 4c0 1.7-1.4 3-3.4 3H3V1zm12 17.5h-1c.2 1.9 1.7 3.3 4 3.4v1h1v-1c2.4-.2 4-1.5 4-3.6 0-1.7-1-2.7-3.5-3.3l-.5-.1v-5c1.6.2 2.6 1.1 2.8 2.4h1c-.1-1.8-1.7-3.1-3.8-3.3V8h-1v1c-2.1.2-3.7 1.6-3.7 3.4 0 1.6 1 2.6 3.3 3.2l.4.1V21c-1.7-.1-2.8-1.1-3-2.5zm.4-6.1c0-1.3 1.1-2.3 2.6-2.5v4.8c-1.8-.5-2.6-1.2-2.6-2.3zm3.8 3.6c1.9.5 2.8 1.2 2.8 2.5 0 1.4-1.2 2.4-3 2.6V16h.2z"/></g></svg>