<svg width="48" height="48" viewBox="0 0 48 48" xmlns="http://www.w3.org/2000/svg"><title>Templates</title><g fill="none" fill-rule="evenodd"><circle fill="#F5F5F5" cx="24" cy="24" r="22"/><path d="M24 13.241c.2 0 .401.115.476.345l2.297 7.068a.497.497 0 0 0 .475.346h7.431a.5.5 0 0 1 .294.905l-6.012 4.368a.5.5 0 0 0-.182.559l2.296 7.068a.502.502 0 0 1-.477.657.49.49 0 0 1-.292-.098l-6.012-4.368a.498.498 0 0 0-.588 0l-6.012 4.368a.49.49 0 0 1-.292.098.502.502 0 0 1-.477-.657l2.296-7.068a.499.499 0 0 0-.182-.559l-6.012-4.368a.5.5 0 0 1 .294-.905h7.431a.5.5 0 0 0 .476-.345l2.297-7.068a.49.49 0 0 1 .475-.346zm0-1c-.652 0-1.225.417-1.427 1.037L20.389 20h-7.068c-.652 0-1.225.417-1.426 1.036-.201.62.018 1.294.545 1.677l5.718 4.154-2.185 6.723c-.15.463-.074.952.209 1.342.284.391.74.624 1.219.624.316 0 .62-.1.88-.289L24 31.112l5.718 4.155c.26.189.564.289.88.289.479 0 .935-.233 1.219-.624.283-.39.36-.879.209-1.342l-2.184-6.722 5.718-4.154a1.497 1.497 0 0 0 .545-1.677A1.495 1.495 0 0 0 34.679 20h-7.068l-2.184-6.723A1.497 1.497 0 0 0 24 12.241z" fill="#0B1F35"/></g></svg>