<svg xmlns="http://www.w3.org/2000/svg" width="30" height="26" viewBox="0 0 30 26"><g fill="#FFF"><path d="M13.219 1.423a3.994 3.994 0 0 1 3.561.008l.441-.897a4.999 4.999 0 0 0-4.439-.009l.437.898zM9.394 23.497c1.776 1.161 3.707 1.774 5.583 1.774 1.894 0 3.841-.625 5.632-1.807l-.551-.835c-3.239 2.138-6.873 2.148-10.117.03l-.547.838z"/><path d="M10 19c0 1.285 1.215 2.5 2.5 2.5h1c.671 0 1.051.719 1.053.724l.441.877.451-.874c.004-.007.384-.727 1.055-.727h1c1.285 0 2.5-1.215 2.5-2.5V8h-2V6l-.041-.198C17.529 4.808 16.202 4 15 4c-1.202 0-2.529.808-2.959 1.802L12 6c0 .635.024 1.469.042 2H10v11zm5-14c.775 0 1.68.511 2 1.113v2.146l-1.996 1.597-1.952-1.601A73.243 73.243 0 0 1 13 6.113C13.32 5.511 14.225 5 15 5zm-4 4h1.382l2.614 2.144L17.675 9H19v5h-8V9zm0 6h8v4c0 .729-.771 1.5-1.5 1.5h-1c-.682 0-1.179.34-1.5.669-.321-.329-.818-.669-1.5-.669h-1c-.729 0-1.5-.771-1.5-1.5v-4z"/><path d="M1.992 12.93c-.064 1.869-.54 4.188-1.394 5.334l-.375.504.577.253c1.012.442 2.018.432 3-.03 1.036 1.746 2.374 2.169 3.905 2.654l.795.251v-.683c0-.66-.183-2.503-.912-3.819.699-.112 1.42-.406 1.846-1.145l.317-.552-.611-.177C8.623 15.37 8 13.32 8 11c0-2.691 1.043-3.523 2.761-4.573.793-.485.691-1.035.617-1.436-.078-.424-.186-1.006.551-2.233L12.383 2H11.5c-1.49 0-2.991.565-3.395 1.81-.582-.275-1.346-.761-1.733-1.331l-.458-.677-.394.716c-.896 1.628-.971 3.039-.249 4.018-.853.374-1.405 1.178-1.908 1.91-.726 1.055-1.353 1.967-2.705 1.967H.055l.112.593c.252 1.33.991 1.759 1.825 1.924zm2.195-3.917c.721-1.048 1.21-1.691 2.133-1.691h1.748l-1.484-.924c-1.03-.642-.914-1.751-.505-2.742.769.72 1.804 1.189 2.284 1.325l.637.18V4.5c0-.929.912-1.283 1.639-1.418-.438 1.039-.32 1.677-.244 2.09.018.092.041.219.035.25-.001 0-.029.053-.19.151C8.404 6.695 7 7.808 7 11c0 1.447.279 4.067 1.259 5.095-.272.199-.742.364-1.604.364H5.448l.854.854c.663.664 1.039 2.102 1.157 3.203-1.279-.424-2.241-.886-3.012-2.426l-.245-.491-.467.29c-.657.409-1.307.541-1.973.4C2.61 16.726 3 14.291 3 12.5v-.449l-.447-.048c-.699-.075-1.046-.234-1.243-.647 1.449-.267 2.232-1.405 2.877-2.343z"/><path d="M5.938 10.741l-.877-.481C4.317 11.612 4 13.18 4 15.5h1c0-2.14.28-3.563.938-4.759zm20.699-2.295c-.503-.732-1.056-1.536-1.908-1.91.723-.979.647-2.39-.248-4.019l-.395-.715-.458.676c-.387.57-1.151 1.056-1.733 1.331C21.491 2.565 19.99 2 18.5 2h-.883l.454.757c.736 1.228.629 1.809.551 2.233-.074.401-.176.951.617 1.436C20.957 7.477 22 8.309 22 11c0 2.32-.623 4.37-1.14 4.52l-.611.178.317.552c.426.739 1.146 1.033 1.846 1.145-.729 1.316-.912 3.159-.912 3.819v.683l.795-.252c1.531-.484 2.869-.908 3.905-2.654.98.462 1.989.471 3 .03l.576-.252-.375-.504c-.854-1.146-1.329-3.465-1.394-5.334.834-.166 1.573-.594 1.825-1.924l.112-.593h-.604c-1.351-.001-1.978-.913-2.703-1.968zm.81 3.557l-.447.048v.449c0 1.791.39 4.226 1.237 5.788-.667.141-1.316.009-1.973-.4l-.467-.29-.245.491c-.771 1.541-1.732 2.002-3.012 2.426.118-1.101.494-2.539 1.157-3.203l.854-.854h-1.207c-.861 0-1.331-.165-1.604-.364C22.721 15.067 23 12.447 23 11c0-3.192-1.404-4.305-3.239-5.427-.154-.094-.188-.146-.188-.146a1.282 1.282 0 0 1 .033-.255c.076-.414.194-1.051-.244-2.09C20.088 3.217 21 3.571 21 4.5v.661l.637-.18c.48-.136 1.516-.605 2.284-1.325.409.991.525 2.1-.505 2.742l-1.483.924h1.748c.923 0 1.412.643 2.133 1.691.645.938 1.428 2.076 2.877 2.342-.198.414-.545.573-1.244.648z"/><path d="M24.062 10.741C24.72 11.937 25 13.36 25 15.5h1c0-2.32-.317-3.888-1.062-5.241l-.876.482z"/></g></svg>