<svg xmlns="http://www.w3.org/2000/svg" width="24" height="24" viewBox="0 0 24 24" fill="none"><rect width="24" height="24" fill="none"/>
<path d="M22.2026 4.13751H1.79742C0.804703 4.13751 0 4.94222 0 5.93493V18.0643C0 19.057 0.804703 19.8617 1.79742 19.8617H22.2026C23.1952 19.8617 24 19.057 24 18.0643V5.93493C24 4.94222 23.1953 4.13751 22.2026 4.13751Z" fill="#41479B"/>
<path d="M12.1681 5.9385L12.334 6.43599L12.8584 6.44007C12.9263 6.44058 12.9545 6.52721 12.8999 6.56757L12.478 6.8791L12.6361 7.37907C12.6566 7.44376 12.5829 7.49738 12.5277 7.45787L12.1011 7.1529L11.6745 7.45787C11.6193 7.49734 11.5455 7.44381 11.566 7.37907L11.7242 6.8791L11.3023 6.56757C11.2477 6.52721 11.2758 6.44058 11.3437 6.44007L11.8681 6.43599L12.034 5.9385C12.0555 5.8741 12.1466 5.8741 12.1681 5.9385Z" fill="#FFE15A"/>
<path d="M12.1681 16.6195L12.334 17.117L12.8584 17.1211C12.9263 17.1216 12.9545 17.2082 12.8999 17.2486L12.478 17.5601L12.6361 18.0601C12.6566 18.1247 12.5829 18.1784 12.5277 18.1389L12.1011 17.8339L11.6745 18.1389C11.6193 18.1783 11.5455 18.1248 11.566 18.0601L11.7242 17.5601L11.3023 17.2486C11.2477 17.2082 11.2758 17.1216 11.3437 17.1211L11.8681 17.117L12.034 16.6195C12.0555 16.5551 12.1466 16.5551 12.1681 16.6195Z" fill="#FFE15A"/>
<path d="M17.5087 11.2791L17.6746 11.7766L18.199 11.7807C18.267 11.7812 18.2951 11.8678 18.2405 11.9082L17.8186 12.2197L17.9768 12.7197C17.9972 12.7843 17.9236 12.838 17.8683 12.7985L17.4417 12.4935L17.0151 12.7985C16.9598 12.8379 16.8861 12.7844 16.9066 12.7197L17.0648 12.2197L16.6429 11.9082C16.5883 11.8678 16.6164 11.7812 16.6843 11.7807L17.2087 11.7766L17.3746 11.2791C17.3961 11.2147 17.4872 11.2147 17.5087 11.2791Z" fill="#FFE15A"/>
<path d="M6.82766 11.2791L6.9936 11.7766L7.51799 11.7807C7.58591 11.7812 7.61404 11.8678 7.55943 11.9082L7.13755 12.2197L7.29571 12.7197C7.31619 12.7843 7.2425 12.838 7.18724 12.7985L6.76063 12.4935L6.33402 12.7985C6.2788 12.8379 6.20507 12.7844 6.22555 12.7197L6.38371 12.2197L5.96183 11.9082C5.90722 11.8678 5.93535 11.7812 6.00327 11.7807L6.52766 11.7766L6.6936 11.2791C6.71507 11.2147 6.80624 11.2147 6.82766 11.2791Z" fill="#FFE15A"/>
<path d="M7.62942 8.49057L7.79536 8.98805L8.31975 8.99213C8.38767 8.99264 8.41579 9.07927 8.36118 9.11963L7.93931 9.43116L8.09746 9.93113C8.11795 9.99582 8.04426 10.0494 7.989 10.0099L7.56239 9.70496L7.13578 10.0099C7.08056 10.0494 7.00682 9.99586 7.02731 9.93113L7.18547 9.43116L6.76359 9.11963C6.70898 9.07927 6.73711 8.99264 6.80503 8.99213L7.32942 8.98805L7.49536 8.49057C7.51682 8.42616 7.6079 8.42616 7.62942 8.49057Z" fill="#FFE15A"/>
<path d="M16.8795 13.8303L17.0454 14.3277L17.5698 14.3318C17.6377 14.3323 17.6659 14.419 17.6112 14.4593L17.1894 14.7708L17.3475 15.2708C17.368 15.3356 17.2943 15.3891 17.2391 15.3496L16.8124 15.0446L16.3858 15.3496C16.3306 15.3891 16.2569 15.3355 16.2774 15.2708L16.4355 14.7708L16.0137 14.4593C15.959 14.419 15.9872 14.3323 16.0551 14.3318L16.5795 14.3277L16.7454 13.8303C16.7669 13.7659 16.858 13.7659 16.8795 13.8303Z" fill="#FFE15A"/>
<path d="M14.9246 6.5357L15.0906 7.03318L15.615 7.03726C15.6829 7.03777 15.711 7.1244 15.6564 7.16476L15.2345 7.47629L15.3927 7.97626C15.4132 8.04094 15.3395 8.09457 15.2842 8.05505L14.8576 7.75008L14.431 8.05505C14.3757 8.09452 14.302 8.04099 14.3225 7.97626L14.4806 7.47629L14.0588 7.16476C14.0042 7.1244 14.0323 7.03777 14.1002 7.03726L14.6246 7.03318L14.7905 6.5357C14.812 6.47134 14.9031 6.47134 14.9246 6.5357Z" fill="#FFE15A"/>
<path d="M9.58422 15.7855L9.75016 16.283L10.2745 16.2871C10.3425 16.2876 10.3706 16.3742 10.316 16.4146L9.89411 16.7261L10.0523 17.2261C10.0728 17.2908 9.99907 17.3444 9.9438 17.3049L9.51719 16.9999L9.09058 17.3049C9.03536 17.3444 8.96163 17.2908 8.98211 17.2261L9.14027 16.7261L8.71839 16.4146C8.66378 16.3742 8.69191 16.2876 8.75983 16.2871L9.28422 16.2831L9.45016 15.7856C9.47163 15.7211 9.5628 15.7211 9.58422 15.7855Z" fill="#FFE15A"/>
<path d="M16.7454 8.49057L16.5795 8.98805L16.0551 8.99213C15.9872 8.99264 15.959 9.07927 16.0137 9.11963L16.4355 9.43116L16.2774 9.93113C16.2569 9.99582 16.3306 10.0494 16.3858 10.0099L16.8124 9.70496L17.2391 10.0099C17.2943 10.0494 17.368 9.99586 17.3475 9.93113L17.1894 9.43116L17.6112 9.11963C17.6659 9.07927 17.6377 8.99264 17.5698 8.99213L17.0454 8.98805L16.8795 8.49057C16.858 8.42616 16.7669 8.42616 16.7454 8.49057Z" fill="#FFE15A"/>
<path d="M7.49536 13.8303L7.32942 14.3277L6.80503 14.3318C6.73711 14.3323 6.70898 14.419 6.76359 14.4593L7.18547 14.7708L7.02731 15.2708C7.00682 15.3356 7.08051 15.3891 7.13578 15.3496L7.56239 15.0446L7.989 15.3496C8.04422 15.3891 8.11795 15.3355 8.09746 15.2708L7.93931 14.7708L8.36118 14.4593C8.41579 14.419 8.38767 14.3323 8.31975 14.3318L7.79536 14.3277L7.62942 13.8303C7.6079 13.7659 7.51682 13.7659 7.49536 13.8303Z" fill="#FFE15A"/>
<path d="M9.45016 6.5357L9.28422 7.03318L8.75983 7.03726C8.69191 7.03777 8.66378 7.1244 8.71839 7.16476L9.14027 7.47629L8.98211 7.97626C8.96163 8.04094 9.03532 8.09457 9.09058 8.05505L9.51719 7.75008L9.9438 8.05505C9.99902 8.09452 10.0728 8.04099 10.0523 7.97626L9.89411 7.47629L10.316 7.16476C10.3706 7.1244 10.3425 7.03777 10.2745 7.03726L9.75016 7.03318L9.58422 6.5357C9.56271 6.47134 9.47163 6.47134 9.45016 6.5357Z" fill="#FFE15A"/>
<path d="M14.7905 15.7855L14.6246 16.283L14.1002 16.2871C14.0323 16.2876 14.0042 16.3742 14.0588 16.4146L14.4806 16.7261L14.3225 17.2261C14.302 17.2908 14.3757 17.3444 14.431 17.3049L14.8576 16.9999L15.2842 17.3049C15.3394 17.3444 15.4131 17.2908 15.3926 17.2261L15.2345 16.7261L15.6564 16.4146C15.711 16.3742 15.6828 16.2876 15.6149 16.2871L15.0905 16.2831L14.9246 15.7856C14.9031 15.7211 14.812 15.7211 14.7905 15.7855Z" fill="#FFE15A"/>
</svg>
