<svg xmlns="http://www.w3.org/2000/svg" width="24" height="24" viewBox="0 0 24 24" fill="none"><rect width="24" height="24" fill="none"/>
<path d="M1.79742 19.8621H22.2026C22.6426 19.8621 23.0454 19.7037 23.3578 19.4413L0.642188 4.55864C0.249656 4.88841 0 5.38261 0 5.93536V18.0647C0 19.0574 0.804703 19.8621 1.79742 19.8621Z" fill="#41479B"/>
<path d="M24 18.0646V5.93536C24 4.94269 23.1953 4.13794 22.2026 4.13794H1.79742C1.35745 4.13794 0.954606 4.29624 0.642231 4.55864L23.3579 19.4413C23.7503 19.1116 24 18.6174 24 18.0646Z" fill="#73AF00"/>
<path d="M12 14.4828C13.3712 14.4828 14.4828 13.3712 14.4828 12C14.4828 10.6288 13.3712 9.51721 12 9.51721C10.6288 9.51721 9.51722 10.6288 9.51722 12C9.51722 13.3712 10.6288 14.4828 12 14.4828Z" fill="#FFE15A"/>
<path d="M1.81001 12.028L1.95364 12.3918L2.3276 12.2773C2.34842 12.2709 2.36618 12.2933 2.3554 12.3122L2.16049 12.6513L2.48318 12.8723C2.50114 12.8845 2.49476 12.9124 2.47324 12.9157L2.08662 12.9748L2.11507 13.3648C2.11667 13.3865 2.09089 13.3989 2.07495 13.3842L1.78774 13.1187L1.50054 13.3842C1.4846 13.3989 1.45882 13.3865 1.46042 13.3648L1.48887 12.9748L1.10224 12.9157C1.08078 12.9124 1.0744 12.8845 1.09231 12.8723L1.41499 12.6513L1.22009 12.3122C1.20926 12.2933 1.22707 12.271 1.24788 12.2773L1.62185 12.3918L1.76548 12.028C1.7734 12.0078 1.80199 12.0078 1.81001 12.028Z" fill="#F5F5F5"/>
<path d="M7.04022 11.0474L7.18385 11.4112L7.55782 11.2966C7.57863 11.2903 7.5964 11.3126 7.58561 11.3315L7.39071 11.6706L7.7134 11.8916C7.73135 11.9039 7.72497 11.9317 7.70346 11.935L7.31683 11.9941L7.34529 12.3841C7.34688 12.4058 7.3211 12.4182 7.30516 12.4035L7.01796 12.1381L6.73075 12.4035C6.71477 12.4182 6.68904 12.4058 6.69063 12.3841L6.71908 11.9941L6.33246 11.935C6.31099 11.9318 6.30461 11.9039 6.32252 11.8916L6.64521 11.6706L6.4503 11.3315C6.43947 11.3127 6.45729 11.2903 6.4781 11.2966L6.85207 11.4112L6.99569 11.0474C7.00361 11.0272 7.03225 11.0272 7.04022 11.0474Z" fill="#F5F5F5"/>
<path d="M4.42508 8.68907L4.5687 9.05287L4.94267 8.93835C4.96348 8.93198 4.98125 8.95434 4.97047 8.97323L4.77556 9.31232L5.09825 9.53329C5.1162 9.54557 5.10983 9.57342 5.08831 9.57674L4.70169 9.63581L4.73014 10.0259C4.73173 10.0475 4.70595 10.0599 4.69001 10.0452L4.40281 9.77976L4.11561 10.0452C4.09967 10.0599 4.07389 10.0476 4.07548 10.0259L4.10394 9.63581L3.71731 9.57674C3.69584 9.57346 3.68947 9.54557 3.70737 9.53329L4.03006 9.31232L3.83515 8.97323C3.82433 8.95438 3.84214 8.93203 3.86295 8.93835L4.23692 9.05287L4.38055 8.68907C4.38851 8.66887 4.41711 8.66887 4.42508 8.68907Z" fill="#F5F5F5"/>
<path d="M4.42508 17.2583L4.5687 17.6221L4.94267 17.5075C4.96348 17.5012 4.98125 17.5235 4.97047 17.5424L4.77556 17.8815L5.09825 18.1024C5.1162 18.1147 5.10983 18.1426 5.08831 18.1459L4.70169 18.2049L4.73014 18.595C4.73173 18.6166 4.70595 18.6291 4.69001 18.6144L4.40281 18.3489L4.11561 18.6144C4.09967 18.6291 4.07389 18.6167 4.07548 18.595L4.10394 18.2049L3.71731 18.1459C3.69584 18.1426 3.68947 18.1147 3.70737 18.1024L4.03006 17.8815L3.83515 17.5424C3.82433 17.5235 3.84214 17.5012 3.86295 17.5075L4.23692 17.6221L4.38055 17.2583C4.38851 17.2381 4.41711 17.2381 4.42508 17.2583Z" fill="#F5F5F5"/>
<path d="M5.49552 12.3572L5.59573 12.6578L5.91266 12.6603C5.93722 12.6605 5.94734 12.6918 5.92766 12.7064L5.6727 12.8947L5.76828 13.1968C5.77569 13.2203 5.74906 13.2396 5.72909 13.2253L5.47128 13.041L5.21347 13.2253C5.1935 13.2396 5.16688 13.2203 5.17428 13.1968L5.26986 12.8947L5.01491 12.7064C4.99512 12.6918 5.00534 12.6605 5.02991 12.6603L5.34683 12.6578L5.44705 12.3572C5.45483 12.3339 5.48778 12.3339 5.49552 12.3572Z" fill="#F5F5F5"/>
<path d="M10.527 10.932C10.4254 10.9083 10.3234 11.1695 10.4365 11.26C10.5496 11.3504 10.7532 11.5201 10.6288 11.6219C10.5044 11.7237 10.4591 11.735 10.4365 11.8594C10.4139 11.9838 10.4365 12.0065 10.3347 12.063C10.2329 12.1195 9.99535 12.2326 10.0972 12.3458C10.199 12.4589 10.3347 12.3911 10.4251 12.2101C10.4251 12.2101 11.0585 12.1875 11.0812 12.2327C11.1038 12.278 11.1603 12.4476 11.2961 12.4023C11.4318 12.357 11.4318 12.357 11.4318 12.357C11.4318 12.357 11.511 12.3231 11.5675 12.391C11.624 12.4589 11.7598 12.4814 11.9181 12.4814C12.0765 12.4814 12.2122 12.5719 12.2009 12.7868C12.1937 12.9245 12.1585 13.2107 12.1343 13.3987C12.1213 13.4993 12.1903 13.5919 12.2904 13.6086L12.58 13.6568C12.6562 13.6695 12.727 13.6152 12.7338 13.5382C12.7474 13.3836 12.7671 13.1568 12.7665 13.1488C12.7599 13.0675 12.9248 12.6512 12.9135 12.4589C12.9022 12.2666 12.9022 12.2666 12.9022 12.2666C12.9022 12.2666 13.0718 12.244 13.1397 12.1309C13.2076 12.0178 13.3546 11.735 13.6486 11.6332L13.7278 11.441C13.7278 11.441 13.5016 11.3392 13.5468 11.2713C13.5921 11.2034 13.6147 11.0225 13.5808 10.8755C13.5468 10.7285 13.5355 10.5248 13.5355 10.5248C13.5355 10.5248 13.4549 10.4908 13.4378 10.5376C13.4208 10.5845 13.4038 10.61 13.3612 10.6015C13.3186 10.593 13.2548 10.5887 13.2377 10.5504C13.2207 10.5121 13.1738 10.4738 13.1313 10.4951C13.0887 10.5164 13.0163 10.8016 12.9142 10.8314C12.9142 10.8314 12.9056 10.708 12.8418 10.7335C12.7779 10.7591 12.7822 10.8187 12.7737 10.9251C12.7652 11.0316 12.0498 11.7511 11.4239 11.5596C11.4239 11.5596 11.3558 11.4233 11.2152 11.4361C11.0747 11.4488 10.9384 11.4446 10.8576 11.3467C10.7766 11.2486 10.6477 10.9602 10.527 10.932Z" fill="#73AF00"/>
<path d="M15.133 12.1152C15.3216 12.3156 17.3942 12.88 19.4892 11.7826C21.5842 10.6852 22.8311 10.3694 22.8311 10.3694C22.8311 10.3694 22.8477 10.0867 23.1055 10.0452C23.3632 10.0036 23.2385 9.89554 23.172 9.81239C23.1055 9.72928 22.7813 9.50479 22.3406 9.696C22.3406 9.696 21.828 9.7154 21.7504 9.006C21.6728 8.29659 21.6396 7.57608 21.4622 7.26572C21.2849 6.95536 19.8217 5.40356 19.6444 5.52543C19.467 5.64736 20.0878 7.18809 20.6642 7.73128C20.6642 7.73128 20.7972 8.68458 20.6309 8.72887C20.4646 8.77322 19.5446 7.93078 17.9041 7.73128C17.9041 7.73128 18.6024 8.68458 19.4559 9.08362C20.3094 9.48267 20.5422 9.84848 20.52 10.0036C20.4979 10.1588 20.2097 10.9015 19.7331 11.2451C19.2564 11.5887 18.0593 12.5198 15.3436 12.0321C15.3436 12.0321 15.0443 12.021 15.133 12.1152Z" fill="#FFE15A"/>
</svg>
