<svg xmlns="http://www.w3.org/2000/svg" width="24" height="24" viewBox="0 0 24 24" fill="none"><rect width="24" height="24" fill="none"/>
<path d="M0 5.9353V18.0647C0 19.0573 0.804703 19.8621 1.79742 19.8621H22.2026C22.6426 19.8621 23.0454 19.7038 23.3578 19.4414L0.642188 4.55862C0.249656 4.88834 0 5.38255 0 5.9353Z" fill="#FFE15A"/>
<path d="M22.2026 4.13788H1.79741C1.35745 4.13788 0.954602 4.29622 0.642227 4.55868L23.3578 19.4413C23.7503 19.1116 24 18.6173 24 18.0646V5.9353C24 4.94258 23.1953 4.13788 22.2026 4.13788Z" fill="#FF4B55"/>
<path d="M12.7885 10.8913C12.8348 10.8541 12.8731 10.808 12.8585 10.7693C12.8465 10.7371 12.7867 10.7073 12.7234 10.6757C12.6059 10.617 12.449 10.5364 12.397 10.3436C12.3908 10.343 12.385 10.3436 12.3786 10.3424C12.327 10.3328 12.2949 10.3505 12.2576 10.4717C12.2507 10.4938 12.2362 10.5293 12.2169 10.5699C12.2555 10.5955 12.352 10.6549 12.446 10.6763C12.6322 10.7185 12.7468 10.7904 12.7885 10.8913Z" fill="#FFBE55"/>
<path d="M12.0659 10.8093C12.1215 10.8601 12.1726 10.9176 12.2228 10.9819C12.2257 10.9856 12.2288 10.9893 12.2317 10.993C12.3565 10.8973 12.5149 10.8968 12.6253 10.9148C12.5933 10.8816 12.531 10.8491 12.4129 10.8222C12.3033 10.7973 12.1972 10.7353 12.1447 10.7016C12.1204 10.7404 12.0939 10.7773 12.0659 10.8093Z" fill="#FFBE55"/>
<path d="M12.698 11.3582C12.7564 11.392 12.8738 11.468 12.9755 11.5777C12.9905 11.4933 12.986 11.3813 12.9068 11.2827C12.839 11.3202 12.7666 11.3439 12.698 11.3582Z" fill="#FFBE55"/>
<path d="M11.7259 10.3724L11.7063 10.3962C11.6087 10.5155 11.498 10.6456 11.3923 10.7516C11.4566 10.7212 11.5325 10.699 11.6111 10.6871C11.6393 10.6421 11.725 10.5226 11.8302 10.3787C11.8048 10.3624 11.7544 10.3378 11.7259 10.3724Z" fill="#FFBE55"/>
<path d="M11.3434 10.9769C11.3439 10.9777 11.3505 10.9859 11.3692 10.9929C11.4016 11.0054 11.4616 11.0097 11.5242 10.9808C11.7066 10.8959 11.8907 10.9424 12.0717 11.1175C12.0722 11.118 12.072 11.1188 12.0725 11.1194C12.0731 11.1199 12.0739 11.1197 12.0744 11.1202C12.0754 11.1213 12.1363 11.1824 12.2462 11.2384C12.1934 11.1829 12.146 11.1264 12.105 11.074C12.0394 10.9901 11.9826 10.9178 11.9151 10.8747C11.7437 10.7658 11.4451 10.8612 11.3606 10.9503C11.3467 10.965 11.3434 10.9746 11.3434 10.9769Z" fill="#FFBE55"/>
<path d="M12.7611 11.0852C12.7611 11.0852 12.7607 11.0853 12.7606 11.0854C12.7511 11.0898 12.7409 11.0919 12.7304 11.0922C12.7299 11.0922 12.7294 11.0925 12.729 11.0925C12.7279 11.0925 12.727 11.0915 12.7258 11.0915C12.7182 11.0911 12.7104 11.0906 12.7028 11.0878C12.7003 11.0869 12.4687 11.0053 12.3273 11.1077C12.3669 11.1522 12.4117 11.1933 12.4617 11.2307C12.5312 11.2323 12.7718 11.2282 12.9088 11.1002C12.978 11.0356 12.9838 10.965 12.9722 10.9095C12.9211 10.9895 12.8305 11.0522 12.7611 11.0852Z" fill="#FFBE55"/>
<path d="M10.6495 11.0091C10.6378 10.9921 10.625 10.9775 10.615 10.9574C10.5985 10.9245 10.5898 10.8895 10.5811 10.8546C10.5279 10.9398 10.4718 11.0722 10.5059 11.2189C10.546 11.124 10.6065 11.0519 10.6495 11.0091Z" fill="#FFBE55"/>
<path d="M11.9427 10.7236C12.0101 10.6532 12.0931 10.4969 12.1144 10.4276C12.1349 10.3607 12.1973 10.1572 12.4053 10.1949C12.4516 10.2035 12.4859 10.1741 12.5069 10.1481C12.4563 10.0904 12.3902 10.0529 12.3327 10.0516C12.2898 10.0475 12.2406 10.0748 12.2024 10.1261C12.0153 10.3782 11.8729 10.573 11.7958 10.6816C11.8476 10.6877 11.8965 10.7028 11.9427 10.7236Z" fill="#FFBE55"/>
<path d="M11.4596 10.2698C11.3435 10.4246 11.2216 10.512 11.1327 10.5758C11.0155 10.6598 10.9865 10.6883 10.9936 10.7534C10.995 10.7666 11.0007 10.7764 11.0125 10.7858C11.0281 10.7982 11.0505 10.807 11.076 10.8135C11.0776 10.8127 11.0786 10.8114 11.0802 10.8107C11.2201 10.7537 11.4988 10.4132 11.5905 10.3013L11.6103 10.2771C11.7074 10.1596 11.8441 10.2067 11.9189 10.2577C11.9447 10.2226 11.9707 10.1873 11.9967 10.1522C11.8616 9.98921 11.6381 10.0318 11.4596 10.2698Z" fill="#FFBE55"/>
<path d="M12.6394 10.2197C12.6174 10.2516 12.5857 10.2847 12.5453 10.3096C12.5825 10.4331 12.6864 10.4899 12.7903 10.5416C12.8519 10.5723 12.91 10.603 12.9518 10.6464C12.9869 10.5209 12.9823 10.421 12.9338 10.3516C12.8626 10.2499 12.7113 10.2251 12.6394 10.2197Z" fill="#FFBE55"/>
<path d="M12.0925 14.7083L12.1088 14.7269C12.3148 14.9613 12.5093 15.1877 12.6389 15.3784C12.635 15.2754 12.628 15.1688 12.6155 15.0947C12.6151 15.0923 12.6149 15.0898 12.6147 15.0874C12.5486 15.002 12.4774 14.9224 12.4023 14.8551C12.1828 14.6589 12.0591 14.4621 11.9898 14.3104C11.9781 14.4409 11.9929 14.5952 12.0925 14.7083Z" fill="#FFBE55"/>
<path d="M11.9871 13.9516C11.9696 13.9208 11.9537 13.8876 11.9407 13.8506C11.9406 13.8503 11.9407 13.85 11.9405 13.8497C11.9395 13.8493 11.9384 13.8488 11.9373 13.8485C11.8924 13.9262 11.8102 13.9798 11.7224 13.98C11.7224 13.98 11.7221 13.98 11.722 13.98C11.7152 13.98 11.7091 13.9774 11.7025 13.9768C11.6911 14.0273 11.6874 14.0844 11.7193 14.1149C11.7553 14.1496 11.8285 14.1492 11.8667 14.1394C11.8853 14.0603 11.9058 14.0042 11.9084 13.9978C11.9211 13.9662 11.953 13.9477 11.9871 13.9516Z" fill="#FFBE55"/>
<path d="M11.8407 14.2937C11.8327 14.2942 11.8255 14.2955 11.8172 14.2955C11.7948 14.2955 11.7716 14.2925 11.7482 14.2879C11.7344 14.3396 11.7297 14.3979 11.764 14.433C11.7855 14.4549 11.8169 14.4634 11.8426 14.465C11.837 14.4059 11.8356 14.3477 11.8407 14.2937Z" fill="#FFBE55"/>
<path d="M9.05641 10.9594L9.05603 10.9595C8.90566 11.0099 8.72711 10.9976 8.57092 10.9669C8.662 11.1074 8.69683 11.2766 8.70091 11.434C8.89708 11.1781 9.11425 11.0609 9.26974 11.0054C9.18977 10.9983 9.11763 10.9834 9.05641 10.9594Z" fill="#FFBE55"/>
<path d="M12.6014 14.6818C12.5675 14.6791 12.4909 14.6694 12.4001 14.6418C12.4321 14.6757 12.4641 14.7095 12.5022 14.7436C12.7526 14.9675 12.9562 15.3084 13.0892 15.5713C13.1366 15.4017 13.2481 15.2562 13.3679 15.1458C13.0333 15.1236 12.7715 14.8906 12.6014 14.6818Z" fill="#FFBE55"/>
<path d="M10.9081 11.9419C10.8533 11.9298 10.7916 11.9071 10.7316 11.8702C10.6916 11.9978 10.6635 12.1159 10.6481 12.2238C10.7311 12.2161 10.7938 12.2168 10.8365 12.2203C10.8569 12.1058 10.8852 12.0079 10.9081 11.9419Z" fill="#FFBE55"/>
<path d="M8.54505 11.577C8.563 11.4001 8.55339 11.1175 8.35708 10.9478C8.35647 10.9477 8.35591 10.9479 8.35521 10.9479C8.34916 10.9471 7.78788 10.8662 7.41325 11.2488C7.27235 11.3927 7.18071 11.5054 7.10716 11.5959C7.00736 11.7188 6.93574 11.8069 6.81953 11.8752C7.1711 12.0005 8.02338 12.2117 8.54505 11.577Z" fill="#FFBE55"/>
<path d="M13.7597 9.30895C13.9165 9.39313 14.1812 9.49228 14.4128 9.37598C14.4132 9.37542 14.4132 9.37481 14.4134 9.3742C14.4164 9.36932 14.7057 8.88135 14.4955 8.38874C14.4164 8.20345 14.3473 8.07571 14.2917 7.97315C14.2165 7.83412 14.1623 7.73404 14.1436 7.60049C13.8937 7.87781 13.3726 8.58431 13.7597 9.30895Z" fill="#FFBE55"/>
<path d="M13.5455 15.1932C13.4044 15.3015 13.2052 15.5018 13.216 15.7609C13.2165 15.7616 13.2173 15.7619 13.2177 15.7626C13.2209 15.7673 13.5469 16.2314 14.0823 16.2422C14.2843 16.2463 14.4288 16.2358 14.5452 16.2272C14.7031 16.2155 14.8163 16.2075 14.9455 16.2449C14.7955 15.9033 14.365 15.1389 13.5455 15.1932Z" fill="#FFBE55"/>
<path d="M12.3794 14.3464C12.378 14.3435 12.3792 14.3403 12.3782 14.3373L12.2759 14.4246C12.3429 14.4663 12.4136 14.4918 12.4741 14.5077C12.4138 14.4152 12.3806 14.349 12.3794 14.3464Z" fill="#FFBE55"/>
<path d="M11.9573 13.3478C11.9289 13.3458 11.9007 13.3428 11.8729 13.3379C11.8514 13.3726 11.8044 13.4713 11.8739 13.5959C11.8998 13.6423 11.9433 13.7004 12.004 13.7147C12.0401 13.7229 12.0817 13.7107 12.1257 13.6872C12.036 13.5421 11.9819 13.4142 11.9573 13.3478Z" fill="#FFBE55"/>
<path d="M13.4883 10.7135C13.5661 10.6552 13.708 10.5458 13.8762 10.402C13.9267 10.0818 14.1135 9.78354 14.2807 9.57134C14.1107 9.59492 13.9363 9.5532 13.7893 9.49039C13.986 10.0168 13.5602 10.6 13.4803 10.7029C13.4829 10.7066 13.4858 10.7097 13.4883 10.7135Z" fill="#FFBE55"/>
<path d="M12.1652 14.3221L12.3007 14.2064C12.2126 14.176 12.1281 14.1263 12.0591 14.0509C12.0694 14.0985 12.0979 14.1967 12.1652 14.3221Z" fill="#FFBE55"/>
<path d="M10.4928 12.2455C10.51 12.1009 10.548 11.9398 10.6071 11.764C10.5692 11.7209 10.536 11.6684 10.5095 11.6056C10.4395 11.7675 10.3384 12.0324 10.2994 12.2891C10.3705 12.2704 10.435 12.256 10.4928 12.2455Z" fill="#FFBE55"/>
<path d="M13.1152 10.4209C13.1322 10.5181 13.1211 10.63 13.0744 10.7594C13.1025 10.8095 13.1262 10.8791 13.1263 10.9547C13.1856 10.9421 13.1899 10.9062 13.2083 10.7103L13.2162 10.6294C13.2236 10.555 13.2102 10.4983 13.1764 10.461C13.1589 10.4417 13.1371 10.4299 13.1152 10.4209Z" fill="#FFBE55"/>
<path d="M13.0989 11.7008C13.1476 11.6907 13.2093 11.6695 13.2585 11.6241C13.3331 11.5552 13.4157 11.4094 13.4021 11.3439C13.4005 11.3357 13.3984 11.3304 13.3842 11.3253C13.3301 11.306 13.3138 11.313 13.3139 11.3132C13.3105 11.3158 13.3044 11.3294 13.3008 11.3374C13.2914 11.3581 13.2788 11.3862 13.2505 11.4047C13.2073 11.4329 13.1665 11.4404 13.1289 11.4406C13.1399 11.545 13.1193 11.64 13.0989 11.7008Z" fill="#FFBE55"/>
<path d="M10.3545 11.0443C10.3648 10.9756 10.3849 10.9115 10.412 10.854C10.2758 10.803 9.9679 10.7036 9.71641 10.7382C9.36119 10.786 9.09105 10.7462 8.91963 10.7002C9.00171 10.7848 9.14271 10.8728 9.36344 10.8636C9.9109 10.8527 10.2248 10.9765 10.3545 11.0443Z" fill="#FFBE55"/>
<path d="M9.6673 11.0229C9.53774 11.1244 9.4422 11.2463 9.37691 11.3505C9.57819 11.2461 9.83656 11.142 10.0075 11.0766C9.91541 11.0532 9.80216 11.034 9.6673 11.0229Z" fill="#FFBE55"/>
<path d="M13.3538 11.1654C13.3769 11.1681 13.4021 11.1731 13.4312 11.1832C13.43 11.1774 13.4291 11.1723 13.4276 11.1653C13.4185 11.1231 13.4066 11.0648 13.4096 10.98C13.4096 10.9794 13.4093 10.979 13.4093 10.9785C13.4093 10.9779 13.4095 10.9775 13.4095 10.9769C13.4096 10.9751 13.4093 10.9742 13.4094 10.9724C13.413 10.8938 13.3865 10.8301 13.3518 10.7829C13.3415 10.8841 13.3283 10.9606 13.2923 11.0143C13.3136 11.0482 13.3388 11.1006 13.3538 11.1654Z" fill="#FFBE55"/>
<path d="M13.5471 10.8565C13.5496 10.8675 13.5519 10.8785 13.5536 10.8899C13.9923 10.8304 14.3038 10.3891 14.4835 10.0357C14.1017 10.4399 13.6727 10.7644 13.5471 10.8565Z" fill="#FFBE55"/>
<path d="M11.722 13.8302H11.7221C11.7596 13.83 11.7978 13.8018 11.8141 13.7646C11.7883 13.7372 11.764 13.7065 11.743 13.6689C11.729 13.6439 11.7198 13.6198 11.7115 13.5959C11.6819 13.6139 11.6491 13.6395 11.6344 13.6724C11.6234 13.6968 11.6239 13.7223 11.6358 13.7527C11.6497 13.788 11.6758 13.8302 11.722 13.8302Z" fill="#FFBE55"/>
<path d="M10.1434 12.3347C10.1732 12.0652 10.2715 11.7861 10.3492 11.5996C10.3006 11.6366 10.24 11.6745 10.1651 11.7105C10.1567 11.7291 10.0055 12.0679 9.94801 12.4034C10.0171 12.3772 10.0823 12.3543 10.1434 12.3347Z" fill="#FFBE55"/>
<path d="M12.7961 14.6795C12.8835 14.6886 12.9645 14.6845 13.0348 14.6746C12.9015 14.6291 12.7686 14.5689 12.6598 14.5146C12.6983 14.5673 12.7439 14.6241 12.7961 14.6795Z" fill="#FFBE55"/>
<path d="M11.7256 13.297C11.3653 13.1601 11.0811 12.7724 10.9793 12.2794C10.9493 12.4707 10.9474 12.7077 11.0493 12.9204C11.1597 13.1509 11.3785 13.313 11.6922 13.4083C11.699 13.3639 11.7117 13.3263 11.7256 13.297Z" fill="#FFBE55"/>
<path d="M13.6425 11.0313C13.6345 11.033 13.6259 11.0329 13.6179 11.0344C13.718 11.1439 14.1203 11.6308 14.2292 12.4806C14.3041 12.5092 14.3738 12.5386 14.4329 12.5684C14.3938 12.2227 14.2373 11.348 13.6425 11.0313Z" fill="#FFBE55"/>
<path d="M9.78775 12.4678C9.81897 12.2092 9.90991 11.9433 9.97178 11.7857C9.90916 11.8053 9.83946 11.8225 9.76282 11.8371C9.62782 12.0633 9.54597 12.4026 9.50833 12.5942C9.60775 12.5458 9.69996 12.5048 9.78775 12.4678Z" fill="#FFBE55"/>
<path d="M12.2116 13.8133C12.1741 13.8352 12.1391 13.8494 12.1069 13.8573C12.1905 14.0226 12.3456 14.079 12.4774 14.0937C12.3709 14.0093 12.2841 13.9112 12.2116 13.8133Z" fill="#FFBE55"/>
<path d="M11.1341 11.0119C11.1526 11.0033 11.1756 10.9967 11.1966 10.9892C11.1963 10.9853 11.1953 10.9817 11.1952 10.9777C11.1075 10.9759 10.9929 10.9617 10.9192 10.903C10.8762 10.8687 10.8505 10.8227 10.8447 10.7699C10.8273 10.6105 10.9332 10.5344 11.0454 10.4542C11.0911 10.4213 11.143 10.3833 11.1969 10.335C11.0328 10.3238 10.8856 10.3788 10.7942 10.4976C10.7038 10.615 10.6865 10.7656 10.7489 10.8904C10.8341 11.0612 11.0179 11.044 11.1341 11.0119Z" fill="#FFBE55"/>
<path d="M10.9317 11.1784C10.888 11.1734 10.8457 11.1598 10.8048 11.1414C10.7984 11.227 10.8037 11.3432 10.8594 11.4114C10.8608 11.3732 10.8655 11.3343 10.8767 11.2959C10.8874 11.2593 10.9046 11.2188 10.9317 11.1784Z" fill="#FFBE55"/>
<path d="M11.4927 11.2299C11.6709 11.2439 11.8077 11.1986 11.8892 11.1602C11.7524 11.0627 11.653 11.0859 11.5872 11.1166C11.4815 11.1658 11.3632 11.1627 11.2832 11.1166C11.2537 11.13 11.2217 11.1434 11.1844 11.1541C11.1008 11.196 11.0465 11.2557 11.0224 11.3321C11.0148 11.3562 11.0135 11.3799 11.0118 11.4035C11.0133 11.4022 11.0134 11.3998 11.015 11.3986C11.1865 11.2757 11.3471 11.2205 11.4927 11.2299Z" fill="#FFBE55"/>
<path d="M12.3067 13.2935C12.2455 13.3176 12.1823 13.3354 12.1172 13.3442C12.1603 13.4471 12.2456 13.6221 12.3804 13.7865C12.4508 13.6681 12.368 13.4133 12.3067 13.2935Z" fill="#FFBE55"/>
<path d="M10.8843 11.6002C10.7252 11.5534 10.6638 11.4074 10.6525 11.2567C10.6182 11.3283 10.5999 11.4178 10.6342 11.5173C10.7032 11.7168 10.8539 11.7749 10.9425 11.7934C10.9435 11.7702 10.9445 11.7471 10.9463 11.724C10.9458 11.7235 10.9451 11.7233 10.9446 11.7228C10.924 11.7 10.9013 11.6558 10.8843 11.6002Z" fill="#FFBE55"/>
<path d="M10.3518 11.2118C10.3464 11.2094 10.3404 11.21 10.3354 11.2063C10.3346 11.2057 10.3002 11.1829 10.2362 11.1538C10.0111 11.2753 9.88469 11.5232 9.82689 11.6708C10.2348 11.572 10.3642 11.3864 10.3894 11.343C10.3709 11.2989 10.3583 11.255 10.3518 11.2118Z" fill="#FFBE55"/>
<path d="M12.9878 12.8579C13.0634 12.694 13.0797 12.5063 13.0397 12.2984C12.9492 12.715 12.7279 13.0546 12.4412 13.2273C12.4543 13.2536 12.4688 13.2862 12.4839 13.3247C12.5964 13.2755 12.8593 13.136 12.9878 12.8579Z" fill="#FFBE55"/>
<path d="M13.1684 11.2794C13.1775 11.255 13.1911 11.2297 13.2109 11.2086C13.2021 11.1619 13.1835 11.1227 13.1679 11.0976C13.1456 11.1035 13.1206 11.1078 13.0921 11.1106C13.0901 11.1108 13.0882 11.1109 13.0862 11.111C13.0712 11.1389 13.0513 11.1664 13.0256 11.193C13.0484 11.2218 13.0681 11.2507 13.0826 11.2805C13.0865 11.2826 13.0913 11.2813 13.0949 11.2842C13.101 11.2886 13.129 11.3052 13.1684 11.2794Z" fill="#FFBE55"/>
<path d="M13.3814 11.7123C13.4588 11.9154 13.507 12.1004 13.5262 12.2636C13.5871 12.2795 13.6521 12.297 13.7195 12.316C13.6809 12.0283 13.5599 11.7259 13.4884 11.5656C13.4566 11.6226 13.4181 11.674 13.3814 11.7123Z" fill="#FFBE55"/>
<path d="M13.369 12.2238C13.3491 12.0977 13.3112 11.9575 13.2554 11.805C13.192 11.836 13.1297 11.8492 13.0838 11.8551C13.0839 11.863 13.0847 11.8708 13.0847 11.8787C13.0847 11.8978 13.0831 11.9163 13.0826 11.9352C13.0844 11.9382 13.087 11.9405 13.0884 11.9439C13.121 12.0232 13.1458 12.1003 13.1655 12.1757C13.189 12.181 13.2636 12.1979 13.369 12.2238Z" fill="#FFBE55"/>
<path d="M13.8758 12.3614C13.9398 12.3807 14.0038 12.401 14.0663 12.422C13.9717 11.8158 13.7235 11.4129 13.585 11.2313C13.5837 11.2605 13.5775 11.2921 13.5599 11.3287C13.5579 11.333 13.5536 11.335 13.5509 11.3388C13.5515 11.347 13.5529 11.3551 13.5527 11.3636C13.5582 11.369 13.5636 11.3746 13.5673 11.3819C13.5781 11.4029 13.8329 11.9032 13.8758 12.3614Z" fill="#FFBE55"/>
<path d="M12.0114 13.2019C12.5207 13.2019 12.935 12.6085 12.935 11.8789C12.935 11.8389 12.9337 11.7995 12.9313 11.7604C12.8323 11.6115 12.6592 11.5078 12.608 11.4793C12.3026 11.4739 12.0988 11.3379 12.0119 11.266C11.9256 11.3161 11.7381 11.398 11.4816 11.3794C11.3776 11.3728 11.2585 11.4136 11.1256 11.504C11.1005 11.6255 11.0877 11.7514 11.0877 11.8789C11.0877 12.6085 11.5021 13.2019 12.0114 13.2019Z" fill="#FFD7AA"/>
<path d="M8.39657 14.1367C8.41021 14.133 8.5476 14.0958 8.74874 14.0792C9.68029 13.8693 10.7741 13.2011 10.9713 13.0774C10.9519 13.0466 10.9297 13.0177 10.9139 12.9845C10.8159 12.7795 10.8002 12.5606 10.8166 12.3697C10.6762 12.3608 10.2482 12.3808 9.4431 12.7944C9.43227 12.7999 9.4206 12.8025 9.40888 12.8025C9.39356 12.8025 9.37837 12.7979 9.36548 12.7886C9.34265 12.7725 9.33079 12.7448 9.33477 12.7171C9.33712 12.7005 9.37523 12.44 9.46223 12.1631C8.99962 12.26 8.02293 13.2457 7.48527 13.7889C7.3837 13.8917 7.2922 13.9841 7.21476 14.0604C7.20407 14.071 7.19273 14.0809 7.18129 14.091C7.11332 14.1511 7.04315 14.2131 7.09284 14.5707C7.13868 14.9009 7.56815 14.9347 7.8877 14.9368H7.91109C8.01163 14.9368 8.25374 15.0205 8.67313 15.1684C9.08034 15.3122 9.54192 15.475 9.84074 15.531C9.98371 15.5575 10.1179 15.5815 10.2416 15.6035C10.6193 15.671 10.8923 15.7196 11.0352 15.7787C11.2086 15.8505 11.3998 16.2048 11.5655 16.5312L11.5973 16.5934C11.6949 16.7818 11.7133 17.0176 11.645 17.2085C11.6118 17.3016 11.6355 17.3503 11.6473 17.3671C11.6589 17.3835 11.6724 17.3893 11.6806 17.3893C11.7191 17.3893 11.7469 17.3893 11.7777 17.2918C11.8166 17.1687 11.8264 17.1568 11.99 16.9589L12.0347 16.9049C12.2034 16.7003 12.0344 16.2806 11.9532 16.0788L11.9418 16.0504C11.8841 15.9061 11.9352 15.7546 11.9846 15.6081C12.0182 15.5085 12.053 15.4055 12.053 15.307C12.053 15.2855 12.0473 15.2711 12.0337 15.2582C11.9551 15.1837 11.6886 15.1979 11.4938 15.2079C11.422 15.2118 11.354 15.2153 11.2957 15.2153C10.9942 15.2153 10.5104 14.914 9.80685 14.4541C9.45801 14.2265 9.04448 14.2068 8.76384 14.2293C8.64763 14.2546 8.53349 14.2731 8.42343 14.2831C8.38551 14.2864 8.34998 14.2603 8.34299 14.2221C8.33606 14.1844 8.35921 14.147 8.39657 14.1367Z" fill="#FFD7AA"/>
<path d="M17.0021 9.21837C16.8755 9.24509 16.8603 9.24219 16.6056 9.19578L16.5386 9.18369C16.277 9.13554 15.9944 9.48969 15.8584 9.65914L15.8392 9.68295C15.7416 9.80389 15.5846 9.83333 15.4328 9.86197C15.3294 9.88147 15.2224 9.90153 15.1365 9.9499C15.1179 9.96026 15.108 9.9725 15.1034 9.99069C15.0769 10.0954 15.2196 10.3211 15.3239 10.4858C15.3624 10.5465 15.3988 10.6042 15.4273 10.6549C15.5748 10.9176 15.5488 11.4871 15.4923 12.3259C15.4628 12.7637 15.6701 13.151 15.8315 13.3819C15.8966 13.4554 15.9595 13.533 16.0189 13.6144C16.042 13.646 16.0369 13.69 16.0071 13.7154C15.9774 13.7411 15.933 13.739 15.9054 13.7113C15.8962 13.7019 15.8105 13.6146 15.7085 13.4695C15.299 13.0134 14.7963 12.7119 14.5872 12.5975C14.5926 12.6571 14.5947 12.6976 14.595 12.7061C14.5962 12.7354 14.5801 12.7625 14.5541 12.7757C14.5434 12.781 14.5317 12.7837 14.5202 12.7837C14.5037 12.7837 14.4872 12.7782 14.4736 12.7676C14.2751 12.6095 13.5456 12.4174 13.1993 12.3371C13.2298 12.5508 13.2047 12.7467 13.1232 12.9224C13.0395 13.1027 12.9107 13.2295 12.7896 13.3188C13.4248 14.1035 14.9289 14.4388 15.8345 14.6398C16.0677 14.6915 16.2691 14.7362 16.4172 14.779C16.4317 14.7833 16.446 14.7882 16.4603 14.7932C16.546 14.8231 16.6342 14.8541 16.9221 14.6354C17.1877 14.4338 17.0094 14.041 16.8521 13.7631L16.8407 13.7428C16.7916 13.6552 16.746 13.4031 16.6698 12.965C16.5958 12.5395 16.5119 12.0571 16.4143 11.7691C16.3674 11.6308 16.3225 11.5015 16.2809 11.3824C16.1551 11.0208 16.0641 10.7594 16.0459 10.6063C16.0236 10.4201 16.2388 10.0802 16.4422 9.77614L16.4813 9.71722C16.598 9.53975 16.7946 9.4085 16.9944 9.37456C17.0916 9.35801 17.1226 9.31334 17.1314 9.29501C17.14 9.27687 17.1385 9.26229 17.1346 9.25522C17.1157 9.22189 17.1022 9.19709 17.0021 9.21837Z" fill="#FFD7AA"/>
<path d="M7.24817 9.16765C7.33545 9.26304 7.34079 9.27748 7.4307 9.51851L7.45507 9.58362C7.54812 9.83225 7.99648 9.89548 8.21187 9.92567L8.24173 9.92998C8.39553 9.95201 8.50114 10.0718 8.60328 10.1878C8.67289 10.2668 8.74484 10.3483 8.8302 10.3975C8.8489 10.4082 8.86442 10.4105 8.88218 10.4051C8.98597 10.3745 9.10686 10.1365 9.19512 9.96275C9.22779 9.89862 9.25868 9.83773 9.28784 9.78725C9.43812 9.52653 9.94086 9.25775 10.6908 8.87764C11.1041 8.66801 11.3342 8.26034 11.4438 8.00454C11.469 7.92068 11.4973 7.84095 11.5292 7.76642C11.5447 7.73032 11.585 7.71336 11.6221 7.72489C11.6592 7.73754 11.6803 7.77654 11.6706 7.81456C11.6676 7.82604 11.6415 7.92439 11.5826 8.06342C11.3819 8.74601 11.3909 9.71295 11.4043 10.1023C11.5556 9.93673 11.6993 9.89923 11.7984 9.89923C11.9077 9.89923 12.0078 9.94714 12.0878 10.0311C12.1716 9.92248 12.2671 9.90143 12.3367 9.902C12.4631 9.90509 12.5678 9.98618 12.6345 10.0705C12.7076 10.0742 12.8726 10.0936 12.9927 10.1966C13.1584 9.38365 12.7777 8.22865 12.5207 7.45072C12.4402 7.20715 12.3707 6.99668 12.327 6.82901C12.3232 6.81439 12.3201 6.79957 12.3171 6.78453C12.299 6.69575 12.2802 6.60397 11.9457 6.4684C11.6363 6.34222 11.3901 6.69697 11.2315 6.9739L11.2198 6.99439C11.1696 7.08153 10.9759 7.24972 10.6379 7.53931C10.3103 7.82014 9.93889 8.13865 9.74131 8.36951C9.64681 8.4799 9.55901 8.58406 9.47825 8.68015C9.23126 8.97382 9.05272 9.18607 8.93014 9.28025C8.78112 9.3949 8.37842 9.38361 8.01223 9.36392L7.94337 9.3604C7.82797 9.35534 7.7135 9.32089 7.61075 9.26736L7.60222 9.26525L7.5972 9.25915C7.5169 9.21528 7.44331 9.16114 7.38678 9.09462C7.3497 9.05098 7.31675 9.03265 7.29087 9.02422L7.20856 9.0425C7.19192 9.07231 7.18442 9.09809 7.24817 9.16765Z" fill="#FFD7AA"/>
<path d="M17.265 9.18207C17.2055 9.07576 17.1147 9.04187 16.9714 9.07168C16.8734 9.09235 16.8734 9.09216 16.6324 9.04847L16.5651 9.03615C16.2156 8.97258 15.8955 9.37313 15.7414 9.56522L15.7224 9.5888C15.6595 9.6668 15.5415 9.68883 15.4049 9.71462C15.2897 9.73646 15.1704 9.75891 15.063 9.81915C15.009 9.84957 14.9726 9.89602 14.958 9.95372C14.9158 10.1211 15.0588 10.3471 15.1972 10.5657C15.234 10.624 15.269 10.6794 15.2964 10.7282C15.4331 10.9718 15.3871 11.6549 15.3427 12.3157C15.3252 12.5749 15.3807 12.8152 15.4628 13.0207C15.0381 12.6552 14.6309 12.4489 14.5649 12.4166C14.5063 12.0198 14.3324 11.3198 13.8263 10.97C14.4844 10.6784 14.7972 9.68621 14.8121 9.63741C14.8228 9.60249 14.8068 9.56504 14.7742 9.54863C14.7418 9.53208 14.7019 9.5416 14.6803 9.57108C14.5084 9.80447 14.2873 10.031 14.0786 10.2229C14.2064 9.86194 14.4901 9.5468 14.6131 9.42272C14.6348 9.40421 14.656 9.38354 14.6765 9.36113C14.7034 9.33169 14.7025 9.28622 14.6744 9.25777C14.6644 9.24765 14.6509 9.24516 14.6379 9.24197C14.7144 9.03066 14.7854 8.68651 14.6333 8.33002C14.5516 8.13849 14.4807 8.00724 14.4236 7.90196C14.3213 7.71296 14.2746 7.6268 14.2887 7.4273C14.2908 7.39688 14.2743 7.36824 14.247 7.35493C14.2197 7.34129 14.1871 7.34579 14.1642 7.36604C14.1538 7.37522 13.1884 8.24987 13.555 9.21816C13.544 9.22205 13.5321 9.2243 13.5236 9.23344C13.4976 9.26152 13.4969 9.30483 13.5221 9.33366C13.9335 9.80302 13.4776 10.4592 13.3732 10.5968C13.3709 10.5953 13.3687 10.5932 13.3663 10.5917C13.3663 10.4981 13.3409 10.4198 13.2874 10.3606C13.2403 10.3087 13.1818 10.2812 13.1301 10.2665C13.3254 9.41382 12.9447 8.25718 12.6628 7.40368C12.5831 7.16246 12.5143 6.95433 12.4718 6.79111C12.4687 6.77902 12.4662 6.76693 12.4637 6.75465C12.4347 6.61266 12.38 6.48277 12.0018 6.32949C11.5363 6.1411 11.2088 6.71194 11.1014 6.89954L11.0899 6.91946C11.05 6.98874 10.7909 7.21083 10.5403 7.42552C10.2085 7.70986 9.83241 8.03222 9.62723 8.27194C9.53255 8.38276 9.44461 8.48743 9.36342 8.5838C9.13144 8.85952 8.94834 9.07721 8.83861 9.16168C8.72109 9.25215 8.21161 9.22468 8.02008 9.21432L7.94991 9.21061C7.77806 9.20302 7.60598 9.12151 7.5007 8.99747C7.42378 8.90682 7.32684 8.86055 7.23469 8.86815C7.16925 8.87419 7.1123 8.90851 7.08248 8.96021C7.02164 9.06572 7.0387 9.16112 7.1378 9.26893C7.20534 9.34285 7.20534 9.34285 7.29037 9.57085L7.31484 9.63638C7.43906 9.9683 7.94691 10.0397 8.19098 10.0742L8.22042 10.0783C8.31956 10.0925 8.39897 10.1827 8.49094 10.287C8.556 10.3606 8.62631 10.4329 8.70905 10.4918C8.70398 10.4943 8.69808 10.4945 8.69358 10.4982C8.67009 10.5177 8.66062 10.5493 8.66967 10.5784C8.67052 10.5809 8.72227 10.7209 8.86102 10.8417C8.6422 10.8524 8.39213 10.7686 8.29186 10.7301C8.27597 10.7231 8.25947 10.7165 8.2425 10.7102C8.20448 10.6962 8.16253 10.7155 8.14744 10.7527C8.14228 10.7656 8.14214 10.7788 8.14411 10.7916C7.91958 10.8021 7.57631 10.8687 7.30641 11.1441C7.16062 11.2931 7.0665 11.4088 6.99103 11.5018C6.85552 11.6686 6.79355 11.7446 6.60394 11.808C6.57506 11.8175 6.55491 11.8436 6.55294 11.8741C6.55087 11.9045 6.56747 11.933 6.59489 11.9462C6.60258 11.9499 7.04803 12.1615 7.56544 12.1615C7.89234 12.1615 8.24784 12.0766 8.53997 11.8019C8.54775 11.8103 8.55408 11.8201 8.56547 11.8244C8.57405 11.8275 8.58286 11.829 8.59148 11.829C8.61928 11.829 8.64567 11.8134 8.65866 11.7873C8.87484 11.3497 9.17288 11.1923 9.34636 11.136C9.19172 11.3328 9.1237 11.5188 9.11991 11.5298C9.1088 11.5617 9.12037 11.5972 9.14831 11.6162C9.17625 11.6353 9.21352 11.6334 9.2392 11.6114C9.35212 11.5152 9.62709 11.3914 9.86025 11.2962C9.71925 11.4893 9.65808 11.6942 9.64519 11.7414C9.59611 11.8202 9.55378 11.9111 9.51741 12.0053C9.06192 12.0218 8.21198 12.8422 7.37902 13.6837C7.27791 13.7859 7.18683 13.8778 7.10981 13.9536C7.10091 13.9624 7.09167 13.9706 7.0822 13.979C6.97378 14.0749 6.88842 14.1871 6.94462 14.5915C7.01391 15.0892 7.67227 15.0881 7.88831 15.0867H7.91123C7.99102 15.0867 8.31253 15.2002 8.62336 15.3098C9.03577 15.4554 9.50316 15.6203 9.81338 15.6781C9.95672 15.7051 10.0914 15.7291 10.2155 15.7511C10.5701 15.8143 10.8501 15.8644 10.978 15.9172C11.1148 15.9737 11.3452 16.428 11.432 16.5991L11.4644 16.6626C11.5436 16.8151 11.5588 17.0053 11.5041 17.1584C11.4641 17.2703 11.4717 17.3778 11.5249 17.4535C11.5628 17.5071 11.6211 17.5393 11.6806 17.5393C11.8025 17.5393 11.8765 17.4769 11.9205 17.3373C11.9507 17.2419 11.9507 17.2419 12.1054 17.0547L12.1503 17.0003C12.3758 16.7271 12.1843 16.2516 12.0922 16.023L12.0809 15.9949C12.0438 15.9019 12.0821 15.788 12.1265 15.6564C12.1641 15.5452 12.2027 15.4303 12.2027 15.3073C12.2027 15.2453 12.1799 15.1908 12.1367 15.1497C12.0115 15.0309 11.7442 15.0453 11.4859 15.0586C11.417 15.0623 11.3516 15.0659 11.2957 15.0659C11.0162 15.0659 10.443 14.6914 9.8888 14.3293C9.68081 14.1933 9.45534 14.1241 9.24417 14.0929C10.0836 13.8055 10.9028 13.2985 11.0603 13.1985C11.1832 13.3384 11.3472 13.4496 11.5582 13.5258C11.5347 13.5492 11.5133 13.5773 11.4983 13.6104C11.4706 13.6716 11.4699 13.7397 11.4965 13.8076C11.5129 13.8496 11.5372 13.8826 11.5648 13.9103C11.5168 14.0783 11.5638 14.171 11.6132 14.22C11.5593 14.3872 11.606 14.4856 11.657 14.538C11.7105 14.5928 11.7849 14.6161 11.8504 14.6161C11.859 14.6161 11.866 14.6135 11.8743 14.6127C11.8966 14.6811 11.9277 14.7481 11.9801 14.8076L11.9964 14.826C12.2225 15.0832 12.6009 15.5136 12.6455 15.7145C12.6539 15.7519 12.6891 15.7761 12.7265 15.7728C12.7643 15.7689 12.7932 15.7371 12.7935 15.6991C12.7936 15.688 12.7952 15.515 12.7873 15.3387C12.9534 15.6082 13.0681 15.8756 13.1065 15.9696C13.1111 15.9823 13.1163 15.9952 13.1219 16.0081C13.1341 16.0364 13.1617 16.0533 13.1906 16.0533C13.2 16.0533 13.2096 16.0516 13.2188 16.0479C13.2313 16.0427 13.2408 16.034 13.2485 16.024C13.4101 16.1803 13.694 16.3845 14.0795 16.3922C14.2877 16.3955 14.4367 16.3854 14.5563 16.3768C14.7705 16.361 14.8682 16.3539 15.0443 16.4486C15.0554 16.4546 15.0676 16.4575 15.0797 16.4575C15.0968 16.4575 15.1137 16.4517 15.1274 16.4404C15.1509 16.4211 15.1603 16.3893 15.1512 16.3604C15.147 16.3471 14.7458 15.1092 13.7129 15.0444C13.7139 15.0326 13.7167 15.0209 13.7117 15.0093C13.6968 14.9738 13.6577 14.9551 13.6209 14.9668C13.3654 15.045 13.1431 14.9633 12.9665 14.8324C13.195 14.8182 13.3536 14.7395 13.3619 14.7354C13.3915 14.7204 13.4078 14.6876 13.4018 14.6551C13.3958 14.6224 13.369 14.5976 13.3359 14.5941C13.0011 14.5588 12.4905 14.253 12.4855 14.2499C12.4835 14.2487 12.481 14.2494 12.4789 14.2484C12.4799 14.2473 12.4808 14.246 12.4817 14.2449C12.5104 14.2475 12.5386 14.2489 12.5657 14.2489C12.6292 14.2489 12.6872 14.2423 12.7341 14.2323C12.7654 14.2257 12.789 14.1999 12.7929 14.1683C12.7969 14.1365 12.7804 14.1059 12.7517 14.0917C12.6496 14.0415 12.5612 13.9736 12.4842 13.8988C12.5764 13.7868 12.5678 13.6179 12.5295 13.4686C12.5631 13.4547 12.6086 13.433 12.6636 13.4018C13.3258 14.2351 14.813 14.5666 15.8021 14.7862C16.0328 14.8373 16.232 14.8816 16.3757 14.9231C16.3876 14.9266 16.3992 14.9307 16.4111 14.9348C16.4582 14.9512 16.5056 14.9642 16.5608 14.9642C16.6659 14.9642 16.7994 14.9169 17.0128 14.7549C17.4132 14.4507 17.0891 13.8777 16.9826 13.6895L16.9715 13.6696C16.9325 13.6002 16.8741 13.2643 16.8176 12.9396C16.7426 12.5086 16.6576 12.0203 16.5563 11.7213C16.5092 11.5824 16.4641 11.4527 16.4226 11.3334C16.3044 10.9939 16.2111 10.7259 16.1948 10.5886C16.1771 10.442 16.4602 10.0187 16.5668 9.8596L16.6065 9.79969C16.7011 9.65574 16.8593 9.54966 17.0195 9.52257C17.1367 9.50251 17.2268 9.44316 17.2666 9.35954C17.2947 9.30029 17.2942 9.23391 17.265 9.18207ZM17.1313 9.29513C17.1225 9.31346 17.0915 9.35813 16.9943 9.37468C16.7945 9.40862 16.5979 9.53987 16.4812 9.71733L16.4421 9.77626C16.2387 10.0803 16.0236 10.4202 16.0458 10.6065C16.0641 10.7596 16.1551 11.0209 16.2809 11.3825C16.3224 11.5016 16.3673 11.631 16.4143 11.7692C16.5119 12.0572 16.5957 12.5395 16.6697 12.9651C16.7459 13.4032 16.7914 13.6553 16.8406 13.7429L16.852 13.7632C17.0093 14.0411 17.1876 14.4339 16.9221 14.6356C16.6342 14.8542 16.546 14.8231 16.4602 14.7933C16.4459 14.7883 16.4317 14.7834 16.4171 14.7791C16.269 14.7362 16.0675 14.6916 15.8344 14.6399C14.9288 14.439 13.4247 14.1036 12.7895 13.3189C12.9106 13.2297 13.0394 13.1028 13.1231 12.9225C13.2046 12.7469 13.2297 12.5509 13.1993 12.3372C13.5455 12.4175 14.275 12.6096 14.4735 12.7677C14.4871 12.7784 14.5036 12.7838 14.5201 12.7838C14.5316 12.7838 14.5433 12.7811 14.554 12.7758C14.58 12.7626 14.5961 12.7355 14.595 12.7062C14.5946 12.6977 14.5925 12.6572 14.5871 12.5977C14.7961 12.712 15.2989 13.0135 15.7084 13.4696C15.8104 13.6147 15.8961 13.702 15.9053 13.7114C15.933 13.7391 15.9773 13.7413 16.007 13.7155C16.0367 13.6901 16.0419 13.6461 16.0188 13.6145C15.9594 13.5331 15.8965 13.4555 15.8314 13.382C15.6699 13.1511 15.4628 12.7638 15.4922 12.326C15.5487 11.4871 15.5748 10.9177 15.4272 10.655C15.3987 10.6044 15.3623 10.5466 15.3239 10.4859C15.2197 10.3211 15.0769 10.0955 15.1034 9.9908C15.108 9.97266 15.1178 9.96038 15.1364 9.95002C15.2223 9.90165 15.3293 9.88158 15.4328 9.86208C15.5844 9.83344 15.7415 9.80396 15.8391 9.68307L15.8583 9.65926C15.9944 9.48976 16.2769 9.13562 16.5385 9.1838L16.6056 9.1959C16.8601 9.2423 16.8754 9.24526 17.002 9.21849C17.1021 9.19721 17.1157 9.22201 17.1345 9.25552C17.1384 9.26241 17.1399 9.27704 17.1313 9.29513ZM14.5454 16.2273C14.4289 16.2359 14.2844 16.2465 14.0825 16.2423C13.547 16.2316 13.221 15.7674 13.2179 15.7628C13.2174 15.7621 13.2166 15.7617 13.2162 15.7611C13.2053 15.5019 13.4046 15.3016 13.5457 15.1934C14.3651 15.139 14.7956 15.9034 14.9457 16.2451C14.8164 16.2076 14.7032 16.2156 14.5454 16.2273ZM13.0893 15.5715C12.9563 15.3085 12.7527 14.9677 12.5023 14.7438C12.4642 14.7097 12.4322 14.6758 12.4002 14.642C12.4911 14.6696 12.5676 14.6793 12.6015 14.6819C12.7717 14.8908 13.0334 15.1238 13.368 15.1459C13.2481 15.2564 13.1367 15.4019 13.0893 15.5715ZM11.7483 14.2881C11.7716 14.2927 11.7949 14.2957 11.8173 14.2957C11.8256 14.2957 11.8328 14.2943 11.8408 14.2938C11.8358 14.3479 11.8371 14.4061 11.8428 14.4652C11.8171 14.4636 11.7856 14.4551 11.7642 14.4332C11.7297 14.3979 11.7345 14.3397 11.7483 14.2881ZM11.8668 14.1395C11.8286 14.1493 11.7555 14.1497 11.7195 14.1151C11.6875 14.0845 11.6912 14.0274 11.7026 13.9769C11.7092 13.9775 11.7153 13.9801 11.7221 13.9801C11.7222 13.9801 11.7223 13.9801 11.7223 13.9801C11.8103 13.98 11.8925 13.9264 11.9373 13.8486C11.9384 13.849 11.9395 13.8495 11.9406 13.8498C11.9407 13.8501 11.9406 13.8504 11.9408 13.8507C11.9537 13.8877 11.9697 13.9209 11.9872 13.9517C11.9531 13.9478 11.9212 13.9663 11.9086 13.9978C11.9059 14.0044 11.8854 14.0604 11.8668 14.1395ZM8.42344 14.2833C8.5335 14.2734 8.64759 14.2549 8.76384 14.2295C9.04448 14.207 9.45802 14.2267 9.80686 14.4543C10.5104 14.9142 10.9942 15.2155 11.2957 15.2155C11.354 15.2155 11.4221 15.212 11.4938 15.2081C11.6886 15.1981 11.955 15.1839 12.0337 15.2584C12.0473 15.2713 12.053 15.2858 12.053 15.3072C12.053 15.4057 12.0183 15.5087 11.9846 15.6084C11.9352 15.7548 11.8841 15.9063 11.9418 16.0507L11.9532 16.079C12.0344 16.2808 12.2034 16.7005 12.0347 16.9051L11.99 16.9591C11.8264 17.1571 11.8166 17.169 11.7777 17.292C11.7469 17.3895 11.7191 17.3895 11.6806 17.3895C11.6725 17.3895 11.6589 17.3836 11.6473 17.3673C11.6355 17.3505 11.6118 17.3018 11.645 17.2088C11.7133 17.0178 11.6949 16.7821 11.5973 16.5937L11.5655 16.5315C11.3998 16.205 11.2086 15.8506 11.0352 15.7789C10.8923 15.7198 10.6193 15.6713 10.2416 15.6038C10.1179 15.5817 9.98372 15.5577 9.84075 15.5312C9.54188 15.4752 9.08034 15.3124 8.67314 15.1687C8.25375 15.0206 8.01164 14.937 7.91109 14.937H7.8877C7.56816 14.9349 7.13869 14.9011 7.09284 14.571C7.04316 14.2133 7.11333 14.1513 7.1813 14.0912C7.19273 14.0811 7.20398 14.0712 7.21476 14.0606C7.2922 13.9844 7.38366 13.892 7.48528 13.7891C8.02294 13.246 8.99962 12.2603 9.46223 12.1633C9.37523 12.4402 9.33712 12.7006 9.33478 12.7173C9.3308 12.7449 9.3427 12.7727 9.36548 12.7889C9.37837 12.798 9.39356 12.8027 9.40889 12.8027C9.42056 12.8027 9.43228 12.8 9.44311 12.7946C10.2482 12.381 10.6763 12.361 10.8166 12.3699C10.8002 12.5609 10.8159 12.7798 10.9139 12.9848C10.9298 13.0179 10.9519 13.0468 10.9713 13.0776C10.7741 13.2012 9.6803 13.8695 8.74875 14.0794C8.54761 14.096 8.41017 14.1333 8.39658 14.1369C8.35922 14.1473 8.33602 14.1845 8.34305 14.2225C8.34998 14.2605 8.38547 14.2866 8.42344 14.2833ZM8.70094 11.4342C8.69686 11.2768 8.66203 11.1075 8.57095 10.9671C8.72714 10.9977 8.90573 11.0101 9.05606 10.9597L9.05644 10.9595C9.11766 10.9836 9.1898 10.9984 9.26977 11.0056C9.11428 11.0611 8.89711 11.1783 8.70094 11.4342ZM7.10719 11.5961C7.18069 11.5056 7.27237 11.3929 7.41328 11.249C7.78791 10.8663 8.34923 10.9473 8.35523 10.948C8.35584 10.9481 8.35641 10.9479 8.35711 10.948C8.55347 11.1178 8.56303 11.4003 8.54508 11.5772C8.02341 12.2117 7.17112 12.0007 6.81952 11.8754C6.93572 11.8071 7.00744 11.719 7.10719 11.5961ZM14.4956 8.38894C14.7058 8.88155 14.4165 9.36952 14.4135 9.3744C14.4132 9.37496 14.4132 9.37557 14.4129 9.37618C14.1813 9.49247 13.9165 9.39338 13.7598 9.30915C13.3727 8.58451 13.8938 7.87801 14.1437 7.60065C14.1624 7.73424 14.2166 7.83427 14.2919 7.9733C14.3474 8.07587 14.4165 8.2036 14.4956 8.38894ZM13.7894 9.49055C13.9363 9.55337 14.1107 9.59508 14.2808 9.57151C14.1135 9.7838 13.9268 10.082 13.8763 10.4021C13.708 10.546 13.5661 10.6553 13.4883 10.7136C13.4858 10.7098 13.4829 10.7067 13.4804 10.703C13.5602 10.6003 13.986 10.017 13.7894 9.49055ZM12.1652 14.3223C12.098 14.1968 12.0694 14.0987 12.0591 14.0511C12.1282 14.1265 12.2126 14.1762 12.3007 14.2066L12.1652 14.3223ZM12.3782 14.3374C12.3792 14.3404 12.378 14.3437 12.3794 14.3465C12.3806 14.3491 12.4138 14.4154 12.474 14.5077C12.4136 14.4918 12.3428 14.4663 12.2759 14.4246L12.3782 14.3374ZM12.4024 14.8554C12.4775 14.9227 12.5487 15.0022 12.6148 15.0877C12.6149 15.09 12.6152 15.0925 12.6156 15.0949C12.628 15.169 12.635 15.2757 12.639 15.3787C12.5094 15.1879 12.3148 14.9615 12.1089 14.7271L12.0926 14.7086C11.993 14.5955 11.9782 14.4412 11.99 14.3107C12.0592 14.4624 12.1829 14.6592 12.4024 14.8554ZM12.004 13.7148C11.9433 13.7006 11.8998 13.6425 11.8739 13.5961C11.8044 13.4715 11.8515 13.3727 11.8729 13.3381C11.9007 13.343 11.9289 13.346 11.9573 13.3479C11.982 13.4143 12.036 13.5422 12.1257 13.6874C12.0817 13.7109 12.0402 13.723 12.004 13.7148ZM12.3328 10.0517C12.3902 10.0531 12.4564 10.0905 12.507 10.1482C12.486 10.1741 12.4516 10.2036 12.4054 10.195C12.1974 10.1574 12.135 10.3608 12.1145 10.4277C12.0931 10.497 12.0101 10.6533 11.9428 10.7237C11.8966 10.7029 11.8477 10.6877 11.7959 10.6817C11.873 10.5731 12.0153 10.3783 12.2025 10.1262C12.2406 10.0749 12.2899 10.0476 12.3328 10.0517ZM11.915 10.8749C11.9825 10.9179 12.0393 10.9903 12.1049 11.0742C12.1459 11.1266 12.1933 11.1831 12.246 11.2386C12.1362 11.1826 12.0754 11.1215 12.0743 11.1204C12.0737 11.1199 12.0729 11.1201 12.0724 11.1196C12.0719 11.119 12.0721 11.1182 12.0716 11.1177C11.8906 10.9426 11.7065 10.8961 11.5241 10.981C11.4615 11.0099 11.4015 11.0056 11.3691 10.9931C11.3505 10.9861 11.3438 10.9779 11.3433 10.9771C11.3433 10.9748 11.3466 10.9652 11.3603 10.9506C11.445 10.8614 11.7435 10.766 11.915 10.8749ZM11.3923 10.7516C11.4981 10.6456 11.6087 10.5155 11.7063 10.3962L11.7259 10.3724C11.7545 10.3378 11.8049 10.3625 11.8302 10.3786C11.7249 10.5226 11.6393 10.642 11.6111 10.687C11.5325 10.699 11.4566 10.7213 11.3923 10.7516ZM12.4129 10.8222C12.531 10.8491 12.5933 10.8816 12.6254 10.9148C12.515 10.8968 12.3564 10.8973 12.2318 10.9929C12.2288 10.9892 12.2257 10.9855 12.2228 10.9819C12.1726 10.9176 12.1216 10.8601 12.066 10.8093C12.0939 10.7774 12.1204 10.7405 12.1447 10.7016C12.1971 10.7354 12.3033 10.7974 12.4129 10.8222ZM12.2169 10.5699C12.2362 10.5294 12.2508 10.4939 12.2576 10.4718C12.2948 10.3507 12.327 10.3329 12.3786 10.3425C12.385 10.3436 12.3908 10.343 12.397 10.3437C12.4491 10.5365 12.606 10.6171 12.7234 10.6757C12.7868 10.7073 12.8465 10.7372 12.8586 10.7693C12.8731 10.8082 12.8348 10.8542 12.7885 10.8914C12.7469 10.7906 12.6323 10.7186 12.446 10.6763C12.352 10.655 12.2556 10.5955 12.2169 10.5699ZM11.1256 11.504C11.2584 11.4135 11.3775 11.3727 11.4815 11.3794C11.7381 11.3979 11.9255 11.3161 12.0119 11.2659C12.0988 11.3379 12.3026 11.4738 12.6079 11.4793C12.6593 11.5078 12.8323 11.6115 12.9313 11.7603C12.9337 11.7995 12.935 11.8389 12.935 11.8789C12.935 12.6084 12.5206 13.2019 12.0113 13.2019C11.502 13.2019 11.0877 12.6084 11.0877 11.8789C11.0876 11.7513 11.1004 11.6255 11.1256 11.504ZM12.9755 11.5779C12.8738 11.4682 12.7564 11.392 12.698 11.3583C12.7665 11.344 12.8391 11.3203 12.9068 11.2829C12.9861 11.3815 12.9906 11.4935 12.9755 11.5779ZM12.9088 11.1001C12.7718 11.2281 12.5312 11.2322 12.4618 11.2306C12.4118 11.1932 12.367 11.1521 12.3274 11.1076C12.4688 11.0053 12.7004 11.0868 12.7028 11.0878C12.7104 11.0906 12.7182 11.0911 12.7259 11.0914C12.7269 11.0914 12.7279 11.0924 12.729 11.0924C12.7295 11.0924 12.7299 11.0921 12.7304 11.0921C12.741 11.0919 12.7512 11.0897 12.7606 11.0853C12.7608 11.0852 12.761 11.0852 12.761 11.0852C12.8306 11.0521 12.9211 10.9894 12.9723 10.9093C12.9839 10.965 12.978 11.0355 12.9088 11.1001ZM12.9519 10.6466C12.91 10.6032 12.852 10.5726 12.7904 10.5418C12.6864 10.49 12.5826 10.4333 12.5453 10.3098C12.5858 10.2849 12.6174 10.2518 12.6395 10.2199C12.7113 10.2253 12.8627 10.2501 12.9339 10.3519C12.9824 10.4212 12.987 10.5211 12.9519 10.6466ZM11.9188 10.2579C11.844 10.2069 11.7074 10.1599 11.6102 10.2773L11.5904 10.3015C11.4988 10.4135 11.22 10.754 11.0801 10.8109C11.0785 10.8116 11.0775 10.8129 11.076 10.8137C11.0505 10.8072 11.028 10.7984 11.0124 10.786C11.0006 10.7767 10.995 10.7669 10.9935 10.7536C10.9865 10.6885 11.0154 10.66 11.1326 10.576C11.2215 10.5122 11.3435 10.4249 11.4595 10.27C11.6381 10.032 11.8615 9.98944 11.9965 10.1525C11.9706 10.1876 11.9446 10.2228 11.9188 10.2579ZM11.2574 10.1881C11.0233 10.156 10.8082 10.2341 10.6755 10.4062C10.6205 10.4777 10.5889 10.5589 10.5739 10.6418C10.5649 10.6456 10.5547 10.6457 10.5474 10.6531C10.5286 10.6722 10.5088 10.6964 10.489 10.7231C10.3576 10.6715 10.002 10.5482 9.69633 10.5897C9.34284 10.6375 9.0818 10.5908 8.92964 10.5466C9.09248 10.4941 9.21258 10.2587 9.32859 10.0306C9.35991 9.96896 9.38953 9.9106 9.41742 9.86204C9.55678 9.6204 10.1676 9.31069 10.7583 9.01112C11.0069 8.88512 11.1938 8.69808 11.3316 8.50932C11.2242 9.18652 11.2451 9.92583 11.2574 10.1881ZM10.581 10.8549C10.5899 10.8897 10.5985 10.9247 10.615 10.9576C10.625 10.9777 10.6379 10.9923 10.6495 11.0093C10.6065 11.0521 10.546 11.1242 10.5059 11.2191C10.4718 11.0724 10.5278 10.9399 10.581 10.8549ZM10.5095 11.6058C10.536 11.6685 10.5692 11.7211 10.6071 11.7642C10.548 11.94 10.51 12.1011 10.4928 12.2457C10.4349 12.2561 10.3705 12.2705 10.2994 12.2893C10.3384 12.0326 10.4395 11.7677 10.5095 11.6058ZM10.6481 12.2239C10.6635 12.1161 10.6915 11.9979 10.7317 11.8703C10.7917 11.9072 10.8533 11.9299 10.9081 11.942C10.8853 12.008 10.857 12.106 10.8366 12.2204C10.7939 12.217 10.7311 12.2163 10.6481 12.2239ZM10.3492 11.5998C10.2715 11.7863 10.1732 12.0653 10.1434 12.3349C10.0823 12.3544 10.0171 12.3773 9.94795 12.4035C10.0055 12.068 10.1566 11.7291 10.165 11.7105C10.24 11.6747 10.3006 11.6369 10.3492 11.5998ZM9.82692 11.6709C9.88472 11.5233 10.0111 11.2754 10.2363 11.1539C10.3002 11.183 10.3347 11.2059 10.3355 11.2064C10.3404 11.2101 10.3464 11.2096 10.3519 11.2119C10.3583 11.2551 10.371 11.299 10.3895 11.3432C10.3642 11.3865 10.2349 11.5721 9.82692 11.6709ZM10.9425 11.7937C10.854 11.7751 10.7032 11.717 10.6342 11.5175C10.5998 11.4181 10.6182 11.3285 10.6525 11.257C10.6638 11.4077 10.7253 11.5536 10.8843 11.6005C10.9013 11.656 10.924 11.7003 10.9447 11.7231C10.9451 11.7236 10.9458 11.7238 10.9463 11.7243C10.9445 11.7473 10.9435 11.7705 10.9425 11.7937ZM10.8049 11.1416C10.8458 11.16 10.888 11.1735 10.9318 11.1786C10.9047 11.2189 10.8875 11.2595 10.8768 11.2962C10.8656 11.3345 10.8608 11.3735 10.8594 11.4117C10.8037 11.3434 10.7985 11.2273 10.8049 11.1416ZM10.749 10.8905C10.6865 10.7656 10.7039 10.6151 10.7943 10.4977C10.8857 10.3788 11.0328 10.3238 11.1969 10.3351C11.143 10.3833 11.0911 10.4213 11.0454 10.4542C10.9333 10.5346 10.8273 10.6106 10.8448 10.7699C10.8505 10.8228 10.8763 10.8688 10.9193 10.9031C10.9929 10.9618 11.1076 10.976 11.1953 10.9778C11.1953 10.9817 11.1963 10.9853 11.1967 10.9892C11.1757 10.9967 11.1526 11.0034 11.1341 11.0119C11.0179 11.0441 10.8341 11.0613 10.749 10.8905ZM11.0224 11.3322C11.0465 11.2557 11.1008 11.1961 11.1844 11.1541C11.2217 11.1435 11.2537 11.1301 11.2832 11.1167C11.3632 11.1628 11.4814 11.1659 11.5872 11.1167C11.653 11.086 11.7525 11.0627 11.8892 11.1603C11.8077 11.1987 11.6709 11.244 11.4927 11.2299C11.3471 11.2206 11.1865 11.2758 11.015 11.3986C11.0134 11.3998 11.0133 11.4022 11.0117 11.4035C11.0136 11.38 11.0148 11.3563 11.0224 11.3322ZM12.1173 13.3444C12.1824 13.3356 12.2456 13.3178 12.3068 13.2937C12.368 13.4135 12.4508 13.6682 12.3806 13.7866C12.2456 13.6223 12.1604 13.4472 12.1173 13.3444ZM13.0397 12.2985C13.0797 12.5064 13.0634 12.6941 12.9878 12.8581C12.8593 13.1361 12.5964 13.2756 12.4838 13.3249C12.4687 13.2863 12.4543 13.2537 12.4411 13.2275C12.7279 13.0548 12.9492 12.7152 13.0397 12.2985ZM13.0826 11.9353C13.0831 11.9164 13.0847 11.8979 13.0847 11.8789C13.0847 11.8709 13.0839 11.8632 13.0838 11.8553C13.1297 11.8494 13.192 11.8361 13.2555 11.8051C13.3112 11.9576 13.3492 12.0978 13.3691 12.224C13.2637 12.1981 13.1891 12.1812 13.1655 12.1759C13.1458 12.1005 13.121 12.0234 13.0884 11.9441C13.087 11.9406 13.0844 11.9384 13.0826 11.9353ZM13.0826 11.2807C13.0681 11.2509 13.0485 11.222 13.0256 11.1932C13.0513 11.1665 13.0712 11.1391 13.0862 11.1112C13.0882 11.1111 13.0901 11.111 13.0921 11.1108C13.1206 11.108 13.1456 11.1036 13.1679 11.0978C13.1835 11.1229 13.2021 11.1621 13.2109 11.2088C13.1911 11.2298 13.1775 11.2552 13.1685 11.2796C13.1289 11.3054 13.101 11.2887 13.095 11.2845C13.0914 11.2816 13.0865 11.2829 13.0826 11.2807ZM13.7195 12.316C13.652 12.2971 13.587 12.2796 13.5262 12.2637C13.507 12.1005 13.4588 11.9155 13.3814 11.7123C13.4182 11.674 13.4566 11.6227 13.4883 11.5657C13.5599 11.726 13.6808 12.0285 13.7195 12.316ZM13.5508 11.3388C13.5535 11.3351 13.5578 11.333 13.5599 11.3287C13.5774 11.2921 13.5836 11.2606 13.5849 11.2314C13.7234 11.4129 13.9716 11.8158 14.0662 12.422C14.0038 12.401 13.9397 12.3807 13.8758 12.3615C13.8328 11.9033 13.578 11.403 13.5672 11.3819C13.5635 11.3746 13.5581 11.369 13.5526 11.3635C13.5528 11.3551 13.5515 11.347 13.5508 11.3388ZM14.2292 12.4807C14.1203 11.6309 13.718 11.144 13.6179 11.0345C13.6259 11.033 13.6346 11.0331 13.6425 11.0314C14.2373 11.3483 14.3938 12.2228 14.4329 12.5685C14.3738 12.5387 14.304 12.5094 14.2292 12.4807ZM13.5536 10.8901C13.5519 10.8787 13.5496 10.8676 13.5471 10.8567C13.6727 10.7645 14.1017 10.4401 14.4835 10.0359C14.3039 10.3893 13.9923 10.8305 13.5536 10.8901ZM13.4093 10.9726C13.4093 10.9743 13.4095 10.9753 13.4095 10.9771C13.4095 10.9776 13.4092 10.978 13.4092 10.9786C13.4092 10.9792 13.4095 10.9796 13.4096 10.9801C13.4066 11.0649 13.4184 11.1232 13.4275 11.1654C13.429 11.1724 13.43 11.1775 13.4311 11.1833C13.402 11.1733 13.3769 11.1683 13.3537 11.1655C13.3387 11.1007 13.3136 11.0483 13.2921 11.0145C13.3281 10.9607 13.3413 10.8842 13.3516 10.783C13.3864 10.8303 13.413 10.8939 13.4093 10.9726ZM13.3009 11.3375C13.3045 11.3295 13.3107 11.3159 13.314 11.3133C13.3139 11.3131 13.3302 11.3061 13.3843 11.3254C13.3985 11.3305 13.4006 11.3358 13.4023 11.3439C13.4158 11.4095 13.3332 11.5553 13.2586 11.6242C13.2093 11.6696 13.1477 11.6908 13.099 11.7008C13.1193 11.64 13.14 11.545 13.1291 11.4405C13.1667 11.4404 13.2075 11.4329 13.2507 11.4047C13.2789 11.3863 13.2915 11.3581 13.3009 11.3375ZM13.2083 10.7105C13.19 10.9064 13.1857 10.9423 13.1263 10.9549C13.1262 10.8793 13.1025 10.8097 13.0744 10.7596C13.1212 10.6302 13.1323 10.5183 13.1152 10.4211C13.1371 10.4302 13.1588 10.4419 13.1764 10.4612C13.2102 10.4985 13.2235 10.5552 13.2162 10.6296L13.2083 10.7105ZM9.71644 10.7384C9.96797 10.7038 10.2758 10.8032 10.412 10.8541C10.3849 10.9117 10.3649 10.9757 10.3545 11.0445C10.2248 10.9767 9.91092 10.8529 9.36342 10.8638C9.14278 10.873 9.00178 10.7851 8.91961 10.7004C9.09108 10.7464 9.36117 10.7861 9.71644 10.7384ZM9.66731 11.023C9.80222 11.0341 9.91542 11.0535 10.0075 11.0768C9.83653 11.1421 9.57816 11.2463 9.37692 11.3506C9.44217 11.2464 9.5377 11.1245 9.66731 11.023ZM9.97181 11.7858C9.90994 11.9434 9.819 12.2093 9.78778 12.4679C9.69998 12.5048 9.60778 12.5459 9.50836 12.5942C9.54605 12.4027 9.62784 12.0634 9.76284 11.8372C9.83948 11.8226 9.90914 11.8054 9.97181 11.7858ZM11.0493 12.9205C10.9474 12.7079 10.9493 12.4709 10.9793 12.2795C11.0812 12.7726 11.3654 13.1603 11.7256 13.2971C11.7117 13.3264 11.699 13.364 11.6923 13.4085C11.3785 13.3131 11.1597 13.151 11.0493 12.9205ZM11.6345 13.6725C11.6492 13.6396 11.682 13.614 11.7115 13.5961C11.7199 13.6199 11.7291 13.644 11.7431 13.669C11.764 13.7066 11.7884 13.7373 11.8142 13.7647C11.7979 13.802 11.7597 13.8301 11.7222 13.8303H11.7221C11.6759 13.8303 11.6498 13.7882 11.6359 13.7529C11.624 13.7224 11.6235 13.6969 11.6345 13.6725ZM12.7962 14.6796C12.744 14.6242 12.6982 14.5675 12.6598 14.5148C12.7687 14.569 12.9016 14.6293 13.0349 14.6747C12.9645 14.6847 12.8835 14.6889 12.7962 14.6796ZM12.107 13.8574C12.1391 13.8496 12.1741 13.8354 12.2116 13.8135C12.2841 13.9114 12.3709 14.0095 12.4774 14.0938C12.3457 14.0791 12.1905 14.0228 12.107 13.8574ZM7.24819 9.01726C7.25653 9.01655 7.272 9.01805 7.2907 9.0241C7.31658 9.03254 7.34948 9.05082 7.38661 9.09451C7.44314 9.16102 7.51673 9.21516 7.59703 9.25904C7.60167 9.26157 7.60589 9.26476 7.61058 9.26724C7.71328 9.32077 7.82775 9.35522 7.9432 9.36029L8.01206 9.3638C8.3782 9.38349 8.78095 9.39483 8.92997 9.28013C9.05255 9.18596 9.23109 8.97376 9.47808 8.68004C9.55894 8.5839 9.64669 8.47974 9.74114 8.3694C9.93872 8.13849 10.3101 7.82002 10.6378 7.53919C10.9757 7.2496 11.1694 7.08151 11.2196 6.99427L11.2313 6.97379C11.3899 6.69685 11.6362 6.3421 11.9455 6.46829C12.28 6.6038 12.2988 6.69568 12.3169 6.78441C12.3199 6.79941 12.3231 6.81427 12.3269 6.8289C12.3705 6.99661 12.4401 7.20704 12.5205 7.4506C12.7775 8.22854 13.1582 9.38354 12.9926 10.1964C12.8724 10.0936 12.7074 10.0741 12.6344 10.0703C12.5677 9.98607 12.4629 9.90498 12.3366 9.90188C12.267 9.90132 12.1714 9.92237 12.0876 10.031C12.0076 9.94702 11.9075 9.89912 11.7982 9.89912C11.6992 9.89912 11.5554 9.93662 11.4042 10.1022C11.3908 9.71279 11.3817 8.7459 11.5824 8.0633C11.6414 7.92427 11.6675 7.82593 11.6704 7.81444C11.6802 7.77643 11.659 7.73743 11.622 7.72477C11.5848 7.71329 11.5445 7.73026 11.529 7.7663C11.4971 7.84079 11.4689 7.92052 11.4436 8.00443C11.334 8.26032 11.1039 8.6679 10.6906 8.87752C9.94069 9.25763 9.43795 9.52637 9.28767 9.78713C9.25852 9.83766 9.22762 9.89851 9.19495 9.96263C9.10673 10.1363 8.9858 10.3743 8.88202 10.4049C8.8643 10.4104 8.84873 10.408 8.83003 10.3973C8.74467 10.3482 8.67272 10.2667 8.60311 10.1877C8.50092 10.0717 8.39531 9.9519 8.24156 9.92987L8.2117 9.92555C7.99627 9.89537 7.54791 9.83213 7.45491 9.58351L7.43053 9.5184C7.34062 9.27737 7.33523 9.26293 7.248 9.16754C7.1842 9.09802 7.1917 9.0721 7.2083 9.04233C7.20966 9.03985 7.21059 9.03746 7.212 9.03493C7.21617 9.02804 7.22808 9.01922 7.24819 9.01726Z" fill="#464655"/>
</svg>
