<svg xmlns="http://www.w3.org/2000/svg" width="24" height="24" viewBox="0 0 24 24" fill="none"><rect width="24" height="24" fill="none"/>
<path d="M22.2026 4.13843H1.79742C0.804703 4.13843 0 4.94313 0 5.93585V18.0652C0 19.0578 0.804703 19.8626 1.79742 19.8626H22.2026C23.1952 19.8626 24 19.0579 24 18.0652V5.93585C24 4.94313 23.1953 4.13843 22.2026 4.13843Z" fill="#FF4B55"/>
<path d="M10.2713 10.867C10.3597 10.7323 10.4645 10.6106 10.581 10.5003C10.5807 10.5005 10.5805 10.5007 10.5802 10.5009L4.5517 4.13751H1.79742C1.35745 4.13751 0.95461 4.29586 0.642235 4.55831L10.2713 10.867Z" fill="#FFE15A"/>
<path d="M9.95241 12.2115C9.94509 12.1409 9.93103 12.0722 9.93103 11.9996C9.93103 11.927 9.94509 11.8583 9.95241 11.7876V11.7877L0 10.7582V13.241L9.95241 12.2114V12.2115Z" fill="#FFE15A"/>
<path d="M12 9.93061C12.1102 9.93061 12.2161 9.94645 12.3216 9.963L13.2414 4.13751H10.7586L11.6784 9.963C11.7839 9.94645 11.8898 9.93061 12 9.93061Z" fill="#FFE15A"/>
<path d="M13.419 10.5003C13.5355 10.6106 13.6403 10.7322 13.7287 10.8669L23.3578 4.55825C23.0454 4.29579 22.6426 4.13745 22.2026 4.13745H19.4483L13.4198 10.5009C13.4195 10.5007 13.4192 10.5005 13.419 10.5003Z" fill="#FFE15A"/>
<path d="M13.7287 13.1321C13.6403 13.2668 13.5355 13.3885 13.419 13.4988C13.4192 13.4986 13.4195 13.4984 13.4198 13.4982L19.4483 19.8616H22.2026C22.6426 19.8616 23.0454 19.7033 23.3578 19.4408L13.7287 13.1321Z" fill="#FFE15A"/>
<path d="M14.0476 11.7876C14.0549 11.8582 14.069 11.927 14.069 11.9996C14.069 12.0722 14.0549 12.1409 14.0476 12.2115V12.2114L24 13.241V10.7582L14.0476 11.7877V11.7876Z" fill="#FFE15A"/>
<path d="M12 14.0685C11.8898 14.0685 11.7839 14.0527 11.6784 14.0361L10.7586 19.8616H13.2414L12.3216 14.0361C12.2161 14.0527 12.1102 14.0685 12 14.0685Z" fill="#FFE15A"/>
<path d="M10.581 13.4989C10.4645 13.3885 10.3597 13.2669 10.2713 13.1322L0.642181 19.4409C0.954603 19.7033 1.3574 19.8617 1.79737 19.8617H4.5517L10.5802 13.4982C10.5805 13.4984 10.5808 13.4986 10.581 13.4989Z" fill="#FFE15A"/>
<path d="M12 13.6547C12.9141 13.6547 13.6552 12.9137 13.6552 11.9996C13.6552 11.0855 12.9141 10.3444 12 10.3444C11.0859 10.3444 10.3448 11.0855 10.3448 11.9996C10.3448 12.9137 11.0859 13.6547 12 13.6547Z" fill="#FFE15A"/>
</svg>
