<svg xmlns="http://www.w3.org/2000/svg" width="24" height="24" viewBox="0 0 24 24" fill="none"><rect width="24" height="24" fill="none"/>
<path d="M22.2026 19.8621H1.79742C0.804703 19.8621 0 19.0574 0 18.0646V5.93536C0 4.94269 0.804703 4.13794 1.79742 4.13794H22.2026C23.1952 4.13794 24 4.94264 24 5.93536V18.0647C24 19.0574 23.1953 19.8621 22.2026 19.8621Z" fill="#5AA587"/>
<path d="M12.9902 14.1378C13.4541 14.2487 13.9493 14.2573 14.4445 14.1344C15.317 13.9178 16.0071 13.3489 16.4081 12.6186C15.712 12.1606 14.836 11.9807 13.9635 12.1973C13.4945 12.3138 13.083 12.5371 12.7362 12.8277C12.7395 12.8234 12.7422 12.8191 12.7455 12.8148C14.0302 11.6562 15.4644 12.0303 15.4644 12.0303L15.8038 11.7403C15.8038 11.7403 14.3571 11.2405 13.0613 12.3124C13.8633 10.7597 12.9979 9.42781 12.9979 9.42781L12.7983 9.82695C12.7983 9.82695 13.518 11.1467 12.676 12.6865C12.675 12.6876 12.674 12.6888 12.673 12.6899C12.8782 12.2778 12.9979 11.8158 12.9979 11.3239C12.9979 10.4249 12.6121 9.61808 11.9999 9.05286C11.3877 9.61808 11.0019 10.4249 11.0019 11.3239C11.0019 11.8159 11.1216 12.2778 11.3268 12.6899C11.3258 12.6888 11.3248 12.6875 11.3238 12.6865C10.4819 11.1467 11.2015 9.82695 11.2015 9.82695L11.0019 9.42781C11.0019 9.42781 10.1366 10.7597 10.9385 12.3124C9.6427 11.2406 8.19605 11.7403 8.19605 11.7403L8.53538 12.0303C8.53538 12.0303 9.96956 11.6562 11.2543 12.8148C11.2576 12.8191 11.2603 12.8234 11.2636 12.8277C10.9168 12.5371 10.5053 12.3138 10.0363 12.1973C9.16383 11.9807 8.28783 12.1606 7.59174 12.6186C7.99275 13.3489 8.68285 13.9177 9.55533 14.1344C10.0505 14.2573 10.5458 14.2487 11.0097 14.1378C9.28116 14.621 8.15063 13.5799 8.15063 13.5799L7.71511 13.6775C7.71511 13.6775 9.4621 15.5508 11.9999 13.7131C14.5377 15.5507 16.2847 13.6775 16.2847 13.6775L15.8492 13.5799C15.8493 13.5799 14.7187 14.6211 12.9902 14.1378Z" fill="#F5F5F5"/>
<path d="M9.47779 16.2941C9.65816 16.4061 9.84674 16.5058 10.042 16.5935H13.9579C14.1532 16.5058 14.3417 16.4061 14.5221 16.2941H9.47779Z" fill="#F5F5F5"/>
<path d="M10.3928 16.7349C10.8953 16.9139 11.436 17.012 11.9999 17.012C12.5638 17.012 13.1046 16.9138 13.6071 16.7349H10.3928Z" fill="#F5F5F5"/>
<path d="M8.41597 15.3987C8.47644 15.4668 8.53827 15.5337 8.60244 15.5983H15.3974C15.4616 15.5337 15.5234 15.4668 15.5839 15.3987H8.41597Z" fill="#F5F5F5"/>
<path d="M8.85397 15.8325C8.95395 15.9197 9.05713 16.0032 9.16419 16.082H14.8357C14.9427 16.0032 15.046 15.9197 15.1459 15.8325H8.85397Z" fill="#F5F5F5"/>
<path d="M13.9958 14.8665C12.878 14.8665 12.1132 14.1194 12.1055 14.1118L11.9996 14.0065L11.894 14.112C11.8865 14.1196 11.1266 14.8665 10.004 14.8665H8.00633C8.07448 14.9693 8.14695 15.0689 8.2227 15.1659H10.0041C11.0083 15.1659 11.7373 14.6406 12 14.4192C12.2626 14.6407 12.9917 15.1659 13.9959 15.1659H15.7773C15.853 15.0689 15.9254 14.9693 15.9936 14.8665H13.9958Z" fill="#F5F5F5"/>
<path d="M11.9476 7.02565L11.7725 7.55079L11.2189 7.55511C11.1659 7.55553 11.1438 7.62326 11.1865 7.65476L11.6319 7.98364L11.4649 8.51145C11.4489 8.56207 11.5065 8.60393 11.5498 8.57304L12.0001 8.25111L12.4505 8.573C12.4937 8.60389 12.5513 8.56198 12.5354 8.5114L12.3684 7.98359L12.8137 7.65472C12.8564 7.62317 12.8344 7.55543 12.7814 7.55506L12.2278 7.55075L12.0527 7.02561C12.0356 6.97526 11.9644 6.97526 11.9476 7.02565Z" fill="#FFE15A"/>
<path d="M9.32784 8.10056L9.42923 8.46872L9.11371 8.68383C9.08343 8.70445 9.09684 8.75175 9.13349 8.75339L9.51501 8.77078L9.62207 9.13734C9.63238 9.1725 9.68146 9.17433 9.69435 9.14006L9.82874 8.78259L10.2104 8.79403C10.2471 8.79511 10.264 8.74898 10.2354 8.72615L9.93693 8.48784L10.0658 8.12836C10.0782 8.09386 10.0395 8.06353 10.0089 8.08369L9.69009 8.29387L9.38802 8.06025C9.35891 8.03784 9.31809 8.06522 9.32784 8.10056Z" fill="#FFE15A"/>
<path d="M7.80046 9.955L8.0766 10.2188L7.91643 10.5654C7.90105 10.5987 7.93687 10.6324 7.96907 10.615L8.30526 10.4339L8.58543 10.6934C8.61229 10.7183 8.65537 10.6946 8.64885 10.6586L8.58051 10.2829L8.91388 10.0966C8.94585 10.0787 8.93671 10.0305 8.90038 10.0256L8.52191 9.9745L8.44776 9.59987C8.44068 9.56392 8.39188 9.55778 8.37604 9.59078L8.21048 9.93489L7.8313 9.88961C7.79493 9.88525 7.77398 9.92968 7.80046 9.955Z" fill="#FFE15A"/>
<path d="M14.759 8.10056L14.6576 8.46872L14.9731 8.68383C15.0034 8.70445 14.99 8.75175 14.9533 8.75339L14.5718 8.77078L14.4648 9.13734C14.4545 9.1725 14.4054 9.17433 14.3925 9.14006L14.2581 8.78259L13.8764 8.79403C13.8398 8.79511 13.8229 8.74898 13.8515 8.72615L14.1499 8.48784L14.021 8.12836C14.0087 8.09386 14.0473 8.06353 14.0779 8.08369L14.3968 8.29387L14.6988 8.06025C14.7279 8.03784 14.7687 8.06522 14.759 8.10056Z" fill="#FFE15A"/>
<path d="M16.2864 9.955L16.0102 10.2188L16.1704 10.5654C16.1858 10.5987 16.15 10.6324 16.1178 10.615L15.7816 10.4339L15.5014 10.6934C15.4745 10.7183 15.4315 10.6946 15.438 10.6586L15.5063 10.2829L15.173 10.0966C15.141 10.0787 15.1501 10.0305 15.1865 10.0256L15.5649 9.9745L15.6391 9.59987C15.6462 9.56392 15.695 9.55778 15.7108 9.59078L15.8764 9.93489L16.2555 9.88961C16.2919 9.88525 16.3129 9.92968 16.2864 9.955Z" fill="#FFE15A"/>
</svg>
