<svg xmlns="http://www.w3.org/2000/svg" width="24" height="24" viewBox="0 0 24 24" fill="none"><rect width="24" height="24" fill="none"/>
<path d="M1.79742 4.13782C0.804703 4.13782 0 4.94252 0 5.93524V18.0646C0 19.0572 0.804703 19.862 1.79742 19.862H8.00002V4.13782H1.79742Z" fill="#73AF00"/>
<path d="M16.0003 4.138H8.00015V19.8622H16.0003V4.138Z" fill="#F5F5F5"/>
<path d="M22.2026 4.13782H16V19.8619H22.2026C23.1953 19.8619 24 19.0572 24 18.0645V5.93524C24 4.94252 23.1953 4.13782 22.2026 4.13782Z" fill="#73AF00"/>
<path d="M14.7637 16.0592L13.4795 8.56802C13.4305 8.28198 13.3287 8.00753 13.1794 7.75867L12 5.79297L10.8206 7.75867C10.6712 8.00753 10.5695 8.28198 10.5205 8.56802L9.23631 16.0592C9.21179 16.2023 9.32195 16.333 9.46717 16.333H11.5316V18.2068H12.4685V16.333H14.5329C14.6781 16.333 14.7882 16.2023 14.7637 16.0592Z" fill="#73AF00"/>
</svg>
