<svg xmlns="http://www.w3.org/2000/svg" width="24" height="24" viewBox="0 0 24 24" fill="none"><rect width="24" height="24" fill="none"/>
<path d="M1.70456 19.8609H7.99997V4.1392H1.79742C0.804703 4.1392 0 4.94391 0 5.93662V18.066C0 19.0275 0.755062 19.8127 1.70456 19.8609Z" fill="#F5F5F5"/>
<path d="M16.0003 4.13906H8.00015V19.8605H16.0003V4.13906Z" fill="#4173CD"/>
<path d="M22.2954 19.8609C23.2449 19.8127 24 19.0275 24 18.0659V5.93662C24 4.94395 23.1953 4.1392 22.2026 4.1392H16V19.8609H22.2954Z" fill="#FFE15A"/>
<path d="M10.7511 12.4579C10.7463 12.5814 10.561 12.6337 10.561 12.6337C10.542 12.4246 10.7559 12.0397 10.7986 12.0065C10.8414 11.9732 11.0124 11.8164 10.8414 11.8497C10.6703 11.8829 10.5039 12.2678 10.4659 12.3343C10.4279 12.4008 10.3376 12.3961 10.3376 12.3961C10.3376 12.3961 10.3376 12.0872 10.3376 12.0207C10.3376 11.9542 10.6322 11.8116 10.6322 11.8116C10.6322 11.8116 10.6798 11.5266 10.637 11.4981C10.5942 11.4696 10.504 11.5504 10.3756 11.5598C10.2474 11.5693 10.0906 11.5741 9.95752 11.6976C9.82449 11.8212 9.81971 11.9067 9.81971 12.1158C9.81971 12.3248 9.81971 12.1158 9.81971 12.6194C9.81971 13.1231 9.34927 13.4748 9.17349 13.6506C9.12563 13.6984 9.1073 13.757 9.10571 13.8184C9.07037 13.8515 8.99241 13.8997 8.9273 13.8857C8.82723 13.8642 8.81232 13.6882 8.81232 13.5853C8.81232 13.5538 8.78682 13.5283 8.75532 13.5283C8.72382 13.5283 8.69832 13.5538 8.69832 13.5853C8.69832 13.9336 8.84663 13.9956 8.93494 14.0017C8.93982 14.002 8.94465 14.0022 8.94962 14.0022C9.00816 14.0022 9.07112 13.9791 9.12333 13.9468C9.15732 14.0698 9.2289 14.1841 9.24943 14.2303C9.28744 14.3158 9.07838 14.4537 9.07838 14.4537L9.24943 14.9811H9.4823C9.4823 14.8505 9.32316 14.8766 9.29935 14.8433C9.27563 14.81 9.24713 14.5083 9.24713 14.5083L9.57751 14.2319C9.60301 14.2105 9.61772 14.179 9.61772 14.1457V13.9986C9.61772 13.9986 9.86007 14.0378 9.92068 14.0913C9.98124 14.1447 9.9278 14.3051 9.9278 14.3264C9.9278 14.3478 10.2343 14.6187 10.2343 14.6187H10.4446C10.4446 14.5225 10.3448 14.526 10.2949 14.5082C10.245 14.4903 10.0953 14.3051 10.0953 14.3051C10.0953 14.3051 10.1761 14.0544 10.1761 13.9926C10.1761 13.9309 9.82927 13.6791 9.82927 13.6791C9.82927 13.6791 9.8768 13.5982 10.2284 13.3797C10.58 13.1611 10.5515 12.914 10.5515 12.914L10.8556 12.5719V12.3248C10.8556 12.3248 10.7559 12.3344 10.7511 12.4579Z" fill="#C17400"/>
<path d="M13.2576 12.4578C13.2624 12.5813 13.4477 12.6336 13.4477 12.6336C13.4667 12.4245 13.2528 12.0396 13.2101 12.0064C13.1673 11.9731 12.9963 11.8163 13.1673 11.8496C13.3384 11.8828 13.5048 12.2677 13.5428 12.3342C13.5808 12.4007 13.6711 12.396 13.6711 12.396C13.6711 12.396 13.6711 12.0871 13.6711 12.0206C13.6711 11.9541 13.3765 11.8116 13.3765 11.8116C13.3765 11.8116 13.3289 11.5265 13.3717 11.498C13.4145 11.4695 13.5047 11.5503 13.633 11.5597C13.7613 11.5693 13.9181 11.574 14.0512 11.6976C14.1842 11.8211 14.189 11.9066 14.189 12.1157C14.189 12.3247 14.189 12.1157 14.189 12.6193C14.189 13.123 14.6594 13.4747 14.8352 13.6505C14.8831 13.6983 14.9014 13.7569 14.903 13.8183C14.9383 13.8514 15.0163 13.8996 15.0814 13.8856C15.1815 13.8641 15.1964 13.6881 15.1964 13.5852C15.1964 13.5537 15.2219 13.5282 15.2534 13.5282C15.2849 13.5282 15.3104 13.5537 15.3104 13.5852C15.3104 13.9335 15.1621 13.9956 15.0738 14.0016C15.0689 14.0019 15.064 14.0021 15.0591 14.0021C15.0005 14.0021 14.9376 13.979 14.8853 13.9467C14.8513 14.0697 14.7798 14.184 14.7592 14.2302C14.7212 14.3158 14.9303 14.4536 14.9303 14.4536L14.7592 14.981H14.5263C14.5263 14.8504 14.6855 14.8765 14.7093 14.8432C14.7331 14.8099 14.7615 14.5082 14.7615 14.5082L14.4311 14.2318C14.4056 14.2104 14.3909 14.1789 14.3909 14.1456V13.9986C14.3909 13.9986 14.1486 14.0377 14.088 14.0912C14.0274 14.1446 14.0808 14.305 14.0808 14.3263C14.0808 14.3477 13.7744 14.6186 13.7744 14.6186H13.5641C13.5641 14.5224 13.6639 14.5259 13.7138 14.5081C13.7637 14.4902 13.9133 14.305 13.9133 14.305C13.9133 14.305 13.8325 14.0543 13.8325 13.9926C13.8325 13.9308 14.1794 13.679 14.1794 13.679C14.1794 13.679 14.1318 13.5981 13.7802 13.3796C13.4286 13.161 13.4571 12.9139 13.4571 12.9139L13.153 12.5718V12.3247C13.1531 12.3247 13.2529 12.3343 13.2576 12.4578Z" fill="#C17400"/>
<path d="M11.547 12.1324L11.2049 12.4746H11.8891L11.547 12.1324Z" fill="#C8C8C8"/>
<path d="M12.4594 12.1323L12.1172 12.4745H12.8015L12.4594 12.1323Z" fill="#C8C8C8"/>
<path d="M11.547 12.7026L11.2049 13.0447H11.8891L11.547 12.7026Z" fill="#C8C8C8"/>
<path d="M12.4594 12.7026L12.1172 13.0447H12.8015L12.4594 12.7026Z" fill="#C8C8C8"/>
<path d="M11.547 13.2728L11.2049 13.6149H11.8891L11.547 13.2728Z" fill="#C8C8C8"/>
<path d="M12.4594 13.2728L12.1172 13.6149H12.8015L12.4594 13.2728Z" fill="#C8C8C8"/>
<path d="M12.0032 13.843L11.661 14.1851H12.3453L12.0032 13.843Z" fill="#C8C8C8"/>
<path d="M12.0602 10.3078H11.9461V10.9921H12.0602V10.3078Z" fill="#FFE15A"/>
<path d="M11.3776 11.0058C11.3757 10.9985 11.3337 10.8234 11.4517 10.6958C11.5555 10.5833 11.7445 10.549 12.0125 10.5937L11.9938 10.7062C11.7689 10.6686 11.6105 10.6918 11.5354 10.7731C11.4601 10.8547 11.488 10.977 11.4883 10.9783L11.3776 11.0058Z" fill="#FFE15A"/>
<path d="M11.0653 11.3852C10.9228 11.3139 10.8528 11.107 10.9124 10.9333C10.9374 10.8604 11.0497 10.629 11.4442 10.7081L11.4218 10.8199C11.2134 10.7779 11.0673 10.8331 11.0203 10.9703C10.9796 11.0887 11.0254 11.2378 11.1163 11.2832L11.0653 11.3852Z" fill="#FFE15A"/>
<path d="M12.6287 11.0058L12.5181 10.9782L12.5734 10.992L12.518 10.9784C12.5183 10.9772 12.5466 10.8543 12.4703 10.7724C12.3949 10.6916 12.2366 10.6686 12.0126 10.7061L11.9939 10.5936C12.2623 10.5488 12.4509 10.5833 12.5547 10.6957C12.6726 10.8234 12.6305 10.9985 12.6287 11.0058Z" fill="#FFE15A"/>
<path d="M12.941 11.3852L12.89 11.2832C12.9809 11.2378 13.0267 11.0886 12.986 10.9702C12.939 10.8331 12.7927 10.7781 12.5845 10.8199L12.5621 10.708C12.9569 10.629 13.0689 10.8605 13.0939 10.9332C13.1536 11.1069 13.0835 11.3139 12.941 11.3852Z" fill="#FFE15A"/>
<path d="M12.4593 10.992C12.4593 10.992 12.2312 10.8779 12.0032 10.8779C11.7751 10.8779 11.547 10.992 11.547 10.992C11.3189 10.8779 10.9769 10.992 10.9769 11.22C10.9769 11.4481 11.3189 11.7902 11.3189 11.7902H12.0032H12.6875C12.6875 11.7902 13.0296 11.4481 13.0296 11.22C13.0296 10.992 12.6874 10.8779 12.4593 10.992Z" fill="#FF4B55"/>
<path d="M12.1175 10.3645H11.8894V10.4786H12.1175V10.3645Z" fill="#FFE15A"/>
<path d="M13.1438 9.73793H10.8628V10.1941H13.1438V9.73793Z" fill="#C8C8C8"/>
<path d="M11.1447 10.3554L11.0366 10.0309L10.3524 10.2589L10.4605 10.5834L11.1447 10.3554Z" fill="#C8C8C8"/>
<path d="M13.6546 10.2593L12.9704 10.0312L12.8622 10.3557L13.5465 10.5838L13.6546 10.2593Z" fill="#C8C8C8"/>
<path d="M12.0031 14.5843C11.3429 14.5843 10.8057 14.2518 10.8057 13.843V11.9043C10.8057 11.81 10.8825 11.7333 10.9767 11.7333H13.0295C13.1239 11.7333 13.2006 11.8101 13.2006 11.9043V13.843C13.2006 14.2518 12.6634 14.5843 12.0031 14.5843ZM10.9767 11.8473C10.9453 11.8473 10.9197 11.8729 10.9197 11.9043V13.843C10.9197 14.1888 11.4057 14.4702 12.0031 14.4702C12.6006 14.4702 13.0866 14.1887 13.0866 13.843V11.9043C13.0866 11.8729 13.061 11.8473 13.0296 11.8473H10.9767Z" fill="#464655"/>
</svg>
