<svg xmlns="http://www.w3.org/2000/svg" width="24" height="24" viewBox="0 0 24 24" fill="none"><rect width="24" height="24" fill="none"/>
<path d="M23.9813 5.88758C23.9532 4.91802 23.1616 4.1405 22.1874 4.1405H1.79391C0.805621 4.14519 0 4.94612 0 5.9391V18.0609C0 18.0796 0 18.0937 0 18.1124C0.00468384 18.356 0.0608899 18.5855 0.154567 18.7916C0.163934 18.8197 0.177986 18.8431 0.192037 18.8665C0.206089 18.8899 0.215457 18.9133 0.229508 18.9414C0.229508 18.9414 0.229508 18.9414 0.229508 18.9461C0.24356 18.9695 0.257611 18.993 0.271663 19.0164C0.271663 19.0164 0.271663 19.0211 0.276347 19.0211C0.290398 19.0445 0.30445 19.0632 0.318501 19.0866L0.323185 19.0913C0.337237 19.1147 0.351288 19.1335 0.370023 19.1522C0.370023 19.1569 0.374707 19.1569 0.374707 19.1616C0.388759 19.1803 0.407494 19.1991 0.421546 19.2178C0.426229 19.2225 0.426229 19.2225 0.430913 19.2272C0.444965 19.2459 0.4637 19.2646 0.477752 19.2834C0.482436 19.288 0.482436 19.288 0.487119 19.2927C0.501171 19.3115 0.519906 19.3255 0.538642 19.3442C0.543326 19.3489 0.548009 19.3536 0.548009 19.3536C0.566745 19.3677 0.580796 19.3864 0.599532 19.4005C0.604215 19.4051 0.608899 19.4098 0.613583 19.4145C0.632319 19.4286 0.64637 19.4426 0.665105 19.4567C0.669789 19.4613 0.674473 19.466 0.683841 19.4707C0.702576 19.4848 0.716628 19.4988 0.735363 19.5082C0.740047 19.5129 0.749415 19.5176 0.754098 19.5222C0.772834 19.5363 0.786885 19.5457 0.805621 19.555C0.814988 19.5597 0.819672 19.5644 0.82904 19.5691C0.847775 19.5784 0.861827 19.5925 0.880562 19.6019C0.88993 19.6065 0.899297 19.6112 0.903981 19.6159C0.918033 19.6253 0.936768 19.6346 0.95082 19.644C0.960187 19.6487 0.969555 19.6534 0.978923 19.6581C0.992974 19.6674 1.01171 19.6768 1.02576 19.6815C1.03513 19.6862 1.0445 19.6909 1.05855 19.6955C1.0726 19.7049 1.09133 19.7096 1.10539 19.719C1.11475 19.7236 1.12881 19.7283 1.13817 19.733C1.15222 19.7377 1.17096 19.7471 1.18501 19.7517C1.19906 19.7564 1.20843 19.7611 1.22248 19.7658C1.23653 19.7705 1.25059 19.7752 1.26932 19.7798C1.28337 19.7845 1.29742 19.7892 1.31148 19.7892C1.32553 19.7939 1.33958 19.7986 1.35363 19.8033C1.36768 19.8079 1.38173 19.808 1.39578 19.8126C1.40984 19.8173 1.42389 19.8173 1.43794 19.822C1.45199 19.8267 1.47073 19.8267 1.48478 19.8314C1.49883 19.8361 1.51288 19.8361 1.52693 19.8407C1.54567 19.8454 1.55972 19.8454 1.57845 19.8454C1.59251 19.8454 1.60187 19.8501 1.61593 19.8501C1.63466 19.8501 1.6534 19.8548 1.67681 19.8548C1.68618 19.8548 1.69555 19.8548 1.7096 19.8595C1.7377 19.8595 1.77049 19.8595 1.80328 19.8595H22.192C22.2248 19.8595 22.2529 19.8595 22.2857 19.8595C22.2951 19.8595 22.3044 19.8595 22.3185 19.8548C22.3372 19.8548 22.356 19.8501 22.3794 19.8501C22.3934 19.8501 22.4028 19.8454 22.4169 19.8454C22.4356 19.8454 22.4496 19.8407 22.4684 19.8407C22.4824 19.8407 22.4965 19.8361 22.5105 19.8314C22.5246 19.8267 22.5433 19.8267 22.5574 19.822C22.5714 19.8173 22.5855 19.8173 22.5995 19.8126C22.6136 19.808 22.6276 19.8079 22.6417 19.8033C22.6557 19.7986 22.6698 19.7939 22.6838 19.7892C22.6979 19.7845 22.7119 19.7798 22.726 19.7798C22.74 19.7752 22.7541 19.7705 22.7728 19.7658C22.7869 19.7611 22.7963 19.7564 22.8103 19.7517C22.8244 19.7471 22.8431 19.7377 22.8571 19.733C22.8665 19.7283 22.8806 19.7236 22.8899 19.719C22.904 19.7143 22.9227 19.7049 22.9368 19.6955C22.9461 19.6909 22.9555 19.6862 22.9696 19.6815C22.9836 19.6721 23.0023 19.6674 23.0164 19.6581C23.0258 19.6534 23.0351 19.6487 23.0445 19.644C23.0632 19.6346 23.0773 19.6253 23.0913 19.6159C23.1007 19.6112 23.1101 19.6065 23.1148 19.6019C23.1335 19.5925 23.1475 19.5831 23.1663 19.5691C23.1756 19.5644 23.1803 19.5597 23.1897 19.555C23.2084 19.5457 23.2225 19.5316 23.2412 19.5222C23.2459 19.5176 23.2553 19.5129 23.26 19.5082C23.2787 19.4941 23.2927 19.4848 23.3115 19.4707C23.3162 19.466 23.3208 19.4613 23.3302 19.4567C23.3489 19.4426 23.363 19.4286 23.3817 19.4145C23.3864 19.4098 23.3911 19.4051 23.3958 19.4005C23.4145 19.3864 23.4286 19.3677 23.4473 19.3536C23.452 19.3489 23.4567 19.3442 23.4614 19.3442C23.4801 19.3255 23.4941 19.3115 23.5129 19.2927C23.5176 19.288 23.5176 19.288 23.5222 19.2834C23.541 19.2646 23.555 19.2459 23.5691 19.2272C23.5738 19.2225 23.5738 19.2225 23.5785 19.2178C23.5925 19.1991 23.6112 19.1803 23.6253 19.1616C23.6253 19.1569 23.63 19.1569 23.63 19.1522C23.644 19.1335 23.6628 19.1101 23.6768 19.0913L23.6815 19.0866C23.6956 19.0632 23.7096 19.0445 23.7237 19.0211C23.7237 19.0211 23.7237 19.0164 23.7283 19.0164C23.7424 18.993 23.7564 18.9695 23.7705 18.9461C23.7705 18.9461 23.7705 18.9461 23.7705 18.9414C23.7845 18.918 23.7986 18.8946 23.808 18.8665C23.822 18.8431 23.8314 18.815 23.8454 18.7916C23.9391 18.5808 23.9953 18.3513 24 18.1124C24 18.0937 24 18.0796 24 18.0609V5.9391C23.9813 5.92505 23.9813 5.90631 23.9813 5.88758Z" fill="#F5F5F5"/>
<path d="M0 14.6183H23.9813V16.3653H0V14.6183ZM0.154567 18.7916C0.163934 18.8197 0.177986 18.8431 0.192037 18.8665C0.206089 18.8899 0.215457 18.9133 0.229508 18.9414C0.229508 18.9414 0.229508 18.9414 0.229508 18.9461C0.24356 18.9695 0.257611 18.993 0.271663 19.0164C0.271663 19.0164 0.271663 19.0211 0.276347 19.0211C0.290398 19.0445 0.30445 19.0632 0.318501 19.0866L0.323185 19.0913C0.337237 19.1147 0.351288 19.1335 0.370023 19.1522C0.370023 19.1569 0.374707 19.1569 0.374707 19.1616C0.388759 19.1803 0.407494 19.1991 0.421546 19.2178C0.426229 19.2225 0.426229 19.2225 0.430913 19.2272C0.444965 19.2459 0.4637 19.2646 0.477752 19.2834C0.482436 19.288 0.482436 19.288 0.487119 19.2927C0.501171 19.3115 0.519906 19.3255 0.538642 19.3442C0.543326 19.3489 0.548009 19.3536 0.548009 19.3536C0.566745 19.3677 0.580796 19.3864 0.599532 19.4005C0.604215 19.4051 0.608899 19.4098 0.613583 19.4145C0.632319 19.4286 0.64637 19.4426 0.665105 19.4567C0.669789 19.4613 0.674473 19.466 0.683841 19.4707C0.702576 19.4848 0.716628 19.4988 0.735363 19.5082C0.740047 19.5129 0.749415 19.5176 0.754098 19.5222C0.772834 19.5363 0.786885 19.5457 0.805621 19.555C0.814988 19.5597 0.819672 19.5644 0.82904 19.5691C0.847775 19.5784 0.861827 19.5925 0.880562 19.6019C0.88993 19.6065 0.899297 19.6112 0.903981 19.6159C0.918033 19.6253 0.936768 19.6346 0.95082 19.644C0.960187 19.6487 0.969555 19.6534 0.978923 19.6581C0.992974 19.6674 1.01171 19.6768 1.02576 19.6815C1.03513 19.6862 1.0445 19.6909 1.05855 19.6955C1.0726 19.7049 1.09133 19.7096 1.10539 19.719C1.11475 19.7236 1.12881 19.7283 1.13817 19.733C1.15222 19.7377 1.17096 19.7471 1.18501 19.7517C1.19906 19.7564 1.20843 19.7611 1.22248 19.7658C1.23653 19.7705 1.25059 19.7752 1.26932 19.7798C1.28337 19.7845 1.29742 19.7892 1.31148 19.7892C1.32553 19.7939 1.33958 19.7986 1.35363 19.8033C1.36768 19.8079 1.38173 19.808 1.39578 19.8126C1.40984 19.8173 1.42389 19.8173 1.43794 19.822C1.45199 19.8267 1.47073 19.8267 1.48478 19.8314C1.49883 19.8361 1.51288 19.8361 1.52693 19.8407C1.54567 19.8454 1.55972 19.8454 1.57845 19.8454C1.59251 19.8454 1.60187 19.8501 1.61593 19.8501C1.63466 19.8501 1.6534 19.8548 1.67681 19.8548C1.68618 19.8548 1.69555 19.8548 1.7096 19.8595C1.7377 19.8595 1.77049 19.8595 1.80328 19.8595H22.192C22.2248 19.8595 22.2529 19.8595 22.2857 19.8595C22.2951 19.8595 22.3044 19.8595 22.3185 19.8548C22.3372 19.8548 22.356 19.8501 22.3794 19.8501C22.3934 19.8501 22.4028 19.8454 22.4169 19.8454C22.4356 19.8454 22.4496 19.8407 22.4684 19.8407C22.4824 19.8407 22.4965 19.8361 22.5105 19.8314C22.5246 19.8267 22.5433 19.8267 22.5574 19.822C22.5714 19.8173 22.5855 19.8173 22.5995 19.8126C22.6136 19.808 22.6276 19.8079 22.6417 19.8033C22.6557 19.7986 22.6698 19.7939 22.6838 19.7892C22.6979 19.7845 22.7119 19.7798 22.726 19.7798C22.74 19.7752 22.7541 19.7705 22.7728 19.7658C22.7869 19.7611 22.7963 19.7564 22.8103 19.7517C22.8244 19.7471 22.8431 19.7377 22.8571 19.733C22.8665 19.7283 22.8806 19.7236 22.8899 19.719C22.904 19.7143 22.9227 19.7049 22.9368 19.6955C22.9461 19.6909 22.9555 19.6862 22.9696 19.6815C22.9836 19.6721 23.0023 19.6674 23.0164 19.6581C23.0258 19.6534 23.0351 19.6487 23.0445 19.644C23.0632 19.6346 23.0773 19.6253 23.0913 19.6159C23.1007 19.6112 23.1101 19.6065 23.1148 19.6019C23.1335 19.5925 23.1475 19.5831 23.1663 19.5691C23.1756 19.5644 23.1803 19.5597 23.1897 19.555C23.2084 19.5457 23.2225 19.5316 23.2412 19.5222C23.2459 19.5176 23.2553 19.5129 23.26 19.5082C23.2787 19.4941 23.2927 19.4848 23.3115 19.4707C23.3162 19.466 23.3208 19.4613 23.3302 19.4567C23.3489 19.4426 23.363 19.4286 23.3817 19.4145C23.3864 19.4098 23.3911 19.4051 23.3958 19.4005C23.4145 19.3864 23.4286 19.3677 23.4473 19.3536C23.452 19.3489 23.4567 19.3442 23.4614 19.3442C23.4801 19.3255 23.4941 19.3115 23.5129 19.2927C23.5176 19.288 23.5176 19.288 23.5222 19.2834C23.541 19.2646 23.555 19.2459 23.5691 19.2272C23.5738 19.2225 23.5738 19.2225 23.5785 19.2178C23.5925 19.1991 23.6112 19.1803 23.6253 19.1616C23.6253 19.1569 23.63 19.1569 23.63 19.1522C23.644 19.1335 23.6628 19.1101 23.6768 19.0913L23.6815 19.0866C23.6956 19.0632 23.7096 19.0445 23.7237 19.0211C23.7237 19.0211 23.7237 19.0164 23.7283 19.0164C23.7424 18.993 23.7564 18.9695 23.7705 18.9461C23.7705 18.9461 23.7705 18.9461 23.7705 18.9414C23.7845 18.918 23.7986 18.8946 23.808 18.8665C23.822 18.8431 23.8314 18.815 23.8454 18.7916C23.9391 18.5808 23.9953 18.3513 24 18.1124H0C0.00936768 18.3513 0.0608899 18.5808 0.154567 18.7916ZM8.27166 7.63465V9.38172H5.01171V12.8712H23.9813V11.1241H8.27166V9.37704H23.9813V7.62996H8.27166V7.63465ZM3.25995 9.38172H0V11.1288V12.8759H3.25995V9.38172ZM23.9813 5.88758C23.9532 4.91802 23.1616 4.1405 22.1874 4.1405H5.00703V7.62996H8.26698V5.88289H23.9813V5.88758ZM3.25995 4.14519H1.79391C0.805621 4.14519 0 4.94612 0 5.9391V7.63465H3.25995V4.14519Z" fill="#41479B"/>
</svg>
