<svg xmlns="http://www.w3.org/2000/svg" width="24" height="24" viewBox="0 0 24 24" fill="none"><rect width="24" height="24" fill="none"/>
<path d="M1.79742 19.8621H22.2025C23.1952 19.8621 24 19.0574 24 18.0646V5.93536C24 4.94274 23.1952 4.13794 22.2025 4.13794H1.79742C0.804703 4.13794 0 4.94274 0 5.93536V18.0646C0 19.0573 0.804703 19.8621 1.79742 19.8621Z" fill="#F5F5F5"/>
<path d="M24 16.5517C22.7986 16.5517 22.7986 16.1379 21.5974 16.1379C20.396 16.1379 20.396 16.5517 19.1947 16.5517C17.9942 16.5517 17.9942 16.1379 16.7938 16.1379C15.5943 16.1379 15.5943 16.5517 14.3948 16.5517C13.1947 16.5517 13.1947 16.1379 11.9947 16.1379C10.7948 16.1379 10.7948 16.5517 9.59507 16.5517C8.39531 16.5517 8.39526 16.1379 7.19554 16.1379C5.99582 16.1379 5.99573 16.5517 4.79597 16.5517C3.59667 16.5517 3.59667 16.1379 2.39747 16.1379C1.19882 16.1379 1.19882 16.5517 0.000137329 16.5517V15.3103C1.19878 15.3103 1.19878 14.8965 2.39747 14.8965C3.59672 14.8965 3.59672 15.3103 4.79597 15.3103C5.99578 15.3103 5.99578 14.8965 7.19554 14.8965C8.39531 14.8965 8.39536 15.3103 9.59507 15.3103C10.7949 15.3103 10.7949 14.8965 11.9947 14.8965C13.1947 14.8965 13.1947 15.3103 14.3948 15.3103C15.5943 15.3103 15.5943 14.8965 16.7938 14.8965C17.9943 14.8965 17.9943 15.3103 19.1947 15.3103C20.3961 15.3103 20.3961 14.8965 21.5974 14.8965C22.7987 14.8965 22.7987 15.3103 24 15.3103V16.5517Z" fill="#41479B"/>
<path d="M24 11.5862C22.7986 11.5862 22.7986 11.1724 21.5974 11.1724C20.396 11.1724 20.396 11.5862 19.1947 11.5862C17.9942 11.5862 17.9942 11.1724 16.7938 11.1724C15.5943 11.1724 15.5943 11.5862 14.3948 11.5862C13.1947 11.5862 13.1947 11.1724 11.9947 11.1724C10.7948 11.1724 10.7948 11.5862 9.59507 11.5862C8.39531 11.5862 8.39526 11.1724 7.19554 11.1724C5.99582 11.1724 5.99573 11.5862 4.79597 11.5862C3.59667 11.5862 3.59667 11.1724 2.39747 11.1724C1.19882 11.1724 1.19882 11.5862 0.000137329 11.5862V10.3448C1.19878 10.3448 1.19878 9.93103 2.39747 9.93103C3.59672 9.93103 3.59672 10.3448 4.79597 10.3448C5.99578 10.3448 5.99578 9.93103 7.19554 9.93103C8.39531 9.93103 8.39536 10.3448 9.59507 10.3448C10.7949 10.3448 10.7949 9.93103 11.9947 9.93103C13.1947 9.93103 13.1947 10.3448 14.3948 10.3448C15.5943 10.3448 15.5943 9.93103 16.7938 9.93103C17.9943 9.93103 17.9943 10.3448 19.1947 10.3448C20.3961 10.3448 20.3961 9.93103 21.5974 9.93103C22.7987 9.93103 22.7987 10.3448 24 10.3448V11.5862Z" fill="#41479B"/>
<path d="M24 9.10346C22.7986 9.10346 22.7986 8.68965 21.5974 8.68965C20.396 8.68965 20.396 9.10346 19.1947 9.10346C17.9942 9.10346 17.9942 8.68965 16.7938 8.68965C15.5943 8.68965 15.5943 9.10346 14.3948 9.10346C13.1947 9.10346 13.1947 8.68965 11.9947 8.68965C10.7948 8.68965 10.7948 9.10346 9.59507 9.10346C8.39531 9.10346 8.39526 8.68965 7.19554 8.68965C5.99582 8.68965 5.99573 9.10346 4.79597 9.10346C3.59667 9.10346 3.59667 8.68965 2.39747 8.68965C1.19882 8.68965 1.19882 9.10346 0.000137329 9.10346V7.86207C1.19878 7.86207 1.19878 7.44826 2.39747 7.44826C3.59672 7.44826 3.59672 7.86207 4.79597 7.86207C5.99578 7.86207 5.99578 7.44826 7.19554 7.44826C8.39531 7.44826 8.39536 7.86207 9.59507 7.86207C10.7949 7.86207 10.7949 7.44826 11.9947 7.44826C13.1947 7.44826 13.1947 7.86207 14.3948 7.86207C15.5943 7.86207 15.5943 7.44826 16.7938 7.44826C17.9943 7.44826 17.9943 7.86207 19.1947 7.86207C20.3961 7.86207 20.3961 7.44826 21.5974 7.44826C22.7987 7.44826 22.7987 7.86207 24 7.86207V9.10346Z" fill="#41479B"/>
<path d="M24 6.62071C22.7986 6.62071 22.7986 6.2069 21.5974 6.2069C20.396 6.2069 20.396 6.62071 19.1947 6.62071C17.9942 6.62071 17.9942 6.2069 16.7938 6.2069C15.5943 6.2069 15.5943 6.62071 14.3948 6.62071C13.1947 6.62071 13.1947 6.2069 11.9947 6.2069C10.7948 6.2069 10.7948 6.62071 9.59507 6.62071C8.39531 6.62071 8.39526 6.2069 7.19554 6.2069C5.99582 6.2069 5.99573 6.62071 4.79597 6.62071C3.59667 6.62071 3.59667 6.2069 2.39747 6.2069C1.19882 6.2069 1.19882 6.62071 0.000137329 6.62071V5.37932C1.19878 5.37932 1.19878 4.96551 2.39747 4.96551C3.59672 4.96551 3.59672 5.37932 4.79597 5.37932C5.99578 5.37932 5.99578 4.96551 7.19554 4.96551C8.39531 4.96551 8.39536 5.37932 9.59507 5.37932C10.7949 5.37932 10.7949 4.96551 11.9947 4.96551C13.1947 4.96551 13.1947 5.37932 14.3948 5.37932C15.5943 5.37932 15.5943 4.96551 16.7938 4.96551C17.9943 4.96551 17.9943 5.37932 19.1947 5.37932C20.3961 5.37932 20.3961 4.96551 21.5974 4.96551C22.7987 4.96551 22.7987 5.37932 24 5.37932V6.62071Z" fill="#41479B"/>
<path d="M24 14.069C22.7986 14.069 22.7986 13.6551 21.5974 13.6551C20.396 13.6551 20.396 14.069 19.1947 14.069C17.9942 14.069 17.9942 13.6551 16.7938 13.6551C15.5943 13.6551 15.5943 14.069 14.3948 14.069C13.1947 14.069 13.1947 13.6551 11.9947 13.6551C10.7948 13.6551 10.7948 14.069 9.59507 14.069C8.39531 14.069 8.39526 13.6551 7.19554 13.6551C5.99582 13.6551 5.99573 14.069 4.79597 14.069C3.59667 14.069 3.59667 13.6551 2.39747 13.6551C1.19882 13.6551 1.19882 14.069 0.000137329 14.069V12.8276C1.19878 12.8276 1.19878 12.4138 2.39747 12.4138C3.59672 12.4138 3.59672 12.8276 4.79597 12.8276C5.99578 12.8276 5.99578 12.4138 7.19554 12.4138C8.39531 12.4138 8.39536 12.8276 9.59507 12.8276C10.7949 12.8276 10.7949 12.4138 11.9947 12.4138C13.1947 12.4138 13.1947 12.8276 14.3948 12.8276C15.5943 12.8276 15.5943 12.4138 16.7938 12.4138C17.9943 12.4138 17.9943 12.8276 19.1947 12.8276C20.3961 12.8276 20.3961 12.4138 21.5974 12.4138C22.7987 12.4138 22.7987 12.8276 24 12.8276V14.069Z" fill="#41479B"/>
<path d="M24 19.0345C22.7986 19.0345 22.7986 18.6207 21.5974 18.6207C20.396 18.6207 20.396 19.0345 19.1947 19.0345C17.9942 19.0345 17.9942 18.6207 16.7938 18.6207C15.5943 18.6207 15.5943 19.0345 14.3948 19.0345C13.1947 19.0345 13.1947 18.6207 11.9947 18.6207C10.7948 18.6207 10.7948 19.0345 9.59507 19.0345C8.39531 19.0345 8.39526 18.6207 7.19554 18.6207C5.99582 18.6207 5.99573 19.0345 4.79597 19.0345C3.59667 19.0345 3.59667 18.6207 2.39747 18.6207C1.19882 18.6207 1.19882 19.0345 0.000137329 19.0345V17.7931C1.19878 17.7931 1.19878 17.3793 2.39747 17.3793C3.59672 17.3793 3.59672 17.7931 4.79597 17.7931C5.99578 17.7931 5.99578 17.3793 7.19554 17.3793C8.39531 17.3793 8.39536 17.7931 9.59507 17.7931C10.7949 17.7931 10.7949 17.3793 11.9947 17.3793C13.1947 17.3793 13.1947 17.7931 14.3948 17.7931C15.5943 17.7931 15.5943 17.3793 16.7938 17.3793C17.9943 17.3793 17.9943 17.7931 19.1947 17.7931C20.3961 17.7931 20.3961 17.3793 21.5974 17.3793C22.7987 17.3793 22.7987 17.7931 24 17.7931V19.0345Z" fill="#41479B"/>
<path d="M0.413813 12H11.5862C11.8147 12 12 11.8147 12 11.5862V4.55175C12 4.32328 11.8148 4.13808 11.5864 4.13794H1.79742C0.804703 4.13794 0 4.94274 0 5.93536V11.5862C0 11.8148 0.185297 12 0.413813 12Z" fill="#41479B"/>
<path d="M0.413812 12H1.13255L4.96552 9.48877V12H7.03448V9.48877L10.8674 12H11.5861C11.8147 12 12 11.8147 12 11.5862V11.258L8.71148 9.10346H12V7.03449H8.71144L12 4.87997V4.55175C12 4.32328 11.8148 4.13808 11.5864 4.13794H10.8674L7.03444 6.64917V4.13794H4.96547V6.64917L1.25831 4.22035C0.825469 4.35628 0.463594 4.65174 0.240516 5.03756L3.28852 7.03449H0V9.10346H3.28852L0 11.258V11.5862C0 11.8147 0.185297 12 0.413812 12Z" fill="#F5F5F5"/>
<path d="M12 7.4483H6.62067V4.13794H5.37928V7.4483H0V8.68964H5.37928V12H6.62067V8.68964H12V7.4483Z" fill="#FF4B55"/>
<path d="M0.385651 4.82354L3.79168 7.03449H4.55171L0.684713 4.52434C0.573666 4.61199 0.473307 4.71245 0.385651 4.82354Z" fill="#FF4B55"/>
<path d="M7.79452 7.03449L11.937 4.34546C11.865 4.22363 11.738 4.13794 11.5862 4.13794H11.4967L7.03448 7.03449H7.79452Z" fill="#FF4B55"/>
<path d="M4.19409 9.10346L0.0594788 11.7873C0.130776 11.9121 0.259776 12 0.413807 12H0.491854L4.95412 9.10346H4.19409Z" fill="#FF4B55"/>
<path d="M11.9934 11.6188L8.11841 9.10351H7.35843L11.7587 11.9598C11.8906 11.8986 11.981 11.7704 11.9934 11.6188Z" fill="#FF4B55"/>
<path d="M18.2069 18.1588C18.0487 18.1588 17.9204 18.0305 17.9204 17.8723V8.70583H18.4933V17.8724C18.4934 18.0306 18.3651 18.1588 18.2069 18.1588Z" fill="#965032"/>
<path d="M22.2172 9.85158L21.6443 9.56512L19.535 9.3015L20.84 7.62351L21.0426 7.01583L20.435 7.21842L18.757 8.52347L18.4933 6.41419L18.2068 5.84123L17.9204 6.41419L17.6568 8.52347L15.9788 7.21842L15.3711 7.01583L15.5737 7.62351L16.8788 9.3015L14.7694 9.56512L14.1965 9.85158L14.7694 10.138L16.8788 10.4017L15.5737 12.0796L15.3711 12.6874L15.9788 12.4848L17.8018 11.067L18.2068 10.4245L18.6119 11.067L20.435 12.4848L21.0426 12.6874L20.84 12.0796L19.535 10.4017L21.6443 10.138L22.2172 9.85158Z" fill="#73AF00"/>
<path d="M19.454 13.1878C19.1965 12.9308 18.6453 13.0253 18.3501 13.0998V12.8594C18.3501 12.7803 18.286 12.7162 18.2069 12.7162C18.1278 12.7162 18.0637 12.7803 18.0637 12.8594V13.0998C17.7686 13.0251 17.2174 12.9306 16.9598 13.1878C16.7143 13.4332 16.8922 14.0249 17.0611 14.4363V14.8172C17.0611 14.9225 17.1465 15.0078 17.2517 15.0078H19.1622C19.2674 15.0078 19.3528 14.9224 19.3528 14.8172V14.4363C19.5216 14.0249 19.6995 13.4332 19.454 13.1878ZM19.2514 13.3904C19.3608 13.4998 19.2383 13.9794 19.0409 14.4349H18.35V13.3957C18.6717 13.3046 19.1122 13.2508 19.2514 13.3904ZM17.1623 13.3904C17.3015 13.2509 17.742 13.3047 18.0637 13.3957V14.4349H17.3728C17.1755 13.9794 17.053 13.4998 17.1623 13.3904Z" fill="#FFE15A"/>
</svg>
