<svg xmlns="http://www.w3.org/2000/svg" width="24" height="24" viewBox="0 0 24 24" fill="none"><rect width="24" height="24" fill="none"/>
<path d="M22.209 19.8624H1.79566C0.806407 19.8624 0 19.0607 0 18.0668V5.93317C0 4.93923 0.806407 4.13751 1.79566 4.13751H22.2043C23.1983 4.13751 24 4.94392 24 5.93317V18.0668C24.0047 19.0607 23.1983 19.8624 22.209 19.8624Z" fill="#3CC8FF"/>
<path d="M0.00469971 5.83472V11.5827C0.00469971 11.8124 0.192236 11.9953 0.41728 11.9953H11.5898C11.8195 11.9953 12.0023 11.8078 12.0023 11.5827V4.55009C12.0023 4.32036 11.8148 4.13751 11.5898 4.13751H1.79567C0.839237 4.13751 0.0515838 4.88766 0.00469971 5.83472Z" fill="#41479B"/>
<path d="M7.03732 6.64581V4.13751H4.96973V6.6505L1.26119 4.21722C0.82986 4.35318 0.464164 4.64855 0.243809 5.033L3.29596 7.03026H0.00469971V9.09785H3.29596L0.00469971 11.2545V11.5827C0.00469971 11.8124 0.192236 11.9953 0.41728 11.9953H1.13461L4.96973 9.4823V12H7.03732V9.48699L10.8724 12H11.5898C11.8195 12 12.0023 11.8124 12.0023 11.5874V11.2592L8.71108 9.10254H12.0023V7.03495H8.71108L12.0023 4.87828V4.55009C12.0023 4.32036 11.8148 4.13751 11.5898 4.13751H10.8724L7.03732 6.64581Z" fill="#F5F5F5"/>
<path d="M12.007 7.44753H6.62474V4.13751H5.38231V7.44753H0.00469971V8.68996H5.38231V12H6.62474V8.68996H12.007V7.44753Z" fill="#FF4B55"/>
<path d="M0.384521 4.82203L3.793 7.03496H4.55252L0.68458 4.52197C0.576746 4.61105 0.473601 4.70951 0.384521 4.82203Z" fill="#FF4B55"/>
<path d="M7.79691 7.03495L11.9415 4.3438C11.8711 4.2219 11.7445 4.13751 11.5898 4.13751H11.5008L7.03738 7.03495H7.79691Z" fill="#FF4B55"/>
<path d="M4.19618 9.10254L0.0610046 11.789C0.131331 11.9156 0.262606 12 0.417324 12H0.497027L4.96039 9.10254H4.19618V9.10254Z" fill="#FF4B55"/>
<path d="M11.9977 11.6202L8.12039 9.10254H7.36087L11.7633 11.9578C11.8946 11.8968 11.9883 11.7702 11.9977 11.6202Z" fill="#FF4B55"/>
<path d="M13.3337 17.0067L13.5353 17.6115L14.173 17.6162C14.2574 17.6162 14.2902 17.7241 14.2245 17.7709L13.7135 18.1507L13.9057 18.7555C13.9292 18.8352 13.8401 18.9009 13.7745 18.8493L13.2587 18.4789L12.743 18.8493C12.6774 18.8962 12.5883 18.8305 12.6117 18.7555L12.804 18.1507L12.2929 17.7709C12.2273 17.7241 12.2601 17.6162 12.3445 17.6162L12.9821 17.6115L13.1837 17.0067C13.1978 16.927 13.3056 16.927 13.3337 17.0067Z" fill="#FFE15A"/>
<path d="M19.1943 12.4495L19.3959 13.0544L20.0335 13.059C20.1179 13.059 20.1507 13.1669 20.0851 13.2138L19.574 13.5935L19.7663 14.1983C19.7897 14.278 19.7006 14.3437 19.635 14.2921L19.1193 13.9217L18.6035 14.2921C18.5379 14.339 18.4488 14.2733 18.4723 14.1983L18.6645 13.5935L18.1535 13.2138C18.0878 13.1669 18.1206 13.059 18.205 13.059L18.8427 13.0544L19.0443 12.4495C19.0583 12.3698 19.1662 12.3698 19.1943 12.4495Z" fill="#FFE15A"/>
<path d="M21.9558 10.7524L22.1574 11.3572L22.795 11.3619C22.8794 11.3619 22.9122 11.4697 22.8466 11.5166L22.3355 11.8963L22.5277 12.5011C22.5512 12.5808 22.4621 12.6465 22.3965 12.5949L21.8807 12.2245L21.365 12.5949C21.2994 12.6418 21.2103 12.5762 21.2337 12.5011L21.426 11.8963L20.9149 11.5166C20.8493 11.4697 20.8821 11.3619 20.9665 11.3619L21.6041 11.3572L21.8057 10.7524C21.8198 10.6774 21.9323 10.6774 21.9558 10.7524Z" fill="#FFE15A"/>
<path d="M21.2994 4.94344L21.501 5.54825L22.1386 5.55294C22.223 5.55294 22.2558 5.66077 22.1902 5.70766L21.6791 6.08742L21.8713 6.69222C21.8948 6.77193 21.8057 6.83756 21.7401 6.78599L21.2243 6.41561L20.7086 6.78599C20.643 6.83287 20.5539 6.76724 20.5773 6.69222L20.7696 6.08742L20.2585 5.70766C20.1929 5.66077 20.2257 5.55294 20.3101 5.55294L20.9477 5.54825L21.1493 4.94344C21.1634 4.86374 21.2712 4.86374 21.2994 4.94344Z" fill="#FFE15A"/>
<path d="M15.7811 18.5164L15.5795 17.9116L14.9419 17.9069C14.8575 17.9069 14.8247 17.7991 14.8903 17.7522L15.4013 17.3724L15.2091 16.7676C15.1857 16.6879 15.2748 16.6223 15.3404 16.6738L15.8561 17.0442L16.3718 16.6738C16.4375 16.627 16.5266 16.6926 16.5031 16.7676L16.3109 17.3724L16.8219 17.7522C16.8876 17.7991 16.8547 17.9069 16.7704 17.9069L16.1327 17.9116L15.9311 18.5164C15.9218 18.5914 15.8092 18.5914 15.7811 18.5164Z" fill="#FFE15A"/>
<path d="M17.6893 16.8051L17.4877 16.2003L16.85 16.1956C16.7657 16.1956 16.7328 16.0878 16.7985 16.0409L17.3095 15.6612L17.1173 15.0564C17.0938 14.9767 17.1829 14.911 17.2486 14.9626L17.7643 15.333L18.28 14.9626C18.3457 14.9157 18.4347 14.9813 18.4113 15.0564L18.2191 15.6612L18.7301 16.0409C18.7957 16.0878 18.7629 16.1956 18.6785 16.1956L18.0409 16.2003L17.8393 16.8051C17.8252 16.8848 17.7127 16.8848 17.6893 16.8051Z" fill="#FFE15A"/>
<path d="M19.4005 9.35055L19.1989 8.74574L18.5613 8.74105C18.4769 8.74105 18.4441 8.63322 18.5097 8.58634L19.0208 8.20658L18.8286 7.60177C18.8051 7.52207 18.8942 7.45643 18.9598 7.508L19.4756 7.87839L19.9913 7.508C20.0569 7.46112 20.146 7.52676 20.1226 7.60177L19.9303 8.20658L20.4414 8.58634C20.507 8.63322 20.4742 8.74105 20.3898 8.74105L19.7522 8.74574L19.5506 9.35055C19.5365 9.43025 19.4287 9.43025 19.4005 9.35055Z" fill="#FFE15A"/>
<path d="M17.4221 9.98818L17.2205 9.38338L16.5828 9.37869C16.4984 9.37869 16.4656 9.27086 16.5313 9.22397L17.0423 8.84421L16.8501 8.2394C16.8266 8.1597 16.9157 8.09406 16.9814 8.14564L17.4971 8.51602L18.0128 8.14564C18.0784 8.09875 18.1675 8.16439 18.1441 8.2394L17.9519 8.84421L18.4629 9.22397C18.5285 9.27086 18.4957 9.37869 18.4113 9.37869L17.7737 9.38338L17.5721 9.98818C17.5627 10.0632 17.4502 10.0632 17.4221 9.98818Z" fill="#FFE15A"/>
<path d="M16.1562 14.9157L15.9546 14.3109L15.317 14.3062C15.2326 14.3062 15.1998 14.1983 15.2654 14.1515L15.7764 13.7717L15.5842 13.1669C15.5608 13.0872 15.6498 13.0216 15.7155 13.0731L16.2312 13.4435L16.7469 13.0731C16.8126 13.0262 16.9016 13.0919 16.8782 13.1669L16.686 13.7717L17.2064 14.1561C17.272 14.203 17.2392 14.3109 17.1548 14.3109L16.5172 14.3156L16.3156 14.9204C16.2922 14.9954 16.1843 14.9954 16.1562 14.9157Z" fill="#FFE15A"/>
</svg>
