<svg xmlns="http://www.w3.org/2000/svg" width="24" height="24" viewBox="0 0 24 24" fill="none"><rect width="24" height="24" fill="none"/>
<path d="M23.5861 19.862H0.413812C0.185297 19.862 0 19.6768 0 19.4482V4.55172C0 4.3232 0.185297 4.13791 0.413812 4.13791H23.5862C23.8147 4.13791 24 4.3232 24 4.55172V19.4482C24 19.6768 23.8147 19.862 23.5861 19.862Z" fill="#F5F5F5"/>
<path d="M0.413812 10.3448H9.93101C10.1595 10.3448 10.3448 10.1596 10.3448 9.93104V4.55172C10.3448 4.32315 10.1595 4.13791 9.93101 4.13791H1.79742C0.804702 4.13795 0 4.94265 0 5.93537V9.93104C0 10.1596 0.185297 10.3448 0.413812 10.3448Z" fill="#41479B"/>
<path d="M23.5861 13.6551H14.0689C13.8404 13.6551 13.6551 13.8404 13.6551 14.069V19.4483C13.6551 19.6768 13.8404 19.8621 14.0689 19.8621H22.2025C23.1952 19.8621 24 19.0574 24 18.0647V14.069C24 13.8404 23.8147 13.6551 23.5861 13.6551Z" fill="#41479B"/>
<path d="M22.2025 4.13795H14.0689C13.8404 4.13795 13.6551 4.32315 13.6551 4.55176V9.93108C13.6551 10.1596 13.8404 10.3449 14.0689 10.3449H23.5861C23.8147 10.3449 24 10.1596 24 9.93108V5.93542C24 4.94265 23.1953 4.13795 22.2025 4.13795Z" fill="#FF4B55"/>
<path d="M10.3448 19.4483V14.069C10.3448 13.8404 10.1595 13.6551 9.93101 13.6551H0.413812C0.185297 13.6551 0 13.8404 0 14.069V18.0646C0 19.0573 0.804702 19.862 1.79742 19.862H9.93101C10.1595 19.862 10.3448 19.6768 10.3448 19.4483Z" fill="#FF4B55"/>
<path d="M11.7625 13.1799C11.7625 13.1799 12.0097 13.2704 11.9775 13.5808L12.0774 13.5789C12.0774 13.5789 12.0143 13.2203 11.9622 13.1773C11.9101 13.1343 11.7625 13.1799 11.7625 13.1799Z" fill="#64B496"/>
<path d="M12.0102 13.132C11.9053 13.132 11.7221 13.1318 11.5293 13.0798C11.5723 13.0351 11.6317 12.945 11.6317 12.7879C11.6317 12.5419 11.4622 12.6989 11.4622 12.6989C11.4622 12.6989 11.3507 12.7927 11.4181 13.0434C11.3524 13.0183 11.2872 12.986 11.225 12.9445C11.2637 12.896 11.3409 12.7828 11.3857 12.6034C11.3857 12.6034 11.1032 12.5476 11.026 12.7603C10.9786 12.7002 10.9381 12.6327 10.9043 12.5579C10.9769 12.5588 11.0782 12.5109 11.0782 12.2344C11.0782 12.2344 10.8938 12.2348 10.8444 12.3947C10.825 12.3278 10.8102 12.2562 10.7994 12.1804C10.873 12.2018 11.0634 12.2171 11.0634 11.8039C11.0634 11.8039 10.8348 11.8043 10.7819 12.0068C10.779 11.9551 10.7779 11.9015 10.7784 11.8463C10.8894 11.7883 11.0426 11.6604 11.0267 11.3982C11.0267 11.3982 10.9212 11.4221 10.8246 11.5031C10.8437 11.4037 10.8358 11.2582 10.6833 11.1367C10.6833 11.1367 10.5432 11.3847 10.7479 11.586C10.73 11.611 10.7145 11.6395 10.7017 11.6712C10.6557 11.6011 10.582 11.536 10.4632 11.4965C10.4632 11.4965 10.4086 11.8286 10.7187 11.9675C10.726 12.1615 10.7563 12.3329 10.8085 12.4819C10.7196 12.4036 10.6478 12.2959 10.6478 12.2959C10.6478 11.9269 10.3453 11.9176 10.3453 11.9176C10.2888 12.3388 10.6002 12.3558 10.6002 12.3558L10.7708 12.5419C10.4018 12.4804 10.4018 12.7879 10.4018 12.7879C10.6478 12.8494 10.7708 12.7264 10.7708 12.7264L10.9038 12.7948C10.6678 12.8017 10.5863 13.0339 10.5863 13.0339C10.8829 13.0833 11.0997 13.0136 11.1734 12.9843C11.4721 13.1932 11.8403 13.1934 12.0102 13.1934V13.132H12.0102Z" fill="#64B496"/>
<path d="M11.9894 13.132C12.0942 13.132 12.2775 13.1319 12.4702 13.0798C12.4273 13.0351 12.3679 12.945 12.3679 12.7879C12.3679 12.542 12.5374 12.6989 12.5374 12.6989C12.5374 12.6989 12.6488 12.7927 12.5814 13.0434C12.6472 13.0183 12.7124 12.986 12.7745 12.9446C12.7358 12.896 12.6587 12.7828 12.6139 12.6034C12.6139 12.6034 12.8963 12.5476 12.9736 12.7603C13.0209 12.7002 13.0614 12.6327 13.0952 12.5579C13.0226 12.5588 12.9213 12.5109 12.9213 12.2345C12.9213 12.2345 13.1058 12.2348 13.1551 12.3948C13.1745 12.3279 13.1893 12.2562 13.2002 12.1805C13.1265 12.2018 12.9361 12.2172 12.9361 11.804C12.9361 11.804 13.1647 11.8044 13.2177 12.0069C13.2206 11.9551 13.2217 11.9015 13.2212 11.8463C13.1102 11.7883 12.957 11.6605 12.9729 11.3982C12.9729 11.3982 13.0783 11.4221 13.175 11.5032C13.1559 11.4037 13.1638 11.2582 13.3163 11.1367C13.3163 11.1367 13.4564 11.3847 13.2517 11.586C13.2696 11.6111 13.2851 11.6396 13.2978 11.6712C13.3438 11.6012 13.4176 11.5361 13.5363 11.4965C13.5363 11.4965 13.591 11.8286 13.2809 11.9675C13.2735 12.1615 13.2432 12.3329 13.1911 12.4819C13.2799 12.4037 13.3518 12.296 13.3518 12.296C13.3518 11.927 13.6543 11.9176 13.6543 11.9176C13.7107 12.3388 13.3993 12.3558 13.3993 12.3558L13.2288 12.5419C13.5978 12.4804 13.5978 12.7879 13.5978 12.7879C13.3518 12.8494 13.2288 12.7264 13.2288 12.7264L13.0957 12.7948C13.3317 12.8017 13.4133 13.0339 13.4133 13.0339C13.1167 13.0833 12.8999 13.0136 12.8261 12.9844C12.5274 13.1932 12.1593 13.1935 11.9893 13.1935L11.9894 13.132Z" fill="#64B496"/>
<path d="M10.9623 10.451C10.746 10.5896 10.5554 10.7661 10.4018 10.9745C10.4678 11.0231 10.5338 11.0718 10.5998 11.1205C10.7353 10.9366 10.9036 10.7809 11.0944 10.6585L10.9623 10.451Z" fill="#41479B"/>
<path d="M12.0007 12.05H12.8616V12.542C12.8616 12.6778 12.7515 12.788 12.6156 12.788H12.2466C12.1456 12.788 12.0567 12.8374 12.0006 12.9127L12.0007 12.05Z" fill="#FF6B71"/>
<path d="M12.1851 11.4965V10.82H13.1076L12.8616 11.066V11.7425H12.1851V11.4965Z" fill="#5F64B9"/>
<path d="M12.8615 11.7422H12.554V12.0497H12.8615V11.7422Z" fill="#F5F5F5"/>
<path d="M12.0007 12.05H11.1397V12.542C11.1397 12.6778 11.2498 12.788 11.3857 12.788H11.7547C11.8557 12.788 11.9446 12.8374 12.0007 12.9127V12.05Z" fill="#FF6B71"/>
<path d="M11.8469 12.8028C11.9083 12.8224 11.9613 12.8606 11.9993 12.9109H12.0021C12.0402 12.8606 12.0931 12.8224 12.1544 12.8028V12.2959H11.8469V12.8028Z" fill="#F5F5F5"/>
<path d="M11.8162 11.4965V10.82H10.8937L11.1397 11.066V11.7425H11.8162V11.4965Z" fill="#5F64B9"/>
<path d="M11.4473 11.7422H11.1398V12.0497H11.4473V11.7422Z" fill="#F5F5F5"/>
<path d="M11.4472 11.1275V11.312L11.6317 11.435V11.312L11.4472 11.1275Z" fill="#41479B"/>
<path d="M11.6317 11.312V11.4965L11.8776 11.6195V11.558L11.6317 11.312Z" fill="#F5F5F5"/>
<path d="M12.5541 11.1275V11.312L12.3696 11.435V11.312L12.5541 11.1275Z" fill="#41479B"/>
<path d="M12.3696 11.312V11.4965L12.1236 11.6195V11.558L12.3696 11.312Z" fill="#F5F5F5"/>
<path d="M12.3718 12.4804H11.6298C11.4612 12.4804 11.3244 12.3428 11.3244 12.1729V11.2218L12.0053 11.6809L12.6771 11.2218V12.1729C12.6771 12.3428 12.5404 12.4804 12.3718 12.4804Z" fill="#FF4B55"/>
<path d="M11.5702 11.3735L11.3242 11.189V11.8655L11.5702 11.9885V11.3735Z" fill="#41479B"/>
<path d="M12.4311 11.3735L12.6771 11.189V11.8655L12.4311 11.9885V11.3735Z" fill="#41479B"/>
<path d="M12.3695 11.9888H11.6315V12.2963H12.3695V11.9888Z" fill="#41479B"/>
<path d="M11.6317 11.435L12.0007 11.6195L12.3696 11.435V11.9885H11.6317V11.435Z" fill="#FF4B55"/>
<path d="M12.2774 11.4931V12.1114C12.2774 12.1623 12.236 12.2036 12.1852 12.2036H11.8162C11.7654 12.2036 11.724 12.1622 11.724 12.1114V11.4956L11.5395 11.3721V12.1115C11.5395 12.2641 11.6637 12.3882 11.8162 12.3882H12.1852C12.3378 12.3882 12.4619 12.2641 12.4619 12.1115V11.3679L12.2774 11.4931Z" fill="#F5F5F5"/>
<path d="M12.3418 11.9227C12.2382 11.932 12.1217 11.9424 12.0007 11.9845C11.8797 11.9424 11.7631 11.932 11.6595 11.9227C11.4862 11.9071 11.3833 11.892 11.3245 11.7874V11.9649C11.4149 12.0237 11.5294 12.0345 11.6485 12.0452C11.7554 12.0548 11.866 12.0647 11.9789 12.1075L12.0007 12.1157L12.0225 12.1075C12.1355 12.0647 12.246 12.0548 12.353 12.0452C12.4722 12.0345 12.5869 12.0238 12.6773 11.965V11.787C12.6184 11.892 12.5154 11.9071 12.3418 11.9227Z" fill="#F5F5F5"/>
<path d="M12.1236 11.3427H12.0314V11.2505H11.9699V11.3427H11.8776V11.4042H11.9699V11.681H12.0314V11.4042H12.1236V11.3427Z" fill="#FFE15A"/>
<path d="M11.4282 11.0637L11.3944 11.0975L11.9348 11.6379L11.9686 11.6041L11.4282 11.0637Z" fill="#464655"/>
<path d="M11.3099 10.9791L11.3774 11.1142L11.445 11.0466L11.3099 10.9791Z" fill="#FFE15A"/>
<path d="M11.5523 10.9762L11.5137 11.0043L11.9637 11.6221L12.0024 11.5939L11.5523 10.9762Z" fill="#464655"/>
<path d="M11.4481 10.8742L11.4939 11.0182L11.5711 10.9619L11.4481 10.8742Z" fill="#FFE15A"/>
<path d="M11.3207 11.1759L11.2934 11.215L11.92 11.6525L11.9473 11.6134L11.3207 11.1759Z" fill="#464655"/>
<path d="M11.1895 11.1144L11.2796 11.2356L11.3343 11.1573L11.1895 11.1144Z" fill="#FFE15A"/>
<path d="M12.0326 11.6037L12.0664 11.6375L12.6068 11.0971L12.573 11.0633L12.0326 11.6037Z" fill="#464655"/>
<path d="M12.6911 10.9791L12.6236 11.1142L12.5561 11.0466L12.6911 10.9791Z" fill="#FFE15A"/>
<path d="M11.9993 11.5933L12.0379 11.6215L12.4879 11.0037L12.4493 10.9756L11.9993 11.5933Z" fill="#464655"/>
<path d="M12.5529 10.8742L12.5071 11.0182L12.43 10.9619L12.5529 10.8742Z" fill="#FFE15A"/>
<path d="M12.0545 11.6147L12.0818 11.6539L12.7084 11.2164L12.6811 11.1772L12.0545 11.6147Z" fill="#464655"/>
<path d="M12.8115 11.1144L12.7214 11.2356L12.6667 11.1573L12.8115 11.1144Z" fill="#FFE15A"/>
<path d="M11.9695 12.7704C11.9695 12.7704 11.7316 12.515 11.7778 12.2806C11.8149 12.092 11.9274 11.8841 12.0155 11.8335C12.0155 11.8335 12.14 11.8258 12.1088 11.9341C12.0776 12.0422 12.0395 12.0701 12.0507 12.1768C12.0699 12.3613 12.0996 12.58 11.9695 12.7704Z" fill="#F5F5F5"/>
<path d="M12.0416 11.8349C12.0267 11.8329 12.0154 11.8336 12.0154 11.8336C11.9274 11.8841 11.8148 12.092 11.7777 12.2806C11.7567 12.3872 11.7947 12.498 11.8421 12.5873C11.8121 12.2007 11.9249 12.0635 12.0416 11.8349Z" fill="#41479B"/>
<path d="M12.0506 12.1768C12.0395 12.0702 12.0776 12.0423 12.1088 11.9341C12.1307 11.8584 12.0763 11.8395 12.0416 11.8349C12.0416 11.8349 11.9622 12.0173 11.9571 12.1397C11.9526 12.2474 11.9802 12.6856 11.9695 12.7706C12.0996 12.58 12.0699 12.3613 12.0506 12.1768Z" fill="#FF4B55"/>
<path d="M11.8893 11.9261C11.9388 11.8778 12.0085 11.8561 12.0767 11.8679C12.0444 11.7638 12.012 11.6596 11.9797 11.5555C11.9115 11.5438 11.8418 11.5654 11.7922 11.6137C11.8246 11.7179 11.857 11.822 11.8893 11.9261Z" fill="#F5F0F0"/>
<path d="M12.0768 11.8679C12.1263 11.8195 12.196 11.7979 12.2642 11.8096C12.2319 11.7055 12.1995 11.6014 12.1672 11.4973C12.099 11.4856 12.0293 11.5072 11.9797 11.5555C12.012 11.6596 12.0444 11.7637 12.0768 11.8679Z" fill="#F5F5F5"/>
<path d="M11.7198 10.5166C11.3859 10.5089 11.0562 10.591 10.7649 10.7543C10.7248 10.6827 10.6847 10.6112 10.6446 10.5397C10.9743 10.3548 11.3475 10.2619 11.7254 10.2706C11.7235 10.3526 11.7216 10.4346 11.7198 10.5166Z" fill="#5F64B9"/>
<path d="M13.0391 10.451C13.2553 10.5896 13.446 10.7661 13.5996 10.9745C13.5336 11.0231 13.4676 11.0718 13.4016 11.1205C13.266 10.9366 13.0978 10.7809 12.907 10.6585L13.0391 10.451Z" fill="#41479B"/>
<path d="M12.2816 10.5166C12.6154 10.5089 12.9452 10.591 13.2364 10.7543C13.2765 10.6827 13.3166 10.6112 13.3568 10.5397C13.0271 10.3548 12.6538 10.2619 12.2759 10.2706C12.2779 10.3526 12.2798 10.4346 12.2816 10.5166Z" fill="#5F64B9"/>
<path d="M12.4926 10.451C12.1706 10.3629 11.8307 10.3629 11.5087 10.451C11.4871 10.3719 11.4654 10.2929 11.4438 10.2137C11.8083 10.114 12.193 10.114 12.5576 10.2137C12.5359 10.2928 12.5143 10.3719 12.4926 10.451Z" fill="#41479B"/>
<path d="M11.1765 13.2074C10.911 13.2767 10.6515 13.3702 10.4017 13.4879C10.4367 13.5621 10.4716 13.6363 10.5065 13.7104C10.7476 13.5968 10.9982 13.5071 11.2547 13.4413L11.1765 13.2074Z" fill="#FF6B71"/>
<path d="M12.825 13.2072C13.0904 13.2766 13.3499 13.3701 13.5998 13.4878C13.5648 13.5619 13.5298 13.6362 13.4949 13.7103C13.2538 13.5967 13.0032 13.507 12.7468 13.4412L12.825 13.2072Z" fill="#FF6B71"/>
<path d="M12.9899 13.3976C12.3431 13.2423 11.6688 13.2423 11.022 13.3976C11.0029 13.3178 10.9837 13.2381 10.9646 13.1584C11.6491 12.9941 12.3628 12.9941 13.0473 13.1584C13.0283 13.2381 13.0091 13.3179 12.9899 13.3976Z" fill="#FF4B55"/>
<path d="M12.0006 13.4645L11.831 13.5069C11.7922 13.5166 11.7546 13.4872 11.7546 13.4473V13.3588C11.7546 13.3188 11.7922 13.2894 11.831 13.2991L12.0006 13.3416V13.4645Z" fill="#FF4B55"/>
<path d="M12.0006 13.3415L12.1702 13.299C12.209 13.2893 12.2466 13.3187 12.2466 13.3587V13.4472C12.2466 13.4872 12.209 13.5165 12.1702 13.5068L12.0006 13.4644V13.3415Z" fill="#FF4B55"/>
<path d="M12.0138 13.4644H11.9875C11.9608 13.4644 11.9391 13.4428 11.9391 13.4161V13.3897C11.9391 13.363 11.9607 13.3414 11.9875 13.3414H12.0138C12.0405 13.3414 12.0622 13.363 12.0622 13.3897V13.4161C12.0621 13.4428 12.0405 13.4644 12.0138 13.4644Z" fill="#FF6B71"/>
</svg>
