<svg xmlns="http://www.w3.org/2000/svg" width="24" height="24" viewBox="0 0 24 24" fill="none"><rect width="24" height="24" fill="none"/>
<path d="M22.2026 4.13789H1.79742C0.804703 4.13789 0 4.94259 0 5.93531V18.0647C0 19.0574 0.804703 19.8621 1.79742 19.8621H22.2026C23.1952 19.8621 24 19.0574 24 18.0647V5.93531C24 4.94259 23.1953 4.13789 22.2026 4.13789Z" fill="#FF4B55"/>
<path d="M3.98472 6.59675L4.37922 7.77959L5.6261 7.78925C5.78754 7.79047 5.85447 7.99653 5.72458 8.09239L4.72155 8.83306L5.09763 10.0219C5.14629 10.1758 4.97107 10.3031 4.83972 10.2093L3.82535 9.48416L2.81097 10.2092C2.67963 10.3031 2.50441 10.1758 2.55307 10.0219L2.92914 8.83302L1.92611 8.09239C1.79622 7.99649 1.86316 7.79047 2.0246 7.78925L3.27147 7.77959L3.66597 6.59675C3.71707 6.44361 3.93368 6.44361 3.98472 6.59675Z" fill="#FFE15A"/>
<path d="M8.51246 6.88822L8.79535 7.2739L9.25187 7.13112C9.31098 7.11265 9.35959 7.18006 9.3234 7.23026L9.04393 7.61843L9.32077 8.00848C9.35663 8.05897 9.30755 8.12604 9.24859 8.10715L8.79301 7.96133L8.50759 8.34519C8.47065 8.39487 8.39166 8.3689 8.39143 8.30703L8.38932 7.82867L7.93604 7.67581C7.87735 7.65598 7.87763 7.57292 7.93646 7.55351L8.39068 7.4037L8.39602 6.92539C8.39668 6.86365 8.47585 6.83829 8.51246 6.88822Z" fill="#FFE15A"/>
<path d="M6.79019 5.73838L7.26569 5.79003L7.46857 5.35686C7.49486 5.3008 7.57741 5.31041 7.59002 5.37102L7.6878 5.83921L8.16246 5.89827C8.22391 5.90591 8.24027 5.98738 8.1865 6.01817L7.77142 6.25583L7.86194 6.72552C7.87366 6.78636 7.80124 6.82705 7.75535 6.78547L7.40102 6.46414L6.98233 6.69533C6.92814 6.72528 6.86697 6.66894 6.89238 6.61246L7.08846 6.17614L6.73914 5.84933C6.694 5.80724 6.72864 5.73172 6.79019 5.73838Z" fill="#FFE15A"/>
<path d="M7.54196 10.374L7.25912 10.7598L6.8026 10.617C6.74349 10.5986 6.69489 10.6659 6.73107 10.7162L7.01054 11.1043L6.7337 11.4944C6.69784 11.5449 6.74692 11.612 6.80589 11.5931L7.26142 11.4472L7.54684 11.8311C7.58378 11.8808 7.66276 11.8548 7.663 11.7929L7.6651 11.3146L8.11839 11.1617C8.17707 11.1419 8.17679 11.0588 8.11796 11.0394L7.66374 10.8896L7.6584 10.4113C7.65765 10.3495 7.57857 10.3241 7.54196 10.374Z" fill="#FFE15A"/>
<path d="M9.26415 9.29347L8.78861 9.34513L8.58573 8.91196C8.55943 8.8559 8.47693 8.8655 8.46428 8.92611L8.36645 9.3943L7.89179 9.45336C7.83034 9.461 7.81398 9.54247 7.86775 9.57327L8.28282 9.81093L8.19231 10.2806C8.18059 10.3415 8.25301 10.3821 8.2989 10.3406L8.65323 10.0192L9.07192 10.2504C9.12611 10.2804 9.18728 10.224 9.16187 10.1676L8.96579 9.73124L9.31511 9.40443C9.36043 9.36233 9.32579 9.28682 9.26415 9.29347Z" fill="#FFE15A"/>
</svg>
