<svg xmlns="http://www.w3.org/2000/svg" width="24" height="24" viewBox="0 0 24 24" fill="none"><rect width="24" height="24" fill="none"/>
<path d="M22.2026 4.13794H1.79742C0.804703 4.13794 0 4.94264 0 5.93536V7.4483H24V5.93536C24 4.94264 23.1953 4.13794 22.2026 4.13794Z" fill="#FF4B55"/>
<path d="M0 18.0646C0 19.0573 0.804703 19.8621 1.79742 19.8621H22.2026C23.1952 19.8621 24 19.0574 24 18.0646V16.5517H0V18.0646Z" fill="#FF4B55"/>
<path d="M24 7.44843H0V16.552H24V7.44843Z" fill="#41479B"/>
<path d="M12 15.3103C13.8282 15.3103 15.3103 13.8282 15.3103 12C15.3103 10.1718 13.8282 8.6897 12 8.6897C10.1718 8.6897 8.6897 10.1718 8.6897 12C8.6897 13.8282 10.1718 15.3103 12 15.3103Z" fill="#F5F5F5"/>
</svg>
