<svg xmlns="http://www.w3.org/2000/svg" width="24" height="24" viewBox="0 0 24 24" fill="none"><rect width="24" height="24" fill="none"/>
<path d="M22.2026 19.862H1.79742C0.804703 19.862 0 19.0573 0 18.0646V5.9353C0 4.94263 0.804703 4.13788 1.79742 4.13788H22.2026C23.1952 4.13788 24 4.94258 24 5.9353V18.0646C24 19.0573 23.1953 19.862 22.2026 19.862Z" fill="#F5F5F5"/>
<path d="M0 18.0647C0 19.0574 0.804703 19.8621 1.79742 19.8621H22.2026C23.1947 19.8621 23.999 19.0583 24 18.0665V14.4828H0V18.0647Z" fill="#FF4B55"/>
<path d="M16.5517 9.9311V9.10352H15.7241V7.03455H16.1379V6.20697H13.6551V7.03455H14.0689V9.10352H12.8275V6.20697H13.2414V5.37939H10.7586V6.20697H11.1724V9.10352H9.93099V7.03455H10.3448V6.20697H7.86202V7.03455H8.27584V9.10352H7.44821V9.9311H7.86202V13.2415H7.44821V14.069H16.5517V13.2415H16.1379V9.9311H16.5517Z" fill="#FF4B55"/>
<path d="M12.8275 13.6555H11.1724V12.0004C11.1724 11.5433 11.5429 11.1728 11.9999 11.1728C12.457 11.1728 12.8275 11.5433 12.8275 12.0004V13.6555Z" fill="#464655"/>
<path d="M11.9999 7.86243C11.7714 7.86243 11.5861 8.04772 11.5861 8.27624V9.51763H12.4137V8.27624C12.4137 8.04768 12.2284 7.86243 11.9999 7.86243Z" fill="#464655"/>
<path d="M14.8965 8.27625C14.668 8.27625 14.4827 8.46154 14.4827 8.69006V9.51764H15.3102V8.69006C15.3103 8.46145 15.125 8.27625 14.8965 8.27625Z" fill="#464655"/>
<path d="M9.10339 8.27625C8.87487 8.27625 8.68958 8.46154 8.68958 8.69006V9.51764H9.51715V8.69006C9.51715 8.46145 9.3319 8.27625 9.10339 8.27625Z" fill="#464655"/>
<path d="M15.3103 13.6555H13.6552V12.4141C13.6552 11.957 14.0257 11.5865 14.4827 11.5865C14.9398 11.5865 15.3103 11.957 15.3103 12.4141V13.6555Z" fill="#464655"/>
<path d="M10.3448 13.6555H8.68964V12.4141C8.68964 11.957 9.06014 11.5865 9.51721 11.5865C9.97429 11.5865 10.3448 11.957 10.3448 12.4141V13.6555Z" fill="#464655"/>
<path d="M13.1379 15.1034C13.1379 15.0343 13.1034 14.9696 13.0458 14.9313L12.2069 14.372V14.1968L12.9201 13.8402C13.0224 13.7891 13.0637 13.6648 13.0126 13.5626C12.9613 13.4602 12.8374 13.4189 12.735 13.47L12 13.8375L11.2649 13.47C11.1631 13.4189 11.0384 13.4602 10.9873 13.5626C10.9362 13.6648 10.9776 13.7891 11.0799 13.8402L11.7931 14.1968V14.372L10.9541 14.9313C10.8966 14.9697 10.862 15.0343 10.862 15.1034C10.862 15.1725 10.8966 15.2372 10.9541 15.2755L11.7931 15.8348V17.5862H10.9655V17.903C10.9655 18.0174 11.058 18.1099 11.1724 18.1099C11.2516 18.1099 11.3205 18.0655 11.3552 18H11.7931V18.4138H11.3516C11.3159 18.352 11.249 18.3104 11.1724 18.3104C11.0581 18.3104 10.9655 18.4029 10.9655 18.5173V18.8276H11.7931V19.0345C11.7931 19.1489 11.8856 19.2414 12 19.2414C12.1144 19.2414 12.2069 19.1489 12.2069 19.0345V18.8276V17.5862V15.8349L13.0458 15.2756C13.1034 15.2371 13.1379 15.1725 13.1379 15.1034ZM12 15.4754L11.4419 15.1034L12 14.7314L12.558 15.1034L12 15.4754Z" fill="#FFE15A"/>
</svg>
