<svg xmlns="http://www.w3.org/2000/svg" width="24" height="24" viewBox="0 0 24 24" fill="none"><rect width="24" height="24" fill="none"/>
<path d="M0.642187 4.55859C0.249656 4.88836 0 5.38256 0 5.93531V18.0646C0 18.6173 0.249656 19.1116 0.642187 19.4413L12 11.9999L0.642187 4.55859Z" fill="#F5F5F5"/>
<path d="M0.642181 19.4414C0.954603 19.7038 1.3574 19.8621 1.79737 19.8621H22.2025C23.1952 19.8621 23.9999 19.0574 23.9999 18.0646V12H12L0.642181 19.4414Z" fill="#FF4B55"/>
<path d="M22.2026 4.13794H1.79743C1.35746 4.13794 0.954617 4.29628 0.642242 4.55864L12 12H24V5.93536C24 4.94264 23.1953 4.13794 22.2026 4.13794Z" fill="#41479B"/>
<path d="M4.34484 13.3451C5.08758 13.3451 5.68969 12.743 5.68969 12.0002C5.68969 11.2575 5.08758 10.6554 4.34484 10.6554C3.60211 10.6554 3 11.2575 3 12.0002C3 12.743 3.60211 13.3451 4.34484 13.3451Z" fill="#FFE15A"/>
<path d="M4.34484 12.0002L3.84052 9.98303L4.34484 9.31061L4.84912 9.98303L4.34484 12.0002Z" fill="#FFE15A"/>
<path d="M4.34484 12.0002L4.84912 14.0175L4.34484 14.6899L3.84052 14.0175L4.34484 12.0002Z" fill="#FFE15A"/>
<path d="M4.34487 12.0002L2.3276 12.5046L1.65518 12.0002L2.3276 11.4959L4.34487 12.0002Z" fill="#FFE15A"/>
<path d="M4.34485 12.0002L6.36207 11.4959L7.03449 12.0002L6.36207 12.5046L4.34485 12.0002Z" fill="#FFE15A"/>
<path d="M4.34485 12.0002L5.41463 10.2172L6.24671 10.0983L6.12783 10.9304L4.34485 12.0002Z" fill="#FFE15A"/>
<path d="M4.34484 12.0002L3.27501 13.7832L2.44293 13.9021L2.56181 13.0701L4.34484 12.0002Z" fill="#FFE15A"/>
<path d="M4.34484 12.0002L2.56181 10.9304L2.44293 10.0983L3.27501 10.2172L4.34484 12.0002Z" fill="#FFE15A"/>
<path d="M4.34485 12.0002L6.12783 13.0701L6.24671 13.9021L5.41463 13.7832L4.34485 12.0002Z" fill="#FFE15A"/>
<path d="M1.109 6.17341L1.17912 6.69653L0.706809 6.93222C0.645684 6.96274 0.658528 7.05353 0.725793 7.06582L1.24498 7.16078L1.32317 7.68278C1.33329 7.75038 1.42362 7.76617 1.45611 7.70599L1.70689 7.24155L2.22748 7.32846C2.29489 7.33975 2.33782 7.25866 2.29067 7.20925L1.92645 6.82722L2.16996 6.35894C2.20146 6.29833 2.13767 6.23243 2.07607 6.262L1.6002 6.49038L1.23012 6.11402C1.18231 6.06536 1.09995 6.10572 1.109 6.17341Z" fill="#FFE15A"/>
<path d="M1.31729 16.3552L1.22874 16.8756L0.707729 16.9602C0.640276 16.9711 0.625604 17.0617 0.68612 17.0933L1.1536 17.3384L1.07312 17.86C1.06271 17.9275 1.14423 17.9694 1.19312 17.9217L1.57065 17.5528L2.04193 17.7906C2.10296 17.8214 2.16803 17.7567 2.13774 17.6955L1.90356 17.2225L2.27528 16.8478C2.32342 16.7993 2.28212 16.7174 2.21443 16.7273L1.69215 16.8039L1.45065 16.3345C1.41934 16.2738 1.32868 16.2878 1.31729 16.3552Z" fill="#FFE15A"/>
<path d="M9.50317 11.2294L9.19937 11.661L8.69265 11.5134C8.62707 11.4943 8.57486 11.5697 8.61582 11.6243L8.93246 12.0466L8.63542 12.483C8.59698 12.5394 8.65253 12.6124 8.71721 12.5903L9.21667 12.4197L9.53982 12.837C9.58168 12.891 9.66821 12.8607 9.66718 12.7924L9.65921 12.2647L10.156 12.0863C10.2203 12.0632 10.2182 11.9715 10.1529 11.9513L9.64848 11.7958L9.63235 11.2682C9.63039 11.1998 9.54249 11.1735 9.50317 11.2294Z" fill="#FFE15A"/>
</svg>
