<svg xmlns="http://www.w3.org/2000/svg" width="24" height="24" viewBox="0 0 24 24" fill="none"><rect width="24" height="24" fill="none"/>
<path d="M0 7.03448V16.9655L6.62067 12L0 7.03448Z" fill="#464655"/>
<path d="M22.2026 4.13794H3.31036L10.7587 9.93103H24V5.93536C24 4.94264 23.1953 4.13794 22.2026 4.13794Z" fill="#FF4B55"/>
<path d="M3.31036 19.862H22.2026C23.1952 19.862 24 19.0573 24 18.0646V14.0689H10.7586L3.31036 19.862Z" fill="#41479B"/>
<path d="M2.66667 4.13794H1.79742C0.804703 4.13794 0 4.94264 0 5.93536V6.24905L7.2644 12L0 17.7511V18.0646C0 19.0573 0.804703 19.8621 1.79742 19.8621H2.66644L10.5068 13.6552H24V10.3448H10.5069L2.66667 4.13794Z" fill="#73AF00"/>
<path d="M3.99998 4.13794H2.66667L10.5069 10.3448H24V9.51722H10.7949L3.99998 4.13794Z" fill="#F5F5F5"/>
<path d="M0 6.24902V7.30455L5.93109 12L0 16.6956V17.7511L7.2644 12L0 6.24902Z" fill="#FFE15A"/>
<path d="M10.5069 13.6551L2.66644 19.862H3.9998L10.7948 14.4827H24V13.6551H10.5069Z" fill="#F5F5F5"/>
</svg>
