<svg xmlns="http://www.w3.org/2000/svg" width="24" height="24" viewBox="0 0 24 24" fill="none"><rect width="24" height="24" fill="none"/>
<path d="M22.2026 19.8621H1.79742C0.804703 19.8621 0 19.0574 0 18.0646V5.93536C0 4.94269 0.804703 4.13794 1.79742 4.13794H22.2026C23.1952 4.13794 24 4.94264 24 5.93536V18.0647C24 19.0574 23.1953 19.8621 22.2026 19.8621Z" fill="#41479B"/>
<path d="M20.6896 4.13794V19.8621L4.96548 4.13794H20.6896Z" fill="#FFE15A"/>
<path d="M9.71978 9.99264L9.95828 10.7077L10.712 10.7135C10.7704 10.714 10.7946 10.7885 10.7476 10.8232L10.1412 11.271L10.3686 11.9896C10.3862 12.0452 10.3228 12.0913 10.2753 12.0574L9.66208 11.6191L9.04886 12.0574C9.00137 12.0913 8.93795 12.0453 8.95553 11.9896L9.18292 11.271L8.57655 10.8232C8.52958 10.7885 8.55376 10.714 8.61217 10.7135L9.36587 10.7077L9.60437 9.99264C9.62298 9.93723 9.70131 9.93723 9.71978 9.99264Z" fill="#F5F5F5"/>
<path d="M7.99566 8.26848L8.23416 8.98351L8.98786 8.98937C9.04627 8.98984 9.07046 9.06437 9.02349 9.09901L8.41711 9.54681L8.6445 10.2655C8.66213 10.3211 8.59871 10.3672 8.55117 10.3332L7.93796 9.89491L7.32474 10.3332C7.27725 10.3672 7.21383 10.3211 7.23141 10.2655L7.4588 9.54681L6.85242 9.09901C6.80546 9.06433 6.82964 8.98984 6.88805 8.98937L7.64175 8.98351L7.88025 8.26848C7.89882 8.21308 7.97719 8.21308 7.99566 8.26848Z" fill="#F5F5F5"/>
<path d="M6.27157 6.54436L6.51007 7.25939L7.26377 7.26525C7.32218 7.26572 7.34637 7.34021 7.2994 7.37489L6.69302 7.82269L6.92041 8.54133C6.93804 8.59697 6.87461 8.64305 6.82708 8.60911L6.21386 8.17078L5.60065 8.60911C5.55316 8.6431 5.48974 8.59702 5.50732 8.54133L5.73471 7.82269L5.12833 7.37489C5.08136 7.34021 5.10555 7.26572 5.16396 7.26525L5.91766 7.25939L6.15616 6.54436C6.17468 6.48896 6.25305 6.48896 6.27157 6.54436Z" fill="#F5F5F5"/>
<path d="M4.54736 4.82021L4.78586 5.53524L5.53956 5.5411C5.59796 5.54157 5.62215 5.61605 5.57518 5.65074L4.96881 6.09853L5.1962 6.81717C5.21382 6.87282 5.1504 6.91889 5.10287 6.88496L4.48965 6.44663L3.87643 6.88496C3.82895 6.91889 3.76553 6.87286 3.78311 6.81717L4.0105 6.09853L3.40412 5.65074C3.35715 5.61605 3.38134 5.54157 3.43975 5.5411L4.19345 5.53524L4.43195 4.82021C4.45056 4.76485 4.52889 4.76485 4.54736 4.82021Z" fill="#F5F5F5"/>
<path d="M16.6164 16.8891L16.8549 17.6042L17.6086 17.61C17.667 17.6105 17.6912 17.685 17.6442 17.7197L17.0378 18.1675L17.2652 18.8861C17.2828 18.9418 17.2194 18.9879 17.1719 18.9539L16.5587 18.5156L15.9455 18.9539C15.898 18.9878 15.8346 18.9418 15.8522 18.8861L16.0796 18.1675L15.4732 17.7197C15.4262 17.685 15.4504 17.6105 15.5088 17.61L16.2625 17.6042L16.501 16.8891C16.5196 16.8338 16.5979 16.8338 16.6164 16.8891Z" fill="#F5F5F5"/>
<path d="M14.8922 15.165L15.1307 15.8801L15.8844 15.8859C15.9428 15.8864 15.967 15.9609 15.92 15.9956L15.3137 16.4434L15.5411 17.162C15.5587 17.2176 15.4953 17.2638 15.4478 17.2298L14.8346 16.7915L14.2213 17.2298C14.1739 17.2637 14.1104 17.2177 14.128 17.162L14.3554 16.4434L13.749 15.9956C13.7021 15.9609 13.7262 15.8864 13.7847 15.8859L14.5384 15.8801L14.7769 15.165C14.7954 15.1096 14.8737 15.1096 14.8922 15.165Z" fill="#F5F5F5"/>
<path d="M13.1681 13.4409L13.4066 14.156L14.1603 14.1618C14.2187 14.1623 14.2429 14.2368 14.1959 14.2715L13.5896 14.7193L13.8169 15.4379C13.8346 15.4935 13.7711 15.5397 13.7237 15.5057L13.1104 15.0674L12.4972 15.5057C12.4497 15.5396 12.3863 15.4936 12.4039 15.4379L12.6313 14.7193L12.0249 14.2715C11.9779 14.2368 12.0021 14.1623 12.0605 14.1618L12.8142 14.156L13.0527 13.4409C13.0713 13.3855 13.1496 13.3855 13.1681 13.4409Z" fill="#F5F5F5"/>
<path d="M11.444 11.7168L11.6825 12.4318L12.4362 12.4377C12.4946 12.4381 12.5188 12.5126 12.4718 12.5473L11.8654 12.9951L12.0928 13.7138C12.1105 13.7694 12.047 13.8155 11.9995 13.7815L11.3863 13.3432L10.7731 13.7815C10.7256 13.8155 10.6622 13.7694 10.6797 13.7138L10.9071 12.9951L10.3008 12.5473C10.2538 12.5126 10.278 12.4381 10.3364 12.4377L11.0901 12.4318L11.3286 11.7168C11.3471 11.6614 11.4254 11.6614 11.444 11.7168Z" fill="#F5F5F5"/>
<path d="M1.96603 4.13794L2.28619 4.37438L2.0588 5.09302C2.04122 5.14866 2.1046 5.19474 2.15213 5.16085L2.7653 4.72252L3.37852 5.16085C3.426 5.19478 3.48942 5.14875 3.4718 5.09302L3.24446 4.37438L3.56475 4.13794H1.96603Z" fill="#F5F5F5"/>
<path d="M19.3327 19.3342L18.579 19.3283L18.3406 18.6133C18.3221 18.5579 18.2437 18.5579 18.2253 18.6133L17.9868 19.3283L17.2331 19.3342C17.1747 19.3347 17.1505 19.4092 17.1975 19.4438L17.7639 19.862H18.8022L19.3685 19.4438C19.4153 19.4091 19.3911 19.3346 19.3327 19.3342Z" fill="#F5F5F5"/>
</svg>
