<svg xmlns="http://www.w3.org/2000/svg" width="24" height="24" viewBox="0 0 24 24" fill="none"><rect width="24" height="24" fill="none"/>
<path d="M22.2026 4.13794H7.4483C7.67682 4.13794 7.86212 4.32324 7.86212 4.55175V11.5862C7.86212 11.8148 7.67682 12 7.4483 12H24V5.93536C24 4.94264 23.1953 4.13794 22.2026 4.13794Z" fill="#F5F5F5"/>
<path d="M0.827578 12H0.413813C0.185297 12 0 11.8147 0 11.5862V12V12.4138V18.0647C0 19.0574 0.804703 19.8621 1.79742 19.8621H22.2026C23.1952 19.8621 24 19.0574 24 18.0647V12H7.4483H0.827578Z" fill="#FF4B55"/>
<path d="M0.413813 12H0.827625H7.4483C7.67681 12 7.86211 11.8147 7.86211 11.5862V4.55169C7.86211 4.32318 7.67681 4.13788 7.4483 4.13788H1.79742C0.804703 4.13793 0 4.94263 0 5.93535V11.5862C0 11.8147 0.185297 12 0.413813 12Z" fill="#41479B"/>
<path d="M4.09041 6.30409L4.48491 7.48693L5.73178 7.49659C5.89322 7.49781 5.96016 7.70387 5.83027 7.79973L4.82724 8.5404L5.20332 9.72925C5.25197 9.88318 5.07675 10.0104 4.94541 9.9166L3.93103 9.19159L2.91661 9.91665C2.78527 10.0105 2.61005 9.88318 2.65871 9.72929L3.03478 8.54045L2.03175 7.79978C1.90186 7.70387 1.96885 7.49785 2.13024 7.49664L3.37711 7.48698L3.77161 6.30414C3.82271 6.15095 4.03936 6.15095 4.09041 6.30409Z" fill="#F5F5F5"/>
</svg>
