<svg xmlns="http://www.w3.org/2000/svg" width="24" height="24" viewBox="0 0 24 24" fill="none"><rect width="24" height="24" fill="none"/>
<path d="M22.2026 19.8621H1.79742C0.804703 19.8621 0 19.0574 0 18.0646V5.93536C0 4.94269 0.804703 4.13794 1.79742 4.13794H22.2026C23.1952 4.13794 24 4.94264 24 5.93536V18.0647C24 19.0574 23.1953 19.8621 22.2026 19.8621Z" fill="#73AF00"/>
<path d="M23.9752 18.3615L14.2654 12L23.9752 5.63846C23.8336 4.78711 23.0941 4.13794 22.2026 4.13794H21.7346L12 10.5158L2.26542 4.13794H1.79742C0.905908 4.13794 0.166408 4.78711 0.0248451 5.63846L9.73458 12L0.0248451 18.3615C0.166408 19.2129 0.905908 19.8621 1.79742 19.8621H2.26542L12 13.4842L21.7346 19.8621H22.2026C23.0941 19.8621 23.8336 19.2129 23.9752 18.3615Z" fill="#FFE15A"/>
<path d="M24 5.62222V18.3779L14.2654 12.0001L24 5.62222Z" fill="#464655"/>
<path d="M0 18.3779V5.62215L9.73458 12L0 18.3779Z" fill="#464655"/>
</svg>
