<svg xmlns="http://www.w3.org/2000/svg" width="24" height="24" viewBox="0 0 24 24" fill="none"><rect width="24" height="24" fill="none"/>
<path d="M22.2024 4.13705H1.79494C0.834705 4.13705 0.0504845 4.88991 0 5.83754V18.1626C0.0488438 19.0794 0.784642 19.814 1.70208 19.8606H22.2952C23.2449 19.8123 24 19.0271 24 18.0654V5.93467C24 4.94185 23.1952 4.13705 22.2024 4.13705Z" fill="#73AF00"/>
<path d="M1.88766 4.13466L12.0014 10.7609L22.1151 4.13466H1.88766Z" fill="#FF4B55"/>
<path d="M22.115 19.8653L12.0013 13.2391L1.88763 19.8653H22.115Z" fill="#FF4B55"/>
<path d="M22.2024 4.13705H22.1115L14.4249 9.17294C13.7733 8.61334 12.9277 8.27303 12.0014 8.27303C11.075 8.27303 10.2295 8.6133 9.57785 9.17294L1.89137 4.13705H1.79495C0.981381 4.13705 0.294427 4.67762 0.0727547 5.41909L8.44122 10.9018C8.33472 11.2483 8.27683 11.6162 8.27683 11.9976C8.27683 12.3791 8.33472 12.7469 8.44122 13.0934L0.0715828 18.5769C0.283552 19.292 0.927991 19.8212 1.70204 19.8606H1.88766L9.57781 14.8223C10.2295 15.3819 11.075 15.7222 12.0013 15.7222C12.9277 15.7222 13.7733 15.3819 14.4249 14.8223L22.115 19.8606H22.2952C23.0704 19.8212 23.7155 19.2906 23.9266 18.5739L15.5616 13.0934C15.6681 12.7469 15.7259 12.3791 15.7259 11.9976C15.7259 11.6162 15.6681 11.2483 15.5616 10.9018L23.9255 5.42209C23.7048 4.67907 23.0171 4.13705 22.2024 4.13705Z" fill="#F5F5F5"/>
<path d="M11.7333 10.8066L11.1721 10.8212L11.4651 10.3422L11.1721 9.86336L11.7333 9.87789L12.0014 9.38443L12.2696 9.87789L12.8307 9.86336L12.5376 10.3422L12.8307 10.8212L12.2696 10.8066L12.0014 11.3001L11.7333 10.8066Z" fill="#FF4B55"/>
<path d="M12.0014 9.51457L12.2331 9.9408L12.7182 9.92838L12.4649 10.3422L12.7182 10.7561L12.2331 10.7437L12.0014 11.1699L11.7696 10.7437L11.2846 10.7561L11.5379 10.3422L11.2846 9.92838L11.7696 9.9408L12.0014 9.51457ZM12.0014 9.25469L11.8923 9.45532L11.6969 9.81485L11.2878 9.80435L11.0595 9.79849L11.1787 9.9933L11.3924 10.3423L11.1787 10.6914L11.0595 10.8862L11.2878 10.8803L11.6969 10.8698L11.8923 11.2294L12.0014 11.43L12.1105 11.2294L12.3059 10.8698L12.715 10.8803L12.9432 10.8862L12.824 10.6914L12.6104 10.3423L12.824 9.9933L12.9432 9.79849L12.715 9.80435L12.3059 9.81485L12.1105 9.45532L12.0014 9.25469Z" fill="#73AF00"/>
<path d="M10.1921 13.5496L9.63095 13.5641L9.92392 13.0852L9.63095 12.6063L10.1921 12.6209L10.4602 12.1274L10.7284 12.6209L11.2895 12.6063L10.9965 13.0852L11.2895 13.5641L10.7284 13.5496L10.4602 14.043L10.1921 13.5496Z" fill="#FF4B55"/>
<path d="M10.4602 12.2575L10.692 12.6837L11.177 12.6713L10.9237 13.0852L11.177 13.499L10.692 13.4866L10.4602 13.9129L10.2285 13.4866L9.74346 13.499L9.99673 13.0852L9.74346 12.6713L10.2285 12.6837L10.4602 12.2575ZM10.4602 11.9976L10.3512 12.1983L10.1557 12.5578L9.74665 12.5473L9.51837 12.5414L9.63757 12.7362L9.85123 13.0853L9.63757 13.4343L9.51837 13.6291L9.74665 13.6232L10.1557 13.6127L10.3512 13.9723L10.4602 14.1729L10.5693 13.9723L10.7647 13.6127L11.1738 13.6232L11.4021 13.6291L11.2829 13.4343L11.0692 13.0852L11.2829 12.7362L11.4021 12.5414L11.1738 12.5472L10.7647 12.5577L10.5693 12.1982L10.4602 11.9976Z" fill="#73AF00"/>
<path d="M13.2744 13.5496L12.7132 13.5641L13.0063 13.0852L12.7132 12.6063L13.2744 12.6209L13.5425 12.1274L13.8107 12.6209L14.3719 12.6063L14.0788 13.0852L14.3719 13.5641L13.8107 13.5496L13.5425 14.043L13.2744 13.5496Z" fill="#FF4B55"/>
<path d="M13.5425 12.2575L13.7742 12.6837L14.2593 12.6713L14.006 13.0852L14.2593 13.499L13.7742 13.4866L13.5425 13.9129L13.3107 13.4866L12.8257 13.499L13.079 13.0852L12.8257 12.6713L13.3107 12.6837L13.5425 12.2575ZM13.5425 11.9976L13.4334 12.1983L13.238 12.5578L12.8289 12.5473L12.6006 12.5414L12.7198 12.7362L12.9335 13.0853L12.7198 13.4343L12.6006 13.6291L12.8289 13.6233L13.238 13.6128L13.4334 13.9723L13.5425 14.1729L13.6516 13.9723L13.847 13.6128L14.2561 13.6233L14.4844 13.6291L14.3652 13.4343L14.1515 13.0853L14.3652 12.7362L14.4844 12.5414L14.2561 12.5473L13.847 12.5578L13.6516 12.1983L13.5425 11.9976Z" fill="#73AF00"/>
</svg>
