<svg xmlns="http://www.w3.org/2000/svg" width="24" height="24" viewBox="0 0 24 24" fill="none"><rect width="24" height="24" fill="none"/>
<path d="M22.2026 19.8621H1.79742C0.804703 19.8621 0 19.0574 0 18.0646V5.93536C0 4.94269 0.804703 4.13794 1.79742 4.13794H22.2026C23.1952 4.13794 24 4.94264 24 5.93536V18.0647C24 19.0574 23.1953 19.8621 22.2026 19.8621Z" fill="#41479B"/>
<path d="M0.77404 19.542L24 9.93134V7.03479L0.427353 19.2275C0.52865 19.3467 0.645181 19.4526 0.77404 19.542Z" fill="#F5F5F5"/>
<path d="M23.3429 4.54602L0.208633 18.9052C0.269852 19.0207 0.343352 19.1286 0.427305 19.2274L24 7.03471V5.9353C24 5.37557 23.7441 4.87569 23.3429 4.54602Z" fill="#FF9B55"/>
<path d="M6.83921 9.85197L9.51722 9.51751L6.83921 9.18311L8.19647 8.35061L6.50771 8.76353L7.53549 7.36136L6.13332 8.38909L6.54619 6.70037L5.71378 8.05764L5.37933 5.37958L5.04488 8.05764L4.21242 6.70037L4.62535 8.38909L3.22313 7.36136L4.25091 8.76353L2.56214 8.35061L3.91941 9.18311L1.24139 9.51751L3.91941 9.85197L2.56214 10.6844L4.25091 10.2715L3.22313 11.6737L4.62535 10.6459L4.21242 12.3347L5.04488 10.9774L5.37933 13.6555L5.71378 10.9774L6.54619 12.3347L6.13332 10.6459L7.53549 11.6737L6.50771 10.2715L8.19647 10.6844L6.83921 9.85197Z" fill="#F5F5F5"/>
</svg>
