<svg xmlns="http://www.w3.org/2000/svg" width="24" height="24" viewBox="0 0 24 24" fill="none"><rect width="24" height="24" fill="none"/>
<path d="M22.2026 19.8621H1.79742C0.804703 19.8621 0 19.0574 0 18.0646V5.93536C0 4.94269 0.804703 4.13794 1.79742 4.13794H22.2026C23.1952 4.13794 24 4.94264 24 5.93536V18.0647C24 19.0574 23.1953 19.8621 22.2026 19.8621Z" fill="#82AFFF"/>
<path d="M11.8812 9.06788L11.187 11.1496L8.99264 11.1666C8.87231 11.1675 8.82249 11.321 8.91924 11.3925L10.6845 12.6961L10.0225 14.7882C9.98621 14.9029 10.1168 14.9978 10.2147 14.9278L12 13.6518L13.7853 14.9279C13.8832 14.9978 14.0138 14.9029 13.9774 14.7883L13.3155 12.6961L15.0807 11.3926C15.1775 11.3211 15.1276 11.1676 15.0073 11.1666L12.813 11.1496L12.1187 9.06793C12.0807 8.95379 11.9193 8.95379 11.8812 9.06788Z" fill="#F5F5F5"/>
</svg>
