<svg xmlns="http://www.w3.org/2000/svg" width="24" height="24" viewBox="0 0 24 24" fill="none"><rect width="24" height="24" fill="none"/>
<path d="M22.2026 4.13794H1.79742C0.804703 4.13794 0 4.94264 0 5.93536V9.37931H24V5.93536C24 4.94264 23.1953 4.13794 22.2026 4.13794Z" fill="#FAB446"/>
<path d="M0 18.0646C0 19.0573 0.804703 19.862 1.79742 19.862H22.2026C23.1952 19.862 24 19.0573 24 18.0646V14.6207H0V18.0646Z" fill="#73AF00"/>
<path d="M24 9.37921H0V14.6203H24V9.37921Z" fill="#F5F5F5"/>
<path d="M12 14.2241C10.7736 14.2241 9.77588 13.2264 9.77588 12C9.77588 10.7736 10.7736 9.77588 12 9.77588C13.2264 9.77588 14.2241 10.7736 14.2241 12C14.2241 13.2264 13.2264 14.2241 12 14.2241ZM12 10.1896C11.0017 10.1896 10.1896 11.0017 10.1896 12C10.1896 12.9983 11.0017 13.8104 12 13.8104C12.9983 13.8104 13.8104 12.9983 13.8104 12C13.8104 11.0017 12.9983 10.1896 12 10.1896Z" fill="#41479B"/>
<path d="M12 12.2524C12.1393 12.2524 12.2521 12.1395 12.2521 12.0002C12.2521 11.861 12.1393 11.7481 12 11.7481C11.8607 11.7481 11.7479 11.861 11.7479 12.0002C11.7479 12.1395 11.8607 12.2524 12 12.2524Z" fill="#41479B"/>
<path d="M12 12.038L11.3592 12.1027L9.98279 12.038V11.9624L11.3592 11.8977L12 11.9624V12.038Z" fill="#41479B"/>
<path d="M12 12.038L12.6408 12.1027L14.0172 12.038V11.9624L12.6408 11.8977L12 11.9624V12.038Z" fill="#41479B"/>
<path d="M11.9622 12.0002L11.8975 11.3594L11.9622 9.98297H12.0378L12.1025 11.3594L12.0378 12.0002H11.9622Z" fill="#41479B"/>
<path d="M11.9622 12.0002L11.8975 12.641L11.9622 14.0175H12.0378L12.1025 12.641L12.0378 12.0002H11.9622Z" fill="#41479B"/>
<path d="M11.9733 12.027L11.4744 11.6197L10.5469 10.6006L10.6004 10.5471L11.6194 11.4747L12.0267 11.9735L11.9733 12.027Z" fill="#41479B"/>
<path d="M11.9733 12.0269L12.3806 12.5258L13.3996 13.4534L13.4531 13.3999L12.5256 12.3808L12.0267 11.9735L11.9733 12.0269Z" fill="#41479B"/>
<path d="M11.9733 11.9735L12.3806 11.4747L13.3996 10.5471L13.4531 10.6006L12.5256 11.6197L12.0267 12.027L11.9733 11.9735Z" fill="#41479B"/>
<path d="M11.9733 11.9735L11.4744 12.3808L10.5469 13.3999L10.6004 13.4534L11.6194 12.5258L12.0267 12.0269L11.9733 11.9735Z" fill="#41479B"/>
<path d="M12.0145 12.0352L11.4472 12.3402L10.1508 12.8071L10.1219 12.7373L11.3688 12.1508L11.9855 11.9653L12.0145 12.0352Z" fill="#41479B"/>
<path d="M12.0145 12.0352L12.6312 11.8497L13.8781 11.2632L13.8492 11.1933L12.5528 11.6603L11.9855 11.9652L12.0145 12.0352Z" fill="#41479B"/>
<path d="M11.965 12.0147L11.6601 11.4474L11.1931 10.151L11.263 10.1221L11.8495 11.369L12.035 11.9857L11.965 12.0147Z" fill="#41479B"/>
<path d="M11.965 12.0147L12.1505 12.6314L12.737 13.8783L12.8069 13.8494L12.3399 12.553L12.035 11.9857L11.965 12.0147Z" fill="#41479B"/>
<path d="M11.9855 12.0352L11.3688 11.8497L10.1219 11.2632L10.1508 11.1933L11.4472 11.6603L12.0145 11.9652L11.9855 12.0352Z" fill="#41479B"/>
<path d="M11.9855 12.0352L12.5528 12.3402L13.8492 12.8071L13.8781 12.7373L12.6312 12.1508L12.0145 11.9653L11.9855 12.0352Z" fill="#41479B"/>
<path d="M11.965 11.9857L12.1505 11.369L12.737 10.1221L12.8069 10.151L12.3399 11.4474L12.035 12.0147L11.965 11.9857Z" fill="#41479B"/>
<path d="M11.965 11.9857L11.6601 12.553L11.1931 13.8494L11.263 13.8783L11.8495 12.6314L12.035 12.0147L11.965 11.9857Z" fill="#41479B"/>
<path d="M12 12.3401C12.1878 12.3401 12.3401 12.1878 12.3401 12C12.3401 11.8121 12.1878 11.6599 12 11.6599C11.8122 11.6599 11.6599 11.8121 11.6599 12C11.6599 12.1878 11.8122 12.3401 12 12.3401Z" fill="#F5F5F5"/>
<path d="M12 12.2039C12.1126 12.2039 12.204 12.1126 12.204 12C12.204 11.8873 12.1126 11.796 12 11.796C11.8874 11.796 11.7961 11.8873 11.7961 12C11.7961 12.1126 11.8874 12.2039 12 12.2039Z" fill="#41479B"/>
</svg>
