<svg xmlns="http://www.w3.org/2000/svg" width="24" height="24" viewBox="0 0 24 24" fill="none"><rect width="24" height="24" fill="none"/>
<path d="M22.2026 19.8621H1.79742C0.804703 19.8621 0 19.0574 0 18.0646V5.93536C0 4.94269 0.804703 4.13794 1.79742 4.13794H22.2026C23.1952 4.13794 24 4.94264 24 5.93536V18.0647C24 19.0574 23.1953 19.8621 22.2026 19.8621Z" fill="#F5F5F5"/>
<path d="M22.2026 4.13794H1.79742C0.804703 4.13794 0 4.94264 0 5.93536V12H24V5.93536C24 4.94264 23.1953 4.13794 22.2026 4.13794Z" fill="#FF4B55"/>
<path d="M0 11.9998H24V19.4481C24 19.6766 23.8147 19.8619 23.5862 19.8619H0.413813C0.185297 19.8619 0 19.6766 0 19.4481V11.9998Z" fill="#F5F5F5"/>
<path d="M3.40167 8.07459C3.40167 6.7139 4.4001 5.58595 5.70384 5.37726C5.77462 5.36592 5.77781 5.26856 5.70796 5.25244C5.38518 5.17823 5.04238 5.15709 4.68642 5.20556C3.28026 5.39709 2.19332 6.61397 2.17345 8.03297C2.15081 9.65325 3.45702 10.9726 5.06962 10.9726C5.28913 10.9726 5.50227 10.947 5.7074 10.8997C5.7772 10.8837 5.77368 10.7861 5.70299 10.7748C4.39977 10.5663 3.40167 9.44062 3.40167 8.07459Z" fill="#F5F5F5"/>
<path d="M5.7253 8.80264L5.60282 9.16995L5.21568 9.17295C5.16557 9.17338 5.14475 9.23731 5.18511 9.26708L5.49655 9.49709L5.37974 9.86624C5.36464 9.91405 5.41907 9.95356 5.4598 9.92441L5.7748 9.69927L6.0898 9.92441C6.13058 9.95356 6.18496 9.914 6.16986 9.86624L6.05305 9.49709L6.36449 9.26708C6.40485 9.23727 6.38403 9.17338 6.33393 9.17295L5.94678 9.16995L5.8243 8.80264C5.80841 8.75516 5.74114 8.75516 5.7253 8.80264Z" fill="#F5F5F5"/>
<path d="M7.63909 8.80264L7.5166 9.16995L7.12946 9.17295C7.07935 9.17338 7.05854 9.23731 7.0989 9.26708L7.41034 9.49709L7.29353 9.86624C7.27843 9.91405 7.33285 9.95356 7.37359 9.92441L7.68859 9.69927L8.00359 9.92441C8.04437 9.95356 8.09875 9.914 8.08365 9.86624L7.96684 9.49709L8.27828 9.26708C8.31864 9.23727 8.29782 9.17338 8.24771 9.17295L7.86057 9.16995L7.73809 8.80264C7.7222 8.75516 7.65498 8.75516 7.63909 8.80264Z" fill="#F5F5F5"/>
<path d="M6.69085 5.84931L6.56836 6.21662L6.18122 6.21962C6.13111 6.22 6.1103 6.28398 6.15066 6.31375L6.4621 6.54376L6.34528 6.9129C6.33019 6.96071 6.38461 7.00023 6.42535 6.97107L6.74035 6.74593L7.05535 6.97107C7.09613 7.00023 7.1505 6.96067 7.13541 6.9129L7.0186 6.54376L7.33003 6.31375C7.37039 6.28393 7.34958 6.22004 7.29947 6.21962L6.91233 6.21662L6.78985 5.84931C6.77396 5.80178 6.70669 5.80178 6.69085 5.84931Z" fill="#F5F5F5"/>
<path d="M5.16497 6.98081L5.04248 7.34813L4.65534 7.35113C4.60523 7.3515 4.58442 7.41549 4.62478 7.44525L4.93622 7.67527L4.8194 8.04441C4.80431 8.09222 4.85873 8.13173 4.89947 8.10258L5.21447 7.87744L5.52947 8.10258C5.57025 8.13173 5.62462 8.09217 5.60953 8.04441L5.49272 7.67527L5.8042 7.44525C5.84456 7.41544 5.82375 7.35155 5.77364 7.35113L5.3865 7.34813L5.26401 6.98081C5.24808 6.93323 5.18081 6.93323 5.16497 6.98081Z" fill="#F5F5F5"/>
<path d="M8.20379 6.98081L8.0813 7.34813L7.69416 7.35113C7.64405 7.3515 7.62324 7.41549 7.6636 7.44525L7.97504 7.67527L7.85822 8.04441C7.84313 8.09222 7.89755 8.13173 7.93829 8.10258L8.25329 7.87744L8.56829 8.10258C8.60907 8.13173 8.66344 8.09217 8.64835 8.04441L8.53154 7.67527L8.84297 7.44525C8.88333 7.41544 8.86252 7.35155 8.81241 7.35113L8.42527 7.34813L8.30279 6.98081C8.2869 6.93323 8.21963 6.93323 8.20379 6.98081Z" fill="#F5F5F5"/>
</svg>
