<svg xmlns="http://www.w3.org/2000/svg" width="24" height="24" viewBox="0 0 24 24" fill="none"><rect width="24" height="24" fill="none"/>
<path d="M22.2026 19.8621H1.79742C0.804703 19.8621 0 19.0574 0 18.0646V5.93536C0 4.94269 0.804703 4.13794 1.79742 4.13794H22.2026C23.1952 4.13794 24 4.94264 24 5.93536V18.0647C24 19.0574 23.1953 19.8621 22.2026 19.8621Z" fill="#4173CD"/>
<path d="M10.1493 16.1378C10.1145 16.756 10.5237 16.8322 10.7454 16.8355C10.9671 16.8389 11.303 16.9363 11.6154 17.0001C11.9278 17.064 12.0286 16.8052 12.0286 16.8052C12.2133 17.0471 12.3936 16.9732 12.3936 16.9732C12.5414 16.8254 12.9355 16.7515 13.09 16.7414C13.2445 16.7313 13.2076 16.5197 13.2076 16.5197C13.3695 16.4297 13.4791 16.3265 13.5574 16.2222C13.5608 16.2237 13.5637 16.2261 13.567 16.2275C13.8324 16.3417 14.0373 16.0999 14.081 16.0092C14.108 15.9531 14.1574 15.9283 14.1928 15.9162L14.2053 16.0562C14.3195 15.8916 14.5681 15.9521 14.5681 15.9521C14.3128 15.5591 14.0542 15.7405 14.0542 15.7405L14.1544 15.8357C14.0023 15.9123 13.912 16.2157 13.688 16.1268C13.6689 16.1192 13.6527 16.1083 13.6356 16.0982C13.726 15.9189 13.729 15.7498 13.7048 15.6532C13.6612 15.4785 13.3924 15.4382 13.2614 15.6162C13.1699 15.7407 13.2278 15.9329 13.3605 16.0771C13.2904 16.126 13.2009 16.1715 13.0834 16.2041C12.7206 16.3049 12.1764 15.8279 11.8003 15.8077C11.4241 15.7875 11.0948 16.1033 10.9067 16.3049C10.7186 16.5064 10.4662 16.3279 10.47 16.1974L10.1493 16.1378ZM13.4427 15.6867C13.5133 15.6565 13.5435 15.7102 13.5536 15.7975C13.5578 15.8341 13.5377 15.894 13.4884 15.9584C13.4107 15.8389 13.398 15.7059 13.4427 15.6867Z" fill="#73AF00"/>
<path d="M11.2147 16.8835L11.0141 16.9868L11.0701 16.8481L11.2147 16.8835Z" fill="#F5F5F5"/>
<path d="M11.0276 16.8356L10.8421 16.9311L10.8939 16.803L11.0276 16.8356Z" fill="#F5F5F5"/>
<path d="M10.8546 16.8008L10.7175 16.8781L10.7529 16.78L10.8546 16.8008Z" fill="#F5F5F5"/>
<path d="M12.3936 16.9733L12.1752 17.0301L12.2603 16.9071L12.3936 16.9733Z" fill="#F5F5F5"/>
<path d="M12.242 16.8926L12.0386 16.9387L12.1208 16.8275L12.242 16.8926Z" fill="#F5F5F5"/>
<path d="M12.1001 16.8181L11.9605 16.8907L11.9991 16.7939L12.1001 16.8181Z" fill="#F5F5F5"/>
<path d="M9.20756 9.36833C9.16479 9.39843 9.16196 9.46808 9.20124 9.52392C9.24052 9.57975 9.30704 9.60063 9.34981 9.57054C9.39258 9.54044 9.39541 9.47079 9.35613 9.41495C9.31685 9.35912 9.25033 9.33824 9.20756 9.36833Z" fill="#F5F5F5"/>
<path d="M14.65 9.57108C14.6928 9.60117 14.7593 9.58029 14.7986 9.52446C14.8379 9.46862 14.835 9.39897 14.7923 9.36887C14.7495 9.33878 14.683 9.35966 14.6437 9.41549C14.6044 9.47133 14.6073 9.54099 14.65 9.57108Z" fill="#F5F5F5"/>
<path d="M13.2981 11.517V13.9279C13.2981 14.6438 12.7157 15.2261 11.9999 15.2261C11.2842 15.2261 10.7018 14.6437 10.7018 13.9279V11.517H13.2981ZM14.0399 10.5897H9.95994C9.85752 10.5897 9.77451 10.6727 9.77451 10.7752V13.9279C9.77451 15.1569 10.7709 16.1534 11.9999 16.1534C13.229 16.1534 14.2254 15.157 14.2254 13.9279V10.7752C14.2254 10.6727 14.1424 10.5897 14.0399 10.5897Z" fill="#F5F5F5"/>
<path d="M10.7018 11.5174H9.77448V11.0039C9.77448 10.7754 9.95977 10.5901 10.1883 10.5901H10.7018V11.5174Z" fill="#FF4B55"/>
<path d="M12.4632 10.59H11.5359V11.5172H12.4632V10.59Z" fill="#FF4B55"/>
<path d="M10.7016 12.4448H9.77434V13.3721H10.7016V12.4448Z" fill="#FF4B55"/>
<path d="M14.2257 12.4448H13.2984V13.3721H14.2257V12.4448Z" fill="#FF4B55"/>
<path d="M14.2254 11.5174H13.2981V10.5901H13.8116C14.0401 10.5901 14.2254 10.7754 14.2254 11.0039V11.5174H14.2254Z" fill="#FF4B55"/>
<path d="M12.7889 16.0072L12.4321 15.1509C12.2967 15.199 12.1516 15.2265 12 15.2265C11.8483 15.2265 11.7032 15.1989 11.5678 15.1509L11.2111 16.0072C11.4566 16.1005 11.7218 16.1538 12 16.1538C12.2782 16.1538 12.5433 16.1004 12.7889 16.0072Z" fill="#FF4B55"/>
<path d="M10.3583 15.4271L11.0836 14.8469C10.9 14.6638 10.7719 14.4259 10.7237 14.1605L9.82974 14.4159C9.91576 14.8004 10.1016 15.1462 10.3583 15.4271Z" fill="#FF4B55"/>
<path d="M14.1701 14.4159L13.2761 14.1605C13.2279 14.4259 13.0998 14.6638 12.9163 14.8469L13.6416 15.427C13.8982 15.1461 14.084 14.8004 14.1701 14.4159Z" fill="#FF4B55"/>
<path d="M10.4237 10.7751H10.0528V11.3315H10.4237V10.7751Z" fill="#FFE15A"/>
<path d="M10.4237 12.629H10.0528V13.1854H10.4237V12.629Z" fill="#FFE15A"/>
<path d="M10.6093 14.4839H10.2384V15.0402H10.6093V14.4839Z" fill="#FFE15A"/>
<path d="M13.7617 14.4839H13.3907V15.0402H13.7617V14.4839Z" fill="#FFE15A"/>
<path d="M13.9473 10.7747H13.5764V11.331H13.9473V10.7747Z" fill="#FFE15A"/>
<path d="M10.4237 11.6962H10.0528V12.2526H10.4237V11.6962Z" fill="#FF4B55"/>
<path d="M13.9473 11.6959H13.5764V12.2523H13.9473V11.6959Z" fill="#FF4B55"/>
<path d="M10.4237 13.5353H10.0528V14.0916H10.4237V13.5353Z" fill="#FF4B55"/>
<path d="M11.2229 15.1755H10.852V15.7318H11.2229V15.1755Z" fill="#FF4B55"/>
<path d="M13.1471 15.1755H12.7762V15.7318H13.1471V15.1755Z" fill="#FF4B55"/>
<path d="M13.9473 13.5353H13.5764V14.0916H13.9473V13.5353Z" fill="#FF4B55"/>
<path d="M12.1853 10.7751H11.8144V11.3315H12.1853V10.7751Z" fill="#FFE15A"/>
<path d="M11.3045 10.7751H10.9336V11.3315H11.3045V10.7751Z" fill="#FF4B55"/>
<path d="M13.0511 10.7747H12.6802V11.331H13.0511V10.7747Z" fill="#FF4B55"/>
<path d="M13.9474 12.6296H13.5765V13.186H13.9474V12.6296Z" fill="#FFE15A"/>
<path d="M12.1853 15.4117H11.8144V15.968H12.1853V15.4117Z" fill="#FFE15A"/>
<path d="M12 11.8705C12.3579 11.8705 12.649 12.1616 12.649 12.5196C12.649 12.8775 12.3578 13.1686 12 13.1686C11.642 13.1686 11.3509 12.8775 11.3509 12.5196C11.3509 12.1616 11.642 11.8705 12 11.8705ZM12 11.7777C11.5903 11.7777 11.2581 12.1098 11.2581 12.5196C11.2581 12.9293 11.5902 13.2614 12 13.2614C12.4096 13.2614 12.7418 12.9293 12.7418 12.5196C12.7418 12.1099 12.4096 11.7777 12 11.7777Z" fill="#FFE15A"/>
<path d="M11.8879 12.4674C11.704 12.4674 11.5891 12.5192 11.5173 12.5835C11.5468 12.4379 11.6083 12.2819 11.7372 12.2819C11.7628 12.2819 11.7836 12.261 11.7836 12.2355C11.7836 12.21 11.7629 12.1892 11.7372 12.1892C11.6093 12.1892 11.5298 12.2782 11.48 12.39C11.4495 11.7818 11.355 11.7795 11.32 11.7795C11.2944 11.7795 11.2736 11.8004 11.2736 11.8259C11.2736 11.8482 11.2892 11.8667 11.3101 11.8712C11.3295 11.8943 11.3461 11.9723 11.3595 12.0805C11.2995 11.9531 11.2124 11.8607 11.0843 11.8607C11.0588 11.8607 11.038 11.8815 11.038 11.907C11.038 11.9325 11.0587 11.9534 11.0843 11.9534C11.211 11.9534 11.2887 12.1079 11.3351 12.2934C11.2462 12.1665 11.1119 12.0733 10.9144 12.0733C10.8888 12.0733 10.8681 12.0942 10.8681 12.1197C10.8681 12.1452 10.8888 12.166 10.9144 12.166C11.1195 12.166 11.2373 12.2843 11.3051 12.4211C11.2256 12.3537 11.1121 12.3051 10.9492 12.3051C10.9236 12.3051 10.9028 12.326 10.9028 12.3515C10.9028 12.377 10.9235 12.3978 10.9492 12.3978C11.3903 12.3978 11.3972 12.8129 11.3973 12.8307C11.3973 12.8374 11.4019 12.8422 11.4045 12.848C11.4068 12.853 11.4069 12.8593 11.4108 12.8632L11.4109 12.8633C11.4193 12.8717 11.4308 12.8769 11.4436 12.8769H11.4437C11.4485 12.8768 11.4516 12.8732 11.4559 12.8718C11.47 12.8674 11.4798 12.8578 11.4845 12.8438C11.486 12.8392 11.4899 12.836 11.49 12.8309C11.4901 12.8198 11.4979 12.5601 11.8879 12.5601C11.9135 12.5601 11.9343 12.5392 11.9343 12.5137C11.9343 12.4882 11.9136 12.4674 11.8879 12.4674Z" fill="#73AF00"/>
<path d="M12.1159 12.4674C12.2998 12.4674 12.4147 12.5192 12.4865 12.5835C12.457 12.4379 12.3956 12.2819 12.2666 12.2819C12.241 12.2819 12.2202 12.261 12.2202 12.2355C12.2202 12.21 12.241 12.1892 12.2666 12.1892C12.3945 12.1892 12.474 12.2782 12.5238 12.39C12.5544 11.7818 12.6488 11.7795 12.6838 11.7795C12.7094 11.7795 12.7302 11.8004 12.7302 11.8259C12.7302 11.8482 12.7146 11.8667 12.6937 11.8712C12.6743 11.8943 12.6577 11.9723 12.6443 12.0805C12.7043 11.9531 12.7915 11.8607 12.9195 11.8607C12.9451 11.8607 12.9658 11.8815 12.9658 11.907C12.9658 11.9325 12.9451 11.9534 12.9195 11.9534C12.7929 11.9534 12.7151 12.1079 12.6687 12.2934C12.7577 12.1665 12.8919 12.0733 13.0894 12.0733C13.115 12.0733 13.1358 12.0942 13.1358 12.1197C13.1358 12.1452 13.115 12.166 13.0894 12.166C12.8843 12.166 12.7666 12.2843 12.6987 12.4211C12.7782 12.3537 12.8917 12.3051 13.0547 12.3051C13.0803 12.3051 13.101 12.326 13.101 12.3515C13.101 12.377 13.0803 12.3978 13.0547 12.3978C12.6135 12.3978 12.6066 12.8129 12.6065 12.8307C12.6065 12.8374 12.6019 12.8422 12.5994 12.848C12.597 12.853 12.5969 12.8593 12.593 12.8632L12.5929 12.8633C12.5846 12.8717 12.573 12.8769 12.5602 12.8769H12.5601C12.5554 12.8768 12.5523 12.8732 12.5479 12.8718C12.5338 12.8674 12.524 12.8578 12.5194 12.8438C12.5178 12.8392 12.5139 12.836 12.5139 12.8309C12.5137 12.8198 12.5059 12.5601 12.1159 12.5601C12.0903 12.5601 12.0695 12.5392 12.0695 12.5137C12.0695 12.4882 12.0903 12.4674 12.1159 12.4674Z" fill="#73AF00"/>
<path d="M11.2844 12.705C11.367 13.0244 11.6547 13.2613 12 13.2613C12.3452 13.2613 12.6328 13.0244 12.7155 12.705H11.2844V12.705Z" fill="#FF4B55"/>
<path d="M12 13.2611C12.3453 13.2611 12.6329 13.0241 12.7156 12.7047H12V13.2611Z" fill="#FFE15A"/>
<path d="M12 13.5508C12.3579 13.5508 12.6491 13.842 12.6491 14.1999C12.6491 14.5579 12.3579 14.849 12 14.849C11.6421 14.849 11.3509 14.5579 11.3509 14.1999C11.3509 13.842 11.6421 13.5508 12 13.5508ZM12 13.4581C11.5903 13.4581 11.2582 13.7902 11.2582 14.2C11.2582 14.6097 11.5903 14.9418 12 14.9418C12.4097 14.9418 12.7418 14.6097 12.7418 14.2C12.7418 13.7902 12.4097 13.4581 12 13.4581Z" fill="#FFE15A"/>
<path d="M11.8879 14.1481C11.704 14.1481 11.5891 14.1999 11.5173 14.2642C11.5468 14.1186 11.6083 13.9626 11.7372 13.9626C11.7628 13.9626 11.7836 13.9418 11.7836 13.9163C11.7836 13.8907 11.7629 13.8699 11.7372 13.8699C11.6093 13.8699 11.5298 13.959 11.48 14.0707C11.4495 13.4626 11.355 13.4603 11.32 13.4603C11.2944 13.4603 11.2736 13.4811 11.2736 13.5066C11.2736 13.5289 11.2892 13.5474 11.3101 13.5519C11.3295 13.5751 11.3461 13.6531 11.3595 13.7612C11.2995 13.6338 11.2124 13.5414 11.0843 13.5414C11.0588 13.5414 11.038 13.5623 11.038 13.5878C11.038 13.6133 11.0587 13.6341 11.0843 13.6341C11.211 13.6341 11.2887 13.7886 11.3351 13.9742C11.2462 13.8473 11.1119 13.754 10.9144 13.754C10.8888 13.754 10.8681 13.7749 10.8681 13.8004C10.8681 13.8259 10.8888 13.8468 10.9144 13.8468C11.1195 13.8468 11.2373 13.9651 11.3051 14.1018C11.2256 14.0344 11.1121 13.9858 10.9492 13.9858C10.9236 13.9858 10.9028 14.0067 10.9028 14.0322C10.9028 14.0577 10.9235 14.0785 10.9492 14.0785C11.3903 14.0785 11.3972 14.4936 11.3973 14.5114C11.3973 14.5181 11.4019 14.5229 11.4045 14.5287C11.4068 14.5338 11.4069 14.54 11.4108 14.5439L11.4109 14.544C11.4193 14.5524 11.4308 14.5576 11.4436 14.5576H11.4437C11.4485 14.5576 11.4516 14.5539 11.4559 14.5525C11.47 14.5481 11.4798 14.5385 11.4845 14.5245C11.486 14.52 11.4899 14.5167 11.49 14.5116C11.4901 14.5006 11.4979 14.2408 11.8879 14.2408C11.9135 14.2408 11.9343 14.22 11.9343 14.1945C11.9343 14.1689 11.9136 14.1481 11.8879 14.1481Z" fill="#73AF00"/>
<path d="M12.1159 14.1482C12.2998 14.1482 12.4147 14.2 12.4865 14.2643C12.457 14.1186 12.3956 13.9627 12.2666 13.9627C12.241 13.9627 12.2202 13.9418 12.2202 13.9163C12.2202 13.8908 12.241 13.87 12.2666 13.87C12.3945 13.87 12.474 13.959 12.5238 14.0708C12.5544 13.4626 12.6488 13.4603 12.6838 13.4603C12.7094 13.4603 12.7302 13.4812 12.7302 13.5067C12.7302 13.529 12.7146 13.5475 12.6937 13.552C12.6743 13.5751 12.6577 13.6531 12.6443 13.7613C12.7043 13.6339 12.7915 13.5415 12.9195 13.5415C12.9451 13.5415 12.9658 13.5623 12.9658 13.5878C12.9658 13.6134 12.9451 13.6342 12.9195 13.6342C12.7929 13.6342 12.7151 13.7886 12.6687 13.9742C12.7577 13.8473 12.8919 13.7541 13.0894 13.7541C13.115 13.7541 13.1358 13.775 13.1358 13.8005C13.1358 13.826 13.115 13.8468 13.0894 13.8468C12.8843 13.8468 12.7666 13.9651 12.6987 14.1019C12.7782 14.0345 12.8917 13.9859 13.0547 13.9859C13.0803 13.9859 13.101 14.0067 13.101 14.0322C13.101 14.0578 13.0803 14.0786 13.0547 14.0786C12.6135 14.0786 12.6066 14.4937 12.6065 14.5115C12.6065 14.5182 12.6019 14.5229 12.5994 14.5287C12.597 14.5338 12.5969 14.5401 12.593 14.5439L12.5929 14.5441C12.5846 14.5525 12.573 14.5577 12.5602 14.5577H12.5601C12.5554 14.5576 12.5523 14.554 12.5479 14.5526C12.5338 14.5482 12.524 14.5386 12.5194 14.5246C12.5178 14.52 12.5139 14.5167 12.5139 14.5117C12.5137 14.5006 12.5059 14.2409 12.1159 14.2409C12.0903 14.2409 12.0695 14.22 12.0695 14.1945C12.0695 14.169 12.0903 14.1482 12.1159 14.1482Z" fill="#73AF00"/>
<path d="M11.2844 14.3857C11.367 14.7051 11.6547 14.942 12 14.942C12.3452 14.942 12.6328 14.7051 12.7155 14.3857H11.2844Z" fill="#FF4B55"/>
<path d="M12 14.942C12.3452 14.942 12.6328 14.7051 12.7155 14.3857H12V14.942Z" fill="#FFE15A"/>
<path d="M9.40355 11.146V10.7751H8.47631V11.146H8.6618V15.226H8.47631V15.5969H8.6618H9.21811H9.40355V15.226H9.21811V11.146H9.40355Z" fill="#F5F5F5"/>
<path d="M15.5236 11.1464V10.7755H14.5963V11.1464H14.7818V15.2264H14.5963V15.5974H14.7818H15.3381H15.5236V15.2264H15.3381V11.1464H15.5236Z" fill="#F5F5F5"/>
<path d="M14.04 10.5896H9.95996C9.75511 10.5896 9.58903 10.4235 9.58903 10.2187C9.58903 10.0139 9.75511 9.84778 9.95996 9.84778H14.04C14.2448 9.84778 14.4109 10.0139 14.4109 10.2187C14.4109 10.4235 14.2448 10.5896 14.04 10.5896Z" fill="#FFE15A"/>
<path d="M12.139 10.3579H11.8609C11.784 10.3579 11.7218 10.2956 11.7218 10.2188C11.7218 10.142 11.7841 10.0797 11.8609 10.0797H12.139C12.2159 10.0797 12.2781 10.142 12.2781 10.2188C12.2781 10.2956 12.2159 10.3579 12.139 10.3579Z" fill="#FF4B55"/>
<path d="M13.5299 10.3582H13.2517C13.1749 10.3582 13.1127 10.2959 13.1127 10.2192C13.1127 10.1423 13.175 10.0801 13.2517 10.0801H13.5299C13.6067 10.0801 13.669 10.1424 13.669 10.2192C13.669 10.2959 13.6067 10.3582 13.5299 10.3582Z" fill="#73AF00"/>
<path d="M10.7481 10.3579H10.47C10.3931 10.3579 10.3309 10.2956 10.3309 10.2188C10.3309 10.142 10.3932 10.0797 10.47 10.0797H10.7481C10.8249 10.0797 10.8872 10.142 10.8872 10.2188C10.8872 10.2956 10.8249 10.3579 10.7481 10.3579Z" fill="#73AF00"/>
<path d="M14.6041 9.07895L14.3336 9.17167L14.3597 9.42967C14.061 9.7691 13.9111 9.79099 13.8494 9.76952C13.773 9.74313 13.7378 9.63424 13.7235 9.5508L13.8352 9.66241C14.3915 9.10605 14.0728 8.28888 14.0728 8.28888C13.9163 8.31785 13.8467 8.46274 13.8467 8.46274C13.7018 8.45116 13.5512 8.46274 13.5512 8.46274C13.5396 8.59024 13.586 8.76986 13.586 8.76986C13.2679 8.83544 13.137 9.0078 13.137 9.0078C13.1916 9.16052 13.3658 9.29144 13.3658 9.29144C13.3137 9.41894 13.3774 9.5696 13.3774 9.5696C13.457 9.5696 13.5258 9.5456 13.5745 9.52206C13.3668 9.781 13.269 9.78719 13.2359 9.77472C13.1355 9.7375 13.1101 9.44111 13.1242 9.24255C13.1257 9.22225 13.1136 9.20336 13.0946 9.196C13.0758 9.18892 13.0541 9.19469 13.0415 9.21067L12.8815 9.41458C12.2141 8.52541 12.7418 7.99324 12.7418 7.99324V7.62231H12.5564V7.80775H12.3975V7.62231H12.2385V7.80775H12.0795V7.62231H11.9206V7.80775H11.7616V7.62231H11.6027V7.80775H11.4437V7.62231H11.2583V7.99324C11.2583 7.99324 11.786 8.52531 11.1186 9.41458L10.9587 9.21067C10.946 9.19455 10.9243 9.1886 10.9055 9.196C10.8865 9.20336 10.8745 9.2223 10.8759 9.24255C10.89 9.44111 10.8647 9.73746 10.7642 9.77472C10.731 9.78677 10.633 9.78081 10.4249 9.52117C10.4737 9.54508 10.5431 9.56964 10.6238 9.56964C10.6238 9.56964 10.6875 9.41899 10.6354 9.29149C10.6354 9.29149 10.8096 9.16056 10.8642 9.00785C10.8642 9.00785 10.7333 8.83549 10.4152 8.76991C10.4152 8.76991 10.4616 8.59028 10.45 8.46278C10.45 8.46278 10.2993 8.4512 10.1544 8.46278C10.1544 8.46278 10.0849 8.31789 9.92841 8.28892C9.92841 8.28892 9.60961 9.10605 10.166 9.66245L10.2764 9.55211C10.262 9.63546 10.2268 9.74331 10.1508 9.76961C10.0887 9.79113 9.93933 9.76924 9.64139 9.43089L9.66755 9.17181L9.39708 9.0791C9.258 8.65797 8.9257 8.70817 8.9257 8.70817C9.14592 8.8975 9.19228 9.38046 9.19228 9.38046L9.76411 9.93681L9.79505 9.84794C9.78225 9.77364 9.76238 9.71552 9.74096 9.66846C9.92035 9.83416 10.066 9.89758 10.1813 9.85717C10.2944 9.81799 10.3424 9.69011 10.3627 9.5936C10.5148 9.78156 10.637 9.87203 10.7391 9.87203C10.759 9.87203 10.7781 9.86856 10.7965 9.86167C10.9423 9.80772 10.9704 9.55047 10.9725 9.37858L11.073 9.50664V9.84794H11.8148C11.8148 9.74552 11.8978 9.6625 12.0002 9.6625C12.1027 9.6625 12.1857 9.74552 12.1857 9.84794H12.9275V9.50664L13.028 9.37858C13.03 9.55047 13.0583 9.80772 13.204 9.86167C13.2224 9.86856 13.2415 9.87203 13.2614 9.87203C13.3635 9.87203 13.4856 9.78147 13.6378 9.5936C13.6581 9.69011 13.7061 9.81799 13.8192 9.85717C13.935 9.89758 14.0812 9.83378 14.2612 9.667C14.2396 9.71435 14.2193 9.77289 14.2064 9.84799L14.2373 9.93686L14.8092 9.3805C14.8092 9.3805 14.8555 8.89755 15.0758 8.70822C15.0755 8.70803 14.7432 8.65783 14.6041 9.07895Z" fill="#FFE15A"/>
<path d="M11.3045 10.3579C11.2276 10.3579 11.1654 10.2956 11.1654 10.2188C11.1654 10.142 11.2277 10.0797 11.3045 10.0797C11.3813 10.0797 11.4435 10.142 11.4435 10.2188C11.4436 10.2956 11.3813 10.3579 11.3045 10.3579Z" fill="#F5F5F5"/>
<path d="M12.6954 10.3582C12.6186 10.3582 12.5563 10.2959 12.5563 10.2192C12.5563 10.1423 12.6186 10.0801 12.6954 10.0801C12.7722 10.0801 12.8345 10.1424 12.8345 10.2192C12.8345 10.2959 12.7722 10.3582 12.6954 10.3582Z" fill="#F5F5F5"/>
<path d="M14.0864 10.3582C14.0095 10.3582 13.9473 10.2959 13.9473 10.2192C13.9473 10.1423 14.0096 10.0801 14.0864 10.0801C14.1632 10.0801 14.2254 10.1424 14.2254 10.2192C14.2254 10.2959 14.1631 10.3582 14.0864 10.3582Z" fill="#FF4B55"/>
<path d="M9.91355 10.3579C9.83672 10.3579 9.77447 10.2956 9.77447 10.2188C9.77447 10.142 9.83676 10.0797 9.91355 10.0797C9.99037 10.0797 10.0526 10.142 10.0526 10.2188C10.0527 10.2956 9.99042 10.3579 9.91355 10.3579Z" fill="#FF4B55"/>
<path d="M12 8.92019C12.1024 8.92019 12.1854 8.83717 12.1854 8.73475C12.1854 8.63234 12.1024 8.54932 12 8.54932C11.8976 8.54932 11.8146 8.63234 11.8146 8.73475C11.8146 8.83717 11.8976 8.92019 12 8.92019Z" fill="#F5F5F5"/>
<path d="M10.1046 8.90482C10.0405 8.92101 10.0037 8.99451 10.0225 9.06899C10.0413 9.14346 10.1085 9.19071 10.1727 9.17452C10.2368 9.15833 10.2736 9.08483 10.2548 9.01035C10.236 8.93588 10.1688 8.88863 10.1046 8.90482Z" fill="#F5F5F5"/>
<path d="M13.829 9.17445C13.8932 9.19064 13.9604 9.14339 13.9792 9.06891C13.998 8.99444 13.9613 8.92094 13.8971 8.90475C13.8329 8.88855 13.7657 8.9358 13.7469 9.01028C13.7281 9.08475 13.7649 9.15825 13.829 9.17445Z" fill="#F5F5F5"/>
<path d="M9.77448 12.3833C9.59931 12.3502 9.36592 12.326 9.1097 12.353C8.85877 12.3795 8.56571 12.4575 8.29079 12.6442V13.8189C8.67465 12.8911 9.53068 13.0705 9.77443 13.1441V12.3833H9.77448V12.3833Z" fill="#F5F5F5"/>
<path d="M14.2254 12.3833C14.4006 12.3502 14.634 12.326 14.8902 12.353C15.1411 12.3795 15.4342 12.4575 15.7091 12.6442V13.8189C15.3252 12.8911 14.4692 13.0705 14.2255 13.1441V12.3833H14.2254V12.3833Z" fill="#F5F5F5"/>
<path d="M10.988 15.5225C10.988 15.5225 10.7882 15.8361 10.687 15.8665C10.687 15.8665 10.5499 15.9664 10.5221 15.9563L11.0032 15.3986L10.988 15.5225Z" fill="#FF4B55"/>
<path d="M10.9704 15.7036C10.8764 15.6935 10.8025 15.7472 10.7555 15.811C10.7085 15.8749 10.5818 15.8959 10.5687 15.813C10.5569 15.7384 10.8196 15.5053 10.8196 15.5053C10.8196 15.5053 10.776 15.4268 10.656 15.4573C10.5419 15.4864 10.4296 15.6699 10.4296 15.6699C10.4296 15.6699 10.3156 15.6253 10.224 15.7016L9.83175 16.1503C9.83175 16.1503 10.3135 16.5618 10.9268 15.9554L10.8227 15.9218C10.8562 15.7943 10.9704 15.7036 10.9704 15.7036Z" fill="#73AF00"/>
<path d="M10.3917 15.8646C10.4168 15.8646 10.4372 15.8442 10.4372 15.8191C10.4372 15.7939 10.4168 15.7736 10.3917 15.7736C10.3666 15.7736 10.3462 15.7939 10.3462 15.8191C10.3462 15.8442 10.3666 15.8646 10.3917 15.8646Z" fill="#F5F5F5"/>
<path d="M8.47629 7.88338C9.04596 7.88141 9.61128 7.98097 10.1454 8.17845V7.59734C9.60931 7.41252 9.04442 7.32477 8.47629 7.33864V7.88338Z" fill="#F5F5F5"/>
<path d="M13.1127 7.25123C12.3812 7.07563 11.6186 7.07563 10.8872 7.25123C10.8872 7.06579 10.8872 6.8803 10.8872 6.69487C11.6187 6.51927 12.3813 6.51927 13.1127 6.69487C13.1127 6.8803 13.1127 7.06574 13.1127 7.25123Z" fill="#F5F5F5"/>
<path d="M11.0727 6.82727C10.6189 6.86941 10.172 6.97568 9.74604 7.14579C9.77271 7.3293 9.79939 7.51286 9.82606 7.69638C10.2269 7.5363 10.6465 7.43397 11.0727 7.38705V6.82727Z" fill="#F5F5F5"/>
<path d="M8.29085 8.51857C8.54351 8.44802 8.80076 8.39604 9.06115 8.36745V7.80762C8.80109 7.83176 8.54384 7.87952 8.29085 7.94571V8.51857Z" fill="#F5F5F5"/>
<path d="M15.5236 7.88338C14.9539 7.88141 14.3886 7.98097 13.8545 8.17845V7.59734C14.3906 7.41252 14.9554 7.32477 15.5236 7.33864V7.88338V7.88338Z" fill="#F5F5F5"/>
<path d="M12.9272 6.82727C13.3809 6.86941 13.8278 6.97568 14.2538 7.14579C14.2271 7.3293 14.2004 7.51286 14.1738 7.69638C13.7729 7.5363 13.3533 7.43397 12.9272 7.38705V6.82727Z" fill="#F5F5F5"/>
<path d="M15.709 8.51857C15.4563 8.44802 15.1991 8.39604 14.9387 8.36745V7.80762C15.1988 7.83176 15.456 7.87952 15.709 7.94571V8.51857Z" fill="#F5F5F5"/>
</svg>
