<svg xmlns="http://www.w3.org/2000/svg" width="24" height="24" viewBox="0 0 24 24" fill="none"><rect width="24" height="24" fill="none"/>
<path d="M22.2026 19.8621H1.79742C0.804703 19.8621 0 19.0574 0 18.0646V5.93536C0 4.94269 0.804703 4.13794 1.79742 4.13794H22.2026C23.1952 4.13794 24 4.94264 24 5.93536V18.0647C24 19.0574 23.1953 19.8621 22.2026 19.8621Z" fill="#41479B"/>
<path d="M23.7836 18.9204L2.65842 12L23.7836 5.07967C23.636 4.80746 23.4198 4.57801 23.1586 4.41357L0 12L23.1586 19.5864C23.4199 19.422 23.636 19.1926 23.7836 18.9204Z" fill="#FF4B55"/>
<path d="M23.7836 18.9204C23.9216 18.6659 24 18.3744 24 18.0647V5.93541C24 5.62562 23.9216 5.3342 23.7836 5.07976L2.65842 12L23.7836 18.9204Z" fill="#F5F5F5"/>
<path d="M21.4736 9.96357C21.4736 9.96357 22.8906 10.0236 23.0227 9.91553C23.1548 9.80748 23.1788 9.08696 22.7105 8.97892C22.2421 8.87087 20.9693 9.56734 20.9693 9.56734L21.4736 9.96357Z" fill="#FFF5DC"/>
<path d="M18.6997 11.0803C18.6997 11.0803 18.6837 11.1204 18.6757 11.2965C18.6677 11.4726 18.6997 11.9289 19.2521 12.129L19.1241 12.6654L19.7084 13.0176C19.7084 13.0176 20.1408 12.3772 20.1648 11.8408C20.1887 11.3045 18.6997 11.0803 18.6997 11.0803Z" fill="#D27D69"/>
<path d="M16.9465 10.7201L17.1747 10.4919C17.1747 10.4919 16.7076 10.7769 16.5302 10.5199C16.2981 10.1838 16.6103 9.83149 16.9345 9.67535C17.2587 9.51925 17.9072 9.63935 17.9072 9.63935L18.3155 10.6841L17.0786 11.4646L16.9465 10.7201Z" fill="#D27D69"/>
<path d="M20.7772 8.72668L21.8819 8.59459C21.8819 8.59459 21.5578 9.06292 20.9213 9.41115C20.9213 9.41115 21.5818 9.41115 21.7739 9.63929C21.966 9.86743 21.5817 10.0836 21.4377 10.1557C21.2936 10.2277 20.0447 10.9962 20.0447 10.9962L18.9279 10.8641L20.7772 8.72668Z" fill="#D27D69"/>
<path d="M21.5977 7.87812C21.5977 7.87812 21.8378 7.31773 21.8298 6.92548L21.0213 7.48587C21.0213 7.48587 21.2054 7.39784 21.1414 7.07759L18.4995 8.51055L17.9632 9.46319L19.5963 9.96757L21.5977 7.87812Z" fill="#D27D69"/>
<path d="M19.6063 12.2451L19.3301 12.6834C19.3301 12.6834 18.8377 12.5754 18.6697 12.6954C18.5016 12.8155 18.4836 13.2659 18.7777 13.3019C18.7777 13.3019 18.9818 13.428 19.1019 13.3259C19.1019 13.3259 19.348 13.4219 19.3901 13.2658C19.4321 13.1097 19.3781 12.9776 19.3781 12.9776H19.5522L19.8584 12.4313L19.6063 12.2451Z" fill="#FFE15A"/>
<path d="M17.1386 11.2965C17.1386 11.2965 17.9071 10.9122 17.9071 10.3358C17.9071 9.75942 17.1946 9.72741 16.6183 9.91955C16.6183 9.91955 16.2741 9.64739 16.5623 9.37514C16.9573 9.00201 18.6757 8.22234 18.6757 8.22234L18.4836 9.183C18.4836 9.183 19.168 9.54328 19.4442 9.37514C19.6763 9.23386 21.9419 7.45383 21.9419 7.45383C21.9419 7.45383 21.7498 8.41448 20.4049 9.37514L20.2624 10.0877C20.2311 10.2442 20.1293 10.3776 19.9864 10.4489L19.4442 10.72C19.4442 10.72 20.9813 10.9121 20.9813 11.1043C20.9813 11.2964 20.597 12.2571 19.8285 12.6413L19.4442 12.257L19.6364 11.6806C19.6364 11.6806 19.0599 11.4885 18.6757 11.2963C18.6757 11.2963 18.0993 11.4885 17.715 11.4885C17.3308 11.4886 17.1386 11.2965 17.1386 11.2965Z" fill="#B95546"/>
<path d="M15.9859 12.2572V11.858C15.9859 11.7445 16.0309 11.6357 16.1112 11.5555L16.9466 10.7201L17.1387 11.1044H17.9072L17.7151 11.2965V11.4887L16.7544 12.0651L15.9859 12.2572Z" fill="#FFF5DC"/>
<path d="M16.3702 12.0649H15.986C15.986 12.0649 15.6017 12.6413 15.986 12.6413C15.986 12.6413 16.5624 12.2571 16.7545 12.0649C16.7545 12.0649 16.7545 11.8728 16.3702 12.0649Z" fill="#FFE15A"/>
<path d="M21.0568 12.9172H18.4007C18.3789 12.8936 18.3482 12.8784 18.3136 12.8784C18.3136 12.8784 17.8483 12.6855 17.7821 12.6855H17.7276C17.6615 12.6855 17.6078 12.7392 17.6078 12.8053V12.9172H17.0006V12.8053C17.0006 12.7392 16.947 12.6855 16.8808 12.6855H16.8263C16.7602 12.6855 16.7065 12.7392 16.7065 12.8053V12.8074C16.4463 12.7968 15.8899 12.7636 15.6017 12.6675L14.0647 13.0518L15.6017 13.4361C15.8898 13.34 16.4462 13.3068 16.7065 13.2962V13.2982C16.7065 13.3644 16.7601 13.418 16.8263 13.418H16.8808C16.947 13.418 17.0006 13.3644 17.0006 13.2982V13.1864H17.6078V13.2982C17.6078 13.3644 17.6614 13.418 17.7276 13.418H17.7821C17.8483 13.418 18.3136 13.2252 18.3136 13.2252C18.3482 13.2252 18.3789 13.21 18.4007 13.1864H21.0568C21.1312 13.1864 21.1914 13.1261 21.1914 13.0518C21.1915 12.9775 21.1312 12.9172 21.0568 12.9172Z" fill="#FFE15A"/>
<path d="M20.9413 13.4338C20.7812 13.4018 18.948 13.722 18.948 13.722C18.948 13.722 18.8359 13.61 19.1721 13.2977L19.012 13.2577C19.012 13.2577 18.6598 13.5058 18.5156 13.5379C18.3916 13.5654 18.1143 13.7002 18.0547 13.8802L16.9385 14.0662L16.9625 14.1623L18.0574 14.0339C18.1097 14.2021 18.2817 14.2364 18.4035 14.1863C18.4035 14.1863 18.5636 14.2503 18.7077 14.1382C18.7077 14.1382 18.9959 14.1863 19.0119 13.9221L21.0213 13.6179C21.0214 13.618 21.1015 13.4659 20.9413 13.4338Z" fill="#FFE15A"/>
<path d="M19.8045 14.7868C19.8045 14.7868 19.6524 14.9869 19.2762 14.8108C18.9 14.6347 18.4596 14.8268 18.2195 14.7708C17.9793 14.7147 17.619 14.5707 17.2829 14.6987C16.9467 14.8268 16.7625 14.8188 16.8345 14.6587C16.9066 14.4986 16.9466 14.3785 16.8345 14.3225L16.9626 14.1624L16.9386 14.0663C16.9386 14.0663 16.2982 13.8182 15.8659 14.1624C15.4336 14.5066 15.5618 15.2912 16.2822 15.3472C16.2822 15.3472 16.5064 15.6274 17.0588 15.5473C17.0588 15.5473 17.419 15.7955 18.0354 15.6834C18.0354 15.6834 18.0594 15.7554 18.4597 15.7234C18.86 15.6914 19.3083 15.7394 19.2282 16.0116C19.2282 16.0116 19.5244 15.9556 19.3483 15.6833C19.3483 15.6833 19.7005 15.6673 19.9407 15.8755C19.9407 15.8755 19.9568 15.6353 19.7246 15.5072C19.7246 15.5072 20.1169 15.3711 20.333 15.5072C20.333 15.5072 20.1889 15.203 19.8046 15.243C19.8046 15.243 20.0848 15.0189 20.2129 15.0749C20.2129 15.0749 20.0928 14.9308 19.7406 15.0749C19.7405 15.0749 19.9647 14.9389 19.8045 14.7868Z" fill="#FFE15A"/>
</svg>
