<svg xmlns="http://www.w3.org/2000/svg" width="24" height="24" viewBox="0 0 24 24" fill="none"><rect width="24" height="24" fill="none"/>
<path d="M22.2026 19.8621H1.79742C0.804703 19.8621 0 19.0574 0 18.0646V5.93535C0 4.94268 0.804703 4.13793 1.79742 4.13793H22.2026C23.1952 4.13793 24 4.94264 24 5.93535V18.0647C24 19.0574 23.1953 19.8621 22.2026 19.8621Z" fill="#73AF00"/>
<path d="M18.2068 9.51703H15.3103V19.8619H18.2068V9.51703Z" fill="#FF4B55"/>
<path d="M21.1033 9.51703H18.2067V19.8619H21.1033V9.51703Z" fill="#464655"/>
<path d="M21.1035 19.862H22.2026C23.1953 19.862 24 19.0573 24 18.0645V9.51712H21.1035V19.862Z" fill="#FF9B55"/>
<path d="M23.2946 6.04022C23.3036 6.02208 23.2993 6.00015 23.2841 5.98674C23.2689 5.97329 23.2465 5.97188 23.2297 5.98304C23.146 6.03858 23.0617 6.08907 22.978 6.13486C23.2473 5.91225 23.2851 5.71894 23.2875 5.70488C23.2906 5.68721 23.2827 5.66939 23.2676 5.65969C23.2525 5.64989 23.2331 5.65018 23.2182 5.66025C22.9273 5.8576 22.6361 5.99846 22.385 6.0976C22.7222 5.88455 22.8558 5.66719 22.864 5.65346C22.8745 5.63583 22.8717 5.61329 22.8571 5.5988C22.8426 5.58427 22.8201 5.5816 22.8024 5.59215C22.5332 5.75443 22.2144 5.88235 21.9097 5.98093C21.9501 5.91849 21.9789 5.84836 21.9531 5.80894C21.929 5.77243 21.8851 5.77243 21.8225 5.80908C21.6956 5.88343 20.7345 6.12844 20.362 6.21971C19.9824 6.15113 19.6679 6.24839 19.5699 6.28435C19.5437 6.25327 19.5318 6.22318 19.5268 6.19965C19.5187 6.16135 19.5246 6.12244 19.5427 6.09549C19.5722 6.05157 19.6333 6.04735 19.6871 6.04365C19.7106 6.04205 19.7315 6.0406 19.7498 6.036C19.7615 6.03947 19.7758 6.04622 19.7756 6.05147C19.7745 6.07191 19.7874 6.09038 19.8069 6.09652C19.8264 6.10261 19.8475 6.09483 19.8583 6.07744C19.861 6.07304 19.9244 5.96939 19.8753 5.88113C19.8397 5.81696 19.7578 5.78321 19.6319 5.78077C19.5802 5.74472 19.385 5.62735 19.1444 5.71805C18.9008 5.80997 18.7926 6.06019 18.7569 6.16594C18.5672 6.1396 17.6967 6.00675 17.2234 5.72893C17.2004 5.71847 17.1219 5.68763 17.078 5.72944C17.051 5.75499 17.0479 5.79465 17.0685 5.84738C17.0795 5.87532 17.0963 5.9026 17.1186 5.92941C16.8653 5.81311 16.5237 5.65069 16.2656 5.50627C16.2252 5.48757 16.1519 5.46216 16.1141 5.50177C16.0904 5.52671 16.0907 5.56289 16.1152 5.60949C16.1203 5.61933 16.1254 5.6303 16.131 5.64235C16.1561 5.69649 16.1904 5.77032 16.2741 5.85554C16.2115 5.82136 16.1551 5.78621 16.1099 5.75105C15.8833 5.57475 15.8526 5.5575 15.812 5.58488C15.7771 5.60841 15.7884 5.64821 15.8003 5.69035L15.8034 5.70146C15.8133 5.73647 15.8294 5.79291 15.8734 5.86097C15.8383 5.83707 15.8081 5.83219 15.7843 5.84879C15.7702 5.85858 15.7488 5.88296 15.7652 5.93668C15.8047 6.06516 16.077 6.40346 16.595 6.50307C16.5429 6.51066 16.4881 6.51629 16.4353 6.51736C16.4153 6.51779 16.3979 6.53152 16.3929 6.55097C16.3879 6.57043 16.3965 6.59091 16.4139 6.6009C16.4234 6.60633 16.6065 6.7088 16.9422 6.70018C16.892 6.71283 16.835 6.72258 16.772 6.72633C16.7524 6.7275 16.7359 6.74129 16.7312 6.76032C16.7265 6.77935 16.7348 6.79922 16.7515 6.80935C16.7615 6.8154 16.9563 6.92996 17.258 6.91304L17.2317 6.92921C17.2165 6.93854 17.2083 6.95583 17.2108 6.97341C17.2132 6.99099 17.2258 7.00552 17.2428 7.01039C17.2523 7.01307 17.4223 7.06041 17.6341 7.038L17.5968 7.06449C17.5819 7.07513 17.5749 7.09383 17.5793 7.1116C17.5837 7.12941 17.5984 7.14277 17.6166 7.1453C17.6205 7.14586 17.6478 7.14938 17.6917 7.14938C17.7206 7.14938 17.7567 7.14779 17.7979 7.14277C17.7969 7.15346 17.7982 7.1641 17.8017 7.17469C17.8229 7.23849 17.9169 7.25391 17.9481 7.25433C17.95 7.25438 17.9519 7.25438 17.9538 7.25438C17.9916 7.25438 18.0316 7.24904 18.0723 7.24093C18.1376 7.30191 18.2568 7.29633 18.3725 7.26943C18.3656 7.27983 18.3604 7.29024 18.3571 7.3005C18.3505 7.32165 18.3556 7.34321 18.3707 7.3583C18.3854 7.37288 18.4209 7.40818 18.7441 7.31724C18.7428 7.31827 18.7415 7.3193 18.7401 7.32033C18.6971 7.35361 18.6999 7.38797 18.7053 7.4055C18.7252 7.46907 18.8678 7.5098 19.1265 7.52714C19.1322 7.67105 19.0923 7.82733 19.0918 7.82907C19.0873 7.84627 19.0935 7.86455 19.1075 7.87557C19.1214 7.88649 19.1406 7.88818 19.1564 7.87979C19.1713 7.87172 19.1862 7.86132 19.2003 7.85011L19.1991 7.89769C19.1986 7.91499 19.2081 7.93097 19.2235 7.93875C19.23 7.94204 19.2369 7.94363 19.2438 7.94363C19.2456 7.94363 19.2473 7.94302 19.249 7.94279C19.2442 7.98333 19.2277 8.03175 19.1758 8.04315C19.1522 8.0483 19.1272 8.05083 19.103 8.05332C18.9928 8.06461 18.868 8.07741 18.8483 8.32983C18.8468 8.34877 18.8574 8.36663 18.8748 8.37432C18.8921 8.38191 18.9124 8.37788 18.9255 8.3641L18.9735 8.3131C19.0017 8.32004 19.0466 8.32716 19.0948 8.31938C19.0827 8.37779 19.0862 8.44969 19.1447 8.51068C19.1574 8.52385 19.1768 8.52802 19.1937 8.52122C19.2107 8.51438 19.2218 8.49793 19.2218 8.47969V8.44735C19.2496 8.44088 19.2865 8.42738 19.3214 8.39963C19.3418 8.44374 19.3808 8.49549 19.4551 8.53918C19.4621 8.5433 19.47 8.54532 19.4777 8.54532C19.488 8.54532 19.4982 8.5418 19.5063 8.53496C19.5209 8.52291 19.5263 8.50299 19.5198 8.48518L19.4964 8.42086C19.5127 8.40479 19.5339 8.38177 19.5524 8.35721C19.5616 8.37052 19.5769 8.37816 19.5933 8.37657C19.6104 8.37493 19.625 8.36372 19.631 8.34769L19.6474 8.30386C19.6571 8.30119 19.6664 8.29796 19.6753 8.29435C19.6863 8.39133 19.7609 8.47205 19.7654 8.47683C19.7739 8.48593 19.7858 8.49094 19.798 8.49094C19.8016 8.49094 19.8053 8.49052 19.8089 8.48958C19.8247 8.4856 19.837 8.47346 19.8413 8.45775L19.8662 8.36466C19.9323 8.33115 19.9388 8.27054 19.9428 8.23275C19.9436 8.22535 19.9448 8.21508 19.9449 8.20988C19.9708 8.22258 20.0255 8.28408 20.0668 8.34788C20.075 8.36054 20.0891 8.36832 20.1042 8.36836C20.1196 8.36729 20.1334 8.36091 20.1418 8.3483C20.1418 8.3483 20.1768 8.29533 20.1938 8.26444C20.266 8.13343 20.1566 8.05496 20.1041 8.01727C20.0912 8.00799 20.0735 7.99533 20.0707 7.99182C20.0608 7.96782 20.0642 7.94546 20.0708 7.92811C20.1146 7.9583 20.1644 7.98375 20.2196 7.99674C20.223 7.99758 20.2264 7.99791 20.2298 7.99791C20.2442 7.99791 20.258 7.99093 20.2665 7.97879C20.277 7.96379 20.2773 7.94386 20.2673 7.92858C20.2663 7.92704 20.1839 7.80038 20.1309 7.64461C20.2165 7.69491 20.3326 7.75561 20.3927 7.75561C20.434 7.75561 20.4498 7.72993 20.4547 7.71891C20.4576 7.71244 20.4627 7.70072 20.4586 7.67879C20.5383 7.72182 20.6281 7.75519 20.6964 7.73757C20.7166 7.73241 20.7639 7.72018 20.7711 7.67775C20.7747 7.65629 20.7675 7.6389 20.7516 7.62179C20.8256 7.63974 20.9053 7.64869 20.9836 7.63833C21.0488 7.62975 21.068 7.59811 21.0726 7.57304C21.0756 7.557 21.0808 7.52621 21.0226 7.46799C21.135 7.46185 21.2353 7.43729 21.2436 7.3695C21.2443 7.36341 21.2431 7.35788 21.2426 7.35216C21.6038 7.31279 21.8785 7.08694 21.8907 7.07677C21.8942 7.07382 21.8966 7.07016 21.899 7.06646C22.1176 7.03913 22.3659 6.98977 22.567 6.89939C22.9464 6.72882 23.1385 6.49852 23.1041 6.41494C23.0941 6.39061 23.0655 6.37304 23.0301 6.38625C23.0201 6.38996 23 6.39811 22.9737 6.4088C23.1984 6.22632 23.2862 6.0571 23.2946 6.04022Z" fill="#FF9B55"/>
<path d="M23.2946 6.04022C23.3036 6.02208 23.2993 6.00014 23.2841 5.98673C23.2688 5.97328 23.2465 5.97187 23.2297 5.98303C23.146 6.03862 23.0616 6.08906 22.978 6.13486C23.2473 5.91225 23.2851 5.71894 23.2875 5.70487C23.2905 5.6872 23.2827 5.66934 23.2676 5.65969C23.2525 5.64989 23.2331 5.65012 23.2182 5.66025C22.9273 5.85759 22.6361 5.99845 22.385 6.09759C22.7222 5.88455 22.8558 5.66723 22.864 5.6535C22.8745 5.63587 22.8717 5.61333 22.8571 5.5988C22.8426 5.58426 22.8201 5.58159 22.8024 5.59219C22.5332 5.75447 22.2144 5.88239 21.9097 5.98101C21.9501 5.91858 21.9789 5.84845 21.9531 5.80903C21.929 5.77247 21.8851 5.77247 21.8225 5.80917C21.6956 5.88351 20.7345 6.12853 20.362 6.2198C19.9824 6.15122 19.6679 6.24848 19.5699 6.28444C19.5438 6.25336 19.5319 6.22326 19.5268 6.19978C19.5187 6.16148 19.5246 6.12258 19.5427 6.09562C19.5722 6.0517 19.6333 6.04753 19.6871 6.04378C19.7105 6.04219 19.7314 6.04073 19.7498 6.03619C19.7615 6.03961 19.7758 6.0464 19.7756 6.05161C19.7746 6.07205 19.7874 6.09051 19.8069 6.09665C19.8265 6.10275 19.8475 6.09497 19.8584 6.07758C19.8612 6.07322 19.9244 5.96953 19.8754 5.88126C19.8398 5.81709 19.7579 5.78334 19.6319 5.7809C19.5802 5.74486 19.385 5.62748 19.1445 5.71819C18.9008 5.81006 18.7927 6.06033 18.7569 6.16608C18.5673 6.13973 17.6967 6.00689 17.2234 5.72906C17.2005 5.71861 17.1219 5.68786 17.078 5.72958C17.0511 5.75512 17.0479 5.79478 17.0685 5.84751C17.0795 5.87545 17.0963 5.90273 17.1187 5.92955C16.8653 5.81325 16.5238 5.65083 16.2656 5.50641C16.2252 5.4877 16.1519 5.46225 16.1141 5.50191C16.0905 5.52684 16.0907 5.56308 16.1152 5.60962C16.1204 5.61947 16.1254 5.63044 16.131 5.64248C16.1561 5.69662 16.1903 5.77045 16.2741 5.85576C16.2116 5.82159 16.1551 5.78644 16.11 5.75128C15.8834 5.57498 15.8526 5.55773 15.8121 5.58511C15.7771 5.60869 15.7884 5.64844 15.8003 5.69058L15.8035 5.70169C15.8133 5.7367 15.8294 5.79314 15.8734 5.8612C15.8383 5.8373 15.8081 5.83242 15.7844 5.84901C15.7702 5.85872 15.7489 5.88319 15.7653 5.9369C15.8047 6.06539 16.077 6.40359 16.5951 6.5033C16.543 6.51089 16.4883 6.51651 16.4354 6.51759C16.4153 6.51801 16.3979 6.53175 16.3929 6.5512C16.388 6.57066 16.3966 6.59109 16.414 6.60112C16.4235 6.60656 16.6065 6.70903 16.9423 6.70031C16.8921 6.71297 16.8351 6.72276 16.7721 6.72647C16.7525 6.72759 16.7359 6.74142 16.7312 6.76045C16.7266 6.77948 16.7348 6.79936 16.7516 6.80948C16.7616 6.81553 16.9564 6.93014 17.2581 6.91317L17.2318 6.92934C17.2167 6.93867 17.2084 6.95597 17.2109 6.97355C17.2133 6.99112 17.2259 7.00565 17.2429 7.01053C17.2523 7.0132 17.4224 7.0605 17.6341 7.03814L17.5969 7.06462C17.582 7.07526 17.575 7.09397 17.5794 7.11178C17.5838 7.12959 17.5985 7.14295 17.6167 7.14544C17.6205 7.146 17.648 7.14956 17.6918 7.14956C17.7208 7.14956 17.7569 7.14797 17.798 7.14295C17.7971 7.15364 17.7983 7.16433 17.8019 7.17487C17.8231 7.23867 17.917 7.25409 17.9483 7.25451C17.9502 7.25451 17.952 7.25451 17.9539 7.25451C17.9918 7.25451 18.0316 7.24917 18.0725 7.24106C18.1378 7.30205 18.257 7.29647 18.3726 7.26956C18.3658 7.27997 18.3606 7.29037 18.3572 7.30069C18.3506 7.32183 18.3556 7.34339 18.3708 7.35848C18.3856 7.37306 18.421 7.40831 18.7443 7.31742C18.7429 7.3185 18.7416 7.31948 18.7403 7.32056C18.6973 7.35384 18.7 7.3882 18.7055 7.40573C18.7253 7.4693 18.8679 7.51003 19.1266 7.52737C19.1324 7.67128 19.0923 7.82756 19.092 7.8293C19.0875 7.8465 19.0936 7.86478 19.1076 7.8758C19.1216 7.88672 19.1408 7.8884 19.1565 7.88001C19.1715 7.87195 19.1864 7.86155 19.2004 7.85034L19.1992 7.89787C19.1987 7.91517 19.2083 7.93115 19.2237 7.93894C19.2301 7.94222 19.237 7.94381 19.244 7.94381C19.2458 7.94381 19.2474 7.94316 19.2492 7.94292C19.2443 7.98347 19.2279 8.03189 19.1759 8.04328C19.1523 8.04844 19.1273 8.05097 19.1031 8.05345C18.9929 8.06475 18.8681 8.07755 18.8483 8.33001C18.8469 8.34895 18.8575 8.36672 18.8749 8.37445C18.8922 8.382 18.9125 8.37801 18.9255 8.36423L18.9735 8.31323C19.0017 8.32017 19.0467 8.32725 19.0948 8.31951C19.0827 8.37792 19.0863 8.44983 19.1447 8.51081C19.1574 8.52398 19.1768 8.52816 19.1938 8.52136C19.2107 8.51451 19.2218 8.49806 19.2218 8.47983V8.44748C19.2496 8.44101 19.2865 8.42751 19.3214 8.39976C19.3418 8.44387 19.3808 8.49567 19.455 8.53931C19.4621 8.54344 19.47 8.5455 19.4777 8.5455C19.488 8.5455 19.4982 8.54198 19.5064 8.53514C19.5209 8.52309 19.5263 8.50317 19.5198 8.48545L19.4964 8.42109C19.5128 8.40501 19.534 8.38205 19.5525 8.35748C19.5616 8.3708 19.577 8.37844 19.5934 8.37684C19.6104 8.3752 19.625 8.364 19.6311 8.34797L19.6475 8.30414C19.6572 8.30147 19.6665 8.29823 19.6754 8.29462C19.6864 8.39161 19.761 8.47233 19.7655 8.47711C19.774 8.48625 19.7859 8.49122 19.798 8.49122C19.8017 8.49122 19.8053 8.4908 19.809 8.48986C19.8248 8.48587 19.8371 8.47373 19.8413 8.45803L19.8662 8.36494C19.9323 8.33147 19.9388 8.27081 19.9428 8.23303C19.9436 8.22562 19.9448 8.21536 19.9449 8.21015C19.9708 8.22286 20.0255 8.28436 20.0668 8.34815C20.075 8.36081 20.0891 8.36859 20.1042 8.36864C20.1196 8.36756 20.1334 8.36114 20.1418 8.34853C20.1418 8.34853 20.1768 8.29561 20.1938 8.26467C20.266 8.13366 20.1566 8.05519 20.1041 8.0175C20.0912 8.00822 20.0735 7.99556 20.0707 7.99205C20.0608 7.96805 20.0642 7.94569 20.0707 7.92834C20.1145 7.95853 20.1644 7.98398 20.2195 7.99697C20.223 7.99781 20.2264 7.99814 20.2298 7.99814C20.2441 7.99814 20.2579 7.99115 20.2664 7.97901C20.277 7.96401 20.2772 7.94409 20.2672 7.92881C20.2662 7.92726 20.1839 7.80061 20.1308 7.64484C20.2166 7.69505 20.3325 7.75584 20.3927 7.75584C20.434 7.75584 20.4497 7.73016 20.4546 7.71914C20.4575 7.71267 20.4626 7.70095 20.4586 7.67901C20.5382 7.72209 20.6281 7.75542 20.6963 7.7378C20.7165 7.73259 20.7638 7.72036 20.771 7.67798C20.7746 7.65647 20.7674 7.63917 20.7515 7.62201C20.8255 7.63997 20.9052 7.64892 20.9834 7.63856C21.0486 7.62994 21.0679 7.59834 21.0725 7.57326C21.0755 7.55723 21.0807 7.52644 21.0225 7.46822C21.1349 7.46208 21.2352 7.43751 21.2435 7.36973C21.2443 7.36364 21.2431 7.35811 21.2425 7.35239C21.6037 7.31301 21.8784 7.08717 21.8906 7.077C21.8941 7.07405 21.8965 7.07039 21.8989 7.06669C22.1175 7.0394 22.3658 6.99005 22.5669 6.89967C22.9463 6.72909 23.1384 6.4988 23.104 6.41522C23.094 6.39089 23.0654 6.37326 23.03 6.38653C23.0201 6.39023 22.9999 6.39839 22.9736 6.40912C23.1983 6.22631 23.2862 6.05709 23.2946 6.04022ZM22.6351 5.78601C22.4702 5.94736 22.1595 6.17939 21.6472 6.31401C21.6427 6.31519 21.6389 6.31748 21.6352 6.31983C21.5274 6.31144 21.3912 6.2918 21.2718 6.24717C21.6504 6.1613 22.1824 6.01336 22.6351 5.78601ZM20.3551 6.30947C20.3615 6.31059 20.3678 6.31045 20.374 6.30895C20.4273 6.29592 21.6607 5.99344 21.8587 5.8913C21.8357 5.93667 21.7915 6.00023 21.7553 6.02676C21.7543 6.02747 21.7538 6.02864 21.7529 6.02944C21.2218 6.18708 20.7711 6.25355 20.7637 6.25458C20.7392 6.25809 20.7222 6.28078 20.7257 6.30525C20.7292 6.32972 20.7518 6.34669 20.7764 6.34322C20.7804 6.34261 20.9173 6.3225 21.1275 6.27862C21.2363 6.34101 21.37 6.37542 21.4918 6.39403C21.3098 6.40941 21.1415 6.40059 21.1387 6.40045C21.1175 6.39965 21.0968 6.41442 21.0924 6.43612C21.0879 6.45783 21.1 6.47958 21.1208 6.48717L21.2902 6.54923C21.0521 6.5999 20.8225 6.55233 20.8198 6.55176C20.8014 6.54769 20.7827 6.5557 20.7727 6.57141C20.7626 6.58711 20.7633 6.60745 20.7745 6.62236C20.8069 6.66548 20.8981 6.71081 20.9777 6.74423C20.6503 6.8062 20.425 6.60553 20.4144 6.59587C20.3962 6.57928 20.368 6.58045 20.3513 6.59855C20.3347 6.61664 20.3356 6.64476 20.3536 6.66159C20.6122 6.90361 21.0941 7.00669 21.3105 7.04217C21.2784 7.06111 21.2398 7.07897 21.1994 7.08619C21.0333 7.11567 20.65 6.93333 20.3803 6.78581L20.1643 6.66117C20.1431 6.64889 20.1159 6.65601 20.1034 6.67701C20.0909 6.69806 20.0976 6.7253 20.1184 6.73809C20.1288 6.74447 20.2135 6.79631 20.3339 6.86245L20.8596 7.16587C20.6983 7.1858 20.5281 7.1497 20.526 7.14923C20.5247 7.14895 20.5235 7.14933 20.5222 7.14919C20.3991 7.06266 20.2005 6.91697 19.9024 6.66975C19.8544 6.49847 19.7645 6.42323 19.652 6.35175C19.7792 6.3127 20.0476 6.25181 20.3551 6.30947ZM20.6801 7.25892C20.6798 7.25901 20.6796 7.25925 20.6793 7.25934C20.6793 7.25934 20.6789 7.25901 20.6787 7.25887C20.6792 7.25887 20.6797 7.25892 20.6801 7.25892ZM17.7635 7.05586L17.8659 6.98297C17.8841 6.97003 17.89 6.94561 17.8797 6.92583C17.8693 6.90595 17.8459 6.89691 17.8249 6.90431C17.6557 6.96473 17.4844 6.95859 17.3772 6.94481L17.4958 6.87183C17.5147 6.8602 17.5222 6.83648 17.5134 6.81605C17.5048 6.79565 17.4825 6.78473 17.4609 6.79036C17.245 6.84703 17.0653 6.8235 16.9476 6.79101C17.1346 6.74733 17.2433 6.66455 17.249 6.66014C17.2654 6.64748 17.2709 6.62522 17.2624 6.60633C17.2539 6.58748 17.2336 6.57712 17.2133 6.58073C16.9667 6.62719 16.7763 6.61186 16.6484 6.58542C16.7805 6.56325 16.8855 6.5317 16.892 6.52973C16.8928 6.52955 16.8933 6.52889 16.894 6.52865C16.8971 6.52758 16.8996 6.52584 16.9023 6.5242C16.9046 6.52275 16.9069 6.52158 16.9089 6.5198C16.911 6.51783 16.9125 6.51548 16.9143 6.51314C16.916 6.51084 16.9178 6.50878 16.919 6.50625C16.9201 6.50381 16.9207 6.50114 16.9214 6.49856C16.9223 6.49551 16.9231 6.49266 16.9233 6.48947C16.9233 6.48876 16.9238 6.48811 16.9238 6.48736C16.9238 6.48501 16.9228 6.48295 16.9224 6.4807C16.9221 6.4785 16.9225 6.47625 16.9218 6.474C16.9216 6.4733 16.921 6.47283 16.9208 6.47212C16.9197 6.46912 16.918 6.46659 16.9164 6.46392C16.9149 6.46158 16.9138 6.45914 16.9119 6.45712C16.91 6.45501 16.9077 6.45351 16.9054 6.45178C16.9031 6.45 16.901 6.44817 16.8983 6.4469C16.896 6.44578 16.8933 6.44526 16.8907 6.44456C16.8877 6.44367 16.8848 6.44278 16.8816 6.44259C16.8808 6.44255 16.8802 6.44212 16.8795 6.44212C16.3043 6.43673 15.9868 6.13416 15.8851 5.97975C16.0643 6.10462 16.2998 6.21061 16.4713 6.27145H16.4714C16.6995 6.35953 16.9837 6.41564 16.9958 6.41798C17.0199 6.42267 17.0436 6.40697 17.0483 6.38264C17.0531 6.35836 17.0372 6.33483 17.013 6.33009C17.01 6.32953 16.7234 6.273 16.5024 6.18745C16.0259 6.00305 15.9293 5.80331 15.8971 5.70244C15.9487 5.73905 16.0178 5.7929 16.0549 5.82173C16.3339 6.03867 16.9829 6.24384 17.0104 6.25251C17.034 6.25997 17.0588 6.24703 17.0664 6.22369C17.074 6.20034 17.0615 6.17526 17.0383 6.16734C16.3672 5.93873 16.2664 5.72137 16.2122 5.60466C16.2075 5.59453 16.2031 5.58506 16.1988 5.57625C16.2078 5.57906 16.2173 5.58253 16.2249 5.58595C16.5969 5.79412 17.1437 6.04064 17.3504 6.13214C17.3132 6.15005 17.2742 6.165 17.2484 6.16645C17.2312 6.16744 17.216 6.17817 17.2095 6.19425C17.2029 6.21023 17.2061 6.22856 17.2178 6.24131C17.2205 6.24431 17.2643 6.29133 17.3496 6.30975L17.2891 6.34917C17.2749 6.35845 17.2672 6.37495 17.2691 6.39178C17.2711 6.40866 17.2823 6.42295 17.2982 6.42876C17.3024 6.43026 17.3715 6.45459 17.4628 6.4642L17.4124 6.50091C17.3996 6.51023 17.3928 6.52561 17.3943 6.54136C17.3958 6.55711 17.4055 6.57089 17.4198 6.57764C17.4257 6.58036 17.4945 6.61162 17.6049 6.60642L17.6011 6.60905C17.5866 6.61926 17.5795 6.63712 17.583 6.65456C17.5864 6.672 17.6 6.68569 17.6174 6.68948C17.6243 6.69094 17.7088 6.70833 17.8301 6.69455L17.8026 6.71292C17.7879 6.72262 17.7803 6.7402 17.7832 6.75755C17.7861 6.77494 17.7989 6.789 17.816 6.7935C17.8291 6.79687 18.025 6.84562 18.2821 6.76406C18.2282 6.79955 18.178 6.82528 18.1365 6.83461C18.1175 6.83892 18.1035 6.85491 18.1017 6.87426C18.0999 6.89362 18.1109 6.91191 18.1288 6.91955C18.1299 6.92006 18.1343 6.92175 18.1402 6.92386C18.0028 7.0148 17.8623 7.04639 17.7635 7.05586ZM17.5468 6.24351C17.5381 6.2235 17.5164 6.21253 17.4951 6.21783C17.4433 6.23048 17.4013 6.22922 17.369 6.22237C17.422 6.19875 17.4674 6.17058 17.4754 6.16547C17.4787 6.1634 17.4815 6.16092 17.484 6.15825C17.5637 6.19031 17.6541 6.22111 17.7556 6.25055L17.5837 6.37598C17.5261 6.38208 17.469 6.37659 17.4235 6.36844L17.5302 6.29887C17.5485 6.28687 17.5555 6.26353 17.5468 6.24351ZM17.9491 7.16489C17.9321 7.1647 17.9007 7.15598 17.889 7.14769C17.892 7.143 17.8995 7.13376 17.916 7.12064C18.0217 7.09355 18.1431 7.04217 18.2595 6.94725C18.3815 6.95611 18.5735 6.92709 18.7691 6.73055C18.7763 6.74362 18.7839 6.75689 18.7927 6.77039C18.7715 6.78637 18.266 7.1677 17.9491 7.16489ZM18.2985 6.85912C18.4433 6.77198 18.6053 6.62044 18.7063 6.51914C18.7079 6.55617 18.715 6.59869 18.7311 6.64533C18.7276 6.64739 18.724 6.64926 18.7211 6.65236C18.5606 6.82162 18.4044 6.85894 18.2985 6.85912ZM19.1396 7.43878C18.9922 7.4287 18.8549 7.40578 18.8048 7.38366C18.9267 7.28845 18.9617 7.24645 18.9653 7.24181C18.9777 7.22639 18.9784 7.20469 18.9672 7.18842C18.9559 7.17211 18.9353 7.16508 18.9166 7.17126C18.7559 7.2232 18.5682 7.27387 18.4755 7.2869C18.518 7.2487 18.5938 7.20042 18.6621 7.1662C18.6841 7.15523 18.6931 7.12866 18.6824 7.10662C18.6717 7.08455 18.6453 7.07526 18.6231 7.08562C18.5012 7.14295 18.3267 7.2007 18.2175 7.19981C18.5147 7.0928 18.8177 6.8639 18.8466 6.84183C18.8694 6.86906 18.8947 6.89676 18.925 6.92494C19.1925 7.17356 19.1632 7.36861 19.1396 7.43878ZM19.2134 7.71178C19.2109 7.71473 19.2076 7.71862 19.2036 7.72312C19.2133 7.65684 19.2202 7.57369 19.2139 7.49461C19.2385 7.44047 19.2884 7.27997 19.1593 7.06706C19.2444 7.07944 19.4398 7.12041 19.5244 7.24341C19.5356 7.25972 19.5467 7.27781 19.5578 7.29656L19.5577 7.2967C19.5535 7.30659 19.4688 7.51167 19.4958 7.76803C19.476 7.74469 19.4571 7.71609 19.4444 7.68258C19.4384 7.66687 19.4242 7.65576 19.4074 7.65398C19.3909 7.6522 19.3744 7.65984 19.3651 7.67391C19.3462 7.70255 19.3189 7.74183 19.2917 7.77759L19.2927 7.7414C19.2932 7.72233 19.2815 7.70503 19.2636 7.69833C19.2458 7.69167 19.2256 7.69701 19.2134 7.71178ZM19.5021 8.26922C19.4932 8.29589 19.4454 8.34741 19.4144 8.37539C19.4133 8.37637 19.4122 8.37745 19.4112 8.37853C19.3878 8.33986 19.3887 8.30925 19.3887 8.30756C19.3903 8.28661 19.377 8.26744 19.3569 8.26134C19.3368 8.2553 19.3152 8.26406 19.305 8.28234C19.264 8.35547 19.1921 8.36297 19.1789 8.36381C19.1812 8.30986 19.2123 8.26083 19.2143 8.25783C19.2267 8.23898 19.2232 8.21386 19.206 8.19923C19.1889 8.18461 19.1636 8.18489 19.1468 8.20003C19.0811 8.25951 18.9767 8.22103 18.9758 8.2207C18.9715 8.21906 18.9671 8.21808 18.9626 8.21775C18.9916 8.15484 19.0421 8.14969 19.112 8.14256C19.1387 8.13984 19.1663 8.13698 19.1948 8.1307C19.3327 8.10056 19.3489 7.94822 19.3382 7.87186C19.3379 7.86975 19.3368 7.86801 19.3362 7.86605C19.3577 7.83951 19.3793 7.81045 19.3971 7.78537C19.4058 7.79873 19.4152 7.81078 19.4246 7.82217C19.4249 7.85484 19.4267 7.95558 19.4381 8.00859C19.4471 8.05069 19.4779 8.07905 19.5074 8.09723C19.5025 8.10675 19.4984 8.11678 19.4958 8.12765C19.4852 8.17101 19.4942 8.21869 19.5076 8.25956C19.5055 8.2628 19.5032 8.26561 19.5021 8.26922ZM19.5256 7.98994C19.5213 7.96997 19.5187 7.93856 19.5169 7.90697C19.5294 7.91559 19.5383 7.9208 19.5395 7.92145C19.5551 7.93008 19.5744 7.92876 19.5886 7.91784C19.6027 7.90697 19.609 7.88873 19.6047 7.87148C19.5574 7.68234 19.5891 7.50539 19.6154 7.40845C19.6925 7.5779 19.7478 7.78701 19.7287 7.92492C19.7257 7.94601 19.7381 7.96626 19.7581 7.97334C19.7623 7.9748 19.7666 7.97526 19.7708 7.97545C19.7704 7.98014 19.7699 7.98511 19.7693 7.98947C19.724 7.98806 19.6494 7.995 19.5771 8.03264C19.5563 8.02392 19.5295 8.00808 19.5256 7.98994ZM20.1153 8.2214C20.1118 8.22787 20.1074 8.23533 20.1027 8.24301C20.0492 8.17223 19.9758 8.09944 19.913 8.12316C19.8624 8.14247 19.8572 8.19117 19.8537 8.22347C19.8496 8.26242 19.8466 8.27864 19.8142 8.2898C19.8 8.29462 19.7893 8.30615 19.7854 8.3205L19.7804 8.33911C19.7633 8.30151 19.7543 8.25614 19.7797 8.21747C19.7927 8.19764 19.788 8.17116 19.7689 8.157C19.7498 8.14289 19.723 8.14608 19.7078 8.16431C19.7074 8.16478 19.6668 8.2125 19.6079 8.22089C19.6018 8.22178 19.596 8.22389 19.5909 8.22698C19.5823 8.19961 19.5774 8.17097 19.5828 8.1488C19.586 8.13558 19.5926 8.12658 19.6039 8.11969C19.6936 8.06541 19.7983 8.08083 19.7992 8.08101C19.8228 8.08495 19.8445 8.07 19.8499 8.04708C19.8523 8.03686 19.8715 7.94953 19.8575 7.8764L19.9154 7.77909C19.9362 7.80572 19.9644 7.83839 19.9989 7.87055C19.9799 7.90542 19.9613 7.96176 19.9878 8.02603C19.9984 8.05191 20.0232 8.06962 20.0518 8.09011C20.1248 8.14256 20.1442 8.1689 20.1153 8.2214ZM19.9505 7.67386C19.9423 7.6604 19.926 7.65314 19.912 7.65234C19.8963 7.65239 19.8818 7.66069 19.8737 7.67419L19.8155 7.77197C19.791 7.57397 19.6977 7.33744 19.5982 7.19264C19.4688 7.00444 19.1489 6.96876 19.0885 6.969C19.0592 6.93337 19.0264 6.89695 18.986 6.85936C18.7204 6.61251 18.8078 6.41522 18.812 6.40603C18.8123 6.40523 18.8123 6.40444 18.8126 6.40364C18.8138 6.40073 18.8143 6.39783 18.8148 6.39483C18.8153 6.39211 18.816 6.38944 18.816 6.38667C18.816 6.38381 18.8153 6.38119 18.8148 6.37837C18.8143 6.37551 18.8138 6.37275 18.8128 6.36998C18.8118 6.3675 18.8103 6.36539 18.8088 6.36305C18.8071 6.36037 18.8055 6.35775 18.8033 6.3555C18.8026 6.35489 18.8024 6.35405 18.8018 6.35344C18.8002 6.35198 18.7982 6.35142 18.7964 6.35025C18.7946 6.34903 18.7933 6.3473 18.7913 6.34631C18.7905 6.34589 18.7896 6.34598 18.7888 6.34565C18.7859 6.34448 18.783 6.34387 18.7799 6.34331C18.7771 6.3428 18.7745 6.34214 18.7718 6.34214C18.7689 6.34214 18.7663 6.34275 18.7635 6.34326C18.7605 6.34378 18.7578 6.3442 18.7551 6.34528C18.7526 6.34626 18.7504 6.34781 18.7481 6.34926C18.7454 6.35095 18.7428 6.35255 18.7405 6.3548C18.7399 6.35541 18.7391 6.35569 18.7385 6.3563L18.7385 6.35634C18.4346 6.68826 18.1166 6.72773 17.9519 6.7208L18.143 6.59334C18.1805 6.57234 18.2184 6.54736 18.2561 6.51778C18.2751 6.50287 18.2788 6.47578 18.2648 6.45633C18.2506 6.43678 18.2236 6.432 18.2037 6.44536L18.0987 6.5153C17.9693 6.58711 17.8442 6.60642 17.7569 6.60914L17.8564 6.53934C17.9329 6.50236 18.0164 6.44681 18.1043 6.36497C18.1216 6.34894 18.1235 6.32231 18.1087 6.30403C18.0939 6.28575 18.0676 6.28209 18.0481 6.2955L17.8108 6.46191C17.698 6.51501 17.6056 6.52153 17.5436 6.51586L17.8831 6.26808C17.897 6.2579 17.9039 6.24061 17.9006 6.22364C17.8974 6.20667 17.8848 6.19308 17.8681 6.18862C17.3148 6.04134 17.1818 5.89101 17.1518 5.81447C17.1492 5.80776 17.1475 5.80237 17.1465 5.79816C17.1576 5.79984 17.1726 5.80406 17.1822 5.80814C17.7243 6.1267 18.7399 6.2543 18.7829 6.25964C18.805 6.26184 18.8255 6.24853 18.8314 6.22715C18.8468 6.17203 18.9353 5.89247 19.1759 5.80167C19.4028 5.71622 19.5815 5.85445 19.5889 5.86022C19.5969 5.86659 19.6067 5.87006 19.6169 5.87006C19.7133 5.87006 19.7773 5.88928 19.7969 5.92425C19.8031 5.93545 19.805 5.9483 19.8043 5.96114C19.7887 5.95317 19.7714 5.94783 19.7544 5.9453C19.7467 5.94412 19.7389 5.94501 19.7316 5.94783C19.7228 5.95125 19.7005 5.9528 19.6809 5.95416C19.6178 5.95851 19.5224 5.96508 19.4684 6.04537C19.4365 6.09276 19.4259 6.15576 19.4393 6.2182C19.4476 6.25715 19.4685 6.30806 19.516 6.35775C19.5207 6.36703 19.5282 6.37378 19.537 6.3779C19.5533 6.39239 19.5715 6.40669 19.5932 6.42028C19.6989 6.48633 19.7764 6.54731 19.8176 6.6968C19.818 6.70209 19.8193 6.70711 19.8215 6.71194C19.8383 6.77944 19.8484 6.86386 19.8507 6.97373C19.8512 6.99815 19.8712 7.01761 19.8954 7.01761C19.8954 7.01761 19.896 7.01761 19.8964 7.01761C19.9211 7.01709 19.9407 6.99661 19.9403 6.9719C19.9389 6.91036 19.9349 6.85631 19.9289 6.80733C20.2624 7.07976 20.4593 7.21514 20.5581 7.28287C20.572 7.29244 20.5852 7.30148 20.5967 7.30959C20.4962 7.31873 20.3371 7.227 20.2126 7.13212C20.1717 7.09519 20.1331 7.06467 20.1121 7.04864C20.0931 7.03406 20.0659 7.03706 20.0505 7.05548C20.0352 7.07386 20.037 7.10109 20.0547 7.11726C20.066 7.12762 20.1021 7.15992 20.1528 7.19916C20.2115 7.25245 20.2568 7.30275 20.271 7.33172C20.2013 7.31705 20.01 7.20333 19.8546 7.09233C19.8354 7.07864 19.809 7.08216 19.794 7.10025C19.7791 7.11839 19.7806 7.14506 19.7977 7.16123C19.905 7.26314 19.9711 7.35623 20.0131 7.55573C20.0371 7.66955 20.0835 7.77755 20.1231 7.85583C20.0187 7.78453 19.9514 7.67536 19.9505 7.67386ZM20.9717 7.54964C20.7347 7.58076 20.4665 7.40011 20.4638 7.39828C20.4447 7.38525 20.4188 7.38886 20.4042 7.40672C20.3894 7.42453 20.3906 7.45059 20.407 7.46691C20.4846 7.54453 20.5638 7.59726 20.6215 7.6357C20.6299 7.64128 20.6389 7.64728 20.6475 7.65319C20.5614 7.64887 20.4117 7.55175 20.3291 7.48416C20.311 7.4693 20.2845 7.47098 20.2682 7.48805C20.2521 7.50506 20.2519 7.53169 20.2677 7.54898C20.3011 7.58559 20.3328 7.62651 20.352 7.65642C20.2866 7.63251 20.1762 7.5697 20.0964 7.5187C20.078 7.437 20.0553 7.37053 20.0274 7.31419C20.2875 7.46911 20.3313 7.41684 20.3477 7.39715C20.3573 7.38567 20.368 7.36594 20.3648 7.33687C20.3648 7.33673 20.3648 7.33655 20.3648 7.33655C20.4709 7.39026 20.5847 7.42195 20.6721 7.38112C20.6812 7.37681 20.6944 7.37001 20.7049 7.35919C20.8661 7.44923 20.9504 7.51664 20.9761 7.54898C20.9746 7.54922 20.9732 7.54945 20.9717 7.54964ZM20.9108 7.37953C20.8614 7.34597 20.7981 7.30734 20.7148 7.26215C20.7131 7.26122 20.7112 7.26117 20.7094 7.26051C20.7241 7.26108 20.7391 7.2615 20.7545 7.2615C20.7975 7.2615 20.8429 7.25855 20.8879 7.25198C20.8913 7.25419 20.8946 7.25662 20.8987 7.25794C21.0374 7.30153 21.1209 7.33467 21.1476 7.35684C21.1119 7.37231 21.0096 7.38239 20.9108 7.37953ZM21.1747 7.26797C21.1747 7.26797 21.1742 7.26811 21.1739 7.26811C21.1379 7.24715 21.0867 7.22658 21.0216 7.20412C21.0239 7.19944 21.0257 7.19442 21.0262 7.18898C21.0273 7.17792 21.0242 7.16709 21.018 7.15842C21.0941 7.17661 21.1621 7.18378 21.2152 7.17436C21.282 7.16245 21.3425 7.12955 21.3863 7.09997H21.3863C21.4313 7.09997 21.5589 7.09837 21.7225 7.08492C21.6044 7.15791 21.403 7.25798 21.1747 7.26797ZM22.9807 6.50283C22.9198 6.57947 22.7814 6.7049 22.5301 6.81787C22.1869 6.97219 21.6801 7.00294 21.4689 7.00889C21.4686 7.00551 21.4682 7.00219 21.467 6.9989C21.4614 6.98245 21.4468 6.97073 21.4295 6.96876C21.4255 6.96834 21.1988 6.94195 20.9466 6.86592C21.0978 6.88022 21.2405 6.8873 21.374 6.8873C21.751 6.8873 22.059 6.83475 22.3094 6.756C22.3107 6.75581 22.312 6.75609 22.3133 6.75581C22.4513 6.71967 22.7802 6.58495 22.9568 6.51262C22.9652 6.50916 22.9731 6.50592 22.9807 6.50283ZM22.7419 6.46008C22.4506 6.64041 21.9425 6.83306 21.1389 6.79003C21.1545 6.78248 21.1648 6.76683 21.1644 6.74915C21.164 6.73026 21.1519 6.71367 21.134 6.70762C21.098 6.69548 21.0553 6.67941 21.0138 6.66201C21.1368 6.66562 21.2969 6.65414 21.4491 6.5955C21.4665 6.5888 21.4779 6.57201 21.4778 6.55336C21.4776 6.5347 21.4659 6.51806 21.4484 6.51169L21.3899 6.49026C21.5383 6.48408 21.7203 6.46462 21.8473 6.41119C21.8673 6.40275 21.8783 6.38123 21.8736 6.36009C21.8733 6.35901 21.8726 6.35812 21.8723 6.35705C22.1405 6.28987 22.6343 6.13486 23.144 5.8155C23.0342 5.99794 22.7153 6.33717 21.8126 6.5505C21.7892 6.55603 21.7743 6.579 21.779 6.60258C21.7836 6.6262 21.806 6.64167 21.8296 6.6383C21.8363 6.63726 22.45 6.54089 23.0836 6.17822C23.0085 6.2617 22.8976 6.36366 22.7419 6.46008Z" fill="#464655"/>
</svg>
