<svg xmlns="http://www.w3.org/2000/svg" width="24" height="24" viewBox="0 0 24 24" fill="none"><rect width="24" height="24" fill="none"/>
<path d="M23.5862 12H12V19.4483C12 19.6768 11.8147 19.8621 11.5862 19.8621H22.2026C23.1952 19.8621 24 19.0574 24 18.0647V11.5862C24 11.8147 23.8147 12 23.5862 12Z" fill="#F5F5F5"/>
<path d="M0.413813 12H12V4.55166C12 4.32314 12.1853 4.13785 12.4138 4.13785H1.79742C0.804703 4.13789 0 4.9426 0 5.93532V12.4138C0 12.1853 0.185297 12 0.413813 12Z" fill="#F5F5F5"/>
<path d="M22.2026 4.13788H12.4138C12.1853 4.13788 12 4.32318 12 4.55169V11.9999H23.5862C23.8147 11.9999 24 11.8146 24 11.5861V5.9353C24 4.94258 23.1953 4.13788 22.2026 4.13788Z" fill="#FF4B55"/>
<path d="M12 19.4484V12.0001H0.413813C0.185297 12.0001 0 12.1854 0 12.4139V18.0647C0 19.0574 0.804703 19.8622 1.79742 19.8622H11.5862C11.8147 19.8621 12 19.6769 12 19.4484Z" fill="#4173CD"/>
<path d="M6.15938 6.30415L6.55388 7.48699L7.80075 7.49665C7.96219 7.49786 8.02913 7.70393 7.89924 7.79979L6.89621 8.54046L7.27228 9.7293C7.32094 9.88324 7.14572 10.0105 7.01438 9.91666L6 9.19165L4.98558 9.91671C4.85424 10.0106 4.67902 9.88324 4.72767 9.72935L5.10375 8.5405L4.10072 7.79983C3.97083 7.70393 4.03781 7.49791 4.19921 7.49669L5.44608 7.48704L5.84058 6.30419C5.89167 6.15105 6.10833 6.15105 6.15938 6.30415Z" fill="#4173CD"/>
<path d="M18.1594 14.1661L18.5539 15.3489L19.8007 15.3586C19.9622 15.3598 20.0291 15.5659 19.8992 15.6617L18.8962 16.4024L19.2723 17.5912C19.3209 17.7452 19.1457 17.8724 19.0144 17.7786L18 17.0536L16.9856 17.7787C16.8542 17.8725 16.679 17.7452 16.7277 17.5913L17.1037 16.4024L16.1007 15.6618C15.9708 15.5659 16.0378 15.3599 16.1992 15.3586L17.4461 15.349L17.8406 14.1661C17.8917 14.0129 18.1083 14.0129 18.1594 14.1661Z" fill="#FF4B55"/>
</svg>
