<svg xmlns="http://www.w3.org/2000/svg" width="24" height="24" viewBox="0 0 24 24" fill="none"><rect width="24" height="24" fill="none"/>
<path d="M22.2026 19.8621H1.79742C0.804703 19.8621 0 19.0574 0 18.0646V5.93536C0 4.94269 0.804703 4.13794 1.79742 4.13794H22.2026C23.1952 4.13794 24 4.94264 24 5.93536V18.0647C24 19.0574 23.1953 19.8621 22.2026 19.8621Z" fill="#82AFFF"/>
<path d="M11.9455 6.40207L11.6267 7.35795L10.6191 7.36578C10.5639 7.3662 10.5409 7.4367 10.5854 7.46956L11.3959 8.0681L11.092 9.02876C11.0754 9.0814 11.1353 9.12504 11.1802 9.09289L11.9999 8.50695L12.8197 9.09289C12.8647 9.125 12.9246 9.08145 12.9079 9.02876L12.604 8.0681L13.4146 7.46956C13.459 7.43675 13.4361 7.36625 13.3809 7.36578L12.3733 7.35795L12.0545 6.40207C12.0371 6.34967 11.9629 6.34967 11.9455 6.40207Z" fill="#F5F5F5"/>
<path d="M11.9455 14.9362L11.6267 15.8921L10.6191 15.8999C10.5639 15.9004 10.5409 15.9709 10.5854 16.0037L11.3959 16.6023L11.092 17.5629C11.0754 17.6156 11.1353 17.6592 11.1802 17.627L11.9999 17.0411L12.8197 17.627C12.8647 17.6592 12.9246 17.6156 12.9079 17.5629L12.604 16.6023L13.4146 16.0037C13.459 15.9709 13.4361 15.9004 13.3809 15.8999L12.3733 15.8921L12.0545 14.9362C12.0371 14.8838 11.9629 14.8838 11.9455 14.9362Z" fill="#F5F5F5"/>
<path d="M17.5983 11.9458L16.6424 11.627L16.6346 10.6195C16.6342 10.5642 16.5637 10.5413 16.5308 10.5858L15.9323 11.3963L14.9716 11.0924C14.919 11.0757 14.8754 11.1357 14.9075 11.1806L15.4934 12.0004L14.9075 12.8202C14.8754 12.8651 14.9189 12.9251 14.9716 12.9084L15.9323 12.6045L16.5308 13.415C16.5636 13.4595 16.6341 13.4366 16.6346 13.3813L16.6424 12.3738L17.5983 12.055C17.6507 12.0375 17.6507 11.9633 17.5983 11.9458Z" fill="#F5F5F5"/>
<path d="M6.40164 11.9458L7.35752 11.627L7.36535 10.6195C7.36577 10.5642 7.43627 10.5413 7.46913 10.5858L8.06767 11.3963L9.02833 11.0924C9.08097 11.0757 9.12461 11.1357 9.09246 11.1806L8.50652 12.0004L9.09246 12.8202C9.12457 12.8651 9.08102 12.9251 9.02833 12.9084L8.06767 12.6045L7.46913 13.415C7.43631 13.4595 7.36582 13.4366 7.36535 13.3813L7.35752 12.3738L6.40164 12.055C6.34928 12.0375 6.34928 11.9633 6.40164 11.9458Z" fill="#F5F5F5"/>
</svg>
