<svg xmlns="http://www.w3.org/2000/svg" width="24" height="24" viewBox="0 0 24 24" fill="none"><rect width="24" height="24" fill="none"/>
<path d="M22.2026 4.13794H1.79742C0.804703 4.13794 0 4.94264 0 5.93536V9.37931H24V5.93536C24 4.94264 23.1953 4.13794 22.2026 4.13794Z" fill="#FF4B55"/>
<path d="M0 18.0646C0 19.0573 0.804703 19.862 1.79742 19.862H22.2026C23.1952 19.862 24 19.0573 24 18.0646V14.6207H0V18.0646Z" fill="#464655"/>
<path d="M24 9.37921H0V14.6203H24V9.37921Z" fill="#F5F5F5"/>
<path d="M13.3212 11.183C13.3212 10.9778 13.1202 10.8329 12.9255 10.8978L12.5597 11.0197L12.4709 10.4833C12.4178 10.1633 12.1436 9.93103 11.8191 9.93103H11.4769L11.1191 10.3715H11.5929L11.4603 11.0264L11.0744 10.8978C10.8797 10.8329 10.6787 10.9778 10.6787 11.183V13.4084L11.2114 12.8757L10.9604 13.6286H10.6788V14.069H13.3213V13.6286H13.0396L12.7887 12.8757L13.3213 13.4084V11.183H13.3212ZM11.7798 13.6285H11.4248L11.6689 12.9765L11.7798 13.1182V13.6285ZM12.2202 13.6285V13.1182L12.3311 12.9765L12.5752 13.6285H12.2202ZM12 12.8303C12 12.8303 11.3187 12.3692 11.3463 11.5091C11.3463 11.5091 11.7661 11.4403 12 11.0686C12.234 11.4402 12.6538 11.5091 12.6538 11.5091C12.6813 12.3693 12 12.8303 12 12.8303Z" fill="#F0C727"/>
</svg>
