<svg xmlns="http://www.w3.org/2000/svg" width="24" height="24" viewBox="0 0 24 24" fill="none"><rect width="24" height="24" fill="none"/>
<path d="M0 18.0647C0 19.0573 0.804703 19.8621 1.79742 19.8621H22.2026C23.1947 19.8621 23.9991 19.0583 24 18.0665V14.6207H0V18.0647Z" fill="#41479B"/>
<path d="M22.2026 4.13788H1.79742C0.804703 4.13788 0 4.94263 0 5.9353V9.37925H24V5.93352C23.9991 4.94174 23.1947 4.13788 22.2026 4.13788Z" fill="#FF4B55"/>
<path d="M24 9.37915H0V14.6202H24V9.37915Z" fill="#F5F5F5"/>
<path d="M10.2622 9.51697H9.10359V10.8412H10.2622V9.51697Z" fill="#FF4B55"/>
<path d="M12.5792 9.51715H11.4206V10.8414H12.5792V9.51715Z" fill="#FF4B55"/>
<path d="M11.421 10.8414H10.2623V12.1656H11.421V10.8414Z" fill="#FF4B55"/>
<path d="M14.8967 9.51715H13.7381V10.8414H14.8967V9.51715Z" fill="#FF4B55"/>
<path d="M13.738 10.8414H12.5794V12.1656H13.738V10.8414Z" fill="#FF4B55"/>
<path d="M11.421 9.51715H10.2623V10.8414H11.421V9.51715Z" fill="#F5F5F5"/>
<path d="M13.738 9.51715H12.5794V10.8414H13.738V9.51715Z" fill="#F5F5F5"/>
<path d="M10.2622 10.8414H9.10359V12.1656H10.2622V10.8414Z" fill="#F5F5F5"/>
<path d="M12.5792 10.8414H11.4206V12.1656H12.5792V10.8414Z" fill="#F5F5F5"/>
<path d="M14.8967 10.8414H13.7381V12.1656H14.8967V10.8414Z" fill="#F5F5F5"/>
<path d="M12.5792 12.1656H11.4206V13.4898H12.5792V12.1656Z" fill="#FF4B55"/>
<path d="M11.421 13.4898H10.2623V14.814H11.421V13.4898Z" fill="#FF4B55"/>
<path d="M13.738 13.4898H12.5794V14.814H13.738V13.4898Z" fill="#FF4B55"/>
<path d="M11.421 12.1654H10.2623V13.4896H11.421V12.1654Z" fill="#F5F5F5"/>
<path d="M13.738 12.1656H12.5794V13.4898H13.738V12.1656Z" fill="#F5F5F5"/>
<path d="M12.5792 13.4898H11.4206V14.814H12.5792V13.4898Z" fill="#F5F5F5"/>
<path d="M14.8965 9.51726V13.2414C14.8965 14.8411 13.5997 16.1379 12 16.1379C10.4003 16.1379 9.10345 14.8411 9.10345 13.2414V9.51726H14.8965V9.51726ZM15.1034 9.3103H14.8965H9.10341H8.8965V9.51721V13.2413C8.8965 14.9526 10.2887 16.3448 12 16.3448C13.7112 16.3448 15.1034 14.9526 15.1034 13.2413V9.51721V9.3103Z" fill="#FF4B55"/>
<path d="M10.2621 13.4892V12.165H9.10345V13.241C9.10345 13.3248 9.10899 13.4072 9.11597 13.4893L10.2621 13.4892Z" fill="#FF4B55"/>
<path d="M14.884 13.4898H13.7379V14.8139H14.4305C14.6818 14.4263 14.8427 13.9755 14.884 13.4898Z" fill="#F5F5F5"/>
<path d="M9.56948 14.8147H10.262V13.4906H9.11592C9.15726 13.9762 9.31819 14.4271 9.56948 14.8147Z" fill="#F5F5F5"/>
<path d="M13.7379 13.4898H14.884C14.891 13.4078 14.8965 13.3254 14.8965 13.2415V12.1656H13.7379V13.4898Z" fill="#FF4B55"/>
<path d="M10.2621 15.5548V14.814H9.56952C9.755 15.1001 9.99008 15.3502 10.2621 15.5548Z" fill="#FF4B55"/>
<path d="M14.4304 14.814H13.7379V15.5549C14.0098 15.3502 14.2448 15.1001 14.4304 14.814Z" fill="#FF4B55"/>
<path d="M10.2621 15.5556C10.5993 15.8094 10.9918 15.9936 11.4207 16.0806V14.8147H10.2621V15.5556V15.5556Z" fill="#F5F5F5"/>
<path d="M12.5793 16.0798C13.0082 15.9927 13.4007 15.8085 13.7379 15.5547V14.8138H12.5793V16.0798Z" fill="#F5F5F5"/>
<path d="M12.5793 14.8138H11.4207V16.0798C11.6078 16.1178 11.8016 16.138 12 16.138C12.1984 16.138 12.3921 16.1178 12.5793 16.0798V14.8138H12.5793Z" fill="#FF4B55"/>
<path d="M9.90329 7.32613C9.65119 7.28713 9.39329 7.259 9.13037 7.24274C8.92702 7.41013 8.73319 7.58464 8.54921 7.76539C8.73399 8.21141 8.91873 8.65742 9.10341 9.10344C9.47433 8.94983 9.8544 8.82688 10.24 8.73467C10.1278 8.26522 10.0155 7.79567 9.90329 7.32613Z" fill="#4173CD"/>
<path d="M12.7032 7.10648C12.4767 6.99187 12.2421 6.88588 12 6.78937C11.7578 6.88593 11.5232 6.99191 11.2967 7.10648C11.3343 7.58774 11.372 8.06901 11.4097 8.55037C11.8026 8.51957 12.1973 8.51957 12.5903 8.55037C12.6279 8.06905 12.6656 7.58779 12.7032 7.10648Z" fill="#4173CD"/>
<path d="M15.4507 7.76539C15.2668 7.58469 15.0729 7.41017 14.8696 7.24274C14.6067 7.25896 14.3488 7.28713 14.0967 7.32613C13.9844 7.79567 13.8722 8.26517 13.7599 8.73467C14.1455 8.82688 14.5256 8.94978 14.8965 9.10344C15.0813 8.65738 15.2661 8.21136 15.4507 7.76539Z" fill="#4173CD"/>
<path d="M11.2967 7.10728C11.0551 7.02933 10.8066 6.96113 10.5517 6.90356C10.3268 7.03674 10.1105 7.17816 9.90329 7.32699C10.0155 7.79653 10.1278 8.26603 10.24 8.73553C10.6256 8.64333 11.0167 8.58192 11.4096 8.55117C11.372 8.06986 11.3343 7.5886 11.2967 7.10728Z" fill="#41479B"/>
<path d="M14.0967 7.32613C13.8894 7.1773 13.6732 7.03583 13.4483 6.90271C13.1934 6.96027 12.9448 7.02857 12.7033 7.10643C12.6656 7.58769 12.6279 8.06896 12.5903 8.55032C12.9833 8.58102 13.3743 8.64248 13.7599 8.73468C13.8722 8.26523 13.9844 7.79568 14.0967 7.32613Z" fill="#41479B"/>
<path d="M11.3419 7.68394C10.9038 7.71816 10.4678 7.78664 10.038 7.88948C10.0155 7.79559 9.99305 7.70166 9.9706 7.60772C10.4152 7.5015 10.8661 7.43063 11.3192 7.39514C11.3268 7.49142 11.3343 7.58766 11.3419 7.68394Z" fill="#FF4B55"/>
<path d="M11.3871 8.26191C10.9792 8.29383 10.5731 8.35763 10.1727 8.45335C10.1502 8.35946 10.1278 8.26552 10.1054 8.17167C10.5204 8.07239 10.9415 8.00625 11.3645 7.97321C11.372 8.06935 11.3796 8.16572 11.3871 8.26191Z" fill="#FF4B55"/>
<path d="M13.3747 8.35871C13.2736 8.34076 13.1723 8.32477 13.0708 8.3108C12.9038 8.28774 12.7795 8.14599 12.794 7.98666C12.8084 7.82738 12.968 7.71183 13.1497 7.73696C13.2587 7.75196 13.3675 7.76907 13.4759 7.78838C13.6568 7.82035 13.7739 7.97972 13.7386 8.13554C13.7035 8.29172 13.5409 8.38801 13.3747 8.35871Z" fill="#FFE15A"/>
<path d="M15.0074 8.83581C14.6223 8.67634 14.2276 8.5487 13.8273 8.45294C13.8498 8.35905 13.8722 8.26511 13.8946 8.17126C14.3097 8.27045 14.7189 8.40283 15.1182 8.5682C15.0813 8.65736 15.0443 8.74661 15.0074 8.83581Z" fill="#FF4B55"/>
<path d="M14.904 7.96694C14.8631 8.07976 14.7251 8.13344 14.5947 8.09101C14.4643 8.04855 14.3845 7.92461 14.4175 7.8092C14.4505 7.6938 14.5903 7.63272 14.7286 7.67767C14.867 7.72253 14.945 7.85411 14.904 7.96694Z" fill="#FFE15A"/>
<path d="M9.58238 7.80932C9.61533 7.92482 9.5355 8.0488 9.40524 8.09113C9.27488 8.13332 9.13688 8.07965 9.09591 7.96705C9.05494 7.85418 9.13294 7.72265 9.27131 7.67779C9.40959 7.63297 9.54947 7.694 9.58238 7.80932Z" fill="#FFE15A"/>
<path d="M11.9339 7.61965C11.9341 7.7156 11.8479 7.79374 11.741 7.79702C11.6342 7.80044 11.5431 7.7276 11.5375 7.63202C11.5319 7.5364 11.6181 7.45361 11.7302 7.45001C11.8424 7.44649 11.9334 7.52369 11.9339 7.61965Z" fill="#FFE15A"/>
<path d="M12.4624 7.63197C12.4568 7.72778 12.3656 7.80039 12.2589 7.79697C12.1521 7.79369 12.0658 7.71555 12.0661 7.61959C12.0665 7.52373 12.1576 7.4463 12.2697 7.44995C12.3819 7.45338 12.4679 7.5363 12.4624 7.63197Z" fill="#FFE15A"/>
<path d="M12.1878 8.06641C12.1851 8.16236 12.1011 8.23783 11.9999 8.23783C11.8989 8.23778 11.8148 8.16241 11.8121 8.06641C11.8094 7.97073 11.8935 7.89039 11.9999 7.89063C12.1064 7.89039 12.1904 7.97064 12.1878 8.06641Z" fill="#FFE15A"/>
</svg>
