<svg xmlns="http://www.w3.org/2000/svg" width="24" height="24" viewBox="0 0 24 24" fill="none"><rect width="24" height="24" fill="none"/>
<path d="M22.2026 4.13789H1.79742C0.804703 4.13789 0 4.9426 0 5.93532V9.37927H24V5.93532C24 4.9426 23.1953 4.13789 22.2026 4.13789Z" fill="#F5F5F5"/>
<path d="M0 18.0646C0 19.0573 0.804703 19.862 1.79742 19.862H22.2026C23.1952 19.862 24 19.0573 24 18.0646V14.6206H0V18.0646Z" fill="#73AF00"/>
<path d="M24 9.37918H0V14.6203H24V9.37918Z" fill="#FF4B55"/>
<path d="M1.79742 4.13789C0.804703 4.13789 0 4.9426 0 5.93532V18.0647C0 19.0574 0.804703 19.8621 1.79742 19.8621H6.20691V4.13789H1.79742Z" fill="#FF4B55"/>
<path d="M1.69013 7.56755C1.66697 7.57018 1.64461 7.57299 1.62282 7.57589V7.8706C1.64476 7.87618 1.66711 7.88171 1.69013 7.88714V7.56755Z" fill="#F5F5F5"/>
<path d="M2.70952 8.12925C2.64807 8.12432 2.55366 8.11485 2.44097 8.10112L1.73415 8.72976C1.82569 8.74373 1.93543 8.76229 1.98122 8.77687C2.16286 8.61801 2.40633 8.40145 2.70952 8.12925Z" fill="#F5F5F5"/>
<path d="M3.77301 7.12941V7.09852V7.06889H2.51901V7.09852V7.12941V7.15903H3.77301V7.12941Z" fill="#F5F5F5"/>
<path d="M2.8446 5.33597C2.8446 5.42428 2.97768 5.49886 3.13523 5.49886C3.29278 5.49886 3.42585 5.42428 3.42585 5.33597C3.42585 5.24766 3.29278 5.17308 3.13523 5.17308C2.97768 5.17308 2.8446 5.24771 2.8446 5.33597Z" fill="#F5F5F5"/>
<path d="M2.57282 7.52771C2.28974 7.52631 2.00723 7.53671 1.77628 7.55856V7.90646C2.04764 7.96468 2.36376 8.00931 2.57282 8.03153C2.57282 8.03148 2.57282 7.52771 2.57282 7.52771Z" fill="#F5F5F5"/>
<path d="M1.1145 9.24459C1.22639 9.2422 1.47216 9.198 1.63856 9.06801C1.69017 9.0277 1.77821 8.95355 1.902 8.84601C1.81805 8.82881 1.67719 8.80795 1.6021 8.79759L1.1145 9.24459Z" fill="#F5F5F5"/>
<path d="M2.73432 6.98278V6.82462C2.71313 6.79303 2.69124 6.76045 2.66893 6.72731L2.47641 6.86733C2.51475 6.93319 2.53932 6.97504 2.54386 6.98278H2.73432Z" fill="#F5F5F5"/>
<path d="M1.25288 7.69687C1.25227 7.69945 1.25077 7.70545 1.26042 7.71792C1.29614 7.76371 1.39955 7.80745 1.53675 7.84725V7.58868C1.37198 7.61597 1.26408 7.65211 1.25288 7.69687Z" fill="#F5F5F5"/>
<path d="M3.45548 7.57346V7.24515H2.82042V8.04709H2.9819C3.243 8.04713 3.45548 7.8346 3.45548 7.57346Z" fill="#F5F5F5"/>
<path d="M2.43479 6.38086C2.09476 5.87968 1.73162 5.3529 1.64297 5.2485C1.65563 5.29515 1.68633 5.38285 1.75791 5.54691C1.8503 5.75869 2.07455 6.16458 2.26022 6.49139L2.43479 6.38086Z" fill="#F5F5F5"/>
<path d="M2.30287 6.56635C2.35125 6.651 2.39554 6.72797 2.4329 6.79247L2.62073 6.65588C2.57606 6.58955 2.53007 6.52154 2.48315 6.45226L2.30287 6.56635Z" fill="#F5F5F5"/>
<path d="M2.73431 8.04554V7.52968C2.70923 7.52916 2.68415 7.52865 2.65894 7.52832V8.03987C2.68795 8.04249 2.71322 8.04441 2.73431 8.04554Z" fill="#F5F5F5"/>
<path d="M3.45553 6.53996H2.82047V6.6301H3.45553V6.53996Z" fill="#F5F5F5"/>
<path d="M4.33813 6.97739V6.98278H4.37043C4.39424 6.98278 4.41351 7.002 4.41351 7.02586V7.20215C4.41351 7.22597 4.39429 7.24518 4.37043 7.24518H4.33813V7.25057C4.33813 7.27425 4.35745 7.29361 4.38117 7.29361H5.10778C5.13149 7.29361 5.15081 7.27425 5.15081 7.25057V6.97743C5.15081 6.95376 5.13149 6.93436 5.10778 6.93436H4.38121C4.35745 6.93436 4.33813 6.95362 4.33813 6.97739Z" fill="#F5F5F5"/>
<path d="M5.1511 9.24225L4.66618 8.79764C4.59108 8.808 4.45027 8.82881 4.36627 8.84606C4.49232 8.95542 4.58035 9.02958 4.62971 9.06815C4.79354 9.19598 5.03429 9.24084 5.1511 9.24225Z" fill="#F5F5F5"/>
<path d="M4.15514 7.09852V7.12941V7.15903H4.3274V7.06889H4.15514V7.09852Z" fill="#F5F5F5"/>
<path d="M4.28691 8.77693C4.3327 8.76226 4.44258 8.74365 4.53431 8.72972L3.49303 7.80052C3.46481 7.8639 3.42544 7.92123 3.37697 7.96955L3.40439 7.99402C3.78159 8.33176 4.07648 8.59327 4.28691 8.77693Z" fill="#F5F5F5"/>
<path d="M1.95389 7.25048V7.24509H1.9216C1.89778 7.24509 1.87852 7.22588 1.87852 7.20206V7.02577C1.87852 7.00195 1.89774 6.98269 1.9216 6.98269H1.95389V6.9773C1.95389 6.95363 1.93458 6.93422 1.91081 6.93422H1.18425C1.16053 6.93422 1.14122 6.95358 1.14122 6.9773V7.25044C1.14122 7.27411 1.16053 7.29347 1.18425 7.29347H1.91081C1.93458 7.29361 1.95389 7.2743 1.95389 7.25048Z" fill="#F5F5F5"/>
<path d="M2.1369 7.12941V7.09852V7.06889H1.96463V7.15903H2.1369V7.12941Z" fill="#F5F5F5"/>
<path d="M3.79195 6.86737L3.59944 6.72736C3.57975 6.75665 3.56049 6.78529 3.5416 6.81337V6.98278H3.7245C3.72905 6.97504 3.75361 6.93323 3.79195 6.86737Z" fill="#F5F5F5"/>
<path d="M2.87804 6.27634H3.39811L3.28365 6.1494H2.99251L2.87804 6.27634Z" fill="#F5F5F5"/>
<path d="M3.45553 6.36652H2.82047V6.45398H3.45553V6.36652Z" fill="#F5F5F5"/>
<path d="M3.13528 5.58497C3.09342 5.58497 3.05419 5.57958 3.01688 5.57161V6.05831H3.25636V5.57109C3.2183 5.57943 3.17808 5.58497 3.13528 5.58497Z" fill="#F5F5F5"/>
<path d="M2.82042 6.80648H3.45276C3.45267 6.80109 3.45361 6.79584 3.45558 6.79064V6.71634H2.82042V6.80648Z" fill="#F5F5F5"/>
<path d="M3.64758 6.65588L3.83541 6.79247C3.87277 6.72802 3.91707 6.651 3.96544 6.56635L3.78516 6.45226C3.73819 6.52158 3.6923 6.58955 3.64758 6.65588Z" fill="#F5F5F5"/>
<path d="M3.45553 6.89288H2.82047V6.98302H3.45553V6.89288Z" fill="#F5F5F5"/>
<path d="M4.00809 6.4914C4.19371 6.16459 4.41796 5.7587 4.5104 5.54692C4.58221 5.38243 4.61282 5.29473 4.62548 5.24823C4.53843 5.35037 4.1744 5.87837 3.83353 6.38087L4.00809 6.4914Z" fill="#F5F5F5"/>
<path d="M5.27104 9.23541L4.70953 8.72049C4.7001 8.71186 4.6874 8.7076 4.67465 8.70957C4.66987 8.71018 4.65904 8.71168 4.64465 8.71365C4.64385 8.71285 4.64357 8.71177 4.64268 8.71107L3.52345 7.7123C3.53488 7.66782 3.54154 7.62146 3.54154 7.5735V7.24519H3.81304C3.84801 7.29071 3.90238 7.32057 3.96403 7.32057C4.02571 7.32057 4.08009 7.29071 4.11501 7.24519H4.25193V7.25058C4.25193 7.32179 4.30987 7.37972 4.38107 7.37972H5.10768C5.17888 7.37972 5.23682 7.32179 5.23682 7.25058V6.97744C5.23682 6.90624 5.17888 6.8483 5.10768 6.8483H4.38121C4.31001 6.8483 4.25207 6.90624 4.25207 6.97744V6.98283H4.11515C4.08018 6.93732 4.02581 6.90746 3.96417 6.90746C3.91738 6.90746 3.8751 6.92499 3.84187 6.95293C3.98699 6.70449 4.44295 5.91699 4.58938 5.58141C4.74646 5.22132 4.73381 5.17482 4.69668 5.14496C4.65749 5.1136 4.6079 5.14965 4.5892 5.16338C4.51715 5.21574 3.81857 6.24779 3.54163 6.65916V6.3195C3.54163 6.31852 3.54117 6.31772 3.54112 6.31683L3.54107 6.31674C3.54009 6.30216 3.53193 6.29002 3.52003 6.28304L3.34251 6.08616V5.5448C3.44517 5.50074 3.51206 5.42461 3.51206 5.33602C3.51206 5.19643 3.34654 5.08702 3.13528 5.08702C2.92401 5.08702 2.75849 5.19643 2.75849 5.33602C2.75849 5.42536 2.8266 5.50186 2.93071 5.54569V6.08926L2.75657 6.28243C2.74349 6.28983 2.73426 6.30333 2.73426 6.31941V6.67032C2.46271 6.26686 1.75181 5.21616 1.6792 5.16333C1.6604 5.14974 1.61076 5.11365 1.57167 5.14491C1.53449 5.17477 1.52184 5.22127 1.67896 5.58136C1.82076 5.9063 2.25262 6.65475 2.41167 6.92757C2.38626 6.91505 2.35809 6.90741 2.32795 6.90741C2.26626 6.90741 2.21189 6.93727 2.17696 6.98279H2.03999V6.9774C2.03999 6.90619 1.98206 6.84825 1.91085 6.84825H1.1842C1.11299 6.84825 1.05506 6.90619 1.05506 6.9774V7.25054C1.05506 7.32174 1.11299 7.37968 1.1842 7.37968H1.91076C1.98196 7.37968 2.0399 7.32174 2.0399 7.25054V7.24515H2.17682C2.21179 7.29066 2.26617 7.32052 2.32781 7.32052C2.38945 7.32052 2.44387 7.29066 2.47884 7.24515H2.73421V7.44343C2.33503 7.4349 1.22985 7.43358 1.16929 7.67607C1.16367 7.69852 1.1631 7.73335 1.19249 7.77094C1.30898 7.92015 1.89932 8.02904 2.32753 8.0866L1.62553 8.71097C1.62464 8.71177 1.62431 8.71285 1.62351 8.71365C1.60912 8.71163 1.59829 8.71018 1.59351 8.70957C1.58057 8.70769 1.56801 8.71186 1.55864 8.72049L0.997073 9.23541C0.980104 9.25088 0.978369 9.27704 0.993135 9.29471C1.01174 9.31711 1.05904 9.32804 1.12228 9.32804C1.27795 9.32804 1.53042 9.26166 1.69139 9.13599C1.82404 9.0324 2.19154 8.71018 2.78376 8.17833C2.8094 8.15532 2.82637 8.14004 2.83392 8.13333H2.98176C3.10462 8.13333 3.21792 8.09311 3.31035 8.02576L3.34682 8.05833C4.02867 8.66865 4.44238 9.03118 4.57668 9.13599C4.73765 9.2618 4.99007 9.32804 5.1457 9.32804C5.20898 9.32804 5.25623 9.31711 5.27488 9.29471C5.28979 9.27704 5.28796 9.25088 5.27104 9.23541ZM2.82042 8.04718V7.24524H3.45548V7.57355C3.45548 7.83465 3.24299 8.04718 2.98185 8.04718H2.82042ZM1.53679 7.84735C1.39964 7.80751 1.29623 7.76382 1.26046 7.71802C1.25076 7.70555 1.25226 7.6996 1.25292 7.69697C1.26412 7.65216 1.37203 7.61607 1.53679 7.58879V7.84735ZM1.64296 5.24855C1.73156 5.35294 2.09474 5.87963 2.43478 6.38091L2.26021 6.49144C2.07459 6.16463 1.85034 5.75874 1.7579 5.54696C1.68632 5.3829 1.65562 5.29529 1.64296 5.24855ZM2.66887 6.72741C2.69118 6.76051 2.71303 6.79304 2.73426 6.82472V6.98288H2.54376C2.53921 6.97519 2.51465 6.93333 2.47631 6.86743L2.66887 6.72741ZM2.4329 6.79257C2.39554 6.72811 2.35124 6.6511 2.30287 6.56644L2.48315 6.45235C2.53012 6.52168 2.57606 6.58969 2.62073 6.65597L2.4329 6.79257ZM2.73431 7.52977V8.04563C2.71326 8.04446 2.68795 8.04254 2.65893 8.04001V7.52846C2.6841 7.52883 2.70918 7.52925 2.73431 7.52977ZM1.77628 7.55855C2.00728 7.53671 2.28974 7.52635 2.57282 7.52771V8.03152C2.36376 8.00935 2.04764 7.96468 1.77628 7.90646V7.55855V7.55855ZM1.62285 7.57594C1.64465 7.57304 1.66696 7.57027 1.69017 7.5676V7.88715C1.66715 7.88171 1.64479 7.87622 1.62285 7.8706V7.57594ZM2.44096 8.10113C2.55365 8.11491 2.64806 8.12433 2.70951 8.12925C2.40632 8.40146 2.16285 8.61797 1.98131 8.77688C1.93546 8.76226 1.82578 8.74374 1.73423 8.72977L2.44096 8.10113ZM1.90199 8.84602C1.7782 8.95355 1.69017 9.0278 1.63856 9.06802C1.47215 9.19805 1.22643 9.2423 1.11449 9.2446L1.60209 8.79755C1.67718 8.80801 1.81799 8.82882 1.90199 8.84602ZM2.51901 7.15908V7.1295V7.09857V7.06899H3.77306V7.09857V7.1295V7.15908H2.51901ZM3.4259 5.33602C3.4259 5.42433 3.29282 5.49891 3.13528 5.49891C2.97773 5.49891 2.84465 5.42433 2.84465 5.33602C2.84465 5.24771 2.97773 5.17313 3.13528 5.17313C3.29282 5.17313 3.4259 5.24776 3.4259 5.33602ZM2.82042 6.63033V6.54019H3.45548V6.63033H2.82042ZM3.45548 6.7164V6.79069C3.45351 6.7959 3.45257 6.80115 3.45267 6.80654H2.82042V6.7164H3.45548ZM2.82042 6.45404V6.36657H3.45548V6.45404H2.82042ZM3.28364 6.14944L3.3981 6.27643H2.87803L2.99249 6.14944H3.28364ZM3.01687 6.05841V5.57171C3.05423 5.57968 3.09342 5.58507 3.13528 5.58507C3.17812 5.58507 3.21829 5.57954 3.25635 5.57119V6.05841H3.01687ZM2.82042 6.89269H3.45548V6.98283H2.82042V6.89269ZM4.5104 5.54696C4.41801 5.75874 4.19376 6.16463 4.00809 6.49144L3.83353 6.38091C4.1744 5.87841 4.53843 5.35041 4.62548 5.24827C4.61282 5.29477 4.58217 5.38247 4.5104 5.54696ZM4.06907 7.09857V7.1295C4.06907 7.1874 4.02201 7.23446 3.96412 7.23446C3.90623 7.23446 3.85917 7.1874 3.85917 7.1295V7.09857C3.85917 7.04068 3.90623 6.99361 3.96412 6.99361C4.02196 6.99361 4.06907 7.04068 4.06907 7.09857ZM3.8354 6.79257L3.64757 6.65597C3.69224 6.58965 3.73823 6.52163 3.78515 6.45235L3.96543 6.56644C3.91706 6.65105 3.87271 6.72802 3.8354 6.79257ZM3.54159 6.81338C3.56048 6.78526 3.5797 6.75666 3.59943 6.72736L3.79195 6.86738C3.7536 6.93324 3.72904 6.9751 3.72449 6.98283H3.54159V6.81338V6.81338ZM3.49303 7.80052L4.53431 8.72972C4.44267 8.74374 4.3327 8.7623 4.2869 8.77693C4.07643 8.59313 3.78159 8.33175 3.40434 7.99397L3.37692 7.96951C3.42543 7.92132 3.46471 7.86394 3.49303 7.80052ZM4.66621 8.7976L5.15113 9.24221C5.03428 9.24085 4.79357 9.19608 4.62979 9.06816C4.58043 9.02958 4.4924 8.95538 4.36635 8.84607C4.45031 8.82882 4.59112 8.80801 4.66621 8.7976ZM5.1509 6.97744V7.25058C5.1509 7.27426 5.13159 7.29361 5.10787 7.29361H4.38121C4.35749 7.29361 4.33818 7.27426 4.33818 7.25058V7.24519H4.37048C4.39429 7.24519 4.41356 7.22597 4.41356 7.20216V7.02586C4.41356 7.00205 4.39434 6.98279 4.37048 6.98279H4.33818V6.9774C4.33818 6.95372 4.35749 6.93432 4.38121 6.93432H5.10782C5.13154 6.93441 5.1509 6.95368 5.1509 6.97744ZM4.3274 7.15908H4.15518V7.1295V7.09857V7.06899H4.3274V7.15908ZM1.14117 7.25054V6.9774C1.14117 6.95372 1.16048 6.93432 1.1842 6.93432H1.91076C1.93448 6.93432 1.95384 6.95368 1.95384 6.9774V6.98279H1.92154C1.89773 6.98279 1.87846 7.002 1.87846 7.02586V7.20216C1.87846 7.22597 1.89768 7.24519 1.92154 7.24519H1.95384V7.25058C1.95384 7.27426 1.93453 7.29361 1.91076 7.29361H1.1842C1.16048 7.29366 1.14117 7.27435 1.14117 7.25054ZM1.96462 7.06894H2.13684V7.09852V7.12946V7.15904H1.96462V7.06894ZM2.4329 7.12946C2.4329 7.18735 2.38579 7.23441 2.32795 7.23441C2.2701 7.23441 2.22299 7.18735 2.22299 7.12946V7.09852C2.22299 7.04063 2.27006 6.99357 2.32795 6.99357C2.38584 6.99357 2.4329 7.04063 2.4329 7.09852V7.12946Z" fill="#D23741"/>
</svg>
