<svg xmlns="http://www.w3.org/2000/svg" width="24" height="24" viewBox="0 0 24 24" fill="none"><rect width="24" height="24" fill="none"/>
<g clip-path="url(#clip0)">
<path d="M23.9996 6.38343H-0.000442505V8.62982H23.9996V6.38343Z" fill="#F5F5F5"/>
<path d="M23.9996 8.62922H-0.000442505V10.8756H23.9996V8.62922Z" fill="#73AF00"/>
<path d="M23.9996 10.8755H-0.000442505V13.1219H23.9996V10.8755Z" fill="#F5F5F5"/>
<path d="M23.9996 13.1217H-0.000442505V15.3681H23.9996V13.1217Z" fill="#73AF00"/>
<path d="M23.9996 15.3684H-0.000442505V17.6148H23.9996V15.3684Z" fill="#F5F5F5"/>
<path d="M22.2031 4.13911H1.79796C0.805284 4.13911 0.000534058 4.94381 0.000534058 5.93653V6.38301H24.0004V5.9348C23.9995 4.94292 23.1952 4.13911 22.2031 4.13911Z" fill="#73AF00"/>
<path d="M23.9996 17.6145H-0.000396729V18.0659C-0.000396729 19.0274 0.754666 19.8126 1.70417 19.8609H22.2949C23.2439 19.8126 23.9986 19.0283 23.9995 18.0676V17.6146L23.9996 17.6145Z" fill="#73AF00"/>
<path d="M0.000534058 5.93653V10.4632C0.00133093 10.6911 0.186206 10.8756 0.414253 10.8756H11.5866C11.8151 10.8756 12.0004 10.6903 12.0004 10.4618V4.55053C12.0004 4.33687 11.8384 4.16105 11.6305 4.13911H1.79796C0.805284 4.13911 0.000534058 4.94381 0.000534058 5.93653Z" fill="#FF4B55"/>
<path d="M6.36279 10.3436H5.69562C5.63496 10.3436 5.58064 10.3058 5.55959 10.2489L5.34476 9.66894C5.2609 9.44253 5.22326 9.20159 5.23404 8.96042L5.30885 7.28534C5.31078 7.24283 5.33806 7.20566 5.37804 7.19112C5.44667 7.16614 5.51932 7.217 5.51932 7.29008V8.05288C5.51932 8.0742 5.53662 8.0915 5.55795 8.0915C5.57853 8.0915 5.5955 8.07538 5.59653 8.0548L5.65648 6.83848C5.65892 6.78908 5.69604 6.74839 5.74498 6.74141C5.80564 6.73273 5.86048 6.77853 5.86278 6.83984L5.90417 7.9738C5.90501 7.99658 5.92517 8.01373 5.94776 8.01087C5.96689 8.00848 5.98137 7.99241 5.98175 7.97309L6.00664 6.71305C6.008 6.64423 6.07568 6.59647 6.14098 6.61822C6.18096 6.63158 6.20862 6.66805 6.21064 6.71014L6.27214 7.98373C6.27279 7.99789 6.28109 8.01059 6.29375 8.01692C6.31934 8.02977 6.34962 8.01172 6.35046 7.98303L6.38131 6.99622C6.38365 6.92169 6.4617 6.87411 6.52901 6.90617C6.563 6.92234 6.5855 6.95577 6.5877 6.99336L6.65951 8.20452L6.85165 8.765C6.86248 8.79645 6.90668 8.79706 6.91812 8.76584C6.97254 8.6173 7.09606 8.33989 7.29425 8.21773C7.32935 8.19612 7.37435 8.19889 7.40735 8.22364C7.45587 8.26006 7.46154 8.33023 7.42006 8.37444C7.32345 8.47728 7.18259 8.69342 7.19276 9.07344C7.19407 9.12181 7.18006 9.16934 7.15146 9.20839L6.61006 9.94798C6.55587 10.022 6.52109 10.1085 6.50895 10.1995L6.50651 10.2177C6.49704 10.2897 6.43554 10.3436 6.36279 10.3436Z" fill="#F5F5F5"/>
<path d="M6.03102 4.70337L6.13972 5.02934L6.48332 5.03197C6.50994 5.03215 6.52096 5.06614 6.49953 5.08198L6.22311 5.28608L6.32675 5.61369C6.33477 5.63909 6.30589 5.66009 6.28424 5.64458L6.00467 5.44475L5.72511 5.64458C5.70346 5.66004 5.67458 5.63904 5.6826 5.61369L5.78624 5.28608L5.50982 5.08198C5.48839 5.06614 5.49941 5.03215 5.52603 5.03197L5.86963 5.02934L5.97833 4.70337C5.98682 4.67806 6.02258 4.67806 6.03102 4.70337Z" fill="#F5F5F5"/>
<path d="M4.41462 5.17236L4.52333 5.49833L4.86692 5.50096C4.89355 5.50114 4.90456 5.53513 4.88314 5.55097L4.60672 5.75507L4.71036 6.08267C4.71837 6.10808 4.6895 6.12908 4.66784 6.11356L4.38828 5.91374L4.10872 6.11356C4.08706 6.12903 4.05819 6.10803 4.0662 6.08267L4.16984 5.75507L3.89342 5.55097C3.872 5.53513 3.88302 5.50114 3.90964 5.50096L4.25323 5.49833L4.36194 5.17236C4.37052 5.1471 4.40619 5.1471 4.41462 5.17236Z" fill="#F5F5F5"/>
<path d="M7.68669 5.17236L7.79539 5.49833L8.13899 5.50096C8.16561 5.50114 8.17663 5.53513 8.1552 5.55097L7.87878 5.75507L7.98242 6.08267C7.99044 6.10808 7.96156 6.12908 7.93991 6.11356L7.66034 5.91374L7.38078 6.11356C7.35913 6.12903 7.33025 6.10803 7.33827 6.08267L7.44191 5.75507L7.16549 5.55097C7.14406 5.53513 7.15508 5.50114 7.1817 5.50096L7.5253 5.49833L7.634 5.17236C7.64258 5.1471 7.67825 5.1471 7.68669 5.17236Z" fill="#F5F5F5"/>
<path d="M8.77072 6.40494L8.87942 6.73091L9.22302 6.73353C9.24964 6.73372 9.26066 6.7677 9.23924 6.78355L8.96281 6.98764L9.06645 7.31525C9.07447 7.34066 9.04559 7.36165 9.02394 7.34614L8.74438 7.14631L8.46481 7.34614C8.44316 7.36161 8.41428 7.34061 8.4223 7.31525L8.52594 6.98764L8.24952 6.78355C8.22809 6.7677 8.23911 6.73372 8.26573 6.73353L8.60933 6.73091L8.71803 6.40494C8.72661 6.37967 8.76228 6.37967 8.77072 6.40494Z" fill="#F5F5F5"/>
<path d="M3.24046 6.40494L3.34916 6.73091L3.69276 6.73353C3.71938 6.73372 3.7304 6.7677 3.70898 6.78355L3.43255 6.98764L3.53619 7.31525C3.54421 7.34066 3.51534 7.36165 3.49368 7.34614L3.21412 7.14631L2.93455 7.34614C2.9129 7.36161 2.88402 7.34061 2.89204 7.31525L2.99568 6.98764L2.71926 6.78355C2.69784 6.7677 2.70885 6.73372 2.73548 6.73353L3.07907 6.73091L3.18777 6.40494C3.19626 6.37967 3.23202 6.37967 3.24046 6.40494Z" fill="#F5F5F5"/>
<path d="M9.08253 8.0217L9.19124 8.34767L9.53483 8.35029C9.56145 8.35048 9.57247 8.38447 9.55105 8.40031L9.27463 8.6044L9.37827 8.93201C9.38628 8.95742 9.35741 8.97842 9.33575 8.9629L9.05619 8.76308L8.77663 8.9629C8.75497 8.97837 8.7261 8.95737 8.73411 8.93201L8.83775 8.6044L8.56133 8.40031C8.53991 8.38447 8.55092 8.35048 8.57755 8.35029L8.92114 8.34767L9.02984 8.0217C9.03833 7.99643 9.0741 7.99643 9.08253 8.0217Z" fill="#F5F5F5"/>
<path d="M2.81918 8.0217L2.92788 8.34767L3.27148 8.35029C3.2981 8.35048 3.30912 8.38447 3.2877 8.40031L3.01127 8.6044L3.11492 8.93201C3.12293 8.95742 3.09406 8.97842 3.0724 8.9629L2.79284 8.76308L2.51327 8.9629C2.49162 8.97837 2.46274 8.95737 2.47076 8.93201L2.5744 8.6044L2.29798 8.40031C2.27656 8.38447 2.28757 8.35048 2.3142 8.35029L2.65779 8.34767L2.76649 8.0217C2.77502 7.99643 2.81074 7.99643 2.81918 8.0217Z" fill="#F5F5F5"/>
</g>
<defs>
<clipPath id="clip0">
<path d="M0 0H24V24H0V0Z" fill="white"/>
</clipPath>
</defs>
</svg>
