<svg xmlns="http://www.w3.org/2000/svg" width="24" height="24" viewBox="0 0 24 24" fill="none"><rect width="24" height="24" fill="none"/>
<path d="M22.2026 19.8621H1.79742C0.804703 19.8621 0 19.0574 0 18.0646V5.93536C0 4.94269 0.804703 4.13794 1.79742 4.13794H22.2026C23.1952 4.13794 24 4.94264 24 5.93536V18.0647C24 19.0574 23.1953 19.8621 22.2026 19.8621Z" fill="#41479B"/>
<path d="M0.413813 12H1.13259L4.96556 9.48872V12H7.03453V9.48872L10.8675 12H11.5862C11.8148 12 12 11.8147 12 11.5862V11.258L8.71158 9.10346H12V7.03449H8.71148L12 4.87997V4.55175C12 4.32324 11.8148 4.13803 11.5863 4.13794H10.8674L7.03448 6.64922V4.13794H4.96552V6.64922L1.25831 4.22035C1.15111 4.254 1.04822 4.29755 0.950719 4.34977C0.949781 4.35028 0.948797 4.35075 0.947812 4.35127C0.925734 4.36313 0.903938 4.37564 0.882422 4.38839C0.879797 4.38994 0.877078 4.39139 0.874453 4.39294C0.853594 4.40546 0.833109 4.41853 0.812859 4.43185C0.809766 4.43391 0.806531 4.43583 0.803437 4.43789C0.783234 4.45135 0.763406 4.46531 0.743766 4.47956C0.740859 4.48167 0.737859 4.48369 0.734953 4.48585C0.715125 4.50038 0.695766 4.51542 0.676547 4.53075C0.674062 4.53277 0.671484 4.53469 0.669 4.5367C0.649594 4.55236 0.630563 4.56858 0.611813 4.58503C0.609797 4.58686 0.607687 4.58855 0.605672 4.59042C0.586687 4.6073 0.568125 4.62455 0.549844 4.64213C0.54825 4.64367 0.546563 4.64522 0.544922 4.64677C0.526406 4.66481 0.508313 4.68324 0.490547 4.70199C0.489375 4.7032 0.488156 4.70447 0.486984 4.70578C0.468984 4.72496 0.451359 4.7446 0.434156 4.76461C0.433359 4.76555 0.432609 4.76644 0.431812 4.76733C0.414375 4.78772 0.397359 4.80844 0.380859 4.82967C0.380438 4.83019 0.379969 4.83075 0.379547 4.83131C0.362859 4.85278 0.346547 4.87463 0.330844 4.89685C0.330656 4.89717 0.330375 4.89746 0.330188 4.89783C0.31425 4.92028 0.298828 4.94311 0.284016 4.96631C0.283969 4.96636 0.283922 4.96646 0.283875 4.9665C0.268875 4.98989 0.254438 5.01361 0.240516 5.03766L3.28852 7.03449H0V9.10346H3.28847L0 11.258V11.5865C0.000140625 11.8149 0.185344 12 0.413813 12Z" fill="#F5F5F5"/>
<path d="M12 7.4483H6.62067V4.13794H5.37933V7.4483H0V8.68964H5.37933V12H6.62067V8.68964H12V7.4483Z" fill="#FF4B55"/>
<path d="M0.385689 4.82359L3.79167 7.03449H4.5517L0.684704 4.52434C0.573658 4.61199 0.473345 4.71249 0.385689 4.82359Z" fill="#FF4B55"/>
<path d="M7.79452 7.03449L11.937 4.34546C11.865 4.22363 11.738 4.13794 11.5862 4.13794H11.4967L7.03448 7.03449H7.79452Z" fill="#FF4B55"/>
<path d="M4.1941 9.10345L0.0594864 11.7873C0.130783 11.9121 0.259783 12 0.413815 12H0.491861L4.95417 9.10345H4.1941Z" fill="#FF4B55"/>
<path d="M11.9934 11.6187L8.11847 9.10342H7.35844L11.7588 11.9598C11.8906 11.8986 11.981 11.7704 11.9934 11.6187Z" fill="#FF4B55"/>
<path d="M18.1503 8.31377C18.141 8.31377 18.1315 8.31082 18.1234 8.30473C18.1169 8.29976 17.4747 7.79927 17.8529 6.95102C17.863 6.92852 17.8894 6.91859 17.9119 6.92843C17.9344 6.93856 17.9445 6.96485 17.9345 6.98745C17.5857 7.76965 18.1531 8.2151 18.1774 8.23366C18.197 8.24857 18.2008 8.27655 18.1858 8.29615C18.177 8.30768 18.1638 8.31377 18.1503 8.31377Z" fill="#73AF00"/>
<path d="M17.7804 7.58107C17.7786 7.58107 17.777 7.58098 17.7752 7.58079C17.7507 7.57788 17.7332 7.55576 17.736 7.53129C17.7546 7.37088 17.8149 7.25895 17.9155 7.19867C18.0771 7.10149 18.2793 7.17912 18.2877 7.18254C18.3106 7.19154 18.3219 7.21732 18.3129 7.24024C18.3039 7.26317 18.2779 7.2746 18.2552 7.2656C18.2534 7.26495 18.0846 7.20082 17.961 7.2754C17.8858 7.32082 17.8399 7.41035 17.8248 7.5416C17.8221 7.56434 17.8027 7.58107 17.7804 7.58107Z" fill="#73AF00"/>
<path d="M17.9017 7.00594C17.8978 6.99609 17.8013 6.76697 17.3651 6.86447C16.8711 6.97514 16.8653 7.62684 16.8653 7.63336C16.8653 7.65576 16.882 7.67479 16.9043 7.67765C16.9062 7.67794 16.9081 7.67803 16.91 7.67803C16.93 7.67803 16.948 7.66453 16.9531 7.6447C17.1372 6.94336 17.8229 7.06115 17.8521 7.06626C17.8686 7.06922 17.8844 7.06312 17.8946 7.05075C17.905 7.03814 17.9077 7.02098 17.9017 7.00594Z" fill="#73AF00"/>
<path d="M17.7989 7.36901C17.7989 7.36901 17.5013 7.17935 17.3786 7.42109C17.2558 7.66287 17.3488 7.92321 17.3972 8.02737C17.3972 8.02737 17.5745 7.83129 17.7431 7.8042C17.9514 7.77073 18.0035 7.51034 17.8584 7.38017C17.6851 7.22468 17.7989 7.36901 17.7989 7.36901Z" fill="#73AF00"/>
<path d="M18.124 6.92468C18.1197 7.18503 18.2648 7.21915 18.2648 7.21915C18.3586 6.98014 18.124 6.92468 18.124 6.92468Z" fill="#73AF00"/>
<path d="M18.0785 7.47148C18.0805 7.22445 18.248 7.19666 18.248 7.19666C18.3496 7.42634 18.0785 7.47148 18.0785 7.47148Z" fill="#73AF00"/>
<path d="M19.0449 7.27254C19.0449 7.27254 18.808 7.23752 18.7171 7.19459C18.6415 7.15892 18.5428 7.07276 18.4151 7.08959C18.3174 7.08959 18.2383 7.16871 18.2383 7.2664C18.2383 7.36404 18.3053 7.48104 18.6562 7.45507C18.8264 7.44246 18.9713 7.52018 18.9713 7.52018C18.949 7.42718 19.0449 7.27254 19.0449 7.27254Z" fill="#FF4B55"/>
<path d="M18.7991 7.35006C18.7991 7.35006 18.4357 7.37523 18.3559 7.31645C18.2823 7.26217 18.3015 7.17573 18.3769 7.16734C18.4904 7.15468 18.7991 7.35006 18.7991 7.35006Z" fill="#FFE15A"/>
<path d="M19.5061 7.76162L18.7027 8.26375L18.6106 8.17445L19.0514 7.74761L19.1545 7.78947L19.255 7.65554L19.0151 7.53001C19.0151 7.53001 18.379 8.12973 17.8379 8.17998C17.6558 8.1969 17.4703 8.185 17.3256 8.12542L17.001 8.59286L17.6816 9.17308L18.6803 9.13403L19.506 8.01259L19.651 8.07953L19.7737 7.9345L19.5061 7.76162Z" fill="#B49B91"/>
<path d="M17.2671 9.11363C17.0436 9.11363 16.8617 8.93176 16.8617 8.70835C16.8617 8.48485 17.0436 8.30298 17.2671 8.30298C17.4906 8.30298 17.6724 8.48485 17.6724 8.70835C17.6724 8.93181 17.4906 9.11363 17.2671 9.11363ZM17.2671 8.4369C17.1174 8.4369 16.9957 8.55868 16.9957 8.70835C16.9957 8.85803 17.1174 8.97976 17.2671 8.97976C17.4168 8.97976 17.5385 8.85807 17.5385 8.70835C17.5385 8.55863 17.4168 8.4369 17.2671 8.4369Z" fill="#9B8278"/>
<path d="M18.9556 9.48938C18.9556 9.48938 19.03 9.44101 19.1044 9.21418L18.9519 9.23649C18.9519 9.23649 18.9816 9.11002 18.9482 9.01702L18.7771 9.15094C18.7771 9.15094 18.699 8.9873 18.6656 8.96499C18.6656 8.96499 18.5465 9.13238 18.4796 9.15465C18.4796 9.15465 18.4127 8.91287 18.3457 8.86454L18.2304 9.02818L18.0593 8.89426C18.0593 8.89426 18.0593 9.00957 18.0556 9.03563C18.0519 9.06165 17.8324 8.80505 17.8324 8.80505C17.8324 8.80505 17.7357 8.84598 17.6055 9.05424L17.4419 8.88685L17.375 9.10632L17.1481 9.04679L17.1853 9.17696L16.9881 9.16205C16.9881 9.16205 17.0216 9.35546 17.1183 9.42244L18.9556 9.48938Z" fill="#73AF00"/>
<path d="M16.9843 10.317C16.9843 10.317 16.3707 11.098 15.2102 11.0088L16.4711 11.1818L17.1182 10.5681L16.9843 10.317Z" fill="#73AF00"/>
<path d="M14.9814 10.8916C15.1042 10.9809 15.863 11.1985 16.4097 10.9362C16.4097 10.9362 16.4209 11.0645 16.3595 11.1371C16.3595 11.1371 16.7612 10.9752 16.9788 10.674C17.1965 10.3727 16.5269 11.3211 16.5269 11.3211L15.5003 11.5108L15.0819 11.1648L14.9814 10.8916Z" fill="#FFE15A"/>
<path d="M14.9007 8.07888C14.7644 8.09032 14.617 8.1724 14.5416 8.2721C14.5005 8.25466 14.4092 8.24693 14.3336 8.29727C14.2329 8.3644 14.0468 8.60684 13.8907 8.54271C13.8907 8.54271 13.8767 8.77141 14.1194 8.76312C14.1194 8.76312 14.0579 8.85799 14.0692 9.0086C14.0803 9.15921 13.9715 9.25966 13.9715 9.25966C13.9715 9.25966 14.4625 9.32937 14.482 8.94724C14.4844 8.90055 14.4868 8.8594 14.4891 8.82269C14.7453 8.96107 14.8461 8.76574 14.8461 8.76574C14.8461 8.76574 14.6921 8.62029 14.8489 8.41324C15.0056 8.20615 15.4364 8.6943 15.4364 8.6943C15.4448 8.49898 15.4273 8.03463 14.9007 8.07888Z" fill="#FFE15A"/>
<path d="M16.7983 9.36658C16.7983 9.36658 16.657 9.46328 16.2181 9.37403C16.2181 9.37403 16.3148 9.15831 16.2702 9.03184C16.2702 9.03184 16.1512 9.1434 15.8611 9.25501C15.571 9.36662 15.2139 9.72367 15.1097 9.95429C15.1097 9.95429 15.7622 8.45017 15.2381 8.29726C15.0583 8.24481 14.9036 8.32984 14.8489 8.41323C14.8753 8.44445 14.9008 8.48893 14.9033 8.54832C14.9089 8.67667 14.7806 9.54142 14.5909 10.1384C14.5909 10.1384 14.5351 9.93193 14.4459 9.83148C14.3567 9.73103 14.2897 9.56926 14.2897 9.56926C14.2897 9.56926 14.1391 9.66972 14.1613 9.85379C14.1613 9.85379 14.0777 9.78686 13.9159 9.83148C13.7541 9.87611 13.6927 9.77007 13.6927 9.77007C13.6927 9.77007 13.5588 10.1271 13.9549 10.3112C13.9549 10.3112 13.8489 10.3615 13.7987 10.4005C13.7485 10.4396 13.6704 10.4396 13.6704 10.4396C13.6704 10.4396 13.8099 10.6962 14.1055 10.7241C14.4012 10.752 14.5371 10.8363 14.63 10.9882C14.9313 11.481 15.5078 11.8548 16.4488 11.2783C16.4488 11.2783 15.1098 11.6949 15.0503 10.8394C14.9982 10.091 15.8165 9.93929 15.8983 10.1029C15.9801 10.2666 15.8908 10.4079 15.8908 10.4079C15.8908 10.4079 16.3372 10.3038 16.1214 9.89462C16.1214 9.89472 16.5603 9.9617 16.7983 9.36658Z" fill="#73AF00"/>
<path d="M21.0962 10.8916C20.9735 10.9809 20.198 11.3156 19.6623 10.78C19.1267 10.2444 18.9178 9.44023 18.9482 9.53023H18.4126L18.5911 11.1371L20.5773 11.5109L20.9958 11.165L21.0962 10.8916Z" fill="#73AF00"/>
<path d="M21.1769 8.07888C21.3132 8.09032 21.4606 8.1724 21.5361 8.2721C21.5771 8.25466 21.6684 8.24693 21.744 8.29727C21.8447 8.3644 22.0308 8.60684 22.187 8.54271C22.187 8.54271 22.2009 8.77141 21.9583 8.76312C21.9583 8.76312 22.0197 8.85799 22.0085 9.0086C21.9973 9.15921 22.1061 9.25966 22.1061 9.25966C22.1061 9.25966 21.6151 9.32937 21.5956 8.94724C21.5932 8.90055 21.5908 8.8594 21.5886 8.82269C21.3323 8.96107 21.2315 8.76574 21.2315 8.76574C21.2315 8.76574 21.3854 8.62029 21.2287 8.41324C21.072 8.20615 20.6413 8.6943 20.6413 8.6943C20.6329 8.49898 20.6504 8.03463 21.1769 8.07888Z" fill="#73AF00"/>
<path d="M19.2792 9.36658C19.2792 9.36658 19.4205 9.46328 19.8594 9.37403C19.8594 9.37403 19.7627 9.15831 19.8074 9.03184C19.8074 9.03184 19.9264 9.1434 20.2165 9.25501C20.5066 9.36662 20.8636 9.72367 20.9678 9.95429C20.9678 9.95429 20.3153 8.45017 20.8395 8.29726C21.0193 8.24481 21.174 8.32984 21.2287 8.41323C21.2022 8.44445 21.1768 8.48893 21.1742 8.54832C21.1687 8.67667 21.297 9.54142 21.4867 10.1384C21.4867 10.1384 21.5425 9.93193 21.6317 9.83148C21.7209 9.73103 21.7879 9.56926 21.7879 9.56926C21.7879 9.56926 21.9385 9.66972 21.9162 9.85379C21.9162 9.85379 21.9999 9.78686 22.1617 9.83148C22.3235 9.87611 22.3849 9.77007 22.3849 9.77007C22.3849 9.77007 22.5188 10.1271 22.1227 10.3112C22.1227 10.3112 22.2286 10.3615 22.2788 10.4005C22.329 10.4396 22.4072 10.4396 22.4072 10.4396C22.4072 10.4396 22.2677 10.6962 21.972 10.7241C21.6764 10.752 21.5405 10.8363 21.4476 10.9882C21.1463 11.481 20.5698 11.8548 19.6288 11.2783C19.6288 11.2783 20.9678 11.6949 21.0273 10.8394C21.0794 10.091 20.2611 9.93929 20.1793 10.1029C20.0974 10.2666 20.1867 10.4079 20.1867 10.4079C20.1867 10.4079 19.7404 10.3038 19.9561 9.89462C19.9562 9.89472 19.5173 9.9617 19.2792 9.36658Z" fill="#FFE15A"/>
<path d="M18.8999 10.6163C19.1193 10.9362 19.4243 11.2263 20.3095 11.5015C21.1948 11.7767 21.4314 11.8177 21.8953 12.1929C21.8953 12.1929 21.9834 12.2859 22.0171 12.4351C22.0567 12.6103 21.7866 13.1157 21.7866 13.1157C21.7866 13.1157 21.8126 12.9967 21.6489 12.7661C21.4853 12.5356 20.5182 12.119 20.0124 11.9925C19.5065 11.866 18.6324 11.2793 18.8743 10.8395L18.8999 10.6163Z" fill="#73AF00"/>
<path d="M21.8944 12.1914C21.8948 12.1919 21.8949 12.1924 21.8953 12.1928C21.8947 12.1922 21.8943 12.1916 21.8937 12.191L21.8944 12.1914Z" fill="#73AF00"/>
<path d="M21.8721 13.2794C21.8721 13.2794 21.8944 13.4412 21.7605 13.5807C21.6266 13.7202 21.5318 13.8206 21.5373 13.9378C21.5373 13.9378 21.3365 13.7927 21.3699 13.4691C21.3699 13.4691 21.1077 13.6867 20.7116 13.4747C20.7116 13.4747 20.7506 13.0786 21.264 13.0284C21.264 13.0284 21.0631 12.8722 21.3254 12.6323C21.3254 12.6323 21.3558 12.7396 21.5932 12.7941C21.7996 12.8415 22.1669 12.5826 21.8953 12.1929C22.363 12.7215 22.1231 13.0841 21.8721 13.2794Z" fill="#FFE15A"/>
<path d="M18.7083 10.3225C18.7083 10.3225 18.8214 10.5074 19.1156 10.687C19.469 10.9027 19.5006 11.0031 19.5006 11.0031L19.2607 10.9975C19.2607 10.9975 19.5676 11.1649 19.6513 11.3769C19.6513 11.3769 19.5229 11.3992 19.3779 11.3602C19.3779 11.3602 19.495 11.4661 19.4393 11.8065H18.8423L18.7083 10.3225Z" fill="#FFE15A"/>
<path d="M17.52 11.8512V10.4229C17.52 10.4229 17.0352 11.2523 16.6164 11.8512H17.52Z" fill="#73AF00"/>
<path d="M17.103 10.3931C16.9839 10.6088 16.612 11.3193 15.7268 11.5945C14.8415 11.8697 14.6797 11.8177 14.2158 12.1929C14.2158 12.1929 14.1277 12.2859 14.0939 12.4351C14.0543 12.6103 14.3245 13.1157 14.3245 13.1157C14.3245 13.1157 14.2985 12.9967 14.4621 12.7661C14.6258 12.5355 15.5874 12.0947 16.0987 11.9925C16.8058 11.8511 17.4455 11.0924 17.3414 10.6014C17.2373 10.1105 17.103 10.3931 17.103 10.3931Z" fill="#FFE15A"/>
<path d="M14.2167 12.1915C14.2163 12.192 14.2162 12.1925 14.2158 12.1929C14.2164 12.1923 14.2168 12.1917 14.2174 12.1911L14.2167 12.1915Z" fill="#73AF00"/>
<path d="M14.239 13.2794C14.239 13.2794 14.2167 13.4412 14.3506 13.5807C14.4845 13.7202 14.5793 13.8206 14.5738 13.9378C14.5738 13.9378 14.7746 13.7928 14.7412 13.4691C14.7412 13.4691 15.0034 13.6867 15.3995 13.4747C15.3995 13.4747 15.3605 13.0786 14.8472 13.0284C14.8472 13.0284 15.048 12.8722 14.7858 12.6323C14.7858 12.6323 14.7553 12.7396 14.518 12.7941C14.3116 12.8415 13.9443 12.5826 14.2159 12.193C13.7481 12.7215 13.988 13.0842 14.239 13.2794Z" fill="#73AF00"/>
<path d="M15.4743 15.6599C15.4743 15.6599 15.6007 16.229 15.6082 16.8167C15.6082 16.8167 16.1624 16.8353 16.4302 16.4187C16.4302 16.4187 15.8946 16.1398 15.6082 15.6004L15.4743 15.6599Z" fill="#FFE15A"/>
<path d="M15.3552 14.4027C15.3329 14.1349 15.4519 13.458 15.9949 12.967L16.0082 12.3658C16.0082 12.3658 15.8465 12.3827 15.703 12.5082L15.3961 12.9838L15.1116 14.0606L15.3552 14.4027Z" fill="#73AF00"/>
<path d="M15.3701 14.5961C15.3701 14.5961 15.3701 15.1689 15.6081 15.6004L15.4742 15.6599C15.4742 15.6599 14.9944 15.2824 14.894 14.5069C14.894 14.5069 14.4644 14.7914 14.3063 14.2093C14.3063 14.2093 14.7675 14.3953 14.9163 13.9713C15.0505 13.5887 15.1862 12.8922 15.703 12.5082C15.4573 12.8858 15.0874 13.8523 15.3738 14.1945C15.4496 14.2851 15.6676 14.3619 15.9062 14.26C15.8907 14.4503 15.7999 14.7411 15.3701 14.5961Z" fill="#FFE15A"/>
<path d="M15.4396 15.7615L15.3612 15.6175C15.3475 15.5923 15.3568 15.5608 15.382 15.547L15.525 15.4693C15.5502 15.4556 15.5817 15.4649 15.5955 15.4901L15.6738 15.6341C15.6875 15.6593 15.6782 15.6909 15.653 15.7046L15.51 15.7823C15.4848 15.796 15.4533 15.7867 15.4396 15.7615Z" fill="#FFCE5A"/>
<path d="M20.2798 15.6598C20.2798 15.6598 20.1534 16.2288 20.1459 16.8166C20.1459 16.8166 19.5917 16.8352 19.3239 16.4186C19.3239 16.4186 19.8595 16.1396 20.1459 15.6003L20.2798 15.6598Z" fill="#FFE15A"/>
<path d="M20.3989 14.4026C20.4212 14.1348 20.3022 13.4578 19.7592 12.9669L19.7458 12.3657C19.7458 12.3657 19.9076 12.3825 20.0511 12.5081L20.3579 12.9836L20.6425 14.0605L20.3989 14.4026Z" fill="#FFE15A"/>
<path d="M19.8478 14.2599C20.0864 14.3619 20.3044 14.2851 20.3803 14.1945C20.6667 13.8523 20.2967 12.8858 20.0511 12.5082C20.5679 12.8922 20.7035 13.5886 20.8378 13.9712C20.9866 14.3953 21.4478 14.2093 21.4478 14.2093C21.2897 14.7914 20.8601 14.5068 20.8601 14.5068C20.7596 15.2823 20.2799 15.6599 20.2799 15.6599L20.1459 15.6004C20.384 15.1689 20.384 14.5961 20.384 14.5961C19.9541 14.7411 19.8634 14.4503 19.8478 14.2599Z" fill="#73AF00"/>
<path d="M20.3145 15.7615L20.3928 15.6175C20.4065 15.5923 20.3972 15.5608 20.372 15.547L20.229 15.4693C20.2038 15.4556 20.1723 15.4649 20.1586 15.4901L20.0802 15.6341C20.0665 15.6593 20.0758 15.6909 20.101 15.7046L20.244 15.7823C20.2692 15.796 20.3007 15.7867 20.3145 15.7615Z" fill="#FFCE5A"/>
<path d="M16.0917 11.6726C15.9931 11.6726 15.9131 11.7526 15.9131 11.8512V13.8151C15.9131 14.3507 16.0917 16.3145 17.877 17.0287C19.6624 16.3145 19.8409 14.3507 19.8409 13.8151V11.8512C19.8409 11.7526 19.761 11.6726 19.6623 11.6726H16.0917Z" fill="#4173CD"/>
<path d="M17.7688 11.6726L16.0756 14.9178C16.118 15.0679 16.1708 15.2233 16.2372 15.3802L17.877 12.2371L19.5169 15.3802C19.5832 15.2232 19.6361 15.0679 19.6785 14.9178L17.9853 11.6726H17.7688V11.6726Z" fill="#FFE15A"/>
<path d="M19.5169 15.3802L17.877 12.2371L16.2371 15.3802C16.5072 16.0195 16.9959 16.6763 17.877 17.0287C18.7581 16.6763 19.2468 16.0195 19.5169 15.3802Z" fill="#73AF00"/>
<path d="M18.5409 15.5837L18.6489 15.6354C18.6037 15.7024 18.5094 15.8107 18.3291 15.9088C18.1929 15.9829 18.0613 16.0706 17.9662 16.1378V14.6644L18.4126 14.6185V14.4399L17.9662 14.3941V14.1722C17.9662 14.1228 17.9263 14.0829 17.877 14.0829C17.8349 14.0829 17.8013 14.1125 17.7918 14.1517C17.7622 14.1304 17.7277 14.1153 17.6886 14.1153C17.5887 14.1153 17.5074 14.1966 17.5074 14.2965C17.5074 14.3435 17.5265 14.3856 17.556 14.4179L17.3414 14.4399V14.6185L17.7877 14.6644V16.1378C17.6927 16.0706 17.5611 15.9829 17.4249 15.9088C17.2446 15.8107 17.1503 15.7024 17.1051 15.6354L17.2131 15.5837L16.8058 15.0648V15.7789L16.9431 15.7131C16.9974 15.8006 17.1122 15.9419 17.3396 16.0655C17.5299 16.1691 17.7145 16.3036 17.7877 16.3587L17.877 16.4279L17.9663 16.3587C18.0395 16.3036 18.2242 16.1691 18.4144 16.0655C18.6418 15.9419 18.7567 15.8006 18.8109 15.7131L18.9482 15.7789V15.0648L18.5409 15.5837ZM17.6886 14.3885C17.6379 14.3885 17.5966 14.3473 17.5966 14.2966C17.5966 14.2458 17.6378 14.2046 17.6886 14.2046C17.7394 14.2046 17.7806 14.2458 17.7806 14.2966C17.7806 14.3473 17.7394 14.3885 17.6886 14.3885Z" fill="#FFE15A"/>
<path d="M18.0149 13.9936H17.7391C17.6674 13.9936 17.6092 13.9355 17.6092 13.8637V13.4093C17.6092 13.3376 17.6673 13.2794 17.7391 13.2794H18.0149C18.0867 13.2794 18.1448 13.3375 18.1448 13.4093V13.8637C18.1448 13.9355 18.0867 13.9936 18.0149 13.9936Z" fill="#F5F5F5"/>
<path d="M19.1268 11.6726C18.7697 11.137 18.7697 10.0658 18.7697 10.0658C18.7697 10.0658 18.7697 9.35165 17.8771 9.35165C17.4249 9.35165 17.2022 9.53494 17.0921 9.71573C16.6637 9.88786 16.4488 10.2443 16.4488 10.2443C16.6314 10.3357 16.7928 10.3792 16.9393 10.3903C17.2303 10.7367 17.3272 11.0711 17.3529 11.3117C17.1853 11.4829 17.0923 11.8957 17.3415 12.2082C17.3415 12.2082 17.8696 12.0855 18.3155 11.6726H19.1267V11.6726H19.1268V11.6726Z" fill="#B49B91"/>
<path d="M18.3155 11.6725H18.9818C18.9482 11.3433 18.6247 11.3963 18.3155 11.6725Z" fill="#9B8278"/>
<path d="M18.9652 11.3355C18.77 10.7815 18.7697 10.0657 18.7697 10.0657C18.7697 10.0657 18.7697 10.054 18.7679 10.034C18.5354 10.0025 18.2975 10.0196 17.8324 10.1996C17.3373 10.3912 17.0949 10.3967 16.9392 10.3902C17.2303 10.7366 17.3271 11.071 17.3528 11.3116L17.36 11.6911C17.36 11.6911 17.639 11.732 18.2527 11.3786C18.5588 11.2024 18.8183 11.1873 18.9652 11.3355Z" fill="#9B8278"/>
<path d="M18.0146 9.9877C18.3767 9.89719 18.6078 9.90651 18.7567 9.95934C18.7168 9.76045 18.5528 9.35165 17.8771 9.35165C17.4248 9.35165 17.2021 9.53494 17.0921 9.71573L16.8207 10.0956C16.8207 10.0956 17.1601 10.2014 18.0146 9.9877Z" fill="#9B8278"/>
<path d="M17.287 9.27363C17.3222 9.30869 17.4271 9.56163 17.4055 9.59922C17.3916 9.62337 17.1122 9.69283 17.0669 9.6574C17.0265 9.6258 16.9793 9.35337 17.0063 9.32191C17.0308 9.29351 17.2576 9.24438 17.287 9.27363Z" fill="#FFE15A"/>
<path d="M17.6463 9.2601C17.6787 9.29727 17.7522 9.54454 17.7231 9.57609C17.7044 9.59638 17.393 9.62095 17.3498 9.58204C17.3112 9.54735 17.3027 9.29015 17.3367 9.26512C17.3675 9.24238 17.6192 9.22907 17.6463 9.2601Z" fill="#73AF00"/>
<path d="M17.9862 9.25068C18.0198 9.28569 18.0965 9.51819 18.0664 9.54772C18.0471 9.56671 17.725 9.58907 17.6801 9.55236C17.6401 9.51965 17.6307 9.27805 17.6658 9.25457C17.6978 9.23338 17.9582 9.22147 17.9862 9.25068Z" fill="#FFE15A"/>
<path d="M18.3318 9.2669C18.3615 9.30511 18.4176 9.54904 18.3864 9.57736C18.3663 9.5955 18.0541 9.59634 18.0137 9.55556C17.9777 9.51919 17.9871 9.27056 18.0227 9.2489C18.0549 9.22931 18.3069 9.23498 18.3318 9.2669Z" fill="#73AF00"/>
<path d="M19.0449 9.41472C19.0679 9.45733 19.0657 9.68392 19.0302 9.70665C19.0074 9.72123 18.7262 9.67112 18.6931 9.62425C18.6636 9.58244 18.714 9.33878 18.7527 9.32326C18.7877 9.30929 19.0257 9.37914 19.0449 9.41472Z" fill="#73AF00"/>
<path d="M18.7171 9.3181C18.7453 9.35691 18.7668 9.5844 18.7328 9.60844C18.711 9.62391 18.3892 9.59748 18.3502 9.55543C18.3154 9.51788 18.3408 9.28341 18.379 9.26598C18.4135 9.25013 18.6936 9.28571 18.7171 9.3181Z" fill="#FFE15A"/>
<path d="M17.2669 8.82985C17.3339 8.82985 17.3883 8.77549 17.3883 8.70844C17.3883 8.64139 17.3339 8.58704 17.2669 8.58704C17.1998 8.58704 17.1455 8.64139 17.1455 8.70844C17.1455 8.77549 17.1998 8.82985 17.2669 8.82985Z" fill="#9B8278"/>
</svg>
