<svg xmlns="http://www.w3.org/2000/svg" width="24" height="24" viewBox="0 0 24 24" fill="none"><rect width="24" height="24" fill="none"/>
<path d="M1.79742 19.8625H22.2026C23.1952 19.8625 24 19.0578 24 18.0651V5.93585C24 4.94318 23.1953 4.13843 22.2026 4.13843H1.79742C0.804703 4.13843 0 4.94313 0 5.93585V18.0651C0 19.0578 0.804703 19.8625 1.79742 19.8625Z" fill="#FF4B55"/>
<path d="M0.413812 11.9995H9.10345C9.33197 11.9995 9.51727 11.8142 9.51727 11.5857V4.55126C9.51727 4.32279 9.33211 4.13754 9.10359 4.13745H1.79742C0.804703 4.1375 0 4.9422 0 5.93492V11.5858C0 11.8143 0.185297 11.9995 0.413812 11.9995Z" fill="#F5F5F5"/>
<path d="M7.86206 7.034H5.79309V4.96503H3.72412V7.034H1.65515V9.10296H3.72412V11.1719H5.79309V9.10296H7.86206V7.034Z" fill="#FF4B55"/>
</svg>
