<svg xmlns="http://www.w3.org/2000/svg" width="24" height="24" viewBox="0 0 24 24" fill="none"><rect width="24" height="24" fill="none"/>
<path d="M0.546936 19.3552C0.87042 19.6687 1.311 19.862 1.79705 19.8621H7.03448L23.4531 4.64485C23.1295 4.33125 22.6887 4.13794 22.2026 4.13794H16.9655L0.546936 19.3552Z" fill="#FFE15A"/>
<path d="M0.546938 19.3552L16.9655 4.13794H1.79742C0.804703 4.13794 0 4.94264 0 5.93536V18.0647C0 18.5712 0.209859 19.0284 0.546938 19.3552Z" fill="#73AF00"/>
<path d="M23.4531 4.64484L7.03448 19.8621H22.203C23.1955 19.8619 24 19.0572 24 18.0646V5.93535C24 5.42882 23.7901 4.97156 23.4531 4.64484Z" fill="#FF4B55"/>
</svg>
