<svg xmlns="http://www.w3.org/2000/svg" width="24" height="24" viewBox="0 0 24 24" fill="none"><rect width="24" height="24" fill="none"/>
<path d="M22.2026 4.13794H1.79742C0.804703 4.13794 0 4.94264 0 5.93536V12H24V5.93536C24 4.94264 23.1953 4.13794 22.2026 4.13794Z" fill="#4173CD"/>
<path d="M24 12H0V15.9309H24V12Z" fill="#FFE15A"/>
<path d="M0 18.0646C0 19.0573 0.804703 19.8621 1.79742 19.8621H22.2026C23.1952 19.8621 24 19.0574 24 18.0646V15.931H0V18.0646Z" fill="#73AF00"/>
<path d="M21.4786 8.34931L23.1724 8.06891L21.4786 7.7885L22.9362 6.88128L21.264 7.27039L22.2635 5.87445L20.8675 6.87388L21.2566 5.20175L20.3494 6.65928L20.069 4.96545L19.7886 6.65924L18.8813 5.2017L19.2705 6.87383L17.8745 5.87441L18.8739 7.27034L17.2018 6.88124L18.6593 7.78845L16.9655 8.06891L18.6593 8.34931L17.2018 9.25653L18.8739 8.86742L17.8745 10.2634L19.2704 9.26394L18.8813 10.9361L19.7885 9.47853L20.069 11.1724L20.3494 9.47858L21.2566 10.9361L20.8675 9.26399L22.2634 10.2634L21.264 8.86747L22.9361 9.25658L21.4786 8.34931ZM20.069 9.10339C19.4976 9.10339 19.0345 8.64027 19.0345 8.06891C19.0345 7.49755 19.4976 7.03442 20.069 7.03442C20.6403 7.03442 21.1035 7.49755 21.1035 8.06891C21.1035 8.64027 20.6403 9.10339 20.069 9.10339Z" fill="#FFE15A"/>
<path d="M20.069 8.84527C20.4975 8.84527 20.8449 8.4979 20.8449 8.06939C20.8449 7.64089 20.4975 7.29352 20.069 7.29352C19.6405 7.29352 19.2931 7.64089 19.2931 8.06939C19.2931 8.4979 19.6405 8.84527 20.069 8.84527Z" fill="#FFE15A"/>
</svg>
