<svg xmlns="http://www.w3.org/2000/svg" width="24" height="24" viewBox="0 0 24 24" fill="none"><rect width="24" height="24" fill="none"/>
<path d="M0 18.1625C0.0504844 19.1101 0.834703 19.863 1.79494 19.863H22.2024C23.1952 19.863 24 19.0582 24 18.0654V14.621H0V18.1625Z" fill="#73AF00"/>
<path d="M22.2024 4.13705H1.79494C0.834703 4.13705 0.0504844 4.88996 0 5.83754V9.37904H24V5.93471C24 4.9419 23.1952 4.13705 22.2024 4.13705Z" fill="#82AFFF"/>
<path d="M24 9.37918H0V14.6212H24V9.37918Z" fill="#FF4B55"/>
<path d="M12.5658 13.7162C11.6372 13.7162 10.8837 12.9628 10.8837 12.0332C10.8837 11.1053 11.6371 10.3503 12.5658 10.3503C12.9114 10.3503 13.2301 10.4565 13.4956 10.6364C13.5363 10.6639 13.5827 10.6105 13.5486 10.5751C13.1517 10.1625 12.59 9.91071 11.9673 9.93194C10.8973 9.96846 10.0115 10.8263 9.9431 11.8947C9.86477 13.1185 10.8338 14.1355 12.0403 14.1355C12.6346 14.1355 13.1687 13.8871 13.5501 13.4898C13.5838 13.4547 13.5373 13.402 13.4971 13.4294C13.2312 13.6098 12.912 13.7162 12.5658 13.7162Z" fill="#F5F5F5"/>
<path d="M14.0384 10.9974L14.2129 11.4881L14.6833 11.2645C14.7187 11.2477 14.7557 11.2847 14.7388 11.3201L14.5152 11.7905L15.0059 11.965C15.0428 11.9781 15.0428 12.0304 15.0059 12.0436L14.5152 12.2181L14.7388 12.6885C14.7557 12.7239 14.7187 12.7609 14.6833 12.744L14.2129 12.5204L14.0384 13.0112C14.0252 13.0481 13.9729 13.0481 13.9598 13.0112L13.7853 12.5205L13.3149 12.7441C13.2794 12.7609 13.2425 12.7239 13.2593 12.6885L13.4829 12.2181L12.9922 12.0436C12.9553 12.0305 12.9553 11.9782 12.9922 11.965L13.4829 11.7905L13.2593 11.3201C13.2425 11.2847 13.2794 11.2477 13.3149 11.2646L13.7853 11.4882L13.9598 10.9975C13.973 10.9606 14.0252 10.9606 14.0384 10.9974Z" fill="#F5F5F5"/>
</svg>
