<svg xmlns="http://www.w3.org/2000/svg" width="24" height="24" viewBox="0 0 24 24" fill="none"><rect width="24" height="24" fill="none"/>
<path d="M22.2026 19.8621H1.79742C0.804703 19.8621 0 19.0574 0 18.0646V5.93536C0 4.94269 0.804703 4.13794 1.79742 4.13794H22.2026C23.1952 4.13794 24 4.94264 24 5.93536V18.0647C24 19.0574 23.1953 19.8621 22.2026 19.8621Z" fill="#4173CD"/>
<path d="M12 18C8.69166 18 6 15.3083 6 12C6 8.69166 8.69166 6 12 6C15.3083 6 18 8.69166 18 12C18 15.3083 15.3083 18 12 18ZM12 7.24139C9.37598 7.24139 7.24139 9.37603 7.24139 12C7.24139 14.624 9.37603 16.7586 12 16.7586C14.624 16.7586 16.7586 14.624 16.7586 12C16.7586 9.37603 14.624 7.24139 12 7.24139Z" fill="#F5F5F5"/>
<path d="M12 17.5857C8.91983 17.5857 6.41385 15.0797 6.41385 11.9995C6.41385 8.91931 8.91983 6.41333 12 6.41333C15.0802 6.41333 17.5862 8.91931 17.5862 11.9995C17.5862 15.0797 15.0802 17.5857 12 17.5857ZM12 6.8271C9.14793 6.8271 6.82761 9.14741 6.82761 11.9995C6.82761 14.8516 9.14793 17.1719 12 17.1719C14.8521 17.1719 17.1725 14.8516 17.1725 11.9995C17.1725 9.14741 14.8521 6.8271 12 6.8271Z" fill="#FFDC00"/>
<path d="M6.62066 12.4133C6.8492 12.4133 7.03447 12.228 7.03447 11.9995C7.03447 11.771 6.8492 11.5857 6.62066 11.5857C6.39212 11.5857 6.20685 11.771 6.20685 11.9995C6.20685 12.228 6.39212 12.4133 6.62066 12.4133Z" fill="#FFDC00"/>
<path d="M17.3794 12.4133C17.608 12.4133 17.7932 12.228 17.7932 11.9995C17.7932 11.771 17.608 11.5857 17.3794 11.5857C17.1509 11.5857 16.9656 11.771 16.9656 11.9995C16.9656 12.228 17.1509 12.4133 17.3794 12.4133Z" fill="#FFDC00"/>
<path d="M12 7.03392C12.2286 7.03392 12.4139 6.84865 12.4139 6.62011C12.4139 6.39157 12.2286 6.2063 12 6.2063C11.7715 6.2063 11.5862 6.39157 11.5862 6.62011C11.5862 6.84865 11.7715 7.03392 12 7.03392Z" fill="#FFDC00"/>
<path d="M8.19613 8.60942C8.42467 8.60942 8.60994 8.42415 8.60994 8.19561C8.60994 7.96707 8.42467 7.7818 8.19613 7.7818C7.96759 7.7818 7.78232 7.96707 7.78232 8.19561C7.78232 8.42415 7.96759 8.60942 8.19613 8.60942Z" fill="#FFDC00"/>
<path d="M15.8039 8.60942C16.0325 8.60942 16.2177 8.42415 16.2177 8.19561C16.2177 7.96707 16.0325 7.7818 15.8039 7.7818C15.5754 7.7818 15.3901 7.96707 15.3901 8.19561C15.3901 8.42415 15.5754 8.60942 15.8039 8.60942Z" fill="#FFDC00"/>
<path d="M16.9697 10.3545C17.1983 10.3545 17.3835 10.1693 17.3835 9.94073C17.3835 9.71219 17.1983 9.52692 16.9697 9.52692C16.7412 9.52692 16.5559 9.71219 16.5559 9.94073C16.5559 10.1693 16.7412 10.3545 16.9697 10.3545Z" fill="#FFDC00"/>
<path d="M9.94129 7.44359C10.1698 7.44359 10.3551 7.25832 10.3551 7.02978C10.3551 6.80124 10.1698 6.61597 9.94129 6.61597C9.71275 6.61597 9.52748 6.80124 9.52748 7.02978C9.52748 7.25832 9.71275 7.44359 9.94129 7.44359Z" fill="#FFDC00"/>
<path d="M7.03034 10.3545C7.25889 10.3545 7.44416 10.1693 7.44416 9.94073C7.44416 9.71219 7.25889 9.52692 7.03034 9.52692C6.8018 9.52692 6.61653 9.71219 6.61653 9.94073C6.61653 10.1693 6.8018 10.3545 7.03034 10.3545Z" fill="#FFDC00"/>
<path d="M14.0588 7.44359C14.2873 7.44359 14.4726 7.25832 14.4726 7.02978C14.4726 6.80124 14.2873 6.61597 14.0588 6.61597C13.8302 6.61597 13.645 6.80124 13.645 7.02978C13.645 7.25832 13.8302 7.44359 14.0588 7.44359Z" fill="#FFDC00"/>
<path d="M17.2758 11.3638C17.5044 11.3638 17.6896 11.1785 17.6896 10.9499C17.6896 10.7214 17.5044 10.5361 17.2758 10.5361C17.0473 10.5361 16.862 10.7214 16.862 10.9499C16.862 11.1785 17.0473 11.3638 17.2758 11.3638Z" fill="#FFDC00"/>
<path d="M10.9505 7.1375C11.1791 7.1375 11.3643 6.95223 11.3643 6.72369C11.3643 6.49515 11.1791 6.30988 10.9505 6.30988C10.722 6.30988 10.5367 6.49515 10.5367 6.72369C10.5367 6.95223 10.722 7.1375 10.9505 7.1375Z" fill="#FFDC00"/>
<path d="M7.5277 9.42455C7.75625 9.42455 7.94152 9.23928 7.94152 9.01074C7.94152 8.78219 7.75625 8.59692 7.5277 8.59692C7.29916 8.59692 7.11389 8.78219 7.11389 9.01074C7.11389 9.23928 7.29916 9.42455 7.5277 9.42455Z" fill="#FFDC00"/>
<path d="M14.9888 7.94091C15.2173 7.94091 15.4026 7.75564 15.4026 7.52709C15.4026 7.29855 15.2173 7.11328 14.9888 7.11328C14.7603 7.11328 14.575 7.29855 14.575 7.52709C14.575 7.75564 14.7603 7.94091 14.9888 7.94091Z" fill="#FFDC00"/>
<path d="M16.4728 9.42455C16.7014 9.42455 16.8867 9.23928 16.8867 9.01074C16.8867 8.78219 16.7014 8.59692 16.4728 8.59692C16.2443 8.59692 16.059 8.78219 16.059 9.01074C16.059 9.23928 16.2443 9.42455 16.4728 9.42455Z" fill="#FFDC00"/>
<path d="M9.01129 7.94091C9.23983 7.94091 9.4251 7.75564 9.4251 7.52709C9.4251 7.29855 9.23983 7.11328 9.01129 7.11328C8.78274 7.11328 8.59747 7.29855 8.59747 7.52709C8.59747 7.75564 8.78274 7.94091 9.01129 7.94091Z" fill="#FFDC00"/>
<path d="M6.72425 11.3638C6.9528 11.3638 7.13807 11.1785 7.13807 10.9499C7.13807 10.7214 6.9528 10.5361 6.72425 10.5361C6.49571 10.5361 6.31044 10.7214 6.31044 10.9499C6.31044 11.1785 6.49571 11.3638 6.72425 11.3638Z" fill="#FFDC00"/>
<path d="M13.0496 7.1375C13.2781 7.1375 13.4634 6.95223 13.4634 6.72369C13.4634 6.49515 13.2781 6.30988 13.0496 6.30988C12.821 6.30988 12.6357 6.49515 12.6357 6.72369C12.6357 6.95223 12.821 7.1375 13.0496 7.1375Z" fill="#FFDC00"/>
<path d="M17.3793 12.2069C17.2649 12.2069 17.1724 12.1144 17.1724 12C17.1724 9.1479 14.8521 6.82758 12 6.82758C9.14788 6.82758 6.82757 9.1479 6.82757 12C6.82757 12.1144 6.73504 12.2069 6.62066 12.2069C6.50629 12.2069 6.41376 12.1144 6.41376 12C6.41376 8.9198 8.91974 6.41382 11.9999 6.41382C15.0801 6.41382 17.5862 8.9198 17.5862 12C17.5862 12.1144 17.4936 12.2069 17.3793 12.2069Z" fill="#FFA000"/>
<path d="M13.1497 18.2069H10.8503C10.3589 18.2069 9.97576 17.7813 10.0272 17.2927L10.7586 10.3448H13.2414L13.9727 17.2927C14.0242 17.7813 13.6411 18.2069 13.1497 18.2069Z" fill="#B4B4B4"/>
<path d="M13.2296 10.3448H10.7607C10.6519 10.3448 10.5606 10.2629 10.5488 10.1548L10.3946 8.73436C10.368 8.48958 10.5597 8.27588 10.806 8.27588H13.194C13.4402 8.27588 13.632 8.48953 13.6054 8.73436L13.4522 10.1452C13.4399 10.2588 13.344 10.3448 13.2296 10.3448Z" fill="#AAAAAA"/>
<path d="M12.0959 8.75783L12.8629 10.9647L15.1987 11.0122C15.2949 11.0142 15.3346 11.1364 15.2579 11.1945L13.3962 12.606L14.0728 14.8422C14.1007 14.9342 13.9967 15.0097 13.9177 14.9548L12 13.6204L10.0823 14.9548C10.0034 15.0097 9.89939 14.9342 9.92723 14.8422L10.6038 12.606L8.742 11.1945C8.66536 11.1365 8.70506 11.0142 8.8012 11.0122L11.137 10.9647L11.9041 8.75783C11.9358 8.66699 12.0642 8.66699 12.0959 8.75783Z" fill="#F5F5F5"/>
</svg>
