<svg xmlns="http://www.w3.org/2000/svg" width="24" height="24" viewBox="0 0 24 24" fill="none"><rect width="24" height="24" fill="none"/>
<path d="M22.2026 19.8621H1.79742C0.804703 19.8621 0 19.0573 0 18.0646V5.9353C0 4.94263 0.804703 4.13788 1.79742 4.13788H22.2026C23.1952 4.13788 24 4.94258 24 5.9353V18.0647C24 19.0573 23.1953 19.8621 22.2026 19.8621Z" fill="#FF4B55"/>
<path d="M1.79742 4.13788C0.804703 4.13788 0 4.94258 0 5.9353V18.0647C0 19.0573 0.804703 19.8621 1.79742 19.8621H8.68964V4.13788H1.79742Z" fill="#73AF00"/>
<path d="M8.69297 15.7209C10.748 15.7209 12.4139 14.0549 12.4139 11.9999C12.4139 9.94491 10.748 8.27899 8.69297 8.27899C6.63795 8.27899 4.97203 9.94491 4.97203 11.9999C4.97203 14.0549 6.63795 15.7209 8.69297 15.7209Z" fill="#FFE15A"/>
<path d="M9.93431 10.7585V12.4137C9.93431 13.0982 9.37743 13.6551 8.69292 13.6551C8.0084 13.6551 7.45153 13.0982 7.45153 12.4137V10.7585H9.93431V10.7585ZM10.3481 9.93097H7.03771C6.8092 9.93097 6.6239 10.1163 6.6239 10.3448V12.4138C6.6239 13.5564 7.55025 14.4827 8.69287 14.4827C9.8355 14.4827 10.7618 13.5564 10.7618 12.4138V10.3448C10.7619 10.1163 10.5766 9.93097 10.3481 9.93097Z" fill="#FF4B55"/>
<path d="M9.93432 10.7585V12.4137C9.93432 13.0982 9.37744 13.6551 8.69293 13.6551C8.00841 13.6551 7.45154 13.0982 7.45154 12.4137V10.7585H9.93432" fill="#F5F5F5"/>
<path d="M7.03453 10.5517C7.1488 10.5517 7.24143 10.4591 7.24143 10.3448C7.24143 10.2305 7.1488 10.1379 7.03453 10.1379C6.92026 10.1379 6.82762 10.2305 6.82762 10.3448C6.82762 10.4591 6.92026 10.5517 7.03453 10.5517Z" fill="#FFE15A"/>
<path d="M10.3448 10.5517C10.4591 10.5517 10.5518 10.4591 10.5518 10.3448C10.5518 10.2305 10.4591 10.1379 10.3448 10.1379C10.2306 10.1379 10.1379 10.2305 10.1379 10.3448C10.1379 10.4591 10.2306 10.5517 10.3448 10.5517Z" fill="#FFE15A"/>
<path d="M7.03453 12.2068C7.1488 12.2068 7.24143 12.1142 7.24143 11.9999C7.24143 11.8857 7.1488 11.793 7.03453 11.793C6.92026 11.793 6.82762 11.8857 6.82762 11.9999C6.82762 12.1142 6.92026 12.2068 7.03453 12.2068Z" fill="#FFE15A"/>
<path d="M10.3448 12.2068C10.4591 12.2068 10.5518 12.1142 10.5518 11.9999C10.5518 11.8857 10.4591 11.793 10.3448 11.793C10.2306 11.793 10.1379 11.8857 10.1379 11.9999C10.1379 12.1142 10.2306 12.2068 10.3448 12.2068Z" fill="#FFE15A"/>
<path d="M8.68969 10.5517C8.80397 10.5517 8.8966 10.4591 8.8966 10.3448C8.8966 10.2305 8.80397 10.1379 8.68969 10.1379C8.57542 10.1379 8.48279 10.2305 8.48279 10.3448C8.48279 10.4591 8.57542 10.5517 8.68969 10.5517Z" fill="#FFE15A"/>
<path d="M9.93188 13.7327C10.0462 13.7327 10.1388 13.64 10.1388 13.5258C10.1388 13.4115 10.0462 13.3188 9.93188 13.3188C9.81761 13.3188 9.72498 13.4115 9.72498 13.5258C9.72498 13.64 9.81761 13.7327 9.93188 13.7327Z" fill="#FFE15A"/>
<path d="M7.47188 13.7327C7.58615 13.7327 7.67878 13.64 7.67878 13.5258C7.67878 13.4115 7.58615 13.3188 7.47188 13.3188C7.3576 13.3188 7.26497 13.4115 7.26497 13.5258C7.26497 13.64 7.3576 13.7327 7.47188 13.7327Z" fill="#FFE15A"/>
<path d="M8.9601 11.8954V12.2517C8.9601 12.3991 8.84019 12.519 8.69282 12.519C8.54544 12.519 8.42554 12.3991 8.42554 12.2517V11.8954H8.9601Z" fill="#41479B"/>
<path d="M8.9601 11.0506V11.4069C8.9601 11.5543 8.84019 11.6742 8.69282 11.6742C8.54544 11.6742 8.42554 11.5543 8.42554 11.4069V11.0506H8.9601Z" fill="#41479B"/>
<path d="M8.9601 12.7488V13.1051C8.9601 13.2525 8.84019 13.3724 8.69282 13.3724C8.54544 13.3724 8.42554 13.2525 8.42554 13.1051V12.7488H8.9601Z" fill="#41479B"/>
<path d="M9.67996 11.8954V12.2517C9.67996 12.3991 9.56006 12.519 9.41268 12.519C9.26531 12.519 9.1454 12.3991 9.1454 12.2517V11.8954H9.67996Z" fill="#41479B"/>
<path d="M8.24034 11.8954V12.2517C8.24034 12.3991 8.12044 12.519 7.97306 12.519C7.82569 12.519 7.70578 12.3991 7.70578 12.2517V11.8954H8.24034Z" fill="#41479B"/>
</svg>
