<svg xmlns="http://www.w3.org/2000/svg" width="24" height="24" viewBox="0 0 24 24" fill="none"><rect width="24" height="24" fill="none"/>
<g clip-path="url(#clip0)">
<path d="M22.2031 4.13794H1.79797C0.805299 4.13794 0.000549316 4.94264 0.000549316 5.93536V9.37931H24.0005V5.93363C23.9995 4.94175 23.1952 4.13794 22.2031 4.13794Z" fill="#464655"/>
<path d="M23.9995 14.6207H-0.000411987V18.0646C-0.000411987 19.0573 0.804291 19.862 1.79701 19.862H22.2021C23.1942 19.862 23.9986 19.0582 23.9995 18.0664V14.6207H23.9995V14.6207Z" fill="#73AF00"/>
<path d="M23.9995 9.37921H-0.000457764V14.6203H23.9995V9.37921Z" fill="#FF4B55"/>
<path d="M4.47132 10.9294L4.71727 11.4629L5.2877 11.3225C5.32332 11.3138 5.3528 11.3507 5.33635 11.3836L5.07263 11.9085L5.53801 12.267C5.56707 12.2894 5.55652 12.3355 5.52062 12.343L4.94579 12.4641L4.95568 13.0515C4.95629 13.0882 4.91363 13.1087 4.88537 13.0854L4.43232 12.7115L3.97927 13.0854C3.95096 13.1087 3.90835 13.0882 3.90896 13.0515L3.91885 12.4641L3.34402 12.343C3.30812 12.3355 3.29762 12.2894 3.32663 12.267L3.79201 11.9085L3.52829 11.3836C3.51184 11.3507 3.54132 11.3138 3.57694 11.3225L4.14737 11.4629L4.39332 10.9294C4.40865 10.8961 4.45604 10.8961 4.47132 10.9294Z" fill="#F5F5F5"/>
<path d="M23.9995 9.10358H-0.000457764V9.80717H23.9995V9.10358Z" fill="#F5F5F5"/>
<path d="M23.9995 14.1931H-0.000457764V14.8966H23.9995V14.1931Z" fill="#F5F5F5"/>
<path d="M10.9308 11.8307L0.611494 4.5849C0.236541 4.91434 -0.000411987 5.39701 -0.000411987 5.93532V18.0646C-0.000411987 18.6029 0.236541 19.0856 0.611494 19.415L10.9308 12.1693C11.0482 12.0869 11.0482 11.9131 10.9308 11.8307Z" fill="#41479B"/>
<path d="M3.44771 10.071L4.37729 11.0224L5.57841 10.4509C5.7339 10.3769 5.89412 10.5434 5.81419 10.6959L5.19662 11.874L6.11129 12.8397C6.22974 12.9647 6.12085 13.1686 5.95107 13.1397L4.63983 12.9163L4.00402 14.0847C3.92171 14.2359 3.69418 14.1954 3.66924 14.025L3.4764 12.7089L2.16877 12.4653C1.99946 12.4337 1.96777 12.2049 2.12213 12.1284L3.31426 11.5384L3.14185 10.2194C3.11949 10.0486 3.32733 9.94782 3.44771 10.071Z" fill="#FFE15A"/>
</g>
<defs>
<clipPath id="clip0">
<path d="M0 0H24V24H0V0Z" fill="white"/>
</clipPath>
</defs>
</svg>
