<svg xmlns="http://www.w3.org/2000/svg" width="24" height="24" viewBox="0 0 24 24" fill="none"><rect width="24" height="24" fill="none"/>
<path d="M22.2025 19.8621H1.79742C0.804703 19.8621 0 19.0573 0 18.0646V5.93536C0 4.94269 0.804703 4.13794 1.79742 4.13794H22.2025C23.1952 4.13794 24 4.94264 24 5.93536V18.0646C24 19.0573 23.1952 19.8621 22.2025 19.8621Z" fill="#FF4B55"/>
<path d="M22.2025 4.13794H22.1125L11.9999 10.7634L1.88751 4.13794H1.79742C0.982729 4.13794 0.294979 4.68014 0.0744324 5.42335L10.1126 12L0.0744324 18.5767C0.294979 19.3198 0.982729 19.8621 1.79742 19.8621H1.88751L11.9999 13.2366L22.1125 19.8621H22.2025C23.0172 19.8621 23.705 19.3199 23.9255 18.5767L13.8874 12L23.9255 5.42335C23.705 4.68024 23.0173 4.13794 22.2025 4.13794Z" fill="#73AF00"/>
<path d="M24 10.9655H13.0344V4.13794H10.9655V10.9655H0V13.0345H10.9655V19.8621H13.0344V13.0345H24V10.9655Z" fill="#F5F5F5"/>
</svg>
