<svg xmlns="http://www.w3.org/2000/svg" width="24" height="24" viewBox="0 0 24 24" fill="none"><rect width="24" height="24" fill="none"/>
<path d="M22.2026 19.8621H1.79742C0.804703 19.8621 0 19.0574 0 18.0646V5.93536C0 4.94269 0.804703 4.13794 1.79742 4.13794H22.2026C23.1952 4.13794 24 4.94264 24 5.93536V18.0647C24 19.0574 23.1953 19.8621 22.2026 19.8621Z" fill="#82AFFF"/>
<path d="M22.3826 4.14691L0 15.7241V16.5517L23.2905 4.5048C23.0334 4.30896 22.722 4.18066 22.3826 4.14691Z" fill="#FFE15A"/>
<path d="M1.61738 19.8532L24 8.276V7.44843L0.709457 19.4953C0.966614 19.6911 1.278 19.8194 1.61738 19.8532Z" fill="#FFE15A"/>
<path d="M23.2905 4.50482L0 16.5516V18.0646C0 18.6482 0.278391 19.1667 0.709453 19.4951L24 7.4482V5.93526C24 5.35162 23.7216 4.83313 23.2905 4.50482Z" fill="#FF4B55"/>
<path d="M4.34151 5.76459L4.93767 7.55217L6.82199 7.56675C6.92737 7.56759 6.97106 7.70203 6.88631 7.76465L5.37042 8.88407L5.93882 10.6807C5.9706 10.7812 5.85623 10.8643 5.77049 10.803L4.23745 9.7072L2.7044 10.803C2.61871 10.8643 2.50429 10.7812 2.53607 10.6807L3.10448 8.88407L1.58859 7.76465C1.50379 7.70207 1.54753 7.56759 1.6529 7.56675L3.53723 7.55217L4.13339 5.76459C4.16681 5.66465 4.30814 5.66465 4.34151 5.76459Z" fill="#FFE15A"/>
</svg>
