<svg xmlns="http://www.w3.org/2000/svg" width="24" height="24" viewBox="0 0 24 24" fill="none"><rect width="24" height="24" fill="none"/>
<path d="M22.2024 4.13704H1.79494C0.834703 4.13704 0.0504844 4.8899 0 5.83752V12H24V5.93465C24 4.94184 23.1952 4.13704 22.2024 4.13704Z" fill="#FF4B55"/>
<path d="M0 18.1625C0.0504844 19.11 0.834703 19.863 1.79494 19.863H22.2024C23.1952 19.863 24 19.0582 24 18.0653V12H0V18.1625Z" fill="#73AF00"/>
<path d="M12.1273 9.74292L12.6479 11.304L14.2935 11.3168C14.421 11.3178 14.4738 11.4805 14.3713 11.5562L13.0475 12.5338L13.5439 14.1028C13.5823 14.2244 13.4439 14.3249 13.3402 14.2507L12.0013 13.2938L10.6625 14.2508C10.5587 14.3249 10.4203 14.2244 10.4588 14.1029L10.9552 12.5339L9.63136 11.5563C9.5288 11.4805 9.58163 11.3179 9.70918 11.3169L11.3548 11.3041L11.8754 9.74297C11.9158 9.62198 12.0869 9.62198 12.1273 9.74292Z" fill="#FFE15A"/>
</svg>
