<svg xmlns="http://www.w3.org/2000/svg" width="24" height="24" viewBox="0 0 24 24" fill="none"><rect width="24" height="24" fill="none"/>
<path d="M22.2026 4.13757H1.79742C0.804703 4.13757 0 4.94228 0 5.935V18.0643C0 19.057 0.804703 19.8617 1.79742 19.8617H22.2026C23.1952 19.8617 24 19.057 24 18.0643V5.935C24 4.94228 23.1953 4.13757 22.2026 4.13757Z" fill="#F5F5F5"/>
<path d="M0.0988541 5.34714H23.9011C23.6575 4.64321 22.9893 4.13757 22.2026 4.13757H1.79742C1.01067 4.13757 0.342463 4.64321 0.0988541 5.34714Z" fill="#FF4B55"/>
<path d="M24 8.97583H0V10.1853H24V8.97583Z" fill="#FF4B55"/>
<path d="M24 6.55603H0V7.76555H24V6.55603Z" fill="#FF4B55"/>
<path d="M0 12.1903C0 12.4188 0.185297 12.6041 0.413813 12.6041H24V11.3946H0V12.1903Z" fill="#FF4B55"/>
<path d="M24 16.2335H0V17.443H24V16.2335Z" fill="#FF4B55"/>
<path d="M23.9011 18.6526H0.0988541C0.342463 19.3565 1.01071 19.8622 1.79742 19.8622H22.2026C22.9893 19.8622 23.6575 19.3565 23.9011 18.6526Z" fill="#FF4B55"/>
<path d="M24 13.8146H0V15.0241H24V13.8146Z" fill="#FF4B55"/>
<path d="M0.413813 12.6044H10.7587C10.9872 12.6044 11.1725 12.4191 11.1725 12.1906V4.55132C11.1725 4.32276 10.9872 4.13751 10.7587 4.13751H1.79742C0.804703 4.13756 0 4.94226 0 5.93498V12.1906C0 12.4192 0.185297 12.6044 0.413813 12.6044Z" fill="#41479B"/>
<path d="M1.16194 5.08777L1.25354 5.36246L1.54308 5.36466C1.58058 5.36499 1.5961 5.4128 1.56596 5.43507L1.33304 5.60705L1.42041 5.8831C1.43176 5.91882 1.39102 5.94845 1.36051 5.9266L1.12496 5.75827L0.889413 5.92665C0.858897 5.94849 0.818257 5.91887 0.829507 5.88315L0.916882 5.6071L0.68396 5.43512C0.65382 5.4128 0.669335 5.36499 0.706835 5.36471L0.996381 5.36251L1.08797 5.08782C1.09979 5.0522 1.15004 5.0522 1.16194 5.08777Z" fill="#F5F5F5"/>
<path d="M1.16194 6.5242L1.25354 6.79889L1.54308 6.80109C1.58058 6.80142 1.5961 6.84919 1.56596 6.8715L1.33304 7.04353L1.42041 7.31958C1.43176 7.3553 1.39102 7.38493 1.36051 7.36308L1.12496 7.19475L0.889413 7.36313C0.858897 7.38493 0.818257 7.35535 0.829507 7.31963L0.916882 7.04358L0.68396 6.87155C0.65382 6.84924 0.669335 6.80147 0.706835 6.80114L0.996381 6.79894L1.08797 6.52425C1.09979 6.48867 1.15004 6.48867 1.16194 6.5242Z" fill="#F5F5F5"/>
<path d="M1.16194 7.96106L1.25354 8.23575L1.54308 8.23796C1.58058 8.23828 1.5961 8.28605 1.56596 8.30836L1.33304 8.48039L1.42041 8.75644C1.43176 8.79216 1.39102 8.82179 1.36051 8.79994L1.12496 8.63161L0.889413 8.79999C0.858897 8.82179 0.818257 8.79226 0.829507 8.75649L0.916882 8.48044L0.68396 8.30841C0.65382 8.2861 0.669335 8.23833 0.706835 8.238L0.996381 8.2358L1.08797 7.96111C1.09979 7.92549 1.15004 7.92549 1.16194 7.96106Z" fill="#F5F5F5"/>
<path d="M1.16194 9.39863L1.25354 9.67331L1.54308 9.67551C1.58058 9.67584 1.5961 9.72365 1.56596 9.74592L1.33304 9.91795L1.42041 10.194C1.43176 10.2297 1.39102 10.2593 1.36051 10.2375L1.12496 10.0692L0.889413 10.2375C0.858897 10.2593 0.818257 10.2298 0.829507 10.194L0.916882 9.918L0.68396 9.74597C0.65382 9.72375 0.669335 9.67589 0.706835 9.67556L0.996381 9.67336L1.08797 9.39867C1.09979 9.36305 1.15004 9.36305 1.16194 9.39863Z" fill="#F5F5F5"/>
<path d="M1.16194 10.8351L1.25354 11.1097L1.54308 11.1119C1.58058 11.1123 1.5961 11.16 1.56596 11.1824L1.33304 11.3544L1.42041 11.6304C1.43176 11.6661 1.39102 11.6958 1.36051 11.6739L1.12496 11.5056L0.889413 11.674C0.858897 11.6958 0.818257 11.6662 0.829507 11.6305L0.916882 11.3544L0.68396 11.1824C0.65382 11.1601 0.669335 11.1123 0.706835 11.112L0.996381 11.1098L1.08797 10.8351C1.09979 10.7995 1.15004 10.7995 1.16194 10.8351Z" fill="#F5F5F5"/>
<path d="M2.27727 5.79258L2.36886 6.06727L2.65841 6.06947C2.69591 6.0698 2.71142 6.11761 2.68128 6.13988L2.44836 6.31191L2.53574 6.58796C2.54708 6.62368 2.50635 6.6533 2.47583 6.63146L2.24029 6.46308L2.00474 6.63146C1.97422 6.65326 1.93358 6.62368 1.94483 6.58796L2.03221 6.31191L1.79929 6.13988C1.76915 6.11757 1.78466 6.0698 1.82216 6.06947L2.11171 6.06727L2.2033 5.79258C2.21511 5.75705 2.26541 5.75705 2.27727 5.79258Z" fill="#F5F5F5"/>
<path d="M2.27727 7.2295L2.36886 7.50419L2.65841 7.50639C2.69591 7.50672 2.71142 7.55454 2.68128 7.5768L2.44836 7.74883L2.53574 8.02488C2.54708 8.0606 2.50635 8.09022 2.47583 8.06838L2.24029 7.9L2.00474 8.06838C1.97422 8.09018 1.93358 8.06064 1.94483 8.02488L2.03221 7.74883L1.79929 7.5768C1.76915 7.55458 1.78466 7.50672 1.82216 7.50639L2.11171 7.50419L2.2033 7.2295C2.21511 7.19393 2.26541 7.19393 2.27727 7.2295Z" fill="#F5F5F5"/>
<path d="M2.27727 8.66609L2.36886 8.94078L2.65841 8.94298C2.69591 8.94331 2.71142 8.99107 2.68128 9.01339L2.44836 9.18542L2.53574 9.46147C2.54708 9.49719 2.50635 9.52681 2.47583 9.50497L2.24029 9.33659L2.00474 9.50497C1.97422 9.52676 1.93358 9.49719 1.94483 9.46147L2.03221 9.18542L1.79929 9.01339C1.76915 8.99107 1.78466 8.94331 1.82216 8.94298L2.11171 8.94078L2.2033 8.66609C2.21511 8.63051 2.26541 8.63051 2.27727 8.66609Z" fill="#F5F5F5"/>
<path d="M2.27727 10.1025L2.36886 10.3772L2.65841 10.3794C2.69591 10.3797 2.71142 10.4275 2.68128 10.4498L2.44836 10.6218L2.53574 10.8979C2.54708 10.9336 2.50635 10.9632 2.47583 10.9414L2.24029 10.773L2.00474 10.9414C1.97422 10.9632 1.93358 10.9336 1.94483 10.8979L2.03221 10.6218L1.79929 10.4498C1.76915 10.4275 1.78466 10.3797 1.82216 10.3794L2.11171 10.3772L2.2033 10.1025C2.21511 10.067 2.26541 10.067 2.27727 10.1025Z" fill="#F5F5F5"/>
<path d="M3.3926 5.08766L3.48419 5.36235L3.77374 5.36455C3.81123 5.36488 3.82675 5.41269 3.79661 5.43496L3.56369 5.60694L3.65106 5.88299C3.66241 5.91871 3.62167 5.94833 3.59116 5.92649L3.35561 5.75811L3.12006 5.92649C3.08955 5.94833 3.04891 5.91871 3.06016 5.88299L3.14753 5.60694L2.91461 5.43496C2.88447 5.41264 2.89999 5.36483 2.93749 5.36455L3.22703 5.36235L3.31863 5.08766C3.33044 5.05208 3.38074 5.05208 3.3926 5.08766Z" fill="#F5F5F5"/>
<path d="M3.3926 6.525L3.48419 6.79969L3.77374 6.80189C3.81123 6.80222 3.82675 6.84998 3.79661 6.8723L3.56369 7.04433L3.65106 7.32037C3.66241 7.35609 3.62167 7.38572 3.59116 7.36387L3.35561 7.1955L3.12006 7.36387C3.08955 7.38567 3.04891 7.35609 3.06016 7.32037L3.14753 7.04433L2.91461 6.8723C2.88447 6.84998 2.89999 6.80222 2.93749 6.80189L3.22703 6.79969L3.31863 6.525C3.33044 6.48947 3.38074 6.48947 3.3926 6.525Z" fill="#F5F5F5"/>
<path d="M3.3926 7.96193L3.48419 8.23661L3.77374 8.23882C3.81123 8.23914 3.82675 8.28691 3.79661 8.30922L3.56369 8.48125L3.65106 8.7573C3.66241 8.79302 3.62167 8.82264 3.59116 8.8008L3.35561 8.63243L3.12006 8.8008C3.08955 8.8226 3.04891 8.79307 3.06016 8.7573L3.14753 8.48125L2.91461 8.30922C2.88447 8.28691 2.89999 8.23914 2.93749 8.23882L3.22703 8.23661L3.31863 7.96193C3.33044 7.92635 3.38074 7.92635 3.3926 7.96193Z" fill="#F5F5F5"/>
<path d="M3.3926 9.39851L3.48419 9.6732L3.77374 9.6754C3.81123 9.67573 3.82675 9.72354 3.79661 9.74581L3.56369 9.91784L3.65106 10.1939C3.66241 10.2296 3.62167 10.2592 3.59116 10.2374L3.35561 10.069L3.12006 10.2374C3.08955 10.2592 3.04891 10.2296 3.06016 10.1939L3.14753 9.91784L2.91461 9.74581C2.88447 9.72359 2.89999 9.67573 2.93749 9.6754L3.22703 9.6732L3.31863 9.39851C3.33044 9.36293 3.38074 9.36293 3.3926 9.39851Z" fill="#F5F5F5"/>
<path d="M3.3926 10.8349L3.48419 11.1096L3.77374 11.1118C3.81123 11.1122 3.82675 11.1599 3.79661 11.1822L3.56369 11.3543L3.65106 11.6303C3.66241 11.666 3.62167 11.6957 3.59116 11.6738L3.35561 11.5054L3.12006 11.6738C3.08955 11.6956 3.04891 11.666 3.06016 11.6303L3.14753 11.3543L2.91461 11.1822C2.88447 11.1599 2.89999 11.1122 2.93749 11.1118L3.22703 11.1096L3.31863 10.8349C3.33044 10.7994 3.38074 10.7994 3.3926 10.8349Z" fill="#F5F5F5"/>
<path d="M4.50788 5.79258L4.59948 6.06727L4.88902 6.06947C4.92652 6.0698 4.94204 6.11761 4.9119 6.13988L4.67898 6.31191L4.76635 6.58796C4.7777 6.62368 4.73696 6.6533 4.70645 6.63146L4.4709 6.46308L4.23535 6.63146C4.20484 6.65326 4.1642 6.62368 4.17545 6.58796L4.26282 6.31191L4.0299 6.13988C3.99976 6.11757 4.01527 6.0698 4.05277 6.06947L4.34232 6.06727L4.43392 5.79258C4.44568 5.75705 4.49602 5.75705 4.50788 5.79258Z" fill="#F5F5F5"/>
<path d="M4.50788 7.2295L4.59948 7.50419L4.88902 7.50639C4.92652 7.50672 4.94204 7.55454 4.9119 7.5768L4.67898 7.74883L4.76635 8.02488C4.7777 8.0606 4.73696 8.09022 4.70645 8.06838L4.4709 7.9L4.23535 8.06838C4.20484 8.09018 4.1642 8.06064 4.17545 8.02488L4.26282 7.74883L4.0299 7.5768C3.99976 7.55458 4.01527 7.50672 4.05277 7.50639L4.34232 7.50419L4.43392 7.2295C4.44568 7.19393 4.49602 7.19393 4.50788 7.2295Z" fill="#F5F5F5"/>
<path d="M4.50788 8.66609L4.59948 8.94078L4.88902 8.94298C4.92652 8.94331 4.94204 8.99107 4.9119 9.01339L4.67898 9.18542L4.76635 9.46147C4.7777 9.49719 4.73696 9.52681 4.70645 9.50497L4.4709 9.33659L4.23535 9.50497C4.20484 9.52676 4.1642 9.49719 4.17545 9.46147L4.26282 9.18542L4.0299 9.01339C3.99976 8.99107 4.01527 8.94331 4.05277 8.94298L4.34232 8.94078L4.43392 8.66609C4.44568 8.63051 4.49602 8.63051 4.50788 8.66609Z" fill="#F5F5F5"/>
<path d="M4.50788 10.1025L4.59948 10.3772L4.88902 10.3794C4.92652 10.3797 4.94204 10.4275 4.9119 10.4498L4.67898 10.6218L4.76635 10.8979C4.7777 10.9336 4.73696 10.9632 4.70645 10.9414L4.4709 10.773L4.23535 10.9414C4.20484 10.9632 4.1642 10.9336 4.17545 10.8979L4.26282 10.6218L4.0299 10.4498C3.99976 10.4275 4.01527 10.3797 4.05277 10.3794L4.34232 10.3772L4.43392 10.1025C4.44568 10.067 4.49602 10.067 4.50788 10.1025Z" fill="#F5F5F5"/>
<path d="M5.62319 5.08777L5.71478 5.36246L6.00433 5.36466C6.04183 5.36499 6.05735 5.4128 6.02721 5.43507L5.79428 5.60705L5.88166 5.8831C5.893 5.91882 5.85227 5.94845 5.82175 5.9266L5.58616 5.75827L5.35061 5.92665C5.3201 5.94849 5.27945 5.91887 5.2907 5.88315L5.37808 5.6071L5.14516 5.43512C5.11502 5.4128 5.13053 5.36499 5.16803 5.36471L5.45758 5.36251L5.54917 5.08782C5.56103 5.0522 5.61133 5.0522 5.62319 5.08777Z" fill="#F5F5F5"/>
<path d="M5.62319 6.525L5.71478 6.79969L6.00433 6.80189C6.04183 6.80222 6.05735 6.84998 6.02721 6.8723L5.79428 7.04433L5.88166 7.32037C5.893 7.35609 5.85227 7.38572 5.82175 7.36387L5.58616 7.1955L5.35061 7.36387C5.3201 7.38567 5.27945 7.35609 5.2907 7.32037L5.37808 7.04433L5.14516 6.8723C5.11502 6.84998 5.13053 6.80222 5.16803 6.80189L5.45758 6.79969L5.54917 6.525C5.56103 6.48947 5.61133 6.48947 5.62319 6.525Z" fill="#F5F5F5"/>
<path d="M5.62319 7.96181L5.71478 8.2365L6.00433 8.2387C6.04183 8.23903 6.05735 8.28679 6.02721 8.30911L5.79428 8.48114L5.88166 8.75718C5.893 8.7929 5.85227 8.82253 5.82175 8.80068L5.58616 8.63226L5.35061 8.80064C5.3201 8.82243 5.27945 8.79286 5.2907 8.75714L5.37808 8.48109L5.14516 8.30906C5.11502 8.28675 5.13053 8.23898 5.16803 8.23865L5.45758 8.23645L5.54917 7.96176C5.56103 7.92623 5.61133 7.92623 5.62319 7.96181Z" fill="#F5F5F5"/>
<path d="M5.62319 9.39851L5.71478 9.6732L6.00433 9.6754C6.04183 9.67573 6.05735 9.72354 6.02721 9.74581L5.79428 9.91784L5.88166 10.1939C5.893 10.2296 5.85227 10.2592 5.82175 10.2374L5.58616 10.069L5.35061 10.2374C5.3201 10.2592 5.27945 10.2296 5.2907 10.1939L5.37808 9.91784L5.14516 9.74581C5.11502 9.72359 5.13053 9.67573 5.16803 9.6754L5.45758 9.6732L5.54917 9.39851C5.56103 9.36293 5.61133 9.36293 5.62319 9.39851Z" fill="#F5F5F5"/>
<path d="M5.62319 10.8349L5.71478 11.1096L6.00433 11.1118C6.04183 11.1122 6.05735 11.1599 6.02721 11.1822L5.79428 11.3543L5.88166 11.6303C5.893 11.666 5.85227 11.6957 5.82175 11.6738L5.58616 11.5054L5.35061 11.6738C5.3201 11.6956 5.27945 11.666 5.2907 11.6303L5.37808 11.3543L5.14516 11.1822C5.11502 11.1599 5.13053 11.1122 5.16803 11.1118L5.45758 11.1096L5.54917 10.8349C5.56103 10.7994 5.61133 10.7994 5.62319 10.8349Z" fill="#F5F5F5"/>
<path d="M6.73841 5.79258L6.83 6.06727L7.11955 6.06947C7.15705 6.0698 7.17256 6.11761 7.14242 6.13988L6.9095 6.31191L6.99688 6.58796C7.00822 6.62368 6.96749 6.6533 6.93697 6.63146L6.70143 6.46308L6.46588 6.63146C6.43537 6.65326 6.39472 6.62368 6.40597 6.58796L6.49335 6.31191L6.26043 6.13988C6.23029 6.11757 6.2458 6.0698 6.2833 6.06947L6.57285 6.06727L6.66444 5.79258C6.6763 5.75705 6.72655 5.75705 6.73841 5.79258Z" fill="#F5F5F5"/>
<path d="M6.73841 7.2295L6.83 7.50419L7.11955 7.50639C7.15705 7.50672 7.17256 7.55454 7.14242 7.5768L6.9095 7.74883L6.99688 8.02488C7.00822 8.0606 6.96749 8.09022 6.93697 8.06838L6.70143 7.9L6.46588 8.06838C6.43537 8.09018 6.39472 8.06064 6.40597 8.02488L6.49335 7.74883L6.26043 7.5768C6.23029 7.55458 6.2458 7.50672 6.2833 7.50639L6.57285 7.50419L6.66444 7.2295C6.6763 7.19393 6.72655 7.19393 6.73841 7.2295Z" fill="#F5F5F5"/>
<path d="M6.73841 8.66609L6.83 8.94078L7.11955 8.94298C7.15705 8.94331 7.17256 8.99107 7.14242 9.01339L6.9095 9.18542L6.99688 9.46147C7.00822 9.49719 6.96749 9.52681 6.93697 9.50497L6.70143 9.33659L6.46588 9.50497C6.43537 9.52676 6.39472 9.49719 6.40597 9.46147L6.49335 9.18542L6.26043 9.01339C6.23029 8.99107 6.2458 8.94331 6.2833 8.94298L6.57285 8.94078L6.66444 8.66609C6.6763 8.63051 6.72655 8.63051 6.73841 8.66609Z" fill="#F5F5F5"/>
<path d="M6.73841 10.1025L6.83 10.3772L7.11955 10.3794C7.15705 10.3797 7.17256 10.4275 7.14242 10.4498L6.9095 10.6218L6.99688 10.8979C7.00822 10.9336 6.96749 10.9632 6.93697 10.9414L6.70143 10.773L6.46588 10.9414C6.43537 10.9632 6.39472 10.9336 6.40597 10.8979L6.49335 10.6218L6.26043 10.4498C6.23029 10.4275 6.2458 10.3797 6.2833 10.3794L6.57285 10.3772L6.66444 10.1025C6.6763 10.067 6.72655 10.067 6.73841 10.1025Z" fill="#F5F5F5"/>
<path d="M7.85381 5.08766L7.94541 5.36235L8.23495 5.36455C8.27245 5.36488 8.28796 5.41269 8.25782 5.43496L8.0249 5.60694L8.11228 5.88299C8.12362 5.91871 8.08289 5.94833 8.05237 5.92649L7.81683 5.75811L7.58128 5.92649C7.55077 5.94833 7.51013 5.91871 7.52138 5.88299L7.60875 5.60694L7.37583 5.43496C7.34569 5.41264 7.36121 5.36483 7.39871 5.36455L7.68825 5.36235L7.77984 5.08766C7.79161 5.05208 7.84195 5.05208 7.85381 5.08766Z" fill="#F5F5F5"/>
<path d="M7.85381 6.525L7.94541 6.79969L8.23495 6.80189C8.27245 6.80222 8.28796 6.84998 8.25782 6.8723L8.0249 7.04433L8.11228 7.32037C8.12362 7.35609 8.08289 7.38572 8.05237 7.36387L7.81683 7.1955L7.58128 7.36387C7.55077 7.38567 7.51013 7.35609 7.52138 7.32037L7.60875 7.04433L7.37583 6.8723C7.34569 6.84998 7.36121 6.80222 7.39871 6.80189L7.68825 6.79969L7.77984 6.525C7.79161 6.48947 7.84195 6.48947 7.85381 6.525Z" fill="#F5F5F5"/>
<path d="M7.85381 7.96193L7.94541 8.23661L8.23495 8.23882C8.27245 8.23914 8.28796 8.28691 8.25782 8.30922L8.0249 8.48125L8.11228 8.7573C8.12362 8.79302 8.08289 8.82264 8.05237 8.8008L7.81683 8.63243L7.58128 8.8008C7.55077 8.8226 7.51013 8.79307 7.52138 8.7573L7.60875 8.48125L7.37583 8.30922C7.34569 8.28691 7.36121 8.23914 7.39871 8.23882L7.68825 8.23661L7.77984 7.96193C7.79161 7.92635 7.84195 7.92635 7.85381 7.96193Z" fill="#F5F5F5"/>
<path d="M7.85381 9.39851L7.94541 9.6732L8.23495 9.6754C8.27245 9.67573 8.28796 9.72354 8.25782 9.74581L8.0249 9.91784L8.11228 10.1939C8.12362 10.2296 8.08289 10.2592 8.05237 10.2374L7.81683 10.069L7.58128 10.2374C7.55077 10.2592 7.51013 10.2296 7.52138 10.1939L7.60875 9.91784L7.37583 9.74581C7.34569 9.72359 7.36121 9.67573 7.39871 9.6754L7.68825 9.6732L7.77984 9.39851C7.79161 9.36293 7.84195 9.36293 7.85381 9.39851Z" fill="#F5F5F5"/>
<path d="M7.85381 10.8349L7.94541 11.1096L8.23495 11.1118C8.27245 11.1122 8.28796 11.1599 8.25782 11.1822L8.0249 11.3543L8.11228 11.6303C8.12362 11.666 8.08289 11.6957 8.05237 11.6738L7.81683 11.5054L7.58128 11.6738C7.55077 11.6956 7.51013 11.666 7.52138 11.6303L7.60875 11.3543L7.37583 11.1822C7.34569 11.1599 7.36121 11.1122 7.39871 11.1118L7.68825 11.1096L7.77984 10.8349C7.79161 10.7994 7.84195 10.7994 7.85381 10.8349Z" fill="#F5F5F5"/>
<path d="M8.96914 5.79258L9.06073 6.06727L9.35028 6.06947C9.38778 6.0698 9.40329 6.11761 9.37315 6.13988L9.14023 6.31191L9.22761 6.58796C9.23895 6.62368 9.19822 6.6533 9.1677 6.63146L8.93216 6.46308L8.69661 6.63146C8.66609 6.65326 8.62545 6.62368 8.6367 6.58796L8.72408 6.31191L8.49116 6.13988C8.46102 6.11757 8.47653 6.0698 8.51403 6.06947L8.80358 6.06727L8.89517 5.79258C8.90698 5.75705 8.95728 5.75705 8.96914 5.79258Z" fill="#F5F5F5"/>
<path d="M8.96914 7.2295L9.06073 7.50419L9.35028 7.50639C9.38778 7.50672 9.40329 7.55454 9.37315 7.5768L9.14023 7.74883L9.22761 8.02488C9.23895 8.0606 9.19822 8.09022 9.1677 8.06838L8.93216 7.9L8.69661 8.06838C8.66609 8.09018 8.62545 8.06064 8.6367 8.02488L8.72408 7.74883L8.49116 7.5768C8.46102 7.55458 8.47653 7.50672 8.51403 7.50639L8.80358 7.50419L8.89517 7.2295C8.90698 7.19393 8.95728 7.19393 8.96914 7.2295Z" fill="#F5F5F5"/>
<path d="M8.96914 8.66609L9.06073 8.94078L9.35028 8.94298C9.38778 8.94331 9.40329 8.99107 9.37315 9.01339L9.14023 9.18542L9.22761 9.46147C9.23895 9.49719 9.19822 9.52681 9.1677 9.50497L8.93216 9.33659L8.69661 9.50497C8.66609 9.52676 8.62545 9.49719 8.6367 9.46147L8.72408 9.18542L8.49116 9.01339C8.46102 8.99107 8.47653 8.94331 8.51403 8.94298L8.80358 8.94078L8.89517 8.66609C8.90698 8.63051 8.95728 8.63051 8.96914 8.66609Z" fill="#F5F5F5"/>
<path d="M8.96914 10.1025L9.06073 10.3772L9.35028 10.3794C9.38778 10.3797 9.40329 10.4275 9.37315 10.4498L9.14023 10.6218L9.22761 10.8979C9.23895 10.9336 9.19822 10.9632 9.1677 10.9414L8.93216 10.773L8.69661 10.9414C8.66609 10.9632 8.62545 10.9336 8.6367 10.8979L8.72408 10.6218L8.49116 10.4498C8.46102 10.4275 8.47653 10.3797 8.51403 10.3794L8.80358 10.3772L8.89517 10.1025C8.90698 10.067 8.95728 10.067 8.96914 10.1025Z" fill="#F5F5F5"/>
<path d="M10.0844 5.08766L10.176 5.36235L10.4656 5.36455C10.5031 5.36488 10.5186 5.41269 10.4884 5.43496L10.2555 5.60694L10.3429 5.88299C10.3542 5.91871 10.3135 5.94833 10.283 5.92649L10.0474 5.75811L9.81188 5.92649C9.78137 5.94833 9.74073 5.91871 9.75198 5.88299L9.83935 5.60694L9.60643 5.43496C9.57629 5.41264 9.59181 5.36483 9.62931 5.36455L9.91885 5.36235L10.0104 5.08766C10.0223 5.05208 10.0725 5.05208 10.0844 5.08766Z" fill="#F5F5F5"/>
<path d="M10.0844 6.525L10.176 6.79969L10.4656 6.80189C10.5031 6.80222 10.5186 6.84998 10.4884 6.8723L10.2555 7.04433L10.3429 7.32037C10.3542 7.35609 10.3135 7.38572 10.283 7.36387L10.0474 7.1955L9.81188 7.36387C9.78137 7.38567 9.74073 7.35609 9.75198 7.32037L9.83935 7.04433L9.60643 6.8723C9.57629 6.84998 9.59181 6.80222 9.62931 6.80189L9.91885 6.79969L10.0104 6.525C10.0223 6.48947 10.0725 6.48947 10.0844 6.525Z" fill="#F5F5F5"/>
<path d="M10.0844 7.96193L10.176 8.23661L10.4656 8.23882C10.5031 8.23914 10.5186 8.28691 10.4884 8.30922L10.2555 8.48125L10.3429 8.7573C10.3542 8.79302 10.3135 8.82264 10.283 8.8008L10.0474 8.63243L9.81188 8.8008C9.78137 8.8226 9.74073 8.79307 9.75198 8.7573L9.83935 8.48125L9.60643 8.30922C9.57629 8.28691 9.59181 8.23914 9.62931 8.23882L9.91885 8.23661L10.0104 7.96193C10.0223 7.92635 10.0725 7.92635 10.0844 7.96193Z" fill="#F5F5F5"/>
<path d="M10.0844 9.39851L10.176 9.6732L10.4656 9.6754C10.5031 9.67573 10.5186 9.72354 10.4884 9.74581L10.2555 9.91784L10.3429 10.1939C10.3542 10.2296 10.3135 10.2592 10.283 10.2374L10.0474 10.069L9.81188 10.2374C9.78137 10.2592 9.74073 10.2296 9.75198 10.1939L9.83935 9.91784L9.60643 9.74581C9.57629 9.72359 9.59181 9.67573 9.62931 9.6754L9.91885 9.6732L10.0104 9.39851C10.0223 9.36293 10.0725 9.36293 10.0844 9.39851Z" fill="#F5F5F5"/>
<path d="M10.0844 10.8349L10.176 11.1096L10.4656 11.1118C10.5031 11.1122 10.5186 11.1599 10.4884 11.1822L10.2555 11.3543L10.3429 11.6303C10.3542 11.666 10.3135 11.6957 10.283 11.6738L10.0474 11.5054L9.81188 11.6738C9.78137 11.6956 9.74073 11.666 9.75198 11.6303L9.83935 11.3543L9.60643 11.1822C9.57629 11.1599 9.59181 11.1122 9.62931 11.1118L9.91885 11.1096L10.0104 10.8349C10.0223 10.7994 10.0725 10.7994 10.0844 10.8349Z" fill="#F5F5F5"/>
</svg>
