<svg xmlns="http://www.w3.org/2000/svg" width="24" height="24" viewBox="0 0 24 24" fill="none"><rect width="24" height="24" fill="none"/>
<path d="M0 18.0646C0 19.0573 0.804703 19.8621 1.79742 19.8621H22.2025C23.1952 19.8621 24 19.0574 24 18.0646V12H0V18.0646Z" fill="#41479B"/>
<path d="M22.2025 4.13794H1.79742C0.804703 4.13794 0 4.94269 0 5.93536V12H24V5.93536C24 4.94269 23.1952 4.13794 22.2025 4.13794Z" fill="#FF4B55"/>
<path d="M12 4.13794L0 12L12 19.8621L24 12L12 4.13794Z" fill="#F5F5F5"/>
<path d="M12.1241 7.43925L13.1174 10.2968L16.1421 10.3585C16.2666 10.361 16.318 10.5193 16.2187 10.5945L13.8079 12.4222L14.684 15.3179C14.72 15.4371 14.5854 15.5349 14.4832 15.4638L11.9999 13.7357L9.5167 15.4637C9.41442 15.5348 9.27984 15.4371 9.31589 15.3179L10.1919 12.4222L7.78111 10.5945C7.68182 10.5192 7.73325 10.361 7.85779 10.3584L10.8824 10.2968L11.8758 7.4392C11.9168 7.32155 12.0832 7.32155 12.1241 7.43925Z" fill="#FFE15A"/>
</svg>
