<svg xmlns="http://www.w3.org/2000/svg" width="24" height="24" viewBox="0 0 24 24" fill="none"><rect width="24" height="24" fill="none"/>
<path d="M1.79742 4.13794C0.804703 4.13794 0 4.94264 0 5.93536V16.1379L18.2069 4.13794H1.79742V4.13794Z" fill="#73AF00"/>
<path d="M22.2026 19.8621C23.1952 19.8621 24 19.0574 24 18.0646V7.86206L5.79309 19.8621H22.2026Z" fill="#4173CD"/>
<path d="M22.2026 4.13794H17.9596L0 15.9046V18.0646C0 19.0573 0.804703 19.8621 1.79742 19.8621H6.04036L24 8.09541V5.93536C24 4.94264 23.1953 4.13794 22.2026 4.13794Z" fill="#FFE15A"/>
<path d="M22.2026 4.13794H20.2245L0 17.3884V18.0646C0 19.0573 0.804703 19.8621 1.79742 19.8621H3.77555L24 6.61158V5.93536C24 4.94264 23.1953 4.13794 22.2026 4.13794Z" fill="#464655"/>
</svg>
