<svg xmlns="http://www.w3.org/2000/svg" width="24" height="24" viewBox="0 0 24 24" fill="none"><rect width="24" height="24" fill="none"/>
<path d="M18.6206 4.138H5.37936V19.8622H18.6206V4.138Z" fill="#FFE15A"/>
<path d="M22.2026 19.8619C23.1952 19.8619 24 19.0572 24 18.0645V5.93524C24 4.94257 23.1953 4.13782 22.2026 4.13782H18.6207V19.8619H22.2026Z" fill="#73AF00"/>
<path d="M1.79742 19.8619H5.37933V4.13782H1.79742C0.804703 4.13782 0 4.94252 0 5.93524V18.0646C0 19.0572 0.804703 19.8619 1.79742 19.8619Z" fill="#4173CD"/>
<path d="M8.99466 11.7878L10.337 14.4724L11.6793 11.7878L10.337 9.10327L8.99466 11.7878Z" fill="#73AF00"/>
<path d="M12.3208 11.7875L13.6631 14.4721L15.0054 11.7875L13.6631 9.10297L12.3208 11.7875Z" fill="#73AF00"/>
<path d="M10.6577 15.0149L12 17.6995L13.3423 15.0149L12 12.3304L10.6577 15.0149Z" fill="#73AF00"/>
</svg>
