<svg xmlns="http://www.w3.org/2000/svg" width="24" height="24" viewBox="0 0 24 24" fill="none"><rect width="24" height="24" fill="none"/>
<path d="M22.2026 4.13788H1.79742C0.804703 4.13788 0 4.94258 0 5.9353V18.0647C0 19.0573 0.804703 19.8621 1.79742 19.8621H22.2026C23.1952 19.8621 24 19.0574 24 18.0647V5.9353C24 4.94258 23.1953 4.13788 22.2026 4.13788Z" fill="#41479B"/>
<path d="M0.413813 11.9999H1.13259L4.96556 9.48866V11.9999H7.03453V9.48866L10.8675 11.9999H11.5862C11.8148 11.9999 12 11.8146 12 11.5861V11.2579L8.71153 9.10339H12V7.03442H8.71148L12 4.87991V4.55169C12 4.32313 11.8147 4.13788 11.5862 4.13788H10.8674L7.03444 6.64916V4.13788H4.96547V6.64916L1.25831 4.22028C0.825469 4.35622 0.463594 4.65168 0.240609 5.0375L3.28856 7.03442H0V9.10339H3.28852L0 11.2579V11.5861C0 11.8146 0.185203 11.9999 0.413813 11.9999Z" fill="#F5F5F5"/>
<path d="M12 7.44824H6.62067V4.13788H5.37933V7.44824H0V8.68958H5.37933V11.9999H6.62067V8.68958H12V7.44824Z" fill="#FF4B55"/>
<path d="M0.385635 4.8235L3.79167 7.03445H4.5517L0.684698 4.52429C0.573651 4.61195 0.473292 4.7124 0.385635 4.8235Z" fill="#FF4B55"/>
<path d="M7.79452 7.03442L11.937 4.34539C11.865 4.22357 11.738 4.13788 11.5862 4.13788H11.4967L7.03448 7.03442H7.79452Z" fill="#FF4B55"/>
<path d="M4.19409 9.10339L0.0594788 11.7873C0.130776 11.9121 0.259776 11.9999 0.413807 11.9999H0.491854L4.95417 9.10339H4.19409Z" fill="#FF4B55"/>
<path d="M11.9934 11.6186L8.11846 9.10339H7.35843L11.7588 11.9597C11.8906 11.8985 11.981 11.7703 11.9934 11.6186Z" fill="#FF4B55"/>
<path d="M6.12519 14.2558L6.43752 15.2869L7.43844 14.8882C7.52385 14.8542 7.60147 14.9516 7.54935 15.0273L6.93791 15.9143L7.87363 16.4483C7.95346 16.4939 7.92575 16.6153 7.83407 16.6217L6.75927 16.6967L6.92525 17.7612C6.93941 17.8521 6.82719 17.9061 6.76503 17.8384L6.03622 17.0449L5.30741 17.8384C5.24525 17.9061 5.13303 17.852 5.14719 17.7612L5.31318 16.6967L4.23838 16.6217C4.14669 16.6153 4.11894 16.4939 4.19882 16.4483L5.13453 15.9143L4.5231 15.0273C4.47097 14.9516 4.5486 14.8542 4.634 14.8882L5.63493 15.2869L5.94725 14.2558C5.97402 14.1678 6.09857 14.1678 6.12519 14.2558Z" fill="#F5F5F5"/>
<path d="M18.4349 6.92449L18.5875 7.42816L19.0764 7.23344C19.1181 7.21684 19.1561 7.26438 19.1306 7.30136L18.8319 7.73472L19.289 7.99558C19.328 8.0178 19.3145 8.07714 19.2696 8.08023L18.7446 8.11689L18.8257 8.63688C18.8326 8.68127 18.7778 8.70766 18.7474 8.67456L18.3914 8.28695L18.0354 8.67456C18.005 8.70761 17.9502 8.68122 17.9571 8.63688L18.0381 8.11689L17.5131 8.08023C17.4683 8.07709 17.4548 8.0178 17.4938 7.99558L17.9509 7.73472L17.6522 7.30136C17.6267 7.26438 17.6647 7.21684 17.7064 7.23344L18.1953 7.42816L18.3479 6.92449C18.3611 6.88145 18.422 6.88145 18.4349 6.92449Z" fill="#F5F5F5"/>
<path d="M15.0329 10.7905L15.1855 11.2942L15.6744 11.0994C15.7161 11.0828 15.7541 11.1304 15.7286 11.1674L15.4299 11.6007L15.887 11.8616C15.926 11.8838 15.9125 11.9431 15.8676 11.9462L15.3426 11.9829L15.4237 12.5029C15.4307 12.5473 15.3758 12.5737 15.3455 12.5406L14.9894 12.1529L14.6334 12.5406C14.6031 12.5736 14.5483 12.5472 14.5551 12.5029L14.6362 11.9829L14.1112 11.9462C14.0664 11.9431 14.0529 11.8838 14.0919 11.8616L14.549 11.6007L14.2503 11.1674C14.2248 11.1304 14.2628 11.0828 14.3045 11.0994L14.7934 11.2942L14.946 10.7905C14.959 10.7475 15.0199 10.7475 15.0329 10.7905Z" fill="#F5F5F5"/>
<path d="M21.6536 9.13529L21.8061 9.63896L22.2951 9.44424C22.3368 9.42765 22.3747 9.47518 22.3492 9.51217L22.0506 9.94553L22.5077 10.2064C22.5467 10.2286 22.5331 10.2879 22.4883 10.291L21.9633 10.3277L22.0444 10.8477C22.0513 10.8921 21.9965 10.9185 21.9661 10.8854L21.6101 10.4978L21.2541 10.8854C21.2237 10.9184 21.1689 10.892 21.1759 10.8477L21.257 10.3277L20.732 10.291C20.6871 10.2879 20.6736 10.2286 20.7126 10.2064L21.1697 9.94553L20.871 9.51217C20.8455 9.47518 20.8835 9.42765 20.9252 9.44424L21.4141 9.63896L21.5667 9.13529C21.5797 9.09235 21.6405 9.09235 21.6536 9.13529Z" fill="#F5F5F5"/>
<path d="M18.4349 15.756L18.5875 16.2597L19.0764 16.0649C19.1181 16.0483 19.1561 16.0959 19.1306 16.1328L18.8319 16.5662L19.289 16.8271C19.328 16.8493 19.3145 16.9086 19.2696 16.9117L18.7446 16.9484L18.8257 17.4684C18.8326 17.5128 18.7778 17.5391 18.7474 17.506L18.3914 17.1184L18.0354 17.506C18.005 17.5391 17.9502 17.5127 17.9571 17.4684L18.0381 16.9484L17.5131 16.9117C17.4683 16.9086 17.4548 16.8493 17.4938 16.8271L17.9509 16.5662L17.6522 16.1328C17.6267 16.0959 17.6647 16.0483 17.7064 16.0649L18.1953 16.2597L18.3479 15.756C18.3611 15.7131 18.422 15.7131 18.4349 15.756Z" fill="#F5F5F5"/>
<path d="M19.6153 11.6956L19.4929 12.0629L19.1057 12.0659C19.0556 12.0663 19.0348 12.1302 19.0752 12.16L19.3866 12.39L19.2698 12.7592C19.2547 12.807 19.3091 12.8465 19.3498 12.8173L19.6648 12.5922L19.9798 12.8173C20.0206 12.8464 20.075 12.8069 20.0599 12.7592L19.9431 12.39L20.2546 12.16C20.2949 12.1302 20.2741 12.0663 20.224 12.0659L19.8369 12.0629L19.7144 11.6956C19.6985 11.648 19.6312 11.648 19.6153 11.6956Z" fill="#F5F5F5"/>
</svg>
