<svg xmlns="http://www.w3.org/2000/svg" width="24" height="24" viewBox="0 0 24 24" fill="none"><rect width="24" height="24" fill="none"/>
<path d="M23.9635 5.57311C23.9516 5.51461 23.9367 5.45714 23.9192 5.40089C23.9017 5.34464 23.8815 5.28951 23.8588 5.23575C23.8247 5.15512 23.7848 5.07745 23.7398 5.00334C23.6947 4.92923 23.6445 4.85864 23.5896 4.79203C23.5347 4.72547 23.475 4.66289 23.4111 4.6049C23.3938 4.58906 23.3758 4.57387 23.3578 4.55873L0.642181 19.4414C0.954604 19.7038 1.3574 19.8621 1.79737 19.8621H22.2026C23.1952 19.8621 24 19.0574 24 18.0647V5.93536C24 5.81128 23.9875 5.69011 23.9635 5.57311Z" fill="#41479B"/>
<path d="M23.2781 4.49502C23.232 4.46052 23.1841 4.42817 23.1347 4.39813C22.8629 4.23299 22.5438 4.13792 22.2026 4.13792H10.5365L0 11.0411V18.0646C0 18.6173 0.249657 19.1116 0.642189 19.4413L23.3579 4.55867C23.3318 4.53678 23.3054 4.51541 23.2781 4.49502Z" fill="#F5F5F5"/>
<path d="M1.79743 4.13792C1.45622 4.13792 1.13714 4.23303 0.865408 4.39813C0.816002 4.42813 0.768189 4.46052 0.722017 4.49502C0.675845 4.52952 0.631454 4.56617 0.588892 4.60489C0.525048 4.66293 0.465423 4.72546 0.410438 4.79202C0.355501 4.85858 0.305251 4.92918 0.26025 5.00333C0.215204 5.07744 0.17536 5.15511 0.141282 5.23574C0.1185 5.28946 0.0983439 5.34458 0.0808127 5.40088C0.0632814 5.45718 0.0484688 5.5146 0.0365157 5.5731C0.0125625 5.6901 0 5.81127 0 5.93535V11.0412L10.5365 4.13792H1.79743V4.13792Z" fill="#FFE15A"/>
<path d="M9.48161 10.7408C9.29382 9.4875 8.30556 8.49923 7.05226 8.31145L6.62068 7.44824L6.1891 8.31145C4.9358 8.49923 3.94758 9.48745 3.75975 10.7408L2.89655 11.1724L3.75975 11.604C3.94753 12.8573 4.9358 13.8455 6.1891 14.0333L6.62068 14.8965L7.05226 14.0333C8.30556 13.8455 9.29378 12.8573 9.48161 11.604L10.3448 11.1724L9.48161 10.7408ZM6.62068 13.6552C5.24949 13.6552 4.13789 12.5436 4.13789 11.1724C4.13789 9.80123 5.24944 8.68964 6.62068 8.68964C7.99191 8.68964 9.10346 9.80118 9.10346 11.1724C9.10346 12.5437 7.99191 13.6552 6.62068 13.6552Z" fill="#464655"/>
<path d="M6.62069 9.58116L7.06624 10.4007L7.99868 10.3768L7.51174 11.1724L7.99868 11.9679L7.06624 11.9441L6.62069 12.7636L6.17519 11.9441L5.24271 11.9679L5.72964 11.1724L5.24271 10.3768L6.17519 10.4007L6.62069 9.58116Z" fill="#FF4B55"/>
</svg>
