<svg xmlns="http://www.w3.org/2000/svg" width="24" height="24" viewBox="0 0 24 24" fill="none"><rect width="24" height="24" fill="none"/>
<path d="M22.2026 19.8621H1.79742C0.804703 19.8621 0 19.0574 0 18.0646V5.93536C0 4.94269 0.804703 4.13794 1.79742 4.13794H22.2026C23.1952 4.13794 24 4.94264 24 5.93536V18.0647C24 19.0574 23.1953 19.8621 22.2026 19.8621Z" fill="#FFE15A"/>
<path d="M24 14.069L0.773859 4.4581C0.306375 4.78266 0 5.32308 0 5.93536V7.03449L24 16.9655V14.069Z" fill="#F5F5F5"/>
<path d="M24 18.0646V16.9655L0 7.03448V9.93103L23.2261 19.5419C23.6937 19.2173 24 18.6769 24 18.0646Z" fill="#464655"/>
<path d="M14.3245 11.2651L14.3248 11.2534C14.3248 11.2534 14.3193 11.1968 14.309 11.0904C14.3058 11.0372 14.2936 10.9725 14.2775 10.897C14.265 10.821 14.2409 10.7358 14.21 10.6419C14.1478 10.4555 14.0522 10.2329 13.887 10.0174C13.867 9.99081 13.8434 9.96451 13.8216 9.93802C13.9153 9.83059 14.0067 9.70562 14.0929 9.55482C14.0929 9.55482 13.6204 9.57648 13.0898 9.34491C12.9146 9.2537 12.7243 9.17884 12.5156 9.12981L12.4166 8.73385C12.3955 8.6492 12.3193 8.58976 12.2321 8.58976H12.0952V8.39954H12.7611L12.5709 8.01901L12.7611 7.63848H12.0952V7.44821H11.9049V8.58976H11.768C11.6807 8.58976 11.6046 8.6492 11.5834 8.73385L11.4866 9.12127C11.3581 9.14865 11.2301 9.18338 11.1058 9.23621C11.0041 9.2769 10.9058 9.3279 10.8098 9.38499C10.3217 9.57235 9.9071 9.55487 9.9071 9.55487C9.99325 9.70557 10.0845 9.83049 10.1782 9.93788C10.1592 9.96095 10.1381 9.98167 10.1198 10.0054C9.99016 10.1814 9.88666 10.3793 9.80768 10.5894C9.73254 10.7935 9.68983 11.0525 9.67554 11.2418L9.67516 11.4249C9.67324 11.4823 9.6798 11.5393 9.68585 11.5964C9.69335 11.7116 9.7188 11.824 9.7428 11.9372C9.80214 12.1603 9.88896 12.3773 10.0073 12.5765C10.2442 12.9756 10.6055 13.2901 11.0107 13.4852C11.22 13.5774 11.4177 13.6477 11.6536 13.6812C11.7793 13.7046 11.8576 13.7042 11.9507 13.7123L11.9676 13.7135L11.9761 13.7141L12.0037 13.7148L12.0433 13.7132L12.1222 13.7096C12.1746 13.7061 12.227 13.7068 12.2784 13.6991C12.6924 13.6537 13.0655 13.4927 13.3569 13.2837C13.6482 13.071 13.8575 12.8116 14.0008 12.5642C14.1464 12.3167 14.2215 12.0772 14.2678 11.8809C14.29 11.783 14.3064 11.6934 14.3124 11.6093C14.3218 11.5259 14.3273 11.4577 14.3248 11.4131C14.3246 11.3165 14.3245 11.2651 14.3245 11.2651ZM10.8666 12.606C10.7344 12.503 10.6149 12.3802 10.506 12.2447C10.4011 12.106 10.3173 11.9495 10.2516 11.7832C10.1896 11.6204 10.1554 11.4247 10.1387 11.2651C10.134 11.0438 10.1444 10.8928 10.1867 10.704C10.2327 10.5247 10.3 10.3492 10.3935 10.1873C10.3989 10.1779 10.4063 10.17 10.4118 10.1607C10.8444 10.4986 11.301 10.4746 11.6195 10.3106V10.6827C11.7245 10.6827 11.8097 10.8956 11.8097 11.1583C11.8097 11.421 11.7245 11.634 11.6195 11.634V11.8242C11.9763 12.3 11.8126 12.7014 11.5933 12.9354C11.4938 12.9138 11.3906 12.8847 11.294 12.8467C11.1442 12.7885 11.002 12.7045 10.8666 12.606ZM13.8611 11.2438C13.8608 11.2466 13.8557 11.2955 13.8461 11.3887C13.8431 11.4407 13.8317 11.4899 13.8184 11.5444C13.8089 11.5994 13.7888 11.666 13.763 11.7414C13.7115 11.8893 13.634 12.0658 13.4993 12.2349C13.3676 12.4046 13.19 12.5721 12.9684 12.7032C12.7999 12.8032 12.6019 12.8709 12.3927 12.9189C12.1809 12.6828 12.0317 12.2895 12.3806 11.8242V11.634C12.2756 11.634 12.1904 11.4211 12.1904 11.1584C12.1904 10.8957 12.2756 10.6827 12.3806 10.6827V10.3106C12.6995 10.4748 13.1568 10.4987 13.5898 10.1596C13.5972 10.1721 13.6063 10.1848 13.6133 10.1971C13.7284 10.3983 13.7853 10.5918 13.821 10.7494C13.838 10.829 13.8505 10.8999 13.8535 10.963C13.86 11.0254 13.8648 11.0782 13.8621 11.1216C13.8615 11.1953 13.8611 11.2327 13.8611 11.2438Z" fill="#FF4B55"/>
<path d="M12 14.1073C11.2975 14.1073 10.6602 13.8337 10.1847 13.3889C10.0974 13.3073 9.95922 13.3172 9.88141 13.408L9.15287 14.2579C9.07544 14.3483 9.13966 14.4879 9.25858 14.4879H9.71678L10.3276 14.7933C10.4134 14.8362 10.5178 14.8085 10.571 14.7287L10.7676 14.4337C11.1476 14.5905 11.5634 14.6781 12 14.6781C12.4365 14.6781 12.8523 14.5905 13.2323 14.4337L13.4289 14.7287C13.4821 14.8085 13.5865 14.8362 13.6723 14.7933L14.2832 14.4879H14.7414C14.8603 14.4879 14.9245 14.3483 14.8471 14.2579L14.1185 13.408C14.0407 13.3172 13.9026 13.3073 13.8152 13.3889C13.3398 13.8337 12.7026 14.1073 12 14.1073Z" fill="#FF4B55"/>
<path d="M9.3364 13.3463H8.38503L8.57525 11.6339C8.57525 11.6339 7.90929 11.3009 7.97904 10.3235C7.98753 10.2046 8.08803 10.1118 8.20718 10.1118H8.36956C8.48168 10.1118 8.57567 10.1931 8.59423 10.3036C8.63426 10.5423 8.75881 10.934 9.14604 11.0631L9.3364 13.3463Z" fill="#FF4B55"/>
<path d="M14.6637 13.3463H15.615L15.4248 11.6339C15.4248 11.6339 16.0907 11.3009 16.021 10.3235C16.0125 10.2046 15.912 10.1118 15.7928 10.1118H15.6304C15.5183 10.1118 15.4243 10.1931 15.4058 10.3036C15.3657 10.5423 15.2412 10.934 14.854 11.0631L14.6637 13.3463Z" fill="#FF4B55"/>
<path d="M9.43148 13.5367H8.28993C8.23739 13.5367 8.19482 13.4941 8.19482 13.4415C8.19482 13.389 8.23739 13.3464 8.28993 13.3464H9.43148C9.48403 13.3464 9.52659 13.389 9.52659 13.4415C9.52659 13.4941 9.48398 13.5367 9.43148 13.5367Z" fill="#FFE15A"/>
<path d="M15.7101 13.5367H14.5686C14.516 13.5367 14.4734 13.4941 14.4734 13.4415C14.4734 13.389 14.516 13.3464 14.5686 13.3464H15.7101C15.7627 13.3464 15.8052 13.389 15.8052 13.4415C15.8052 13.4941 15.7627 13.5367 15.7101 13.5367Z" fill="#FFE15A"/>
</svg>
