<svg xmlns="http://www.w3.org/2000/svg" width="24" height="24" viewBox="0 0 24 24" fill="none"><rect width="24" height="24" fill="none"/>
<path d="M22.2134 4.13808H1.78664C0.798984 4.14389 0 4.94611 0 5.93517V12.0001H24V5.93517C24 4.94611 23.201 4.14389 22.2134 4.13808Z" fill="#73AF00"/>
<path d="M0 18.0645C0 19.0572 0.804703 19.8619 1.79742 19.8619H22.2026C23.1952 19.8619 24 19.0572 24 18.0645V12.0001H0V18.0645Z" fill="#4173CD"/>
<path d="M0 5.93519V18.0645C0 18.7059 0.336141 19.2684 0.841594 19.5865L24 12.0002L0.841031 4.41363C0.335906 4.73182 0 5.29413 0 5.93519Z" fill="#FF4B55"/>
<path d="M8.85037 14.3623C8.85037 14.3623 10.0158 13.9373 10.3448 12.6622C10.3448 12.6622 9.83751 13.3203 9.48103 13.5122C9.48103 13.5122 10.2625 12.4702 10.098 11.4557C10.098 11.4557 10.002 11.867 9.81005 12.0315C9.81005 12.0315 10.1528 10.5645 9.71405 9.9475C9.71405 9.9475 9.72773 10.4685 9.53583 10.9895C9.53583 10.9895 9.60895 9.33962 8.85942 8.9192C8.85942 8.9192 9.15192 9.44022 9.0285 9.87892C9.0285 9.87892 8.82286 8.94658 7.86764 8.57641C7.86764 8.57641 7.8082 8.64494 7.82194 8.85062C7.82194 8.85062 7.56145 8.53525 6.91701 8.54898C6.91701 8.54898 6.9307 8.78205 7.09523 9.00142C7.09523 9.00142 6.83475 9.13853 6.67022 9.09742C6.67022 9.09742 6.9307 9.38537 7.84931 9.35791C7.84931 9.35791 7.72589 9.46759 7.47914 9.49501C7.47914 9.49501 7.85442 9.66737 8.22408 9.70066C8.7314 9.74631 8.9325 10.0435 9.02845 10.4136C9.02845 10.4136 8.63086 10.1806 8.48001 9.94745C8.48001 9.94745 8.45259 10.345 9.20667 11.1129L8.82276 10.9483C8.82276 10.9483 9.06956 11.6613 9.3712 12.4702L9.05583 12.1274C9.05583 12.1274 8.98729 12.7033 8.9324 13.7727L8.71303 13.2654C8.71303 13.2654 8.32912 14.5268 7.73958 14.7325C7.27804 14.8935 6.76758 15.0037 6.567 15.0441C6.5482 14.3384 6.84839 14.184 6.84839 14.184C7.38309 14.2114 7.50651 13.6219 7.50651 13.6219C7.39683 13.7316 7.19114 13.7316 7.19114 13.7316C7.50651 13.4025 7.50651 12.9364 7.50651 12.9364C7.31456 13.3066 7.01292 13.3614 7.01292 13.3614L7.04034 12.9912C6.48267 13.3968 6.52247 13.8718 6.5317 13.9414C6.51914 13.8526 6.41981 13.158 6.36853 12.9912C6.31369 12.813 6.43706 12.4565 6.62901 12.5113C7.25034 12.6888 7.39683 12.2372 7.39683 12.2372C7.06776 12.388 6.87581 12.2783 6.87581 12.2783C7.30083 11.8669 7.12261 11.4831 7.12261 11.4831C6.9855 11.8807 6.60159 11.9492 6.60159 11.9492L6.5879 11.5105C6.40969 11.6065 6.24511 12.0316 6.24511 12.0316C6.24511 12.0316 6.204 11.6888 6.32733 11.3871C6.45075 11.0855 6.76603 11.2363 6.76603 11.2363C7.32815 11.346 7.50642 10.8113 7.50642 10.8113L7.13625 10.8661C7.54758 10.5645 7.4242 10.1942 7.4242 10.1942C7.3282 10.4273 6.9855 10.4685 6.9855 10.4685L7.15003 10.0298C6.79354 10.0298 6.5879 10.4959 6.5879 10.4959L6.56048 10.0435C6.72501 9.45395 6.34111 9.19342 6.34111 9.19342C6.25889 9.30311 6.3 9.53622 6.3 9.53622C5.9572 9.23458 5.69672 9.59106 5.69672 9.59106C5.9572 9.86523 6.20404 9.83786 6.20404 9.83786C6.12183 9.8927 5.82014 9.92008 5.82014 9.92008C6.16294 10.208 6.35484 10.1531 6.35484 10.1531C6.51937 10.8524 6.08062 11.1677 6.08062 11.1677C5.9984 10.6467 5.68303 10.3999 5.68303 10.3999L5.69672 10.7427C5.49108 10.6193 5.32655 10.2491 5.32655 10.2491C5.18944 10.7702 5.55961 11.2226 5.55961 11.2226L5.21681 11.1952C5.51845 11.8945 5.99831 11.6751 5.99831 11.6751C5.9572 12.1687 6.12173 12.9776 6.12173 12.9776C6.0532 12.8954 5.32655 12.2098 5.32655 12.2098C5.29912 12.484 5.55961 12.8404 5.55961 12.8404C5.4225 12.813 5.0249 12.5114 5.0249 12.5114C5.06601 12.9501 5.64187 13.238 5.64187 13.238C5.4225 13.2655 4.99744 13.0187 4.99744 13.0187C5.24423 14.0744 6.14911 13.6082 6.14911 13.6082L6.21853 15.0362C6.02737 14.9903 5.60939 14.8838 5.17565 14.7325C4.58611 14.5269 4.2022 13.2655 4.2022 13.2655L3.98283 13.7728C3.92798 12.7033 3.8594 12.1275 3.8594 12.1275L3.54403 12.4703C3.84567 11.6613 4.09247 10.9484 4.09247 10.9484L3.70856 11.1129C4.46264 10.3451 4.43522 9.9475 4.43522 9.9475C4.28437 10.1806 3.88678 10.4137 3.88678 10.4137C3.98278 10.0435 4.28437 9.65959 4.65459 9.63217C5.02481 9.60475 5.43609 9.49506 5.43609 9.49506C5.1893 9.46764 5.06592 9.35795 5.06592 9.35795C6.13537 9.26195 6.24501 8.97405 6.24501 8.97405C6.08048 9.01516 5.57315 8.96036 5.57315 8.96036C5.99817 8.7273 6.69745 8.50792 6.69745 8.50792C5.83364 8.35708 5.09329 8.85072 5.09329 8.85072C5.21672 8.61766 5.43609 8.35712 5.43609 8.35712C4.38037 8.8233 3.88673 9.87901 3.88673 9.87901C3.76331 9.44031 4.05581 8.9193 4.05581 8.9193C3.30628 9.33976 3.3794 10.9896 3.3794 10.9896C3.18745 10.4686 3.20119 9.94759 3.20119 9.94759C2.76248 10.5646 3.10519 12.0316 3.10519 12.0316C2.91323 11.8671 2.81723 11.4557 2.81723 11.4557C2.6527 12.4704 3.4342 13.5123 3.4342 13.5123C3.07772 13.3204 2.57039 12.6623 2.57039 12.6623C2.89945 13.9374 4.06486 14.3624 4.06486 14.3624C3.42042 14.1156 3.14625 14.3213 3.14625 14.3213C3.59869 14.4173 4.03744 14.6914 4.39392 14.9519C4.7504 15.2124 5.23031 15.2673 5.65533 15.3221C5.83092 15.3447 5.97642 15.3743 6.08911 15.4013C5.8568 15.5149 5.69648 15.7529 5.69648 16.029H7.095C7.095 15.7633 6.94687 15.5323 6.72867 15.4139C6.86911 15.3839 7.05619 15.3483 7.25953 15.322C7.68454 15.2672 8.12859 15.1544 8.52094 14.9519C8.94595 14.7325 9.31612 14.4172 9.76861 14.3212C9.76898 14.3211 9.49472 14.1154 8.85037 14.3623Z" fill="#FFE15A"/>
</svg>
