<svg xmlns="http://www.w3.org/2000/svg" width="24" height="24" viewBox="0 0 24 24" fill="none"><rect width="24" height="24" fill="none"/>
<path d="M22.2026 19.8633H1.79742C0.804703 19.8633 0 19.0585 0 18.0659V5.93653C0 4.94386 0.804703 4.13911 1.79742 4.13911H22.2026C23.1952 4.13911 24 4.94381 24 5.93653V18.0659C24 19.0585 23.1953 19.8633 22.2026 19.8633Z" fill="#41479B"/>
<path d="M0.413813 11.9988H1.13259L4.96556 9.48755V11.9988H7.03453V9.48755L10.8675 11.9988H11.5863C11.8148 11.9988 12.0001 11.8135 12.0001 11.585V11.2568L8.71158 9.10228H12V7.03331H8.71148L12 4.8788V4.55058C12 4.33688 11.838 4.16109 11.6301 4.13916H10.8638L7.03444 6.64805V4.13911H4.96547V6.648L1.26066 4.22067C0.827437 4.35605 0.465047 4.65127 0.241547 5.037L3.28852 7.03331H0V9.10228H3.28852L0 11.2568V11.585C0 11.8135 0.185297 11.9988 0.413813 11.9988Z" fill="#F5F5F5"/>
<path d="M12 7.44708H6.62067V4.13672H5.37933V7.44708H0V8.68847H5.37933V11.9988H6.62067V8.68847H12V7.44708Z" fill="#FF4B55"/>
<path d="M0.386902 4.82316L3.79171 7.03327H4.55175L0.686386 4.52419C0.575199 4.6118 0.474652 4.71211 0.386902 4.82316Z" fill="#FF4B55"/>
<path d="M7.79452 7.03331L11.937 4.34428C11.865 4.22245 11.738 4.13676 11.5862 4.13676H11.4967L7.03448 7.03331H7.79452Z" fill="#FF4B55"/>
<path d="M4.19409 9.10228L0.0594788 11.7861C0.130682 11.9109 0.259776 11.9988 0.413807 11.9988H0.491854L4.95417 9.10223H4.19409V9.10228Z" fill="#FF4B55"/>
<path d="M11.9934 11.6176L8.11846 9.10233H7.35843L11.7588 11.9587C11.8906 11.8974 11.981 11.7692 11.9934 11.6176Z" fill="#FF4B55"/>
<path d="M17.9918 8.07161C17.9918 8.07161 17.8188 7.37945 17.2996 7.03332C17.2996 7.03332 17.8187 7.8985 17.8187 8.5907L17.9918 8.07161Z" fill="#FFE15A"/>
<path d="M17.1914 7.31996C17.1914 7.31996 17.5537 7.54164 17.7484 7.90398L17.5915 8.26632C17.5916 8.26623 17.4618 7.75257 17.1914 7.31996Z" fill="#FFE15A"/>
<path d="M16.7913 7.40106C16.7913 7.40106 17.4186 7.59573 17.7159 8.00134L17.5375 8.27171C17.5375 8.27167 17.2996 7.81206 16.7913 7.40106Z" fill="#FFE15A"/>
<path d="M16.6994 7.71469C16.6994 7.71469 17.3591 7.8174 17.6565 8.13109L17.5808 8.42851C17.5808 8.42851 17.2185 7.9959 16.6994 7.71469Z" fill="#FFE15A"/>
<path d="M16.721 7.93102C16.721 7.93102 17.359 7.99594 17.6511 8.33115C17.9431 8.66644 17.5429 8.56365 17.5429 8.56365C17.5429 8.56365 17.2077 8.17974 16.721 7.93102Z" fill="#FFE15A"/>
<path d="M17.9918 8.07161C17.9918 8.07161 18.1648 7.37945 18.6839 7.03332C18.6839 7.03332 18.1648 7.8985 18.1648 8.5907L17.9918 8.07161Z" fill="#FFE15A"/>
<path d="M18.7921 7.31996C18.7921 7.31996 18.4297 7.54164 18.2351 7.90398L18.392 8.26632C18.392 8.26623 18.5217 7.75257 18.7921 7.31996Z" fill="#FFE15A"/>
<path d="M19.1922 7.40106C19.1922 7.40106 18.565 7.59573 18.2676 8.00134L18.446 8.27171C18.446 8.27167 18.6839 7.81206 19.1922 7.40106Z" fill="#FFE15A"/>
<path d="M19.2842 7.71469C19.2842 7.71469 18.6245 7.8174 18.3271 8.13109L18.4028 8.42851C18.4028 8.42851 18.765 7.9959 19.2842 7.71469Z" fill="#FFE15A"/>
<path d="M19.2625 7.93102C19.2625 7.93102 18.6245 7.99594 18.3324 8.33115C18.0404 8.66644 18.4406 8.56365 18.4406 8.56365C18.4406 8.56365 18.7759 8.17974 19.2625 7.93102Z" fill="#FFE15A"/>
<path d="M17.9918 7.03337C17.9918 7.03337 17.8187 7.39745 17.9918 7.57951C18.1648 7.39745 17.9918 7.03337 17.9918 7.03337Z" fill="#FFE15A"/>
<path d="M17.8194 7.12374C17.8194 7.12374 17.7962 7.52621 18.0249 7.62971C18.1168 7.39595 17.8194 7.12374 17.8194 7.12374Z" fill="#FFE15A"/>
<path d="M18.1642 7.12374C18.1642 7.12374 18.1874 7.52621 17.9586 7.62971C17.8667 7.39595 18.1642 7.12374 18.1642 7.12374Z" fill="#FFE15A"/>
<path d="M18.2208 7.35592C18.2208 7.35592 18.0698 7.72975 17.8187 7.72548C17.8356 7.47489 18.2208 7.35592 18.2208 7.35592Z" fill="#FFE15A"/>
<path d="M17.7627 7.35592C17.7627 7.35592 17.9137 7.72975 18.1648 7.72548C18.1479 7.47489 17.7627 7.35592 17.7627 7.35592Z" fill="#FFE15A"/>
<path d="M17.9916 8.937C18.2784 8.937 18.5109 8.62711 18.5109 8.24484C18.5109 7.86258 18.2784 7.55269 17.9916 7.55269C17.7047 7.55269 17.4722 7.86258 17.4722 8.24484C17.4722 8.62711 17.7047 8.937 17.9916 8.937Z" fill="#FFD255"/>
<path d="M16.8059 8.95115L16.6869 8.76726C16.6869 8.76726 16.3409 8.85018 16.2579 8.59063L16.1245 8.57981C16.1245 8.57981 16.1425 8.40318 16.2976 8.37792C16.2976 8.37792 16.3913 8.26256 16.5571 8.28421C16.7229 8.30582 16.8095 8.4464 16.905 8.48249C17.0005 8.51854 17.0114 8.63751 17.0114 8.63751L17.7396 9.38371C17.7396 9.38371 17.5305 9.65053 17.343 9.73701C17.1555 9.82349 16.467 9.40181 16.8059 8.95115Z" fill="#73AF00"/>
<path d="M19.1708 9.08813C19.1708 9.08813 19.4737 9.29363 19.4845 9.86143H18.9815C18.9815 9.86143 18.987 9.47747 18.8896 9.27202L19.1708 9.08813Z" fill="#73AF00"/>
<path d="M19.106 9.10983C19.106 9.10983 19.4845 9.23423 19.717 8.93681L19.3222 8.88277L19.106 9.10983Z" fill="#73AF00"/>
<path d="M18.9924 8.69344L19.3768 8.823C19.4252 8.83936 19.4423 8.89936 19.4084 8.93761C19.2625 9.10191 18.8272 9.49557 18.1254 9.49557C17.2115 9.49557 16.9754 8.92055 16.9646 8.87728C16.9537 8.83407 16.9051 8.4825 16.9051 8.4825L17.2944 8.43928L18.9924 8.69344Z" fill="#73AF00"/>
<path d="M15.255 13.9876H16.2616L15.7424 14.9932L15.2233 14.301L15.255 13.9876Z" fill="#FF4B55"/>
<path d="M20.7291 13.9877H19.7226L20.2417 14.9933L20.7608 14.3011L20.7291 13.9877Z" fill="#FF4B55"/>
<path d="M15.2508 15.6854C14.7543 15.6854 14.3743 15.4189 14.3547 15.405L14.7548 14.8401C14.7582 14.8422 15.0934 15.07 15.4353 14.9665C15.7812 14.862 16.0083 14.4538 16.138 14.1295L16.7806 14.3866C16.508 15.0683 16.1191 15.4872 15.6251 15.6321C15.4959 15.67 15.37 15.6854 15.2508 15.6854Z" fill="#FFD25A"/>
<path d="M20.7332 15.6854C21.2298 15.6854 21.6098 15.419 21.6294 15.4051L21.2292 14.8401C21.2259 14.8423 20.8906 15.0701 20.5488 14.9666C20.2029 14.8621 19.9757 14.4539 19.8461 14.1296L19.2034 14.3867C19.4761 15.0684 19.8649 15.4873 20.3589 15.6321C20.4881 15.6701 20.6141 15.6854 20.7332 15.6854Z" fill="#FFD25A"/>
<path d="M20.2415 12.0515H15.7424V10.3888C15.7424 10.1603 15.9277 9.975 16.1562 9.975H19.8277C20.0562 9.975 20.2415 10.1603 20.2415 10.3888L20.2415 12.0515Z" fill="#FF4B55"/>
<path d="M16.9699 11.1863L16.9159 10.8402C16.6617 10.8294 16.5157 10.532 16.5157 10.532L16.3102 10.6455C16.5265 11.1646 16.9699 11.1863 16.9699 11.1863Z" fill="#FFE15A"/>
<path d="M19.679 10.8294C19.7547 10.7717 19.9206 10.75 19.9206 10.75C19.8016 10.6275 19.6719 10.714 19.6719 10.714C19.78 10.6131 19.7187 10.4689 19.7187 10.4689C19.7187 10.5158 19.643 10.5482 19.643 10.5482C19.6467 10.4545 19.5493 10.3643 19.5493 10.3643L19.4989 10.4472C19.4664 10.3679 19.3511 10.3067 19.3511 10.3067L19.3042 10.5013C19.196 10.4076 19.005 10.4148 19.005 10.4148L19.041 10.5049C18.9257 10.5085 18.612 10.5734 18.4281 10.595C18.2442 10.6166 18.0965 10.5662 18.0965 10.4833C18.0965 10.4139 18.2572 10.4053 18.3267 10.4043C18.3759 10.4152 18.4377 10.4329 18.5246 10.459C18.6868 10.5077 18.7818 10.4372 18.7818 10.4372C18.725 10.4156 18.7187 10.3903 18.7187 10.3903C18.8404 10.32 18.9545 10.3374 18.9545 10.3374C18.9139 10.2482 18.7382 10.2535 18.7382 10.2535C18.7841 10.2292 18.8193 10.1535 18.8193 10.1535C18.8084 10.1643 18.7085 10.1889 18.5721 10.2071C18.4695 10.221 18.3731 10.299 18.3332 10.3351C18.2249 10.3268 17.9422 10.3234 17.9919 10.5195C18.0532 10.761 18.5399 10.6745 18.8391 10.6276C19.1383 10.5807 19.2933 10.6204 19.3582 10.66C19.4231 10.6997 19.3306 10.834 19.0265 10.779C18.7638 10.7315 18.6191 10.7301 18.5397 10.7385C18.4516 10.7441 18.3765 10.7678 18.3236 10.779C18.2046 10.8042 17.7467 10.9665 17.6602 10.7321C17.5737 10.4978 17.1519 11.1143 17.1519 11.1143L17.1849 11.1535L17.0726 11.1269C16.9212 11.3297 16.467 11.3919 16.467 11.3919C16.467 11.3919 16.3994 11.2702 16.3426 11.254C16.2858 11.2377 16.2615 11.3269 16.2615 11.3269C16.2615 11.3269 16.1939 11.3296 16.1885 11.3919C16.1831 11.454 16.2372 11.4595 16.2372 11.4595C16.2372 11.4595 16.1722 11.5541 16.2804 11.5811C16.2804 11.5811 16.2723 11.7136 16.4318 11.6216C16.9057 11.6814 17.2512 11.438 17.4009 11.3053C17.4987 11.3116 17.6511 11.3084 17.7683 11.2476C17.9558 11.1503 18.1721 11.0277 18.2982 11.0746C18.2982 11.0746 18.3992 11.3846 18.0027 11.3918C18.0027 11.3918 17.944 11.3177 17.885 11.3177C17.8595 11.3177 17.8331 11.3482 17.8412 11.3757C17.8412 11.3757 17.772 11.3716 17.7598 11.4123C17.7498 11.4455 17.774 11.4835 17.8249 11.4775C17.8249 11.4775 17.7903 11.5284 17.8249 11.5589C17.8595 11.5894 17.9023 11.5589 17.9023 11.5589C17.9023 11.5589 17.884 11.622 17.9267 11.6281C17.9633 11.6333 18.0117 11.5735 18.0256 11.5554C18.089 11.5653 18.522 11.6152 18.6155 11.161C18.6155 11.161 18.8319 11.2548 19.0445 11.2368C19.2572 11.2188 19.4664 11.2512 19.4483 11.3557C19.4247 11.4315 19.3782 11.4265 19.3782 11.4265C19.3273 11.4061 19.2418 11.4082 19.2297 11.4815C19.2175 11.5548 19.3172 11.5568 19.3172 11.5568C19.3457 11.624 19.4271 11.5955 19.4271 11.5955C19.4983 11.6464 19.5452 11.5914 19.5452 11.5914C19.5757 11.6179 19.6072 11.6228 19.6368 11.5975C19.6653 11.5731 19.6493 11.4102 19.6466 11.3521C19.6421 11.2554 19.6285 11.0024 19.4879 10.9988C19.3474 10.9952 19.1671 11.0781 18.9184 10.869C18.9054 10.858 18.8927 10.8511 18.8799 10.8418C18.9976 10.8528 19.0819 10.8847 19.1635 10.8978C19.2753 10.9159 19.6034 10.887 19.679 10.8294Z" fill="#FFE15A"/>
<path d="M16.3101 10.6455C16.3101 10.6455 16.2412 10.6473 16.2074 10.6374C16.1495 10.6203 16.1425 10.5292 16.2048 10.513C16.2048 10.513 16.1299 10.4621 16.1642 10.4048C16.1917 10.359 16.2617 10.3591 16.286 10.3862C16.286 10.3862 16.2632 10.3107 16.3292 10.2858C16.3817 10.266 16.4238 10.3264 16.4238 10.4048C16.4238 10.4048 16.5023 10.341 16.5428 10.3832C16.571 10.4126 16.5629 10.4513 16.5157 10.5319C16.4676 10.6142 16.3101 10.6455 16.3101 10.6455Z" fill="#FFE15A"/>
<path d="M16.2251 10.6122C16.2251 10.6122 16.1885 10.6753 16.0826 10.6366C16.0826 10.6366 16.1742 10.5938 16.1864 10.5572L16.2251 10.6122Z" fill="#41479B"/>
<path d="M16.1863 10.4269C16.1863 10.4269 16.1293 10.3903 16.0663 10.3924C16.0663 10.3924 16.1599 10.3232 16.2393 10.3842L16.1863 10.4269Z" fill="#41479B"/>
<path d="M16.3187 10.3292C16.3187 10.3292 16.3371 10.262 16.3004 10.2254C16.3004 10.2254 16.3757 10.258 16.3859 10.319L16.3187 10.3292Z" fill="#41479B"/>
<path d="M16.4856 10.3984C16.4856 10.3984 16.5222 10.317 16.4897 10.2783C16.4897 10.2783 16.5874 10.3354 16.5467 10.429L16.4856 10.3984Z" fill="#41479B"/>
<path d="M16.2949 11.3032C16.2949 11.3032 16.2557 11.223 16.2051 11.2233C16.2051 11.2233 16.3115 11.1846 16.3574 11.2758L16.2949 11.3032Z" fill="#41479B"/>
<path d="M16.2092 11.4054C16.2092 11.4054 16.1393 11.3498 16.0938 11.3719C16.0938 11.3719 16.1732 11.2912 16.2538 11.3538L16.2092 11.4054Z" fill="#41479B"/>
<path d="M16.2583 11.5496C16.2583 11.5496 16.169 11.5486 16.1466 11.5939C16.1466 11.5939 16.1597 11.4816 16.2618 11.4814L16.2583 11.5496Z" fill="#41479B"/>
<path d="M16.3399 11.6424C16.3399 11.6424 16.3033 11.7055 16.1974 11.6668C16.1974 11.6668 16.289 11.624 16.3013 11.5874L16.3399 11.6424Z" fill="#41479B"/>
<path d="M17.949 11.6103C17.949 11.6103 17.919 11.662 17.8323 11.6303C17.8323 11.6303 17.9027 11.6052 17.9127 11.5751L17.949 11.6103Z" fill="#41479B"/>
<path d="M17.0331 10.4941C17.0331 10.4941 16.8383 10.8257 16.8852 11.3052C16.8852 11.3052 17.4592 11.2214 17.708 10.6482C17.708 10.6482 17.7686 10.6237 17.7922 10.5648C17.8124 10.5148 17.8107 10.4323 17.7143 10.4328C17.7143 10.4328 17.7432 10.3751 17.7783 10.3616C17.7783 10.3616 17.7161 10.3372 17.6431 10.3535C17.6431 10.3535 17.6999 10.2966 17.6999 10.2237C17.6999 10.2237 17.6134 10.2805 17.5593 10.2858C17.5593 10.2858 17.5539 10.1966 17.5755 10.1858C17.5755 10.1858 17.462 10.1966 17.4052 10.2561C17.4052 10.2561 17.3673 10.2047 17.37 10.1506C17.37 10.1506 17.2646 10.1966 17.224 10.2642C17.224 10.2642 17.1916 10.229 17.1943 10.1939C17.1943 10.1939 17.1186 10.2858 17.1024 10.3344C17.1024 10.3344 17.031 10.3148 16.9997 10.3723C16.977 10.4139 16.9822 10.4595 17.0331 10.4941Z" fill="#FFD255"/>
<path d="M17.8624 11.3689C17.8624 11.3689 17.8393 11.3255 17.7701 11.316C17.7701 11.316 17.8583 11.2753 17.914 11.3336L17.8624 11.3689Z" fill="#41479B"/>
<path d="M19.2936 11.5338C19.2936 11.5338 19.243 11.5498 19.2193 11.6213C19.2193 11.6213 19.1934 11.5197 19.2662 11.4721L19.2936 11.5338Z" fill="#41479B"/>
<path d="M19.3997 11.5711C19.3997 11.5711 19.3518 11.6177 19.3541 11.6931C19.3541 11.6931 19.295 11.6065 19.3471 11.5369L19.3997 11.5711Z" fill="#41479B"/>
<path d="M19.6288 11.5671C19.6288 11.5671 19.6143 11.6164 19.658 11.669C19.658 11.669 19.5674 11.6401 19.5657 11.5612L19.6288 11.5671Z" fill="#41479B"/>
<path d="M19.5211 11.5862C19.5211 11.5862 19.4827 11.6228 19.4929 11.6975C19.4929 11.6975 19.4214 11.6347 19.466 11.56L19.5211 11.5862Z" fill="#41479B"/>
<path d="M17.7886 11.4578C17.7886 11.4578 17.7423 11.4412 17.6848 11.4808C17.6848 11.4808 17.7226 11.3913 17.803 11.3969L17.7886 11.4578Z" fill="#41479B"/>
<path d="M17.8519 11.5562C17.8519 11.5562 17.8043 11.5438 17.7504 11.5882C17.7504 11.5882 17.7587 11.5018 17.8393 11.5005L17.8519 11.5562Z" fill="#41479B"/>
<path d="M20.2415 12.3303C19.8662 12.3303 19.8662 12.6688 19.4909 12.6688C19.1157 12.6688 19.1157 12.3303 18.7404 12.3303C18.3654 12.3303 18.3654 12.6688 17.9904 12.6688C17.6158 12.6688 17.6158 12.3303 17.2411 12.3303C16.8664 12.3303 16.8665 12.6688 16.4919 12.6688C16.1172 12.6688 16.1172 12.3303 15.7424 12.3303V11.7054C16.1171 11.7054 16.1171 12.0439 16.4919 12.0439C16.8665 12.0439 16.8665 11.7054 17.2411 11.7054C17.6158 11.7054 17.6158 12.0439 17.9904 12.0439C18.3654 12.0439 18.3654 11.7054 18.7404 11.7054C19.1157 11.7054 19.1157 12.0439 19.4909 12.0439C19.8662 12.0439 19.8662 11.7054 20.2415 11.7054V12.3303Z" fill="#F5F5F5"/>
<path d="M19.4909 12.6689C19.1157 12.6689 19.1157 12.3304 18.7404 12.3304C18.3654 12.3304 18.3654 12.6689 17.9904 12.6689C17.6158 12.6689 17.6158 12.3304 17.2411 12.3304C16.8664 12.3304 16.8665 12.6689 16.4919 12.6689C16.1179 12.6689 16.1169 12.332 15.7445 12.3306C15.7497 12.4802 15.7669 12.7023 15.8107 12.9632C16.1151 13.0036 16.1428 13.2938 16.4918 13.2938C16.8665 13.2938 16.8665 12.9552 17.241 12.9552C17.6157 12.9552 17.6157 13.2938 17.9904 13.2938C18.3654 13.2938 18.3654 12.9552 18.7404 12.9552C19.1157 12.9552 19.1157 13.2938 19.4909 13.2938C19.8404 13.2938 19.8682 13.0035 20.1731 12.9632C20.2169 12.7023 20.2341 12.4802 20.2393 12.3306C19.8665 12.332 19.8654 12.6689 19.4909 12.6689Z" fill="#41479B"/>
<path d="M19.4909 13.2938C19.1157 13.2938 19.1157 12.9553 18.7404 12.9553C18.3654 12.9553 18.3654 13.2938 17.9904 13.2938C17.6157 13.2938 17.6157 12.9553 17.2411 12.9553C16.8664 12.9553 16.8664 13.2938 16.4919 13.2938C16.1428 13.2938 16.1151 13.0036 15.8107 12.9633C15.8455 13.1701 15.8974 13.4007 15.9738 13.6391C16.1425 13.736 16.216 13.9187 16.4919 13.9187C16.8665 13.9187 16.8665 13.5802 17.2411 13.5802C17.6157 13.5802 17.6157 13.9187 17.9904 13.9187C18.3654 13.9187 18.3654 13.5802 18.7404 13.5802C19.1157 13.5802 19.1157 13.9187 19.4909 13.9187C19.7674 13.9187 19.8409 13.7356 20.0101 13.6388C20.0865 13.4005 20.1383 13.1699 20.1732 12.9633C19.8683 13.0035 19.8405 13.2938 19.4909 13.2938Z" fill="#F5F5F5"/>
<path d="M19.4909 13.9187C19.1157 13.9187 19.1157 13.5802 18.7404 13.5802C18.3654 13.5802 18.3654 13.9187 17.9904 13.9187C17.6158 13.9187 17.6158 13.5802 17.2411 13.5802C16.8664 13.5802 16.8665 13.9187 16.4919 13.9187C16.216 13.9187 16.1425 13.7359 15.9738 13.6391C16.069 13.9362 16.2028 14.2443 16.3894 14.5316C16.4209 14.5381 16.4533 14.5436 16.4919 14.5436C16.8665 14.5436 16.8665 14.2051 17.2411 14.2051C17.6158 14.2051 17.6158 14.5436 17.9904 14.5436C18.3654 14.5436 18.3654 14.2051 18.7404 14.2051C19.1157 14.2051 19.1157 14.5436 19.4909 14.5436C19.5299 14.5436 19.5628 14.5381 19.5945 14.5315C19.7812 14.2441 19.9149 13.9359 20.0101 13.6388C19.8409 13.7355 19.7675 13.9187 19.4909 13.9187Z" fill="#41479B"/>
<path d="M19.491 14.5436C19.1157 14.5436 19.1157 14.2051 18.7405 14.2051C18.3655 14.2051 18.3655 14.5436 17.9905 14.5436C17.6158 14.5436 17.6158 14.2051 17.2411 14.2051C16.8664 14.2051 16.8665 14.5436 16.4919 14.5436C16.4533 14.5436 16.4209 14.5381 16.3894 14.5316C16.508 14.7142 16.6485 14.8878 16.8138 15.045C16.9284 14.9482 17.0194 14.83 17.2412 14.83C17.6158 14.83 17.6158 15.1685 17.9905 15.1685C18.3655 15.1685 18.3655 14.83 18.7405 14.83C18.9631 14.83 19.0541 14.9487 19.1694 15.0457C19.3351 14.8883 19.4758 14.7144 19.5946 14.5315C19.5628 14.5381 19.53 14.5436 19.491 14.5436Z" fill="#F5F5F5"/>
<path d="M19.1693 15.0457C19.0541 14.9487 18.9631 14.83 18.7404 14.83C18.3654 14.83 18.3654 15.1685 17.9904 15.1685C17.6158 15.1685 17.6158 14.83 17.2411 14.83C17.0194 14.83 16.9284 14.9482 16.8138 15.045C17.1152 15.3314 17.4995 15.5622 17.9919 15.6853C18.4839 15.5624 18.868 15.3318 19.1693 15.0457Z" fill="#41479B"/>
<path d="M18.7402 11.7054C18.3652 11.7054 18.3652 12.0439 17.9902 12.0439C17.6156 12.0439 17.6156 11.7054 17.2409 11.7054C16.8662 11.7054 16.8663 12.0439 16.4917 12.0439C16.117 12.0439 16.117 11.7054 15.7422 11.7054C15.7422 11.9189 15.7422 12.1043 15.7422 12.2245C15.7422 12.2538 15.7429 12.2899 15.7443 12.3305C16.1167 12.332 16.1177 12.6688 16.4917 12.6688C16.8663 12.6688 16.8663 12.3303 17.2409 12.3303C17.6155 12.3303 17.6155 12.6688 17.9902 12.6688C18.3652 12.6688 18.3652 12.3303 18.7402 12.3303C19.1155 12.3303 19.1155 12.6688 19.4907 12.6688C19.8652 12.6688 19.8662 12.332 20.2392 12.3305C20.2406 12.2898 20.2412 12.2537 20.2412 12.2245C20.2412 12.1043 20.2412 11.9189 20.2412 11.7054C19.866 11.7054 19.866 12.0439 19.4907 12.0439C19.1155 12.0439 19.1155 11.7054 18.7402 11.7054Z" fill="#F5F5F5"/>
<path d="M20.0685 9.975C20.164 9.975 20.2415 10.0525 20.2415 10.148V11.7054V12.0515C20.2415 12.117 20.2415 12.177 20.2415 12.2245C20.2415 12.2538 20.2408 12.2899 20.2394 12.3305C20.2342 12.4801 20.217 12.7022 20.1732 12.9632C20.1384 13.1699 20.0866 13.4004 20.0102 13.6387C19.915 13.9359 19.7813 14.2441 19.5946 14.5314C19.4758 14.7144 19.335 14.8883 19.1694 15.0456C18.8681 15.3316 18.484 15.5622 17.992 15.6852C17.4996 15.5621 17.1153 15.3313 16.8139 15.0449C16.6485 14.8877 16.5081 14.7142 16.3895 14.5315C16.2029 14.2441 16.0691 13.9361 15.9739 13.639C15.8975 13.4005 15.8456 13.1699 15.8108 12.9631C15.767 12.7022 15.7498 12.4801 15.7447 12.3305C15.7432 12.2898 15.7426 12.2537 15.7426 12.2244C15.7426 12.177 15.7426 12.117 15.7426 12.0514V11.7053V10.148C15.7426 10.0524 15.8201 9.97495 15.9156 9.97495H20.0685L20.0685 9.975ZM20.0685 9.8452H15.9155C15.7485 9.8452 15.6126 9.98105 15.6126 10.1481V11.7054V12.0515V12.2245C15.6126 12.255 15.6133 12.2926 15.6148 12.3351C15.6197 12.4763 15.6354 12.7036 15.6827 12.9847C15.7229 13.2241 15.7793 13.4575 15.8502 13.6787C15.9599 14.0208 16.1047 14.3316 16.2805 14.6023C16.41 14.8017 16.5594 14.9823 16.7243 15.1391C17.0685 15.4661 17.4844 15.6922 17.9604 15.8113L17.9919 15.8191L18.0233 15.8113C18.499 15.6923 18.9146 15.4664 19.2586 15.1398C19.424 14.9827 19.5736 14.8019 19.7033 14.6022C19.8793 14.3314 20.024 14.0206 20.1337 13.6784C20.2046 13.4574 20.2609 13.224 20.3011 12.9847C20.3484 12.7036 20.3642 12.4762 20.3691 12.3351C20.3705 12.2926 20.3712 12.255 20.3712 12.2245V12.0515V11.7054V10.1481C20.3712 9.98105 20.2354 9.8452 20.0685 9.8452Z" fill="#F5F5F5"/>
<path d="M17.9919 14.6389L17.5171 14.9693L17.6846 14.4156L17.2237 14.0661L17.802 14.0544L17.9919 13.5079L18.1819 14.0544L18.7602 14.0661L18.2993 14.4156L18.4668 14.9693L17.9919 14.6389Z" fill="#73AF00"/>
<path d="M17.9919 13.6147L18.1568 14.0888L18.6587 14.0991L18.2586 14.4023L18.4041 14.8829L17.992 14.5962L17.5799 14.8829L17.7253 14.4023L17.3253 14.0991L17.8272 14.0888L17.9919 13.6147ZM17.9919 13.4012L17.9257 13.5917L17.7769 14.0198L17.3238 14.0291L17.1222 14.0332L17.2828 14.155L17.644 14.4289L17.5128 14.8627L17.4544 15.0557L17.6199 14.9406L17.9919 14.6817L18.3639 14.9406L18.5295 15.0557L18.4711 14.8627L18.3399 14.4289L18.701 14.155L18.8617 14.0332L18.6601 14.0291L18.2069 14.0198L18.0581 13.5917L17.9919 13.4012Z" fill="#FFE15A"/>
<path d="M16.9491 13.2892L16.4743 13.6196L16.6418 13.0659L16.1808 12.7164L16.7591 12.7046L16.9491 12.1582L17.139 12.7046L17.7174 12.7164L17.2564 13.0659L17.4239 13.6196L16.9491 13.2892Z" fill="#73AF00"/>
<path d="M16.9491 12.265L17.114 12.7391L17.6159 12.7493L17.2159 13.0526L17.3613 13.5331L16.9492 13.2464L16.5371 13.5331L16.6825 13.0526L16.2825 12.7493L16.7844 12.7391L16.9491 12.265ZM16.9491 12.0515L16.8829 12.242L16.7341 12.6701L16.281 12.6794L16.0793 12.6834L16.24 12.8053L16.6012 13.0792L16.47 13.513L16.4115 13.706L16.5771 13.5908L16.9491 13.3319L17.3211 13.5908L17.4867 13.706L17.4283 13.513L17.2971 13.0792L17.6582 12.8053L17.8189 12.6834L17.6173 12.6794L17.1641 12.6701L17.0153 12.242L16.9491 12.0515Z" fill="#FFE15A"/>
<path d="M19.0256 13.2892L18.5508 13.6196L18.7182 13.0659L18.2574 12.7164L18.8356 12.7046L19.0256 12.1582L19.2156 12.7046L19.7939 12.7164L19.3329 13.0659L19.5004 13.6196L19.0256 13.2892Z" fill="#73AF00"/>
<path d="M19.0258 12.2649L19.1906 12.7391L19.6925 12.7493L19.2925 13.0526L19.4379 13.5331L19.0258 13.2464L18.6137 13.5331L18.7591 13.0526L18.3591 12.7493L18.8611 12.7391L19.0258 12.2649ZM19.0258 12.0514L18.9596 12.2419L18.8108 12.67L18.3576 12.6793L18.156 12.6834L18.3167 12.8053L18.6778 13.0791L18.5466 13.5129L18.4882 13.706L18.6538 13.5908L19.0258 13.3319L19.3978 13.5908L19.5633 13.706L19.5049 13.5129L19.3737 13.0791L19.7348 12.8053L19.8955 12.6834L19.6939 12.6793L19.2408 12.67L19.092 12.2419L19.0258 12.0514Z" fill="#FFE15A"/>
<path d="M20.7291 13.9876C20.2997 15.081 19.2361 15.8583 17.9921 15.8583C16.7482 15.8583 15.6846 15.0809 15.2552 13.9876L14.6112 14.2395C15.1417 15.5902 16.4555 16.5505 17.9921 16.5505C19.5288 16.5505 20.8426 15.5902 21.373 14.2395L20.7291 13.9876Z" fill="#FFE15A"/>
<path d="M18.3379 9.97506H17.8188L17.6458 9.45592H18.1649L18.3379 9.97506Z" fill="#F5F5F5"/>
<path d="M19.2031 9.97505H18.857L18.7417 9.62897H18.8996C19.012 9.62897 19.1117 9.70088 19.1472 9.80743L19.2031 9.97505Z" fill="#F5F5F5"/>
<path d="M17.2997 9.97505H16.9536L16.9142 9.85669C16.8768 9.74466 16.9602 9.62897 17.0783 9.62897H17.1843L17.2997 9.97505Z" fill="#F5F5F5"/>
<path d="M18.8571 9.9751H18.338L18.165 9.45601H18.5594C18.6339 9.45601 18.7 9.50363 18.7236 9.57437L18.8571 9.9751Z" fill="#41479B"/>
<path d="M17.8189 9.975H17.2998L17.1829 9.62438C17.1553 9.5415 17.217 9.45591 17.3044 9.45591H17.6459L17.8189 9.975Z" fill="#41479B"/>
<path d="M19.2627 8.77453C19.1275 8.9692 18.749 9.2017 18.1325 9.2017C17.6246 9.2017 17.2979 8.895 17.1888 8.77406C17.1623 8.74462 17.1484 8.70698 17.1484 8.66728V8.54925C17.1484 8.49844 17.1747 8.45222 17.2186 8.42672C17.3285 8.36278 17.5824 8.26078 18.0838 8.26078C18.7057 8.26083 19.2627 8.77453 19.2627 8.77453Z" fill="#509664"/>
</svg>
