<svg xmlns="http://www.w3.org/2000/svg" width="24" height="24" viewBox="0 0 24 24" fill="none"><rect width="24" height="24" fill="none"/>
<path d="M22.2025 19.8619H1.79742C0.804703 19.8619 0 19.0572 0 18.0645V5.93518C0 4.94255 0.804703 4.13776 1.79742 4.13776H22.2025C23.1952 4.13776 24 4.94255 24 5.93518V18.0645C24 19.0572 23.1952 19.8619 22.2025 19.8619Z" fill="#73AF00"/>
<path d="M24 10.3447H0V11.4482H24V10.3447Z" fill="#FFE15A"/>
<path d="M24 11.4481H0V12.5516H24V11.4481Z" fill="#464655"/>
<path d="M24 12.5515H0V13.655H24V12.5515Z" fill="#F5F5F5"/>
<path d="M11.4483 4.138H10.3448V19.8622H11.4483V4.138Z" fill="#FFE15A"/>
<path d="M12.5517 4.138H11.4483V19.8622H12.5517V4.138Z" fill="#464655"/>
<path d="M13.6552 4.138H12.5517V19.8622H13.6552V4.138Z" fill="#F5F5F5"/>
<path d="M12 16.1379C14.2854 16.1379 16.1381 14.2852 16.1381 11.9998C16.1381 9.7144 14.2854 7.86169 12 7.86169C9.71458 7.86169 7.86188 9.7144 7.86188 11.9998C7.86188 14.2852 9.71458 16.1379 12 16.1379Z" fill="#FF4B55"/>
<path d="M11.6447 12.7115C11.6447 12.7115 11.5964 13.0498 11.9251 13.5524H12.5629L12.4179 12.9435L11.6447 12.7115Z" fill="#73AF00"/>
<path d="M11.5996 10.447C11.5996 10.447 10.5559 12.1544 12.0893 13.1724L12.2504 12.2059L12.3534 10.9559L12.1924 10.4211L11.5996 10.447Z" fill="#A561CD"/>
<path d="M11.5996 10.4469C11.5996 10.4469 11.4803 10.6455 11.3815 10.9443C11.5159 11.0848 11.8831 11.2588 12.3347 11.1825L12.3534 10.9559L12.1923 10.4211L11.5996 10.4469Z" fill="#73AF00"/>
<path d="M11.3999 10.2021C11.3999 10.2021 11.4127 9.8606 11.7478 9.8606C12.1666 9.8606 12.5081 9.9572 13.0493 11.0783C13.0493 11.0783 12.5679 11.5508 12.2632 10.8979C12.1731 10.7046 12.1408 10.4727 12.1408 10.4727C12.1408 10.4727 11.7671 10.6015 11.5094 10.4533L11.3999 10.2021Z" fill="#A561CD"/>
<path d="M11.5674 10.3632L11.49 10.157C11.49 10.157 11.0584 10.0862 11.2388 10.6081C11.2388 10.6081 11.2516 10.505 11.3612 10.5179C11.4708 10.5308 11.5867 10.447 11.5674 10.3632Z" fill="#FFE15A"/>
<path d="M12.289 12.3217C12.289 12.3217 11.8348 12.6776 12.0893 13.5136C12.2246 13.9582 12.7658 14.4462 12.7658 14.4462C12.7658 14.4462 13.1669 13.3976 13.0364 12.9917C12.9596 12.7528 12.289 12.3217 12.289 12.3217Z" fill="#73AF00"/>
<path d="M13.1524 13.6685C13.1524 13.6685 11.9797 12.5506 11.9024 11.6711C11.8251 10.7917 12.3322 10.9313 12.4243 10.9882C12.6434 11.1234 13.1975 11.6904 13.1524 13.6685Z" fill="#73AF00"/>
<path d="M13.0069 13.9246H11.0654C11.0251 13.9246 10.9924 13.8919 10.9924 13.8515V13.7076C10.9924 13.6673 11.0251 13.6346 11.0654 13.6346H13.0069C13.0472 13.6346 13.0799 13.6673 13.0799 13.7076V13.8515C13.0799 13.8918 13.0472 13.9246 13.0069 13.9246Z" fill="#B34900"/>
<path d="M12.5339 13.6491C12.4663 13.6771 12.3309 13.7119 12.3647 13.8327C12.3907 13.9252 12.5677 13.9148 12.5339 14.0212C12.511 14.093 12.1514 14.0996 12.012 14.0791C11.9265 14.0666 11.7413 14.0163 11.7671 13.8037C11.793 13.5911 11.8702 13.5584 11.9669 13.5202C12.0628 13.4823 12.4821 13.4907 12.5436 13.5427C12.5749 13.5693 12.585 13.6278 12.5339 13.6491Z" fill="#FFE15A"/>
<path d="M12.0381 8.30338L12.1323 8.5858L12.4299 8.58815C12.4685 8.58848 12.4845 8.63765 12.4535 8.66052L12.214 8.83738L12.3038 9.12121C12.3154 9.15791 12.2736 9.18833 12.2423 9.16593L12.0001 8.99287L11.7579 9.16598C11.7265 9.18838 11.6847 9.15801 11.6963 9.12126L11.7862 8.83743L11.5467 8.66057C11.5157 8.63765 11.5317 8.58848 11.5702 8.58819L11.8679 8.58585L11.962 8.30343C11.9742 8.26687 12.0259 8.26687 12.0381 8.30338Z" fill="#73AF00"/>
<path d="M12.0381 14.906L12.1323 15.1884L12.4299 15.1907C12.4685 15.1911 12.4845 15.2402 12.4535 15.2631L12.214 15.44L12.3038 15.7238C12.3154 15.7605 12.2736 15.7909 12.2423 15.7685L12.0001 15.5954L11.7579 15.7685C11.7265 15.7909 11.6847 15.7605 11.6963 15.7238L11.7862 15.44L11.5467 15.2631C11.5157 15.2402 11.5317 15.191 11.5702 15.1907L11.8679 15.1884L11.962 14.906C11.9742 14.8694 12.0259 14.8694 12.0381 14.906Z" fill="#73AF00"/>
<path d="M12.0381 8.30338L12.1323 8.5858L12.4299 8.58815C12.4685 8.58848 12.4845 8.63765 12.4535 8.66052L12.214 8.83738L12.3038 9.12121C12.3154 9.15791 12.2736 9.18833 12.2423 9.16593L12.0001 8.99287L11.7579 9.16598C11.7265 9.18838 11.6847 9.15801 11.6963 9.12126L11.7862 8.83743L11.5467 8.66057C11.5157 8.63765 11.5317 8.58848 11.5702 8.58819L11.8679 8.58585L11.962 8.30343C11.9742 8.26687 12.0259 8.26687 12.0381 8.30338Z" fill="#73AF00"/>
<path d="M12.0381 14.906L12.1323 15.1884L12.4299 15.1907C12.4685 15.1911 12.4845 15.2402 12.4535 15.2631L12.214 15.44L12.3038 15.7238C12.3154 15.7605 12.2736 15.7909 12.2423 15.7685L12.0001 15.5954L11.7579 15.7685C11.7265 15.7909 11.6847 15.7605 11.6963 15.7238L11.7862 15.44L11.5467 15.2631C11.5157 15.2402 11.5317 15.191 11.5702 15.1907L11.8679 15.1884L11.962 14.906C11.9742 14.8694 12.0259 14.8694 12.0381 14.906Z" fill="#73AF00"/>
<path d="M9.73758 8.98098L9.82008 9.26701L9.57614 9.43763C9.54455 9.45971 9.55927 9.5093 9.5978 9.51057L9.89532 9.52051L9.98227 9.80523C9.99357 9.84212 10.0452 9.84338 10.0583 9.80719L10.1597 9.5273L10.4574 9.53265C10.4959 9.5333 10.5132 9.4846 10.4828 9.46093L10.2479 9.27802L10.3448 8.99649C10.3574 8.96007 10.3163 8.92857 10.2844 8.95018L10.0379 9.11705L9.80025 8.93785C9.76946 8.9146 9.72685 8.9439 9.73758 8.98098Z" fill="#73AF00"/>
<path d="M13.4805 14.4199L13.563 14.706L13.319 14.8766C13.2874 14.8987 13.3021 14.9483 13.3407 14.9495L13.6382 14.9595L13.7251 15.2442C13.7364 15.2811 13.7881 15.2824 13.8012 15.2462L13.9026 14.9663L14.2003 14.9716C14.2388 14.9723 14.256 14.9236 14.2256 14.8999L13.9907 14.717L14.0878 14.4356C14.1003 14.3991 14.0593 14.3676 14.0273 14.3892L13.7808 14.5561L13.5432 14.3769C13.5124 14.3536 13.4698 14.383 13.4805 14.4199Z" fill="#73AF00"/>
<path d="M8.33841 10.8764L8.57606 11.0556L8.48344 11.3385C8.47144 11.3751 8.51297 11.406 8.54456 11.3839L8.7885 11.2132L9.02897 11.3887C9.0601 11.4114 9.10228 11.3815 9.09099 11.3446L9.00403 11.0599L9.24525 10.8855C9.27647 10.8629 9.26095 10.8136 9.22242 10.8129L8.92477 10.8076L8.83341 10.5242C8.82155 10.4876 8.76989 10.4871 8.75733 10.5235L8.66035 10.8049L8.36269 10.8042C8.32411 10.8041 8.30766 10.8532 8.33841 10.8764Z" fill="#73AF00"/>
<path d="M14.597 12.9794L14.8346 13.1586L14.742 13.4415C14.73 13.4781 14.7715 13.509 14.8031 13.4869L15.0471 13.3162L15.2875 13.4917C15.3187 13.5144 15.3608 13.4845 15.3495 13.4476L15.2626 13.163L15.5038 12.9885C15.535 12.9659 15.5195 12.9166 15.481 12.9159L15.1833 12.9106L15.092 12.6273C15.0801 12.5906 15.0285 12.5901 15.0159 12.6265L14.9189 12.9079L14.6213 12.9073C14.5827 12.9071 14.5662 12.9561 14.597 12.9794Z" fill="#73AF00"/>
<path d="M14.1053 8.981L14.0228 9.26703L14.2667 9.43765C14.2983 9.45973 14.2836 9.50932 14.2451 9.51059L13.9476 9.52053L13.8606 9.80525C13.8493 9.84214 13.7977 9.8434 13.7845 9.80722L13.6831 9.52732L13.3855 9.53267C13.347 9.53332 13.3297 9.48462 13.3601 9.46095L13.595 9.27804L13.498 8.99661C13.4854 8.96018 13.5265 8.92868 13.5584 8.95029L13.8049 9.11717L14.0426 8.93797C14.0734 8.91462 14.116 8.94392 14.1053 8.981Z" fill="#73AF00"/>
<path d="M10.3624 14.4199L10.2799 14.706L10.5238 14.8766C10.5554 14.8987 10.5407 14.9483 10.5022 14.9495L10.2046 14.9595L10.1177 15.2442C10.1064 15.2811 10.0547 15.2824 10.0416 15.2462L9.94022 14.9663L9.64256 14.9716C9.60403 14.9723 9.58678 14.9236 9.6172 14.8999L9.85209 14.717L9.75506 14.4356C9.7425 14.3991 9.78356 14.3676 9.81548 14.3892L10.062 14.5561L10.2997 14.3769C10.3305 14.3536 10.3731 14.383 10.3624 14.4199Z" fill="#73AF00"/>
<path d="M15.5045 10.8764L15.2668 11.0556L15.3594 11.3385C15.3714 11.3751 15.3299 11.406 15.2983 11.3839L15.0544 11.2132L14.8139 11.3887C14.7828 11.4114 14.7406 11.3815 14.7519 11.3446L14.8388 11.0599L14.5976 10.8855C14.5664 10.8629 14.5819 10.8136 14.6205 10.8129L14.9181 10.8076L15.0095 10.5242C15.0213 10.4876 15.073 10.4871 15.0855 10.5235L15.1825 10.8049L15.4802 10.8042C15.5188 10.8041 15.5353 10.8532 15.5045 10.8764Z" fill="#73AF00"/>
<path d="M9.24586 12.9794L9.00821 13.1586L9.10083 13.4415C9.11283 13.4781 9.0713 13.509 9.03971 13.4869L8.79577 13.3162L8.5553 13.4917C8.52417 13.5144 8.48199 13.4845 8.49328 13.4476L8.58024 13.163L8.33902 12.9885C8.3078 12.9659 8.32331 12.9166 8.36185 12.9159L8.6595 12.9106L8.75086 12.6273C8.76272 12.5906 8.81438 12.5901 8.82694 12.6265L8.92392 12.9079L9.22158 12.9073C9.26021 12.9071 9.27666 12.9561 9.24586 12.9794Z" fill="#73AF00"/>
</svg>
