<svg xmlns="http://www.w3.org/2000/svg" width="24" height="24" viewBox="0 0 24 24" fill="none"><rect width="24" height="24" fill="none"/>
<path d="M0 18.0646C0 19.0573 0.804703 19.862 1.79742 19.862H22.2026C23.1952 19.862 24 19.0573 24 18.0646V14.6207H0V18.0646Z" fill="#73AF00"/>
<path d="M22.2026 4.13794H1.79742C0.804703 4.13794 0 4.94264 0 5.93536V9.37931H24V5.93536C24 4.94264 23.1953 4.13794 22.2026 4.13794Z" fill="#464655"/>
<path d="M24 9.37921H0V14.6203H24V9.37921Z" fill="#FF4B55"/>
<path d="M15.2149 8.88506C14.569 7.77942 13.3729 7.03448 12 7.03448C10.6271 7.03448 9.43097 7.77942 8.78513 8.88506H15.2149Z" fill="#FF4B55"/>
<path d="M12.2138 5.27582C12.2138 5.4615 12 6.62067 12 6.62067C12 6.62067 11.7862 5.46154 11.7862 5.27582C11.7862 5.09015 11.8819 4.93964 12 4.93964C12.1181 4.93964 12.2138 5.09011 12.2138 5.27582Z" fill="#FF4B55"/>
<path d="M16.0189 7.02908C15.8876 7.16037 14.9168 7.82886 14.9168 7.82886C14.9168 7.82886 15.5853 6.85803 15.7166 6.72678C15.8479 6.59548 16.0221 6.55672 16.1055 6.64025C16.189 6.72364 16.1502 6.89783 16.0189 7.02908Z" fill="#FF4B55"/>
<path d="M8.28342 6.72678C8.41472 6.85807 9.08321 7.82885 9.08321 7.82885C9.08321 7.82885 8.11238 7.16037 7.98113 7.02907C7.84983 6.89777 7.81107 6.72363 7.8946 6.64015C7.97799 6.55667 8.15213 6.59543 8.28342 6.72678Z" fill="#FF4B55"/>
<path d="M10.1043 5.61042C10.1754 5.78198 10.4214 6.93473 10.4214 6.93473C10.4214 6.93473 9.78033 5.94562 9.70931 5.7741C9.6383 5.60259 9.66909 5.4269 9.77817 5.38167C9.8872 5.33643 10.0332 5.43885 10.1043 5.61042Z" fill="#FF4B55"/>
<path d="M14.2907 5.77401C14.2196 5.94557 13.5786 6.93463 13.5786 6.93463C13.5786 6.93463 13.8246 5.78193 13.8957 5.61032C13.9667 5.43876 14.1128 5.33634 14.2218 5.38152C14.3309 5.42671 14.3618 5.60245 14.2907 5.77401Z" fill="#FF4B55"/>
<path d="M11.1222 5.34252C11.1592 5.52449 11.18 6.70302 11.18 6.70302C11.18 6.70302 10.7401 5.60952 10.7032 5.4275C10.6662 5.24553 10.7302 5.07899 10.8458 5.0555C10.9616 5.03202 11.0854 5.1605 11.1222 5.34252Z" fill="#FF4B55"/>
<path d="M15.2 6.30438C15.0974 6.45916 14.2788 7.30727 14.2788 7.30727C14.2788 7.30727 14.741 6.22296 14.8435 6.06818C14.9461 5.9134 15.109 5.84079 15.2075 5.90604C15.3059 5.97129 15.3025 6.1496 15.2 6.30438Z" fill="#FF4B55"/>
<path d="M7.55869 7.54571C7.71347 7.64828 8.56158 8.46686 8.56158 8.46686C8.56158 8.46686 7.47726 8.00471 7.32248 7.90215C7.1677 7.79959 7.09509 7.63665 7.16034 7.53821C7.22559 7.43982 7.40395 7.44315 7.55869 7.54571Z" fill="#FF4B55"/>
<path d="M9.12135 6.08965C9.22513 6.24364 9.69538 7.32448 9.69538 7.32448C9.69538 7.32448 8.87048 6.48256 8.76674 6.32858C8.66296 6.17459 8.65827 5.99623 8.75624 5.93028C8.85412 5.86433 9.01762 5.93567 9.12135 6.08965Z" fill="#FF4B55"/>
<path d="M16.656 7.86702C16.502 7.9708 15.4212 8.44105 15.4212 8.44105C15.4212 8.44105 16.2631 7.61614 16.4171 7.51241C16.5711 7.40863 16.7494 7.40394 16.8154 7.50191C16.8814 7.59983 16.81 7.76333 16.656 7.86702Z" fill="#FF4B55"/>
<path d="M13.2568 5.41785C13.2213 5.60006 12.7896 6.69689 12.7896 6.69689C12.7896 6.69689 12.8016 5.51826 12.8372 5.33601C12.8728 5.15381 12.9955 5.02434 13.1114 5.04693C13.2273 5.06953 13.2923 5.2356 13.2568 5.41785Z" fill="#FF4B55"/>
<path d="M13.3842 5.44954C13.3302 5.6272 13.1981 6.79851 13.1981 6.79851C13.1981 6.79851 13.7393 5.75146 13.7933 5.57371C13.8472 5.39606 13.7993 5.22421 13.6864 5.1899C13.5734 5.15559 13.4381 5.27189 13.3842 5.44954Z" fill="#FF4B55"/>
<path d="M9.23385 6.02202C9.32137 6.1858 10.0562 7.10741 10.0562 7.10741C10.0562 7.10741 9.69853 5.98428 9.61101 5.8205C9.52349 5.65672 9.36815 5.56906 9.26399 5.6247C9.15979 5.68039 9.14634 5.85819 9.23385 6.02202Z" fill="#FF4B55"/>
<path d="M16.7236 7.97953C16.5599 8.06705 15.6382 8.80186 15.6382 8.80186C15.6382 8.80186 16.7614 8.4442 16.9252 8.35669C17.0889 8.26917 17.1766 8.11383 17.1209 8.00967C17.0654 7.90552 16.8875 7.89206 16.7236 7.97953Z" fill="#FF4B55"/>
<path d="M15.3055 6.38242C15.1877 6.52595 14.6174 7.55748 14.6174 7.55748C14.6174 7.55748 15.5182 6.79726 15.636 6.65369C15.7539 6.51015 15.7754 6.33311 15.6841 6.25815C15.5929 6.18329 15.4234 6.23889 15.3055 6.38242Z" fill="#FF4B55"/>
<path d="M7.63678 7.44013C7.78031 7.55798 8.81184 8.12821 8.81184 8.12821C8.81184 8.12821 8.05163 7.22741 7.90805 7.10962C7.76447 6.99182 7.58747 6.97026 7.51252 7.06152C7.43761 7.15284 7.4932 7.32234 7.63678 7.44013Z" fill="#FF4B55"/>
<path d="M11.2521 5.32303C11.2702 5.50785 11.5964 6.64049 11.5964 6.64049C11.5964 6.64049 11.6958 5.46599 11.6776 5.28117C11.6595 5.09634 11.5494 4.95595 11.432 4.96753C11.3145 4.97906 11.2339 5.1382 11.2521 5.32303Z" fill="#FF4B55"/>
<path d="M12.331 5.28165C12.3125 5.46643 12.41 6.64107 12.41 6.64107C12.41 6.64107 12.738 5.50894 12.7564 5.32416C12.7749 5.13938 12.6946 4.9801 12.5771 4.96834C12.4596 4.95662 12.3495 5.09691 12.331 5.28165Z" fill="#FF4B55"/>
<path d="M8.37043 6.64801C8.48804 6.79168 9.38757 7.55335 9.38757 7.55335C9.38757 7.55335 8.81893 6.52088 8.70136 6.37721C8.58375 6.23354 8.41435 6.17766 8.32299 6.25238C8.23158 6.32715 8.25282 6.50429 8.37043 6.64801Z" fill="#FF4B55"/>
<path d="M16.0976 7.11603C15.9539 7.23364 15.1923 8.13317 15.1923 8.13317C15.1923 8.13317 16.2247 7.56453 16.3684 7.44696C16.5121 7.3294 16.568 7.15995 16.4932 7.06859C16.4185 6.97723 16.2414 6.99842 16.0976 7.11603Z" fill="#FF4B55"/>
<path d="M14.3967 5.82432C14.3089 5.98796 13.9495 7.11047 13.9495 7.11047C13.9495 7.11047 14.6857 6.18999 14.7735 6.02639C14.8613 5.86275 14.8481 5.68486 14.7441 5.62903C14.64 5.57321 14.4845 5.66063 14.3967 5.82432Z" fill="#FF4B55"/>
<path d="M7.0786 8.34897C7.24224 8.43676 8.36475 8.79615 8.36475 8.79615C8.36475 8.79615 7.44427 8.05993 7.28067 7.97214C7.11703 7.88434 6.93914 7.89761 6.88331 8.00167C6.82753 8.10568 6.91495 8.26117 7.0786 8.34897Z" fill="#FF4B55"/>
<path d="M10.2148 5.57091C10.2684 5.74871 10.8081 6.7966 10.8081 6.7966C10.8081 6.7966 10.6779 5.6251 10.6242 5.4474C10.5705 5.2696 10.4354 5.15321 10.3223 5.18734C10.2093 5.22141 10.1611 5.39316 10.2148 5.57091Z" fill="#FF4B55"/>
</svg>
