<svg xmlns="http://www.w3.org/2000/svg" width="24" height="24" viewBox="0 0 24 24" fill="none"><rect width="24" height="24" fill="none"/>
<path d="M22.2026 4.13794H1.79742C0.804703 4.13794 0 4.94264 0 5.93536V9.37931H24V5.93536C24 4.94264 23.1953 4.13794 22.2026 4.13794Z" fill="#FF4B55"/>
<path d="M0 18.0647C0 19.0573 0.804703 19.8621 1.79742 19.8621H22.2026C23.1952 19.8621 24 19.0574 24 18.0647V14.6207H0V18.0647Z" fill="#464655"/>
<path d="M24 9.37923H0V14.6203H24V9.37923Z" fill="#F5F5F5"/>
<path d="M7.03265 10.4678L7.37765 11.5023L8.46805 11.5107C8.60919 11.5118 8.66774 11.6919 8.55416 11.7758L7.67699 12.4237L8.00591 13.4633C8.04848 13.5979 7.89524 13.7092 7.7804 13.6272L6.89329 12.9931L6.00618 13.6272C5.89129 13.7092 5.7381 13.5979 5.78066 13.4633L6.10958 12.4237L5.23241 11.7758C5.11884 11.692 5.17738 11.5118 5.31852 11.5107L6.40898 11.5023L6.75398 10.4678C6.79855 10.3339 6.98798 10.3339 7.03265 10.4678Z" fill="#73AF00"/>
<path d="M17.2461 10.4678L17.5911 11.5022L18.6815 11.5107C18.8227 11.5118 18.8812 11.6919 18.7676 11.7758L17.8905 12.4236L18.2194 13.4633C18.2619 13.5978 18.1087 13.7092 17.9939 13.6271L17.1068 12.9931L16.2197 13.6271C16.1048 13.7092 15.9516 13.5978 15.9941 13.4633L16.3231 12.4236L15.4459 11.7758C15.3323 11.692 15.3909 11.5118 15.532 11.5107L16.6224 11.5022L16.9674 10.4678C17.012 10.3339 17.2014 10.3339 17.2461 10.4678Z" fill="#73AF00"/>
</svg>
