<svg xmlns="http://www.w3.org/2000/svg" width="24" height="24" viewBox="0 0 24 24" fill="none"><rect width="24" height="24" fill="none"/>
<path d="M22.2026 19.8621H1.79742C0.804703 19.8621 0 19.0574 0 18.0646V5.93536C0 4.94269 0.804703 4.13794 1.79742 4.13794H22.2026C23.1952 4.13794 24 4.94264 24 5.93536V18.0647C24 19.0574 23.1953 19.8621 22.2026 19.8621Z" fill="#73AF00"/>
<path d="M4.96594 9.48165C5.00672 9.74307 5.16473 9.82511 5.30208 9.81437C5.46408 9.80181 5.60616 9.65368 5.60616 9.49721V8.60012C5.60616 8.55521 5.64272 8.51856 5.68772 8.51856C5.73272 8.51856 5.76928 8.55517 5.76928 8.60012V9.50106C5.76928 9.60939 5.82281 9.7104 5.91258 9.77106C5.96737 9.80818 6.03117 9.82726 6.09544 9.82726C6.13636 9.82726 6.17747 9.81943 6.21665 9.80382L6.29817 9.77125C6.30567 10.5243 6.25987 11.1861 6.25903 11.1983C6.25266 11.2881 6.32025 11.3662 6.41011 11.3725C6.41409 11.3729 6.41798 11.373 6.42192 11.373C6.50676 11.373 6.57834 11.3074 6.58448 11.2215C6.58828 11.1685 6.63853 10.4437 6.62344 9.64112L6.67275 9.62143C6.71597 9.60423 6.76453 9.60629 6.80611 9.62701C6.98578 9.71654 7.20197 9.68162 7.34395 9.53968L7.37334 9.51034C7.50516 9.37829 7.55048 9.18648 7.49147 9.00953L7.35258 8.59286C7.42767 8.61545 7.51017 8.58221 7.54645 8.50989C7.58676 8.42931 7.55409 8.33134 7.47351 8.29103L7.14731 8.1279C7.0883 8.09828 7.01747 8.10737 6.96745 8.1505C6.91758 8.19386 6.89873 8.26281 6.91959 8.32539L7.18205 9.11279C7.20169 9.17171 7.18659 9.23575 7.14267 9.27971L7.11333 9.30906C7.07081 9.35157 7.00603 9.36193 6.95189 9.33517C6.84619 9.28234 6.72581 9.27245 6.61289 9.30123C6.58997 8.77768 6.53358 8.25634 6.41348 7.89592C6.38503 7.81051 6.29283 7.7642 6.20709 7.79284C6.12164 7.8212 6.07547 7.91354 6.10397 7.99914C6.22148 8.35159 6.27267 8.88873 6.29086 9.42282L6.09558 9.50092V8.59998C6.09558 8.37507 5.91262 8.19217 5.68776 8.19217C5.46291 8.19217 5.27995 8.37507 5.27995 8.59998V9.38959L5.11355 8.56764C5.09583 8.47923 5.00986 8.42157 4.92136 8.44004C4.833 8.45804 4.77591 8.54406 4.79386 8.63232L4.96594 9.48165Z" fill="#F5F5F5"/>
<path d="M5.28001 8.11079C5.37005 8.11079 5.44309 8.0378 5.44309 7.94766V7.78459C5.44309 7.69444 5.37005 7.62146 5.28001 7.62146C5.18991 7.62146 5.11688 7.6944 5.11688 7.78459V7.94766C5.11688 8.0378 5.18991 8.11079 5.28001 8.11079Z" fill="#F5F5F5"/>
<path d="M6.91111 7.94766H7.07424C7.16433 7.94766 7.23736 7.87473 7.23736 7.78459C7.23736 7.69444 7.16433 7.62146 7.07424 7.62146H6.91111C6.82102 7.62146 6.74799 7.6944 6.74799 7.78459C6.74799 7.87473 6.82102 7.94766 6.91111 7.94766Z" fill="#F5F5F5"/>
<path d="M5.8485 10.0914L5.03292 10.5808C4.95562 10.6271 4.93064 10.7273 4.977 10.8046C5.00756 10.8556 5.06156 10.8838 5.11701 10.8838C5.14561 10.8838 5.17453 10.8763 5.20083 10.8605L6.0164 10.3711C6.0937 10.3248 6.11868 10.2246 6.07233 10.1473C6.02592 10.07 5.92584 10.0451 5.8485 10.0914Z" fill="#F5F5F5"/>
<path d="M8.04754 10.3799L8.05138 10.3773C8.06507 10.4325 8.08855 10.4858 8.12666 10.5306C8.19294 10.6087 8.29232 10.6479 8.40463 10.6386C8.56396 10.627 8.67224 10.5542 8.74396 10.4602C8.75488 10.4677 8.76636 10.4745 8.77836 10.4806C8.86654 10.525 8.96849 10.5217 9.06557 10.4713C9.31208 10.3444 9.36519 10.0507 9.35769 9.89709C9.35329 9.80756 9.27716 9.74438 9.18786 9.74259C9.09829 9.74644 9.02854 9.82242 9.03177 9.91195C9.03182 9.91402 9.03547 10.1076 8.91716 10.1794C8.89785 10.1525 8.87497 10.092 8.86635 10.0419C8.85257 9.95799 8.77546 9.89953 8.69249 9.90624C8.60793 9.91289 8.54258 9.98395 8.5423 10.0688C8.54225 10.0926 8.53696 10.3019 8.37538 10.3194C8.35658 10.2938 8.35625 10.1858 8.37477 10.1059C8.39038 10.0404 8.36413 9.97209 8.30877 9.93389C8.25327 9.8955 8.1801 9.8955 8.12436 9.93328L8.03333 9.9952C7.99011 9.04927 7.8905 7.947 7.88929 7.93289C7.88118 7.84336 7.80233 7.77661 7.7121 7.78524C7.62238 7.79334 7.55624 7.8727 7.56439 7.96256C7.5658 7.97766 7.68102 9.25299 7.7165 10.2269C7.70816 10.2348 7.69958 10.2435 7.69143 10.2511C7.62693 10.0885 7.49905 9.98602 7.33438 9.97045C7.10197 9.94992 6.85016 10.1081 6.75988 10.334C6.68207 10.5283 6.73105 10.7193 6.88457 10.8204C6.99496 10.8932 7.16155 10.9162 7.37104 10.8428C7.31989 11.0224 7.22675 11.2047 7.10572 11.3456C6.9973 11.472 6.81627 11.6177 6.58461 11.6112C6.44975 11.6059 6.34616 11.5618 6.26783 11.4761C6.07897 11.2698 6.09524 10.8965 6.09538 10.8925C6.10007 10.8026 6.0313 10.726 5.94149 10.7211C5.85107 10.7115 5.77457 10.785 5.7696 10.875C5.76847 10.8956 5.7448 11.3863 6.02572 11.6948C6.164 11.847 6.34771 11.9284 6.57177 11.9371C6.58269 11.9376 6.59361 11.9378 6.60458 11.9378C6.87744 11.9378 7.14219 11.8039 7.35308 11.5582C7.55146 11.3272 7.68618 11.0134 7.72658 10.7221C7.72607 11.2801 7.38979 11.9094 6.94396 12.1867C6.75463 12.3043 6.45946 12.4103 6.12697 12.2464C5.7171 12.0441 5.76594 11.5756 5.7681 11.5565C5.7793 11.4671 5.71588 11.3856 5.62649 11.3745C5.53752 11.3636 5.45549 11.4265 5.44443 11.5161C5.44077 11.5452 5.36239 12.2329 5.98264 12.5389C6.14197 12.6175 6.30857 12.6566 6.47647 12.6566C6.69214 12.6566 6.90983 12.5921 7.11618 12.4637C7.65899 12.1263 8.05297 11.3933 8.05297 10.7207C8.05293 10.6155 8.05091 10.5007 8.04754 10.3799ZM7.064 10.548C7.03485 10.5287 7.05763 10.4671 7.06255 10.4549C7.09691 10.3689 7.20435 10.2945 7.29018 10.2945C7.29458 10.2945 7.29904 10.2946 7.3033 10.2951C7.32416 10.297 7.37952 10.3023 7.40333 10.4254C7.40586 10.4385 7.40802 10.4519 7.40971 10.4655C7.22793 10.5723 7.10605 10.5757 7.064 10.548Z" fill="#F5F5F5"/>
<path d="M5.36236 12.0483C5.28506 12.0029 5.18526 12.0288 5.13933 12.1061C5.13183 12.1187 5.12189 12.1324 5.11176 12.1448C5.10998 12.1407 5.10825 12.1362 5.10647 12.1314C5.03845 11.95 5.08687 11.6704 5.11134 11.578C5.13436 11.491 5.08256 11.4018 4.99565 11.3785C4.90884 11.3562 4.81955 11.4069 4.7962 11.4939C4.78434 11.538 4.68408 11.934 4.80098 12.2459C4.87584 12.4454 4.99078 12.4957 5.07408 12.5025C5.08148 12.5031 5.0888 12.5035 5.09606 12.5035C5.27166 12.5035 5.38851 12.3265 5.42105 12.2704C5.46609 12.1928 5.4397 12.0939 5.36236 12.0483Z" fill="#F5F5F5"/>
<path d="M8.37242 9.08944C8.40772 9.08944 8.44325 9.0781 8.47306 9.05457L9.29539 8.40896C9.30674 8.40005 9.314 8.38838 9.3223 8.37741C9.44071 8.30598 9.52086 8.17735 9.52086 8.02927C9.52086 7.80437 9.33791 7.62146 9.11305 7.62146C8.88819 7.62146 8.70524 7.80432 8.70524 8.02927C8.70524 8.15513 8.76374 8.26637 8.85355 8.34123L8.2715 8.79816C8.20067 8.85376 8.18835 8.95632 8.24394 9.02705C8.27619 9.06807 8.3241 9.08944 8.37242 9.08944ZM9.11314 7.94766C9.15814 7.94766 9.19471 7.98427 9.19471 8.02923C9.19471 8.07418 9.15814 8.11079 9.11314 8.11079C9.06814 8.11079 9.03158 8.07418 9.03158 8.02923C9.03158 7.98427 9.06814 7.94766 9.11314 7.94766Z" fill="#F5F5F5"/>
<path d="M8.92006 8.93481C8.83414 8.90617 8.74212 8.95248 8.71367 9.03789C8.69623 9.0901 8.61734 9.35921 8.77723 9.51892C8.83925 9.58103 8.92081 9.6121 9.02094 9.61196C9.08787 9.61196 9.16301 9.59828 9.24626 9.57039C9.33172 9.54203 9.37789 9.44968 9.34939 9.36409C9.32089 9.27868 9.22869 9.23218 9.143 9.26101C9.05187 9.29129 9.01334 9.28637 9.00983 9.28951C9.00022 9.26532 9.00655 9.19248 9.02328 9.1404C9.0515 9.05523 9.00533 8.96317 8.92006 8.93481Z" fill="#F5F5F5"/>
<path d="M10.7869 8.26049C10.8022 8.26494 10.8176 8.267 10.8327 8.267C10.9033 8.267 10.9684 8.22083 10.9892 8.14958L11.0844 7.82338C11.1096 7.73689 11.0599 7.64628 10.9735 7.62107C10.8868 7.59603 10.7965 7.64544 10.7712 7.73193L10.676 8.05813C10.6508 8.14471 10.7005 8.23532 10.7869 8.26049Z" fill="#F5F5F5"/>
<path d="M9.83616 8.24138C9.86208 8.25652 9.89044 8.26369 9.91833 8.26369C9.9744 8.26369 10.029 8.23486 10.0593 8.18297C10.1048 8.10525 10.0786 8.00517 10.0008 7.95985C9.96802 7.94072 9.97248 7.88672 9.97369 7.87603C9.97857 7.83319 10.0041 7.78092 10.0486 7.76705C10.1346 7.74033 10.1826 7.64888 10.1559 7.56286C10.1289 7.47671 10.0377 7.42903 9.95152 7.45547C9.78891 7.5061 9.67037 7.65666 9.64951 7.83891C9.63019 8.0085 9.70172 8.16272 9.83616 8.24138Z" fill="#F5F5F5"/>
<path d="M8.54221 10.8837C8.45212 10.8837 8.37909 10.9567 8.37909 11.0469C8.37909 11.1265 8.43614 11.1928 8.5116 11.2071C8.52018 11.2196 8.54217 11.2629 8.54217 11.3731C8.54217 11.4632 8.6152 11.5362 8.70529 11.5362C8.79539 11.5362 8.86842 11.4632 8.86842 11.3731C8.86846 10.8893 8.55553 10.8837 8.54221 10.8837Z" fill="#F5F5F5"/>
<path d="M11.3095 10.2083C11.33 10.2117 11.3504 10.2133 11.3709 10.2133C11.499 10.2133 11.6285 10.1486 11.7568 10.0204C11.8205 9.95668 11.8205 9.85347 11.7568 9.78976C11.6931 9.72606 11.5898 9.72606 11.5261 9.78976C11.4286 9.8874 11.3761 9.88947 11.3626 9.88642C11.3315 9.88197 11.3033 9.84132 11.297 9.83022C11.2561 9.75086 11.1591 9.71922 11.0792 9.75915C10.9986 9.79947 10.9659 9.89743 11.0062 9.97801C11.0163 9.99822 11.1105 10.176 11.3095 10.2083Z" fill="#F5F5F5"/>
<path d="M14.0821 9.062C14.0811 9.05947 14.0801 9.05703 14.0793 9.05483C14.0504 8.97012 13.958 8.92405 13.8735 8.95287C13.7879 8.98123 13.7417 9.07358 13.7702 9.15917C13.7829 9.19737 13.8556 9.38919 14.0356 9.41337C14.0476 9.41497 14.0596 9.41577 14.0715 9.41577C14.1845 9.41577 14.2905 9.34264 14.387 9.19798C14.4369 9.12312 14.4166 9.02183 14.3417 8.97181C14.2666 8.92194 14.1653 8.942 14.1155 9.01709C14.1026 9.03636 14.0915 9.05103 14.0821 9.062Z" fill="#F5F5F5"/>
<path d="M13.7619 12.0255C13.7619 11.3299 13.7313 10.6774 13.6889 10.1056C13.9205 10.5073 14.1288 10.9132 14.2616 11.2673C14.2862 11.3327 14.3483 11.373 14.4143 11.373C14.4333 11.373 14.4527 11.3697 14.4716 11.3627C14.556 11.331 14.5987 11.237 14.5671 11.1526C14.3606 10.6022 13.9895 9.94669 13.6238 9.36478C13.5346 8.48611 13.4348 7.92839 13.433 7.91845C13.4169 7.82977 13.3321 7.76986 13.2434 7.78716C13.1547 7.80324 13.0959 7.88813 13.112 7.97672C13.1133 7.9838 13.1647 8.2711 13.2261 8.75461C13.1008 8.56866 12.9844 8.40089 12.8867 8.2628L12.8946 8.26533C12.9805 8.29397 13.0725 8.24766 13.101 8.1623C13.1295 8.07675 13.0833 7.98436 12.9979 7.956L12.5085 7.79288C12.4406 7.76996 12.3661 7.79419 12.3246 7.85217C12.3135 7.86764 12.3059 7.88461 12.3008 7.90219C12.2031 7.83 12.0779 7.77127 11.9603 7.82053C11.8892 7.85002 11.8044 7.92422 11.8044 8.11074C11.8044 8.25394 11.8591 8.40877 11.917 8.57283C12.013 8.84489 12.0732 9.04496 11.9715 9.14039C11.9153 9.19308 11.8591 9.213 11.8043 9.19917C11.7037 9.17367 11.6042 9.03971 11.5378 8.84077C11.5349 8.83214 11.5289 8.82586 11.5248 8.81813C11.5591 8.56547 11.5442 8.26106 11.475 7.91564C11.4574 7.82724 11.3717 7.76972 11.2831 7.78772C11.1947 7.80539 11.1375 7.89127 11.1551 7.97967C11.2616 8.51231 11.2297 8.94689 11.0697 9.14203C11.0078 9.21755 10.9303 9.25256 10.8257 9.25256C10.7927 9.25256 10.7702 9.24206 10.7477 9.21624C10.619 9.06792 10.6195 8.58942 10.6611 8.29678C10.6677 8.25014 10.6537 8.20266 10.6227 8.16694C10.5917 8.13127 10.5468 8.11074 10.4995 8.11074C10.2189 8.11074 10.1124 8.42991 10.0186 8.71158C9.9774 8.83538 9.90062 9.06553 9.84709 9.08944C9.74837 9.08944 9.68453 8.79952 9.68396 8.59992C9.68368 8.50992 9.61079 8.43713 9.52084 8.43713C9.52084 8.43713 9.5207 8.43713 9.52056 8.43713C9.43056 8.43713 9.35767 8.51011 9.35767 8.60011C9.35767 8.97633 9.48582 9.41569 9.84704 9.41569C10.116 9.41569 10.2249 9.12263 10.3162 8.85019C10.332 9.0668 10.3809 9.29124 10.5012 9.42985C10.5857 9.52735 10.6979 9.57877 10.8257 9.57877C11.0271 9.57877 11.1986 9.49927 11.3219 9.34889C11.3443 9.3217 11.3635 9.29044 11.3825 9.25889C11.4772 9.39356 11.5934 9.48235 11.7243 9.51539C11.7627 9.5251 11.8013 9.53002 11.8395 9.53002C11.9654 9.53002 12.0885 9.47808 12.1947 9.37819C12.2168 9.35747 12.2324 9.33474 12.2492 9.31238C12.2891 9.32377 12.3295 9.33052 12.3697 9.33052C12.5019 9.33052 12.6291 9.27731 12.708 9.22664C12.7835 9.17822 12.8054 9.07819 12.7574 9.00235C12.7094 8.92669 12.6089 8.90405 12.5328 8.95153C12.5314 8.95219 12.4225 9.01481 12.3482 9.00014C12.3484 8.82131 12.2837 8.63142 12.2246 8.46413C12.191 8.36883 12.1566 8.27124 12.1403 8.19145C12.1537 8.2028 12.1668 8.21456 12.1786 8.226C12.2422 8.2897 12.3455 8.2897 12.4092 8.226C12.4197 8.21545 12.4258 8.20266 12.4329 8.19033C12.6019 8.42325 12.9497 8.91272 13.3074 9.47691C13.3757 10.1704 13.4356 11.0551 13.4356 12.0254C13.4356 12.1155 13.5086 12.1885 13.5987 12.1885C13.6889 12.1886 13.7619 12.1157 13.7619 12.0255Z" fill="#F5F5F5"/>
<path d="M13.925 8.43699C13.925 8.52713 13.998 8.60011 14.0881 8.60011C14.1782 8.60011 14.2513 8.52713 14.2513 8.43699C14.2513 8.24503 14.1011 7.93491 14.0709 7.87468C14.0306 7.79424 13.9327 7.76175 13.8521 7.80174C13.7715 7.84205 13.7388 7.94002 13.7791 8.0206C13.838 8.1383 13.925 8.35191 13.925 8.43699Z" fill="#F5F5F5"/>
<path d="M13.1828 12.0434C13.1028 12.0026 13.0046 12.0349 12.9638 12.1152C12.9463 12.1494 12.9192 12.1876 12.8962 12.2121C12.889 12.1472 12.9063 12.0177 12.9392 11.9104C12.9611 11.8387 12.9313 11.7613 12.8672 11.7227C12.8032 11.6841 12.7208 11.6941 12.6679 11.7471L12.3417 12.0733C12.278 12.137 12.278 12.2402 12.3417 12.3039C12.4054 12.3676 12.5086 12.3676 12.5723 12.3039L12.5806 12.2956C12.5947 12.3611 12.6217 12.4209 12.6679 12.4671C12.729 12.5282 12.803 12.5606 12.8798 12.5606C12.8947 12.5606 12.9097 12.5593 12.9247 12.5569C13.1095 12.527 13.2245 12.3233 13.2553 12.2616C13.2955 12.1811 13.263 12.0838 13.1828 12.0434Z" fill="#F5F5F5"/>
<path d="M13.1196 10.7308H11.97C11.9802 10.6902 11.9907 10.6514 12.0014 10.6146C12.4599 10.5194 12.7323 10.3714 12.8125 10.1739C12.8402 10.1054 12.8691 9.96702 12.7511 9.80788C12.6447 9.66449 12.4946 9.60018 12.3387 9.63201C12.1069 9.67897 11.9005 9.92873 11.7522 10.3286C11.2917 10.4074 10.997 10.5727 10.8104 10.7359C10.7442 10.0674 10.4847 9.67035 10.4721 9.65146C10.4221 9.57641 10.3208 9.55616 10.246 9.60618C10.171 9.65619 10.1508 9.75735 10.2007 9.83235C10.2036 9.8368 10.4995 10.2893 10.4995 11.0468C10.4995 11.7913 9.90583 12.3517 9.52084 12.3517C9.3377 12.3517 9.2575 12.134 9.22229 11.9499C9.59926 11.6857 9.93189 11.38 10.0053 11.0863C10.1048 10.6888 9.97965 10.3959 9.89687 10.2021C9.89298 10.1931 9.8889 10.1836 9.88478 10.1737C9.88829 10.1769 9.89162 10.1802 9.89495 10.1834C9.95851 10.2471 10.0618 10.2471 10.1255 10.1834C10.1892 10.1197 10.1892 10.0164 10.1255 9.95277C10.0302 9.85733 9.84503 9.70743 9.6767 9.77783C9.60559 9.80732 9.52079 9.88152 9.52079 10.068C9.52079 10.1523 9.556 10.2346 9.59678 10.3302C9.67023 10.5021 9.76159 10.716 9.68879 11.0072C9.64572 11.1795 9.43412 11.3885 9.15489 11.5961C9.12494 11.5603 9.08172 11.5362 9.03147 11.5362H9.03118C8.94118 11.5363 8.86829 11.6092 8.86829 11.6992C8.86829 11.7285 8.86961 11.7599 8.87148 11.7921C8.5224 12.0182 8.12739 12.2274 7.82204 12.3663C7.74006 12.4036 7.70387 12.5002 7.74114 12.5823C7.76847 12.6423 7.82772 12.6778 7.88969 12.6778C7.91228 12.6778 7.93525 12.6733 7.95709 12.6632C8.04878 12.6216 8.48411 12.4187 8.93129 12.1416C9.01365 12.4212 9.18817 12.6779 9.52075 12.6779C9.91206 12.6779 10.356 12.3579 10.6122 11.8802C10.6431 11.9348 10.6787 11.9871 10.721 12.0359C11.1316 12.5094 11.9335 12.5148 11.9675 12.5148C12.0553 12.5148 12.1273 12.4453 12.1305 12.3576C12.1336 12.2698 12.0667 12.1952 11.9792 12.189C11.9778 12.1889 11.8479 12.1746 11.7756 12.0901C11.7319 12.0391 11.7145 11.9691 11.7222 11.8759C11.7389 11.6749 12.3873 11.5246 12.9587 11.5157C13.0268 11.5146 13.0871 11.4714 13.11 11.4073L13.2731 10.9485C13.2908 10.8987 13.2832 10.8431 13.2526 10.7999C13.2224 10.7565 13.1726 10.7308 13.1196 10.7308ZM12.4037 9.95183C12.4067 9.95123 12.4109 9.95024 12.4161 9.95024C12.4317 9.95024 12.4563 9.95788 12.4891 10.0022C12.4953 10.0105 12.5152 10.0388 12.5102 10.0513C12.4915 10.0974 12.3788 10.1737 12.1442 10.2429C12.2474 10.0415 12.3483 9.96299 12.4037 9.95183ZM11.4186 12.096C11.2529 12.0422 11.084 11.9568 10.9671 11.8216C10.8386 11.673 10.7912 11.485 10.8223 11.2472C10.827 11.2347 10.8377 11.2101 10.8563 11.178C11.086 11.157 11.6996 11.2476 11.7422 11.4232C11.5529 11.5199 11.4135 11.6557 11.3973 11.8488C11.3892 11.9457 11.3991 12.0277 11.4186 12.096Z" fill="#F5F5F5"/>
<path d="M14.8954 8.38539L14.7322 7.89601C14.7059 7.81736 14.6243 7.77034 14.5434 7.78815C14.462 7.80555 14.4069 7.88115 14.4152 7.96384C14.5277 9.08941 14.7406 11.2844 14.7406 11.5361C14.7406 11.7622 14.3386 12.2072 13.689 12.532C13.6084 12.5724 13.5757 12.6703 13.616 12.7509C13.6446 12.8081 13.7022 12.841 13.7621 12.841C13.7866 12.841 13.8115 12.8355 13.8349 12.8238C14.4283 12.5271 15.0669 11.9976 15.0669 11.5361C15.0669 11.2951 14.9002 9.56111 14.8047 8.58705C14.882 8.55405 14.9224 8.46667 14.8954 8.38539Z" fill="#F5F5F5"/>
<path d="M16.2564 9.85726C16.2878 9.88866 16.3295 9.90507 16.3718 9.90507C16.3994 9.90507 16.4272 9.89808 16.4524 9.88369C16.5162 9.84737 16.5479 9.77283 16.5298 9.70163C16.5006 9.58697 16.4909 9.44358 16.5063 9.38499C16.588 9.38752 16.6639 9.3294 16.6759 9.24512C16.6886 9.15591 16.6267 9.07323 16.5375 9.06052C16.4296 9.0459 16.335 9.07754 16.2688 9.15113C16.226 9.19894 16.2005 9.26026 16.1866 9.32621L15.9977 9.1373C15.934 9.0736 15.8308 9.0736 15.7671 9.1373C15.7034 9.20101 15.7034 9.30422 15.7671 9.36793L16.2564 9.85726Z" fill="#F5F5F5"/>
<path d="M16.6233 10.0274L16.0117 10.4657C15.9385 10.5181 15.9216 10.6201 15.9741 10.6934C16.0059 10.7378 16.056 10.7614 16.1069 10.7614C16.1398 10.7614 16.173 10.7515 16.2017 10.7308L16.8134 10.2924C16.8866 10.24 16.9035 10.1381 16.851 10.0648C16.7984 9.99149 16.6963 9.97443 16.6233 10.0274Z" fill="#F5F5F5"/>
<path d="M16.5691 10.6408C16.5178 10.7069 16.5252 10.7999 16.5834 10.8571C16.5904 10.8689 16.6222 10.9313 16.6165 11.0919C16.6133 11.182 16.6837 11.2576 16.7737 11.2607C16.7757 11.2609 16.7777 11.2609 16.7796 11.2609C16.8671 11.2609 16.9394 11.1916 16.9426 11.1037C16.9545 10.7708 16.8455 10.6491 16.7981 10.6122C16.7271 10.5567 16.6245 10.5698 16.5691 10.6408Z" fill="#F5F5F5"/>
<path d="M17.9926 11.842C18.0827 11.842 18.1558 11.769 18.1558 11.6788C18.1558 11.4382 18.1434 11.1695 18.1232 10.89C18.2849 11.155 18.4193 11.3994 18.5054 11.6003C18.5319 11.6623 18.5921 11.6992 18.6554 11.6992C18.6769 11.6992 18.6987 11.6951 18.7196 11.686C18.8024 11.6505 18.8407 11.5546 18.8052 11.4719C18.6559 11.1234 18.3768 10.6618 18.0589 10.1852C17.9949 9.58653 17.9113 8.99989 17.8464 8.57909C17.8809 8.58261 17.9168 8.57417 17.9482 8.55373C17.9998 8.52073 18.0239 8.46341 18.0204 8.40636C18.0246 8.42239 18.0291 8.43847 18.0385 8.45323C18.0396 8.45483 18.1444 8.62794 18.0979 8.85261C18.0796 8.94069 18.1364 9.02703 18.2246 9.04531C18.2358 9.04752 18.2469 9.04869 18.2578 9.04869C18.3335 9.04869 18.4014 8.99563 18.4174 8.91856C18.4911 8.56222 18.3209 8.28955 18.3137 8.27806C18.2653 8.20222 18.1644 8.17995 18.0884 8.22805C18.0367 8.261 18.0123 8.31838 18.0156 8.37556C18.0114 8.35944 18.0067 8.34322 17.9972 8.32845L17.7219 7.9003C17.6799 7.83495 17.5976 7.80852 17.5254 7.83659C17.453 7.86495 17.4106 7.94028 17.424 8.01673C17.4263 8.02958 17.551 8.74536 17.6615 9.60809C17.5364 9.43152 17.4114 9.25878 17.2901 9.09406C17.2704 8.84727 17.2506 8.61913 17.2335 8.43045C17.2425 8.42778 17.2514 8.42427 17.2601 8.41995C17.3406 8.37964 17.3734 8.28167 17.3331 8.20109L17.1699 7.87489C17.1347 7.80448 17.0544 7.76942 16.9787 7.79108C16.9032 7.81306 16.8539 7.88567 16.8617 7.96405C16.8812 8.15872 16.9014 8.3742 16.9213 8.60056C16.8181 8.46453 16.7226 8.34008 16.641 8.23466C16.6569 8.22097 16.6705 8.20395 16.6806 8.18384C16.7209 8.10327 16.6882 8.0053 16.6076 7.96498L16.2814 7.80186C16.213 7.76778 16.1299 7.78564 16.0816 7.84522C16.0335 7.9048 16.0332 7.98983 16.0811 8.04973C16.0899 8.0607 16.4916 8.56414 16.972 9.21392C17.0553 10.2916 17.1108 11.4127 17.0324 11.6478C17.0181 11.6908 16.9931 11.7414 16.9696 11.7432C16.871 11.7569 16.6357 11.5365 16.5175 11.3002C16.4494 11.1642 16.3514 11.15 16.299 11.1524C16.1237 11.1632 16.0553 11.3561 15.931 11.7063C15.8419 11.9571 15.7312 12.269 15.6069 12.3966C15.5395 12.3143 15.4524 12.0382 15.4041 11.7545C15.4267 11.8172 15.4855 11.8625 15.5561 11.8625C15.6462 11.8625 15.7192 11.7896 15.7192 11.6995C15.7192 11.4562 15.5491 9.60364 15.4541 8.58838C15.5334 8.5565 15.5751 8.46781 15.5477 8.38559L15.3846 7.89622C15.3584 7.81756 15.2779 7.77116 15.1961 7.78822C15.1149 7.80542 15.0596 7.88075 15.0674 7.9633C15.1783 9.12692 15.3861 11.3745 15.3926 11.6847C15.3922 11.6819 15.3916 11.6792 15.3913 11.6764C15.3786 11.5872 15.2953 11.526 15.2067 11.5379C15.1175 11.5508 15.0556 11.6334 15.0683 11.7225C15.116 12.056 15.2377 12.6292 15.518 12.7226C15.5401 12.7301 15.5699 12.7367 15.6049 12.7367C15.6692 12.7367 15.7509 12.7139 15.8345 12.6303C16.0121 12.4527 16.1324 12.114 16.2384 11.8154C16.2624 11.7478 16.2908 11.6679 16.3175 11.5994C16.4671 11.8179 16.7283 12.09 16.9928 12.0687C17.0858 12.062 17.255 12.012 17.342 11.7511C17.4287 11.4909 17.3944 10.5834 17.336 9.71459C17.4734 9.9072 17.6109 10.1045 17.7422 10.2992C17.7931 10.7877 17.8296 11.2771 17.8296 11.679C17.8296 11.769 17.9026 11.842 17.9926 11.842Z" fill="#F5F5F5"/>
<path d="M19.2305 10.984C19.115 10.1232 18.954 9.12605 18.852 8.51405C18.8981 8.52539 18.9482 8.51611 18.9887 8.48503C19.0603 8.43042 19.0741 8.328 19.0194 8.25647L18.7237 7.86905C18.6781 7.80947 18.5976 7.78847 18.5288 7.81856C18.4599 7.84866 18.4205 7.92197 18.4333 7.99603C18.4363 8.01272 18.7272 9.68719 18.9071 11.0273C18.9758 11.5395 18.8755 11.9971 18.6385 12.2513C18.4862 12.4147 18.2844 12.4885 18.0402 12.4743C17.9505 12.4695 17.8728 12.537 17.8671 12.6269C17.8615 12.7168 17.9297 12.7942 18.0197 12.7999C18.0472 12.8017 18.0744 12.8024 18.1013 12.8024C18.4089 12.8024 18.6758 12.6897 18.8771 12.4736C19.1846 12.144 19.3134 11.601 19.2305 10.984Z" fill="#F5F5F5"/>
<path d="M17.4361 12.0593C17.3762 12.1244 17.3807 12.227 17.4442 12.2885C17.453 12.297 17.4636 12.314 17.4637 12.3223C17.4637 12.3269 17.4572 12.3406 17.439 12.3587C17.3753 12.4224 17.3753 12.5257 17.439 12.5894C17.4709 12.6212 17.5126 12.6372 17.5544 12.6372C17.5961 12.6372 17.6379 12.6212 17.6697 12.5894C17.7732 12.486 17.7922 12.381 17.7898 12.3111C17.7848 12.1605 17.6823 12.0634 17.6618 12.0454C17.5952 11.9874 17.496 11.9944 17.4361 12.0593Z" fill="#F5F5F5"/>
<path d="M16.8611 15.6364H16.698H15.7193V15.4733C15.7193 15.3832 15.6463 15.3102 15.5562 15.3102C15.4661 15.3102 15.393 15.3832 15.393 15.4733V15.6364H6.74799C7.07419 15.9626 7.72664 16.1258 8.21602 16.1258C8.56697 16.1258 12.9447 16.1258 15.393 16.1258V16.452C15.393 16.5421 15.4661 16.6151 15.5562 16.6151H16.8611C17.1309 16.6151 17.3505 16.3956 17.3505 16.1258C17.3504 15.8559 17.1309 15.6364 16.8611 15.6364ZM16.8611 16.2889H15.7193V16.1258C16.5053 16.1258 17.0242 16.1258 17.0242 16.1258L16.9949 16.038C17.0118 16.0636 17.0242 16.0927 17.0242 16.1258C17.0242 16.2158 16.951 16.2889 16.8611 16.2889Z" fill="#F5F5F5"/>
</svg>
