<svg xmlns="http://www.w3.org/2000/svg" width="24" height="24" viewBox="0 0 24 24" fill="none"><rect width="24" height="24" fill="none"/>
<path d="M22.2024 4.13702H1.79494C0.834703 4.13702 0.0504844 4.88984 0 5.83751V18.1625C0.0504844 19.1101 0.834703 19.863 1.79494 19.863H22.2024C23.1952 19.863 24 19.0582 24 18.0654V5.93463C24 4.94182 23.1952 4.13702 22.2024 4.13702Z" fill="#F5F5F5"/>
<path d="M1.79493 4.13702C1.35548 4.13702 0.953013 4.2949 0.640732 4.55679L12.0014 12V4.13702H1.79493Z" fill="#464655"/>
<path d="M23.3589 4.55885L12.0014 12H24V5.93463C24 5.38245 23.7508 4.88857 23.3589 4.55885Z" fill="#464655"/>
<path d="M0 18.1625C0.027375 18.6764 0.270703 19.1328 0.640734 19.4431L12.0014 12H0V18.1625Z" fill="#464655"/>
<path d="M22.2024 19.8629C22.643 19.8629 23.0463 19.7042 23.3589 19.4411L12.0014 12V19.8629H22.2024Z" fill="#464655"/>
<path d="M12.9946 11.4206V12.7449C12.9946 13.2925 12.549 13.7381 12.0013 13.7381C11.4536 13.7381 11.0081 13.2925 11.0081 12.7449V11.4206H12.9946V11.4206ZM13.3256 10.7584H10.6771C10.4942 10.7584 10.346 10.9067 10.346 11.0895V12.7449C10.346 13.6591 11.0871 14.4002 12.0013 14.4002C12.9155 14.4002 13.6567 13.6591 13.6567 12.7449V11.0895C13.6567 10.9067 13.5085 10.7584 13.3256 10.7584Z" fill="#FF4B55"/>
<path d="M12.9946 11.4206V12.7449C12.9946 13.2925 12.549 13.7381 12.0013 13.7381C11.4536 13.7381 11.0081 13.2925 11.0081 12.7449V11.4206H12.9946" fill="#F5F5F5"/>
<path d="M10.6744 11.2547C10.7658 11.2547 10.8399 11.1806 10.8399 11.0892C10.8399 10.9978 10.7658 10.9237 10.6744 10.9237C10.583 10.9237 10.5089 10.9978 10.5089 11.0892C10.5089 11.1806 10.583 11.2547 10.6744 11.2547Z" fill="#FFE15A"/>
<path d="M13.3233 11.2547C13.4147 11.2547 13.4889 11.1806 13.4889 11.0892C13.4889 10.9978 13.4147 10.9237 13.3233 10.9237C13.2319 10.9237 13.1578 10.9978 13.1578 11.0892C13.1578 11.1806 13.2319 11.2547 13.3233 11.2547Z" fill="#FFE15A"/>
<path d="M10.6744 12.579C10.7658 12.579 10.8399 12.5049 10.8399 12.4135C10.8399 12.322 10.7658 12.2479 10.6744 12.2479C10.583 12.2479 10.5089 12.322 10.5089 12.4135C10.5089 12.5049 10.583 12.579 10.6744 12.579Z" fill="#FFE15A"/>
<path d="M13.3233 12.579C13.4147 12.579 13.4889 12.5049 13.4889 12.4135C13.4889 12.322 13.4147 12.2479 13.3233 12.2479C13.2319 12.2479 13.1578 12.322 13.1578 12.4135C13.1578 12.5049 13.2319 12.579 13.3233 12.579Z" fill="#FFE15A"/>
<path d="M11.9986 11.2547C12.0901 11.2547 12.1642 11.1806 12.1642 11.0892C12.1642 10.9978 12.0901 10.9237 11.9986 10.9237C11.9072 10.9237 11.8331 10.9978 11.8331 11.0892C11.8331 11.1806 11.9072 11.2547 11.9986 11.2547Z" fill="#FFE15A"/>
<path d="M11.9986 14.2482C12.0901 14.2482 12.1642 14.1741 12.1642 14.0827C12.1642 13.9912 12.0901 13.9171 11.9986 13.9171C11.9072 13.9171 11.8331 13.9912 11.8331 14.0827C11.8331 14.1741 11.9072 14.2482 11.9986 14.2482Z" fill="#FFE15A"/>
<path d="M12.9924 13.8001C13.0838 13.8001 13.1579 13.726 13.1579 13.6345C13.1579 13.5431 13.0838 13.469 12.9924 13.469C12.901 13.469 12.8269 13.5431 12.8269 13.6345C12.8269 13.726 12.901 13.8001 12.9924 13.8001Z" fill="#FFE15A"/>
<path d="M11.0241 13.8001C11.1155 13.8001 11.1896 13.726 11.1896 13.6345C11.1896 13.5431 11.1155 13.469 11.0241 13.469C10.9327 13.469 10.8586 13.5431 10.8586 13.6345C10.8586 13.726 10.9327 13.8001 11.0241 13.8001Z" fill="#FFE15A"/>
<path d="M12.2152 12.3299V12.615C12.2152 12.7329 12.1193 12.8288 12.0014 12.8288C11.8835 12.8288 11.7876 12.7329 11.7876 12.615V12.3299H12.2152Z" fill="#41479B"/>
<path d="M12.2152 11.6539V11.939C12.2152 12.0569 12.1193 12.1528 12.0014 12.1528C11.8835 12.1528 11.7876 12.0569 11.7876 11.939V11.6539H12.2152Z" fill="#41479B"/>
<path d="M12.2152 13.0127V13.2978C12.2152 13.4157 12.1193 13.5116 12.0014 13.5116C11.8835 13.5116 11.7876 13.4157 11.7876 13.2978V13.0127H12.2152Z" fill="#41479B"/>
<path d="M12.7911 12.3299V12.615C12.7911 12.7329 12.6952 12.8288 12.5773 12.8288C12.4594 12.8288 12.3635 12.7329 12.3635 12.615V12.3299H12.7911Z" fill="#41479B"/>
<path d="M11.6393 12.3299V12.615C11.6393 12.7329 11.5434 12.8288 11.4255 12.8288C11.3076 12.8288 11.2117 12.7329 11.2117 12.615V12.3299H11.6393Z" fill="#41479B"/>
<path d="M13.6041 10.7584H10.4151C10.3075 10.7584 10.2203 10.6712 10.2203 10.5637V10.4419C10.2203 10.3344 10.3075 10.2472 10.4151 10.2472H13.6041C13.7116 10.2472 13.7988 10.3344 13.7988 10.4419V10.5637C13.7988 10.6713 13.7116 10.7584 13.6041 10.7584Z" fill="#FFE15A"/>
<path d="M12.0095 10.3751L11.7539 10.5029L12.0095 10.6306L12.2652 10.5029L12.0095 10.3751Z" fill="#FF4B55"/>
<path d="M12.8404 10.6307C12.9463 10.6307 13.0321 10.5734 13.0321 10.5028C13.0321 10.4322 12.9463 10.375 12.8404 10.375C12.7345 10.375 12.6487 10.4322 12.6487 10.5028C12.6487 10.5734 12.7345 10.6307 12.8404 10.6307Z" fill="#4173CD"/>
<path d="M11.1787 10.6306C11.2846 10.6306 11.3705 10.5734 11.3705 10.5028C11.3705 10.4322 11.2846 10.375 11.1787 10.375C11.0729 10.375 10.987 10.4322 10.987 10.5028C10.987 10.5734 11.0729 10.6306 11.1787 10.6306Z" fill="#4173CD"/>
<path d="M12.457 10.5667C12.4923 10.5667 12.5209 10.5381 12.5209 10.5028C12.5209 10.4675 12.4923 10.4389 12.457 10.4389C12.4217 10.4389 12.3931 10.4675 12.3931 10.5028C12.3931 10.5381 12.4217 10.5667 12.457 10.5667Z" fill="#F5F5F5"/>
<path d="M13.2239 10.5667C13.2592 10.5667 13.2878 10.5381 13.2878 10.5028C13.2878 10.4675 13.2592 10.4389 13.2239 10.4389C13.1886 10.4389 13.16 10.4675 13.16 10.5028C13.16 10.5381 13.1886 10.5667 13.2239 10.5667Z" fill="#F5F5F5"/>
<path d="M11.5622 10.5667C11.5975 10.5667 11.6261 10.5381 11.6261 10.5028C11.6261 10.4675 11.5975 10.4389 11.5622 10.4389C11.5269 10.4389 11.4983 10.4675 11.4983 10.5028C11.4983 10.5381 11.5269 10.5667 11.5622 10.5667Z" fill="#F5F5F5"/>
<path d="M10.7953 10.5667C10.8306 10.5667 10.8592 10.5381 10.8592 10.5028C10.8592 10.4675 10.8306 10.4389 10.7953 10.4389C10.76 10.4389 10.7314 10.4675 10.7314 10.5028C10.7314 10.5381 10.76 10.5667 10.7953 10.5667Z" fill="#F5F5F5"/>
<path d="M10.2203 10.439V10.5667L10.3481 10.6306L10.6037 10.5029L10.3481 10.3751L10.2203 10.439Z" fill="#FF4B55"/>
<path d="M13.7989 10.5668V10.439L13.6711 10.3752L13.4155 10.5029L13.6711 10.6307L13.7989 10.5668Z" fill="#FF4B55"/>
<path d="M11.159 9.4159C11.1182 9.39584 11.0698 9.40821 11.029 9.43976C11.0499 9.40878 11.0619 9.36743 11.0596 9.32248C11.055 9.23107 10.9941 9.15982 10.9236 9.16348C10.8531 9.16704 10.7998 9.24406 10.8044 9.33546C10.8068 9.38403 10.8258 9.42584 10.853 9.45481C10.798 9.42795 10.7377 9.43053 10.701 9.46737C10.6511 9.51725 10.6631 9.6102 10.7279 9.67493C10.7926 9.73971 10.8855 9.75171 10.9355 9.70179C10.9494 9.68787 10.9574 9.67025 10.9619 9.65112C10.972 9.67789 10.9877 9.70104 11.0126 9.71328C11.0759 9.74445 11.16 9.7032 11.2005 9.62107C11.2409 9.53895 11.2223 9.44712 11.159 9.4159ZM10.9711 9.50811C10.9618 9.52714 10.9563 9.54664 10.953 9.56585C10.9435 9.54068 10.9301 9.51584 10.9086 9.49423C10.9049 9.49053 10.9004 9.48875 10.8964 9.48532C10.9104 9.49114 10.925 9.49526 10.9404 9.49446C10.9611 9.49339 10.9795 9.48457 10.9962 9.47243C10.9873 9.48368 10.9779 9.49437 10.9711 9.50811Z" fill="#F5F5F5"/>
<path d="M12.8023 9.62102C12.8427 9.7031 12.9268 9.7444 12.9901 9.71322C13.015 9.70094 13.0307 9.67774 13.0409 9.65107C13.0454 9.67015 13.0534 9.68782 13.0673 9.70174C13.1172 9.75166 13.2101 9.73966 13.2749 9.67488C13.3396 9.61015 13.3517 9.51719 13.3018 9.46732C13.2649 9.43047 13.2048 9.4279 13.1498 9.45476C13.177 9.42579 13.1959 9.38397 13.1984 9.33541C13.2031 9.24401 13.1497 9.16699 13.0792 9.16343C13.0087 9.15987 12.9478 9.23102 12.9431 9.32243C12.9408 9.36743 12.9528 9.40872 12.9738 9.43971C12.933 9.40816 12.8845 9.39579 12.8438 9.41585C12.7803 9.44707 12.7618 9.5389 12.8023 9.62102ZM13.0065 9.47233C13.0232 9.48452 13.0416 9.49333 13.0623 9.49437C13.0777 9.49516 13.0923 9.49099 13.1063 9.48522C13.1024 9.4886 13.0979 9.49038 13.0942 9.49413C13.0726 9.51569 13.0592 9.54058 13.0497 9.56576C13.0465 9.54658 13.041 9.52699 13.0316 9.50801C13.0248 9.49432 13.0154 9.48363 13.0065 9.47233Z" fill="#F5F5F5"/>
<path d="M14.3339 9.04047C14.1497 8.97494 13.7625 8.93988 13.6151 9.27452C13.5866 9.33916 13.6159 9.41454 13.6805 9.44299C13.7429 9.47055 13.8147 9.44327 13.8452 9.38294L13.8933 9.43999C13.853 9.55324 13.8368 9.65463 13.8323 9.6895C13.7665 9.96208 13.5135 9.99166 13.4071 9.99166C13.2356 9.99166 13.1386 9.80782 13.1377 9.80594C13.1202 9.7721 13.0882 9.74754 13.0509 9.73943C13.0135 9.73132 12.9745 9.73994 12.9446 9.76338C12.8745 9.81841 12.6567 9.9671 12.4924 9.99325C12.4131 10.006 12.3485 9.99274 12.3048 9.95533C12.2694 9.92514 12.2569 9.88722 12.2569 9.86388C12.2569 9.8066 12.3273 9.73605 12.3847 9.73605C12.4282 9.73605 12.4448 9.76389 12.4448 9.76389C12.4751 9.82802 12.5513 9.85516 12.6151 9.82502C12.6789 9.79469 12.7061 9.71857 12.6759 9.65477C12.6511 9.60236 12.5828 9.5215 12.4706 9.49225C12.5388 9.38402 12.6014 9.25254 12.6404 9.09705L12.2569 8.96922C12.2569 8.96922 12.3847 8.58578 12.0013 8.58578C11.6179 8.58578 11.7457 8.96922 11.7457 8.96922L11.3623 9.09705C11.4012 9.25254 11.4637 9.38411 11.5319 9.49225C11.4197 9.52155 11.3514 9.60241 11.3266 9.65477C11.2964 9.71857 11.3236 9.79469 11.3875 9.82502C11.4512 9.85507 11.5274 9.82802 11.5577 9.76413C11.5577 9.76413 11.5745 9.73605 11.6179 9.73605C11.6753 9.73605 11.7457 9.80655 11.7457 9.86388C11.7457 9.88722 11.7332 9.92519 11.6978 9.95533C11.6542 9.99279 11.5895 10.006 11.5102 9.99325C11.3459 9.967 11.128 9.81841 11.058 9.76338C11.0281 9.73989 10.9891 9.73132 10.9517 9.73943C10.9144 9.74754 10.8824 9.7721 10.865 9.80594C10.864 9.80782 10.767 9.99166 10.5955 9.99166C10.4891 9.99166 10.2361 9.96208 10.1703 9.6895C10.1658 9.65463 10.1497 9.55329 10.1093 9.43999L10.1575 9.38294C10.188 9.44332 10.2598 9.47055 10.3222 9.44299C10.3868 9.41454 10.416 9.33916 10.3876 9.27452C10.2402 8.93993 9.85289 8.97499 9.66881 9.04047C9.61607 9.05918 9.58162 9.10999 9.58382 9.16591C9.58593 9.22183 9.62428 9.26974 9.67828 9.28436C9.83484 9.32641 9.90511 9.62571 9.91739 9.72719C9.91795 9.73155 9.91879 9.73619 9.91973 9.74055C9.99117 10.0531 10.2502 10.2473 10.5955 10.2473C10.7934 10.2473 10.9303 10.1352 11.0097 10.0424C11.1217 10.1162 11.3018 10.219 11.47 10.2457C11.5023 10.2508 11.5339 10.2535 11.5647 10.2535C11.6802 10.2535 11.784 10.2179 11.8638 10.1499C11.95 10.0764 12.0014 9.96939 12.0014 9.86397C12.0014 9.96944 12.0528 10.0764 12.139 10.1499C12.2186 10.2179 12.3226 10.2535 12.438 10.2535C12.4689 10.2535 12.5004 10.2508 12.5327 10.2457C12.7009 10.219 12.8811 10.1162 12.993 10.0424C13.0725 10.1352 13.2093 10.2473 13.4073 10.2473C13.7526 10.2473 14.0116 10.0531 14.083 9.74055C14.084 9.73619 14.0848 9.73155 14.0854 9.72719C14.0976 9.62571 14.1679 9.32646 14.3244 9.28436C14.3785 9.26978 14.4168 9.22183 14.4189 9.16591C14.421 9.10999 14.3865 9.05918 14.3339 9.04047Z" fill="#FFE15A"/>
<path d="M9.78146 9.30381C9.71625 9.33086 9.69627 9.43207 9.73684 9.52988C9.7774 9.62768 9.86315 9.68504 9.92836 9.658C9.99357 9.63095 10.0135 9.52974 9.97299 9.43193C9.93242 9.33413 9.84667 9.27677 9.78146 9.30381Z" fill="#4173CD"/>
<path d="M14.0743 9.65729C14.1395 9.68433 14.2252 9.62697 14.2658 9.52917C14.3063 9.43136 14.2864 9.33015 14.2211 9.30311C14.1559 9.27606 14.0702 9.33342 14.0296 9.43123C13.9891 9.52903 14.009 9.63024 14.0743 9.65729Z" fill="#4173CD"/>
<path d="M12.0014 9.60854C12.1073 9.60854 12.1932 9.4941 12.1932 9.35293C12.1932 9.21176 12.1073 9.09732 12.0014 9.09732C11.8956 9.09732 11.8097 9.21176 11.8097 9.35293C11.8097 9.4941 11.8956 9.60854 12.0014 9.60854Z" fill="#4173CD"/>
</svg>
