<svg xmlns="http://www.w3.org/2000/svg" width="24" height="24" viewBox="0 0 24 24" fill="none"><rect width="24" height="24" fill="none"/>
<path d="M24 5.93356C23.9991 4.94168 23.1947 4.13792 22.2026 4.13792H1.79742C0.804703 4.13787 0 4.94262 0 5.93529V18.0647C0 19.0573 0.804703 19.8621 1.79742 19.8621H22.2026C23.1947 19.8621 23.9991 19.0583 24 18.0664V5.93356V5.93356Z" fill="#73AF00"/>
<path d="M13.2945 14.4209C11.9575 14.4209 10.8736 13.337 10.8736 12C10.8736 10.663 11.9575 9.57914 13.2945 9.57914C13.4719 9.57914 13.6438 9.60042 13.8095 9.63844C13.8756 9.65358 13.9106 9.56494 13.853 9.52926C13.346 9.21492 12.7354 9.05189 12.0837 9.1049C10.6651 9.22031 9.52463 10.3768 9.42807 11.7968C9.31266 13.4932 10.6545 14.9051 12.3262 14.9051C12.8866 14.9051 13.4094 14.7459 13.8531 14.4708C13.9107 14.435 13.8758 14.3464 13.8097 14.3616C13.6439 14.3996 13.4719 14.4209 13.2945 14.4209Z" fill="#FFE15A"/>
<path d="M15.4045 9.95021L15.5864 10.4107L16.0598 10.2657C16.0861 10.2577 16.1086 10.286 16.0949 10.3098L15.8483 10.7391L16.2568 11.0188C16.2795 11.0343 16.2714 11.0697 16.2442 11.0738L15.7548 11.1486L15.7908 11.6424C15.7928 11.6698 15.7602 11.6855 15.74 11.6669L15.3764 11.3309L15.0128 11.6669C14.9926 11.6855 14.96 11.6698 14.962 11.6424L14.998 11.1486L14.5086 11.0738C14.4814 11.0697 14.4734 11.0343 14.4961 11.0188L14.9046 10.7391L14.6579 10.3098C14.6442 10.286 14.6668 10.2577 14.6931 10.2657L15.1665 10.4107L15.3483 9.95021C15.3582 9.92466 15.3944 9.92466 15.4045 9.95021Z" fill="#FFE15A"/>
<path d="M22.0252 8.70877L22.207 9.16927L22.6804 9.02428C22.7067 9.01622 22.7293 9.04458 22.7156 9.06839L22.4689 9.49768L22.8774 9.77738C22.9001 9.79289 22.8921 9.82824 22.8649 9.83236L22.3755 9.90718L22.4115 10.401C22.4135 10.4284 22.3808 10.4441 22.3606 10.4254L21.9971 10.0894L21.6335 10.4254C21.6133 10.4441 21.5807 10.4284 21.5827 10.401L21.6187 9.90718L21.1293 9.83236C21.1021 9.82824 21.0941 9.79289 21.1167 9.77738L21.5252 9.49768L21.2786 9.06839C21.2649 9.04453 21.2874 9.01627 21.3137 9.02428L21.7871 9.16927L21.969 8.70877C21.9789 8.68327 22.0151 8.68327 22.0252 8.70877Z" fill="#FFE15A"/>
<path d="M18.7149 5.72353L18.8967 6.18403L19.3701 6.03904C19.3964 6.03098 19.419 6.05934 19.4053 6.08315L19.1586 6.51244L19.5671 6.79214C19.5898 6.80765 19.5817 6.843 19.5546 6.84712L19.0651 6.92194L19.1011 7.41572C19.1032 7.44314 19.0705 7.45884 19.0503 7.44019L18.6868 7.10418L18.3232 7.44019C18.303 7.45884 18.2704 7.44314 18.2724 7.41572L18.3084 6.92194L17.819 6.84712C17.7918 6.843 17.7838 6.80765 17.8064 6.79214L18.2149 6.51244L17.9683 6.08315C17.9546 6.05929 17.9771 6.03103 18.0034 6.03904L18.4768 6.18403L18.6586 5.72353C18.6686 5.69798 18.7048 5.69798 18.7149 5.72353Z" fill="#FFE15A"/>
<path d="M18.7149 16.5709L18.8967 17.0314L19.3701 16.8864C19.3964 16.8784 19.419 16.9067 19.4053 16.9305L19.1586 17.3598L19.5671 17.6395C19.5898 17.655 19.5817 17.6904 19.5546 17.6945L19.0651 17.7693L19.1011 18.2631C19.1032 18.2905 19.0705 18.3062 19.0503 18.2876L18.6868 17.9516L18.3232 18.2876C18.303 18.3062 18.2704 18.2905 18.2724 18.2631L18.3084 17.7693L17.819 17.6945C17.7918 17.6904 17.7838 17.655 17.8064 17.6395L18.2149 17.3598L17.9683 16.9305C17.9546 16.9067 17.9771 16.8784 18.0034 16.8864L18.4768 17.0314L18.6586 16.5709C18.6686 16.5454 18.7048 16.5454 18.7149 16.5709Z" fill="#FFE15A"/>
<path d="M20.0698 10.3669L20.1967 10.7475L20.5979 10.7506C20.6289 10.7508 20.6418 10.7904 20.6168 10.8089L20.2942 11.0472L20.4151 11.4297C20.4245 11.4593 20.3908 11.4838 20.3655 11.4657L20.0391 11.2324L19.7127 11.4657C19.6874 11.4838 19.6537 11.4593 19.6631 11.4297L19.7841 11.0472L19.4614 10.8089C19.4364 10.7904 19.4493 10.7508 19.4804 10.7506L19.8815 10.7475L20.0084 10.3669C20.0183 10.3374 20.06 10.3374 20.0698 10.3669Z" fill="#FFE15A"/>
<path d="M4.34484 11.1727C5.83031 11.1727 7.03453 9.96844 7.03453 8.48297C7.03453 6.9975 5.83031 5.79328 4.34484 5.79328C2.85937 5.79328 1.65515 6.9975 1.65515 8.48297C1.65515 9.96844 2.85937 11.1727 4.34484 11.1727Z" fill="#FFE15A"/>
<path d="M4.06815 10.5782H4.79452C4.79452 10.5782 5.20721 8.72924 4.82752 8.06886L4.59643 8.21741C4.59643 8.21755 4.97611 9.48861 4.06815 10.5782Z" fill="#964B50"/>
<path d="M4.09561 8.15145C4.09561 8.15145 3.67744 8.43758 3.80949 9.28503C3.80949 9.28503 4.12861 9.02089 4.30477 8.43758C4.30477 8.43758 4.05164 8.92184 4.40381 9.30702C4.40381 9.30702 4.77797 8.77873 4.72294 8.3165C4.72294 8.3165 5.96696 9.61559 5.70244 9.28498C5.65842 9.22995 5.76849 8.67964 5.33925 8.22847C5.33925 8.22847 6.04364 8.40453 6.30774 8.33853C6.30774 8.33853 6.32977 7.7772 5.65838 7.67816L5.81246 7.23795C5.81246 7.23795 5.29519 7.20495 5.02003 7.46905C5.02003 7.46905 4.95399 6.78669 5.22914 6.45655C5.22914 6.45655 4.41474 6.33547 4.38169 7.40305C4.38169 7.40305 4.08455 6.72069 3.1711 6.88578C3.1711 6.88578 3.68836 7.25994 3.77644 7.42508C3.77644 7.42508 3.05006 6.9298 2.70891 7.62317C2.70891 7.62317 3.29222 7.46909 3.50133 7.74425C3.50133 7.74425 2.56585 7.6452 2.48883 8.44864C2.48883 8.44859 3.35831 8.04139 4.09561 8.15145Z" fill="#73AF00"/>
</svg>
