<svg xmlns="http://www.w3.org/2000/svg" width="24" height="24" viewBox="0 0 24 24" fill="none"><rect width="24" height="24" fill="none"/>
<path d="M22.2134 4.13809H1.78664C0.798984 4.1439 0 4.94612 0 5.93519V18.0645C0 19.0572 0.804703 19.8619 1.79742 19.8619H22.2026C23.1952 19.8619 24 19.0572 24 18.0645V5.93519C24 4.94612 23.201 4.1439 22.2134 4.13809Z" fill="#41479B"/>
<path d="M24 14.8964H0V16.9655H24V14.8964Z" fill="#FFE15A"/>
<path d="M5.57551 8.00939L5.16849 9.22973L3.8821 9.23971C3.75873 9.24065 3.70759 9.3981 3.80682 9.47137L4.84168 10.2355L4.45365 11.462C4.41648 11.5796 4.55035 11.6769 4.65071 11.6052L5.69729 10.8571L6.74387 11.6052C6.84423 11.6769 6.97815 11.5796 6.94093 11.462L6.5529 10.2355L7.58776 9.47137C7.68704 9.39806 7.63585 9.2407 7.51248 9.23971L6.22609 9.22973L5.81907 8.00939C5.78007 7.89234 5.61456 7.89234 5.57551 8.00939Z" fill="#F5F5F5"/>
<path d="M2.64342 5.75759L2.40787 6.46395L1.66331 6.46976C1.59192 6.47032 1.5623 6.5614 1.61976 6.60382L2.21873 7.04613L1.99416 7.75606C1.97264 7.82412 2.05012 7.88046 2.1082 7.83893L2.71392 7.40595L3.31964 7.83893C3.37772 7.88046 3.45525 7.82412 3.43369 7.75606L3.20911 7.04613L3.80808 6.60382C3.8655 6.5614 3.83592 6.47028 3.76453 6.46976L3.01997 6.46395L2.78442 5.75759C2.76183 5.68985 2.66601 5.68985 2.64342 5.75759Z" fill="#F5F5F5"/>
</svg>
