<svg xmlns="http://www.w3.org/2000/svg" width="24" height="24" viewBox="0 0 24 24" fill="none"><rect width="24" height="24" fill="none"/>
<path d="M24 9.37935H0V4.55175C0 4.32324 0.185297 4.13794 0.413812 4.13794H23.5862C23.8147 4.13794 24 4.32324 24 4.55175L24 9.37935Z" fill="#464655"/>
<path d="M23.5861 19.8621H0.413812C0.185297 19.8621 0 19.6768 0 19.4483V14.6207H24V19.4483C24 19.6768 23.8147 19.8621 23.5861 19.8621Z" fill="#73AF00"/>
<path d="M24 9.37921H0V14.6203H24V9.37921Z" fill="#F5F5F5"/>
<path d="M0.601311 19.4059L9.66083 12.2145C9.79892 12.1049 9.79892 11.8952 9.66083 11.7856L0.601311 4.59412C0.232453 4.92332 0 5.4021 0 5.93539V18.0647C0 18.5979 0.232453 19.0767 0.601311 19.4059Z" fill="#FF4B55"/>
<path d="M12.4198 12.0001C12.4198 11.0563 13.0363 10.2567 13.8884 9.98132C13.9374 9.96547 13.931 9.8938 13.8798 9.88879C13.7162 9.87271 13.5472 9.87524 13.3746 9.89943C12.3736 10.0399 11.6014 10.8864 11.5531 11.896C11.4949 13.115 12.466 14.1216 13.6721 14.1216C13.7419 14.1216 13.8108 14.1181 13.8789 14.1115C13.9303 14.1065 13.937 14.0346 13.8878 14.0187C13.036 13.7432 12.4198 12.9437 12.4198 12.0001Z" fill="#FF4B55"/>
<path d="M14.2211 10.6063L13.9424 11.4421L13.0614 11.4489C12.9473 11.4498 12.9 11.5953 12.9917 11.6631L13.7004 12.1864L13.4347 13.0264C13.4003 13.1352 13.5241 13.2251 13.6169 13.1588L14.3336 12.6465L15.0503 13.1588C15.1431 13.2251 15.2669 13.1352 15.2325 13.0264L14.9667 12.1864L15.6754 11.6631C15.7672 11.5953 15.7199 11.4498 15.6058 11.4489L14.7248 11.4421L14.4461 10.6063C14.4103 10.4981 14.2572 10.4981 14.2211 10.6063Z" fill="#FF4B55"/>
</svg>
