<svg xmlns="http://www.w3.org/2000/svg" width="24" height="24" viewBox="0 0 24 24" fill="none"><rect width="24" height="24" fill="none"/>
<path d="M22.2026 4.13794H1.79742C0.804703 4.13794 0 4.94264 0 5.93536V9.37931H24V5.93536C24 4.94264 23.1953 4.13794 22.2026 4.13794Z" fill="#41479B"/>
<path d="M0 18.0646C0 19.0573 0.804703 19.8621 1.79742 19.8621H22.2026C23.1952 19.8621 24 19.0574 24 18.0646V14.6207H0V18.0646Z" fill="#41479B"/>
<path d="M24 9.37921H0V14.6203H24V9.37921Z" fill="#F5F5F5"/>
<path d="M11.9902 13.7607C10.992 13.7607 10.1798 12.9486 10.1798 11.9503C10.1798 11.5239 10.3309 11.1098 10.6054 10.7842L10.6845 10.8509C10.4257 11.1578 10.2832 11.5482 10.2832 11.9503C10.2832 12.8914 11.0489 13.6572 11.9901 13.6572L11.9902 13.7607Z" fill="#50AF69"/>
<path d="M11.3279 13.2262C11.3054 13.2647 11.2942 13.3177 11.2893 13.3715C11.2688 13.3567 11.2472 13.3431 11.2237 13.3316C11.2237 13.3316 11.1881 13.4569 11.2159 13.5472C11.2159 13.5472 11.1215 13.5588 11.0349 13.6457C11.0349 13.6457 11.0647 13.6669 11.116 13.6888C11.03 13.7559 11.0034 13.8223 11.0034 13.8223C11.5111 14.0761 11.7544 13.7221 11.765 13.7062C11.6406 13.3514 11.3279 13.2262 11.3279 13.2262Z" fill="#50AF69"/>
<path d="M11.765 13.7063C11.7653 13.7072 11.7657 13.7079 11.766 13.7089V13.7048C11.766 13.7048 11.7652 13.7059 11.765 13.7063Z" fill="#50AF69"/>
<path d="M10.8591 12.8878C10.826 12.9121 10.7972 12.9526 10.7733 12.9962C10.7615 12.9763 10.7483 12.9569 10.7326 12.9386C10.7326 12.9386 10.6567 13.0312 10.6472 13.1175C10.6472 13.1175 10.5634 13.0929 10.4586 13.1344C10.4586 13.1344 10.4761 13.1631 10.5112 13.2004C10.4142 13.2256 10.3675 13.2718 10.3675 13.2718C10.7026 13.6714 11.0372 13.4619 11.052 13.4524C11.0769 13.1077 10.8591 12.8878 10.8591 12.8878Z" fill="#50AF69"/>
<path d="M11.052 13.4523C11.052 13.4532 11.052 13.454 11.0519 13.4549L11.0534 13.4514C11.0534 13.4514 11.0524 13.4521 11.052 13.4523Z" fill="#50AF69"/>
<path d="M10.5682 12.4455C10.5321 12.453 10.4933 12.4758 10.4577 12.5026C10.4553 12.4819 10.4516 12.4611 10.4455 12.4402C10.4455 12.4402 10.3489 12.4882 10.3091 12.5556C10.3091 12.5556 10.2494 12.5042 10.148 12.4996C10.148 12.4996 10.1516 12.5296 10.1668 12.5733C10.0777 12.558 10.0223 12.5787 10.0223 12.5787C10.1495 13.0311 10.5019 12.983 10.5176 12.9806C10.6657 12.7068 10.5682 12.4455 10.5682 12.4455Z" fill="#50AF69"/>
<path d="M10.5175 12.9806C10.5171 12.9813 10.5169 12.982 10.5165 12.9827L10.5189 12.9804C10.519 12.9804 10.5179 12.9806 10.5175 12.9806Z" fill="#50AF69"/>
<path d="M10.4531 11.9413C10.4188 11.9435 10.3787 11.9585 10.3405 11.9776C10.3431 11.9593 10.3446 11.9407 10.3439 11.922C10.3439 11.922 10.2459 11.9519 10.1947 12.0055C10.1947 12.0055 10.1527 11.9538 10.0624 11.9374C10.0624 11.9374 10.0589 11.964 10.0624 12.0036C9.98582 11.9796 9.93112 11.9908 9.93112 11.9908C9.94181 12.3987 10.2701 12.3996 10.2847 12.3994C10.4809 12.1798 10.4531 11.9413 10.4531 11.9413Z" fill="#50AF69"/>
<path d="M10.2847 12.3995C10.2841 12.4 10.2838 12.4005 10.2832 12.4011L10.286 12.3995C10.286 12.3995 10.285 12.3994 10.2847 12.3995Z" fill="#50AF69"/>
<path d="M10.4912 11.5238C10.4618 11.5168 10.4244 11.519 10.3874 11.5251C10.3943 11.5105 10.4003 11.4952 10.4046 11.4793C10.4046 11.4793 10.3146 11.4791 10.2577 11.5108C10.2577 11.5108 10.2359 11.4565 10.1644 11.4195C10.1644 11.4195 10.1545 11.4408 10.1473 11.475C10.0892 11.4351 10.0404 11.4304 10.0404 11.4304C9.94387 11.7753 10.219 11.861 10.2313 11.8646C10.4528 11.731 10.4912 11.5238 10.4912 11.5238Z" fill="#50AF69"/>
<path d="M10.2315 11.8645C10.2309 11.8649 10.2304 11.8652 10.2299 11.8656L10.2326 11.8649C10.2326 11.8649 10.2317 11.8646 10.2315 11.8645Z" fill="#50AF69"/>
<path d="M10.2735 11.0161C10.2735 11.0161 10.1798 11.2617 10.3253 11.404C10.3253 11.404 10.5149 11.348 10.6087 11.1508L10.5289 11.1357L10.4879 11.0128L10.3521 11.0732L10.2735 11.0161Z" fill="#50AF69"/>
<path d="M10.5376 10.6211C10.5376 10.6211 10.3907 10.8392 10.5001 11.0107C10.5001 11.0107 10.6976 10.9991 10.8336 10.8282L10.7593 10.7955L10.7472 10.6665L10.6013 10.6946L10.5376 10.6211Z" fill="#50AF69"/>
<path d="M12.0099 13.7607V13.6572C12.9511 13.6572 13.7168 12.8914 13.7168 11.9503C13.7168 11.5483 13.5743 11.1578 13.3156 10.8509L13.3946 10.7842C13.6691 11.1098 13.8202 11.5239 13.8202 11.9503C13.8203 12.9486 13.0081 13.7607 12.0099 13.7607Z" fill="#50AF69"/>
<path d="M12.6721 13.2262C12.6947 13.2647 12.7059 13.3177 12.7108 13.3715C12.7312 13.3567 12.7529 13.3431 12.7764 13.3316C12.7764 13.3316 12.812 13.4569 12.7842 13.5472C12.7842 13.5472 12.8785 13.5588 12.9652 13.6457C12.9652 13.6457 12.9353 13.6669 12.8841 13.6888C12.9701 13.7559 12.9966 13.8223 12.9966 13.8223C12.489 14.0761 12.2457 13.7221 12.2351 13.7062C12.3595 13.3514 12.6721 13.2262 12.6721 13.2262Z" fill="#50AF69"/>
<path d="M12.2351 13.7063C12.2348 13.7072 12.2344 13.7079 12.2341 13.7089V13.7048C12.2341 13.7048 12.2349 13.7059 12.2351 13.7063Z" fill="#50AF69"/>
<path d="M13.1409 12.8878C13.1741 12.9121 13.2029 12.9526 13.2267 12.9962C13.2385 12.9763 13.2518 12.9569 13.2675 12.9386C13.2675 12.9386 13.3433 13.0312 13.3528 13.1175C13.3528 13.1175 13.4366 13.0929 13.5414 13.1344C13.5414 13.1344 13.524 13.1631 13.4888 13.2004C13.5858 13.2256 13.6325 13.2718 13.6325 13.2718C13.2974 13.6714 12.9628 13.4619 12.948 13.4524C12.9231 13.1077 13.1409 12.8878 13.1409 12.8878Z" fill="#50AF69"/>
<path d="M12.9481 13.4523C12.9481 13.4532 12.9481 13.454 12.9482 13.4549L12.9467 13.4514C12.9467 13.4514 12.9477 13.4521 12.9481 13.4523Z" fill="#50AF69"/>
<path d="M13.4318 12.4455C13.468 12.453 13.5068 12.4758 13.5424 12.5026C13.5448 12.4819 13.5485 12.4611 13.5546 12.4402C13.5546 12.4402 13.6512 12.4882 13.691 12.5556C13.691 12.5556 13.7507 12.5042 13.8521 12.4996C13.8521 12.4996 13.8485 12.5296 13.8333 12.5733C13.9223 12.558 13.9778 12.5787 13.9778 12.5787C13.8506 13.0311 13.4982 12.983 13.4825 12.9806C13.3344 12.7068 13.4318 12.4455 13.4318 12.4455Z" fill="#50AF69"/>
<path d="M13.4826 12.9806C13.483 12.9813 13.4832 12.982 13.4836 12.9827L13.4812 12.9804C13.4811 12.9804 13.4822 12.9806 13.4826 12.9806Z" fill="#50AF69"/>
<path d="M13.547 11.9413C13.5813 11.9435 13.6213 11.9585 13.6596 11.9776C13.657 11.9593 13.6555 11.9407 13.6562 11.922C13.6562 11.922 13.7542 11.9519 13.8054 12.0055C13.8054 12.0055 13.8474 11.9538 13.9377 11.9374C13.9377 11.9374 13.9413 11.964 13.9377 12.0036C14.0143 11.9796 14.069 11.9908 14.069 11.9908C14.0583 12.3987 13.7301 12.3996 13.7154 12.3994C13.5192 12.1798 13.547 11.9413 13.547 11.9413Z" fill="#50AF69"/>
<path d="M13.7154 12.3995C13.7159 12.4 13.7163 12.4005 13.7168 12.4011L13.7141 12.3995C13.7141 12.3995 13.7151 12.3994 13.7154 12.3995Z" fill="#50AF69"/>
<path d="M13.5088 11.5238C13.5382 11.5168 13.5756 11.519 13.6127 11.5251C13.6058 11.5105 13.5997 11.4952 13.5955 11.4793C13.5955 11.4793 13.6854 11.4791 13.7423 11.5108C13.7423 11.5108 13.7641 11.4565 13.8356 11.4195C13.8356 11.4195 13.8455 11.4408 13.8528 11.475C13.9108 11.4351 13.9596 11.4304 13.9596 11.4304C14.0562 11.7753 13.7811 11.861 13.7687 11.8646C13.5473 11.731 13.5088 11.5238 13.5088 11.5238Z" fill="#50AF69"/>
<path d="M13.7686 11.8645C13.7692 11.8649 13.7697 11.8652 13.7702 11.8656L13.7675 11.8649C13.7675 11.8649 13.7684 11.8646 13.7686 11.8645Z" fill="#50AF69"/>
<path d="M13.7266 11.0161C13.7266 11.0161 13.8203 11.2617 13.6748 11.404C13.6748 11.404 13.4852 11.348 13.3914 11.1508L13.4712 11.1357L13.5122 11.0128L13.648 11.0732L13.7266 11.0161Z" fill="#50AF69"/>
<path d="M13.4625 10.6211C13.4625 10.6211 13.6094 10.8392 13.5 11.0107C13.5 11.0107 13.3025 10.9991 13.1665 10.8282L13.2408 10.7955L13.2529 10.6665L13.3988 10.6946L13.4625 10.6211Z" fill="#50AF69"/>
<path d="M12 12.6724L11.8401 12.9123C11.8127 12.9533 11.8181 13.0079 11.853 13.0427L12 13.1897L12.147 13.0427C12.1818 13.0079 12.1872 12.9533 12.1599 12.9123L12 12.6724Z" fill="#41479B"/>
<path d="M12.0681 12.9123L12 12.6724L11.9318 12.9123C11.9202 12.9533 11.9225 13.0079 11.9373 13.0427L12 13.1897L12.0626 13.0427C12.0775 13.0078 12.0798 12.9533 12.0681 12.9123Z" fill="#F5F5F5"/>
<path d="M12 10.5259V9.87939C12 9.87939 11.7543 10.2328 11.7931 10.7501" fill="#41479B"/>
<path d="M10.8981 10.5281C10.5427 11.2995 10.9073 11.9342 10.9838 12.0537C10.9858 12.0569 11.4913 11.2392 11.4913 11.2392L10.8981 10.5281Z" fill="#41479B"/>
<path d="M11.2724 11.5928C11.2163 11.4182 11.2082 11.2143 11.2755 10.9804L11.0556 10.7168C10.8749 11.2037 10.9496 11.5632 11.1305 11.8212C11.1749 11.7498 11.2242 11.6704 11.2724 11.5928Z" fill="#F5F5F5"/>
<path d="M11.4828 11.2822C11.4674 11.2822 11.4522 11.2753 11.442 11.2622L10.7933 10.4282C10.7758 10.4057 10.7798 10.3732 10.8024 10.3557C10.825 10.3381 10.8574 10.3423 10.875 10.3648L11.5236 11.1988C11.5411 11.2213 11.5371 11.2538 11.5145 11.2713C11.5051 11.2787 11.4939 11.2822 11.4828 11.2822Z" fill="#FFE15A"/>
<path d="M10.4483 11.3296C10.2414 13.3986 11.8966 12.8813 12 12.6744L10.9655 12.1572L11.1724 11.7434L10.4483 11.3296Z" fill="#41479B"/>
<path d="M10.9485 11.5677L10.6601 11.3947C10.5952 12.6241 11.2518 12.8289 11.736 12.7679C11.3435 12.7152 10.9512 12.4253 10.9485 11.5677Z" fill="#F5F5F5"/>
<path d="M11.1723 11.795C11.163 11.795 11.1535 11.7925 11.145 11.7871L10.3174 11.27C10.2932 11.2549 10.2859 11.2229 10.301 11.1988C10.3161 11.1744 10.348 11.1671 10.3723 11.1824L11.1998 11.6995C11.224 11.7146 11.2314 11.7465 11.2163 11.7707C11.2064 11.7864 11.1895 11.795 11.1723 11.795Z" fill="#FFE15A"/>
<path d="M13.1018 10.526C13.4573 11.2974 13.0927 11.9321 13.0162 12.0516C13.0142 12.0548 12.5087 11.2371 12.5087 11.2371L13.1018 10.526Z" fill="#41479B"/>
<path d="M12.7276 11.5908C12.7837 11.4162 12.7918 11.2123 12.7245 10.9783L12.9444 10.7147C13.1251 11.2016 13.0504 11.5612 12.8695 11.8192C12.8251 11.7478 12.7758 11.6684 12.7276 11.5908Z" fill="#F5F5F5"/>
<path d="M12.5172 11.2802C12.5061 11.2802 12.4949 11.2767 12.4855 11.2693C12.4629 11.2518 12.4589 11.2192 12.4764 11.1967L13.125 10.3628C13.1426 10.3402 13.1751 10.3362 13.1976 10.3537C13.2202 10.3712 13.2242 10.4037 13.2067 10.4262L12.558 11.2602C12.5479 11.2733 12.5326 11.2802 12.5172 11.2802Z" fill="#FFE15A"/>
<path d="M13.5517 11.3276C13.7586 13.3965 12.1034 12.8793 12 12.6724L13.0345 12.1552L12.8276 11.7414L13.5517 11.3276Z" fill="#41479B"/>
<path d="M13.0515 11.5656L13.3399 11.3926C13.4048 12.6221 12.7482 12.8268 12.264 12.7658C12.6565 12.7131 13.0488 12.4233 13.0515 11.5656Z" fill="#F5F5F5"/>
<path d="M12.8277 11.793C12.8105 11.793 12.7936 11.7844 12.7837 11.7686C12.7686 11.7445 12.776 11.7126 12.8002 11.6974L13.6277 11.1803C13.652 11.165 13.6838 11.1724 13.699 11.1968C13.7141 11.2209 13.7068 11.2528 13.6826 11.268L12.855 11.7851C12.8465 11.7905 12.837 11.793 12.8277 11.793Z" fill="#FFE15A"/>
<path d="M12 11.8447C12.2285 11.8447 12.4138 11.6595 12.4138 11.4309C12.4138 11.2024 12.2285 11.0171 12 11.0171C11.7715 11.0171 11.5862 11.2024 11.5862 11.4309C11.5862 11.6595 11.7715 11.8447 12 11.8447Z" fill="#FFE6E6"/>
<path d="M12 11.6378C12.1143 11.6378 12.2069 11.5452 12.2069 11.4309C12.2069 11.3167 12.1143 11.224 12 11.224C11.8857 11.224 11.7931 11.3167 11.7931 11.4309C11.7931 11.5452 11.8857 11.6378 12 11.6378Z" fill="#F5F5F5"/>
<path d="M12 12.1035C11.9714 12.1035 11.9483 12.0803 11.9483 12.0518V11.4311C11.9483 11.4025 11.9714 11.3794 12 11.3794C12.0286 11.3794 12.0517 11.4025 12.0517 11.4311V12.0518C12.0517 12.0803 12.0286 12.1035 12 12.1035Z" fill="#FFE15A"/>
<path d="M13.4138 12.6638H10.6422L10.9655 12.0486H13.0431L13.4138 12.6638Z" fill="#5AA0E6"/>
<path d="M12.0841 12.1638H12.8049L12.5807 11.9396C12.5702 11.9291 12.5573 11.9211 12.5432 11.9164L12.4651 11.8904C12.437 11.881 12.4061 11.8852 12.3815 11.9016L12.1323 12.0677L12.0841 12.1638Z" fill="#FFB750"/>
<path d="M11.839 12.2026H12.6993L12.4317 11.935C12.4192 11.9224 12.4038 11.9129 12.3869 11.9073L12.2937 11.8763C12.2602 11.8651 12.2233 11.87 12.1938 11.8897L11.8964 12.088L11.839 12.2026Z" fill="#FFC455"/>
<path d="M11.5398 12.2457H12.5787L12.2556 11.9225C12.2404 11.9073 12.2219 11.8958 12.2014 11.8891L12.0889 11.8516C12.0484 11.8381 12.0038 11.844 11.9683 11.8677L11.6092 12.1071L11.5398 12.2457Z" fill="#FFCD55"/>
<path d="M11.2437 12.2845H12.4332L12.0631 11.9145C12.0457 11.897 12.0245 11.8839 12.0011 11.8761L11.8723 11.8332C11.8259 11.8177 11.7749 11.8245 11.7342 11.8517L11.3229 12.1259L11.2437 12.2845Z" fill="#FFD25A"/>
<path d="M10.7586 12.3621H12.3103L11.8276 11.8794C11.8049 11.8567 11.7772 11.8396 11.7468 11.8294L11.5788 11.7734C11.5182 11.7533 11.4517 11.7621 11.3986 11.7975L10.8621 12.1552L10.7586 12.3621Z" fill="#FFE15A"/>
<path d="M12.1116 11.5239H11.888L11.9395 11.3079H12.0172C12.0424 11.3079 12.0643 11.3252 12.0701 11.3497L12.1116 11.5239Z" fill="#FF4B55"/>
<path d="M12.0988 11.5586H11.898C11.8815 11.5586 11.8683 11.5452 11.8683 11.5289V11.5189C11.8683 11.5025 11.8816 11.4892 11.898 11.4892H12.0988C12.1153 11.4892 12.1285 11.5025 12.1285 11.5189V11.5289C12.1285 11.5452 12.1152 11.5586 12.0988 11.5586Z" fill="#FF4B55"/>
<path d="M11.966 11.4062L11.9158 11.3935C11.9007 11.3897 11.8941 11.3719 11.9032 11.3591L11.9395 11.3079L11.966 11.4062Z" fill="#FF4B55"/>
<path d="M11.742 10.8997C11.7395 10.9186 11.737 10.9377 11.7346 10.9567C11.815 10.9079 11.9037 10.8786 12 10.8786C12.0962 10.8787 12.185 10.9078 12.2654 10.9567C12.263 10.9376 12.2605 10.9186 12.258 10.8997C12.1781 10.8579 12.092 10.8339 12 10.834C11.908 10.8339 11.822 10.8579 11.742 10.8997Z" fill="#41479B"/>
<path d="M11.7451 10.8749C11.7427 10.8939 11.7402 10.9129 11.7378 10.9319C11.8173 10.883 11.9049 10.8537 11.9999 10.8536C12.095 10.8537 12.1826 10.883 12.2621 10.9319C12.2597 10.9129 12.2572 10.8939 12.2548 10.8749C12.1757 10.8329 12.0907 10.8091 11.9999 10.809C11.9092 10.809 11.8242 10.833 11.7451 10.8749Z" fill="#5AA0E6"/>
<path d="M11.7481 10.852C11.7457 10.871 11.7432 10.89 11.7407 10.909C11.8194 10.86 11.9061 10.8304 12 10.8305C12.0939 10.8305 12.1805 10.86 12.2592 10.909C12.2567 10.89 12.2543 10.871 12.2518 10.852C12.1736 10.81 12.0897 10.7858 11.9999 10.7858C11.9103 10.7858 11.8264 10.8099 11.7481 10.852Z" fill="#9BC800"/>
<path d="M11.7515 10.8258C11.749 10.8448 11.7465 10.8638 11.7441 10.8828C11.8219 10.8336 11.9073 10.804 12 10.804C12.0926 10.8041 12.1781 10.8335 12.2558 10.8828C12.2534 10.8638 12.2509 10.8448 12.2485 10.8258C12.1712 10.7836 12.0885 10.7594 12 10.7594C11.9115 10.7594 11.8288 10.7836 11.7515 10.8258Z" fill="#FFE14E"/>
<path d="M11.7548 10.8001C11.7524 10.819 11.7499 10.8381 11.7474 10.8571C11.8244 10.8077 11.9085 10.7781 12 10.778C12.0914 10.7781 12.1756 10.8076 12.2525 10.8571C12.25 10.8381 12.2475 10.819 12.2451 10.8001C12.1687 10.7578 12.0871 10.7334 12 10.7334C11.9128 10.7335 11.8312 10.7577 11.7548 10.8001Z" fill="#FFB14E"/>
<path d="M11.7562 10.7891C11.7545 10.8024 11.7528 10.8157 11.7511 10.829C11.827 10.7796 11.91 10.7497 12 10.7497C12.09 10.7496 12.1731 10.7795 12.249 10.829C12.2473 10.8157 12.2456 10.8024 12.2439 10.7891C12.168 10.7467 12.0868 10.7224 12.0001 10.7223C11.9133 10.7222 11.8321 10.7467 11.7562 10.7891Z" fill="#FF4B55"/>
<path d="M13.4483 12.7242H10.5518C10.5327 12.7242 10.5152 12.7137 10.5062 12.6969C10.4972 12.68 10.4982 12.6596 10.5087 12.6438L11.957 10.4714C11.9762 10.4427 12.0239 10.4427 12.0431 10.4714L13.4914 12.6438C13.5019 12.6597 13.503 12.6801 13.494 12.6969C13.4849 12.7137 13.4674 12.7242 13.4483 12.7242ZM10.6484 12.6207H13.3517L12 10.5933L10.6484 12.6207Z" fill="#FFE15A"/>
<path d="M12 10.0345C11.9714 10.0345 11.9483 10.0114 11.9483 9.98282V9.77592C11.9483 9.74732 11.9714 9.72421 12 9.72421C12.0286 9.72421 12.0517 9.74732 12.0517 9.77592V9.98282C12.0517 10.0114 12.0286 10.0345 12 10.0345Z" fill="#FFE15A"/>
<path d="M12.1035 10.0345H11.8966C11.868 10.0345 11.8449 10.0114 11.8449 9.98282C11.8449 9.95423 11.868 9.93112 11.8966 9.93112H12.1035C12.1321 9.93112 12.1552 9.95423 12.1552 9.98282C12.1552 10.0114 12.1321 10.0345 12.1035 10.0345Z" fill="#FFE15A"/>
<path d="M12 13.7586C11.9962 13.7586 11.9924 13.7582 11.9887 13.7575C11.9381 13.7461 11.7692 13.7056 11.7194 13.6563C11.6561 13.5934 11.6557 13.4909 11.7185 13.4276C11.7489 13.3969 11.7894 13.38 11.8326 13.3799H11.8332C11.8762 13.3799 11.9166 13.3965 11.9471 13.4269C11.9969 13.4764 12.0387 13.6449 12.0503 13.6954C12.0543 13.7126 12.0491 13.7308 12.0366 13.7434C12.0268 13.7532 12.0136 13.7586 12 13.7586ZM11.8332 13.4832C11.8194 13.4878 11.8028 13.4894 11.7918 13.5004C11.7693 13.5231 11.7694 13.5601 11.7922 13.5828C11.8047 13.5949 11.8606 13.6161 11.9277 13.6352C11.9081 13.5684 11.8866 13.5127 11.8742 13.5002L11.9106 13.4635L11.8741 13.5002C11.8632 13.4892 11.8486 13.4832 11.8332 13.4832Z" fill="#41479B"/>
<path d="M12 13.7586C11.9863 13.7586 11.9731 13.7533 11.9633 13.7434C11.9508 13.7307 11.9456 13.7125 11.9496 13.6953C11.9612 13.6447 12.003 13.4763 12.0528 13.4268C12.0834 13.3963 12.12 13.3826 12.1673 13.3798C12.2104 13.3799 12.2509 13.3969 12.2813 13.4275C12.3442 13.4908 12.3438 13.5934 12.2805 13.6561C12.2307 13.7056 12.0617 13.7461 12.0111 13.7574C12.0075 13.7582 12.0037 13.7586 12 13.7586ZM12.0893 13.4635L12.1257 13.5001C12.1133 13.5126 12.0918 13.5684 12.0722 13.6352C12.1393 13.6161 12.1952 13.595 12.2078 13.5826C12.2304 13.5601 12.2306 13.5231 12.208 13.5004C12.1971 13.4894 12.1825 13.4832 12.167 13.4832H12.1668C12.1513 13.4832 12.1368 13.4892 12.1258 13.5001L12.0893 13.4635ZM12.0893 13.4635H12.0903H12.0893Z" fill="#41479B"/>
<path d="M11.7931 14.069C11.7645 14.069 11.7413 14.0459 11.7413 14.0173C11.7413 13.7811 11.9672 13.6655 11.9768 13.6607C12.0025 13.6478 12.0333 13.6583 12.0461 13.6837C12.059 13.7091 12.0487 13.7402 12.0233 13.7531C12.0215 13.754 11.8448 13.8457 11.8448 14.0172C11.8448 14.0459 11.8216 14.069 11.7931 14.069Z" fill="#41479B"/>
<path d="M12.2069 14.069C12.1783 14.069 12.1552 14.0459 12.1552 14.0173C12.1552 13.8458 11.9785 13.754 11.9767 13.7532C11.9513 13.7402 11.9411 13.7092 11.9539 13.6837C11.9668 13.6584 11.9975 13.6479 12.0232 13.6607C12.0328 13.6656 12.2587 13.7811 12.2587 14.0173C12.2586 14.0459 12.2355 14.069 12.2069 14.069Z" fill="#41479B"/>
</svg>
