<svg xmlns="http://www.w3.org/2000/svg" width="24" height="24" viewBox="0 0 24 24" fill="none"><rect width="24" height="24" fill="none"/>
<path d="M1.79742 19.8619H8.00002V4.13779H1.79742C0.804703 4.13779 0 4.94249 0 5.93521V18.0645C0 19.0572 0.804703 19.8619 1.79742 19.8619Z" fill="#73AF00"/>
<path d="M16.0003 4.13797H8.00016V19.8622H16.0003V4.13797Z" fill="#FF4B55"/>
<path d="M22.2026 19.8619C23.1952 19.8619 24 19.0572 24 18.0645V5.93521C24 4.94254 23.1953 4.13779 22.2026 4.13779H16V19.8619H22.2026Z" fill="#FFE15A"/>
<path d="M12.086 10.4831L12.4415 11.5491L13.5651 11.5578C13.6521 11.5585 13.6882 11.6696 13.6182 11.7213L12.7143 12.3888L13.0532 13.4602C13.0795 13.5432 12.985 13.6118 12.9141 13.5612L12 12.9078L11.0858 13.5612C11.015 13.6118 10.9205 13.5431 10.9468 13.4602L11.2857 12.3888L10.3818 11.7213C10.3117 11.6696 10.3478 11.5585 10.4349 11.5578L11.5585 11.5491L11.914 10.4831C11.9416 10.4006 12.0584 10.4006 12.086 10.4831Z" fill="#FFE15A"/>
</svg>
