<svg xmlns="http://www.w3.org/2000/svg" width="24" height="24" viewBox="0 0 24 24" fill="none"><rect width="24" height="24" fill="none"/>
<path d="M22.2026 19.8621H1.79742C0.804703 19.8621 0 19.0574 0 18.0646V5.93536C0 4.94269 0.804703 4.13794 1.79742 4.13794H22.2026C23.1952 4.13794 24 4.94264 24 5.93536V18.0647C24 19.0574 23.1953 19.8621 22.2026 19.8621Z" fill="#FF4B55"/>
<path d="M12.047 7.86207C14.3306 7.86207 16.1816 9.71804 16.1816 12C16.1816 14.2886 14.3306 16.1379 12.047 16.1379C9.75843 16.1379 7.90575 14.2886 7.90575 12C7.9057 9.71804 9.75839 7.86207 12.047 7.86207Z" fill="#F5F5F5"/>
<path d="M12.7988 14.3187C11.5179 14.3187 10.4789 13.2797 10.4789 12.0002C10.4789 10.7238 11.5178 9.68485 12.7988 9.68485C13.2346 9.68485 13.6417 9.80692 13.9897 10.0178C14.0418 10.0494 14.0967 9.9811 14.0532 9.93831C13.5311 9.4239 12.8162 9.10529 12.0265 9.10529C10.4234 9.10529 9.1254 10.4034 9.1254 12.0003C9.1254 13.6004 10.4234 14.8984 12.0265 14.8984C12.8158 14.8984 13.5304 14.58 14.0524 14.0657C14.0959 14.0229 14.041 13.9547 13.9889 13.9862C13.6411 14.1969 13.2342 14.3187 12.7988 14.3187Z" fill="#FF4B55"/>
<path d="M12.5868 10.3776L13.2263 11.246L14.255 10.922C14.3882 10.88 14.4981 11.0318 14.4168 11.1452L13.7886 12.0218L14.4146 12.9C14.4957 13.0137 14.3853 13.1652 14.2522 13.1229L13.2244 12.7963L12.5826 13.663C12.4995 13.7751 12.3214 13.7171 12.3205 13.5774L12.3135 12.499L11.2909 12.1565C11.1585 12.1121 11.1588 11.9248 11.2913 11.8808L12.3148 11.5408L12.3245 10.4624C12.3257 10.3228 12.504 10.2651 12.5868 10.3776Z" fill="#FF4B55"/>
</svg>
