<svg xmlns="http://www.w3.org/2000/svg" width="24" height="24" viewBox="0 0 24 24" fill="none"><rect width="24" height="24" fill="none"/>
<path d="M22.2026 4.13794H1.79742C0.804703 4.13794 0 4.94264 0 5.93536V12H24V5.93536C24 4.94264 23.1953 4.13794 22.2026 4.13794Z" fill="#41479B"/>
<path d="M0 18.0646C0 19.0573 0.804703 19.8621 1.79742 19.8621H22.2026C23.1952 19.8621 24 19.0574 24 18.0646V12H0V18.0646Z" fill="#FF4B55"/>
<path d="M7.68882 8.8447C7.68343 8.82881 7.67129 8.81587 7.65563 8.80959C7.65404 8.80898 7.62155 8.79661 7.56943 8.78194C7.59235 8.75091 7.60852 8.71453 7.60852 8.67309C7.60852 8.63756 7.59591 8.6062 7.57861 8.57789C7.6359 8.54587 7.67625 8.48695 7.67625 8.41687C7.67625 8.36133 7.65076 8.31277 7.61213 8.2785C7.65844 8.24447 7.69051 8.1922 7.69051 8.13052C7.69051 8.06166 7.65132 8.00386 7.59568 7.97142C7.62488 7.93842 7.6441 7.89623 7.6441 7.8488C7.6441 7.76625 7.5894 7.69823 7.51496 7.67358C7.53193 7.64545 7.54435 7.61428 7.54435 7.57908C7.54435 7.47764 7.46283 7.39566 7.36191 7.39308C7.36608 7.37752 7.37152 7.36237 7.37152 7.3455C7.37152 7.24242 7.28766 7.15856 7.18454 7.15856C7.16715 7.15856 7.15149 7.16405 7.13551 7.1685C7.13579 7.16437 7.1379 7.16086 7.1379 7.15659C7.1379 7.05352 7.05404 6.96966 6.95096 6.96966C6.91552 6.96966 6.8843 6.98217 6.85599 6.99933C6.83419 6.9203 6.76472 6.86086 6.6789 6.86086C6.62738 6.86086 6.58069 6.88181 6.54685 6.91566C6.51521 6.85725 6.45544 6.81605 6.38447 6.81605C6.31969 6.81605 6.26536 6.85116 6.2318 6.90127C6.19768 6.86498 6.1501 6.84169 6.09647 6.84169C6.02729 6.84169 5.96916 6.8812 5.93686 6.93717C5.90265 6.89883 5.85422 6.87361 5.79886 6.87361C5.73043 6.87361 5.67305 6.91233 5.64047 6.96727C5.60865 6.94223 5.57035 6.92489 5.52685 6.92489C5.44829 6.92489 5.38149 6.97392 5.35388 7.04278C5.32022 7.01025 5.2748 6.98972 5.22436 6.98972C5.15307 6.98972 5.09302 7.03125 5.06152 7.09008C5.04774 7.08155 5.03368 7.0748 5.01788 7.07006C5.0573 7.01184 5.08032 6.94162 5.08032 6.86616C5.08032 6.71967 4.99304 6.59395 4.86821 6.53587L4.92061 6.43102C4.92872 6.41484 4.92872 6.39562 4.92061 6.37941L4.85752 6.25322C4.86211 6.24905 4.86647 6.24469 4.87065 6.24009L4.99697 6.30319C5.00508 6.30722 5.01385 6.30919 5.02266 6.30919C5.03147 6.30919 5.04029 6.30708 5.04835 6.30305L5.35557 6.14944C5.37516 6.13964 5.38744 6.11976 5.38744 6.09797C5.38744 6.07617 5.37511 6.0563 5.35557 6.0465L5.04835 5.89289C5.03218 5.88478 5.01305 5.88478 4.99688 5.89289L4.87069 5.95598C4.86647 5.95134 4.86207 5.94694 4.85747 5.94267L4.92057 5.81648C4.92868 5.80031 4.92868 5.78109 4.92057 5.76487L4.76696 5.45766C4.74746 5.41866 4.68338 5.41866 4.66388 5.45766L4.51027 5.76487C4.50216 5.78105 4.50216 5.80031 4.51027 5.81648L4.57336 5.94267C4.56877 5.94684 4.56441 5.9512 4.56024 5.9558L4.43391 5.8927C4.41774 5.88459 4.39861 5.88473 4.38244 5.89284L4.07522 6.04645C4.05563 6.05625 4.04335 6.07612 4.04335 6.09792C4.04335 6.11972 4.05568 6.13959 4.07522 6.14939L4.38244 6.303C4.39055 6.30703 4.39932 6.30914 4.40813 6.30914C4.41699 6.30914 4.42575 6.30703 4.43382 6.303L4.56001 6.23991C4.56422 6.24455 4.56863 6.24895 4.57322 6.25322L4.51013 6.37941C4.50202 6.39558 4.50202 6.41484 4.51013 6.43102L4.56254 6.53587C4.43771 6.59391 4.35043 6.71967 4.35043 6.86616C4.35043 6.94008 4.37288 7.0087 4.4108 7.06622C4.38797 7.07058 4.3673 7.07822 4.34818 7.09012C4.31668 7.0313 4.25663 6.98977 4.18533 6.98977C4.13494 6.98977 4.08947 7.01025 4.05582 7.04283C4.02826 6.97397 3.96146 6.92494 3.88285 6.92494C3.8393 6.92494 3.80096 6.94228 3.76922 6.96731C3.73665 6.91237 3.67922 6.87366 3.61083 6.87366C3.55547 6.87366 3.50705 6.89887 3.47283 6.93722C3.44049 6.8812 3.38241 6.84173 3.31322 6.84173C3.25965 6.84173 3.21202 6.86508 3.1779 6.90131C3.14433 6.8512 3.08996 6.81609 3.02522 6.81609C2.95426 6.81609 2.89454 6.8573 2.86285 6.9157C2.82901 6.88186 2.78232 6.86091 2.7308 6.86091C2.64493 6.86091 2.57546 6.92034 2.55371 6.99937C2.52549 6.98222 2.49418 6.9697 2.45874 6.9697C2.35566 6.9697 2.2718 7.05356 2.2718 7.15664C2.2718 7.16081 2.27391 7.16442 2.27419 7.16855C2.25821 7.16409 2.24255 7.15861 2.22516 7.15861C2.12204 7.15861 2.03818 7.24247 2.03818 7.34555C2.03818 7.36242 2.04361 7.37756 2.04779 7.39312C1.94686 7.3957 1.86535 7.47769 1.86535 7.57912C1.86535 7.61433 1.87777 7.6455 1.89474 7.67362C1.8203 7.69828 1.7656 7.76625 1.7656 7.84884C1.7656 7.89628 1.78477 7.93847 1.81402 7.97147C1.75843 8.00391 1.71919 8.06166 1.71919 8.13056C1.71919 8.19234 1.75126 8.24452 1.79757 8.27855C1.75894 8.31286 1.73344 8.36137 1.73344 8.41692C1.73344 8.487 1.77385 8.54592 1.83108 8.57794C1.81379 8.6063 1.80118 8.63761 1.80118 8.67314C1.80118 8.71678 1.81857 8.75522 1.84369 8.78705C1.80207 8.79937 1.77652 8.80908 1.77511 8.80964C1.75946 8.81597 1.74727 8.82881 1.74193 8.84475C1.73654 8.86078 1.73846 8.87836 1.74708 8.89289C1.75163 8.90039 2.20458 9.66098 2.35454 10.4106C2.35824 10.4292 2.37169 10.4411 2.38754 10.4486C2.50271 10.6042 3.50063 10.7258 4.71535 10.7258C5.93007 10.7258 6.92794 10.6042 7.04316 10.4486C7.05901 10.4411 7.0725 10.4292 7.07616 10.4106C7.22597 9.66155 7.67902 8.90039 7.68361 8.89289C7.69229 8.87836 7.69421 8.86078 7.68882 8.8447Z" fill="#FFE15A"/>
<path d="M7.68882 8.8447C7.68343 8.82881 7.67129 8.81587 7.65563 8.80959C7.65404 8.80898 7.62155 8.79661 7.56943 8.78194C7.59235 8.75091 7.60852 8.71453 7.60852 8.67309C7.60852 8.63756 7.59591 8.6062 7.57861 8.57789C7.6359 8.54587 7.67625 8.48695 7.67625 8.41687C7.67625 8.36133 7.65076 8.31277 7.61213 8.2785C7.65844 8.24447 7.69051 8.1922 7.69051 8.13052C7.69051 8.06166 7.65132 8.00386 7.59568 7.97142C7.62488 7.93842 7.6441 7.89623 7.6441 7.8488C7.6441 7.76625 7.5894 7.69823 7.51496 7.67358C7.53193 7.64545 7.54435 7.61428 7.54435 7.57908C7.54435 7.47764 7.46283 7.39566 7.36191 7.39308C7.36608 7.37752 7.37152 7.36237 7.37152 7.3455C7.37152 7.24242 7.28766 7.15856 7.18454 7.15856C7.16715 7.15856 7.15149 7.16405 7.13551 7.1685C7.13579 7.16437 7.1379 7.16086 7.1379 7.15659C7.1379 7.05352 7.05404 6.96966 6.95096 6.96966C6.91552 6.96966 6.8843 6.98217 6.85599 6.99933C6.83419 6.9203 6.76472 6.86086 6.6789 6.86086C6.62738 6.86086 6.58069 6.88181 6.54685 6.91566C6.51521 6.85725 6.45544 6.81605 6.38447 6.81605C6.31969 6.81605 6.26536 6.85116 6.2318 6.90127C6.19768 6.86498 6.1501 6.84169 6.09647 6.84169C6.02729 6.84169 5.96916 6.8812 5.93686 6.93717C5.90265 6.89883 5.85422 6.87361 5.79886 6.87361C5.73043 6.87361 5.67305 6.91233 5.64047 6.96727C5.60865 6.94223 5.57035 6.92489 5.52685 6.92489C5.44829 6.92489 5.38149 6.97392 5.35388 7.04278C5.32022 7.01025 5.2748 6.98972 5.22436 6.98972C5.15307 6.98972 5.09302 7.03125 5.06152 7.09008C5.04774 7.08155 5.03368 7.0748 5.01788 7.07006C5.0573 7.01184 5.08032 6.94162 5.08032 6.86616C5.08032 6.71967 4.99304 6.59395 4.86821 6.53587L4.92061 6.43102C4.92872 6.41484 4.92872 6.39562 4.92061 6.37941L4.85752 6.25322C4.86211 6.24905 4.86647 6.24469 4.87065 6.24009L4.99697 6.30319C5.00508 6.30722 5.01385 6.30919 5.02266 6.30919C5.03147 6.30919 5.04029 6.30708 5.04835 6.30305L5.35557 6.14944C5.37516 6.13964 5.38744 6.11976 5.38744 6.09797C5.38744 6.07617 5.37511 6.0563 5.35557 6.0465L5.04835 5.89289C5.03218 5.88478 5.01305 5.88478 4.99688 5.89289L4.87069 5.95598C4.86647 5.95134 4.86207 5.94694 4.85747 5.94267L4.92057 5.81648C4.92868 5.80031 4.92868 5.78109 4.92057 5.76487L4.76696 5.45766C4.74746 5.41866 4.68338 5.41866 4.66388 5.45766L4.51027 5.76487C4.50216 5.78105 4.50216 5.80031 4.51027 5.81648L4.57336 5.94267C4.56877 5.94684 4.56441 5.9512 4.56024 5.9558L4.43391 5.8927C4.41774 5.88459 4.39861 5.88473 4.38244 5.89284L4.07522 6.04645C4.05563 6.05625 4.04335 6.07612 4.04335 6.09792C4.04335 6.11972 4.05568 6.13959 4.07522 6.14939L4.38244 6.303C4.39055 6.30703 4.39932 6.30914 4.40813 6.30914C4.41699 6.30914 4.42575 6.30703 4.43382 6.303L4.56001 6.23991C4.56422 6.24455 4.56863 6.24895 4.57322 6.25322L4.51013 6.37941C4.50202 6.39558 4.50202 6.41484 4.51013 6.43102L4.56254 6.53587C4.43771 6.59391 4.35043 6.71967 4.35043 6.86616C4.35043 6.94008 4.37288 7.0087 4.4108 7.06622C4.38797 7.07058 4.3673 7.07822 4.34818 7.09012C4.31668 7.0313 4.25663 6.98977 4.18533 6.98977C4.13494 6.98977 4.08947 7.01025 4.05582 7.04283C4.02826 6.97397 3.96146 6.92494 3.88285 6.92494C3.8393 6.92494 3.80096 6.94228 3.76922 6.96731C3.73665 6.91237 3.67922 6.87366 3.61083 6.87366C3.55547 6.87366 3.50705 6.89887 3.47283 6.93722C3.44049 6.8812 3.38241 6.84173 3.31322 6.84173C3.25965 6.84173 3.21202 6.86508 3.1779 6.90131C3.14433 6.8512 3.08996 6.81609 3.02522 6.81609C2.95426 6.81609 2.89454 6.8573 2.86285 6.9157C2.82901 6.88186 2.78232 6.86091 2.7308 6.86091C2.64493 6.86091 2.57546 6.92034 2.55371 6.99937C2.52549 6.98222 2.49418 6.9697 2.45874 6.9697C2.35566 6.9697 2.2718 7.05356 2.2718 7.15664C2.2718 7.16081 2.27391 7.16442 2.27419 7.16855C2.25821 7.16409 2.24255 7.15861 2.22516 7.15861C2.12204 7.15861 2.03818 7.24247 2.03818 7.34555C2.03818 7.36242 2.04361 7.37756 2.04779 7.39312C1.94686 7.3957 1.86535 7.47769 1.86535 7.57912C1.86535 7.61433 1.87777 7.6455 1.89474 7.67362C1.8203 7.69828 1.7656 7.76625 1.7656 7.84884C1.7656 7.89628 1.78477 7.93847 1.81402 7.97147C1.75843 8.00391 1.71919 8.06166 1.71919 8.13056C1.71919 8.19234 1.75126 8.24452 1.79757 8.27855C1.75894 8.31286 1.73344 8.36137 1.73344 8.41692C1.73344 8.487 1.77385 8.54592 1.83108 8.57794C1.81379 8.6063 1.80118 8.63761 1.80118 8.67314C1.80118 8.71678 1.81857 8.75522 1.84369 8.78705C1.80207 8.79937 1.77652 8.80908 1.77511 8.80964C1.75946 8.81597 1.74727 8.82881 1.74193 8.84475C1.73654 8.86078 1.73846 8.87836 1.74708 8.89289C1.75163 8.90039 2.20458 9.66098 2.35454 10.4106C2.35824 10.4292 2.37169 10.4411 2.38754 10.4486C2.50271 10.6042 3.50063 10.7258 4.71535 10.7258C5.93007 10.7258 6.92794 10.6042 7.04316 10.4486C7.05901 10.4411 7.0725 10.4292 7.07616 10.4106C7.22597 9.66155 7.67902 8.90039 7.68361 8.89289C7.69229 8.87836 7.69421 8.86078 7.68882 8.8447ZM6.06029 8.47364V7.57209C6.13336 7.56577 6.20443 7.56375 6.27277 7.56614V8.5027C6.20921 8.472 6.13744 8.46305 6.06029 8.47364ZM5.39719 7.2457C5.39879 7.24725 5.40104 7.24791 5.40268 7.24941C5.40024 7.24992 5.3978 7.25044 5.39532 7.251C5.39611 7.24922 5.39654 7.24748 5.39719 7.2457ZM7.42154 8.60142C7.46105 8.60142 7.49321 8.63353 7.49321 8.67309C7.49321 8.7127 7.46105 8.74477 7.42154 8.74477C7.38202 8.74477 7.34986 8.71266 7.34986 8.67309C7.34986 8.63348 7.38202 8.60142 7.42154 8.60142ZM7.48918 8.48855C7.44966 8.48855 7.41751 8.45644 7.41751 8.41687C7.41751 8.37727 7.44966 8.3452 7.48918 8.3452C7.52879 8.3452 7.56099 8.37731 7.56099 8.41687C7.56099 8.45648 7.52883 8.48855 7.48918 8.48855ZM7.43185 8.13047C7.43185 8.09086 7.46401 8.0588 7.50352 8.0588C7.54304 8.0588 7.57519 8.09091 7.57519 8.13047C7.57519 8.17008 7.54304 8.20214 7.50352 8.20214C7.46401 8.20219 7.43185 8.17008 7.43185 8.13047ZM5.28961 8.8447C5.2208 8.58309 5.13151 8.1893 5.09382 7.79564C5.13343 7.78177 5.20149 7.75903 5.28961 7.73236V8.8447ZM4.32933 7.80033C4.28879 8.21925 4.18983 8.63888 4.12013 8.8972V7.73227C4.21894 7.76217 4.29305 7.78744 4.32933 7.80033ZM4.78711 7.32698C4.78711 7.36659 4.75496 7.39866 4.71544 7.39866C4.67593 7.39866 4.64377 7.36655 4.64377 7.32698C4.64377 7.28737 4.67593 7.25531 4.71544 7.25531C4.75496 7.25522 4.78711 7.28737 4.78711 7.32698ZM4.0126 7.24608L4.01213 7.24598C4.01213 7.24598 4.01241 7.24584 4.0125 7.2457C4.01255 7.24584 4.01255 7.24598 4.0126 7.24608ZM1.90618 8.0588C1.94569 8.0588 1.97785 8.09091 1.97785 8.13047C1.97785 8.17008 1.94569 8.20214 1.90618 8.20214C1.86666 8.20214 1.83451 8.17003 1.83451 8.13047C1.83446 8.09086 1.86666 8.0588 1.90618 8.0588ZM1.99219 8.41687C1.99219 8.45648 1.96004 8.48855 1.92052 8.48855C1.88091 8.48855 1.84871 8.45644 1.84871 8.41687C1.84871 8.37727 1.88086 8.3452 1.92052 8.3452C1.96004 8.34516 1.99219 8.37722 1.99219 8.41687ZM1.98816 8.60142C2.02768 8.60142 2.05983 8.63353 2.05983 8.67309C2.05983 8.7127 2.02768 8.74477 1.98816 8.74477C1.94865 8.74477 1.91649 8.71266 1.91649 8.67309C1.91644 8.63348 1.94865 8.60142 1.98816 8.60142ZM2.28399 7.63078C2.39677 7.44834 2.6169 7.23094 3.02555 7.23094C3.42455 7.23094 3.98752 7.35286 4.34808 7.44248C4.34822 7.52067 4.34466 7.60083 4.33913 7.68145C4.09313 7.59581 3.11471 7.28264 2.69855 7.56745C2.2276 7.89042 2.37643 8.5065 2.46441 8.76164C2.38951 8.74134 2.31376 8.73216 2.24124 8.7307C2.07113 8.38941 2.08819 7.94761 2.28399 7.63078ZM2.60851 8.81752C2.56801 8.72334 2.30902 8.07197 2.69401 7.7197V8.86898C2.66635 8.8492 2.63766 8.83247 2.60851 8.81752ZM2.80922 7.63856C2.87007 7.60702 2.94179 7.58658 3.02171 7.5757V8.60086C2.90616 8.718 2.85479 8.8792 2.83215 9.00042C2.82483 8.99123 2.81677 8.98383 2.80918 8.97525V7.63856H2.80922ZM3.13697 7.56605C3.20532 7.56366 3.27638 7.56567 3.34946 7.572V8.47261C3.3369 8.47148 3.32377 8.46825 3.31149 8.46825C3.25486 8.46825 3.20171 8.48011 3.15343 8.50439C3.14747 8.50734 3.14265 8.51138 3.13693 8.51452V7.566H3.13697V7.56605ZM3.46468 7.58437C3.53607 7.59384 3.60732 7.60627 3.67716 7.62023V8.60634C3.60404 8.55591 3.53288 8.51944 3.46468 8.49717V7.58437ZM3.79243 7.64498C3.86794 7.66237 3.93924 7.68061 4.00491 7.69894V8.91825C3.9414 8.83786 3.86822 8.76183 3.79243 8.69569V7.64498ZM4.46279 7.47159C4.54941 7.49409 4.61775 7.5128 4.65783 7.52409V8.50116C4.50169 8.51695 4.3824 8.59669 4.29136 8.6947C4.37246 8.35692 4.45979 7.89595 4.46279 7.47159ZM4.773 7.52409C4.81205 7.51313 4.87758 7.49512 4.96093 7.47347C4.96411 7.89352 5.04976 8.34895 5.1301 8.68547C5.04019 8.59191 4.92404 8.51648 4.77305 8.50125V7.52414H4.773V7.52409V7.52409ZM5.40483 7.69903C5.47055 7.68075 5.5418 7.66247 5.61732 7.64508V8.70473C5.61732 8.70741 5.61849 8.70975 5.61886 8.71237C5.54129 8.78245 5.46783 8.86284 5.40483 8.94623V7.69903ZM5.73254 7.62033C5.80243 7.60636 5.87363 7.59394 5.94502 7.58447V8.50256C5.87668 8.52764 5.80538 8.56744 5.73254 8.62008V7.62033ZM6.38799 7.5758C6.46796 7.58667 6.53963 7.60702 6.60047 7.63861V8.98805C6.60047 8.99105 6.60169 8.99367 6.60216 8.99653C6.60104 8.99798 6.59972 8.99906 6.5986 9.00047C6.57469 8.87241 6.51779 8.70056 6.38799 8.58239V7.5758ZM6.71569 7.7198C7.12815 8.09742 6.7996 8.82159 6.79604 8.82928C6.79566 8.83008 6.79576 8.83087 6.79547 8.83167C6.7681 8.84723 6.74161 8.86552 6.71569 8.88562V7.7198ZM6.7111 7.56745C6.30319 7.28808 5.35294 7.58433 5.08411 7.67677C5.07882 7.59834 5.0754 7.52044 5.07554 7.44431C5.43572 7.35445 6.00357 7.23094 6.40519 7.23094C6.81385 7.23094 7.03402 7.44834 7.14676 7.63078C7.34255 7.94766 7.35966 8.38941 7.18955 8.73075C7.1094 8.73234 7.0254 8.74364 6.9429 8.76872C7.03051 8.51789 7.18632 7.89333 6.7111 7.56745ZM7.45711 7.92047C7.4176 7.92047 7.38544 7.88836 7.38544 7.8488C7.38544 7.80919 7.4176 7.77712 7.45711 7.77712C7.49672 7.77712 7.52893 7.80923 7.52893 7.8488C7.52893 7.88836 7.49668 7.92047 7.45711 7.92047ZM7.42913 7.57898C7.42913 7.61859 7.39697 7.65084 7.35732 7.65084C7.3178 7.65084 7.28565 7.61855 7.28565 7.57898C7.28565 7.53937 7.3178 7.50731 7.35732 7.50731C7.39697 7.50731 7.42913 7.53942 7.42913 7.57898ZM7.25635 7.34541C7.25635 7.38502 7.22419 7.41708 7.18454 7.41708C7.14502 7.41708 7.11286 7.38497 7.11286 7.34541C7.11286 7.3058 7.14502 7.27373 7.18454 7.27373C7.2241 7.27369 7.25635 7.30584 7.25635 7.34541ZM6.95096 7.08483C6.99047 7.08483 7.02263 7.11694 7.02263 7.1565C7.02263 7.19611 6.99047 7.22836 6.95096 7.22836C6.91135 7.22836 6.87915 7.19606 6.87915 7.1565C6.87915 7.11694 6.91135 7.08483 6.95096 7.08483ZM6.6789 6.97603C6.71841 6.97603 6.75057 7.00814 6.75057 7.0477C6.75057 7.08731 6.71841 7.11937 6.6789 7.11937C6.63938 7.11937 6.60722 7.08727 6.60722 7.0477C6.60718 7.00814 6.63938 6.97603 6.6789 6.97603ZM6.38447 6.93117C6.42399 6.93117 6.45615 6.96328 6.45615 7.00284C6.45615 7.04241 6.42399 7.0747 6.38447 7.0747C6.34486 7.0747 6.31266 7.04241 6.31266 7.00284C6.31266 6.96333 6.34486 6.93117 6.38447 6.93117ZM6.09643 6.95686C6.13594 6.95686 6.1681 6.98897 6.1681 7.02853C6.1681 7.06809 6.13594 7.1002 6.09643 7.1002C6.05682 7.1002 6.02461 7.06809 6.02461 7.02853C6.02461 6.98897 6.05682 6.95686 6.09643 6.95686ZM5.79882 6.98883C5.83833 6.98883 5.87049 7.02094 5.87049 7.0605C5.87049 7.10011 5.83833 7.13236 5.79882 7.13236C5.75921 7.13236 5.72701 7.10006 5.72701 7.0605C5.72701 7.02094 5.75916 6.98883 5.79882 6.98883ZM5.52671 7.04011C5.56622 7.04011 5.59838 7.07222 5.59838 7.11178C5.59838 7.15134 5.56622 7.18345 5.52671 7.18345C5.48719 7.18345 5.45504 7.15134 5.45504 7.11178C5.45504 7.07222 5.48719 7.04011 5.52671 7.04011ZM5.22432 7.10494C5.26383 7.10494 5.29599 7.13705 5.29599 7.17661C5.29599 7.21617 5.26383 7.24828 5.22432 7.24828C5.1848 7.24828 5.15265 7.21617 5.15265 7.17661C5.15265 7.13705 5.18471 7.10494 5.22432 7.10494ZM4.96505 7.31798C4.92554 7.31798 4.89338 7.28587 4.89338 7.24631C4.89338 7.2067 4.92554 7.17464 4.96505 7.17464C5.00457 7.17464 5.03672 7.20675 5.03672 7.24631C5.03672 7.28587 5.00457 7.31798 4.96505 7.31798ZM4.6194 6.09797C4.6194 6.045 4.66243 6.00197 4.7154 6.00197C4.76836 6.00197 4.8114 6.045 4.8114 6.09797C4.8114 6.15094 4.76836 6.19397 4.7154 6.19397C4.66247 6.19402 4.6194 6.15094 4.6194 6.09797ZM5.02261 6.00872L5.20107 6.09802L5.02261 6.18731L4.92263 6.1373C4.92507 6.1245 4.92661 6.11147 4.92661 6.09802C4.92661 6.08456 4.92507 6.07148 4.92263 6.05869L5.02261 6.00872ZM4.62619 5.7907L4.71535 5.6123L4.80451 5.7907L4.75449 5.89069C4.74179 5.88825 4.72871 5.8867 4.7153 5.8867C4.70185 5.8867 4.68882 5.88825 4.67611 5.89069L4.62619 5.7907ZM4.40813 6.18722L4.22968 6.09792L4.40813 6.00862L4.50811 6.05864C4.50568 6.07144 4.50413 6.08447 4.50413 6.09792C4.50413 6.11137 4.50568 6.12445 4.50811 6.13725L4.40813 6.18722ZM4.62619 6.40519L4.67621 6.3052C4.68891 6.30764 4.70199 6.30919 4.7154 6.30919C4.7288 6.30919 4.74188 6.30764 4.75458 6.3052L4.8046 6.40519L4.75463 6.50517C4.7416 6.50376 4.72885 6.50119 4.71544 6.50119C4.70199 6.50119 4.68929 6.50372 4.67626 6.50517L4.62619 6.40519ZM4.7154 6.61645C4.85302 6.61645 4.96501 6.72839 4.96501 6.86606C4.96501 7.00378 4.85302 7.11567 4.7154 7.11567C4.57777 7.11567 4.46579 7.00373 4.46579 6.86606C4.46579 6.72839 4.57772 6.61645 4.7154 6.61645ZM4.44469 7.17455C4.48421 7.17455 4.51636 7.20666 4.51636 7.24622C4.51636 7.28583 4.48421 7.31789 4.44469 7.31789C4.40518 7.31789 4.37302 7.28578 4.37302 7.24622C4.37297 7.20661 4.40513 7.17455 4.44469 7.17455ZM4.18547 7.10494C4.22499 7.10494 4.25715 7.13705 4.25715 7.17661C4.25715 7.21617 4.22499 7.24828 4.18547 7.24828C4.14596 7.24828 4.1138 7.21617 4.1138 7.17661C4.1138 7.13705 4.14591 7.10494 4.18547 7.10494ZM3.88299 7.04011C3.9225 7.04011 3.95466 7.07222 3.95466 7.11178C3.95466 7.15134 3.9225 7.18345 3.88299 7.18345C3.84347 7.18345 3.81132 7.15134 3.81132 7.11178C3.81132 7.07222 3.84347 7.04011 3.88299 7.04011ZM3.61097 6.98883C3.65058 6.98883 3.68279 7.02094 3.68279 7.0605C3.68279 7.10011 3.65063 7.13236 3.61097 7.13236C3.57146 7.13236 3.5393 7.10006 3.5393 7.0605C3.53921 7.02094 3.57141 6.98883 3.61097 6.98883ZM3.31332 6.95686C3.35293 6.95686 3.38513 6.98897 3.38513 7.02853C3.38513 7.06809 3.35297 7.1002 3.31332 7.1002C3.2738 7.1002 3.24165 7.06809 3.24165 7.02853C3.24165 6.98897 3.2738 6.95686 3.31332 6.95686ZM3.02522 6.93117C3.06483 6.93117 3.09704 6.96328 3.09704 7.00284C3.09704 7.04241 3.06488 7.0747 3.02522 7.0747C2.98571 7.0747 2.95355 7.04241 2.95355 7.00284C2.95355 6.96333 2.98571 6.93117 3.02522 6.93117ZM2.73085 6.97603C2.77036 6.97603 2.80252 7.00814 2.80252 7.0477C2.80252 7.08731 2.77036 7.11937 2.73085 7.11937C2.69133 7.11937 2.65918 7.08727 2.65918 7.0477C2.65913 7.00814 2.69133 6.97603 2.73085 6.97603ZM2.45879 7.08483C2.4984 7.08483 2.5306 7.11694 2.5306 7.1565C2.5306 7.19611 2.49844 7.22836 2.45879 7.22836C2.41927 7.22836 2.38711 7.19606 2.38711 7.1565C2.38707 7.11694 2.41922 7.08483 2.45879 7.08483ZM2.22521 7.27369C2.26472 7.27369 2.29688 7.3058 2.29688 7.34536C2.29688 7.38497 2.26472 7.41703 2.22521 7.41703C2.1856 7.41703 2.1534 7.38492 2.1534 7.34536C2.15344 7.30584 2.1856 7.27369 2.22521 7.27369ZM2.05238 7.50731C2.0919 7.50731 2.12405 7.53942 2.12405 7.57898C2.12405 7.61859 2.0919 7.65084 2.05238 7.65084C2.01277 7.65084 1.98057 7.61855 1.98057 7.57898C1.98057 7.53942 2.01282 7.50731 2.05238 7.50731ZM1.95258 7.77703C1.9921 7.77703 2.02425 7.80914 2.02425 7.8487C2.02425 7.88831 1.9921 7.92037 1.95258 7.92037C1.91297 7.92037 1.88077 7.88827 1.88077 7.8487C1.88086 7.80909 1.91302 7.77703 1.95258 7.77703ZM6.97393 10.3396C6.70829 10.2082 5.79924 10.1113 4.71544 10.1113C3.63165 10.1113 2.72255 10.2082 2.45691 10.3396C2.31952 9.70359 1.99102 9.08822 1.88152 8.89481C2.06396 8.83884 2.58624 8.72784 2.82043 9.19622C2.83243 9.22008 2.85938 9.23269 2.88521 9.22655C2.91122 9.22041 2.92965 9.19716 2.92965 9.17044C2.92965 9.16627 2.93279 8.74359 3.20504 8.60742C3.47461 8.47331 3.91074 8.91853 4.04949 9.19627C4.04949 9.19627 4.04963 9.19636 4.04963 9.19645C4.05418 9.2055 4.06177 9.21248 4.07054 9.21811C4.07236 9.21923 4.07405 9.22027 4.07602 9.22116C4.07851 9.22237 4.08047 9.2243 4.08319 9.22519C4.08915 9.22716 4.09515 9.22805 4.10101 9.22805C4.10208 9.22805 4.10297 9.22711 4.10405 9.22706C4.10518 9.22706 4.10607 9.22777 4.10724 9.22772C4.11268 9.22711 4.11666 9.22341 4.12154 9.22139C4.12669 9.21933 4.1319 9.21834 4.13625 9.21492C4.1416 9.21075 4.14441 9.2047 4.14807 9.19884C4.15046 9.19495 4.15444 9.19266 4.15594 9.18816C4.15763 9.18286 4.1648 9.1605 4.1754 9.12562C4.22574 8.98008 4.38526 8.61361 4.71558 8.61361C4.99594 8.61361 5.15321 8.87766 5.22526 9.04659C5.24874 9.12773 5.26529 9.17972 5.26805 9.18816C5.27602 9.21263 5.29857 9.22805 5.3229 9.22805C5.32875 9.22805 5.33476 9.22716 5.34071 9.22519C5.34174 9.22481 5.34249 9.22402 5.34352 9.22364C5.35955 9.21956 5.37404 9.21155 5.38168 9.19627C5.52052 8.91839 5.95702 8.4742 6.22613 8.60742C6.24422 8.61647 6.26096 8.62697 6.27671 8.63836C6.29232 8.65153 6.30286 8.66128 6.32068 8.67558C6.4981 8.84873 6.50152 9.16673 6.50152 9.17044C6.50157 9.19711 6.51999 9.22041 6.54596 9.22655C6.57211 9.23255 6.59879 9.22008 6.61074 9.19622C6.84446 8.72887 7.36683 8.83917 7.5496 8.895C7.43972 9.08855 7.11132 9.70378 6.97393 10.3396Z" fill="#464655"/>
<path d="M4.94263 9.07312C4.93518 9.07926 4.92791 9.08578 4.9207 9.09253C4.86482 9.14512 4.7729 9.10383 4.7729 9.02704V9.01668C4.7729 8.98486 4.74707 8.95908 4.71529 8.95908C4.68351 8.95908 4.65768 8.9849 4.65768 9.01668V9.02704C4.65768 9.10383 4.56581 9.14512 4.50988 9.09253C4.50276 9.08583 4.4954 9.07936 4.48795 9.07312C4.46348 9.05301 4.4271 9.05601 4.40685 9.08076C4.38651 9.10523 4.38988 9.14156 4.4144 9.1619C4.57181 9.29226 4.65759 9.60056 4.65759 9.72239V9.78483C4.65759 9.81665 4.68341 9.84244 4.7152 9.84244C4.74698 9.84244 4.77281 9.81661 4.77281 9.78483V9.72239C4.77281 9.60056 4.85863 9.29231 5.01599 9.1619C5.04051 9.14151 5.04388 9.10523 5.02354 9.08076C5.00343 9.05625 4.9671 9.05306 4.94263 9.07312Z" fill="#464655"/>
<path d="M6.24886 9.31516C6.24206 9.31464 6.23536 9.31445 6.22856 9.31464C6.17461 9.31834 6.12192 9.24175 6.14808 9.18231C6.14916 9.17983 6.15028 9.1773 6.15141 9.17477C6.16148 9.1518 6.1538 9.1142 6.13458 9.08978C6.11541 9.06541 6.09052 9.06672 6.07861 9.09372C6.07739 9.09663 6.07608 9.09944 6.07477 9.10239C6.04758 9.16417 5.96925 9.1457 5.95692 9.05491C5.95538 9.04324 5.95378 9.03138 5.95195 9.01956C5.94591 8.98117 5.92383 8.95455 5.9003 8.96519C5.87691 8.97541 5.86111 9.01849 5.86673 9.05749C5.90006 9.31502 5.86186 9.58661 5.81822 9.68538C5.81058 9.70281 5.80284 9.72025 5.7952 9.73774C5.78334 9.76464 5.79848 9.78545 5.82938 9.7832C5.86031 9.78086 5.89392 9.75963 5.90405 9.7367C5.91075 9.72152 5.91745 9.70628 5.92411 9.69105C5.96545 9.59683 6.13866 9.38791 6.28055 9.39874C6.30338 9.3986 6.31308 9.38374 6.30398 9.36142C6.29494 9.3393 6.27089 9.31703 6.24886 9.31516Z" fill="#464655"/>
<path d="M7.10353 9.49438C7.09791 9.49438 7.09233 9.49471 7.08666 9.49537C7.04137 9.50291 7.00298 9.43265 7.02914 9.37321C7.03022 9.37072 7.03134 9.36819 7.03247 9.36566C7.04255 9.34269 7.03889 9.30683 7.02464 9.28466C7.01044 9.26249 6.98958 9.26554 6.97767 9.29258C6.97645 9.29549 6.97514 9.2983 6.97383 9.30121C6.94664 9.36299 6.88266 9.3508 6.87895 9.26385C6.87853 9.25265 6.87801 9.2413 6.8774 9.23001C6.8752 9.1933 6.8587 9.16912 6.83826 9.18116C6.81797 9.19279 6.8017 9.23563 6.80358 9.27294C6.81258 9.51983 6.76092 9.78548 6.71728 9.88424C6.70964 9.90168 6.70191 9.91912 6.69426 9.9366C6.68241 9.96351 6.69356 9.98254 6.71948 9.97813C6.7455 9.97358 6.77508 9.95062 6.78515 9.92765C6.79186 9.91246 6.79856 9.89723 6.80522 9.88199C6.84656 9.78777 7.00631 9.57294 7.12387 9.57308C7.14295 9.57126 7.15209 9.55621 7.14619 9.53526C7.14028 9.5144 7.12181 9.49457 7.10353 9.49438Z" fill="#464655"/>
<path d="M3.61167 9.68547C3.56802 9.58675 3.52982 9.31511 3.56315 9.05758C3.56877 9.01862 3.55298 8.97559 3.52959 8.96528C3.50606 8.95464 3.48393 8.98126 3.47793 9.01966C3.4761 9.03147 3.47451 9.04323 3.47296 9.055C3.46059 9.1458 3.38231 9.16417 3.35512 9.10248C3.35381 9.09958 3.35259 9.09667 3.35127 9.09381C3.33937 9.06676 3.31457 9.0655 3.29531 9.08987C3.27613 9.1143 3.2684 9.15184 3.27848 9.17486C3.27956 9.17739 3.28068 9.17992 3.28181 9.18241C3.30796 9.24184 3.25523 9.31844 3.20132 9.31473C3.19452 9.31455 3.18782 9.31473 3.18102 9.31525C3.15899 9.31712 3.1349 9.33934 3.12581 9.36156C3.11671 9.38387 3.12642 9.39869 3.14924 9.39887C3.29113 9.388 3.46434 9.59692 3.50568 9.69119C3.51234 9.70637 3.51909 9.72161 3.52574 9.73684C3.53582 9.75981 3.56943 9.781 3.60042 9.78334C3.63135 9.78564 3.64645 9.76483 3.63459 9.73787C3.62699 9.72034 3.61935 9.7029 3.61167 9.68547Z" fill="#464655"/>
<path d="M2.71261 9.88415C2.66901 9.78543 2.61731 9.51974 2.62631 9.27285C2.62818 9.23554 2.61183 9.19274 2.59162 9.18107C2.57118 9.16902 2.55468 9.19321 2.55248 9.22991C2.55183 9.24121 2.55136 9.25251 2.55093 9.26376C2.54728 9.35071 2.48329 9.36285 2.45606 9.30112C2.45475 9.29821 2.45353 9.29531 2.45222 9.29249C2.44031 9.26545 2.4195 9.2624 2.40525 9.28457C2.39104 9.30674 2.38729 9.3426 2.39742 9.36557C2.3985 9.3681 2.39962 9.37063 2.40075 9.37312C2.4269 9.43256 2.38847 9.50282 2.34323 9.49527C2.33756 9.49462 2.33193 9.49429 2.32636 9.49429C2.30808 9.49443 2.28965 9.51426 2.28365 9.53512C2.2777 9.55602 2.28693 9.57112 2.30597 9.57295C2.42353 9.57281 2.58333 9.78759 2.62462 9.88185C2.63128 9.89704 2.63803 9.91227 2.64468 9.92751C2.65476 9.95048 2.68439 9.97345 2.71036 9.97799C2.73633 9.98245 2.74743 9.96341 2.73558 9.93646C2.72798 9.91907 2.72029 9.90159 2.71261 9.88415Z" fill="#464655"/>
</svg>
