<svg xmlns="http://www.w3.org/2000/svg" width="24" height="24" viewBox="0 0 24 24" fill="none"><rect width="24" height="24" fill="none"/>
<path d="M23.1724 4.96545H0.827576V19.0345H23.1724V4.96545Z" fill="#F5F5F5"/>
<path d="M22.2026 4.13788H1.79742C0.804703 4.13788 0 4.94258 0 5.9353V18.0647C0 19.0573 0.804703 19.8621 1.79742 19.8621H22.2026C23.1952 19.8621 24 19.0574 24 18.0647V5.9353C24 4.94258 23.1953 4.13788 22.2026 4.13788ZM23.1724 19.0344H0.827578V4.96546H23.1724V19.0344Z" fill="#F5F5F5"/>
<path d="M15.3952 15.2252C15.7429 15.2252 16.0248 14.9432 16.0248 14.5955C16.0248 14.2477 15.7429 13.9658 15.3952 13.9658C15.0474 13.9658 14.7655 14.2477 14.7655 14.5955C14.7655 14.9432 15.0474 15.2252 15.3952 15.2252Z" fill="#F5F5F5"/>
<path d="M16.5001 10.9801C16.0367 11.3697 15.7251 11.3861 15.7251 11.3861C16.5494 11.0498 16.4633 10.4101 16.4633 10.4101C16.0737 10.9227 15.6758 11.0662 15.6758 11.0662C16.5043 10.5044 16.373 9.74979 16.373 9.74979C16.1024 10.3486 15.7599 10.5823 15.7599 10.5823C16.4489 9.6657 16.1106 9.07516 16.1106 9.07516C15.8399 9.92407 15.6123 10.1702 15.6123 10.1702C16.1413 8.75529 15.6882 8.34724 15.6882 8.34724C15.6882 9.10591 15.4052 9.54063 15.4052 9.54063C15.7005 8.53999 15.237 7.96582 15.237 7.96582C15.237 7.96582 15.2327 8.78163 15.0756 9.20895C15.0379 9.15166 15.0156 9.15926 15.0156 9.15926C14.9357 9.68327 14.6541 10.0522 14.5325 10.191C14.5055 10.0604 14.4243 10.0204 14.4243 10.0204C14.4243 10.0204 14.4097 10.1486 14.2946 10.3377C14.2193 10.4616 13.8632 10.7505 13.8058 11.0047C13.7597 11.2086 13.9616 11.3779 14.0272 11.4189C14.0928 11.4599 14.1625 11.5338 14.1338 11.6526C14.1051 11.7716 13.8918 11.7592 13.7401 11.7551C13.5884 11.7511 13.5679 12.0012 13.3997 11.993L13.3712 12.1796L13.3053 12.194C13.3053 12.194 12.6164 13.5669 12.5577 14.0341L12.0504 14.101L11.5431 14.0341C11.4844 13.5669 10.7955 12.194 10.7955 12.194L10.7296 12.1796L10.7011 11.993C10.533 12.0012 10.5125 11.7511 10.3607 11.7551C10.2089 11.7592 9.99567 11.7716 9.96698 11.6526C9.9383 11.5337 10.008 11.4598 10.0736 11.4189C10.1392 11.3779 10.3411 11.2085 10.295 11.0047C10.2376 10.7504 9.88153 10.4616 9.80616 10.3377C9.69113 10.1486 9.6765 10.0204 9.6765 10.0204C9.6765 10.0204 9.59531 10.0604 9.56831 10.191C9.44677 10.0521 9.16514 9.68327 9.08527 9.15926C9.08527 9.15926 9.06295 9.15171 9.02527 9.20895C8.86814 8.78159 8.86378 7.96582 8.86378 7.96582C8.86378 7.96582 8.40038 8.53995 8.69564 9.54063C8.69564 9.54063 8.41266 9.10596 8.41266 8.34724C8.41266 8.34724 7.95952 8.75529 8.48855 10.1702C8.48855 10.1702 8.26097 9.92412 7.99027 9.07516C7.99027 9.07516 7.65192 9.6657 8.34089 10.5823C8.34089 10.5823 7.99847 10.3486 7.72781 9.74979C7.72781 9.74979 7.59661 10.5044 8.42499 11.0662C8.42499 11.0662 8.02716 10.9227 7.63758 10.4101C7.63758 10.4101 7.55147 11.0499 8.37577 11.3861C8.37577 11.3861 8.06409 11.3697 7.60069 10.9801C7.60069 10.9801 7.51866 11.5461 8.59313 11.8372C8.59313 11.8372 8.15428 11.829 7.70728 11.5296C7.70728 11.5296 7.69495 12.0874 8.61361 12.1981C8.61361 12.1981 8.31014 12.2432 7.96973 12.1202C7.96973 12.1202 7.98206 12.5713 8.78175 12.6287C8.78175 12.6287 8.46595 12.6533 8.26092 12.6041C8.26092 12.6041 8.28141 13.0675 8.913 12.9896C8.913 12.9896 8.69972 13.0593 8.63002 13.0798C8.63002 13.0798 8.64234 13.4581 9.30052 13.3228C9.30052 13.3228 9.18361 13.3956 9.02367 13.4202C9.02367 13.4202 9.159 13.736 9.70856 13.5965L9.59578 13.7196C9.59578 13.7196 10.0202 13.9656 10.3463 13.6273L10.2293 13.8364C10.2293 13.8364 10.5062 13.941 10.6784 13.6704C10.6784 13.6704 10.6313 14.0764 10.0571 14.1502C10.0571 14.1502 10.0776 14.2363 10.1022 14.2691C10.1022 14.2691 10.0652 14.3389 9.73308 14.3963C9.73308 14.3963 9.80278 14.5029 9.87661 14.5357C9.87661 14.5357 9.73308 14.6588 9.65517 14.6833C9.65517 14.6833 9.77822 14.7448 9.85613 14.7572C9.85613 14.7572 9.68391 14.9253 9.47063 14.9294C9.25734 14.9335 8.87602 14.9089 8.87602 14.9089C8.87602 14.9089 8.87194 14.7038 8.7735 14.5274C8.67506 14.3511 8.6423 14.3378 8.6423 14.3378C8.6423 14.3378 8.66381 14.1963 8.60231 14.1379C8.54081 14.0794 8.50697 14.0517 8.50697 14.0517C8.50697 14.0517 8.53978 13.7688 8.44955 13.5924C8.35936 13.4161 8.03944 13.0306 8.02303 12.7435C8.00663 12.4564 8.01895 12.3498 8.01895 12.3498L7.92052 12.3744L7.85489 12.2391L7.96561 12.2268L7.92052 12.0217L7.76874 12.0791L7.7482 11.9028L7.56778 11.9766L7.65797 12.1366L7.49803 12.1817L7.59239 12.3703L7.71544 12.2924L7.74825 12.4564C7.74825 12.4564 7.67442 12.4728 7.63341 12.5384C7.63341 12.5384 7.83633 12.6731 7.89586 12.8337C7.99022 13.088 7.96148 13.6622 8.09681 13.8344C8.23214 14.0066 8.33878 14.1255 8.33878 14.1255C8.33878 14.1255 8.30086 14.2424 8.34389 14.307C8.38697 14.3716 8.44847 14.39 8.44847 14.39C8.44847 14.39 8.41153 14.6515 8.50692 14.8237C8.60227 14.9959 8.65763 15.0391 8.65763 15.0391C8.65763 15.0391 8.31005 15.2513 8.55614 15.4974C8.55614 15.4974 8.52333 15.7209 8.75709 15.7742C8.75709 15.7742 8.76942 15.9506 8.97038 15.9301C8.97038 15.9301 9.06881 15.9014 9.09342 15.9506C9.11803 15.9998 9.09342 16.2828 9.09342 16.2828C9.09342 16.2828 9.18361 16.2746 9.24103 16.2336L9.42145 16.3238L9.42553 16.1228L9.65109 16.0326C9.65109 16.0326 9.55266 16.049 9.3517 15.8604C9.3517 15.8604 9.38452 15.8399 9.40913 15.6799C9.40913 15.6799 9.56906 15.5528 9.60192 15.4503C9.63474 15.3478 9.8603 15.1222 10.1228 15.0484L10.1587 15.2083C10.1587 15.2083 10.5339 14.8762 10.6907 14.8577L10.8199 15.0279C10.8199 15.0279 11.3039 14.3102 11.5171 14.183C11.5007 14.2405 11.6196 14.2487 11.3551 14.5439C11.0906 14.8392 11.2546 15.073 11.2546 15.073C11.0906 15.2083 11.1234 15.3313 11.1028 15.4708C11.0823 15.6102 10.5368 15.9711 10.5368 15.9711C10.7091 16.1885 10.9019 16.1393 10.9019 16.1393C10.7952 16.209 10.828 16.4427 10.828 16.4427C10.9839 16.4838 11.1397 16.4141 11.1397 16.4141C11.0864 16.5617 11.1684 16.6642 11.1684 16.6642C11.2668 16.6027 11.4924 16.5657 11.4924 16.5657C11.4637 16.82 11.6277 16.9553 11.6277 16.9553L11.7713 16.7995C11.7959 17.0865 12.0502 17.2506 12.0502 17.2506C12.0502 17.2506 12.3045 17.0865 12.3291 16.7995L12.4726 16.9553C12.4726 16.9553 12.6367 16.82 12.6079 16.5657C12.6079 16.5657 12.8335 16.6027 12.9319 16.6642C12.9319 16.6642 13.014 16.5617 12.9606 16.4141C12.9606 16.4141 13.1165 16.4838 13.2723 16.4427C13.2723 16.4427 13.3051 16.209 13.1985 16.1393C13.1985 16.1393 13.3913 16.1884 13.5635 15.9711C13.5635 15.9711 13.018 15.6102 12.9975 15.4708C12.977 15.3313 13.0098 15.2083 12.8457 15.073C12.8457 15.073 13.0097 14.8392 12.7452 14.5439C12.4807 14.2486 12.5996 14.2404 12.5832 14.183C12.7965 14.3102 13.2804 15.0279 13.2804 15.0279L13.4096 14.8577C13.5665 14.8762 13.9417 15.2083 13.9417 15.2083L13.9776 15.0484L13.9844 15.041C14.18 15.1464 14.5032 15.2889 14.6338 15.3887C14.7732 15.4954 14.8881 15.5036 15.2243 15.3887C15.5606 15.2739 16.1863 15.0973 16.0937 14.8884C16.0887 14.877 16.083 14.8693 16.0774 14.8604C16.0921 14.8065 16.0981 14.7123 15.9994 14.63C15.9994 14.63 16.0005 14.6529 15.9998 14.6824L15.6792 14.5629C15.6686 14.5345 15.6527 14.5067 15.6221 14.4824C15.6221 14.4824 15.6226 14.507 15.6182 14.5402L15.536 14.5095L15.7001 14.0479C15.6877 14.0409 15.6737 14.037 15.6608 14.0309C15.6641 13.9891 15.672 13.9313 15.6842 13.8709C15.7243 13.8849 15.7609 13.9022 15.7875 13.9239L15.8338 13.7549C15.8338 13.7549 15.7839 13.7516 15.7183 13.7393C15.7349 13.6883 15.7545 13.6425 15.7779 13.6129L15.5606 13.5473C15.5606 13.5473 15.5662 13.6132 15.5624 13.6954C15.5209 13.6785 15.4813 13.6571 15.4493 13.6298L15.3984 13.8174C15.4159 13.8184 15.4752 13.8235 15.544 13.8358C15.5316 13.8909 15.5097 13.9397 15.4783 13.9764C15.4706 13.9753 15.4634 13.9725 15.4555 13.9718L15.2962 14.4201L14.864 14.2591C14.8455 14.2882 14.8312 14.32 14.8178 14.3522C14.8201 14.3475 14.8222 14.3402 14.8246 14.3372C14.8246 14.3372 14.6574 14.4247 14.6597 14.5532C14.6289 14.5648 14.6019 14.5879 14.5867 14.628C14.5375 14.7572 14.8388 15.0463 14.7651 15.0832C14.6926 15.1194 14.314 14.8076 14.2533 14.7552C14.3313 14.7401 14.4452 14.6834 14.4452 14.6834C14.3672 14.6588 14.2238 14.5358 14.2238 14.5358C14.2976 14.503 14.3673 14.3963 14.3673 14.3963C14.0351 14.3389 13.9982 14.2692 13.9982 14.2692C14.0228 14.2364 14.0433 14.1503 14.0433 14.1503C13.4692 14.0764 13.422 13.6704 13.422 13.6704C13.5942 13.9411 13.871 13.8365 13.871 13.8365L13.7541 13.6273C14.0801 13.9657 14.5046 13.7196 14.5046 13.7196L14.3918 13.5966C14.9413 13.736 15.0767 13.4202 15.0767 13.4202C14.9168 13.3956 14.7998 13.3228 14.7998 13.3228C15.4581 13.4582 15.4703 13.0798 15.4703 13.0798C15.4006 13.0593 15.1874 12.9896 15.1874 12.9896C15.8189 13.0676 15.8394 12.6041 15.8394 12.6041C15.6344 12.6533 15.3186 12.6288 15.3186 12.6288C16.1183 12.5713 16.1306 12.1203 16.1306 12.1203C15.7902 12.2433 15.4868 12.1982 15.4868 12.1982C16.4054 12.0874 16.3931 11.5297 16.3931 11.5297C15.9461 11.8291 15.5072 11.8373 15.5072 11.8373C16.5822 11.546 16.5001 10.9801 16.5001 10.9801ZM15.5682 15.037C15.5243 14.9659 15.6288 14.9022 15.6758 14.8345L15.8576 14.9021C15.7958 14.9758 15.6134 15.1104 15.5682 15.037ZM15.4467 14.7491C15.3878 14.8405 15.3467 14.943 15.1652 14.9479C14.9377 14.954 14.9007 14.751 14.8515 14.6403C14.8372 14.608 14.8125 14.5836 14.784 14.5669C14.784 14.547 14.785 14.5252 14.7867 14.5031L15.4467 14.7491Z" fill="#F5F5F5"/>
<path d="M11.9829 10.4162C11.9829 10.4162 11.6907 10.1671 11.6046 10.0317C11.6046 10.0317 11.703 9.99175 11.7522 9.93025C11.7522 9.93025 11.4877 9.78879 11.3462 9.64422C11.3462 9.64422 11.4385 9.62885 11.5092 9.57039C11.5092 9.57039 11.2717 9.52746 11.1512 9.33293C11.4258 9.23913 11.3339 8.98291 11.3339 8.98291C11.2785 9.05674 11.0509 9.14899 10.8049 9.04441C10.5588 8.93983 10.2882 9.01361 10.2882 9.14899C10.2882 9.14899 9.73453 8.98905 9.87296 9.52427C9.87296 9.52427 9.96211 9.32435 10.159 9.39818C10.3559 9.472 10.5558 9.72419 10.5558 9.72419C10.5558 9.72419 10.4327 9.79183 10.2052 9.71805C10.2052 9.71805 10.2975 10.0717 10.7127 9.89336C10.7127 9.89336 10.8767 9.98154 10.8849 10.2399C10.8849 10.2399 10.9546 10.203 10.9997 10.121C10.9997 10.121 11.0654 10.3711 10.9793 10.5762C10.9793 10.5762 11.0941 10.5557 11.131 10.5188C11.131 10.5188 11.1638 10.7361 11.0203 10.9125C11.0203 10.9125 11.6508 11.2129 12.0507 10.8838C12.0507 10.8838 11.9 10.7116 11.8508 10.5516C11.8506 10.5515 11.9336 10.5176 11.9829 10.4162Z" fill="#F5F5F5"/>
<path d="M13.813 9.14893C13.813 9.0136 13.5423 8.93977 13.2963 9.04435C13.0502 9.14893 12.8226 9.05668 12.7673 8.98285C12.7673 8.98285 12.6753 9.23907 12.95 9.33286C12.8295 9.5274 12.5919 9.57033 12.5919 9.57033C12.6627 9.62879 12.755 9.64416 12.755 9.64416C12.6135 9.78872 12.349 9.93019 12.349 9.93019C12.3982 9.99169 12.4966 10.0317 12.4966 10.0317C12.4105 10.167 12.1183 10.4161 12.1183 10.4161C12.1674 10.5176 12.2506 10.5515 12.2506 10.5515C12.2014 10.7114 12.0506 10.8836 12.0506 10.8836C12.4505 11.2127 13.081 10.9123 13.081 10.9123C12.9375 10.736 12.9703 10.5186 12.9703 10.5186C13.0073 10.5556 13.1221 10.576 13.1221 10.576C13.036 10.371 13.1016 10.1208 13.1016 10.1208C13.1467 10.2029 13.2165 10.2398 13.2165 10.2398C13.2247 9.98138 13.3887 9.89321 13.3887 9.89321C13.8039 10.0716 13.8962 9.7179 13.8962 9.7179C13.6686 9.79172 13.5456 9.72404 13.5456 9.72404C13.5456 9.72404 13.7455 9.47185 13.9424 9.39802C14.1392 9.32419 14.2284 9.52411 14.2284 9.52411C14.3666 8.98904 13.813 9.14893 13.813 9.14893Z" fill="#F5F5F5"/>
<path d="M13.5623 12.4164C13.5083 12.1021 13.4617 11.8306 13.5974 11.5195L13.6227 11.4614L13.0856 10.8447L13.0222 10.8659C13.0167 10.8677 12.4553 11.0513 12.0955 10.8713L12.0506 10.8488L12.0057 10.8713C11.6475 11.0507 11.0847 10.8677 11.0789 10.8658L11.0154 10.8448L10.4784 11.4614L10.5037 11.5195C10.6394 11.8306 10.5928 12.1021 10.5388 12.4164C10.4879 12.7132 10.4302 13.0497 10.5318 13.46C10.642 13.9054 11.0131 14.0637 11.3404 14.2036C11.5927 14.3112 11.831 14.4129 11.9657 14.6265L12.0505 14.761L12.1354 14.6265C12.2701 14.4129 12.5084 14.3113 12.7607 14.2036C13.0881 14.0637 13.4591 13.9054 13.5693 13.46C13.6709 13.0497 13.6131 12.7132 13.5623 12.4164ZM10.712 11.4988L11.0805 11.0756C11.2475 11.1215 11.6988 11.2208 12.0505 11.0715C12.4022 11.2209 12.8535 11.1215 13.0205 11.0756L13.3891 11.4988C13.2597 11.8396 13.3106 12.1368 13.3644 12.4503C13.4047 12.6853 13.4448 12.9273 13.4111 13.206H10.6899C10.6563 12.9273 10.6964 12.6853 10.7366 12.4503C10.7904 12.1368 10.8414 11.8396 10.712 11.4988ZM12.6819 14.019C12.4538 14.1164 12.2191 14.2165 12.0505 14.4066C11.8819 14.2165 11.6472 14.1164 11.4191 14.019C11.0991 13.8823 10.8229 13.7629 10.7318 13.4275H13.3691C13.2781 13.7629 13.002 13.8823 12.6819 14.019Z" fill="#F5F5F5"/>
<path d="M10.712 11.4987L11.0805 11.0756C11.2475 11.1215 11.6988 11.2208 12.0505 11.0715C12.4022 11.2208 12.8535 11.1214 13.0205 11.0756L13.3891 11.4987C13.2597 11.8396 13.3106 12.1368 13.3644 12.4503C13.4047 12.6852 13.4448 12.9273 13.4111 13.206H10.6899C10.6563 12.9273 10.6964 12.6852 10.7366 12.4503C10.7904 12.1368 10.8414 11.8396 10.712 11.4987Z" fill="#F5F5F5"/>
<path d="M10.7178 13.3689C10.7209 13.3833 10.7229 13.3971 10.7266 13.4117C10.8128 13.7601 11.0938 13.88 11.4192 14.0189C11.6473 14.1163 11.882 14.2164 12.0506 14.4065C12.2192 14.2164 12.4539 14.1163 12.682 14.0189C13.0074 13.88 13.2884 13.76 13.3746 13.4117C13.3783 13.3972 13.3803 13.3833 13.3835 13.3689H10.7178Z" fill="#F5F5F5"/>
<path d="M13.2545 12.2058C13.2545 12.0244 13.0821 11.9958 12.9253 11.9989C12.7685 12.002 12.5392 11.9734 12.5334 11.8515C12.5298 11.7755 12.6573 11.7684 12.7403 11.795C12.7885 11.8105 13.0883 11.864 13.1824 11.6634C13.1824 11.6634 13.0728 11.6669 12.957 11.6409C12.8679 11.6209 12.502 11.6665 12.4362 11.8076C12.3703 11.9486 12.5827 12.0895 12.8272 12.0895C13.0717 12.0895 13.1053 12.1384 13.1034 12.198C13.1009 12.2764 12.9069 12.2986 12.7955 12.2975C12.62 12.2338 12.2106 12.2837 12.2086 12.276C12.2063 12.2665 12.1142 12.1084 12.1142 12.1084C12.1142 12.1084 12.2818 12.0966 12.303 12.0659C12.3243 12.0352 12.1759 11.9173 12.1759 11.9173C12.1759 11.9173 12.3007 11.8676 12.3054 11.8322C12.3106 11.7932 12.2041 11.701 12.2041 11.701C12.2041 11.701 12.2452 11.6605 12.2762 11.5912C12.2983 11.5418 12.1226 11.5286 12.1226 11.5286C12.132 11.491 12.1284 11.4544 12.0818 11.4376C12.0458 11.4246 11.9125 11.4752 11.8216 11.4752C11.7307 11.4752 11.6962 11.5411 11.6962 11.5411C11.6962 11.5411 11.5363 11.5599 11.5143 11.5787C11.4923 11.5975 11.5206 11.7198 11.5206 11.7198C11.439 11.7072 11.4014 11.6351 11.4014 11.6351C11.3607 11.8201 11.552 11.8389 11.552 11.8389L11.5833 11.9393C11.5833 11.9393 11.5833 11.9393 11.6617 11.9487C11.7401 11.9581 11.7025 12.0334 11.5802 12.0334C11.4579 12.0334 11.406 12.1792 11.406 12.1792C11.321 12.1816 11.2738 12.1131 11.2549 12.0258C11.2341 11.9296 11.2464 11.7819 11.262 11.6882C11.2809 11.5749 11.2242 11.5418 11.2242 11.5418L11.1864 11.6363C11.1841 11.5395 11.0991 11.5301 11.0991 11.5301L11.0849 11.6481C11.0424 11.5702 10.9693 11.6056 10.9693 11.6056C10.9693 11.6056 11.0401 11.8605 11.0377 11.8747C11.0354 11.8888 11.0118 11.9006 10.9787 11.8652C10.9457 11.8298 10.9221 11.8534 10.9221 11.8534C10.9575 12.1084 11.0942 12.0709 11.0942 12.0709C11.0942 12.0709 11.1003 12.1508 11.1416 12.313C11.1857 12.4861 11.367 12.4535 11.367 12.4535C11.367 12.5099 11.4109 12.5914 11.4234 12.7796C11.4359 12.9677 11.2635 13.0994 11.2635 13.0994C11.1067 13.0962 11.1224 13.2499 11.1224 13.2499H11.5551C11.5551 12.8498 11.7271 12.7812 11.7271 12.7812C11.982 12.7931 12.2276 12.6868 12.2276 12.6868C12.1898 12.8403 12.2559 12.904 12.2559 12.904C12.3598 12.8898 12.3079 13.0952 12.2772 13.0952C12.2465 13.0952 12.1827 13.0952 12.145 13.0952C12.1072 13.0952 11.9986 13.2132 11.9986 13.2132H12.4471C12.4471 13.2132 12.5156 13.1141 12.5392 13.0645C12.5628 13.0149 12.4873 12.9465 12.4826 12.8945C12.4779 12.8426 12.5605 12.8096 12.5605 12.8096C12.6479 12.9323 12.8485 12.9394 12.8485 12.9394L12.8438 12.8473C12.8438 12.8473 12.9477 12.8828 12.9713 12.9134C12.9949 12.9441 12.9902 13.0858 12.8651 13.1023C12.74 13.1188 12.7305 13.2085 12.7305 13.2085C12.7305 13.2085 13.0162 13.2085 13.0728 13.2085C13.1295 13.2085 13.1743 13.1023 13.1743 13.0621C13.1743 13.022 13.1743 12.76 13.1743 12.7032C13.1743 12.6466 13.1271 12.6537 13.0162 12.6418C12.9154 12.6311 12.925 12.5209 12.8835 12.3928C13.0292 12.3879 13.2545 12.356 13.2545 12.2058Z" fill="#F5F5F5"/>
<path d="M13.228 7.91582C13.1999 7.66828 13.0026 7.35304 12.2509 7.20529C12.2484 7.12542 12.1993 7.05773 12.129 7.02923V6.89128H12.2521V6.74367H12.129V6.62067H11.9814V6.74371H11.8584V6.89132H11.9814V7.02928C11.9113 7.05778 11.862 7.12546 11.8596 7.20534C11.1079 7.35314 10.9106 7.66832 10.8825 7.91587C10.8475 8.22454 11.0685 8.51723 11.2679 8.6294V8.78601H12.8427V8.6294C13.0419 8.51723 13.263 8.22449 13.228 7.91582ZM12.4035 8.39231H12.1831V7.48439C12.3648 7.56646 12.4772 7.69232 12.51 7.8652C12.5507 8.08045 12.4646 8.29992 12.4035 8.39231ZM11.6005 7.86506C11.6332 7.69218 11.7456 7.56637 11.9273 7.48434V8.39226H11.7068C11.6457 8.29992 11.5597 8.0804 11.6005 7.86506ZM11.4183 7.61578C11.3821 7.68829 11.359 7.76081 11.3472 7.82742C11.3116 8.02907 11.3524 8.23401 11.4199 8.39231H11.3682C11.2578 8.31628 11.1159 8.12924 11.1368 7.9447C11.1514 7.81556 11.2493 7.70479 11.4183 7.61578ZM12.7423 8.39231H12.6904C12.7579 8.2341 12.7988 8.02917 12.7632 7.82751C12.7514 7.7609 12.7283 7.68829 12.6921 7.61573C12.8611 7.70474 12.959 7.8156 12.9736 7.94465C12.9945 8.12924 12.8527 8.31628 12.7423 8.39231Z" fill="#F5F5F5"/>
<path d="M23.1724 4.96539H0.827576V19.0345H23.1724V4.96539Z" fill="#C8414B"/>
<path d="M22.2026 4.13788H1.79742C0.804703 4.13788 0 4.94258 0 5.9353V18.0647C0 19.0573 0.804703 19.8621 1.79742 19.8621H22.2026C23.1952 19.8621 24 19.0574 24 18.0647V5.9353C24 4.94258 23.1953 4.13788 22.2026 4.13788ZM23.1724 19.0344H0.827578V4.96546H23.1724V19.0344Z" fill="#E6B432"/>
<path d="M15.3952 15.2252C15.7429 15.2252 16.0248 14.9432 16.0248 14.5955C16.0248 14.2477 15.7429 13.9658 15.3952 13.9658C15.0474 13.9658 14.7655 14.2477 14.7655 14.5955C14.7655 14.9432 15.0474 15.2252 15.3952 15.2252Z" fill="#41479B"/>
<path d="M16.5001 10.9801C16.0367 11.3696 15.7251 11.386 15.7251 11.386C16.5494 11.0498 16.4633 10.41 16.4633 10.41C16.0737 10.9226 15.6758 11.0662 15.6758 11.0662C16.5043 10.5043 16.373 9.74973 16.373 9.74973C16.1024 10.3485 15.7599 10.5822 15.7599 10.5822C16.4489 9.66563 16.1106 9.0751 16.1106 9.0751C15.8399 9.92401 15.6123 10.1701 15.6123 10.1701C16.1413 8.75523 15.6882 8.34718 15.6882 8.34718C15.6882 9.10585 15.4052 9.54057 15.4052 9.54057C15.7005 8.53993 15.237 7.96576 15.237 7.96576C15.237 7.96576 15.2327 8.78157 15.0756 9.20888C15.0379 9.1516 15.0156 9.1592 15.0156 9.1592C14.9357 9.68321 14.6541 10.0521 14.5325 10.1909C14.5055 10.0603 14.4243 10.0203 14.4243 10.0203C14.4243 10.0203 14.4097 10.1485 14.2946 10.3376C14.2193 10.4615 13.8632 10.7504 13.8058 11.0047C13.7597 11.2085 13.9616 11.3778 14.0272 11.4189C14.0928 11.4599 14.1625 11.5337 14.1338 11.6526C14.1051 11.7715 13.8918 11.7592 13.7401 11.7551C13.5884 11.751 13.5679 12.0011 13.3997 11.993L13.3712 12.1795L13.3053 12.1939C13.3053 12.1939 12.6164 13.5669 12.5577 14.034L12.0504 14.1009L11.5431 14.034C11.4844 13.5669 10.7955 12.1939 10.7955 12.1939L10.7296 12.1795L10.7011 11.993C10.533 12.0012 10.5125 11.751 10.3607 11.7551C10.2089 11.7592 9.99567 11.7715 9.96698 11.6526C9.9383 11.5337 10.008 11.4598 10.0736 11.4189C10.1392 11.3778 10.3411 11.2085 10.295 11.0047C10.2376 10.7504 9.88153 10.4615 9.80616 10.3376C9.69113 10.1486 9.6765 10.0203 9.6765 10.0203C9.6765 10.0203 9.59531 10.0603 9.56831 10.1909C9.44677 10.052 9.16514 9.68321 9.08527 9.1592C9.08527 9.1592 9.06295 9.15165 9.02527 9.20888C8.86814 8.78153 8.86378 7.96576 8.86378 7.96576C8.86378 7.96576 8.40038 8.53988 8.69564 9.54057C8.69564 9.54057 8.41266 9.1059 8.41266 8.34718C8.41266 8.34718 7.95952 8.75523 8.48855 10.1701C8.48855 10.1701 8.26097 9.92406 7.99027 9.0751C7.99027 9.0751 7.65192 9.66563 8.34089 10.5822C8.34089 10.5822 7.99847 10.3485 7.72781 9.74973C7.72781 9.74973 7.59661 10.5043 8.42499 11.0662C8.42499 11.0662 8.02716 10.9226 7.63758 10.41C7.63758 10.41 7.55147 11.0498 8.37577 11.386C8.37577 11.386 8.06409 11.3696 7.60069 10.9801C7.60069 10.9801 7.51866 11.546 8.59313 11.8372C8.59313 11.8372 8.15428 11.829 7.70728 11.5296C7.70728 11.5296 7.69495 12.0873 8.61361 12.1981C8.61361 12.1981 8.31014 12.2431 7.96973 12.1201C7.96973 12.1201 7.98206 12.5712 8.78175 12.6286C8.78175 12.6286 8.46595 12.6533 8.26092 12.604C8.26092 12.604 8.28141 13.0674 8.913 12.9895C8.913 12.9895 8.69972 13.0592 8.63002 13.0797C8.63002 13.0797 8.64234 13.4581 9.30052 13.3227C9.30052 13.3227 9.18361 13.3955 9.02367 13.4201C9.02367 13.4201 9.159 13.7359 9.70856 13.5965L9.59578 13.7195C9.59578 13.7195 10.0202 13.9656 10.3463 13.6272L10.2293 13.8364C10.2293 13.8364 10.5062 13.941 10.6784 13.6703C10.6784 13.6703 10.6313 14.0763 10.0571 14.1502C10.0571 14.1502 10.0776 14.2363 10.1022 14.2691C10.1022 14.2691 10.0652 14.3388 9.73308 14.3962C9.73308 14.3962 9.80278 14.5028 9.87661 14.5357C9.87661 14.5357 9.73308 14.6587 9.65517 14.6833C9.65517 14.6833 9.77822 14.7448 9.85613 14.7571C9.85613 14.7571 9.68391 14.9252 9.47063 14.9293C9.25734 14.9334 8.87602 14.9088 8.87602 14.9088C8.87602 14.9088 8.87194 14.7038 8.7735 14.5274C8.67506 14.351 8.6423 14.3377 8.6423 14.3377C8.6423 14.3377 8.66381 14.1962 8.60231 14.1378C8.54081 14.0793 8.50697 14.0517 8.50697 14.0517C8.50697 14.0517 8.53978 13.7687 8.44955 13.5924C8.35936 13.416 8.03944 13.0305 8.02303 12.7434C8.00663 12.4564 8.01895 12.3497 8.01895 12.3497L7.92052 12.3744L7.85489 12.239L7.96561 12.2267L7.92052 12.0217L7.76874 12.0791L7.7482 11.9027L7.56778 11.9766L7.65797 12.1365L7.49803 12.1816L7.59239 12.3702L7.71544 12.2923L7.74825 12.4563C7.74825 12.4563 7.67442 12.4727 7.63341 12.5384C7.63341 12.5384 7.83633 12.673 7.89586 12.8337C7.99022 13.088 7.96148 13.6621 8.09681 13.8343C8.23214 14.0065 8.33878 14.1255 8.33878 14.1255C8.33878 14.1255 8.30086 14.2424 8.34389 14.3069C8.38697 14.3715 8.44847 14.39 8.44847 14.39C8.44847 14.39 8.41153 14.6514 8.50692 14.8237C8.60227 14.9959 8.65763 15.039 8.65763 15.039C8.65763 15.039 8.31005 15.2512 8.55614 15.4973C8.55614 15.4973 8.52333 15.7208 8.75709 15.7741C8.75709 15.7741 8.76942 15.9505 8.97038 15.93C8.97038 15.93 9.06881 15.9013 9.09342 15.9505C9.11803 15.9997 9.09342 16.2827 9.09342 16.2827C9.09342 16.2827 9.18361 16.2745 9.24103 16.2335L9.42145 16.3237L9.42553 16.1228L9.65109 16.0326C9.65109 16.0326 9.55266 16.049 9.3517 15.8604C9.3517 15.8604 9.38452 15.8398 9.40913 15.6799C9.40913 15.6799 9.56906 15.5528 9.60192 15.4502C9.63474 15.3477 9.8603 15.1222 10.1228 15.0483L10.1587 15.2083C10.1587 15.2083 10.5339 14.8761 10.6907 14.8576L10.8199 15.0278C10.8199 15.0278 11.3039 14.3102 11.5171 14.183C11.5007 14.2404 11.6196 14.2486 11.3551 14.5439C11.0906 14.8392 11.2546 15.0729 11.2546 15.0729C11.0906 15.2082 11.1234 15.3313 11.1028 15.4707C11.0823 15.6102 10.5368 15.9711 10.5368 15.9711C10.7091 16.1884 10.9019 16.1392 10.9019 16.1392C10.7952 16.2089 10.828 16.4427 10.828 16.4427C10.9839 16.4837 11.1397 16.414 11.1397 16.414C11.0864 16.5616 11.1684 16.6641 11.1684 16.6641C11.2668 16.6026 11.4924 16.5657 11.4924 16.5657C11.4637 16.82 11.6277 16.9553 11.6277 16.9553L11.7713 16.7994C11.7959 17.0865 12.0502 17.2505 12.0502 17.2505C12.0502 17.2505 12.3045 17.0865 12.3291 16.7994L12.4726 16.9553C12.4726 16.9553 12.6367 16.8199 12.6079 16.5657C12.6079 16.5657 12.8335 16.6026 12.9319 16.6641C12.9319 16.6641 13.014 16.5616 12.9606 16.414C12.9606 16.414 13.1165 16.4837 13.2723 16.4427C13.2723 16.4427 13.3051 16.2089 13.1985 16.1392C13.1985 16.1392 13.3913 16.1884 13.5635 15.9711C13.5635 15.9711 13.018 15.6102 12.9975 15.4707C12.977 15.3313 13.0098 15.2083 12.8457 15.0729C12.8457 15.0729 13.0097 14.8391 12.7452 14.5439C12.4807 14.2486 12.5996 14.2404 12.5832 14.183C12.7965 14.3101 13.2804 15.0278 13.2804 15.0278L13.4096 14.8576C13.5665 14.8761 13.9417 15.2083 13.9417 15.2083L13.9776 15.0483L13.9844 15.0409C14.18 15.1463 14.5032 15.2888 14.6338 15.3886C14.7732 15.4953 14.8881 15.5035 15.2243 15.3886C15.5606 15.2738 16.1863 15.0972 16.0937 14.8883C16.0887 14.8769 16.083 14.8693 16.0774 14.8604C16.0921 14.8064 16.0981 14.7122 15.9994 14.6299C15.9994 14.6299 16.0005 14.6529 15.9998 14.6823L15.6792 14.5628C15.6686 14.5344 15.6527 14.5067 15.6221 14.4823C15.6221 14.4823 15.6226 14.5069 15.6182 14.5401L15.536 14.5095L15.7001 14.0478C15.6877 14.0409 15.6737 14.037 15.6608 14.0309C15.6641 13.9891 15.672 13.9313 15.6842 13.8708C15.7243 13.8849 15.7609 13.9022 15.7875 13.9239L15.8338 13.7548C15.8338 13.7548 15.7839 13.7515 15.7183 13.7393C15.7349 13.6883 15.7545 13.6425 15.7779 13.6129L15.5606 13.5473C15.5606 13.5473 15.5662 13.6131 15.5624 13.6953C15.5209 13.6785 15.4813 13.6571 15.4493 13.6297L15.3984 13.8173C15.4159 13.8183 15.4752 13.8234 15.544 13.8357C15.5316 13.8908 15.5097 13.9396 15.4783 13.9763C15.4706 13.9753 15.4634 13.9725 15.4555 13.9717L15.2962 14.4201L14.864 14.259C14.8455 14.2882 14.8312 14.3199 14.8178 14.3521C14.8201 14.3474 14.8222 14.3401 14.8246 14.3371C14.8246 14.3371 14.6574 14.4246 14.6597 14.5531C14.6289 14.5648 14.6019 14.5879 14.5867 14.628C14.5375 14.7571 14.8388 15.0463 14.7651 15.0832C14.6926 15.1194 14.314 14.8075 14.2533 14.7552C14.3313 14.74 14.4452 14.6833 14.4452 14.6833C14.3672 14.6587 14.2238 14.5357 14.2238 14.5357C14.2976 14.5029 14.3673 14.3963 14.3673 14.3963C14.0351 14.3388 13.9982 14.2691 13.9982 14.2691C14.0228 14.2363 14.0433 14.1502 14.0433 14.1502C13.4692 14.0764 13.422 13.6704 13.422 13.6704C13.5942 13.941 13.871 13.8364 13.871 13.8364L13.7541 13.6273C14.0801 13.9656 14.5046 13.7196 14.5046 13.7196L14.3918 13.5965C14.9413 13.736 15.0767 13.4202 15.0767 13.4202C14.9168 13.3956 14.7998 13.3228 14.7998 13.3228C15.4581 13.4581 15.4703 13.0798 15.4703 13.0798C15.4006 13.0592 15.1874 12.9896 15.1874 12.9896C15.8189 13.0675 15.8394 12.6041 15.8394 12.6041C15.6344 12.6533 15.3186 12.6287 15.3186 12.6287C16.1183 12.5713 16.1306 12.1202 16.1306 12.1202C15.7902 12.2432 15.4868 12.1981 15.4868 12.1981C16.4054 12.0874 16.3931 11.5296 16.3931 11.5296C15.9461 11.829 15.5072 11.8372 15.5072 11.8372C16.5822 11.5459 16.5001 10.9801 16.5001 10.9801ZM15.5682 15.0369C15.5243 14.9658 15.6288 14.9021 15.6758 14.8344L15.8576 14.9021C15.7958 14.9758 15.6134 15.1103 15.5682 15.0369ZM15.4467 14.7491C15.3878 14.8404 15.3467 14.9429 15.1652 14.9478C14.9377 14.9539 14.9007 14.7509 14.8515 14.6402C14.8372 14.6079 14.8125 14.5835 14.784 14.5668C14.784 14.5469 14.785 14.5251 14.7867 14.5031L15.4467 14.7491Z" fill="#E6B432"/>
<path d="M11.9829 10.4159C11.9829 10.4159 11.6907 10.1668 11.6045 10.0314C11.6045 10.0314 11.703 9.99145 11.7521 9.92995C11.7521 9.92995 11.4876 9.78848 11.3462 9.64392C11.3462 9.64392 11.4385 9.62854 11.5092 9.57009C11.5092 9.57009 11.2716 9.52715 11.1512 9.33262C11.4258 9.23882 11.3339 8.9826 11.3339 8.9826C11.2785 9.05643 11.0509 9.14868 10.8048 9.04411C10.5588 8.93953 10.2881 9.01331 10.2881 9.14868C10.2881 9.14868 9.7345 8.98875 9.87293 9.52396C9.87293 9.52396 9.96208 9.32404 10.159 9.39787C10.3558 9.4717 10.5558 9.72389 10.5558 9.72389C10.5558 9.72389 10.4327 9.79153 10.2051 9.71775C10.2051 9.71775 10.2974 10.0714 10.7126 9.89306C10.7126 9.89306 10.8767 9.98123 10.8849 10.2396C10.8849 10.2396 10.9546 10.2027 10.9997 10.1207C10.9997 10.1207 11.0653 10.3708 10.9792 10.5759C10.9792 10.5759 11.0941 10.5554 11.131 10.5185C11.131 10.5185 11.1638 10.7358 11.0203 10.9122C11.0203 10.9122 11.6508 11.2126 12.0507 10.8835C12.0507 10.8835 11.9 10.7113 11.8508 10.5513C11.8506 10.5512 11.9336 10.5173 11.9829 10.4159Z" fill="#E6B432"/>
<path d="M13.813 9.14862C13.813 9.01329 13.5423 8.93947 13.2963 9.04404C13.0502 9.14862 12.8226 9.05637 12.7672 8.98254C12.7672 8.98254 12.6753 9.23876 12.95 9.33256C12.8295 9.52709 12.5919 9.57003 12.5919 9.57003C12.6627 9.62848 12.755 9.64386 12.755 9.64386C12.6135 9.78842 12.349 9.92989 12.349 9.92989C12.3981 9.99139 12.4966 10.0314 12.4966 10.0314C12.4105 10.1667 12.1183 10.4158 12.1183 10.4158C12.1674 10.5173 12.2505 10.5512 12.2505 10.5512C12.2014 10.7111 12.0506 10.8833 12.0506 10.8833C12.4505 11.2124 13.081 10.912 13.081 10.912C12.9375 10.7357 12.9703 10.5183 12.9703 10.5183C13.0072 10.5552 13.1221 10.5757 13.1221 10.5757C13.036 10.3707 13.1016 10.1205 13.1016 10.1205C13.1467 10.2026 13.2164 10.2394 13.2164 10.2394C13.2246 9.98107 13.3887 9.8929 13.3887 9.8929C13.8039 10.0713 13.8962 9.71759 13.8962 9.71759C13.6686 9.79142 13.5456 9.72373 13.5456 9.72373C13.5456 9.72373 13.7455 9.47154 13.9423 9.39772C14.1392 9.32389 14.2284 9.52381 14.2284 9.52381C14.3666 8.98873 13.813 9.14862 13.813 9.14862Z" fill="#E6B432"/>
<path d="M13.5623 12.4161C13.5083 12.1017 13.4617 11.8302 13.5973 11.5192L13.6227 11.4611L13.0856 10.8444L13.0221 10.8656C13.0167 10.8674 12.4553 11.051 12.0955 10.871L12.0506 10.8485L12.0057 10.871C11.6475 11.0504 11.0847 10.8674 11.0788 10.8655L11.0154 10.8445L10.4784 11.4611L10.5037 11.5192C10.6393 11.8302 10.5928 12.1017 10.5388 12.4161C10.4879 12.7129 10.4302 13.0494 10.5318 13.4597C10.642 13.9051 11.0131 14.0634 11.3404 14.2032C11.5927 14.3109 11.8309 14.4126 11.9657 14.6262L12.0505 14.7607L12.1354 14.6262C12.2701 14.4126 12.5083 14.311 12.7607 14.2032C13.088 14.0634 13.4591 13.9051 13.5693 13.4597C13.6708 13.0494 13.6131 12.7129 13.5623 12.4161ZM10.7119 11.4985L11.0805 11.0753C11.2475 11.1212 11.6988 11.2205 12.0505 11.0712C12.4022 11.2205 12.8535 11.1212 13.0205 11.0753L13.3891 11.4985C13.2597 11.8393 13.3106 12.1365 13.3644 12.45C13.4047 12.685 13.4448 12.927 13.4111 13.2057H10.6899C10.6563 12.927 10.6964 12.685 10.7366 12.45C10.7904 12.1365 10.8414 11.8393 10.7119 11.4985ZM12.6819 14.0187C12.4538 14.1161 12.2191 14.2162 12.0505 14.4063C11.8819 14.2162 11.6472 14.1161 11.4191 14.0187C11.099 13.882 10.8229 13.7626 10.7318 13.4272H13.3691C13.2781 13.7626 13.002 13.882 12.6819 14.0187Z" fill="#E6B432"/>
<path d="M10.712 11.4987L11.0805 11.0756C11.2475 11.1215 11.6988 11.2208 12.0505 11.0715C12.4022 11.2208 12.8535 11.1214 13.0205 11.0756L13.3891 11.4987C13.2597 11.8396 13.3106 12.1368 13.3644 12.4503C13.4047 12.6852 13.4448 12.9273 13.4111 13.206H10.6899C10.6563 12.9273 10.6964 12.6852 10.7366 12.4503C10.7904 12.1368 10.8414 11.8396 10.712 11.4987Z" fill="#41479B"/>
<path d="M10.7178 13.3689C10.7209 13.3833 10.7229 13.3971 10.7266 13.4117C10.8128 13.7601 11.0938 13.88 11.4192 14.0189C11.6473 14.1163 11.882 14.2164 12.0506 14.4065C12.2192 14.2164 12.4539 14.1163 12.682 14.0189C13.0074 13.88 13.2884 13.76 13.3746 13.4117C13.3783 13.3972 13.3803 13.3833 13.3835 13.3689H10.7178Z" fill="#73AF00"/>
<path d="M13.2544 12.2062C13.2544 12.0247 13.082 11.9961 12.9252 11.9992C12.7684 12.0024 12.5391 11.9737 12.5333 11.8518C12.5297 11.7759 12.6572 11.7688 12.7402 11.7954C12.7884 11.8109 13.0882 11.8644 13.1823 11.6637C13.1823 11.6637 13.0727 11.6672 12.9569 11.6413C12.8678 11.6213 12.5019 11.6668 12.4361 11.8079C12.3702 11.949 12.5826 12.0898 12.8271 12.0898C13.0717 12.0898 13.1052 12.1388 13.1033 12.1984C13.1008 12.2768 12.9068 12.2989 12.7954 12.2979C12.6199 12.2342 12.2105 12.2841 12.2085 12.2763C12.2062 12.2669 12.1141 12.1088 12.1141 12.1088C12.1141 12.1088 12.2817 12.097 12.3029 12.0662C12.3242 12.0356 12.1758 11.9177 12.1758 11.9177C12.1758 11.9177 12.3006 11.8679 12.3053 11.8325C12.3105 11.7936 12.204 11.7014 12.204 11.7014C12.204 11.7014 12.2452 11.6608 12.2761 11.5916C12.2982 11.5421 12.1225 11.5289 12.1225 11.5289C12.1319 11.4913 12.1283 11.4548 12.0817 11.438C12.0457 11.425 11.9124 11.4756 11.8215 11.4756C11.7306 11.4756 11.6961 11.5414 11.6961 11.5414C11.6961 11.5414 11.5362 11.5603 11.5142 11.579C11.4922 11.5979 11.5205 11.7201 11.5205 11.7201C11.4389 11.7076 11.4014 11.6355 11.4014 11.6355C11.3606 11.8204 11.5519 11.8393 11.5519 11.8393L11.5832 11.9396C11.5832 11.9396 11.5832 11.9396 11.6616 11.9491C11.74 11.9585 11.7024 12.0337 11.5801 12.0337C11.4578 12.0337 11.4059 12.1796 11.4059 12.1796C11.3209 12.182 11.2737 12.1135 11.2548 12.0261C11.234 11.93 11.2463 11.7822 11.2619 11.6886C11.2808 11.5752 11.2241 11.5422 11.2241 11.5422L11.1863 11.6366C11.184 11.5398 11.099 11.5304 11.099 11.5304L11.0848 11.6485C11.0423 11.5705 10.9692 11.6059 10.9692 11.6059C10.9692 11.6059 11.04 11.8609 11.0377 11.875C11.0353 11.8892 11.0117 11.901 10.9786 11.8656C10.9456 11.8301 10.922 11.8538 10.922 11.8538C10.9574 12.1087 11.0941 12.0713 11.0941 12.0713C11.0941 12.0713 11.1002 12.1512 11.1415 12.3133C11.1856 12.4864 11.3669 12.4539 11.3669 12.4539C11.3669 12.5103 11.4108 12.5918 11.4233 12.7799C11.4359 12.968 11.2634 13.0997 11.2634 13.0997C11.1067 13.0966 11.1224 13.2503 11.1224 13.2503H11.555C11.555 12.8502 11.727 12.7816 11.727 12.7816C11.9819 12.7934 12.2275 12.6872 12.2275 12.6872C12.1897 12.8406 12.2558 12.9043 12.2558 12.9043C12.3597 12.8902 12.3078 13.0955 12.2771 13.0955C12.2464 13.0955 12.1826 13.0955 12.1449 13.0955C12.1072 13.0955 11.9985 13.2136 11.9985 13.2136H12.447C12.447 13.2136 12.5155 13.1144 12.5391 13.0649C12.5627 13.0153 12.4872 12.9468 12.4825 12.8949C12.4778 12.843 12.5604 12.8099 12.5604 12.8099C12.6478 12.9326 12.8484 12.9398 12.8484 12.9398L12.8437 12.8477C12.8437 12.8477 12.9476 12.8831 12.9712 12.9138C12.9948 12.9445 12.9901 13.0862 12.865 13.1027C12.7399 13.1192 12.7304 13.2089 12.7304 13.2089C12.7304 13.2089 13.0161 13.2089 13.0727 13.2089C13.1294 13.2089 13.1742 13.1027 13.1742 13.0625C13.1742 13.0224 13.1742 12.7603 13.1742 12.7036C13.1742 12.647 13.127 12.6541 13.0161 12.6422C12.9153 12.6315 12.9249 12.5212 12.8834 12.3932C13.0291 12.3883 13.2544 12.3564 13.2544 12.2062Z" fill="#E6B432"/>
<path d="M13.228 7.91582C13.1999 7.66828 13.0026 7.35304 12.2509 7.20529C12.2484 7.12542 12.1993 7.05773 12.129 7.02923V6.89128H12.2521V6.74367H12.129V6.62067H11.9814V6.74371H11.8584V6.89132H11.9814V7.02928C11.9113 7.05778 11.862 7.12546 11.8596 7.20534C11.1079 7.35314 10.9106 7.66832 10.8825 7.91587C10.8475 8.22454 11.0685 8.51723 11.2679 8.6294V8.78601H12.8427V8.6294C13.0419 8.51723 13.263 8.22449 13.228 7.91582ZM12.4035 8.39231H12.1831V7.48439C12.3648 7.56646 12.4772 7.69232 12.51 7.8652C12.5507 8.08045 12.4646 8.29992 12.4035 8.39231ZM11.6005 7.86506C11.6332 7.69218 11.7456 7.56637 11.9273 7.48434V8.39226H11.7068C11.6457 8.29992 11.5597 8.0804 11.6005 7.86506ZM11.4183 7.61578C11.3821 7.68829 11.359 7.76081 11.3472 7.82742C11.3116 8.02907 11.3524 8.23401 11.4199 8.39231H11.3682C11.2578 8.31628 11.1159 8.12924 11.1368 7.9447C11.1514 7.81556 11.2493 7.70479 11.4183 7.61578ZM12.7423 8.39231H12.6904C12.7579 8.2341 12.7988 8.02917 12.7632 7.82751C12.7514 7.7609 12.7283 7.68829 12.6921 7.61573C12.8611 7.70474 12.959 7.8156 12.9736 7.94465C12.9945 8.12924 12.8527 8.31628 12.7423 8.39231Z" fill="#E6B432"/>
</svg>
