<svg xmlns="http://www.w3.org/2000/svg" width="24" height="24" viewBox="0 0 24 24" fill="none"><rect width="24" height="24" fill="none"/>
<path d="M22.2062 19.862H1.79677C0.806899 19.862 0 19.0611 0 18.0653V5.93478C0 4.9419 0.806899 4.138 1.79677 4.138H22.2032C23.1961 4.138 24 4.9449 24 5.93478V18.0683C24.003 19.0611 23.1961 19.862 22.2062 19.862Z" fill="#FF4B55"/>
<path d="M0.683914 19.4781L13.4713 12.258C13.6723 12.144 13.6723 11.856 13.4713 11.742L0.683914 4.52194C0.266967 4.8489 0 5.36184 0 5.93177V18.0652C0 18.6382 0.266967 19.1481 0.683914 19.4781Z" fill="#FFE15A"/>
<path d="M0.572928 19.3791L9.17585 12.282C9.35283 12.138 9.35283 11.859 9.17585 11.7151L0.572928 4.62094C0.221972 4.9509 0 5.41884 0 5.93478V18.0683C0 18.5872 0.221972 19.0491 0.572928 19.3791Z" fill="#464655"/>
<path d="M2.58268 10.0533L2.62167 11.5441L1.22385 12.063C1.08887 12.114 1.09787 12.303 1.23285 12.345L2.66367 12.7679L2.72366 14.2587C2.72966 14.3997 2.91564 14.4567 2.99663 14.3397L3.83952 13.1129L5.27334 13.5118C5.40832 13.5508 5.51631 13.3888 5.43232 13.2778L4.52643 12.096L5.35133 10.8542C5.43232 10.7372 5.31234 10.5812 5.17735 10.6352L3.77053 11.1331L2.84965 9.96026C2.76266 9.84928 2.58268 9.91527 2.58268 10.0533Z" fill="#F5F5F5"/>
</svg>
