<svg xmlns="http://www.w3.org/2000/svg" width="24" height="24" viewBox="0 0 24 24" fill="none"><rect width="24" height="24" fill="none"/>
<path d="M22.2026 19.8621H1.79742C0.804703 19.8621 0 19.0574 0 18.0646V5.93536C0 4.94269 0.804703 4.13794 1.79742 4.13794H22.2026C23.1952 4.13794 24 4.94264 24 5.93536V18.0647C24 19.0574 23.1953 19.8621 22.2026 19.8621Z" fill="#41479B"/>
<path d="M12.5302 9.49163C12.291 9.44635 12 9.1425 12.1035 8.97441C12.2069 8.80632 12.0129 8.43132 11.7802 8.5606C11.5474 8.68993 11.3922 8.84508 11.1724 8.89679C10.9525 8.94849 10.7715 9.11663 10.9396 9.27179C11.1077 9.42694 11.3663 9.7373 11.1206 10.0606C10.875 10.3839 10.9525 10.1641 10.6551 10.3063C10.3577 10.4485 10.1508 10.733 10.2413 10.9011C10.3318 11.0692 10.4094 11.1339 10.1508 11.2502C9.89218 11.3666 9.77579 11.2891 9.56889 11.3408C9.36198 11.3925 8.8577 11.6511 8.7025 11.8709C8.54734 12.0908 8.21111 11.8838 8.06889 11.858C7.92667 11.8321 7.64218 11.9356 7.5775 12.1036C7.51286 12.2717 7.6292 12.4269 7.87492 12.5045C8.12059 12.5821 8.22404 12.595 8.1077 12.8019C7.99136 13.0088 8.06889 13.4097 8.26286 13.5261C8.45682 13.6425 8.83182 14.0045 8.83182 14.2502C8.83182 14.4959 8.78012 14.858 9.14218 14.9097C9.50425 14.9614 10.0603 15.1166 10.2542 15.4528C10.4482 15.789 10.4999 15.9829 10.5387 16.1898C10.5775 16.3967 10.6163 16.5648 10.7327 16.7976C10.8491 17.0304 10.9267 17.4312 10.8103 17.5217C10.6939 17.6123 10.6034 17.6769 10.6939 17.8515C10.7844 18.026 10.8038 18.0907 10.9719 17.9937C11.14 17.8967 11.14 18.0001 11.2305 17.9807C11.321 17.9613 11.7348 17.8126 11.6572 17.6122C11.5796 17.4118 11.4115 16.9527 11.6507 16.7135C11.8899 16.4743 12.2132 16.4355 12.4202 16.2739C12.6271 16.1123 12.9697 16.0864 13.2348 15.8278C13.4999 15.5692 13.7844 15.7243 13.8296 15.9053C13.8749 16.0864 13.946 16.4355 14.1529 16.429C14.3598 16.4226 14.4051 16.4226 14.4439 16.1704C14.4827 15.9183 14.8059 15.3558 14.9353 15.4269C15.0646 15.498 15.1809 15.4398 15.1874 15.3299C15.1939 15.22 15.4396 15.123 15.543 15.2782C15.6465 15.4334 15.8727 15.5562 15.8663 15.3623C15.8598 15.1683 15.5948 15.1942 15.5883 14.9808C15.5818 14.7674 15.8017 14.6317 15.9956 14.5411C16.1896 14.4506 16.0732 14.2178 16.1314 14.0886C16.1896 13.9592 16.5064 13.7976 16.5194 13.6683C16.5323 13.539 16.4418 13.4873 16.5775 13.4549C16.7133 13.4226 16.8814 13.3644 16.7844 13.2157C16.6875 13.067 16.7198 12.9571 16.8233 12.886C16.9267 12.8149 16.9752 12.4773 16.8243 12.4335C16.6734 12.3896 16.4008 12.5162 16.3327 12.599C16.2645 12.6818 15.9871 12.3263 15.8556 12.2387C15.7241 12.1511 14.8771 12.2046 14.8966 12.0586C14.9161 11.9126 15.2716 11.3795 15.1164 11.2955C14.9612 11.2114 14.7155 11.0886 14.5151 11.0239C14.3147 10.9593 14.3599 11.1791 14.25 11.0045C14.1401 10.83 14.1013 10.2092 13.9785 10.2092C13.8556 10.2092 13.7651 10.4678 13.7134 10.3709C13.6617 10.2739 13.7328 9.60146 13.4483 9.58852C13.1638 9.57558 13.1574 9.74368 12.9957 9.62086C12.8341 9.4981 12.8572 9.5535 12.5302 9.49163Z" fill="#FF9B55"/>
<path d="M10.7736 5.81347L10.5588 6.45754L9.87984 6.46283C9.84262 6.46316 9.8272 6.51065 9.85715 6.53272L10.4033 6.93604L10.1985 7.58338C10.1873 7.61886 10.2276 7.64825 10.258 7.62655L10.8103 7.23177L11.3627 7.6266C11.393 7.64821 11.4334 7.61891 11.4222 7.58343L11.2174 6.93608L11.7635 6.53277C11.7935 6.51069 11.778 6.46316 11.7408 6.46288L11.0619 6.45758L10.8471 5.81352C10.8353 5.77818 10.7854 5.77818 10.7736 5.81347Z" fill="#F5F5F5"/>
<path d="M13.1659 5.81347L12.951 6.45753L12.2721 6.46283C12.2349 6.46315 12.2195 6.51064 12.2494 6.53272L12.7956 6.93603L12.5908 7.58337C12.5796 7.61886 12.6199 7.64825 12.6503 7.62655L13.2026 7.23172L13.755 7.62655C13.7853 7.64816 13.8257 7.61886 13.8145 7.58337L13.6097 6.93603L14.1558 6.53272C14.1858 6.51064 14.1703 6.46311 14.1331 6.46283L13.4542 6.45753L13.2394 5.81347C13.2276 5.77817 13.1776 5.77817 13.1659 5.81347Z" fill="#F5F5F5"/>
<path d="M8.41368 6.20788L8.19885 6.85194L7.51991 6.85724C7.48269 6.85756 7.46727 6.90505 7.49722 6.92713L8.04337 7.33044L7.83857 7.97778C7.82737 8.01327 7.86773 8.04266 7.89805 8.02095L8.45043 7.62613L9.0028 8.02095C9.03308 8.04256 9.07349 8.01327 9.06229 7.97778L8.85749 7.33044L9.40363 6.92713C9.43358 6.90505 9.41816 6.85752 9.38094 6.85724L8.70201 6.85194L8.48718 6.20788C8.47541 6.17258 8.42544 6.17258 8.41368 6.20788Z" fill="#F5F5F5"/>
<path d="M6.18089 7.01947L5.96606 7.66353L5.28712 7.66883C5.24991 7.66916 5.23448 7.71664 5.26444 7.73872L5.81058 8.14203L5.60578 8.78938C5.59458 8.82486 5.63494 8.85425 5.66526 8.83255L6.21764 8.43772L6.77002 8.83255C6.8003 8.85416 6.8407 8.82486 6.8295 8.78938L6.6247 8.14203L7.17084 7.73872C7.2008 7.71664 7.18537 7.66911 7.14816 7.66883L6.46922 7.66353L6.25439 7.01947C6.24262 6.98413 6.19266 6.98413 6.18089 7.01947Z" fill="#F5F5F5"/>
<path d="M15.5928 6.20788L15.8077 6.85194L16.4866 6.85724C16.5238 6.85756 16.5392 6.90505 16.5093 6.92713L15.9631 7.33044L16.1679 7.97778C16.1791 8.01327 16.1388 8.04266 16.1085 8.02095L15.5561 7.62613L15.0037 8.02095C14.9734 8.04256 14.933 8.01327 14.9442 7.97778L15.149 7.33044L14.6029 6.92713C14.5729 6.90505 14.5883 6.85752 14.6256 6.85724L15.3045 6.85194L15.5193 6.20788C15.5311 6.17258 15.5811 6.17258 15.5928 6.20788Z" fill="#F5F5F5"/>
<path d="M17.8256 7.01947L18.0405 7.66353L18.7194 7.66883C18.7566 7.66916 18.772 7.71664 18.7421 7.73872L18.1959 8.14203L18.4007 8.78938C18.4119 8.82486 18.3716 8.85425 18.3413 8.83255L17.7889 8.43772L17.2365 8.83255C17.2062 8.85416 17.1658 8.82486 17.177 8.78938L17.3818 8.14203L16.8357 7.73872C16.8057 7.71664 16.8212 7.66911 16.8584 7.66883L17.5373 7.66353L17.7521 7.01947C17.7639 6.98413 17.8139 6.98413 17.8256 7.01947Z" fill="#F5F5F5"/>
</svg>
