<svg xmlns="http://www.w3.org/2000/svg" width="24" height="24" viewBox="0 0 24 24" fill="none"><rect width="24" height="24" fill="none"/>
<path d="M22.2026 4.138H1.79742C0.821578 4.138 0.0279841 4.9158 0.00131226 5.88513H23.9988C23.972 4.9157 23.1784 4.138 22.2026 4.138Z" fill="#FFE15A"/>
<path d="M24 5.9354C24 5.91852 23.9992 5.90188 23.9987 5.8851H0.0013125C0.00084375 5.90188 0 5.91852 0 5.9354V7.63223H24V5.9354Z" fill="#FF4B55"/>
<path d="M24 7.63223H0V9.37926H24V7.63223Z" fill="#FFE15A"/>
<path d="M24 9.37921H0V11.1262H24V9.37921Z" fill="#FF4B55"/>
<path d="M24 11.1263H0V12.8733H24V11.1263Z" fill="#FFE15A"/>
<path d="M1.79742 19.8621H22.2026C23.1784 19.8621 23.972 19.0843 23.9987 18.115H0.00131226C0.0279841 19.0844 0.821578 19.8621 1.79742 19.8621Z" fill="#FFE15A"/>
<path d="M24 12.8738H0V14.6208H24V12.8738Z" fill="#FF4B55"/>
<path d="M24 14.6208H0V16.3679H24V14.6208Z" fill="#FFE15A"/>
<path d="M23.9987 18.115C23.9992 18.0982 24 18.0816 24 18.0647V16.3678H0V18.0647C0 18.0815 0.00084375 18.0982 0.0013125 18.115H23.9987V18.115Z" fill="#FF4B55"/>
<path d="M0.413813 12H11.5862C11.8148 12 12 11.8147 12 11.5862V4.55175C12 4.32328 11.8149 4.13808 11.5865 4.13794H1.79742C0.804703 4.13799 0 4.94269 0 5.93541V11.5863C0 11.8148 0.185297 12 0.413813 12Z" fill="#64466E"/>
<path d="M11.0363 7.62256H10.0835V6.5336H10.2196V6.2614H10.0835H8.99456H8.85843V6.5336H8.99456V7.62256H8.45011V6.5336H8.58618V6.2614H8.45006H7.36111H7.22498V6.5336H7.36111V7.62256H6.54445V6.2614H6.68058V5.9892H5.31942V6.2614H5.45554V7.62256H4.63884V6.5336H4.77497V6.2614H4.63884H3.54994H3.41381V6.5336H3.54994V7.62256H3.00543V6.5336H3.14156V6.2614H3.00543H1.91653H1.7804V6.5336H1.91653V7.62256H0.963701H0.827576V7.89476H0.963701V10.3449H1.91653H2.86936V9.52817C2.86936 9.37779 2.99123 9.25596 3.14156 9.25596C3.29193 9.25596 3.41376 9.37788 3.41376 9.52817V10.3449H3.54989H4.63884H4.77497V9.52817C4.77497 9.37779 4.89684 9.25596 5.04717 9.25596C5.1975 9.25596 5.31937 9.37788 5.31937 9.52817V10.3449H5.4555H5.59162V9.39204C5.59162 9.16653 5.77448 8.98367 6 8.98367C6.22551 8.98367 6.40837 9.16653 6.40837 9.39204V10.3449H6.5445H6.68062V9.52817C6.68062 9.37779 6.8025 9.25596 6.95283 9.25596C7.10315 9.25596 7.22503 9.37788 7.22503 9.52817V10.3449H7.36115H8.45011H8.58604V9.52817C8.58604 9.37779 8.70792 9.25596 8.85825 9.25596C9.00857 9.25596 9.13045 9.37788 9.13045 9.52817V10.3449H10.0833H11.0361V7.89481H11.1722V7.6226H11.0362V7.62256H11.0363ZM2.73318 8.71146H2.18878V7.89481C2.18878 7.74443 2.31065 7.6226 2.46098 7.6226C2.61131 7.6226 2.73318 7.74452 2.73318 7.89481V8.71146V8.71146ZM4.36659 8.71146H3.82214V7.89481C3.82214 7.74443 3.94401 7.6226 4.09434 7.6226C4.24472 7.6226 4.36654 7.74452 4.36654 7.89481L4.36659 8.71146ZM6.2722 7.89476H5.72775V7.35031C5.72775 7.19993 5.84962 7.0781 5.99995 7.0781C6.15033 7.0781 6.27215 7.20002 6.27215 7.35031L6.2722 7.89476ZM8.17786 8.71146H7.6334V7.89481C7.6334 7.74443 7.75528 7.6226 7.90561 7.6226C8.05598 7.6226 8.17781 7.74452 8.17781 7.89481L8.17786 8.71146ZM9.81122 8.71146H9.26676V7.89481C9.26676 7.74443 9.38864 7.6226 9.53897 7.6226C9.68929 7.6226 9.81117 7.74452 9.81117 7.89481L9.81122 8.71146Z" fill="#F5F5F5"/>
</svg>
