<svg xmlns="http://www.w3.org/2000/svg" width="24" height="24" viewBox="0 0 24 24" fill="none"><rect width="24" height="24" fill="none"/>
<path d="M22.2026 19.8621H1.79742C0.804703 19.8621 0 19.0574 0 18.0646V5.93536C0 4.94269 0.804703 4.13794 1.79742 4.13794H22.2026C23.1952 4.13794 24 4.94264 24 5.93536V18.0647C24 19.0574 23.1953 19.8621 22.2026 19.8621Z" fill="#F5F5F5"/>
<path d="M6.66783 12.8129C6.66783 12.8129 6.67932 13.0323 6.49449 13.2287C6.30966 13.4251 6.40205 13.6793 6.64468 13.7948C6.64468 13.7948 6.47724 14.1933 6.72558 14.3608C6.88238 14.4667 7.09524 14.4533 7.09524 14.4533C7.09524 14.4533 7.21079 14.9269 7.11835 15.2272C7.02591 15.5276 7.15299 16.394 9.267 15.8972C9.267 15.8972 9.28618 16.4517 10.1334 16.883C10.9805 17.3143 10.8146 18.3359 10.8146 18.3359C10.8146 18.3359 11.9806 19.011 13.2694 17.4153C14.5583 15.8197 14.6503 15.6049 15.5708 15.2367C15.5708 15.2367 14.1286 13.7638 14.6503 12.475C14.719 12.3051 14.7967 12.1269 14.8776 11.9436C15.027 12.4287 15.322 13.137 15.849 13.549C16.013 13.6765 16.2153 13.7168 16.4109 13.7561C16.6209 13.7983 16.8022 13.8347 16.8875 13.9642C16.9626 14.0795 16.9694 14.2829 16.9114 14.5643C16.2848 15.2479 15.6792 15.4301 15.6707 15.4322L15.525 15.4716L15.8313 16.4821L14.917 17.3232L14.9333 17.4047C15.0465 17.9686 15.3945 18.0434 15.5384 18.0501C15.547 18.0501 15.5557 18.0511 15.5643 18.0511C15.897 18.0511 16.2355 17.7711 16.3429 17.4019C16.529 16.7643 17.136 16.6914 17.1427 16.6914L17.2348 16.6808L17.2654 16.5936C17.2789 16.5552 17.5943 15.6461 17.7496 14.7199C17.8121 14.3452 17.824 14.0469 17.8112 13.786C17.8161 13.777 17.8216 13.772 17.8263 13.7629L17.8105 13.7546C17.7519 12.7669 17.2162 12.5041 16.6871 12.2602C16.2361 12.0508 16.059 11.8475 15.9714 11.6863C15.9896 11.6867 16.0051 11.6916 16.0235 11.6916C16.1674 11.6916 16.3189 11.6753 16.4723 11.6321C16.8999 11.5132 17.2462 11.2208 17.5012 10.7633C17.6566 10.4834 18.8121 7.31316 18.9434 6.95265L19.0345 6.70233L17.5429 7.02071L17.6565 6.11358L15.7233 6.79538L15.7694 6.93347C15.7761 6.95166 16.3917 8.80051 16.3322 9.92911C16.3159 10.2255 16.2229 10.4402 16.0532 10.5668C15.8398 10.7243 15.5506 10.716 15.3996 10.6997C15.736 9.80574 15.953 8.86651 15.6322 8.02561C15.1008 6.63244 12.7478 5.35599 10.9681 5.54011C9.18835 5.72424 7.71324 6.15427 7.22227 7.93407C6.7313 9.71386 6.86818 10.1841 6.92958 10.4909C6.99094 10.7978 5.835 12.1523 6.04402 12.5703C6.18258 12.8475 6.66783 12.8129 6.66783 12.8129ZM15.1989 11.2034C15.2299 11.1304 15.2608 11.0577 15.2909 10.9838C15.3454 10.9935 15.4262 11.005 15.545 11.005C15.7463 11.005 16.01 10.9666 16.2296 10.8026C16.4722 10.6214 16.6055 10.3328 16.6257 9.94444C16.6803 8.93185 16.2392 7.43879 16.0935 6.97754L17.3056 6.55083L17.0112 8.90213L17.3027 8.93855L17.5042 7.32971L18.5761 7.10124C18.0651 8.50126 17.3468 10.4354 17.2442 10.6195C17.0285 11.006 16.7417 11.2515 16.3927 11.3483C15.8685 11.4969 15.3691 11.2869 15.1989 11.2034ZM15.9261 16.7951L16.0756 17.2887C16.0718 17.3007 16.0645 17.3071 16.0609 17.3194C15.9909 17.5591 15.7656 17.7557 15.5651 17.7557C15.5603 17.7557 15.5556 17.7557 15.5517 17.7557C15.3695 17.7481 15.2822 17.5706 15.241 17.4258L15.9261 16.7951ZM17.5098 14.2482C17.498 14.3806 17.4852 14.5146 17.459 14.6718C17.3343 15.4169 17.0946 16.1725 17.014 16.4152C16.8491 16.4537 16.5087 16.5704 16.2657 16.9001L15.8911 15.6672C16.1898 15.5485 16.8893 15.1566 17.5098 14.2482ZM15.0685 11.5108C15.0742 11.498 15.0797 11.4863 15.0852 11.4734C15.1959 11.5259 15.3828 11.6031 15.6321 11.6518C15.7014 11.8579 15.8637 12.2029 16.5633 12.5268C17.0485 12.7508 17.4567 12.9408 17.5216 13.6907C17.4301 13.8591 17.3297 13.9761 17.232 14.1144C17.2177 13.9953 17.19 13.8883 17.1339 13.8031C16.9805 13.5701 16.7091 13.5154 16.4684 13.4675C16.2987 13.433 16.1386 13.4013 16.0302 13.3169C15.411 12.8334 15.1456 11.8506 15.0685 11.5108ZM7.40714 9.33558C7.40714 9.33558 7.45327 8.29599 7.9155 7.41797L14.9854 10.6988L14.3846 11.9926L7.40714 9.33558Z" fill="#464655"/>
</svg>
