<svg xmlns="http://www.w3.org/2000/svg" width="24" height="24" viewBox="0 0 24 24" fill="none"><rect width="24" height="24" fill="none"/>
<path d="M22.2025 19.8621H1.79742C0.804703 19.8621 0 19.0573 0 18.0646V5.93536C0 4.94269 0.804703 4.13794 1.79742 4.13794H22.2025C23.1952 4.13794 24 4.94264 24 5.93536V18.0646C24 19.0573 23.1952 19.8621 22.2025 19.8621Z" fill="#F5F5F5"/>
<path d="M24 10.3448H13.6552V4.13794H10.3448V10.3448H0V13.6552H10.3448V19.8621H13.6552V13.6552H24V10.3448Z" fill="#FF4B55"/>
<path d="M16.9655 13.2414V10.7587L16.3448 11.3794H7.65516L7.03448 10.7587V13.2414L7.65516 12.6207H16.3448L16.9655 13.2414Z" fill="#FFE15A"/>
<path d="M10.7586 16.9656H13.2413L12.6207 16.3449V7.65526L13.2413 7.03455H10.7586L11.3793 7.65526V16.3449L10.7586 16.9656Z" fill="#FFE15A"/>
</svg>
