<svg xmlns="http://www.w3.org/2000/svg" width="24" height="24" viewBox="0 0 24 24" fill="none"><rect width="24" height="24" fill="none"/>
<path d="M22.2026 4.13794H1.79742C0.804703 4.13794 0 4.94264 0 5.93536V7.4483H24V5.93536C24 4.94264 23.1953 4.13794 22.2026 4.13794Z" fill="#FF4B55"/>
<path d="M0 18.0646C0 19.0573 0.804703 19.8621 1.79742 19.8621H22.2026C23.1952 19.8621 24 19.0574 24 18.0646V16.5517H0V18.0646Z" fill="#FF4B55"/>
<path d="M24 7.44844H0V16.552H24V7.44844Z" fill="#F5F5F5"/>
<path d="M12.8842 14.7834L16.7083 14.0185C16.9843 13.9634 17.1075 13.6385 16.9375 13.4141C16.8778 13.3353 16.7899 13.2828 16.6922 13.2676L12.6182 12.6324C12.5056 12.6148 12.4259 12.5091 12.4448 12.3921C12.4631 12.279 12.5778 12.2069 12.6915 12.2218L15.5161 12.5935C15.7456 12.6237 15.8865 12.3494 15.7281 12.1804L15.5013 11.9385C15.4164 11.848 15.3052 11.7865 15.1833 11.763L12.8237 11.306L14.8356 11.4509C14.9898 11.462 15.0792 11.2797 14.9759 11.1646L14.8727 11.0496C14.8103 10.9801 14.7275 10.9323 14.6361 10.9132L12.6386 10.4958L14.0582 10.4548C14.1837 10.4512 14.2476 10.3023 14.1637 10.2089L14.1 10.1379C14.0501 10.0824 13.9856 10.042 13.9139 10.0214L12.6478 9.65789H13.6428C13.7412 9.65789 13.8074 9.55701 13.7683 9.46673L13.7348 9.38934C13.6945 9.29644 13.6169 9.22486 13.521 9.19223L12.6009 8.8792L13.0535 8.87775C13.188 8.87733 13.2781 8.73942 13.2247 8.61605C13.1816 8.51662 13.1055 8.43511 13.0094 8.38523L12 7.86206L10.9906 8.38542C10.8944 8.4353 10.8184 8.51681 10.7753 8.61623C10.7218 8.73965 10.812 8.87751 10.9465 8.87789L11.399 8.87939L10.4789 9.19242C10.383 9.225 10.3054 9.29658 10.2652 9.38953L10.2316 9.46692C10.1925 9.55725 10.2587 9.65808 10.3571 9.65808H11.3521L10.086 10.0216C10.0143 10.0422 9.94983 10.0826 9.89995 10.1381L9.8363 10.209C9.75244 10.3025 9.81628 10.4513 9.94177 10.455L11.3613 10.496L9.36384 10.9134C9.27244 10.9325 9.18956 10.9803 9.12722 11.0498L9.02405 11.1648C8.92074 11.2799 9.01008 11.4622 9.16434 11.4511L11.1763 11.3062L8.81667 11.7631C8.6948 11.7867 8.58352 11.8482 8.49863 11.9387L8.27184 12.1806C8.11345 12.3495 8.25431 12.6239 8.48386 12.5937L11.3085 12.222C11.4221 12.207 11.5369 12.2791 11.5552 12.3923C11.5741 12.5092 11.4943 12.615 11.3817 12.6326L7.30777 13.2678C7.21013 13.283 7.12219 13.3355 7.06247 13.4143C6.8925 13.6387 7.01569 13.9635 7.29169 14.0187L11.1158 14.7836V15.2609C11.1158 15.5214 11.0123 15.7713 10.8281 15.9555L10.2317 16.5518H12H13.7684L13.1719 15.9554C12.9877 15.7712 12.8842 15.5213 12.8842 15.2608V14.7834H12.8842V14.7834Z" fill="#73AF00"/>
</svg>
