<svg xmlns="http://www.w3.org/2000/svg" width="24" height="24" viewBox="0 0 24 24" fill="none"><rect width="24" height="24" fill="none"/>
<path d="M24 9.51697H0V14.4829H24V9.51697Z" fill="#FF4B55"/>
<path d="M22.2024 4.13702H1.79494C0.834703 4.13702 0.0504844 4.88993 0 5.83751V6.82699H24V5.93463C24 4.94187 23.1952 4.13702 22.2024 4.13702Z" fill="#41479B"/>
<path d="M24 6.82678H0V9.51694H24V6.82678Z" fill="#F5F5F5"/>
<path d="M0 18.1625C0.0504844 19.11 0.834703 19.8629 1.79494 19.8629H22.2024C23.1952 19.8629 24 19.0581 24 18.0653V17.173H0V18.1625Z" fill="#41479B"/>
<path d="M24 14.4829H0V17.1731H24V14.4829Z" fill="#F5F5F5"/>
<path d="M6.48797 14.069C7.55716 14.069 8.42391 13.1426 8.42391 11.9999C8.42391 10.8572 7.55716 9.93085 6.48797 9.93085C5.41878 9.93085 4.55203 10.8572 4.55203 11.9999C4.55203 13.1426 5.41878 14.069 6.48797 14.069Z" fill="#F5F5F5"/>
<path d="M7.48918 11.1989H5.48672V12.2001H7.48918V11.1989Z" fill="#3CC8FF"/>
<path d="M5.75372 11.7683L5.7766 11.9892L5.86655 11.7862L5.82005 12.0033L5.96836 11.8381L5.85699 12.0302L6.04908 11.9189L5.88385 12.0672L6.10097 12.0206L5.898 12.1106L6.11888 12.1335L5.898 12.1563L6.10097 12.2463L5.88385 12.1997L6.04908 12.3481L5.85699 12.2367L5.96836 12.4289L5.82005 12.2636L5.86655 12.4808L5.7766 12.2777L5.75372 12.4986L5.73085 12.2777L5.64089 12.4808L5.68739 12.2636L5.53908 12.4289L5.65041 12.2367L5.45827 12.3481L5.62355 12.1997L5.40647 12.2463L5.60944 12.1563L5.38857 12.1335L5.60944 12.1106L5.40647 12.0206L5.62355 12.0672L5.45827 11.9189L5.65041 12.0302L5.53908 11.8381L5.68739 12.0033L5.64089 11.7862L5.73085 11.9892L5.75372 11.7683Z" fill="#FFE15A"/>
<path d="M6.88842 13.602H6.08747L5.35322 13.0012V12.1335H7.68937V13.0012L6.88842 13.602Z" fill="#41479B"/>
<path d="M7.28892 11.8665H7.28887C7.28869 11.8482 7.27387 11.8335 7.25555 11.8335C7.23722 11.8335 7.2225 11.8482 7.22222 11.8665H7.22217C7.22217 11.9823 7.15505 12.1426 7.07273 12.2573C6.9578 12.1121 6.91453 11.9438 6.89827 11.8378C6.89048 11.7873 6.83587 11.7593 6.79008 11.7821C6.76805 11.7931 6.75319 11.8146 6.74944 11.8389C6.69834 12.1663 6.54403 12.3054 6.44409 12.3626C6.29447 12.2179 6.2452 11.9839 6.22894 11.8455C6.22261 11.7917 6.16505 11.7608 6.11658 11.785C6.09792 11.7944 6.08409 11.8112 6.07758 11.831C5.86823 12.4692 5.28647 12.5339 5.28647 12.5339V12.7341H7.62262V12.6674V12.6006V12.5339V12.4671V12.4004C7.35567 12.3337 7.28892 11.8665 7.28892 11.8665Z" fill="#73AF00"/>
<path d="M7.62263 11.2658C7.35563 11.1323 7.35563 10.9988 7.35563 10.9988C7.35563 10.9988 7.02188 10.8653 6.75488 10.8653C6.75488 10.8653 6.82163 10.7318 6.68813 10.7318C6.55463 10.7318 6.48788 10.7318 6.48788 10.7318C6.48788 10.7318 6.42113 10.7318 6.28763 10.7318C6.15413 10.7318 6.22088 10.8653 6.22088 10.8653C5.95388 10.8653 5.62013 10.9988 5.62013 10.9988C5.62013 10.9988 5.62013 11.1323 5.35313 11.2658C5.08613 11.3993 5.08613 11.6996 5.08613 11.6996C5.08613 11.7549 5.13099 11.7997 5.18621 11.7997C5.24152 11.7997 5.28628 11.7548 5.28628 11.6996C5.28628 11.6882 5.28394 11.6775 5.28043 11.6672L5.28628 11.6663L5.95374 11.199H6.48774H7.02174L7.68919 11.6663L7.69505 11.6672C7.69153 11.6774 7.68919 11.6882 7.68919 11.6996C7.68919 11.7549 7.73405 11.7997 7.78927 11.7997C7.84449 11.7997 7.88935 11.7548 7.88935 11.6996C7.88958 11.6997 7.88958 11.3993 7.62263 11.2658Z" fill="#F0AA00"/>
<path d="M7.82287 12.0668C7.75612 12.0668 7.55587 12.0668 7.55587 11.8665C7.55587 11.6663 7.82287 11.6663 7.82287 11.6663L7.42237 11.5328C7.28887 12 7.55587 12 7.55587 12.6007C7.55587 13.1389 6.95512 13.4684 6.75487 13.4684C6.55462 13.4684 6.48787 13.6019 6.48787 13.6019C6.48787 13.6019 6.42112 13.4684 6.22087 13.4684C6.02062 13.4684 5.41987 13.1389 5.41987 12.6007C5.41987 12 5.68687 12 5.55337 11.5328L5.15287 11.6663C5.15287 11.6663 5.41987 11.6663 5.41987 11.8665C5.41987 12.0668 5.21962 12.0668 5.15287 12.0668C5.08612 12.0668 4.81912 12.0668 4.81912 12.4005C4.81912 12.7343 5.15287 13.1348 5.62012 13.4018C6.08737 13.6688 5.88712 13.9358 6.48783 13.9358C7.08853 13.9358 6.88833 13.6688 7.35553 13.4018C7.82273 13.1348 8.15653 12.7343 8.15653 12.4005C8.15662 12.0668 7.88958 12.0668 7.82287 12.0668Z" fill="#F0AA00"/>
<path d="M6.35451 11.0219L6.19307 10.9493C6.16626 10.9373 6.13654 10.9345 6.10795 10.9411C6.00389 10.9652 5.7457 11.0443 5.55356 11.2657L5.75381 11.3325L6.35451 11.0219Z" fill="#73AF00"/>
<path d="M6.62147 11.0219L6.78291 10.9493C6.80972 10.9373 6.83944 10.9345 6.86803 10.9411C6.97209 10.9652 7.23028 11.0443 7.42242 11.2657L7.22217 11.3325L6.62147 11.0219Z" fill="#73AF00"/>
<path d="M6.51159 11.0654L6.63333 10.9437C6.63984 10.9372 6.63984 10.9266 6.63333 10.9201C6.62681 10.9136 6.61626 10.9136 6.60975 10.9201L6.48801 11.0418L6.36628 10.9201C6.35976 10.9136 6.34922 10.9136 6.3427 10.9201C6.33619 10.9266 6.33619 10.9372 6.3427 10.9437L6.46444 11.0654L6.3427 11.1872C6.33619 11.1937 6.33619 11.2042 6.3427 11.2107C6.34598 11.214 6.35025 11.2157 6.35451 11.2157C6.35878 11.2157 6.36304 11.214 6.36633 11.2107L6.48806 11.089L6.60979 11.2107C6.61308 11.214 6.61734 11.2157 6.62161 11.2157C6.62592 11.2157 6.63014 11.214 6.63342 11.2107C6.63994 11.2042 6.63994 11.1937 6.63342 11.1872L6.51159 11.0654Z" fill="#73AF00"/>
<path d="M7.82292 11.6663C7.82292 11.5527 7.71563 11.5036 7.62267 11.4823V11.4294C7.497 11.4176 7.42692 11.3705 7.30505 11.2875C7.25813 11.2554 7.20488 11.2192 7.14066 11.1802C6.90595 11.0376 6.72558 11.017 6.62142 11.022V11.1323H6.35442V11.022C6.25031 11.017 6.06989 11.0376 5.83519 11.1802C5.77092 11.2192 5.71772 11.2554 5.6708 11.2875C5.54897 11.3704 5.47889 11.4177 5.35317 11.4294V11.4823C5.26022 11.5036 5.15292 11.5527 5.15292 11.6663L5.35317 11.5995V11.6299C5.5426 11.616 5.65092 11.5433 5.78353 11.453C5.82849 11.4224 5.87939 11.3876 5.93916 11.3514C6.0916 11.2587 6.21005 11.2301 6.28767 11.2233V11.3326H6.68817V11.2233C6.76575 11.2301 6.88425 11.2588 7.03669 11.3514C7.09645 11.3877 7.14741 11.4224 7.19231 11.453C7.32488 11.5433 7.43321 11.616 7.62267 11.6299V11.5995L7.82292 11.6663Z" fill="#F5F5F5"/>
<path d="M7.28892 10.6141V10.5315H7.10302C7.1355 10.5036 7.15547 10.4708 7.15547 10.4314C7.15547 10.247 6.73589 10.1978 6.48802 10.1978C6.24014 10.1978 5.82056 10.247 5.82056 10.4314C5.82056 10.4708 5.84053 10.5037 5.87302 10.5315H5.68711V10.6141C5.5237 10.6506 5.39011 10.7383 5.38308 10.743L5.4571 10.854C5.45892 10.8528 5.64258 10.7317 5.82056 10.7317V10.665H7.15552V10.7317C7.3335 10.7317 7.51716 10.8528 7.51899 10.854L7.593 10.743C7.58592 10.7383 7.45233 10.6505 7.28892 10.6141ZM6.75497 10.513V10.4624C6.75497 10.4297 6.72422 10.4058 6.69258 10.4136L6.48797 10.4648L6.28336 10.4136C6.25167 10.4057 6.22097 10.4297 6.22097 10.4624V10.513C6.07102 10.491 5.98233 10.4543 5.95819 10.4314C5.99428 10.3971 6.17114 10.3314 6.48797 10.3314C6.80475 10.3314 6.98161 10.3972 7.01775 10.4314C6.99356 10.4543 6.90488 10.491 6.75497 10.513Z" fill="#3CC8FF"/>
<path d="M6.49633 11.3576L6.51325 11.4083L6.56669 11.4087C6.57363 11.4088 6.57649 11.4176 6.57091 11.4217L6.52792 11.4535L6.54405 11.5045C6.54611 11.5111 6.53861 11.5165 6.53299 11.5125L6.48949 11.4814L6.44599 11.5125C6.44036 11.5165 6.43286 11.511 6.43492 11.5045L6.45105 11.4535L6.40806 11.4217C6.40249 11.4176 6.40539 11.4088 6.41228 11.4087L6.46572 11.4083L6.48264 11.3576C6.48485 11.3511 6.49408 11.3511 6.49633 11.3576Z" fill="#F5F5F5"/>
<path d="M6.23463 11.3747L6.25675 11.4234L6.31 11.4182C6.31689 11.4176 6.32064 11.4261 6.31558 11.4307L6.27616 11.4668L6.29753 11.5158C6.30035 11.5222 6.29341 11.5283 6.28741 11.5249L6.24091 11.4986L6.20092 11.5341C6.19577 11.5387 6.18766 11.534 6.18907 11.5272L6.19975 11.4748L6.15367 11.4478C6.14772 11.4442 6.14964 11.4352 6.15653 11.4344L6.20964 11.4284L6.22113 11.3762C6.22249 11.3694 6.23177 11.3685 6.23463 11.3747Z" fill="#F5F5F5"/>
<path d="M5.96594 11.4464L5.9981 11.4891L6.04891 11.4725C6.05547 11.4704 6.061 11.4779 6.05702 11.4835L6.02636 11.5273L6.05786 11.5704C6.06194 11.576 6.05655 11.5836 6.04994 11.5816L5.99885 11.5659L5.96749 11.6092C5.96346 11.6148 5.95455 11.612 5.95446 11.6051L5.95352 11.5517L5.90266 11.5352C5.8961 11.5331 5.896 11.5238 5.90257 11.5216L5.9531 11.5042L5.953 11.4508C5.95296 11.4438 5.96177 11.4408 5.96594 11.4464Z" fill="#F5F5F5"/>
<path d="M5.69665 11.5599L5.73415 11.5979L5.78229 11.5748C5.78857 11.5718 5.79499 11.5784 5.7918 11.5846L5.76719 11.6321L5.80413 11.6707C5.80891 11.6757 5.8046 11.6839 5.79776 11.6828L5.74497 11.674L5.71961 11.7211C5.71633 11.7272 5.70719 11.7256 5.70616 11.7187L5.69819 11.6659L5.6456 11.6563C5.63876 11.6551 5.63749 11.6458 5.64368 11.6427L5.69149 11.6188L5.68436 11.5659C5.68343 11.559 5.69177 11.5549 5.69665 11.5599Z" fill="#F5F5F5"/>
<path d="M6.7443 11.3747L6.72218 11.4234L6.66893 11.4182C6.66204 11.4176 6.65829 11.4261 6.66335 11.4307L6.70277 11.4668L6.6814 11.5158C6.67858 11.5222 6.68552 11.5283 6.69152 11.5249L6.73802 11.4986L6.77801 11.5341C6.78316 11.5387 6.79127 11.534 6.78987 11.5272L6.77918 11.4748L6.82526 11.4478C6.83121 11.4442 6.82929 11.4352 6.8224 11.4344L6.76929 11.4284L6.7578 11.3762C6.7564 11.3694 6.74716 11.3685 6.7443 11.3747Z" fill="#F5F5F5"/>
<path d="M7.01298 11.4464L6.98083 11.4891L6.93001 11.4725C6.92345 11.4704 6.91792 11.4779 6.92191 11.4835L6.95256 11.5273L6.92106 11.5704C6.91698 11.576 6.92237 11.5836 6.92898 11.5816L6.98008 11.5659L7.01144 11.6092C7.01547 11.6148 7.02437 11.612 7.02447 11.6051L7.02541 11.5517L7.07626 11.5352C7.08283 11.5331 7.08292 11.5238 7.07636 11.5216L7.02583 11.5042L7.02592 11.4508C7.02597 11.4438 7.01711 11.4408 7.01298 11.4464Z" fill="#F5F5F5"/>
<path d="M7.28229 11.5599L7.24479 11.5979L7.19664 11.5748C7.19036 11.5718 7.18394 11.5784 7.18713 11.5846L7.21174 11.6321L7.1748 11.6707C7.17002 11.6757 7.17433 11.6839 7.18118 11.6828L7.23396 11.674L7.25932 11.7211C7.2626 11.7272 7.27174 11.7256 7.27277 11.7187L7.28074 11.6659L7.33333 11.6563C7.34018 11.6551 7.34144 11.6458 7.33525 11.6427L7.28744 11.6188L7.29457 11.5659C7.2955 11.559 7.28716 11.5549 7.28229 11.5599Z" fill="#F5F5F5"/>
<path d="M6.02695 12.9595L6.36698 13.1869H6.77784L6.96773 13.0242L6.82167 13.0826H6.33773L6.02695 12.9595Z" fill="#8C5A28"/>
<path d="M6.25852 12.6661L6.22571 12.9971L6.07636 12.9401C6.07632 12.94 6.14503 12.7805 6.25852 12.6661Z" fill="#F5F5F5"/>
<path d="M6.57516 12.535H6.55308V13.0985H6.57516V12.535Z" fill="#8C5A28"/>
<path d="M6.77952 12.5824H6.75745V13.0985H6.77952V12.5824Z" fill="#8C5A28"/>
<path d="M6.37172 12.5824H6.34964V13.0985H6.37172V12.5824Z" fill="#8C5A28"/>
<path d="M6.63178 13.0453H6.49693C6.48291 13.0453 6.47152 13.0339 6.47152 13.0199V12.9518C6.47152 12.9378 6.48291 12.9264 6.49693 12.9264H6.63178C6.6458 12.9264 6.65719 12.9378 6.65719 12.9518V13.0199C6.65719 13.034 6.6458 13.0453 6.63178 13.0453Z" fill="#F5F5F5"/>
<path d="M6.63178 12.8868H6.49693C6.48291 12.8868 6.47152 12.8754 6.47152 12.8614V12.7933C6.47152 12.7793 6.48291 12.7679 6.49693 12.7679H6.63178C6.6458 12.7679 6.65719 12.7793 6.65719 12.7933V12.8614C6.65719 12.8754 6.6458 12.8868 6.63178 12.8868Z" fill="#F5F5F5"/>
<path d="M6.63178 12.7408H6.49693C6.48291 12.7408 6.47152 12.7294 6.47152 12.7154V12.6473C6.47152 12.6333 6.48291 12.6219 6.49693 12.6219H6.63178C6.6458 12.6219 6.65719 12.6333 6.65719 12.6473V12.7154C6.65719 12.7294 6.6458 12.7408 6.63178 12.7408Z" fill="#F5F5F5"/>
<path d="M6.8235 13.0453H6.71368C6.69966 13.0453 6.68827 13.0339 6.68827 13.0199V12.9518C6.68827 12.9378 6.69966 12.9264 6.71368 12.9264H6.8235C6.83752 12.9264 6.84891 12.9378 6.84891 12.9518V13.0199C6.84891 13.034 6.83752 13.0453 6.8235 13.0453Z" fill="#F5F5F5"/>
<path d="M6.8235 12.8993H6.71368C6.69966 12.8993 6.68827 12.8879 6.68827 12.8739V12.8245C6.68827 12.8105 6.69966 12.7991 6.71368 12.7991H6.8235C6.83752 12.7991 6.84891 12.8105 6.84891 12.8245V12.8739C6.84891 12.8879 6.83752 12.8993 6.8235 12.8993Z" fill="#F5F5F5"/>
<path d="M6.8235 12.7547H6.71368C6.69966 12.7547 6.68827 12.7433 6.68827 12.7293V12.6959C6.68827 12.6819 6.69966 12.6705 6.71368 12.6705H6.8235C6.83752 12.6705 6.84891 12.6819 6.84891 12.6959V12.7293C6.84891 12.7434 6.83752 12.7547 6.8235 12.7547Z" fill="#F5F5F5"/>
<path d="M6.41565 13.0453H6.30582C6.2918 13.0453 6.28041 13.0339 6.28041 13.0199V12.9518C6.28041 12.9378 6.2918 12.9264 6.30582 12.9264H6.41565C6.42966 12.9264 6.44105 12.9378 6.44105 12.9518V13.0199C6.44105 13.034 6.42966 13.0453 6.41565 13.0453Z" fill="#F5F5F5"/>
<path d="M6.41565 12.8993H6.30582C6.2918 12.8993 6.28041 12.8879 6.28041 12.8739V12.8245C6.28041 12.8105 6.2918 12.7991 6.30582 12.7991H6.41565C6.42966 12.7991 6.44105 12.8105 6.44105 12.8245V12.8739C6.44105 12.8879 6.42966 12.8993 6.41565 12.8993Z" fill="#F5F5F5"/>
<path d="M6.41565 12.7547H6.30582C6.2918 12.7547 6.28041 12.7433 6.28041 12.7293V12.6959C6.28041 12.6819 6.2918 12.6705 6.30582 12.6705H6.41565C6.42966 12.6705 6.44105 12.6819 6.44105 12.6959V12.7293C6.44105 12.7434 6.42966 12.7547 6.41565 12.7547Z" fill="#F5F5F5"/>
<path d="M6.37172 12.5831V12.6497L6.46988 12.6157L6.37172 12.5831Z" fill="#F5F5F5"/>
<path d="M6.7793 12.5831V12.6497L6.87746 12.6157L6.7793 12.5831Z" fill="#F5F5F5"/>
<path d="M6.57516 12.5352V12.6018L6.67327 12.5678L6.57516 12.5352Z" fill="#F5F5F5"/>
<path d="M6.31448 12.0844L6.43256 12.1634H6.57534L6.6413 12.1069L6.59053 12.1272H6.42244L6.31448 12.0844Z" fill="#8C5A28"/>
<path d="M6.39492 11.9824L6.38353 12.0974L6.33163 12.0776C6.33159 12.0776 6.35549 12.0222 6.39492 11.9824Z" fill="#F5F5F5"/>
<path d="M6.50503 11.9365H6.49739V12.1323H6.50503V11.9365Z" fill="#8C5A28"/>
<path d="M6.57581 11.9529H6.56817V12.1321H6.57581V11.9529Z" fill="#8C5A28"/>
<path d="M6.43425 11.9529H6.42661V12.1321H6.43425V11.9529Z" fill="#8C5A28"/>
<path d="M6.52455 12.114H6.47767C6.4728 12.114 6.46881 12.1101 6.46881 12.1052V12.0816C6.46881 12.0767 6.47275 12.0727 6.47767 12.0727H6.52455C6.52942 12.0727 6.5334 12.0766 6.5334 12.0816V12.1052C6.5334 12.1101 6.52947 12.114 6.52455 12.114Z" fill="#F5F5F5"/>
<path d="M6.52455 12.0589H6.47767C6.4728 12.0589 6.46881 12.055 6.46881 12.0501V12.0264C6.46881 12.0216 6.47275 12.0176 6.47767 12.0176H6.52455C6.52942 12.0176 6.5334 12.0215 6.5334 12.0264V12.0501C6.5334 12.055 6.52947 12.0589 6.52455 12.0589Z" fill="#F5F5F5"/>
<path d="M6.52455 12.0083H6.47767C6.4728 12.0083 6.46881 12.0043 6.46881 11.9994V11.9758C6.46881 11.9709 6.47275 11.9669 6.47767 11.9669H6.52455C6.52942 11.9669 6.5334 11.9709 6.5334 11.9758V11.9994C6.5334 12.0043 6.52947 12.0083 6.52455 12.0083Z" fill="#F5F5F5"/>
<path d="M6.59121 12.114H6.55305C6.54817 12.114 6.54419 12.1101 6.54419 12.1052V12.0816C6.54419 12.0767 6.54813 12.0727 6.55305 12.0727H6.59121C6.59608 12.0727 6.60006 12.0766 6.60006 12.0816V12.1052C6.59997 12.1101 6.59603 12.114 6.59121 12.114Z" fill="#F5F5F5"/>
<path d="M6.59121 12.0633H6.55305C6.54817 12.0633 6.54419 12.0594 6.54419 12.0545V12.0373C6.54419 12.0324 6.54813 12.0284 6.55305 12.0284H6.59121C6.59608 12.0284 6.60006 12.0324 6.60006 12.0373V12.0545C6.59997 12.0593 6.59603 12.0633 6.59121 12.0633Z" fill="#F5F5F5"/>
<path d="M6.59121 12.0131H6.55305C6.54817 12.0131 6.54419 12.0091 6.54419 12.0042V11.9926C6.54419 11.9877 6.54813 11.9838 6.55305 11.9838H6.59121C6.59608 11.9838 6.60006 11.9877 6.60006 11.9926V12.0042C6.59997 12.0092 6.59603 12.0131 6.59121 12.0131Z" fill="#F5F5F5"/>
<path d="M6.4495 12.114H6.41134C6.40647 12.114 6.40248 12.1101 6.40248 12.1052V12.0816C6.40248 12.0767 6.40642 12.0727 6.41134 12.0727H6.4495C6.45437 12.0727 6.45836 12.0766 6.45836 12.0816V12.1052C6.45831 12.1101 6.45437 12.114 6.4495 12.114Z" fill="#F5F5F5"/>
<path d="M6.4495 12.0633H6.41134C6.40647 12.0633 6.40248 12.0594 6.40248 12.0545V12.0373C6.40248 12.0324 6.40642 12.0284 6.41134 12.0284H6.4495C6.45437 12.0284 6.45836 12.0324 6.45836 12.0373V12.0545C6.45831 12.0593 6.45437 12.0633 6.4495 12.0633Z" fill="#F5F5F5"/>
<path d="M6.4495 12.0131H6.41134C6.40647 12.0131 6.40248 12.0091 6.40248 12.0042V11.9926C6.40248 11.9877 6.40642 11.9838 6.41134 11.9838H6.4495C6.45437 11.9838 6.45836 11.9877 6.45836 11.9926V12.0042C6.45831 12.0092 6.45437 12.0131 6.4495 12.0131Z" fill="#F5F5F5"/>
<path d="M6.43422 11.9534V11.9766L6.46834 11.9648L6.43422 11.9534Z" fill="#F5F5F5"/>
<path d="M6.57582 11.9534V11.9766L6.6099 11.9648L6.57582 11.9534Z" fill="#F5F5F5"/>
<path d="M6.50491 11.9368V11.96L6.53898 11.9482L6.50491 11.9368Z" fill="#F5F5F5"/>
<path d="M6.23085 11.733H6.14423C6.11296 11.733 6.08742 11.7075 6.08742 11.6762C6.08742 11.6449 6.11296 11.6194 6.14423 11.6194H6.23085C6.26212 11.6194 6.28767 11.6449 6.28767 11.6762C6.28771 11.7074 6.26212 11.733 6.23085 11.733Z" fill="#F5F5F5"/>
<path d="M6.88976 11.7329H6.83261C6.80126 11.7329 6.7758 11.7075 6.7758 11.6761C6.7758 11.6448 6.80126 11.6193 6.83261 11.6193H6.88976C6.92112 11.6193 6.94657 11.6448 6.94657 11.6761C6.94657 11.7075 6.92112 11.7329 6.88976 11.7329Z" fill="#F5F5F5"/>
<path d="M7.29559 11.8185H7.24525C7.22729 11.8185 7.21276 11.8039 7.21276 11.786V11.7806C7.21276 11.7626 7.22729 11.7481 7.24525 11.7481H7.29559C7.31354 11.7481 7.32807 11.7626 7.32807 11.7806V11.786C7.32807 11.8039 7.31354 11.8185 7.29559 11.8185Z" fill="#F5F5F5"/>
</svg>
