<svg xmlns="http://www.w3.org/2000/svg" width="24" height="24" viewBox="0 0 24 24" fill="none"><rect width="24" height="24" fill="none"/>
<path d="M22.2026 19.8621H1.79742C0.804703 19.8621 0 19.0574 0 18.0646V5.93536C0 4.94269 0.804703 4.13794 1.79742 4.13794H22.2026C23.1952 4.13794 24 4.94264 24 5.93536V18.0647C24 19.0574 23.1953 19.8621 22.2026 19.8621Z" fill="#FF4B55"/>
<path d="M16.3768 13.2341C16.3768 13.2341 15.5525 13.0966 14.9419 12.5903C14.7617 12.4409 14.5003 12.3267 14.2457 12.2423C14.4504 12.2333 14.6675 12.239 14.8727 12.2805C15.7226 12.4523 16.5467 12.0397 16.5467 12.0397C16.5467 12.0397 15.7152 12.1237 14.993 11.7954C14.7977 11.7066 14.5444 11.6648 14.2971 11.6472C14.475 11.596 14.6637 11.556 14.85 11.5457C15.7159 11.4977 16.4093 10.8907 16.4093 10.8907C16.4093 10.8907 15.6259 11.1815 14.8443 11.0459C14.6166 11.0064 14.3372 11.036 14.0772 11.0882C14.2483 10.9808 14.4366 10.8804 14.632 10.8157C15.4552 10.5434 15.9662 9.77634 15.9662 9.77634C15.9662 9.77634 15.2858 10.2616 14.4959 10.3348C14.2613 10.3565 13.9942 10.4618 13.7531 10.5831C13.8922 10.4306 14.051 10.2797 14.2267 10.1631C14.9492 9.68358 15.2403 8.80912 15.2403 8.80912C15.2403 8.80912 14.7117 9.45642 13.9688 9.73495C13.7663 9.81089 13.5565 9.96295 13.368 10.1268C13.4581 9.96305 13.564 9.79922 13.6898 9.6585C14.2677 9.01205 14.3283 8.09245 14.3283 8.09245C14.3283 8.09245 13.9804 8.8523 13.3321 9.30947C13.1431 9.44278 12.9665 9.66159 12.8195 9.88275C12.8645 9.68559 12.9265 9.48112 13.019 9.29686C13.408 8.52187 13.2263 7.61836 13.2263 7.61836C13.2263 7.61836 13.0889 8.4427 12.5825 9.05334C12.4331 9.23348 12.319 9.49491 12.2346 9.74962C12.2255 9.54492 12.2312 9.3278 12.2727 9.12262C12.4445 8.27269 12.032 7.44858 12.032 7.44858C12.032 7.44858 12.1159 8.28009 11.7876 9.00225C11.6988 9.19758 11.657 9.45089 11.6394 9.69816C11.5882 9.52031 11.5482 9.33159 11.5379 9.14527C11.4899 8.27944 10.8829 7.58597 10.8829 7.58597C10.8829 7.58597 11.1737 8.36944 11.0381 9.15103C10.9986 9.37866 11.0282 9.65808 11.0804 9.91814C10.973 9.74709 10.8726 9.55875 10.808 9.36328C10.5356 8.54006 9.76855 8.02912 9.76855 8.02912C9.76855 8.02912 10.2538 8.70952 10.327 9.49941C10.3487 9.73397 10.454 10.0012 10.5754 10.2422C10.4229 10.1032 10.2719 9.94439 10.1553 9.76856C9.67578 9.04608 8.80133 8.75508 8.80133 8.75508C8.80133 8.75508 9.44863 9.28369 9.72716 10.0265C9.80309 10.229 9.95516 10.4389 10.119 10.6274C9.95525 10.5373 9.79142 10.4314 9.6507 10.3056C9.00425 9.72764 8.08466 9.66703 8.08466 9.66703C8.08466 9.66703 8.8445 10.015 9.30167 10.6633C9.43489 10.8523 9.65375 11.0289 9.87481 11.1758C9.6777 11.1309 9.47324 11.0689 9.28902 10.9764C8.51403 10.5874 7.61052 10.7691 7.61052 10.7691C7.61052 10.7691 8.43486 10.9065 9.0455 11.4129C9.22564 11.5623 9.48706 11.6764 9.74178 11.7608C9.53708 11.7699 9.31995 11.7642 9.11478 11.7227C8.26484 11.5508 7.44073 11.9634 7.44073 11.9634C7.44073 11.9634 8.27225 11.8795 8.99441 12.2078C9.18974 12.2966 9.44305 12.3384 9.69031 12.356C9.51247 12.4072 9.32375 12.4472 9.13742 12.4575C8.27159 12.5055 7.57813 13.1125 7.57813 13.1125C7.57813 13.1125 8.36159 12.8217 9.14319 12.9573C9.37081 12.9968 9.65024 12.9672 9.9103 12.915C9.73925 13.0224 9.55091 13.1228 9.35544 13.1874C8.53222 13.4598 8.02128 14.2268 8.02128 14.2268C8.02128 14.2268 8.70167 13.7415 9.49156 13.6684C9.72613 13.6467 9.99336 13.5413 10.2344 13.42C10.0953 13.5725 9.93655 13.7235 9.76072 13.8401C9.03824 14.3196 8.74719 15.1941 8.74719 15.1941C8.74719 15.1941 9.2758 14.5468 10.0186 14.2682C10.2211 14.1923 10.431 14.0402 10.6194 13.8764C10.5294 14.0401 10.4234 14.204 10.2977 14.3446C9.7198 14.9911 9.65919 15.9107 9.65919 15.9107C9.65919 15.9107 10.0071 15.1508 10.6555 14.6937C10.8445 14.5604 11.0211 14.3415 11.168 14.1205C11.1231 14.3176 11.0611 14.5221 10.9686 14.7063C10.5796 15.4813 10.7612 16.3848 10.7612 16.3848C10.7612 16.3848 10.8987 15.5605 11.405 14.9498C11.5544 14.7697 11.6686 14.5083 11.753 14.2536C11.762 14.4584 11.7563 14.6754 11.7148 14.8806C11.543 15.7305 11.9555 16.5546 11.9555 16.5546C11.9555 16.5546 11.8716 15.7231 12.2 15.001C12.2887 14.8057 12.3305 14.5523 12.3482 14.3051C12.3993 14.4829 12.4393 14.6716 12.4497 14.858C12.4977 15.7238 13.1046 16.4173 13.1046 16.4173C13.1046 16.4173 12.8138 15.6337 12.9494 14.8522C12.989 14.6246 12.9594 14.3452 12.9071 14.0851C13.0145 14.2562 13.115 14.4445 13.1796 14.64C13.452 15.4632 14.219 15.9741 14.219 15.9741C14.219 15.9741 13.7337 15.2937 13.6605 14.5038C13.6388 14.2692 13.5335 14.002 13.4122 13.761C13.5647 13.9 13.7156 14.0588 13.8323 14.2346C14.3118 14.9571 15.1862 15.2482 15.1862 15.2482C15.1862 15.2482 14.5389 14.7195 14.2604 13.9767C14.1845 13.7743 14.0324 13.5644 13.8685 13.3759C14.0323 13.466 14.1961 13.5719 14.3368 13.6976C14.9833 14.2755 15.9028 14.3362 15.9028 14.3362C15.9028 14.3362 15.143 13.9882 14.6858 13.3399C14.5525 13.1509 14.3337 12.9742 14.1125 12.8273C14.3097 12.8722 14.5141 12.9343 14.6984 13.0267C15.4733 13.4157 16.3768 13.2341 16.3768 13.2341ZM11.999 14.1011C10.8387 14.1011 9.89811 13.1605 9.89811 12.0002C9.89811 10.8399 10.8387 9.89934 11.999 9.89934C13.1593 9.89934 14.0999 10.8399 14.0999 12.0002C14.0999 13.1605 13.1593 14.1011 11.999 14.1011Z" fill="#FFE15A"/>
<path d="M11.3327 11.1501C11.3775 11.1152 11.4221 11.0801 11.4674 11.0488C11.1698 10.9135 10.9018 10.8484 10.7138 10.8193C10.6839 10.8519 10.6569 10.8868 10.6295 10.9215C10.8141 10.9573 11.0621 11.0258 11.3327 11.1501Z" fill="#FFE15A"/>
<path d="M10.8042 10.7266C11.0062 10.7494 11.2986 10.8096 11.623 10.9491C11.6774 10.9167 11.7315 10.888 11.7857 10.8603C11.4354 10.7165 11.1192 10.6629 10.9015 10.6463C10.8688 10.6729 10.8349 10.6978 10.8042 10.7266Z" fill="#FFE15A"/>
<path d="M11.856 11.7004C11.8141 11.6608 11.7717 11.6233 11.7289 11.588C11.3355 11.9623 10.9914 12.5082 10.8361 13.3004C10.8926 13.3509 10.9486 13.402 11.0113 13.445C11.1254 12.6394 11.46 12.0833 11.856 11.7004Z" fill="#FFE15A"/>
<path d="M11.7035 11.3524C11.748 11.3165 11.7926 11.2805 11.8378 11.2485C11.7827 11.2134 11.7279 11.1825 11.6732 11.1525C11.6264 11.1845 11.5795 11.2156 11.5333 11.2516C11.5899 11.2828 11.6465 11.316 11.7035 11.3524Z" fill="#FFE15A"/>
<path d="M12.7904 11.251C13.1276 11.5472 13.4359 11.9643 13.6552 12.5425C13.7115 12.3708 13.7496 12.1908 13.7496 12.0003C13.7496 11.6386 13.6396 11.3027 13.4517 11.0237C13.2778 11.0583 13.0443 11.1259 12.7904 11.251Z" fill="#FFE15A"/>
<path d="M11.8687 11.465C11.9126 11.4976 11.9556 11.5344 11.9988 11.5707C12.042 11.5344 12.085 11.4976 12.129 11.465C12.0858 11.429 12.0427 11.3935 11.9988 11.3612C11.955 11.3936 11.9119 11.429 11.8687 11.465Z" fill="#FFE15A"/>
<path d="M11.9988 10.958C11.9438 10.9859 11.8888 11.0174 11.8335 11.0501C11.8885 11.079 11.9435 11.11 11.9988 11.144C12.0542 11.1101 12.1092 11.079 12.1642 11.0501C12.1088 11.0173 12.0538 10.9859 11.9988 10.958Z" fill="#FFE15A"/>
<path d="M10.6453 13.0982C10.8305 12.3419 11.1796 11.8237 11.5703 11.4673C11.5157 11.4287 11.4613 11.3933 11.4067 11.3606C11.0307 11.6912 10.6905 12.169 10.4809 12.8573C10.5292 12.9427 10.5838 13.0226 10.6453 13.0982Z" fill="#FFE15A"/>
<path d="M11.2072 11.251C10.9533 11.1258 10.7198 11.0583 10.5459 11.0236C10.358 11.3026 10.248 11.6386 10.248 12.0003C10.248 12.1908 10.2861 12.3708 10.3424 12.5425C10.5618 11.9642 10.87 11.5472 11.2072 11.251Z" fill="#FFE15A"/>
<path d="M11.9988 10.7615C12.3713 10.6077 12.7149 10.553 12.9592 10.5386C12.6833 10.3569 12.3539 10.2496 11.9988 10.2496C11.6437 10.2496 11.3143 10.3569 11.0384 10.5386C11.2828 10.553 11.6263 10.6076 11.9988 10.7615Z" fill="#FFE15A"/>
<path d="M11.9988 11.8484C11.6496 12.2354 11.3615 12.791 11.2679 13.5866C11.491 13.6897 11.737 13.7511 11.9988 13.7511C12.2607 13.7511 12.5067 13.6897 12.7297 13.5866C12.6362 12.791 12.348 12.2354 11.9988 11.8484Z" fill="#FFE15A"/>
<path d="M12.5909 11.3606C12.5364 11.3934 12.482 11.4287 12.4273 11.4673C12.818 11.8237 13.1671 12.3419 13.3523 13.0982C13.4138 13.0225 13.4684 12.9427 13.5167 12.8573C13.3072 12.169 12.9669 11.6912 12.5909 11.3606Z" fill="#FFE15A"/>
<path d="M13.1615 13.3004C13.0062 12.5082 12.6621 11.9623 12.2687 11.588C12.2259 11.6233 12.1835 11.6608 12.1416 11.7004C12.5376 12.0833 12.8721 12.6394 12.9862 13.445C13.049 13.402 13.105 13.3509 13.1615 13.3004Z" fill="#FFE15A"/>
<path d="M12.212 10.8602C12.2662 10.8879 12.3203 10.9167 12.3746 10.9491C12.6991 10.8095 12.9915 10.7494 13.1934 10.7265C13.1628 10.6978 13.1289 10.6728 13.0961 10.6462C12.8785 10.6629 12.5623 10.7165 12.212 10.8602Z" fill="#FFE15A"/>
<path d="M12.2942 11.3524C12.3512 11.316 12.4078 11.2828 12.4644 11.2516C12.4182 11.2156 12.3713 11.1845 12.3244 11.1525C12.2698 11.1826 12.215 11.2134 12.1599 11.2485C12.2051 11.2805 12.2496 11.3166 12.2942 11.3524Z" fill="#FFE15A"/>
<path d="M12.6649 11.1501C12.9355 11.0258 13.1835 10.9573 13.368 10.9215C13.3406 10.8868 13.3137 10.8519 13.2837 10.8194C13.0957 10.8485 12.8278 10.9134 12.5302 11.0489C12.5755 11.08 12.6202 11.1151 12.6649 11.1501Z" fill="#FFE15A"/>
</svg>
