<svg xmlns="http://www.w3.org/2000/svg" width="24" height="24" viewBox="0 0 24 24" fill="none"><rect width="24" height="24" fill="none"/>
<path d="M1.79742 4.13793C0.804703 4.13793 0 4.94264 0 5.93535V16.1379L18.2069 4.13793H1.79742V4.13793Z" fill="#41479B"/>
<path d="M22.2026 19.8621C23.1952 19.8621 24 19.0574 24 18.0646V7.86207L5.79309 19.8621H22.2026Z" fill="#73AF00"/>
<path d="M22.2026 4.13793H17.9596L0 15.9046V18.0646C0 19.0573 0.804703 19.8621 1.79742 19.8621H6.04036L24 8.0954V5.93535C24 4.94264 23.1953 4.13793 22.2026 4.13793Z" fill="#F5F5F5"/>
<path d="M22.2026 4.13793H20.2245L0 17.3884V18.0646C0 19.0573 0.804703 19.8621 1.79742 19.8621H3.77555L24 6.61157V5.93535C24 4.94264 23.1953 4.13793 22.2026 4.13793Z" fill="#FF4B55"/>
<path d="M4.22846 6.83885C4.63585 6.83885 5.00457 7.0039 5.27162 7.27076L5.4181 6.25423L4.61021 6.8899L4.22841 5.93543L3.84662 6.8899L3.03873 6.25423L3.18521 7.27076C3.45235 7.00385 3.82107 6.83885 4.22846 6.83885Z" fill="#FFE15A"/>
<path d="M3.18445 9.35791C2.91759 9.09087 2.75254 8.72205 2.75254 8.31476C2.75254 7.90737 2.91759 7.53865 3.18445 7.2716L2.16792 7.12507L2.80359 7.93296L1.84912 8.31476L2.80359 8.69655L2.16792 9.50444L3.18445 9.35791Z" fill="#FFE15A"/>
<path d="M6.60779 8.31471L5.65332 7.93291L6.28899 7.12507L5.27246 7.27155C5.53932 7.5386 5.70437 7.90741 5.70437 8.31471C5.70437 8.72205 5.53932 9.09082 5.27246 9.35787L6.28899 9.50435L5.65332 8.69646L6.60779 8.31471Z" fill="#FFE15A"/>
<path d="M4.22846 9.79061C3.82107 9.79061 3.45235 9.62556 3.1853 9.3587L3.03882 10.3752L3.84671 9.73956L4.22851 10.694L4.6103 9.73956L5.41819 10.3752L5.27171 9.3587C5.00457 9.62561 4.63585 9.79061 4.22846 9.79061Z" fill="#FFE15A"/>
<path d="M4.22861 9.51986C4.89417 9.51986 5.43372 8.98031 5.43372 8.31475C5.43372 7.64919 4.89417 7.10964 4.22861 7.10964C3.56304 7.10964 3.0235 7.64919 3.0235 8.31475C3.0235 8.98031 3.56304 9.51986 4.22861 9.51986Z" fill="#FFE15A"/>
</svg>
