<svg xmlns="http://www.w3.org/2000/svg" width="24" height="24" viewBox="0 0 24 24" fill="none"><rect width="24" height="24" fill="none"/>
<path d="M0 18.0646C0 19.0573 0.804703 19.862 1.79742 19.862H22.2026C23.1952 19.862 24 19.0573 24 18.0646V14.6207H0V18.0646Z" fill="#73AF00"/>
<path d="M22.2026 4.13794H1.79742C0.804703 4.13794 0 4.94264 0 5.93536V9.37931H24V5.93536C24 4.94264 23.1953 4.13794 22.2026 4.13794Z" fill="#41479B"/>
<path d="M24 9.37921H0V14.6203H24V9.37921Z" fill="#F5F5F5"/>
<path d="M13.4286 12.9334L13.3324 12.9824C13.3193 12.9891 13.3052 12.9948 13.2919 13.0013L12.4422 11.928C12.6168 11.5483 12.7203 11.0302 12.7203 10.7946C12.7203 10.4076 12.4664 10.0851 12.1322 10.0169C12.1098 9.96643 12.0595 9.93109 12.0007 9.93109C11.9419 9.93109 11.8916 9.96643 11.8692 10.0169C11.5351 10.0851 11.2811 10.4076 11.2811 10.7946C11.2811 11.0302 11.3846 11.5483 11.5592 11.928L10.7096 13.0013C10.6964 12.9949 10.6823 12.9892 10.6692 12.9825L10.573 12.9335L10.2141 13.6392L10.3103 13.6881C10.8001 13.9373 11.3847 14.069 12.0007 14.069C12.6168 14.069 13.2015 13.9372 13.6915 13.6881L13.7877 13.6391L13.4286 12.9334ZM12.5764 10.7946C12.5764 10.9697 12.5114 11.3377 12.3909 11.6751C12.375 11.7195 12.3587 11.7617 12.3421 11.8016L12.2166 11.6431V11.0825H12.4325L12.1446 10.7946V10.1682C12.3925 10.2405 12.5764 10.4935 12.5764 10.7946ZM11.6105 11.675C11.49 11.3377 11.425 10.9697 11.425 10.7946C11.425 10.4935 11.6089 10.2404 11.8568 10.1682V10.7946L11.5689 11.0824H11.7848V11.643L11.6594 11.8015C11.6426 11.7617 11.6264 11.7195 11.6105 11.675ZM10.6426 13.2727L10.672 13.3936L10.5665 13.4224L10.6426 13.2727ZM10.517 13.5478L10.6975 13.4986L10.7307 13.635C10.6579 13.6081 10.5863 13.5795 10.517 13.5478ZM10.7907 13.2728C10.8728 13.3053 10.9583 13.3339 11.0461 13.3595L11.0721 13.4391L10.8448 13.4951L10.7907 13.2728ZM10.8922 13.69L10.8703 13.6001L11.1057 13.542L11.1787 13.7657C11.081 13.7444 10.9855 13.7191 10.8922 13.69ZM11.2117 13.4028C11.302 13.4239 11.394 13.442 11.4878 13.4558L11.5269 13.5257L11.2771 13.6036L11.2117 13.4028ZM11.3402 13.7968L11.3106 13.7062L11.5808 13.622L11.7032 13.841C11.5801 13.8318 11.4589 13.8171 11.3402 13.7968ZM11.6647 13.477C11.7756 13.4875 11.8878 13.4933 12.0007 13.4933C12.0247 13.4933 12.0486 13.492 12.0726 13.4915L12.1027 13.5376L11.7706 13.6664L11.6647 13.477ZM12.0007 13.8531C11.9579 13.8531 11.9156 13.8512 11.8732 13.8499L11.8238 13.7615L12.1629 13.63L12.3004 13.8407C12.2015 13.8481 12.1018 13.8531 12.0007 13.8531ZM12.2396 13.4842C12.3537 13.4766 12.4665 13.4636 12.5771 13.4453L12.6095 13.4867L12.3466 13.6482L12.2396 13.4842ZM12.4622 13.8255L12.4056 13.7386L12.6764 13.5722L12.827 13.7647C12.7081 13.7908 12.5863 13.811 12.4622 13.8255ZM12.7362 13.4151C12.8303 13.3948 12.9225 13.371 13.0118 13.3431L13.0453 13.3865L12.8542 13.5659L12.7362 13.4151ZM12.9809 13.7279L12.9209 13.6512L13.1116 13.4723L13.2444 13.6444C13.1585 13.6753 13.071 13.7038 12.9809 13.7279ZM13.1556 13.2939C13.2162 13.2714 13.2758 13.2477 13.333 13.2217L13.3612 13.277L13.2692 13.4411L13.1556 13.2939ZM13.3846 13.5904L13.341 13.5339L13.4201 13.3928L13.4964 13.5428C13.4599 13.5596 13.4221 13.5749 13.3846 13.5904Z" fill="#464655"/>
</svg>
