<svg xmlns="http://www.w3.org/2000/svg" width="24" height="24" viewBox="0 0 24 24" fill="none"><rect width="24" height="24" fill="none"/>
<path d="M22.2026 4.1377H1.79742C0.804703 4.1377 0 4.9424 0 5.93512V18.0645C0 19.0572 0.804703 19.8619 1.79742 19.8619H22.2026C23.1952 19.8619 24 19.0572 24 18.0645V5.93512C24 4.9424 23.1953 4.1377 22.2026 4.1377ZM7.4483 18.2067C7.4483 18.4352 7.263 18.6205 7.03448 18.6205H4.34484H1.65516C1.42664 18.6205 1.24134 18.4352 1.24134 18.2067V5.79285C1.24134 5.56434 1.42664 5.37903 1.65516 5.37903H4.34484H7.03448C7.263 5.37903 7.4483 5.56434 7.4483 5.79285V18.2067ZM22.7586 18.2067C22.7586 18.4352 22.5733 18.6205 22.3448 18.6205H9.10345C8.87494 18.6205 8.68964 18.4352 8.68964 18.2067V5.79285C8.68964 5.56434 8.87494 5.37903 9.10345 5.37903H22.3448C22.5734 5.37903 22.7587 5.56434 22.7587 5.79285V18.2067H22.7586Z" fill="#FFD250"/>
<path d="M22.3447 5.37891H9.10327C8.87475 5.37891 8.68945 5.5642 8.68945 5.79272V18.2065C8.68945 18.435 8.87475 18.6203 9.10327 18.6203H22.3447C22.5732 18.6203 22.7585 18.435 22.7585 18.2065V5.79267C22.7584 5.56416 22.5732 5.37891 22.3447 5.37891Z" fill="#963C3C"/>
<path d="M1.65502 5.37891C1.42651 5.37891 1.24121 5.5642 1.24121 5.79272V18.2065C1.24121 18.435 1.42651 18.6203 1.65502 18.6203H4.34471V5.37891H1.65502Z" fill="#5AA587"/>
<path d="M7.03437 5.37891H4.34473V18.6203H7.03437C7.26288 18.6203 7.44818 18.435 7.44818 18.2065V5.79267C7.44818 5.56416 7.26288 5.37891 7.03437 5.37891Z" fill="#FF7350"/>
<path d="M18.4482 15.3157C18.4344 15.2232 18.5158 15.1038 18.6416 14.9321C18.6871 14.8701 18.7529 14.7803 18.7706 14.7372C18.7589 14.7364 18.7427 14.7373 18.7307 14.7379C18.6611 14.7413 18.5558 14.7461 18.4638 14.644C18.4278 14.6039 18.4104 14.5539 18.4138 14.4992C18.4207 14.388 18.5115 14.2788 18.5678 14.221C18.4226 14.119 18.2839 14.0131 18.156 13.8852C17.9116 13.6408 17.6328 13.5231 17.325 13.5295C17.2965 13.8357 17.4543 14.037 17.6227 14.2489C17.6723 14.3113 17.7218 14.3736 17.7667 14.4387C17.9882 14.7594 17.9419 15.3785 17.9138 15.4441C17.882 15.5185 17.7069 15.6833 17.4666 15.6512C17.3561 15.6366 17.229 15.6738 17.1488 15.7438C17.1144 15.774 17.0732 15.8241 17.0732 15.8913C17.0732 15.8947 17.0735 15.9117 17.0788 15.9149C17.1111 15.9344 17.2317 15.8963 17.3179 15.8497C17.3417 15.8367 17.3714 15.8405 17.3914 15.8592C17.5613 16.0182 17.7317 15.8808 17.7505 15.8646C17.7738 15.8447 17.8082 15.844 17.8319 15.8631C18.0057 16.0032 18.1869 15.8501 18.1945 15.8435C18.2159 15.8251 18.2471 15.8229 18.2709 15.8384C18.3463 15.8878 18.4152 15.9019 18.4768 15.8808C18.5305 15.8622 18.559 15.8218 18.5623 15.812C18.5639 15.7863 18.5294 15.6538 18.5065 15.5661C18.4825 15.474 18.4577 15.3788 18.4482 15.3157Z" fill="#FFD250"/>
<path d="M20.3302 9.45311C20.2778 9.44913 20.2399 9.46047 20.214 9.48616C20.1664 9.53317 20.1704 9.61872 20.1704 9.61872C20.1714 9.63756 20.1639 9.65594 20.1502 9.66878C20.1363 9.68158 20.1177 9.68814 20.0989 9.68538C20.0047 9.67305 19.8655 9.57372 19.6072 9.38439C19.1968 9.0836 18.5766 8.629 17.9848 8.55424C17.297 8.46686 16.6849 8.68628 16.5294 9.07516C16.3562 9.5081 16.7242 9.90255 16.7279 9.90653C16.7466 9.92636 16.7508 9.95594 16.7379 9.97999C16.6409 10.1628 16.7144 10.2977 16.7806 10.3716C16.8014 10.3106 16.8324 10.2689 16.8752 10.2433C16.9784 10.1816 17.1132 10.2326 17.2996 10.3032C17.4098 10.3449 17.5346 10.3921 17.6802 10.4278C18.0535 10.5193 18.5088 10.4377 18.9106 10.3658C19.0526 10.3403 19.1895 10.3159 19.3168 10.2996C19.6372 10.2588 19.9584 10.4008 20.0466 10.6233C20.0894 10.7312 20.1123 10.9475 19.785 11.1855C19.1965 11.6136 16.5125 11.416 16.3543 11.404C16.3508 11.4043 16.3474 11.4046 16.34 11.4051C16.3986 11.471 16.4675 11.5353 16.4975 11.5433C16.5281 11.5515 16.548 11.5809 16.5441 11.6124C16.5402 11.6438 16.5138 11.6675 16.4821 11.668L16.2072 11.6722L16.2325 11.9368C16.2343 11.9563 16.227 11.9756 16.2127 11.989C16.1984 12.0024 16.1786 12.008 16.1594 12.0055C16.1486 12.0037 15.9113 11.9658 15.7472 11.8745L15.4367 12.0704C15.4265 12.0769 15.4146 12.0801 15.4028 12.0801C15.3959 12.0801 15.389 12.079 15.3824 12.0768C15.3643 12.0706 15.3499 12.0566 15.3433 12.0386L15.2248 11.7164L15.0843 11.9975C15.074 12.0181 15.0534 12.0314 15.0306 12.0325C15.0078 12.0349 14.986 12.0224 14.9737 12.0029L14.8533 11.8109C14.7982 11.8797 14.7099 11.9799 14.6196 12.0424C14.6031 12.054 14.5822 12.0568 14.563 12.0504C14.5439 12.0438 14.5291 12.0287 14.523 12.0095L14.4599 11.8103C14.4041 11.8809 14.3233 11.9745 14.2378 12.0446C14.2196 12.0598 14.1943 12.0633 14.1724 12.0538C14.1505 12.0443 14.1358 12.0234 14.1344 11.9997L14.1141 11.6795C14.0418 11.7163 13.9434 11.7643 13.8889 11.7813C13.8641 11.7891 13.8367 11.7808 13.8205 11.7604C13.8041 11.74 13.802 11.7118 13.815 11.6891C13.9129 11.5193 14.0026 11.3072 14.0095 11.2017C13.9446 11.2794 13.8538 11.3537 13.7523 11.4363C13.5364 11.612 13.2678 11.8306 13.07 12.2133C12.9319 12.4807 12.8327 12.9472 13.0076 13.3821C13.1569 13.7531 13.4782 14.0299 13.9595 14.2078C13.9435 14.1375 13.9311 14.0686 13.9298 14.0037C13.9235 13.6743 13.9919 13.3736 13.9949 13.3609C14.0028 13.3268 14.0367 13.3052 14.0709 13.3135C14.105 13.3213 14.1263 13.3554 14.1185 13.3894C14.1178 13.3924 14.0508 13.6881 14.0567 14.0013C14.0596 14.1546 14.1256 14.3438 14.1893 14.5267C14.2739 14.7699 14.3616 15.0213 14.3235 15.2329C14.2716 15.5206 13.9135 15.5935 13.5811 15.538C13.4866 15.5221 13.4006 15.5455 13.3389 15.6031C13.2762 15.6615 13.2441 15.7511 13.2529 15.8428C13.2571 15.886 13.2733 15.8947 13.2785 15.8976C13.3185 15.9192 13.4126 15.8898 13.4634 15.8632C13.489 15.8498 13.5207 15.8553 13.5403 15.8772C13.6736 16.0265 13.8531 15.8775 13.8606 15.871C13.8864 15.8493 13.9248 15.8512 13.948 15.876C13.9982 15.9295 14.0514 15.9561 14.1106 15.9575C14.2188 15.9641 14.3226 15.8669 14.3226 15.8669C14.3413 15.8486 14.3695 15.8439 14.3932 15.8547C14.6024 15.9505 14.7122 15.8948 14.7167 15.8922C14.8982 15.7374 14.7933 15.3701 14.7922 15.3664C14.7873 15.3496 14.7895 15.3315 14.7983 15.3165C14.8072 15.3014 14.8219 15.2906 14.8389 15.2867C15.0932 15.2284 15.2353 15.0652 15.304 14.957C15.1784 14.9558 15.0785 14.9118 15.0197 14.8199C14.925 14.6715 14.9705 14.4482 15.1357 14.2508C15.4183 13.9131 15.5911 13.2296 15.5652 12.9513C15.562 12.9164 15.5876 12.8856 15.6225 12.8823C15.6564 12.8788 15.6882 12.9047 15.6915 12.9396C15.7142 13.1834 15.6043 13.689 15.4036 14.0703C15.6578 14 15.8898 13.8971 16.1318 13.7867C16.3723 13.6769 16.6212 13.5634 16.9202 13.4697C17.4256 13.3115 17.8713 13.4212 18.2456 13.7956C18.4269 13.9769 18.6248 14.1096 18.854 14.2635C18.9546 14.3311 19.0594 14.4014 19.1681 14.4797C19.4627 14.6917 19.4575 14.8688 19.4519 15.0563C19.4503 15.1134 19.4485 15.1725 19.4549 15.2365C19.4853 15.5409 19.2433 15.589 19.1269 15.6122C19.1109 15.6153 19.096 15.6183 19.0829 15.6215C19.0665 15.6256 19.0468 15.6296 19.0251 15.634C18.9069 15.658 18.7284 15.6942 18.6845 15.8455C18.6766 15.8726 18.6796 15.8821 18.6796 15.8821C18.6983 15.8905 18.795 15.8686 18.8721 15.8336C18.8884 15.8261 18.907 15.826 18.9234 15.833C18.9399 15.8401 18.9526 15.8538 18.9584 15.8707C18.9809 15.9365 19.0159 15.9477 19.0274 15.9515C19.1073 15.9764 19.2379 15.9029 19.2773 15.8749C19.3018 15.8576 19.3349 15.8595 19.357 15.8798C19.4225 15.9396 19.4831 15.9659 19.5375 15.9586C19.6103 15.9484 19.655 15.8791 19.655 15.8791C19.6655 15.8622 19.6834 15.8511 19.7032 15.8493C19.7233 15.8482 19.7427 15.8553 19.7561 15.87C19.7561 15.87 19.8117 15.9288 19.9253 15.9647C19.9998 15.988 20.0186 15.9611 20.0247 15.9522C20.0562 15.9063 20.0449 15.7891 19.9835 15.7125C19.9031 15.6119 19.8657 15.4589 19.8884 15.3228C19.9092 15.1975 19.9768 15.0954 20.0836 15.0273C20.2795 14.9027 20.3242 14.7684 20.3117 14.7428C20.3081 14.741 20.2868 14.7383 20.2698 14.736C20.1824 14.7244 20.0361 14.7051 19.8857 14.4274C19.7529 14.1823 19.8814 13.7942 20.0302 13.3447C20.1057 13.117 20.1837 12.8815 20.2317 12.6505C20.3648 12.0115 19.9464 11.5041 19.9422 11.4991C19.9206 11.4733 19.9228 11.4351 19.9474 11.4121C20.2411 11.1365 20.3674 10.8811 20.3225 10.6529C20.2759 10.415 20.0454 10.2486 19.8623 10.1785C19.6341 10.091 19.2178 10.1407 18.815 10.1886C18.4784 10.2286 18.1603 10.2665 17.955 10.2236C17.8492 10.2014 17.7717 10.1513 17.7247 10.0746C17.686 10.0114 17.6765 9.94221 17.6768 9.88821C17.5748 9.92655 17.5051 10.0222 17.5051 10.0222C17.4935 10.0385 17.4747 10.0483 17.4547 10.0487C17.4297 10.0477 17.4156 10.04 17.4034 10.0242C17.3515 9.95711 17.3306 9.88314 17.3415 9.80416C17.3555 9.70206 17.4214 9.61427 17.4754 9.55764C17.2393 9.47472 17.0583 9.67263 17.0499 9.68205C17.0293 9.70492 16.9954 9.70975 16.9693 9.69405C16.8553 9.62402 16.7848 9.48658 16.7892 9.34394C16.7935 9.20927 16.863 9.09635 16.9798 9.03433C17.0598 8.99186 17.1365 8.98403 17.2077 9.01089C17.2754 9.03639 17.3229 9.08908 17.3528 9.1338C17.4392 9.03527 17.4464 8.86324 17.4464 8.86324C17.447 8.84622 17.4541 8.83014 17.4666 8.81856C17.479 8.80699 17.4962 8.79972 17.5125 8.80155C17.6627 8.80774 17.7794 8.86202 17.8591 8.96275C17.968 9.10061 17.9782 9.29205 17.9719 9.4106C18.2118 9.28811 18.1814 9.00541 18.1798 8.99219C18.1773 8.97035 18.1861 8.94883 18.2032 8.93514C18.2203 8.92155 18.2431 8.91728 18.264 8.92492C18.5187 9.01478 18.6113 9.24185 18.6331 9.41083C18.7052 9.34202 18.7063 9.25263 18.7063 9.25263C18.7063 9.22366 18.7259 9.19835 18.754 9.19117C18.7824 9.1841 18.8115 9.1968 18.8254 9.2222C18.9236 9.40174 19.0734 9.51353 19.183 9.57602L19.1075 9.39306C19.0973 9.36827 19.1038 9.33972 19.1236 9.32177C19.1436 9.30377 19.1728 9.3003 19.1962 9.31305C19.3219 9.38069 19.4214 9.45724 19.5267 9.53838C19.6537 9.6362 19.7851 9.73727 19.9702 9.82422C20.1509 9.90921 20.2728 9.89303 20.3429 9.86463C20.4155 9.83528 20.4571 9.78353 20.4706 9.7481C20.4961 9.68111 20.5035 9.58492 20.4626 9.52113C20.4362 9.47997 20.3917 9.45714 20.3302 9.45311Z" fill="#FFD250"/>
<path d="M12.8421 10.3642C12.8422 10.3643 12.8422 10.3644 12.8422 10.3644C12.8426 10.3645 12.8428 10.3644 12.8429 10.3645C12.8476 10.366 13.3219 10.5157 13.7525 10.5413C13.7761 10.5427 13.797 10.5573 13.8066 10.5789C13.8162 10.6006 13.813 10.6259 13.7981 10.6444L13.7831 10.6631C13.8685 10.6503 13.9759 10.6384 14.0813 10.638C14.0381 10.5866 13.9844 10.5213 13.9293 10.4528C13.8141 10.4507 13.3927 10.4324 13.0498 10.2671C12.9665 10.2267 12.8225 10.157 12.754 10.1923C12.7422 10.1984 12.7227 10.227 12.7259 10.2621C12.7302 10.3067 12.7713 10.3429 12.8421 10.3642Z" fill="#FFD250"/>
<path d="M14.2706 9.44727C14.264 9.44727 14.258 9.44796 14.2527 9.4496C14.225 9.4579 14.211 9.48917 14.2072 9.51355C14.2026 9.54477 14.2106 9.58672 14.2468 9.61095C14.2941 9.64241 14.3448 9.62088 14.3736 9.59243C14.3827 9.58357 14.4262 9.53703 14.3941 9.48612L14.394 9.48598C14.3444 9.46316 14.301 9.44727 14.2706 9.44727Z" fill="#FFD250"/>
<path d="M13.6483 10.9774C13.6791 11.0506 13.7267 11.1074 13.7661 11.1454C13.7811 11.113 13.8039 11.0794 13.8385 11.0542C13.8724 11.0295 13.9311 11.0055 14.017 11.0234C14.0184 11.0235 14.0196 11.0238 14.0209 11.0239C14.0234 11.0245 14.0253 11.0243 14.0278 11.0249C14.0301 11.0254 14.0315 11.0272 14.0337 11.0278C14.0367 11.0288 14.0399 11.0289 14.0428 11.0306C14.0451 11.0318 14.0464 11.0338 14.0484 11.0352C14.0807 11.049 14.1077 11.0711 14.122 11.1045C14.1701 11.2167 14.0855 11.4344 14.0109 11.5892C14.0636 11.5631 14.1141 11.5367 14.1414 11.5221C14.1604 11.5119 14.1833 11.512 14.2022 11.5226C14.2211 11.5331 14.2333 11.5525 14.2347 11.574L14.2526 11.8569C14.3518 11.7524 14.4299 11.6388 14.4309 11.6373C14.4446 11.6173 14.4683 11.6072 14.4925 11.6104C14.5165 11.6139 14.5363 11.6309 14.5437 11.654L14.616 11.8825C14.7173 11.7893 14.8056 11.6646 14.8066 11.663C14.819 11.6457 14.839 11.6364 14.8602 11.6361C14.8813 11.6366 14.901 11.6478 14.9123 11.6658L15.0214 11.8397L15.177 11.5284C15.1884 11.5058 15.2097 11.4915 15.2374 11.4934C15.2627 11.4948 15.2846 11.5111 15.2934 11.5349L15.4354 11.9212L15.7126 11.7463C15.7336 11.7329 15.7603 11.7332 15.7813 11.7469C15.8717 11.8061 16.0106 11.8443 16.0982 11.864L16.0745 11.6157C16.0729 11.598 16.0786 11.5805 16.0904 11.5673C16.1023 11.5542 16.119 11.5464 16.1367 11.5462L16.2953 11.5438C16.2572 11.5052 16.2256 11.4678 16.2102 11.4489C16.1998 11.4363 16.1958 11.4209 16.1964 11.4058C16.0796 11.4008 15.9167 11.38 15.7539 11.3097L15.657 11.4592C15.6477 11.4735 15.6332 11.4833 15.6165 11.4867C15.6124 11.4877 15.6081 11.4881 15.6038 11.4881C15.5914 11.4881 15.579 11.4844 15.5685 11.4773L15.2021 11.2315L15.1348 11.4148C15.1271 11.4358 15.1088 11.4512 15.0868 11.4552C15.0647 11.4595 15.0422 11.4514 15.0275 11.4346C14.9645 11.3624 14.8656 11.2517 14.8069 11.191C14.7539 11.2421 14.661 11.3244 14.5617 11.3796C14.5455 11.3886 14.5261 11.39 14.5089 11.3836C14.4915 11.3772 14.4778 11.3636 14.4714 11.3462L14.3709 11.0767C14.3587 11.0438 14.3754 11.0073 14.4083 10.995C14.441 10.9829 14.4777 10.9996 14.4899 11.0324L14.5631 11.229C14.6694 11.1552 14.7581 11.0602 14.7592 11.059C14.7818 11.0346 14.8195 11.0317 14.8453 11.0525C14.8822 11.0821 14.9825 11.1925 15.0524 11.271L15.1108 11.1119C15.1175 11.0936 15.1323 11.0794 15.1508 11.0735C15.1692 11.0671 15.1895 11.0701 15.2058 11.0811L15.5857 11.336L15.6776 11.1945C15.6952 11.1672 15.7306 11.1577 15.7591 11.1722C15.9277 11.2566 16.1098 11.277 16.2261 11.28C16.1551 11.1475 16.1489 10.9795 16.1485 10.9401C16.0535 10.8982 15.9368 10.8349 15.8194 10.7384L15.7738 10.8512C15.7664 10.8692 15.7512 10.8829 15.7324 10.8883C15.7137 10.8935 15.6934 10.8901 15.6777 10.8787L15.4944 10.7457L15.4766 10.8831C15.4738 10.9044 15.4605 10.9228 15.441 10.932C15.4218 10.9413 15.3991 10.9404 15.3807 10.9291C15.3743 10.9253 15.2235 10.8331 15.1336 10.732C15.1103 10.7059 15.1127 10.6658 15.1389 10.6425C15.1648 10.6192 15.205 10.6215 15.2285 10.6478C15.2664 10.6905 15.3196 10.7329 15.364 10.7651L15.3824 10.6236C15.3853 10.6014 15.3997 10.5824 15.4202 10.5735C15.4408 10.5646 15.4646 10.5674 15.4826 10.5804L15.6866 10.7284L15.7355 10.6079C15.7433 10.5885 15.7603 10.5743 15.7807 10.5698C15.8011 10.5654 15.8226 10.5712 15.8377 10.5856C15.9959 10.7345 16.167 10.8148 16.2734 10.8542C16.2371 10.6849 16.2232 10.4726 16.2225 10.4614C16.2224 10.4598 16.2231 10.4585 16.2231 10.4569C16.1243 10.4024 15.9846 10.3085 15.8638 10.1609C15.8632 10.239 15.8568 10.3186 15.8376 10.3689C15.831 10.3862 15.8173 10.3998 15.7998 10.4061C15.7823 10.4121 15.763 10.4105 15.7471 10.4015C15.7394 10.3971 15.6014 10.3179 15.4986 10.2021C15.4809 10.2659 15.4596 10.3331 15.4416 10.3631C15.4245 10.3915 15.3886 10.402 15.3589 10.3872C15.3528 10.3842 15.2556 10.335 15.169 10.2597C15.1605 10.3442 15.1475 10.4396 15.1289 10.4861C15.1223 10.503 15.1086 10.5161 15.0915 10.5223C15.0744 10.5281 15.0556 10.5268 15.0396 10.5182C15.0338 10.5151 14.9238 10.4547 14.821 10.3782L14.7931 10.484C14.7883 10.5021 14.7758 10.5172 14.759 10.5252C14.7419 10.533 14.7226 10.5332 14.7055 10.5256C14.6979 10.5221 14.5165 10.4387 14.4132 10.3125C14.3909 10.2854 14.3949 10.2454 14.4221 10.2233C14.4491 10.2011 14.4891 10.205 14.5112 10.2322C14.5606 10.2925 14.6362 10.343 14.6907 10.3746L14.7232 10.251C14.7289 10.2295 14.7453 10.2126 14.7666 10.2063C14.7877 10.1997 14.8107 10.2052 14.8272 10.2202C14.8878 10.275 14.9698 10.329 15.0281 10.3647C15.0405 10.2863 15.0501 10.1731 15.0543 10.0997C15.0559 10.0714 15.0761 10.0476 15.1037 10.0414C15.1317 10.0351 15.1599 10.0482 15.1733 10.0731C15.2082 10.1373 15.292 10.1999 15.3552 10.2394C15.3726 10.1851 15.3939 10.1051 15.41 10.0361C15.4162 10.0095 15.4385 9.99 15.4656 9.98737C15.4927 9.984 15.5185 9.99952 15.5296 10.0244C15.5692 10.1122 15.6652 10.1924 15.7337 10.2415C15.7412 10.149 15.7343 10.0176 15.7258 9.93539C15.7227 9.90483 15.7418 9.87642 15.7713 9.86789C15.8015 9.85973 15.8323 9.87333 15.8458 9.9008C15.9734 10.1596 16.199 10.3029 16.3164 10.3632C16.3804 9.66319 16.1752 9.39534 16.173 9.39263C16.1615 9.37819 16.1567 9.35925 16.1601 9.34111C16.1636 9.32302 16.1745 9.30708 16.1905 9.2978C16.3045 9.23184 16.3736 9.11138 16.416 8.99447C16.1581 9.2445 15.7495 9.34055 15.5505 9.37378L15.6477 9.49223C15.6625 9.51033 15.6662 9.53512 15.6572 9.55673C15.6482 9.57834 15.6282 9.59325 15.6049 9.59555C15.361 9.61992 15.183 9.58762 15.0632 9.54722L15.1047 9.62377C15.1156 9.64383 15.1148 9.6683 15.1027 9.68761C15.0906 9.70702 15.0685 9.72009 15.0462 9.71733C14.8475 9.70884 14.6736 9.62695 14.5308 9.55463C14.524 9.60127 14.501 9.64669 14.4627 9.68414C14.4157 9.72994 14.3561 9.75361 14.2969 9.75361C14.255 9.75361 14.2134 9.7417 14.1769 9.71733C14.1052 9.66947 14.0689 9.58448 14.0822 9.49561C14.0946 9.41395 14.1461 9.35011 14.2168 9.32897C14.3113 9.30089 14.4193 9.35555 14.5558 9.42511C14.6642 9.48033 14.7934 9.54609 14.9343 9.57558L14.8558 9.43055C14.8412 9.40355 14.8479 9.37003 14.8719 9.35077C14.8959 9.33183 14.93 9.33234 14.9533 9.35255C14.9547 9.35377 15.1125 9.48347 15.4708 9.47677L15.3805 9.36661C15.3656 9.34852 15.362 9.32358 15.371 9.30197C15.3801 9.28036 15.4003 9.26545 15.4236 9.26325C15.4305 9.26264 15.951 9.20981 16.2713 8.95177C16.167 8.98228 16.0863 8.97745 16.0801 8.97736C16.0625 8.97595 16.0463 8.96738 16.0354 8.95355C15.8886 8.76919 15.7385 8.71219 15.6628 8.69456C15.6203 8.82853 15.5173 8.93695 15.5123 8.94216C15.4987 8.95627 15.4793 8.9632 15.46 8.96128C15.4405 8.95922 15.423 8.9483 15.4126 8.93166C15.2995 8.74927 15.1363 8.70131 15.0416 8.68945C15.0532 8.82427 14.959 8.93498 14.8963 8.98106C14.8719 8.99873 14.8386 8.99714 14.8164 8.97727C14.5442 8.73394 14.3339 8.80594 14.2489 8.85455C14.2758 8.92125 14.2631 8.97577 14.2449 9.01261C14.1149 9.276 13.3108 9.32897 13.151 9.33689C13.1311 9.3383 13.1113 9.32925 13.0985 9.31345C13.0857 9.29766 13.0813 9.2768 13.0865 9.25725C13.0982 9.21338 13.0904 9.16608 13.0645 9.1238C13.0381 9.08063 12.9957 9.04917 12.9513 9.03966C12.9095 9.0308 12.8298 9.03652 12.7821 9.08878C12.7276 9.14873 12.7239 9.25959 12.7713 9.40945C12.8564 9.67847 13.1187 9.9435 13.282 10.0888C13.2805 10.0553 13.2815 10.0307 13.2818 10.0245C13.2832 9.99745 13.3017 9.97425 13.3278 9.96684C13.3539 9.9592 13.3817 9.96923 13.3972 9.9915C13.4513 10.0692 13.5158 10.1217 13.5643 10.1539L13.5961 9.95095C13.6006 9.92288 13.6231 9.90112 13.6513 9.8978C13.6794 9.89541 13.7066 9.91036 13.7174 9.9367C13.7749 10.0763 14.1387 10.5133 14.274 10.6699C14.2914 10.6899 14.2944 10.7185 14.2817 10.7418C14.269 10.7649 14.2433 10.7774 14.217 10.7742C13.9852 10.7411 13.6446 10.8183 13.6412 10.819C13.6149 10.8251 13.5876 10.8138 13.5733 10.791C13.559 10.7681 13.5606 10.7386 13.5776 10.7175L13.6245 10.6591C13.3026 10.6256 12.9892 10.541 12.8625 10.504L12.756 10.7932L13.0429 10.7646C13.0645 10.7618 13.0868 10.7719 13.1 10.7897C13.1134 10.8076 13.1163 10.831 13.1079 10.8517L13.0538 10.9839L13.2901 10.9214C13.3214 10.9127 13.3535 10.9294 13.3654 10.9593C13.3967 11.0386 13.4351 11.0907 13.4657 11.123L13.5323 10.9759C13.5428 10.9529 13.5657 10.9369 13.591 10.9387C13.616 10.9388 13.6386 10.954 13.6483 10.9774Z" fill="#FFD250"/>
<path d="M12.8272 14.2214C13.0774 14.3885 13.2796 14.1979 13.3877 14.0511C13.1572 13.883 12.9894 13.6761 12.8903 13.4298C12.858 13.3493 12.8369 13.268 12.8205 13.1867C12.7969 13.1682 12.4489 12.8926 12.1574 12.5703C12.1425 12.6092 12.1229 12.64 12.1071 12.6609C12.1275 12.7442 12.1076 12.8122 12.082 12.8558C12.0997 12.9152 12.0855 12.9741 12.0649 13.0171C12.109 13.0836 12.117 13.1488 12.0887 13.2114C12.0823 13.2258 12.0735 13.239 12.0645 13.252C12.1007 13.2957 12.1578 13.396 12.1578 13.5976C12.1578 13.7332 12.208 13.8146 12.2455 13.8564C12.2674 13.8375 12.2913 13.8268 12.3177 13.824C12.3977 13.8151 12.4634 13.8836 12.5533 13.978C12.6236 14.052 12.7111 14.144 12.8272 14.2214Z" fill="#FFD250"/>
<path d="M11.5828 12.5011C11.5781 12.5011 11.5733 12.501 11.5686 12.501C11.4774 12.5001 11.394 12.491 11.3172 12.4763C11.3098 12.4975 11.3256 12.5591 11.342 12.5717C11.3582 12.5841 11.369 12.6047 11.3684 12.6251C11.3679 12.6454 11.3591 12.6654 11.3423 12.6769C11.3315 12.6845 11.2993 12.7132 11.2988 12.7413C11.2984 12.7686 11.3307 12.7969 11.35 12.8114C11.3641 12.822 11.3732 12.838 11.3751 12.8555C11.3769 12.8731 11.3713 12.8907 11.3597 12.904C11.3515 12.9136 11.3282 12.9489 11.3323 12.9785C11.3331 12.9848 11.3357 13.004 11.3688 13.0265C11.3831 13.0362 11.3928 13.0514 11.3957 13.0685C11.3985 13.0856 11.3942 13.1031 11.3838 13.117C11.3839 13.117 11.3661 13.143 11.3729 13.1689C11.3805 13.1975 11.4162 13.2195 11.4447 13.2329C11.4981 13.2581 11.5749 13.2742 11.655 13.2774C11.6575 13.277 11.66 13.2773 11.6624 13.2772C11.7299 13.2792 11.7993 13.2726 11.8585 13.2508C11.9166 13.2294 11.9551 13.1983 11.973 13.1585C11.9787 13.1461 11.9903 13.1203 11.9404 13.062C11.9209 13.0392 11.92 13.006 11.9382 12.9822C11.9383 12.982 11.9806 12.9238 11.9545 12.8774C11.9406 12.8525 11.9448 12.8215 11.9649 12.8015C11.9686 12.7973 12.008 12.751 11.9768 12.6678C11.9678 12.6438 11.9741 12.6168 11.9928 12.5993C11.9951 12.597 12.0524 12.5373 12.0512 12.4465C12.0434 12.437 12.0356 12.4275 12.0281 12.418C11.9053 12.47 11.7547 12.5011 11.5828 12.5011Z" fill="#FFD250"/>
<path d="M12.1631 8.08008C11.9066 8.21803 11.3595 8.65055 11.3438 9.83461L11.3579 11.83C11.3595 11.8328 11.362 11.8357 11.3634 11.8384C11.3965 11.9008 11.3808 11.9818 11.3623 12.0378C11.5208 12.0945 11.7184 12.0712 11.8031 12.0503C11.7862 12.0008 11.7728 11.9209 11.8301 11.8304C11.8212 9.45084 12.0481 8.43853 12.1631 8.08008Z" fill="#FFD250"/>
<path d="M12.1891 12.0774C12.1891 11.9759 12.1126 11.897 12.037 11.8714C12.0213 11.866 11.9679 11.8512 11.9435 11.8833C11.8976 11.9433 11.9139 11.9856 11.9295 12.0267C11.9382 12.0495 11.9472 12.0731 11.9405 12.1C11.9319 12.1343 11.9006 12.1484 11.8903 12.1531C11.8042 12.1922 11.477 12.2434 11.2508 12.1267C11.2202 12.1108 11.2078 12.0733 11.223 12.0423C11.2469 11.9934 11.2642 11.9216 11.2509 11.8967C11.2499 11.8946 11.2469 11.8889 11.229 11.8866C11.2122 11.8842 11.1954 11.8831 11.1788 11.8831C11.1015 11.8831 11.0299 11.9074 10.9912 11.9488C10.9601 11.9822 10.9503 12.0246 10.9615 12.0785C10.9991 12.2601 11.2264 12.3702 11.5695 12.3733C11.8122 12.3725 12.021 12.3152 12.1252 12.2119C12.1677 12.1699 12.1891 12.1247 12.1891 12.0774Z" fill="#FFD250"/>
<path d="M11.6427 13.5831C11.6573 13.5638 11.6816 13.5545 11.7055 13.5594C11.7496 13.5687 11.8592 13.5919 11.9221 13.5431C11.9441 13.5263 11.949 13.4803 11.9322 13.4503C11.9263 13.4399 11.9088 13.4088 11.8427 13.4341C11.7802 13.4582 11.6904 13.4843 11.634 13.4336C11.6227 13.4235 11.6156 13.4116 11.6102 13.3995C11.5932 13.398 11.5763 13.3971 11.5597 13.3945C11.5543 13.4085 11.5468 13.4221 11.5341 13.4336C11.4779 13.4842 11.3881 13.4582 11.3255 13.4341C11.2596 13.4091 11.2418 13.44 11.2361 13.4503C11.2192 13.4803 11.2241 13.5262 11.246 13.543C11.309 13.5915 11.4187 13.5686 11.4547 13.561C11.4781 13.5563 11.5067 13.5644 11.5217 13.5835C11.5365 13.6029 11.5428 13.6281 11.5319 13.6499C11.5176 13.6784 11.4555 13.7999 11.3948 13.8757C11.4741 13.9917 11.5428 14.1983 11.3819 14.3822C11.3688 14.3971 11.3484 14.4045 11.3294 14.4037C11.3096 14.4022 11.2915 14.3915 11.2808 14.3747C11.2717 14.3609 11.2394 14.3224 11.2039 14.3154C11.1931 14.3134 11.1762 14.3125 11.1516 14.3293C11.135 14.3408 11.1256 14.3788 11.1396 14.4203C11.1647 14.4947 11.2425 14.5359 11.3522 14.5308C11.3772 14.5283 11.4042 14.5455 11.4142 14.5707C11.4242 14.5959 11.4171 14.6247 11.3966 14.6423L11.2932 14.731L11.462 14.7721C11.4844 14.7775 11.502 14.7947 11.5082 14.817C11.5085 14.818 11.5337 14.908 11.5842 14.9839C11.6346 14.908 11.6598 14.818 11.6601 14.817C11.6661 14.7947 11.6839 14.7775 11.7062 14.7721L11.8751 14.731L11.7716 14.6423C11.751 14.6247 11.7439 14.5959 11.7539 14.5707C11.7639 14.5455 11.7891 14.5286 11.8159 14.5308C11.9244 14.5357 12.0035 14.4947 12.0286 14.4203C12.0426 14.3788 12.0333 14.3408 12.0167 14.3293C11.9917 14.3124 11.9746 14.3132 11.964 14.3155C11.9272 14.3229 11.8942 14.3641 11.8873 14.3747C11.8766 14.3915 11.8585 14.4022 11.8387 14.4037C11.8182 14.4047 11.7993 14.3972 11.7863 14.3822C11.6255 14.1983 11.6942 13.9916 11.7735 13.8757C11.7128 13.7998 11.6507 13.6785 11.6364 13.6498C11.6255 13.6283 11.628 13.6023 11.6427 13.5831Z" fill="#FFD250"/>
<path d="M10.423 7.27679C10.3984 6.7658 10.2771 5.9394 9.88936 5.92046C9.67083 5.91038 9.56316 6.04491 9.5587 6.05068C9.54591 6.06727 9.52491 6.0766 9.50456 6.07557L9.35639 6.06666L9.38292 6.16487C9.3893 6.18854 9.38128 6.21399 9.36253 6.22988C9.35353 6.23748 9.144 6.41945 9.2715 6.6512C9.36863 6.82777 9.68255 6.91135 9.91172 6.97229C10.014 6.99957 10.1025 7.0231 10.1599 7.05118C10.2622 7.10115 10.3517 7.18557 10.423 7.27679Z" fill="#FFD250"/>
<path d="M9.8954 5.79372C9.67241 5.7828 9.53362 5.89394 9.48145 5.94705L9.2759 5.93472C9.2564 5.93317 9.23587 5.94222 9.22293 5.95802C9.21004 5.97381 9.20549 5.99486 9.21079 6.01459L9.25026 6.16103C9.14948 6.26387 9.03098 6.47744 9.16016 6.71223C9.28335 6.93639 9.62765 7.02794 9.87895 7.09487C9.9749 7.12037 10.0578 7.14245 10.1041 7.16505C10.2527 7.2377 10.372 7.40298 10.4341 7.53348C10.4448 7.55594 10.4673 7.56963 10.4914 7.56963C10.496 7.56963 10.5005 7.56911 10.5051 7.56813C10.5339 7.56175 10.5545 7.5363 10.5548 7.50681C10.5554 7.43833 10.5636 5.8263 9.8954 5.79372ZM9.91157 6.9722C9.6824 6.91127 9.36848 6.82769 9.27135 6.65111C9.14385 6.41941 9.35338 6.23744 9.36238 6.2298C9.38109 6.21391 9.3891 6.1885 9.38277 6.16478L9.35624 6.06658L9.50441 6.07548C9.52481 6.07656 9.54581 6.06719 9.55856 6.05059C9.56301 6.04478 9.67068 5.91025 9.88921 5.92038C10.277 5.93931 10.3983 6.76572 10.4229 7.2767C10.3516 7.18553 10.262 7.10111 10.1597 7.05109C10.1024 7.02302 10.0139 6.99948 9.91157 6.9722Z" fill="#464655"/>
<path d="M21.0254 7.27679C21.05 6.7658 21.1713 5.9394 21.5591 5.92046C21.7776 5.91038 21.8853 6.04491 21.8897 6.05068C21.9025 6.06727 21.9235 6.0766 21.9439 6.07557L22.092 6.06666L22.0655 6.16487C22.0591 6.18854 22.0671 6.21399 22.0859 6.22988C22.0949 6.23748 22.3044 6.41945 22.1769 6.6512C22.0798 6.82777 21.7659 6.91135 21.5367 6.97229C21.4344 6.99957 21.3459 7.0231 21.2885 7.05118C21.1863 7.10115 21.0966 7.18557 21.0254 7.27679Z" fill="#FFD250"/>
<path d="M20.8936 7.5068C20.8939 7.53628 20.9145 7.56174 20.9433 7.56811C20.9479 7.5691 20.9524 7.56961 20.957 7.56961C20.981 7.56961 21.0036 7.55593 21.0142 7.53347C21.0763 7.40297 21.1957 7.23769 21.3443 7.16503C21.3906 7.14239 21.4734 7.12036 21.5694 7.09486C21.8208 7.02797 22.165 6.93638 22.2882 6.71222C22.4173 6.47738 22.2988 6.26382 22.1981 6.16102L22.2376 6.01458C22.2429 5.9948 22.2383 5.97375 22.2254 5.958C22.2125 5.94221 22.192 5.93311 22.1725 5.93471L21.9669 5.94703C21.9147 5.89402 21.7759 5.78288 21.553 5.79371C20.8849 5.82619 20.893 7.43822 20.8936 7.5068ZM21.2887 7.05094C21.1864 7.101 21.0967 7.18543 21.0255 7.27655C21.0501 6.76557 21.1714 5.93916 21.5592 5.92022C21.7777 5.91014 21.8854 6.04468 21.8898 6.05044C21.9026 6.06703 21.9236 6.07636 21.9439 6.07533L22.0921 6.06643L22.0656 6.16463C22.0592 6.1883 22.0672 6.21375 22.086 6.22964C22.095 6.23724 22.3045 6.41921 22.177 6.65096C22.0799 6.82753 21.766 6.91111 21.5368 6.97205C21.4346 6.99938 21.3461 7.02291 21.2887 7.05094Z" fill="#464655"/>
<path d="M21.0254 16.7227C21.05 17.2336 21.1713 18.06 21.5591 18.079C21.7776 18.0891 21.8853 17.9545 21.8897 17.9487C21.9025 17.9321 21.9235 17.9228 21.9439 17.9238L22.092 17.9327L22.0655 17.8345C22.0591 17.8109 22.0671 17.7854 22.0859 17.7695C22.0949 17.7619 22.3044 17.58 22.1769 17.3482C22.0798 17.1716 21.7659 17.088 21.5367 17.0271C21.4344 16.9998 21.3459 16.9763 21.2885 16.9482C21.1863 16.8982 21.0966 16.8139 21.0254 16.7227Z" fill="#FFD250"/>
<path d="M21.553 18.2056C21.776 18.2165 21.9147 18.1054 21.9669 18.0523L22.1725 18.0646C22.192 18.0661 22.2125 18.0571 22.2254 18.0413C22.2383 18.0255 22.2429 18.0045 22.2376 17.9847L22.1981 17.8383C22.2989 17.7354 22.4174 17.5219 22.2882 17.2871C22.165 17.0629 21.8207 16.9714 21.5694 16.9044C21.4735 16.8789 21.3906 16.8569 21.3443 16.8343C21.1957 16.7616 21.0764 16.5963 21.0142 16.4658C21.0036 16.4434 20.9811 16.4297 20.957 16.4297C20.9525 16.4297 20.9479 16.4302 20.9433 16.4312C20.9145 16.4376 20.8939 16.463 20.8936 16.4925C20.8929 16.561 20.8848 18.173 21.553 18.2056ZM21.5368 17.0271C21.766 17.088 22.0799 17.1716 22.177 17.3482C22.3045 17.5799 22.095 17.7618 22.086 17.7695C22.0673 17.7854 22.0593 17.8108 22.0656 17.8345L22.0921 17.9327L21.944 17.9238C21.9236 17.9227 21.9026 17.9321 21.8898 17.9487C21.8854 17.9545 21.7777 18.089 21.5592 18.0789C21.1714 18.06 21.0501 17.2335 21.0255 16.7226C21.0968 16.8137 21.1864 16.8982 21.2887 16.9482C21.346 16.9763 21.4345 16.9998 21.5368 17.0271Z" fill="#464655"/>
<path d="M10.423 16.7227C10.3984 17.2336 10.2771 18.06 9.88936 18.079C9.67083 18.0891 9.56316 17.9545 9.5587 17.9487C9.54591 17.9321 9.52491 17.9228 9.50456 17.9238L9.35639 17.9327L9.38292 17.8345C9.3893 17.8109 9.38128 17.7854 9.36253 17.7695C9.35353 17.7619 9.144 17.58 9.2715 17.3482C9.36863 17.1716 9.68255 17.088 9.91172 17.0271C10.014 16.9998 10.1025 16.9763 10.1599 16.9482C10.2622 16.8982 10.3517 16.8139 10.423 16.7227Z" fill="#FFD250"/>
<path d="M10.5548 16.4925C10.5544 16.463 10.5339 16.4376 10.5051 16.4312C10.5005 16.4302 10.4959 16.4297 10.4914 16.4297C10.4673 16.4297 10.4448 16.4434 10.4341 16.4658C10.372 16.5963 10.2526 16.7616 10.1041 16.8343C10.0577 16.8569 9.97491 16.8789 9.87891 16.9044C9.62757 16.9713 9.28337 17.0629 9.16013 17.2871C9.03099 17.5219 9.14949 17.7355 9.25023 17.8383L9.21076 17.9847C9.20546 18.0045 9.21006 18.0255 9.2229 18.0413C9.23579 18.0571 9.25637 18.0662 9.27587 18.0646L9.48142 18.0523C9.53359 18.1053 9.67238 18.2164 9.89537 18.2056C10.5635 18.1732 10.5554 16.5611 10.5548 16.4925ZM10.1597 16.9484C10.262 16.8983 10.3516 16.8139 10.4229 16.7228C10.3983 17.2338 10.277 18.0602 9.88923 18.0791C9.6707 18.0892 9.56302 17.9547 9.55857 17.9489C9.54577 17.9323 9.52477 17.923 9.50443 17.924L9.35626 17.9329L9.38279 17.8347C9.38917 17.811 9.38115 17.7856 9.3624 17.7697C9.3534 17.7621 9.14387 17.5801 9.27137 17.3484C9.36849 17.1718 9.68242 17.0882 9.91159 17.0273C10.0139 17 10.1024 16.9765 10.1597 16.9484Z" fill="#464655"/>
<path fill-rule="evenodd" clip-rule="evenodd" d="M20.5695 9.45177C20.5356 9.39899 20.4681 9.3344 20.3386 9.32596C20.2487 9.31949 20.1766 9.34368 20.1241 9.39613C20.0819 9.43818 20.0616 9.49026 20.0519 9.53427C19.9654 9.48876 19.8269 9.38732 19.6824 9.28138C19.2614 8.97285 18.6252 8.50657 18.0008 8.4276C17.4944 8.36324 16.9184 8.46426 16.6016 8.75816L16.4159 8.99385L16.3559 9.32971C16.3604 9.63088 16.5352 9.87308 16.6066 9.95957C16.479 10.2485 16.6642 10.4654 16.7856 10.5423C16.8037 10.5539 16.8267 10.5553 16.8464 10.5462C16.866 10.5371 16.8795 10.5185 16.8824 10.497C16.8929 10.4172 16.9124 10.3683 16.9404 10.3515C16.991 10.3212 17.1133 10.3675 17.2548 10.4212C17.3627 10.462 17.4971 10.5128 17.6501 10.5503C18.0494 10.6482 18.5189 10.5642 18.9329 10.49C19.0729 10.4649 19.2076 10.4408 19.3329 10.4248C19.5949 10.3914 19.862 10.5011 19.9289 10.6695C19.9793 10.7966 19.9018 10.9432 19.7105 11.0823C19.1802 11.4679 16.641 11.2967 16.3821 11.2782L16.3546 11.403C16.3546 11.403 19.1968 11.6127 19.7853 11.1846C20.1126 10.9465 20.0898 10.7301 20.0469 10.6224C19.9586 10.3998 19.6374 10.2578 19.3171 10.2987C19.1897 10.315 19.0528 10.3394 18.9109 10.3648C18.5092 10.4368 18.0538 10.5183 17.6805 10.4268C17.5355 10.3913 17.4111 10.3443 17.3013 10.3028L17.2999 10.3023C17.1135 10.2317 16.9787 10.1806 16.8755 10.2423C16.8327 10.2679 16.8016 10.3096 16.7809 10.3707C16.7146 10.2967 16.6411 10.1618 16.7382 9.97902C16.751 9.95498 16.7469 9.92544 16.7282 9.90557C16.723 9.89996 16.3568 9.50622 16.5297 9.07419C16.6852 8.68537 17.2973 8.4659 17.9851 8.55327C18.5769 8.62812 19.197 9.08258 19.6074 9.38333C19.8658 9.57266 20.005 9.67208 20.0991 9.68441C20.118 9.68713 20.1366 9.68062 20.1505 9.66782C20.1643 9.65502 20.1717 9.6366 20.1707 9.61776C20.1707 9.61776 20.1667 9.53221 20.2143 9.48519C20.2402 9.45951 20.2781 9.44821 20.3305 9.45215C20.392 9.45618 20.4365 9.47901 20.4629 9.51998C20.5038 9.58405 20.4964 9.68029 20.4708 9.74727C20.4574 9.78271 20.4158 9.83446 20.3431 9.8638C20.273 9.89221 20.1511 9.90838 19.9704 9.8234C19.7854 9.73644 19.6539 9.63533 19.5269 9.53755C19.4216 9.45646 19.3221 9.37991 19.1965 9.31222C19.173 9.29952 19.1439 9.30294 19.1239 9.32094C19.1039 9.33885 19.0975 9.36744 19.1078 9.39224L19.1833 9.57519C19.0737 9.51266 18.9239 9.40091 18.8257 9.22138C18.8118 9.19593 18.7826 9.18323 18.7543 9.19035C18.7262 9.19752 18.7065 9.22283 18.7065 9.2518C18.7065 9.2518 18.7055 9.34124 18.6334 9.41001C18.6115 9.24102 18.5189 9.01401 18.2643 8.9241C18.2434 8.91651 18.2206 8.92073 18.2035 8.93432C18.1864 8.94801 18.1776 8.96962 18.1801 8.99137C18.1816 9.00454 18.2121 9.28729 17.9721 9.40977C17.9786 9.29127 17.9683 9.09979 17.8593 8.96193C17.7796 8.86115 17.663 8.80691 17.5128 8.80072C17.4965 8.7989 17.4793 8.80616 17.4668 8.81774C17.4544 8.82932 17.4472 8.8454 17.4467 8.86241C17.4467 8.86241 17.4394 9.03444 17.353 9.13298C17.3231 9.0883 17.2756 9.03557 17.2079 9.01007C17.1368 8.98321 17.06 8.99108 16.98 9.03351C16.8632 9.09552 16.7937 9.20844 16.7894 9.34312C16.785 9.48576 16.8556 9.62319 16.9695 9.69323C16.9956 9.70902 17.0295 9.70415 17.0502 9.68123C17.0585 9.6718 17.2395 9.4739 17.4756 9.55682C17.4216 9.61344 17.3557 9.70129 17.3417 9.80333C17.3308 9.88227 17.3517 9.95629 17.4036 10.0234C17.4157 10.0392 17.4299 10.0469 17.455 10.0479C17.4749 10.0476 17.4937 10.0377 17.5054 10.0214C17.5054 10.0214 17.5751 9.92573 17.6771 9.88738C17.6766 9.94138 17.6862 10.0106 17.7249 10.0738C17.7719 10.1504 17.8494 10.2006 17.9552 10.2228C18.1602 10.2656 18.4774 10.2279 18.8133 10.188L18.817 10.1876C19.2193 10.1398 19.6347 10.0903 19.8626 10.1777C20.0457 10.2478 20.2761 10.4141 20.3227 10.6521C20.3676 10.8803 20.2413 11.1358 19.9476 11.4112C19.923 11.4343 19.9208 11.4726 19.9424 11.4983C19.9466 11.5033 20.3651 12.0107 20.2319 12.6497C20.1839 12.8807 20.1059 13.1162 20.0304 13.3439C19.8816 13.7933 19.7532 14.1815 19.886 14.4266C20.0363 14.7042 20.1825 14.7236 20.2699 14.7352C20.2869 14.7374 20.3082 14.7402 20.3119 14.742C20.3245 14.7676 20.2797 14.9019 20.0839 15.0265C19.977 15.0946 19.9094 15.1967 19.8886 15.322C19.866 15.4581 19.9033 15.6111 19.9837 15.7116C20.0451 15.7883 20.0564 15.9055 20.0249 15.9514C20.0188 15.9603 20 15.9871 19.9255 15.9638C19.8119 15.9279 19.7563 15.8691 19.7563 15.8691C19.7429 15.8545 19.7236 15.8473 19.7034 15.8484C19.6835 15.8502 19.6657 15.8613 19.6552 15.8782C19.6552 15.8782 19.6106 15.9475 19.5377 15.9576C19.4833 15.965 19.4227 15.9387 19.3573 15.8788C19.3351 15.8586 19.3021 15.8568 19.2776 15.874C19.2381 15.902 19.1075 15.9755 19.0276 15.9506C19.0161 15.9469 18.9811 15.9356 18.9587 15.8698C18.9528 15.8528 18.9401 15.8391 18.9237 15.8321C18.9072 15.8251 18.8886 15.8252 18.8723 15.8327C18.7952 15.8677 18.6985 15.8897 18.6799 15.8812C18.6799 15.8812 18.6768 15.8717 18.6847 15.8446C18.7286 15.6933 18.9072 15.6571 19.0253 15.6331C19.047 15.6287 19.0667 15.6247 19.0832 15.6206C19.0962 15.6174 19.1112 15.6144 19.1271 15.6112C19.2435 15.5881 19.4856 15.5399 19.4551 15.2355C19.4488 15.1729 19.4505 15.115 19.4521 15.0589L19.4522 15.0553C19.4577 14.8679 19.4629 14.6908 19.1683 14.4787C19.0607 14.4012 18.9569 14.3315 18.8571 14.2645L18.8522 14.2612C18.6239 14.1079 18.4266 13.9754 18.2458 13.7946C17.8716 13.4203 17.4259 13.3106 16.9205 13.4688C16.6215 13.5625 16.3726 13.676 16.132 13.7857C15.89 13.8962 15.658 13.9991 15.4039 14.0694C15.6045 13.6881 15.7144 13.1824 15.6918 12.9387C15.6884 12.9038 15.6567 12.8779 15.6227 12.8813C15.5879 12.8847 15.5622 12.9155 15.5654 12.9504C15.5913 13.2287 15.4185 13.9122 15.1359 14.2498C14.9708 14.4472 14.9253 14.6706 15.02 14.819C15.0788 14.9109 15.1786 14.9549 15.3043 14.9561C15.2356 15.0643 15.0934 15.2275 14.8391 15.2858C14.8221 15.2898 14.8074 15.3005 14.7986 15.3156C14.7897 15.3306 14.7875 15.3487 14.7925 15.3655C14.7936 15.3692 14.8985 15.7365 14.7169 15.8913C14.7124 15.8939 14.6026 15.9495 14.3934 15.8538C14.3698 15.843 14.3416 15.8477 14.3229 15.866C14.3229 15.866 14.2191 15.9631 14.1108 15.9566C14.0516 15.9552 13.9984 15.9286 13.9482 15.8751C13.9251 15.8504 13.8867 15.8484 13.8609 15.8701C13.8534 15.8766 13.6738 16.0256 13.5405 15.8763C13.5209 15.8544 13.4893 15.8489 13.4637 15.8623C13.4128 15.8889 13.3187 15.9183 13.2787 15.8967C13.2734 15.8937 13.2573 15.8849 13.2532 15.8419C13.2443 15.7502 13.2764 15.6606 13.3391 15.6021C13.4009 15.5444 13.4869 15.5211 13.5813 15.537C13.9138 15.5925 14.2718 15.5196 14.3237 15.232C14.3618 15.0206 14.2744 14.7695 14.1898 14.5265C14.126 14.3436 14.0599 14.1536 14.0569 14.0003C14.051 13.6913 14.1163 13.3993 14.1186 13.3887C14.1265 13.3547 14.1053 13.3204 14.0711 13.3125C14.0369 13.3042 14.003 13.3258 13.9951 13.36C13.9922 13.3726 13.9237 13.6733 13.9301 14.0028C13.9314 14.0676 13.9437 14.1366 13.9598 14.2068C13.4784 14.029 13.1572 13.7522 13.0079 13.3811C12.8329 12.9462 12.9321 12.4797 13.0702 12.2123C13.2678 11.8299 13.5362 11.6114 13.752 11.4357L13.6722 11.3371C13.459 11.5105 13.1671 11.7481 12.9573 12.1543C12.8519 12.3583 12.7699 12.6694 12.7944 13.0003C12.6416 12.8719 12.3535 12.6171 12.1414 12.3564C12.1465 12.3529 12.1516 12.3495 12.1568 12.346C12.1775 12.3322 12.1982 12.3184 12.2146 12.3022C12.2809 12.2366 12.3159 12.1589 12.3159 12.0777C12.3159 11.909 12.1924 11.7903 12.0776 11.7515C12.0349 11.7371 11.9938 11.735 11.9564 11.7413C11.9527 8.97669 12.2676 8.13032 12.3315 7.98777C12.3416 7.96523 12.3377 7.93879 12.3214 7.92013C12.3052 7.90157 12.2795 7.89402 12.2558 7.90101C12.2143 7.91319 11.238 8.21816 11.2165 9.83348L11.2301 11.7606C11.0976 11.7466 10.9717 11.7843 10.8985 11.8626C10.8569 11.9071 10.8125 11.9852 10.8372 12.1047C10.87 12.2633 10.9979 12.3803 11.1943 12.4446C11.1889 12.4655 11.187 12.489 11.1897 12.5153C11.1927 12.5463 11.2024 12.5847 11.2203 12.6179C11.1963 12.6464 11.1728 12.6873 11.1716 12.7376C11.1704 12.786 11.1897 12.8316 11.229 12.8732C11.2135 12.9045 11.2 12.9469 11.2059 12.9938C11.2095 13.0217 11.2213 13.0588 11.2544 13.0947C11.2451 13.1223 11.2393 13.1585 11.2493 13.1983C11.2595 13.2394 11.285 13.2748 11.3229 13.3049C11.2258 13.2869 11.1576 13.3308 11.1256 13.3878C11.0776 13.4733 11.0971 13.588 11.1689 13.6432C11.2275 13.6882 11.2971 13.7026 11.3605 13.6993C11.3282 13.754 11.2941 13.8045 11.2726 13.8213C11.2587 13.8321 11.2498 13.8482 11.2484 13.8658C11.2468 13.8834 11.2527 13.9008 11.2645 13.9139C11.2711 13.9213 11.4095 14.0771 11.3271 14.2391C11.3016 14.2182 11.2687 14.1986 11.2295 14.1906C11.1786 14.1803 11.127 14.1921 11.0801 14.2243C11.0131 14.2702 10.9882 14.3672 11.0196 14.4603C11.0437 14.5316 11.1036 14.6046 11.2059 14.6383L11.1169 14.7147C11.0988 14.7301 11.091 14.7545 11.0965 14.7776C11.1021 14.8007 11.1201 14.8188 11.1432 14.8244L11.3977 14.8865C11.4172 14.9424 11.4617 15.0503 11.5362 15.1248C11.5481 15.1367 11.5707 15.1434 11.5876 15.1434C11.6045 15.1434 11.6205 15.1367 11.6324 15.1248C11.7069 15.0503 11.7516 14.9424 11.771 14.8865L12.0255 14.8244C12.0486 14.8188 12.0666 14.8008 12.0721 14.7776C12.0777 14.7544 12.0697 14.7301 12.0517 14.7147L11.9627 14.6383C12.065 14.6046 12.1251 14.5315 12.1491 14.4603C12.1805 14.3672 12.1556 14.2701 12.0886 14.2243C12.0416 14.192 11.9897 14.1804 11.9391 14.1906C11.9 14.1986 11.8671 14.2181 11.8416 14.239C11.7606 14.0779 11.8977 13.9211 11.9044 13.9138C11.9161 13.9006 11.9219 13.8832 11.9203 13.8657C11.9188 13.8482 11.9099 13.8321 11.8961 13.8213C11.8747 13.8046 11.8407 13.7541 11.8084 13.6995C11.8718 13.7001 11.941 13.6885 11.9998 13.6431C12.0116 13.6341 12.0203 13.6219 12.0289 13.6098C12.0297 13.6087 12.0305 13.6076 12.0313 13.6065C12.0358 13.8849 12.2122 13.995 12.2198 13.9997C12.2499 14.0176 12.2885 14.0081 12.3066 13.9783C12.3215 13.9539 12.3302 13.9489 12.3302 13.9489C12.3524 13.9501 12.4141 14.015 12.4597 14.0629L12.4609 14.0641C12.5355 14.1426 12.6285 14.2404 12.7564 14.3256C12.8501 14.3882 12.9387 14.4128 13.02 14.4128C13.2484 14.4128 13.4195 14.2201 13.4924 14.1211C13.6347 14.2103 13.7959 14.2877 13.9798 14.3505C13.986 14.3527 13.9924 14.3535 13.9987 14.3537C14.0207 14.4249 14.0446 14.4966 14.0694 14.5676C14.1487 14.7953 14.2308 15.0308 14.1985 15.2096C14.1569 15.4413 13.7902 15.4436 13.6019 15.4119C13.4678 15.3901 13.3434 15.4244 13.2522 15.5095C13.1609 15.5947 13.1139 15.7236 13.1266 15.8542C13.1355 15.9455 13.1812 15.9884 13.2181 16.0083C13.3027 16.0538 13.4172 16.0198 13.4794 15.9943C13.6222 16.1188 13.7931 16.0665 13.8964 16.0008C13.96 16.0539 14.0309 16.0818 14.1076 16.0835L14.1152 16.0836C14.2311 16.0836 14.3287 16.0225 14.3775 15.9852C14.6232 16.0846 14.7636 16.0105 14.7883 15.9952C14.9877 15.827 14.9549 15.5246 14.9289 15.3931C15.3388 15.269 15.4709 14.9127 15.4766 14.8969C15.4845 14.8747 15.4795 14.8499 15.4636 14.8325C15.4475 14.8152 15.4229 14.8082 15.4004 14.8143C15.274 14.8482 15.1742 14.8251 15.1267 14.7507C15.0623 14.6501 15.1041 14.4853 15.233 14.3313C15.2601 14.299 15.2856 14.2632 15.3107 14.2259C15.6275 14.1551 15.898 14.0319 16.1845 13.9013C16.4214 13.7933 16.667 13.6813 16.9583 13.59C17.04 13.5644 17.1194 13.5493 17.1977 13.5391C17.174 13.8828 17.3503 14.1092 17.5234 14.327L17.5242 14.328C17.5717 14.3878 17.6192 14.4475 17.6623 14.5099C17.8479 14.7787 17.8123 15.3423 17.7973 15.3932C17.7841 15.4221 17.6597 15.5488 17.4833 15.5246C17.3368 15.5051 17.1728 15.5533 17.0653 15.6475C16.9886 15.7146 16.9463 15.8009 16.9463 15.8905C16.9463 15.9668 16.983 16.0047 17.0138 16.023C17.1057 16.0776 17.2577 16.0192 17.3392 15.9802C17.4153 16.0391 17.4935 16.0608 17.5657 16.0608C17.6556 16.0608 17.7364 16.0273 17.793 15.9902C17.9631 16.0976 18.1412 16.0347 18.2405 15.967C18.3649 16.0345 18.4649 16.0211 18.5294 15.9958C18.5503 15.9876 18.5694 15.9771 18.5868 15.9654C18.5879 15.9665 18.5889 15.9678 18.5899 15.969C18.5914 15.9708 18.5928 15.9726 18.5944 15.9739C18.6619 16.032 18.7867 16.0011 18.8667 15.9721C18.903 16.0323 18.9511 16.0594 18.9891 16.0715C19.1066 16.1089 19.2415 16.0446 19.3094 16.0044C19.3917 16.068 19.4735 16.0948 19.5553 16.0833C19.6274 16.0733 19.6817 16.0346 19.7167 16.0007C19.7541 16.0275 19.8108 16.0606 19.8874 16.0848C19.9212 16.0956 19.9509 16.0999 19.977 16.0999C20.0654 16.0999 20.1115 16.0495 20.1296 16.0232C20.203 15.9161 20.1647 15.7348 20.0828 15.6324C20.0345 15.572 19.9944 15.459 20.0137 15.3428C20.0241 15.2809 20.0564 15.1943 20.1519 15.1335C20.3242 15.0239 20.4373 14.8755 20.4399 14.7556C20.441 14.706 20.4222 14.6652 20.3868 14.6404C20.3555 14.6185 20.3205 14.6139 20.2866 14.6094C20.2111 14.5994 20.1171 14.587 19.9975 14.3661C19.8909 14.1692 20.0171 13.7877 20.1509 13.3837L20.1515 13.3822C20.2278 13.1515 20.3067 12.913 20.3562 12.6756C20.4789 12.0864 20.1831 11.6117 20.0759 11.4639C20.3738 11.1709 20.4988 10.8897 20.4473 10.6275C20.3907 10.3387 20.1214 10.1408 19.9081 10.0591C19.6502 9.96032 19.2181 10.0117 18.8003 10.0618L18.7985 10.062C18.4734 10.1009 18.1661 10.1377 17.9814 10.0986C17.9114 10.0839 17.8617 10.0536 17.8336 10.0082C17.7847 9.92929 17.8111 9.82452 17.8111 9.82452C17.8162 9.80512 17.8118 9.78421 17.7992 9.7686C17.7866 9.75299 17.7658 9.74301 17.7473 9.74493C17.6257 9.7498 17.5289 9.81754 17.4691 9.87346C17.4656 9.85644 17.4651 9.83896 17.4675 9.82087C17.484 9.69894 17.6257 9.59137 17.6257 9.59137C17.6425 9.57876 17.6521 9.55855 17.6511 9.53751C17.6501 9.51651 17.6387 9.49738 17.6207 9.48641C17.3624 9.32905 17.1211 9.44558 16.9977 9.55504C16.9455 9.50394 16.914 9.42576 16.9165 9.34705C16.918 9.29535 16.9363 9.20038 17.0396 9.14544C17.0864 9.12055 17.1265 9.11512 17.1629 9.12852C17.2239 9.15121 17.2644 9.22612 17.2749 9.25316C17.2815 9.27046 17.2957 9.28405 17.3131 9.29015C17.3306 9.29652 17.3501 9.2946 17.3661 9.28518C17.5075 9.20268 17.5527 9.02938 17.5671 8.93324C17.6502 8.94679 17.7136 8.98208 17.7597 9.04021C17.8881 9.20208 17.8369 9.48632 17.8356 9.4932C17.8315 9.51467 17.8387 9.5368 17.8547 9.55171C17.8706 9.56657 17.8932 9.5721 17.9143 9.56657C18.2014 9.48965 18.2932 9.25654 18.3074 9.08423C18.5269 9.22091 18.512 9.50362 18.5111 9.51688C18.5097 9.53873 18.5196 9.55977 18.5373 9.57248C18.555 9.58527 18.578 9.58799 18.5982 9.57993C18.7033 9.53732 18.7614 9.46799 18.7936 9.40401C18.9935 9.66604 19.2712 9.75698 19.2846 9.76133C19.3081 9.76851 19.3337 9.76199 19.3505 9.7438C19.3671 9.72566 19.3719 9.69946 19.3625 9.67668L19.3004 9.52635C19.3507 9.56176 19.3991 9.59902 19.4488 9.63731L19.4504 9.63852C19.5826 9.74022 19.7193 9.84539 19.9164 9.93801C20.1385 10.0424 20.2967 10.019 20.3907 9.98132C20.4844 9.9434 20.5587 9.87271 20.5894 9.79218C20.6252 9.69838 20.6387 9.55958 20.5695 9.45177ZM18.2708 15.8296C18.3462 15.8791 18.4151 15.8932 18.4767 15.872C18.5304 15.8534 18.5589 15.813 18.5623 15.8031C18.5639 15.7774 18.5293 15.6448 18.5064 15.5571C18.4824 15.4651 18.4576 15.3699 18.4481 15.3069C18.4343 15.2144 18.5157 15.0949 18.6415 14.9233C18.687 14.8613 18.7528 14.7715 18.7705 14.7284C18.7588 14.7276 18.7429 14.7285 18.7309 14.7291C18.6613 14.7325 18.5557 14.7373 18.4637 14.6351C18.4277 14.5951 18.4103 14.545 18.4137 14.4904C18.4206 14.3792 18.5114 14.27 18.5677 14.2121C18.4224 14.1103 18.2838 14.0044 18.1559 13.8764C17.9115 13.632 17.6327 13.5143 17.3249 13.5207C17.2964 13.8269 17.4541 14.0283 17.6226 14.2401C17.6722 14.3025 17.7217 14.3649 17.7666 14.4299C17.9881 14.7506 17.9418 15.3697 17.9137 15.4353C17.882 15.5096 17.7068 15.6745 17.4665 15.6424C17.356 15.6278 17.2288 15.665 17.1487 15.735C17.1143 15.7652 17.0731 15.8153 17.0731 15.8825C17.0731 15.8859 17.0734 15.9029 17.0787 15.9061C17.1109 15.9256 17.2315 15.8875 17.3178 15.8409C17.3416 15.8279 17.3713 15.8317 17.3913 15.8504C17.5611 16.0093 17.7316 15.872 17.7504 15.8558C17.7738 15.8359 17.8081 15.8352 17.8318 15.8543C18.0055 15.9944 18.1868 15.8413 18.1944 15.8347C18.2158 15.8163 18.2471 15.8141 18.2708 15.8296ZM18.8918 14.6703C18.9276 14.7419 18.8657 14.832 18.7438 14.9984L18.743 14.9994C18.6809 15.0843 18.5665 15.2406 18.5734 15.2884C18.5819 15.3441 18.6053 15.4344 18.6282 15.5223L18.629 15.5254C18.6412 15.5719 18.6514 15.6117 18.6598 15.6461C18.7617 15.5511 18.9082 15.5198 18.9998 15.5012L19.0021 15.5007C19.0209 15.4969 19.0378 15.4934 19.0521 15.4899C19.0671 15.4861 19.084 15.4827 19.1022 15.4791C19.2458 15.4505 19.3463 15.4166 19.3287 15.2405C19.3215 15.1684 19.3234 15.1023 19.3252 15.0439C19.3303 14.8651 19.3337 14.7466 19.0939 14.5739C18.9864 14.4966 18.8829 14.4271 18.7833 14.3602C18.7561 14.342 18.7294 14.3238 18.7028 14.3057C18.693 14.2991 18.6833 14.2925 18.6735 14.2859C18.6264 14.332 18.5447 14.426 18.5403 14.4985C18.539 14.5195 18.5445 14.5355 18.558 14.5504C18.6097 14.6079 18.6657 14.6054 18.7247 14.6026C18.7798 14.5998 18.855 14.5966 18.8918 14.6703ZM12.2451 13.8473C12.267 13.8284 12.291 13.8177 12.3173 13.8149C12.3973 13.806 12.463 13.8745 12.5529 13.9689C12.6232 14.0428 12.7108 14.1349 12.8269 14.2123C13.0771 14.3794 13.2793 14.1888 13.3873 14.042C13.1568 13.8739 12.989 13.667 12.89 13.4207C12.8576 13.3402 12.8365 13.2588 12.8201 13.1776C12.7966 13.1591 12.4485 12.8834 12.157 12.5612C12.1421 12.6001 12.1226 12.6309 12.1067 12.6518C12.1272 12.735 12.1073 12.8031 12.0816 12.8467C12.0993 12.9061 12.0851 12.9649 12.0645 13.008C12.1086 13.0745 12.1166 13.1397 12.0884 13.2023C12.0819 13.2167 12.0731 13.2299 12.0641 13.2429C12.1004 13.2866 12.1574 13.3869 12.1574 13.5885C12.1574 13.7242 12.2076 13.8055 12.2451 13.8473ZM11.8391 14.3953C11.8185 14.3964 11.7997 14.3889 11.7866 14.3739C11.6258 14.1901 11.6945 13.9834 11.7737 13.8675C11.713 13.7916 11.6509 13.6702 11.6366 13.6416C11.6258 13.6199 11.6283 13.594 11.643 13.5748C11.6578 13.5555 11.682 13.5461 11.7058 13.5511C11.7504 13.5604 11.8598 13.5832 11.9224 13.5348C11.9444 13.5179 11.9494 13.4719 11.9325 13.4419C11.9267 13.4316 11.9091 13.4005 11.8431 13.4258C11.7805 13.4499 11.6908 13.4759 11.6344 13.4253C11.6231 13.4151 11.616 13.4033 11.6105 13.3911C11.606 13.3907 11.6015 13.3904 11.597 13.39C11.5846 13.389 11.5722 13.3881 11.56 13.3862C11.5546 13.4002 11.5472 13.4138 11.5344 13.4253C11.4783 13.4759 11.3884 13.4499 11.3258 13.4258C11.26 13.4007 11.2421 13.4316 11.2364 13.4419C11.2196 13.4719 11.2245 13.5179 11.2463 13.5347C11.3093 13.5832 11.419 13.5603 11.455 13.5527C11.4784 13.5479 11.5071 13.5561 11.522 13.5752C11.5368 13.5945 11.5432 13.6198 11.5322 13.6415C11.5179 13.6702 11.4558 13.7915 11.3951 13.8674C11.4744 13.9834 11.5431 14.1901 11.3822 14.3739C11.3691 14.3888 11.3487 14.3962 11.3298 14.3954C11.31 14.3939 11.292 14.3832 11.2812 14.3664C11.272 14.3525 11.2398 14.3141 11.2042 14.3071C11.1934 14.3051 11.1764 14.3042 11.1519 14.321C11.1353 14.3325 11.126 14.3705 11.14 14.412C11.165 14.4864 11.2428 14.5276 11.3526 14.5225C11.3775 14.52 11.4045 14.5372 11.4146 14.5624C11.4246 14.5876 11.4175 14.6163 11.3969 14.634L11.2935 14.7227L11.4623 14.7638C11.4847 14.7692 11.5024 14.7864 11.5085 14.8086C11.5085 14.8086 11.534 14.8997 11.5845 14.9756C11.6349 14.8997 11.6604 14.8086 11.6604 14.8086C11.6665 14.7864 11.6842 14.7692 11.7066 14.7638L11.8754 14.7227L11.7719 14.634C11.7513 14.6164 11.7443 14.5876 11.7542 14.5624C11.7642 14.5372 11.7894 14.5203 11.8163 14.5225C11.9247 14.5273 12.0038 14.4864 12.0289 14.4119C12.0429 14.3704 12.0336 14.3325 12.017 14.321C11.992 14.304 11.9749 14.3048 11.9643 14.3072C11.9276 14.3146 11.8946 14.3558 11.8877 14.3664C11.877 14.3831 11.8589 14.3938 11.8391 14.3953ZM11.9764 12.6594C11.9674 12.6355 11.9737 12.6085 11.9924 12.5909C11.9947 12.5887 12.052 12.5289 12.0506 12.4381L12.0275 12.4096C11.9048 12.4617 11.7543 12.4927 11.5823 12.4927L11.5682 12.4926C11.477 12.4918 11.3936 12.4827 11.3168 12.4679C11.3094 12.4892 11.3251 12.5507 11.3416 12.5634C11.3578 12.5757 11.3686 12.5963 11.368 12.6167C11.3675 12.6371 11.3588 12.657 11.3419 12.6685C11.3311 12.6761 11.2988 12.7048 11.2984 12.7329C11.298 12.7602 11.3303 12.7886 11.3496 12.8031C11.3637 12.8137 11.3728 12.8297 11.3746 12.8472C11.3764 12.8648 11.3709 12.8823 11.3593 12.8956C11.3511 12.9053 11.3278 12.9406 11.3318 12.9702C11.3327 12.9765 11.3353 12.9956 11.3684 13.0181C11.3827 13.0279 11.3924 13.043 11.3953 13.0601C11.3981 13.0772 11.3938 13.0947 11.3834 13.1086C11.3834 13.1086 11.3656 13.1346 11.3725 13.1605C11.3801 13.1891 11.4158 13.2112 11.4443 13.2246C11.4977 13.2497 11.5746 13.2658 11.6546 13.269C11.6562 13.2688 11.6577 13.2688 11.6593 13.2689C11.6602 13.2689 11.6611 13.2689 11.662 13.2689C11.7295 13.2709 11.7988 13.2643 11.8581 13.2424C11.9161 13.221 11.9547 13.19 11.9726 13.1501C11.9782 13.1377 11.9898 13.1118 11.94 13.0537C11.9205 13.0309 11.9197 12.9977 11.9378 12.9738C11.9378 12.9738 11.9802 12.9155 11.9541 12.8691C11.9401 12.8442 11.9444 12.8132 11.9645 12.7931C11.9683 12.789 12.0076 12.7427 11.9764 12.6594ZM10.9615 12.071C10.999 12.2525 11.2264 12.3627 11.5695 12.3658C11.8122 12.3649 12.021 12.3077 12.1253 12.2044C12.1676 12.1624 12.1891 12.1171 12.1891 12.0699C12.1891 11.9685 12.1126 11.8895 12.037 11.8639C12.0213 11.8586 11.9679 11.8437 11.9435 11.8759C11.8977 11.9357 11.9138 11.978 11.9294 12.019C11.9382 12.0417 11.9473 12.0655 11.9405 12.0925C11.9319 12.1268 11.9006 12.1409 11.8903 12.1456C11.8042 12.1847 11.477 12.2359 11.2508 12.1192C11.2202 12.1033 11.2078 12.0658 11.223 12.0348C11.2469 11.9859 11.2643 11.9141 11.2509 11.8892C11.2499 11.8871 11.2469 11.8814 11.2291 11.879C11.2122 11.8767 11.1953 11.8756 11.1788 11.8756C11.1016 11.8756 11.0299 11.8998 10.9912 11.9413C10.9601 11.9746 10.9503 12.017 10.9615 12.071ZM11.3618 12.029C11.5203 12.0858 11.718 12.0625 11.8027 12.0415C11.7858 11.9921 11.7724 11.9121 11.8297 11.8216C11.8208 9.44201 12.0477 8.42974 12.1627 8.07129C11.9061 8.2092 11.3591 8.64171 11.3433 9.82582L11.3574 11.8212C11.3582 11.8225 11.3591 11.8238 11.36 11.825C11.3611 11.8266 11.3622 11.8281 11.363 11.8296C11.3962 11.892 11.3804 11.973 11.3618 12.029Z" fill="#464655"/>
<path fill-rule="evenodd" clip-rule="evenodd" d="M16.5997 8.75981C16.6368 8.64848 16.5421 8.56059 16.4913 8.64946C16.4161 8.75005 16.3253 8.8018 16.2491 8.8272C16.1915 8.84575 16.1417 8.85063 16.1134 8.85161C15.9893 8.70415 15.8614 8.63091 15.7657 8.59477C15.6788 8.56255 15.6182 8.56059 15.6134 8.56059C15.5772 8.56255 15.5538 8.58305 15.5499 8.6143C15.5391 8.68169 15.5011 8.74809 15.4678 8.79399C15.2598 8.5352 14.9669 8.55962 14.9512 8.56059C14.9298 8.56255 14.9122 8.57427 14.9014 8.59184C14.8966 8.60161 14.8936 8.61235 14.8936 8.62309C14.8936 8.63286 14.8956 8.64165 14.8995 8.65044C14.9366 8.73345 14.8907 8.80571 14.8546 8.84575C14.4425 8.51567 14.1251 8.78423 14.1221 8.78716C14.1085 8.79985 14.1016 8.81645 14.1007 8.83403C14.1007 8.84673 14.1036 8.85942 14.1114 8.87114C14.1427 8.91606 14.1368 8.94048 14.129 8.95708C14.0626 9.09184 13.5782 9.17973 13.2169 9.2061C13.2149 9.15532 13.1993 9.10454 13.171 9.05766C13.1261 8.98442 13.0548 8.93266 12.9757 8.91606C12.9327 8.9063 12.8809 8.9063 12.8302 8.91899C12.7774 8.93266 12.7257 8.96001 12.6856 9.00395C12.5977 9.10063 12.585 9.25005 12.6485 9.44829C12.7462 9.75786 13.0411 10.0489 13.212 10.1993C13.171 10.1836 13.129 10.167 13.0889 10.1475C12.9874 10.0987 12.8184 10.0157 12.6934 10.0811C12.6612 10.0977 12.6348 10.127 12.6182 10.1622C12.6016 10.1963 12.5938 10.2364 12.5977 10.2754C12.6007 10.3155 12.6231 10.4053 12.7403 10.462L12.5997 10.8448C12.5919 10.8653 12.5958 10.8887 12.6095 10.9053C12.6221 10.9229 12.6436 10.9327 12.6651 10.9297L12.9483 10.9014L12.8858 11.0538C12.877 11.0762 12.8809 11.1016 12.8966 11.1202C12.9132 11.1377 12.9366 11.1465 12.961 11.1397L13.2677 11.0586C13.3468 11.2208 13.4532 11.2784 13.4581 11.2803C13.4678 11.2862 13.4796 11.2891 13.4903 11.2881L13.5079 11.2842C13.5245 11.2784 13.5382 11.2666 13.545 11.251L13.5938 11.1426C13.6446 11.2129 13.6993 11.2608 13.7335 11.2862L13.67 11.3379L13.7501 11.4366C13.8516 11.3536 13.9425 11.2793 14.0079 11.2022C14.0011 11.3077 13.9112 11.5196 13.8136 11.6895C13.7999 11.712 13.8028 11.7403 13.8184 11.7608C13.835 11.7813 13.8624 11.7891 13.8868 11.7813C13.918 11.7715 13.9639 11.752 14.0118 11.7295L14.1124 11.6797L14.1329 12C14.1339 12.0235 14.1485 12.045 14.171 12.0538C14.1925 12.0635 14.2178 12.0606 14.2364 12.045C14.3214 11.9747 14.4024 11.8809 14.4581 11.8106L14.5216 12.0098C14.5274 12.0293 14.5421 12.044 14.5616 12.0508C14.5802 12.0567 14.6016 12.0547 14.6182 12.043C14.7081 11.9805 14.796 11.8799 14.8516 11.8116L14.9718 12.003C14.9845 12.0225 15.0059 12.0352 15.0284 12.0333C15.0518 12.0313 15.0723 12.0186 15.0821 11.9981L15.2227 11.7168L15.3419 12.0391C15.3477 12.0567 15.3624 12.0713 15.3809 12.0772L15.4014 12.0801C15.4132 12.0801 15.4249 12.0772 15.4346 12.0704L15.7452 11.875C15.9063 11.9649 16.1387 12.003 16.1573 12.0059C16.1768 12.0079 16.1964 12.003 16.211 11.9893C16.2257 11.9756 16.2325 11.9561 16.2305 11.9375L16.2052 11.6729L16.4805 11.668C16.504 11.668 16.5255 11.6543 16.5362 11.6338L16.5421 11.6124C16.546 11.5811 16.5264 11.5518 16.4962 11.544C16.4659 11.5352 16.3966 11.4717 16.338 11.4053L16.3526 11.4043L16.38 11.2793C16.3438 11.2442 16.3184 11.1895 16.3018 11.1329C16.2882 11.0831 16.2803 11.0323 16.2764 10.9913L16.3302 11.0069L16.3497 11.0118L16.3624 11.0137C16.3809 11.0137 16.3985 11.0059 16.4112 10.9913C16.4259 10.9737 16.4307 10.9493 16.422 10.9278C16.4044 10.878 16.3897 10.8096 16.379 10.7393C16.3653 10.6573 16.3565 10.5733 16.3516 10.5186C16.3692 10.5235 16.3868 10.5215 16.4014 10.5127C16.418 10.502 16.4288 10.4844 16.4307 10.4659C16.5059 9.82817 16.3751 9.49614 16.3067 9.37212L16.3536 9.3311L16.5274 9.07524L16.5997 8.75981ZM13.4522 11.1143L13.5186 10.9668C13.5294 10.9444 13.5518 10.9278 13.5772 10.9297C13.6026 10.9297 13.6251 10.9454 13.6348 10.9688C13.6651 11.042 13.713 11.0987 13.752 11.1368C13.7598 11.1211 13.7686 11.1045 13.7803 11.0889C13.793 11.0733 13.8077 11.0586 13.8253 11.0459C13.877 11.0079 13.9639 10.9952 14.0303 11.0225C14.0645 11.0362 14.0928 11.0596 14.1085 11.0958C14.1563 11.2081 14.0714 11.4258 13.9971 11.5801L14.128 11.5137C14.1466 11.503 14.17 11.503 14.1886 11.5137C14.2071 11.5245 14.2198 11.544 14.2208 11.5655L14.2393 11.8487C14.338 11.7432 14.4171 11.629 14.4171 11.629C14.4307 11.6084 14.4542 11.5987 14.4786 11.6016C14.503 11.6055 14.5225 11.6221 14.5303 11.6456L14.6026 11.8741C14.7032 11.7803 14.793 11.6543 14.793 11.6543C14.8057 11.6368 14.8253 11.628 14.8468 11.627C14.8673 11.628 14.8878 11.6387 14.8985 11.6573L15.0079 11.8311L15.1632 11.5196C15.1749 11.4971 15.1964 11.4825 15.2237 11.4844C15.2491 11.4864 15.2706 11.502 15.2794 11.5264L15.422 11.9122L15.6993 11.7374C15.7198 11.7237 15.7462 11.7247 15.7677 11.7383C15.837 11.7833 15.9337 11.8155 16.0137 11.8379L16.0841 11.8555L16.0606 11.6065C16.0596 11.5889 16.0645 11.5713 16.0772 11.5586C16.0889 11.545 16.1055 11.5381 16.1231 11.5372L16.2813 11.5352C16.2432 11.4961 16.212 11.459 16.1964 11.4405C16.1866 11.4278 16.1817 11.4122 16.1827 11.3975C16.0655 11.3916 15.9034 11.3711 15.7403 11.3008L15.6436 11.4502C15.6358 11.462 15.6251 11.4708 15.6114 11.4747L15.6026 11.4776L15.5899 11.4795C15.5772 11.4795 15.5655 11.4756 15.5548 11.4688L15.1886 11.2227L15.1212 11.4063C15.1134 11.4268 15.0948 11.4424 15.0733 11.4463C15.0509 11.4512 15.0284 11.4424 15.0137 11.4258C14.9512 11.3536 14.8516 11.2432 14.793 11.1827C14.7403 11.2334 14.6475 11.3155 14.5479 11.3711C14.5313 11.3799 14.5128 11.3809 14.4952 11.375C14.4776 11.3682 14.4639 11.3545 14.4581 11.3379L14.3575 11.0674C14.3448 11.0352 14.3614 10.9981 14.3946 10.9864C14.4268 10.9737 14.4639 10.9913 14.4766 11.0235L14.5499 11.2208C14.6553 11.1465 14.7452 11.0499 14.7452 11.0499C14.7677 11.0254 14.8057 11.0225 14.8311 11.044C14.8682 11.0733 14.9688 11.1836 15.0391 11.2618L15.0968 11.1036C15.1036 11.085 15.1182 11.0704 15.1368 11.0645C15.1553 11.0586 15.1759 11.0616 15.1925 11.0723L15.5723 11.3272L15.6641 11.1856C15.6817 11.1583 15.7169 11.1485 15.7452 11.1631C15.9141 11.2481 16.0958 11.2686 16.212 11.2715C16.1417 11.1387 16.1348 10.9708 16.1348 10.9317C16.0401 10.8897 15.9229 10.8262 15.8057 10.7295L15.7598 10.8428C15.753 10.8604 15.7374 10.8741 15.7188 10.8799C15.7003 10.8848 15.6798 10.8809 15.6641 10.8702L15.4805 10.7374L15.463 10.8741C15.46 10.8956 15.4464 10.9141 15.4278 10.9229C15.4083 10.9327 15.3858 10.9317 15.3673 10.92C15.3604 10.9161 15.21 10.8243 15.1202 10.7237C15.0968 10.6973 15.0987 10.6573 15.1251 10.6338C15.1514 10.6104 15.1915 10.6124 15.2149 10.6387C15.253 10.6817 15.3057 10.7247 15.3507 10.7559L15.3682 10.6153C15.3712 10.5928 15.3858 10.5733 15.4063 10.5645C15.4268 10.5557 15.4512 10.5586 15.4688 10.5713L15.6729 10.7198L15.7218 10.5987C15.7296 10.5801 15.7462 10.5655 15.7667 10.5616C15.7872 10.5567 15.8087 10.5625 15.8243 10.5772C15.9825 10.7256 16.1534 10.8057 16.2598 10.8458C16.2237 10.6758 16.2091 10.4639 16.2091 10.4522C16.1104 10.3936 15.9708 10.2999 15.8497 10.1524C15.8497 10.2305 15.8428 10.3096 15.8243 10.3604C15.8175 10.378 15.8038 10.3907 15.7862 10.3975C15.7686 10.4034 15.7491 10.4014 15.7335 10.3926C15.7296 10.3907 15.6905 10.3682 15.6397 10.3311C15.5919 10.2959 15.5343 10.2491 15.4845 10.1934C15.4669 10.2569 15.4454 10.3243 15.4278 10.3545C15.418 10.3702 15.4034 10.3799 15.3868 10.3838C15.3731 10.3868 15.3585 10.3848 15.3448 10.378C15.3389 10.375 15.2423 10.3262 15.1553 10.251C15.1466 10.335 15.1339 10.4307 15.1153 10.4776C15.1085 10.4942 15.0948 10.5069 15.0782 10.5137C15.0665 10.5176 15.0538 10.5186 15.043 10.5157L15.0255 10.5098C15.0206 10.5059 14.9102 10.4463 14.8077 10.3692L14.7794 10.4756C14.7745 10.4932 14.7618 10.5088 14.7452 10.5166C14.7286 10.5245 14.7091 10.5245 14.6915 10.5166C14.6866 10.5147 14.6124 10.4805 14.5323 10.4239C14.4864 10.3907 14.4376 10.3497 14.3995 10.3038C14.3858 10.2881 14.3819 10.2676 14.3868 10.2491C14.3897 10.2354 14.3966 10.2237 14.4083 10.2149C14.4356 10.1924 14.4757 10.1963 14.4971 10.2237C14.547 10.2842 14.6221 10.334 14.6768 10.3663L14.7091 10.2422C14.7149 10.2208 14.7315 10.2041 14.753 10.1973C14.7628 10.1944 14.7735 10.1944 14.7843 10.1963C14.795 10.1983 14.8048 10.2032 14.8136 10.211C14.8741 10.2666 14.9561 10.3204 15.0147 10.3555C15.0264 10.2774 15.0362 10.1641 15.0401 10.0909C15.0421 10.0625 15.0626 10.0391 15.0899 10.0323C15.1182 10.0264 15.1466 10.0391 15.1593 10.0645C15.1944 10.129 15.2784 10.1915 15.3419 10.2305C15.3585 10.1768 15.38 10.0967 15.3966 10.0274C15.4024 10.001 15.4249 9.98149 15.4522 9.97856C15.4718 9.97661 15.4913 9.98345 15.504 9.99809L15.5157 10.0157C15.5557 10.1036 15.6514 10.1836 15.7198 10.2325C15.7276 10.1407 15.7208 10.0088 15.712 9.92681C15.7091 9.89653 15.7276 9.86723 15.7579 9.85942C15.7755 9.85454 15.793 9.85649 15.8067 9.86528C15.8175 9.87114 15.8262 9.87993 15.8321 9.89165C15.96 10.1504 16.1856 10.294 16.3028 10.3545C16.3428 9.91606 16.2764 9.64653 16.2218 9.50688C16.1895 9.4229 16.1593 9.38384 16.1593 9.38384C16.1475 9.36919 16.1427 9.35063 16.1466 9.33208C16.1485 9.32036 16.1544 9.30864 16.1632 9.29888L16.1768 9.28911C16.2501 9.24614 16.3048 9.18169 16.3458 9.10942C16.3682 9.06938 16.3868 9.02739 16.4024 8.9854C16.1446 9.2354 15.7354 9.33208 15.5372 9.36528L15.6339 9.48345C15.6485 9.502 15.6524 9.52641 15.6436 9.5479C15.6348 9.56938 15.6143 9.58403 15.5909 9.58696C15.3477 9.61138 15.169 9.57915 15.0499 9.53813L15.0909 9.61528C15.1016 9.63481 15.1007 9.65923 15.0889 9.67876C15.0772 9.69829 15.0548 9.71098 15.0323 9.70903C14.8341 9.70024 14.6602 9.61821 14.5167 9.54595C14.5098 9.59282 14.4874 9.63774 14.4493 9.67583C14.4024 9.72075 14.3419 9.74516 14.2833 9.74516C14.2413 9.74516 14.1993 9.73345 14.1632 9.70903C14.1173 9.67876 14.086 9.63188 14.0733 9.58013C14.0655 9.55083 14.0636 9.51958 14.0684 9.48735C14.0811 9.40532 14.1319 9.34184 14.2032 9.32036C14.2979 9.29204 14.4053 9.34673 14.5421 9.41606C14.5919 9.44145 14.6466 9.46977 14.7052 9.49516C14.7725 9.52446 14.8448 9.55083 14.921 9.56645L14.8419 9.42192C14.8272 9.39458 14.8341 9.36138 14.8585 9.34184C14.8751 9.32915 14.8966 9.32524 14.9151 9.3311C14.9239 9.33305 14.9327 9.33794 14.9395 9.3438C14.9395 9.3438 14.9971 9.39067 15.1202 9.4268C15.2022 9.45122 15.3136 9.47075 15.4571 9.46782L15.3663 9.35747C15.3516 9.33989 15.3477 9.3145 15.3575 9.29302C15.3663 9.27153 15.3868 9.25688 15.4102 9.25493C15.4141 9.25395 15.6046 9.23442 15.8262 9.16313C15.9718 9.11626 16.1309 9.04595 16.2579 8.94341C16.1534 8.97368 16.0723 8.9688 16.0665 8.9688C16.0489 8.96684 16.0323 8.95903 16.0216 8.94438C15.8751 8.76079 15.7247 8.70317 15.6495 8.68559C15.6241 8.7647 15.5782 8.83501 15.543 8.88091L15.4981 8.93364C15.4854 8.94731 15.4659 8.95415 15.4464 8.9522C15.4268 8.95024 15.4093 8.9395 15.3985 8.9229C15.2862 8.74028 15.1231 8.69243 15.0274 8.68071C15.0391 8.81548 14.9454 8.92583 14.8829 8.9727C14.8682 8.98345 14.8497 8.98735 14.8321 8.98345C14.8214 8.98149 14.8116 8.97661 14.8028 8.9688C14.5303 8.72563 14.3204 8.79692 14.2354 8.84575C14.2618 8.91216 14.2491 8.96684 14.2315 9.00395C14.1016 9.26763 13.297 9.32036 13.1368 9.32817C13.1173 9.32915 13.0977 9.32036 13.085 9.30473L13.0743 9.28618C13.0704 9.27446 13.0694 9.26079 13.0723 9.24809C13.0841 9.20415 13.0762 9.15727 13.0509 9.11528C13.0245 9.07231 12.9825 9.04009 12.9376 9.0313C12.8956 9.02251 12.8155 9.02739 12.7686 9.08013C12.7227 9.12993 12.713 9.21684 12.7393 9.33305L12.7579 9.40044C12.8428 9.66997 13.1046 9.93462 13.2686 10.0801L13.2677 10.0157L13.2716 9.99614C13.2794 9.97759 13.294 9.96391 13.3136 9.95806C13.3399 9.95024 13.3682 9.96001 13.3839 9.98247C13.4376 10.0606 13.502 10.1133 13.5509 10.1456L13.5821 9.94243C13.587 9.91411 13.6095 9.89263 13.6378 9.88872C13.6544 9.88774 13.67 9.89263 13.6827 9.90141C13.6915 9.90825 13.6983 9.91704 13.7032 9.92778C13.7608 10.0674 14.1251 10.5049 14.2598 10.6612C14.2774 10.6807 14.2803 10.71 14.2677 10.7334C14.2589 10.7491 14.2432 10.7598 14.2257 10.7637L14.2032 10.7657C13.9718 10.7325 13.6309 10.8096 13.627 10.8106C13.6016 10.8165 13.5743 10.8047 13.5596 10.7823C13.545 10.7588 13.547 10.7295 13.5636 10.709L13.6104 10.6504C13.2891 10.6172 12.9757 10.5323 12.8487 10.4952L12.7423 10.7842L13.0294 10.7559C13.0509 10.753 13.0733 10.7627 13.086 10.7813C13.0919 10.7891 13.0958 10.7989 13.0977 10.8086C13.0997 10.8204 13.0987 10.8321 13.0938 10.8428L13.0401 10.9756L13.2764 10.9122C13.3077 10.9043 13.3399 10.9209 13.3516 10.9502C13.3829 11.0303 13.421 11.0821 13.4522 11.1143ZM13.9161 10.4454C13.8009 10.4424 13.379 10.4249 13.0362 10.2588C12.9532 10.2188 12.8087 10.1495 12.7403 10.1846C12.7286 10.1905 12.7091 10.2188 12.712 10.254C12.7169 10.2989 12.7589 10.335 12.8292 10.3565C12.8341 10.3584 13.3087 10.5079 13.7384 10.5333C13.7628 10.5352 13.7833 10.5499 13.793 10.5713C13.8028 10.5928 13.7989 10.6182 13.7843 10.6368L13.7696 10.6553C13.8546 10.6426 13.962 10.6309 14.0675 10.6299L13.9161 10.4454ZM13.8116 10.3135L13.6807 10.1358L13.6622 10.254C13.6593 10.2715 13.6495 10.2852 13.6358 10.295C13.7022 10.3047 13.7628 10.3106 13.8116 10.3135ZM13.4288 10.2569L13.5235 10.2774C13.4952 10.2608 13.4581 10.2374 13.418 10.2051L13.4239 10.2159L13.4298 10.2344L13.4288 10.2569ZM14.2335 9.60356C14.2803 9.63481 14.3311 9.61333 14.3604 9.58501C14.3653 9.58013 14.3819 9.56157 14.3897 9.53813C14.3946 9.52055 14.3946 9.50005 14.3809 9.47856C14.3311 9.45513 14.2872 9.4395 14.2569 9.4395L14.2393 9.44145C14.212 9.45024 14.1973 9.48149 14.1934 9.50591C14.1915 9.52251 14.1925 9.54204 14.1993 9.55962C14.2061 9.57622 14.2169 9.59184 14.2335 9.60356Z" fill="#464655"/>
</svg>
