<svg xmlns="http://www.w3.org/2000/svg" width="24" height="24" viewBox="0 0 24 24" fill="none"><rect width="24" height="24" fill="none"/>
<path d="M1.79742 4.13782C0.804703 4.13782 0 4.94252 0 5.93524V18.0646C0 19.0572 0.804703 19.862 1.79742 19.862H8.00002V4.13782H1.79742Z" fill="#73AF00"/>
<path d="M16.0003 4.138H8.00016V19.8622H16.0003V4.138Z" fill="#FFE15A"/>
<path d="M22.2026 4.13782H16V19.8619H22.2026C23.1952 19.8619 24 19.0572 24 18.0645V5.93524C24 4.94252 23.1953 4.13782 22.2026 4.13782Z" fill="#FF4B55"/>
<path d="M12.0956 9.6458L12.6437 11.2893L14.3762 11.3028C14.4731 11.3036 14.5132 11.4272 14.4353 11.4847L13.0416 12.5138L13.5642 14.1657C13.5934 14.2581 13.4882 14.3345 13.4094 14.2781L12 13.2706L10.5905 14.278C10.5117 14.3344 10.4065 14.258 10.4357 14.1656L10.9583 12.5137L9.56461 11.4846C9.48666 11.427 9.52683 11.3034 9.62372 11.3027L11.3562 11.2892L11.9043 9.6457C11.935 9.55387 12.065 9.55387 12.0956 9.6458Z" fill="#73AF00"/>
</svg>
