<svg xmlns="http://www.w3.org/2000/svg" width="24" height="24" viewBox="0 0 24 24" fill="none"><rect width="24" height="24" fill="none"/>
<path d="M1.79742 4.1378C0.804703 4.1378 0 4.9425 0 5.93522V18.0646C0 19.0572 0.804703 19.862 1.79742 19.862H8.00002V4.1378H1.79742Z" fill="#82AFFF"/>
<path d="M16.0003 4.13799H8.00015V19.8622H16.0003V4.13799Z" fill="#F5F5F5"/>
<path d="M22.2026 4.1378H16V19.8619H22.2026C23.1952 19.8619 24 19.0572 24 18.0645V5.93522C24 4.9425 23.1953 4.1378 22.2026 4.1378Z" fill="#82AFFF"/>
<path d="M11.8956 9.94252L11.6583 10.0612L11.8766 10.1513L11.8956 9.94252Z" fill="#FFC855"/>
<path d="M11.9999 14.3273C10.6811 14.3273 9.60818 13.2543 9.60818 11.9356C9.60818 11.1163 10.0205 10.363 10.7112 9.92044L10.7726 10.0163C10.1148 10.4379 9.72204 11.1554 9.72204 11.9356C9.72204 13.1916 10.7439 14.2134 11.9999 14.2134V14.3273V14.3273Z" fill="#73AF00"/>
<path d="M10.631 14.4765C10.7222 14.4951 10.8627 14.4711 11.0071 14.4038C11.1515 14.3365 11.2603 14.2444 11.3047 14.1627C11.2136 14.1441 11.073 14.1681 10.9287 14.2354C10.7843 14.3027 10.6755 14.3948 10.631 14.4765Z" fill="#73AF00"/>
<path d="M11.3048 14.1627C11.3234 14.0715 11.2993 13.931 11.2321 13.7866C11.1648 13.6422 11.0727 13.5334 10.991 13.489C10.9724 13.5801 10.9964 13.7207 11.0637 13.865C11.1309 14.0094 11.2231 14.1182 11.3048 14.1627Z" fill="#73AF00"/>
<path d="M10.1545 14.184C10.242 14.2158 10.3846 14.2126 10.5372 14.1673C10.6899 14.122 10.8111 14.0468 10.867 13.9725C10.7796 13.9407 10.637 13.9439 10.4844 13.9892C10.3317 14.0345 10.2105 14.1097 10.1545 14.184Z" fill="#73AF00"/>
<path d="M10.8671 13.9724C10.8989 13.885 10.8957 13.7424 10.8504 13.5897C10.805 13.4371 10.7299 13.3158 10.6556 13.2599C10.6238 13.3473 10.627 13.4899 10.6722 13.6426C10.7176 13.7953 10.7928 13.9165 10.8671 13.9724Z" fill="#73AF00"/>
<path d="M9.71384 13.7852C9.79413 13.8321 9.93495 13.8547 10.0933 13.8375C10.2517 13.8204 10.3844 13.7681 10.4528 13.7051C10.3725 13.6581 10.2317 13.6356 10.0733 13.6527C9.91488 13.6699 9.78218 13.7222 9.71384 13.7852Z" fill="#73AF00"/>
<path d="M10.4528 13.705C10.4997 13.6247 10.5222 13.4839 10.5051 13.3255C10.4879 13.1671 10.4357 13.0344 10.3726 12.9661C10.3257 13.0464 10.3031 13.1872 10.3203 13.3456C10.3375 13.504 10.3897 13.6367 10.4528 13.705Z" fill="#73AF00"/>
<path d="M9.34949 13.2345C9.42017 13.2949 9.5548 13.342 9.71371 13.3531C9.87261 13.3642 10.0125 13.3363 10.0909 13.2864C10.0202 13.226 9.8856 13.1789 9.72669 13.1678C9.56778 13.1567 9.42791 13.1845 9.34949 13.2345Z" fill="#73AF00"/>
<path d="M10.0909 13.2864C10.1514 13.2157 10.1985 13.081 10.2096 12.9222C10.2207 12.7633 10.1928 12.6234 10.1429 12.545C10.0825 12.6157 10.0353 12.7503 10.0242 12.9092C10.0131 13.0682 10.041 13.208 10.0909 13.2864Z" fill="#73AF00"/>
<path d="M9.1362 12.6278C9.19264 12.7017 9.31428 12.7761 9.46732 12.8204C9.62032 12.8648 9.76292 12.8669 9.85015 12.8345C9.79372 12.7606 9.67207 12.6862 9.51903 12.6419C9.36598 12.5976 9.22339 12.5955 9.1362 12.6278Z" fill="#73AF00"/>
<path d="M9.8501 12.8345C9.92402 12.7781 9.99841 12.6564 10.0427 12.5034C10.0871 12.3504 10.0892 12.2078 10.0568 12.1206C9.9829 12.177 9.90851 12.2987 9.86421 12.4517C9.81991 12.6047 9.8178 12.7473 9.8501 12.8345Z" fill="#73AF00"/>
<path d="M9.04591 11.9195C9.08144 12.0055 9.17988 12.1086 9.31638 12.1908C9.45288 12.273 9.59009 12.3118 9.68271 12.3029C9.64718 12.2169 9.54874 12.1138 9.41224 12.0316C9.27574 11.9494 9.13849 11.9107 9.04591 11.9195Z" fill="#73AF00"/>
<path d="M9.68271 12.3029C9.76868 12.2673 9.8718 12.1689 9.95402 12.0324C10.0362 11.8959 10.075 11.7587 10.0661 11.6661C9.98018 11.7016 9.87701 11.8 9.79479 11.9365C9.71266 12.073 9.67385 12.2103 9.68271 12.3029Z" fill="#73AF00"/>
<path d="M9.13145 11.2507C9.14814 11.3422 9.22281 11.4637 9.33902 11.5727C9.45522 11.6817 9.58136 11.7483 9.67366 11.7591C9.65697 11.6676 9.5823 11.5461 9.46609 11.4372C9.34989 11.3282 9.22385 11.2615 9.13145 11.2507Z" fill="#73AF00"/>
<path d="M9.67371 11.7591C9.76521 11.7424 9.88671 11.6678 9.99569 11.5516C10.1046 11.4354 10.1713 11.3092 10.1821 11.2169C10.0906 11.2336 9.96911 11.3083 9.86013 11.4245C9.75119 11.5407 9.68449 11.6667 9.67371 11.7591Z" fill="#73AF00"/>
<path d="M9.46747 10.5271C9.44834 10.6181 9.47145 10.7588 9.53783 10.9037C9.6042 11.0485 9.6957 11.1579 9.77712 11.2028C9.79625 11.1118 9.77314 10.9711 9.70676 10.8263C9.64039 10.6814 9.54889 10.572 9.46747 10.5271Z" fill="#73AF00"/>
<path d="M9.77707 11.2028C9.86805 11.2219 10.0088 11.1988 10.1536 11.1325C10.2985 11.0661 10.4078 10.9746 10.4528 10.8932C10.3618 10.874 10.2211 10.8971 10.0762 10.9635C9.93138 11.0299 9.82198 11.1214 9.77707 11.2028Z" fill="#73AF00"/>
<path d="M9.86923 9.9912C9.82634 10.0737 9.81077 10.2155 9.83576 10.3728C9.86074 10.5302 9.91943 10.6601 9.9858 10.7253C10.0287 10.6428 10.0443 10.501 10.0193 10.3436C9.99429 10.1863 9.93555 10.0564 9.86923 9.9912Z" fill="#73AF00"/>
<path d="M9.98586 10.7252C10.0684 10.7681 10.2102 10.7837 10.3675 10.7587C10.5248 10.7337 10.6548 10.675 10.7199 10.6087C10.6374 10.5658 10.4956 10.5502 10.3383 10.5752C10.1809 10.6002 10.051 10.6589 9.98586 10.7252Z" fill="#73AF00"/>
<path d="M10.2632 9.61821C10.2087 9.69354 10.1724 9.8314 10.1739 9.99073C10.1754 10.1501 10.2144 10.2873 10.2704 10.3614C10.325 10.2861 10.3612 10.1482 10.3597 9.9889C10.3582 9.82962 10.3193 9.69237 10.2632 9.61821Z" fill="#73AF00"/>
<path d="M10.2704 10.3614C10.3458 10.416 10.4836 10.4523 10.6429 10.4508C10.8023 10.4492 10.9394 10.4103 11.0136 10.3542C10.9383 10.2997 10.8004 10.2634 10.6411 10.2649C10.4818 10.2664 10.3447 10.3054 10.2704 10.3614Z" fill="#73AF00"/>
<path d="M10.4616 10.166C10.5543 10.1735 10.691 10.1328 10.8263 10.0487C10.9616 9.96461 11.0586 9.86008 11.0929 9.77364C11.0002 9.76614 10.8635 9.80679 10.7282 9.89093C10.5929 9.97502 10.4959 10.0796 10.4616 10.166Z" fill="#73AF00"/>
<path d="M11.9999 14.3273V14.2134C13.2558 14.2134 14.2777 13.1915 14.2777 11.9355C14.2777 11.1553 13.885 10.4378 13.2272 10.0163L13.2886 9.92041C13.9793 10.363 14.3916 11.1163 14.3916 11.9355C14.3916 13.2543 13.3187 14.3273 11.9999 14.3273Z" fill="#73AF00"/>
<path d="M13.3687 14.4765C13.2776 14.4951 13.137 14.4711 12.9926 14.4038C12.8482 14.3365 12.7394 14.2444 12.695 14.1627C12.7862 14.1441 12.9267 14.1681 13.0711 14.2354C13.2155 14.3026 13.3243 14.3948 13.3687 14.4765Z" fill="#73AF00"/>
<path d="M12.6949 14.1627C12.6764 14.0715 12.7004 13.931 12.7677 13.7866C12.835 13.6422 12.9271 13.5334 13.0088 13.489C13.0274 13.5801 13.0034 13.7207 12.9361 13.865C12.8689 14.0094 12.7767 14.1182 12.6949 14.1627Z" fill="#73AF00"/>
<path d="M13.8452 14.184C13.7578 14.2158 13.6152 14.2126 13.4625 14.1673C13.3098 14.122 13.1886 14.0468 13.1327 13.9725C13.2201 13.9407 13.3627 13.9439 13.5154 13.9892C13.6681 14.0345 13.7893 14.1097 13.8452 14.184Z" fill="#73AF00"/>
<path d="M13.1326 13.9724C13.1009 13.885 13.104 13.7424 13.1493 13.5897C13.1947 13.4371 13.2699 13.3158 13.3442 13.2599C13.3759 13.3473 13.3728 13.4899 13.3275 13.6426C13.2822 13.7953 13.207 13.9165 13.1326 13.9724Z" fill="#73AF00"/>
<path d="M14.2859 13.7852C14.2056 13.8321 14.0648 13.8547 13.9064 13.8375C13.748 13.8204 13.6153 13.7681 13.547 13.7051C13.6273 13.6581 13.7681 13.6356 13.9265 13.6527C14.0849 13.6699 14.2176 13.7222 14.2859 13.7852Z" fill="#73AF00"/>
<path d="M13.547 13.705C13.5001 13.6247 13.4775 13.4839 13.4947 13.3255C13.5118 13.1671 13.5641 13.0344 13.6271 12.9661C13.6741 13.0464 13.6966 13.1872 13.6795 13.3456C13.6623 13.504 13.61 13.6367 13.547 13.705Z" fill="#73AF00"/>
<path d="M14.6503 13.2345C14.5796 13.2949 14.4449 13.342 14.2861 13.3531C14.1271 13.3642 13.9872 13.3363 13.9089 13.2864C13.9795 13.226 14.1142 13.1789 14.2731 13.1678C14.432 13.1567 14.5719 13.1845 14.6503 13.2345Z" fill="#73AF00"/>
<path d="M13.9088 13.2864C13.8484 13.2157 13.8013 13.081 13.7902 12.9222C13.7791 12.7633 13.807 12.6234 13.8569 12.545C13.9173 12.6157 13.9644 12.7503 13.9755 12.9092C13.9867 13.0682 13.9588 13.208 13.9088 13.2864Z" fill="#73AF00"/>
<path d="M14.8636 12.6278C14.8071 12.7017 14.6855 12.7761 14.5324 12.8204C14.3794 12.8648 14.2368 12.8669 14.1496 12.8345C14.206 12.7606 14.3277 12.6862 14.4807 12.6419C14.6338 12.5976 14.7764 12.5955 14.8636 12.6278Z" fill="#73AF00"/>
<path d="M14.1497 12.8345C14.0757 12.7781 14.0013 12.6564 13.957 12.5034C13.9127 12.3504 13.9106 12.2078 13.9429 12.1206C14.0169 12.177 14.0913 12.2987 14.1355 12.4517C14.1798 12.6047 14.182 12.7473 14.1497 12.8345Z" fill="#73AF00"/>
<path d="M14.9538 11.9195C14.9183 12.0055 14.8199 12.1086 14.6834 12.1908C14.5469 12.273 14.4097 12.3118 14.317 12.3029C14.3526 12.2169 14.451 12.1138 14.5875 12.0316C14.724 11.9494 14.8613 11.9107 14.9538 11.9195Z" fill="#73AF00"/>
<path d="M14.3171 12.3029C14.2311 12.2673 14.128 12.1689 14.0458 12.0324C13.9636 11.8959 13.9248 11.7587 13.9337 11.6661C14.0196 11.7016 14.1228 11.8 14.205 11.9365C14.2871 12.073 14.3259 12.2103 14.3171 12.3029Z" fill="#73AF00"/>
<path d="M14.8683 11.2507C14.8516 11.3422 14.777 11.4637 14.6608 11.5727C14.5445 11.6817 14.4184 11.7483 14.3261 11.7591C14.3428 11.6676 14.4175 11.5461 14.5337 11.4372C14.6499 11.3282 14.7759 11.2615 14.8683 11.2507Z" fill="#73AF00"/>
<path d="M14.326 11.7591C14.2345 11.7424 14.113 11.6678 14.0041 11.5516C13.8951 11.4354 13.8285 11.3092 13.8176 11.2169C13.9091 11.2336 14.0306 11.3083 14.1396 11.4245C14.2486 11.5407 14.3153 11.6667 14.326 11.7591Z" fill="#73AF00"/>
<path d="M14.5324 10.5271C14.5515 10.6181 14.5284 10.7588 14.462 10.9037C14.3956 11.0485 14.3041 11.1579 14.2227 11.2028C14.2036 11.1118 14.2267 10.9711 14.2931 10.8263C14.3594 10.6814 14.4509 10.572 14.5324 10.5271Z" fill="#73AF00"/>
<path d="M14.2227 11.2028C14.1317 11.2219 13.991 11.1988 13.8462 11.1325C13.7013 11.0661 13.592 10.9746 13.547 10.8932C13.638 10.874 13.7787 10.8971 13.9235 10.9635C14.0684 11.0299 14.1778 11.1214 14.2227 11.2028Z" fill="#73AF00"/>
<path d="M14.1305 9.9912C14.1734 10.0737 14.189 10.2155 14.164 10.3728C14.139 10.5302 14.0803 10.6601 14.014 10.7253C13.9711 10.6428 13.9555 10.501 13.9805 10.3436C14.0055 10.1863 14.0642 10.0564 14.1305 9.9912Z" fill="#73AF00"/>
<path d="M14.0139 10.7252C13.9314 10.7681 13.7896 10.7837 13.6323 10.7587C13.4749 10.7337 13.345 10.675 13.2798 10.6087C13.3623 10.5658 13.5041 10.5502 13.6615 10.5752C13.8188 10.6002 13.9488 10.6589 14.0139 10.7252Z" fill="#73AF00"/>
<path d="M13.7366 9.61821C13.7911 9.69354 13.8274 9.8314 13.8259 9.99073C13.8243 10.1501 13.7854 10.2873 13.7293 10.3614C13.6748 10.2861 13.6385 10.1482 13.64 9.9889C13.6416 9.82962 13.6805 9.69237 13.7366 9.61821Z" fill="#73AF00"/>
<path d="M13.7293 10.3614C13.654 10.416 13.5162 10.4523 13.3568 10.4508C13.1975 10.4492 13.0603 10.4103 12.9861 10.3542C13.0615 10.2997 13.1993 10.2634 13.3587 10.2649C13.5179 10.2664 13.6551 10.3054 13.7293 10.3614Z" fill="#73AF00"/>
<path d="M13.5382 10.166C13.4455 10.1735 13.3088 10.1328 13.1735 10.0487C13.0382 9.96457 12.9412 9.86008 12.9069 9.77364C12.9995 9.76614 13.1363 9.80679 13.2715 9.89093C13.4068 9.97502 13.5038 10.0796 13.5382 10.166Z" fill="#73AF00"/>
<path d="M10.6943 13.7976L10.2798 14.2121L10.0753 13.8032L10.6887 13.1899L10.8931 13.3943L10.834 13.5715C10.8056 13.6567 10.7578 13.7341 10.6943 13.7976Z" fill="#966446"/>
<path d="M12.9374 10.7369L10.6887 12.9856C10.6322 13.042 10.6322 13.1335 10.6887 13.19L10.7909 13.2922L11.1998 12.8833L12.8352 11.0434L13.0396 10.839L12.9374 10.7369Z" fill="#B9B9B9"/>
<path d="M11.242 12.6366C11.2149 12.6637 11.1997 12.7005 11.1997 12.7388V12.8833L12.8351 11.0434L11.242 12.6366Z" fill="#966446"/>
<path d="M13.0395 10.839L12.9373 10.7369L12.8351 10.839L12.9373 10.9413L13.0395 11.0435L14.1639 9.71475L13.0395 10.839Z" fill="#A0A0A0"/>
<path d="M13.4196 13.7976L13.8341 14.2121L14.0385 13.8032L13.4252 13.1899L13.2208 13.3943L13.2799 13.5715C13.3083 13.6567 13.3561 13.7341 13.4196 13.7976Z" fill="#966446"/>
<path d="M11.1765 10.7369L13.4252 12.9856C13.4817 13.042 13.4817 13.1335 13.4252 13.19L13.323 13.2922L12.9142 12.8833L11.2787 11.0434L11.0743 10.839L11.1765 10.7369Z" fill="#B9B9B9"/>
<path d="M12.8719 12.6366C12.899 12.6637 12.9142 12.7005 12.9142 12.7388V12.8833L11.2788 11.0434L12.8719 12.6366Z" fill="#966446"/>
<path d="M11.0744 10.839L11.1766 10.7369L11.2788 10.839L11.1766 10.9413L11.0744 11.0435L9.94998 9.71475L11.0744 10.839Z" fill="#A0A0A0"/>
<path d="M11.2179 13.7125L11.3195 13.8052C11.6901 13.3988 12.3386 12.6878 13.3666 11.7647C13.3667 11.7648 12.515 12.2905 11.2179 13.7125Z" fill="#B9B9B9"/>
<path d="M10.9305 14.1296C10.894 14.0963 10.8914 14.0398 10.9247 14.0033L11.1424 13.7646C11.1756 13.7281 11.2322 13.7256 11.2686 13.7588C11.3051 13.7921 11.3077 13.8486 11.2745 13.8851L11.0568 14.1238C11.0235 14.1603 10.967 14.1629 10.9305 14.1296Z" fill="#FFE15A"/>
<path d="M11.1354 13.6374L11.0765 13.6637C11.024 13.6898 10.886 13.7678 10.8622 13.879C10.8509 13.9317 10.8669 13.9831 10.9078 14.0316C10.9117 14.0216 10.917 14.0118 10.9247 14.0035L10.9521 13.9734C10.9336 13.9465 10.9238 13.9201 10.9294 13.8935C10.9443 13.824 11.0371 13.7619 11.0954 13.7311L11.3562 13.969L11.4211 13.8978L11.1354 13.6374Z" fill="#FFC855"/>
<path d="M12.895 13.825L12.7934 13.9176C12.4228 13.5113 11.7743 12.8003 10.7462 11.8772C10.7462 11.8772 11.5979 12.4029 12.895 13.825Z" fill="#B9B9B9"/>
<path d="M13.1824 14.2421C13.2188 14.2088 13.2214 14.1523 13.1882 14.1158L12.9705 13.8772C12.9372 13.8407 12.8807 13.8381 12.8442 13.8713C12.8078 13.9046 12.8052 13.9612 12.8384 13.9976L13.0561 14.2363C13.0894 14.2728 13.1459 14.2754 13.1824 14.2421Z" fill="#FFE15A"/>
<path d="M12.9774 13.7498L13.0364 13.7761C13.0889 13.8022 13.2269 13.8803 13.2506 13.9915C13.262 14.0442 13.246 14.0955 13.2051 14.1441C13.2012 14.1341 13.1959 14.1243 13.1881 14.1159L13.1607 14.0859C13.1793 14.059 13.1891 14.0325 13.1835 14.006C13.1686 13.9364 13.0758 13.8743 13.0175 13.8435L12.7567 14.0814L12.6918 14.0103L12.9774 13.7498Z" fill="#FFC855"/>
<path d="M12.1013 10.0633C12.1093 10.0435 12.1139 10.0221 12.1139 9.99941C12.1139 9.90505 12.0374 9.82855 11.943 9.82855C11.8486 9.82855 11.7721 9.90505 11.7721 9.99941C11.7721 10.0556 11.7997 10.1051 11.8416 10.1362C11.7798 10.6324 12.2691 10.6703 12.4555 10.7397C12.7384 10.845 13.0931 11.0578 13.0708 11.653C13.0492 12.2316 12.6833 12.7898 12.6833 12.7898L12.987 12.3769C12.876 12.8466 12.6166 13.4449 12 14.1564C12 14.1564 12.4216 13.744 12.7734 13.2121C12.5145 13.8211 12.2277 14.3842 12.2277 14.3842C12.2277 14.3842 12.7355 13.7246 13.146 12.5833C13.6437 11.1997 12.5968 10.3684 12.1013 10.0633Z" fill="#69B469"/>
<path d="M11.6587 12.1063H11.2031V12.3341H11.6587V12.1063Z" fill="#F4E08F"/>
<path d="M11.2031 12.5618C11.3289 12.5618 11.4309 12.4598 11.4309 12.334C11.4309 12.2082 11.3289 12.1062 11.2031 12.1062C11.0773 12.1062 10.9753 12.2082 10.9753 12.334C10.9753 12.4598 11.0773 12.5618 11.2031 12.5618Z" fill="#ECD077"/>
<path d="M11.2031 11.0816C11.3289 11.0816 11.4309 10.9796 11.4309 10.8538C11.4309 10.728 11.3289 10.626 11.2031 10.626C11.0773 10.626 10.9753 10.728 10.9753 10.8538C10.9753 10.9796 11.0773 11.0816 11.2031 11.0816Z" fill="#ECD077"/>
<path d="M12.5694 11.0814C12.6953 11.0814 12.7973 10.9794 12.7973 10.8536C12.7973 10.7278 12.6953 10.6258 12.5694 10.6258H11.2028C11.3286 10.6258 11.4306 10.7278 11.4306 10.8536C11.4306 10.9794 11.3286 11.0814 11.2028 11.0814C11.0769 11.0814 10.9749 10.9794 10.9749 10.8536C10.9749 11.236 11.2949 11.6982 11.3981 12.1064C11.3981 12.1064 11.4305 12.2084 11.4305 12.3342C11.4305 12.46 11.3285 12.562 11.2027 12.562H12.5694C12.6952 12.562 12.7972 12.46 12.7972 12.3342C12.7972 11.9519 12.4772 11.4896 12.3741 11.0814H12.5694Z" fill="#FCF0A8"/>
<path d="M11.4306 10.8537C11.4306 10.9795 11.3286 11.0815 11.2027 11.0815H12.5694C12.6952 11.0815 12.7972 10.9795 12.7972 10.8537H11.4306Z" fill="#F4E08F"/>
<path d="M11.4307 12.3343C11.4307 12.4601 11.3287 12.5621 11.2029 12.5621H12.5695C12.6954 12.5621 12.7973 12.4601 12.7973 12.3343H11.4307Z" fill="#F4E08F"/>
</svg>
