<svg xmlns="http://www.w3.org/2000/svg" width="24" height="24" viewBox="0 0 24 24" fill="none"><rect width="24" height="24" fill="none"/>
<path d="M22.2134 4.13808H1.78664C0.798984 4.14389 0 4.94611 0 5.93517V12.0001H24V5.93517C24 4.94611 23.201 4.14389 22.2134 4.13808Z" fill="#F5F5F5"/>
<path d="M0 18.0645C0 19.0572 0.804703 19.8619 1.79742 19.8619H22.2026C23.1952 19.8619 24 19.0572 24 18.0645V12.0002H0V18.0645Z" fill="#82AFFF"/>
<path d="M12.0384 15.3742C11.9684 15.3712 10.3139 15.2866 9.48352 14.1489C8.99958 13.486 8.90302 12.6043 9.1965 11.5283L9.31505 11.5606C9.03202 12.5986 9.12192 13.4447 9.58242 14.076C10.3773 15.1658 12.0271 15.2507 12.0438 15.2514L12.0384 15.3742Z" fill="#B46446"/>
<path d="M9.19536 11.0509C9.11379 11.2634 9.1324 11.4859 9.22686 11.6546C9.40995 11.5925 9.57265 11.4396 9.65426 11.2271C9.73583 11.0146 9.71722 10.7921 9.62276 10.6234C9.43962 10.6856 9.27692 10.8384 9.19536 11.0509Z" fill="#41AA5A"/>
<path d="M10.2317 13.9885C10.1411 14.1379 10.1173 14.3382 10.1845 14.5326C10.2471 14.7143 10.3764 14.8483 10.5262 14.916C10.3806 14.8397 10.1955 14.8206 10.0138 14.8832C9.81941 14.9503 9.67634 15.0924 9.61447 15.2558C9.76386 15.3463 9.96411 15.3701 10.1586 15.303C10.353 15.236 10.4961 15.0938 10.558 14.9304L10.5578 14.9304C10.6476 14.7812 10.6711 14.5817 10.6043 14.3879C10.5372 14.1934 10.3951 14.0504 10.2317 13.9885Z" fill="#41AA5A"/>
<path d="M9.87739 13.4463C9.7377 13.5511 9.64095 13.7281 9.63069 13.9335C9.62108 14.1255 9.69106 14.298 9.80483 14.4166C9.69819 14.2916 9.53352 14.2048 9.3417 14.1952C9.1363 14.1849 8.95053 14.2635 8.83222 14.392C8.93708 14.5317 9.11408 14.6284 9.31944 14.6387C9.5248 14.649 9.71061 14.5704 9.82892 14.4419C9.82887 14.4418 9.82883 14.4418 9.82883 14.4418C9.96772 14.3367 10.0639 14.1604 10.0742 13.9557C10.0845 13.7503 10.0059 13.5646 9.87739 13.4463Z" fill="#41AA5A"/>
<path d="M9.72415 12.8349C9.55521 12.8793 9.39879 13.0067 9.31179 13.193C9.23042 13.3671 9.23013 13.5533 9.29074 13.7061C9.23918 13.55 9.11946 13.4075 8.94537 13.3262C8.75899 13.2391 8.55734 13.2418 8.39932 13.3162C8.44371 13.4851 8.57112 13.6415 8.7574 13.7285C8.94378 13.8156 9.14543 13.8129 9.30345 13.7386C9.30345 13.7386 9.3034 13.7384 9.30335 13.7384C9.47168 13.6936 9.62731 13.5666 9.71403 13.3809C9.80117 13.1947 9.79859 12.993 9.72415 12.8349Z" fill="#41AA5A"/>
<path d="M9.81106 12.2283C9.6372 12.211 9.44623 12.276 9.29975 12.4203C9.16283 12.5552 9.09762 12.7296 9.10123 12.8939C9.10728 12.7297 9.0447 12.5544 8.90984 12.4175C8.76547 12.271 8.57553 12.2032 8.40148 12.2179C8.38419 12.3917 8.44911 12.5827 8.59348 12.7292C8.73786 12.8757 8.92779 12.9435 9.10184 12.9288C9.10184 12.9288 9.10184 12.9287 9.10184 12.9285C9.27523 12.9452 9.46536 12.8804 9.61137 12.7366C9.75795 12.5923 9.82573 12.4023 9.81106 12.2283Z" fill="#41AA5A"/>
<path d="M9.93397 11.6509C9.7654 11.605 9.56632 11.6375 9.39795 11.7556C9.24059 11.866 9.14745 12.0272 9.12383 12.1899C9.15697 12.0289 9.12425 11.8457 9.01395 11.6884C8.89587 11.5201 8.71976 11.4218 8.54562 11.4074C8.49978 11.576 8.53226 11.7751 8.65034 11.9434C8.76842 12.1118 8.94453 12.2101 9.11867 12.2244C9.11867 12.2243 9.11867 12.2243 9.11867 12.2243C9.28686 12.2693 9.48514 12.2369 9.65295 12.1192C9.82133 12.0011 9.91962 11.8249 9.93397 11.6509Z" fill="#41AA5A"/>
<path d="M9.98285 14.9646C10.0536 14.9646 10.1109 14.9073 10.1109 14.8366C10.1109 14.7659 10.0536 14.7086 9.98285 14.7086C9.91215 14.7086 9.85484 14.7659 9.85484 14.8366C9.85484 14.9073 9.91215 14.9646 9.98285 14.9646Z" fill="#FFE15A"/>
<path d="M10.5711 15.0368C10.6418 15.0368 10.6992 14.9795 10.6992 14.9088C10.6992 14.8381 10.6418 14.7808 10.5711 14.7808C10.5004 14.7808 10.4431 14.8381 10.4431 14.9088C10.4431 14.9795 10.5004 15.0368 10.5711 15.0368Z" fill="#FFE15A"/>
<path d="M9.64488 13.9971C9.71558 13.9971 9.7729 13.9398 9.7729 13.8691C9.7729 13.7984 9.71558 13.7411 9.64488 13.7411C9.57418 13.7411 9.51687 13.7984 9.51687 13.8691C9.51687 13.9398 9.57418 13.9971 9.64488 13.9971Z" fill="#FFE15A"/>
<path d="M8.83066 13.0343C8.90136 13.0343 8.95868 12.977 8.95868 12.9063C8.95868 12.8356 8.90136 12.7783 8.83066 12.7783C8.75996 12.7783 8.70264 12.8356 8.70264 12.9063C8.70264 12.977 8.75996 13.0343 8.83066 13.0343Z" fill="#FFE15A"/>
<path d="M9.39926 12.3827C9.46996 12.3827 9.52728 12.3254 9.52728 12.2547C9.52728 12.184 9.46996 12.1267 9.39926 12.1267C9.32856 12.1267 9.27124 12.184 9.27124 12.2547C9.27124 12.3254 9.32856 12.3827 9.39926 12.3827Z" fill="#FFE15A"/>
<path d="M9.18363 11.7143C9.25433 11.7143 9.31165 11.657 9.31165 11.5863C9.31165 11.5156 9.25433 11.4583 9.18363 11.4583C9.11293 11.4583 9.05561 11.5156 9.05561 11.5863C9.05561 11.657 9.11293 11.7143 9.18363 11.7143Z" fill="#FFE15A"/>
<path d="M12.0437 15.3742L12.0383 15.2513C12.0549 15.2507 13.7048 15.1657 14.4997 14.0759C14.9602 13.4447 15.0501 12.5985 14.7671 11.5605L14.8856 11.5282C15.1791 12.6042 15.0825 13.4859 14.5986 14.1488C13.7683 15.2866 12.1138 15.3712 12.0437 15.3742Z" fill="#B46446"/>
<path d="M14.8869 11.0509C14.9685 11.2634 14.9499 11.4859 14.8554 11.6546C14.6723 11.5925 14.5096 11.4396 14.428 11.2271C14.3464 11.0146 14.365 10.7921 14.4595 10.6234C14.6426 10.6856 14.8053 10.8384 14.8869 11.0509Z" fill="#41AA5A"/>
<path d="M13.8505 13.9885C13.9411 14.1379 13.9648 14.3382 13.8977 14.5326C13.8351 14.7143 13.7058 14.8483 13.556 14.916C13.7015 14.8397 13.8866 14.8206 14.0683 14.8832C14.2628 14.9503 14.4058 15.0924 14.4677 15.2558C14.3183 15.3463 14.1181 15.3701 13.9236 15.303C13.7291 15.236 13.5861 15.0938 13.5242 14.9304C13.5242 14.9304 13.5243 14.9304 13.5243 14.9304C13.4347 14.7811 13.4111 14.5816 13.4779 14.3879C13.545 14.1934 13.6871 14.0504 13.8505 13.9885Z" fill="#41AA5A"/>
<path d="M14.2049 13.4463C14.3446 13.5511 14.4413 13.7281 14.4516 13.9335C14.4612 14.1255 14.3912 14.298 14.2774 14.4166C14.3841 14.2916 14.5487 14.2048 14.7406 14.1952C14.946 14.1849 15.1317 14.2635 15.25 14.392C15.1452 14.5317 14.9682 14.6284 14.7628 14.6387C14.5574 14.649 14.3716 14.5704 14.2533 14.4419C14.2533 14.4418 14.2534 14.4418 14.2534 14.4418C14.1145 14.3367 14.0183 14.1604 14.008 13.9557C13.9977 13.7503 14.0763 13.5646 14.2049 13.4463Z" fill="#41AA5A"/>
<path d="M14.3581 12.8349C14.527 12.8793 14.6834 13.0067 14.7704 13.193C14.8518 13.3671 14.8521 13.5533 14.7915 13.7061C14.843 13.55 14.9627 13.4075 15.1368 13.3262C15.3232 13.2391 15.5249 13.2418 15.6829 13.3162C15.6385 13.4851 15.5111 13.6415 15.3248 13.7285C15.1384 13.8156 14.9368 13.8129 14.7788 13.7386C14.7788 13.7386 14.7788 13.7384 14.7789 13.7384C14.6105 13.6936 14.4549 13.5666 14.3682 13.3809C14.281 13.1947 14.2836 12.993 14.3581 12.8349Z" fill="#41AA5A"/>
<path d="M14.2711 12.2283C14.445 12.211 14.636 12.276 14.7825 12.4203C14.9194 12.5552 14.9846 12.7296 14.981 12.8939C14.9749 12.7297 15.0375 12.5544 15.1724 12.4175C15.3167 12.271 15.5067 12.2032 15.6807 12.2179C15.698 12.3917 15.6331 12.5827 15.4887 12.7292C15.3444 12.8757 15.1544 12.9435 14.9804 12.9288C14.9804 12.9288 14.9804 12.9287 14.9804 12.9285C14.807 12.9452 14.6169 12.8804 14.4708 12.7366C14.3243 12.5923 14.2565 12.4023 14.2711 12.2283Z" fill="#41AA5A"/>
<path d="M14.1482 11.6509C14.3168 11.605 14.5159 11.6375 14.6843 11.7556C14.8416 11.866 14.9348 12.0272 14.9584 12.1899C14.9252 12.0289 14.958 11.8457 15.0683 11.6884C15.1863 11.5201 15.3625 11.4218 15.5366 11.4074C15.5824 11.576 15.55 11.7751 15.4319 11.9434C15.3138 12.1118 15.1377 12.2101 14.9635 12.2244C14.9635 12.2243 14.9635 12.2243 14.9635 12.2243C14.7954 12.2693 14.5971 12.2369 14.4293 12.1192C14.2609 12.0011 14.1626 11.8249 14.1482 11.6509Z" fill="#41AA5A"/>
<path d="M14.0995 14.9646C14.1702 14.9646 14.2275 14.9073 14.2275 14.8366C14.2275 14.7659 14.1702 14.7086 14.0995 14.7086C14.0288 14.7086 13.9715 14.7659 13.9715 14.8366C13.9715 14.9073 14.0288 14.9646 14.0995 14.9646Z" fill="#FFE15A"/>
<path d="M13.5103 15.0368C13.581 15.0368 13.6383 14.9795 13.6383 14.9088C13.6383 14.8381 13.581 14.7808 13.5103 14.7808C13.4396 14.7808 13.3823 14.8381 13.3823 14.9088C13.3823 14.9795 13.4396 15.0368 13.5103 15.0368Z" fill="#FFE15A"/>
<path d="M14.437 13.9971C14.5077 13.9971 14.565 13.9398 14.565 13.8691C14.565 13.7984 14.5077 13.7411 14.437 13.7411C14.3663 13.7411 14.309 13.7984 14.309 13.8691C14.309 13.9398 14.3663 13.9971 14.437 13.9971Z" fill="#FFE15A"/>
<path d="M15.2512 13.0343C15.3219 13.0343 15.3792 12.977 15.3792 12.9063C15.3792 12.8356 15.3219 12.7783 15.2512 12.7783C15.1805 12.7783 15.1232 12.8356 15.1232 12.9063C15.1232 12.977 15.1805 13.0343 15.2512 13.0343Z" fill="#FFE15A"/>
<path d="M14.6831 12.3827C14.7538 12.3827 14.8111 12.3254 14.8111 12.2547C14.8111 12.184 14.7538 12.1267 14.6831 12.1267C14.6124 12.1267 14.5551 12.184 14.5551 12.2547C14.5551 12.3254 14.6124 12.3827 14.6831 12.3827Z" fill="#FFE15A"/>
<path d="M14.8987 11.7143C14.9694 11.7143 15.0267 11.657 15.0267 11.5863C15.0267 11.5156 14.9694 11.4583 14.8987 11.4583C14.828 11.4583 14.7707 11.5156 14.7707 11.5863C14.7707 11.657 14.828 11.7143 14.8987 11.7143Z" fill="#FFE15A"/>
<path d="M12.7616 11.074H11.2932C10.8361 11.074 10.4656 11.4445 10.4656 11.9016V13.1951C10.4656 13.6523 10.8361 14.0227 11.2932 14.0227H12.7616C13.2186 14.0227 13.5892 13.6523 13.5892 13.1951V11.9016C13.5892 11.4445 13.2187 11.074 12.7616 11.074Z" fill="#8CD7FF"/>
<path d="M12.2697 12.1999V12.3637H12.1059V12.1999H11.9797V12.3637H11.8159V12.1999H11.7134V12.5275L11.7954 12.6313V13.8383H12.2868V12.6313L12.3687 12.5275V12.1999H12.2697Z" fill="#F5F5F5"/>
<path d="M12.065 11.681C12.146 11.6417 12.1674 11.8074 12.1674 11.8074C12.3381 11.722 12.2935 11.5835 12.2528 11.5172C12.1982 11.4285 11.9797 11.3943 11.8876 11.5787C11.7954 11.7631 12.0446 12.1283 12.0446 12.1283C12.0581 12.0155 11.9591 11.7322 12.065 11.681Z" fill="#F5F5F5"/>
<path d="M13.112 12.5054V12.6692H12.9481V12.5054H12.822V12.6692H12.6581V12.5054H12.5556V12.833L12.6376 12.9368V14.1437H13.1291V12.9368L13.211 12.833V12.5054H13.112Z" fill="#F5F5F5"/>
<path d="M12.9072 11.9865C12.9882 11.9472 13.0096 12.1128 13.0096 12.1128C13.1803 12.0275 13.1357 11.889 13.095 11.8227C13.0404 11.734 12.8219 11.6998 12.7298 11.8842C12.6376 12.0686 12.8868 12.4338 12.8868 12.4338C12.9004 12.3211 12.8014 12.0378 12.9072 11.9865Z" fill="#F5F5F5"/>
<path d="M11.4275 12.5054V12.6692H11.2636V12.5054H11.1375V12.6692H10.9736V12.5054H10.8711V12.833L10.9531 12.9368V14.1437H11.4446V12.9368L11.5265 12.833V12.5054H11.4275Z" fill="#F5F5F5"/>
<path d="M11.2227 11.9865C11.3037 11.9472 11.3251 12.1128 11.3251 12.1128C11.4958 12.0275 11.4513 11.889 11.4105 11.8227C11.3559 11.734 11.1374 11.6998 11.0453 11.8842C10.9531 12.0686 11.2023 12.4338 11.2023 12.4338C11.2159 12.3211 11.1169 12.0378 11.2227 11.9865Z" fill="#F5F5F5"/>
<path d="M13.3853 13.9256C13.2759 13.8715 13.1544 13.8382 13.0241 13.8382C12.8845 13.8382 12.755 13.8764 12.6399 13.9381C12.4904 13.7769 12.2784 13.6744 12.0411 13.6744C11.8037 13.6744 11.5919 13.7769 11.4422 13.9381C11.3271 13.8764 11.1976 13.8382 11.058 13.8382C10.9276 13.8382 10.8061 13.8715 10.6968 13.9256C10.9307 14.3546 11.3786 15.0478 12.0411 15.3128C12.7035 15.0478 13.1514 14.3546 13.3853 13.9256Z" fill="#6EC86E"/>
<path d="M12.0337 8.4349L12.0411 8.43124C12.0411 8.43124 12.0386 8.4319 12.0337 8.4349Z" fill="#FFE15A"/>
<path d="M12.0411 8.43124L12.0485 8.4349C12.0435 8.4319 12.0411 8.43124 12.0411 8.43124Z" fill="#FFE15A"/>
<path d="M13.613 9.13267C13.5669 8.86646 13.2239 8.82034 12.8296 8.79474C12.4354 8.76915 12.2664 8.54387 12.2664 8.54387H11.8158C11.8158 8.54387 11.6468 8.76915 11.2526 8.79474C10.8584 8.82034 10.5153 8.86642 10.4693 9.13267C10.4232 9.39887 10.7611 9.81873 10.7611 9.81873L11.0581 9.57812C11.0581 9.57812 10.6945 9.22998 10.8737 9.10196C11.0506 8.97554 11.5666 9.0631 11.7964 8.75963C11.7867 8.82306 11.79 8.90134 11.8294 8.99781C11.9045 9.18217 11.8772 9.41424 11.8772 9.41424H12.0411H12.2049C12.2049 9.41424 12.1776 9.18212 12.2528 8.99781C12.2921 8.90134 12.2955 8.82301 12.2858 8.75963C12.5156 9.0631 13.0315 8.97554 13.2084 9.10196C13.3876 9.22998 13.0241 9.57812 13.0241 9.57812L13.321 9.81873C13.3211 9.81877 13.659 9.39892 13.613 9.13267Z" fill="#FFE15A"/>
<path d="M12.2084 7.62226H12.123V7.5301C12.123 7.48482 12.0863 7.44817 12.0411 7.44817C11.9958 7.44817 11.9591 7.48482 11.9591 7.5301V7.62226H11.8703C11.8251 7.62226 11.7884 7.65892 11.7884 7.7042C11.7884 7.74948 11.8251 7.78613 11.8703 7.78613H11.9591V8.02163C11.9591 8.06692 11.9958 8.10357 12.0411 8.10357C12.0863 8.10357 12.123 8.06692 12.123 8.02163V7.78613H12.2084C12.2536 7.78613 12.2903 7.74948 12.2903 7.7042C12.2903 7.65892 12.2536 7.62226 12.2084 7.62226Z" fill="#FFE15A"/>
<path d="M12.0408 8.26763C12.1313 8.26763 12.2047 8.19426 12.2047 8.10376C12.2047 8.01325 12.1313 7.93988 12.0408 7.93988C11.9503 7.93988 11.8769 8.01325 11.8769 8.10376C11.8769 8.19426 11.9503 8.26763 12.0408 8.26763Z" fill="#FFF0E1"/>
<path d="M10.8669 11.4011C10.9329 11.434 11.01 11.4625 11.0887 11.4625C11.3602 11.4625 11.4932 11.309 11.4932 11.0376C11.4932 10.7661 11.3295 10.5614 11.058 10.5614C11.058 10.5614 11.0274 10.5619 10.9784 10.5694C10.9679 10.5711 10.9574 10.5727 10.9471 10.5751C10.6861 10.6248 10.0412 10.8653 9.91115 12.036C9.72933 13.6725 11.058 15.1489 12.0411 15.4766V15.3127C12.0411 15.3128 9.72 13.5379 10.8669 11.4011Z" fill="#FFC75A"/>
<path d="M11.058 10.7252L12.0411 11.053L11.058 11.3806V10.7252Z" fill="#FFC75A"/>
<path d="M13.0241 11.3805L12.041 11.0528L13.0241 10.7251V11.3805Z" fill="#FFE15A"/>
<path d="M10.074 12.0541C10.1913 10.9976 10.7451 10.7804 10.9836 10.7348C10.9888 10.7336 10.9942 10.7328 11.0032 10.7313C11.0332 10.7267 11.0538 10.7255 11.0603 10.7252C11.2399 10.7264 11.3584 10.8617 11.3584 11.0256C11.3584 11.2062 11.2525 11.2747 11.1468 11.2781C11.1468 11.2781 11.2321 11.1006 11.058 11.0529C10.9405 11.0206 10.7918 11.1143 10.8054 11.2849C10.815 11.4049 10.9289 11.5204 11.058 11.5204C11.3295 11.5204 11.5495 11.3243 11.5495 11.0528C11.5495 10.7814 11.3295 10.5613 11.058 10.5613C11.058 10.5613 11.0274 10.5618 10.9784 10.5693C10.9678 10.571 10.9574 10.5726 10.947 10.5749C10.6861 10.6247 10.0412 10.8651 9.91111 12.0358C9.72928 13.6723 11.058 15.1488 12.0411 15.4765V15.3126C12.0411 15.3126 11.6929 15.1385 11.4549 14.9694C10.7195 14.4471 9.9412 13.249 10.074 12.0541Z" fill="#FFE15A"/>
<path d="M13.2153 11.4011C13.1493 11.434 13.0722 11.4625 12.9934 11.4625C12.722 11.4625 12.5889 11.309 12.5889 11.0376C12.5889 10.7661 12.7527 10.5614 13.0241 10.5614C13.0241 10.5614 13.0547 10.5619 13.1038 10.5694C13.1143 10.5711 13.1248 10.5727 13.1351 10.5751C13.396 10.6248 14.0409 10.8653 14.171 12.036C14.3528 13.6725 13.0241 15.1489 12.0411 15.4766V15.3127C12.0411 15.3128 14.3621 13.5379 13.2153 11.4011Z" fill="#FFC75A"/>
<path d="M13.0241 10.7252L12.0411 11.053L13.0241 11.3806V10.7252Z" fill="#FFC75A"/>
<path d="M14.0081 12.0539C13.8907 10.9975 13.337 10.7802 13.0984 10.7346C13.0932 10.7335 13.0879 10.7327 13.0789 10.7312C13.0489 10.7266 13.0282 10.7253 13.0217 10.7251C12.8421 10.7263 12.7237 10.8616 12.7237 11.0254C12.7237 11.2061 12.8295 11.2746 12.9353 11.278C12.9353 11.278 12.8499 11.1005 13.024 11.0527C13.1415 11.0204 13.2902 11.1142 13.2766 11.2848C13.267 11.4048 13.1531 11.5203 13.024 11.5203C12.7526 11.5203 12.5325 11.3241 12.5325 11.0527C12.5325 10.7812 12.7526 10.5611 13.024 10.5611C13.024 10.5611 13.0546 10.5617 13.1037 10.5692C13.1142 10.5708 13.1247 10.5724 13.135 10.5748C13.3959 10.6246 14.0408 10.865 14.1709 12.0357C14.3528 13.6722 13.024 15.1487 12.041 15.4763V15.3124C12.041 15.3124 12.3891 15.1383 12.6271 14.9693C13.3626 14.447 14.1409 13.2488 14.0081 12.0539Z" fill="#FFE15A"/>
<path d="M12.0407 11.2169C12.1312 11.2169 12.2046 11.1435 12.2046 11.053C12.2046 10.9625 12.1312 10.8891 12.0407 10.8891C11.9502 10.8891 11.8769 10.9625 11.8769 11.053C11.8769 11.1435 11.9502 11.2169 12.0407 11.2169Z" fill="#FFE15A"/>
<path d="M13.211 9.73707C13.2545 9.62443 13.1956 9.4734 13.1956 9.4734C13.0446 9.46829 12.9396 9.57835 12.9396 9.57835C12.9524 9.4427 12.8935 9.31979 12.8935 9.31979C12.6989 9.34281 12.635 9.45807 12.635 9.45807C12.6247 9.24559 12.4967 9.15854 12.4967 9.15854C12.3277 9.20973 12.2766 9.39404 12.2766 9.39404C12.251 9.18413 12.0411 9.08687 12.0411 9.08687C12.0411 9.08687 11.8312 9.18418 11.8056 9.39404C11.8056 9.39404 11.7544 9.20968 11.5854 9.15854C11.5854 9.15854 11.4574 9.24559 11.4472 9.45807C11.4472 9.45807 11.3832 9.3429 11.1886 9.31979C11.1886 9.31979 11.1297 9.4427 11.1425 9.57835C11.1425 9.57835 11.0376 9.46829 10.8865 9.4734C10.8865 9.4734 10.8277 9.62443 10.8712 9.73707C10.8712 9.73707 10.6996 9.68335 10.5588 9.7652C10.5588 9.7652 10.8169 9.86504 10.9029 9.9879H13.1792C13.2652 9.86499 13.5233 9.7652 13.5233 9.7652C13.3825 9.68335 13.211 9.73707 13.211 9.73707Z" fill="#FFC75A"/>
<path d="M13.1792 9.98794C13.1792 10.0616 13.007 10.2895 13.007 10.2895C13.007 10.2895 12.4485 10.3673 12.0411 10.3673C11.631 10.3673 11.0713 10.2874 11.0713 10.2874C11.0713 10.2874 10.9029 10.0607 10.9029 9.98785C10.9029 9.77832 11.4125 9.60844 12.041 9.60844C12.6696 9.60849 13.1792 9.77841 13.1792 9.98794Z" fill="#FFE15A"/>
<path d="M12.0409 10.5614C12.584 10.5614 13.0242 10.4147 13.0242 10.2338C13.0242 10.0528 12.584 9.90613 12.0409 9.90613C11.4978 9.90613 11.0576 10.0528 11.0576 10.2338C11.0576 10.4147 11.4978 10.5614 12.0409 10.5614Z" fill="#FFC75A"/>
<path d="M12.2818 8.41611C12.2818 8.30858 12.2016 8.17203 12.0412 8.26761C11.8807 8.17203 11.8006 8.30858 11.8006 8.41611C11.8006 8.52364 11.6777 8.53901 11.6623 8.52875C11.6623 8.52875 11.7647 8.66187 11.8824 8.57483C11.8824 8.57483 11.9456 8.66698 12.0411 8.66698C12.1367 8.66698 12.1999 8.57483 12.1999 8.57483C12.3177 8.66187 12.42 8.52875 12.42 8.52875C12.4047 8.53901 12.2818 8.52364 12.2818 8.41611Z" fill="#FFC75A"/>
<path d="M11.7134 16.3571C11.7042 16.3571 11.6948 16.355 11.686 16.3505C11.6556 16.3355 11.6433 16.2986 11.6585 16.2681L11.9861 15.6128C12.0013 15.5827 12.0382 15.5701 12.0686 15.5854C12.099 15.6004 12.1113 15.6374 12.0961 15.6678L11.7684 16.3232C11.7576 16.3447 11.7359 16.3571 11.7134 16.3571Z" fill="#B46446"/>
<path d="M12.3689 16.3571C12.3464 16.3571 12.3247 16.3446 12.3139 16.3232L11.9862 15.6678C11.971 15.6374 11.9833 15.6005 12.0138 15.5854C12.044 15.5699 12.0809 15.5825 12.0962 15.6128L12.4238 16.2681C12.439 16.2986 12.4267 16.3355 12.3963 16.3505C12.3874 16.355 12.3781 16.3571 12.3689 16.3571Z" fill="#B46446"/>
<path d="M13.5157 15.784C12.5446 16.0011 11.5376 16.0011 10.5665 15.784C10.5665 15.6202 10.5665 15.3135 10.5665 15.1497C11.5376 15.3668 12.5446 15.3668 13.5157 15.1497C13.5157 15.3135 13.5157 15.6202 13.5157 15.784Z" fill="#F5F5F5"/>
<path d="M11.3789 15.5452C10.7519 15.6662 10.1093 15.6993 9.46983 15.6396C9.48061 15.7241 9.98626 15.9752 9.98626 15.9752C9.98626 15.9752 9.5401 16.1908 9.55004 16.2689C10.1621 16.3261 10.7774 16.2988 11.3789 16.1903V15.5452V15.5452Z" fill="#F5F5F5"/>
<path d="M12.7057 15.5452C13.3328 15.6662 13.9754 15.6993 14.6148 15.6396C14.604 15.7241 14.0984 15.9752 14.0984 15.9752C14.0984 15.9752 14.5445 16.1908 14.5346 16.2689C13.9225 16.3261 13.3073 16.2988 12.7057 16.1903V15.5452V15.5452Z" fill="#F5F5F5"/>
</svg>
