<svg xmlns="http://www.w3.org/2000/svg" width="24" height="24" viewBox="0 0 24 24" fill="none"><rect width="24" height="24" fill="none"/>
<path d="M0 18.0646C0 19.0573 0.804703 19.8621 1.79742 19.8621H22.2026C23.1952 19.8621 24 19.0574 24 18.0646V17.7931H0V18.0646Z" fill="#41479B"/>
<path d="M22.2026 4.13794H1.79742C0.804703 4.13794 0 4.94264 0 5.93536V6.20691H24V5.93536C24 4.94264 23.1953 4.13794 22.2026 4.13794Z" fill="#41479B"/>
<path d="M24 6.20673H0V7.0343H24V6.20673Z" fill="#F5F5F5"/>
<path d="M24 16.9654H0V17.793H24V16.9654Z" fill="#F5F5F5"/>
<path d="M24 7.03455H0V16.9655H24V7.03455Z" fill="#FF4B55"/>
<path d="M6.62062 15.3103C8.44885 15.3103 9.93093 13.8282 9.93093 12C9.93093 10.1718 8.44885 8.68969 6.62062 8.68969C4.79238 8.68969 3.3103 10.1718 3.3103 12C3.3103 13.8282 4.79238 15.3103 6.62062 15.3103Z" fill="#F5F5F5"/>
<path d="M6.70884 8.98618L7.37291 10.9773L9.47184 10.9936C9.56113 10.9943 9.59816 11.1083 9.52631 11.1613L7.83782 12.4082L8.47091 14.4094C8.49787 14.4945 8.40093 14.5649 8.32832 14.513L6.62071 13.2924L4.9131 14.513C4.84049 14.5649 4.74356 14.4945 4.77051 14.4093L5.40365 12.4081L3.71516 11.1613C3.64331 11.1083 3.68034 10.9943 3.76963 10.9936L5.86856 10.9773L6.53263 8.98613C6.56081 8.90148 6.68057 8.90148 6.70884 8.98618Z" fill="#FF4B55"/>
</svg>
