<svg xmlns="http://www.w3.org/2000/svg" width="24" height="24" viewBox="0 0 24 24" fill="none"><rect width="24" height="24" fill="none"/>
<path d="M22.2134 4.13806H1.78664C0.798984 4.14387 0 4.94609 0 5.93516V9.37944H24V5.93516C24 4.94609 23.201 4.14387 22.2134 4.13806Z" fill="#73AF00"/>
<path d="M0 18.0645C0 19.0572 0.804703 19.8619 1.79742 19.8619H22.2026C23.1952 19.8619 24 19.0572 24 18.0645V14.6208H0V18.0645Z" fill="#FF4B55"/>
<path d="M24 9.3797H0V14.6208H24V9.3797Z" fill="#F5F5F5"/>
<path d="M0.601453 19.4059L6.62067 14.6279L6.62053 9.37226L0.601125 4.59406C0.232406 4.92326 0 5.40199 0 5.93515V18.0645C0 18.5979 0.2325 19.0767 0.601453 19.4059Z" fill="#464655"/>
</svg>
