<svg xmlns="http://www.w3.org/2000/svg" width="24" height="24" viewBox="0 0 24 24" fill="none"><rect width="24" height="24" fill="none"/>
<path d="M22.2026 19.8625H1.79742C0.804703 19.8625 0 19.0578 0 18.0651V5.93585C0 4.94318 0.804703 4.13843 1.79742 4.13843H22.2026C23.1952 4.13843 24 4.94313 24 5.93585V18.0651C24 19.0578 23.1953 19.8625 22.2026 19.8625Z" fill="#FF4B55"/>
<path d="M0.413813 11.9995H11.5862C11.8148 11.9995 12 11.8143 12 11.5857V4.55126C12 4.32275 11.8148 4.13745 11.5862 4.13745H1.79742C0.804703 4.1375 0 4.9422 0 5.93492V11.5858C0 11.8143 0.185297 11.9995 0.413813 11.9995Z" fill="#41479B"/>
<path d="M4.51877 8.06872C4.51877 7.65987 4.68443 7.28975 4.95227 7.02176L3.7113 6.66678C3.63926 6.6462 3.58765 6.73564 3.64146 6.78772L4.5701 7.68561L3.31694 7.99892C3.24429 8.01706 3.24429 8.12037 3.31694 8.13856L4.5701 8.45187L3.64146 9.34976C3.5876 9.40184 3.63926 9.49128 3.7113 9.4707L4.95227 9.11572C4.68443 8.84768 4.51877 8.47756 4.51877 8.06872Z" fill="#F5F5F5"/>
<path d="M4.95291 7.0211C5.2209 6.75326 5.59102 6.58761 5.99986 6.58761C6.40871 6.58761 6.77883 6.75326 7.04682 7.0211L7.4018 5.78014C7.42238 5.70809 7.33294 5.65648 7.28086 5.71029L6.38297 6.63889L6.06966 5.38573C6.05152 5.31307 5.94821 5.31307 5.93002 5.38573L5.61671 6.63889L4.71882 5.71029C4.66674 5.65643 4.57726 5.70809 4.59788 5.78014L4.95291 7.0211Z" fill="#F5F5F5"/>
<path d="M7.04685 9.11627C6.77887 9.38412 6.40874 9.54977 5.9999 9.54977C5.59105 9.54977 5.22093 9.38412 4.95294 9.11627L4.59796 10.3573C4.57738 10.4293 4.66682 10.4809 4.7189 10.4271L5.61679 9.49854L5.9301 10.7517C5.94824 10.8243 6.05155 10.8243 6.06974 10.7517L6.38305 9.49854L7.28094 10.4271C7.33302 10.481 7.42246 10.4293 7.40188 10.3573L7.04685 9.11627Z" fill="#F5F5F5"/>
<path d="M8.68283 7.9988L7.42967 7.68548L8.35827 6.78759C8.41213 6.73552 8.36047 6.64608 8.28842 6.66666L7.04745 7.02164C7.3153 7.28967 7.48095 7.65975 7.48095 8.06859C7.48095 8.47744 7.3153 8.84756 7.04745 9.11555L8.28842 9.47053C8.36047 9.49111 8.41208 9.40167 8.35827 9.34959L7.42967 8.4517L8.68283 8.13839C8.75553 8.12034 8.75553 8.01708 8.68283 7.9988Z" fill="#F5F5F5"/>
<path d="M5.99987 9.24815C6.65122 9.24815 7.17925 8.72013 7.17925 8.06878C7.17925 7.41743 6.65122 6.8894 5.99987 6.8894C5.34852 6.8894 4.8205 7.41743 4.8205 8.06878C4.8205 8.72013 5.34852 9.24815 5.99987 9.24815Z" fill="#F5F5F5"/>
</svg>
