<svg xmlns="http://www.w3.org/2000/svg" width="24" height="24" viewBox="0 0 24 24" fill="none"><rect width="24" height="24" fill="none"/>
<path d="M22.2026 4.138H1.79743C0.930896 4.138 0.207708 4.75131 0.0378799 5.56745H23.9622C23.7923 4.75127 23.0691 4.138 22.2026 4.138Z" fill="#FF4B55"/>
<path d="M0.037875 5.56744C0.013125 5.68623 0 5.80927 0 5.93541V6.9969H24V5.93541C24 5.80932 23.9869 5.68627 23.9621 5.56744H0.037875Z" fill="#F5F5F5"/>
<path d="M24 6.99652H0V8.42597H24V6.99652Z" fill="#FF4B55"/>
<path d="M24 8.42621H0V9.85566H24V8.42621Z" fill="#F5F5F5"/>
<path d="M0 10.7586H0.413719L0.413813 11.2853H24V9.85583H0V10.7586Z" fill="#FF4B55"/>
<path d="M0.413719 10.7586H0V10.8715V12.7147H24V11.2853H0.413813L0.413719 10.7586Z" fill="#F5F5F5"/>
<path d="M24 12.7148H0V14.1443H24V12.7148Z" fill="#FF4B55"/>
<path d="M24 14.144H0V15.5735H24V14.144Z" fill="#F5F5F5"/>
<path d="M24 15.5737H0V17.0032H24V15.5737Z" fill="#FF4B55"/>
<path d="M0 18.0647C0 18.1908 0.013125 18.3138 0.0378281 18.4326H23.9622C23.9869 18.3138 24 18.1908 24 18.0647V17.0032H0V18.0647Z" fill="#F5F5F5"/>
<path d="M1.79705 19.862H22.203C23.0694 19.8619 23.7924 19.2486 23.9622 18.4326H0.0378265C0.207608 19.2486 0.930608 19.8619 1.79705 19.862Z" fill="#FF4B55"/>
<path d="M0.413813 11.2853H6.62072C6.84923 11.2853 7.03453 11.1 7.03453 10.8715V4.55175C7.03453 4.32328 6.84937 4.13808 6.62095 4.13794H1.79742C0.804703 4.13799 0 4.94269 0 5.93541V10.8715C0 11.1 0.185297 11.2853 0.413813 11.2853Z" fill="#41479B"/>
<path d="M3.39901 5.98764L3.00394 7.17218L1.75529 7.18183C1.63557 7.18277 1.58588 7.33553 1.68221 7.40669L2.68669 8.14849L2.31005 9.33902C2.27396 9.45316 2.40394 9.54761 2.50135 9.478L3.51732 8.75196L4.53319 9.47805C4.6306 9.54766 4.76058 9.45321 4.72449 9.33907L4.34785 8.14853L5.35233 7.40674C5.44866 7.33563 5.39897 7.18277 5.27926 7.18188L4.0306 7.17222L3.63554 5.98769C3.59757 5.87407 3.43693 5.87407 3.39901 5.98764Z" fill="#F5F5F5"/>
</svg>
