<svg xmlns="http://www.w3.org/2000/svg" width="24" height="24" viewBox="0 0 24 24" fill="none"><rect width="24" height="24" fill="none"/>
<path d="M22.2026 4.13794H1.79743C0.804705 4.13794 0 4.94264 0 5.93532V18.0646C0 19.0573 0.804705 19.862 1.79743 19.862H22.2026C23.1952 19.862 24 19.0573 24 18.0646V5.93532C24 4.94264 23.1952 4.13794 22.2026 4.13794Z" fill="#FF4B55"/>
<path d="M14.3187 12.1303C14.2138 12.04 14.0947 11.9743 13.9752 11.9263C14.6507 11.7931 15.1938 11.2224 15.1938 11.2224C14.8655 11.3664 14.7129 11.3956 14.1902 11.2238C14.0588 11.1806 13.9236 11.1654 13.7949 11.1668C14.3679 10.7852 14.6514 10.0502 14.6514 10.0502C14.4032 10.3089 14.2733 10.3943 13.7247 10.4356C13.5867 10.446 13.456 10.4837 13.3375 10.5343C13.721 9.96252 13.7016 9.17483 13.7016 9.17483C13.5713 9.50887 13.484 9.63744 12.993 9.88546C12.8694 9.9479 12.7631 10.0328 12.673 10.1248C12.8084 9.4498 12.4891 8.72961 12.4891 8.72961C12.4965 9.08807 12.465 9.24027 12.1064 9.65741C12.0161 9.76237 11.9504 9.88143 11.9023 10.0009C11.7691 9.32549 11.1984 8.7823 11.1984 8.7823C11.3425 9.11066 11.3716 9.26329 11.1999 9.7859C11.1567 9.91738 11.1415 10.0525 11.1429 10.1813C10.7613 9.60829 10.0263 9.32479 10.0263 9.32479C10.285 9.57299 10.3704 9.70288 10.4117 10.2514C10.4221 10.3895 10.4598 10.5201 10.5103 10.6386C9.93844 10.2552 9.15089 10.2746 9.15089 10.2746C9.48493 10.4049 9.6135 10.4922 9.86152 10.9832C9.92396 11.1067 10.0088 11.213 10.1009 11.3032C9.42586 11.1677 8.70563 11.4871 8.70563 11.4871C9.06413 11.4796 9.21628 11.5111 9.63343 11.8698C9.73838 11.9601 9.85744 12.0257 9.97693 12.0738C9.3015 12.207 8.75831 12.7777 8.75831 12.7777C9.08667 12.6337 9.2393 12.6045 9.76191 12.7762C9.89344 12.8195 10.0286 12.8347 10.1573 12.8333C9.58435 13.2148 9.3008 13.9499 9.3008 13.9499C9.549 13.6912 9.67889 13.6058 10.2274 13.5645C10.3655 13.5541 10.4961 13.5164 10.6146 13.4659C10.2312 14.0377 10.2506 14.8253 10.2506 14.8253C10.3809 14.4912 10.4682 14.3627 10.9592 14.1146C11.0828 14.0522 11.189 13.9673 11.2792 13.8753C11.1437 14.5503 11.4631 15.2705 11.4631 15.2705C11.4556 14.912 11.4871 14.7599 11.8458 14.3427C11.9361 14.2378 12.0018 14.1187 12.0498 13.9992C12.183 14.6746 12.7537 15.2178 12.7537 15.2178C12.6097 14.8895 12.5805 14.7368 12.7523 14.2142C12.7955 14.0827 12.8107 13.9476 12.8093 13.8188C13.1909 14.3918 13.9259 14.6753 13.9259 14.6753C13.6672 14.4271 13.5818 14.2972 13.5405 13.7487C13.5301 13.6107 13.4924 13.48 13.4419 13.3616C14.0136 13.745 14.8013 13.7256 14.8013 13.7256C14.4672 13.5952 14.3387 13.508 14.0906 13.017C14.0282 12.8934 13.9433 12.7871 13.8513 12.697C14.5263 12.8324 15.2465 12.513 15.2465 12.513C14.888 12.5204 14.7358 12.489 14.3187 12.1303Z" fill="#FFE15A"/>
<path d="M13.6597 12.3302L15.3103 12L13.6597 11.6699L15.0584 10.7332L13.407 11.0598L14.3408 9.65921L12.9402 10.593L13.2669 8.94165L12.3302 10.3403L12 8.6897L11.6699 10.3404L10.7333 8.9417L11.0599 10.5931L9.65931 9.65926L10.5931 11.0599L8.94174 10.7333L10.3404 11.6699L8.6897 12L10.3404 12.3302L8.94165 13.2668L10.593 12.9401L9.65921 14.3408L11.0598 13.407L10.7332 15.0583L11.6698 13.6597L12 15.3103L12.3302 13.6597L13.2668 15.0583L12.9401 13.407L14.3408 14.3408L13.407 12.9401L15.0583 13.2668L13.6597 12.3302Z" fill="#FFD25A"/>
<path d="M12 13.6552C12.9141 13.6552 13.6552 12.9141 13.6552 12C13.6552 11.0859 12.9141 10.3448 12 10.3448C11.0859 10.3448 10.3448 11.0859 10.3448 12C10.3448 12.9141 11.0859 13.6552 12 13.6552Z" fill="#FFE15A"/>
<path d="M4.79368 16.9653C5.99415 16.9653 5.99415 17.3791 7.19467 17.3791C8.39603 17.3791 8.39603 16.9653 9.5973 16.9653C10.7986 16.9653 10.7987 17.3791 11.9999 17.3791C13.1986 17.3791 13.1986 16.9653 14.3973 16.9653C15.5966 16.9653 15.5966 17.3791 16.7958 17.3791C17.9956 17.3791 17.9956 16.9653 19.1954 16.9653C20.3952 16.9653 20.3952 17.3791 21.5949 17.3791C22.7947 17.3791 22.7947 16.9653 23.9946 16.9653C23.9965 16.9653 23.9981 16.9654 24 16.9654V15.724C23.9981 15.724 23.9965 15.7239 23.9946 15.7239C22.7947 15.7239 22.7947 16.1378 21.5949 16.1378C20.3952 16.1378 20.3952 15.7239 19.1954 15.7239C17.9956 15.7239 17.9956 16.1378 16.7958 16.1378C15.5965 16.1378 15.5965 15.7239 14.3973 15.7239C13.1986 15.7239 13.1986 16.1378 11.9999 16.1378C10.7986 16.1378 10.7986 15.7239 9.5973 15.7239C8.39603 15.7239 8.39594 16.1378 7.19467 16.1378C5.99415 16.1378 5.99415 15.7239 4.79368 15.7239C3.59424 15.7239 3.59424 16.1378 2.39475 16.1378C1.19658 16.1378 1.19433 15.7254 0 15.7241V16.9655C1.19438 16.9668 1.19658 17.3791 2.39475 17.3791C3.59424 17.3791 3.59424 16.9653 4.79368 16.9653Z" fill="#41479B"/>
<path d="M0 14.4829C1.19438 14.4842 1.19658 14.8965 2.39475 14.8965C3.59424 14.8965 3.59424 14.4827 4.79368 14.4827C5.99415 14.4827 5.99415 14.8965 7.19467 14.8965C8.39603 14.8965 8.39603 14.4827 9.5973 14.4827C10.7986 14.4827 10.7987 14.8965 11.9999 14.8965C13.1986 14.8965 13.1986 14.4827 14.3973 14.4827C15.5966 14.4827 15.5966 14.8965 16.7958 14.8965C17.9956 14.8965 17.9956 14.4827 19.1954 14.4827C20.3952 14.4827 20.3952 14.8965 21.5949 14.8965C22.7947 14.8965 22.7947 14.4827 23.9946 14.4827C23.9965 14.4827 23.9981 14.4828 24 14.4828V13.2414C23.9981 13.2414 23.9965 13.2413 23.9946 13.2413C22.7947 13.2413 22.7947 13.6551 21.5949 13.6551C20.3952 13.6551 20.3952 13.2413 19.1954 13.2413C17.9956 13.2413 17.9956 13.6551 16.7958 13.6551C15.5965 13.6551 15.5965 13.2413 14.3973 13.2413C13.1986 13.2413 13.1986 13.6551 11.9999 13.6551C10.7986 13.6551 10.7986 13.2413 9.5973 13.2413C8.39603 13.2413 8.39594 13.6551 7.19467 13.6551C5.99415 13.6551 5.99415 13.2413 4.79368 13.2413C3.59424 13.2413 3.59424 13.6551 2.39475 13.6551C1.19658 13.6551 1.19433 13.2427 0 13.2414L0 14.4829Z" fill="#41479B"/>
<path d="M0 18.2066C1.19438 18.2079 1.19658 18.6202 2.39475 18.6202C3.59424 18.6202 3.59424 18.2064 4.79368 18.2064C5.99415 18.2064 5.99415 18.6202 7.19467 18.6202C8.39603 18.6202 8.39603 18.2064 9.5973 18.2064C10.7986 18.2064 10.7987 18.6202 11.9999 18.6202C13.1986 18.6202 13.1986 18.2064 14.3973 18.2064C15.5966 18.2064 15.5966 18.6202 16.7958 18.6202C17.9956 18.6202 17.9956 18.2064 19.1954 18.2064C20.3952 18.2064 20.3952 18.6202 21.5949 18.6202C22.7947 18.6202 22.7947 18.2064 23.9946 18.2064C23.9965 18.2064 23.9981 18.2065 24 18.2065V16.9651C23.9981 16.9651 23.9965 16.965 23.9946 16.965C22.7947 16.965 22.7947 17.3788 21.5949 17.3788C20.3952 17.3788 20.3952 16.965 19.1954 16.965C17.9956 16.965 17.9956 17.3788 16.7958 17.3788C15.5965 17.3788 15.5965 16.965 14.3973 16.965C13.1986 16.965 13.1986 17.3788 11.9999 17.3788C10.7986 17.3788 10.7986 16.965 9.5973 16.965C8.39603 16.965 8.39594 17.3788 7.19467 17.3788C5.99415 17.3788 5.99415 16.965 4.79368 16.965C3.59424 16.965 3.59424 17.3788 2.39475 17.3788C1.19658 17.3788 1.19433 16.9665 0 16.9652L0 18.2066Z" fill="#F5F5F5"/>
<path d="M0 15.7239C1.19438 15.7252 1.19658 16.1375 2.39475 16.1375C3.59424 16.1375 3.59424 15.7237 4.79368 15.7237C5.99415 15.7237 5.99415 16.1375 7.19467 16.1375C8.39603 16.1375 8.39603 15.7237 9.5973 15.7237C10.7986 15.7237 10.7987 16.1375 11.9999 16.1375C13.1986 16.1375 13.1986 15.7237 14.3973 15.7237C15.5966 15.7237 15.5966 16.1375 16.7958 16.1375C17.9956 16.1375 17.9956 15.7237 19.1954 15.7237C20.3952 15.7237 20.3952 16.1375 21.5949 16.1375C22.7947 16.1375 22.7947 15.7237 23.9946 15.7237C23.9965 15.7237 23.9981 15.7238 24 15.7238V14.4824C23.9981 14.4824 23.9965 14.4823 23.9946 14.4823C22.7947 14.4823 22.7947 14.8961 21.5949 14.8961C20.3952 14.8961 20.3952 14.4823 19.1954 14.4823C17.9956 14.4823 17.9956 14.8961 16.7958 14.8961C15.5965 14.8961 15.5965 14.4823 14.3973 14.4823C13.1986 14.4823 13.1986 14.8961 11.9999 14.8961C10.7986 14.8961 10.7986 14.4823 9.5973 14.4823C8.39603 14.4823 8.39594 14.8961 7.19467 14.8961C5.99415 14.8961 5.99415 14.4823 4.79368 14.4823C3.59424 14.4823 3.59424 14.8961 2.39475 14.8961C1.19658 14.8961 1.19433 14.4838 0 14.4824L0 15.7239Z" fill="#F5F5F5"/>
<path d="M0 13.2414C1.19438 13.2427 1.19658 13.655 2.39475 13.655C3.59424 13.655 3.59424 13.2412 4.79368 13.2412C5.99415 13.2412 5.99415 13.655 7.19467 13.655C8.39603 13.655 8.39603 13.2412 9.5973 13.2412C10.7986 13.2412 10.7987 13.655 11.9999 13.655C13.1986 13.655 13.1986 13.2412 14.3973 13.2412C15.5966 13.2412 15.5966 13.655 16.7958 13.655C17.9956 13.655 17.9956 13.2412 19.1954 13.2412C20.3952 13.2412 20.3952 13.655 21.5949 13.655C22.7947 13.655 22.7947 13.2412 23.9946 13.2412C23.9965 13.2412 23.9981 13.2413 24 13.2413V12C23.9981 12 23.9965 11.9999 23.9946 11.9999C22.7947 11.9999 22.7947 12.4137 21.5949 12.4137C20.3952 12.4137 20.3952 11.9999 19.1954 11.9999C17.9956 11.9999 17.9956 12.4137 16.7958 12.4137C15.5965 12.4137 15.5965 11.9999 14.3973 11.9999C13.1986 11.9999 13.1986 12.4137 11.9999 12.4137C10.7986 12.4137 10.7986 11.9999 9.5973 11.9999C8.39603 11.9999 8.39594 12.4137 7.19467 12.4137C5.99415 12.4137 5.99415 11.9999 4.79368 11.9999C3.59424 11.9999 3.59424 12.4137 2.39475 12.4137C1.19658 12.4137 1.19433 12.0013 0 12L0 13.2414Z" fill="#F5F5F5"/>
<path d="M21.595 18.6207C20.3952 18.6207 20.3952 18.2068 19.1954 18.2068C17.9956 18.2068 17.9956 18.6207 16.7959 18.6207C15.5966 18.6207 15.5966 18.2068 14.3973 18.2068C13.1987 18.2068 13.1987 18.6207 12 18.6207C10.7987 18.6207 10.7987 18.2068 9.59738 18.2068C8.39602 18.2068 8.39602 18.6207 7.19476 18.6207C5.99424 18.6207 5.99424 18.2068 4.79377 18.2068C3.59428 18.2068 3.59428 18.6207 2.39484 18.6207C1.19877 18.6207 1.19427 18.2098 0.00622559 18.2071C0.0788351 19.1331 0.852743 19.8621 1.79742 19.8621H22.2026C23.1473 19.8621 23.9212 19.133 23.9939 18.2069C22.7948 18.207 22.7945 18.6207 21.595 18.6207Z" fill="#41479B"/>
<path d="M12.8616 6.33576C14.8738 6.25795 15.8966 5.3797 15.8966 5.3797C15.752 5.43525 13.4953 5.62425 12.8505 5.67984C12.4433 5.7149 11.9353 6.1792 11.6154 6.51726C11.5292 6.28317 11.3608 6.04036 11.0273 5.99114C10.3491 5.89111 8.54814 5.77997 8.10349 5.56865C8.10349 5.56865 8.3905 6.01233 9.87391 6.21347C10.5846 6.30984 10.9765 6.55359 11.1631 6.71953L10.9939 6.71372C10.9939 6.71372 10.9939 6.71372 10.7049 6.56916C10.4159 6.42464 10.1268 6.66919 10.1268 6.66919H9.66639C9.60874 6.66919 9.57583 6.73505 9.61043 6.78112L9.65472 6.84019C9.69991 6.90052 9.77093 6.936 9.8463 6.936H10.3158C10.4825 7.22503 11.1162 7.52522 11.6387 7.52522C12.1612 7.52522 13.7621 6.81375 13.9177 6.81375L12.4696 6.7642L12.8616 6.33576Z" fill="#FFE15A"/>
</svg>
