<svg xmlns="http://www.w3.org/2000/svg" width="24" height="24" viewBox="0 0 24 24" fill="none"><rect width="24" height="24" fill="none"/>
<path d="M22.2026 4.13788H1.79742C0.804703 4.13788 0 4.94258 0 5.9353V18.0647C0 19.0573 0.804703 19.8621 1.79742 19.8621H22.2026C23.1952 19.8621 24 19.0574 24 18.0647V5.9353C24 4.94258 23.1953 4.13788 22.2026 4.13788Z" fill="#FF4B55"/>
<path d="M11.8817 10.5825L12.5303 11.431L13.5431 11.092C13.5997 11.073 13.6479 11.1371 13.614 11.1862L13.0075 12.0652L13.6429 12.9237C13.6784 12.9717 13.6324 13.0373 13.5752 13.0202L12.5517 12.715L11.9316 13.5846C11.897 13.6332 11.8203 13.6097 11.8189 13.55L11.7929 12.4823L10.7743 12.1613C10.7173 12.1433 10.7159 12.0632 10.7723 12.0434L11.7797 11.6887L11.7702 10.6208C11.7696 10.5611 11.8454 10.5351 11.8817 10.5825Z" fill="#F5F5F5"/>
<path d="M8.29481 15.3122C6.46692 15.3122 4.98417 13.8294 4.98417 11.9998C4.98417 10.1737 6.46696 8.68756 8.29481 8.68756C8.97487 8.68756 9.60201 8.89672 10.1247 9.25072C10.2047 9.30491 10.2961 9.19977 10.2291 9.13011C9.44803 8.318 8.34248 7.82258 7.1167 7.86439C5.01079 7.93625 3.26742 9.62469 3.13284 11.7275C2.97871 14.1361 4.88587 16.1378 7.26037 16.1378C8.43004 16.1378 9.48126 15.6488 10.2319 14.867C10.2982 14.7979 10.2067 14.6944 10.1274 14.7481C9.60421 15.1028 8.97604 15.3122 8.29481 15.3122Z" fill="#F5F5F5"/>
</svg>
