<svg xmlns="http://www.w3.org/2000/svg" width="24" height="24" viewBox="0 0 24 24" fill="none"><rect width="24" height="24" fill="none"/>
<path d="M8.68965 9.37918H0V11.1262H8.68965V9.37918Z" fill="#F5F5F5"/>
<path d="M8.68961 5.88509H23.9986C23.9719 4.91572 23.1783 4.13797 22.2025 4.13797H1.79741C0.8047 4.13792 0 4.94267 0 5.93534V7.63221H8.68961V5.88509Z" fill="#F5F5F5"/>
<path d="M1.79741 19.862H22.2025C23.1783 19.862 23.9719 19.0842 23.9986 18.1149H0.00131226C0.027984 19.0842 0.821575 19.862 1.79741 19.862Z" fill="#F5F5F5"/>
<path d="M8.68961 5.88509V7.63221H23.9999V5.93534C23.9999 5.91846 23.9991 5.90182 23.9986 5.88504L8.68961 5.88509Z" fill="#4173CD"/>
<path d="M0 7.6322V9.37927H8.68961H23.9999V7.6322H8.68961H0Z" fill="#F5F5F5"/>
<path d="M23.9999 9.37918H8.68965V11.1262H23.9999V9.37918Z" fill="#4173CD"/>
<path d="M0 11.1264V12.8736H23.9999V11.1264H8.68961H0Z" fill="#F5F5F5"/>
<path d="M23.9999 12.8737H0V14.6207H23.9999V12.8737Z" fill="#4173CD"/>
<path d="M23.9999 14.6207H0V16.3678H23.9999V14.6207Z" fill="#F5F5F5"/>
<path d="M0 18.0646C0 18.0815 0.000843747 18.0982 0.00131249 18.1149H23.9987C23.9992 18.0982 24 18.0815 24 18.0646V16.3678H0V18.0646Z" fill="#4173CD"/>
<path d="M2.99886 5.23326L3.69106 8.43631L4.7742 7.98767L2.99886 5.23326Z" fill="#FFE15A"/>
<path d="M2.99886 5.23326L4.23261 8.21197L3.69106 8.43631L2.99886 5.23326Z" fill="#FFCD5A"/>
<path d="M5.69079 11.7323L4.99854 8.52921L3.91541 8.97784L5.69079 11.7323Z" fill="#FFE15A"/>
<path d="M5.69079 11.7323L4.457 8.75355L4.99855 8.52921L5.69079 11.7323Z" fill="#FFCD5A"/>
<path d="M7.59433 7.1368L4.39128 7.82904L4.83992 8.91218L7.59433 7.1368Z" fill="#FFE15A"/>
<path d="M7.59433 7.1368L4.61558 8.37059L4.39128 7.82904L7.59433 7.1368Z" fill="#FFCD5A"/>
<path d="M1.09532 9.82878L4.29837 9.13653L3.84969 8.05334L1.09532 9.82878Z" fill="#FFE15A"/>
<path d="M1.09532 9.82876L4.07403 8.59492L4.29837 9.13652L1.09532 9.82876Z" fill="#FFCD5A"/>
<path d="M5.69079 5.23326L3.91541 7.98767L4.99854 8.43631L5.69079 5.23326Z" fill="#FFE15A"/>
<path d="M5.69079 5.23326L4.457 8.21197L3.91541 7.98767L5.69079 5.23326Z" fill="#FFCD5A"/>
<path d="M2.99886 11.7323L4.7742 8.97784L3.69106 8.52921L2.99886 11.7323Z" fill="#FFE15A"/>
<path d="M2.99886 11.7323L4.23261 8.75356L4.7742 8.97785L2.99886 11.7323Z" fill="#FFCD5A"/>
<path d="M7.59433 9.82878L4.83992 8.05334L4.39128 9.13653L7.59433 9.82878Z" fill="#FFE15A"/>
<path d="M7.59434 9.82878L4.61559 8.59494L4.83993 8.05334L7.59434 9.82878Z" fill="#FFCD5A"/>
<path d="M1.09532 7.1368L3.84969 8.91218L4.29837 7.82904L1.09532 7.1368Z" fill="#FFE15A"/>
<path d="M1.09532 7.1368L4.07403 8.37059L3.84969 8.91218L1.09532 7.1368Z" fill="#FFCD5A"/>
<path d="M4.34484 4.96556L3.75862 8.18966H4.93101L4.34484 4.96556Z" fill="#FFE15A"/>
<path d="M4.34484 4.96556V8.18966H3.75862L4.34484 4.96556Z" fill="#FFCD5A"/>
<path d="M4.34484 12L4.93101 8.77585H3.75862L4.34484 12Z" fill="#FFE15A"/>
<path d="M4.34482 12V8.77585H4.93099L4.34482 12Z" fill="#FFCD5A"/>
<path d="M7.86204 8.48276L4.63794 7.89659V9.06893L7.86204 8.48276Z" fill="#FFE15A"/>
<path d="M7.86204 8.48276H4.63794V7.89659L7.86204 8.48276Z" fill="#FFCD5A"/>
<path d="M0.827576 8.48276L4.05167 9.06893V7.89659L0.827576 8.48276Z" fill="#FFE15A"/>
<path d="M0.827576 8.48274H4.05167V9.06891L0.827576 8.48274Z" fill="#FFCD5A"/>
<path d="M6.83186 5.99573L4.13754 7.86102L4.96657 8.69005L6.83186 5.99573Z" fill="#FFE15A"/>
<path d="M6.83186 5.99573L4.55206 8.27553L4.13754 7.86102L6.83186 5.99573Z" fill="#FFCD5A"/>
<path d="M1.8578 10.9698L4.55207 9.10454L3.72304 8.27551L1.8578 10.9698Z" fill="#FFE15A"/>
<path d="M1.8578 10.9698L4.13755 8.69005L4.55207 9.10456L1.8578 10.9698Z" fill="#FFCD5A"/>
<path d="M6.83186 10.9698L4.96657 8.27551L4.13754 9.10454L6.83186 10.9698Z" fill="#FFE15A"/>
<path d="M6.83187 10.9698L4.55206 8.69003L4.96658 8.27551L6.83187 10.9698Z" fill="#FFCD5A"/>
<path d="M1.8578 5.99573L3.72304 8.69005L4.55207 7.86102L1.8578 5.99573Z" fill="#FFE15A"/>
<path d="M1.8578 5.99573L4.13755 8.27553L3.72304 8.69005L1.8578 5.99573Z" fill="#FFCD5A"/>
<path d="M4.34482 9.65529C4.99229 9.65529 5.51716 9.13041 5.51716 8.48295C5.51716 7.83548 4.99229 7.31061 4.34482 7.31061C3.69736 7.31061 3.17249 7.83548 3.17249 8.48295C3.17249 9.13041 3.69736 9.65529 4.34482 9.65529Z" fill="#FFE15A"/>
</svg>
