<svg xmlns="http://www.w3.org/2000/svg" width="24" height="24" viewBox="0 0 24 24" fill="none"><rect width="24" height="24" fill="none"/>
<path d="M22.2026 19.8621H1.79742C0.804703 19.8621 0 19.0574 0 18.0646V5.93536C0 4.94269 0.804703 4.13794 1.79742 4.13794H22.2026C23.1952 4.13794 24 4.94264 24 5.93536V18.0647C24 19.0574 23.1953 19.8621 22.2026 19.8621Z" fill="#FF4B55"/>
<path d="M12.0593 12.0177L11.9447 12.0838C11.7461 11.7979 11.757 11.0985 11.757 11.0906C11.7591 11.0698 11.7466 11.0511 11.728 11.0429L10.8689 10.6669L10.8738 10.5787C11.3218 10.6304 11.8397 10.8388 11.8469 10.8424C11.8645 10.8535 11.8868 10.8507 11.9025 10.8377L12.6154 10.2433L12.7688 10.3805C12.5466 10.6535 12.0058 11.0306 11.9988 11.0345C11.9796 11.0428 11.9693 11.0626 11.9712 11.083L12.0593 12.0177Z" fill="#FFE15A"/>
<path d="M15.1764 7.78291C15.1939 7.79186 15.2149 7.79013 15.2308 7.77841L15.4171 7.6405L15.3579 7.81244C15.3513 7.83199 15.357 7.85383 15.3724 7.86799L15.4601 7.94636C15.434 7.99038 15.4237 8.04452 15.4227 8.101L15.2927 8.167C15.2817 8.17263 15.273 8.182 15.2682 8.19344L15.1713 8.42814L15.1182 8.23352C15.1113 8.20788 15.087 8.19222 15.0612 8.19574L14.8273 8.22771L15.0172 8.01264C15.0273 8.00111 15.0318 7.98574 15.0296 7.97069L14.9872 7.68667L15.1764 7.78291Z" fill="#FFE15A"/>
<path d="M13.0575 15.4472C13.0412 15.4581 13.0325 15.4773 13.035 15.4969L13.0652 15.7266L12.9436 15.5914C12.9297 15.5761 12.9079 15.5705 12.888 15.5771L12.7769 15.6157C12.7511 15.5716 12.7087 15.5363 12.6598 15.508L12.6652 15.3624C12.6657 15.35 12.6617 15.3379 12.654 15.3282L12.4959 15.1295L12.6918 15.1775C12.7175 15.184 12.7431 15.1702 12.7525 15.146L12.838 14.926L12.9339 15.1963C12.9391 15.2108 12.9503 15.2222 12.9646 15.2275L13.2335 15.3284L13.0575 15.4472Z" fill="#FFE15A"/>
<path d="M7.36812 10.0591C7.36564 10.0396 7.35228 10.0232 7.33367 10.0167L7.11462 9.94109L7.28994 9.89271C7.30981 9.88713 7.32458 9.87007 7.32753 9.84935L7.34258 9.73273C7.39358 9.72935 7.44411 9.70723 7.49126 9.67615L7.61919 9.74609C7.63006 9.75199 7.64267 9.75387 7.65481 9.75129L7.90325 9.6986L7.77275 9.85244C7.75545 9.87255 7.75634 9.90152 7.77383 9.92079L7.93245 10.0957L7.64773 10.0607C7.63245 10.0588 7.61731 10.0638 7.60611 10.0742L7.39573 10.2696L7.36812 10.0591Z" fill="#FFE15A"/>
<path d="M11.925 17.0925C11.7985 17.3476 11.5248 17.5591 11.4563 17.5716C11.4439 17.5737 11.4335 17.5695 11.4232 17.5591C11.3921 17.5238 11.3776 17.4285 11.4191 17.302C11.4232 17.2895 11.4274 17.273 11.4336 17.2543L11.925 17.0925Z" fill="#F5F5F5"/>
<path d="M12.0163 16.8291C11.9997 16.8789 11.9851 16.9286 11.9748 16.966L11.4688 17.134C11.4833 17.0884 11.4978 17.0386 11.5123 16.9846L12.0163 16.8291Z" fill="#F5F5F5"/>
<path d="M12.1282 16.545C12.1033 16.6011 12.0805 16.655 12.0597 16.7068L11.5454 16.8644C11.5599 16.8084 11.5765 16.7504 11.591 16.6923L12.1282 16.545Z" fill="#FFE15A"/>
<path d="M12.2299 16.3397C12.2153 16.3666 12.2008 16.3936 12.1863 16.4226L11.6201 16.5761C11.645 16.4787 11.6658 16.3832 11.6824 16.3003L12.2299 16.3397Z" fill="#F5F5F5"/>
<path d="M12.3895 16.124C12.3564 16.1551 12.3252 16.1945 12.2941 16.2401L11.6989 16.1965C11.7072 16.1426 11.7134 16.0949 11.7134 16.0597C11.7134 16.0327 11.7114 16.0078 11.7093 15.9808C11.7321 15.9829 11.757 15.9829 11.7777 15.9829C11.9271 15.9829 12.0328 15.9559 12.1096 15.9165C12.1946 16.041 12.3045 16.097 12.3895 16.124Z" fill="#F5F5F5"/>
<path d="M12.5098 16.0389C12.4725 16.0348 12.3066 16.0182 12.1946 15.8564C12.2506 15.8088 12.2775 15.7569 12.29 15.7216C12.3522 15.5474 11.9188 15.2758 11.6533 15.1306C11.5288 15.0621 11.4314 14.9274 11.3443 14.7718C11.3547 14.7739 11.363 14.7739 11.3733 14.7739C11.506 14.7739 11.6118 14.7117 11.6678 14.6639C11.7176 14.7469 11.7632 14.8236 11.8047 14.89C11.9934 15.2094 12.0805 15.3545 12.2817 15.4955C12.2878 15.4997 12.2961 15.5038 12.3045 15.5038C12.4019 15.5163 12.684 15.5785 12.7006 15.7029C12.7235 15.873 12.6612 15.9808 12.5098 16.0389Z" fill="#F5F5F5"/>
<path d="M12.1925 15.6864C12.1697 15.7528 12.0743 15.9021 11.6968 15.8773C11.6636 15.6616 11.5683 15.5081 11.4168 15.4376C11.2198 15.3443 10.4836 14.8176 10.1477 14.5043C10.214 14.2928 10.3882 14.1207 10.635 14.0294C10.6703 14.0149 10.7014 14.0024 10.7283 13.9879C10.7947 14.0419 10.8549 14.102 10.9046 14.1704C10.9814 14.2783 11.0478 14.4151 11.1183 14.5603C11.2489 14.8258 11.3837 15.1016 11.6036 15.2219C12.01 15.4459 12.2111 15.6388 12.1925 15.6864Z" fill="#F5F5F5"/>
<path d="M11.6118 14.5748C11.5724 14.6142 11.4418 14.7034 11.2842 14.6578C11.2593 14.6101 11.2365 14.5624 11.2116 14.5147C11.1391 14.3654 11.0706 14.2244 10.9877 14.1103C10.94 14.0419 10.8798 13.9817 10.8155 13.9278C10.9089 13.8469 10.9234 13.7598 10.9275 13.6852C11.0913 13.8262 11.2449 14.0025 11.3859 14.2202C11.4749 14.355 11.5475 14.4711 11.6118 14.5748Z" fill="#F5F5F5"/>
<path d="M10.83 13.6083C10.8279 13.6249 10.8258 13.6436 10.8258 13.6623C10.8217 13.7328 10.8155 13.8013 10.7325 13.8634C10.5583 13.739 10.3571 13.654 10.185 13.598C10.2639 13.5171 10.3157 13.4362 10.3405 13.3574C10.3405 13.3574 10.3405 13.3574 10.3426 13.3574C10.5126 13.405 10.6765 13.4901 10.83 13.6083Z" fill="#F5F5F5"/>
<path d="M10.6309 13.9174C10.6205 13.9215 10.6122 13.9278 10.5998 13.9319C10.3405 14.0273 10.1497 14.2036 10.0647 14.4213C9.96311 14.3197 9.89055 14.2285 9.83242 14.1559C9.76811 14.0729 9.71425 14.0086 9.64783 13.963C9.83444 13.8676 9.98378 13.7722 10.0979 13.6789C10.0999 13.6789 10.0999 13.6789 10.102 13.6789C10.2638 13.7287 10.4608 13.8033 10.6309 13.9174Z" fill="#F5F5F5"/>
<path d="M10.0004 13.6228C9.89257 13.7079 9.74121 13.8032 9.52755 13.9069C9.47777 13.8945 9.42804 13.8841 9.38655 13.8759C9.28493 13.8572 9.21855 13.8427 9.16671 13.7846C9.13558 13.7514 9.07544 13.6581 9.01736 13.5399C9.02571 13.544 9.03396 13.5482 9.04226 13.5503C9.1024 13.5648 9.18738 13.5378 9.29318 13.5005C9.42382 13.4569 9.58352 13.403 9.72869 13.4216C9.85933 13.4382 9.89463 13.4901 9.93607 13.5482C9.95482 13.573 9.97347 13.6 10.0004 13.6228Z" fill="#F5F5F5"/>
<path d="M10.2472 13.312C10.2306 13.3763 10.185 13.4571 10.0812 13.5546C10.0563 13.538 10.0397 13.5152 10.0211 13.4882C9.97547 13.4239 9.91739 13.343 9.74316 13.3202C9.57516 13.2974 9.40097 13.3555 9.25997 13.4032C9.18113 13.4301 9.09816 13.4592 9.06502 13.4508C9.02972 13.4425 8.98411 13.3865 8.98205 13.3305C8.97999 13.2662 9.03806 13.2372 9.08574 13.2227C9.19359 13.1895 9.32424 13.2144 9.45281 13.2372C9.58345 13.2621 9.70791 13.2849 9.80742 13.2455C9.87586 13.2185 9.9547 13.1335 10.05 13.0111C10.1164 13.0256 10.1724 13.0485 10.2056 13.0961C10.2534 13.1647 10.2659 13.2373 10.2472 13.312Z" fill="#FFE15A"/>
<path d="M9.9299 12.9968C9.86558 13.0757 9.80957 13.1337 9.76818 13.1503C9.69768 13.1793 9.58776 13.1586 9.4716 13.1358C9.3389 13.1109 9.18749 13.0839 9.0568 13.1233C8.97796 13.1461 8.93446 13.1855 8.90952 13.2228C8.88669 13.1088 8.88669 12.9988 8.93854 12.9117C8.99038 12.8205 9.05882 12.7437 9.12937 12.6671C9.22269 12.6795 9.29108 12.6982 9.52752 12.9056C9.60843 12.9761 9.73907 12.9844 9.86559 12.9906C9.8863 12.9926 9.90913 12.9948 9.9299 12.9968Z" fill="#F5F5F5"/>
<path d="M11.8565 12.1403C11.6242 12.2937 10.5894 12.974 10.3737 13.0632C10.3633 13.0673 10.355 13.0756 10.3488 13.0839C10.3426 13.0942 10.3384 13.1025 10.3322 13.1129C10.3218 13.0859 10.3073 13.061 10.2907 13.0362C10.2492 12.9761 10.187 12.9429 10.1186 12.9222C10.1497 12.8827 10.1808 12.8412 10.214 12.7956C10.3633 12.5903 10.5354 12.3601 10.7324 12.1548C11.0705 11.8023 11.5226 11.57 11.674 11.4995C11.6968 11.7193 11.7466 11.9786 11.8565 12.1403Z" fill="#F5F5F5"/>
<path d="M11.6636 11.3896C11.5557 11.4372 11.0435 11.6799 10.6578 12.0822C10.4546 12.2938 10.2741 12.5364 10.131 12.7334C10.0874 12.7915 10.046 12.8475 10.0065 12.8994C9.96092 12.8952 9.91531 12.8911 9.87172 12.889C9.75767 12.8807 9.64981 12.8745 9.59586 12.8268C9.39678 12.6526 9.3034 12.6008 9.21425 12.5779C9.22259 12.5696 9.22878 12.5613 9.23708 12.553C9.36772 12.4203 9.50459 12.2814 9.61245 12.0885C9.79906 11.7546 10.4233 11.0266 10.8298 10.7633L11.6532 11.1242C11.6532 11.1739 11.6554 11.2714 11.6636 11.3896Z" fill="#F5F5F5"/>
<path d="M6.40252 8.31077C6.23086 8.08362 6.16397 7.7442 6.18342 7.6774C6.18712 7.66535 6.19547 7.6579 6.20939 7.65331C6.25486 7.64126 6.34669 7.67088 6.44133 7.76449C6.45061 7.77377 6.46355 7.78488 6.47747 7.79881L6.40252 8.31077Z" fill="#F5F5F5"/>
<path d="M6.59736 8.51023C6.56028 8.47315 6.52222 8.4379 6.49344 8.41193L6.56933 7.88422C6.60369 7.91759 6.6417 7.95279 6.68342 7.98987L6.59736 8.51023Z" fill="#F5F5F5"/>
<path d="M6.80147 8.73733C6.76247 8.69004 6.72446 8.64555 6.68738 8.60383L6.77625 8.0733C6.81985 8.11132 6.86438 8.15215 6.90985 8.19101L6.80147 8.73733Z" fill="#FFE15A"/>
<path d="M6.93968 8.91995C6.92206 8.89492 6.90439 8.86989 6.88498 8.84392L7.00067 8.26886C7.07674 8.33467 7.15282 8.39584 7.21962 8.44778L6.93968 8.91995Z" fill="#F5F5F5"/>
<path d="M7.06133 9.15918C7.04834 9.11558 7.02697 9.07016 7.00002 9.02197L7.30494 8.50897C7.34947 8.54047 7.38936 8.56738 7.42091 8.58313C7.445 8.59518 7.46825 8.60446 7.49328 8.61463C7.48123 8.63413 7.47012 8.65635 7.46084 8.67496C7.39414 8.80855 7.37094 8.91524 7.37192 9.00149C7.22262 9.02188 7.12344 9.09519 7.06133 9.15918Z" fill="#F5F5F5"/>
<path d="M7.08364 9.30482C7.10403 9.27327 7.193 9.13227 7.38776 9.10438C7.40539 9.17582 7.43975 9.22307 7.46571 9.24998C7.59373 9.38348 8.03051 9.11713 8.279 8.94454C8.39585 8.86382 8.55996 8.83687 8.73804 8.82843C8.73157 8.83677 8.72787 8.84423 8.72318 8.85346C8.66384 8.97215 8.67228 9.09459 8.6899 9.16602C8.59343 9.17348 8.50442 9.17999 8.42651 9.18745C8.05648 9.21356 7.88764 9.22659 7.67159 9.34354C7.66507 9.34724 7.65767 9.35282 7.65401 9.36023C7.59935 9.44184 7.41762 9.66637 7.29889 9.62563C7.13661 9.57004 7.06793 9.46621 7.08364 9.30482Z" fill="#F5F5F5"/>
<path d="M7.54085 9.1785C7.49168 9.12844 7.40074 8.97638 7.59166 8.64985C7.79946 8.7165 7.97932 8.69977 8.1101 8.59585C8.28162 8.46132 9.08191 8.03804 9.51213 7.87744C9.6717 8.03133 9.74782 8.26411 9.71918 8.52563C9.71646 8.56364 9.71365 8.59707 9.71459 8.62763C9.63668 8.66293 9.55601 8.68983 9.47252 8.70375C9.34174 8.72419 9.18963 8.72241 9.02824 8.72063C8.73237 8.71885 8.42538 8.71622 8.21956 8.85914C7.83757 9.12277 7.57512 9.21652 7.54085 9.1785Z" fill="#F5F5F5"/>
<path d="M8.79476 9.15578C8.77714 9.1029 8.75572 8.9462 8.86695 8.82559C8.92076 8.82461 8.97359 8.82554 9.0274 8.82461C9.19343 8.82643 9.35018 8.82817 9.48931 8.80497C9.57186 8.79287 9.65248 8.76597 9.7295 8.73254C9.76015 8.85217 9.83159 8.90406 9.89651 8.94114C9.69711 9.02467 9.47089 9.08322 9.21303 9.11204C9.05257 9.13159 8.91626 9.14462 8.79476 9.15578Z" fill="#F5F5F5"/>
<path d="M10.0087 8.88819C9.99476 8.87891 9.97901 8.86873 9.96227 8.86034C9.90105 8.82514 9.8426 8.78895 9.82399 8.68695C10.0131 8.58673 10.1791 8.44475 10.3061 8.3158C10.3433 8.42244 10.3925 8.50494 10.4518 8.56245C10.4518 8.56245 10.4518 8.56245 10.4509 8.56433C10.3323 8.69516 10.183 8.80372 10.0087 8.88819Z" fill="#F5F5F5"/>
<path d="M9.82127 8.57205C9.82221 8.56094 9.82033 8.55073 9.82221 8.53774C9.85273 8.26319 9.78026 8.01373 9.62341 7.84033C9.75977 7.79482 9.87382 7.77068 9.96471 7.75118C10.0676 7.73074 10.1493 7.71124 10.2197 7.67224C10.2217 7.88182 10.2402 8.05807 10.2728 8.20179C10.2718 8.20366 10.2718 8.20366 10.2709 8.20549C10.1541 8.32802 9.9993 8.4709 9.82127 8.57205Z" fill="#F5F5F5"/>
<path d="M10.3664 8.13958C10.3385 8.0051 10.3209 7.82707 10.3235 7.5896C10.3569 7.55065 10.3885 7.51071 10.4144 7.47738C10.4765 7.39483 10.5191 7.34191 10.5942 7.32147C10.6378 7.30849 10.7482 7.2964 10.8799 7.29729C10.8725 7.30287 10.865 7.3084 10.8595 7.31491C10.8196 7.36226 10.8058 7.45033 10.7919 7.56162C10.7725 7.69797 10.7494 7.86494 10.6678 7.98644C10.5946 8.0959 10.5324 8.10429 10.4619 8.11544C10.4314 8.12102 10.3989 8.12566 10.3664 8.13958Z" fill="#F5F5F5"/>
<path d="M10.5345 8.49935C10.4844 8.4558 10.4324 8.37883 10.3915 8.24247C10.4175 8.22761 10.4454 8.22297 10.4777 8.21833C10.5556 8.20624 10.6539 8.19044 10.7522 8.0448C10.8477 7.90474 10.8736 7.72291 10.8939 7.57544C10.905 7.49289 10.9161 7.40566 10.9383 7.37974C10.9615 7.35189 11.032 7.3361 11.083 7.35925C11.1414 7.38616 11.1414 7.45108 11.1331 7.50021C11.1146 7.61153 11.034 7.71728 10.9561 7.8221C10.8754 7.92789 10.7994 8.029 10.7902 8.13564C10.7837 8.20896 10.8246 8.31742 10.8914 8.45744C10.8488 8.51031 10.8033 8.55025 10.7458 8.5586C10.6634 8.57069 10.5929 8.54941 10.5345 8.49935Z" fill="#FFE15A"/>
<path d="M10.9582 8.35688C10.9164 8.26416 10.8896 8.18808 10.8932 8.14355C10.8988 8.06747 10.9664 7.97846 11.0387 7.88471C11.1203 7.77713 11.2121 7.6537 11.2352 7.51922C11.25 7.43855 11.2342 7.38192 11.2119 7.34302C11.3242 7.37358 11.4225 7.4227 11.4772 7.50802C11.5357 7.59516 11.5738 7.69069 11.6109 7.78805C11.558 7.866 11.5108 7.91888 11.2196 8.03766C11.1204 8.07853 11.0545 8.19169 10.9925 8.30208C10.9814 8.31975 10.9694 8.33925 10.9582 8.35688Z" fill="#F5F5F5"/>
<path d="M10.8635 10.4632C10.83 10.1868 10.6839 8.95704 10.7005 8.72426C10.7014 8.71315 10.6977 8.70204 10.693 8.69271C10.6865 8.68254 10.681 8.67513 10.6745 8.66486C10.7033 8.66768 10.732 8.6658 10.7617 8.66205C10.834 8.65183 10.8915 8.61101 10.9406 8.55902C10.962 8.60449 10.9852 8.65085 11.0112 8.70091C11.1281 8.92624 11.2571 9.18307 11.3527 9.4511C11.5171 9.91108 11.5228 10.4193 11.5183 10.5862C11.3152 10.5416 11.0799 10.4914 10.8635 10.4632Z" fill="#F5F5F5"/>
<path d="M11.6213 10.6261C11.6268 10.5083 11.6387 9.94162 11.4511 9.41671C11.3527 9.14034 11.2163 8.87053 11.104 8.65443C11.0715 8.58951 11.04 8.5274 11.0112 8.46895C11.0353 8.42999 11.0594 8.39099 11.0807 8.35298C11.1391 8.25463 11.1928 8.16093 11.2596 8.13403C11.5044 8.03381 11.5925 7.97343 11.6527 7.90387C11.6565 7.91498 11.6611 7.92426 11.6648 7.93542C11.7252 8.11157 11.7883 8.29612 11.9126 8.47884C12.128 8.79501 12.5002 9.67874 12.5542 10.1601L11.8635 10.7354C11.8189 10.7132 11.7307 10.6715 11.6213 10.6261Z" fill="#F5F5F5"/>
<path d="M17.1646 7.97544C17.4491 7.96227 17.7668 8.09895 17.811 8.15277C17.8189 8.16266 17.8203 8.17372 17.8162 8.18783C17.8005 8.23217 17.7241 8.29114 17.5934 8.31627C17.5805 8.3187 17.5639 8.32311 17.5447 8.32672L17.1646 7.97544Z" fill="#F5F5F5"/>
<path d="M16.8901 8.02349C16.9417 8.01388 16.9922 8.00239 17.0299 7.99335L17.4224 8.35428C17.3755 8.36375 17.3249 8.37519 17.2707 8.38869L16.8901 8.02349Z" fill="#F5F5F5"/>
<path d="M16.5874 8.06303C16.6484 8.05759 16.7066 8.0514 16.762 8.04437L17.1494 8.41754C17.0934 8.43203 17.0346 8.44567 16.9768 8.46118L16.5874 8.06303Z" fill="#FFE15A"/>
<path d="M16.3585 8.07357C16.3891 8.07315 16.4197 8.07277 16.4522 8.07141L16.8611 8.49193C16.7638 8.51747 16.6703 8.54565 16.5898 8.57138L16.3585 8.07357Z" fill="#F5F5F5"/>
<path d="M16.0925 8.03864C16.1358 8.05256 16.1853 8.06062 16.2403 8.06568L16.4912 8.60723C16.44 8.62617 16.3952 8.64384 16.3644 8.66095C16.3409 8.67403 16.3201 8.6879 16.2976 8.70281C16.2883 8.68185 16.2762 8.6601 16.2661 8.64196C16.1937 8.51142 16.1188 8.43201 16.0471 8.38406C16.1146 8.24934 16.1102 8.12606 16.0925 8.03864Z" fill="#F5F5F5"/>
<path d="M15.9597 7.97474C15.9742 8.00938 16.0402 8.16252 15.9532 8.33891C15.8843 8.31308 15.8259 8.31473 15.789 8.32091C15.6065 8.35105 15.5793 8.8619 15.5812 9.16443C15.5818 9.30641 15.5112 9.45707 15.4175 9.60876C15.4143 9.59868 15.4103 9.59141 15.4052 9.58237C15.3408 9.46635 15.2351 9.40401 15.1662 9.37823C15.2146 9.29441 15.2596 9.2173 15.2974 9.14882C15.4851 8.8288 15.5698 8.68223 15.5954 8.43787C15.596 8.43041 15.5956 8.42118 15.5916 8.41391C15.5552 8.32269 15.4727 8.04585 15.5734 7.97094C15.711 7.86843 15.8355 7.87058 15.9597 7.97474Z" fill="#F5F5F5"/>
<path d="M15.8055 8.42324C15.8746 8.41096 16.0514 8.42188 16.2129 8.76402C16.0404 8.89771 15.9525 9.05558 15.9643 9.22217C15.9783 9.43972 15.8751 10.3391 15.7643 10.7848C15.5472 10.8294 15.3121 10.7607 15.1125 10.5892C15.0827 10.5654 15.0567 10.5442 15.0309 10.5277C15.0459 10.4435 15.0693 10.3618 15.105 10.2851C15.162 10.1656 15.2495 10.0412 15.3421 9.90908C15.5108 9.66603 15.6866 9.41427 15.6851 9.16367C15.6837 8.69957 15.7547 8.43008 15.8055 8.42324Z" fill="#F5F5F5"/>
<path d="M15.1154 9.47046C15.169 9.48579 15.3104 9.55676 15.347 9.71665C15.3173 9.76155 15.2867 9.80463 15.2571 9.84958C15.1617 9.98552 15.0716 10.1138 15.0122 10.2417C14.9755 10.3166 14.9521 10.3983 14.9362 10.4808C14.8201 10.4384 14.737 10.468 14.6697 10.5006C14.7135 10.2889 14.7931 10.0692 14.9151 9.84021C14.9896 9.69682 15.0559 9.57701 15.1154 9.47046Z" fill="#F5F5F5"/>
<path d="M14.6498 10.6231C14.6654 10.6168 14.6827 10.6096 14.699 10.6005C14.7626 10.57 14.8255 10.5421 14.9201 10.5845C14.8958 10.7972 14.9191 11.0144 14.9537 11.192C14.8448 11.1624 14.7489 11.1563 14.6679 11.1728C14.6679 11.1728 14.6679 11.1728 14.6669 11.171C14.6261 10.9991 14.621 10.8146 14.6498 10.6231Z" fill="#F5F5F5"/>
<path d="M15.0166 10.6472C15.0253 10.6542 15.0347 10.6585 15.0444 10.6673C15.2536 10.8477 15.5004 10.9289 15.7321 10.8976C15.6925 11.0357 15.648 11.1436 15.6127 11.2295C15.5713 11.326 15.5413 11.4044 15.5336 11.4845C15.3596 11.3676 15.2038 11.2834 15.0668 11.229C15.0658 11.2271 15.0658 11.2271 15.0648 11.2254C15.0298 11.0597 14.9994 10.8512 15.0166 10.6472Z" fill="#F5F5F5"/>
<path d="M15.0651 11.3414C15.1918 11.3944 15.3487 11.4804 15.543 11.6169C15.5563 11.6664 15.5714 11.715 15.5842 11.7553C15.6172 11.8532 15.6367 11.9183 15.6111 11.9918C15.5972 12.0351 15.5448 12.1329 15.4696 12.2411C15.4692 12.2319 15.4688 12.2226 15.4666 12.2143C15.4501 12.1547 15.3853 12.0934 15.3013 12.0191C15.1998 11.926 15.0751 11.8126 15.021 11.6765C14.9721 11.5542 15.0003 11.4982 15.0309 11.4338C15.0438 11.4054 15.0582 11.376 15.0651 11.3414Z" fill="#F5F5F5"/>
<path d="M14.6734 11.2768C14.7376 11.2602 14.8305 11.2608 14.9661 11.3042C14.9636 11.334 14.9517 11.3596 14.9372 11.389C14.9031 11.46 14.8606 11.5501 14.9252 11.7135C14.9867 11.8715 15.1221 11.9955 15.2322 12.0957C15.294 12.1515 15.3597 12.21 15.3686 12.243C15.3785 12.2779 15.3516 12.3449 15.3037 12.374C15.2485 12.407 15.1949 12.3703 15.159 12.3356C15.0777 12.2574 15.036 12.1311 14.9936 12.0076C14.952 11.8813 14.9115 11.7615 14.8287 11.6936C14.7719 11.6468 14.6593 11.6192 14.5061 11.5951C14.4865 11.5301 14.4794 11.4701 14.505 11.4178C14.5416 11.3428 14.599 11.2967 14.6734 11.2768Z" fill="#FFE15A"/>
<path d="M14.5518 11.7068C14.6518 11.7247 14.7298 11.7455 14.7644 11.7737C14.824 11.8213 14.8593 11.9274 14.8956 12.0401C14.9383 12.1682 14.9882 12.3136 15.086 12.4087C15.1442 12.4666 15.1999 12.4855 15.2445 12.4892C15.1559 12.5645 15.0598 12.6178 14.9584 12.6148C14.8535 12.6137 14.7532 12.5911 14.6519 12.5667C14.6175 12.4791 14.6006 12.4102 14.6672 12.1028C14.6896 11.9978 14.6334 11.8796 14.5775 11.7659C14.5692 11.7469 14.56 11.726 14.5518 11.7068Z" fill="#F5F5F5"/>
<path d="M12.8678 10.4379C13.1148 10.5665 14.2117 11.1412 14.3944 11.2865C14.403 11.2935 14.4143 11.2968 14.4246 11.2982C14.4366 11.2986 14.4459 11.2982 14.458 11.2986C14.4395 11.3207 14.4247 11.3455 14.4111 11.3721C14.3786 11.4376 14.3797 11.5081 14.3949 11.578C14.3453 11.5699 14.294 11.5628 14.2379 11.5559C13.9859 11.525 13.7011 11.4863 13.426 11.4136C12.9537 11.2892 12.5312 11.0066 12.3961 10.9085C12.5452 10.7752 12.7424 10.6024 12.8678 10.4379Z" fill="#F5F5F5"/>
<path d="M12.305 10.9709C12.399 11.0421 12.8598 11.3722 13.3987 11.5142C13.6823 11.5893 13.9821 11.6293 14.2237 11.6587C14.2956 11.6686 14.3647 11.6777 14.4292 11.6871C14.4477 11.729 14.4662 11.7709 14.4856 11.81C14.5337 11.9137 14.5806 12.011 14.565 12.0813C14.5094 12.3399 14.5093 12.4467 14.5326 12.5358C14.5213 12.5325 14.5111 12.5311 14.4998 12.5279C14.3203 12.4781 14.1324 12.4259 13.9114 12.4251C13.5289 12.424 12.5895 12.2315 12.1619 12.0039L12.0779 11.1089C12.1215 11.0847 12.2057 11.0355 12.305 10.9709Z" fill="#F5F5F5"/>
<path d="M17.9057 8.10912C17.9007 8.10008 17.8966 8.09281 17.8908 8.08658C17.8104 7.98889 17.3404 7.80861 17.007 7.89167C16.647 7.98237 16.1569 8.00534 16.0354 7.90198C15.8798 7.76436 15.707 7.75892 15.5362 7.87541L15.4672 7.81381L15.5695 7.51653C15.5744 7.50223 15.5727 7.48705 15.5657 7.47448C15.5622 7.46811 15.5573 7.46239 15.5511 7.45784C15.5327 7.44439 15.5078 7.44444 15.4895 7.45794L15.1948 7.67605L14.9446 7.54892C14.9273 7.54011 14.9066 7.5417 14.8909 7.55305C14.8752 7.56434 14.8671 7.58356 14.87 7.60269L14.9235 7.96222L14.6573 8.26372C14.643 8.28003 14.6403 8.30342 14.6505 8.32255C14.6608 8.33501 14.6817 8.35236 14.7032 8.34945L15.0302 8.30473L15.1113 8.60211C15.1173 8.62409 15.1359 8.63891 15.1581 8.64022C15.1801 8.64162 15.2007 8.62883 15.2092 8.6083L15.3569 8.25092L15.4318 8.21291C15.4471 8.31252 15.4782 8.40322 15.4915 8.4387C15.4665 8.65423 15.3834 8.79519 15.2099 9.09786C15.1087 9.27027 14.9851 9.4835 14.8238 9.79128C14.5553 10.3032 14.469 10.7757 14.5669 11.1958C14.5373 11.198 14.4928 11.1989 14.4462 11.1964C14.1987 11.0112 12.9207 10.3496 12.8665 10.3204C12.8635 10.3188 12.6556 10.1403 12.6556 10.1403C12.598 9.63631 12.2221 8.7507 11.9999 8.41981C11.882 8.24731 11.8217 8.07116 11.7632 7.90048C11.7075 7.74284 11.6573 7.59261 11.5655 7.45166C11.3613 7.13637 10.7223 7.18114 10.5683 7.22019C10.4589 7.24901 10.3995 7.32598 10.3319 7.41505C10.305 7.45034 10.2744 7.48836 10.2364 7.53195C10.1734 7.60245 10.0853 7.62106 9.94336 7.64989C9.83208 7.67309 9.69202 7.70286 9.50934 7.76689C9.08091 7.91909 8.22783 8.37392 8.04605 8.51497C7.86708 8.65508 7.60645 8.55964 7.46733 8.49012C7.27069 8.39192 6.67688 7.84953 6.51544 7.69011C6.40313 7.5807 6.27609 7.52881 6.18244 7.55394C6.14255 7.56411 6.111 7.59012 6.09436 7.6235C6.08972 7.63278 6.08602 7.64019 6.08419 7.64853C6.04898 7.77003 6.16603 8.25969 6.42305 8.48773C6.70139 8.73341 6.99741 9.12467 6.98072 9.2833C6.95512 9.48941 7.04836 9.63509 7.24106 9.71019L7.22925 9.80187L6.92625 9.8855C6.91177 9.88958 6.90014 9.89951 6.89372 9.91236C6.89044 9.91887 6.88852 9.92619 6.88828 9.93387C6.88758 9.95666 6.90169 9.97709 6.9232 9.98455L7.2697 10.1044L7.30627 10.3827C7.30875 10.4019 7.32183 10.4181 7.34006 10.4247C7.35825 10.4313 7.37869 10.4271 7.39289 10.4139L7.65923 10.1665L8.05838 10.2155C8.07994 10.2182 8.1008 10.2072 8.11078 10.188C8.11528 10.1724 8.11772 10.1454 8.10319 10.1293L7.88138 9.88484L8.08083 9.64986C8.09555 9.63242 8.09723 9.6087 8.08584 9.58976C8.0745 9.57073 8.05233 9.56098 8.03063 9.56558L7.6523 9.64578L7.57866 9.60547C7.6522 9.53651 7.70934 9.45964 7.73119 9.42861C7.92314 9.32745 8.08636 9.31625 8.43417 9.28826C8.63358 9.2743 8.87934 9.25564 9.22434 9.21472C9.79842 9.1468 10.237 8.95091 10.5282 8.63272C10.5467 8.65587 10.5727 8.69206 10.5968 8.73191C10.5839 9.04076 10.7607 10.469 10.7672 10.5302C10.7677 10.5334 10.7642 10.6845 10.7642 10.6845C10.3392 10.9625 9.71775 11.6903 9.52148 12.0363C9.41986 12.2188 9.28917 12.3515 9.16266 12.4801C9.04655 12.6005 8.93456 12.7124 8.84953 12.8576C8.6587 13.1811 8.98434 13.7327 9.08803 13.853C9.16266 13.9381 9.25809 13.9567 9.36802 13.9775C9.41156 13.9858 9.45928 13.9962 9.5153 14.0106C9.60652 14.0355 9.66258 14.106 9.75173 14.2201C9.82223 14.3093 9.91139 14.4213 10.0504 14.5561C10.378 14.8714 11.1661 15.4312 11.3735 15.5308C11.5788 15.6283 11.61 15.9041 11.61 16.0596C11.61 16.2795 11.3901 17.0531 11.3196 17.2687C11.2719 17.418 11.2823 17.5549 11.3466 17.6275C11.3735 17.6586 11.4109 17.6751 11.4482 17.6751C11.4585 17.6751 11.4668 17.6751 11.4751 17.6731C11.5996 17.6502 11.9853 17.3267 12.0745 16.9949C12.1699 16.6362 12.3877 16.1965 12.537 16.1405C12.7328 16.0713 12.8215 15.9228 12.8025 15.7169L12.8899 15.6865L13.1001 15.9202C13.1102 15.9313 13.1242 15.9373 13.1386 15.9373C13.146 15.9373 13.1533 15.9358 13.1603 15.9326C13.1809 15.923 13.193 15.9012 13.1901 15.8787L13.1424 15.5151L13.375 15.3581C13.3911 15.3473 13.3999 15.3283 13.3975 15.3091C13.3953 15.2898 13.3824 15.2735 13.3643 15.2667L13.024 15.139L12.8895 14.7599C12.8822 14.7395 12.8631 14.7257 12.8414 14.7254C12.8255 14.7283 12.8002 14.7383 12.7923 14.7584L12.6726 15.0662L12.3733 14.9928C12.3511 14.9874 12.3291 14.9965 12.3173 15.0152C12.3053 15.0338 12.3065 15.058 12.3203 15.0755L12.5611 15.378L12.558 15.4619C12.4635 15.427 12.3691 15.4101 12.3316 15.4045C12.1553 15.278 12.0724 15.137 11.892 14.8384C11.7904 14.6662 11.6639 14.4547 11.4731 14.1643C11.1557 13.6812 10.7845 13.3763 10.3697 13.258C10.3822 13.2311 10.4029 13.1916 10.4278 13.1522C10.7099 13.0257 11.9086 12.2293 11.9604 12.1962C11.9611 12.1957 11.961 12.1945 11.9617 12.194L12.1238 12.1003C12.5733 12.337 13.5129 12.5267 13.9107 12.5304C14.1195 12.5307 14.299 12.5805 14.4728 12.6288C14.6343 12.6719 14.7866 12.7155 14.9548 12.7194C15.3303 12.7292 15.6546 12.1767 15.7095 12.0277C15.7476 11.9212 15.7176 11.8287 15.6824 11.7226C15.6685 11.6805 15.6544 11.6337 15.6399 11.5777C15.6173 11.4858 15.6518 11.4027 15.7083 11.2693C15.7521 11.1644 15.8067 11.032 15.8571 10.8452C15.9737 10.4057 16.0808 9.44487 16.0672 9.21523C16.0528 8.98841 16.2788 8.82734 16.4148 8.75187C16.607 8.64519 17.3901 8.46195 17.6129 8.41892C17.7666 8.38812 17.8812 8.3127 17.9135 8.22125C17.9274 8.18248 17.9239 8.1418 17.9057 8.10912ZM15.4227 8.10125L15.2927 8.16725C15.2817 8.17287 15.273 8.18225 15.2683 8.19369L15.1713 8.42839L15.1182 8.23376C15.1114 8.20812 15.087 8.19247 15.0613 8.19598L14.8273 8.22795L15.0172 8.01289C15.0274 8.00136 15.0318 7.98598 15.0296 7.97094L14.9873 7.68692L15.1764 7.78306C15.1939 7.79201 15.215 7.79028 15.2308 7.77861L15.4171 7.6407L15.3579 7.81264C15.3513 7.83219 15.357 7.85403 15.3724 7.86819L15.4601 7.94656C15.4341 7.99058 15.4238 8.04476 15.4227 8.10125ZM15.2974 9.149C15.4851 8.82898 15.5698 8.68241 15.5954 8.43805C15.596 8.43059 15.5956 8.42136 15.5916 8.41405C15.5551 8.32278 15.4726 8.04598 15.5734 7.97108C15.711 7.86856 15.8355 7.87067 15.9598 7.97487C15.9743 8.00952 16.0402 8.16266 15.9532 8.33905C15.8843 8.31322 15.8259 8.31486 15.789 8.32105C15.6066 8.35119 15.5794 8.86203 15.5812 9.16456C15.5818 9.30659 15.5113 9.4572 15.4176 9.60889C15.4144 9.59881 15.4103 9.59155 15.4053 9.5825C15.3409 9.46648 15.2351 9.40414 15.1663 9.37836C15.2145 9.29459 15.2595 9.21748 15.2974 9.149ZM14.915 9.84041C14.9896 9.69701 15.0559 9.5772 15.1154 9.47061C15.169 9.48594 15.3104 9.55691 15.347 9.71689C15.3173 9.7618 15.2867 9.80492 15.2571 9.84983C15.1617 9.98576 15.0716 10.114 15.0121 10.2419C14.9755 10.3168 14.952 10.3986 14.9361 10.481C14.8201 10.4386 14.7369 10.4682 14.6696 10.5009C14.7134 10.2891 14.793 10.0694 14.915 9.84041ZM14.6498 10.6233C14.6654 10.6171 14.6827 10.6098 14.699 10.6007C14.7626 10.5702 14.8255 10.5423 14.9201 10.5847C14.8958 10.7974 14.9191 11.0146 14.9537 11.1922C14.8448 11.1626 14.7489 11.1565 14.6679 11.173C14.6679 11.173 14.6679 11.173 14.6669 11.1712C14.6261 10.9993 14.621 10.8148 14.6498 10.6233ZM14.4246 11.2985C14.4367 11.299 14.4459 11.2985 14.458 11.299C14.4395 11.3211 14.4248 11.3459 14.4111 11.3725C14.3786 11.4379 14.3798 11.5085 14.3949 11.5783C14.3453 11.5703 14.294 11.5632 14.238 11.5563C13.986 11.5254 13.7011 11.4867 13.426 11.414C12.9537 11.2895 12.5312 11.007 12.3961 10.9088C12.526 10.785 12.714 10.6392 12.8678 10.4382C13.1147 10.5668 14.2117 11.1416 14.3943 11.2868C14.403 11.294 14.4143 11.2971 14.4246 11.2985ZM12.0593 12.0178L11.9447 12.084C11.7462 11.798 11.757 11.0987 11.757 11.0907C11.7591 11.07 11.7467 11.0513 11.728 11.043L10.869 10.667L10.8739 10.5789C11.3219 10.6305 11.8398 10.8389 11.847 10.8425C11.8646 10.8536 11.8868 10.8508 11.9026 10.8379L12.6155 10.2435L12.7689 10.3806C12.5466 10.6536 12.0058 11.0307 11.9988 11.0346C11.9797 11.0429 11.9694 11.0628 11.9712 11.0831L12.0593 12.0178ZM11.6528 7.90344C11.6565 7.91455 11.6612 7.92387 11.6648 7.93494C11.7252 8.11114 11.7883 8.29573 11.9127 8.47836C12.128 8.79453 12.5002 9.67826 12.5542 10.1596L11.8635 10.7349C11.8189 10.7127 11.7308 10.6709 11.6213 10.6255C11.6269 10.5077 11.6387 9.94105 11.4512 9.41614C11.3528 9.13976 11.2163 8.86995 11.104 8.65386C11.0715 8.58894 11.04 8.52683 11.0112 8.46837C11.0353 8.42942 11.0594 8.39042 11.0807 8.35241C11.1391 8.25406 11.1929 8.16036 11.2597 8.13345C11.5044 8.03337 11.5925 7.973 11.6528 7.90344ZM11.4773 7.50748C11.5358 7.59462 11.5739 7.69016 11.611 7.78751C11.5582 7.86547 11.5109 7.91834 11.2197 8.03712C11.1205 8.078 11.0546 8.19116 10.9926 8.30155C10.9815 8.31917 10.9694 8.33867 10.9583 8.35625C10.9164 8.26353 10.8896 8.18745 10.8932 8.14292C10.8988 8.06684 10.9665 7.97783 11.0388 7.88408C11.1203 7.7765 11.2121 7.65308 11.2353 7.51859C11.2501 7.43792 11.2343 7.3813 11.212 7.34239C11.3242 7.37305 11.4225 7.42222 11.4773 7.50748ZM10.4145 7.4773C10.4766 7.39475 10.5192 7.34183 10.5943 7.32139C10.6379 7.30841 10.7483 7.29631 10.88 7.2972C10.8726 7.30278 10.8651 7.30831 10.8596 7.31483C10.8197 7.36217 10.8059 7.45025 10.792 7.56153C10.7725 7.69789 10.7494 7.86486 10.6679 7.98641C10.5946 8.09586 10.5325 8.10425 10.462 8.11541C10.4314 8.12098 10.3989 8.12558 10.3665 8.13955C10.3386 8.00506 10.3209 7.82703 10.3236 7.58956C10.3569 7.55056 10.3885 7.51072 10.4145 7.4773ZM9.96469 7.75105C10.0676 7.73061 10.1492 7.71106 10.2197 7.67211C10.2217 7.88169 10.2403 8.05794 10.2728 8.20166C10.2719 8.20353 10.2719 8.20353 10.2709 8.20536C10.1541 8.32784 9.99928 8.47072 9.82125 8.57187C9.82219 8.56076 9.82031 8.5505 9.82219 8.53756C9.8527 8.26301 9.78023 8.01355 9.62348 7.84016C9.7597 7.79473 9.87384 7.77055 9.96469 7.75105ZM8.11008 8.59573C8.28159 8.4612 9.08189 8.03792 9.51211 7.87733C9.67167 8.03122 9.7478 8.26395 9.71916 8.52551C9.71644 8.56353 9.71363 8.59695 9.71456 8.62751C9.63666 8.66281 9.55598 8.68972 9.4725 8.70364C9.34172 8.72408 9.18961 8.7223 9.02822 8.72051C8.73234 8.71873 8.42536 8.71611 8.21953 8.85898C7.8375 9.12251 7.57509 9.21631 7.54073 9.1783C7.49156 9.12823 7.40062 8.97617 7.59159 8.64964C7.79944 8.71644 7.97939 8.69966 8.11008 8.59573ZM6.40252 8.31073C6.23086 8.08358 6.16397 7.74416 6.18342 7.67736C6.18712 7.66531 6.19547 7.65791 6.20939 7.65326C6.25486 7.64122 6.34669 7.67084 6.44133 7.76445C6.45061 7.77373 6.46355 7.78484 6.47747 7.79876L6.40252 8.31073ZM6.59738 8.51005C6.56025 8.47297 6.52223 8.43772 6.49345 8.41175L6.56934 7.88403C6.60366 7.91741 6.64172 7.95261 6.68344 7.98969L6.59738 8.51005ZM6.68738 8.60366L6.77625 8.07312C6.81984 8.11114 6.86438 8.15197 6.90984 8.19083L6.80152 8.73716C6.76252 8.68991 6.7245 8.64542 6.68738 8.60366ZM6.9397 8.91987C6.92208 8.89484 6.90441 8.86981 6.885 8.84384L7.00069 8.26878C7.07677 8.33464 7.15284 8.39576 7.21964 8.4477L6.9397 8.91987ZM7.00008 9.02187L7.30505 8.50887C7.34958 8.54037 7.38947 8.56728 7.42102 8.58303C7.44511 8.59508 7.46836 8.60436 7.49339 8.61453C7.48134 8.63398 7.47023 8.65625 7.46095 8.67486C7.39425 8.80845 7.37105 8.91514 7.37203 9.00134C7.22269 9.02178 7.1235 9.09514 7.06139 9.15912C7.04836 9.11553 7.02698 9.07006 7.00008 9.02187ZM7.61934 9.74614C7.63022 9.75205 7.64288 9.75397 7.65497 9.75134L7.90341 9.69866L7.77291 9.8525C7.75561 9.87261 7.7565 9.90158 7.77398 9.92084L7.93261 10.0957L7.64789 10.0607C7.63261 10.0588 7.61747 10.0639 7.60631 10.0742L7.39594 10.2697L7.36828 10.0593C7.3658 10.0398 7.35244 10.0234 7.33383 10.0169L7.11478 9.94128L7.29009 9.89286C7.30997 9.88728 7.32473 9.87022 7.32769 9.8495L7.34273 9.73287C7.39373 9.7295 7.44427 9.70737 7.49142 9.6763L7.61934 9.74614ZM8.7232 8.85336C8.66386 8.97205 8.6723 9.09448 8.68992 9.16592C8.59345 9.17337 8.50444 9.17989 8.42653 9.18734C8.0565 9.21345 7.88766 9.22648 7.67161 9.34344C7.66509 9.34709 7.65769 9.35272 7.65403 9.36012C7.59937 9.44173 7.41764 9.66626 7.29891 9.62553C7.13653 9.56994 7.06791 9.46606 7.08361 9.30467C7.104 9.27312 7.19297 9.13212 7.38773 9.10423C7.40536 9.17567 7.43972 9.22292 7.46569 9.24983C7.5937 9.38333 8.03048 9.11698 8.27897 8.94439C8.39583 8.86367 8.55994 8.83672 8.73802 8.82828C8.73159 8.83662 8.72789 8.84403 8.7232 8.85336ZM9.21305 9.11192C9.05259 9.13147 8.91623 9.1445 8.79473 9.1557C8.77711 9.10283 8.75573 8.94612 8.86692 8.82552C8.92073 8.82453 8.97356 8.82547 9.02738 8.82453C9.19341 8.82636 9.35016 8.82814 9.48928 8.80489C9.57183 8.79284 9.6525 8.76589 9.72947 8.73247C9.76013 8.85209 9.83156 8.90398 9.89648 8.94106C9.69713 9.02455 9.47086 9.08305 9.21305 9.11192ZM10.451 8.56428C10.3324 8.69511 10.1831 8.80367 10.0087 8.88814C9.99478 8.87886 9.97903 8.86869 9.9623 8.8603C9.90108 8.82509 9.84262 8.78891 9.82402 8.68691C10.0132 8.58669 10.1791 8.44475 10.3061 8.31575C10.3433 8.42239 10.3925 8.50489 10.4518 8.56241C10.452 8.56241 10.452 8.56241 10.451 8.56428ZM10.5345 8.49931C10.4844 8.45572 10.4324 8.3788 10.3915 8.24244C10.4175 8.22758 10.4453 8.22294 10.4777 8.2183C10.5556 8.2062 10.6539 8.19041 10.7522 8.04476C10.8477 7.9047 10.8736 7.72287 10.8939 7.57541C10.905 7.49286 10.9161 7.40562 10.9383 7.3797C10.9615 7.35186 11.032 7.33606 11.083 7.35922C11.1414 7.38612 11.1414 7.45105 11.1331 7.50017C11.1146 7.6115 11.034 7.71725 10.9561 7.82206C10.8755 7.92786 10.7994 8.02897 10.7902 8.13561C10.7837 8.20892 10.8246 8.31739 10.8914 8.45745C10.8488 8.51033 10.8033 8.55027 10.7459 8.55861C10.6634 8.57066 10.5929 8.54937 10.5345 8.49931ZM10.7005 8.72366C10.7015 8.71255 10.6977 8.70144 10.6931 8.69211C10.6866 8.68194 10.681 8.67453 10.6745 8.66427C10.7033 8.66708 10.732 8.6652 10.7617 8.66145C10.834 8.65123 10.8915 8.61041 10.9406 8.55842C10.962 8.60389 10.9852 8.65025 11.0112 8.70031C11.1281 8.92569 11.2571 9.18247 11.3528 9.4505C11.5171 9.91048 11.5228 10.4187 11.5183 10.5857C11.3172 10.542 11.1131 10.4967 10.8634 10.4626C10.83 10.1862 10.684 8.95648 10.7005 8.72366ZM9.23719 12.5528C9.36783 12.4201 9.5047 12.2812 9.61256 12.0883C9.79917 11.7544 10.4235 11.0264 10.83 10.7631L11.6533 11.124C11.6533 11.1738 11.6554 11.2713 11.6637 11.3894C11.5558 11.4371 11.0436 11.6798 10.6578 12.0821C10.4546 12.2937 10.2742 12.5363 10.131 12.7333C10.0875 12.7914 10.046 12.8473 10.0066 12.8992C9.96098 12.8951 9.91538 12.8909 9.87178 12.8889C9.75773 12.8806 9.64988 12.8743 9.59592 12.8267C9.39684 12.6525 9.30347 12.6006 9.21431 12.5778C9.22266 12.5694 9.22889 12.5611 9.23719 12.5528ZM8.90953 13.2227C8.8867 13.1087 8.8867 12.9987 8.93855 12.9117C8.99039 12.8204 9.05883 12.7437 9.12937 12.667C9.2227 12.6794 9.29109 12.6981 9.52753 12.9055C9.60844 12.976 9.73908 12.9843 9.86559 12.9905C9.88631 12.9926 9.90914 12.9946 9.92991 12.9967C9.86559 13.0755 9.80958 13.1336 9.76819 13.1502C9.69769 13.1792 9.58777 13.1585 9.47161 13.1356C9.33891 13.1107 9.1875 13.0838 9.05681 13.1232C8.97797 13.1459 8.93442 13.1854 8.90953 13.2227ZM9.08583 13.2227C9.19369 13.1896 9.32433 13.2144 9.45291 13.2372C9.58355 13.2621 9.708 13.2849 9.80752 13.2455C9.87595 13.2186 9.9548 13.1336 10.0501 13.0112C10.1165 13.0257 10.1725 13.0485 10.2057 13.0962C10.2533 13.1646 10.2658 13.2372 10.2472 13.3119C10.2306 13.3762 10.185 13.457 10.0812 13.5545C10.0563 13.5379 10.0397 13.5151 10.0211 13.4881C9.97547 13.4238 9.91739 13.343 9.74316 13.3201C9.57516 13.2973 9.40097 13.3554 9.25997 13.4031C9.18113 13.43 9.09816 13.4591 9.06502 13.4508C9.02972 13.4424 8.98411 13.3865 8.98205 13.3304C8.98003 13.2663 9.03811 13.2372 9.08583 13.2227ZM9.52753 13.907C9.47775 13.8946 9.42802 13.8842 9.38653 13.876C9.28491 13.8573 9.21853 13.8428 9.16669 13.7847C9.13556 13.7515 9.07542 13.6582 9.01734 13.54C9.02569 13.5441 9.03394 13.5483 9.04223 13.5504C9.10238 13.5649 9.18736 13.5379 9.29316 13.5006C9.4238 13.457 9.5835 13.4031 9.72867 13.4217C9.85931 13.4383 9.89461 13.4902 9.93605 13.5483C9.9547 13.5732 9.97341 13.6001 10.0004 13.6229C9.89255 13.708 9.74114 13.8034 9.52753 13.907ZM9.83241 14.156C9.76809 14.073 9.71423 14.0087 9.64781 13.9631C9.83442 13.8677 9.98377 13.7722 10.0979 13.679C10.0999 13.679 10.0999 13.679 10.102 13.679C10.2637 13.7287 10.4608 13.8034 10.6308 13.9175C10.6205 13.9216 10.6122 13.9278 10.5997 13.9319C10.3405 14.0273 10.1497 14.2036 10.0647 14.4214C9.96305 14.3198 9.89048 14.2285 9.83241 14.156ZM11.4169 15.4376C11.2199 15.3442 10.4836 14.8175 10.1477 14.5043C10.2141 14.2927 10.3883 14.1207 10.635 14.0293C10.6703 14.0148 10.7014 14.0024 10.7284 13.9879C10.7947 14.0418 10.8549 14.1019 10.9047 14.1703C10.9815 14.2782 11.0478 14.415 11.1183 14.5602C11.2489 14.8257 11.3837 15.1016 11.6036 15.2218C12.0101 15.4458 12.2112 15.6387 12.1926 15.6863C12.1697 15.7527 12.0744 15.902 11.6969 15.8772C11.6636 15.6616 11.5683 15.5081 11.4169 15.4376ZM11.4562 17.5716C11.4437 17.5737 11.4334 17.5695 11.4231 17.5591C11.3919 17.5238 11.3775 17.4285 11.4189 17.302C11.4231 17.2895 11.4273 17.273 11.4335 17.2543L11.925 17.0925C11.7984 17.3476 11.5247 17.5592 11.4562 17.5716ZM11.9747 16.966L11.4687 17.134C11.4832 17.0884 11.4977 17.0386 11.5122 16.9847L12.0162 16.8291C11.9996 16.8789 11.9851 16.9287 11.9747 16.966ZM12.0597 16.7068L11.5454 16.8644C11.5599 16.8084 11.5765 16.7503 11.591 16.6923L12.1281 16.545C12.1033 16.601 12.0805 16.655 12.0597 16.7068ZM12.1863 16.4226L11.6201 16.5761C11.645 16.4787 11.6657 16.3832 11.6823 16.3003L12.2298 16.3397C12.2153 16.3667 12.2008 16.3936 12.1863 16.4226ZM12.2941 16.2402L11.6989 16.1966C11.7072 16.1427 11.7134 16.095 11.7134 16.0597C11.7134 16.0328 11.7113 16.0079 11.7093 15.9809C11.7321 15.983 11.757 15.983 11.7777 15.983C11.9271 15.983 12.0328 15.956 12.1095 15.9166C12.1946 16.041 12.3045 16.097 12.3895 16.124C12.3563 16.1551 12.3252 16.1945 12.2941 16.2402ZM12.4959 15.1296L12.6919 15.1776C12.7176 15.1841 12.7432 15.1703 12.7525 15.1461L12.8381 14.9261L12.934 15.1964C12.9391 15.2109 12.9504 15.2223 12.9646 15.2276L13.2335 15.3285L13.0576 15.4473C13.0413 15.4582 13.0326 15.4774 13.0351 15.497L13.0652 15.7267L12.9436 15.5915C12.9298 15.5762 12.9079 15.5707 12.888 15.5772L12.777 15.6159C12.7511 15.5718 12.7088 15.5364 12.6599 15.5082L12.6653 15.3625C12.6657 15.3501 12.6617 15.338 12.6541 15.3283L12.4959 15.1296ZM11.8046 14.8901C11.9933 15.2095 12.0805 15.3546 12.2816 15.4956C12.2878 15.4998 12.2961 15.5039 12.3045 15.5039C12.4019 15.5164 12.684 15.5786 12.7005 15.703C12.7234 15.8731 12.6611 15.9809 12.5097 16.039C12.4724 16.0348 12.3065 16.0182 12.1945 15.8565C12.2505 15.8088 12.2775 15.757 12.2899 15.7217C12.3521 15.5475 11.9187 15.2758 11.6532 15.1306C11.5288 15.0622 11.4313 14.9274 11.3442 14.7718C11.3546 14.7739 11.3629 14.7739 11.3732 14.7739C11.5059 14.7739 11.6117 14.7117 11.6677 14.664C11.7175 14.747 11.7632 14.8237 11.8046 14.8901ZM11.3857 14.2203C11.4749 14.3551 11.5474 14.4712 11.6117 14.5749C11.5723 14.6143 11.4417 14.7035 11.2841 14.6578C11.2592 14.6102 11.2364 14.5625 11.2115 14.5148C11.139 14.3654 11.0705 14.2244 10.9875 14.1103C10.9399 14.0419 10.8797 13.9818 10.8154 13.9279C10.9088 13.847 10.9233 13.7599 10.9274 13.6852C11.0913 13.8262 11.2447 14.0025 11.3857 14.2203ZM10.83 13.6085C10.8279 13.625 10.8258 13.6437 10.8258 13.6624C10.8217 13.7329 10.8155 13.8014 10.7325 13.8635C10.5583 13.7391 10.3571 13.6541 10.185 13.5981C10.2638 13.5172 10.3156 13.4363 10.3405 13.3575C10.3405 13.3575 10.3405 13.3575 10.3426 13.3575C10.5126 13.4052 10.6765 13.4902 10.83 13.6085ZM10.3737 13.063C10.3633 13.0671 10.355 13.0755 10.3488 13.0837C10.3426 13.0941 10.3384 13.1024 10.3322 13.1127C10.3218 13.0858 10.3073 13.0609 10.2907 13.0361C10.2492 12.9759 10.187 12.9427 10.1186 12.922C10.1497 12.8826 10.1808 12.8411 10.214 12.7955C10.3633 12.5902 10.5354 12.36 10.7325 12.1547C11.0705 11.8021 11.5226 11.5698 11.674 11.4993C11.6968 11.7192 11.7465 11.9784 11.8565 12.1401C11.6242 12.2936 10.5894 12.9738 10.3737 13.063ZM14.5651 12.0816C14.5094 12.3402 14.5093 12.447 14.5327 12.536C14.5214 12.5328 14.5111 12.5314 14.4998 12.5281C14.3204 12.4783 14.1324 12.4261 13.9115 12.4253C13.529 12.4242 12.5895 12.2317 12.162 12.0041L12.0779 11.1091C12.1214 11.085 12.2056 11.0358 12.305 10.9712C12.399 11.0423 12.8598 11.3725 13.3988 11.5145C13.6823 11.5895 13.9821 11.6295 14.2238 11.659C14.2957 11.669 14.3648 11.678 14.4292 11.6873C14.4477 11.7292 14.4662 11.7711 14.4856 11.8102C14.5337 11.914 14.5806 12.0113 14.5651 12.0816ZM14.9585 12.6151C14.8536 12.6141 14.7533 12.5915 14.652 12.5671C14.6175 12.4795 14.6006 12.4106 14.6673 12.1032C14.6897 11.9982 14.6335 11.88 14.5776 11.7663C14.5693 11.7472 14.56 11.7262 14.5518 11.7071C14.6519 11.7251 14.7299 11.7458 14.7645 11.7741C14.8241 11.8216 14.8593 11.9278 14.8957 12.0404C14.9384 12.1685 14.9883 12.314 15.0862 12.4091C15.1443 12.467 15.2 12.4859 15.2446 12.4895C15.156 12.5649 15.0598 12.6182 14.9585 12.6151ZM15.3036 12.3738C15.2484 12.4068 15.1948 12.3701 15.159 12.3354C15.0776 12.2572 15.036 12.1309 14.9935 12.0074C14.9519 11.8811 14.9115 11.7612 14.8287 11.6934C14.7719 11.6466 14.6593 11.619 14.506 11.5949C14.4865 11.5299 14.4793 11.4698 14.5049 11.4177C14.5416 11.3427 14.599 11.2966 14.6733 11.2767C14.7375 11.26 14.8305 11.2607 14.966 11.304C14.9636 11.3338 14.9517 11.3594 14.9372 11.3888C14.9031 11.4599 14.8606 11.5499 14.9252 11.7133C14.9868 11.8713 15.1221 11.9954 15.2322 12.0956C15.294 12.1514 15.3597 12.2098 15.3685 12.2429C15.3784 12.2777 15.3516 12.3448 15.3036 12.3738ZM15.6112 11.9919C15.5972 12.0352 15.5448 12.1331 15.4697 12.2413C15.4693 12.232 15.4689 12.2227 15.4667 12.2145C15.4502 12.1549 15.3854 12.0936 15.3014 12.0192C15.1999 11.9262 15.0752 11.8127 15.021 11.6767C14.9722 11.5544 15.0004 11.4984 15.031 11.434C15.0437 11.4056 15.0582 11.3761 15.0651 11.3415C15.1917 11.3945 15.3486 11.4806 15.543 11.6171C15.5563 11.6666 15.5713 11.7152 15.5842 11.7555C15.6173 11.8534 15.6368 11.9184 15.6112 11.9919ZM15.6127 11.2297C15.5713 11.3262 15.5413 11.4046 15.5336 11.4847C15.3596 11.3678 15.2037 11.2836 15.0668 11.2292C15.0658 11.2273 15.0658 11.2273 15.0647 11.2256C15.0298 11.06 14.9994 10.8515 15.0166 10.6475C15.0253 10.6545 15.0347 10.6587 15.0444 10.6676C15.2536 10.848 15.5004 10.9292 15.732 10.8979C15.6925 11.036 15.648 11.1438 15.6127 11.2297ZM15.9643 9.22241C15.9783 9.43995 15.8751 10.3393 15.7643 10.785C15.5472 10.8297 15.3121 10.7609 15.1125 10.5894C15.0827 10.5656 15.0567 10.5445 15.0309 10.528C15.0459 10.4438 15.0693 10.362 15.105 10.2853C15.162 10.1659 15.2495 10.0414 15.3421 9.90931C15.5108 9.66626 15.6866 9.4145 15.6851 9.16391C15.6836 8.6998 15.7546 8.43031 15.8054 8.42347C15.8745 8.41119 16.0514 8.42211 16.2128 8.76425C16.0404 8.89789 15.9525 9.05581 15.9643 9.22241ZM16.3644 8.66112C16.3408 8.6742 16.32 8.68808 16.2975 8.70298C16.2882 8.68203 16.2762 8.66028 16.2661 8.64214C16.1936 8.51159 16.1187 8.43219 16.047 8.38423C16.1146 8.24952 16.1102 8.12623 16.0925 8.03881C16.1358 8.05273 16.1854 8.0608 16.2404 8.06586L16.4912 8.60741C16.4399 8.6263 16.3952 8.64401 16.3644 8.66112ZM16.5898 8.57155L16.3585 8.07369C16.3891 8.07327 16.4198 8.07289 16.4522 8.07153L16.8611 8.49205C16.7639 8.51764 16.6704 8.54586 16.5898 8.57155ZM16.9768 8.46111L16.5874 8.06295C16.6484 8.05751 16.7067 8.05133 16.762 8.0443L17.1494 8.41747C17.0934 8.43195 17.0346 8.44564 16.9768 8.46111ZM17.2707 8.38812L16.8901 8.02301C16.9417 8.01341 16.9922 8.00192 17.0299 7.99287L17.4224 8.35381C17.3755 8.36314 17.3249 8.37462 17.2707 8.38812ZM17.5934 8.31575C17.5805 8.31814 17.564 8.32259 17.5447 8.3262L17.1647 7.97492C17.4492 7.96175 17.7669 8.09844 17.8111 8.15225C17.819 8.16214 17.8204 8.1732 17.8163 8.18731C17.8005 8.23161 17.7241 8.29058 17.5934 8.31575Z" fill="#464655"/>
</svg>
