<svg xmlns="http://www.w3.org/2000/svg" width="24" height="24" viewBox="0 0 24 24" fill="none"><rect width="24" height="24" fill="none"/>
<path d="M22.2026 4.13779H16V19.8619H22.2026C23.1952 19.8619 24 19.0572 24 18.0645V5.93521C24 4.94249 23.1953 4.13779 22.2026 4.13779Z" fill="#41479B"/>
<path d="M16.0003 4.13797H8.00015V19.8622H16.0003V4.13797Z" fill="#FFE15A"/>
<path d="M1.79742 4.13779C0.804703 4.13779 0 4.94249 0 5.93521V18.0645C0 19.0572 0.804703 19.862 1.79742 19.862H8.00002V4.13779H1.79742Z" fill="#41479B"/>
<path d="M14.069 10.9653H13.0345V9.93085L13.6552 9.10327H13.0345H10.9655H10.3448L10.9655 9.93085V10.9653H9.93103L9.10345 10.3447V10.9653V13.0343V13.655L9.93103 13.0343H10.9655V14.0688L10.3448 14.8964H10.9655H13.0345H13.6552L13.0345 14.0688V13.0343H14.069L14.8965 13.655V13.0343V10.9653V10.3447L14.069 10.9653Z" fill="#FF4B55"/>
<path d="M14.069 11.586H12.4138V9.93088H11.5862V11.586H9.93103V12.4137H11.5862V14.0688H12.4138V12.4137H14.069V11.586Z" fill="#F5F5F5"/>
</svg>
