<svg xmlns="http://www.w3.org/2000/svg" width="24" height="24" viewBox="0 0 24 24" fill="none"><rect width="24" height="24" fill="none"/>
<path d="M22.2026 4.13843H1.79742C0.804703 4.13843 0 4.94313 0 5.93585V18.0652C0 19.0578 0.804703 19.8626 1.79742 19.8626H22.2026C23.1952 19.8626 24 19.0579 24 18.0652V5.93585C24 4.94313 23.1953 4.13843 22.2026 4.13843Z" fill="#41479B"/>
<path d="M23.9751 5.63778C23.8335 4.78658 23.094 4.13745 22.2026 4.13745H21.7349L14.069 9.15997V4.1375H9.93103V9.16001L2.26509 4.1375H1.79742C0.906 4.1375 0.166547 4.78658 0.0248906 5.63783L6.57698 9.93064H0V14.0686H6.57698L0.0248906 18.3613C0.166547 19.2125 0.906 19.8616 1.79742 19.8616H2.26509L9.93103 14.8391V19.8616H14.069V14.8391L21.7349 19.8616H22.2026C23.094 19.8616 23.8335 19.2125 23.9751 18.3613L17.423 14.0685H24V9.93054H17.423L23.9751 5.63778Z" fill="#F5F5F5"/>
<path d="M13.2414 4.13843H10.7586V10.7591H0V13.2419H10.7586V19.8626H13.2414V13.2419H24V10.7591H13.2414V4.13843Z" fill="#FF4B55"/>
<path d="M1.16217 19.7458L9.90825 14.0685H8.38819L0.432373 19.2329C0.627045 19.4601 0.877217 19.6381 1.16217 19.7458Z" fill="#FF4B55"/>
<path d="M16.2369 14.0685H14.7169L23.1879 19.5672C23.425 19.4115 23.6228 19.2013 23.7639 18.9543L16.2369 14.0685Z" fill="#FF4B55"/>
<path d="M0.189804 5.13123L7.5834 9.93062H9.10346L0.725398 4.49219C0.500445 4.65963 0.316367 4.87853 0.189804 5.13123Z" fill="#FF4B55"/>
<path d="M15.589 9.93057L23.5594 4.75674C23.3626 4.53029 23.1105 4.35329 22.8235 4.24768L14.069 9.93057H15.589Z" fill="#FF4B55"/>
</svg>
