<svg xmlns="http://www.w3.org/2000/svg" width="24" height="24" viewBox="0 0 24 24" fill="none"><rect width="24" height="24" fill="none"/>
<path d="M10.3803 19.0953C10.4846 19.0636 10.4846 18.9159 10.3804 18.8842L8.20817 18.2203C8.10397 18.1885 8.10402 18.0409 8.20827 18.0092L10.3796 17.348C10.4839 17.3163 10.4839 17.1686 10.3796 17.1369L8.20827 16.4757C8.10397 16.444 8.10392 16.2964 8.20817 16.2646L10.3803 15.6008C10.4845 15.5689 10.4845 15.4213 10.3802 15.3896L8.20827 14.7283C8.10397 14.6966 8.10392 14.5489 8.20817 14.5171L10.3804 13.8533C10.4846 13.8214 10.4845 13.6738 10.3803 13.6421L8.20827 12.9808C8.10397 12.949 8.10392 12.8015 8.20817 12.7697L10.3804 12.1058C10.4846 12.0739 10.4845 11.9263 10.3803 11.8946L8.20827 11.2333C8.10397 11.2016 8.10392 11.054 8.20817 11.0222L10.3804 10.3583C10.4846 10.3264 10.4845 10.1789 10.3803 10.1472L8.20892 9.48607C8.10458 9.45425 8.10458 9.30664 8.20892 9.27486L10.3803 8.61373C10.4846 8.58204 10.4846 8.43439 10.3804 8.40261L8.20817 7.73876C8.10397 7.70689 8.10402 7.55937 8.20827 7.52759L10.3803 6.86624C10.4846 6.83455 10.4846 6.68689 10.3804 6.65511L8.20817 5.99127C8.10397 5.95939 8.10402 5.81183 8.20827 5.7801L10.3802 5.11878C10.4845 5.087 10.4846 4.93939 10.3803 4.90761L7.87785 4.14299C7.86739 4.13971 7.85652 4.13811 7.84555 4.13811H1.79742C0.804702 4.13793 0 4.94263 0 5.93535V18.0647C0 19.0573 0.804702 19.8621 1.79742 19.8621H7.8456C7.85652 19.8621 7.8673 19.8605 7.87775 19.8573L10.3803 19.0953Z" fill="#F5F5F5"/>
<path d="M22.2025 4.13792H11.1724H7.84555C7.85647 4.13792 7.86734 4.13956 7.87784 4.1428L10.3803 4.90742C10.4845 4.93925 10.4845 5.08686 10.3802 5.11859L8.20827 5.77991C8.10397 5.81169 8.10392 5.95925 8.20817 5.99108L10.3804 6.65492C10.4846 6.68675 10.4845 6.83436 10.3803 6.86604L8.20827 7.5274C8.10397 7.55923 8.10392 7.70675 8.20817 7.73857L10.3804 8.40242C10.4846 8.43424 10.4845 8.58185 10.3803 8.61354L8.20892 9.27467C8.10458 9.30649 8.10458 9.4541 8.20892 9.48588L10.3803 10.147C10.4846 10.1788 10.4846 10.3263 10.3804 10.3581L8.20817 11.022C8.10397 11.0538 8.10402 11.2015 8.20827 11.2331L10.3803 11.8945C10.4846 11.9261 10.4846 12.0738 10.3804 12.1056L8.20817 12.7695C8.10397 12.8013 8.10402 12.9489 8.20827 12.9806L10.3803 13.642C10.4846 13.6736 10.4846 13.8213 10.3804 13.8531L8.20817 14.5169C8.10397 14.5488 8.10402 14.6964 8.20827 14.7281L10.3802 15.3895C10.4845 15.4211 10.4846 15.5688 10.3803 15.6006L8.20817 16.2644C8.10397 16.2962 8.10402 16.4438 8.20827 16.4755L10.3796 17.1367C10.4839 17.1684 10.4839 17.3162 10.3796 17.3478L8.20827 18.009C8.10397 18.0407 8.10392 18.1884 8.20817 18.2201L10.3804 18.884C10.4846 18.9158 10.4845 19.0634 10.3803 19.0951L7.8778 19.8571C7.86739 19.8602 7.85652 19.8619 7.84564 19.8619H11.1724H22.2026C23.1953 19.8619 24 19.0572 24 18.0645V5.9353C24 4.94263 23.1953 4.13792 22.2025 4.13792Z" fill="#873250"/>
</svg>
