<svg xmlns="http://www.w3.org/2000/svg" width="24" height="24" viewBox="0 0 24 24" fill="none"><rect width="24" height="24" fill="none"/>
<path d="M22.2134 4.13806H1.78664C0.798984 4.14387 0 4.94609 0 5.93516V7.28281H24V5.93516C24 4.94609 23.201 4.14387 22.2134 4.13806Z" fill="#73AF00"/>
<path d="M24 10.4278H0V13.5726H24V10.4278Z" fill="#73AF00"/>
<path d="M24 7.28296H0V10.4278H24V7.28296Z" fill="#FFE15A"/>
<path d="M0 18.0645C0 19.0572 0.804703 19.8619 1.79742 19.8619H22.2026C23.1952 19.8619 24 19.0572 24 18.0645V16.7174H0V18.0645Z" fill="#73AF00"/>
<path d="M24 13.5726H0V16.7175H24V13.5726Z" fill="#FFE15A"/>
<path d="M0.413812 13.5725H9.10345C9.33197 13.5725 9.51727 13.3873 9.51727 13.1587V4.55187C9.51727 4.32336 9.33197 4.13806 9.10345 4.13806H1.78664C0.798984 4.14387 0 4.94609 0 5.93516V13.1587C0 13.3873 0.185297 13.5725 0.413812 13.5725Z" fill="#FF4B55"/>
<path d="M4.65633 6.35807L4.0583 8.15113L2.16821 8.16576C2.06462 8.1666 2.02163 8.29879 2.10502 8.36033L3.62555 9.48318L3.05541 11.2853C3.02419 11.3841 3.13669 11.4659 3.22093 11.4056L4.75871 10.3065L6.29649 11.4057C6.38082 11.4659 6.49332 11.3842 6.46201 11.2854L5.89187 9.48327L7.4124 8.36043C7.49579 8.29888 7.4528 8.1666 7.34921 8.16585L5.45912 8.15123L4.86094 6.35816C4.82813 6.25982 4.6891 6.25982 4.65633 6.35807Z" fill="#F5F5F5"/>
</svg>
