<svg xmlns="http://www.w3.org/2000/svg" width="24" height="24" viewBox="0 0 24 24" fill="none"><rect width="24" height="24" fill="none"/>
<path d="M22.2026 19.8621H1.79742C0.804703 19.8621 0 19.0574 0 18.0646V5.93536C0 4.94269 0.804703 4.13794 1.79742 4.13794H22.2026C23.1952 4.13794 24 4.94264 24 5.93536V18.0647C24 19.0574 23.1953 19.8621 22.2026 19.8621Z" fill="#3CC8FF"/>
<path d="M12 16.9655C14.7424 16.9655 16.9655 14.7424 16.9655 12C16.9655 9.25766 14.7424 7.03455 12 7.03455C9.25765 7.03455 7.03453 9.25766 7.03453 12C7.03453 14.7424 9.25765 16.9655 12 16.9655Z" fill="#FFE15A"/>
</svg>
