<svg xmlns="http://www.w3.org/2000/svg" width="24" height="24" viewBox="0 0 24 24" fill="none"><rect width="24" height="24" fill="none"/>
<path d="M22.2026 4.13794H1.79742C0.804703 4.13794 0 4.94264 0 5.93536V9.37931H24V5.93536C24 4.94264 23.1953 4.13794 22.2026 4.13794Z" fill="#4173CD"/>
<path d="M0 18.0647C0 19.0573 0.804703 19.8621 1.79742 19.8621H22.2026C23.1952 19.8621 24 19.0574 24 18.0647V14.6207H0V18.0647Z" fill="#4173CD"/>
<path d="M24 9.37923H0V14.6203H24V9.37923Z" fill="#F5F5F5"/>
<path d="M12.0598 11.3241L12.2079 11.7682L12.6759 11.7718C12.7366 11.7722 12.7616 11.8496 12.7129 11.8856L12.3364 12.1636L12.4776 12.6099C12.4958 12.6677 12.4301 12.7155 12.3807 12.6803L12 12.408L11.6192 12.6802C11.5698 12.7154 11.5041 12.6676 11.5223 12.6098L11.6635 12.1635L11.2869 11.8855C11.2382 11.8495 11.2633 11.7721 11.3239 11.7717L11.792 11.7681L11.9401 11.324C11.9593 11.2666 12.0406 11.2666 12.0598 11.3241Z" fill="#4173CD"/>
<path d="M7.83297 12.5158L7.98104 12.9599L8.44909 12.9635C8.5097 12.9639 8.53478 13.0413 8.48608 13.0773L8.10953 13.3553L8.25072 13.8016C8.269 13.8594 8.20323 13.9072 8.15387 13.872L7.77306 13.5998L7.39225 13.872C7.34293 13.9072 7.27717 13.8594 7.2954 13.8016L7.43659 13.3553L7.06004 13.0773C7.01125 13.0413 7.03642 12.9639 7.09703 12.9635L7.56508 12.9599L7.71315 12.5158C7.73247 12.4583 7.81379 12.4583 7.83297 12.5158Z" fill="#4173CD"/>
<path d="M7.833 10.1323L7.98107 10.5764L8.44912 10.58C8.50973 10.5804 8.53481 10.6578 8.48611 10.6938L8.10956 10.9719L8.25075 11.4182C8.26903 11.4759 8.20326 11.5237 8.1539 11.4885L7.77309 11.2164L7.39228 11.4885C7.34297 11.5237 7.2772 11.4759 7.29543 11.4182L7.43662 10.9719L7.06008 10.6938C7.01128 10.6578 7.03645 10.5804 7.09706 10.58L7.56511 10.5764L7.71318 10.1323C7.7325 10.0748 7.81383 10.0748 7.833 10.1323Z" fill="#4173CD"/>
<path d="M16.2866 12.5158L16.4347 12.9599L16.9027 12.9635C16.9633 12.9639 16.9884 13.0413 16.9397 13.0773L16.5632 13.3553L16.7043 13.8016C16.7226 13.8594 16.6569 13.9072 16.6075 13.872L16.2267 13.5998L15.8459 13.872C15.7966 13.9072 15.7308 13.8594 15.749 13.8016L15.8902 13.3553L15.5137 13.0773C15.4649 13.0413 15.49 12.9639 15.5507 12.9635L16.0187 12.9599L16.1668 12.5158C16.1861 12.4583 16.2675 12.4583 16.2866 12.5158Z" fill="#4173CD"/>
<path d="M16.2866 10.1324L16.4347 10.5764L16.9027 10.5801C16.9633 10.5805 16.9884 10.6579 16.9397 10.6939L16.5632 10.9719L16.7043 11.4182C16.7226 11.476 16.6569 11.5238 16.6075 11.4886L16.2267 11.2164L15.8459 11.4886C15.7966 11.5238 15.7308 11.476 15.749 11.4182L15.8902 10.9719L15.5137 10.6939C15.4649 10.6579 15.49 10.5805 15.5507 10.5801L16.0187 10.5764L16.1668 10.1324C16.1861 10.0749 16.2675 10.0749 16.2866 10.1324Z" fill="#4173CD"/>
</svg>
