<svg xmlns="http://www.w3.org/2000/svg" width="24" height="24" viewBox="0 0 24 24" fill="none"><rect width="24" height="24" fill="none"/>
<path d="M0 18.0646C0 19.0573 0.804703 19.8621 1.79742 19.8621H22.2026C23.1952 19.8621 24 19.0574 24 18.0646V15.7241H0V18.0646Z" fill="#FF4B55"/>
<path d="M22.2026 4.13794H1.79742C0.804703 4.13794 0 4.94264 0 5.93536V8.27588H24V5.93536C24 4.94264 23.1953 4.13794 22.2026 4.13794Z" fill="#FF4B55"/>
<path d="M24 8.27576H0V15.7242H24V8.27576Z" fill="#F5F5F5"/>
<path d="M14.7279 10.9433L12.1013 12.0155C12.1002 12.0128 12.099 12.0104 12.0977 12.0079L14.6345 10.7374C14.5342 10.5372 14.4124 10.3497 14.271 10.1787L12.084 11.9874C12.0818 11.9847 12.0805 11.9812 12.078 11.9787L14.0829 9.97182C13.9399 9.82876 13.7818 9.70093 13.6119 9.58965L12.0597 11.9656C12.0562 11.9632 12.0531 11.9605 12.0492 11.9585L13.3174 9.42015C13.1138 9.31811 12.8966 9.23917 12.6694 9.18634L12.0249 11.9504C12.0167 11.9484 12.0089 11.9454 12 11.9454C11.9912 11.9454 11.9835 11.9484 11.9752 11.9504L11.3307 9.18634C11.1034 9.23917 10.8863 9.31806 10.6827 9.42015L11.9509 11.9585C11.9471 11.9605 11.9439 11.9632 11.9404 11.9656L10.3882 9.58965C10.2183 9.70098 10.0602 9.82881 9.91721 9.97182L11.922 11.9787C11.9196 11.9812 11.9184 11.9846 11.9161 11.9874L9.7291 10.1787C9.58772 10.3497 9.46589 10.5372 9.36558 10.7374L11.9024 12.0079C11.9011 12.0105 11.8999 12.0129 11.8988 12.0155L9.27216 10.9433C9.19299 11.1375 9.13411 11.342 9.09774 11.5543L11.8942 12.0385C11.8938 12.0409 11.893 12.0431 11.8928 12.0456L9.07003 11.7516C9.05986 11.8512 9.05461 11.9522 9.05461 12.0545C9.05461 12.2314 9.07106 12.4044 9.10097 12.5726L12 12.2727L14.8991 12.5726C14.929 12.4043 14.9454 12.2314 14.9454 12.0545C14.9454 11.9522 14.9401 11.8512 14.93 11.7516L12.1073 12.0456C12.1071 12.0431 12.1062 12.0409 12.1058 12.0385L14.9022 11.5543C14.866 11.342 14.8071 11.1375 14.7279 10.9433Z" fill="#FFB955"/>
<path d="M9.15329 12.8116C9.17349 12.8878 9.19684 12.9627 9.22285 13.0363H14.7773C14.8033 12.9627 14.8266 12.8878 14.8468 12.8116C14.5747 12.7765 14.5409 12.6 14.2094 12.6C13.8414 12.6 13.8414 12.8181 13.4733 12.8181C13.1053 12.8181 13.1053 12.6 12.7373 12.6C12.3691 12.6 12.3691 12.8181 12.0009 12.8181C11.633 12.8181 11.633 12.6 11.2651 12.6C10.8968 12.6 10.8968 12.8181 10.5286 12.8181C10.1601 12.8181 10.1601 12.6 9.79154 12.6C9.45962 12.6 9.42587 12.7765 9.15329 12.8116Z" fill="#4173CD"/>
<path d="M14.1226 13.3637C13.7683 13.3637 13.7682 13.1456 13.4139 13.1456C13.0595 13.1456 13.0595 13.3637 12.7051 13.3637C12.3506 13.3637 12.3506 13.1456 11.9962 13.1456C11.6417 13.1456 11.6417 13.3637 11.2872 13.3637C10.9329 13.3637 10.9329 13.1456 10.5786 13.1456C10.224 13.1456 10.224 13.3637 9.8694 13.3637C9.55477 13.3637 9.51859 13.1925 9.26724 13.1536C9.32724 13.3027 9.39835 13.4461 9.4809 13.5819H14.1224H14.1227H14.5191C14.6018 13.4458 14.6731 13.302 14.7331 13.1526C14.4743 13.1889 14.4405 13.3637 14.1226 13.3637Z" fill="#4173CD"/>
<path d="M14.4043 13.7551C14.3357 13.7192 14.2545 13.691 14.1276 13.691C13.7732 13.691 13.7732 13.9092 13.4187 13.9092C13.0643 13.9092 13.0643 13.691 12.7099 13.691C12.3554 13.691 12.3554 13.9092 12.0009 13.9092C11.6466 13.9092 11.6466 13.691 11.2923 13.691C10.9377 13.691 10.9377 13.9092 10.5831 13.9092C10.2282 13.9092 10.2282 13.691 9.87339 13.691C9.74603 13.691 9.6646 13.7193 9.59589 13.7554C9.68978 13.8878 9.79379 14.0124 9.90775 14.1274H14.0923C14.2063 14.0123 14.3104 13.8876 14.4043 13.7551Z" fill="#4173CD"/>
<path d="M13.815 14.3735C13.708 14.3114 13.6218 14.2365 13.4139 14.2365C13.0595 14.2365 13.0595 14.4546 12.7051 14.4546C12.3506 14.4546 12.3506 14.2365 11.9962 14.2365C11.6417 14.2365 11.6417 14.4546 11.2872 14.4546C10.9329 14.4546 10.9329 14.2365 10.5786 14.2365C10.3735 14.2365 10.2868 14.3094 10.1817 14.371C10.3277 14.4858 10.4847 14.5869 10.6511 14.6729H13.3488C13.514 14.5876 13.6699 14.4872 13.815 14.3735Z" fill="#4173CD"/>
<path d="M11.2923 14.7819C11.1761 14.7819 11.0983 14.8055 11.0333 14.837C11.3362 14.9421 11.6612 15.0001 12 15.0001H12.0005C11.6466 14.9999 11.6465 14.7819 11.2923 14.7819Z" fill="#4173CD"/>
<path d="M12.0026 15C12.3409 14.9997 12.6655 14.9418 12.9679 14.8365C12.9032 14.8053 12.8255 14.7819 12.7099 14.7819C12.356 14.7819 12.3553 14.9992 12.0026 15Z" fill="#4173CD"/>
<path d="M12.3876 11.6813L11.4542 11.4116C11.4018 11.3965 11.3655 11.3492 11.3648 11.2947C11.3605 10.9491 11.3455 9.73208 11.3455 9.54519C11.3455 9.32704 11.5637 8.99976 12.0001 8.99976H12.3441C12.3767 8.99976 12.3866 9.0441 12.3566 9.0569C12.199 9.12444 12.0001 9.26521 12.0001 9.54519C12.0001 9.87763 12.3167 10.0201 12.4675 10.0692C12.5141 10.0843 12.5456 10.1271 12.5456 10.1761V11.5626C12.5455 11.6449 12.4666 11.7042 12.3876 11.6813Z" fill="#FF4B55"/>
<path d="M11.5642 12.9023C11.5985 12.8816 11.639 12.9162 11.6236 12.9532C11.5323 13.1725 11.3083 13.5816 10.9091 13.5816C10.3637 13.5816 10.2545 13.1452 10.2545 12.818V10.504C10.2545 10.4565 10.2931 10.418 10.3406 10.418H10.4958C10.5433 10.418 10.5818 10.4565 10.5818 10.504V12.7089C10.5819 13.0038 11.2022 13.1216 11.5642 12.9023Z" fill="#FF4B55"/>
<path d="M12.3901 12.9023C12.3559 12.8816 12.3153 12.9162 12.3307 12.9532C12.4221 13.1725 12.646 13.5816 13.0452 13.5816C13.5907 13.5816 13.6998 13.1452 13.6998 12.818V10.504C13.6998 10.4565 13.6613 10.418 13.6138 10.418H13.4586C13.4111 10.418 13.3726 10.4565 13.3726 10.504V12.7089C13.3725 13.0038 12.7522 13.1216 12.3901 12.9023Z" fill="#FF4B55"/>
<path d="M13.1473 12.5453H10.8527C10.8236 12.5453 10.8 12.5217 10.8 12.4927V12.4889C10.8 12.4598 10.8236 12.4362 10.8527 12.4362H13.1473C13.1764 12.4362 13.2 12.4598 13.2 12.4889V12.4927C13.2 12.5218 13.1764 12.5453 13.1473 12.5453Z" fill="#AA4650"/>
<path d="M11.0318 12.1336L11.1499 11.9761C11.168 11.9521 11.1631 11.9178 11.139 11.8997C11.115 11.8817 11.0807 11.8867 11.0626 11.9107L11.0167 11.972V11.9297C11.0167 11.8995 10.9922 11.8751 10.9621 11.8751C10.932 11.8751 10.9075 11.8995 10.9075 11.9297V11.9681L10.8646 11.9107C10.8465 11.8867 10.8123 11.8817 10.7882 11.8998C10.7641 11.9179 10.7592 11.9521 10.7773 11.9762L10.8954 12.1337L10.7773 12.2912C10.7592 12.3152 10.7641 12.3495 10.7882 12.3676C10.798 12.375 10.8095 12.3785 10.8208 12.3785C10.8374 12.3785 10.8538 12.3709 10.8645 12.3566L10.9635 12.2246L11.0625 12.3566C11.0731 12.3709 11.0895 12.3785 11.1061 12.3785C11.1175 12.3785 11.129 12.375 11.1387 12.3676C11.1629 12.3495 11.1677 12.3153 11.1496 12.2912L11.0318 12.1336Z" fill="#AA4650"/>
<path d="M12.0499 12.1335L12.1681 11.976C12.1862 11.952 12.1812 11.9177 12.1571 11.8996C12.1331 11.8816 12.0988 11.8866 12.0808 11.9106L12.0348 11.9719V11.9296C12.0348 11.8994 12.0104 11.875 11.9802 11.875C11.9501 11.875 11.9257 11.8994 11.9257 11.9296V11.968L11.8827 11.9106C11.8646 11.8866 11.8305 11.8816 11.8063 11.8997C11.7822 11.9178 11.7773 11.952 11.7954 11.9761L11.9135 12.1336L11.7954 12.2911C11.7773 12.3151 11.7822 12.3494 11.8063 12.3675C11.8161 12.3748 11.8276 12.3783 11.839 12.3783C11.8556 12.3783 11.8719 12.3708 11.8826 12.3565L11.9816 12.2245L12.0806 12.3565C12.0913 12.3708 12.1076 12.3783 12.1242 12.3783C12.1356 12.3783 12.1471 12.3748 12.1569 12.3675C12.181 12.3494 12.1859 12.3152 12.1678 12.2911L12.0499 12.1335Z" fill="#AA4650"/>
<path d="M11.5409 12.1335L11.659 11.976C11.6771 11.952 11.6722 11.9177 11.6481 11.8996C11.6241 11.8816 11.5898 11.8866 11.5717 11.9106L11.5258 11.9719V11.9296C11.5258 11.8994 11.5013 11.875 11.4712 11.875C11.4411 11.875 11.4166 11.8994 11.4166 11.9296V11.968L11.3736 11.9106C11.3556 11.8866 11.3214 11.8816 11.2973 11.8997C11.2731 11.9178 11.2683 11.952 11.2864 11.9761L11.4045 12.1336L11.2864 12.2911C11.2683 12.3151 11.2732 12.3494 11.2973 12.3675C11.3071 12.3748 11.3186 12.3783 11.3299 12.3783C11.3465 12.3783 11.3629 12.3708 11.3736 12.3565L11.4726 12.2245L11.5716 12.3565C11.5822 12.3708 11.5986 12.3783 11.6152 12.3783C11.6266 12.3783 11.6381 12.3748 11.6478 12.3675C11.672 12.3494 11.6768 12.3152 11.6587 12.2911L11.5409 12.1335Z" fill="#AA4650"/>
<path d="M12.5591 12.1335L12.6772 11.976C12.6953 11.952 12.6904 11.9177 12.6663 11.8996C12.6422 11.8816 12.608 11.8866 12.5899 11.9106L12.5439 11.9719V11.9296C12.5439 11.8994 12.5195 11.875 12.4894 11.875C12.4592 11.875 12.4348 11.8994 12.4348 11.9296V11.968L12.3918 11.9106C12.3738 11.8866 12.3396 11.8816 12.3155 11.8997C12.2913 11.9178 12.2864 11.952 12.3045 11.9761L12.4227 12.1336L12.3045 12.2911C12.2864 12.3151 12.2914 12.3494 12.3155 12.3675C12.3253 12.3748 12.3367 12.3783 12.3481 12.3783C12.3647 12.3783 12.381 12.3708 12.3917 12.3565L12.4907 12.2245L12.5897 12.3565C12.6004 12.3708 12.6168 12.3783 12.6334 12.3783C12.6448 12.3783 12.6562 12.3748 12.666 12.3675C12.6901 12.3494 12.695 12.3152 12.6769 12.2911L12.5591 12.1335Z" fill="#AA4650"/>
<path d="M13.0681 12.1335L13.1862 11.976C13.2043 11.952 13.1994 11.9177 13.1753 11.8996C13.1513 11.8816 13.117 11.8866 13.099 11.9106L13.053 11.9719V11.9296C13.053 11.8994 13.0286 11.875 12.9984 11.875C12.9683 11.875 12.9439 11.8994 12.9439 11.9296V11.968L12.9009 11.9106C12.8828 11.8866 12.8486 11.8816 12.8245 11.8997C12.8004 11.9178 12.7955 11.952 12.8136 11.9761L12.9317 12.1336L12.8136 12.2911C12.7955 12.3151 12.8004 12.3494 12.8245 12.3675C12.8343 12.3748 12.8458 12.3783 12.8571 12.3783C12.8737 12.3783 12.8901 12.3708 12.9008 12.3565L12.9998 12.2245L13.0988 12.3565C13.1095 12.3708 13.1258 12.3783 13.1424 12.3783C13.1538 12.3783 13.1653 12.3748 13.175 12.3675C13.1992 12.3494 13.2041 12.3152 13.186 12.2911L13.0681 12.1335Z" fill="#AA4650"/>
<path d="M10.931 12.8822C11.0117 12.9175 11.4857 12.9226 11.6067 12.7966C11.7276 12.6705 11.7025 12.6151 11.7025 12.6151L11.1276 12.6201L10.931 12.8822Z" fill="#AA4650"/>
<path d="M13.0459 12.8822C12.9652 12.9175 12.4912 12.9226 12.3702 12.7966C12.2493 12.6705 12.2744 12.6151 12.2744 12.6151L12.8493 12.6201L13.0459 12.8822Z" fill="#AA4650"/>
</svg>
