<svg xmlns="http://www.w3.org/2000/svg" width="24" height="24" viewBox="0 0 24 24" fill="none"><rect width="24" height="24" fill="none"/>
<path d="M22.2026 4.13792H1.79742C0.804703 4.13792 0 4.94263 0 5.93535V9.3793H24V5.93535C24 4.94263 23.1953 4.13792 22.2026 4.13792Z" fill="#F5F5F5"/>
<path d="M0 18.0647C0 19.0573 0.804703 19.8621 1.79742 19.8621H22.2026C23.1952 19.8621 24 19.0574 24 18.0647V14.6207H0V18.0647Z" fill="#FF4B55"/>
<path d="M24 9.37921H0V14.6203H24V9.37921Z" fill="#41479B"/>
<path d="M6.1043 15.904C5.98181 15.8336 3.10345 14.1595 3.10345 11.5862V8.06897H9.31036V11.5862C9.31036 14.1595 6.432 15.8336 6.30952 15.904L6.20691 15.9625L6.1043 15.904Z" fill="#FF4B55"/>
<path d="M7.83252 10.9655L6.8571 11.094H6.53202V10.5119H6.72707L7.50739 10.6404L7.40169 10.1868L7.50739 9.73317L6.72707 9.8616H6.53202V9.66501L6.6605 8.68964L6.20689 8.82178L5.75328 8.68964L5.88177 9.66501V9.8616H5.68663L4.90639 9.73317L5.01205 10.1868L4.90639 10.6404L5.68663 10.5119H5.88177V11.094H5.55664L4.58127 10.9655L4.71336 11.4191L4.58127 11.8727L5.55664 11.7442H5.88177V13.2414H6.53202V11.7442H6.8571L7.83252 11.8727L7.70042 11.4191L7.83252 10.9655Z" fill="#F5F5F5"/>
<path d="M6.2069 12.6207C5.7795 12.6207 5.41294 12.88 5.25525 13.2497C5.2274 13.2474 5.20078 13.2413 5.17242 13.2413C4.62159 13.2413 4.17558 13.6731 4.14398 14.2159C4.98187 15.2474 6.03136 15.862 6.10429 15.9039L6.2069 15.9625L6.30951 15.9039C6.38245 15.862 7.43194 15.2474 8.26983 14.2159C8.23828 13.6731 7.79222 13.2413 7.24139 13.2413C7.21303 13.2413 7.18636 13.2474 7.15856 13.2497C7.00087 12.88 6.63431 12.6207 6.2069 12.6207Z" fill="#41479B"/>
<path d="M9.10345 8.27587C9.10345 8.27587 9.10345 10.7587 9.10345 11.5862C9.10345 14.069 6.2069 15.7242 6.2069 15.7242C6.2069 15.7242 3.31036 14.069 3.31036 11.5862C3.31036 10.7587 3.31036 8.27587 3.31036 8.27587H9.10345V8.27587ZM9.51722 7.86206H9.1034H3.31036H2.89655V8.27587V11.5862C2.89655 14.2782 5.87484 16.011 6.00159 16.0834L6.2069 16.2007L6.41222 16.0834C6.53901 16.011 9.51726 14.2781 9.51726 11.5862V8.27587V7.86206H9.51722V7.86206Z" fill="#F5F5F5"/>
</svg>
