<svg xmlns="http://www.w3.org/2000/svg" width="24" height="24" viewBox="0 0 24 24" fill="none"><rect width="24" height="24" fill="none"/>
<path d="M22.2024 4.13702H1.79494C0.834703 4.13702 0.0504844 4.88988 0 5.83751V18.1625C0.0504844 19.1101 0.834703 19.863 1.79494 19.863H22.2024C23.1952 19.863 24 19.0582 24 18.0654V5.93463C24 4.94182 23.1952 4.13702 22.2024 4.13702Z" fill="#464655"/>
<path d="M0 18.1625C0.0117656 18.3827 0.063375 18.5923 0.147375 18.7846L11.694 12.4138H24V11.5862H11.694L0.147375 5.21539C0.0633281 5.40763 0.0117188 5.61716 0 5.83742V6.07958L10.7308 11.9999L0 17.9203V18.1625Z" fill="#FFE15A"/>
<path d="M24 13.2415H12.0014L0.689672 19.4825C0.994641 19.7206 1.37803 19.8629 1.79494 19.8629H22.2024C23.1952 19.8629 24 19.0581 24 18.0653V13.2415V13.2415Z" fill="#73AF00"/>
<path d="M22.2024 4.13702H1.79494C1.37803 4.13702 0.994594 4.27934 0.689672 4.51751L12.0014 10.7584H24V5.93463C24 4.94182 23.1952 4.13702 22.2024 4.13702Z" fill="#FF4B55"/>
<path d="M3.58411 9.67883C2.40248 9.30711 1.5104 10.1657 1.30654 10.6077C1.13386 10.9821 0.813138 12.6782 2.412 12.9487C4.01081 13.2192 3.99281 11.7105 3.99281 11.7105C3.92072 11.9509 3.79143 12.6361 2.63733 12.6361C2.20443 12.6361 1.58245 11.993 1.69968 11.2837C1.80998 10.6163 2.40614 10.2749 2.85679 10.2559C3.2835 10.2379 4.27828 10.5324 4.27828 11.7436C4.27828 13.105 2.87517 13.2583 2.87517 13.2583V14.0803C4.09654 13.9606 4.78772 13.2841 4.97072 12.2003C5.15292 11.1215 4.78551 10.0568 3.58411 9.67883Z" fill="#FFE15A"/>
<path d="M2.27571 11.6973C2.24782 11.7327 2.23296 11.7767 2.23226 11.8217L2.22879 12.0428L2.18576 12.1179C2.17024 12.145 2.17943 12.1796 2.20643 12.1953C2.23376 12.2113 2.26882 12.2019 2.28452 12.1744L2.32863 12.0972L2.50516 12.0333C2.55865 12.0139 2.60163 11.9737 2.62493 11.9218C2.67106 11.8188 2.77015 11.6297 2.93065 11.4324C3.09115 11.6297 3.19024 11.8188 3.23637 11.9218C3.25962 11.9737 3.3026 12.0139 3.35609 12.0333L3.53271 12.0972L3.57682 12.1744C3.59248 12.2019 3.62763 12.2113 3.65491 12.1953C3.68191 12.1795 3.6911 12.145 3.67559 12.1179L3.63256 12.0428L3.62909 11.8217C3.62838 11.7767 3.61352 11.7327 3.58563 11.6973C3.43774 11.5095 3.28038 11.3617 3.12532 11.2311C3.24921 11.1146 3.38932 11.0034 3.56571 10.9176C3.60654 10.8977 3.62787 10.8519 3.61732 10.8078C3.60293 10.7475 3.53702 10.7159 3.48087 10.7421C3.3626 10.7971 3.15931 10.9057 2.9306 11.0724C2.70185 10.9057 2.4986 10.7972 2.38034 10.7421C2.32418 10.7159 2.25827 10.7475 2.24388 10.8078C2.23338 10.8519 2.25471 10.8977 2.29545 10.9176C2.47188 11.0034 2.61199 11.1147 2.73588 11.2311C2.58101 11.3617 2.42365 11.5094 2.27571 11.6973Z" fill="#FFE15A"/>
</svg>
