<svg xmlns="http://www.w3.org/2000/svg" width="24" height="24" viewBox="0 0 24 24" fill="none"><rect width="24" height="24" fill="none"/>
<path d="M0 18.0647C0 19.0573 0.804703 19.8621 1.79742 19.8621H22.2026C23.1952 19.8621 24 19.0574 24 18.0647V14.6207H0V18.0647Z" fill="#73AF00"/>
<path d="M22.2026 4.13793H1.79742C0.804703 4.13793 0 4.94263 0 5.93535V9.37931H24V5.93535C24 4.94263 23.1953 4.13793 22.2026 4.13793Z" fill="#464655"/>
<path d="M24 9.37921H0V14.6203H24V9.37921Z" fill="#C8414B"/>
<path d="M24 9.10372H0V9.9313H24V9.10372Z" fill="#F5F5F5"/>
<path d="M24 14.0692H0V14.8968H24V14.0692Z" fill="#F5F5F5"/>
<path d="M14.2157 8.51346C14.5489 7.82642 14.8965 6.23487 14.8965 6.23487C14.8965 6.23487 13.8619 7.49323 13.5286 8.18023C13.4588 8.32423 13.4884 8.48984 13.5893 8.60187L9.79397 16.4269L10.0516 16.5519L13.8469 8.72684C13.9975 8.73673 14.1459 8.65746 14.2157 8.51346Z" fill="#F5F5F5"/>
<path d="M9.78431 8.51346C9.45113 7.82642 9.10345 6.23487 9.10345 6.23487C9.10345 6.23487 10.1381 7.49323 10.4713 8.18023C10.5412 8.32423 10.5115 8.48984 10.4107 8.60187L14.206 16.4269L13.9484 16.5519L10.153 8.72684C10.0025 8.73673 9.85411 8.65746 9.78431 8.51346Z" fill="#F5F5F5"/>
<path d="M14.069 12C14.069 14.2853 12.3809 16.1379 12 16.1379C11.6191 16.1379 9.93103 14.2853 9.93103 12C9.93103 9.71466 11.6191 7.86207 12 7.86207C12.3809 7.86207 14.069 9.71466 14.069 12Z" fill="#C8414B"/>
<path d="M13.655 13.9964C13.8987 13.4043 14.0688 12.7242 14.0688 11.9999C14.0688 11.2756 13.8988 10.5956 13.655 10.0035C13.4113 10.5955 13.2412 11.2756 13.2412 11.9999C13.2412 12.7242 13.4113 13.4042 13.655 13.9964Z" fill="#464655"/>
<path d="M10.3448 10.0036C10.1011 10.5956 9.93103 11.2757 9.93103 12C9.93103 12.7242 10.1011 13.4043 10.3448 13.9965C10.5885 13.4044 10.7587 12.7243 10.7587 12C10.7587 11.2757 10.5885 10.5957 10.3448 10.0036Z" fill="#464655"/>
<path d="M12 12.6207C12.2285 12.6207 12.4138 12.3428 12.4138 12C12.4138 11.6572 12.2285 11.3794 12 11.3794C11.7715 11.3794 11.5862 11.6572 11.5862 12C11.5862 12.3428 11.7715 12.6207 12 12.6207Z" fill="#F5F5F5"/>
<path d="M12.0621 7.86208V11.3793C12.1749 11.1445 12.375 10.4505 12.375 9.62069C12.375 8.79086 12.1749 8.09693 12.0621 7.86208Z" fill="#F5F5F5"/>
<path d="M11.9379 7.86208C11.8251 8.09693 11.625 8.79086 11.625 9.62069C11.625 10.4505 11.8251 11.1445 11.9379 11.3793V7.86208Z" fill="#F5F5F5"/>
<path d="M12.0621 12.6207V16.1379C12.1749 15.9031 12.375 15.2091 12.375 14.3793C12.375 13.5495 12.1749 12.8555 12.0621 12.6207Z" fill="#F5F5F5"/>
<path d="M11.9379 12.6207C11.8251 12.8555 11.625 13.5495 11.625 14.3793C11.625 15.2091 11.8251 15.9031 11.9379 16.1379V12.6207Z" fill="#F5F5F5"/>
</svg>
