<svg xmlns="http://www.w3.org/2000/svg" width="24" height="24" viewBox="0 0 24 24" fill="none"><rect width="24" height="24" fill="none"/>
<path d="M22.2025 19.8621H1.79742C0.804703 19.8621 0 19.0574 0 18.0646V5.93536C0 4.94269 0.804703 4.13794 1.79742 4.13794H22.2025C23.1952 4.13794 24 4.94264 24 5.93536V18.0646C24 19.0574 23.1952 19.8621 22.2025 19.8621Z" fill="#41479B"/>
<path d="M24 11.1722H0V12.8274H24V11.1722Z" fill="#FFE15A"/>
<path d="M5.58619 14.4828L5.82717 15.4456L6.51722 14.7323L6.24455 15.6865L7.19878 15.4138L6.48553 16.1039L7.44825 16.3449L6.48553 16.5858L7.19878 17.2759L6.24455 17.0032L6.51722 17.9574L5.82717 17.2442L5.58619 18.2069L5.3452 17.2442L4.65516 17.9574L4.92787 17.0032L3.97359 17.2759L4.68689 16.5858L3.72412 16.3449L4.68689 16.1039L3.97359 15.4138L4.92787 15.6865L4.65516 14.7323L5.3452 15.4456L5.58619 14.4828Z" fill="#F5F5F5"/>
</svg>
