<svg xmlns="http://www.w3.org/2000/svg" width="24" height="24" viewBox="0 0 24 24" fill="none"><rect width="24" height="24" fill="none"/>
<path d="M22.2026 19.8621H1.79742C0.804703 19.8621 0 19.0574 0 18.0646V5.93536C0 4.94269 0.804703 4.13794 1.79742 4.13794H22.2026C23.1952 4.13794 24 4.94264 24 5.93536V18.0647C24 19.0574 23.1953 19.8621 22.2026 19.8621Z" fill="#41479B"/>
<path d="M22.3449 17.3794H5.79312C5.5646 17.3794 5.3793 17.1941 5.3793 16.9656C5.3793 16.7371 5.5646 16.5518 5.79312 16.5518H22.3449L22.7587 16.9656L22.3449 17.3794Z" fill="#FFE15A"/>
<path d="M22.5517 16.138H5.79311C5.79311 16.138 12.4138 8.6897 18.6207 7.03455C18.6207 7.03455 16.5517 12.4139 21.5172 15.7242H22.5517C22.666 15.7242 22.7586 15.8168 22.7586 15.9311C22.7586 16.0454 22.666 16.138 22.5517 16.138Z" fill="#FFE15A"/>
<path d="M5.07008 13.7429L5.23063 14.2244L5.7381 14.2283C5.80377 14.2288 5.83105 14.3127 5.77818 14.3517L5.3699 14.6531L5.52299 15.137C5.54282 15.1997 5.47147 15.2515 5.41804 15.2133L5.00516 14.9182L4.59229 15.2133C4.53885 15.2515 4.46751 15.1997 4.48733 15.137L4.64043 14.6531L4.23215 14.3517C4.17927 14.3126 4.20655 14.2288 4.27222 14.2283L4.77969 14.2244L4.94024 13.7429C4.9611 13.6806 5.04932 13.6806 5.07008 13.7429Z" fill="#F5F5F5"/>
<path d="M5.05786 7.12402L5.18807 7.51458L5.59978 7.51777C5.65312 7.51819 5.6752 7.58621 5.63231 7.61785L5.30114 7.86244L5.42531 8.25497C5.44139 8.30583 5.3835 8.34783 5.34018 8.31685L5.00522 8.07741L4.67025 8.31685C4.62689 8.34783 4.56904 8.30578 4.58512 8.25497L4.70929 7.86244L4.37812 7.61785C4.33523 7.58621 4.35731 7.51819 4.41065 7.51777L4.82236 7.51458L4.95257 7.12402C4.96945 7.07349 5.04098 7.07349 5.05786 7.12402Z" fill="#F5F5F5"/>
<path d="M1.9387 9.54092L2.06892 9.93149L2.48062 9.93467C2.53397 9.9351 2.55604 10.0031 2.51315 10.0348L2.18198 10.2793L2.30615 10.6719C2.32223 10.7227 2.26434 10.7647 2.22103 10.7338L1.88606 10.4943L1.55109 10.7338C1.50773 10.7647 1.44989 10.7227 1.46597 10.6719L1.59014 10.2793L1.25897 10.0348C1.21608 10.0031 1.23815 9.9351 1.2915 9.93467L1.7032 9.93149L1.83342 9.54092C1.85034 9.49035 1.92187 9.49035 1.9387 9.54092Z" fill="#F5F5F5"/>
<path d="M7.28855 9.37607L7.38877 9.67663L7.7056 9.67907C7.74661 9.6794 7.76363 9.73171 7.73063 9.75608L7.47572 9.94429L7.5713 10.2463C7.58368 10.2854 7.53914 10.3178 7.50577 10.2939L7.24805 10.1097L6.99033 10.2939C6.95696 10.3178 6.91243 10.2854 6.9248 10.2463L7.02038 9.94429L6.76547 9.75608C6.73247 9.73171 6.74949 9.6794 6.7905 9.67907L7.10733 9.67663L7.20755 9.37607C7.22053 9.33721 7.27557 9.33721 7.28855 9.37607Z" fill="#F5F5F5"/>
</svg>
