<svg xmlns="http://www.w3.org/2000/svg" width="24" height="24" viewBox="0 0 24 24" fill="none"><rect width="24" height="24" fill="none"/>
<path d="M22.2026 19.8621H1.79742C0.804703 19.8621 0 19.0574 0 18.0646V5.93536C0 4.94269 0.804703 4.13794 1.79742 4.13794H22.2026C23.1952 4.13794 24 4.94264 24 5.93536V18.0647C24 19.0574 23.1953 19.8621 22.2026 19.8621Z" fill="#3CC8FF"/>
<path d="M12.0027 5.37927L6.20959 18.6206H17.7958L12.0027 5.37927Z" fill="#464655"/>
<path d="M12.0027 7.44398L16.5304 17.793H7.47499L12.0027 7.44398ZM12.0027 5.37927L6.20959 18.6206H17.7958L12.0027 5.37927Z" fill="#F5F5F5"/>
<path d="M6.20959 18.6207L12.0027 12L17.7958 18.6207H6.20959Z" fill="#FFE15A"/>
</svg>
