<svg xmlns="http://www.w3.org/2000/svg" width="24" height="24" viewBox="0 0 24 24" fill="none"><rect width="24" height="24" fill="none"/>
<path d="M1.79742 19.8619H8.00002V4.1378H1.79742C0.804703 4.1378 0 4.9425 0 5.93522V18.0646C0 19.0572 0.804703 19.8619 1.79742 19.8619Z" fill="#41479B"/>
<path d="M16.0003 4.13799H8.00015V19.8622H16.0003V4.13799Z" fill="#FFE15A"/>
<path d="M22.2026 19.8619C23.1952 19.8619 24 19.0572 24 18.0645V5.93522C24 4.94255 23.1953 4.1378 22.2026 4.1378H16V19.8619H22.2026Z" fill="#41479B"/>
<path d="M15.3104 9.71498C15.3104 9.71498 14.1589 9.71498 13.2953 10.5786H13.871C13.871 10.5786 13.3133 11.586 13.0254 13.3132L12.4318 13.2163V10.5699L13.0074 10.7584L12 8.27573L10.9925 10.7585L11.5682 10.5666V13.2163L10.9745 13.3132C10.6867 11.5861 10.1289 10.5786 10.1289 10.5786H10.7046C9.84107 9.71502 8.68964 9.71502 8.68964 9.71502C10.1289 11.4421 10.1289 14.3207 10.1289 14.3207L11.5682 14.0809V16.0479H12.4318V14.0809L13.8711 14.3207C13.8711 14.3207 13.8711 11.4421 15.3104 9.71498Z" fill="#464655"/>
</svg>
