<svg xmlns="http://www.w3.org/2000/svg" width="24" height="24" viewBox="0 0 24 24" fill="none"><rect width="24" height="24" fill="none"/>
<path d="M22.2026 19.8621H1.79742C0.804703 19.8621 0 19.0574 0 18.0646V5.93536C0 4.94269 0.804703 4.13794 1.79742 4.13794H22.2026C23.1952 4.13794 24 4.94264 24 5.93536V18.0647C24 19.0574 23.1953 19.8621 22.2026 19.8621Z" fill="#FF4B55"/>
<path d="M16.5517 10.3448H13.6552V7.4483C13.6552 7.21978 13.4699 7.03448 13.2413 7.03448H10.7586C10.53 7.03448 10.3448 7.21978 10.3448 7.4483V10.3448H7.44821C7.21969 10.3448 7.03439 10.5301 7.03439 10.7587V13.2414C7.03439 13.47 7.21969 13.6553 7.44821 13.6553H10.3448V16.5518C10.3448 16.7803 10.53 16.9656 10.7586 16.9656H13.2413C13.4699 16.9656 13.6552 16.7803 13.6552 16.5518V13.6552H16.5517C16.7802 13.6552 16.9655 13.4699 16.9655 13.2413V10.7586C16.9655 10.5301 16.7802 10.3448 16.5517 10.3448Z" fill="#F5F5F5"/>
</svg>
