<svg xmlns="http://www.w3.org/2000/svg" width="24" height="24" viewBox="0 0 24 24" fill="none"><rect width="24" height="24" fill="none"/>
<path d="M22.2002 19.8612H1.7972C0.804614 19.8612 0 19.0566 0 18.064V5.936C0 4.94342 0.804614 4.13881 1.7972 4.13881H22.2002C23.1928 4.13881 23.9974 4.94342 23.9974 5.936V18.064C23.9974 19.0566 23.1928 19.8612 22.2002 19.8612Z" fill="#4173CD"/>
<path d="M24 14.8965H0.00268555V15.7239H24V14.8965Z" fill="#FFE15A"/>
<path d="M24 16.5517H0.00268555V17.3792H24V16.5517Z" fill="#FFE15A"/>
<path d="M3.06011 8.24766L1.52054 7.72195L3.06011 7.19625L3.58586 5.65682L4.11157 7.19625L5.65114 7.72195L4.11157 8.24766L3.58586 9.78714L3.06011 8.24766Z" fill="#FF4B55"/>
<path d="M3.58586 5.93347L4.04116 7.26665L5.37434 7.72195L4.04116 8.17725L3.58586 9.51043L3.13056 8.17725L1.79738 7.72195L3.13056 7.26665L3.58586 5.93347ZM3.58586 5.38002L3.4166 5.87563L2.9897 7.12579L1.73954 7.55269L1.24393 7.7219L1.73954 7.89112L2.9897 8.31802L3.4166 9.56818L3.58586 10.0638L3.75513 9.56818L4.18202 8.31802L5.43219 7.89112L5.9278 7.7219L5.43219 7.55269L4.18202 7.12579L3.75513 5.87568L3.58586 5.38002Z" fill="#F5F5F5"/>
</svg>
