<svg xmlns="http://www.w3.org/2000/svg" width="24" height="24" viewBox="0 0 24 24" fill="none"><rect width="24" height="24" fill="none"/>
<path d="M22.2026 4.13793H1.79742C0.804703 4.13793 0 4.94263 0 5.93535V9.37931H24V5.93535C24 4.94263 23.1953 4.13793 22.2026 4.13793Z" fill="#FF4B55"/>
<path d="M0 18.0647C0 19.0573 0.804703 19.8621 1.79742 19.8621H22.2026C23.1952 19.8621 24 19.0574 24 18.0647V14.6207H0V18.0647Z" fill="#73AF00"/>
<path d="M24 9.37922H0V14.6203H24V9.37922Z" fill="#FFE15A"/>
<path d="M12.1745 10.027L12.6063 11.3218L13.9712 11.3324C14.1479 11.3338 14.2212 11.5593 14.0791 11.6643L12.9811 12.4751L13.3928 13.7765C13.4461 13.945 13.2543 14.0844 13.1105 13.9816L12 13.1878L10.8895 13.9815C10.7458 14.0843 10.554 13.9449 10.6072 13.7764L11.0189 12.475L9.92091 11.6642C9.77879 11.5592 9.85201 11.3337 10.0288 11.3323L11.3937 11.3217L11.8255 10.0269C11.8815 9.85932 12.1186 9.85932 12.1745 10.027Z" fill="#464655"/>
</svg>
