<svg xmlns="http://www.w3.org/2000/svg" width="24" height="24" viewBox="0 0 24 24" fill="none"><rect width="24" height="24" fill="none"/>
<path d="M0 18.0646C0 19.0573 0.804703 19.8621 1.79742 19.8621H22.2026C23.1952 19.8621 24 19.0574 24 18.0646V16.5517H0V18.0646Z" fill="#C8414B"/>
<path d="M22.2026 4.13794H1.79742C0.804703 4.13794 0 4.94264 0 5.93536V7.4483H24V5.93536C24 4.94264 23.1953 4.13794 22.2026 4.13794Z" fill="#C8414B"/>
<path d="M24 7.44843H0V16.552H24V7.44843Z" fill="#FFD250"/>
<path d="M10.1379 12L10.4888 10.4212C10.5211 10.2758 10.4105 10.1379 10.2615 10.1379H10.0144C9.86545 10.1379 9.75483 10.2758 9.78708 10.4212L10.1379 12Z" fill="#C8414B"/>
<path d="M10.5518 11.1722H9.72422V14.6892H10.5518V11.1722Z" fill="#F5F5F5"/>
<path d="M10.7584 10.7588H9.51703V11.1726H10.7584V10.7588Z" fill="#FAB446"/>
<path d="M10.7588 11.9999H8.68977V12.4138H10.7588V11.9999Z" fill="#C8414B"/>
<path d="M10.7587 13.6551L9.5173 13.2413V12.8275L10.7587 13.2413V13.6551Z" fill="#C8414B"/>
<path d="M3.93103 12L4.28189 10.4212C4.31423 10.2758 4.20356 10.1379 4.05459 10.1379H3.80747C3.65855 10.1379 3.54792 10.2758 3.58017 10.4212L3.93103 12Z" fill="#C8414B"/>
<path d="M5.37932 10.7586C5.15081 10.7586 4.96551 10.9439 4.96551 11.1724V13.8621C4.96551 14.3648 5.43473 15.3104 7.03448 15.3104C8.63423 15.3104 9.10345 14.3648 9.10345 13.8621V11.1724C9.10345 10.9439 8.91815 10.7586 8.68964 10.7586H5.37932Z" fill="#F5F5F5"/>
<path d="M7.03448 12.8276H4.96551V11.1724C4.96551 10.9439 5.15081 10.7586 5.37932 10.7586H7.03448V12.8276Z" fill="#C8414B"/>
<path d="M7.03441 12.8277H9.10338V13.8622C9.10338 14.4335 8.64026 14.8966 8.0689 14.8966C7.49754 14.8966 7.03441 14.4335 7.03441 13.8622V12.8277V12.8277Z" fill="#C8414B"/>
<path d="M4.96551 12.8276H7.03448V13.8621C7.03448 14.4334 6.57136 14.8965 6 14.8965C5.42864 14.8965 4.96551 14.4334 4.96551 13.8621V12.8276V12.8276Z" fill="#FAB446"/>
<path d="M6.62057 14.6852V12.8278H6.20675V14.8759C6.36069 14.8446 6.49977 14.7765 6.62057 14.6852Z" fill="#C8414B"/>
<path d="M5.7931 14.8757V12.8276H5.37928V14.685C5.50013 14.7763 5.63921 14.8445 5.7931 14.8757Z" fill="#C8414B"/>
<path d="M6.62077 12H5.37938V12.4138H6.62077V12Z" fill="#FFB441"/>
<path d="M6.62077 11.1722H5.37938V11.586H6.62077V11.1722Z" fill="#FAB446"/>
<path d="M6.41365 11.4183H5.58607V12.168H6.41365V11.4183Z" fill="#FAB446"/>
<path d="M4.34461 11.1722H3.51703V14.6892H4.34461V11.1722Z" fill="#F5F5F5"/>
<path d="M4.55172 14.4832H3.31033V14.897H4.55172V14.4832Z" fill="#FAB446"/>
<path d="M4.55171 10.7588H3.31032V11.1726H4.55171V10.7588Z" fill="#FAB446"/>
<path d="M4.75875 14.8964H3.10359V15.3102H4.75875V14.8964Z" fill="#5064AA"/>
<path d="M10.9656 14.483H9.72422V14.8968H10.9656V14.483Z" fill="#FAB446"/>
<path d="M10.9655 14.8964H9.31032V15.3102H10.9655V14.8964Z" fill="#5064AA"/>
<path d="M8.27607 10.3448H5.79329V10.7587H8.27607V10.3448Z" fill="#FAB446"/>
<path d="M7.24162 9.10361H6.82781V10.345H7.24162V9.10361Z" fill="#FFB441"/>
<path d="M6.62073 9.72425C6.27845 9.72425 6.00006 9.44582 6.00006 9.10358C6.00006 8.7613 6.27849 8.48291 6.62073 8.48291C6.96301 8.48291 7.2414 8.76135 7.2414 9.10358C7.24145 9.44582 6.96301 9.72425 6.62073 9.72425ZM6.62073 8.89668C6.50659 8.89668 6.41382 8.98939 6.41382 9.10358C6.41382 9.21772 6.50654 9.31049 6.62073 9.31049C6.73492 9.31049 6.82764 9.21777 6.82764 9.10358C6.82764 8.98944 6.73492 8.89668 6.62073 8.89668Z" fill="#F5F5F5"/>
<path d="M7.44835 9.72425C7.10607 9.72425 6.82768 9.44582 6.82768 9.10358C6.82768 8.7613 7.10612 8.48291 7.44835 8.48291C7.79064 8.48291 8.06903 8.76135 8.06903 9.10358C8.06903 9.44582 7.79059 9.72425 7.44835 9.72425ZM7.44835 8.89668C7.33421 8.89668 7.24145 8.98939 7.24145 9.10358C7.24145 9.21772 7.33417 9.31049 7.44835 9.31049C7.56249 9.31049 7.65526 9.21777 7.65526 9.10358C7.65521 8.98944 7.56249 8.89668 7.44835 8.89668Z" fill="#F5F5F5"/>
<path d="M8.27593 10.1381C7.93365 10.1381 7.65526 9.85963 7.65526 9.5174C7.65526 9.17512 7.9337 8.89673 8.27593 8.89673C8.61821 8.89673 8.89661 9.17517 8.89661 9.5174C8.89661 9.85963 8.61817 10.1381 8.27593 10.1381ZM8.27593 9.31049C8.16179 9.31049 8.06903 9.40321 8.06903 9.5174C8.06903 9.63154 8.16175 9.72431 8.27593 9.72431C8.39007 9.72431 8.48284 9.63159 8.48284 9.5174C8.48284 9.40321 8.39007 9.31049 8.27593 9.31049Z" fill="#F5F5F5"/>
<path d="M5.79315 10.1381C5.45087 10.1381 5.17248 9.85963 5.17248 9.5174C5.17248 9.17512 5.45092 8.89673 5.79315 8.89673C6.13543 8.89673 6.41382 9.17517 6.41382 9.5174C6.41387 9.85963 6.13543 10.1381 5.79315 10.1381ZM5.79315 9.31049C5.67901 9.31049 5.58624 9.40321 5.58624 9.5174C5.58624 9.63154 5.67896 9.72431 5.79315 9.72431C5.90734 9.72431 6.00006 9.63154 6.00006 9.51735C6.00006 9.40321 5.90734 9.31049 5.79315 9.31049Z" fill="#F5F5F5"/>
<path d="M8.27588 13.6552V13.8621C8.27588 13.9762 8.18306 14.069 8.06897 14.069C7.95488 14.069 7.86206 13.9762 7.86206 13.8621V13.6552H8.27588ZM8.68964 13.2414H7.44825V13.8621C7.44825 14.2043 7.72669 14.4827 8.06892 14.4827C8.4112 14.4827 8.68959 14.2043 8.68959 13.8621V13.2414H8.68964Z" fill="#FAB446"/>
<path d="M8.06897 12.4138C7.84046 12.4138 7.65516 12.2285 7.65516 12V11.5862C7.65516 11.3577 7.84046 11.1724 8.06897 11.1724C8.29749 11.1724 8.48278 11.3577 8.48278 11.5862V12C8.48278 12.2285 8.29749 12.4138 8.06897 12.4138Z" fill="#FFA0D2"/>
<path d="M7.03454 13.448C7.37732 13.448 7.65521 13.1702 7.65521 12.8274C7.65521 12.4846 7.37732 12.2067 7.03454 12.2067C6.69175 12.2067 6.41386 12.4846 6.41386 12.8274C6.41386 13.1702 6.69175 13.448 7.03454 13.448Z" fill="#5064AA"/>
<path d="M7.24162 8.27579H6.82781V9.51718H7.24162V8.27579Z" fill="#FAB446"/>
<path d="M5.7931 10.3448L5.37928 9.93103L5.62167 9.68864C5.99635 9.31397 6.50457 9.10345 7.03449 9.10345C7.56441 9.10345 8.07258 9.31397 8.4473 9.68864L8.68969 9.93103L8.27588 10.3448H5.7931Z" fill="#C8414B"/>
<path d="M7.03459 10.138C7.14886 10.138 7.2415 10.0454 7.2415 9.93109C7.2415 9.81682 7.14886 9.72418 7.03459 9.72418C6.92032 9.72418 6.82769 9.81682 6.82769 9.93109C6.82769 10.0454 6.92032 10.138 7.03459 10.138Z" fill="#FFD250"/>
<path d="M6.20672 10.1378C6.32099 10.1378 6.41363 10.0452 6.41363 9.93094C6.41363 9.81666 6.32099 9.72403 6.20672 9.72403C6.09245 9.72403 5.99982 9.81666 5.99982 9.93094C5.99982 10.0452 6.09245 10.1378 6.20672 10.1378Z" fill="#FFD250"/>
<path d="M7.86194 10.138C7.97621 10.138 8.06885 10.0454 8.06885 9.93109C8.06885 9.81682 7.97621 9.72418 7.86194 9.72418C7.74767 9.72418 7.65504 9.81682 7.65504 9.93109C7.65504 10.0454 7.74767 10.138 7.86194 10.138Z" fill="#FFD250"/>
<path d="M5.37938 12H3.31032V12.4138H5.37938V12Z" fill="#C8414B"/>
<path d="M3.31038 13.6549L4.55172 13.2411V12.8273L3.31038 13.2411V13.6549Z" fill="#C8414B"/>
</svg>
