<svg xmlns="http://www.w3.org/2000/svg" width="24" height="24" viewBox="0 0 24 24" fill="none"><rect width="24" height="24" fill="none"/>
<path d="M22.2026 19.8621H1.79742C0.804703 19.8621 0 19.0574 0 18.0646V5.93536C0 4.94269 0.804703 4.13794 1.79742 4.13794H22.2026C23.1952 4.13794 24 4.94264 24 5.93536V18.0647C24 19.0574 23.1953 19.8621 22.2026 19.8621Z" fill="#41479B"/>
<path d="M16.5741 11.8994L15.3875 11.6357C15.217 10.0459 13.9547 8.78418 12.3649 8.6136L12.1011 7.42626C12.0801 7.33171 11.92 7.33171 11.899 7.42626L11.6358 8.61079C10.0453 8.7809 8.78324 10.0454 8.61271 11.6357L7.42588 11.8994C7.37854 11.9099 7.34483 11.9519 7.34483 12.0004C7.34483 12.0489 7.37854 12.0909 7.42583 12.1014L8.61266 12.3651C8.78315 13.9552 10.0453 15.2182 11.6354 15.3885L11.899 16.5745C11.9095 16.6219 11.9516 16.6556 12 16.6556C12.0485 16.6556 12.0906 16.6219 12.1011 16.5746L12.365 15.3868C13.9546 15.2162 15.217 13.9549 15.3875 12.3652L16.5742 12.1015C16.6215 12.0909 16.6552 12.0489 16.6552 12.0004C16.6552 11.9519 16.6214 11.9099 16.5741 11.8994ZM15.178 11.5891L12.9143 11.0861L12.4116 8.82369C13.8507 9.00937 14.9925 10.1499 15.178 11.5891ZM11.5885 8.82332L11.0856 11.0862L8.82271 11.589C9.00833 10.1499 10.1494 9.0089 11.5885 8.82332ZM11.1395 11.2861L11.8537 12.0004H7.9251L11.1395 11.2861ZM8.8228 12.4119L11.0857 12.9148L11.5887 15.1782C10.1494 14.9927 9.00833 13.851 8.8228 12.4119ZM12 16.0753L11.2857 12.8609L12 12.1467V16.0753ZM12 11.8541V7.92552L12.7143 11.1399L12 11.8541ZM12.4119 15.1754L12.9143 12.9147L15.1779 12.4117C14.9925 13.8506 13.8508 14.9895 12.4119 15.1754ZM12.8605 12.7147L12.1463 12.0004H16.0749L12.8605 12.7147Z" fill="#F5F5F5"/>
<path d="M6.62067 12.1039H0.827574C0.770434 12.1039 0.724121 12.0576 0.724121 12.0004C0.724121 11.9433 0.770434 11.897 0.827574 11.897H6.62067C6.67781 11.897 6.72412 11.9433 6.72412 12.0004C6.72412 12.0576 6.67786 12.1039 6.62067 12.1039Z" fill="#F5F5F5"/>
<path d="M23.1724 12.1039H17.3793C17.3222 12.1039 17.2759 12.0576 17.2759 12.0004C17.2759 11.9433 17.3222 11.897 17.3793 11.897H23.1724C23.2296 11.897 23.2759 11.9433 23.2759 12.0004C23.2759 12.0576 23.2296 12.1039 23.1724 12.1039Z" fill="#F5F5F5"/>
<path d="M12 6.72455C11.9429 6.72455 11.8965 6.67824 11.8965 6.6211V4.96594C11.8965 4.9088 11.9429 4.86249 12 4.86249C12.0571 4.86249 12.1035 4.9088 12.1035 4.96594V6.6211C12.1035 6.67828 12.0571 6.72455 12 6.72455Z" fill="#F5F5F5"/>
<path d="M12 19.1384C11.9429 19.1384 11.8965 19.0921 11.8965 19.0349V17.3798C11.8965 17.3226 11.9429 17.2763 12 17.2763C12.0571 17.2763 12.1035 17.3226 12.1035 17.3798V19.0349C12.1035 19.0921 12.0571 19.1384 12 19.1384Z" fill="#F5F5F5"/>
</svg>
