<svg xmlns="http://www.w3.org/2000/svg" width="24" height="24" viewBox="0 0 24 24" fill="none"><rect width="24" height="24" fill="none"/>
<path d="M22.2026 19.8621H1.79742C0.804703 19.8621 0 19.0574 0 18.0646V5.93536C0 4.94269 0.804703 4.13794 1.79742 4.13794H22.2026C23.1952 4.13794 24 4.94264 24 5.93536V18.0647C24 19.0574 23.1953 19.8621 22.2026 19.8621Z" fill="#73AF00"/>
<path d="M16.4554 10.5462C16.4444 10.4755 16.3418 10.479 16.3338 10.5501C16.0869 12.7252 14.2419 14.4151 12.0001 14.4151C9.75895 14.4151 7.91329 12.7252 7.6664 10.5502C7.65834 10.4791 7.55582 10.4755 7.54476 10.5462C7.51045 10.7651 7.4917 10.9888 7.4917 11.2173C7.4917 13.7048 9.51061 15.7243 12.0001 15.7243C14.4905 15.7243 16.5086 13.7048 16.5086 11.2173C16.5084 10.9888 16.4896 10.765 16.4554 10.5462Z" fill="#FFE15A"/>
<path d="M11.9442 8.68456L11.6182 9.6621L10.5877 9.67006C10.5313 9.67049 10.5078 9.74258 10.5533 9.77614L11.3823 10.3883L11.0714 11.3708C11.0544 11.4246 11.1157 11.4692 11.1617 11.4364L12 10.8373L12.8384 11.4365C12.8843 11.4693 12.9456 11.4248 12.9286 11.3709L12.6178 10.3884L13.4468 9.77624C13.4923 9.74267 13.4688 9.67058 13.4123 9.67016L12.3819 9.66219L12.0559 8.68466C12.0379 8.63099 11.9621 8.63099 11.9442 8.68456Z" fill="#FFE15A"/>
</svg>
