<svg xmlns="http://www.w3.org/2000/svg" width="24" height="24" viewBox="0 0 24 24" fill="none"><rect width="24" height="24" fill="none"/>
<path d="M22.2025 19.8621H1.79742C0.804703 19.8621 0 19.0573 0 18.0646V5.93536C0 4.94269 0.804703 4.13794 1.79742 4.13794H22.2025C23.1952 4.13794 24 4.94264 24 5.93536V18.0646C24 19.0573 23.1952 19.8621 22.2025 19.8621Z" fill="#F5F5F5"/>
<path d="M24 11.1724H12.8276V4.13794H11.1724V11.1724H0V12.8276H11.1724V19.8621H12.8276V12.8276H24V11.1724Z" fill="#FF4B55"/>
<path d="M7.7408 7.84472C7.81026 7.70574 7.42608 7.2556 7.44642 7.1536C7.46681 7.0516 7.51233 6.89531 7.34911 6.30375C7.18594 5.71219 6.69567 5.56927 6.10411 5.5081C5.51255 5.44692 4.73048 5.87114 4.55386 6.33422C4.44726 6.61369 4.51936 6.92588 4.6312 7.22302C4.581 7.22845 4.48486 7.23122 4.41398 7.17886C4.35755 7.13681 4.32666 7.06538 4.32126 6.96689C4.30148 6.59175 4.50614 5.97727 4.50834 5.97122L4.52367 5.92533L3.88116 5.69874L3.91894 6.00024L3.42314 5.89439L3.45342 5.97755C3.49706 6.09741 3.88111 7.15106 3.93281 7.24411C4.01761 7.39613 4.13269 7.49339 4.27481 7.53291C4.32581 7.54725 4.37616 7.55269 4.42397 7.55269C4.43011 7.55269 4.43526 7.5511 4.44131 7.55091C4.4122 7.60449 4.35333 7.67203 4.20342 7.74169C4.02755 7.82274 3.84951 7.91011 3.83001 8.23838L3.82472 8.2411C3.82631 8.24414 3.82814 8.24578 3.82973 8.24878C3.82551 8.3355 3.82945 8.43464 3.85022 8.55919C3.90183 8.86706 4.00669 9.16922 4.01119 9.18192L4.02136 9.21094L4.05197 9.21446C4.05417 9.21446 4.25597 9.23864 4.3178 9.45061C4.35347 9.57328 4.46597 9.66642 4.57659 9.66642C4.57945 9.66642 4.58231 9.6661 4.58517 9.6661C4.63298 9.66389 4.74867 9.639 4.78626 9.4516L4.7917 9.4245L4.48781 9.14489L4.58967 8.80903L4.5412 8.79595C4.53834 8.79525 4.33711 8.73464 4.1288 8.50749C4.10948 8.41392 4.11178 8.34633 4.13672 8.30799C4.16508 8.26496 4.22531 8.25286 4.29511 8.23885C4.36012 8.22577 4.42739 8.21241 4.48191 8.16999C4.65708 8.03306 4.75509 7.79761 4.80478 7.63641C4.83169 7.69735 4.85747 7.75655 4.8803 7.81299C5.05369 8.24138 4.57434 8.73089 4.57434 8.73089C4.8803 8.85328 4.91091 8.92463 5.3393 9.45502C5.76769 9.98541 6.1552 9.76097 6.1552 9.76097C6.1552 9.76097 6.10008 9.42141 6.38161 9.27806C6.66319 9.13472 6.66956 8.95045 6.66956 8.95045C7.37222 9.11555 7.41445 8.8276 7.3837 8.72775C7.353 8.62795 7.39139 8.47055 7.39139 8.47055C7.39139 8.47055 7.46217 8.475 7.51425 8.43985C7.5968 8.3842 7.54116 8.25174 7.54116 8.25174C7.62178 8.2133 7.65253 8.12888 7.59108 8.06358C7.52962 7.99828 7.53347 7.92539 7.53347 7.92539C7.53347 7.92539 7.69476 7.93683 7.7408 7.84472ZM4.3012 7.4385C4.18519 7.40635 4.08989 7.32469 4.01817 7.1963C3.98409 7.13513 3.74531 6.49224 3.57548 6.02691L3.93178 6.10285L3.99876 6.63755L4.09566 6.62545L3.99778 5.84396L4.40067 5.9858C4.3522 6.13913 4.20562 6.63535 4.22376 6.97191C4.23042 7.101 4.27476 7.19691 4.35539 7.25714C4.42837 7.31166 4.51603 7.32436 4.58297 7.32436C4.62244 7.32436 4.6493 7.32052 4.66744 7.31733C4.67742 7.34189 4.68773 7.36603 4.698 7.39031C4.64142 7.41816 4.47544 7.48791 4.3012 7.4385ZM4.68403 9.45853C4.67034 9.50663 4.64133 9.5656 4.58081 9.56817C4.5795 9.56817 4.57795 9.56817 4.57636 9.56817C4.50975 9.56817 4.43484 9.50283 4.41155 9.42314C4.41037 9.41906 4.40794 9.41696 4.40662 9.41297L4.45631 9.24891L4.68403 9.45853ZM4.46794 8.874L4.34344 9.28383C4.26272 9.17424 4.14951 9.13547 4.09472 9.12267C4.06791 9.04205 3.98826 8.79085 3.94683 8.54325C3.93816 8.49094 3.93389 8.44641 3.92991 8.40244C4.13616 8.70431 4.36866 8.83458 4.46794 8.874ZM4.42167 8.09283C4.38567 8.12086 4.33247 8.13141 4.27603 8.14285C4.19601 8.15878 4.10587 8.17692 4.05487 8.25441C4.03626 8.28277 4.02703 8.3183 4.0223 8.35786C3.98976 8.31188 3.95644 8.27297 3.92597 8.217C3.94753 7.96772 4.08319 7.90463 4.24448 7.83014C4.47703 7.72252 4.53098 7.60781 4.554 7.53928C4.63687 7.52311 4.69898 7.49742 4.73583 7.47999C4.73766 7.48421 4.73948 7.48814 4.74136 7.49241C4.71572 7.60547 4.6275 7.9321 4.42167 8.09283ZM4.96866 7.65272L4.76901 7.22269L7.11886 6.13224C7.27247 6.42408 7.28784 6.7696 7.28784 6.7696L4.96866 7.65272Z" fill="#464655"/>
<path d="M20.5685 7.84472C20.6379 7.70574 20.2538 7.2556 20.2741 7.1536C20.2945 7.0516 20.34 6.89531 20.1768 6.30375C20.0136 5.71219 19.5233 5.56927 18.9318 5.5081C18.3402 5.44692 17.5582 5.87114 17.3815 6.33422C17.2749 6.61369 17.347 6.92588 17.4589 7.22302C17.4087 7.22846 17.3125 7.23122 17.2417 7.17886C17.1852 7.13681 17.1543 7.06538 17.1489 6.96689C17.1292 6.59175 17.3338 5.97727 17.336 5.97122L17.3513 5.92533L16.7088 5.69874L16.7466 6.00024L16.2508 5.89439L16.2811 5.97755C16.3247 6.09741 16.7088 7.15107 16.7605 7.24411C16.8453 7.39613 16.9604 7.49339 17.1025 7.53291C17.1535 7.54725 17.2039 7.55269 17.2516 7.55269C17.2578 7.55269 17.2629 7.5511 17.269 7.55091C17.2399 7.60449 17.181 7.67203 17.0311 7.74169C16.8552 7.82274 16.6772 7.91011 16.6577 8.23838L16.6524 8.2411C16.654 8.24414 16.6558 8.24578 16.6574 8.24878C16.6532 8.3355 16.6571 8.43464 16.6779 8.55919C16.7295 8.86706 16.8344 9.16922 16.8389 9.18192L16.849 9.21094L16.8796 9.21446C16.8818 9.21446 17.0836 9.23864 17.1455 9.45061C17.1811 9.57328 17.2936 9.66642 17.4043 9.66642C17.4071 9.66642 17.41 9.6661 17.4128 9.6661C17.4607 9.66389 17.5763 9.639 17.6139 9.4516L17.6194 9.4245L17.3155 9.14489L17.4173 8.80903L17.3689 8.79595C17.366 8.79525 17.1648 8.73464 16.9565 8.50749C16.9372 8.41392 16.9395 8.34633 16.9644 8.30799C16.9928 8.26496 17.053 8.25286 17.1228 8.23885C17.1878 8.22577 17.2551 8.21241 17.3096 8.16999C17.4848 8.03307 17.5828 7.79761 17.6325 7.63641C17.6594 7.69735 17.6851 7.75655 17.708 7.81299C17.8814 8.24138 17.402 8.73089 17.402 8.73089C17.708 8.85328 17.7386 8.92463 18.167 9.45502C18.5954 9.98536 18.9829 9.76097 18.9829 9.76097C18.9829 9.76097 18.9278 9.42141 19.2093 9.27806C19.4909 9.13472 19.4973 8.95046 19.4973 8.95046C20.1999 9.11555 20.2422 8.8276 20.2114 8.72775C20.1807 8.62795 20.2191 8.47055 20.2191 8.47055C20.2191 8.47055 20.2899 8.475 20.342 8.43985C20.4245 8.38421 20.3689 8.25174 20.3689 8.25174C20.4495 8.2133 20.4803 8.12888 20.4188 8.06358C20.3573 7.99828 20.3612 7.92539 20.3612 7.92539C20.3612 7.92539 20.5224 7.93683 20.5685 7.84472ZM17.1288 7.4385C17.0128 7.40635 16.9175 7.32469 16.8458 7.1963C16.8117 7.13513 16.5729 6.49224 16.4031 6.02691L16.7594 6.10285L16.8264 6.63755L16.9233 6.62545L16.8254 5.84396L17.2283 5.9858C17.1798 6.13913 17.0333 6.63535 17.0514 6.97191C17.058 7.101 17.1024 7.19691 17.183 7.25714C17.256 7.31166 17.3437 7.32436 17.4106 7.32436C17.4501 7.32436 17.4769 7.32052 17.4951 7.31733C17.505 7.34189 17.5154 7.36603 17.5256 7.39031C17.469 7.41816 17.3031 7.48791 17.1288 7.4385ZM17.5116 9.45853C17.4979 9.50663 17.4689 9.5656 17.4084 9.56817C17.4071 9.56817 17.4055 9.56817 17.4039 9.56817C17.3373 9.56817 17.2624 9.50283 17.2391 9.42314C17.238 9.41906 17.2355 9.41696 17.2342 9.41297L17.2839 9.24891L17.5116 9.45853ZM17.2955 8.874L17.171 9.28383C17.0903 9.17424 16.9771 9.13547 16.9223 9.12267C16.8955 9.04205 16.8158 8.79085 16.7744 8.54325C16.7657 8.49094 16.7615 8.44641 16.7575 8.40244C16.9638 8.70432 17.1963 8.83458 17.2955 8.874ZM17.2493 8.09283C17.2133 8.12086 17.1601 8.13141 17.1037 8.14285C17.0237 8.15878 16.9335 8.17692 16.8825 8.25441C16.8639 8.28277 16.8547 8.3183 16.85 8.35786C16.8174 8.31188 16.7841 8.27297 16.7536 8.217C16.7752 7.96772 16.9109 7.90463 17.0722 7.83014C17.3047 7.72252 17.3587 7.60781 17.3817 7.53928C17.4645 7.52311 17.5267 7.49742 17.5635 7.47999C17.5653 7.48421 17.5672 7.48814 17.569 7.49241C17.5433 7.60547 17.4551 7.9321 17.2493 8.09283ZM17.7963 7.65272L17.5966 7.22269L19.9465 6.13224C20.1001 6.42408 20.1155 6.7696 20.1155 6.7696L17.7963 7.65272Z" fill="#464655"/>
<path d="M7.74084 16.5344C7.81031 16.3954 7.42612 15.9452 7.44646 15.8432C7.46686 15.7412 7.51237 15.585 7.34915 14.9934C7.18598 14.4018 6.69571 14.2589 6.10415 14.1977C5.51259 14.1366 4.73053 14.5608 4.5539 15.0239C4.44731 15.3033 4.5194 15.6155 4.63125 15.9127C4.58104 15.9181 4.4849 15.9209 4.41403 15.8685C4.35759 15.8265 4.3267 15.755 4.32131 15.6565C4.30153 15.2814 4.50618 14.6669 4.50839 14.6609L4.52371 14.615L3.8812 14.3884L3.91898 14.6899L3.42318 14.584L3.45346 14.6672C3.49711 14.787 3.88115 15.8407 3.93286 15.9337C4.01765 16.0858 4.13273 16.183 4.27486 16.2225C4.32586 16.2369 4.3762 16.2423 4.42401 16.2423C4.43015 16.2423 4.43531 16.2407 4.44136 16.2405C4.41225 16.2941 4.35337 16.3617 4.20346 16.4313C4.02759 16.5123 3.84956 16.5997 3.83006 16.928L3.82476 16.9307C3.82636 16.9338 3.82818 16.9354 3.82978 16.9384C3.82556 17.0251 3.8295 17.1243 3.85026 17.2488C3.90187 17.5567 4.00673 17.8589 4.01123 17.8716L4.0214 17.9006L4.05201 17.9041C4.05421 17.9041 4.25601 17.9283 4.31784 18.1402C4.35351 18.2629 4.46601 18.3561 4.57664 18.3561C4.5795 18.3561 4.58236 18.3557 4.58521 18.3557C4.63303 18.3535 4.74871 18.3286 4.78631 18.1412L4.79175 18.1141L4.48786 17.8345L4.58971 17.4987L4.54125 17.4856C4.53839 17.4849 4.33715 17.4243 4.12884 17.1971C4.10953 17.1036 4.11182 17.036 4.13676 16.9976C4.16512 16.9546 4.22536 16.9425 4.29515 16.9285C4.36017 16.9154 4.42743 16.902 4.48195 16.8596C4.65712 16.7227 4.75514 16.4872 4.80482 16.326C4.83173 16.387 4.85751 16.4462 4.88034 16.5026C5.05373 16.931 4.57439 17.4205 4.57439 17.4205C4.88034 17.5429 4.91095 17.6143 5.33934 18.1447C5.76773 18.675 6.15525 18.4506 6.15525 18.4506C6.15525 18.4506 6.10012 18.111 6.38165 17.9677C6.66323 17.8244 6.66961 17.6401 6.66961 17.6401C7.37226 17.8052 7.4145 17.5172 7.38375 17.4174C7.35304 17.3176 7.39143 17.1602 7.39143 17.1602C7.39143 17.1602 7.46221 17.1646 7.51429 17.1295C7.59684 17.0738 7.5412 16.9414 7.5412 16.9414C7.62182 16.903 7.65257 16.8185 7.59112 16.7532C7.52967 16.6879 7.53351 16.615 7.53351 16.615C7.53351 16.615 7.69481 16.6265 7.74084 16.5344ZM4.30125 16.1281C4.18523 16.096 4.08993 16.0143 4.01821 15.8859C3.98414 15.8248 3.74536 15.1819 3.57553 14.7165L3.93182 14.7925L3.99881 15.3272L4.0957 15.3151L3.99782 14.5336L4.40071 14.6754C4.35225 14.8288 4.20567 15.325 4.22381 15.6615C4.23046 15.7906 4.27481 15.8865 4.35543 15.9468C4.42842 16.0013 4.51607 16.014 4.58301 16.014C4.62248 16.014 4.64934 16.0102 4.66748 16.007C4.67746 16.0316 4.68778 16.0557 4.69804 16.08C4.64146 16.1077 4.47548 16.1775 4.30125 16.1281ZM4.68407 18.1482C4.67039 18.1963 4.64137 18.2552 4.58086 18.2578C4.57954 18.2578 4.578 18.2578 4.5764 18.2578C4.50979 18.2578 4.43489 18.1925 4.41159 18.1128C4.41042 18.1087 4.40798 18.1066 4.40667 18.1026L4.45636 17.9385L4.68407 18.1482ZM4.46798 17.5636L4.34348 17.9735C4.26276 17.8639 4.14956 17.8251 4.09476 17.8123C4.06795 17.7317 3.98831 17.4805 3.94687 17.2329C3.9382 17.1806 3.93393 17.136 3.92995 17.0921C4.1362 17.394 4.3687 17.5242 4.46798 17.5636ZM4.42171 16.7825C4.38571 16.8105 4.33251 16.8211 4.27607 16.8325C4.19606 16.8485 4.10592 16.8666 4.05492 16.9441C4.03631 16.9725 4.02707 17.008 4.02234 17.0475C3.98981 17.0016 3.95648 16.9627 3.92601 16.9067C3.94757 16.6574 4.08323 16.5943 4.24453 16.5198C4.47707 16.4122 4.53103 16.2975 4.55404 16.229C4.63692 16.2128 4.69903 16.1871 4.73587 16.1697C4.7377 16.1739 4.73953 16.1778 4.7414 16.1821C4.71576 16.2951 4.62754 16.6217 4.42171 16.7825ZM4.9687 16.3424L4.76906 15.9123L7.1189 14.8219C7.27251 15.1137 7.28789 15.4592 7.28789 15.4592L4.9687 16.3424Z" fill="#464655"/>
<path d="M20.5685 16.5344C20.6379 16.3954 20.2538 15.9452 20.2741 15.8432C20.2945 15.7412 20.34 15.585 20.1768 14.9934C20.0136 14.4018 19.5233 14.2589 18.9318 14.1977C18.3402 14.1366 17.5582 14.5608 17.3815 15.0239C17.2749 15.3033 17.347 15.6155 17.4589 15.9127C17.4087 15.9181 17.3125 15.9209 17.2417 15.8685C17.1852 15.8265 17.1543 15.755 17.1489 15.6565C17.1292 15.2814 17.3338 14.6669 17.336 14.6609L17.3513 14.615L16.7088 14.3884L16.7466 14.6899L16.2508 14.584L16.2811 14.6672C16.3247 14.787 16.7088 15.8407 16.7605 15.9337C16.8453 16.0858 16.9604 16.183 17.1025 16.2225C17.1535 16.2369 17.2039 16.2423 17.2516 16.2423C17.2578 16.2423 17.2629 16.2407 17.269 16.2405C17.2399 16.2941 17.181 16.3617 17.0311 16.4313C16.8552 16.5123 16.6772 16.5997 16.6577 16.928L16.6524 16.9307C16.654 16.9338 16.6558 16.9354 16.6574 16.9384C16.6532 17.0251 16.6571 17.1243 16.6779 17.2488C16.7295 17.5567 16.8344 17.8589 16.8389 17.8716L16.849 17.9006L16.8796 17.9041C16.8818 17.9041 17.0836 17.9283 17.1455 18.1402C17.1811 18.2629 17.2936 18.3561 17.4043 18.3561C17.4071 18.3561 17.41 18.3557 17.4128 18.3557C17.4607 18.3535 17.5763 18.3286 17.6139 18.1412L17.6194 18.1141L17.3155 17.8345L17.4173 17.4987L17.3689 17.4856C17.366 17.4849 17.1648 17.4243 16.9565 17.1971C16.9372 17.1036 16.9395 17.036 16.9644 16.9976C16.9928 16.9546 17.053 16.9425 17.1228 16.9285C17.1878 16.9154 17.2551 16.902 17.3096 16.8596C17.4848 16.7227 17.5828 16.4872 17.6325 16.326C17.6594 16.387 17.6851 16.4462 17.708 16.5026C17.8814 16.931 17.402 17.4205 17.402 17.4205C17.708 17.5429 17.7386 17.6143 18.167 18.1447C18.5954 18.675 18.9829 18.4506 18.9829 18.4506C18.9829 18.4506 18.9278 18.111 19.2093 17.9677C19.4909 17.8244 19.4973 17.6401 19.4973 17.6401C20.1999 17.8052 20.2422 17.5172 20.2114 17.4174C20.1807 17.3176 20.2191 17.1602 20.2191 17.1602C20.2191 17.1602 20.2899 17.1646 20.342 17.1295C20.4245 17.0738 20.3689 16.9414 20.3689 16.9414C20.4495 16.903 20.4803 16.8185 20.4188 16.7532C20.3573 16.6879 20.3612 16.615 20.3612 16.615C20.3612 16.615 20.5224 16.6265 20.5685 16.5344ZM17.1288 16.1281C17.0128 16.096 16.9175 16.0143 16.8458 15.8859C16.8117 15.8248 16.5729 15.1819 16.4031 14.7165L16.7594 14.7925L16.8264 15.3272L16.9233 15.3151L16.8254 14.5336L17.2283 14.6754C17.1798 14.8288 17.0333 15.325 17.0514 15.6615C17.058 15.7906 17.1024 15.8865 17.183 15.9468C17.256 16.0013 17.3437 16.014 17.4106 16.014C17.4501 16.014 17.4769 16.0102 17.4951 16.007C17.505 16.0316 17.5154 16.0557 17.5256 16.08C17.469 16.1077 17.3031 16.1775 17.1288 16.1281ZM17.5116 18.1482C17.4979 18.1963 17.4689 18.2552 17.4084 18.2578C17.4071 18.2578 17.4055 18.2578 17.4039 18.2578C17.3373 18.2578 17.2624 18.1925 17.2391 18.1128C17.238 18.1087 17.2355 18.1066 17.2342 18.1026L17.2839 17.9385L17.5116 18.1482ZM17.2955 17.5636L17.171 17.9735C17.0903 17.8639 16.9771 17.8251 16.9223 17.8123C16.8955 17.7317 16.8158 17.4805 16.7744 17.2329C16.7657 17.1806 16.7615 17.136 16.7575 17.0921C16.9638 17.394 17.1963 17.5242 17.2955 17.5636ZM17.2493 16.7825C17.2133 16.8105 17.1601 16.8211 17.1037 16.8325C17.0237 16.8485 16.9335 16.8666 16.8825 16.9441C16.8639 16.9725 16.8547 17.008 16.85 17.0475C16.8174 17.0016 16.7841 16.9627 16.7536 16.9067C16.7752 16.6574 16.9109 16.5943 17.0722 16.5198C17.3047 16.4122 17.3587 16.2975 17.3817 16.229C17.4645 16.2128 17.5267 16.1871 17.5635 16.1697C17.5653 16.1739 17.5672 16.1778 17.569 16.1821C17.5433 16.2951 17.4551 16.6217 17.2493 16.7825ZM17.7963 16.3424L17.5966 15.9123L19.9465 14.8219C20.1001 15.1137 20.1155 15.4592 20.1155 15.4592L17.7963 16.3424Z" fill="#464655"/>
</svg>
