<svg xmlns="http://www.w3.org/2000/svg" width="24" height="24" viewBox="0 0 24 24" fill="none"><rect width="24" height="24" fill="none"/>
<path d="M22.2026 4.13794H1.79742C0.804703 4.13794 0 4.94264 0 5.93536V7.28278H24V5.93536C24 4.94264 23.1953 4.13794 22.2026 4.13794Z" fill="#FF4B55"/>
<path d="M24 7.28298H0V10.4278H24V7.28298Z" fill="#F5F5F5"/>
<path d="M24 10.4278H0V13.5727H24V10.4278Z" fill="#FF4B55"/>
<path d="M0 18.0647C0 19.0574 0.804703 19.8622 1.79742 19.8622H22.2026C23.1952 19.8622 24 19.0575 24 18.0647V16.7173H0V18.0647Z" fill="#FF4B55"/>
<path d="M24 13.5727H0V16.7175H24V13.5727Z" fill="#F5F5F5"/>
<path d="M0.642187 19.4413L11.6062 12.258C11.7921 12.1362 11.7921 11.8637 11.6062 11.742L0.642187 4.55865C0.249656 4.88841 0 5.38262 0 5.93537V18.0647C0 18.6174 0.249656 19.1116 0.642187 19.4413Z" fill="#41479B"/>
<path d="M4.22733 10.0793L4.65919 11.3742L6.0241 11.3848C6.20077 11.3861 6.27408 11.6116 6.13196 11.7166L5.03396 12.5275L5.44566 13.8289C5.499 13.9973 5.30714 14.1367 5.16333 14.034L4.05291 13.2403L2.94244 14.034C2.79872 14.1367 2.60686 13.9973 2.66011 13.8289L3.07181 12.5275L1.97381 11.7166C1.83169 11.6116 1.90491 11.3861 2.08167 11.3847L3.44658 11.3741L3.87844 10.0793C3.93431 9.91167 4.17141 9.91167 4.22733 10.0793Z" fill="#F5F5F5"/>
</svg>
