<svg xmlns="http://www.w3.org/2000/svg" width="24" height="24" viewBox="0 0 24 24" fill="none"><rect width="24" height="24" fill="none"/>
<path d="M22.2024 4.13705H1.79494C0.834703 4.13705 0.0504844 4.88986 0 5.83753V8.06855H24V5.9347C24 4.94189 23.1952 4.13705 22.2024 4.13705Z" fill="#FFE15A"/>
<path d="M24 8.06807H0V11.9995H24V8.06807Z" fill="#F5F5F5"/>
<path d="M24 12H0V15.9314H24V12Z" fill="#FF4B55"/>
<path d="M0 18.1625C0.0504844 19.11 0.834703 19.863 1.79494 19.863H22.2024C23.1952 19.863 24 19.0582 24 18.0653V15.9315H0V18.1625Z" fill="#4173CD"/>
<path d="M11.7501 11.8353L0.640734 4.55685C0.270703 4.86717 0.027375 5.32359 0 5.83753V18.1625C0.027375 18.6764 0.270703 19.1329 0.640734 19.4432L11.7501 12.1647C11.8687 12.0869 11.8687 11.913 11.7501 11.8353Z" fill="#73AF00"/>
<path d="M2.28932 12C2.28932 10.5036 3.26746 9.23747 4.61877 8.80139C4.68979 8.77847 4.6799 8.67473 4.60588 8.66508C4.46676 8.64689 4.3251 8.63705 4.18096 8.63705C2.32363 8.63705 0.818008 10.1427 0.818008 12C0.818008 13.8573 2.32368 15.363 4.18096 15.363C4.3251 15.363 4.46676 15.3531 4.60588 15.3349C4.6799 15.3252 4.68979 15.2215 4.61877 15.1986C3.26746 14.7625 2.28932 13.4964 2.28932 12Z" fill="#F5F5F5"/>
<path d="M4.63587 9.43134L4.72845 9.70893L5.02105 9.71123C5.05892 9.71156 5.07462 9.75984 5.04416 9.78234L4.8088 9.95615L4.89706 10.2352C4.9085 10.2712 4.86739 10.3012 4.83655 10.2791L4.59847 10.109L4.36039 10.2791C4.32955 10.3012 4.28844 10.2712 4.29987 10.2352L4.38814 9.95615L4.15278 9.78234C4.12231 9.75984 4.13801 9.71146 4.17589 9.71123L4.46848 9.70893L4.56106 9.43134C4.57301 9.39538 4.62387 9.39538 4.63587 9.43134Z" fill="#F5F5F5"/>
<path d="M4.63587 10.8381L4.72845 11.1157L5.02105 11.118C5.05892 11.1183 5.07462 11.1666 5.04416 11.1891L4.8088 11.3629L4.89706 11.6419C4.9085 11.678 4.86739 11.7079 4.83655 11.6858L4.59847 11.5157L4.36039 11.6858C4.32955 11.7079 4.28844 11.678 4.29987 11.6419L4.38814 11.3629L4.15278 11.1891C4.12231 11.1666 4.13801 11.1182 4.17589 11.118L4.46848 11.1157L4.56106 10.8381C4.57301 10.8021 4.62387 10.8021 4.63587 10.8381Z" fill="#F5F5F5"/>
<path d="M4.63587 12.2447L4.72845 12.5223L5.02105 12.5246C5.05892 12.5249 5.07462 12.5732 5.04416 12.5957L4.8088 12.7695L4.89706 13.0485C4.9085 13.0846 4.86739 13.1145 4.83655 13.0925L4.59847 12.9224L4.36039 13.0925C4.32955 13.1145 4.28844 13.0846 4.29987 13.0485L4.38814 12.7695L4.15278 12.5957C4.12231 12.5732 4.13801 12.5249 4.17589 12.5246L4.46848 12.5223L4.56106 12.2447C4.57301 12.2088 4.62387 12.2088 4.63587 12.2447Z" fill="#F5F5F5"/>
<path d="M4.63587 13.6514L4.72845 13.929L5.02105 13.9313C5.05892 13.9316 5.07462 13.9799 5.04416 14.0024L4.8088 14.1762L4.89706 14.4552C4.9085 14.4913 4.86739 14.5212 4.83655 14.4991L4.59847 14.329L4.36039 14.4991C4.32955 14.5212 4.28844 14.4913 4.29987 14.4552L4.38814 14.1762L4.15278 14.0024C4.12231 13.9799 4.13801 13.9315 4.17589 13.9313L4.46848 13.929L4.56106 13.6514C4.57301 13.6155 4.62387 13.6155 4.63587 13.6514Z" fill="#F5F5F5"/>
</svg>
