<svg xmlns="http://www.w3.org/2000/svg" width="24" height="24" viewBox="0 0 24 24" fill="none"><rect width="24" height="24" fill="none"/>
<path d="M22.2026 4.13788H12V19.862H22.2026C23.1952 19.862 24 19.0573 24 18.0646V5.9353C24 4.94258 23.1953 4.13788 22.2026 4.13788Z" fill="#F5F5F5"/>
<path d="M1.79742 4.13788C0.804703 4.13788 0 4.94258 0 5.9353V18.0647C0 19.0573 0.804703 19.8621 1.79742 19.8621H12V4.13788H1.79742Z" fill="#FFE15A"/>
<path d="M19.1375 8.19149L19.11 8.24647C19.1988 8.29194 19.2496 8.34369 19.2496 8.39882L19.2358 8.12549C19.2173 8.16219 19.1811 8.18854 19.1375 8.19149Z" fill="#EBEBEB"/>
<path d="M16.9893 8.24647L16.9618 8.19149C16.9183 8.18849 16.8821 8.16219 16.8634 8.12549L16.8496 8.39882C16.8496 8.34383 16.9005 8.29199 16.9893 8.24647Z" fill="#EBEBEB"/>
<path d="M16.9696 7.95308C17.0359 7.95308 17.0896 8.0068 17.0896 8.07308C17.0896 8.09708 17.0808 8.11817 17.0686 8.13692L17.1002 8.20006C17.1908 8.16824 17.3024 8.14119 17.4296 8.12023L17.4161 8.06623C17.3665 8.05152 17.3296 8.00736 17.3296 7.95303C17.3296 7.88675 17.3834 7.83303 17.4496 7.83303C17.5159 7.83303 17.5696 7.88675 17.5696 7.95303C17.5696 7.98688 17.5554 8.01711 17.5329 8.03895L17.549 8.10303C17.6159 8.09464 17.6859 8.08803 17.7587 8.08306C17.7532 8.06052 17.7496 8.03722 17.7496 8.01303C17.7496 7.84738 17.884 7.71303 18.0496 7.71303C18.2153 7.71303 18.3496 7.84738 18.3496 8.01303C18.3496 8.03731 18.346 8.06052 18.3406 8.08306C18.4134 8.08799 18.4835 8.09464 18.5503 8.10303L18.5663 8.03895C18.5438 8.01711 18.5296 7.98688 18.5296 7.95303C18.5296 7.88675 18.5834 7.83303 18.6496 7.83303C18.7159 7.83303 18.7696 7.88675 18.7696 7.95303C18.7696 8.00741 18.7327 8.05152 18.6832 8.06623L18.6697 8.12023C18.7969 8.14114 18.9085 8.16819 18.999 8.20006L19.0306 8.13692C19.0185 8.11813 19.0096 8.09708 19.0096 8.07308C19.0096 8.0068 19.0634 7.95308 19.1296 7.95308C19.1728 7.95308 19.209 7.97713 19.2301 8.01139L19.2209 7.82839C19.1024 7.69386 18.6234 7.59308 18.0496 7.59308C17.4758 7.59308 16.9969 7.69377 16.8784 7.82839L16.8692 8.01139C16.8903 7.97713 16.9265 7.95308 16.9696 7.95308Z" fill="#EBEBEB"/>
<path d="M18.237 6.54139C18.2695 6.50042 18.2896 6.44933 18.2896 6.39303C18.2896 6.28133 18.213 6.18833 18.1096 6.16151V6.01461C18.1448 5.9937 18.1696 5.95695 18.1696 5.91303C18.1696 5.84675 18.1159 5.79303 18.0496 5.79303C17.9833 5.79303 17.9296 5.84675 17.9296 5.91303C17.9296 5.95695 17.9544 5.9937 17.9896 6.01461V6.16151C17.8863 6.18823 17.8096 6.28133 17.8096 6.39303C17.8096 6.44937 17.8298 6.50047 17.8623 6.54139C17.9233 6.5247 17.9855 6.51303 18.0496 6.51303C18.1138 6.51303 18.1759 6.52465 18.237 6.54139Z" fill="#E6B432"/>
<path d="M17.5468 7.14887L17.5362 7.10626C17.4866 7.09155 17.4497 7.04739 17.4497 6.99306C17.4497 6.92678 17.5034 6.87306 17.5697 6.87306C17.636 6.87306 17.6897 6.92678 17.6897 6.99306C17.6897 7.02691 17.6755 7.05714 17.653 7.07898L17.6665 7.13308C17.784 7.12023 17.9134 7.11306 18.0497 7.11306C17.9503 7.11306 17.8697 7.03248 17.8697 6.93306C17.8697 6.83364 17.9503 6.75306 18.0497 6.75306C18.1491 6.75306 18.2297 6.83364 18.2297 6.93306C18.2297 7.03248 18.1491 7.11306 18.0497 7.11306C18.186 7.11306 18.3155 7.12023 18.4328 7.13308L18.4464 7.07898C18.4239 7.05714 18.4097 7.02691 18.4097 6.99306C18.4097 6.92678 18.4634 6.87306 18.5297 6.87306C18.596 6.87306 18.6497 6.92678 18.6497 6.99306C18.6497 7.04744 18.6128 7.09155 18.5632 7.10626L18.5526 7.14887C18.6135 7.1583 18.6703 7.16922 18.7212 7.18169L18.8096 7.00478C18.6566 6.76764 18.4588 6.60217 18.237 6.54142C18.176 6.52473 18.1138 6.51306 18.0496 6.51306C17.9855 6.51306 17.9234 6.52469 17.8623 6.54142C17.6404 6.60212 17.4427 6.76759 17.2897 7.00478L17.3781 7.18169C17.4291 7.16927 17.4858 7.15834 17.5468 7.14887Z" fill="#EBEBEB"/>
<path d="M17.9296 16.9753V16.7133C17.9296 16.6852 17.9336 16.6582 17.9397 16.632C17.9365 16.6299 17.933 16.6285 17.9296 16.6265C17.8942 16.606 17.8536 16.5933 17.8096 16.5933C17.7657 16.5933 17.7251 16.6059 17.6896 16.6265C17.6182 16.6681 17.5696 16.7446 17.5696 16.8333C17.5696 16.8978 17.5955 16.9562 17.6369 16.9992C17.6883 16.9708 17.7467 16.9533 17.8096 16.9533C17.852 16.9533 17.892 16.9619 17.9296 16.9753Z" fill="#E6B432"/>
<path d="M18.1696 16.0266C18.0982 16.0682 18.0496 16.1447 18.0496 16.2333C18.0496 16.2979 18.0755 16.3562 18.1169 16.3993C18.1683 16.3709 18.2267 16.3533 18.2896 16.3533C18.3526 16.3533 18.4109 16.3709 18.4624 16.3993C18.5039 16.3562 18.5296 16.2979 18.5296 16.2333C18.5296 16.1447 18.4811 16.0682 18.4096 16.0266C18.3742 16.006 18.3336 15.9933 18.2896 15.9933C18.2457 15.9933 18.2051 16.006 18.1696 16.0266Z" fill="#E6B432"/>
<path d="M18.1169 16.399C18.0288 16.4476 17.963 16.5311 17.9397 16.6318C17.9337 16.658 17.9297 16.685 17.9297 16.7131V16.9751C17.892 16.9617 17.852 16.9531 17.8097 16.9531C17.7467 16.9531 17.6884 16.9707 17.6369 16.9991C17.5258 17.0604 17.4497 17.1772 17.4497 17.3131V17.7931H18.1697V17.3131C18.1697 17.2708 18.1611 17.2308 18.1477 17.1931H18.6497V16.7131C18.6497 16.5772 18.5736 16.4604 18.4625 16.3991C18.411 16.3707 18.3526 16.3531 18.2897 16.3531C18.2267 16.3531 18.1684 16.3706 18.1169 16.399Z" fill="#FF4B57"/>
<path d="M18.1696 11.5733L18.3747 11.7784L18.4448 11.7083C18.4614 11.6917 18.4822 11.6831 18.5036 11.6783L19.5185 10.6631L20.1685 11.3132L20.5928 10.889L20.4231 10.7193L20.3382 10.8041L20.1685 10.6344L20.2533 10.5496L20.1685 10.4647L20.3382 10.295L20.4231 10.3799L20.5079 10.295L20.6776 10.4647L20.5928 10.5496L20.7624 10.7193L21.1867 10.2951L20.5365 9.64486L20.9814 9.19979C20.9599 9.19097 20.9398 9.17799 20.9223 9.1606L20.6823 8.9206C20.6644 8.90269 20.6513 8.88193 20.6425 8.8598L18.1425 11.3604C18.1585 11.3808 18.1696 11.4053 18.1696 11.4333L18.1696 11.5733Z" fill="#E6B432"/>
<path d="M17.8944 12.2876L17.555 11.9482L16.5 13.0035C16.4063 13.0973 16.4063 13.2492 16.5 13.3429C16.5469 13.3897 16.6083 13.4132 16.6697 13.4132C16.7311 13.4132 16.7926 13.3897 16.8395 13.3429L17.6641 12.518L17.8944 12.2876Z" fill="#E6B432"/>
<path d="M14.6186 13.533C14.6253 13.5141 14.6296 13.4942 14.6296 13.473C14.6296 13.3736 14.5491 13.293 14.4496 13.293C14.3502 13.293 14.2696 13.3736 14.2696 13.473C14.2696 13.5725 14.3502 13.653 14.4496 13.653C14.4708 13.653 14.4907 13.6487 14.5096 13.642C14.5436 13.6034 14.58 13.567 14.6186 13.533Z" fill="#D2D2D2"/>
<path d="M14.5096 15.224C14.4907 15.2173 14.4708 15.213 14.4496 15.213C14.3502 15.213 14.2696 15.2935 14.2696 15.393C14.2696 15.4924 14.3502 15.573 14.4496 15.573C14.5491 15.573 14.6296 15.4924 14.6296 15.393C14.6296 15.3719 14.6253 15.3518 14.6186 15.333C14.58 15.299 14.5436 15.2625 14.5096 15.224Z" fill="#D2D2D2"/>
<path d="M16.3097 13.642C16.3285 13.6486 16.3485 13.653 16.3696 13.653C16.4691 13.653 16.5496 13.5724 16.5496 13.473C16.5496 13.3735 16.4691 13.293 16.3696 13.293C16.2702 13.293 16.1896 13.3735 16.1896 13.473C16.1896 13.4941 16.1939 13.5141 16.2007 13.5329C16.2393 13.5669 16.2757 13.6033 16.3097 13.642Z" fill="#D2D2D2"/>
<path d="M16.1896 15.3929C16.1896 15.4923 16.2702 15.5729 16.3696 15.5729C16.4251 15.5729 16.474 15.5473 16.5071 15.5079C16.3942 15.4671 16.2889 15.4216 16.1917 15.3718C16.1909 15.3789 16.1896 15.3857 16.1896 15.3929Z" fill="#D2D2D2"/>
<path d="M15.939 15.2193C15.9138 15.201 15.8986 15.1744 15.8928 15.1461C15.8724 15.1505 15.8513 15.1531 15.8296 15.1531C15.6871 15.1531 15.568 15.053 15.5376 14.9195C15.505 14.9526 15.4597 14.9731 15.4096 14.9731C15.3595 14.9731 15.3143 14.9526 15.2817 14.9195C15.2513 15.053 15.1322 15.1531 14.9896 15.1531C14.8242 15.1531 14.6896 15.0186 14.6896 14.8531C14.6896 14.7106 14.7898 14.5915 14.9232 14.5611C14.8902 14.5285 14.8696 14.4832 14.8696 14.4331C14.8696 14.383 14.8902 14.3377 14.9232 14.3051C14.7898 14.2748 14.6896 14.1557 14.6896 14.0131C14.6896 13.8476 14.8242 13.7131 14.9896 13.7131C15.1321 13.7131 15.2513 13.8132 15.2817 13.9467C15.3143 13.9136 15.3596 13.8931 15.4096 13.8931C15.4598 13.8931 15.505 13.9136 15.5376 13.9467C15.568 13.8132 15.6871 13.7131 15.8296 13.7131C15.9951 13.7131 16.1296 13.8476 16.1296 14.0131C16.1296 14.1557 16.0295 14.2747 15.8961 14.3051C15.9291 14.3378 15.9496 14.383 15.9496 14.4331C15.9496 14.4832 15.9291 14.5285 15.8961 14.5611C16.0295 14.5915 16.1296 14.7106 16.1296 14.8531C16.1296 14.9164 16.1097 14.9749 16.0762 15.0234C16.0773 15.0242 16.0786 15.0242 16.0798 15.025C16.1574 15.0812 16.2469 15.1335 16.3463 15.1813C16.3762 15.1439 16.4033 15.1045 16.4287 15.0637C16.5077 14.9363 16.5636 14.7935 16.5904 14.6405C16.6023 14.573 16.6096 14.504 16.6096 14.4332C16.6096 14.1301 16.4957 13.8536 16.3096 13.6421C16.2756 13.6035 16.2392 13.5671 16.2006 13.5331C15.9892 13.3471 15.7127 13.2332 15.4096 13.2332C15.1065 13.2332 14.83 13.3471 14.6186 13.5331C14.58 13.5671 14.5435 13.6035 14.5095 13.6421C14.3235 13.8536 14.2096 14.13 14.2096 14.4332C14.2096 14.7363 14.3235 15.0127 14.5095 15.2242C14.5436 15.2628 14.58 15.2992 14.6186 15.3332C14.83 15.5192 15.1065 15.6332 15.4096 15.6332C15.698 15.6332 15.9627 15.5308 16.1699 15.3607C16.0864 15.3166 16.0086 15.2697 15.939 15.2193ZM16.3373 14.1903C16.3577 14.268 16.3697 14.3491 16.3697 14.4331C16.3697 14.517 16.3577 14.5981 16.3373 14.6758C16.3035 14.5791 16.2434 14.4958 16.1649 14.4331C16.2434 14.3703 16.3035 14.287 16.3373 14.1903ZM15.6524 13.5054C15.5558 13.5393 15.4725 13.5994 15.4097 13.6779C15.3469 13.5994 15.2636 13.5393 15.167 13.5054C15.2446 13.485 15.3257 13.4731 15.4097 13.4731C15.4937 13.4731 15.5747 13.485 15.6524 13.5054ZM14.482 14.1903C14.5159 14.287 14.576 14.3703 14.6544 14.4331C14.576 14.4959 14.5159 14.5791 14.482 14.6758C14.4616 14.5981 14.4496 14.5171 14.4496 14.4331C14.4496 14.3491 14.4616 14.2681 14.482 14.1903ZM15.1669 15.3608C15.2636 15.3269 15.3469 15.2668 15.4096 15.1883C15.4725 15.2668 15.5557 15.3269 15.6524 15.3608C15.5747 15.3812 15.4936 15.3931 15.4096 15.3931C15.3256 15.3931 15.2446 15.3811 15.1669 15.3608Z" fill="#E6B432"/>
<path d="M15.2296 14.4329C15.2296 14.3334 15.1491 14.2529 15.0496 14.2529C15.0003 14.2529 14.9557 14.2728 14.9232 14.3049C14.8902 14.3375 14.8696 14.3828 14.8696 14.4329C14.8696 14.483 14.8902 14.5283 14.9232 14.5608C14.9557 14.5929 15.0003 14.6129 15.0496 14.6129C15.1491 14.6128 15.2296 14.5322 15.2296 14.4329Z" fill="#F0C814"/>
<path d="M15.5896 14.4329C15.5896 14.5323 15.6702 14.6129 15.7696 14.6129C15.8189 14.6129 15.8636 14.5929 15.8961 14.5608C15.9291 14.5282 15.9496 14.4829 15.9496 14.4329C15.9496 14.3828 15.9291 14.3375 15.8961 14.3049C15.8635 14.2728 15.8189 14.2529 15.7696 14.2529C15.6702 14.2528 15.5896 14.3334 15.5896 14.4329Z" fill="#F0C814"/>
<path d="M15.4096 14.2528C15.5091 14.2528 15.5896 14.1722 15.5896 14.0728C15.5896 14.0235 15.5697 13.9789 15.5376 13.9464C15.505 13.9134 15.4597 13.8928 15.4096 13.8928C15.3595 13.8928 15.3142 13.9134 15.2817 13.9464C15.2496 13.9789 15.2296 14.0235 15.2296 14.0728C15.2296 14.1722 15.3102 14.2528 15.4096 14.2528Z" fill="#F0C814"/>
<path d="M15.4096 14.6128C15.3102 14.6128 15.2296 14.6934 15.2296 14.7928C15.2296 14.8421 15.2496 14.8868 15.2817 14.9192C15.3143 14.9523 15.3596 14.9728 15.4096 14.9728C15.4597 14.9728 15.505 14.9523 15.5376 14.9192C15.5697 14.8868 15.5896 14.8421 15.5896 14.7928C15.5896 14.6934 15.5091 14.6128 15.4096 14.6128Z" fill="#F0C814"/>
<path d="M20.9224 9.16048C20.9399 9.17792 20.96 9.19095 20.9815 9.19967C21.0033 9.20862 21.0265 9.21317 21.0497 9.21317C21.0957 9.21317 21.1418 9.19559 21.1769 9.16039C21.2393 9.098 21.243 9.00284 21.1948 8.93272L21.2611 8.66736C21.2706 8.66975 21.2796 8.67307 21.2897 8.67307C21.356 8.67307 21.4097 8.61936 21.4097 8.55307C21.4097 8.48679 21.356 8.43307 21.2897 8.43307C21.2234 8.43307 21.1697 8.48679 21.1697 8.55307C21.1697 8.5632 21.1731 8.5722 21.1754 8.58162L20.91 8.648C20.8399 8.59967 20.7447 8.60347 20.6824 8.66586C20.63 8.71826 20.6168 8.79486 20.6426 8.85964C20.6514 8.88172 20.6645 8.90253 20.6824 8.92043L20.9224 9.16048Z" fill="#D2D2D2"/>
<path d="M17.9296 11.9835V11.9132V11.4332C17.9296 11.4052 17.9407 11.3807 17.9567 11.3603L15.4567 8.85968C15.4479 8.88176 15.4348 8.90257 15.4169 8.92048L15.1769 9.16048C15.1595 9.17791 15.1393 9.19095 15.1178 9.19966L15.5628 9.64474L14.9126 10.2949L15.3368 10.7192L15.5065 10.5495L15.4216 10.4646L15.5913 10.2949L15.6762 10.3797L15.7611 10.2949L15.9307 10.4646L15.8459 10.5495L15.9307 10.6343L15.7611 10.804L15.6762 10.7192L15.5065 10.8889L15.9307 11.3131L16.5808 10.663L17.5956 11.6781C17.6171 11.683 17.6377 11.6915 17.6544 11.7082L17.9296 11.9835Z" fill="#D2D2D2"/>
<path d="M18.2049 12.2876L18.4353 12.518L19.2599 13.3428C19.3068 13.3897 19.3681 13.4132 19.4297 13.4132C19.4911 13.4132 19.5525 13.3897 19.5994 13.3428C19.6932 13.2492 19.6932 13.0972 19.5994 13.0035L18.5444 11.9481L18.2049 12.2876Z" fill="#D2D2D2"/>
<path d="M18.1696 11.9132V11.9835L18.3747 11.7784L18.1696 11.5734V11.9132Z" fill="#D2D2D2"/>
<path d="M21.5897 13.6422C21.6085 13.6489 21.6285 13.6532 21.6496 13.6532C21.7491 13.6532 21.8296 13.5726 21.8296 13.4732C21.8296 13.3738 21.7491 13.2932 21.6496 13.2932C21.5502 13.2932 21.4696 13.3738 21.4696 13.4732C21.4696 13.4944 21.4739 13.5143 21.4806 13.5332C21.5193 13.5671 21.5556 13.6035 21.5897 13.6422Z" fill="#D2D2D2"/>
<path d="M21.6496 15.2132C21.6285 15.2132 21.6085 15.2175 21.5897 15.2242C21.5556 15.2628 21.5193 15.2992 21.4806 15.3332C21.474 15.3521 21.4696 15.372 21.4696 15.3932C21.4696 15.4926 21.5502 15.5732 21.6496 15.5732C21.7491 15.5732 21.8296 15.4926 21.8296 15.3932C21.8296 15.2938 21.7491 15.2132 21.6496 15.2132Z" fill="#D2D2D2"/>
<path d="M19.8986 13.5331C19.9053 13.5143 19.9096 13.4943 19.9096 13.4732C19.9096 13.3738 19.829 13.2932 19.7296 13.2932C19.6302 13.2932 19.5496 13.3738 19.5496 13.4732C19.5496 13.5726 19.6302 13.6532 19.7296 13.6532C19.7508 13.6532 19.7707 13.6489 19.7896 13.6422C19.8236 13.6035 19.86 13.5672 19.8986 13.5331Z" fill="#D2D2D2"/>
<path d="M19.7296 15.5732C19.8291 15.5732 19.9096 15.4926 19.9096 15.3932C19.9096 15.386 19.9083 15.3792 19.9075 15.3721C19.8105 15.422 19.705 15.4674 19.5922 15.5083C19.6253 15.5476 19.6742 15.5732 19.7296 15.5732Z" fill="#D2D2D2"/>
<path d="M21.5897 15.2241C21.7757 15.0127 21.8896 14.7362 21.8896 14.4331C21.8896 14.13 21.7757 13.8535 21.5897 13.6421C21.5557 13.6035 21.5193 13.567 21.4807 13.533C21.2692 13.347 20.9928 13.2331 20.6896 13.2331C20.3865 13.2331 20.1101 13.347 19.8986 13.533C19.86 13.5671 19.8236 13.6035 19.7896 13.6421C19.6035 13.8535 19.4896 14.13 19.4896 14.4331C19.4896 14.5043 19.497 14.5737 19.509 14.6416C19.5359 14.7942 19.5917 14.9366 19.6706 15.0637C19.6959 15.1045 19.7231 15.1439 19.753 15.1813C19.8523 15.1335 19.9417 15.0813 20.0193 15.0252C20.0205 15.0243 20.0219 15.0242 20.0231 15.0234C19.9896 14.975 19.9696 14.9164 19.9696 14.8531C19.9696 14.7105 20.0698 14.5915 20.2032 14.5611C20.1702 14.5284 20.1496 14.4832 20.1496 14.4331C20.1496 14.383 20.1702 14.3377 20.2032 14.3051C20.0698 14.2747 19.9696 14.1556 19.9696 14.0131C19.9696 13.8476 20.1042 13.7131 20.2696 13.7131C20.4121 13.7131 20.5312 13.8132 20.5617 13.9467C20.5943 13.9136 20.6396 13.8931 20.6896 13.8931C20.7397 13.8931 20.785 13.9136 20.8176 13.9467C20.848 13.8132 20.9671 13.7131 21.1096 13.7131C21.2751 13.7131 21.4096 13.8476 21.4096 14.0131C21.4096 14.1556 21.3095 14.2747 21.1761 14.3051C21.2091 14.3377 21.2296 14.383 21.2296 14.4331C21.2296 14.4832 21.2091 14.5285 21.1761 14.5611C21.3095 14.5914 21.4096 14.7105 21.4096 14.8531C21.4096 15.0186 21.2751 15.1531 21.1096 15.1531C20.9671 15.1531 20.848 15.053 20.8176 14.9195C20.785 14.9526 20.7397 14.9731 20.6896 14.9731C20.6396 14.9731 20.5942 14.9526 20.5617 14.9195C20.5312 15.053 20.4122 15.1531 20.2696 15.1531C20.2479 15.1531 20.2268 15.1505 20.2063 15.1461C20.2005 15.1745 20.1853 15.2011 20.16 15.2195C20.0905 15.2698 20.0128 15.3166 19.9293 15.3607C20.1364 15.5308 20.4013 15.6331 20.6896 15.6331C20.9927 15.6331 21.2692 15.5192 21.4806 15.3332C21.5193 15.2991 21.5557 15.2627 21.5897 15.2241ZM19.762 14.6758C19.7416 14.5981 19.7296 14.5171 19.7296 14.4331C19.7296 14.3491 19.7416 14.268 19.762 14.1904C19.7959 14.287 19.856 14.3704 19.9344 14.4331C19.856 14.4959 19.7959 14.5791 19.762 14.6758ZM20.6896 13.6778C20.6268 13.5994 20.5436 13.5393 20.4469 13.5054C20.5246 13.485 20.6056 13.473 20.6896 13.473C20.7736 13.473 20.8547 13.485 20.9324 13.5054C20.8357 13.5393 20.7525 13.5994 20.6896 13.6778ZM21.6173 14.1903C21.6377 14.268 21.6497 14.3491 21.6497 14.433C21.6497 14.517 21.6377 14.5981 21.6173 14.6758C21.5835 14.5791 21.5234 14.4958 21.4449 14.433C21.5234 14.3703 21.5835 14.287 21.6173 14.1903ZM20.4469 15.3608C20.5436 15.3269 20.6269 15.2668 20.6896 15.1883C20.7525 15.2668 20.8357 15.3269 20.9324 15.3608C20.8547 15.3811 20.7736 15.3931 20.6896 15.3931C20.6056 15.3931 20.5246 15.3811 20.4469 15.3608Z" fill="#E6B432"/>
<path d="M20.8696 14.4329C20.8696 14.5323 20.9502 14.6129 21.0496 14.6129C21.099 14.6129 21.1436 14.5929 21.1761 14.5608C21.2091 14.5282 21.2296 14.4829 21.2296 14.4329C21.2296 14.3828 21.2091 14.3375 21.1761 14.3049C21.1435 14.2728 21.099 14.2529 21.0496 14.2529C20.9502 14.2528 20.8696 14.3334 20.8696 14.4329Z" fill="#F0C814"/>
<path d="M20.5096 14.4329C20.5096 14.3334 20.4291 14.2529 20.3296 14.2529C20.2803 14.2529 20.2357 14.2728 20.2032 14.3049C20.1702 14.3375 20.1496 14.3828 20.1496 14.4329C20.1496 14.483 20.1702 14.5283 20.2032 14.5608C20.2358 14.5929 20.2803 14.6129 20.3296 14.6129C20.4291 14.6128 20.5096 14.5322 20.5096 14.4329Z" fill="#F0C814"/>
<path d="M20.6896 14.2528C20.7891 14.2528 20.8696 14.1722 20.8696 14.0728C20.8696 14.0235 20.8497 13.9789 20.8176 13.9464C20.785 13.9134 20.7397 13.8928 20.6896 13.8928C20.6396 13.8928 20.5943 13.9134 20.5617 13.9464C20.5296 13.9789 20.5096 14.0235 20.5096 14.0728C20.5096 14.1722 20.5902 14.2528 20.6896 14.2528Z" fill="#F0C814"/>
<path d="M20.6896 14.6128C20.5902 14.6128 20.5096 14.6934 20.5096 14.7928C20.5096 14.8421 20.5296 14.8868 20.5617 14.9192C20.5943 14.9523 20.6396 14.9728 20.6896 14.9728C20.7397 14.9728 20.785 14.9523 20.8176 14.9192C20.8497 14.8868 20.8696 14.8421 20.8696 14.7928C20.8696 14.6934 20.7891 14.6128 20.6896 14.6128Z" fill="#F0C814"/>
<path d="M15.4169 8.92028C15.4348 8.90238 15.4479 8.88161 15.4567 8.85949C15.4824 8.7947 15.4693 8.71816 15.4169 8.6657C15.3545 8.60331 15.2594 8.59956 15.1892 8.64784L14.9239 8.58147C14.9263 8.57205 14.9296 8.56305 14.9296 8.55292C14.9296 8.48664 14.8759 8.43292 14.8096 8.43292C14.7433 8.43292 14.6896 8.48664 14.6896 8.55292C14.6896 8.6192 14.7433 8.67292 14.8096 8.67292C14.8197 8.67292 14.8287 8.6695 14.8381 8.6672L14.9045 8.93256C14.8562 9.00269 14.86 9.09789 14.9224 9.16024C14.9575 9.19539 15.0036 9.21302 15.0496 9.21302C15.0728 9.21302 15.096 9.20842 15.1178 9.19952C15.1393 9.1907 15.1594 9.17772 15.1769 9.16033L15.4169 8.92028Z" fill="#F7B518"/>
<path d="M20.16 15.2194C20.1854 15.2011 20.2005 15.1744 20.2064 15.146C20.2129 15.1142 20.2074 15.0801 20.1869 15.0518C20.1488 14.9995 20.0766 14.9874 20.0232 15.0233C20.022 15.0242 20.0205 15.0242 20.0193 15.0251C19.9418 15.0813 19.8523 15.1335 19.753 15.1812C19.4012 15.3505 18.9249 15.4633 18.4097 15.4998V13.8143C18.9334 14.5295 19.4435 14.9139 19.6706 15.0636C19.5917 14.9366 19.536 14.7942 19.509 14.6416C19.2186 14.4013 18.8079 13.9977 18.4097 13.3892V12.5738C18.4182 12.5551 18.4268 12.5368 18.4353 12.5179L18.2049 12.2875L18.5444 11.9481L18.6145 11.878C18.6614 11.8311 18.6614 11.7551 18.6145 11.7083C18.5843 11.6781 18.5423 11.6695 18.5035 11.6782C18.4821 11.683 18.4615 11.6916 18.4448 11.7083L18.3746 11.7784L18.1696 11.9834V11.9131V11.5733V11.4331C18.1696 11.4052 18.1585 11.3807 18.1425 11.3603C18.1206 11.3322 18.0879 11.3131 18.0496 11.3131C18.0112 11.3131 17.9786 11.3322 17.9566 11.3603C17.9407 11.3807 17.9296 11.4052 17.9296 11.4331V11.9131V11.9834L17.6544 11.7083C17.6378 11.6916 17.6171 11.683 17.5957 11.6782C17.5568 11.6695 17.5149 11.6781 17.4847 11.7083C17.4378 11.7551 17.4378 11.8311 17.4847 11.878L17.5548 11.9481L17.8943 12.2875L17.6639 12.5179C17.6723 12.5369 17.681 12.555 17.6895 12.5738V13.3882C17.2917 13.9955 16.8809 14.3995 16.5903 14.6404C16.5635 14.7934 16.5077 14.9363 16.4286 15.0635C16.6557 14.9138 17.1658 14.5294 17.6895 13.8142V15.4998C17.1743 15.4633 16.698 15.3504 16.3461 15.1811C16.2467 15.1333 16.1573 15.0811 16.0796 15.0249C16.0785 15.0241 16.0771 15.024 16.076 15.0233C16.0226 14.9872 15.9502 14.9993 15.912 15.0516C15.8915 15.08 15.886 15.1142 15.8926 15.146C15.8985 15.1743 15.9136 15.2009 15.9389 15.2192C16.0084 15.2696 16.0862 15.3165 16.1698 15.3605C16.177 15.3644 16.1843 15.3681 16.1916 15.3719C16.2886 15.4218 16.3941 15.4672 16.5069 15.508C16.8477 15.6313 17.2538 15.712 17.6895 15.7408V16.6263C17.7249 16.6057 17.7656 16.593 17.8095 16.593C17.8534 16.593 17.8941 16.6057 17.9295 16.6263V15.7513C17.9694 15.7521 18.0093 15.753 18.0495 15.753C18.0897 15.753 18.1296 15.7521 18.1695 15.7513V16.0263C18.2049 16.0057 18.2456 15.993 18.2895 15.993C18.3334 15.993 18.3741 16.0057 18.4095 16.0263V15.7408C18.8453 15.712 19.2514 15.6313 19.5921 15.508C19.7049 15.4672 19.8103 15.4217 19.9074 15.3719C19.9148 15.3681 19.922 15.3643 19.9292 15.3605C20.0128 15.3167 20.0905 15.2697 20.16 15.2194ZM18.0496 15.5131C18.0095 15.5131 17.9695 15.5122 17.9296 15.5113V13.4633C17.9699 13.4001 18.0098 13.3344 18.0496 13.2671C18.0894 13.3345 18.1294 13.4001 18.1696 13.4633V15.5113C18.1298 15.5123 18.0898 15.5131 18.0496 15.5131Z" fill="#FF4B55"/>
<path d="M18.0496 8.64627C18.7124 8.64627 19.2496 8.7597 19.2496 8.89962C19.2496 8.66422 19.2496 8.43453 19.2496 8.39867C19.2496 8.34364 19.1988 8.2918 19.11 8.24633L19.1376 8.19134C19.1811 8.18834 19.2172 8.16205 19.2359 8.12534C19.244 8.10941 19.2497 8.09216 19.2497 8.07294C19.2497 8.04987 19.2415 8.02953 19.2302 8.01125C19.209 7.97703 19.173 7.95294 19.1297 7.95294C19.0635 7.95294 19.0097 8.00666 19.0097 8.07294C19.0097 8.09694 19.0186 8.11803 19.0307 8.13678L18.9991 8.19992C18.9086 8.16809 18.797 8.14105 18.6697 8.12009L18.6832 8.06609C18.7328 8.05137 18.7697 8.00722 18.7697 7.95289C18.7697 7.88661 18.716 7.83289 18.6497 7.83289C18.5834 7.83289 18.5297 7.88661 18.5297 7.95289C18.5297 7.98673 18.5439 8.01697 18.5664 8.03881L18.5504 8.10289C18.4835 8.0945 18.4134 8.08789 18.3407 8.08292C18.3461 8.06037 18.3497 8.03708 18.3497 8.01289C18.3497 7.84723 18.2154 7.71289 18.0497 7.71289C17.8841 7.71289 17.7497 7.84723 17.7497 8.01289C17.7497 8.03717 17.7533 8.06037 17.7588 8.08292C17.6859 8.08784 17.6159 8.0945 17.5491 8.10289L17.533 8.03881C17.5555 8.01697 17.5697 7.98673 17.5697 7.95289C17.5697 7.88661 17.516 7.83289 17.4497 7.83289C17.3834 7.83289 17.3297 7.88661 17.3297 7.95289C17.3297 8.00727 17.3666 8.05137 17.4162 8.06609L17.4297 8.12009C17.3025 8.141 17.1909 8.16805 17.1003 8.19992L17.0687 8.13678C17.0809 8.11798 17.0897 8.09694 17.0897 8.07294C17.0897 8.00666 17.036 7.95294 16.9697 7.95294C16.9266 7.95294 16.8904 7.97698 16.8693 8.01125C16.858 8.02958 16.8497 8.04987 16.8497 8.07294C16.8497 8.09211 16.8554 8.10941 16.8635 8.12534C16.8821 8.16205 16.9184 8.18834 16.9619 8.19134L16.9894 8.24633C16.9005 8.2918 16.8498 8.34355 16.8498 8.39867C16.8498 8.43458 16.8498 8.66422 16.8498 8.89962C16.8496 8.7597 17.3869 8.64627 18.0496 8.64627Z" fill="#E6B432"/>
<path d="M16.8496 8.91294L16.8511 8.91233C16.8508 8.9083 16.8496 8.90286 16.8496 8.89963C16.8496 8.90413 16.8496 8.90849 16.8496 8.91294Z" fill="#E6B432"/>
<path d="M19.2496 8.91296C19.2496 8.9085 19.2496 8.9041 19.2496 8.8996C19.2496 8.90288 19.2485 8.90832 19.2481 8.9123L19.2496 8.91296Z" fill="#E6B432"/>
<path d="M17.0896 9.15308C17.0896 9.17708 17.0808 9.19817 17.0686 9.21692L17.1141 9.30791C17.1935 9.26853 17.302 9.23474 17.4317 9.20881L17.4161 9.14633C17.3665 9.13161 17.3296 9.08745 17.3296 9.03313C17.3296 8.96684 17.3833 8.91313 17.4496 8.91313C17.5159 8.91313 17.5696 8.96684 17.5696 9.03313C17.5696 9.06697 17.5554 9.0972 17.5329 9.11905L17.5502 9.18824C17.666 9.17094 17.7939 9.15941 17.9296 9.15514V9.04644C17.8931 9.01349 17.8696 8.96628 17.8696 8.91313C17.8696 8.8137 17.9502 8.73313 18.0496 8.73313C18.1491 8.73313 18.2296 8.8137 18.2296 8.91313C18.2296 8.96624 18.2062 9.01349 18.1696 9.04644V9.15514C18.3053 9.15945 18.4333 9.17099 18.549 9.18824L18.5664 9.11905C18.5439 9.0972 18.5297 9.06697 18.5297 9.03313C18.5297 8.96684 18.5834 8.91313 18.6497 8.91313C18.716 8.91313 18.7697 8.96684 18.7697 9.03313C18.7697 9.0875 18.7328 9.13161 18.6832 9.14633L18.6676 9.20881C18.7973 9.23474 18.9058 9.26863 18.9852 9.30791L19.0306 9.21692C19.0185 9.19813 19.0096 9.17708 19.0096 9.15308C19.0096 9.0868 19.0634 9.03308 19.1296 9.03308C19.1583 9.03308 19.1836 9.04456 19.2043 9.06139C19.231 8.99581 19.2452 8.94374 19.2481 8.91252C19.2485 8.90849 19.2496 8.90305 19.2496 8.89981C19.2496 8.75989 18.7124 8.64645 18.0496 8.64645C17.3869 8.64645 16.8496 8.75989 16.8496 8.89981C16.8496 8.9031 16.8508 8.90853 16.8511 8.91252C16.854 8.94374 16.8682 8.99581 16.895 9.06139C16.9156 9.04456 16.9409 9.03308 16.9696 9.03308C17.0359 9.03303 17.0896 9.0868 17.0896 9.15308Z" fill="#EBEBEB"/>
<path d="M16.8496 9.15311C16.8496 9.21658 16.8993 9.26725 16.9617 9.27151L17.0135 9.37506C16.9854 9.40258 16.9696 9.43154 16.9696 9.46164C16.9696 9.49623 16.9905 9.52947 17.0272 9.56054L17.2096 9.87311C17.2096 9.74054 17.5857 9.63311 18.0496 9.63311C18.5135 9.63311 18.8896 9.74054 18.8896 9.87311L19.0719 9.56054C19.1088 9.52947 19.1296 9.49633 19.1296 9.46164C19.1296 9.43154 19.1138 9.40258 19.0857 9.37506L19.1375 9.27151C19.1999 9.2672 19.2496 9.21658 19.2496 9.15311C19.2496 9.11556 19.2313 9.0834 19.2042 9.06142C19.1836 9.04459 19.1583 9.03311 19.1296 9.03311C19.0633 9.03311 19.0096 9.08683 19.0096 9.15311C19.0096 9.17711 19.0185 9.1982 19.0306 9.21695L18.9851 9.30794C18.9057 9.26856 18.7972 9.23476 18.6675 9.20884L18.6832 9.14636C18.7327 9.13164 18.7696 9.08748 18.7696 9.03315C18.7696 8.96687 18.7159 8.91315 18.6496 8.91315C18.5834 8.91315 18.5296 8.96687 18.5296 9.03315C18.5296 9.067 18.5438 9.09723 18.5663 9.11908L18.549 9.18826C18.4332 9.17097 18.3053 9.15944 18.1696 9.15517V9.04647C18.2062 9.01351 18.2296 8.96631 18.2296 8.91315C18.2296 8.81373 18.149 8.73315 18.0496 8.73315C17.9502 8.73315 17.8696 8.81373 17.8696 8.91315C17.8696 8.96626 17.893 9.01351 17.9296 9.04647V9.15517C17.7939 9.15948 17.666 9.17101 17.5502 9.18826L17.5328 9.11908C17.5553 9.09723 17.5695 9.067 17.5695 9.03315C17.5695 8.96687 17.5158 8.91315 17.4495 8.91315C17.3833 8.91315 17.3295 8.96687 17.3295 9.03315C17.3295 9.08753 17.3664 9.13164 17.416 9.14636L17.4316 9.20884C17.3019 9.23476 17.1934 9.26865 17.1141 9.30794L17.0686 9.21695C17.0807 9.19815 17.0896 9.17711 17.0896 9.15311C17.0896 9.08683 17.0359 9.03311 16.9696 9.03311C16.9409 9.03311 16.9156 9.04459 16.895 9.06142C16.868 9.0834 16.8496 9.11551 16.8496 9.15311Z" fill="#E6B432"/>
<path d="M18.0497 10.1133C18.5136 10.1133 18.8897 10.0058 18.8897 9.87327C18.8897 9.74072 18.5136 9.63327 18.0497 9.63327C17.5858 9.63327 17.2097 9.74072 17.2097 9.87327C17.2097 10.0058 17.5858 10.1133 18.0497 10.1133Z" fill="#EBEBEB"/>
<path d="M19.2209 7.82834L19.0096 7.35302C19.0096 7.32302 18.9866 7.29443 18.9464 7.26795L19.1169 6.92674C19.1466 6.86745 19.1226 6.79535 19.0633 6.76573C19.0038 6.73629 18.9319 6.76024 18.9022 6.8194L18.8096 7.00479L18.7211 7.1817C18.6702 7.16923 18.6135 7.1583 18.5525 7.14888L18.5632 7.10627C18.6127 7.09156 18.6496 7.0474 18.6496 6.99307C18.6496 6.92679 18.5959 6.87307 18.5296 6.87307C18.4634 6.87307 18.4096 6.92679 18.4096 6.99307C18.4096 7.02691 18.4238 7.05715 18.4463 7.07899L18.4328 7.13309C18.3154 7.12024 18.1859 7.11307 18.0496 7.11307C17.9133 7.11307 17.7839 7.12024 17.6665 7.13309L17.6529 7.07899C17.6754 7.05715 17.6896 7.02691 17.6896 6.99307C17.6896 6.92679 17.6359 6.87307 17.5696 6.87307C17.5034 6.87307 17.4496 6.92679 17.4496 6.99307C17.4496 7.04745 17.4865 7.09156 17.5361 7.10627L17.5468 7.14888C17.4858 7.1583 17.4291 7.16923 17.3781 7.1817L17.2897 7.00479L17.197 6.8194C17.1673 6.76024 17.0955 6.73634 17.036 6.76573C16.9767 6.79535 16.9526 6.86745 16.9823 6.92674L17.1529 7.26795C17.1127 7.29443 17.0896 7.32302 17.0896 7.35302L16.8783 7.82834C16.9968 7.69381 17.4758 7.59302 18.0496 7.59302C18.6234 7.59302 19.1024 7.69376 19.2209 7.82834Z" fill="#E6B432"/>
<path d="M18.0497 7.1133C18.1491 7.1133 18.2297 7.03271 18.2297 6.9333C18.2297 6.83388 18.1491 6.7533 18.0497 6.7533C17.9503 6.7533 17.8697 6.83388 17.8697 6.9333C17.8697 7.03271 17.9503 7.1133 18.0497 7.1133Z" fill="#E6B432"/>
</svg>
