<svg xmlns="http://www.w3.org/2000/svg" width="24" height="24" viewBox="0 0 24 24" fill="none"><rect width="24" height="24" fill="none"/>
<path d="M22.2134 4.13809H1.78664C0.798984 4.1439 0 4.94612 0 5.93519V9.37947H24V5.93519C24 4.94612 23.201 4.1439 22.2134 4.13809Z" fill="#82AFFF"/>
<path d="M0 18.0645C0 19.0572 0.804703 19.8619 1.79742 19.8619H22.2026C23.1952 19.8619 24 19.0572 24 18.0645V14.6208H0V18.0645Z" fill="#82AFFF"/>
<path d="M24 9.3797H0V14.6208H24V9.3797Z" fill="#FFE15A"/>
<path d="M0.601453 19.4059L9.66084 12.2146C9.79894 12.105 9.79894 11.8953 9.66084 11.7856L0.601125 4.59409C0.232406 4.92329 0 5.40202 0 5.93518V18.0645C0 18.5979 0.2325 19.0767 0.601453 19.4059Z" fill="#464655"/>
</svg>
