<svg xmlns="http://www.w3.org/2000/svg" width="24" height="24" viewBox="0 0 24 24" fill="none"><rect width="24" height="24" fill="none"/>
<path d="M22.2026 4.13789H1.79742C0.804703 4.13789 0 4.9426 0 5.93532V18.0647C0 19.0574 0.804703 19.8621 1.79742 19.8621H22.2026C23.1952 19.8621 24 19.0574 24 18.0647V5.93532C24 4.9426 23.1953 4.13789 22.2026 4.13789Z" fill="#82C3D2"/>
<path d="M2.78982 6.02096C2.75236 5.86242 2.74304 5.80392 2.81419 5.73282C2.84888 5.69813 2.84888 5.64192 2.81419 5.60724C2.77951 5.57255 2.7233 5.57255 2.68861 5.60724C2.54461 5.75128 2.57897 5.90077 2.61624 6.05902C2.50271 6.02194 2.38496 6.04946 2.32186 6.12905C2.29055 6.16875 2.22999 6.28013 2.34347 6.45797C2.36986 6.49927 2.42443 6.51141 2.4661 6.48525C2.50749 6.45886 2.51954 6.40388 2.49315 6.36263C2.45058 6.29564 2.44932 6.25435 2.46122 6.23925C2.47529 6.22139 2.51888 6.21197 2.56454 6.22814C2.59402 6.23836 2.66255 6.27375 2.66255 6.38063C2.66255 6.46599 2.62308 6.54422 2.55427 6.59508C2.48532 6.64608 2.39607 6.66047 2.31005 6.63375C2.20383 6.60132 2.12963 6.48942 2.12963 6.3616C2.12963 6.27014 2.14922 6.17771 2.18522 6.09671C2.19094 6.08475 2.32669 5.80355 2.36166 5.69874C2.4308 5.49141 2.36054 5.38716 2.31258 5.34361C2.24841 5.28516 2.15461 5.27058 2.0739 5.30597C2.06161 5.31141 2.05149 5.31928 2.04085 5.3266C2.03021 5.31924 2.02004 5.31141 2.0078 5.30597C1.92713 5.27058 1.83338 5.28511 1.76912 5.34361C1.72116 5.38716 1.6509 5.49146 1.72004 5.69874C1.75501 5.80355 1.89071 6.08475 1.89526 6.09413C1.93243 6.17775 1.95207 6.27019 1.95207 6.36164C1.95207 6.48952 1.87791 6.60136 1.77165 6.6338C1.6853 6.66047 1.59633 6.64627 1.52743 6.59513C1.45861 6.54427 1.41915 6.46608 1.41915 6.38067C1.41915 6.2738 1.48768 6.23846 1.51716 6.22819C1.56296 6.21206 1.60632 6.22139 1.62047 6.2393C1.63238 6.25439 1.63111 6.29569 1.58855 6.36267C1.56216 6.40397 1.57421 6.459 1.6156 6.4853C1.65732 6.51169 1.71207 6.49936 1.73822 6.45802C1.85171 6.28017 1.79115 6.16885 1.75983 6.1291C1.69669 6.0495 1.57899 6.02194 1.46546 6.05906C1.50277 5.90086 1.53708 5.75128 1.39308 5.60728C1.3584 5.5726 1.30219 5.5726 1.26751 5.60728C1.23282 5.64197 1.23282 5.69817 1.26751 5.73286C1.33861 5.80397 1.32938 5.86242 1.29188 6.021C1.26933 6.11602 1.2414 6.23452 1.2414 6.38058C1.2414 6.4778 1.27552 6.57071 1.33304 6.64706H1.33018C1.2811 6.64706 1.24135 6.68677 1.24135 6.73589C1.24135 6.78502 1.28105 6.82472 1.33018 6.82472H1.33304C1.27552 6.90103 1.2414 6.99399 1.2414 7.09116C1.2414 7.23722 1.26933 7.35572 1.29179 7.45078C1.32924 7.60936 1.33857 7.66781 1.26741 7.73892C1.23272 7.77361 1.23272 7.82981 1.26741 7.8645C1.28476 7.88185 1.30749 7.89052 1.33022 7.89052C1.35291 7.89052 1.37569 7.88185 1.39304 7.8645C1.53704 7.72046 1.50268 7.57092 1.46541 7.41272C1.57894 7.44966 1.69669 7.42228 1.75979 7.34269C1.7911 7.30299 1.85166 7.19161 1.73818 7.01377C1.71188 6.97247 1.65699 6.96019 1.61555 6.98649C1.57416 7.01288 1.56211 7.06786 1.58851 7.10911C1.63107 7.1761 1.63233 7.21739 1.62043 7.23249C1.60632 7.25016 1.56291 7.25953 1.51712 7.2436C1.48763 7.23338 1.4191 7.19799 1.4191 7.09111C1.4191 7.00575 1.45857 6.92752 1.52738 6.87671C1.59633 6.82571 1.68549 6.81113 1.7716 6.83803C1.87782 6.87047 1.95202 6.98236 1.95202 7.11019C1.95202 7.20164 1.93243 7.29408 1.89521 7.37771L1.31344 8.68646C1.26563 8.79403 1.24135 8.90836 1.24135 9.02611C1.24135 9.17766 1.31026 9.31603 1.41872 9.4005C1.3103 9.48497 1.24135 9.62335 1.24135 9.77489C1.24135 9.89269 1.26568 10.007 1.31344 10.1145L1.89511 11.4233C1.93229 11.5069 1.95193 11.5993 1.95193 11.6908C1.95193 11.8186 1.87777 11.9305 1.77151 11.9629C1.68516 11.9898 1.59619 11.9754 1.52729 11.9243C1.45847 11.8734 1.41901 11.7952 1.41901 11.7098C1.41901 11.603 1.48754 11.5676 1.51702 11.5574C1.56282 11.5414 1.60618 11.5506 1.62033 11.5685C1.63224 11.5836 1.63097 11.6249 1.58841 11.6918C1.56202 11.7331 1.57407 11.7881 1.61546 11.8145C1.65718 11.8409 1.71193 11.8287 1.73808 11.7872C1.85157 11.6093 1.79101 11.498 1.75969 11.4583C1.69655 11.3786 1.57885 11.3513 1.46532 11.3882C1.50263 11.23 1.53694 11.0805 1.39294 10.9365C1.35826 10.9018 1.30205 10.9018 1.26736 10.9365C1.23268 10.9711 1.23268 11.0273 1.26736 11.062C1.33847 11.1331 1.32924 11.1916 1.29174 11.3502C1.26929 11.4451 1.24135 11.5636 1.24135 11.7097C1.24135 11.8069 1.27547 11.8998 1.33299 11.9762H1.33013C1.28105 11.9762 1.2413 12.0159 1.2413 12.065C1.2413 12.1141 1.28101 12.1538 1.33013 12.1538H1.33299C1.27547 12.2302 1.24135 12.3231 1.24135 12.4203C1.24135 12.5664 1.26929 12.6849 1.29174 12.78C1.32919 12.9385 1.33852 12.997 1.26736 13.0681C1.23268 13.1028 1.23268 13.159 1.26736 13.1937C1.28471 13.211 1.30744 13.2197 1.33018 13.2197C1.35286 13.2197 1.37565 13.211 1.39299 13.1937C1.53699 13.0496 1.50263 12.9001 1.46536 12.7419C1.5789 12.7788 1.69665 12.7515 1.75974 12.6719C1.79105 12.6322 1.85162 12.5208 1.73813 12.3429C1.71183 12.3016 1.65694 12.2894 1.61551 12.3157C1.57411 12.342 1.56207 12.397 1.58846 12.4383C1.63102 12.5053 1.63229 12.5466 1.62038 12.5617C1.60627 12.5795 1.56286 12.5888 1.51707 12.5728C1.48758 12.5625 1.41905 12.5272 1.41905 12.4203C1.41905 12.3349 1.45852 12.2567 1.52733 12.2059C1.59629 12.1549 1.68544 12.1403 1.77155 12.1672C1.87777 12.1996 1.95197 12.3115 1.95197 12.4394C1.95197 12.5308 1.93238 12.6233 1.89516 12.7069L1.31344 14.0158C1.26563 14.1233 1.24135 14.2377 1.24135 14.3555C1.24135 14.507 1.31026 14.6454 1.41872 14.7299C1.3103 14.8143 1.24135 14.9527 1.24135 15.1043C1.24135 15.222 1.26568 15.3364 1.31344 15.4439L1.89511 16.7526C1.93229 16.8362 1.95193 16.9287 1.95193 17.0201C1.95193 17.148 1.87777 17.2599 1.77151 17.2923C1.68516 17.3192 1.59619 17.3046 1.52729 17.2536C1.45847 17.2028 1.41901 17.1246 1.41901 17.0392C1.41901 16.9323 1.48754 16.897 1.51702 16.8867C1.56282 16.8707 1.60618 16.8799 1.62033 16.8978C1.63224 16.9129 1.63097 16.9542 1.58841 17.0212C1.56202 17.0625 1.57407 17.1175 1.61546 17.1438C1.65718 17.1702 1.71193 17.158 1.73808 17.1166C1.85157 16.9387 1.79101 16.8274 1.75969 16.7876C1.69655 16.7078 1.57885 16.6805 1.46532 16.7176C1.50263 16.5594 1.53694 16.4098 1.39294 16.2658C1.35826 16.2311 1.30205 16.2311 1.26736 16.2658C1.23268 16.3005 1.23268 16.3567 1.26736 16.3914C1.33847 16.4625 1.32924 16.521 1.29174 16.6795C1.26929 16.7745 1.24135 16.893 1.24135 17.039C1.24135 17.1782 1.30805 17.3108 1.41957 17.3943C1.30805 17.4779 1.24135 17.6104 1.24135 17.7496C1.24135 17.8957 1.26929 18.0142 1.29174 18.1093C1.32919 18.2678 1.33852 18.3263 1.26736 18.3974C1.23268 18.4321 1.23268 18.4883 1.26736 18.523C1.28471 18.5403 1.30744 18.549 1.33018 18.549C1.35286 18.549 1.37565 18.5403 1.39299 18.523C1.53699 18.3789 1.50263 18.2294 1.46536 18.0712C1.5789 18.1081 1.69665 18.0807 1.75974 18.0011C1.79105 17.9614 1.85162 17.85 1.73813 17.6722C1.71183 17.6309 1.65694 17.6188 1.61551 17.6449C1.57411 17.6713 1.56207 17.7263 1.58846 17.7675C1.63102 17.8345 1.63229 17.8758 1.62038 17.8909C1.60627 17.9088 1.56286 17.918 1.51707 17.902C1.48758 17.8918 1.41905 17.8564 1.41905 17.7495C1.41905 17.6642 1.45852 17.586 1.52733 17.5351C1.59629 17.4841 1.68544 17.4697 1.77155 17.4964C1.87777 17.5289 1.95197 17.6408 1.95197 17.7686C1.95197 17.86 1.93238 17.9525 1.89638 18.0335C1.89066 18.0454 1.75491 18.3266 1.71994 18.4314C1.6508 18.6388 1.72107 18.743 1.76902 18.7866C1.81004 18.8239 1.86287 18.8435 1.91687 18.8435C1.94747 18.8435 1.97851 18.837 2.00776 18.8243C2.02004 18.8188 2.03016 18.8109 2.0408 18.8036C2.05144 18.811 2.06161 18.8188 2.07385 18.8243C2.10305 18.8371 2.13418 18.8435 2.16474 18.8435C2.2186 18.8435 2.27152 18.8239 2.31258 18.7866C2.36054 18.743 2.4308 18.6387 2.36166 18.4314C2.32669 18.3266 2.19099 18.0455 2.18644 18.036C2.14927 17.9524 2.12963 17.86 2.12963 17.7685C2.12963 17.6407 2.20379 17.5288 2.31005 17.4964C2.39644 17.4697 2.48536 17.484 2.55427 17.535C2.62308 17.5859 2.66255 17.6641 2.66255 17.7495C2.66255 17.8564 2.59402 17.8917 2.56454 17.902C2.51893 17.918 2.47524 17.9088 2.46122 17.8909C2.44932 17.8758 2.45058 17.8345 2.49315 17.7675C2.51954 17.7262 2.50749 17.6713 2.4661 17.6449C2.42461 17.6189 2.36991 17.631 2.34347 17.6722C2.22999 17.85 2.29055 17.9613 2.32186 18.0011C2.38501 18.0807 2.50271 18.1081 2.61624 18.0711C2.57893 18.2293 2.54461 18.3789 2.68861 18.5229C2.70596 18.5403 2.72869 18.549 2.75143 18.549C2.77416 18.549 2.7969 18.5403 2.81424 18.5229C2.84893 18.4883 2.84893 18.432 2.81424 18.3974C2.74313 18.3263 2.75236 18.2678 2.78986 18.1092C2.81232 18.0142 2.84026 17.8957 2.84026 17.7496C2.84026 17.6104 2.77355 17.4778 2.66208 17.3943C2.77355 17.3108 2.84026 17.1782 2.84026 17.039C2.84026 16.8929 2.81232 16.7744 2.78986 16.6793C2.75241 16.5208 2.74308 16.4623 2.81424 16.3912C2.84893 16.3565 2.84893 16.3003 2.81424 16.2656C2.77955 16.2309 2.72335 16.2309 2.68866 16.2656C2.54466 16.4097 2.57902 16.5592 2.61629 16.7174C2.50276 16.6803 2.38501 16.7076 2.32191 16.7874C2.2906 16.8271 2.23004 16.9385 2.34352 17.1164C2.36991 17.1577 2.42447 17.1698 2.46615 17.1436C2.50754 17.1173 2.51958 17.0623 2.49319 17.021C2.45063 16.954 2.44936 16.9127 2.46127 16.8976C2.47533 16.8798 2.51893 16.8706 2.56458 16.8865C2.59407 16.8968 2.6626 16.9321 2.6626 17.039C2.6626 17.1244 2.62313 17.2026 2.55432 17.2534C2.48536 17.3044 2.39612 17.319 2.3101 17.2921C2.20388 17.2597 2.12968 17.1478 2.12968 17.0199C2.12968 16.9285 2.14927 16.836 2.18649 16.7524L2.76816 15.4437C2.81597 15.3362 2.84026 15.2218 2.84026 15.1041C2.84026 14.9525 2.77135 14.8141 2.66288 14.7297C2.77135 14.6452 2.84026 14.5068 2.84026 14.3553C2.84026 14.2375 2.81593 14.1232 2.76816 14.0156L2.18649 12.7069C2.14932 12.6233 2.12968 12.5309 2.12968 12.4394C2.12968 12.3115 2.20383 12.1997 2.3101 12.1673C2.39649 12.1406 2.48541 12.1549 2.55432 12.2059C2.62313 12.2568 2.6626 12.335 2.6626 12.4203C2.6626 12.5272 2.59407 12.5625 2.56458 12.5728C2.51897 12.5889 2.47529 12.5796 2.46127 12.5617C2.44936 12.5466 2.45063 12.5053 2.49319 12.4383C2.51958 12.397 2.50754 12.342 2.46615 12.3157C2.42466 12.2897 2.36996 12.3018 2.34352 12.343C2.23004 12.5208 2.2906 12.6322 2.32191 12.6719C2.38505 12.7515 2.50276 12.7789 2.61629 12.7419C2.57897 12.9001 2.54466 13.0497 2.68866 13.1937C2.70601 13.2111 2.72874 13.2197 2.75147 13.2197C2.77421 13.2197 2.79694 13.2111 2.81429 13.1937C2.84897 13.159 2.84897 13.1028 2.81429 13.0681C2.74318 12.997 2.75241 12.9386 2.78991 12.78C2.81237 12.6849 2.8403 12.5664 2.8403 12.4204C2.8403 12.3232 2.80618 12.2303 2.74866 12.1539H2.75152C2.8006 12.1539 2.84035 12.1142 2.84035 12.0651C2.84035 12.016 2.80065 11.9762 2.75152 11.9762H2.74866C2.80618 11.8999 2.8403 11.807 2.8403 11.7098C2.8403 11.5637 2.81237 11.4452 2.78991 11.3501C2.75246 11.1915 2.74313 11.1331 2.81429 11.062C2.84897 11.0273 2.84897 10.9711 2.81429 10.9364C2.7796 10.9017 2.7234 10.9017 2.68871 10.9364C2.54471 11.0805 2.57907 11.23 2.61633 11.3882C2.5028 11.3513 2.38505 11.3786 2.32196 11.4582C2.29065 11.4979 2.23008 11.6093 2.34357 11.7871C2.36996 11.8284 2.42452 11.8404 2.46619 11.8144C2.50758 11.788 2.51963 11.733 2.49324 11.6918C2.45068 11.6248 2.44941 11.5835 2.46132 11.5684C2.47538 11.5506 2.51897 11.5414 2.56463 11.5573C2.59412 11.5675 2.66265 11.6029 2.66265 11.7098C2.66265 11.7952 2.62318 11.8734 2.55436 11.9242C2.48541 11.9752 2.39616 11.9896 2.31015 11.9629C2.20393 11.9304 2.12972 11.8185 2.12972 11.6907C2.12972 11.5993 2.14932 11.5068 2.18654 11.4232L2.76821 10.1145C2.81602 10.007 2.8403 9.8926 2.8403 9.77485C2.8403 9.6233 2.7714 9.48492 2.66293 9.40046C2.7714 9.31603 2.8403 9.17761 2.8403 9.02607C2.8403 8.90827 2.81597 8.79394 2.76821 8.68641L2.18654 7.37771C2.14936 7.29408 2.12972 7.20164 2.12972 7.11019C2.12972 6.98232 2.20388 6.87047 2.31015 6.83803C2.39654 6.81136 2.48546 6.82571 2.55436 6.87671C2.62318 6.92757 2.66265 7.00575 2.66265 7.09111C2.66265 7.19799 2.59412 7.23333 2.56463 7.2436C2.51902 7.25958 2.47533 7.25021 2.46132 7.23249C2.44941 7.21739 2.45068 7.1761 2.49324 7.10911C2.51963 7.06781 2.50758 7.01283 2.46619 6.98649C2.42471 6.96047 2.37001 6.97242 2.34357 7.01372C2.23008 7.19157 2.29065 7.30289 2.32196 7.34264C2.3851 7.42224 2.5028 7.44966 2.61633 7.41267C2.57902 7.57088 2.54471 7.72046 2.68871 7.86446C2.70605 7.8818 2.72879 7.89047 2.75152 7.89047C2.77421 7.89047 2.79699 7.8818 2.81433 7.86446C2.84902 7.82977 2.84902 7.77356 2.81433 7.73888C2.74322 7.66777 2.75246 7.60932 2.78996 7.45074C2.81241 7.35567 2.84035 7.23717 2.84035 7.09111C2.84035 6.99389 2.80622 6.90099 2.74871 6.82463H2.75157C2.80065 6.82463 2.8404 6.78492 2.8404 6.7358C2.8404 6.68667 2.80069 6.64697 2.75157 6.64697H2.74871C2.80622 6.57061 2.84035 6.47775 2.84035 6.38049C2.84016 6.23452 2.81222 6.11602 2.78982 6.02096ZM1.88841 5.64239C1.85686 5.54771 1.86788 5.49375 1.88869 5.47481C1.90229 5.46197 1.92291 5.46249 1.93599 5.46839C1.95202 5.47547 1.95202 5.48677 1.95202 5.49235C1.95202 5.54142 1.99172 5.58117 2.04085 5.58117C2.08993 5.58117 2.12968 5.54147 2.12968 5.49235C2.12968 5.48681 2.12968 5.47552 2.14571 5.46839C2.15855 5.46249 2.17904 5.46197 2.19301 5.47481C2.21386 5.49375 2.22488 5.54771 2.19329 5.64239C2.17032 5.71107 2.08721 5.88985 2.0409 5.98688C1.99552 5.8921 1.91152 5.71153 1.88841 5.64239ZM2.0408 9.30736C2.0663 9.342 2.09513 9.37425 2.13019 9.4005C2.09513 9.4268 2.0663 9.459 2.0408 9.49364C2.0153 9.459 1.98647 9.42675 1.95141 9.4005C1.98647 9.37416 2.0153 9.342 2.0408 9.30736ZM2.0408 14.6366C2.0663 14.6712 2.09513 14.7035 2.13019 14.7297C2.09513 14.756 2.0663 14.7882 2.0408 14.8229C2.0153 14.7882 1.98647 14.756 1.95141 14.7297C1.98647 14.7035 2.0153 14.6714 2.0408 14.6366ZM2.19319 18.4879C2.22474 18.5826 2.21372 18.6366 2.19291 18.6555C2.17894 18.6682 2.15846 18.6676 2.14561 18.6619C2.12958 18.6548 2.12958 18.6435 2.12958 18.638C2.12958 18.5889 2.08988 18.5491 2.04076 18.5491C1.99163 18.5491 1.95193 18.5888 1.95193 18.638C1.95193 18.6435 1.95193 18.6548 1.9359 18.6619C1.92286 18.6676 1.90224 18.6682 1.8886 18.6555C1.86774 18.6366 1.85677 18.5826 1.88832 18.4879C1.91129 18.4193 1.9944 18.2405 2.04071 18.1434C2.08604 18.2382 2.17004 18.4187 2.19319 18.4879ZM2.12935 17.3944C2.09574 17.4206 2.06593 17.4519 2.0408 17.4873C2.01572 17.4519 1.98586 17.4206 1.95226 17.3944C1.98586 17.3683 2.01568 17.337 2.0408 17.3016C2.06588 17.337 2.09565 17.3683 2.12935 17.3944ZM2.60569 15.3716L2.04076 16.6427L1.47582 15.3716C1.43865 15.288 1.41901 15.1956 1.41901 15.1041C1.41901 14.9762 1.49316 14.8643 1.59943 14.832C1.68572 14.8052 1.77483 14.8196 1.84365 14.8706C1.91246 14.9215 1.95193 14.9997 1.95193 15.0851C1.95193 15.192 1.8834 15.2273 1.85391 15.2376C1.80811 15.2535 1.76457 15.2444 1.7506 15.2265C1.73869 15.2114 1.73996 15.1701 1.78252 15.1031C1.80891 15.0618 1.79686 15.0068 1.75547 14.9805C1.71399 14.9544 1.65929 14.9666 1.63285 15.0077C1.51941 15.1856 1.57993 15.2969 1.61124 15.3367C1.67555 15.4178 1.79654 15.4458 1.91222 15.4053C1.9254 15.4007 1.93876 15.3951 1.95193 15.3884V15.613C1.95193 15.6129 1.95179 15.6128 1.95179 15.6128C1.94911 15.5661 1.9104 15.5292 1.86315 15.5292C1.81407 15.5292 1.77432 15.5689 1.77432 15.618C1.77432 15.6759 1.81482 15.7764 1.95197 15.8076V15.9733C1.95197 16.0223 1.99168 16.0621 2.0408 16.0621C2.08988 16.0621 2.12963 16.0224 2.12963 15.9733V15.8076C2.26674 15.7764 2.30729 15.6759 2.30729 15.618C2.30729 15.5689 2.26768 15.5263 2.21865 15.5263C2.16957 15.5263 2.13001 15.5631 2.13001 15.6121C2.12996 15.6123 2.12968 15.6125 2.12963 15.6127V15.3885C2.1428 15.3952 2.15616 15.4008 2.16933 15.4054C2.28502 15.4458 2.40596 15.4179 2.47032 15.3368C2.50163 15.297 2.56219 15.1857 2.44871 15.0078C2.42232 14.9665 2.36752 14.9544 2.32608 14.9805C2.28469 15.0069 2.27265 15.0619 2.29904 15.1032C2.3416 15.1702 2.34287 15.2115 2.33096 15.2265C2.3169 15.2444 2.2734 15.2536 2.22765 15.2377C2.19816 15.2274 2.12963 15.192 2.12963 15.0852C2.12963 14.9998 2.1691 14.9216 2.23791 14.8707C2.30686 14.8197 2.39611 14.8051 2.48213 14.832C2.58835 14.8645 2.66255 14.9764 2.66255 15.1042C2.66255 15.1956 2.64296 15.2881 2.60569 15.3716ZM2.60569 14.0879C2.64287 14.1715 2.66251 14.264 2.66251 14.3554C2.66251 14.4833 2.58835 14.5951 2.48208 14.6276C2.39588 14.6545 2.30668 14.6399 2.23787 14.5889C2.16905 14.5381 2.12958 14.4599 2.12958 14.3745C2.12958 14.2676 2.19811 14.2323 2.2276 14.222C2.2733 14.206 2.3169 14.2152 2.33091 14.2331C2.34282 14.2482 2.34155 14.2895 2.29899 14.3565C2.2726 14.3978 2.28465 14.4527 2.32604 14.4791C2.36776 14.5055 2.42251 14.4933 2.44866 14.4518C2.56215 14.274 2.50158 14.1627 2.47027 14.1229C2.40591 14.0417 2.28497 14.0141 2.16929 14.0543C2.15611 14.0588 2.14276 14.0645 2.12958 14.0712V13.8465L2.12972 13.8468C2.1324 13.8934 2.17111 13.9304 2.21836 13.9304C2.26744 13.9304 2.30719 13.8907 2.30719 13.8416C2.30719 13.7836 2.26669 13.6831 2.12954 13.652V13.4863C2.12954 13.4372 2.08983 13.3975 2.04071 13.3975C1.99163 13.3975 1.95188 13.4372 1.95188 13.4863V13.652C1.81477 13.6831 1.77422 13.7836 1.77422 13.8416C1.77422 13.8907 1.81383 13.9333 1.86287 13.9333C1.91194 13.9333 1.95151 13.8965 1.95151 13.8474C1.95155 13.8473 1.95183 13.8471 1.95183 13.8471L1.95188 14.0711C1.93871 14.0645 1.92535 14.0588 1.91218 14.0542C1.79649 14.0141 1.67551 14.0417 1.61119 14.1229C1.57988 14.1626 1.51932 14.274 1.6328 14.4518C1.65919 14.4931 1.71399 14.5051 1.75543 14.4791C1.79682 14.4527 1.80886 14.3977 1.78247 14.3565C1.73991 14.2895 1.73865 14.2482 1.75055 14.2331C1.76452 14.2152 1.80807 14.206 1.85386 14.222C1.88335 14.2322 1.95188 14.2676 1.95188 14.3745C1.95188 14.4598 1.91241 14.538 1.8436 14.5889C1.77465 14.6399 1.68558 14.6544 1.59938 14.6275C1.49316 14.5951 1.41896 14.4832 1.41896 14.3554C1.41896 14.2639 1.43855 14.1715 1.47577 14.0879L2.04071 12.8168L2.60569 14.0879ZM2.12935 12.0652C2.09574 12.0913 2.06593 12.1226 2.0408 12.158C2.01572 12.1226 1.98586 12.0914 1.95226 12.0652C1.98586 12.039 2.01568 12.0077 2.0408 11.9723C2.06588 12.0077 2.09565 12.039 2.12935 12.0652ZM2.60569 10.0424L2.04076 11.3135L1.47582 10.0424C1.43865 9.95878 1.41901 9.86635 1.41901 9.77489C1.41901 9.64702 1.49316 9.53517 1.59943 9.50274C1.68572 9.47602 1.77483 9.49041 1.84365 9.54141C1.91246 9.59227 1.95193 9.67046 1.95193 9.75586C1.95193 9.86274 1.8834 9.89808 1.85391 9.90835C1.80811 9.92447 1.76457 9.91514 1.7506 9.89724C1.73869 9.88214 1.73996 9.84085 1.78252 9.77386C1.80891 9.73257 1.79686 9.67763 1.75547 9.65124C1.71399 9.62503 1.65929 9.63717 1.63285 9.67842C1.51941 9.85627 1.57993 9.9676 1.61124 10.0073C1.67555 10.0885 1.79654 10.1163 1.91222 10.076C1.9254 10.0714 1.93876 10.0658 1.95193 10.0591V10.2837L1.95179 10.2834C1.94911 10.2368 1.9104 10.1998 1.86315 10.1998C1.81407 10.1998 1.77432 10.2395 1.77432 10.2886C1.77432 10.3466 1.81482 10.4471 1.95197 10.4782V10.6439C1.95197 10.693 1.99168 10.7327 2.0408 10.7327C2.08988 10.7327 2.12963 10.693 2.12963 10.6439V10.4782C2.26674 10.4471 2.30729 10.3466 2.30729 10.2886C2.30729 10.2396 2.26768 10.1969 2.21865 10.1969C2.16957 10.1969 2.13001 10.2337 2.13001 10.2827C2.12996 10.2829 2.12968 10.2831 2.12968 10.2831L2.12963 10.059C2.1428 10.0658 2.15616 10.0714 2.16933 10.076C2.28502 10.1162 2.40596 10.0885 2.47032 10.0073C2.50163 9.9676 2.56219 9.85622 2.44871 9.67838C2.42232 9.63689 2.36752 9.6248 2.32608 9.65119C2.28469 9.67758 2.27265 9.73256 2.29904 9.77381C2.3416 9.8408 2.34287 9.8821 2.33096 9.89719C2.3169 9.91505 2.2734 9.92447 2.22765 9.9083C2.19816 9.89808 2.12963 9.86269 2.12963 9.75581C2.12963 9.67046 2.1691 9.59222 2.23791 9.54136C2.30686 9.49036 2.39611 9.47597 2.48213 9.50269C2.58835 9.53513 2.66255 9.64702 2.66255 9.77485C2.66255 9.8663 2.64296 9.95874 2.60569 10.0424ZM2.60569 8.7586C2.64287 8.84222 2.66251 8.93466 2.66251 9.02611C2.66251 9.15399 2.58835 9.26583 2.48208 9.29827C2.39588 9.32517 2.30668 9.3106 2.23787 9.2596C2.16905 9.20874 2.12958 9.13055 2.12958 9.04514C2.12958 8.93827 2.19811 8.90292 2.2276 8.89266C2.2733 8.87667 2.3169 8.88586 2.33091 8.90377C2.34282 8.91886 2.34155 8.96016 2.29899 9.02714C2.2726 9.06844 2.28465 9.12342 2.32604 9.14977C2.36776 9.17597 2.42251 9.16397 2.44866 9.12253C2.56215 8.94469 2.50158 8.83336 2.47027 8.79361C2.40591 8.71242 2.28497 8.68467 2.16929 8.72494C2.15611 8.72949 2.14276 8.73516 2.12958 8.74186V8.51724C2.12958 8.51728 2.12972 8.51738 2.12972 8.51738C2.1324 8.56416 2.17111 8.60105 2.21836 8.60105C2.26744 8.60105 2.30719 8.56135 2.30719 8.51222C2.30719 8.45428 2.26669 8.35378 2.12954 8.32266V8.15696C2.12954 8.10788 2.08983 8.06813 2.04071 8.06813C1.99163 8.06813 1.95188 8.10783 1.95188 8.15696V8.32266C1.81477 8.35378 1.77422 8.45428 1.77422 8.51222C1.77422 8.5613 1.81383 8.604 1.86287 8.604C1.91194 8.604 1.95151 8.56721 1.95151 8.51813C1.95155 8.51799 1.95183 8.51775 1.95188 8.51761V8.74182C1.93871 8.73511 1.92535 8.72944 1.91218 8.72489C1.79649 8.68467 1.67551 8.71238 1.61119 8.79356C1.57988 8.83327 1.51932 8.94464 1.6328 9.12249C1.65919 9.16378 1.71399 9.17578 1.75543 9.14972C1.79682 9.12333 1.80886 9.06835 1.78247 9.0271C1.73991 8.96011 1.73865 8.91882 1.75055 8.90372C1.76452 8.88586 1.80807 8.87667 1.85386 8.89261C1.88335 8.90283 1.95188 8.93822 1.95188 9.0451C1.95188 9.13046 1.91241 9.20869 1.8436 9.25955C1.77465 9.31055 1.68558 9.32513 1.59938 9.29822C1.49316 9.26578 1.41896 9.15389 1.41896 9.02607C1.41896 8.93461 1.43855 8.84217 1.47577 8.75855L2.04071 7.48749L2.60569 8.7586ZM1.95221 6.73589C1.98582 6.70974 2.01563 6.67842 2.04076 6.64303C2.06583 6.67842 2.09565 6.70969 2.1293 6.73589C2.09569 6.76205 2.06588 6.79336 2.04076 6.82875C2.01568 6.79327 1.98591 6.76196 1.95221 6.73589Z" fill="#FFE15A"/>
<path d="M12.691 13.1548C13.8716 13.1548 14.8288 12.1977 14.8288 11.0171C14.8288 9.83639 13.8716 8.87927 12.691 8.87927C11.5103 8.87927 10.5532 9.83639 10.5532 11.0171C10.5532 12.1977 11.5103 13.1548 12.691 13.1548Z" fill="#FFE15A"/>
<path d="M12.8516 8.29143C12.8516 8.37997 12.7798 8.45178 12.6912 8.45178C12.6027 8.45178 12.5309 8.37997 12.5309 8.29143C12.5309 8.20288 12.6912 7.81039 12.6912 7.81039C12.6912 7.81039 12.8516 8.20288 12.8516 8.29143Z" fill="#FFE15A"/>
<path d="M12.5309 13.7431C12.5309 13.6545 12.6027 13.5827 12.6913 13.5827C12.7798 13.5827 12.8516 13.6545 12.8516 13.7431C12.8516 13.8316 12.6913 14.2241 12.6913 14.2241C12.6913 14.2241 12.5309 13.8317 12.5309 13.7431Z" fill="#FFE15A"/>
<path d="M15.4171 11.1776C15.3286 11.1776 15.2568 11.1058 15.2568 11.0172C15.2568 10.9287 15.3286 10.8569 15.4171 10.8569C15.5057 10.8569 15.8982 11.0172 15.8982 11.0172C15.8982 11.0172 15.5057 11.1776 15.4171 11.1776Z" fill="#FFE15A"/>
<path d="M9.96542 10.8569C10.054 10.8569 10.1258 10.9287 10.1258 11.0173C10.1258 11.1058 10.054 11.1776 9.96542 11.1776C9.87688 11.1776 9.48439 11.0173 9.48439 11.0173C9.48439 11.0173 9.87688 10.8569 9.96542 10.8569Z" fill="#FFE15A"/>
<path d="M14.7321 9.20317C14.6695 9.26579 14.568 9.26579 14.5054 9.20317C14.4427 9.14054 14.4427 9.03901 14.5054 8.97638C14.568 8.91381 14.9589 8.7496 14.9589 8.7496C14.9589 8.7496 14.7948 9.14054 14.7321 9.20317Z" fill="#FFE15A"/>
<path d="M10.6505 12.8313C10.7131 12.7687 10.8146 12.7687 10.8772 12.8313C10.9399 12.894 10.9399 12.9955 10.8772 13.0581C10.8146 13.1208 10.4237 13.2849 10.4237 13.2849C10.4237 13.2849 10.5878 12.894 10.6505 12.8313Z" fill="#FFE15A"/>
<path d="M14.5054 13.0581C14.4428 12.9954 14.4428 12.894 14.5054 12.8313C14.568 12.7686 14.6695 12.7687 14.7322 12.8313C14.7949 12.8939 14.959 13.2848 14.959 13.2848C14.959 13.2848 14.568 13.1207 14.5054 13.0581Z" fill="#FFE15A"/>
<path d="M10.8772 8.97638C10.9398 9.03901 10.9398 9.14049 10.8772 9.20316C10.8146 9.26584 10.7131 9.26579 10.6504 9.20316C10.5877 9.14054 10.4236 8.74965 10.4236 8.74965C10.4236 8.74965 10.8146 8.9138 10.8772 8.97638Z" fill="#FFE15A"/>
<path d="M11.7963 8.43751C11.8302 8.51935 11.7913 8.6131 11.7095 8.64699C11.6277 8.68088 11.5339 8.64202 11.5 8.56018C11.4661 8.47833 11.4641 8.0544 11.4641 8.0544C11.4641 8.0544 11.7624 8.35566 11.7963 8.43751Z" fill="#FFE15A"/>
<path d="M13.5863 13.597C13.5524 13.5151 13.5913 13.4214 13.6731 13.3875C13.755 13.3536 13.8487 13.3925 13.8826 13.4743C13.9165 13.5562 13.9186 13.9801 13.9186 13.9801C13.9186 13.9801 13.6202 13.6789 13.5863 13.597Z" fill="#FFE15A"/>
<path d="M15.271 10.1223C15.1892 10.1562 15.0954 10.1173 15.0615 10.0355C15.0276 9.95365 15.0665 9.8599 15.1483 9.82601C15.2302 9.79212 15.6541 9.79005 15.6541 9.79005C15.6541 9.79005 15.3529 10.0884 15.271 10.1223Z" fill="#FFE15A"/>
<path d="M10.1116 11.9122C10.1934 11.8783 10.2872 11.9172 10.3211 11.999C10.355 12.0809 10.3161 12.1746 10.2343 12.2085C10.1524 12.2424 9.72847 12.2445 9.72847 12.2445C9.72847 12.2445 10.0297 11.9462 10.1116 11.9122Z" fill="#FFE15A"/>
<path d="M13.8826 8.56024C13.8487 8.64208 13.7549 8.68089 13.6731 8.64705C13.5912 8.61316 13.5524 8.51936 13.5863 8.43757C13.6202 8.35572 13.9185 8.0545 13.9185 8.0545C13.9185 8.0545 13.9165 8.47844 13.8826 8.56024Z" fill="#FFE15A"/>
<path d="M11.5 13.4743C11.5339 13.3925 11.6277 13.3537 11.7095 13.3875C11.7913 13.4214 11.8302 13.5152 11.7963 13.597C11.7624 13.6788 11.4641 13.98 11.4641 13.98C11.4641 13.98 11.4661 13.5561 11.5 13.4743Z" fill="#FFE15A"/>
<path d="M15.1482 12.2086C15.0664 12.1747 15.0276 12.0809 15.0614 11.9991C15.0953 11.9173 15.1891 11.8784 15.2709 11.9123C15.3528 11.9462 15.654 12.2445 15.654 12.2445C15.654 12.2445 15.2301 12.2425 15.1482 12.2086Z" fill="#FFE15A"/>
<path d="M10.2343 9.82601C10.3161 9.8599 10.3549 9.95369 10.3211 10.0355C10.2872 10.1173 10.1934 10.1561 10.1116 10.1223C10.0297 10.0884 9.72852 9.7901 9.72852 9.7901C9.72852 9.7901 10.1525 9.79207 10.2343 9.82601Z" fill="#FFE15A"/>
<path d="M12.3168 8.31251C12.3341 8.39937 12.2777 8.48379 12.1908 8.50104C12.1039 8.51834 12.0195 8.4619 12.0023 8.37504C11.985 8.28818 12.0657 7.87198 12.0657 7.87198C12.0657 7.87198 12.2995 8.22565 12.3168 8.31251Z" fill="#FFE15A"/>
<path d="M13.0658 13.722C13.0485 13.6352 13.105 13.5507 13.1918 13.5335C13.2787 13.5162 13.3631 13.5726 13.3804 13.6595C13.3977 13.7463 13.3169 14.1625 13.3169 14.1625C13.3169 14.1625 13.0831 13.8089 13.0658 13.722Z" fill="#FFE15A"/>
<path d="M15.3961 10.6428C15.3092 10.6601 15.2248 10.6037 15.2075 10.5168C15.1902 10.4299 15.2466 10.3455 15.3335 10.3282C15.4204 10.3109 15.8366 10.3917 15.8366 10.3917C15.8366 10.3917 15.4829 10.6255 15.3961 10.6428Z" fill="#FFE15A"/>
<path d="M9.98652 11.3918C10.0734 11.3745 10.1578 11.4309 10.1751 11.5178C10.1923 11.6047 10.1359 11.6891 10.0491 11.7064C9.96219 11.7236 9.54599 11.6429 9.54599 11.6429C9.54599 11.6429 9.89966 11.4091 9.98652 11.3918Z" fill="#FFE15A"/>
<path d="M14.339 8.83989C14.2898 8.91353 14.1902 8.93332 14.1166 8.8841C14.0429 8.83492 14.0232 8.73532 14.0724 8.66167C14.1216 8.58808 14.4729 8.3508 14.4729 8.3508C14.4729 8.3508 14.3882 8.76621 14.339 8.83989Z" fill="#FFE15A"/>
<path d="M11.0435 13.1946C11.0927 13.121 11.1923 13.1012 11.266 13.1504C11.3396 13.1996 11.3594 13.2992 11.3102 13.3729C11.261 13.4464 10.9096 13.6837 10.9096 13.6837C10.9096 13.6837 10.9944 13.2684 11.0435 13.1946Z" fill="#FFE15A"/>
<path d="M14.8687 12.665C14.795 12.6158 14.7753 12.5162 14.8245 12.4426C14.8737 12.369 14.9733 12.3491 15.0469 12.3984C15.1205 12.4475 15.3578 12.7989 15.3578 12.7989C15.3578 12.7989 14.9423 12.7142 14.8687 12.665Z" fill="#FFE15A"/>
<path d="M10.5139 9.36953C10.5875 9.41871 10.6074 9.51831 10.5581 9.59195C10.5089 9.6656 10.4093 9.68538 10.3357 9.63616C10.262 9.58694 10.0248 9.23561 10.0248 9.23561C10.0248 9.23561 10.4403 9.32036 10.5139 9.36953Z" fill="#FFE15A"/>
<path d="M11.3102 8.66167C11.3593 8.73531 11.3396 8.83488 11.266 8.8841C11.1923 8.93327 11.0928 8.91349 11.0435 8.83989C10.9944 8.76625 10.9096 8.35085 10.9096 8.35085C10.9096 8.35085 11.261 8.58813 11.3102 8.66167Z" fill="#FFE15A"/>
<path d="M14.0724 13.3728C14.0232 13.2992 14.043 13.1996 14.1166 13.1504C14.1902 13.1013 14.2898 13.121 14.339 13.1946C14.3882 13.2683 14.4729 13.6837 14.4729 13.6837C14.4729 13.6837 14.1216 13.4465 14.0724 13.3728Z" fill="#FFE15A"/>
<path d="M15.0469 9.63616C14.9733 9.68533 14.8737 9.66555 14.8244 9.59195C14.7753 9.51831 14.795 9.41875 14.8686 9.36953C14.9422 9.32036 15.3577 9.23561 15.3577 9.23561C15.3577 9.23561 15.1205 9.58699 15.0469 9.63616Z" fill="#FFE15A"/>
<path d="M10.3357 12.3984C10.4093 12.3492 10.5089 12.369 10.5582 12.4426C10.6073 12.5162 10.5875 12.6158 10.5139 12.665C10.4403 12.7142 10.0249 12.7989 10.0249 12.7989C10.0249 12.7989 10.2621 12.4476 10.3357 12.3984Z" fill="#FFE15A"/>
<path d="M13.3804 8.37509C13.3631 8.46195 13.2787 8.51838 13.1918 8.50109C13.105 8.48379 13.0485 8.39941 13.0658 8.31255C13.0831 8.22569 13.3169 7.87207 13.3169 7.87207C13.3169 7.87207 13.3976 8.28818 13.3804 8.37509Z" fill="#FFE15A"/>
<path d="M12.0022 13.6595C12.0195 13.5726 12.1039 13.5162 12.1908 13.5335C12.2776 13.5508 12.3341 13.6352 12.3168 13.722C12.2995 13.8089 12.0657 14.1625 12.0657 14.1625C12.0657 14.1625 11.985 13.7464 12.0022 13.6595Z" fill="#FFE15A"/>
<path d="M15.3335 11.7064C15.2466 11.6891 15.1902 11.6047 15.2075 11.5178C15.2248 11.431 15.3092 11.3745 15.396 11.3918C15.4829 11.4091 15.8366 11.6429 15.8366 11.6429C15.8366 11.6429 15.4204 11.7236 15.3335 11.7064Z" fill="#FFE15A"/>
<path d="M10.0491 10.3282C10.136 10.3455 10.1924 10.4298 10.1751 10.5167C10.1578 10.6036 10.0734 10.66 9.98657 10.6427C9.89971 10.6254 9.54604 10.3916 9.54604 10.3916C9.54604 10.3916 9.96224 10.3109 10.0491 10.3282Z" fill="#FFE15A"/>
<path d="M17.72 11.5797C17.6574 11.5534 17.5858 11.5836 17.5597 11.6458C17.5597 11.6461 17.5597 11.6461 17.5597 11.6461C17.5593 11.6473 17.5568 11.653 17.5527 11.6629C17.46 11.8793 17.2683 12.1957 17.0747 12.4933C17.255 11.9129 17.4198 11.2929 17.4313 11.2493C17.4485 11.1842 17.41 11.1173 17.345 11.0997C17.2799 11.0822 17.213 11.1201 17.1947 11.1849C17.1106 11.4864 16.9385 11.8832 16.7797 12.2191C16.8088 11.8446 16.8143 11.4976 16.8147 11.4725C16.8156 11.4061 16.7637 11.3513 16.6973 11.3482C16.6349 11.3501 16.5748 11.3956 16.5698 11.4619C16.4128 13.6213 14.3349 14.5873 14.1326 14.6762C14.0267 14.6867 13.5336 14.7423 13.0861 14.8977C13.0353 14.9153 12.9922 14.933 12.9492 14.9505C12.9332 14.9445 12.916 14.9411 12.898 14.9422C11.5244 15.0416 10.4293 14.4781 9.64213 13.271C9.04742 12.3589 8.86091 11.4016 8.85908 11.392C8.84652 11.3254 8.78277 11.2825 8.71592 11.2943C8.64936 11.307 8.60563 11.3709 8.61824 11.4375C8.6232 11.4639 8.70505 11.8818 8.93042 12.4318C8.62888 11.9558 8.41874 11.3791 8.34477 11.0788C8.34327 11.0728 8.33942 11.0682 8.33717 11.0627C8.33375 11.0542 8.3308 11.0457 8.32569 11.0383C8.32208 11.0331 8.31735 11.0293 8.31308 11.0248C8.30638 11.0177 8.29995 11.0108 8.29175 11.0055C8.28706 11.0024 8.28181 11.0009 8.2767 10.9985C8.26766 10.9943 8.2588 10.9901 8.24872 10.9883C8.24174 10.9869 8.23461 10.9878 8.22735 10.9877C8.21999 10.9876 8.21305 10.9857 8.20555 10.987C8.20391 10.9873 8.20264 10.9884 8.201 10.9888C8.19941 10.9891 8.19791 10.9886 8.19631 10.989C8.18975 10.9906 8.18474 10.9947 8.17874 10.9973C8.1711 11.0006 8.16327 11.0031 8.15656 11.0077C8.14995 11.0123 8.14503 11.0182 8.13955 11.0238C8.13406 11.0295 8.12835 11.0344 8.12403 11.0409C8.11967 11.0476 8.11733 11.055 8.11424 11.0624C8.11128 11.0695 8.10786 11.0763 8.10631 11.084C8.10472 11.0919 8.10542 11.1001 8.10547 11.1084C8.10547 11.115 8.10364 11.1213 8.10481 11.1281C8.10528 11.1309 8.10622 11.1339 8.10674 11.1367V11.1372C8.10688 11.1377 8.10706 11.1384 8.1072 11.139C8.18305 11.5858 8.3638 12.049 8.52725 12.4023C8.2677 12.1078 8.05081 11.7684 7.97394 11.5675C7.97174 11.5616 7.96728 11.5576 7.96428 11.5523C7.95974 11.5442 7.95575 11.5359 7.94961 11.5292C7.94525 11.5244 7.93996 11.5213 7.93499 11.5173C7.92753 11.5113 7.92045 11.5053 7.91183 11.5012C7.9063 11.4985 7.9003 11.4977 7.89444 11.4959C7.88539 11.4931 7.87663 11.4901 7.86702 11.4895C7.85947 11.489 7.85197 11.4909 7.84433 11.4919C7.83725 11.4928 7.83027 11.4919 7.82324 11.4941C7.82188 11.4946 7.82094 11.4956 7.81967 11.4961C7.81836 11.4965 7.81705 11.4962 7.81574 11.4968C7.80908 11.4993 7.80435 11.5042 7.79839 11.5077C7.79141 11.5118 7.78395 11.5153 7.778 11.5206C7.77191 11.5261 7.76769 11.5329 7.76291 11.5394C7.75836 11.5456 7.7533 11.551 7.74992 11.5579C7.74641 11.5651 7.7451 11.5728 7.74308 11.5806C7.74106 11.5881 7.73839 11.5951 7.73788 11.6031C7.73731 11.611 7.73928 11.6189 7.74031 11.6269C7.74121 11.6339 7.74027 11.6408 7.74242 11.6476C7.87583 12.0779 8.19664 12.5899 8.44799 12.9505C8.23855 12.7891 8.08461 12.6146 8.03994 12.5619C8.03511 12.5562 8.03038 12.5504 8.02555 12.5447C7.98233 12.4927 7.90592 12.4853 7.85361 12.5277C7.80144 12.5703 7.79324 12.647 7.83542 12.6993C7.83772 12.7022 7.84691 12.7137 7.86224 12.7317C8.04617 12.9506 8.24656 13.1548 8.42811 13.3272L8.17977 13.2214C8.12314 13.197 8.05658 13.219 8.02555 13.2728C7.99456 13.3268 8.00853 13.395 8.05822 13.4323C8.08236 13.4503 8.52219 13.7788 8.90291 13.973C8.867 13.9751 8.82486 13.9725 8.7777 13.9689C8.72014 13.9634 8.66352 14.0046 8.6495 14.063C8.63572 14.1216 8.66638 14.1815 8.72206 14.2045C8.73144 14.2083 8.84745 14.2562 8.9907 14.3072C8.95728 14.3208 8.9307 14.3489 8.91969 14.3852C8.90319 14.4396 8.92639 14.4985 8.9757 14.5268C8.98855 14.5342 9.16189 14.6336 9.3763 14.7217C9.37058 14.7305 9.36589 14.7401 9.36242 14.7506C9.34564 14.8021 9.36481 14.8586 9.40949 14.8895C9.4467 14.9151 10.2794 15.4802 11.252 15.4802C11.3158 15.4802 11.3803 15.4778 11.4452 15.4726C11.5126 15.4673 11.5631 15.4082 11.5577 15.3406C11.5523 15.2731 11.4937 15.2221 11.4256 15.2283C10.8147 15.2782 10.226 15.0488 9.87599 14.8734C9.9222 14.8621 9.94878 14.8519 9.95539 14.8493C10.0094 14.8272 10.0405 14.7705 10.03 14.7132C10.0194 14.6559 9.97011 14.6141 9.9118 14.6129C9.76967 14.61 9.57285 14.5408 9.4033 14.4665C9.46733 14.4345 9.50474 14.4038 9.50802 14.4011C9.54491 14.3702 9.56047 14.3209 9.54791 14.2745C9.53525 14.2283 9.49663 14.1935 9.44928 14.1859C9.3972 14.1773 9.33233 14.1605 9.26431 14.1399C9.33041 14.1018 9.35853 14.0599 9.36931 14.0386C9.38633 14.0046 9.3867 13.9648 9.37039 13.9306C9.35399 13.8964 9.32277 13.8717 9.2856 13.8638C9.25353 13.8568 9.2172 13.8451 9.17797 13.8298C9.18514 13.8226 9.19175 13.8144 9.1971 13.8051C9.22831 13.7522 9.21542 13.6842 9.16695 13.6461C9.16442 13.6442 9.06927 13.5695 8.92517 13.4452C8.94805 13.4368 8.96825 13.4213 8.98288 13.4002C9.01377 13.3557 9.01156 13.2961 8.97772 13.2539C8.975 13.2505 8.8797 13.1307 8.74836 12.9487C8.79172 12.9824 8.83503 13.0168 8.87835 13.0446C8.89874 13.0576 8.9218 13.064 8.94467 13.064C8.9757 13.064 9.00631 13.0523 9.02989 13.0295C9.0396 13.0201 9.04719 13.0094 9.05319 12.9979C9.12758 13.0773 9.20572 13.1495 9.2878 13.211C9.29849 13.219 9.31147 13.2189 9.32347 13.2229C9.35825 13.2812 9.39444 13.3396 9.43241 13.3981C10.1769 14.5436 11.2267 15.1572 12.4858 15.194C12.3698 15.2644 12.244 15.3372 12.0447 15.4148C12.0012 15.4318 11.9628 15.4487 11.9241 15.4658C11.9055 15.4694 11.888 15.4762 11.8733 15.4877C11.5255 15.6488 11.3815 15.8078 11.3231 15.9191C11.2648 16.0298 11.3151 16.1432 11.3863 16.2022C11.4084 16.2203 11.4366 16.2297 11.4649 16.2297C11.4843 16.2297 11.5037 16.2254 11.5213 16.2165C11.5646 16.1949 11.5936 16.1492 11.5917 16.1011C11.5967 16.0956 11.618 16.0779 11.6848 16.0757C11.7335 16.0716 11.836 16.0826 11.9556 16.0922C12.0695 16.1016 12.206 16.1123 12.3511 16.1197C12.2603 16.2256 12.1548 16.3482 12.1548 16.3482C12.1231 16.3851 12.1161 16.4373 12.1372 16.4811C12.1584 16.5252 12.204 16.5525 12.2519 16.5508C12.3488 16.5474 12.4146 16.5455 12.4578 16.5446C12.4955 16.5939 12.5418 16.6135 12.5715 16.6212C12.6559 16.6427 12.7399 16.609 12.8032 16.569C12.8511 16.6035 12.899 16.6181 12.937 16.6236C13.0226 16.6353 13.1019 16.6104 13.1592 16.5821C13.2185 16.6205 13.2767 16.6303 13.3211 16.6303C13.3217 16.6303 13.3224 16.6303 13.3231 16.6303C13.4187 16.6298 13.5024 16.5836 13.5617 16.5383C13.614 16.5694 13.664 16.5795 13.7027 16.5812C13.7905 16.5843 13.8633 16.5505 13.9116 16.5189C14.0844 16.5536 14.2333 16.4722 14.3318 16.3824C14.3767 16.4085 14.4194 16.415 14.4534 16.4133C14.5409 16.4102 14.6076 16.357 14.6504 16.3094C14.8463 16.333 14.9869 16.2969 15.0681 16.2004C15.1124 16.148 15.1304 16.0889 15.1353 16.035C15.6787 16.0319 15.7279 15.7351 15.7319 15.6985C15.7355 15.6652 15.7253 15.6319 15.7037 15.6063C15.6821 15.5807 15.6508 15.5649 15.6175 15.563L14.1927 15.4773C14.133 15.473 14.0798 15.513 14.066 15.5712C14.0657 15.5722 14.0415 15.6626 13.9655 15.735C13.8632 15.8326 13.6985 15.8842 13.5194 15.9115C13.52 15.8951 13.5178 15.8784 13.5115 15.8621C13.487 15.7989 13.4159 15.7682 13.3529 15.792C13.0588 15.9061 12.5825 15.8918 12.21 15.8658C12.2671 15.8191 12.3359 15.7729 12.3909 15.7427C12.4374 15.7171 12.4623 15.6646 12.4525 15.6124C12.4453 15.5745 12.4179 15.5481 12.3849 15.5311C12.4885 15.4788 12.5734 15.4283 12.654 15.3792C12.7939 15.2935 12.926 15.2128 13.1667 15.1292C13.6312 14.9678 14.1688 14.9187 14.1742 14.9182C14.1864 14.9173 14.1984 14.9141 14.2098 14.9096C14.2289 14.9017 15.7453 14.2664 16.4597 12.8006C16.4503 12.8449 16.4403 12.8854 16.4294 12.9208C16.4107 12.9812 16.4409 13.0456 16.499 13.07C16.544 13.0889 16.5952 13.0791 16.6298 13.047C16.5847 13.166 16.5439 13.2596 16.5105 13.3149C16.4765 13.3712 16.493 13.4443 16.5477 13.4806C16.5605 13.489 16.5742 13.4948 16.5883 13.4981C16.533 13.5791 16.477 13.6557 16.421 13.7259C16.3838 13.7726 16.386 13.8392 16.4249 13.8833C16.3288 13.9838 16.2438 14.0667 16.1791 14.1194C16.1368 14.1536 16.1231 14.2109 16.1425 14.2597C16.0801 14.2954 16.0288 14.3206 15.9933 14.3313C15.9337 14.3492 15.8971 14.4093 15.9083 14.4706C15.9142 14.503 15.9324 14.5303 15.9575 14.5482C15.8825 14.5683 15.8005 14.5877 15.7115 14.6054C15.6613 14.6154 15.6226 14.6554 15.6144 14.706C15.6062 14.7565 15.6302 14.8068 15.6746 14.8321C15.6784 14.8343 15.7203 14.858 15.7844 14.8853C15.5473 14.9808 15.1237 15.1056 14.4288 15.1741C14.3615 15.1808 14.3122 15.2409 14.3189 15.3082C14.3255 15.3755 14.3837 15.4222 14.453 15.4184C15.7721 15.2879 16.1795 14.9577 16.1961 14.9435C16.2342 14.9116 16.2493 14.8597 16.2342 14.8123C16.2241 14.7809 16.2021 14.7556 16.1738 14.7409C16.5952 14.6082 16.7762 14.4614 16.7856 14.4535C16.8318 14.4152 16.8434 14.3489 16.813 14.2969C16.7824 14.2449 16.7186 14.2224 16.6629 14.2449C16.6472 14.2509 16.6222 14.2571 16.5905 14.2634C16.8734 14.0697 17.1736 13.839 17.3057 13.7361C17.3289 13.7189 17.35 13.7023 17.3685 13.6867C17.4198 13.6436 17.427 13.5675 17.3847 13.5155C17.3427 13.4638 17.2662 13.4551 17.2138 13.4966C17.1946 13.5117 17.1747 13.5272 17.1541 13.5433C17.0932 13.5886 17.0152 13.6398 16.9302 13.6924C17.2512 13.328 17.5743 12.9329 17.6667 12.8194C17.675 12.8091 17.6833 12.7988 17.6917 12.7885C17.7341 12.7358 17.7258 12.6587 17.6731 12.6163C17.6203 12.5732 17.5431 12.5821 17.5008 12.6345L17.5005 12.6347L17.5004 12.635C17.4981 12.6376 17.4878 12.6506 17.4703 12.6721C17.3736 12.7902 17.2718 12.9045 17.1713 13.0112C17.4983 12.4186 17.7459 11.8352 17.7822 11.7488C17.7835 11.7457 17.7847 11.7426 17.786 11.7394C17.8121 11.6775 17.7826 11.6056 17.72 11.5797ZM11.9736 15.7126L12.0071 15.717C11.966 15.7553 11.9327 15.7984 11.9061 15.8428C11.8479 15.8381 11.795 15.8341 11.7537 15.8322C11.8107 15.7949 11.8841 15.7545 11.9736 15.7126Z" fill="#FFE15A"/>
</svg>
