<svg xmlns="http://www.w3.org/2000/svg" width="24" height="24" viewBox="0 0 24 24" fill="none"><rect width="24" height="24" fill="none"/>
<path d="M1.79742 4.13782C0.804703 4.13782 0 4.94252 0 5.93524V18.0646C0 19.0572 0.804703 19.862 1.79742 19.862H8.00002V4.13782H1.79742Z" fill="#73AF00"/>
<path d="M16.0003 4.138H8.00015V19.8622H16.0003V4.138Z" fill="#F5F5F5"/>
<path d="M22.2026 4.13782H16V19.8619H22.2026C23.1953 19.8619 24 19.0572 24 18.0645V5.93524C24 4.94252 23.1953 4.13782 22.2026 4.13782Z" fill="#FF4B55"/>
<path d="M12.7137 12.37L12 12.7269V13.0837H12.3569L12.7137 12.37Z" fill="#FFD250"/>
<path d="M11.9998 13.976C11.9012 13.976 11.8214 13.8962 11.8214 13.7976V13.0839C11.8214 12.9853 11.9012 12.9055 11.9998 12.9055C12.0984 12.9055 12.1782 12.9853 12.1782 13.0839V13.7976C12.1782 13.8962 12.0984 13.976 11.9998 13.976Z" fill="#00C3A0"/>
<path d="M12 13.2621C11.2992 13.2621 10.6224 12.9917 10.0944 12.5007C10.0222 12.4336 10.018 12.3207 10.0852 12.2486C10.1528 12.1766 10.2655 12.1728 10.3373 12.2393C10.7992 12.6688 11.3897 12.9053 12.0001 12.9053C12.6105 12.9053 13.201 12.6688 13.6629 12.2393C13.7349 12.1726 13.8476 12.1763 13.915 12.2486C13.9821 12.3207 13.9779 12.4336 13.9058 12.5007C13.3776 12.9917 12.7008 13.2621 12 13.2621Z" fill="#00C3A0"/>
<path d="M12 13.9758C11.5426 13.9758 11.0995 13.8421 10.7186 13.5892L10.9162 13.2919C11.5602 13.7198 12.4398 13.7198 13.0838 13.2919L13.2813 13.5892C12.9005 13.8421 12.4574 13.9758 12 13.9758Z" fill="#00AADC"/>
<path d="M11.7175 11.567L11.3235 12.1767L11.2566 12.3774L12.2825 12.1395L11.7175 11.567Z" fill="#732D37"/>
<path d="M10.908 12.5735C10.4364 12.5735 9.87022 12.1766 9.72003 11.2921L10.072 11.2326C10.1968 11.968 10.6493 12.2172 10.9209 12.2165C11.0042 12.2142 11.0911 12.1855 11.098 12.1266C11.106 12.0562 11.1079 12.0395 10.9213 11.9764C10.8199 11.9421 10.7049 11.9033 10.6242 11.8109C10.2978 11.4382 10.7397 11.0438 10.952 10.8542C10.9895 10.8207 11.005 10.7923 11.001 10.7815C10.9893 10.751 10.9193 10.7049 10.8403 10.7049C10.6137 10.7049 10.4417 10.5768 10.3917 10.3709C10.3398 10.1576 10.4379 9.93282 10.6247 9.8363L10.7885 10.1534C10.7447 10.1761 10.7274 10.2405 10.7385 10.2865C10.7428 10.305 10.7535 10.348 10.8404 10.348C11.0589 10.348 11.2668 10.477 11.3344 10.6544C11.3633 10.73 11.4069 10.9265 11.1898 11.1204C10.9554 11.3297 10.8152 11.4872 10.8929 11.5759C10.9105 11.5959 10.9859 11.6216 11.0358 11.6383C11.1964 11.6927 11.4954 11.7938 11.4526 12.1675C11.4257 12.4025 11.216 12.5656 10.9309 12.5733C10.9232 12.5733 10.9155 12.5735 10.908 12.5735Z" fill="#AAD264"/>
<path d="M12.3569 10.5857C12.3569 10.5857 12.7137 9.87207 12 9.51522C12 9.51522 14.4979 9.15836 14.1411 12.37L14.1409 12.3699C13.9067 12.1825 13.559 11.8401 13.4348 11.5671L12.3569 10.9426V10.5857Z" fill="#874150"/>
<path d="M12 11.2994L13.7842 12.37C13.7842 12.37 13.7842 12.37 13.0705 12.7268L12 11.6563V11.2994Z" fill="#732D37"/>
<path d="M11.2863 10.229C11.4834 10.229 11.6432 10.3888 11.6432 10.5858L11.6428 10.5862C11.4299 10.7991 11.3772 11.1243 11.5118 11.3936L11.5924 11.5549C11.626 11.6221 11.6703 11.6835 11.7234 11.7367L12.7137 12.727V12.2338C12.7137 11.6195 12.5706 11.0135 12.2959 10.464C12.1146 10.1013 11.7439 9.87219 11.3384 9.87219H11.2863V10.229Z" fill="#783C46"/>
<path d="M11.2863 9.87207L10.9295 10.2289V10.5858C10.9295 10.5858 11.354 10.3706 11.497 10.302C11.597 10.2541 11.5788 10.1408 11.5215 10.0862C11.4768 10.0437 11.2863 9.87207 11.2863 9.87207Z" fill="#FFD250"/>
<path d="M12 14.6895C10.3274 14.6895 8.9668 13.3289 8.9668 11.6563H9.32366C9.32366 13.1322 10.5242 14.3327 12 14.3327C13.4759 14.3327 14.6764 13.1322 14.6764 11.6563H15.0333C15.0332 13.3289 13.6725 14.6895 12 14.6895Z" fill="#AAD264"/>
<path d="M9.34311 12.9573C9.47685 12.9573 9.58526 12.8489 9.58526 12.7152C9.58526 12.5814 9.47685 12.473 9.34311 12.473C9.20937 12.473 9.10095 12.5814 9.10095 12.7152C9.10095 12.8489 9.20937 12.9573 9.34311 12.9573Z" fill="#FFE15A"/>
<path d="M9.8783 13.8126C10.012 13.8126 10.1205 13.7041 10.1205 13.5704C10.1205 13.4367 10.012 13.3282 9.8783 13.3282C9.74456 13.3282 9.63614 13.4367 9.63614 13.5704C9.63614 13.7041 9.74456 13.8126 9.8783 13.8126Z" fill="#FFE15A"/>
<path d="M10.7478 14.459C10.8816 14.459 10.99 14.3506 10.99 14.2168C10.99 14.0831 10.8816 13.9747 10.7478 13.9747C10.6141 13.9747 10.5057 14.0831 10.5057 14.2168C10.5057 14.3506 10.6141 14.459 10.7478 14.459Z" fill="#FFE15A"/>
<path d="M14.6825 12.9576C14.8163 12.9576 14.9247 12.8492 14.9247 12.7154C14.9247 12.5817 14.8163 12.4733 14.6825 12.4733C14.5488 12.4733 14.4404 12.5817 14.4404 12.7154C14.4404 12.8492 14.5488 12.9576 14.6825 12.9576Z" fill="#FFE15A"/>
<path d="M14.1468 13.8126C14.2805 13.8126 14.3889 13.7041 14.3889 13.5704C14.3889 13.4367 14.2805 13.3282 14.1468 13.3282C14.013 13.3282 13.9046 13.4367 13.9046 13.5704C13.9046 13.7041 14.013 13.8126 14.1468 13.8126Z" fill="#FFE15A"/>
<path d="M13.2772 14.459C13.411 14.459 13.5194 14.3506 13.5194 14.2168C13.5194 14.0831 13.411 13.9747 13.2772 13.9747C13.1435 13.9747 13.0351 14.0831 13.0351 14.2168C13.0351 14.3506 13.1435 14.459 13.2772 14.459Z" fill="#FFE15A"/>
<path d="M12.1784 14.1543H11.8216C11.6245 14.1543 11.4647 13.9945 11.4647 13.7974C11.4647 13.6003 11.6245 13.4406 11.8216 13.4406H12.1784C12.3755 13.4406 12.5353 13.6003 12.5353 13.7974C12.5353 13.9945 12.3755 14.1543 12.1784 14.1543Z" fill="#FFB478"/>
<path d="M13.4348 11.567C13.5538 11.9164 13.8065 12.2361 14.1409 12.3698L14.1411 12.37C14.4979 9.15836 12 9.51522 12 9.51522C13.7842 9.51522 13.4348 11.567 13.4348 11.567Z" fill="#9B4B5A"/>
</svg>
