<svg xmlns="http://www.w3.org/2000/svg" width="24" height="24" viewBox="0 0 24 24" fill="none"><rect width="24" height="24" fill="none"/>
<path d="M22.2026 4.13794H1.79742C0.804703 4.13794 0 4.94264 0 5.93536V9.37931H24V5.93536C24 4.94264 23.1953 4.13794 22.2026 4.13794Z" fill="#73AF00"/>
<path d="M0 18.0646C0 19.0573 0.804703 19.862 1.79742 19.862H22.2026C23.1952 19.862 24 19.0573 24 18.0646V14.6207H0V18.0646Z" fill="#FF4B55"/>
<path d="M24 9.37921H0V14.6203H24V9.37921Z" fill="#F5F5F5"/>
<path d="M6.00445 12.2564C6.12314 12.1061 6.12314 11.8939 6.00445 11.7436L0.465891 4.72803C0.176437 5.04711 0 5.47062 0 5.93539V18.0647C0 18.5294 0.176437 18.953 0.465891 19.2721L6.00445 12.2564Z" fill="#4173CD"/>
<path d="M11.9007 12.3701C11.9007 12.3802 11.8974 13.353 11.6486 13.8315H12.3476C12.0988 13.353 12.0955 12.3802 12.0955 12.3701C12.0955 12.0349 12.4429 11.7686 12.4464 11.766L12.3294 11.6103C12.3203 11.6171 12.2045 11.7058 12.0956 11.85V11.5908H11.9007V11.85C11.7918 11.7058 11.6761 11.6171 11.6669 11.6103L11.5499 11.766C11.5534 11.7686 11.9007 12.0349 11.9007 12.3701Z" fill="#B46446"/>
<path d="M12.9724 11.201C12.9665 11.201 12.961 11.2025 12.9551 11.2029C12.9154 11.0886 12.8079 11.0061 12.6801 11.0061C12.634 11.0061 12.5911 11.0178 12.5523 11.0367C12.511 10.9609 12.4316 10.9087 12.3391 10.9087C12.3126 10.9087 12.2875 10.9141 12.2635 10.9219C12.2117 10.7996 12.0906 10.7139 11.9495 10.7139C11.776 10.7139 11.6344 10.8439 11.6129 11.0115C11.5954 11.0088 11.5779 11.0061 11.5598 11.0061C11.3715 11.0061 11.2188 11.1588 11.2188 11.3471C11.2188 11.3693 11.2213 11.3908 11.2253 11.4117C11.139 11.4401 11.0711 11.5069 11.0413 11.5924C11.0355 11.5919 11.0299 11.5907 11.0239 11.5907C10.9163 11.5907 10.8291 11.6779 10.8291 11.7855C10.8291 11.8931 10.9164 11.9804 11.0239 11.9804C11.0736 11.9804 11.1185 11.9612 11.1529 11.9305C11.1995 11.962 11.2557 11.9804 11.3162 11.9804C11.3698 11.9804 11.4192 11.965 11.4624 11.9398C11.5055 11.9649 11.555 11.9804 11.6085 11.9804C11.7699 11.9804 11.9008 11.8495 11.9008 11.6881C11.9008 11.6757 11.8986 11.664 11.8972 11.652C11.9425 11.6744 11.9929 11.6881 12.047 11.6881C12.1148 11.6881 12.1775 11.6677 12.2305 11.6336C12.2804 11.7237 12.3751 11.7855 12.4854 11.7855C12.5091 11.7855 12.5319 11.7819 12.5539 11.7766C12.6075 11.841 12.6873 11.8829 12.7777 11.8829C12.865 11.8829 12.9425 11.8439 12.9961 11.7831C13.1462 11.771 13.2648 11.6466 13.2648 11.4932C13.2647 11.3319 13.1339 11.201 12.9724 11.201Z" fill="#73AF00"/>
<path d="M12.6801 11.4446C12.6801 11.4344 12.6822 11.4249 12.6831 11.415C12.631 11.4632 12.5619 11.4933 12.4853 11.4933C12.3834 11.4933 12.2941 11.4412 12.2417 11.3622C12.1893 11.4412 12.0999 11.4933 11.9981 11.4933C11.9198 11.4933 11.8492 11.4621 11.7967 11.412C11.7663 11.5692 11.6283 11.6881 11.4623 11.6881C11.4454 11.6881 11.4293 11.6855 11.4131 11.6831C11.4131 11.6848 11.4136 11.6864 11.4136 11.6881C11.4136 11.8155 11.3316 11.9227 11.2179 11.9628C11.2487 11.9738 11.2816 11.9804 11.3162 11.9804C11.3697 11.9804 11.4192 11.965 11.4623 11.9398C11.5054 11.9649 11.5549 11.9804 11.6084 11.9804C11.7698 11.9804 11.9007 11.8495 11.9007 11.6881C11.9007 11.6757 11.8986 11.664 11.8971 11.652C11.9425 11.6744 11.9928 11.6881 12.0469 11.6881C12.1147 11.6881 12.1774 11.6677 12.2305 11.6336C12.2803 11.7237 12.3751 11.7855 12.4853 11.7855C12.509 11.7855 12.5318 11.7819 12.5538 11.7766C12.6075 11.841 12.6872 11.8829 12.7776 11.8829C12.8649 11.8829 12.9424 11.8439 12.996 11.7831L12.9966 11.783C12.8199 11.7703 12.6801 11.6245 12.6801 11.4446Z" fill="#5FA000"/>
<path d="M11.9981 14.4525C11.9825 14.4525 11.9686 14.4425 11.9635 14.4278C11.9598 14.4169 11.868 14.1604 11.511 14.1604H11.0239C10.7351 14.1604 10.5002 13.9254 10.5002 13.6367V10.4216C10.5002 10.4015 10.5166 10.3851 10.5367 10.3851H13.5569C13.5771 10.3851 13.5935 10.4015 13.5935 10.4216V13.6367C13.5935 13.9255 13.3585 14.1604 13.0698 14.1604H12.4852C12.126 14.1604 12.0337 14.4249 12.0328 14.4276C12.0278 14.4426 12.0139 14.4526 11.9982 14.4526H11.9981V14.4525V14.4525ZM10.5732 10.4581V13.6366C10.5732 13.8851 10.7753 14.0872 11.0238 14.0872H11.5109C11.8001 14.0872 11.9401 14.2425 11.9981 14.3358C12.0561 14.2424 12.196 14.0872 12.4852 14.0872H13.0698C13.3183 14.0872 13.5204 13.8851 13.5204 13.6366V10.4581H10.5732Z" fill="#464655"/>
<path d="M11.6242 9.55273L11.7168 9.70091L11.8914 9.70695L11.8093 9.86122L11.8914 10.0155L11.7168 10.0215L11.6242 10.1697L11.5316 10.0215L11.357 10.0155L11.4391 9.86122L11.357 9.70695L11.5316 9.70091L11.6242 9.55273Z" fill="#FFE15A"/>
<path d="M10.8011 9.68713L10.9258 9.80957L11.097 9.7747L11.0532 9.94382L11.169 10.0747L11.0006 10.1213L10.9453 10.287L10.8206 10.1646L10.6495 10.1995L10.6932 10.0303L10.5774 9.89948L10.7458 9.85284L10.8011 9.68713Z" fill="#FFE15A"/>
<path d="M10.0114 9.92078L10.1596 10.0135L10.3192 9.94243L10.313 10.117L10.4543 10.2198L10.3 10.3017L10.2817 10.4755L10.1335 10.3828L9.97393 10.4538L9.98012 10.2792L9.83879 10.1765L9.9931 10.0945L10.0114 9.92078Z" fill="#FFE15A"/>
<path d="M12.3758 9.55273L12.2831 9.70091L12.1085 9.70695L12.1906 9.86122L12.1085 10.0155L12.2831 10.0215L12.3758 10.1697L12.4683 10.0215L12.6429 10.0155L12.5609 9.86122L12.6429 9.70695L12.4683 9.70091L12.3758 9.55273Z" fill="#FFE15A"/>
<path d="M13.1988 9.68713L13.0742 9.80957L12.903 9.7747L12.9467 9.94382L12.8309 10.0747L12.9993 10.1213L13.0547 10.287L13.1793 10.1646L13.3505 10.1995L13.3067 10.0303L13.4225 9.89948L13.2542 9.85284L13.1988 9.68713Z" fill="#FFE15A"/>
<path d="M13.9885 9.92078L13.8404 10.0135L13.6808 9.94243L13.687 10.117L13.5456 10.2198L13.6999 10.3017L13.7183 10.4755L13.8664 10.3828L14.026 10.4538L14.0198 10.2792L14.1611 10.1765L14.0068 10.0945L13.9885 9.92078Z" fill="#FFE15A"/>
</svg>
