<svg xmlns="http://www.w3.org/2000/svg" width="24" height="24" viewBox="0 0 24 24" fill="none"><rect width="24" height="24" fill="none"/>
<path d="M22.2024 4.13702H1.79494C0.834703 4.13702 0.0504844 4.88984 0 5.83751V18.1625C0.0504844 19.1101 0.834703 19.863 1.79494 19.863H22.2024C23.1952 19.863 24 19.0582 24 18.0654V5.93463C24 4.94182 23.1952 4.13702 22.2024 4.13702Z" fill="#464655"/>
<path d="M12.0014 4.96471L12.5261 7.70633L14.0602 5.37421L13.4958 8.108L15.8055 6.54046L14.238 8.85018L16.9717 8.28585L14.6396 9.81988L17.3812 10.3446L14.6396 10.8694L16.9717 12.4034L14.238 11.8391L15.8055 14.1488L13.4958 12.5812L14.0602 15.315L12.5261 12.9829L12.0014 15.7245L11.4766 12.9829L9.94256 15.315L10.5069 12.5812L8.19717 14.1488L9.76477 11.8391L7.03097 12.4034L9.36305 10.8694L6.62142 10.3446L9.36305 9.81988L7.03097 8.28585L9.76477 8.85018L8.19717 6.54046L10.5069 8.108L9.94256 5.37421L11.4766 7.70633L12.0014 4.96471Z" fill="#FFE15A"/>
<path d="M0.456422 4.73508C0.19125 5.03076 0.0225 5.41467 0 5.83753V18.1625C0.0504844 19.1101 0.834703 19.863 1.79494 19.863H12.0014L0.456422 4.73508Z" fill="#FF4B55"/>
<path d="M12.0014 19.8628H22.2024C23.1952 19.8628 24 19.058 24 18.0652V5.93455C24 5.47508 23.8274 5.05606 23.5438 4.7383L12.0014 19.8628Z" fill="#FF4B55"/>
<path d="M7.26398 13.6553H16.7387L19.2653 10.3446H4.73737L7.26398 13.6553Z" fill="#4173CD"/>
<path d="M7.26398 13.6553L12.0014 19.8629L16.7387 13.6553H7.26398Z" fill="#F5F5F5"/>
</svg>
