<svg xmlns="http://www.w3.org/2000/svg" width="24" height="24" viewBox="0 0 24 24" fill="none"><rect width="24" height="24" fill="none"/>
<path d="M1.79742 19.8621H6.62077L9.93113 18.8793L6.62077 17.8965L9.93113 16.9137L6.62077 15.9309L9.93113 14.9482L6.62077 13.9654L9.93113 12.9826L6.62072 12L9.93108 11.0172L6.62072 10.0344L9.93108 9.05166L6.62072 8.06888L9.93108 7.0861L6.62072 6.10332L9.93108 5.12054L6.62072 4.13776H1.79742C0.804703 4.13794 0 4.94265 0 5.93537V18.0647C0 19.0574 0.804703 19.8621 1.79742 19.8621Z" fill="#F5F5F5"/>
<path d="M6.62067 6.10346L9.93103 7.08624L6.62067 8.06902L9.93103 9.0518L6.62067 10.0346L9.93103 11.0174L6.62067 12L9.93103 12.9828L6.62067 13.9656L9.93103 14.9483L6.62067 15.9311L9.93103 16.9139L6.62067 17.8967L9.93103 18.8795L6.62067 19.8623H22.2026C23.1952 19.8623 24 19.0575 24 18.0648V5.93536C24 4.94269 23.1953 4.13794 22.2026 4.13794H6.62072L9.93108 5.12072L6.62067 6.10346Z" fill="#FF4B55"/>
</svg>
