<svg xmlns="http://www.w3.org/2000/svg" width="24" height="24" viewBox="0 0 24 24" fill="none"><rect width="24" height="24" fill="none"/>
<path d="M22.2026 4.13843H1.79742C0.804703 4.13843 0 4.94313 0 5.93585V18.0652C0 19.0578 0.804703 19.8626 1.79742 19.8626H22.2026C23.1952 19.8626 24 19.0579 24 18.0652V5.93585C24 4.94313 23.1953 4.13843 22.2026 4.13843Z" fill="#FF4B55"/>
<path d="M0.413813 11.9996H11.5862C11.8148 11.9996 12 11.8143 12 11.5857V4.55126C12 4.32275 11.8148 4.13745 11.5862 4.13745H1.79742C0.804703 4.1375 0 4.9422 0 5.93492V11.5858C0 11.8143 0.185297 11.9996 0.413813 11.9996Z" fill="#41479B"/>
<path d="M5.89537 9.26176L5.70538 9.83134L5.10496 9.83598C5.02724 9.83658 4.99499 9.93582 5.05752 9.98194L5.54052 10.3386L5.35945 10.9111C5.33601 10.9852 5.42038 11.0465 5.48362 11.0012L5.9721 10.6521L6.46059 11.0012C6.52387 11.0464 6.6082 10.9852 6.58476 10.9111L6.40368 10.3386L6.88668 9.98194C6.94921 9.93577 6.91701 9.83654 6.83924 9.83598L6.23882 9.83134L6.04884 9.26176C6.02423 9.18798 5.91998 9.18798 5.89537 9.26176Z" fill="#F5F5F5"/>
<path d="M5.91003 4.82063L5.75638 5.28141L5.27071 5.28521C5.2078 5.28568 5.18174 5.36593 5.23231 5.40329L5.62302 5.6918L5.47653 6.15488C5.45755 6.21484 5.52585 6.26443 5.57699 6.22787L5.9721 5.94545L6.3672 6.22787C6.41835 6.26443 6.48664 6.21484 6.46766 6.15488L6.32117 5.6918L6.71188 5.40329C6.76245 5.36593 6.73639 5.28568 6.67349 5.28521L6.18781 5.28141L6.03416 4.82063C6.01428 4.76096 5.92996 4.76096 5.91003 4.82063Z" fill="#F5F5F5"/>
<path d="M8.36694 6.19133L8.21329 6.65212L7.72761 6.65591C7.66471 6.65638 7.63865 6.73663 7.68922 6.77399L8.07993 7.06251L7.93344 7.52558C7.91446 7.58554 7.98275 7.63513 8.0339 7.59857L8.429 7.31615L8.82411 7.59857C8.87525 7.63513 8.94355 7.58554 8.92457 7.52558L8.77808 7.06251L9.16879 6.77399C9.21936 6.73663 9.1933 6.65638 9.1304 6.65591L8.64472 6.65212L8.49107 6.19133C8.47119 6.13162 8.38686 6.13162 8.36694 6.19133Z" fill="#F5F5F5"/>
<path d="M3.50488 6.73445L3.35123 7.19523L2.86555 7.19903C2.80265 7.1995 2.77658 7.27975 2.82716 7.31711L3.21787 7.60562L3.07138 8.0687C3.0524 8.12865 3.12069 8.17825 3.17183 8.14169L3.56694 7.85926L3.96205 8.14169C4.01319 8.17825 4.08149 8.12865 4.06251 8.0687L3.91602 7.60562L4.30673 7.31711C4.3573 7.27975 4.33124 7.1995 4.26833 7.19903L3.78266 7.19523L3.62901 6.73445C3.60913 6.67478 3.52476 6.67478 3.50488 6.73445Z" fill="#F5F5F5"/>
<path d="M7.30794 8.23858L7.22164 8.49723L6.94902 8.49934C6.91372 8.49962 6.89909 8.54467 6.9275 8.56567L7.14683 8.72762L7.06461 8.98759C7.05397 9.02125 7.09226 9.04909 7.121 9.02856L7.34281 8.87003L7.56462 9.02856C7.59331 9.04909 7.63166 9.02125 7.62102 8.98759L7.5388 8.72762L7.75812 8.56567C7.78653 8.54472 7.77191 8.49967 7.73661 8.49934L7.46398 8.49723L7.37769 8.23858C7.36648 8.20506 7.31909 8.20506 7.30794 8.23858Z" fill="#F5F5F5"/>
</svg>
