<svg xmlns="http://www.w3.org/2000/svg" width="24" height="24" viewBox="0 0 24 24" fill="none"><rect width="24" height="24" fill="none"/>
<path d="M0 18.0646C0 19.0573 0.804703 19.8621 1.79742 19.8621H22.2026C23.1952 19.8621 24 19.0574 24 18.0646V15.7241H0V18.0646Z" fill="#73AF00"/>
<path d="M22.2026 4.13794H1.79742C0.804703 4.13794 0 4.94264 0 5.93536V8.27588H24V5.93536C24 4.94264 23.1953 4.13794 22.2026 4.13794Z" fill="#FF4B55"/>
<path d="M24 8.27576H0V15.7242H24V8.27576Z" fill="#464655"/>
<path d="M14.3464 10.6614L14.9692 11.476L15.9416 11.1505C15.996 11.1323 16.0422 11.1938 16.0097 11.241L15.4273 12.085L16.0373 12.9092C16.0714 12.9553 16.0273 13.0183 15.9723 13.0019L14.9897 12.7089L14.3943 13.5438C14.361 13.5905 14.2875 13.5679 14.286 13.5106L14.2611 12.4855L13.2831 12.1773C13.2284 12.1601 13.2271 12.0831 13.2812 12.0641L14.2484 11.7236L14.2394 10.6982C14.2388 10.6408 14.3116 10.6158 14.3464 10.6614Z" fill="#F5F5F5"/>
<path d="M12.6563 14.0109C11.5467 14.0109 10.6465 13.1107 10.6465 12C10.6465 10.8914 11.5466 9.98922 12.6563 9.98922C13.0692 9.98922 13.4499 10.1162 13.7672 10.3311C13.8157 10.364 13.8712 10.3002 13.8306 10.2579C13.3564 9.76492 12.6852 9.46412 11.9411 9.48953C10.6626 9.53312 9.60426 10.5581 9.5226 11.8347C9.42904 13.297 10.5868 14.5121 12.0283 14.5121C12.7384 14.5121 13.3765 14.2153 13.8323 13.7406C13.8725 13.6987 13.817 13.6358 13.7688 13.6684C13.4512 13.8837 13.0699 14.0109 12.6563 14.0109Z" fill="#F5F5F5"/>
</svg>
