<svg xmlns="http://www.w3.org/2000/svg" width="24" height="24" viewBox="0 0 24 24" fill="none"><rect width="24" height="24" fill="none"/>
<path d="M22.2026 4.13789H1.79742C0.804703 4.13789 0 4.9426 0 5.93532V18.0647C0 19.0574 0.804703 19.8621 1.79742 19.8621H22.2026C23.1952 19.8621 24 19.0574 24 18.0647V5.93532C24 4.9426 23.1953 4.13789 22.2026 4.13789Z" fill="#F5F5F5"/>
<path d="M14.2973 8.55615C12.3959 7.28856 9.82777 7.80681 8.56102 9.70487C7.92563 10.6523 8.18391 11.9396 9.13454 12.5734C10.0845 13.2072 11.3677 12.9498 12.0015 11.9991C12.6353 11.0484 13.9193 10.7942 14.8692 11.4247C15.8206 12.0585 16.0765 13.3458 15.4419 14.2932C16.7094 12.392 16.1971 9.82379 14.2973 8.55615Z" fill="#FF4B55"/>
<path d="M8.56096 9.70493C7.92557 10.6523 8.18385 11.9396 9.13448 12.5734C10.0844 13.2072 11.3676 12.9498 12.0014 11.9991C12.6352 11.0485 13.9192 10.7943 14.8691 11.4247C15.8206 12.0585 16.0765 13.3458 15.4418 14.2932C14.1759 16.1979 11.6086 16.7096 9.7072 15.442C7.80754 14.1746 7.29341 11.6064 8.56096 9.70493Z" fill="#41479B"/>
<path d="M16.4025 6.99343L17.1542 8.12321C17.2173 8.21813 17.1918 8.34629 17.097 8.40971L16.9064 8.53735C16.8113 8.60101 16.6826 8.57541 16.6191 8.48016L15.8666 7.35066C15.8032 7.25565 15.8289 7.12725 15.9239 7.06383L16.1154 6.93596C16.2106 6.87244 16.3391 6.89822 16.4025 6.99343Z" fill="#464655"/>
<path d="M17.5622 8.73537L18.3163 9.86444C18.38 9.95979 18.354 10.0888 18.2583 10.152L18.0669 10.2785C17.9719 10.3413 17.844 10.3155 17.7808 10.2208L17.0271 9.09293C16.9637 8.99796 16.9892 8.86947 17.0842 8.80596L17.2752 8.67827C17.3702 8.61476 17.4987 8.6403 17.5622 8.73537Z" fill="#464655"/>
<path d="M17.2073 6.45633L19.1212 9.3285C19.1846 9.42357 19.1588 9.552 19.0638 9.61538L18.8715 9.74354C18.7764 9.80691 18.6479 9.78122 18.5846 9.68616L16.6701 6.81418C16.6066 6.71907 16.6324 6.59054 16.7276 6.52716L16.9205 6.39877C17.0156 6.33563 17.144 6.36127 17.2073 6.45633Z" fill="#464655"/>
<path d="M18.0099 5.92009L18.7632 7.05208C18.8267 7.14742 18.8006 7.27614 18.705 7.33928L18.5135 7.46584C18.4184 7.52866 18.2905 7.50283 18.2273 7.408L17.4734 6.27752C17.41 6.18245 17.4358 6.05397 17.5308 5.99055L17.723 5.86249C17.818 5.79911 17.9466 5.82484 18.0099 5.92009Z" fill="#464655"/>
<path d="M19.1704 7.66571L19.9225 8.79535C19.9857 8.89032 19.9601 9.01857 19.8653 9.08199L19.6743 9.20968C19.5792 9.27324 19.4504 9.2476 19.3871 9.15235L18.635 8.02271C18.5717 7.92774 18.5973 7.79949 18.6921 7.73607L18.8832 7.60838C18.9783 7.54477 19.1069 7.57037 19.1704 7.66571Z" fill="#464655"/>
<path d="M6.22133 13.7806L8.13495 16.6497C8.19833 16.7447 8.17273 16.8731 8.07767 16.9366L7.88605 17.0645C7.79098 17.128 7.6625 17.1024 7.59903 17.0072L5.6854 14.1382C5.62198 14.0432 5.64762 13.9147 5.74269 13.8513L5.93436 13.7233C6.02937 13.6599 6.1579 13.6855 6.22133 13.7806Z" fill="#464655"/>
<path d="M5.41793 14.3172L6.16925 15.4442C6.23258 15.5391 6.20703 15.6673 6.1122 15.7308L5.92161 15.8584C5.82659 15.9221 5.69797 15.8965 5.63445 15.8014L4.88225 14.6748C4.81878 14.5797 4.84437 14.4513 4.93943 14.3878L5.13097 14.2599C5.22598 14.1965 5.35451 14.2221 5.41793 14.3172Z" fill="#464655"/>
<path d="M6.57899 16.0598L7.33115 17.1896C7.39443 17.2845 7.36879 17.4128 7.27387 17.4762L7.08271 17.604C6.9876 17.6676 6.85902 17.6419 6.79555 17.5467L6.04293 16.4172C5.9796 16.3222 6.00524 16.1938 6.10021 16.1304L6.29184 16.0024C6.38699 15.9388 6.51557 15.9646 6.57899 16.0598Z" fill="#464655"/>
<path d="M4.6145 14.8537L6.52691 17.7229C6.59023 17.8179 6.56459 17.9462 6.46976 18.0097L6.27866 18.1375C6.18359 18.201 6.05501 18.1754 5.99155 18.0803L4.07801 15.2115C4.01459 15.1164 4.04033 14.9879 4.13539 14.9245L4.32767 14.7963C4.42264 14.733 4.55112 14.7586 4.6145 14.8537Z" fill="#464655"/>
<path d="M5.68568 9.86463L7.59902 6.99321C7.66245 6.89805 7.79098 6.87236 7.88609 6.93583L8.07766 7.06375C8.17268 7.12718 8.19827 7.25561 8.13495 7.35063L6.22085 10.2205C6.15757 10.3153 6.02956 10.3411 5.93454 10.2782L5.74371 10.1518C5.64818 10.0886 5.62221 9.95988 5.68568 9.86463Z" fill="#464655"/>
<path d="M4.88192 9.3287L6.79559 6.45672C6.85901 6.36156 6.98764 6.33587 7.08275 6.39943L7.27386 6.52722C7.36873 6.59064 7.39432 6.71893 7.33104 6.8139L5.41789 9.68603C5.35446 9.78118 5.22593 9.80692 5.13082 9.7434L4.9392 9.61548C4.84423 9.55211 4.81859 9.42372 4.88192 9.3287Z" fill="#464655"/>
<path d="M4.07769 8.79508L5.99155 5.92023C6.05497 5.82503 6.18364 5.79929 6.27875 5.86286L6.46986 5.99064C6.56469 6.05406 6.59033 6.18222 6.52714 6.27723L4.61445 9.1525C4.55113 9.24765 4.42255 9.27348 4.32744 9.21006L4.13525 9.0819C4.04014 9.01853 4.01445 8.89014 4.07769 8.79508Z" fill="#464655"/>
<path d="M15.8669 16.6496L16.6191 15.523C16.6826 15.4279 16.8112 15.4023 16.9062 15.466L17.0968 15.5935C17.1917 15.657 17.2172 15.7853 17.1538 15.8802L16.4025 17.0071C16.3391 17.1022 16.2106 17.1279 16.1155 17.0644L15.924 16.9366C15.829 16.8731 15.8034 16.7447 15.8669 16.6496Z" fill="#464655"/>
<path d="M17.027 14.9131L17.7805 13.7808C17.8438 13.6857 17.9724 13.6599 18.0675 13.7233L18.2595 13.8513C18.3546 13.9147 18.3803 14.0433 18.3168 14.1384L17.5618 15.2688C17.4985 15.3636 17.3705 15.3893 17.2754 15.3263L17.085 15.2001C16.9896 15.1368 16.9637 15.0083 17.027 14.9131Z" fill="#464655"/>
<path d="M16.67 17.1892L17.4227 16.0596C17.486 15.9645 17.6145 15.9387 17.7096 16.0022L17.902 16.1305C17.997 16.1938 18.0227 16.3222 17.9594 16.4173L17.2072 17.547C17.1439 17.6421 17.0155 17.6679 16.9204 17.6045L16.7275 17.4761C16.6324 17.4128 16.6066 17.2843 16.67 17.1892Z" fill="#464655"/>
<path d="M17.8314 15.4438L18.5845 14.3168C18.648 14.2219 18.7763 14.1963 18.8713 14.2596L19.0636 14.3878C19.1588 14.4512 19.1844 14.5798 19.1209 14.6749L18.3678 15.8019C18.3043 15.8968 18.176 15.9224 18.081 15.8591L17.8887 15.7309C17.7935 15.6675 17.7679 15.5389 17.8314 15.4438Z" fill="#464655"/>
<path d="M17.4737 17.7227L18.2272 16.5951C18.2905 16.5005 18.4183 16.4747 18.5133 16.5375L18.7048 16.664C18.8004 16.7272 18.8264 16.8561 18.7629 16.9514L18.0099 18.0805C17.9465 18.1756 17.8181 18.2012 17.723 18.1379L17.5309 18.0098C17.4357 17.9464 17.4101 17.8178 17.4737 17.7227Z" fill="#464655"/>
<path d="M18.6354 15.9831L19.387 14.8541C19.4504 14.7589 19.5791 14.7332 19.6742 14.7968L19.8651 14.9244C19.96 14.9879 19.9856 15.1163 19.9222 15.2112L19.1699 16.3387C19.1067 16.4336 18.9785 16.4593 18.8835 16.3963L18.6932 16.2702C18.5979 16.207 18.572 16.0783 18.6354 15.9831Z" fill="#464655"/>
</svg>
