<svg xmlns="http://www.w3.org/2000/svg" width="24" height="24" viewBox="0 0 24 24" fill="none"><rect width="24" height="24" fill="none"/>
<path d="M22.2025 4.13794H1.79742C0.804703 4.13794 0 4.94264 0 5.93531V9.37927H24V5.93531C24 4.94264 23.1952 4.13794 22.2025 4.13794Z" fill="#73AF00"/>
<path d="M24 14.6207H0V18.0646C0 19.0573 0.804703 19.862 1.79742 19.862H22.2025C23.1952 19.862 24 19.0573 24 18.0646V14.6207Z" fill="#FF4B55"/>
<path d="M24 9.37921H0V14.6203H24V9.37921Z" fill="#F5F5F5"/>
<path d="M12.1043 10.8039L12.3624 11.578L13.1784 11.5843C13.284 11.5852 13.3278 11.7199 13.2428 11.7827L12.5865 12.2674L12.8325 13.0454C12.8644 13.1461 12.7497 13.2294 12.6637 13.1679L11.9999 12.6935L11.3361 13.168C11.2501 13.2294 11.1354 13.1461 11.1673 13.0454L11.4134 12.2674L10.757 11.7827C10.672 11.72 10.7158 11.5852 10.8214 11.5844L11.6374 11.578L11.8955 10.804C11.9291 10.7038 12.0709 10.7038 12.1043 10.8039Z" fill="#464655"/>
<path d="M6.39775 6.27429C6.43024 6.48246 6.5561 6.5478 6.66555 6.53932C6.79455 6.52929 6.9077 6.4113 6.9077 6.28675V5.57224C6.9077 5.53643 6.93681 5.50727 6.97267 5.50727C7.00853 5.50727 7.03764 5.53643 7.03764 5.57224V6.2898C7.03764 6.3761 7.08025 6.45649 7.15174 6.50482C7.19538 6.53435 7.24619 6.54963 7.29738 6.54963C7.32995 6.54963 7.36272 6.54344 7.39394 6.53097L7.45886 6.505C7.46486 7.10472 7.42834 7.63188 7.42769 7.64154C7.42263 7.71307 7.47649 7.77522 7.54802 7.78033C7.55116 7.78061 7.5543 7.78071 7.55744 7.78071C7.62499 7.78071 7.68203 7.7284 7.68691 7.66005C7.68991 7.61777 7.72994 7.04055 7.71794 6.40141L7.75722 6.38575C7.79167 6.37207 7.8303 6.37371 7.86339 6.39021C8.0065 6.4615 8.17863 6.43371 8.29178 6.32069L8.31522 6.29735C8.42022 6.19221 8.45627 6.03944 8.4093 5.89849L8.29867 5.56661C8.35849 5.58461 8.4242 5.55813 8.45308 5.50052C8.48519 5.43635 8.45917 5.3583 8.395 5.32619L8.13517 5.19625C8.08816 5.17268 8.03177 5.1799 7.99197 5.21425C7.95227 5.24875 7.93727 5.30369 7.95386 5.35357L8.16288 5.98066C8.17853 6.02763 8.16649 6.07863 8.13152 6.1136L8.10817 6.13694C8.07428 6.17083 8.02272 6.17904 7.97959 6.15775C7.89541 6.11571 7.79955 6.10779 7.7096 6.13075C7.69131 5.7138 7.64645 5.29858 7.55074 5.01157C7.52809 4.94355 7.45464 4.90666 7.38635 4.92949C7.31828 4.95208 7.28149 5.02563 7.30422 5.09379C7.39778 5.37447 7.43861 5.8023 7.45309 6.22769L7.29761 6.28989V5.57233C7.29761 5.39322 7.15192 5.24754 6.97281 5.24754C6.79375 5.24754 6.64802 5.39318 6.64802 5.57233V6.20121L6.5155 5.5466C6.50139 5.47619 6.43291 5.43025 6.36245 5.44497C6.2921 5.45932 6.24663 5.52785 6.26092 5.59807L6.39775 6.27429Z" fill="#F5F5F5"/>
<path d="M6.64782 5.18255C6.71954 5.18255 6.77776 5.12447 6.77776 5.05261V4.92272C6.77776 4.85091 6.71959 4.79279 6.64782 4.79279C6.57611 4.79279 6.51789 4.85086 6.51789 4.92272V5.05266C6.51798 5.12443 6.57611 5.18255 6.64782 5.18255Z" fill="#F5F5F5"/>
<path d="M7.94697 5.0526H8.07691C8.14863 5.0526 8.20684 4.99452 8.20684 4.92266C8.20684 4.8508 8.14867 4.79272 8.07691 4.79272H7.94697C7.87525 4.79272 7.81703 4.8508 7.81703 4.92266C7.81703 4.99452 7.8752 5.0526 7.94697 5.0526Z" fill="#F5F5F5"/>
<path d="M7.10064 6.7599L6.45109 7.14962C6.38954 7.18655 6.36962 7.26634 6.40656 7.32784C6.43093 7.36843 6.47392 7.39088 6.51807 7.39088C6.54086 7.39088 6.56387 7.38493 6.58478 7.37237L7.23432 6.98265C7.29587 6.94571 7.31579 6.86593 7.27886 6.80443C7.24197 6.74293 7.16223 6.72305 7.10064 6.7599Z" fill="#F5F5F5"/>
<path d="M8.85208 6.98978L8.85513 6.98772C8.86605 7.03164 8.88475 7.07411 8.91508 7.10978C8.96786 7.17194 9.04703 7.20315 9.13647 7.19579C9.26336 7.18651 9.34961 7.12858 9.40666 7.05372C9.41533 7.05967 9.42452 7.06515 9.43408 7.06993C9.5043 7.10533 9.58549 7.10265 9.66278 7.06258C9.85914 6.96147 9.90142 6.72751 9.89542 6.60522C9.89195 6.53392 9.8313 6.48358 9.76014 6.48217C9.68875 6.48522 9.63325 6.54573 9.63578 6.61703C9.63583 6.61867 9.63878 6.77284 9.54447 6.83003C9.52909 6.80856 9.51086 6.76037 9.50402 6.72053C9.49305 6.65364 9.43164 6.60709 9.36555 6.61244C9.29819 6.61778 9.24616 6.67436 9.24592 6.74195C9.24588 6.76084 9.2417 6.92753 9.11298 6.9415C9.09803 6.92106 9.0978 6.83504 9.11247 6.77148C9.12489 6.71936 9.10399 6.66494 9.05988 6.63447C9.01567 6.6039 8.95736 6.6039 8.91302 6.63395L8.8405 6.68331C8.80605 5.92994 8.72678 5.05206 8.7258 5.04081C8.71933 4.96951 8.65652 4.91636 8.58466 4.9232C8.51317 4.92967 8.46053 4.99286 8.467 5.06439C8.46813 5.07639 8.55991 6.09208 8.58817 6.86781C8.58156 6.87414 8.57467 6.88103 8.56816 6.88712C8.51678 6.75761 8.41497 6.67604 8.28377 6.66358C8.09866 6.64722 7.89813 6.77317 7.82622 6.95308C7.76425 7.10786 7.80325 7.25997 7.92555 7.34054C8.01348 7.39853 8.14614 7.41676 8.31302 7.35826C8.27233 7.50137 8.19813 7.64654 8.1017 7.75876C8.01536 7.85936 7.87117 7.97542 7.68667 7.97026C7.57928 7.96609 7.49674 7.93093 7.43439 7.86268C7.28397 7.69839 7.29691 7.40101 7.29705 7.39783C7.30075 7.32629 7.246 7.26526 7.17452 7.26133C7.10252 7.25373 7.04158 7.31223 7.03759 7.38386C7.0367 7.40036 7.01791 7.79106 7.24159 8.03683C7.3517 8.15795 7.49805 8.22283 7.6765 8.22981C7.68517 8.23018 7.69389 8.23033 7.70261 8.23033C7.91997 8.23033 8.13077 8.12378 8.29872 7.92798C8.45673 7.744 8.56403 7.49411 8.59619 7.26212C8.59577 7.70654 8.32802 8.20778 7.97284 8.42861C7.82205 8.52222 7.58697 8.60673 7.32217 8.47618C6.99574 8.31508 7.03464 7.942 7.03633 7.92672C7.04528 7.85556 6.99475 7.79059 6.92355 7.78173C6.85267 7.77311 6.78738 7.82322 6.77856 7.89451C6.77566 7.91772 6.71322 8.4654 7.20724 8.70911C7.33413 8.77178 7.46678 8.8029 7.60056 8.8029C7.77236 8.8029 7.9457 8.75153 8.11005 8.64929C8.54238 8.38061 8.85616 7.79678 8.85616 7.26114C8.85634 7.17747 8.85475 7.08597 8.85208 6.98978ZM8.06875 7.1237C8.04555 7.10833 8.06369 7.05925 8.06763 7.0495C8.095 6.98101 8.18055 6.92172 8.24894 6.92172C8.25241 6.92172 8.25597 6.92181 8.25939 6.92223C8.27599 6.92373 8.32009 6.9279 8.33903 7.02601C8.34105 7.03642 8.34273 7.04706 8.34409 7.05798C8.1993 7.14297 8.10227 7.14568 8.06875 7.1237Z" fill="#F5F5F5"/>
<path d="M6.71345 8.31852C6.65191 8.28238 6.57241 8.30305 6.53584 8.36455C6.52989 8.37458 6.52192 8.3855 6.51391 8.39539C6.5125 8.39206 6.51109 8.38855 6.50973 8.38475C6.45559 8.24024 6.49412 8.01763 6.51362 7.94403C6.53195 7.87475 6.4907 7.80369 6.42147 7.78517C6.35233 7.76745 6.28117 7.80777 6.26261 7.87705C6.25314 7.91216 6.17326 8.22758 6.26645 8.47597C6.32608 8.63483 6.41758 8.67491 6.48395 8.68035C6.48986 8.68086 6.49567 8.68114 6.50144 8.68114C6.64131 8.68114 6.73436 8.54019 6.76028 8.49556C6.79609 8.43364 6.77509 8.35484 6.71345 8.31852Z" fill="#F5F5F5"/>
<path d="M9.11083 5.96205C9.13891 5.96205 9.16722 5.95305 9.19098 5.93425L9.84592 5.42008C9.85497 5.413 9.86073 5.40367 9.86734 5.39496C9.96166 5.33805 10.0255 5.23563 10.0255 5.11764C10.0255 4.93853 9.87981 4.79285 9.7007 4.79285C9.52164 4.79285 9.37591 4.93849 9.37591 5.11764C9.37591 5.21786 9.42245 5.3065 9.49398 5.36608L9.03044 5.73002C8.97405 5.77432 8.96425 5.85602 9.0085 5.91236C9.03419 5.94499 9.0723 5.96205 9.11083 5.96205ZM9.70075 5.05263C9.73661 5.05263 9.76572 5.08178 9.76572 5.1176C9.76572 5.15341 9.73661 5.18257 9.70075 5.18257C9.66489 5.18257 9.63578 5.15341 9.63578 5.1176C9.63578 5.08178 9.66489 5.05263 9.70075 5.05263Z" fill="#F5F5F5"/>
<path d="M9.547 5.83879C9.47856 5.81596 9.40529 5.85285 9.38261 5.92087C9.36868 5.96245 9.30592 6.17676 9.43323 6.30398C9.48264 6.35348 9.54761 6.37818 9.62734 6.37804C9.68064 6.37804 9.7405 6.36712 9.80678 6.34495C9.87484 6.32235 9.91164 6.24881 9.8889 6.18065C9.86622 6.11263 9.79276 6.0756 9.72451 6.09857C9.65195 6.12267 9.6212 6.11873 9.61848 6.12126C9.61084 6.10195 9.6159 6.04396 9.62917 6.00248C9.65167 5.9347 9.61487 5.86138 9.547 5.83879Z" fill="#F5F5F5"/>
<path d="M11.0338 5.30178C11.0459 5.30534 11.0582 5.30698 11.0702 5.30698C11.1265 5.30698 11.1783 5.27018 11.1949 5.21347L11.2707 4.95364C11.2908 4.88473 11.2513 4.81259 11.1824 4.79253C11.1133 4.77261 11.0414 4.81193 11.0213 4.88084L10.9455 5.14067C10.9254 5.20953 10.965 5.28172 11.0338 5.30178Z" fill="#F5F5F5"/>
<path d="M10.2766 5.28656C10.2972 5.29861 10.3198 5.30428 10.3421 5.30428C10.3867 5.30428 10.4302 5.28131 10.4544 5.23992C10.4906 5.178 10.4698 5.09836 10.4079 5.06222C10.3817 5.04703 10.3853 5.004 10.3862 4.99551C10.3901 4.96139 10.4104 4.91981 10.4459 4.9087C10.5144 4.88737 10.5527 4.81458 10.5313 4.74609C10.5099 4.67747 10.4372 4.63954 10.3686 4.66059C10.2391 4.70095 10.1447 4.82081 10.1281 4.96598C10.1126 5.10108 10.1695 5.22389 10.2766 5.28656Z" fill="#F5F5F5"/>
<path d="M9.24606 7.39099C9.17434 7.39099 9.11613 7.44907 9.11613 7.52093C9.11613 7.58435 9.16155 7.63713 9.22169 7.64852C9.22853 7.65855 9.24606 7.69291 9.24606 7.78071C9.24606 7.85252 9.30423 7.91065 9.376 7.91065C9.44777 7.91065 9.50594 7.85257 9.50594 7.78071C9.50589 7.39544 9.25666 7.39099 9.24606 7.39099Z" fill="#F5F5F5"/>
<path d="M11.4501 6.85309C11.4664 6.85577 11.4826 6.85703 11.4989 6.85703C11.601 6.85703 11.7041 6.80552 11.8063 6.70342C11.857 6.6527 11.857 6.57048 11.8063 6.51972C11.7556 6.469 11.6733 6.469 11.6226 6.51972C11.5449 6.59753 11.5031 6.59912 11.4924 6.59673C11.4675 6.59317 11.4451 6.56083 11.44 6.55192C11.4075 6.48878 11.3302 6.46347 11.2666 6.49534C11.2024 6.52745 11.1764 6.60545 11.2085 6.66967C11.2165 6.68575 11.2915 6.82731 11.4501 6.85309Z" fill="#F5F5F5"/>
<path d="M13.6583 5.94021C13.6574 5.9382 13.6567 5.93628 13.6561 5.93454C13.633 5.86704 13.5594 5.83039 13.4921 5.85335C13.424 5.87595 13.3872 5.94949 13.4099 6.01765C13.42 6.04812 13.4779 6.20084 13.6213 6.22015C13.6308 6.22146 13.6404 6.22207 13.6498 6.22207C13.7398 6.22207 13.8242 6.16385 13.9011 6.04864C13.9409 5.98901 13.9247 5.90829 13.8651 5.86849C13.8054 5.82879 13.7246 5.84478 13.6849 5.90454C13.6746 5.91978 13.6657 5.93145 13.6583 5.94021Z" fill="#F5F5F5"/>
<path d="M13.4032 8.3004C13.4032 7.74639 13.3788 7.22668 13.3451 6.77134C13.5296 7.09126 13.6955 7.41451 13.8012 7.69651C13.8208 7.74864 13.8703 7.78079 13.9229 7.78079C13.938 7.78079 13.9534 7.77812 13.9685 7.77259C14.0357 7.74737 14.0697 7.67251 14.0445 7.60525C13.8801 7.16687 13.5845 6.64483 13.2932 6.18137C13.2222 5.48153 13.1427 5.03739 13.1412 5.02947C13.1284 4.95883 13.0609 4.91111 12.9902 4.92493C12.9196 4.93778 12.8728 5.00537 12.8856 5.07592C12.8867 5.08154 12.9276 5.31039 12.9765 5.69547C12.8767 5.54739 12.784 5.41375 12.7061 5.30378L12.7125 5.30579C12.781 5.32862 12.8541 5.29173 12.8769 5.22372C12.8996 5.15561 12.8628 5.08201 12.7948 5.05942L12.4051 4.92948C12.351 4.9112 12.2917 4.93051 12.2586 4.97664C12.2497 4.98897 12.2436 5.00247 12.2396 5.01648C12.1618 4.95897 12.0621 4.91228 11.9685 4.95142C11.9118 4.9749 11.8443 5.03401 11.8443 5.18256C11.8443 5.29661 11.8878 5.41993 11.934 5.55058C12.0105 5.76723 12.0584 5.92661 11.9774 6.00259C11.9326 6.04459 11.8879 6.06043 11.8442 6.04942C11.7641 6.02912 11.6848 5.92243 11.632 5.76395C11.6297 5.75706 11.625 5.75209 11.6217 5.7459C11.649 5.54462 11.6371 5.30223 11.5821 5.02717C11.5681 4.95676 11.4998 4.91097 11.4292 4.92526C11.3588 4.93933 11.3132 5.00772 11.3273 5.07817C11.4121 5.50239 11.3867 5.84851 11.2592 6.0039C11.2099 6.06404 11.1482 6.09193 11.0649 6.09193C11.0386 6.09193 11.0206 6.08354 11.0027 6.06301C10.9002 5.94489 10.9007 5.56379 10.9337 5.33078C10.939 5.29361 10.9278 5.25578 10.9032 5.22737C10.8785 5.19897 10.8427 5.18256 10.8051 5.18256C10.5816 5.18256 10.4968 5.43676 10.4221 5.66111C10.3892 5.75968 10.3281 5.94301 10.2855 5.96204C10.2069 5.96204 10.156 5.73114 10.1556 5.57218C10.1554 5.50051 10.0973 5.44253 10.0256 5.44253H10.0255C9.95378 5.44253 9.89575 5.50061 9.89575 5.57233C9.89575 5.87195 9.99779 6.22187 10.2855 6.22187C10.4996 6.22187 10.5865 5.98843 10.6591 5.7715C10.6717 5.94404 10.7106 6.12282 10.8064 6.23317C10.8737 6.31079 10.9631 6.35176 11.0649 6.35176C11.2253 6.35176 11.3619 6.28843 11.4601 6.16872C11.4779 6.14706 11.4932 6.12217 11.5083 6.09704C11.5838 6.20425 11.6763 6.27498 11.7805 6.30128C11.8111 6.30906 11.8419 6.31295 11.8724 6.31295C11.9727 6.31295 12.0707 6.27156 12.1553 6.19206C12.1729 6.17551 12.1853 6.15747 12.1987 6.13965C12.2305 6.14875 12.2627 6.15414 12.2947 6.15414C12.4 6.15414 12.5012 6.11176 12.5641 6.07145C12.6242 6.03287 12.6416 5.95323 12.6034 5.89286C12.5651 5.83258 12.4851 5.81458 12.4245 5.8524C12.4234 5.85292 12.3366 5.90279 12.2775 5.89107C12.2776 5.74867 12.2261 5.5974 12.179 5.46414C12.1522 5.38825 12.1247 5.31053 12.1119 5.24697C12.1225 5.25597 12.133 5.26539 12.1424 5.27448C12.193 5.3252 12.2753 5.3252 12.326 5.27448C12.3344 5.26609 12.3392 5.25592 12.3449 5.24608C12.4795 5.43161 12.7565 5.82142 13.0414 6.27076C13.0958 6.82309 13.1435 7.52772 13.1435 8.30045C13.1435 8.37226 13.2017 8.43039 13.2735 8.43039C13.345 8.43029 13.4032 8.37222 13.4032 8.3004Z" fill="#F5F5F5"/>
<path d="M13.5331 5.44229C13.5331 5.5141 13.5913 5.57223 13.663 5.57223C13.7348 5.57223 13.793 5.51415 13.793 5.44229C13.793 5.28938 13.6734 5.0424 13.6494 4.99445C13.6173 4.93037 13.5393 4.90449 13.475 4.93637C13.4109 4.96848 13.3848 5.04648 13.417 5.1107C13.4638 5.2044 13.5331 5.37455 13.5331 5.44229Z" fill="#F5F5F5"/>
<path d="M12.942 8.31461C12.8783 8.28213 12.8 8.30791 12.7676 8.3718C12.7536 8.39908 12.732 8.42941 12.7137 8.44891C12.7079 8.3973 12.7217 8.29413 12.7479 8.20863C12.7653 8.15153 12.7417 8.08985 12.6905 8.05919C12.6396 8.02835 12.5739 8.03636 12.5319 8.0786L12.272 8.33842C12.2213 8.38914 12.2213 8.47136 12.272 8.52213C12.3227 8.57294 12.405 8.57285 12.4557 8.52213L12.4623 8.51552C12.4735 8.56764 12.4951 8.61522 12.5319 8.65202C12.5806 8.70072 12.6394 8.7265 12.7007 8.7265C12.7125 8.7265 12.7245 8.72547 12.7363 8.7236C12.8835 8.69974 12.9751 8.5375 12.9997 8.48842C13.0317 8.42435 13.0059 8.34681 12.942 8.31461Z" fill="#F5F5F5"/>
<path d="M12.8917 7.26925H11.9761C11.9842 7.23691 11.9926 7.20611 12.0011 7.17677C12.3662 7.10088 12.5832 6.98308 12.647 6.82572C12.6691 6.77116 12.6921 6.66091 12.5982 6.53421C12.5135 6.42007 12.3939 6.36878 12.2698 6.39414C12.0852 6.4316 11.9207 6.63049 11.8027 6.94896C11.436 7.01177 11.2012 7.14339 11.0526 7.27333C10.9999 6.74097 10.7932 6.42475 10.7832 6.40971C10.7433 6.34999 10.6627 6.33382 10.603 6.37366C10.5434 6.4135 10.5272 6.49408 10.567 6.5538C10.5693 6.55736 10.805 6.91778 10.805 7.52102C10.805 8.11399 10.3322 8.56033 10.0255 8.56033C9.87962 8.56033 9.81582 8.38694 9.7877 8.24036C10.0879 8.02994 10.3528 7.78647 10.4113 7.55252C10.4905 7.23597 10.3908 7.00267 10.3249 6.84832C10.3218 6.84124 10.3186 6.8336 10.3153 6.82572C10.3181 6.82825 10.3208 6.83092 10.3234 6.8335C10.3741 6.88422 10.4563 6.88422 10.507 6.8335C10.5578 6.78278 10.5578 6.70057 10.507 6.6498C10.4311 6.57382 10.2836 6.45442 10.1496 6.51049C10.0929 6.53397 10.0254 6.59308 10.0254 6.74163C10.0254 6.80875 10.0535 6.87433 10.086 6.95046C10.1445 7.08738 10.2172 7.25777 10.1592 7.48961C10.1249 7.62682 9.95631 7.79332 9.73398 7.9586C9.71012 7.9301 9.67567 7.91092 9.63568 7.91092H9.6355C9.56382 7.91102 9.50579 7.969 9.50579 8.04072C9.50579 8.06411 9.50683 8.0891 9.50833 8.11474C9.23031 8.29478 8.91573 8.46142 8.6725 8.5721C8.6072 8.60177 8.57837 8.67878 8.60804 8.74413C8.62984 8.79199 8.677 8.82025 8.72636 8.82025C8.74436 8.82025 8.76264 8.8166 8.78003 8.80858C8.85306 8.77539 9.19975 8.61386 9.55595 8.39313C9.62153 8.61583 9.76051 8.82025 10.0254 8.82025C10.3371 8.82025 10.6907 8.56539 10.8947 8.18491C10.9193 8.22841 10.9476 8.27003 10.9813 8.30894C11.3083 8.686 11.947 8.69032 11.974 8.69032C12.044 8.69032 12.1014 8.635 12.1039 8.56511C12.1064 8.49522 12.0531 8.43583 11.9834 8.43091C11.9823 8.43082 11.8788 8.41938 11.8212 8.35211C11.7864 8.31152 11.7726 8.25569 11.7787 8.18149C11.7921 8.02141 12.3084 7.90178 12.7636 7.89461C12.8179 7.89372 12.8659 7.85931 12.8841 7.80822L13.014 7.44283C13.0281 7.40313 13.0221 7.35883 12.9977 7.32447C12.9735 7.28978 12.9339 7.26925 12.8917 7.26925ZM12.3214 6.64886C12.3239 6.64835 12.3272 6.64755 12.3313 6.64755C12.3437 6.64755 12.3633 6.65364 12.3894 6.68894C12.3944 6.69555 12.4102 6.7181 12.4062 6.72799C12.3913 6.76478 12.3017 6.82553 12.1148 6.88061C12.1969 6.7203 12.2773 6.65777 12.3214 6.64886ZM11.5369 8.35661C11.4049 8.31372 11.2704 8.24571 11.1773 8.13803C11.075 8.01967 11.0372 7.86996 11.0619 7.68053C11.0657 7.6706 11.0741 7.65096 11.089 7.62546C11.272 7.60867 11.7607 7.68082 11.7946 7.82078C11.6439 7.89775 11.5328 8.00589 11.52 8.15974C11.5135 8.23685 11.5214 8.30219 11.5369 8.35661Z" fill="#F5F5F5"/>
<path d="M14.3059 5.40123L14.176 5.01152C14.155 4.94884 14.09 4.91144 14.0255 4.92559C13.9607 4.93942 13.9168 4.99966 13.9234 5.06552C14.0131 5.96195 14.1826 7.71016 14.1826 7.91059C14.1826 8.09059 13.8624 8.44506 13.345 8.70377C13.2809 8.73588 13.2549 8.81388 13.287 8.87809C13.3097 8.92366 13.3556 8.94991 13.4033 8.94991C13.4228 8.94991 13.4426 8.94545 13.4613 8.93622C13.9338 8.69988 14.4424 8.27819 14.4424 7.91064C14.4424 7.71869 14.3096 6.33761 14.2336 5.56188C14.2953 5.53558 14.3275 5.46588 14.3059 5.40123Z" fill="#F5F5F5"/>
<path d="M15.3899 6.57347C15.4149 6.59846 15.4481 6.61154 15.4818 6.61154C15.5038 6.61154 15.5259 6.60596 15.546 6.59452C15.5968 6.5656 15.622 6.50621 15.6076 6.44954C15.5844 6.35818 15.5766 6.24404 15.5889 6.19735C15.654 6.19936 15.7144 6.15305 15.724 6.08593C15.7341 6.01486 15.6848 5.949 15.6138 5.93888C15.5279 5.92721 15.4525 5.95243 15.3998 6.01107C15.3657 6.04913 15.3454 6.09797 15.3343 6.15052L15.1839 6.00005C15.1331 5.94933 15.0509 5.94933 15.0001 6.00005C14.9494 6.05077 14.9494 6.13299 15.0001 6.18375L15.3899 6.57347Z" fill="#F5F5F5"/>
<path d="M15.6822 6.70894L15.195 7.05807C15.1367 7.09979 15.1233 7.18102 15.1651 7.23938C15.1905 7.27477 15.2304 7.29352 15.2708 7.29352C15.297 7.29352 15.3234 7.28565 15.3463 7.26915L15.8335 6.92002C15.8918 6.8783 15.9052 6.79707 15.8635 6.73871C15.8216 6.68044 15.7403 6.66685 15.6822 6.70894Z" fill="#F5F5F5"/>
<path d="M15.639 7.19755C15.5981 7.25019 15.604 7.32425 15.6504 7.36986C15.656 7.37928 15.6813 7.42897 15.6767 7.55684C15.6742 7.62866 15.7303 7.6888 15.8019 7.69133C15.8035 7.69142 15.8051 7.69142 15.8066 7.69142C15.8763 7.69142 15.9339 7.63625 15.9364 7.56622C15.9459 7.30109 15.8591 7.20416 15.8214 7.17481C15.7648 7.13056 15.6831 7.14092 15.639 7.19755Z" fill="#F5F5F5"/>
<path d="M16.7728 8.15425C16.8445 8.15425 16.9027 8.09617 16.9027 8.02431C16.9027 7.83264 16.8929 7.61866 16.8767 7.396C17.0056 7.60708 17.1126 7.80166 17.1812 7.96178C17.2022 8.01114 17.2502 8.04058 17.3006 8.04058C17.3177 8.04058 17.3351 8.03725 17.3517 8.03003C17.4176 8.00172 17.4482 7.92536 17.4199 7.85955C17.301 7.582 17.0787 7.21436 16.8255 6.83472C16.7746 6.35786 16.708 5.8907 16.6563 5.55555C16.6838 5.55836 16.7124 5.55161 16.7374 5.53539C16.7784 5.50909 16.7977 5.46344 16.7949 5.41802C16.7983 5.43081 16.8019 5.44361 16.8093 5.45538C16.8102 5.45669 16.8937 5.59455 16.8567 5.77342C16.8422 5.84355 16.8873 5.91236 16.9576 5.92694C16.9665 5.92872 16.9753 5.92961 16.984 5.92961C17.0444 5.92961 17.0984 5.88733 17.1112 5.82597C17.1698 5.54214 17.0343 5.32497 17.0286 5.31588C16.99 5.25545 16.9097 5.23774 16.8492 5.27603C16.808 5.30233 16.7885 5.34799 16.7912 5.3935C16.7878 5.38066 16.7841 5.36772 16.7766 5.35595L16.5574 5.01494C16.5239 4.96291 16.4584 4.94186 16.4008 4.96422C16.3432 4.98681 16.3094 5.04681 16.3202 5.1077C16.322 5.11788 16.4212 5.68802 16.5092 6.37511C16.4096 6.23449 16.3101 6.09695 16.2135 5.9657C16.1978 5.76916 16.182 5.58742 16.1684 5.43719C16.1756 5.43503 16.1826 5.43222 16.1895 5.4288C16.2537 5.39669 16.2797 5.31869 16.2476 5.25447L16.1177 4.99464C16.0896 4.93858 16.0256 4.91064 15.9654 4.92794C15.9052 4.94542 15.8659 5.00331 15.8722 5.06575C15.8877 5.22077 15.9038 5.39242 15.9197 5.5727C15.8375 5.46438 15.7614 5.36524 15.6964 5.28128C15.7091 5.27036 15.72 5.25681 15.7279 5.24083C15.76 5.17666 15.734 5.09861 15.6699 5.0665L15.41 4.93656C15.3556 4.90942 15.2894 4.92363 15.2509 4.97106C15.2125 5.0185 15.2124 5.08624 15.2505 5.13395C15.2575 5.14267 15.5774 5.54364 15.96 6.06119C16.0264 6.91956 16.0705 7.81239 16.0082 7.99961C15.9967 8.03383 15.9768 8.07419 15.9581 8.07559C15.8796 8.08652 15.6922 7.91092 15.598 7.72277C15.5438 7.61439 15.4658 7.60314 15.424 7.60506C15.2844 7.61369 15.2299 7.76734 15.1309 8.04616C15.06 8.24599 14.9718 8.49438 14.8728 8.596C14.8192 8.53047 14.7498 8.31053 14.7113 8.0845C14.7294 8.13447 14.7761 8.17061 14.8323 8.17061C14.9041 8.17061 14.9623 8.11253 14.9623 8.04067C14.9623 7.84699 14.8268 6.3715 14.7511 5.56291C14.8142 5.5375 14.8475 5.46686 14.8257 5.40142L14.6957 5.0117C14.6748 4.94903 14.6108 4.91214 14.5456 4.92569C14.481 4.93938 14.4369 4.99938 14.4431 5.06514C14.5314 5.99186 14.697 7.78197 14.7021 8.02905C14.7018 8.02685 14.7013 8.02459 14.701 8.02244C14.691 7.95138 14.6246 7.90272 14.5541 7.91224C14.483 7.92255 14.4338 7.98822 14.4439 8.05928C14.4819 8.32483 14.5788 8.78139 14.8021 8.85573C14.8197 8.86169 14.8434 8.86703 14.8712 8.86703C14.9224 8.86703 14.9875 8.84889 15.0541 8.78233C15.1956 8.64086 15.2913 8.37119 15.3758 8.1333C15.3948 8.07949 15.4174 8.01583 15.4388 7.96127C15.5579 8.13531 15.7659 8.35197 15.9766 8.335C16.0506 8.32966 16.1854 8.28986 16.2546 8.08202C16.3237 7.87474 16.2964 7.15202 16.2498 6.46009C16.3593 6.61352 16.4688 6.77055 16.5734 6.9257C16.6139 7.31472 16.6429 7.70453 16.6429 8.02464C16.6428 8.09617 16.701 8.15425 16.7728 8.15425Z" fill="#F5F5F5"/>
<path d="M17.7587 7.47096C17.6666 6.78537 17.5384 5.99121 17.4572 5.50381C17.4939 5.51281 17.5338 5.50545 17.566 5.48074C17.6231 5.43724 17.6341 5.35568 17.5905 5.29868L17.3551 4.99015C17.3187 4.94271 17.2547 4.92598 17.1998 4.94993C17.1449 4.97393 17.1136 5.03229 17.1238 5.09126C17.1261 5.10462 17.3578 6.43821 17.5011 7.50551C17.5558 7.91342 17.4759 8.27787 17.2872 8.48037C17.1659 8.6104 17.0052 8.66928 16.8107 8.65798C16.7393 8.65414 16.6773 8.70795 16.6728 8.77953C16.6683 8.8511 16.7227 8.9127 16.7943 8.91734C16.8163 8.91875 16.8379 8.91935 16.8594 8.91935C17.1043 8.91935 17.3169 8.8295 17.4773 8.65751C17.722 8.39478 17.8246 7.96231 17.7587 7.47096Z" fill="#F5F5F5"/>
<path d="M16.3295 8.32728C16.2818 8.37917 16.2854 8.46088 16.3359 8.50981C16.3429 8.51666 16.3514 8.53011 16.3514 8.53672C16.3515 8.54038 16.3462 8.5513 16.3318 8.56578C16.2811 8.6165 16.2811 8.69872 16.3318 8.74949C16.3572 8.77489 16.3904 8.78755 16.4237 8.78755C16.4569 8.78755 16.4901 8.77489 16.5155 8.74949C16.5979 8.66713 16.613 8.58355 16.6112 8.52786C16.6072 8.40796 16.5255 8.33056 16.5092 8.31627C16.4562 8.27 16.3772 8.27563 16.3295 8.32728Z" fill="#F5F5F5"/>
</svg>
