<svg xmlns="http://www.w3.org/2000/svg" width="24" height="24" viewBox="0 0 24 24" fill="none"><rect width="24" height="24" fill="none"/>
<path d="M22.2026 4.13794H1.79742C0.804703 4.13794 0 4.94264 0 5.93536V12H24V5.93536C24 4.94264 23.1953 4.13794 22.2026 4.13794Z" fill="#F5F5F5"/>
<path d="M0 18.0646C0 19.0573 0.804703 19.8621 1.79742 19.8621H22.2026C23.1952 19.8621 24 19.0574 24 18.0646V12H0V18.0646Z" fill="#73AF00"/>
<path d="M18.2574 8.73924C18.2574 8.73924 18.5434 9.52379 18.568 9.56466L18.6006 9.49927L18.7968 8.47772L19.3034 7.52972L19.1563 7.54608L18.004 8.10179C18.004 8.10179 17.3175 8.85366 17.3094 8.87818C17.3012 8.90269 18.2574 8.73924 18.2574 8.73924Z" fill="#FF4B55"/>
<path d="M18.6633 16.2415C18.6252 16.2361 18.0585 16.2633 18.0585 16.2633L17.8733 15.6422L17.7671 14.4682L17.9673 14.4151L18.2166 14.5336L18.3065 14.0636C18.3065 14.0636 18.0899 13.8266 18.0491 13.8103C18.0082 13.7939 17.5179 13.6836 17.5179 13.6836L16.86 12.8132L17.6445 12.376L18.2575 11.5343L18.4046 10.7742L18.282 10.1449L18.0032 9.67824C17.9991 9.66493 17.9959 9.65462 17.9959 9.65462C17.9939 9.65213 17.9871 9.64744 17.9827 9.64379L17.9306 9.55651L17.9297 9.60741C17.8088 9.5319 17.5614 9.40055 17.4974 9.36854C17.4157 9.32766 16.9825 9.25412 16.8926 9.31951C16.8027 9.3849 16.3859 9.58102 16.3124 9.71996C16.2389 9.8589 16.1898 10.3574 16.1898 10.3574C16.1898 10.3574 16.3124 10.6353 16.4677 10.7006C16.623 10.766 16.9253 10.8396 16.9744 10.8232C17.0167 10.8091 17.4964 10.6674 17.6273 10.6077L17.6854 10.7251L17.6609 11.0602L17.3912 11.2482L16.8927 11.4443C16.8927 11.4443 16.1326 11.2318 16.1 11.24C16.0673 11.2481 15.1274 10.9621 15.1274 10.9621L14.2448 10.7578L14.539 10.6107L15.3399 10.5535C15.3399 10.5535 15.4952 9.64637 15.5197 9.63001C15.5443 9.61365 16.0673 9.19688 16.0673 9.19688L16.5004 9.09066L16.2389 7.98188L16.6312 6.77237L15.6069 7.06655L13.9833 7.46968L12.9482 7.40429L12.0329 7.69848L11.4444 8.23243L11.1066 8.69007L10.9867 9.42015L10.9104 10.39L10.6271 10.9239L10.3061 11.1756C10.2701 11.0806 10.1014 10.7169 10.1014 10.7169L10.51 10.6189L10.4038 10.3492L10.1178 10.1367L10.2077 9.80982L10.5346 9.98963L10.6245 10.055L10.6817 9.71996L10.3221 9.21329L10.3793 8.95993L10.8124 9.18877L10.7634 8.60035L10.3793 8.36335L10.4038 8.03644L10.8233 8.16179L10.7797 7.85124L10.3221 7.51885L10.7688 6.79969L10.224 6.82698L10.1804 6.59265L10.0388 6.53813C10.0388 6.53813 9.28143 6.8596 9.22696 6.84868C9.1725 6.8378 8.56776 6.7561 8.49689 6.77237C8.42606 6.78873 8.17547 6.85407 8.17547 6.85407L8.10459 7.13194L7.64151 7.05563L6.95503 6.99844L6.74798 7.2518L7.07489 7.38258C7.07489 7.38258 6.99867 7.96008 7.02042 8.00368C7.04221 8.04723 7.23834 8.33058 7.23834 8.33058L6.79162 8.94076L7.24926 9.00615L7.88128 8.90809L7.85943 9.06066L8.6985 8.97348L8.5132 9.07154L8.27348 9.79069L7.57607 11.2073L7.33092 12.4658L6.93862 12.0572L6.67711 10.9784L6.28481 9.91599C6.28481 9.91599 6.20311 9.58909 6.15403 9.58093C6.105 9.57277 5.89251 9.5319 5.89251 9.5319L5.62284 9.75254L5.27962 9.70351L5.0835 9.97318L5.30414 10.3164C5.30414 10.3164 4.93636 10.4635 4.93636 10.5044C4.93636 10.5452 4.96087 10.7822 4.98539 10.7904C5.0099 10.7986 5.56561 10.7822 5.56561 10.7822L5.90067 11.3788L5.63915 12.0653L5.76993 12.3268L5.99878 12.3595L6.21126 12.1143L6.94678 14.3127C6.94678 14.3127 6.88959 14.5988 6.84872 14.6233C6.80784 14.6478 6.61171 14.8684 6.66075 14.8684C6.70978 14.8684 7.01217 14.9093 7.04484 14.8929C7.07751 14.8766 7.50248 14.5497 7.50248 14.5497C7.50248 14.5497 8.17261 14.0349 8.21348 14.0757C8.25436 14.1166 8.89181 14.5089 8.89181 14.5089L8.59762 15.5222L7.90298 16.5356L7.46986 16.2741L7.15931 15.8328L6.93047 15.9063L6.84876 16.0453L6.88143 16.3395C6.88143 16.3395 6.64443 16.5274 6.64443 16.5683C6.64443 16.6092 6.66895 16.9034 6.66895 16.9034C6.66895 16.9034 6.82425 16.9769 6.8324 17.0178C6.84056 17.0587 6.92231 17.3529 6.92231 17.3529L7.08576 17.41L7.39631 17.2221H7.91118L8.22989 17.2711L8.90822 17.0586L9.89709 17.1076L9.80718 16.9197C9.80718 16.9197 9.40673 16.7154 9.26779 16.6745C9.12886 16.6336 8.98992 16.601 8.98992 16.601L8.93273 16.3149L9.90525 15.1626L10.2648 15.0891L10.3874 15.3915C10.3874 15.3915 10.7906 15.2934 10.7906 15.2607C10.7906 15.228 10.7906 14.8793 10.7906 14.8466C10.7906 14.8139 10.7034 14.5415 10.7034 14.5415C10.7034 14.5415 10.7022 14.5315 10.7004 14.5165L11.0084 14.4652L12.0763 13.9531L12.4522 14.4053L12.9208 14.6287L12.3378 15.6747L11.8365 16.0126L11.477 15.8491L10.9757 15.4786L10.7796 15.5985L10.8232 15.969L10.529 15.9472L10.3982 16.2087L10.6161 16.5247L10.5398 16.7754C10.5398 16.7754 10.5943 17.0042 10.6488 17.0042C10.7032 17.0042 11.0302 16.8843 11.0302 16.8843L11.9891 16.808L12.6865 16.5791L13.4166 16.6336C13.4166 16.6336 13.5582 16.1432 13.5255 16.1432C13.4929 16.1432 13.482 16.1323 13.3948 16.1323C13.3076 16.1323 13.0025 16.1432 13.0025 16.1432L12.9915 16.0343L13.2313 15.5985L14.1575 14.8248L14.4299 14.8793L14.528 15.0209L14.8004 14.8139L14.7895 14.4652L14.5498 14.2146L14.31 13.9312L14.3864 13.5062L14.8004 13.7024C14.8004 13.7024 15.4542 14.16 15.5086 14.1819C15.5631 14.2036 16.8271 14.5305 16.8271 14.5305L17.0887 15.1516L16.9579 16.1323L16.5547 16.0124L16.1733 15.5221C16.1733 15.5221 16.0643 15.4675 16.0099 15.4785C15.9554 15.4894 15.8247 15.7073 15.8247 15.7073L15.9554 16.0124L15.7811 16.0669L15.6176 16.1759L15.5849 16.4047L15.7375 16.5463C15.7375 16.5463 15.7375 16.8078 15.7375 16.8405C15.7375 16.8732 15.8247 16.993 15.8574 17.004C15.8901 17.0148 16.1407 17.0475 16.2006 17.0421C16.2606 17.0366 16.7073 16.8514 16.7073 16.8514C16.7073 16.8514 17.5463 16.8678 17.5681 16.8624C17.59 16.8569 18.3146 16.6989 18.3146 16.6989L18.7232 16.7643C18.7232 16.7643 18.9956 16.5572 18.9847 16.53C18.9739 16.5031 18.7014 16.247 18.6633 16.2415ZM17.0969 10.341C16.8763 10.3655 16.7618 10.4309 16.7455 10.3083C16.7291 10.1858 16.7291 9.94055 16.7536 9.9324C16.7782 9.92424 17.0315 9.7771 17.0397 9.80162C17.0478 9.82613 17.3012 9.94871 17.3012 9.94871L17.4555 10.2606C17.3741 10.3038 17.2485 10.3241 17.0969 10.341Z" fill="#FF4B55"/>
<path d="M5.95788 8.33883C5.95788 8.33883 6.04778 7.87298 6.0723 7.87298C6.09681 7.87298 6.43188 7.75041 6.43188 7.75041L5.43484 7.1048C5.43484 7.1048 5.60645 7.8975 5.62281 7.96289C5.63913 8.02823 5.95788 8.33883 5.95788 8.33883Z" fill="#FF4B55"/>
<path d="M8.49383 7.38003C8.4973 7.38083 8.51718 7.38524 8.54755 7.39124L8.54005 7.42391C8.52777 7.4765 8.56072 7.52938 8.6136 7.54138C8.621 7.5432 8.62841 7.54391 8.63568 7.54391C8.68025 7.54391 8.72071 7.5133 8.73107 7.46783L8.74157 7.42217C8.81221 7.43089 8.88997 7.43769 8.96511 7.43769C9.02858 7.43769 9.08989 7.4331 9.14263 7.42081C9.19536 7.40853 9.22827 7.35594 9.21603 7.30335C9.20375 7.25047 9.15154 7.21677 9.09843 7.2298C8.94327 7.26631 8.64078 7.21241 8.53757 7.18892C8.48586 7.17664 8.43238 7.2096 8.4201 7.26247C8.40814 7.31539 8.4411 7.36803 8.49383 7.38003Z" fill="#464655"/>
<path d="M18.2031 8.9633L18.4502 9.71789C18.4635 9.75825 18.5011 9.7853 18.5434 9.7853C18.5448 9.7853 18.5462 9.7853 18.5477 9.7853C18.5917 9.78323 18.6289 9.75234 18.6389 9.70945C18.8198 8.93461 19.1816 7.70897 19.4374 7.50877C19.473 7.48092 19.4849 7.43269 19.4663 7.3913C19.448 7.35042 19.4042 7.32694 19.3592 7.33514C19.3069 7.34484 18.0663 7.58648 17.2032 8.88103C17.1811 8.91422 17.1812 8.95739 17.2035 8.99034C17.2259 9.0233 17.2657 9.03863 17.3048 9.03145L18.0235 8.88286C17.9229 9.12548 17.8587 9.33895 17.8365 9.41738C17.5092 9.2182 17.1401 9.18277 16.8841 9.24905C16.592 9.32564 16.3464 9.51187 16.2103 9.76008C16.1059 9.9503 16.0784 10.1592 16.1346 10.3332C16.1999 10.5352 16.374 10.7865 16.6673 10.8853C16.8617 10.9513 17.1757 10.9659 17.5897 10.7097C17.5897 10.7117 17.59 10.7136 17.59 10.7154C17.5872 10.8789 17.5033 11.0122 17.3403 11.112C17.0165 11.3105 16.4487 11.3237 16.0749 11.1409C15.582 10.9003 14.841 10.7633 14.427 10.7012C14.6836 10.6194 14.994 10.5963 15.3669 10.6817C15.372 10.683 15.3769 10.681 15.382 10.6814C15.3845 10.6816 15.3864 10.6843 15.3889 10.6843C15.3916 10.6843 15.3938 10.6814 15.3965 10.6812C15.419 10.6793 15.4409 10.6725 15.4574 10.6565C15.4577 10.6562 15.4577 10.6559 15.4579 10.6556C15.458 10.6555 15.4582 10.6555 15.4582 10.6555C15.4587 10.6551 15.4585 10.6544 15.4589 10.654C15.4747 10.6375 15.4817 10.6164 15.4837 10.5943C15.4841 10.589 15.4847 10.5849 15.4844 10.5797C15.4841 10.5752 15.4859 10.571 15.485 10.5666C15.4838 10.561 15.3751 10.0043 15.6743 9.62063C15.8542 9.39 16.1483 9.26409 16.5484 9.246C16.5548 9.24567 16.56 9.24211 16.566 9.24061C16.5747 9.23859 16.5833 9.23728 16.5911 9.23297C16.5983 9.22898 16.6033 9.22275 16.6092 9.21713C16.6142 9.21248 16.6203 9.20967 16.6244 9.20381C16.6253 9.20264 16.6253 9.20114 16.626 9.19988C16.6267 9.1988 16.628 9.19833 16.6287 9.1972C16.6305 9.19416 16.63 9.19059 16.6315 9.18736C16.6359 9.17756 16.639 9.16777 16.64 9.15741C16.6405 9.15244 16.6405 9.14789 16.6402 9.14292C16.6396 9.13186 16.6371 9.12145 16.6329 9.11123C16.6319 9.10866 16.6324 9.10575 16.631 9.10327C16.6231 9.0877 15.8536 7.54894 17.1074 6.52148C17.1481 6.48802 17.1551 6.4283 17.1233 6.38639C17.0914 6.34477 17.0323 6.33506 16.9889 6.36544C15.751 7.2345 14.0401 7.32825 13.3621 7.32825C12.1526 7.32825 11.3885 7.78364 11.0259 8.72016C10.9883 8.81752 10.9615 8.93287 10.9392 9.05648C10.9513 8.88319 10.9196 8.73131 10.8414 8.60428C10.7298 8.42316 10.5591 8.34731 10.4823 8.32097C10.4824 8.27653 10.482 8.23252 10.4807 8.18934C10.6132 8.16895 10.7704 8.2718 10.8222 8.31544C10.8404 8.33077 10.863 8.33892 10.8858 8.33892C10.9008 8.33892 10.9161 8.33536 10.9299 8.32823C10.9651 8.31033 10.9864 8.2733 10.9836 8.23402C10.9515 7.77797 10.6421 7.55634 10.4299 7.48139C10.617 7.33261 10.8165 7.08938 10.9387 6.69253C10.9504 6.65419 10.9378 6.61261 10.9066 6.58758C10.8755 6.56227 10.832 6.55847 10.7973 6.57788C10.794 6.57975 10.5943 6.68784 10.2942 6.77695L10.3216 6.42056C10.3243 6.38456 10.3071 6.34978 10.2765 6.33042C10.2459 6.31078 10.2069 6.30998 10.1756 6.32789C10.1705 6.3307 9.66839 6.61252 9.15628 6.7613C8.76975 6.66412 8.26669 6.58847 8.07596 6.78713C8.02997 6.83484 7.98717 6.91252 7.99782 7.0328C7.66875 6.96413 6.91332 6.85172 6.45474 7.14825C6.4186 7.17145 6.40196 7.2157 6.41363 7.25705C6.42535 7.29844 6.46266 7.32755 6.50569 7.32858C6.65124 7.33214 6.87624 7.36561 6.97013 7.42767C6.92874 7.53928 6.8603 7.77577 6.92007 8.00381C6.72103 8.06147 6.51221 8.07037 6.25824 7.93298L6.47963 7.87866C6.51933 7.86895 6.54882 7.83553 6.55369 7.79484C6.55838 7.75425 6.53752 7.71487 6.50119 7.69627C6.49557 7.69322 5.93728 7.40283 5.47299 6.91477C5.44669 6.88744 5.40671 6.87745 5.37005 6.88973C5.33377 6.90225 5.30813 6.93469 5.30443 6.97275C5.30044 7.01208 5.21724 7.93987 5.92182 8.49005C5.93944 8.50359 5.96077 8.51072 5.98224 8.51072C5.99564 8.51072 6.00905 8.50791 6.0218 8.50228C6.05475 8.48775 6.07721 8.4563 6.08002 8.4203L6.10735 8.06986C6.45886 8.28033 6.74991 8.26022 6.99952 8.18433C7.03083 8.23205 7.07063 8.27752 7.12083 8.31919C7.12885 8.32589 7.13996 8.33316 7.15116 8.34052C6.99071 8.71617 6.6721 8.81297 6.65846 8.81672C6.61875 8.8282 6.5903 8.86322 6.58744 8.90428C6.58449 8.94539 6.6075 8.98392 6.64514 9.0008C6.66886 9.01125 7.1821 9.2332 7.75735 9.02836L7.7483 9.09398C7.74446 9.12155 7.75266 9.14963 7.77089 9.17086C7.78899 9.19233 7.81547 9.20484 7.84341 9.20536C7.84585 9.20536 7.85236 9.20564 7.86253 9.20564C7.92858 9.20564 8.14768 9.20063 8.39607 9.14358C8.35857 9.49448 8.14472 9.91266 7.91728 10.3539C7.60941 10.9516 7.26628 11.6257 7.27177 12.3064C7.1543 12.1544 7.00805 11.9173 6.93572 11.6025C6.91069 11.4932 6.8941 11.3951 6.87905 11.3055C6.84239 11.0887 6.81071 10.9012 6.68255 10.725C6.53761 10.5258 6.33268 10.0812 6.34158 9.83831C6.35002 9.61383 6.20293 9.48178 6.05349 9.45037C6.04271 9.44817 6.03253 9.45094 6.02185 9.44967C5.98646 9.37837 5.89064 9.24183 5.67043 9.22613C5.61746 9.219 5.56941 9.26292 5.56557 9.31706C5.56172 9.37097 5.60236 9.41794 5.65636 9.42173C5.73319 9.42717 5.78082 9.45652 5.81007 9.48577C5.73811 9.52275 5.67989 9.58444 5.63935 9.66342C5.50805 9.58777 5.37539 9.56883 5.27391 9.59203C5.24761 9.59798 5.22774 9.61219 5.20505 9.62292C5.13863 9.58828 4.96172 9.52233 4.74853 9.65789C4.70283 9.68677 4.68924 9.74752 4.71839 9.79327C4.737 9.82266 4.76883 9.83873 4.80127 9.83873C4.81918 9.83873 4.83741 9.83386 4.85377 9.82341C4.92989 9.77508 4.99491 9.76875 5.04263 9.77484C5.00766 9.83962 4.98778 9.91097 4.99121 9.97744C4.998 10.1095 5.07432 10.2119 5.1923 10.2553C5.05158 10.2821 4.93233 10.3475 4.86863 10.4359C4.85832 10.4502 4.85621 10.4665 4.8488 10.4817C4.75918 10.491 4.62132 10.5512 4.53418 10.7355C4.51097 10.7843 4.53188 10.8428 4.58077 10.866C4.59441 10.8724 4.60861 10.8755 4.62268 10.8755C4.65947 10.8755 4.69468 10.8548 4.71146 10.8193C4.75032 10.7373 4.79597 10.7048 4.8301 10.6899C4.92324 10.9972 5.2261 10.9272 5.40877 10.8844L5.48194 10.8678C5.58436 10.8474 5.76493 11.1465 5.81344 11.3405C5.84714 11.4754 5.78944 11.6404 5.60757 11.9289C5.49713 12.1046 5.52891 12.2318 5.57513 12.3076C5.57607 12.3092 5.57757 12.31 5.5785 12.3115C5.54916 12.3203 5.51302 12.3266 5.46418 12.3202C5.41139 12.3095 5.361 12.3503 5.35374 12.404C5.34652 12.4576 5.38402 12.5071 5.43764 12.5143C5.46268 12.5179 5.4863 12.5194 5.50866 12.5194C5.62271 12.5194 5.69869 12.4805 5.74435 12.4486C5.80814 12.4759 5.87377 12.4861 5.92228 12.4824C6.05757 12.4712 6.14911 12.3527 6.21099 12.2055C6.39141 13.2003 6.80602 14.124 6.87807 14.2799C6.86353 14.6323 6.4831 14.715 6.46664 14.7187C6.42436 14.7273 6.39272 14.7626 6.38874 14.8057C6.3848 14.8487 6.40917 14.889 6.44902 14.9054C6.61453 14.973 6.75933 15.0001 6.8851 15.0001C7.27303 15.0001 7.47811 14.7443 7.54271 14.6457C7.82921 14.5459 8.16507 14.3123 8.29618 14.2167C8.5148 14.3805 8.69653 14.4713 8.75724 14.4997C8.65163 15.5396 8.04193 16.242 7.86357 16.4262C7.74277 16.357 7.476 16.1862 7.38792 15.9826C7.30458 15.7902 7.15003 15.736 7.02399 15.7473C6.98166 15.6926 6.88669 15.5907 6.75343 15.576C6.68794 15.5691 6.58857 15.5811 6.48755 15.6822C6.44921 15.7205 6.44921 15.7825 6.48755 15.8208C6.52571 15.8592 6.58777 15.8594 6.62621 15.8211C6.68161 15.7657 6.7193 15.769 6.73158 15.7708C6.76936 15.7748 6.80588 15.8021 6.83471 15.8303C6.76322 15.8912 6.71893 15.9765 6.7261 16.0696C6.73116 16.135 6.75568 16.1965 6.79022 16.2537C6.71878 16.2908 6.63272 16.3518 6.57605 16.4483C6.57403 16.4518 6.57169 16.4573 6.56958 16.4611C6.45253 16.4685 6.24174 16.5512 6.20893 16.824C6.20255 16.8779 6.24085 16.9267 6.29461 16.933C6.29869 16.9335 6.30253 16.9338 6.30652 16.9338C6.35546 16.9338 6.39783 16.8973 6.40383 16.8475C6.41555 16.7498 6.46289 16.7028 6.50724 16.6793C6.50611 16.7195 6.50944 16.7614 6.52388 16.8051C6.55772 16.908 6.63774 16.9915 6.75718 17.0564C6.74457 17.0966 6.73632 17.1395 6.73524 17.1858C6.67219 17.2177 6.57919 17.277 6.53157 17.3779C6.49594 17.4533 6.49374 17.5375 6.52505 17.6218C6.53972 17.6614 6.57713 17.6857 6.61697 17.6857C6.62836 17.6857 6.63994 17.6836 6.65119 17.6796C6.70205 17.6607 6.72778 17.6042 6.70889 17.5534C6.69178 17.5077 6.7006 17.4794 6.7088 17.462C6.72324 17.4311 6.75211 17.4051 6.7815 17.385C6.81788 17.4503 6.87282 17.5 6.94632 17.5243C6.97988 17.5352 7.01475 17.5406 7.04977 17.5406C7.16644 17.5406 7.28471 17.4816 7.3606 17.379C7.45139 17.2559 7.629 17.3264 7.64053 17.3313C8.01188 17.4661 8.51358 17.3645 8.81724 17.1939C8.98566 17.0991 9.5791 17.1502 9.91374 17.2051C9.93989 17.2087 9.96774 17.2023 9.98935 17.1862C10.0108 17.1696 10.0245 17.1451 10.0272 17.118C10.061 16.7794 9.62288 16.6895 9.2708 16.6172C9.17489 16.5976 9.08363 16.5789 8.99752 16.5421C8.96316 16.3435 9.47944 15.6202 9.97135 15.2586C10.0919 15.17 10.1889 15.1344 10.2376 15.1605C10.307 15.1986 10.3291 15.3758 10.3221 15.4836C10.3219 15.4864 10.3235 15.4889 10.3236 15.4917C10.3237 15.5024 10.3257 15.5126 10.3294 15.523C10.331 15.5274 10.3322 15.5315 10.3344 15.5356C10.3358 15.5382 10.3359 15.5411 10.3375 15.5436C10.3431 15.5522 10.3507 15.5585 10.3583 15.5647C10.3598 15.5659 10.3603 15.5679 10.3619 15.5691C10.3623 15.5694 10.3628 15.5693 10.3628 15.5693C10.3755 15.5783 10.3894 15.5837 10.4042 15.5861C10.408 15.5867 10.4116 15.5862 10.4153 15.5863C10.4263 15.5869 10.4369 15.5857 10.4477 15.5825C10.4502 15.5818 10.4529 15.5825 10.4554 15.5816C10.4633 15.5785 10.472 15.5741 10.4801 15.5707C10.5324 15.5439 10.621 15.5738 10.6831 15.6056C10.6715 15.6414 10.6645 15.6787 10.6679 15.7192C10.6719 15.7698 10.6877 15.8201 10.7122 15.8684C10.615 15.8574 10.5241 15.8684 10.4583 15.9189C10.4348 15.9369 10.4163 15.9596 10.3976 15.982C10.2596 15.9957 10.0869 16.0827 10.0459 16.2882C10.0353 16.3413 10.0696 16.3929 10.1228 16.4037C10.1293 16.405 10.1358 16.4055 10.1422 16.4055C10.1879 16.4055 10.2289 16.3733 10.2383 16.3266C10.2481 16.2775 10.2732 16.2478 10.3009 16.2254C10.3 16.2612 10.3039 16.2967 10.3145 16.3301C10.3336 16.3908 10.3855 16.4812 10.5173 16.5318C10.5054 16.552 10.4952 16.5735 10.4862 16.5954C10.388 16.627 10.2402 16.7288 10.2402 16.9448C10.2402 16.999 10.2841 17.0429 10.3382 17.0429C10.3924 17.0429 10.4363 16.999 10.4363 16.9448C10.4363 16.9067 10.4458 16.879 10.4582 16.8561C10.4614 16.8702 10.4637 16.8848 10.4687 16.8981C10.4925 16.9601 10.5638 17.0766 10.7638 17.0766C10.8297 17.0766 10.9094 17.064 11.0059 17.0326C11.24 16.9568 11.4059 16.9488 11.5663 16.941C11.7581 16.9318 11.9393 16.9228 12.1938 16.8048C12.5605 16.6345 13.0148 16.6922 13.2527 16.742C13.3817 16.7685 13.5079 16.7052 13.5598 16.587C13.5777 16.5466 13.5893 16.5113 13.6017 16.4755C13.7126 16.4888 13.7356 16.5966 13.7386 16.6204C13.7441 16.6705 13.7865 16.7078 13.8359 16.7078C13.8392 16.7078 13.8427 16.7075 13.8461 16.7073C13.9 16.7017 13.9392 16.6534 13.9336 16.5995C13.923 16.497 13.8471 16.3132 13.6438 16.2812C13.6464 16.2117 13.6328 16.1544 13.5988 16.1122C13.5615 16.0662 13.4873 16.018 13.3419 16.0478C13.1915 16.079 13.1223 16.0852 13.0911 16.0823C13.0958 16.0632 13.107 16.0292 13.1329 15.9713C13.2205 15.7741 13.8021 15.2541 14.183 14.9428C14.2748 14.9221 14.3913 14.9208 14.4182 14.9515C14.4277 14.9619 14.4277 14.998 14.4062 15.0549C14.3909 15.0953 14.4038 15.1408 14.4377 15.1671C14.4716 15.1934 14.5188 15.1946 14.5541 15.1701C14.5693 15.1594 14.925 14.9068 14.9179 14.5991C14.9142 14.4435 14.8235 14.3085 14.6483 14.1976C14.4998 14.1039 14.4145 13.9954 14.3946 13.8753C14.3738 13.7498 14.4273 13.6383 14.4631 13.579C14.6036 13.6463 14.7446 13.7334 14.885 13.8495C15.7132 14.5342 16.4179 14.6433 16.7985 14.6415C16.8784 14.8179 17.1129 15.4199 16.9127 16.0381C16.8062 16.0193 16.5971 15.9513 16.4536 15.712C16.314 15.4796 16.1466 15.4214 16.0305 15.4137C15.8501 15.3997 15.6586 15.5023 15.5082 15.6903C15.4761 15.7306 15.4805 15.7889 15.5183 15.8236C15.5562 15.8586 15.6148 15.8584 15.652 15.8231C15.677 15.7993 15.7236 15.7705 15.7437 15.786L15.764 15.8427C15.7749 15.8741 15.786 15.9058 15.7992 15.9364C15.7212 15.9479 15.6461 15.9798 15.5875 16.0463C15.5489 16.09 15.5246 16.1406 15.507 16.1926C15.3274 16.2247 15.2295 16.361 15.2254 16.3673C15.1955 16.4119 15.2077 16.4719 15.2521 16.5021C15.2688 16.5136 15.288 16.5192 15.3069 16.5192C15.3382 16.5192 15.369 16.5044 15.3881 16.4768C15.39 16.4743 15.4262 16.4251 15.491 16.3976C15.4991 16.4346 15.5124 16.4703 15.5325 16.5028C15.5663 16.5574 15.6144 16.5939 15.6689 16.6133C15.6615 16.6417 15.6553 16.6726 15.6512 16.7059C15.6492 16.7066 15.647 16.7063 15.6449 16.7071C15.4101 16.806 15.458 17.0979 15.5161 17.2383C15.5318 17.2761 15.5681 17.2988 15.6066 17.2988C15.6191 17.2988 15.6317 17.2963 15.6439 17.2914C15.6939 17.2707 15.7178 17.2135 15.6974 17.1634C15.6967 17.1615 15.6415 17.0174 15.677 16.9353C15.6779 16.9375 15.6781 16.9399 15.6791 16.942C15.7197 17.0337 15.798 17.0991 15.9054 17.1313C15.9583 17.1472 16.0088 17.1538 16.0572 17.1538C16.2177 17.1538 16.354 17.0794 16.4686 17.0167C16.5579 16.9679 16.6423 16.9232 16.7088 16.9278C16.7573 16.9324 16.8127 16.9411 16.8734 16.9505C17.1028 16.9862 17.4171 17.0348 17.7291 16.9344C17.7871 16.9158 17.8397 16.8976 17.8879 16.881C18.1414 16.7941 18.2361 16.7617 18.391 16.8499C18.5786 16.9572 18.8205 16.8851 18.9451 16.7536C18.9841 16.7124 19.0066 16.6665 19.0187 16.6199C19.0827 16.6454 19.1346 16.6729 19.1429 16.6882C19.1246 16.7393 19.1512 16.7953 19.2023 16.8136C19.2131 16.8175 19.2242 16.8193 19.2352 16.8193C19.2754 16.8193 19.3132 16.7942 19.3276 16.7542C19.3459 16.7028 19.3415 16.65 19.3149 16.6014C19.2501 16.4834 19.0604 16.42 18.9653 16.3949C18.8084 16.1815 18.5692 16.1152 18.1739 16.1777C18.1582 16.18 18.1459 16.1772 18.1324 16.166C17.9881 16.0493 17.9563 15.443 17.9374 15.0811C17.9222 14.7915 17.9118 14.6235 17.8674 14.5427C17.8901 14.5241 18.0143 14.5218 18.0916 14.5782C18.1289 14.6058 18.1326 14.6306 18.1237 14.6587C18.1221 14.6627 18.1207 14.6666 18.1193 14.6704C18.1002 14.7204 18.1249 14.7769 18.1748 14.7965C18.2248 14.8156 18.2813 14.7922 18.3016 14.7424C18.3046 14.7355 18.3071 14.7283 18.3095 14.7214C18.3445 14.622 18.4877 14.172 18.3189 13.887C18.2431 13.7591 18.1196 13.6827 17.9517 13.66C17.5239 13.6023 17.1979 13.329 16.9787 12.8527C17.3108 12.736 18.2886 12.2928 18.4714 11.0696C18.5928 10.2564 18.3014 9.80105 18.0354 9.56227C18.0227 9.55083 18.009 9.54216 17.996 9.53137C18.0037 9.52139 18.0135 9.51319 18.0169 9.50025C18.0182 9.49584 18.0854 9.24848 18.2031 8.9633ZM17.5106 8.7885C18.0696 8.06114 18.755 7.73733 19.1257 7.60655C18.8826 8.04455 18.6509 8.86383 18.5302 9.33169L18.3261 8.70853C18.3253 8.70609 18.3228 8.70506 18.3219 8.70272C18.3817 8.58469 18.449 8.47041 18.5231 8.37389C18.5561 8.331 18.548 8.26945 18.5051 8.2365C18.4621 8.20331 18.4007 8.21147 18.3676 8.25441C18.275 8.37478 18.1935 8.51752 18.1231 8.66175L17.5106 8.7885ZM5.90011 8.20519C5.598 7.88517 5.5193 7.46991 5.5013 7.21762C5.75977 7.45716 6.02049 7.6365 6.19636 7.74577L6.04008 7.78416C6.01022 7.7602 5.98093 7.73808 5.94971 7.71005C5.90972 7.67405 5.8478 7.67761 5.81128 7.71745C5.775 7.75781 5.77833 7.81987 5.81869 7.85611C5.85371 7.88756 5.88699 7.91175 5.92083 7.9387L5.90011 8.20519ZM13.2976 11.4402C13.1143 10.9511 12.5611 9.78019 11.2059 8.8005C11.207 8.79764 11.2077 8.79389 11.2088 8.79108C11.2262 8.74617 11.2489 8.7075 11.2683 8.66503C13.3201 9.18938 14.5689 10.0424 15.0678 10.4395C14.0486 10.3643 13.5094 11.0664 13.2976 11.4402ZM15.5187 9.50105C15.3021 9.77948 15.2643 10.1186 15.2686 10.3476C14.8186 9.97097 13.554 9.05419 11.3545 8.48541C11.383 8.43605 11.4171 8.39311 11.4489 8.34759C11.456 8.34923 11.4628 8.35177 11.4703 8.35223C14.1764 8.23594 15.6862 8.81705 16.2391 9.09089C15.9289 9.1538 15.6844 9.288 15.5187 9.50105ZM13.3621 7.52433C13.9602 7.52433 15.3411 7.45261 16.5321 6.86236C16.0209 7.63238 16.2046 8.4967 16.3491 8.92373C15.8006 8.64281 14.3153 8.05931 11.606 8.15273C11.9969 7.73414 12.5747 7.52433 13.3621 7.52433ZM11.0619 9.61392C11.0864 9.39225 11.1107 9.18141 11.1492 9.0038C12.4516 9.96923 12.9761 11.1362 13.1313 11.5594C12.8114 11.4877 12.5217 11.5109 12.2719 11.6397C12.0675 11.7452 11.925 11.9002 11.8272 12.0422C11.7837 11.5487 11.6207 10.6681 11.0257 9.97477C11.0237 9.97256 11.0211 9.97158 11.019 9.96956C11.0349 9.85031 11.0491 9.73078 11.0619 9.61392ZM10.9381 12.6079C10.4823 12.5017 10.2909 12.0424 10.2821 12.0208C10.2701 11.9911 10.2444 11.9689 10.2132 11.9618C10.2058 11.9602 10.1984 11.9592 10.191 11.9592C10.1671 11.9592 10.1438 11.9682 10.1255 11.9845C9.7981 12.279 9.3975 12.3566 9.19753 12.3771C9.3556 11.8806 9.80011 11.6227 10.3981 11.2755L10.4257 11.2595C10.5747 11.1729 10.6823 11.0416 10.7663 10.8871C10.7663 11.1339 10.7795 11.4088 10.8248 11.6402C10.834 11.687 10.875 11.7194 10.9209 11.7194C10.9272 11.7194 10.9336 11.7189 10.94 11.7176C10.9931 11.7071 11.0277 11.6555 11.0174 11.6024C10.9193 11.1019 10.9814 10.3491 10.9904 10.2477C11.5608 11.0177 11.6363 11.9893 11.6448 12.3061C11.3102 12.2483 11.1238 11.9882 11.1218 11.9856C11.1036 11.959 11.0736 11.9431 11.0415 11.9431H11.0411C11.0092 11.9431 10.9793 11.9585 10.961 11.9845C10.816 12.1898 10.8726 12.4429 10.9381 12.6079ZM10.5907 9.9247C10.5147 9.83123 10.4125 9.72834 10.3113 9.68316C10.3342 9.5918 10.3556 9.49458 10.3751 9.39244C10.4801 9.47864 10.6389 9.65616 10.5907 9.9247ZM10.149 10.2753C10.1783 10.2796 10.357 10.3141 10.4313 10.5436C10.3481 10.5293 10.2503 10.5368 10.1515 10.59C10.1357 10.498 10.1326 10.3931 10.149 10.2753ZM10.4992 10.7782C10.5275 10.8 10.5652 10.8027 10.5975 10.7888C10.5405 10.8944 10.4691 10.9817 10.3811 11.0473C10.333 10.9988 10.2623 10.912 10.209 10.7863C10.3544 10.6804 10.4846 10.7677 10.4992 10.7782ZM10.8372 9.33248C10.8714 9.32367 10.8979 9.29653 10.9068 9.26227C10.8925 9.36895 10.8794 9.47869 10.8669 9.59245C10.8258 9.96534 10.781 10.3692 10.6539 10.6757C10.6179 10.2636 10.3489 10.1119 10.1914 10.0845C10.1998 10.0561 10.2074 10.0281 10.2181 9.99839C10.232 9.95967 10.2458 9.918 10.2592 9.87403C10.3488 9.93056 10.4727 10.0836 10.5421 10.1902C10.5604 10.2182 10.5912 10.2348 10.6243 10.2348C10.6266 10.2348 10.6289 10.2348 10.6312 10.2345C10.6668 10.232 10.6982 10.2103 10.7132 10.1781C10.9479 9.67327 10.6319 9.31327 10.412 9.17747C10.4176 9.14152 10.4231 9.10561 10.4281 9.06909C10.5556 9.12905 10.6916 9.25237 10.7407 9.30469C10.7595 9.32484 10.7855 9.33581 10.8123 9.33581C10.8206 9.33581 10.8289 9.33478 10.8372 9.33248ZM10.6744 8.70703C10.7303 8.79797 10.7538 8.90981 10.7449 9.04106C10.6652 8.97497 10.5601 8.90353 10.4524 8.86547C10.464 8.754 10.4727 8.64211 10.4777 8.53167C10.5372 8.56139 10.6175 8.61469 10.6744 8.70703ZM10.7452 8.0407C10.6647 8.00555 10.5678 7.98169 10.4684 7.99256C10.4584 7.88348 10.4425 7.78195 10.4203 7.69008C10.5234 7.73855 10.6715 7.83984 10.7452 8.0407ZM10.1124 6.58298L10.0935 6.82852C9.94135 6.86241 9.77396 6.88786 9.59663 6.89198C9.57005 6.8828 9.53302 6.87038 9.48994 6.8565C9.74241 6.76313 9.96914 6.65583 10.1124 6.58298ZM7.24655 8.16816C7.22639 8.15128 7.20863 8.13347 7.19316 8.11477C7.21247 8.10713 7.2316 8.09944 7.25035 8.09208C7.38647 8.03742 7.51491 7.98586 7.63852 7.97897C7.9163 7.96186 7.99735 8.07164 8.01549 8.10539C8.034 8.13989 8.03105 8.17027 8.02008 8.18531C7.97386 8.24817 7.89975 8.28591 7.79977 8.29819C7.57139 8.3242 7.29952 8.21236 7.24655 8.16816ZM7.93557 8.79033C7.90594 8.76886 7.86689 8.76553 7.83455 8.78241C7.49808 8.95045 7.16325 8.92927 6.95063 8.88684C7.07832 8.7998 7.22799 8.65392 7.32807 8.42353C7.44272 8.46511 7.58518 8.49862 7.72608 8.49862C7.75875 8.49862 7.79138 8.49656 7.82339 8.49272C7.97686 8.47411 8.09944 8.40792 8.178 8.3017C8.23711 8.22127 8.24096 8.11017 8.18799 8.01211C8.14688 7.93603 8.0101 7.76058 7.62778 7.78327C7.47188 7.7917 7.32221 7.8517 7.17741 7.90992C7.15421 7.91911 7.13091 7.92853 7.1078 7.93748C7.05521 7.70536 7.17268 7.44942 7.17432 7.44609C7.18885 7.41497 7.18622 7.37841 7.16719 7.34977C7.11267 7.26778 7.00411 7.21673 6.88997 7.18477C7.41863 7.07419 8.09733 7.25677 8.10563 7.25911C8.14191 7.26858 8.17997 7.25808 8.20472 7.23C8.22952 7.20244 8.23655 7.16306 8.22282 7.12838C8.18335 7.029 8.18161 6.95981 8.21742 6.9225C8.36991 6.76364 9.08771 6.92067 9.54825 7.08262C9.55922 7.08647 9.57146 7.08544 9.58233 7.08825C10.0362 7.08113 10.4328 6.95138 10.6676 6.8543C10.4026 7.42992 9.95166 7.51088 9.93047 7.51448C9.87727 7.52292 9.84085 7.5727 9.849 7.62609C9.85716 7.67972 9.90736 7.71727 9.96089 7.70831C9.97125 7.70667 10.0671 7.68998 10.1976 7.62722C10.3918 8.1645 10.2397 9.35887 10.0335 9.93173C9.80264 10.573 10.0587 10.9803 10.2154 11.1551C9.59602 11.5155 9.1118 11.8216 8.97624 12.4507C8.97605 12.4513 8.97558 12.4516 8.97539 12.4522C8.97211 12.4624 8.93897 12.5727 8.90072 12.7693C8.66068 12.6098 8.21335 11.955 8.45414 11.1875C8.51977 10.978 8.59693 10.7732 8.6715 10.575C8.89318 9.98667 9.10191 9.43045 8.94647 8.90953C9.00713 8.86603 9.06394 8.81723 9.11307 8.76C9.28407 8.56083 9.34378 8.30616 9.29068 8.00302C9.28149 7.94939 9.23077 7.91311 9.17714 7.92337C9.12394 7.93256 9.08813 7.98338 9.0976 8.03677C9.14063 8.28272 9.09708 8.4773 8.96443 8.63208C8.70802 8.93142 8.18663 8.9932 7.95872 9.00572L7.9756 8.88314C7.98052 8.84728 7.96505 8.81147 7.93557 8.79033ZM8.81593 13.2619C8.64703 13.4684 8.30424 13.743 8.17111 13.8468C8.04821 13.7296 7.92511 13.5905 7.81664 13.4275C8.31844 13.3424 8.61961 13.0309 8.73253 12.8865C8.77013 12.9185 8.80594 12.9442 8.83753 12.9611C8.84668 12.966 8.85652 12.9665 8.86618 12.9682C8.853 13.0522 8.84049 13.1474 8.82863 13.2516C8.82446 13.2551 8.81953 13.2575 8.81593 13.2619ZM7.62239 11.4745C7.70138 11.4967 7.90622 11.549 8.09522 11.549C8.12982 11.549 8.1608 11.5426 8.19328 11.5386C8.1863 11.6593 8.19225 11.7756 8.20918 11.8861C8.0528 11.988 7.68839 11.9965 7.49161 11.9881C7.51791 11.8164 7.56305 11.6448 7.62239 11.4745ZM7.86788 10.8892C7.94016 10.9065 8.08186 10.9353 8.22497 10.9353C8.2621 10.9353 8.29903 10.9331 8.33499 10.9284C8.31193 10.9949 8.28835 11.0609 8.26697 11.1288C8.24443 11.2006 8.22891 11.271 8.21639 11.3408C8.21569 11.3409 8.21494 11.3407 8.21424 11.3408C8.06869 11.3767 7.81889 11.3248 7.69135 11.2901C7.74549 11.1548 7.80455 11.0208 7.86788 10.8892ZM8.09199 10.4434C8.11735 10.3942 8.14233 10.3455 8.16718 10.2968C8.25253 10.3174 8.42082 10.356 8.53866 10.3706C8.52183 10.4156 8.50524 10.4603 8.48799 10.5063C8.46193 10.5754 8.43577 10.6466 8.40957 10.7174C8.39738 10.7164 8.38486 10.7174 8.37253 10.7213C8.25633 10.7572 8.07474 10.7327 7.95713 10.7082C8.00213 10.6186 8.04741 10.53 8.09199 10.4434ZM8.4031 9.80348C8.47369 9.8302 8.58671 9.86578 8.7008 9.86578C8.70436 9.86578 8.70764 9.86423 8.71125 9.86419C8.68172 9.96675 8.64624 10.0725 8.60785 10.1803C8.55324 10.1797 8.39307 10.1478 8.25783 10.1165C8.31038 10.0103 8.35899 9.90605 8.4031 9.80348ZM8.53861 9.42867C8.59407 9.43256 8.64544 9.43514 8.6888 9.43514C8.7316 9.43514 8.76568 9.43233 8.79666 9.42853C8.78982 9.5047 8.77894 9.582 8.76211 9.66098C8.68768 9.68302 8.56603 9.65447 8.47594 9.62114C8.49999 9.55603 8.52094 9.49186 8.53861 9.42867ZM7.61747 12.187C7.8053 12.187 8.06803 12.1656 8.24949 12.0813C8.27494 12.1741 8.30705 12.2616 8.34361 12.3429C8.00667 12.577 7.63027 12.6309 7.4971 12.642C7.48247 12.5609 7.47188 12.477 7.46682 12.3895C7.46288 12.3211 7.4655 12.2523 7.46949 12.1835C7.50764 12.1853 7.55785 12.187 7.61747 12.187ZM8.43483 12.5178C8.48546 12.6038 8.53936 12.6808 8.5935 12.7453C8.51011 12.8558 8.21611 13.1937 7.70958 13.2486C7.64203 13.1227 7.58508 12.9848 7.54261 12.8352C7.71352 12.8184 8.08655 12.7523 8.43483 12.5178ZM8.76933 9.01467C8.78686 9.08564 8.79694 9.15783 8.80064 9.23109C8.77575 9.23906 8.68271 9.23981 8.58225 9.23456C8.59032 9.18422 8.59491 9.13477 8.59697 9.08602C8.6551 9.066 8.71294 9.04205 8.76933 9.01467ZM7.44868 14.4697C7.42327 14.4778 7.40208 14.4957 7.39018 14.5195C7.38211 14.5356 7.21603 14.8584 6.77775 14.7953C6.93277 14.6932 7.07475 14.5213 7.07475 14.2584C7.07475 14.2439 7.07157 14.2296 7.06528 14.2165C7.05886 14.203 6.42094 12.8422 6.33343 11.6251C6.32972 11.574 6.28735 11.5344 6.23611 11.5342H6.2356C6.18464 11.5342 6.14213 11.5732 6.13791 11.6241C6.1125 11.9302 6.01111 12.2776 5.90602 12.2863C5.86735 12.2903 5.77683 12.2612 5.74285 12.2053C5.71753 12.1637 5.72803 12.1057 5.77374 12.0332C5.95214 11.7497 6.05953 11.5155 6.00385 11.2926C5.95725 11.1059 5.73928 10.615 5.44163 10.6753L5.364 10.6929C5.11102 10.7529 5.04591 10.7401 5.0145 10.6257C5.00668 10.5971 5.01094 10.5739 5.02805 10.5501C5.07094 10.4904 5.18077 10.4456 5.30147 10.4387C5.52788 10.4265 5.61816 10.523 5.6206 10.5258C5.6505 10.5621 5.70146 10.5718 5.74257 10.5501C5.78368 10.5281 5.80374 10.4801 5.79028 10.4355C5.78644 10.4229 5.69377 10.1282 5.2995 10.0802C5.211 10.0695 5.18968 10.0125 5.18728 9.96713C5.18344 9.89175 5.23111 9.80241 5.3175 9.78272C5.47252 9.74822 5.76178 9.87975 5.88713 10.3811C5.90025 10.434 5.95468 10.4644 6.006 10.4526C6.0586 10.4393 6.09052 10.3862 6.07739 10.3336C6.01322 10.077 5.90925 9.90108 5.793 9.78253C5.79497 9.77892 5.79807 9.7762 5.79966 9.77222C5.84668 9.65269 5.94347 9.62789 6.01346 9.642C6.08025 9.65606 6.15024 9.71302 6.14588 9.83072C6.13374 10.1556 6.39052 10.6564 6.52416 10.84C6.62527 10.979 6.65072 11.1294 6.68578 11.3377C6.70149 11.4307 6.71874 11.5323 6.7448 11.646C6.87483 12.212 7.21664 12.5549 7.29699 12.6294C7.40311 13.3101 7.78655 13.7854 8.13811 14.0879C7.98671 14.1954 7.68568 14.3957 7.44868 14.4697ZM8.32003 13.9794C8.43324 13.8903 8.63274 13.7273 8.79994 13.5644C8.78588 13.7554 8.77557 13.9652 8.77463 14.2035C8.77453 14.2313 8.77219 14.2579 8.77135 14.2853C8.67446 14.2333 8.50646 14.1334 8.32003 13.9794ZM14.3777 13.3258L14.5485 12.82C14.7155 12.8793 14.8729 12.9472 15.0209 13.0214L14.6947 13.4768C14.591 13.416 14.4853 13.3658 14.3777 13.3258ZM14.1901 13.2678C14.0985 13.2442 14.0058 13.227 13.912 13.2179L13.9755 12.6645C13.9983 12.6688 14.0216 12.6712 14.0443 12.676C14.1539 12.6997 14.259 12.7283 14.3618 12.7594L14.1901 13.2678ZM13.7155 13.2096C13.6187 13.2105 13.5209 13.2192 13.4222 13.2349L13.3683 12.6152C13.5069 12.6134 13.6452 12.6192 13.7814 12.6345L13.7155 13.2096ZM13.1722 12.6233L13.2287 13.2743C13.1275 13.3 13.0253 13.3346 12.9226 13.3755L12.7495 12.6694C12.8883 12.6481 13.0295 12.6322 13.1722 12.6233ZM12.8704 14.5073C12.7917 14.4796 12.718 14.442 12.6483 14.4004L12.9989 13.7349C13.0071 13.7443 13.016 13.7523 13.0228 13.7638C13.0577 13.8225 13.0629 13.8999 13.0384 13.9939C13.0058 14.1188 12.9473 14.3028 12.8704 14.5073ZM12.4358 13.8552C12.5572 13.7742 12.6907 13.6966 12.833 13.6291L12.4849 14.2899C12.3509 14.1862 12.2471 14.078 12.1883 14.0105C12.2701 13.9617 12.3527 13.9105 12.4358 13.8552ZM12.5557 12.7024L12.7403 13.4558C12.6457 13.5014 12.5505 13.5533 12.4549 13.6117L12.1709 12.7877C12.2936 12.7563 12.423 12.7277 12.5557 12.7024ZM11.9812 12.839L12.2805 13.7073C12.2819 13.7112 12.2857 13.713 12.2875 13.7165C12.1679 13.7947 12.0496 13.8647 11.9334 13.9291L11.6434 12.9448C11.7467 12.9098 11.8594 12.8739 11.9812 12.839ZM11.458 13.01L11.7561 14.022C11.7563 14.0226 11.7571 14.023 11.7572 14.0236C11.627 14.0903 11.5022 14.1492 11.3873 14.199L11.0631 13.1868C11.0672 13.1798 11.0717 13.1707 11.0758 13.1641C11.1296 13.1399 11.2654 13.0808 11.458 13.01ZM10.9383 13.4395L11.2058 14.2743C11.0016 14.3553 10.8421 14.4069 10.7628 14.4306C10.7118 14.1061 10.8184 13.722 10.9383 13.4395ZM10.8805 15.2335C10.9469 15.0739 10.9273 14.8772 10.8205 14.6331C10.8186 14.6288 10.8166 14.6244 10.8149 14.6198C10.9794 14.5717 11.4608 14.4146 12.0147 14.1089C12.1136 14.2287 12.4064 14.5488 12.7988 14.6893C12.576 15.2343 12.2433 15.8453 11.9081 15.8995C11.6272 15.944 11.4751 15.7764 11.3282 15.6132C11.2002 15.4712 11.0547 15.3103 10.8483 15.4191C10.8323 15.4276 10.8202 15.4385 10.8061 15.4482C10.7902 15.4388 10.7681 15.4274 10.7421 15.4155C10.7984 15.3663 10.8491 15.3091 10.8805 15.2335ZM14.2009 13.9045C14.2297 14.083 14.345 14.2373 14.5438 14.3632C14.6599 14.4365 14.7198 14.5171 14.7219 14.603C14.7242 14.6947 14.6644 14.7901 14.5966 14.8675C14.5872 14.8484 14.5759 14.8326 14.5642 14.8198C14.4391 14.6809 14.167 14.7435 14.1136 14.7575C14.1001 14.7608 14.0874 14.7675 14.0766 14.7761C13.9761 14.8578 13.0901 15.5844 12.9537 15.8911C12.9026 16.006 12.8586 16.1253 12.9276 16.2109C12.9995 16.3003 13.137 16.2903 13.3822 16.2395C13.4032 16.2351 13.4184 16.2338 13.4287 16.2338C13.4404 16.2338 13.4461 16.2338 13.4461 16.2352C13.4544 16.2492 13.46 16.3281 13.3805 16.5074C13.3661 16.5398 13.3296 16.5569 13.2929 16.5495C13.0313 16.4954 12.5294 16.433 12.1113 16.6266C11.8915 16.7285 11.7364 16.7359 11.5569 16.7446C11.3916 16.7525 11.2044 16.7617 10.9455 16.8457C10.8859 16.8648 10.6881 16.9213 10.6519 16.8273C10.6216 16.7483 10.6806 16.6102 10.7431 16.5696C11.129 16.5846 11.2863 16.5848 11.2863 16.5848C11.3405 16.5848 11.3844 16.5408 11.3844 16.4867C11.3844 16.4325 11.3405 16.3886 11.2863 16.3886C11.2847 16.3886 11.122 16.3886 10.7182 16.3723C10.6485 16.3695 10.5276 16.3526 10.5016 16.2704C10.4821 16.2093 10.5164 16.1212 10.5779 16.0742C10.6313 16.0328 10.8112 16.0783 10.987 16.1542C11.0429 16.1894 11.1009 16.2177 11.1572 16.2364C11.205 16.2535 11.2577 16.2292 11.278 16.1827C11.2985 16.1362 11.2801 16.0822 11.2356 16.0576C11.2007 16.0382 11.1438 16.0083 11.0751 15.9777C10.961 15.9003 10.8706 15.7895 10.8635 15.7029C10.861 15.6718 10.8672 15.6309 10.9397 15.5928C11.0027 15.5599 11.0478 15.5956 11.1825 15.7448C11.3389 15.9182 11.5525 16.1537 11.9394 16.0932C12.6929 15.9711 13.2232 14.0626 13.2281 14.0434C13.2663 13.897 13.2541 13.7693 13.1915 13.6639C13.1553 13.6029 13.1088 13.5633 13.0644 13.533C13.4344 13.3999 13.8514 13.3544 14.2796 13.5027C14.2306 13.5926 14.1742 13.7385 14.2009 13.9045ZM14.8599 13.5829L15.1952 13.1148C15.3174 13.1834 15.4321 13.2554 15.5399 13.3298L15.1097 13.7743C15.0763 13.7483 15.0439 13.7259 15.01 13.6979C14.9605 13.6569 14.9105 13.6186 14.8599 13.5829ZM15.7006 14.1566L16.1313 13.8134C16.2143 13.8936 16.29 13.9719 16.3568 14.0458L16.0085 14.2933C15.9106 14.2568 15.8079 14.2115 15.7006 14.1566ZM15.5133 14.0551C15.433 14.0074 15.3507 13.954 15.2664 13.8945L15.7007 13.4457C15.8028 13.5229 15.8985 13.601 15.9858 13.6786L15.5133 14.0551ZM16.2419 14.3681L16.4855 14.1949C16.5653 14.2913 16.6299 14.3766 16.6765 14.4423C16.5553 14.4352 16.4076 14.4125 16.2419 14.3681ZM18.2775 11.0403C18.1042 12.2005 17.1744 12.5851 16.8976 12.6748C16.6649 12.1513 16.2791 11.7109 16.0223 11.5778C15.9746 11.5533 15.9152 11.5719 15.8902 11.6197C15.8653 11.668 15.8841 11.727 15.9322 11.7521C16.1278 11.8535 16.5239 12.2659 16.7526 12.8295C16.9995 13.4376 17.3941 13.7824 17.9255 13.8544C18.0324 13.8687 18.1058 13.9121 18.1502 13.9868C18.2153 14.0966 18.2121 14.2616 18.1882 14.4066C18.0631 14.3272 17.8593 14.3017 17.7484 14.3867C17.6792 14.4396 17.6594 14.5236 17.6953 14.6114C17.7195 14.6709 17.7308 14.8844 17.7416 15.091C17.7729 15.6889 17.8126 16.1591 18.009 16.3182C18.0657 16.3642 18.1341 16.383 18.2047 16.371C18.5923 16.3097 18.7338 16.392 18.8262 16.5347C18.8318 16.5434 18.8489 16.5697 18.803 16.6185C18.7333 16.6921 18.587 16.7353 18.4886 16.6796C18.2566 16.5467 18.0938 16.6027 17.8245 16.6954C17.7773 16.7115 17.7258 16.7291 17.6689 16.7478C17.4015 16.8341 17.1257 16.7912 16.9038 16.7565C16.8387 16.7465 16.7794 16.7373 16.7277 16.7325C16.6013 16.7205 16.4861 16.7833 16.3747 16.8443C16.2397 16.9182 16.1123 16.9889 15.9621 16.9432C15.8924 16.9222 15.8697 16.8873 15.8586 16.8625C15.8257 16.7888 15.85 16.6819 15.8735 16.6139C15.9576 16.599 16.0332 16.6018 16.1165 16.6104C16.2365 16.6224 16.3731 16.6368 16.5453 16.5734C16.5961 16.5548 16.6221 16.4983 16.6034 16.4475C16.5846 16.3966 16.5285 16.3714 16.4773 16.3895C16.3479 16.4367 16.2496 16.4273 16.1366 16.4153C16.0336 16.4048 15.9173 16.3931 15.7777 16.4302C15.7563 16.4358 15.7242 16.4391 15.6995 16.3992C15.6671 16.3471 15.6685 16.2508 15.7349 16.1758C15.786 16.1178 15.885 16.1196 15.9764 16.139C16.0276 16.1676 16.0927 16.191 16.1768 16.2071C16.2248 16.2173 16.2725 16.1885 16.2882 16.1423C16.3039 16.0958 16.283 16.0449 16.2392 16.023C16.2318 16.0194 16.1547 15.9816 16.0518 15.9555C15.9977 15.9162 15.9784 15.8608 15.9494 15.7778L15.9276 15.7168C15.9145 15.682 15.8978 15.6558 15.8796 15.6359C15.9267 15.6154 15.9728 15.6062 16.0176 15.609C16.1185 15.6159 16.2086 15.6844 16.2855 15.8129C16.54 16.2368 16.9621 16.2417 16.98 16.2417C17.0207 16.2417 17.0573 16.2164 17.0716 16.1783C17.3888 15.3401 16.9648 14.5298 16.9465 14.4956C16.9462 14.4951 16.9457 14.4947 16.9454 14.4942C16.9451 14.4937 16.9453 14.4932 16.945 14.4928C16.9073 14.4277 16.0022 12.8976 14.0858 12.4846C12.7053 12.1861 11.0371 12.9651 10.9667 12.9985C10.9501 13.0061 10.9362 13.0184 10.9262 13.0337C10.7278 13.3404 10.3969 14.1543 10.6408 14.7118C10.7239 14.9018 10.7438 15.052 10.6996 15.1585C10.67 15.2298 10.6122 15.287 10.5141 15.3398C10.5009 15.2173 10.4586 15.0577 10.3325 14.9882C10.2091 14.9208 10.0487 14.9583 9.85542 15.1003C9.39788 15.4367 8.7451 16.2312 8.80463 16.5752C8.81916 16.6597 8.87218 16.7198 8.95364 16.7443C9.03244 16.7678 9.12947 16.7879 9.23166 16.8089C9.43364 16.8505 9.67196 16.8993 9.77766 16.9868C9.49238 16.9503 8.93972 16.8998 8.72124 17.0223C8.46357 17.1674 8.0206 17.2598 7.71221 17.1482C7.60008 17.1015 7.34907 17.0645 7.2031 17.2621C7.14868 17.336 7.06327 17.3561 7.0081 17.3375C6.94402 17.3166 6.93057 17.2499 6.93057 17.1978C6.93057 16.9703 7.14957 16.9527 7.2166 16.9527C7.27074 16.9527 7.31466 16.9088 7.31466 16.8546C7.31466 16.8005 7.27074 16.7565 7.2166 16.7565C7.06641 16.7565 6.9428 16.8055 6.858 16.8887C6.77963 16.8478 6.72896 16.7993 6.71058 16.7435C6.68546 16.6671 6.72155 16.5879 6.74546 16.5476C6.79088 16.4704 6.87127 16.4295 6.92049 16.4096C7.03186 16.5142 7.16138 16.5891 7.22639 16.6176C7.27542 16.6388 7.3335 16.6165 7.35558 16.567C7.37728 16.5174 7.35455 16.4595 7.305 16.4378C7.17371 16.3803 6.93352 16.2031 6.92218 16.0545C6.91796 16 6.96816 15.9586 7.02 15.9457C7.05741 15.9362 7.15163 15.9288 7.20839 16.0598C7.35178 16.3916 7.8181 16.625 7.83793 16.6347C7.85175 16.6416 7.86652 16.6448 7.88133 16.6448C7.90524 16.6448 7.92872 16.6362 7.94724 16.6195C7.98872 16.5817 8.96546 15.6797 8.97113 14.2041C8.9745 13.312 9.09853 12.7556 9.14461 12.5786C9.31796 12.5702 9.76107 12.5169 10.159 12.2117C10.2742 12.4158 10.5665 12.8119 11.1045 12.8254C11.1053 12.8254 11.1061 12.8254 11.1069 12.8254C11.1421 12.8254 11.1747 12.8063 11.1922 12.7756C11.2101 12.744 11.2091 12.7051 11.1897 12.6747C11.1878 12.6717 11.0371 12.4306 11.0715 12.2227C11.1951 12.342 11.4202 12.5033 11.741 12.5148H11.741H11.7411C11.7422 12.5148 11.7434 12.5148 11.7445 12.5148C11.7615 12.5148 11.7767 12.5093 11.7908 12.5015C11.7971 12.498 11.8028 12.4952 11.8081 12.4902C11.8207 12.4793 11.8298 12.4654 11.8356 12.4493C11.8361 12.4478 11.8377 12.4471 11.8381 12.4455C11.8395 12.4412 11.9752 12.014 12.3625 11.814C12.6098 11.686 12.9081 11.6781 13.2502 11.7908C13.2586 11.7935 13.2671 11.7934 13.2756 11.7938C13.2775 11.794 13.2789 11.7957 13.2809 11.7957C13.2824 11.7957 13.2839 11.7952 13.2854 11.7951C13.2879 11.795 13.2903 11.7944 13.2929 11.7941C13.2972 11.7936 13.3015 11.7936 13.3059 11.7924C13.3089 11.7916 13.3111 11.7895 13.3139 11.7885C13.3204 11.7861 13.3262 11.7832 13.332 11.7795C13.3372 11.7763 13.3419 11.773 13.3463 11.769C13.3509 11.7647 13.3547 11.76 13.3585 11.755C13.3624 11.7499 13.3656 11.7448 13.3684 11.739C13.3697 11.7364 13.3718 11.7345 13.3729 11.7316C13.3859 11.6959 13.5888 11.1663 14.0946 10.8537C14.0964 10.854 14.0978 10.8552 14.0997 10.8553C14.1118 10.8566 15.3203 10.9904 15.9892 11.317C16.1931 11.4166 16.442 11.4659 16.6883 11.4659C16.9664 11.4659 17.2411 11.403 17.4432 11.2792C17.6638 11.1442 17.7825 10.95 17.7864 10.7187C17.7944 10.2442 17.5024 9.87895 17.2235 9.77658C17.0486 9.7125 16.8801 9.75103 16.7736 9.88102C16.6411 10.0424 16.6489 10.2516 16.7923 10.3785C16.941 10.5103 17.2158 10.5312 17.4908 10.2881C17.5229 10.3505 17.5486 10.4195 17.566 10.4931C17.2559 10.7075 16.9666 10.7789 16.7303 10.6993C16.506 10.6237 16.3722 10.4293 16.3216 10.2727C16.2819 10.1499 16.3043 9.99717 16.3827 9.85416C16.493 9.65287 16.694 9.50147 16.9341 9.43894C17.1844 9.37331 17.5949 9.42975 17.9049 9.70809C18.1347 9.91481 18.3861 10.3134 18.2775 11.0403ZM17.3795 10.1239C17.1869 10.3053 17.0095 10.3094 16.922 10.2317C16.8576 10.1748 16.8588 10.0859 16.9249 10.0057C16.9641 9.95798 17.0126 9.94186 17.0598 9.94186C17.0938 9.94186 17.1271 9.9503 17.1557 9.96075C17.2333 9.98934 17.3113 10.0461 17.3795 10.1239Z" fill="#464655"/>
</svg>
