<svg xmlns="http://www.w3.org/2000/svg" width="24" height="24" viewBox="0 0 24 24" fill="none"><rect width="24" height="24" fill="none"/>
<path d="M1.79742 19.862H22.2026C23.1952 19.862 24 19.0573 24 18.0646V14.6207H0V18.0646C0 19.0573 0.804703 19.862 1.79742 19.862Z" fill="#73AF00"/>
<path d="M24 5.93536C24 4.94269 23.1953 4.13794 22.2026 4.13794H1.79742C0.804703 4.13794 0 4.94264 0 5.93536V9.37931H24V5.93536Z" fill="#FF4B55"/>
<path d="M24 9.37921H0V14.6203H24V9.37921Z" fill="#FFE15A"/>
<path d="M11.4655 9.65419C11.4655 9.65419 11.4549 9.6675 11.4349 9.69249C11.4183 9.71555 11.3933 9.75099 11.366 9.79814C11.3123 9.89185 11.256 10.0371 11.2545 10.2103C11.2539 10.2947 11.2713 10.3972 11.3001 10.4787C11.3313 10.5687 11.3831 10.6548 11.4486 10.7317C11.5142 10.8092 11.6018 10.869 11.6955 10.9132C11.742 10.9368 11.793 10.9503 11.8435 10.9628C11.8686 10.9704 11.8953 10.9708 11.9211 10.9759C11.934 10.9783 11.9474 10.9772 11.9605 10.9783L11.9803 10.9792L11.9902 10.9797L11.9951 10.98L11.9976 10.9801L11.9988 10.9801C11.9948 10.9803 12.0094 10.98 11.9902 10.9805C12.0222 10.9786 12.0611 10.9784 12.0876 10.9751C12.1106 10.9697 12.13 10.9707 12.1565 10.9628C12.2071 10.9504 12.258 10.9368 12.3045 10.9133C12.3982 10.8691 12.4858 10.8093 12.5514 10.7317C12.6169 10.6548 12.6687 10.5688 12.6999 10.4788C12.7298 10.3872 12.7458 10.2996 12.7455 10.2099C12.7441 10.0375 12.6877 9.89171 12.634 9.7981C12.6069 9.75113 12.5819 9.71546 12.564 9.69141C12.5454 9.66774 12.5355 9.65503 12.5355 9.65503L12.5331 9.65189C12.5152 9.62911 12.5192 9.59625 12.542 9.57839C12.56 9.56433 12.5844 9.56391 12.6025 9.57553C12.6025 9.57553 12.6178 9.58533 12.6465 9.60366C12.6735 9.624 12.7155 9.65274 12.7608 9.69924C12.8516 9.78914 12.9694 9.94927 13.0119 10.182C13.033 10.2933 13.0353 10.428 13.0063 10.5605C12.9781 10.6943 12.9211 10.8326 12.829 10.9536C12.7385 11.0752 12.617 11.1827 12.4725 11.2553C12.4012 11.2933 12.3236 11.3209 12.244 11.3401C12.2058 11.3513 12.1574 11.3559 12.1143 11.3627C12.0739 11.3672 12.0451 11.3673 12.0099 11.3698L11.9962 11.3698L11.9924 11.3696L11.9847 11.3693L11.9693 11.3685L11.9385 11.3668C11.9181 11.3652 11.8975 11.3655 11.8772 11.3619C11.8367 11.3548 11.7956 11.3515 11.7561 11.3401C11.6765 11.3209 11.5989 11.2933 11.5276 11.2553C11.3831 11.1827 11.2616 11.0752 11.1711 10.9536C11.079 10.8325 11.022 10.6942 10.9938 10.5605C10.9637 10.418 10.9675 10.2982 10.9882 10.1815C11.0306 9.94955 11.1486 9.78886 11.2393 9.69914C11.2844 9.65283 11.3265 9.62382 11.3548 9.60253C11.382 9.58547 11.3965 9.57633 11.3965 9.57633C11.4212 9.56086 11.4537 9.56827 11.4692 9.59292C11.4814 9.61252 11.4791 9.63713 11.4655 9.65419Z" fill="#73AF00"/>
<path d="M11.896 13.775V14.4299C11.896 14.4952 11.817 14.5279 11.7709 14.4817L11.7348 14.4457C11.7049 14.4157 11.688 14.3752 11.688 14.3328V13.775H11.896Z" fill="#FF4B55"/>
<path d="M11.584 13.671V14.1463C11.584 14.1749 11.5954 14.2023 11.6156 14.2225L11.688 14.2949V13.671H11.584V13.671Z" fill="#FFE15A"/>
<path d="M11.4801 13.671V13.9261C11.4801 13.9625 11.4945 13.9974 11.5202 14.0231L11.584 14.0869V13.671H11.4801Z" fill="#73AF00"/>
<path d="M12.104 13.775V14.4299C12.104 14.4952 12.183 14.5279 12.2292 14.4817L12.2652 14.4457C12.2952 14.4157 12.312 14.3752 12.312 14.3328V13.775H12.104Z" fill="#FF4B55"/>
<path d="M12.416 13.671V14.1463C12.416 14.1749 12.4046 14.2023 12.3844 14.2225L12.312 14.2949V13.671H12.416V13.671Z" fill="#FFE15A"/>
<path d="M12.52 13.671V13.9261C12.52 13.9625 12.5055 13.9974 12.4798 14.0231L12.416 14.0869V13.671H12.52Z" fill="#73AF00"/>
<path d="M12.52 11.7991L13.6639 10.9672V12.678C13.6639 13.169 13.2659 13.5669 12.7749 13.5669C12.6083 13.5669 12.4451 13.5201 12.3038 13.4319L11.6881 13.047V11.7847L12.52 11.7991Z" fill="#FF4B55"/>
<path d="M13.2479 11.2697V12.47C13.2479 12.961 12.8499 13.3589 12.359 13.3589C12.2851 13.3589 12.2124 13.3483 12.1415 13.3303L11.688 13.0469V11.7846L12.52 11.799L13.2479 11.2697Z" fill="#FFE15A"/>
<path d="M12.936 11.4966V12.2715C12.936 12.7624 12.5379 13.1604 12.047 13.1604C11.9732 13.1604 11.9004 13.1498 11.8295 13.1318L11.688 13.0434V11.7846L12.52 11.7991L12.936 11.4966Z" fill="#73AF00"/>
<path d="M13.7262 10.78L14.1839 10.5513L13.8511 10.9672H13.6639L13.7262 10.78Z" fill="#F5F5F5"/>
<path d="M13.1439 12.3191L14.2878 11.4871V13.198C14.2878 13.6889 13.8898 14.0869 13.3989 14.0869C13.2323 14.0869 13.069 14.0401 12.9277 13.9518L12.312 13.567V12.3046L13.1439 12.3191Z" fill="#FF4B55"/>
<path d="M13.5599 12.0165V12.7914C13.5599 13.2824 13.1619 13.6803 12.671 13.6803C12.5971 13.6803 12.5244 13.6697 12.4535 13.6517L12.312 13.5633V12.3047L13.1439 12.3191L13.5599 12.0165Z" fill="#73AF00"/>
<path d="M14.3502 11.2999L14.8078 11.0711L14.475 11.4871H14.2878L14.3502 11.2999Z" fill="#F5F5F5"/>
<path d="M12.8319 12.1111L13.9758 11.2791V12.99C13.9758 13.481 13.5778 13.8789 13.0869 13.8789C12.9203 13.8789 12.757 13.8321 12.6157 13.7438L12 13.359V12.0966L12.8319 12.1111Z" fill="#FF4B55"/>
<path d="M13.5599 11.5817V12.782C13.5599 13.273 13.1619 13.6709 12.671 13.6709C12.5971 13.6709 12.5244 13.6603 12.4535 13.6423L12 13.359V12.0966L12.8319 12.1111L13.5599 11.5817Z" fill="#FFE15A"/>
<path d="M13.2479 11.8085V12.5834C13.2479 13.0744 12.8499 13.4724 12.359 13.4724C12.2851 13.4724 12.2124 13.4617 12.1415 13.4438L12 13.3554V12.0966L12.8319 12.1111L13.2479 11.8085Z" fill="#73AF00"/>
<path d="M14.0382 11.092L14.4958 10.8632L14.163 11.2791H13.9759L14.0382 11.092Z" fill="#F5F5F5"/>
<path d="M11.4801 11.7991L10.3362 10.9672V12.678C10.3362 13.169 10.7342 13.5669 11.2251 13.5669C11.3917 13.5669 11.555 13.5201 11.6962 13.4319L12.3119 13.047V11.7847L11.4801 11.7991Z" fill="#FF4B55"/>
<path d="M10.7521 11.2697V12.47C10.7521 12.961 11.1501 13.3589 11.641 13.3589C11.7149 13.3589 11.7876 13.3483 11.8585 13.3303L12.3119 13.0469V11.7846L11.48 11.799L10.7521 11.2697Z" fill="#FFE15A"/>
<path d="M11.0641 11.4966V12.2715C11.0641 12.7624 11.4621 13.1604 11.953 13.1604C12.0269 13.1604 12.0996 13.1498 12.1705 13.1318L12.312 13.0434V11.7846L11.4801 11.7991L11.0641 11.4966Z" fill="#73AF00"/>
<path d="M10.2738 10.78L9.81619 10.5513L10.149 10.9672H10.3361L10.2738 10.78Z" fill="#F5F5F5"/>
<path d="M10.8561 12.3191L9.71222 11.4871V13.198C9.71222 13.6889 10.1102 14.0869 10.6012 14.0869C10.7678 14.0869 10.931 14.0401 11.0723 13.9518L11.688 13.567V12.3046L10.8561 12.3191Z" fill="#FF4B55"/>
<path d="M10.4401 12.0165V12.7914C10.4401 13.2824 10.8382 13.6803 11.3291 13.6803C11.4029 13.6803 11.4757 13.6697 11.5466 13.6517L11.688 13.5633V12.3047L10.8561 12.3191L10.4401 12.0165Z" fill="#73AF00"/>
<path d="M9.64984 11.2999L9.19229 11.0711L9.52506 11.4871H9.71218L9.64984 11.2999Z" fill="#F5F5F5"/>
<path d="M11.1681 12.1111L10.0242 11.2791V12.99C10.0242 13.481 10.4222 13.8789 10.9131 13.8789C11.0797 13.8789 11.243 13.8321 11.3842 13.7438L12 13.359V12.0966L11.1681 12.1111Z" fill="#FF4B55"/>
<path d="M10.4401 11.5817V12.782C10.4401 13.273 10.8382 13.6709 11.3291 13.6709C11.4029 13.6709 11.4757 13.6603 11.5466 13.6423L12 13.3589V12.0966L11.1681 12.111L10.4401 11.5817Z" fill="#FFE15A"/>
<path d="M10.7521 11.8085V12.5834C10.7521 13.0744 11.1501 13.4724 11.641 13.4724C11.7149 13.4724 11.7876 13.4617 11.8585 13.4438L12 13.3554V12.0966L11.1681 12.111L10.7521 11.8085Z" fill="#73AF00"/>
<path d="M10.6381 13.6572L10.501 13.5201C10.4179 13.437 10.4201 13.3015 10.506 13.2211L12.7755 11.0885L13.0697 11.3826L10.9371 13.6522C10.8568 13.7381 10.7213 13.7404 10.6381 13.6572Z" fill="#FFBE5A"/>
<path d="M10.5698 13.6929C10.6272 13.6929 10.6737 13.6463 10.6737 13.5889C10.6737 13.5315 10.6272 13.485 10.5698 13.485C10.5123 13.485 10.4658 13.5315 10.4658 13.5889C10.4658 13.6463 10.5123 13.6929 10.5698 13.6929Z" fill="#FFBE5A"/>
<path d="M12.9963 11.1623C12.9151 11.0811 12.8163 11.0482 12.7757 11.0888C12.7351 11.1294 12.768 11.2282 12.8492 11.3094C12.9304 11.3906 13.0292 11.4235 13.0698 11.3829C13.1104 11.3423 13.0775 11.2435 12.9963 11.1623Z" fill="#F5F5F5"/>
<path d="M13.3619 13.6572L13.499 13.5201C13.5821 13.437 13.5799 13.3015 13.494 13.2211L11.2245 11.0885L10.9303 11.3826L13.0629 13.6522C13.1433 13.7381 13.2787 13.7404 13.3619 13.6572Z" fill="#FFBE5A"/>
<path d="M13.43 13.6929C13.4875 13.6929 13.534 13.6463 13.534 13.5889C13.534 13.5315 13.4875 13.485 13.43 13.485C13.3726 13.485 13.3261 13.5315 13.3261 13.5889C13.3261 13.6463 13.3726 13.6929 13.43 13.6929Z" fill="#FFBE5A"/>
<path d="M11.1512 11.3095C11.2324 11.2283 11.2653 11.1296 11.2247 11.089C11.1841 11.0484 11.0854 11.0813 11.0042 11.1625C10.923 11.2437 10.89 11.3424 10.9306 11.383C10.9713 11.4236 11.07 11.3907 11.1512 11.3095Z" fill="#F5F5F5"/>
<path d="M12 13.5672C12.5078 13.5672 12.9195 13.0783 12.9195 12.4753C12.9195 11.8722 12.5078 11.3834 12 11.3834C11.4922 11.3834 11.0805 11.8722 11.0805 12.4753C11.0805 13.0783 11.4922 13.5672 12 13.5672Z" fill="#FFBE5A"/>
<path d="M12 11.4871L12.0488 11.6989L12.1607 11.5126L12.1416 11.7291L12.3056 11.5864L12.2206 11.7865L12.4207 11.7015L12.278 11.8654L12.4945 11.8464L12.3081 11.9583L12.52 12.0071L12.3081 12.0559L12.4945 12.1678L12.278 12.1488L12.4207 12.3127L12.2206 12.2277L12.3056 12.4278L12.1416 12.2851L12.1607 12.5016L12.0488 12.3153L12 12.527L11.9512 12.3153L11.8394 12.5016L11.8584 12.2851L11.6944 12.4278L11.7794 12.2277L11.5794 12.3127L11.722 12.1488L11.5055 12.1678L11.6919 12.0559L11.4801 12.0071L11.6919 11.9583L11.5055 11.8464L11.722 11.8654L11.5794 11.7015L11.7794 11.7865L11.6944 11.5864L11.8584 11.7291L11.8394 11.5126L11.9512 11.6989L12 11.4871Z" fill="#FF4B55"/>
<path d="M13.1504 12.4555C13.1504 12.4555 12.8059 12.5465 12.5817 12.358C12.3325 12.1486 12.1457 12.0496 12.0656 12.0125C12.0382 11.9998 12.0075 11.9998 11.9801 12.0125C11.9227 12.039 11.8171 12.0939 11.7238 12.1761C11.5873 12.2964 11.1681 12.5335 11.0836 12.5335V13.0505L11.7433 13.6222L12.5232 13.5994L13.1504 12.4555Z" fill="#73AF00"/>
<path d="M12 13.8269C11.3406 13.8269 10.8041 13.2205 10.8041 12.475C10.8041 11.7296 11.3405 11.1232 12 11.1232C12.6595 11.1232 13.1959 11.7296 13.1959 12.475C13.1959 13.2205 12.6594 13.8269 12 13.8269ZM12 11.4351C11.5126 11.4351 11.1161 11.9017 11.1161 12.475C11.1161 13.0484 11.5126 13.515 12 13.515C12.4874 13.515 12.8839 13.0484 12.8839 12.475C12.8839 11.9017 12.4874 11.4351 12 11.4351Z" fill="#3CC8FF"/>
<path d="M11.8209 13.5442L11.8438 13.6129L11.9162 13.6135C11.9256 13.6135 11.9295 13.6255 11.922 13.631L11.8637 13.6741L11.8856 13.7431C11.8884 13.7521 11.8782 13.7595 11.8706 13.754L11.8117 13.7119L11.7527 13.754C11.7452 13.7594 11.7349 13.752 11.7377 13.7431L11.7596 13.6741L11.7014 13.631C11.6938 13.6255 11.6977 13.6135 11.7071 13.6135L11.7795 13.6129L11.8024 13.5442C11.8054 13.5353 11.8179 13.5353 11.8209 13.5442Z" fill="#FFBE5A"/>
<path d="M11.4958 13.4044L11.5187 13.4731L11.5911 13.4737C11.6005 13.4737 11.6043 13.4857 11.5968 13.4912L11.5386 13.5343L11.5605 13.6033C11.5633 13.6123 11.5531 13.6197 11.5455 13.6142L11.4865 13.5721L11.4276 13.6142C11.42 13.6196 11.4098 13.6122 11.4126 13.6033L11.4345 13.5343L11.3762 13.4912C11.3687 13.4857 11.3726 13.4737 11.382 13.4737L11.4544 13.4731L11.4773 13.4044C11.4803 13.3955 11.4929 13.3955 11.4958 13.4044Z" fill="#FFBE5A"/>
<path d="M11.2347 13.1672L11.2577 13.2359L11.3301 13.2365C11.3395 13.2365 11.3433 13.2485 11.3358 13.254L11.2776 13.2971L11.2994 13.3661C11.3023 13.3751 11.2921 13.3825 11.2844 13.377L11.2255 13.3349L11.1666 13.377C11.159 13.3824 11.1488 13.375 11.1516 13.3661L11.1734 13.2971L11.1152 13.254C11.1077 13.2485 11.1115 13.2365 11.1209 13.2365L11.1933 13.2359L11.2163 13.1672C11.2192 13.1583 11.2318 13.1583 11.2347 13.1672Z" fill="#FFBE5A"/>
<path d="M11.0567 12.8514L11.0796 12.9201L11.152 12.9207C11.1614 12.9207 11.1653 12.9327 11.1578 12.9383L11.0995 12.9813L11.1214 13.0503C11.1242 13.0593 11.114 13.0667 11.1064 13.0612L11.0475 13.0191L10.9885 13.0612C10.9809 13.0666 10.9707 13.0592 10.9735 13.0503L10.9954 12.9813L10.9372 12.9383C10.9296 12.9327 10.9335 12.9207 10.9429 12.9207L11.0153 12.9201L11.0382 12.8514C11.0412 12.8425 11.0537 12.8425 11.0567 12.8514Z" fill="#FFBE5A"/>
<path d="M10.9781 12.4843L11.001 12.553L11.0734 12.5536C11.0828 12.5536 11.0866 12.5656 11.0791 12.5712L11.0209 12.6142L11.0428 12.6832C11.0456 12.6922 11.0354 12.6996 11.0278 12.6941L10.9688 12.652L10.9099 12.6941C10.9023 12.6995 10.8921 12.6921 10.8949 12.6832L10.9168 12.6142L10.8585 12.5712C10.851 12.5656 10.8549 12.5536 10.8643 12.5536L10.9367 12.553L10.9596 12.4843C10.9625 12.4754 10.9751 12.4754 10.9781 12.4843Z" fill="#FFBE5A"/>
<path d="M12.1787 13.5442L12.1558 13.6129L12.0834 13.6135C12.074 13.6135 12.0702 13.6255 12.0777 13.631L12.1359 13.6741L12.1141 13.7431C12.1112 13.7521 12.1214 13.7595 12.1291 13.754L12.188 13.7119L12.2469 13.754C12.2545 13.7594 12.2647 13.752 12.2619 13.7431L12.2401 13.6741L12.2983 13.631C12.3058 13.6255 12.3019 13.6135 12.2926 13.6135L12.2201 13.6129L12.1972 13.5442C12.1943 13.5353 12.1817 13.5353 12.1787 13.5442Z" fill="#FFBE5A"/>
<path d="M12.5039 13.4044L12.4809 13.4731L12.4085 13.4737C12.3991 13.4737 12.3953 13.4857 12.4028 13.4912L12.461 13.5343L12.4392 13.6033C12.4363 13.6123 12.4465 13.6197 12.4542 13.6142L12.5131 13.5721L12.572 13.6142C12.5796 13.6196 12.5898 13.6122 12.587 13.6033L12.5652 13.5343L12.6234 13.4912C12.6309 13.4857 12.6271 13.4737 12.6177 13.4737L12.5453 13.4731L12.5223 13.4044C12.5194 13.3955 12.5068 13.3955 12.5039 13.4044Z" fill="#FFBE5A"/>
<path d="M12.7649 13.1672L12.742 13.2359L12.6696 13.2365C12.6602 13.2365 12.6564 13.2485 12.6639 13.254L12.7221 13.2971L12.7002 13.3661C12.6974 13.3751 12.7076 13.3825 12.7152 13.377L12.7742 13.3349L12.8331 13.377C12.8407 13.3824 12.8509 13.375 12.8481 13.3661L12.8262 13.2971L12.8845 13.254C12.892 13.2485 12.8881 13.2365 12.8787 13.2365L12.8063 13.2359L12.7834 13.1672C12.7805 13.1583 12.7679 13.1583 12.7649 13.1672Z" fill="#FFBE5A"/>
<path d="M12.9429 12.8514L12.92 12.9201L12.8476 12.9207C12.8382 12.9207 12.8344 12.9327 12.8419 12.9383L12.9001 12.9813L12.8783 13.0503C12.8754 13.0593 12.8856 13.0667 12.8933 13.0612L12.9522 13.0191L13.0111 13.0612C13.0187 13.0666 13.0289 13.0592 13.0261 13.0503L13.0043 12.9813L13.0625 12.9383C13.07 12.9327 13.0661 12.9207 13.0568 12.9207L12.9843 12.9201L12.9614 12.8514C12.9585 12.8425 12.9459 12.8425 12.9429 12.8514Z" fill="#FFBE5A"/>
<path d="M13.0215 12.4842L12.9986 12.5529L12.9262 12.5535C12.9168 12.5535 12.9129 12.5655 12.9205 12.571L12.9787 12.6141L12.9568 12.6831C12.954 12.6921 12.9642 12.6995 12.9718 12.694L13.0308 12.6519L13.0897 12.694C13.0973 12.6994 13.1075 12.692 13.1047 12.6831L13.0828 12.6141L13.141 12.571C13.1486 12.5655 13.1447 12.5535 13.1353 12.5535L13.0629 12.5529L13.04 12.4842C13.0371 12.4753 13.0245 12.4753 13.0215 12.4842Z" fill="#FFBE5A"/>
<path d="M11.5482 13.1418L11.5827 13.307H11.5976V13.1943C11.5976 13.1943 11.6222 13.2729 11.657 13.307H11.6851C11.6716 13.2897 11.6475 13.2538 11.6475 13.2167C11.6475 13.1656 11.6881 13.1586 11.6881 13.1039H11.723V13.307H11.7434L11.7812 13.126C11.7812 13.126 11.8123 13.2392 11.8709 13.307H11.897C11.8782 13.2794 11.8391 13.2081 11.8463 13.1004C11.8463 13.1004 11.9021 13.0725 11.9021 12.9969V12.8894C11.9021 12.8693 11.9185 12.8529 11.9386 12.8529H11.9637C11.9637 12.8529 11.9264 12.7805 11.8865 12.77V12.7247L11.8564 12.7701C11.8277 12.7763 11.8108 12.8028 11.8108 12.8312V12.8967C11.8108 12.9168 11.7945 12.9332 11.7743 12.9332H11.644C11.6054 12.9332 11.5436 12.9717 11.5436 13.0212C11.5436 13.0707 11.5807 13.1031 11.5807 13.1031L11.5482 13.1418Z" fill="#F5F5F5"/>
<path d="M12.1321 12.977H12.1202C12.0257 12.9821 11.9729 13.0443 11.9729 13.0443L12.0688 13.1402V13.3205H12.1835V13.1402L12.2793 13.0443C12.2794 13.0443 12.2266 12.9822 12.1321 12.977Z" fill="#FFBE5A"/>
<path d="M12.3684 12.6816H12.3338V13.3207H12.3684V12.6816Z" fill="#F5F5F5"/>
<path d="M12.3521 12.6767L12.1652 12.9026C12.1652 12.9026 12.1409 12.7937 12.2497 12.6865L12.0093 12.7304C12.0093 12.7304 12.0824 12.5939 12.2741 12.6085L12.0775 12.4444C12.0775 12.4444 12.2465 12.4347 12.3326 12.5614C12.3326 12.5614 12.3813 12.4152 12.5178 12.4087L12.4052 12.5798C12.4052 12.5798 12.5178 12.5224 12.6738 12.5728L12.4415 12.6346C12.4415 12.6346 12.5715 12.6475 12.6251 12.8377L12.4236 12.6996C12.4236 12.6996 12.4854 12.7727 12.4626 12.9157L12.3521 12.6767Z" fill="#F5F5F5"/>
<path d="M9.96184 11.092L9.5042 10.8632L9.83701 11.2791H10.0242L9.96184 11.092Z" fill="#F5F5F5"/>
<path d="M12.3254 10.8271L13.5599 10.4472L12.9045 10.2015C12.7878 10.1576 12.6641 10.1353 12.5394 10.1353H12.416C12.3586 10.1353 12.312 10.1818 12.312 10.2393V10.3432H12H11.688V10.2393C11.688 10.1818 11.6415 10.1353 11.5841 10.1353H11.4607C11.336 10.1353 11.2123 10.1577 11.0955 10.2015L10.4402 10.4472L11.6747 10.8271C11.7361 10.846 11.7659 10.9155 11.7372 10.973L11.5841 11.2791H12.416L12.2629 10.973C12.2341 10.9155 12.2639 10.846 12.3254 10.8271Z" fill="#825546"/>
<path d="M12 10.6549C12.1148 10.6549 12.2079 10.5619 12.2079 10.447C12.2079 10.3322 12.1148 10.2391 12 10.2391C11.8852 10.2391 11.7921 10.3322 11.7921 10.447C11.7921 10.5619 11.8852 10.6549 12 10.6549Z" fill="#F5F5F5"/>
<path d="M12.104 10.4472C12.104 10.5046 12.0575 10.5512 12 10.5512H11.5841L11.7616 10.3737C11.7811 10.3542 11.8075 10.3432 11.8351 10.3432H12C12.0575 10.3433 12.104 10.3898 12.104 10.4472Z" fill="#FFBE5A"/>
</svg>
