<svg xmlns="http://www.w3.org/2000/svg" width="24" height="24" viewBox="0 0 24 24" fill="none"><rect width="24" height="24" fill="none"/>
<path d="M0 18.0646C0 19.0573 0.804703 19.8621 1.79742 19.8621H22.2026C23.1952 19.8621 24 19.0574 24 18.0646V15.931H0V18.0646Z" fill="#FF4B55"/>
<path d="M22.2026 4.13794H1.79742C0.804703 4.13794 0 4.94264 0 5.93536V12H24V5.93536C24 4.94264 23.1953 4.13794 22.2026 4.13794Z" fill="#FFE15A"/>
<path d="M24 12H0V15.9309H24V12Z" fill="#41479B"/>
<path d="M11.5682 12.2322L14.5907 9.64148V13.3909C14.5907 14.0228 14.0784 14.535 13.4466 14.535C13.1639 14.535 12.8912 14.4304 12.6811 14.2413L11.5682 13.2397V12.2322Z" fill="#FFE15A"/>
<path d="M13.1625 13.7064L12.2879 12.9192V11.6154L13.8711 10.2584V11.2062V13.3909C13.8711 13.625 13.6806 13.8154 13.4466 13.8154C13.3415 13.8154 13.2406 13.7767 13.1625 13.7064Z" fill="#FF4B55"/>
<path d="M12.7196 11.2453V12.7274L13.4392 13.3772V11.1972V10.6286L13.8711 10.2585V11.2063V13.391C13.8711 13.6251 13.6806 13.8155 13.4466 13.8155C13.3415 13.8155 13.2406 13.7769 13.1625 13.7066L12.2879 12.9193V11.6155L12.7196 11.2453Z" fill="#41479B"/>
<path d="M12.4318 12.2322L9.40932 9.64148V13.3909C9.40932 14.0228 9.92161 14.535 10.5534 14.535C10.8361 14.535 11.1088 14.4304 11.3189 14.2413L12.4318 13.2397V12.2322Z" fill="#FFE15A"/>
<path d="M10.8375 13.7064L11.7121 12.9192V11.6154L10.1289 10.2584V11.2062V13.3909C10.1289 13.625 10.3194 13.8154 10.5534 13.8154C10.6585 13.8154 10.7594 13.7767 10.8375 13.7064Z" fill="#FF4B55"/>
<path d="M11.2804 11.2452V12.7272L10.5607 13.377V11.1971V10.6285L10.1289 10.2583V11.2062V13.3909C10.1289 13.625 10.3194 13.8154 10.5534 13.8154C10.6585 13.8154 10.7593 13.7767 10.8374 13.7064L11.7121 12.9192V11.6154L11.2804 11.2452Z" fill="#41479B"/>
<path d="M14.6931 9.65424H14.4862V10.894H14.6931V9.65424Z" fill="#41479B"/>
<path d="M9.51207 9.65439H9.30516V10.8942H9.51207V9.65439Z" fill="#41479B"/>
<path d="M11.5682 9.0658C11.5682 9.0658 11.856 7.69846 10.8486 7.87841C9.84107 8.05832 9.84107 8.34613 8.68964 8.9219C8.68964 8.9219 9.98503 9.20976 10.5607 9.06585C10.5607 9.06585 10.9925 9.64152 11.4243 9.78548H11.8561L11.5682 9.0658Z" fill="#5A4646"/>
<path d="M12.4318 9.06584C12.4318 9.06584 12.144 7.69849 13.1514 7.87844C14.1589 8.05835 14.1589 8.34616 15.3104 8.92193C15.3104 8.92193 14.015 9.20979 13.4393 9.06588C13.4393 9.06588 13.0075 9.64155 12.5757 9.78551H12.1439L12.4318 9.06584Z" fill="#5A4646"/>
<path d="M12.4318 9.78547H11.5682V9.0605C11.5682 8.82495 11.7592 8.63403 11.9947 8.63403H12.0053C12.2408 8.63403 12.4318 8.82495 12.4318 9.0605V9.78547H12.4318Z" fill="#5A4646"/>
<path d="M12 9.35349C12.159 9.35349 12.2879 9.22461 12.2879 9.06563C12.2879 8.90665 12.159 8.77777 12 8.77777C11.841 8.77777 11.7121 8.90665 11.7121 9.06563C11.7121 9.22461 11.841 9.35349 12 9.35349Z" fill="#E6E1CD"/>
<path d="M11.3823 8.87991L11.9235 9.16894C11.969 9.19322 12.0249 9.18488 12.0612 9.14846C12.1069 9.1028 12.1069 9.02883 12.0612 8.98313L11.7121 8.634H11.6281C11.4924 8.634 11.3823 8.74407 11.3823 8.87991Z" fill="#FFD0AF"/>
<path d="M11.57 8.92185H11.1365L11.3262 8.69975C11.3618 8.65803 11.4139 8.63403 11.4688 8.63403H11.7121V8.77972C11.7121 8.85819 11.6485 8.92185 11.57 8.92185Z" fill="#FFAF94"/>
<path d="M13.2275 9.78587C13.1303 9.67065 13.1096 9.51788 13.157 9.38551C13.2954 9.36132 13.4425 9.40759 13.5396 9.5229C13.6225 9.62138 13.6466 9.74659 13.6232 9.86377C13.652 9.91262 13.6871 9.97543 13.7258 10.0496C13.7277 10.039 13.7273 10.0286 13.7303 10.018C13.7642 9.89869 13.8589 9.81423 13.971 9.78563C14.0513 9.86898 14.0874 9.99062 14.0534 10.1099C14.0243 10.2126 13.9491 10.287 13.8575 10.3246C13.8936 10.4076 13.9294 10.497 13.9628 10.5914C13.9648 10.5858 13.9649 10.5802 13.9671 10.5747C14.014 10.4598 14.1174 10.3863 14.232 10.3703C14.3026 10.4619 14.3251 10.5868 14.2783 10.7017C14.2372 10.8022 14.1522 10.8684 14.0549 10.8948C14.105 11.0923 14.1381 11.3019 14.1381 11.5128H13.9942C13.9942 11.3289 13.966 11.1448 13.9234 10.9687C13.8345 10.9974 13.7353 10.9912 13.6494 10.9386C13.5446 10.8744 13.4893 10.7615 13.4918 10.6469C13.5928 10.5925 13.7185 10.5905 13.8233 10.6548C13.8271 10.6571 13.8296 10.6605 13.8333 10.6629C13.8024 10.5743 13.7696 10.4903 13.7359 10.4114C13.6495 10.4522 13.5478 10.4585 13.4546 10.4147C13.3433 10.3625 13.2759 10.2564 13.2658 10.1422C13.3599 10.0772 13.4841 10.0614 13.5951 10.1131C13.5554 10.0369 13.5197 9.97318 13.4916 9.92551C13.3925 9.91407 13.297 9.86841 13.2275 9.78587Z" fill="#8CB400"/>
<path d="M10.7725 9.78581C10.8696 9.67059 10.8904 9.51782 10.843 9.38545C10.7046 9.36126 10.5575 9.40752 10.4604 9.52284C10.3775 9.62132 10.3534 9.74652 10.3768 9.86371C10.348 9.91256 10.3129 9.97537 10.2742 10.0495C10.2723 10.039 10.2727 10.0285 10.2697 10.018C10.2358 9.89863 10.1411 9.81417 10.029 9.78557C9.9487 9.86892 9.9126 9.99056 9.94654 10.1099C9.9757 10.2125 10.0509 10.2869 10.1425 10.3246C10.1063 10.4075 10.0706 10.4969 10.0371 10.5913C10.0352 10.5858 10.0351 10.5801 10.0328 10.5747C9.98596 10.4598 9.88256 10.3863 9.76799 10.3702C9.6974 10.4618 9.6749 10.5867 9.72177 10.7016C9.76279 10.8021 9.84787 10.8684 9.94509 10.8948C9.89507 11.0923 9.86188 11.3018 9.86188 11.5127H10.0058C10.0058 11.3289 10.0341 11.1448 10.0767 10.9686C10.1655 10.9973 10.2647 10.9911 10.3506 10.9386C10.4555 10.8743 10.5107 10.7615 10.5081 10.6469C10.4072 10.5925 10.2815 10.5905 10.1767 10.6547C10.1729 10.6571 10.1704 10.6604 10.1667 10.6628C10.1976 10.5742 10.2304 10.4902 10.2641 10.4114C10.3505 10.4522 10.4521 10.4585 10.5454 10.4147C10.6567 10.3625 10.7241 10.2563 10.7341 10.1421C10.6401 10.0771 10.5158 10.0614 10.4049 10.113C10.4445 10.0369 10.4803 9.97312 10.5083 9.92545C10.6075 9.91401 10.703 9.86835 10.7725 9.78581Z" fill="#8CB400"/>
<path d="M12 12.9519L8.97751 10.3612V14.1106C8.97751 14.7425 9.4898 15.2547 10.1216 15.2547C10.4043 15.2547 10.677 15.1501 10.8871 14.961L12 13.9594V12.9519Z" fill="#FFE15A"/>
<path d="M10.4056 14.426L11.2803 13.6388V12.335L9.69713 10.978V11.9258V14.1105C9.69713 14.3446 9.88758 14.535 10.1216 14.535C10.2267 14.535 10.3276 14.4964 10.4056 14.426Z" fill="#FF4B55"/>
<path d="M10.8486 11.965V13.447L10.1289 14.0968V11.9169V11.3482L9.69713 10.9781V11.9259V14.1106C9.69713 14.3447 9.88758 14.5351 10.1216 14.5351C10.2267 14.5351 10.3276 14.4964 10.4056 14.4261L11.2803 13.6389V12.3351L10.8486 11.965Z" fill="#41479B"/>
<path d="M12 12.9519L15.0225 10.3612V14.1106C15.0225 14.7425 14.5102 15.2547 13.8784 15.2547C13.5957 15.2547 13.323 15.1501 13.113 14.961L12 13.9594V12.9519Z" fill="#FFE15A"/>
<path d="M13.5944 14.426L12.7197 13.6388V12.335L14.3029 10.978V11.9258V14.1105C14.3029 14.3446 14.1124 14.535 13.8784 14.535C13.7733 14.535 13.6724 14.4964 13.5944 14.426Z" fill="#FF4B55"/>
<path d="M13.1514 11.965V13.447L13.8711 14.0968V11.9169V11.3482L14.3029 10.9781V11.9259V14.1106C14.3029 14.3447 14.1124 14.5351 13.8784 14.5351C13.7733 14.5351 13.6724 14.4964 13.5944 14.4261L12.7197 13.6389V12.3351L13.1514 11.965Z" fill="#41479B"/>
<path d="M12 14.1033C12.7949 14.1033 13.4393 13.1366 13.4393 11.9442C13.4393 10.7518 12.7949 9.78516 12 9.78516C11.2051 9.78516 10.5607 10.7518 10.5607 11.9442C10.5607 13.1366 11.2051 14.1033 12 14.1033Z" fill="#69C3FF"/>
<path d="M10.7046 12.5201H13.2953L13.4392 11.9444L12.7833 12.0538C12.6517 12.0757 12.5172 12.0382 12.4159 11.9514L11.6713 11.3132C11.6048 11.2562 11.52 11.2248 11.4324 11.2248C11.335 11.2248 11.2416 11.2635 11.1728 11.3323L10.7046 11.8005V12.5201V12.5201Z" fill="#009B64"/>
<path d="M11.8635 11.8477L12.1107 11.6897L11.6713 11.3131C11.6047 11.2561 11.5199 11.2247 11.4323 11.2247C11.335 11.2247 11.2416 11.2634 11.1727 11.3322L10.7046 11.8004V11.9444L11.4242 11.8004L11.5514 11.864C11.6511 11.9139 11.7696 11.9076 11.8635 11.8477Z" fill="#F5F5F5"/>
<path d="M10.7046 12.5201L10.8486 13.3836L11.5682 14.1033H12L12.5757 13.9594L13.1514 13.3836L13.2953 12.5201H10.7046Z" fill="#5AA0E6"/>
<path d="M12 14.2472C11.127 14.2472 10.4168 13.2141 10.4168 11.9443C10.4168 10.6745 11.127 9.64145 12 9.64145C12.873 9.64145 13.5832 10.6745 13.5832 11.9443C13.5832 13.2141 12.873 14.2472 12 14.2472ZM12 9.9294C11.2858 9.9294 10.7046 10.8333 10.7046 11.9444C10.7046 13.0554 11.2857 13.9594 12 13.9594C12.7143 13.9594 13.2953 13.0554 13.2953 11.9444C13.2953 10.8333 12.7142 9.9294 12 9.9294Z" fill="#FFC88C"/>
<path d="M10.9846 14.0904C10.864 13.9238 10.6844 13.8155 10.4809 13.8155C10.2775 13.8155 10.0979 13.9238 9.9772 14.0904C10.183 14.1475 10.3514 14.3145 10.4311 14.5347C10.4632 14.6234 10.481 14.7207 10.481 14.823C10.4809 14.4669 10.696 14.1704 10.9846 14.0904Z" fill="#E1E1E1"/>
<path d="M10.5952 14.5442C10.5952 14.5442 10.5839 14.7361 10.4856 14.8261L10.4815 14.8227C10.3831 14.7328 10.3718 14.5409 10.3718 14.5409L10.5952 14.5442Z" fill="#E1E1E1"/>
<path d="M13.8 14.607H10.2C10.1607 14.607 10.1289 14.5752 10.1289 14.5359V14.5342C10.1289 14.4949 10.1608 14.4631 10.2 14.4631H13.8C13.8393 14.4631 13.8711 14.4949 13.8711 14.5342V14.5359C13.8711 14.5752 13.8393 14.607 13.8 14.607Z" fill="#966446"/>
<path d="M12.7231 14.8229H11.2768C11.1197 14.8229 10.9924 14.6956 10.9924 14.5386V14.5315C10.9924 14.3744 11.1197 14.2471 11.2768 14.2471H12.7231C12.8802 14.2471 13.0075 14.3744 13.0075 14.5315V14.5386C13.0075 14.6956 12.8802 14.8229 12.7231 14.8229Z" fill="#BE915A"/>
<path d="M10.7046 14.4631H10.2009C10.1612 14.4631 10.1289 14.4953 10.1289 14.5351C10.1289 14.5748 10.1611 14.607 10.2009 14.607H10.7046V14.4631Z" fill="#B9B9B9"/>
<path d="M12 14.8229V16.138L11.4243 15.9744L11.7121 14.8229H12Z" fill="#FF4B55"/>
<path d="M11.8561 14.8229L11.5682 15.8305L10.9925 15.6865L11.4243 14.8229H11.8561Z" fill="#41479B"/>
<path d="M11.2804 14.8229L10.8486 15.3987L11.2804 15.5426L11.5682 14.8229H11.2804Z" fill="#FFE15A"/>
<path d="M12 14.8229V16.138L12.5757 15.9744L12.2879 14.8229H12Z" fill="#FF4B55"/>
<path d="M12.144 14.8229L12.4318 15.8305L13.0075 15.6865L12.5757 14.8229H12.144Z" fill="#41479B"/>
<path d="M12.7196 14.8229L13.1514 15.3987L12.7196 15.5426L12.4318 14.8229H12.7196Z" fill="#FFE15A"/>
<path d="M9.08099 11.6007L8.87408 11.3922V10.361H9.08099V11.6007Z" fill="#41479B"/>
<path d="M15.124 11.3922L14.9171 11.6007V10.361H15.124V11.3922Z" fill="#41479B"/>
</svg>
