<svg xmlns="http://www.w3.org/2000/svg" width="24" height="24" viewBox="0 0 24 24" fill="none"><rect width="24" height="24" fill="none"/>
<path d="M22.2026 4.13788H1.79742C0.804703 4.13788 0 4.94258 0 5.9353V18.0647C0 19.0573 0.804703 19.8621 1.79742 19.8621H22.2026C23.1952 19.8621 24 19.0574 24 18.0647V5.9353C24 4.94258 23.1953 4.13788 22.2026 4.13788ZM7.4483 18.2069C7.4483 18.4354 7.263 18.6207 7.03448 18.6207H4.34484H1.65516C1.42664 18.6207 1.24134 18.4354 1.24134 18.2069V5.79303C1.24134 5.56452 1.42664 5.37922 1.65516 5.37922H4.34484H7.03448C7.263 5.37922 7.4483 5.56452 7.4483 5.79303V18.2069ZM22.7586 18.2069C22.7586 18.4354 22.5733 18.6207 22.3448 18.6207H9.10345C8.87494 18.6207 8.68964 18.4354 8.68964 18.2069V5.79303C8.68964 5.56452 8.87494 5.37922 9.10345 5.37922H22.3448C22.5734 5.37922 22.7587 5.56452 22.7587 5.79303V18.2068H22.7586V18.2069Z" fill="#FFD250"/>
<path d="M22.3448 5.37927H9.10345C8.87494 5.37927 8.68964 5.56457 8.68964 5.79308V18.2069C8.68964 18.4354 8.87494 18.6207 9.10345 18.6207H22.3448C22.5734 18.6207 22.7587 18.4354 22.7587 18.2069V5.79304C22.7586 5.56452 22.5734 5.37927 22.3448 5.37927Z" fill="#963C3C"/>
<path d="M1.65516 5.37927C1.42664 5.37927 1.24135 5.56457 1.24135 5.79308V18.2069C1.24135 18.4354 1.42664 18.6207 1.65516 18.6207H4.34485V5.37927H1.65516Z" fill="#5AA587"/>
<path d="M7.03448 5.37927H4.34484V18.6207H7.03448C7.263 18.6207 7.44829 18.4354 7.44829 18.2069V5.79304C7.44829 5.56452 7.263 5.37927 7.03448 5.37927Z" fill="#FF7350"/>
<path d="M18.4478 15.3154C18.4339 15.2229 18.5153 15.1035 18.6411 14.9319C18.6867 14.8699 18.7524 14.78 18.7701 14.737C18.7584 14.7361 18.7423 14.7371 18.7303 14.7377C18.6607 14.741 18.5554 14.7458 18.4633 14.6437C18.4273 14.6036 18.41 14.5536 18.4134 14.4989C18.4203 14.3877 18.511 14.2785 18.5673 14.2207C18.4221 14.1187 18.2834 14.0128 18.1555 13.885C17.9111 13.6405 17.6323 13.5228 17.3246 13.5293C17.2961 13.8354 17.4538 14.0367 17.6222 14.2487C17.6719 14.3111 17.7213 14.3734 17.7663 14.4385C17.9878 14.7591 17.9414 15.3783 17.9134 15.4438C17.8815 15.5182 17.7064 15.683 17.4662 15.6509C17.3557 15.6364 17.2285 15.6735 17.1484 15.7436C17.1139 15.7737 17.0728 15.8239 17.0728 15.8911C17.0728 15.8944 17.0731 15.9115 17.0783 15.9146C17.1106 15.9341 17.2312 15.896 17.3175 15.8494C17.3413 15.8364 17.3709 15.8403 17.391 15.8589C17.5608 16.0179 17.7313 15.8805 17.7501 15.8644C17.7734 15.8444 17.8078 15.8438 17.8315 15.8629C18.0053 16.0029 18.1865 15.8498 18.1941 15.8432C18.2154 15.8248 18.2467 15.8226 18.2704 15.8381C18.3458 15.8876 18.4148 15.9017 18.4763 15.8806C18.53 15.8619 18.5585 15.8215 18.5619 15.8118C18.5634 15.7861 18.5289 15.6536 18.506 15.5658C18.482 15.4737 18.4573 15.3785 18.4478 15.3154Z" fill="#FFD250"/>
<path d="M20.33 9.45281C20.2776 9.44882 20.2397 9.46017 20.2138 9.48585C20.1662 9.53287 20.1701 9.61757 20.1702 9.61842C20.1712 9.63726 20.1637 9.65563 20.15 9.66848C20.1361 9.68128 20.1175 9.68784 20.0987 9.68507C20.0046 9.67274 19.8653 9.57342 19.6071 9.38409C19.1967 9.08329 18.5764 8.6287 17.9847 8.55393C17.2968 8.46656 16.6847 8.68598 16.5292 9.07485C16.356 9.50779 16.7241 9.90224 16.7278 9.90623C16.7465 9.92606 16.7506 9.95563 16.7377 9.97968C16.6407 10.1625 16.7142 10.2974 16.7804 10.3713C16.8012 10.3103 16.8322 10.2686 16.875 10.243C16.9782 10.1813 17.113 10.2323 17.2994 10.3029C17.4096 10.3446 17.5344 10.3918 17.68 10.4275C18.0533 10.519 18.5086 10.4374 18.9104 10.3655C19.0524 10.34 19.1893 10.3156 19.3166 10.2993C19.637 10.2585 19.9582 10.4005 20.0465 10.623C20.0893 10.7309 20.1121 10.9472 19.7849 11.1852C19.1963 11.6133 16.5123 11.4157 16.3542 11.4037C16.3506 11.404 16.3472 11.4043 16.3398 11.4048C16.3985 11.4707 16.4673 11.535 16.4973 11.543C16.5279 11.5512 16.5478 11.5806 16.5439 11.6121C16.54 11.6435 16.5136 11.6672 16.4819 11.6677L16.207 11.6719L16.2323 11.9365C16.2341 11.956 16.2269 11.9753 16.2125 11.9886C16.1982 12.0021 16.1784 12.0077 16.1592 12.0051C16.1484 12.0034 15.9111 11.9654 15.747 11.8742L15.4365 12.0701C15.4263 12.0766 15.4145 12.0798 15.4026 12.0798C15.3957 12.0798 15.3888 12.0787 15.3822 12.0764C15.3641 12.0703 15.3497 12.0563 15.3431 12.0383L15.2246 11.7161L15.0841 11.9972C15.0738 12.0178 15.0532 12.0311 15.0304 12.0322C15.0076 12.0346 14.9858 12.0221 14.9736 12.0026L14.8531 11.8106C14.7981 11.8794 14.7097 11.9796 14.6194 12.0421C14.6029 12.0537 14.582 12.0565 14.5628 12.0501C14.5438 12.0435 14.5289 12.0284 14.5229 12.0092L14.4598 11.81C14.4039 11.8806 14.3232 11.9742 14.2377 12.0443C14.2194 12.0595 14.1941 12.063 14.1722 12.0535C14.1503 12.044 14.1357 12.0231 14.1342 11.9994L14.1139 11.6792C14.0416 11.716 13.9432 11.764 13.8887 11.781C13.8639 11.7888 13.8366 11.7805 13.8203 11.7601C13.8039 11.7397 13.8018 11.7115 13.8149 11.6888C13.9127 11.519 14.0024 11.3069 14.0093 11.2014C13.9444 11.2791 13.8536 11.3534 13.7521 11.4359C13.5362 11.6117 13.2676 11.8303 13.0698 12.2129C12.9317 12.4804 12.8325 12.9469 13.0074 13.3818C13.1567 13.7528 13.478 14.0296 13.9594 14.2075C13.9433 14.1372 13.9309 14.0683 13.9296 14.0034C13.9234 13.674 13.9918 13.3733 13.9947 13.3606C14.0026 13.3265 14.0365 13.3049 14.0707 13.3132C14.1049 13.321 14.1261 13.3551 14.1183 13.3891C14.1176 13.3921 14.0506 13.6878 14.0565 14.001C14.0594 14.1543 14.1254 14.3435 14.1891 14.5264C14.2738 14.7696 14.3614 15.021 14.3233 15.2326C14.2714 15.5203 13.9133 15.5932 13.5809 15.5377C13.4864 15.5218 13.4004 15.5452 13.3387 15.6028C13.276 15.6612 13.2439 15.7508 13.2527 15.8425C13.2569 15.8856 13.2731 15.8944 13.2783 15.8973C13.3183 15.9189 13.4124 15.8895 13.4632 15.8629C13.4888 15.8495 13.5205 15.855 13.5401 15.8769C13.6734 16.0262 13.8529 15.8772 13.8605 15.8707C13.8862 15.849 13.9246 15.8509 13.9478 15.8757C13.998 15.9292 14.0512 15.9558 14.1104 15.9572C14.2186 15.9638 14.3214 15.8674 14.3225 15.8666C14.3412 15.8483 14.3693 15.8436 14.393 15.8544C14.6022 15.9501 14.712 15.8945 14.7165 15.8919C14.898 15.7371 14.7931 15.3698 14.7921 15.3661C14.7871 15.3493 14.7893 15.3312 14.7981 15.3162C14.807 15.3011 14.8217 15.2903 14.8387 15.2864C15.093 15.2281 15.2351 15.0649 15.3038 14.9567C15.1782 14.9555 15.0784 14.9114 15.0195 14.8196C14.9249 14.6712 14.9703 14.4479 15.1355 14.2505C15.4181 13.9128 15.5909 13.2293 15.565 12.951C15.5618 12.9161 15.5874 12.8853 15.6223 12.8819C15.6562 12.8785 15.688 12.9044 15.6914 12.9393C15.714 13.1831 15.6041 13.6887 15.4034 14.07C15.6576 13.9997 15.8896 13.8968 16.1316 13.7864C16.3722 13.6766 16.621 13.5631 16.92 13.4694C17.4254 13.3112 17.8711 13.4209 18.2454 13.7953C18.4267 13.9766 18.6246 14.1093 18.8538 14.2632C18.9545 14.3308 19.0592 14.4011 19.1679 14.4794C19.4625 14.6914 19.4573 14.8685 19.4518 15.056C19.4501 15.1131 19.4483 15.1722 19.4547 15.2362C19.4851 15.5406 19.2431 15.5887 19.1267 15.6119C19.1107 15.615 19.0958 15.6179 19.0828 15.6212C19.0663 15.6253 19.0467 15.6293 19.0249 15.6337C18.9067 15.6577 18.7282 15.6939 18.6843 15.8452C18.6764 15.8723 18.6794 15.8818 18.6794 15.8818C18.6981 15.8902 18.7949 15.8683 18.8719 15.8333C18.8882 15.8258 18.9068 15.8257 18.9232 15.8327C18.9397 15.8398 18.9524 15.8534 18.9583 15.8704C18.9807 15.9362 19.0157 15.9474 19.0272 15.9512C19.1071 15.9761 19.2377 15.9026 19.2771 15.8746C19.3017 15.8573 19.3347 15.8592 19.3568 15.8795C19.4223 15.9393 19.4829 15.9656 19.5373 15.9583C19.6101 15.9481 19.6544 15.8796 19.6548 15.8788C19.6653 15.8619 19.6832 15.8508 19.703 15.849C19.7232 15.8479 19.7425 15.855 19.7559 15.8697C19.756 15.87 19.8115 15.9285 19.9251 15.9644C19.9996 15.9877 20.0184 15.9608 20.0245 15.9519C20.056 15.906 20.0447 15.7888 19.9833 15.7122C19.9029 15.6116 19.8655 15.4586 19.8882 15.3225C19.909 15.1972 19.9766 15.0951 20.0834 15.027C20.2793 14.9024 20.324 14.7681 20.3115 14.7425C20.3079 14.7407 20.2866 14.738 20.2696 14.7357C20.1822 14.7241 20.036 14.7048 19.8855 14.4271C19.7527 14.182 19.8812 13.7939 20.03 13.3444C20.1055 13.1167 20.1835 12.8812 20.2315 12.6502C20.3646 12.0112 19.9462 11.5038 19.942 11.4988C19.9204 11.473 19.9226 11.4348 19.9472 11.4118C20.2409 11.1362 20.3672 10.8808 20.3223 10.6526C20.2757 10.4147 20.0452 10.2483 19.8621 10.1782C19.634 10.0907 19.2176 10.1404 18.8148 10.1883C18.4783 10.2283 18.1602 10.2662 17.9548 10.2233C17.849 10.2011 17.7715 10.151 17.7245 10.0743C17.6858 10.0111 17.6763 9.9419 17.6766 9.8879C17.5746 9.92624 17.5057 10.0207 17.5049 10.0219C17.4933 10.0382 17.4745 10.048 17.4546 10.0484C17.4295 10.0474 17.4154 10.0397 17.4032 10.0239C17.3513 9.95681 17.3304 9.88284 17.3413 9.80385C17.3553 9.70176 17.4212 9.61396 17.4752 9.55734C17.2391 9.47442 17.0581 9.67232 17.0497 9.68174C17.0291 9.70462 16.9952 9.70945 16.9691 9.69374C16.8552 9.62371 16.7846 9.48627 16.789 9.34363C16.7933 9.20896 16.8628 9.09604 16.9796 9.03403C17.0596 8.99156 17.1364 8.98373 17.2075 9.01059C17.2752 9.03609 17.3227 9.08877 17.3526 9.13349C17.439 9.03496 17.4463 8.8649 17.4463 8.86293C17.4468 8.84592 17.4539 8.82984 17.4664 8.81826C17.4788 8.80668 17.496 8.79942 17.5124 8.80124C17.6625 8.80743 17.7792 8.86171 17.8589 8.96245C17.9678 9.10031 17.9781 9.29174 17.9717 9.41029C18.2116 9.28781 18.1812 9.0051 18.1797 8.99188C18.1771 8.97004 18.1859 8.94853 18.2031 8.93484C18.2202 8.92124 18.2429 8.91698 18.2639 8.92462C18.5185 9.01448 18.6111 9.24154 18.6329 9.41052C18.705 9.34171 18.7061 9.25345 18.7061 9.25232C18.7061 9.22335 18.7258 9.19804 18.7538 9.19087C18.7822 9.18379 18.8113 9.19649 18.8252 9.2219C18.9234 9.40143 19.0732 9.51323 19.1828 9.57571L19.1074 9.39276C19.0971 9.36796 19.1036 9.33942 19.1234 9.32146C19.1434 9.30346 19.1726 9.29999 19.1961 9.31274C19.3217 9.38038 19.4212 9.45693 19.5265 9.53807C19.6536 9.6359 19.7849 9.73696 19.97 9.82392C20.1507 9.9089 20.2726 9.89273 20.3427 9.86432C20.4154 9.83498 20.4569 9.78323 20.4704 9.74779C20.4959 9.68081 20.5034 9.58462 20.4624 9.52082C20.436 9.47967 20.3915 9.45684 20.33 9.45281Z" fill="#FFD250"/>
<path d="M12.8414 10.3648C12.8415 10.3648 12.8416 10.3649 12.8416 10.3649C12.8419 10.365 12.8421 10.365 12.8422 10.365C12.8469 10.3666 13.3212 10.5163 13.7518 10.5419C13.7754 10.5433 13.7964 10.5578 13.8059 10.5795C13.8155 10.6012 13.8123 10.6265 13.7975 10.645L13.7824 10.6637C13.8678 10.6509 13.9753 10.639 14.0806 10.6386C14.0375 10.5872 13.9837 10.5219 13.9286 10.4534C13.8134 10.4513 13.3921 10.433 13.0491 10.2677C12.9658 10.2273 12.8218 10.1576 12.7534 10.1929C12.7415 10.199 12.722 10.2275 12.7253 10.2627C12.7295 10.3072 12.7707 10.3435 12.8414 10.3648Z" fill="#FFD250"/>
<path d="M14.2704 9.448C14.2638 9.448 14.2578 9.4487 14.2525 9.45034C14.2249 9.45864 14.2108 9.4899 14.2071 9.51428C14.2025 9.5455 14.2104 9.58745 14.2467 9.61169C14.294 9.64314 14.3446 9.62162 14.3735 9.59317C14.3826 9.58431 14.4261 9.53776 14.3939 9.48686L14.3938 9.48672C14.3443 9.46389 14.3008 9.448 14.2704 9.448Z" fill="#FFD250"/>
<path d="M13.648 10.9772C13.6787 11.0504 13.7263 11.1072 13.7658 11.1452C13.7807 11.1128 13.8035 11.0792 13.8381 11.054C13.872 11.0294 13.9307 11.0053 14.0166 11.0232C14.018 11.0233 14.0192 11.0236 14.0205 11.0237C14.023 11.0243 14.0249 11.0241 14.0275 11.0247C14.0297 11.0252 14.0311 11.027 14.0333 11.0276C14.0363 11.0287 14.0396 11.0288 14.0425 11.0304C14.0447 11.0316 14.046 11.0336 14.048 11.035C14.0803 11.0488 14.1073 11.0709 14.1216 11.1044C14.1697 11.2165 14.0851 11.4342 14.0105 11.5891C14.0632 11.5629 14.1137 11.5365 14.141 11.5219C14.16 11.5117 14.183 11.5118 14.2018 11.5224C14.2207 11.5329 14.2329 11.5523 14.2343 11.5738L14.2522 11.8568C14.3514 11.7522 14.4295 11.6386 14.4305 11.6371C14.4442 11.6171 14.4679 11.607 14.4921 11.6102C14.5161 11.6138 14.536 11.6307 14.5433 11.6538L14.6157 11.8823C14.717 11.7892 14.8052 11.6644 14.8063 11.6628C14.8186 11.6455 14.8386 11.6363 14.8598 11.6359C14.881 11.6364 14.9006 11.6476 14.9119 11.6656L15.021 11.8396L15.1767 11.5283C15.188 11.5056 15.2093 11.4913 15.237 11.4932C15.2623 11.4946 15.2842 11.5109 15.293 11.5347L15.435 11.921L15.7123 11.7461C15.7333 11.7327 15.7599 11.7331 15.7809 11.7467C15.8713 11.8059 16.0102 11.8441 16.0978 11.8638L16.0741 11.6155C16.0725 11.5978 16.0783 11.5803 16.0901 11.5672C16.1019 11.554 16.1186 11.5463 16.1363 11.546L16.295 11.5436C16.2568 11.505 16.2253 11.4676 16.2098 11.4487C16.1995 11.4361 16.1954 11.4207 16.196 11.4056C16.0792 11.4007 15.9163 11.3798 15.7535 11.3095L15.6566 11.459C15.6473 11.4733 15.6328 11.4832 15.6162 11.4865C15.612 11.4875 15.6077 11.4879 15.6035 11.4879C15.591 11.4879 15.5787 11.4842 15.5681 11.4771L15.2017 11.2313L15.1344 11.4146C15.1267 11.4356 15.1084 11.451 15.0864 11.455C15.0643 11.4593 15.0418 11.4512 15.0271 11.4344C14.9641 11.3622 14.8653 11.2516 14.8065 11.1908C14.7535 11.2419 14.6606 11.3243 14.5613 11.3794C14.5451 11.3884 14.5258 11.3898 14.5085 11.3834C14.4912 11.377 14.4775 11.3634 14.471 11.3461L14.3705 11.0765C14.3584 11.0437 14.375 11.0071 14.4079 10.9949C14.4406 10.9827 14.4773 10.9995 14.4895 11.0322L14.5627 11.2289C14.669 11.155 14.7577 11.06 14.7588 11.0588C14.7815 11.0344 14.8191 11.0315 14.8449 11.0523C14.8819 11.0819 14.9821 11.1923 15.0521 11.2708L15.1105 11.1117C15.1171 11.0934 15.1319 11.0792 15.1505 11.0733C15.1688 11.067 15.1892 11.07 15.2054 11.0809L15.5853 11.3358L15.6772 11.1943C15.6949 11.167 15.7302 11.1575 15.7587 11.1721C15.9274 11.2564 16.1094 11.2768 16.2257 11.2799C16.1548 11.1473 16.1485 10.9793 16.1481 10.9399C16.0531 10.898 15.9365 10.8347 15.819 10.7382L15.7734 10.851C15.766 10.869 15.7508 10.8827 15.732 10.8881C15.7133 10.8933 15.693 10.8899 15.6773 10.8785L15.494 10.7455L15.4762 10.8829C15.4734 10.9042 15.4601 10.9226 15.4407 10.9319C15.4214 10.9411 15.3987 10.9402 15.3803 10.9289C15.3739 10.9251 15.2231 10.833 15.1333 10.7318C15.11 10.7057 15.1123 10.6656 15.1385 10.6423C15.1644 10.619 15.2046 10.6213 15.2281 10.6476C15.266 10.6903 15.3193 10.7327 15.3636 10.7649L15.382 10.6234C15.3849 10.6012 15.3993 10.5822 15.4198 10.5734C15.4405 10.5645 15.4642 10.5672 15.4822 10.5803L15.6862 10.7282L15.7351 10.6077C15.743 10.5884 15.7599 10.5741 15.7804 10.5697C15.8007 10.5653 15.8222 10.5711 15.8374 10.5855C15.9955 10.7343 16.1667 10.8146 16.2731 10.8541C16.2367 10.6847 16.2229 10.4724 16.2222 10.4612C16.2221 10.4596 16.2228 10.4583 16.2228 10.4567C16.1239 10.4022 15.9842 10.3083 15.8634 10.1607C15.8628 10.2389 15.8564 10.3185 15.8373 10.3687C15.8307 10.3861 15.8169 10.3996 15.7994 10.4059C15.7819 10.4119 15.7626 10.4103 15.7467 10.4013C15.7391 10.3969 15.601 10.3177 15.4983 10.2019C15.4805 10.2657 15.4592 10.3329 15.4413 10.3629C15.4241 10.3913 15.3883 10.4018 15.3585 10.387C15.3524 10.384 15.2552 10.3348 15.1686 10.2595C15.1602 10.344 15.1471 10.4394 15.1286 10.4859C15.1219 10.5028 15.1082 10.5159 15.0912 10.5221C15.074 10.5279 15.0552 10.5266 15.0393 10.5181C15.0335 10.5149 14.9234 10.4545 14.8206 10.378L14.7928 10.4838C14.7879 10.5019 14.7755 10.517 14.7586 10.525C14.7416 10.5329 14.7222 10.5331 14.7051 10.5254C14.6975 10.5219 14.5161 10.4385 14.4128 10.3123C14.3906 10.2852 14.3945 10.2452 14.4217 10.2231C14.4487 10.2009 14.4888 10.2048 14.5108 10.232C14.5603 10.2923 14.6358 10.3428 14.6903 10.3744L14.7229 10.2508C14.7285 10.2293 14.7449 10.2124 14.7662 10.2061C14.7873 10.1995 14.8103 10.2051 14.8268 10.22C14.8874 10.2748 14.9694 10.3288 15.0277 10.3645C15.0402 10.2862 15.0498 10.173 15.0539 10.0996C15.0555 10.0712 15.0757 10.0474 15.1033 10.0412C15.1313 10.035 15.1595 10.048 15.173 10.0729C15.2078 10.1371 15.2916 10.1997 15.3548 10.2392C15.3722 10.185 15.3935 10.1049 15.4096 10.0359C15.4158 10.0094 15.4381 9.98982 15.4652 9.98719C15.4923 9.98382 15.5181 9.99933 15.5292 10.0242C15.5688 10.112 15.6648 10.1922 15.7333 10.2413C15.7408 10.1489 15.7339 10.0174 15.7254 9.93521C15.7223 9.90465 15.7415 9.87624 15.7709 9.86771C15.8011 9.85955 15.8319 9.87314 15.8454 9.90061C15.973 10.1594 16.1986 10.3028 16.316 10.363C16.38 9.663 16.1748 9.39516 16.1726 9.39244C16.1611 9.378 16.1563 9.35907 16.1597 9.34093C16.1632 9.32283 16.1742 9.30689 16.1901 9.29761C16.3041 9.23166 16.3732 9.11119 16.4157 8.99429C16.1578 9.24432 15.7491 9.34036 15.5501 9.3736L15.6473 9.49205C15.6621 9.51015 15.6658 9.53494 15.6568 9.55655C15.6478 9.57816 15.6278 9.59307 15.6045 9.59536C15.3606 9.61974 15.1826 9.58744 15.0628 9.54704L15.1043 9.62358C15.1152 9.64365 15.1144 9.66811 15.1023 9.68743C15.0903 9.70683 15.0681 9.71991 15.0458 9.71714C14.8471 9.70866 14.6733 9.62677 14.5304 9.55444C14.5236 9.60108 14.5006 9.6465 14.4623 9.68396C14.4154 9.72975 14.3557 9.75343 14.2965 9.75343C14.2546 9.75343 14.213 9.74152 14.1765 9.71714C14.1048 9.66929 14.0685 9.5843 14.0818 9.49543C14.0942 9.41377 14.1457 9.34993 14.2164 9.32879C14.3109 9.30071 14.4189 9.35536 14.5554 9.42493C14.6638 9.48015 14.793 9.54591 14.9339 9.5754L14.8554 9.43036C14.8408 9.40336 14.8475 9.36985 14.8715 9.35058C14.8955 9.33165 14.9296 9.33216 14.9529 9.35236C14.9543 9.35358 15.1122 9.48329 15.4705 9.47658L15.3801 9.36643C15.3652 9.34833 15.3616 9.3234 15.3706 9.30179C15.3797 9.28018 15.3999 9.26527 15.4233 9.26307C15.4301 9.26246 15.9507 9.20963 16.2709 8.95158C16.1666 8.9821 16.0859 8.97727 16.0797 8.97718C16.0621 8.97577 16.0459 8.96719 16.035 8.95336C15.8883 8.769 15.7381 8.712 15.6624 8.69438C15.6199 8.82835 15.517 8.93677 15.512 8.94197C15.4984 8.95608 15.4789 8.96302 15.4596 8.9611C15.4401 8.95904 15.4227 8.94811 15.4123 8.93147C15.2991 8.74908 15.136 8.70113 15.0412 8.68927C15.0528 8.82408 14.9586 8.9348 14.8959 8.98088C14.8715 8.99855 14.8382 8.99696 14.816 8.97708C14.5438 8.73375 14.3336 8.80575 14.2485 8.85436C14.2754 8.92107 14.2627 8.97558 14.2445 9.01243C14.1146 9.27582 13.3105 9.32879 13.1506 9.33671C13.1308 9.33811 13.1109 9.32907 13.0981 9.31327C13.0853 9.29747 13.081 9.27661 13.0861 9.25707C13.0978 9.21319 13.09 9.1659 13.0641 9.12361C13.0377 9.08044 12.9953 9.04899 12.9509 9.03947C12.9091 9.03061 12.8294 9.03633 12.7817 9.0886C12.7272 9.14855 12.7235 9.25941 12.7709 9.40927C12.8561 9.67829 13.1183 9.94332 13.2816 10.0886C13.2801 10.0551 13.2811 10.0305 13.2815 10.0244C13.2829 9.99727 13.3013 9.97407 13.3274 9.96666C13.3535 9.95902 13.3813 9.96905 13.3969 9.99132C13.451 10.069 13.5155 10.1215 13.5639 10.1537L13.5958 9.95077C13.6002 9.92269 13.6228 9.90094 13.651 9.89761C13.679 9.89522 13.7062 9.91018 13.717 9.93652C13.7745 10.0761 14.1383 10.5131 14.2737 10.6697C14.291 10.6897 14.294 10.7183 14.2813 10.7416C14.2686 10.7647 14.2429 10.7772 14.2167 10.774C13.9848 10.7409 13.6442 10.8181 13.6408 10.8188C13.6145 10.8249 13.5873 10.8136 13.5729 10.7908C13.5586 10.7679 13.5603 10.7385 13.5772 10.7173L13.6241 10.6589C13.3022 10.6254 12.9888 10.5408 12.8621 10.5038L12.7557 10.793L13.0425 10.7644C13.0641 10.7617 13.0864 10.7717 13.0996 10.7896C13.113 10.8074 13.1159 10.8308 13.1075 10.8515L13.0534 10.9837L13.2897 10.9212C13.321 10.9125 13.3531 10.9292 13.365 10.9591C13.3963 11.0385 13.4347 11.0905 13.4653 11.1228L13.5319 10.9757C13.5424 10.9527 13.5653 10.9367 13.5906 10.9385C13.6156 10.9386 13.6382 10.9538 13.648 10.9772Z" fill="#FFD250"/>
<path d="M12.8265 14.2208C13.0767 14.3879 13.2789 14.1973 13.3869 14.0505C13.1564 13.8824 12.9886 13.6755 12.8896 13.4292C12.8572 13.3487 12.8361 13.2673 12.8197 13.1861C12.7962 13.1676 12.4481 12.892 12.1566 12.5697C12.1417 12.6086 12.1221 12.6394 12.1063 12.6603C12.1268 12.7436 12.1069 12.8116 12.0812 12.8552C12.0989 12.9146 12.0847 12.9735 12.0641 13.0165C12.1082 13.083 12.1162 13.1482 12.088 13.2108C12.0815 13.2252 12.0728 13.2384 12.0637 13.2514C12.1 13.2951 12.157 13.3954 12.157 13.597C12.157 13.7326 12.2072 13.814 12.2447 13.8558C12.2666 13.8369 12.2906 13.8262 12.3169 13.8234C12.3969 13.8145 12.4626 13.883 12.5525 13.9774C12.6229 14.0514 12.7104 14.1434 12.8265 14.2208Z" fill="#FFD250"/>
<path d="M11.5821 12.5012C11.5774 12.5012 11.5727 12.5011 11.568 12.5011C11.4768 12.5003 11.3934 12.4912 11.3166 12.4764C11.3091 12.4976 11.3249 12.5592 11.3414 12.5718C11.3575 12.5843 11.3683 12.6048 11.3678 12.6252C11.3672 12.6455 11.3585 12.6655 11.3416 12.677C11.3308 12.6846 11.2986 12.7134 11.2982 12.7414C11.2978 12.7688 11.3301 12.797 11.3494 12.8116C11.3635 12.8221 11.3726 12.8381 11.3744 12.8557C11.3762 12.8732 11.3707 12.8908 11.359 12.9041C11.3509 12.9137 11.3276 12.949 11.3316 12.9787C11.3324 12.985 11.3351 13.0041 11.3681 13.0266C11.3824 13.0363 11.3922 13.0515 11.3951 13.0686C11.3979 13.0857 11.3936 13.1032 11.3832 13.1171C11.3833 13.1171 11.3654 13.1431 11.3722 13.169C11.3798 13.1976 11.4156 13.2197 11.4441 13.2331C11.4974 13.2582 11.5743 13.2744 11.6544 13.2775C11.6568 13.2771 11.6593 13.2775 11.6618 13.2774C11.7293 13.2793 11.7986 13.2728 11.8578 13.2509C11.9159 13.2295 11.9544 13.1985 11.9724 13.1586C11.978 13.1462 11.9897 13.1204 11.9398 13.0622C11.9203 13.0393 11.9194 13.0061 11.9376 12.9823C11.9376 12.9821 11.9799 12.924 11.9539 12.8776C11.9399 12.8527 11.9442 12.8216 11.9643 12.8016C11.968 12.7975 12.0074 12.7511 11.9762 12.6679C11.9672 12.6439 11.9735 12.6169 11.9921 12.5994C11.9944 12.5971 12.0518 12.5374 12.0505 12.4466C12.0427 12.4371 12.035 12.4276 12.0274 12.4181C11.9046 12.4702 11.754 12.5012 11.5821 12.5012Z" fill="#FFD250"/>
<path d="M12.1623 8.07977C11.9058 8.21773 11.3588 8.65024 11.343 9.8343L11.3571 11.8297C11.3588 11.8325 11.3612 11.8354 11.3626 11.8381C11.3957 11.9005 11.3801 11.9815 11.3615 12.0375C11.52 12.0941 11.7176 12.0709 11.8023 12.0499C11.7854 12.0005 11.772 11.9206 11.8294 11.8301C11.8205 9.45054 12.0474 8.43823 12.1623 8.07977Z" fill="#FFD250"/>
<path d="M12.1887 12.0782C12.1887 11.9768 12.1122 11.8978 12.0366 11.8722C12.0209 11.8668 11.9676 11.852 11.9431 11.8841C11.8972 11.9441 11.9135 11.9865 11.9291 12.0275C11.9378 12.0504 11.9468 12.0739 11.9401 12.1008C11.9315 12.1352 11.9002 12.1493 11.8899 12.154C11.8038 12.193 11.4766 12.2442 11.2505 12.1275C11.2198 12.1116 11.2074 12.0742 11.2226 12.0431C11.2465 11.9942 11.2638 11.9224 11.2506 11.8975C11.2495 11.8954 11.2465 11.8898 11.2287 11.8874C11.2118 11.885 11.195 11.8839 11.1784 11.8839C11.1012 11.8839 11.0295 11.9082 10.9908 11.9496C10.9597 11.983 10.9499 12.0255 10.9611 12.0793C10.9987 12.2609 11.226 12.371 11.5691 12.3742C11.8118 12.3733 12.0206 12.316 12.1248 12.2127C12.1673 12.1707 12.1887 12.1255 12.1887 12.0782Z" fill="#FFD250"/>
<path d="M11.6427 13.5832C11.6574 13.5639 11.6816 13.5546 11.7055 13.5596C11.7496 13.5688 11.8592 13.592 11.9221 13.5432C11.9441 13.5264 11.9491 13.4804 11.9322 13.4504C11.9264 13.44 11.9088 13.4089 11.8428 13.4342C11.7802 13.4583 11.6905 13.4844 11.6341 13.4337C11.6228 13.4236 11.6157 13.4117 11.6102 13.3996C11.5933 13.3981 11.5764 13.3972 11.5597 13.3947C11.5543 13.4086 11.5469 13.4222 11.5341 13.4337C11.478 13.4843 11.3881 13.4583 11.3255 13.4342C11.2597 13.4092 11.2418 13.4401 11.2361 13.4504C11.2192 13.4804 11.2241 13.5264 11.246 13.5431C11.309 13.5917 11.4187 13.5687 11.4547 13.5611C11.4781 13.5564 11.5068 13.5645 11.5217 13.5837C11.5366 13.603 11.5429 13.6282 11.5319 13.65C11.5176 13.6785 11.4555 13.8 11.3948 13.8758C11.4741 13.9918 11.5428 14.1985 11.3819 14.3824C11.3688 14.3972 11.3484 14.4047 11.3295 14.4038C11.3097 14.4023 11.2916 14.3916 11.2809 14.3749C11.2717 14.361 11.2395 14.3225 11.2039 14.3156C11.1931 14.3135 11.1762 14.3127 11.1516 14.3294C11.135 14.3409 11.1257 14.3789 11.1397 14.4205C11.1647 14.4948 11.2425 14.5361 11.3523 14.531C11.3772 14.5285 11.4042 14.5456 11.4143 14.5708C11.4243 14.596 11.4172 14.6248 11.3966 14.6424L11.2932 14.7311L11.462 14.7722C11.4845 14.7777 11.5021 14.7949 11.5082 14.8171C11.5085 14.8182 11.5337 14.9081 11.5842 14.984C11.6346 14.9081 11.6599 14.8182 11.6601 14.8171C11.6662 14.7949 11.6839 14.7777 11.7063 14.7722L11.8751 14.7311L11.7716 14.6424C11.751 14.6248 11.744 14.596 11.7539 14.5708C11.7639 14.5457 11.7891 14.5287 11.816 14.531C11.9244 14.5358 12.0035 14.4948 12.0286 14.4204C12.0426 14.3789 12.0333 14.3409 12.0167 14.3294C11.9918 14.3125 11.9746 14.3134 11.964 14.3156C11.9272 14.3231 11.8942 14.3642 11.8874 14.3748C11.8766 14.3916 11.8586 14.4023 11.8388 14.4038C11.8182 14.4049 11.7994 14.3973 11.7863 14.3823C11.6255 14.1985 11.6943 13.9917 11.7735 13.8758C11.7128 13.7999 11.6507 13.6786 11.6364 13.6499C11.6255 13.6284 11.628 13.6024 11.6427 13.5832Z" fill="#FFD250"/>
<path d="M20.5691 9.45229C20.5352 9.39951 20.4676 9.33492 20.3382 9.32648C20.2483 9.32001 20.1762 9.3442 20.1237 9.39665C20.0815 9.4387 20.0612 9.49078 20.0515 9.53479C19.965 9.48928 19.8265 9.38784 19.682 9.2819C19.261 8.97337 18.6248 8.5071 18.0004 8.42812C17.494 8.36376 16.9179 8.46478 16.6012 8.75868C16.606 8.71982 16.6074 8.69381 16.6076 8.68935C16.6076 8.68851 16.6069 8.6879 16.6069 8.68701C16.607 8.67515 16.6037 8.66409 16.5977 8.6542C16.5964 8.65209 16.5951 8.65049 16.5935 8.64853C16.5865 8.63938 16.5777 8.63151 16.566 8.6272C16.5659 8.6271 16.5657 8.62682 16.5655 8.62678H16.5653C16.5533 8.6226 16.5413 8.62326 16.5298 8.62598C16.5276 8.62649 16.5257 8.62687 16.5235 8.62757C16.5125 8.63146 16.5027 8.63798 16.4952 8.64735C16.4947 8.64796 16.4938 8.64801 16.4933 8.64867C16.3618 8.82529 16.1813 8.84854 16.1147 8.85074C15.8772 8.5687 15.6262 8.55993 15.6153 8.5597C15.579 8.56209 15.5558 8.58224 15.5512 8.61379C15.5412 8.68078 15.5023 8.7471 15.4693 8.79313C15.26 8.53293 14.9654 8.55899 14.9522 8.56007C14.9318 8.56204 14.9138 8.57376 14.9035 8.59153C14.8934 8.6092 14.8923 8.63071 14.9008 8.64942C14.9385 8.73248 14.8928 8.80485 14.8562 8.84507C14.4442 8.51488 14.1271 8.7839 14.1238 8.78685C14.0996 8.80804 14.0951 8.84413 14.1134 8.87057C14.1441 8.9151 14.1387 8.93967 14.1305 8.95626C14.0639 9.09135 13.5802 9.17948 13.218 9.20535C13.2161 9.1544 13.2006 9.10368 13.1722 9.05718C13.1272 8.98382 13.0562 8.93217 12.9773 8.9152C12.8896 8.89612 12.7662 8.91627 12.6876 9.00309C12.5997 9.0997 12.5871 9.24918 12.6498 9.44742C12.7479 9.75712 13.0423 10.0485 13.214 10.1984C13.1722 10.183 13.1307 10.1661 13.0905 10.1468C12.9894 10.0976 12.8202 10.0152 12.6951 10.0802C12.632 10.1129 12.5916 10.1946 12.599 10.2744C12.6027 10.3144 12.625 10.4042 12.7421 10.4616L12.6013 10.8441C12.5938 10.8646 12.5973 10.8876 12.6107 10.9048C12.624 10.9221 12.6453 10.9315 12.6671 10.9291L12.9499 10.9009L12.8875 11.0534C12.8784 11.0757 12.8827 11.1013 12.8986 11.1193C12.9145 11.1373 12.9386 11.1453 12.9625 11.1387L13.2695 11.0574C13.3488 11.2203 13.4546 11.2773 13.4595 11.2799C13.4752 11.2881 13.4932 11.2894 13.5096 11.2837C13.5261 11.278 13.5396 11.2657 13.5468 11.2499L13.5957 11.1416C13.6464 11.2125 13.7012 11.2596 13.7351 11.2856C13.7145 11.3026 13.6941 11.3194 13.6718 11.3376C13.4586 11.511 13.1667 11.7487 12.9569 12.1548C12.8515 12.3588 12.7695 12.6699 12.794 13.0009C12.6412 12.8724 12.3531 12.6177 12.141 12.3569C12.1665 12.3395 12.1936 12.323 12.2142 12.3028C12.2805 12.2371 12.3155 12.1594 12.3155 12.0782C12.3155 11.9095 12.192 11.7908 12.0772 11.752C12.0345 11.7376 11.9934 11.7355 11.956 11.7419C11.9523 8.97721 12.2671 8.13084 12.3311 7.98829C12.3412 7.96574 12.3373 7.93931 12.321 7.92065C12.3048 7.90209 12.279 7.89454 12.2554 7.90153C12.2138 7.91371 11.2376 8.21868 11.2161 9.83399L11.2297 11.7611C11.0971 11.7472 10.9713 11.7848 10.8981 11.8631C10.8564 11.9076 10.8121 11.9857 10.8368 12.1052C10.8696 12.2638 10.9975 12.3809 11.1938 12.4452C11.1885 12.466 11.1866 12.4895 11.1893 12.5159C11.1923 12.5468 11.202 12.5852 11.2199 12.6184C11.1959 12.647 11.1724 12.6878 11.1712 12.7381C11.17 12.7866 11.1893 12.8321 11.2286 12.8737C11.2131 12.9051 11.1996 12.9474 11.2055 12.9943C11.2091 13.0222 11.2209 13.0593 11.254 13.0952C11.2447 13.1228 11.2389 13.159 11.2489 13.1988C11.259 13.2399 11.2846 13.2753 11.3225 13.3055C11.2254 13.2875 11.1571 13.3313 11.1252 13.3883C11.0772 13.4738 11.0967 13.5885 11.1685 13.6438C11.2271 13.6888 11.2967 13.7031 11.3601 13.6998C11.3278 13.7545 11.2937 13.805 11.2722 13.8218C11.2583 13.8326 11.2494 13.8487 11.2479 13.8663C11.2464 13.8839 11.2523 13.9013 11.2641 13.9145C11.2707 13.9218 11.409 14.0776 11.3267 14.2396C11.3012 14.2187 11.2683 14.1991 11.2291 14.1912C11.1781 14.1808 11.1266 14.1926 11.0797 14.2248C11.0127 14.2707 10.9878 14.3677 11.0192 14.4608C11.0432 14.5321 11.1032 14.6052 11.2055 14.6389L11.1165 14.7152C11.0984 14.7307 11.0906 14.755 11.0961 14.7781C11.1016 14.8012 11.1196 14.8193 11.1428 14.825L11.3972 14.887C11.4167 14.9429 11.4613 15.0509 11.5358 15.1253C11.5477 15.1372 11.5703 15.1439 11.5872 15.1439C11.604 15.1439 11.6201 15.1372 11.632 15.1253C11.7065 15.0509 11.7511 14.9429 11.7706 14.887L12.0251 14.825C12.0482 14.8193 12.0662 14.8013 12.0717 14.7781C12.0773 14.7549 12.0693 14.7307 12.0513 14.7152L11.9623 14.6389C12.0646 14.6051 12.1246 14.532 12.1486 14.4608C12.18 14.3677 12.1552 14.2706 12.0882 14.2248C12.0412 14.1925 11.9893 14.1809 11.9387 14.1912C11.8995 14.1991 11.8667 14.2186 11.8411 14.2395C11.7601 14.0784 11.8973 13.9216 11.904 13.9143C11.9157 13.9012 11.9215 13.8837 11.9199 13.8662C11.9183 13.8487 11.9095 13.8326 11.8957 13.8218C11.8743 13.8051 11.8403 13.7547 11.808 13.7C11.8714 13.7006 11.9406 13.689 11.9994 13.6437C12.0123 13.6338 12.0214 13.6202 12.0308 13.607C12.0353 13.8854 12.2118 13.9956 12.2194 14.0002C12.2495 14.0181 12.288 14.0086 12.3061 13.9788C12.3211 13.9544 12.33 13.9497 12.3298 13.9494C12.3521 13.9507 12.4147 14.0166 12.4605 14.0646C12.5351 14.1431 12.6281 14.2409 12.756 14.3262C12.8497 14.3887 12.9383 14.4133 13.0196 14.4133C13.248 14.4133 13.419 14.2206 13.492 14.1216C13.6343 14.2108 13.7955 14.2882 13.9793 14.3511C13.9856 14.3532 13.992 14.3541 13.9983 14.3542C14.0203 14.4254 14.0442 14.4971 14.069 14.5681C14.1483 14.7958 14.2304 15.0313 14.1981 15.2101C14.1564 15.4418 13.7898 15.4441 13.6014 15.4124C13.4674 15.3906 13.343 15.4249 13.2518 15.51C13.1605 15.5953 13.1135 15.7241 13.1262 15.8547C13.1351 15.946 13.1808 15.9889 13.2177 16.0088C13.3023 16.0544 13.4168 16.0203 13.479 15.9949C13.6218 16.1193 13.7926 16.0671 13.896 16.0013C13.9596 16.0544 14.0304 16.0823 14.1072 16.084C14.1097 16.0841 14.1122 16.0841 14.1148 16.0841C14.2307 16.0841 14.3283 16.023 14.3771 15.9857C14.6228 16.0851 14.7632 16.011 14.7878 15.9958C14.9873 15.8275 14.9545 15.5251 14.9285 15.3936C15.3384 15.2695 15.4705 14.9132 15.4762 14.8974C15.4841 14.8752 15.4791 14.8504 15.4632 14.833C15.4471 14.8157 15.4225 14.8087 15.4 14.8148C15.2736 14.8487 15.1738 14.8256 15.1263 14.7512C15.0619 14.6506 15.1036 14.4859 15.2326 14.3318C15.2596 14.2995 15.2852 14.2637 15.3103 14.2265C15.627 14.1556 15.8976 14.0324 16.1841 13.9018C16.4212 13.7937 16.6664 13.6819 16.9579 13.5905C17.0396 13.5649 17.119 13.5498 17.1973 13.5397C17.1736 13.8833 17.3498 14.1097 17.523 14.3275C17.5708 14.3876 17.6186 14.4477 17.6619 14.5104C17.8475 14.7792 17.8119 15.3428 17.7968 15.3937C17.7837 15.4226 17.6593 15.5493 17.4829 15.5251C17.3364 15.5056 17.1724 15.5539 17.0648 15.648C16.9882 15.7151 16.9459 15.8015 16.9459 15.891C16.9459 15.9673 16.9826 16.0052 17.0134 16.0236C17.1053 16.0781 17.2573 16.0198 17.3388 15.9808C17.4149 16.0396 17.4931 16.0613 17.5653 16.0613C17.6552 16.0613 17.736 16.0278 17.7926 15.9907C17.9627 16.0981 18.1408 16.0352 18.2401 15.9675C18.3645 16.035 18.4645 16.0216 18.5289 15.9963C18.5499 15.9881 18.569 15.9777 18.5864 15.9659C18.589 15.9686 18.5913 15.9722 18.594 15.9744C18.6615 16.0325 18.7863 16.0016 18.8663 15.9726C18.9026 16.0328 18.9507 16.0599 18.9887 16.072C19.1062 16.1094 19.2411 16.0451 19.3089 16.0049C19.3913 16.0686 19.4731 16.0953 19.5548 16.0838C19.6269 16.0739 19.6813 16.0351 19.7163 16.0012C19.7537 16.0281 19.8104 16.0611 19.887 16.0853C19.9208 16.0961 19.9505 16.1004 19.9766 16.1004C20.065 16.1004 20.1111 16.05 20.1292 16.0237C20.2026 15.9166 20.1643 15.7353 20.0824 15.6329C20.0341 15.5725 19.994 15.4595 20.0133 15.3434C20.0237 15.2814 20.0559 15.1949 20.1515 15.1341C20.3238 15.0245 20.4368 14.8761 20.4395 14.7561C20.4406 14.7066 20.4218 14.6657 20.3864 14.6409C20.3551 14.619 20.3201 14.6144 20.2862 14.6099C20.2107 14.6 20.1167 14.5875 19.9971 14.3666C19.8905 14.1697 20.0167 13.7882 20.1505 13.3843C20.227 13.1531 20.3062 12.9141 20.3558 12.6761C20.4785 12.0869 20.1826 11.6122 20.0755 11.4644C20.3734 11.1714 20.4983 10.8902 20.4469 10.6281C20.3903 10.3392 20.121 10.1414 19.9077 10.0597C19.6498 9.96084 19.2177 10.0122 18.7999 10.0623C18.474 10.1013 18.166 10.1383 17.981 10.0991C17.911 10.0844 17.8613 10.0541 17.8332 10.0087C17.7843 9.92981 17.8105 9.82612 17.8107 9.82504C17.8158 9.80563 17.8114 9.78473 17.7988 9.76912C17.7862 9.75351 17.7653 9.74353 17.7469 9.74545C17.6253 9.75032 17.5285 9.81806 17.4687 9.87398C17.4652 9.85696 17.4646 9.83948 17.4671 9.82138C17.4836 9.69946 17.624 9.59292 17.6253 9.59188C17.6421 9.57928 17.6517 9.55907 17.6506 9.53803C17.6497 9.51703 17.6383 9.4979 17.6203 9.48693C17.3619 9.32957 17.1207 9.4461 16.9973 9.55556C16.9451 9.50446 16.9136 9.42627 16.9161 9.34757C16.9176 9.29587 16.9359 9.2009 17.0392 9.14596C17.0859 9.12107 17.1261 9.11563 17.1625 9.12904C17.2235 9.15173 17.264 9.22663 17.2745 9.25368C17.2811 9.27098 17.2952 9.28457 17.3127 9.29067C17.3302 9.29704 17.3497 9.29512 17.3656 9.2857C17.5071 9.2032 17.5523 9.0299 17.5666 8.93376C17.6498 8.94731 17.7132 8.9826 17.7593 9.04073C17.8886 9.20376 17.8357 9.49092 17.8352 9.49382C17.8311 9.51529 17.8383 9.53732 17.8543 9.55223C17.8702 9.56709 17.8928 9.57262 17.9139 9.56709C18.201 9.49017 18.2928 9.25706 18.307 9.08474C18.5265 9.22143 18.5115 9.50413 18.5107 9.5174C18.5093 9.53924 18.5192 9.56029 18.5369 9.57299C18.5546 9.58579 18.5775 9.58851 18.5978 9.58045C18.7028 9.53784 18.761 9.46851 18.7932 9.40453C18.993 9.66656 19.2708 9.75749 19.2841 9.76185C19.3077 9.76903 19.3333 9.76251 19.35 9.74432C19.3667 9.72618 19.3715 9.69998 19.362 9.6772L19.3 9.52687C19.3505 9.56245 19.3991 9.5999 19.4491 9.63838C19.5816 9.74029 19.7184 9.84571 19.916 9.93853C20.1381 10.0429 20.2963 10.0195 20.3903 9.98184C20.484 9.94392 20.5583 9.87323 20.589 9.7927C20.6248 9.6989 20.6383 9.5601 20.5691 9.45229ZM20.4704 9.74779C20.457 9.78323 20.4154 9.83498 20.3427 9.86432C20.2726 9.89273 20.1507 9.9089 19.97 9.82392C19.785 9.73696 19.6535 9.63585 19.5265 9.53807C19.4212 9.45698 19.3217 9.38043 19.1961 9.31274C19.1726 9.30004 19.1435 9.30346 19.1235 9.32146C19.1035 9.33937 19.0971 9.36796 19.1074 9.39276L19.1828 9.57571C19.0733 9.51318 18.9234 9.40143 18.8252 9.2219C18.8114 9.19645 18.7822 9.18374 18.7538 9.19087C18.7258 9.19804 18.7061 9.22335 18.7061 9.25232C18.7061 9.25345 18.705 9.34176 18.633 9.41053C18.6111 9.24154 18.5185 9.01453 18.2639 8.92462C18.243 8.91703 18.2202 8.92124 18.2031 8.93484C18.186 8.94853 18.1771 8.97013 18.1797 8.99188C18.1812 9.00506 18.2116 9.28781 17.9717 9.41029C17.9782 9.29179 17.9679 9.10031 17.8589 8.96245C17.7792 8.86167 17.6626 8.80743 17.5124 8.80124C17.496 8.79942 17.4788 8.80668 17.4664 8.81826C17.454 8.82984 17.4468 8.84592 17.4463 8.86293C17.4463 8.8649 17.439 9.03496 17.3526 9.13349C17.3227 9.08882 17.2752 9.03609 17.2075 9.01059C17.1364 8.98373 17.0596 8.9916 16.9796 9.03403C16.8628 9.09604 16.7933 9.20896 16.789 9.34363C16.7846 9.48627 16.8552 9.62371 16.9691 9.69374C16.9952 9.70954 17.0291 9.70467 17.0498 9.68174C17.0581 9.67232 17.2391 9.47442 17.4752 9.55734C17.4212 9.61396 17.3553 9.70181 17.3413 9.80385C17.3304 9.88279 17.3513 9.95681 17.4032 10.0239C17.4153 10.0397 17.4295 10.0474 17.4546 10.0484C17.4745 10.0481 17.4933 10.0382 17.505 10.0219C17.5058 10.0207 17.5747 9.92624 17.6767 9.8879C17.6762 9.9419 17.6858 10.0111 17.7245 10.0743C17.7715 10.151 17.849 10.2011 17.9548 10.2233C18.1602 10.2662 18.4783 10.2283 18.8148 10.1883C19.2176 10.1404 19.634 10.0907 19.8622 10.1782C20.0453 10.2483 20.2757 10.4146 20.3223 10.6526C20.3672 10.8808 20.2409 11.1363 19.9472 11.4118C19.9226 11.4348 19.9204 11.4731 19.942 11.4988C19.9462 11.5038 20.3647 12.0112 20.2315 12.6502C20.1835 12.8812 20.1055 13.1167 20.03 13.3444C19.8812 13.7939 19.7528 14.182 19.8855 14.4271C20.036 14.7049 20.1822 14.7241 20.2696 14.7357C20.2866 14.7379 20.3078 14.7407 20.3115 14.7425C20.3241 14.7681 20.2793 14.9024 20.0835 15.027C19.9766 15.0951 19.909 15.1972 19.8882 15.3225C19.8656 15.4586 19.9029 15.6116 19.9833 15.7122C20.0447 15.7888 20.056 15.906 20.0245 15.9519C20.0183 15.9608 19.9996 15.9876 19.9251 15.9644C19.8115 15.9284 19.756 15.8699 19.7559 15.8697C19.7425 15.855 19.7232 15.8478 19.703 15.8489C19.6831 15.8507 19.6652 15.8618 19.6548 15.8787C19.6543 15.8794 19.6102 15.948 19.5373 15.9582C19.4829 15.9655 19.4223 15.9392 19.3568 15.8794C19.3347 15.8592 19.3017 15.8573 19.2772 15.8745C19.2377 15.9025 19.1071 15.976 19.0272 15.9511C19.0157 15.9474 18.9807 15.9361 18.9583 15.8703C18.9524 15.8534 18.9397 15.8397 18.9233 15.8326C18.9068 15.8256 18.8882 15.8257 18.8719 15.8332C18.7948 15.8682 18.6981 15.8902 18.6795 15.8818C18.6795 15.8818 18.6764 15.8722 18.6843 15.8451C18.7282 15.6938 18.9068 15.6576 19.0249 15.6336C19.0466 15.6292 19.0663 15.6252 19.0828 15.6211C19.0958 15.6179 19.1108 15.6149 19.1267 15.6118C19.2431 15.5886 19.4851 15.5405 19.4547 15.2361C19.4483 15.1721 19.4501 15.113 19.4518 15.0559C19.4573 14.8684 19.4625 14.6913 19.1679 14.4793C19.0592 14.4009 18.9545 14.3307 18.8538 14.2631C18.6247 14.1092 18.4267 13.9765 18.2454 13.7952C17.8712 13.4208 17.4255 13.3111 16.92 13.4693C16.6211 13.563 16.3722 13.6765 16.1316 13.7863C15.8896 13.8967 15.6576 13.9996 15.4035 14.0699C15.6041 13.6886 15.714 13.1829 15.6914 12.9392C15.688 12.9043 15.6563 12.8784 15.6223 12.8819C15.5874 12.8852 15.5618 12.916 15.565 12.9509C15.5909 13.2292 15.4181 13.9127 15.1355 14.2504C14.9704 14.4478 14.9249 14.6712 15.0195 14.8195C15.0784 14.9114 15.1782 14.9554 15.3038 14.9566C15.2352 15.0648 15.093 15.228 14.8387 15.2863C14.8217 15.2903 14.807 15.301 14.7982 15.3161C14.7893 15.3312 14.7871 15.3492 14.7921 15.366C14.7931 15.3697 14.898 15.737 14.7165 15.8918C14.712 15.8944 14.6022 15.95 14.393 15.8543C14.3693 15.8435 14.3412 15.8482 14.3225 15.8665C14.3214 15.8673 14.2186 15.9636 14.1104 15.9571C14.0512 15.9557 13.998 15.9291 13.9478 15.8756C13.9247 15.8509 13.8863 15.8489 13.8605 15.8706C13.853 15.8771 13.6734 16.0261 13.5401 15.8768C13.5205 15.8549 13.4889 15.8494 13.4633 15.8628C13.4123 15.8894 13.3183 15.9188 13.2783 15.8972C13.273 15.8943 13.2569 15.8856 13.2527 15.8424C13.2439 15.7507 13.276 15.6611 13.3387 15.6026C13.4005 15.545 13.4865 15.5217 13.5809 15.5376C13.9133 15.5931 14.2714 15.5201 14.3233 15.2325C14.3614 15.0209 14.2738 14.7695 14.1891 14.5263C14.1253 14.3433 14.0595 14.1541 14.0565 14.0009C14.0505 13.6877 14.1176 13.392 14.1183 13.389C14.1262 13.3549 14.1049 13.3209 14.0707 13.313C14.0365 13.3047 14.0026 13.3263 13.9947 13.3605C13.9918 13.3731 13.9233 13.6739 13.9297 14.0033C13.931 14.0681 13.9433 14.1371 13.9594 14.2073C13.478 14.0295 13.1567 13.7527 13.0074 13.3816C12.8325 12.9467 12.9317 12.4802 13.0698 12.2128C13.2675 11.8302 13.5362 11.6116 13.7521 11.4358C13.8536 11.3533 13.9445 11.2789 14.0093 11.2012C14.0025 11.3067 13.9127 11.5188 13.8149 11.6887C13.8018 11.7113 13.8039 11.7396 13.8203 11.76C13.8366 11.7804 13.8639 11.7886 13.8887 11.7809C13.9432 11.7639 14.0416 11.7159 14.1139 11.679L14.1342 11.9992C14.1357 12.0229 14.1504 12.0438 14.1722 12.0533C14.1941 12.0629 14.2194 12.0594 14.2377 12.0442C14.3232 11.9741 14.4039 11.8805 14.4598 11.8099L14.5229 12.009C14.5289 12.0282 14.5438 12.0434 14.5628 12.0499C14.582 12.0564 14.6029 12.0535 14.6194 12.042C14.7098 11.9795 14.7981 11.8793 14.8532 11.8105L14.9736 12.0024C14.9858 12.0219 15.0076 12.0345 15.0305 12.0321C15.0533 12.031 15.0739 12.0176 15.0841 11.997L15.2246 11.716L15.3431 12.0381C15.3497 12.0561 15.3641 12.0701 15.3823 12.0763C15.3889 12.0786 15.3958 12.0797 15.4027 12.0797C15.4145 12.0797 15.4263 12.0764 15.4365 12.07L15.7471 11.8741C15.9112 11.9653 16.1486 12.0032 16.1593 12.005C16.1784 12.0075 16.1983 12.002 16.2126 11.9885C16.2269 11.9751 16.2341 11.9558 16.2323 11.9363L16.207 11.6717L16.482 11.6676C16.5136 11.667 16.5401 11.6433 16.544 11.6119C16.5479 11.5805 16.5279 11.551 16.4974 11.5429C16.4674 11.5349 16.3986 11.4705 16.3398 11.4047C16.3473 11.4042 16.3507 11.4038 16.3542 11.4036C16.5123 11.4156 19.1963 11.6132 19.7849 11.1851C20.1122 10.947 20.0894 10.7307 20.0465 10.6229C19.9582 10.4003 19.637 10.2584 19.3167 10.2992C19.1893 10.3155 19.0523 10.3399 18.9105 10.3653C18.5087 10.4373 18.0534 10.5188 17.6801 10.4273C17.5345 10.3917 17.4097 10.3444 17.2995 10.3028C17.1131 10.2322 16.9783 10.1812 16.875 10.2428C16.8323 10.2684 16.8012 10.3102 16.7805 10.3712C16.7142 10.2973 16.6407 10.1623 16.7378 9.97954C16.7506 9.95549 16.7465 9.92596 16.7278 9.90609C16.7241 9.9021 16.356 9.50765 16.5293 9.07471C16.6848 8.68588 17.2969 8.46642 17.9847 8.55379C18.5765 8.62865 19.1967 9.0832 19.6071 9.38395C19.8655 9.57327 20.0046 9.6726 20.0987 9.68493C20.1176 9.68765 20.1361 9.68113 20.1501 9.66834C20.1639 9.65554 20.1713 9.63712 20.1703 9.61828C20.1702 9.61743 20.1663 9.53273 20.2139 9.48571C20.2398 9.46003 20.2777 9.44873 20.3301 9.45267C20.3916 9.4567 20.4361 9.47953 20.4625 9.52049C20.5034 9.58457 20.496 9.68081 20.4704 9.74779ZM18.4763 15.8807C18.4148 15.9019 18.3458 15.8878 18.2704 15.8383C18.2468 15.8227 18.2154 15.8249 18.1941 15.8434C18.1865 15.85 18.0052 16.0031 17.8315 15.863C17.8078 15.8439 17.7735 15.8446 17.7501 15.8645C17.7313 15.8807 17.5608 16.018 17.391 15.8591C17.3709 15.8404 17.3413 15.8366 17.3175 15.8496C17.2312 15.8962 17.1106 15.9343 17.0783 15.9148C17.073 15.9116 17.0728 15.8946 17.0728 15.8912C17.0728 15.824 17.1139 15.7739 17.1484 15.7437C17.2285 15.6737 17.3557 15.6365 17.4662 15.651C17.7065 15.6831 17.8816 15.5183 17.9134 15.444C17.9415 15.3784 17.9878 14.7593 17.7663 14.4386C17.7213 14.3736 17.6719 14.3112 17.6222 14.2488C17.4538 14.0369 17.2961 13.8356 17.3246 13.5294C17.6324 13.523 17.9111 13.6407 18.1555 13.8851C18.2835 14.013 18.4221 14.119 18.5673 14.2208C18.511 14.2787 18.4203 14.3879 18.4134 14.499C18.41 14.5537 18.4274 14.6038 18.4634 14.6438C18.5554 14.746 18.6607 14.7412 18.7303 14.7378C18.7423 14.7372 18.7584 14.7363 18.7702 14.7371C18.7524 14.7801 18.6867 14.87 18.6412 14.932C18.5153 15.1036 18.434 15.2231 18.4478 15.3156C18.4573 15.3786 18.4821 15.4738 18.5061 15.5658C18.529 15.6535 18.5635 15.7861 18.5619 15.8118C18.5586 15.8217 18.5301 15.8621 18.4763 15.8807ZM18.7434 15.0071C18.8654 14.8407 18.9273 14.7506 18.8914 14.6789C18.8546 14.6053 18.7794 14.6085 18.7244 14.6113C18.6653 14.6141 18.6094 14.6166 18.5576 14.5591C18.5442 14.5442 18.5387 14.5281 18.54 14.5072C18.5444 14.4347 18.6261 14.3407 18.6732 14.2946C18.7096 14.3193 18.7458 14.344 18.783 14.3689C18.8826 14.4358 18.9861 14.5053 19.0935 14.5826C19.3335 14.7554 19.33 14.8737 19.3248 15.0526C19.323 15.1109 19.3211 15.177 19.3284 15.2492C19.346 15.4253 19.2455 15.4592 19.1018 15.4878C19.0837 15.4914 19.0667 15.4948 19.0518 15.4986C19.0369 15.5023 19.0192 15.5059 18.9995 15.5099C18.9078 15.5285 18.7613 15.5598 18.6595 15.6548C18.6511 15.6204 18.6409 15.5806 18.6287 15.5341C18.6056 15.4453 18.5816 15.3534 18.5731 15.297C18.5661 15.2491 18.6815 15.0917 18.7434 15.0071ZM12.317 13.8236C12.2906 13.8264 12.2667 13.8371 12.2448 13.856C12.2073 13.8142 12.1571 13.7329 12.1571 13.5972C12.1571 13.3956 12.1 13.2953 12.0638 13.2516C12.0728 13.2386 12.0816 13.2254 12.088 13.211C12.1163 13.1484 12.1082 13.0832 12.0642 13.0167C12.0848 12.9736 12.099 12.9148 12.0813 12.8554C12.107 12.8118 12.1268 12.7437 12.1064 12.6605C12.1223 12.6396 12.1418 12.6088 12.1567 12.5699C12.4482 12.8921 12.7962 13.1678 12.8198 13.1863C12.8362 13.2675 12.8573 13.3489 12.8896 13.4294C12.9887 13.6757 13.1565 13.8825 13.387 14.0507C13.2789 14.1974 13.0768 14.3881 12.8265 14.221C12.7104 14.1436 12.6229 14.0515 12.5526 13.9776C12.4627 13.8831 12.397 13.8147 12.317 13.8236ZM11.7863 14.3826C11.7993 14.3976 11.8182 14.4051 11.8388 14.404C11.8586 14.4025 11.8767 14.3918 11.8874 14.3751C11.8943 14.3645 11.9273 14.3233 11.964 14.3159C11.9745 14.3135 11.9917 14.3127 12.0167 14.3297C12.0333 14.3412 12.0426 14.3791 12.0286 14.4206C12.0035 14.4951 11.9244 14.536 11.8159 14.5312C11.7891 14.529 11.7639 14.5459 11.7539 14.5711C11.7439 14.5963 11.751 14.6251 11.7716 14.6427L11.8751 14.7314L11.7062 14.7725C11.6838 14.7779 11.6662 14.7951 11.6601 14.8173C11.6598 14.8184 11.6346 14.9084 11.5842 14.9842C11.5337 14.9084 11.5085 14.8184 11.5082 14.8173C11.5021 14.7951 11.4844 14.7779 11.462 14.7725L11.2932 14.7314L11.3966 14.6427C11.4172 14.625 11.4242 14.5963 11.4143 14.5711C11.4042 14.5459 11.3772 14.5287 11.3522 14.5312C11.2425 14.5363 11.1647 14.4951 11.1397 14.4207C11.1256 14.3792 11.135 14.3412 11.1516 14.3297C11.1761 14.3129 11.1931 14.3137 11.2039 14.3158C11.2395 14.3227 11.2717 14.3612 11.2808 14.3751C11.2916 14.3919 11.3097 14.4026 11.3295 14.4041C11.3484 14.4049 11.3688 14.3975 11.3819 14.3826C11.5428 14.1988 11.4741 13.992 11.3948 13.8761C11.4555 13.8002 11.5176 13.6789 11.5319 13.6502C11.5428 13.6285 11.5365 13.6032 11.5217 13.5839C11.5067 13.5648 11.4781 13.5566 11.4547 13.5614C11.4187 13.5689 11.309 13.5919 11.246 13.5434C11.2241 13.5266 11.2193 13.4805 11.2361 13.4506C11.2418 13.4403 11.2597 13.4094 11.3255 13.4345C11.3881 13.4586 11.478 13.4846 11.5341 13.4339C11.5469 13.4225 11.5543 13.4089 11.5597 13.3949C11.5763 13.3974 11.5932 13.3983 11.6102 13.3998C11.6156 13.412 11.6228 13.4238 11.634 13.4339C11.6905 13.4846 11.7802 13.4586 11.8427 13.4345C11.9088 13.4091 11.9264 13.4403 11.9322 13.4506C11.949 13.4806 11.9441 13.5266 11.9221 13.5435C11.8591 13.5922 11.7495 13.569 11.7055 13.5598C11.6816 13.5548 11.6574 13.5642 11.6427 13.5835C11.628 13.6027 11.6255 13.6286 11.6363 13.6503C11.6506 13.6789 11.7127 13.8003 11.7734 13.8762C11.6942 13.992 11.6255 14.1988 11.7863 14.3826ZM11.992 12.5996C11.9734 12.6171 11.9671 12.6441 11.9761 12.6681C12.0073 12.7514 11.9679 12.7977 11.9642 12.8018C11.944 12.8219 11.9398 12.8529 11.9538 12.8778C11.9799 12.9242 11.9376 12.9823 11.9375 12.9825C11.9193 13.0064 11.9202 13.0395 11.9397 13.0624C11.9895 13.1206 11.9779 13.1464 11.9723 13.1588C11.9544 13.1987 11.9158 13.2297 11.8577 13.2511C11.7984 13.273 11.7292 13.2795 11.6617 13.2776C11.6592 13.2777 11.6567 13.2773 11.6543 13.2777C11.5742 13.2745 11.4974 13.2584 11.444 13.2333C11.4155 13.2199 11.3798 13.1978 11.3722 13.1692C11.3653 13.1433 11.3831 13.1173 11.3831 13.1173C11.3935 13.1034 11.3978 13.0859 11.395 13.0688C11.3921 13.0517 11.3824 13.0365 11.368 13.0268C11.335 13.0043 11.3324 12.9852 11.3315 12.9789C11.3275 12.9493 11.3507 12.914 11.3589 12.9043C11.3706 12.891 11.3761 12.8735 11.3743 12.8559C11.3725 12.8384 11.3634 12.8224 11.3493 12.8118C11.3299 12.7972 11.2977 12.7689 11.2981 12.7416C11.2985 12.7135 11.3307 12.6847 11.3415 12.6772C11.3584 12.6657 11.3671 12.6457 11.3677 12.6254C11.3683 12.605 11.3575 12.5844 11.3413 12.5721C11.3248 12.5594 11.3091 12.4979 11.3165 12.4766C11.3933 12.4914 11.4766 12.5005 11.5679 12.5013C11.5726 12.5013 11.5773 12.5014 11.582 12.5014C11.754 12.5014 11.9045 12.4704 12.0271 12.4183C12.0347 12.4278 12.0425 12.4373 12.0503 12.4468C12.0517 12.5376 11.9943 12.5974 11.992 12.5996ZM11.5692 12.3745C11.226 12.3714 10.9987 12.2612 10.9612 12.0797C10.95 12.0257 10.9598 11.9833 10.9909 11.95C11.0296 11.9085 11.1012 11.8843 11.1784 11.8843C11.195 11.8843 11.2119 11.8854 11.2287 11.8877C11.2466 11.8901 11.2495 11.8958 11.2506 11.8979C11.2639 11.9228 11.2466 11.9946 11.2227 12.0434C11.2075 12.0745 11.2199 12.112 11.2505 12.1279C11.4766 12.2445 11.8039 12.1934 11.8899 12.1543C11.9003 12.1496 11.9316 12.1355 11.9401 12.1011C11.9469 12.0742 11.9379 12.0507 11.9292 12.0279C11.9136 11.9869 11.8973 11.9445 11.9431 11.8845C11.9676 11.8524 12.021 11.8672 12.0367 11.8726C12.1123 11.8982 12.1888 11.9772 12.1888 12.0786C12.1888 12.1258 12.1673 12.1711 12.1249 12.2131C12.0207 12.3164 11.8119 12.3736 11.5692 12.3745ZM11.8023 12.0502C11.7177 12.0712 11.52 12.0944 11.3615 12.0377C11.3801 11.9817 11.3958 11.9007 11.3626 11.8383C11.3612 11.8356 11.3588 11.8327 11.3571 11.8299L11.343 9.83451C11.3588 8.6504 11.9058 8.21788 12.1623 8.07998C12.0474 8.43843 11.8205 9.4507 11.8294 11.8303C11.772 11.9208 11.7855 12.0007 11.8023 12.0502ZM13.5316 10.9758L13.4651 11.1229C13.4345 11.0906 13.396 11.0385 13.3647 10.9592C13.3529 10.9293 13.3208 10.9126 13.2895 10.9213L13.0532 10.9838L13.1073 10.8516C13.1157 10.831 13.1127 10.8075 13.0994 10.7896C13.0862 10.7717 13.0639 10.7617 13.0423 10.7645L12.7554 10.7931L12.8619 10.5039C12.9885 10.5409 13.302 10.6255 13.6239 10.659L13.577 10.7174C13.56 10.7385 13.5584 10.7679 13.5727 10.7909C13.587 10.8137 13.6143 10.825 13.6406 10.8189C13.644 10.8182 13.9846 10.741 14.2164 10.7741C14.2427 10.7773 14.2684 10.7648 14.2811 10.7417C14.2938 10.7185 14.2907 10.6898 14.2734 10.6698C14.1381 10.5133 13.7743 10.0762 13.7168 9.9366C13.706 9.91026 13.6788 9.89531 13.6508 9.8977C13.6225 9.90107 13.5999 9.92278 13.5955 9.95085L13.5637 10.1538C13.5152 10.1217 13.4507 10.0691 13.3966 9.9914C13.3811 9.96909 13.3533 9.95901 13.3272 9.96674C13.3011 9.9742 13.2826 9.99735 13.2812 10.0244C13.2809 10.0306 13.2799 10.0553 13.2814 10.0887C13.1181 9.94335 12.8559 9.67832 12.7707 9.40935C12.7232 9.25945 12.7269 9.14863 12.7815 9.08868C12.8291 9.03637 12.9089 9.0307 12.9507 9.03956C12.9952 9.04907 13.0375 9.08053 13.0639 9.1237C13.0898 9.16603 13.0976 9.21327 13.0859 9.25715C13.0807 9.2767 13.0851 9.2976 13.0979 9.31335C13.1106 9.32915 13.1305 9.33824 13.1504 9.33679C13.3103 9.32887 14.1143 9.2759 14.2443 9.01251C14.2625 8.97567 14.2752 8.92115 14.2483 8.85445C14.3334 8.80588 14.5435 8.73388 14.8158 8.97717C14.838 8.99709 14.8713 8.99863 14.8957 8.98096C14.9583 8.93488 15.0526 8.82412 15.041 8.68935C15.1358 8.70126 15.2989 8.74926 15.412 8.93156C15.4224 8.94824 15.4399 8.95912 15.4594 8.96118C15.4787 8.9631 15.4981 8.95617 15.5117 8.94206C15.5168 8.93685 15.6197 8.82843 15.6622 8.69446C15.7379 8.71213 15.888 8.76909 16.0348 8.95345C16.0457 8.96728 16.0619 8.97585 16.0795 8.97726C16.0857 8.97735 16.1664 8.98218 16.2707 8.95167C15.9504 9.20971 15.4298 9.26249 15.423 9.26315C15.3997 9.26535 15.3795 9.28026 15.3704 9.30187C15.3614 9.32348 15.365 9.34846 15.3799 9.36651L15.4703 9.47667C15.1119 9.48332 14.9541 9.35367 14.9527 9.35245C14.9295 9.33229 14.8953 9.33182 14.8713 9.35067C14.8473 9.36988 14.8406 9.40345 14.8552 9.43045L14.9337 9.57548C14.7928 9.54599 14.6636 9.48028 14.5552 9.42501C14.4187 9.35549 14.3108 9.30079 14.2162 9.32887C14.1455 9.35001 14.094 9.41385 14.0816 9.49551C14.0683 9.58448 14.1046 9.66946 14.1763 9.71723C14.2128 9.7416 14.2544 9.75351 14.2963 9.75351C14.3554 9.75351 14.4151 9.72984 14.4621 9.68404C14.5004 9.64663 14.5234 9.60117 14.5302 9.55453C14.673 9.6269 14.847 9.7087 15.0456 9.71723C15.0679 9.71995 15.09 9.70687 15.1021 9.68751C15.1142 9.66815 15.115 9.64373 15.1041 9.62367L15.0626 9.54712C15.1824 9.58753 15.3604 9.61978 15.6043 9.59545C15.6276 9.5931 15.6476 9.57829 15.6566 9.55663C15.6655 9.53503 15.6618 9.51023 15.6471 9.49213L15.5499 9.37368C15.749 9.34054 16.1576 9.2444 16.4154 8.99437C16.373 9.11128 16.3039 9.23174 16.1899 9.2977C16.174 9.30698 16.163 9.32287 16.1595 9.34101C16.1561 9.35915 16.1609 9.37809 16.1724 9.39252C16.1745 9.39524 16.3798 9.66309 16.3158 10.3631C16.1984 10.3028 15.9728 10.1594 15.8452 9.9007C15.8317 9.87328 15.8009 9.85963 15.7707 9.86779C15.7412 9.87628 15.7221 9.90473 15.7252 9.93529C15.7337 10.0175 15.7406 10.1489 15.7331 10.2414C15.6646 10.1923 15.5686 10.112 15.529 10.0243C15.5178 9.99937 15.492 9.98385 15.465 9.98728C15.4379 9.9899 15.4156 10.0095 15.4094 10.036C15.3934 10.105 15.372 10.185 15.3546 10.2393C15.2915 10.1998 15.2076 10.1372 15.1727 10.073C15.1593 10.0481 15.1311 10.035 15.1031 10.0413C15.0755 10.0474 15.0553 10.0713 15.0537 10.0996C15.0495 10.173 15.0398 10.2863 15.0275 10.3646C14.9692 10.3289 14.8872 10.2749 14.8266 10.2201C14.8101 10.2052 14.7871 10.1997 14.766 10.2062C14.7448 10.2125 14.7284 10.2294 14.7226 10.2509L14.6901 10.3745C14.6356 10.3429 14.56 10.2924 14.5106 10.2321C14.4885 10.205 14.4485 10.201 14.4215 10.2232C14.3943 10.2453 14.3903 10.2853 14.4126 10.3124C14.5159 10.4386 14.6972 10.522 14.7049 10.5255C14.722 10.5331 14.7413 10.5329 14.7584 10.5251C14.7753 10.5171 14.7878 10.502 14.7925 10.4839L14.8204 10.3781C14.9232 10.4546 15.0333 10.515 15.039 10.5181C15.055 10.5267 15.0738 10.5281 15.0909 10.5222C15.108 10.516 15.1216 10.5028 15.1283 10.486C15.1469 10.4395 15.16 10.3441 15.1684 10.2596C15.255 10.3349 15.3522 10.3841 15.3583 10.3871C15.388 10.4019 15.4238 10.3914 15.441 10.363C15.459 10.333 15.4802 10.2658 15.498 10.202C15.6008 10.3177 15.7388 10.397 15.7465 10.4014C15.7624 10.4104 15.7818 10.412 15.7993 10.406C15.8167 10.3997 15.8305 10.3861 15.8371 10.3688C15.8562 10.3185 15.8626 10.2389 15.8632 10.1608C15.984 10.3083 16.1238 10.4023 16.2226 10.4568C16.2226 10.4584 16.2219 10.4597 16.222 10.4613C16.2226 10.4725 16.2365 10.6848 16.2729 10.8541C16.1664 10.8147 15.9953 10.7344 15.8372 10.5855C15.822 10.5712 15.8005 10.5654 15.7802 10.5697C15.7597 10.5742 15.7428 10.5884 15.7349 10.6078L15.6861 10.7283L15.4821 10.5803C15.4641 10.5673 15.4404 10.5645 15.4197 10.5734C15.3991 10.5823 15.3848 10.6013 15.3818 10.6235L15.3634 10.765C15.3191 10.7329 15.2659 10.6904 15.2279 10.6477C15.2045 10.6214 15.1643 10.6191 15.1384 10.6424C15.1122 10.6657 15.1098 10.7058 15.1331 10.7319C15.2229 10.833 15.3737 10.9251 15.3801 10.929C15.3985 10.9403 15.4212 10.9412 15.4405 10.9319C15.4599 10.9227 15.4732 10.9043 15.476 10.883L15.4939 10.7456L15.6772 10.8786C15.6928 10.89 15.7131 10.8934 15.7318 10.8882C15.7507 10.8828 15.7658 10.8691 15.7732 10.8511L15.8189 10.7383C15.9363 10.8348 16.053 10.8981 16.1479 10.94C16.1484 10.9794 16.1546 11.1474 16.2255 11.2799C16.1093 11.2769 15.9272 11.2565 15.7585 11.1721C15.73 11.1576 15.6947 11.1671 15.677 11.1944L15.5851 11.3359L15.2052 11.081C15.189 11.07 15.1687 11.067 15.1503 11.0734C15.1318 11.0794 15.117 11.0936 15.1103 11.1118L15.0519 11.2709C14.982 11.1924 14.8817 11.0819 14.8448 11.0524C14.8189 11.0316 14.7812 11.0345 14.7586 11.0589C14.7576 11.06 14.6688 11.1551 14.5626 11.2289L14.4893 11.0323C14.4772 10.9996 14.4405 10.9828 14.4077 10.9949C14.3749 11.0071 14.3582 11.0438 14.3704 11.0766L14.4708 11.3461C14.4773 11.3635 14.491 11.3771 14.5083 11.3835C14.5256 11.3899 14.5449 11.3885 14.5611 11.3795C14.6605 11.3243 14.7534 11.2419 14.8063 11.1909C14.8651 11.2516 14.964 11.3623 15.0269 11.4345C15.0417 11.4514 15.0641 11.4594 15.0862 11.4551C15.1082 11.4511 15.1265 11.4357 15.1343 11.4147L15.2016 11.2314L15.5679 11.4772C15.5785 11.4842 15.5908 11.488 15.6033 11.488C15.6075 11.488 15.6118 11.4876 15.616 11.4866C15.6327 11.4832 15.6473 11.4733 15.6564 11.4591L15.7533 11.3096C15.9162 11.3799 16.079 11.4007 16.1959 11.4057C16.1952 11.4208 16.1993 11.4362 16.2097 11.4488C16.2251 11.4677 16.2567 11.505 16.2948 11.5437L16.1362 11.5461C16.1185 11.5464 16.1017 11.554 16.0899 11.5672C16.0781 11.5804 16.0724 11.5979 16.074 11.6156L16.0977 11.8639C16.0101 11.8442 15.8712 11.806 15.7808 11.7468C15.7598 11.7331 15.7331 11.7328 15.7121 11.7462L15.4349 11.9211L15.2929 11.5348C15.2842 11.511 15.2622 11.4948 15.2369 11.4933C15.2093 11.4914 15.1879 11.5057 15.1765 11.5283L15.0209 11.8396L14.9118 11.6657C14.9004 11.6477 14.8809 11.6365 14.8597 11.636C14.8385 11.6363 14.8185 11.6455 14.8061 11.6629C14.805 11.6645 14.7167 11.7891 14.6155 11.8824L14.5432 11.6539C14.5358 11.6308 14.516 11.6138 14.492 11.6103C14.4678 11.6071 14.4441 11.6172 14.4304 11.6372C14.4294 11.6387 14.3513 11.7523 14.2521 11.8568L14.2342 11.5739C14.2328 11.5524 14.2206 11.533 14.2017 11.5225C14.1828 11.512 14.1599 11.5117 14.1409 11.522C14.1136 11.5366 14.0632 11.5631 14.0104 11.5891C14.085 11.4342 14.1697 11.2166 14.1215 11.1044C14.1072 11.071 14.0802 11.0488 14.0479 11.0351C14.0459 11.0337 14.0445 11.0317 14.0423 11.0305C14.0394 11.0289 14.0362 11.0288 14.0332 11.0277C14.031 11.0271 14.0296 11.0253 14.0273 11.0248C14.0248 11.0242 14.0229 11.0243 14.0204 11.0238C14.0191 11.0237 14.0179 11.0234 14.0165 11.0233C13.9305 11.0054 13.8719 11.0294 13.838 11.0541C13.8034 11.0794 13.7806 11.113 13.7656 11.1453C13.7262 11.1073 13.6786 11.0505 13.6478 10.9773C13.6381 10.954 13.6155 10.9387 13.5903 10.9384C13.565 10.9368 13.5421 10.9528 13.5316 10.9758ZM13.0493 10.268C13.3922 10.4332 13.8136 10.4515 13.9288 10.4536C13.9839 10.5221 14.0377 10.5875 14.0808 10.6388C13.9754 10.6393 13.8679 10.6512 13.7826 10.6639L13.7976 10.6452C13.8125 10.6267 13.8157 10.6014 13.8061 10.5797C13.7965 10.5581 13.7755 10.5436 13.752 10.5421C13.3214 10.5165 12.8471 10.3669 12.8424 10.3653C12.8422 10.3652 12.842 10.3653 12.8418 10.3652C12.8418 10.3652 12.8416 10.3651 12.8415 10.365C12.7708 10.3437 12.7296 10.3074 12.7255 10.2629C12.7223 10.2278 12.7418 10.1992 12.7536 10.1931C12.822 10.1579 12.966 10.2276 13.0493 10.268ZM13.6485 10.3037C13.6622 10.2939 13.6724 10.2798 13.675 10.2629L13.6936 10.144C13.7316 10.1993 13.7777 10.2605 13.8252 10.3222C13.7761 10.3188 13.7158 10.313 13.6485 10.3037ZM13.5369 10.2858C13.506 10.2801 13.4741 10.2734 13.4419 10.2659C13.4448 10.2524 13.4431 10.2378 13.4366 10.2247C13.4348 10.2211 13.4331 10.2173 13.4315 10.2134C13.4716 10.2463 13.5087 10.2698 13.5369 10.2858ZM14.3734 9.59334C14.3446 9.62174 14.294 9.64331 14.2466 9.61185C14.2103 9.58767 14.2025 9.54571 14.2071 9.51445C14.2108 9.49007 14.2248 9.45881 14.2525 9.45051C14.2578 9.44896 14.2638 9.44817 14.2704 9.44817C14.3008 9.44817 14.3442 9.4641 14.3938 9.48679L14.3939 9.48693C14.4261 9.53798 14.3825 9.58453 14.3734 9.59334ZM16.7851 10.5428C16.8033 10.5544 16.8263 10.5558 16.846 10.5467C16.8656 10.5376 16.8791 10.519 16.882 10.4975C16.8925 10.4177 16.912 10.3688 16.94 10.352C16.9905 10.3217 17.113 10.3681 17.2545 10.4217C17.3624 10.4626 17.4967 10.5134 17.6497 10.5509C18.049 10.6487 18.5184 10.5647 18.9325 10.4905C19.0725 10.4654 19.2072 10.4414 19.3325 10.4253C19.5945 10.3919 19.8616 10.5016 19.9284 10.67C19.9789 10.7971 19.9013 10.9437 19.71 11.0828C19.1798 11.4684 16.6406 11.2972 16.3817 11.2787C16.3128 11.2131 16.2859 11.0789 16.2779 10.9904C16.3197 11.0038 16.3478 11.0104 16.3514 11.0112C16.3557 11.0122 16.3601 11.0126 16.3644 11.0126C16.3826 11.0126 16.4002 11.0047 16.4124 10.9907C16.4275 10.9732 16.4319 10.949 16.424 10.9273C16.3845 10.8194 16.3627 10.6199 16.3537 10.5178C16.3704 10.5224 16.3882 10.5208 16.4031 10.5115C16.4196 10.5014 16.4305 10.4842 16.4328 10.4649C16.5078 9.82771 16.377 9.49546 16.3084 9.37101C16.325 9.35831 16.3406 9.34457 16.3554 9.33023C16.36 9.6314 16.5347 9.8736 16.6062 9.96009C16.4786 10.249 16.6638 10.4659 16.7851 10.5428Z" fill="#464655"/>
<path d="M10.4229 7.27685C10.3983 6.76587 10.277 5.93946 9.88922 5.92052C9.67069 5.91044 9.56302 6.04497 9.55856 6.05074C9.54577 6.06733 9.52477 6.07666 9.50442 6.07563L9.35625 6.06672L9.38278 6.16493C9.38916 6.1886 9.38114 6.21405 9.36239 6.22994C9.35339 6.23754 9.14386 6.41951 9.27136 6.65126C9.36849 6.82783 9.68241 6.91141 9.91158 6.97235C10.0139 6.99963 10.1024 7.02316 10.1597 7.05124C10.262 7.10121 10.3516 7.18563 10.4229 7.27685Z" fill="#FFD250"/>
<path d="M9.89532 5.79378C9.67233 5.78286 9.53353 5.894 9.48136 5.94711L9.27581 5.93478C9.25631 5.93323 9.23578 5.94228 9.22285 5.95808C9.20996 5.97387 9.20541 5.99492 9.21071 6.01465L9.25017 6.16109C9.14939 6.26394 9.03089 6.4775 9.16008 6.7123C9.28327 6.93645 9.62756 7.028 9.87886 7.09494C9.97481 7.12044 10.0577 7.14251 10.104 7.16511C10.2526 7.23776 10.3719 7.40305 10.434 7.53355C10.4447 7.556 10.4672 7.56969 10.4913 7.56969C10.4959 7.56969 10.5004 7.56917 10.505 7.56819C10.5338 7.56181 10.5544 7.53636 10.5547 7.50687C10.5554 7.43839 10.5635 5.82636 9.89532 5.79378ZM9.91149 6.97226C9.68232 6.91133 9.36839 6.82775 9.27127 6.65117C9.14377 6.41947 9.3533 6.2375 9.3623 6.22986C9.381 6.21397 9.38902 6.18856 9.38269 6.16484L9.35616 6.06664L9.50433 6.07555C9.52472 6.07662 9.54572 6.06725 9.55847 6.05065C9.56292 6.04484 9.6706 5.91031 9.88913 5.92044C10.2769 5.93937 10.3982 6.76578 10.4228 7.27676C10.3515 7.18559 10.2619 7.10117 10.1596 7.05115C10.1023 7.02308 10.0138 6.99955 9.91149 6.97226Z" fill="#464655"/>
<path d="M21.0254 7.27685C21.05 6.76587 21.1713 5.93946 21.5591 5.92052C21.7776 5.91044 21.8853 6.04497 21.8897 6.05074C21.9025 6.06733 21.9235 6.07666 21.9439 6.07563L22.092 6.06672L22.0655 6.16493C22.0591 6.1886 22.0672 6.21405 22.0859 6.22994C22.0949 6.23754 22.3044 6.41951 22.1769 6.65126C22.0798 6.82783 21.7659 6.91141 21.5367 6.97235C21.4344 6.99963 21.3459 7.02316 21.2886 7.05124C21.1863 7.10121 21.0967 7.18563 21.0254 7.27685Z" fill="#FFD250"/>
<path d="M20.8935 7.50698C20.8939 7.53647 20.9145 7.56192 20.9432 7.5683C20.9478 7.56928 20.9524 7.5698 20.9569 7.5698C20.981 7.5698 21.0035 7.55611 21.0142 7.53366C21.0763 7.40316 21.1956 7.23787 21.3442 7.16522C21.3906 7.14258 21.4733 7.12055 21.5693 7.09505C21.8207 7.02815 22.1649 6.93656 22.2881 6.71241C22.4173 6.47756 22.2988 6.264 22.198 6.1612L22.2375 6.01476C22.2428 5.99498 22.2382 5.97394 22.2254 5.95819C22.2125 5.94239 22.1919 5.9333 22.1724 5.93489L21.9668 5.94722C21.9147 5.8942 21.7759 5.78306 21.5529 5.79389C20.8848 5.82637 20.8929 7.43841 20.8935 7.50698ZM21.2886 7.05112C21.1863 7.10119 21.0967 7.18561 21.0254 7.27673C21.05 6.76575 21.1713 5.93934 21.5591 5.92041C21.7776 5.91033 21.8853 6.04486 21.8897 6.05062C21.9025 6.06722 21.9235 6.07655 21.9439 6.07551L22.092 6.06661L22.0655 6.16481C22.0591 6.18848 22.0672 6.21394 22.0859 6.22983C22.0949 6.23742 22.3044 6.41939 22.1769 6.65114C22.0798 6.82772 21.7659 6.9113 21.5367 6.97223C21.4345 6.99956 21.346 7.02309 21.2886 7.05112Z" fill="#464655"/>
<path d="M21.0254 16.7231C21.05 17.2341 21.1713 18.0605 21.5591 18.0794C21.7776 18.0895 21.8853 17.955 21.8897 17.9492C21.9025 17.9326 21.9235 17.9233 21.9439 17.9243L22.092 17.9332L22.0655 17.835C22.0591 17.8113 22.0672 17.7859 22.0859 17.77C22.0949 17.7624 22.3044 17.5804 22.1769 17.3487C22.0798 17.1721 21.7659 17.0885 21.5367 17.0276C21.4344 17.0003 21.3459 16.9768 21.2886 16.9487C21.1863 16.8987 21.0967 16.8143 21.0254 16.7231Z" fill="#FFD250"/>
<path d="M21.553 18.2061C21.776 18.2171 21.9147 18.1059 21.9669 18.0528L22.1725 18.0651C22.192 18.0667 22.2125 18.0576 22.2254 18.0418C22.2383 18.026 22.2429 18.005 22.2376 17.9853L22.1981 17.8388C22.2989 17.736 22.4174 17.5224 22.2882 17.2876C22.165 17.0635 21.8207 16.9719 21.5694 16.905C21.4735 16.8795 21.3906 16.8574 21.3443 16.8348C21.1957 16.7622 21.0764 16.5969 21.0142 16.4664C21.0036 16.4439 20.9811 16.4302 20.957 16.4302C20.9525 16.4302 20.9479 16.4308 20.9433 16.4317C20.9145 16.4381 20.8939 16.4636 20.8936 16.493C20.8929 16.5615 20.8848 18.1736 21.553 18.2061ZM21.5368 17.0276C21.766 17.0886 22.0799 17.1721 22.177 17.3487C22.3045 17.5804 22.095 17.7624 22.086 17.77C22.0673 17.7859 22.0593 17.8113 22.0656 17.835L22.0921 17.9332L21.944 17.9243C21.9236 17.9233 21.9026 17.9326 21.8898 17.9492C21.8854 17.955 21.7777 18.0896 21.5592 18.0794C21.1714 18.0605 21.0501 17.2341 21.0255 16.7231C21.0968 16.8143 21.1864 16.8987 21.2887 16.9487C21.346 16.9769 21.4345 17.0004 21.5368 17.0276Z" fill="#464655"/>
<path d="M10.4229 16.7231C10.3983 17.2341 10.277 18.0605 9.88922 18.0794C9.67069 18.0895 9.56302 17.955 9.55856 17.9492C9.54577 17.9326 9.52477 17.9233 9.50442 17.9243L9.35625 17.9332L9.38278 17.835C9.38916 17.8113 9.38114 17.7859 9.36239 17.77C9.35339 17.7624 9.14386 17.5804 9.27136 17.3487C9.36849 17.1721 9.68241 17.0885 9.91158 17.0276C10.0139 17.0003 10.1024 16.9768 10.1597 16.9487C10.262 16.8987 10.3516 16.8143 10.4229 16.7231Z" fill="#FFD250"/>
<path d="M10.5547 16.4929C10.5544 16.4634 10.5338 16.438 10.505 16.4316C10.5004 16.4306 10.4959 16.4301 10.4913 16.4301C10.4673 16.4301 10.4447 16.4438 10.434 16.4662C10.3719 16.5967 10.2526 16.762 10.104 16.8347C10.0576 16.8573 9.97486 16.8793 9.87886 16.9048C9.62752 16.9717 9.28331 17.0633 9.16008 17.2875C9.03094 17.5223 9.14944 17.7359 9.25017 17.8387L9.2107 17.9851C9.20541 18.0049 9.21 18.0259 9.22284 18.0417C9.23573 18.0575 9.25631 18.0666 9.27581 18.065L9.48136 18.0527C9.53353 18.1057 9.67233 18.2168 9.89531 18.206C10.5635 18.1736 10.5554 16.5615 10.5547 16.4929ZM10.1596 16.9488C10.262 16.8987 10.3516 16.8143 10.4228 16.7232C10.3982 17.2342 10.2769 18.0606 9.88917 18.0795C9.67064 18.0896 9.56297 17.9551 9.55852 17.9493C9.54572 17.9327 9.52472 17.9234 9.50438 17.9244L9.3562 17.9333L9.38273 17.8351C9.38911 17.8114 9.38109 17.786 9.36234 17.7701C9.35334 17.7625 9.14381 17.5805 9.27131 17.3488C9.36844 17.1722 9.68236 17.0886 9.91153 17.0277C10.0138 17.0004 10.1023 16.9769 10.1596 16.9488Z" fill="#464655"/>
</svg>
