<svg xmlns="http://www.w3.org/2000/svg" width="24" height="24" viewBox="0 0 24 24" fill="none"><rect width="24" height="24" fill="none"/>
<path d="M22.2026 19.8621H1.79742C0.804703 19.8621 0 19.0574 0 18.0646V5.93536C0 4.94269 0.804703 4.13794 1.79742 4.13794H22.2026C23.1952 4.13794 24 4.94264 24 5.93536V18.0647C24 19.0574 23.1953 19.8621 22.2026 19.8621Z" fill="#F5F5F5"/>
<path d="M18.7058 13.5941L18.8569 14.1239L19.3817 12.5641L17.9259 13.3316L18.4731 13.396L16.7259 15.449L16.7107 15.4055L18.1062 12.516L18.3861 12.9906L18.5002 11.3488L17.2853 12.4589L17.831 12.3831L16.4355 15.2726L16.392 15.2878L16.9137 12.6429L17.3043 13.0314L17.0003 11.414L16.105 12.7949L16.6139 12.5837L16.0514 15.4356L15.8677 15.8159L15.6699 15.9485L15.5885 16.3611L14.8965 17.1741L15.4367 17.1306L15.3387 17.6276L15.5298 17.4995L15.5482 17.7287L15.8765 17.3431L16.1782 17.7931L16.3848 16.7457L16.6574 16.4255L16.6383 16.188L16.8219 15.8077L18.7058 13.5941Z" fill="#4173CD"/>
<path d="M6.13683 12.0435C6.19617 11.7767 6.15937 11.5267 6.05775 11.3728C5.90039 11.4692 5.76117 11.68 5.70183 11.9468C5.67436 12.0703 5.66944 12.1892 5.68012 12.2977L5.35345 11.8106C5.48648 11.7021 5.601 11.5164 5.65298 11.2828C5.71233 11.0159 5.67553 10.766 5.57391 10.6121C5.41655 10.7084 5.27733 10.9192 5.21798 11.1861C5.18639 11.3281 5.18367 11.4641 5.20191 11.5847L4.98103 11.2554C4.99209 11.0882 4.94072 10.8848 4.81748 10.691C4.67081 10.4604 4.46803 10.3096 4.28733 10.2726C4.24425 10.452 4.29483 10.6996 4.4415 10.9302C4.56614 11.1261 4.73081 11.2596 4.88855 11.3194L5.09095 11.6554C4.98942 11.5877 4.86511 11.5325 4.72298 11.5009C4.45617 11.4416 4.20619 11.4784 4.0523 11.58C4.14867 11.7373 4.35947 11.8766 4.62628 11.9359C4.85995 11.9879 5.07675 11.9629 5.23139 11.8884L5.53406 12.3908C5.44026 12.3351 5.33058 12.2892 5.20697 12.2617C4.94016 12.2023 4.69017 12.2391 4.53628 12.3408C4.63266 12.4981 4.84345 12.6373 5.11026 12.6967C5.33391 12.7465 5.54217 12.7257 5.69555 12.6587L5.97422 13.1212C5.88806 13.0747 5.79216 13.0348 5.6835 13.0107C5.41669 12.9514 5.1667 12.9882 5.01281 13.0898C5.10919 13.2471 5.31998 13.3864 5.5868 13.4457C5.80064 13.4932 6.00108 13.477 6.15248 13.4171L6.42126 13.8632C6.34406 13.8254 6.26091 13.7923 6.16744 13.7715C5.90062 13.7122 5.65064 13.749 5.49675 13.8506C5.59312 14.0079 5.80392 14.1472 6.07073 14.2065C6.27455 14.2519 6.46772 14.2404 6.61659 14.1875L6.86142 14.5938C6.79406 14.564 6.72248 14.5381 6.64397 14.5206C6.37716 14.4613 6.12717 14.4981 5.97328 14.5997C6.06966 14.757 6.28045 14.8963 6.54726 14.9556C6.74166 14.9988 6.92611 14.99 7.07194 14.9432L7.8495 16.2338L8.17978 16.0237L7.34039 14.7724C7.44455 14.66 7.5308 14.4968 7.57401 14.3024C7.63336 14.0356 7.59656 13.7856 7.49494 13.6317C7.33758 13.7281 7.19836 13.9389 7.13901 14.2057C7.12153 14.2842 7.11473 14.3601 7.11309 14.4336L6.84891 14.0397C6.95995 13.9273 7.05225 13.7572 7.09753 13.5534C7.15687 13.2866 7.12008 13.0366 7.01845 12.8827C6.86109 12.9791 6.72187 13.1899 6.66253 13.4566C6.64172 13.5501 6.63656 13.6394 6.63801 13.7253L6.34795 13.2928C6.46636 13.181 6.56606 13.0064 6.61364 12.7926C6.67298 12.5258 6.63619 12.2758 6.53456 12.122C6.3772 12.2183 6.23798 12.4291 6.17864 12.6959C6.1545 12.8045 6.14995 12.9083 6.15553 13.006L5.85469 12.5576C5.97998 12.4469 6.08705 12.2671 6.13683 12.0435Z" fill="#73AF00"/>
<path d="M9.51722 12L9.10341 9.51724H9.03938C8.66377 9.51724 8.39845 9.14922 8.51728 8.79283L8.51864 8.78884C8.61356 8.50403 8.46277 8.19574 8.17969 8.09584L2.49811 6.09063C2.17608 5.97695 1.87275 6.30081 2.00728 6.61474L2.62341 8.05234C2.80069 8.46592 3.10791 8.81045 3.49856 9.03372L5.07464 9.93433C5.54545 10.2033 6.07828 10.3449 6.62053 10.3449H6.62063L6.762 10.6276C7.18261 11.4687 8.04234 12 8.9827 12H9.51722Z" fill="#FFE15A"/>
<path d="M14.4827 11.9998L14.8966 9.51698H14.9606C15.3362 9.51698 15.6015 9.14896 15.4827 8.79257L15.4813 8.78859C15.3864 8.50378 15.5372 8.19548 15.8203 8.09559L21.4996 6.09112C21.8225 5.97712 22.1266 6.30192 21.9917 6.61668L21.3766 8.05204C21.1993 8.46562 20.8921 8.81015 20.5014 9.03342L18.9254 9.93403C18.4546 10.203 17.9217 10.3446 17.3795 10.3446H17.3793L17.238 10.6273C16.8173 11.4684 15.9577 11.9998 15.0173 11.9998H14.4827Z" fill="#FFE15A"/>
<path d="M13.6551 9.10321L12.6287 6.70823C12.4983 6.40391 12.1991 6.20667 11.868 6.20667H11.5861L11.1723 6.62048H10.7585L10.3447 7.03429H10.9222C11.0685 7.03429 11.1673 7.18396 11.1096 7.31859L10.3447 9.10326H13.6551V9.10321V9.10321Z" fill="#FFE15A"/>
<path d="M10.7586 13.2411L9.93099 11.9998L9.17311 12.7576C8.85516 13.0756 8.61558 13.4632 8.47341 13.8898L8.27583 14.4825L7.86202 14.8963H7.32418C7.14661 14.8963 6.98424 14.9967 6.90483 15.1554L6.78816 15.3888C6.71119 15.5428 6.82313 15.7238 6.99521 15.7238H7.86202L8.13793 15.1721L9.45713 14.5125C9.49693 14.4926 9.53321 14.4664 9.56466 14.435L10.7586 13.2411Z" fill="#FFE15A"/>
<path d="M13.2413 13.2411L14.0689 11.9998L14.8268 12.7576C15.1448 13.0756 15.3843 13.4632 15.5265 13.8898L15.7241 14.4825L16.1379 14.8963H16.6757C16.8533 14.8963 17.0157 14.9967 17.0951 15.1554L17.2118 15.3888C17.2887 15.5428 17.1768 15.7238 17.0047 15.7238H16.1379L15.862 15.1721L14.5428 14.5125C14.503 14.4926 14.4668 14.4664 14.4353 14.435L13.2413 13.2411Z" fill="#FFE15A"/>
<path d="M10.7586 13.6549L9.7529 15.331C9.61725 15.5571 9.66656 15.8484 9.86911 16.0171L11.3962 17.2897C11.7459 17.5812 12.2538 17.5812 12.6035 17.2897L14.1306 16.0171C14.3332 15.8483 14.3825 15.557 14.2468 15.331L13.2412 13.6549H10.7586V13.6549Z" fill="#FFE15A"/>
<path d="M12 8.68964C12 8.68964 10.7586 9.10345 9.10345 8.68964C9.10345 8.68964 9.10345 9.51721 9.10345 10.3448C9.10345 11.1724 9.51727 13.6552 12 14.4827C14.4828 13.6552 14.8965 11.1724 14.8965 10.3448C14.8965 9.51721 14.8965 8.68964 14.8965 8.68964C13.2414 9.10345 12 8.68964 12 8.68964Z" fill="#F5F5F5"/>
<path d="M12 8.68964C12 8.68964 10.7586 9.10345 9.10345 8.68964C9.10345 8.68964 9.10345 9.51721 9.10345 10.3448H14.8965C14.8965 9.51721 14.8965 8.68964 14.8965 8.68964C13.2414 9.10345 12 8.68964 12 8.68964Z" fill="#41479B"/>
<path d="M9.96862 12.992V10.3448H9.51722V12.1868C9.6345 12.4561 9.78187 12.729 9.96862 12.992Z" fill="#FF4B55"/>
<path d="M10.8715 10.3447H10.4201V13.5209C10.5568 13.6563 10.7062 13.7852 10.8715 13.9052V10.3447Z" fill="#FF4B55"/>
<path d="M14.0314 12.9919C14.2182 12.7288 14.3655 12.456 14.4828 12.1866V10.3447H14.0314V12.9919Z" fill="#FF4B55"/>
<path d="M11.7743 10.3447H11.3229V14.1853C11.4643 14.2615 11.6149 14.3308 11.7743 14.3938V10.3447Z" fill="#FF4B55"/>
<path d="M13.58 10.3447H13.1286V13.9052C13.2938 13.7852 13.4432 13.6563 13.58 13.5209V10.3447Z" fill="#FF4B55"/>
<path d="M12.6771 14.1853V10.3447H12.2257V14.3938C12.3851 14.3308 12.5358 14.2615 12.6771 14.1853Z" fill="#FF4B55"/>
<path d="M7.6493 15.2333L7.35544 15.4142L7.84913 16.2337L8.17941 16.0236L7.6493 15.2333Z" fill="#73AF00"/>
<path d="M16.8114 15.8294L16.5517 15.3102H16.0761L16.0514 15.4354L15.8677 15.8157L15.6699 15.9484L15.5885 16.361L14.8966 17.174L15.4367 17.1305L15.3387 17.6274L15.5298 17.4993L15.5482 17.7286L15.8765 17.3429L16.1782 17.793L16.3849 16.7456L16.6574 16.4253L16.6383 16.1878L16.8114 15.8294Z" fill="#4173CD"/>
<path d="M3.96061 10.3448H2.89655L2.99203 10.6313L2.36452 12.8276L1.737 10.6313L1.83253 10.3448H0.768471L1.05497 10.7268L1.92802 13.7825L1.83253 14.069H2.89655L2.80106 13.7825L3.67411 10.7268L3.96061 10.3448Z" fill="#4173CD"/>
<path d="M21.9902 10.6107L22.1676 10.3447H21.9902H21.2809H21.1035L21.2809 10.6107V13.8028L21.1035 14.0689H21.2809H21.9902H22.1676L21.9902 13.8028V10.6107Z" fill="#4173CD"/>
</svg>
