<svg xmlns="http://www.w3.org/2000/svg" width="24" height="24" viewBox="0 0 24 24" fill="none"><rect width="24" height="24" fill="none"/>
<path d="M22.2025 19.8621H1.79742C0.804703 19.8621 0 19.0574 0 18.0646V5.93536C0 4.94269 0.804703 4.13794 1.79742 4.13794H22.2025C23.1952 4.13794 24 4.94264 24 5.93536V18.0646C24 19.0574 23.1952 19.8621 22.2025 19.8621Z" fill="#73AF00"/>
<path d="M24 7.86192H0V16.1377H24V7.86192Z" fill="#FFE15A"/>
<path d="M0.540328 4.65121C0.207047 4.97751 0 5.43215 0 5.93536V18.0646C0 18.5678 0.207047 19.0225 0.540328 19.3488L8.27588 12L0.540328 4.65121Z" fill="#FF4B55"/>
<path d="M13.0452 10.1141L13.4693 11.3857L14.8096 11.3961C14.9832 11.3974 15.0551 11.6189 14.9155 11.722L13.8373 12.5182L14.2417 13.7962C14.294 13.9616 14.1056 14.0985 13.9644 13.9976L12.874 13.2182L11.7835 13.9976C11.6424 14.0985 11.454 13.9616 11.5063 13.7962L11.9107 12.5182L10.8324 11.722C10.6928 11.6189 10.7648 11.3974 10.9383 11.3961L12.2787 11.3857L12.7028 10.1141C12.7575 9.94946 12.9903 9.94946 13.0452 10.1141Z" fill="#464655"/>
<path d="M19.2328 10.1142L19.6568 11.3857L20.9972 11.3961C21.1707 11.3975 21.2427 11.6189 21.1031 11.722L20.0248 12.5182L20.4292 13.7962C20.4816 13.9617 20.2932 14.0985 20.152 13.9976L19.0615 13.2182L17.9711 13.9976C17.8299 14.0985 17.6415 13.9617 17.6938 13.7962L18.0982 12.5182L17.02 11.722C16.8804 11.6189 16.9523 11.3975 17.1259 11.3961L18.4662 11.3857L18.8903 10.1142C18.9449 9.94949 19.1778 9.94949 19.2328 10.1142Z" fill="#464655"/>
</svg>
