<svg xmlns="http://www.w3.org/2000/svg" width="24" height="24" viewBox="0 0 24 24" fill="none"><rect width="24" height="24" fill="none"/>
<path d="M22.2026 4.13792H1.79742C1.37648 4.13792 0.989619 4.283 0.683338 4.52539L9.64448 9.3793H24V5.93535C24 4.94263 23.1953 4.13792 22.2026 4.13792Z" fill="#464655"/>
<path d="M0.683338 19.4746C0.989666 19.717 1.37648 19.8621 1.79742 19.8621H22.2026C23.1952 19.8621 24 19.0574 24 18.0647V14.6207H9.64453L0.683338 19.4746Z" fill="#73AF00"/>
<path d="M14.1735 11.8325C14.3065 11.9046 14.3065 12.0955 14.1735 12.1675L9.64453 14.6207H24V9.3793H9.64449L14.1735 11.8325Z" fill="#F5F5F5"/>
<path d="M14.1735 12.1675C14.3065 12.0955 14.3065 11.9045 14.1735 11.8325L9.64448 9.37934L0.683344 4.52539C0.267281 4.85459 0 5.36356 0 5.93534V9.3793V14.6207V18.0646C0 18.6364 0.267281 19.1454 0.683344 19.4746L9.64448 14.6207L14.1735 12.1675Z" fill="#FF4B55"/>
<path d="M4.47183 10.9295L4.71778 11.463L5.2882 11.3227C5.32378 11.314 5.35331 11.3509 5.33686 11.3837L5.07314 11.9086L5.53852 12.2671C5.56758 12.2895 5.55703 12.3357 5.52113 12.3432L4.9463 12.4643L4.95619 13.0516C4.9568 13.0883 4.91414 13.1088 4.88588 13.0855L4.43283 12.7116L3.97978 13.0855C3.95147 13.1089 3.90886 13.0883 3.90947 13.0516L3.91936 12.4643L3.34453 12.3432C3.30863 12.3357 3.29808 12.2895 3.32714 12.2671L3.79252 11.9086L3.5288 11.3837C3.51234 11.3509 3.54183 11.3139 3.57745 11.3227L4.14788 11.463L4.39383 10.9295C4.40911 10.8963 4.45645 10.8963 4.47183 10.9295Z" fill="#F5F5F5"/>
</svg>
