<svg xmlns="http://www.w3.org/2000/svg" width="24" height="24" viewBox="0 0 24 24" fill="none"><rect width="24" height="24" fill="none"/>
<path d="M22.2025 19.8621H1.79742C0.804703 19.8621 0 19.0574 0 18.0646V5.93536C0 4.94269 0.804703 4.13794 1.79742 4.13794H22.2025C23.1952 4.13794 24 4.94264 24 5.93536V18.0646C24 19.0574 23.1952 19.8621 22.2025 19.8621Z" fill="#41479B"/>
<path d="M24 13.2413H0V14.3447H24V13.2413Z" fill="#F5F5F5"/>
<path d="M24 15.4487H0V16.5522H24V15.4487Z" fill="#F5F5F5"/>
<path d="M24 14.3447H0V15.4482H24V14.3447Z" fill="#FF4B55"/>
<path d="M7.95226 10.9999L8.07919 11.3804L8.4803 11.3835C8.51138 11.3838 8.52427 11.4234 8.49929 11.4418L8.1766 11.6802L8.29759 12.0626C8.30696 12.0922 8.27321 12.1167 8.24795 12.0987L7.92155 11.8654L7.59516 12.0987C7.56985 12.1167 7.53615 12.0922 7.54552 12.0626L7.66651 11.6802L7.34382 11.4418C7.31884 11.4234 7.33173 11.3837 7.3628 11.3835L7.76391 11.3804L7.89085 10.9999C7.9007 10.9704 7.94246 10.9704 7.95226 10.9999Z" fill="#FFE15A"/>
<path d="M7.95226 17.687L8.07919 18.0675L8.4803 18.0706C8.51138 18.0709 8.52427 18.1105 8.49929 18.1289L8.1766 18.3672L8.29759 18.7497C8.30696 18.7793 8.27321 18.8038 8.24795 18.7857L7.92155 18.5525L7.59516 18.7857C7.56985 18.8038 7.53615 18.7793 7.54552 18.7497L7.66651 18.3672L7.34382 18.1289C7.31884 18.1105 7.33173 18.0708 7.3628 18.0706L7.76391 18.0675L7.89085 17.687C7.9007 17.6575 7.94246 17.6575 7.95226 17.687Z" fill="#FFE15A"/>
<path d="M5.78163 18.0606L6.10418 17.8221L6.43423 18.0501C6.45977 18.0677 6.49315 18.0427 6.4833 18.0132L6.35618 17.6327L6.67502 17.3892C6.69973 17.3704 6.68618 17.3309 6.6551 17.3312L6.25399 17.3345L6.12096 16.9561C6.11065 16.9267 6.06898 16.9274 6.0596 16.9571L5.9388 17.3396L5.53779 17.3492C5.50671 17.3499 5.49448 17.3898 5.51979 17.4078L5.84627 17.6409L5.73143 18.0252C5.72252 18.0551 5.7566 18.0791 5.78163 18.0606Z" fill="#FFE15A"/>
<path d="M6.42672 12.6245L6.0992 12.3928L5.77403 12.6278C5.74886 12.646 5.71497 12.6216 5.7242 12.5919L5.84327 12.2089L5.51936 11.9722C5.49428 11.9539 5.50694 11.9142 5.53802 11.9137L5.93913 11.9086L6.06414 11.5275C6.0738 11.498 6.11552 11.4978 6.1255 11.5272L6.25436 11.9071L6.65552 11.9082C6.6866 11.9083 6.69967 11.9478 6.67474 11.9664L6.35322 12.2063L6.47617 12.5882C6.48574 12.6177 6.45213 12.6424 6.42672 12.6245Z" fill="#FFE15A"/>
<path d="M9.44771 12.6294L9.77026 12.3909L10.1003 12.6189C10.1258 12.6365 10.1592 12.6115 10.1494 12.582L10.0223 12.2015L10.3411 11.958C10.3658 11.9391 10.3523 11.8997 10.3212 11.9L9.92007 11.9033L9.78704 11.5249C9.77672 11.4955 9.73505 11.4962 9.72568 11.5258L9.60488 11.9084L9.20387 11.918C9.17279 11.9187 9.16055 11.9585 9.18587 11.9766L9.51235 12.2097L9.39751 12.594C9.3886 12.6238 9.42272 12.6478 9.44771 12.6294Z" fill="#FFE15A"/>
<path d="M10.0929 18.0557L9.76534 17.8241L9.44017 18.059C9.415 18.0772 9.38111 18.0529 9.39034 18.0232L9.5094 17.6401L9.1855 17.4035C9.16042 17.3851 9.17308 17.3454 9.20416 17.345L9.60526 17.3399L9.73028 16.9587C9.73994 16.9292 9.78166 16.929 9.79164 16.9584L9.9205 17.3383L10.3217 17.3394C10.3527 17.3395 10.3658 17.3791 10.3409 17.3976L10.0194 17.6375L10.1423 18.0194C10.1518 18.049 10.1182 18.0736 10.0929 18.0557Z" fill="#FFE15A"/>
<path d="M5.30186 15.7184L4.90076 15.7211L4.76838 15.3424C4.75816 15.3131 4.71644 15.3137 4.70702 15.3433L4.58557 15.7257L4.18451 15.7346C4.15343 15.7352 4.1411 15.7751 4.16641 15.7932L4.49252 16.0268L4.37702 16.411C4.36807 16.4407 4.40215 16.4648 4.42718 16.4463L4.75015 16.2084L5.07982 16.4369C5.10536 16.4546 5.13874 16.4296 5.12894 16.4001L5.00243 16.0195L5.32165 15.7766C5.3464 15.7577 5.33294 15.7182 5.30186 15.7184Z" fill="#FFE15A"/>
<path d="M4.18454 13.6567L4.5856 13.6491L4.70827 13.2672C4.71779 13.2376 4.75946 13.2372 4.76963 13.2665L4.90079 13.6456L5.30194 13.6443C5.33302 13.6442 5.34638 13.6837 5.32154 13.7024L5.00152 13.9443L5.12682 14.3254C5.13652 14.3549 5.1031 14.3798 5.0776 14.362L4.74868 14.1324L4.42496 14.3693C4.39988 14.3877 4.3659 14.3635 4.3749 14.3338L4.49161 13.9499L4.16625 13.7153C4.14104 13.697 4.1535 13.6573 4.18454 13.6567Z" fill="#FFE15A"/>
<path d="M11.6577 13.6419L11.2566 13.6445L11.1242 13.2658C11.114 13.2365 11.0723 13.2371 11.0629 13.2667L10.9414 13.6491L10.5404 13.658C10.5093 13.6587 10.497 13.6985 10.5223 13.7166L10.8484 13.9503L10.7329 14.3344C10.7239 14.3642 10.758 14.3882 10.783 14.3698L11.106 14.1319L11.4357 14.3604C11.4612 14.3781 11.4946 14.3531 11.4848 14.3236L11.3583 13.9429L11.6776 13.7C11.7023 13.6812 11.6888 13.6417 11.6577 13.6419Z" fill="#FFE15A"/>
<path d="M10.5405 15.7333L10.9415 15.7257L11.0642 15.3438C11.0737 15.3142 11.1154 15.3137 11.1256 15.3431L11.2567 15.7222L11.6579 15.7208C11.689 15.7207 11.7023 15.7603 11.6775 15.779L11.3575 16.0208L11.4828 16.4019C11.4925 16.4315 11.459 16.4563 11.4335 16.4385L11.1046 16.2089L10.7809 16.4458C10.7558 16.4642 10.7218 16.44 10.7308 16.4103L10.8476 16.0265L10.5222 15.7918C10.497 15.7737 10.5094 15.7339 10.5405 15.7333Z" fill="#FFE15A"/>
</svg>
