<svg xmlns="http://www.w3.org/2000/svg" width="24" height="24" viewBox="0 0 24 24" fill="none"><rect width="24" height="24" fill="none"/>
<path d="M22.2026 19.8621H1.79742C0.804703 19.8621 0 19.0574 0 18.0646V5.93536C0 4.94269 0.804703 4.13794 1.79742 4.13794H22.2026C23.1952 4.13794 24 4.94264 24 5.93536V18.0647C24 19.0574 23.1953 19.8621 22.2026 19.8621Z" fill="#F5F5F5"/>
<path d="M24 10.7586H13.2414V4.13794H10.7586V10.7586H0V13.2414H10.7586V19.8621H13.2414V13.2414H24V10.7586Z" fill="#FF4B55"/>
<path d="M7.03453 6.88275C6.62466 6.92395 6.22313 6.96525 5.82103 7.00659C5.86238 6.60445 5.90363 6.20292 5.94492 5.79309C5.56903 5.8417 5.18977 5.8417 4.81388 5.79309C4.85508 6.20297 4.89638 6.6045 4.93777 7.00659C4.53563 6.96529 4.13405 6.924 3.72427 6.88275C3.77288 7.25859 3.77288 7.6379 3.72427 8.01375C4.13414 7.97254 4.53567 7.93125 4.93777 7.8899C4.89642 8.29204 4.85513 8.69358 4.81388 9.1034C5.18977 9.05479 5.56903 9.05479 5.94492 9.1034C5.90372 8.69358 5.86238 8.292 5.82103 7.8899C6.22317 7.9312 6.6247 7.9725 7.03453 8.01375C6.98592 7.6379 6.98592 7.25854 7.03453 6.88275Z" fill="#FF4B55"/>
<path d="M20.2759 6.88275C19.866 6.92395 19.4645 6.96525 19.0624 7.00659C19.1037 6.60445 19.145 6.20292 19.1863 5.79309C18.8104 5.8417 18.4311 5.8417 18.0552 5.79309C18.0964 6.20297 18.1377 6.6045 18.1791 7.00659C17.777 6.96529 17.3754 6.924 16.9656 6.88275C17.0142 7.25859 17.0142 7.6379 16.9656 8.01375C17.3755 7.97254 17.777 7.93125 18.1791 7.8899C18.1378 8.29204 18.0965 8.69358 18.0552 9.1034C18.4311 9.05479 18.8104 9.05479 19.1863 9.1034C19.1451 8.69358 19.1037 8.292 19.0624 7.8899C19.4645 7.9312 19.866 7.9725 20.2759 8.01375C20.2273 7.6379 20.2273 7.25854 20.2759 6.88275Z" fill="#FF4B55"/>
<path d="M7.03453 15.9862C6.62466 16.0274 6.22313 16.0687 5.82103 16.11C5.86238 15.7079 5.90363 15.3064 5.94492 14.8965C5.56903 14.9452 5.18977 14.9452 4.81388 14.8965C4.85508 15.3064 4.89638 15.708 4.93777 16.11C4.53563 16.0687 4.13405 16.0275 3.72427 15.9862C3.77288 16.362 3.77288 16.7414 3.72427 17.1172C4.13414 17.076 4.53567 17.0347 4.93777 16.9934C4.89642 17.3955 4.85513 17.797 4.81388 18.2069C5.18977 18.1582 5.56903 18.1582 5.94492 18.2069C5.90372 17.797 5.86238 17.3955 5.82103 16.9934C6.22317 17.0347 6.6247 17.076 7.03453 17.1172C6.98592 16.7414 6.98592 16.362 7.03453 15.9862Z" fill="#FF4B55"/>
<path d="M20.2759 15.9862C19.866 16.0274 19.4645 16.0687 19.0624 16.11C19.1037 15.7079 19.145 15.3064 19.1863 14.8965C18.8104 14.9452 18.4311 14.9452 18.0552 14.8965C18.0964 15.3064 18.1377 15.708 18.1791 16.11C17.777 16.0687 17.3754 16.0275 16.9656 15.9862C17.0142 16.362 17.0142 16.7414 16.9656 17.1172C17.3755 17.076 17.777 17.0347 18.1791 16.9934C18.1378 17.3955 18.0965 17.797 18.0552 18.2069C18.4311 18.1582 18.8104 18.1582 19.1863 18.2069C19.1451 17.797 19.1037 17.3955 19.0624 16.9934C19.4645 17.0347 19.866 17.076 20.2759 17.1172C20.2273 16.7414 20.2273 16.362 20.2759 15.9862Z" fill="#FF4B55"/>
</svg>
