<svg xmlns="http://www.w3.org/2000/svg" width="24" height="24" viewBox="0 0 24 24" fill="none"><rect width="24" height="24" fill="none"/>
<path d="M22.2026 4.13794H1.79742C0.804703 4.13794 0 4.94264 0 5.93536V9.37931H24V5.93536C24 4.94264 23.1953 4.13794 22.2026 4.13794Z" fill="#FFE15A"/>
<path d="M0 18.0647C0 19.0573 0.804703 19.8621 1.79742 19.8621H22.2026C23.1952 19.8621 24 19.0574 24 18.0647V14.6207H0V18.0647Z" fill="#FF4B55"/>
<path d="M24 9.37921H0V14.6203H24V9.37921Z" fill="#41479B"/>
<path d="M8.35024 13.0077L8.45393 13.3187L8.78163 13.3212C8.82405 13.3215 8.84168 13.3757 8.80755 13.4009L8.54393 13.5955L8.64279 13.9081C8.65558 13.9485 8.6095 13.982 8.57496 13.9573L8.30833 13.7667L8.04171 13.9573C8.00721 13.9819 7.96113 13.9485 7.97388 13.9081L8.07274 13.5955L7.80911 13.4009C7.77499 13.3757 7.79257 13.3215 7.83504 13.3212L8.16283 13.3187L8.26652 13.0077C8.27988 12.9675 8.33683 12.9675 8.35024 13.0077Z" fill="#F5F5F5"/>
<path d="M8.98694 12.018L8.93139 12.341L9.21902 12.4981C9.25624 12.5185 9.24616 12.5746 9.20416 12.5806L8.87978 12.6276L8.81922 12.9497C8.81135 12.9914 8.755 12.9991 8.7362 12.9611L8.59127 12.6671L8.26619 12.709C8.2241 12.7145 8.1993 12.6632 8.22972 12.6336L8.46456 12.405L8.32422 12.1088C8.30608 12.0704 8.34714 12.031 8.38469 12.0508L8.6747 12.2034L8.91306 11.9784C8.94395 11.9492 8.99411 11.9761 8.98694 12.018Z" fill="#F5F5F5"/>
<path d="M9.79272 11.1517L9.63888 11.4411L9.86289 11.6803C9.89191 11.7113 9.86481 11.7614 9.823 11.754L9.50017 11.6971L9.34188 11.9841C9.32139 12.0213 9.26538 12.011 9.25947 11.969L9.21381 11.6444L8.89192 11.5826C8.85025 11.5745 8.84275 11.5181 8.88091 11.4995L9.17547 11.3558L9.13483 11.0306C9.12953 10.9885 9.18091 10.9639 9.21039 10.9944L9.43806 11.2301L9.73478 11.091C9.77336 11.073 9.81259 11.1142 9.79272 11.1517Z" fill="#F5F5F5"/>
<path d="M10.7623 10.6142L10.5362 10.8515L10.6875 11.1422C10.7071 11.1799 10.6675 11.2208 10.6292 11.2024L10.3337 11.0606L10.1039 11.2944C10.0742 11.3246 10.023 11.2996 10.0287 11.2575L10.0722 10.9326L9.77886 10.7863C9.74089 10.7673 9.74886 10.7109 9.79057 10.7033L10.113 10.6443L10.1615 10.3202C10.1678 10.2782 10.2239 10.2684 10.244 10.3057L10.3998 10.5941L10.7231 10.5401C10.765 10.5332 10.7916 10.5835 10.7623 10.6142Z" fill="#F5F5F5"/>
<path d="M11.8768 10.3652L11.5954 10.5332L11.6633 10.8538C11.6721 10.8954 11.6229 10.9242 11.591 10.8962L11.3443 10.6805L11.0603 10.8441C11.0235 10.8653 10.9809 10.8275 10.9976 10.7885L11.1266 10.4871L10.8832 10.2676C10.8517 10.2392 10.8746 10.187 10.9168 10.1909L11.2432 10.2204L11.3768 9.92106C11.3941 9.88234 11.4508 9.88787 11.4602 9.92922L11.5331 10.2488L11.859 10.2833C11.901 10.2879 11.9133 10.3435 11.8768 10.3652Z" fill="#F5F5F5"/>
<path d="M15.6496 13.0077L15.5459 13.3187L15.2182 13.3212C15.1758 13.3215 15.1581 13.3757 15.1922 13.4009L15.4559 13.5955L15.357 13.9081C15.3442 13.9485 15.3903 13.982 15.4248 13.9573L15.6915 13.7667L15.9581 13.9573C15.9926 13.9819 16.0387 13.9485 16.0259 13.9081L15.9271 13.5955L16.1907 13.4009C16.2249 13.3757 16.2073 13.3215 16.1648 13.3212L15.8371 13.3187L15.7334 13.0077C15.72 12.9675 15.663 12.9675 15.6496 13.0077Z" fill="#F5F5F5"/>
<path d="M15.0129 12.018L15.0685 12.341L14.7808 12.4981C14.7436 12.5185 14.7537 12.5746 14.7957 12.5806L15.1201 12.6276L15.1806 12.9497C15.1885 12.9914 15.2449 12.9991 15.2636 12.9611L15.4086 12.6671L15.7337 12.709C15.7758 12.7145 15.8006 12.6632 15.7701 12.6336L15.5353 12.405L15.6756 12.1088C15.6938 12.0704 15.6527 12.031 15.6152 12.0508L15.3251 12.2034L15.0868 11.9784C15.0559 11.9492 15.0057 11.9761 15.0129 12.018Z" fill="#F5F5F5"/>
<path d="M14.2071 11.1517L14.361 11.4411L14.137 11.6803C14.1079 11.7113 14.135 11.7614 14.1769 11.754L14.4997 11.6971L14.658 11.9841C14.6785 12.0213 14.7345 12.011 14.7404 11.969L14.786 11.6444L15.1079 11.5826C15.1496 11.5745 15.1571 11.5181 15.1189 11.4995L14.8244 11.3558L14.865 11.0306C14.8703 10.9885 14.8189 10.9639 14.7894 10.9944L14.5617 11.2301L14.265 11.091C14.2265 11.073 14.1873 11.1142 14.2071 11.1517Z" fill="#F5F5F5"/>
<path d="M13.2375 10.6142L13.4636 10.8515L13.3123 11.1422C13.2927 11.1799 13.3323 11.2208 13.3706 11.2024L13.6661 11.0606L13.896 11.2944C13.9257 11.3246 13.9769 11.2996 13.9712 11.2575L13.9277 10.9326L14.221 10.7863C14.259 10.7673 14.251 10.7109 14.2093 10.7033L13.8869 10.6443L13.8384 10.3202C13.8321 10.2782 13.776 10.2684 13.7558 10.3057L13.6001 10.5941L13.2768 10.5401C13.2349 10.5332 13.2083 10.5835 13.2375 10.6142Z" fill="#F5F5F5"/>
<path d="M12.123 10.3652L12.4045 10.5332L12.3366 10.8538C12.3278 10.8954 12.3769 10.9242 12.4089 10.8962L12.6556 10.6805L12.9396 10.8441C12.9764 10.8653 13.0189 10.8275 13.0022 10.7885L12.8733 10.4871L13.1166 10.2676C13.1481 10.2392 13.1253 10.187 13.0831 10.1909L12.7566 10.2204L12.623 9.92106C12.6057 9.88234 12.5491 9.88787 12.5396 9.92922L12.4668 10.2488L12.1409 10.2833C12.0988 10.2879 12.0866 10.3435 12.123 10.3652Z" fill="#F5F5F5"/>
</svg>
