<svg xmlns="http://www.w3.org/2000/svg" width="24" height="24" viewBox="0 0 24 24" fill="none"><rect width="24" height="24" fill="none"/>
<path d="M22.2025 19.8621H1.79742C0.804703 19.8621 0 19.0573 0 18.0646V5.93536C0 4.94269 0.804703 4.13794 1.79742 4.13794H22.2025C23.1952 4.13794 24 4.94264 24 5.93536V18.0646C24 19.0573 23.1952 19.8621 22.2025 19.8621Z" fill="#41479B"/>
<path d="M24 11.1724H12.8276V4.13794H11.1724V11.1724H0V12.8276H11.1724V19.8621H12.8276V12.8276H24V11.1724Z" fill="#F5F5F5"/>
<path d="M8.08171 9.52129C8.06985 9.45088 8.04313 9.36749 8.00938 9.31382C7.9423 9.2211 7.86468 9.15618 7.78949 9.11577C7.19704 8.84361 6.70105 8.89696 6.22775 8.89508C5.76027 8.90713 5.32293 8.98775 4.9679 9.06547C4.87152 9.08488 4.78804 9.09936 4.69874 9.11615C4.7429 9.02493 4.90475 8.91079 5.12272 8.8416C5.6541 8.6601 6.26066 8.58721 6.85682 8.47105C7.00738 8.44157 7.16 8.40702 7.31629 8.36258C7.40043 8.33375 7.47125 8.31126 7.57035 8.26522C7.63391 8.22927 7.69649 8.18404 7.75002 8.13571C7.80702 8.08443 7.80266 8.07008 7.832 8.03549C7.96738 7.77782 7.83922 7.59435 7.73179 7.49854C7.62824 7.41355 7.541 7.38036 7.45799 7.34619C7.29683 7.28966 7.14754 7.25422 7.00344 7.22418C6.7258 7.16863 6.45285 7.11402 6.18561 7.06054C6.05868 7.03115 5.93591 6.99852 5.82819 6.95896C5.73308 6.9336 5.59869 6.83961 5.61866 6.86525C5.37308 6.84407 5.95499 6.57018 6.37457 6.41718C6.48608 6.36796 6.59694 6.31827 6.71052 6.24815C6.82194 6.1745 6.93674 6.11202 7.06054 5.90577C7.08486 5.86297 7.08383 5.85257 7.09658 5.82458L7.11074 5.789C7.14144 5.67936 7.12457 5.70894 7.13169 5.66141C7.14618 5.54638 7.10104 5.42343 7.0296 5.321C6.88377 5.16341 6.73874 5.11832 6.63102 5.08813C6.18552 4.98257 5.86499 5.01144 5.5865 5.01252C5.05841 5.03736 4.75658 5.05152 4.75658 5.05152L4.73619 5.05246C4.73558 5.05251 4.73502 5.0525 4.73436 5.05255C4.56557 5.06244 4.4368 5.20724 4.44669 5.37599C4.44763 5.39249 4.45536 5.40632 4.45879 5.42193C4.21963 5.48783 3.84121 5.55524 3.46682 5.46697C3.40982 5.45385 3.35718 5.48811 3.344 5.54268C3.33088 5.59771 3.36515 5.65269 3.41971 5.66549C3.5668 5.70018 3.71272 5.71377 3.85185 5.71377C4.14739 5.71377 4.39986 5.65363 4.57227 5.6008C4.62786 5.6421 4.69546 5.66811 4.76999 5.66375C4.76999 5.66375 5.07496 5.6459 5.60868 5.61468C5.85857 5.60568 6.19438 5.5925 6.4715 5.65761C6.49443 5.66118 6.50671 5.6683 6.5219 5.67472C6.52405 5.65016 6.47718 5.71935 6.40391 5.75493C6.3328 5.80082 6.24027 5.84479 6.14399 5.88847C5.94711 5.97768 5.72183 6.05436 5.47208 6.18875C5.35152 6.25991 5.20246 6.33219 5.07861 6.54365C5.02072 6.64161 4.99325 6.8 5.02368 6.91166L5.03268 6.95718L5.03779 6.97968L5.0405 6.99083C5.02133 6.95104 5.06966 7.05805 5.06586 7.0484L5.09085 7.09002C5.11302 7.12171 5.10955 7.13483 5.1628 7.19015C5.2055 7.23636 5.25374 7.28061 5.30347 7.31924C5.34707 7.34924 5.3796 7.3634 5.41883 7.38561C5.49613 7.43118 5.5663 7.45227 5.63952 7.481C5.7839 7.53186 5.92447 7.56641 6.06486 7.59744C6.33585 7.64844 6.61274 7.70052 6.89432 7.75354C7.01239 7.77636 7.12288 7.80515 7.22502 7.8366C7.09419 7.88375 6.9111 7.93129 6.75318 7.96171C6.17872 8.08293 5.56958 8.15624 4.95004 8.37383C4.79497 8.43285 4.63611 8.5034 4.48035 8.62269C4.33368 8.73383 4.1795 8.9555 4.19924 9.19902C4.14669 9.20638 4.08632 9.21711 4.03775 9.2225C3.51219 9.29207 3.29132 9.19954 3.30557 9.19686C3.23694 9.15636 3.14849 9.17905 3.10799 9.24772C3.06744 9.3163 3.09018 9.4048 3.1588 9.4453C3.1588 9.4453 3.2489 9.50647 3.40972 9.54172C3.56975 9.57791 3.7949 9.5945 4.06911 9.5729C4.14463 9.56774 4.23308 9.55644 4.31615 9.54768C4.37357 9.63046 4.44046 9.72177 4.50275 9.76602C4.64755 9.88747 4.80088 9.96515 4.95369 10.0332C5.56883 10.2711 6.18364 10.3211 6.78308 10.2975C7.08402 10.2749 7.38018 10.2398 7.6843 10.1041C7.8261 10.0379 8.02072 9.93379 8.08082 9.63252C8.081 9.59394 8.08761 9.57636 8.08171 9.52129ZM7.6393 9.61616C7.63147 9.57163 7.60696 9.67265 7.49211 9.70049C7.29444 9.78735 7.02463 9.8271 6.75941 9.84107C6.22457 9.85865 5.6405 9.79621 5.13969 9.5931C5.06099 9.55672 4.99677 9.51093 4.92922 9.46715C4.96635 9.46147 4.99855 9.45754 5.03661 9.45154C5.40875 9.39224 5.79665 9.32244 6.24219 9.31508C6.66655 9.3073 7.20693 9.31316 7.56575 9.49166C7.60743 9.51411 7.62566 9.5375 7.63944 9.55161C7.63944 9.55161 7.62754 9.53732 7.6408 9.52822C7.64671 9.53732 7.6393 9.58813 7.6393 9.61616Z" fill="#F5F5F5"/>
<path d="M20.9094 9.52129C20.8975 9.45088 20.8708 9.36749 20.837 9.31382C20.77 9.2211 20.6923 9.15618 20.6171 9.11577C20.0247 8.84361 19.5287 8.89696 19.0554 8.89508C18.5879 8.90713 18.1506 8.98775 17.7955 9.06547C17.6992 9.08488 17.6157 9.09936 17.5264 9.11615C17.5705 9.02493 17.7324 8.91079 17.9504 8.8416C18.4817 8.6601 19.0883 8.58721 19.6845 8.47105C19.835 8.44157 19.9877 8.40702 20.1439 8.36258C20.2281 8.33375 20.2989 8.31126 20.398 8.26522C20.4616 8.22927 20.5241 8.18404 20.5777 8.13571C20.6347 8.08443 20.6303 8.07008 20.6597 8.03549C20.795 7.77782 20.6669 7.59435 20.5594 7.49854C20.4559 7.41355 20.3687 7.38036 20.2856 7.34619C20.1245 7.28966 19.9752 7.25422 19.8311 7.22418C19.5535 7.16863 19.2805 7.11402 19.0133 7.06054C18.8863 7.03115 18.7636 6.99852 18.6558 6.95896C18.5607 6.9336 18.4263 6.83961 18.4463 6.86525C18.2007 6.84407 18.7826 6.57018 19.2022 6.41718C19.3137 6.36796 19.4246 6.31827 19.5382 6.24815C19.6496 6.1745 19.7644 6.11202 19.8882 5.90577C19.9125 5.86297 19.9115 5.85257 19.9242 5.82458L19.9384 5.789C19.9691 5.67936 19.9522 5.70894 19.9593 5.66141C19.9738 5.54638 19.9287 5.42343 19.8572 5.321C19.7114 5.16341 19.5664 5.11832 19.4587 5.08813C19.0132 4.98257 18.6926 5.01144 18.4142 5.01252C17.8861 5.03736 17.5842 5.05152 17.5842 5.05152L17.5638 5.05246C17.5632 5.05251 17.5627 5.0525 17.562 5.05255C17.3932 5.06244 17.2645 5.20724 17.2743 5.37599C17.2753 5.39249 17.283 5.40632 17.2864 5.42193C17.0473 5.48783 16.6689 5.55524 16.2945 5.46697C16.2375 5.45385 16.1848 5.48811 16.1717 5.54268C16.1585 5.59771 16.1928 5.65269 16.2474 5.66549C16.3945 5.70018 16.5404 5.71377 16.6795 5.71377C16.975 5.71377 17.2275 5.65363 17.3999 5.6008C17.4555 5.6421 17.5231 5.66811 17.5976 5.66375C17.5976 5.66375 17.9026 5.6459 18.4363 5.61468C18.6862 5.60568 19.022 5.5925 19.2992 5.65761C19.3221 5.66118 19.3344 5.6683 19.3495 5.67472C19.3517 5.65016 19.3048 5.71935 19.2316 5.75493C19.1605 5.80082 19.0679 5.84479 18.9716 5.88847C18.7748 5.97768 18.5495 6.05436 18.2997 6.18875C18.1792 6.25991 18.0301 6.33219 17.9063 6.54365C17.8484 6.64161 17.8209 6.8 17.8513 6.91166L17.8603 6.95718L17.8654 6.97968L17.8682 6.99083C17.849 6.95104 17.8974 7.05805 17.8936 7.0484L17.9185 7.09002C17.9407 7.12171 17.9372 7.13483 17.9905 7.19015C18.0332 7.23636 18.0814 7.28061 18.1312 7.31924C18.1748 7.34924 18.2073 7.3634 18.2465 7.38561C18.3238 7.43118 18.394 7.45227 18.4672 7.481C18.6116 7.53186 18.7522 7.56641 18.8926 7.59744C19.1635 7.64844 19.4404 7.70052 19.722 7.75354C19.8401 7.77636 19.9506 7.80515 20.0527 7.8366C19.9219 7.88375 19.7388 7.93129 19.5809 7.96171C19.0064 8.08293 18.3973 8.15624 17.7777 8.37383C17.6227 8.43285 17.4638 8.5034 17.308 8.62269C17.1614 8.73383 17.0072 8.9555 17.0269 9.19902C16.9744 9.20638 16.914 9.21711 16.8655 9.2225C16.3399 9.29207 16.119 9.19954 16.1333 9.19686C16.0646 9.15636 15.9762 9.17905 15.9357 9.24772C15.8951 9.3163 15.9179 9.4048 15.9865 9.4453C15.9865 9.4453 16.0766 9.50647 16.2374 9.54172C16.3975 9.57791 16.6226 9.5945 16.8968 9.5729C16.9723 9.56774 17.0608 9.55644 17.1438 9.54768C17.2013 9.63046 17.2682 9.72177 17.3305 9.76602C17.4752 9.88747 17.6286 9.96515 17.7814 10.0332C18.3965 10.2711 19.0114 10.3211 19.6108 10.2975C19.9117 10.2749 20.2079 10.2398 20.512 10.1041C20.6538 10.0379 20.8484 9.93379 20.9085 9.63252C20.9086 9.59394 20.9152 9.57636 20.9094 9.52129ZM20.4669 9.61616C20.4591 9.57163 20.4346 9.67265 20.3197 9.70049C20.122 9.78735 19.8522 9.8271 19.587 9.84107C19.0522 9.85865 18.4681 9.79621 17.9673 9.5931C17.8886 9.55672 17.8244 9.51093 17.7568 9.46715C17.794 9.46147 17.8262 9.45754 17.8642 9.45154C18.2364 9.39224 18.6242 9.32244 19.0698 9.31508C19.4942 9.3073 20.0345 9.31316 20.3934 9.49166C20.435 9.51411 20.4533 9.5375 20.467 9.55161C20.467 9.55161 20.4551 9.53732 20.4684 9.52822C20.4743 9.53732 20.467 9.58813 20.4669 9.61616Z" fill="#F5F5F5"/>
<path d="M8.08171 18.2109C8.06985 18.1405 8.04313 18.0571 8.00938 18.0034C7.9423 17.9107 7.86468 17.8458 7.78949 17.8053C7.19704 17.5332 6.70105 17.5865 6.22775 17.5847C5.76027 17.5967 5.32293 17.6773 4.9679 17.755C4.87152 17.7745 4.78804 17.7889 4.69874 17.8057C4.7429 17.7145 4.90475 17.6004 5.12272 17.5312C5.6541 17.3497 6.26066 17.2768 6.85682 17.1606C7.00738 17.1311 7.16 17.0966 7.31629 17.0522C7.40043 17.0233 7.47125 17.0008 7.57035 16.9548C7.63391 16.9188 7.69649 16.8736 7.75002 16.8253C7.80702 16.774 7.80266 16.7597 7.832 16.7251C7.96738 16.4674 7.83922 16.2839 7.73179 16.1881C7.62824 16.1031 7.541 16.0699 7.45799 16.0358C7.29683 15.9792 7.14754 15.9438 7.00344 15.9138C6.7258 15.8582 6.45285 15.8036 6.18561 15.7501C6.05868 15.7207 5.93591 15.6881 5.82819 15.6485C5.73308 15.6232 5.59869 15.5292 5.61866 15.5548C5.37308 15.5336 5.95499 15.2598 6.37457 15.1068C6.48608 15.0575 6.59694 15.0078 6.71052 14.9377C6.82194 14.8641 6.93674 14.8016 7.06054 14.5953C7.08486 14.5525 7.08383 14.5421 7.09658 14.5142L7.11074 14.4786C7.14144 14.3689 7.12457 14.3985 7.13169 14.351C7.14618 14.236 7.10104 14.113 7.0296 14.0106C6.88377 13.853 6.73874 13.8079 6.63102 13.7777C6.18552 13.6721 5.86499 13.701 5.5865 13.7021C5.05841 13.7269 4.75658 13.7411 4.75658 13.7411L4.73619 13.742C4.73558 13.7421 4.73502 13.7421 4.73436 13.7421C4.56557 13.752 4.4368 13.8968 4.44669 14.0656C4.44763 14.0821 4.45536 14.0959 4.45879 14.1115C4.21963 14.1774 3.84121 14.2448 3.46682 14.1565C3.40982 14.1434 3.35718 14.1777 3.344 14.2323C3.33088 14.2873 3.36515 14.3423 3.41971 14.3551C3.5668 14.3898 3.71272 14.4033 3.85185 14.4033C4.14739 14.4033 4.39986 14.3432 4.57227 14.2904C4.62786 14.3317 4.69546 14.3577 4.76999 14.3533C4.76999 14.3533 5.07496 14.3355 5.60868 14.3043C5.85857 14.2953 6.19438 14.2821 6.4715 14.3472C6.49443 14.3508 6.50671 14.3579 6.5219 14.3643C6.52405 14.3397 6.47718 14.4089 6.40391 14.4445C6.3328 14.4904 6.24027 14.5344 6.14399 14.578C5.94711 14.6673 5.72183 14.7439 5.47208 14.8783C5.35152 14.9494 5.20246 15.0217 5.07861 15.2332C5.02072 15.3311 4.99325 15.4895 5.02368 15.6012L5.03268 15.6467L5.03779 15.6692L5.0405 15.6804C5.02133 15.6406 5.06966 15.7476 5.06586 15.7379L5.09085 15.7795C5.11302 15.8112 5.10955 15.8244 5.1628 15.8797C5.2055 15.9259 5.25374 15.9701 5.30347 16.0088C5.34707 16.0388 5.3796 16.0529 5.41883 16.0751C5.49613 16.1207 5.5663 16.1418 5.63952 16.1705C5.7839 16.2214 5.92447 16.2559 6.06486 16.287C6.33585 16.338 6.61274 16.39 6.89432 16.4431C7.01239 16.4659 7.12288 16.4947 7.22502 16.5261C7.09419 16.5733 6.9111 16.6208 6.75318 16.6512C6.17872 16.7725 5.56958 16.8458 4.95004 17.0634C4.79497 17.1224 4.63611 17.1929 4.48035 17.3122C4.33368 17.4234 4.1795 17.645 4.19924 17.8885C4.14669 17.8959 4.08632 17.9066 4.03775 17.912C3.51219 17.9816 3.29132 17.8891 3.30557 17.8864C3.23694 17.8459 3.14849 17.8686 3.10799 17.9373C3.06744 18.0058 3.09018 18.0943 3.1588 18.1348C3.1588 18.1348 3.2489 18.196 3.40972 18.2313C3.56975 18.2674 3.7949 18.284 4.06911 18.2624C4.14463 18.2573 4.23308 18.246 4.31615 18.2372C4.37357 18.32 4.44046 18.4113 4.50275 18.4555C4.64755 18.577 4.80088 18.6547 4.95369 18.7227C5.56883 18.9606 6.18364 19.0106 6.78308 18.987C7.08402 18.9644 7.38018 18.9293 7.6843 18.7936C7.8261 18.7275 8.02072 18.6233 8.08082 18.322C8.081 18.2836 8.08761 18.266 8.08171 18.2109ZM7.6393 18.3058C7.63147 18.2613 7.60696 18.3623 7.49211 18.3901C7.29444 18.477 7.02463 18.5167 6.75941 18.5307C6.22457 18.5483 5.6405 18.4858 5.13969 18.2827C5.06099 18.2463 4.99677 18.2005 4.92922 18.1568C4.96635 18.1511 4.99855 18.1472 5.03661 18.1412C5.40875 18.0819 5.79665 18.0121 6.24219 18.0047C6.66655 17.997 7.20693 18.0028 7.56575 18.1813C7.60743 18.2037 7.62566 18.2271 7.63944 18.2412C7.63944 18.2412 7.62754 18.2269 7.6408 18.2178C7.64671 18.2269 7.6393 18.2778 7.6393 18.3058Z" fill="#F5F5F5"/>
<path d="M20.9094 18.2109C20.8975 18.1405 20.8708 18.0571 20.837 18.0034C20.77 17.9107 20.6923 17.8458 20.6171 17.8053C20.0247 17.5332 19.5287 17.5865 19.0554 17.5847C18.5879 17.5967 18.1506 17.6773 17.7955 17.755C17.6992 17.7745 17.6157 17.7889 17.5264 17.8057C17.5705 17.7145 17.7324 17.6004 17.9504 17.5312C18.4817 17.3497 19.0883 17.2768 19.6845 17.1606C19.835 17.1311 19.9877 17.0966 20.1439 17.0522C20.2281 17.0233 20.2989 17.0008 20.398 16.9548C20.4616 16.9188 20.5241 16.8736 20.5777 16.8253C20.6347 16.774 20.6303 16.7597 20.6597 16.7251C20.795 16.4674 20.6669 16.2839 20.5594 16.1881C20.4559 16.1031 20.3687 16.0699 20.2856 16.0358C20.1245 15.9792 19.9752 15.9438 19.8311 15.9138C19.5535 15.8582 19.2805 15.8036 19.0133 15.7501C18.8863 15.7207 18.7636 15.6881 18.6558 15.6485C18.5607 15.6232 18.4263 15.5292 18.4463 15.5548C18.2007 15.5336 18.7826 15.2598 19.2022 15.1068C19.3137 15.0575 19.4246 15.0078 19.5382 14.9377C19.6496 14.8641 19.7644 14.8016 19.8882 14.5953C19.9125 14.5525 19.9115 14.5421 19.9242 14.5142L19.9384 14.4786C19.9691 14.3689 19.9522 14.3985 19.9593 14.351C19.9738 14.236 19.9287 14.113 19.8572 14.0106C19.7114 13.853 19.5664 13.8079 19.4587 13.7777C19.0132 13.6721 18.6926 13.701 18.4142 13.7021C17.8861 13.7269 17.5842 13.7411 17.5842 13.7411L17.5638 13.742C17.5632 13.7421 17.5627 13.7421 17.562 13.7421C17.3932 13.752 17.2645 13.8968 17.2743 14.0656C17.2753 14.0821 17.283 14.0959 17.2864 14.1115C17.0473 14.1774 16.6689 14.2448 16.2945 14.1565C16.2375 14.1434 16.1848 14.1777 16.1717 14.2323C16.1585 14.2873 16.1928 14.3423 16.2474 14.3551C16.3945 14.3898 16.5404 14.4033 16.6795 14.4033C16.975 14.4033 17.2275 14.3432 17.3999 14.2904C17.4555 14.3317 17.5231 14.3577 17.5976 14.3533C17.5976 14.3533 17.9026 14.3355 18.4363 14.3043C18.6862 14.2953 19.022 14.2821 19.2992 14.3472C19.3221 14.3508 19.3344 14.3579 19.3495 14.3643C19.3517 14.3397 19.3048 14.4089 19.2316 14.4445C19.1605 14.4904 19.0679 14.5344 18.9716 14.578C18.7748 14.6673 18.5495 14.7439 18.2997 14.8783C18.1792 14.9494 18.0301 15.0217 17.9063 15.2332C17.8484 15.3311 17.8209 15.4895 17.8513 15.6012L17.8603 15.6467L17.8654 15.6692L17.8682 15.6804C17.849 15.6406 17.8974 15.7476 17.8936 15.7379L17.9185 15.7795C17.9407 15.8112 17.9372 15.8244 17.9905 15.8797C18.0332 15.9259 18.0814 15.9701 18.1312 16.0088C18.1748 16.0388 18.2073 16.0529 18.2465 16.0751C18.3238 16.1207 18.394 16.1418 18.4672 16.1705C18.6116 16.2214 18.7522 16.2559 18.8926 16.287C19.1635 16.338 19.4404 16.39 19.722 16.4431C19.8401 16.4659 19.9506 16.4947 20.0527 16.5261C19.9219 16.5733 19.7388 16.6208 19.5809 16.6512C19.0064 16.7725 18.3973 16.8458 17.7777 17.0634C17.6227 17.1224 17.4638 17.1929 17.308 17.3122C17.1614 17.4234 17.0072 17.645 17.0269 17.8885C16.9744 17.8959 16.914 17.9066 16.8655 17.912C16.3399 17.9816 16.119 17.8891 16.1333 17.8864C16.0646 17.8459 15.9762 17.8686 15.9357 17.9373C15.8951 18.0058 15.9179 18.0943 15.9865 18.1348C15.9865 18.1348 16.0766 18.196 16.2374 18.2313C16.3975 18.2674 16.6226 18.284 16.8968 18.2624C16.9723 18.2573 17.0608 18.246 17.1438 18.2372C17.2013 18.32 17.2682 18.4113 17.3305 18.4555C17.4752 18.577 17.6286 18.6547 17.7814 18.7227C18.3965 18.9606 19.0114 19.0106 19.6108 18.987C19.9117 18.9644 20.2079 18.9293 20.512 18.7936C20.6538 18.7275 20.8484 18.6233 20.9085 18.322C20.9086 18.2836 20.9152 18.266 20.9094 18.2109ZM20.4669 18.3058C20.4591 18.2613 20.4346 18.3623 20.3197 18.3901C20.122 18.477 19.8522 18.5167 19.587 18.5307C19.0522 18.5483 18.4681 18.4858 17.9673 18.2827C17.8886 18.2463 17.8244 18.2005 17.7568 18.1568C17.794 18.1511 17.8262 18.1472 17.8642 18.1412C18.2364 18.0819 18.6242 18.0121 19.0698 18.0047C19.4942 17.997 20.0345 18.0028 20.3934 18.1813C20.435 18.2037 20.4533 18.2271 20.467 18.2412C20.467 18.2412 20.4551 18.2269 20.4684 18.2178C20.4743 18.2269 20.467 18.2778 20.4669 18.3058Z" fill="#F5F5F5"/>
</svg>
