<svg xmlns="http://www.w3.org/2000/svg" width="24" height="24" viewBox="0 0 24 24" fill="none"><rect width="24" height="24" fill="none"/>
<path d="M0 18.0646C0 19.0573 0.804703 19.862 1.79742 19.862H22.2026C23.1952 19.862 24 19.0573 24 18.0646V14.6207H0V18.0646Z" fill="#73AF00"/>
<path d="M22.2026 4.13794H1.79742C0.804703 4.13794 0 4.94264 0 5.93536V9.37931H24V5.93536C24 4.94264 23.1953 4.13794 22.2026 4.13794Z" fill="#FF4B55"/>
<path d="M24 9.37921H0V14.6203H24V9.37921Z" fill="#F5F5F5"/>
<path d="M10.6438 13.4786C10.8159 13.3919 10.9165 13.249 10.9704 13.1459C11.2786 13.3473 11.5427 13.2789 11.6803 13.2145C11.8146 13.1516 11.9252 13.049 11.9989 12.9444C12.0728 13.049 12.1833 13.1516 12.3176 13.2145C12.4552 13.2789 12.7193 13.3471 13.0275 13.1459C13.0813 13.249 13.182 13.3919 13.3541 13.4786C13.4532 13.5286 13.5626 13.5536 13.6812 13.5536C13.8031 13.5536 13.9347 13.5272 14.0753 13.4746L14.007 13.2924C13.7834 13.3763 13.5936 13.3808 13.4433 13.3058C13.233 13.2009 13.1628 12.9697 13.1622 12.9678L13.1212 12.8242L13.0065 12.9197C12.8041 13.0883 12.5945 13.1296 12.4001 13.0383C12.2027 12.9459 12.0962 12.7588 12.0962 12.7027V11.8633C12.1383 11.7707 12.2311 11.7059 12.3393 11.7059C12.3764 11.7059 12.4132 11.714 12.4484 11.7299L12.5688 11.7842L12.5506 11.6533C12.5125 11.3783 12.2752 11.171 11.9989 11.171C11.7225 11.171 11.4853 11.3783 11.4472 11.6533L11.429 11.7842L11.5494 11.7299C11.5846 11.714 11.6214 11.7059 11.6585 11.7059C11.7667 11.7059 11.8596 11.7707 11.9016 11.8633V12.7027C11.9016 12.7588 11.7951 12.9459 11.5977 13.0383C11.4034 13.1296 11.1937 13.0884 10.9913 12.9197L10.8775 12.8254L10.8356 12.9674C10.8349 12.9697 10.7647 13.2009 10.5543 13.3058C10.4039 13.3808 10.2142 13.3763 9.99063 13.2924L9.92233 13.4746C10.0629 13.5272 10.1946 13.5536 10.3165 13.5536C10.4353 13.5536 10.5446 13.5286 10.6438 13.4786ZM11.6585 11.56C11.6469 11.56 11.6353 11.5605 11.6238 11.5615C11.6889 11.4164 11.8345 11.3168 11.9989 11.3168C12.1633 11.3168 12.3089 11.4164 12.374 11.5615C12.2228 11.5482 12.0798 11.6221 11.9989 11.7391C11.9243 11.6309 11.7995 11.56 11.6585 11.56Z" fill="#FFCD5A"/>
<path d="M10.3149 14.097L10.3765 14.2814C10.79 14.1434 11.3814 14.0643 11.9989 14.0643C12.6165 14.0643 13.2079 14.1434 13.6214 14.2814L13.683 14.097C13.2505 13.9525 12.6366 13.8697 11.9989 13.8697C11.3613 13.8697 10.7474 13.9525 10.3149 14.097Z" fill="#FFCD5A"/>
<path d="M11.9989 13.6752C12.1003 13.6756 12.1896 13.6153 12.2501 13.5341C12.2099 13.5093 12.1562 13.4948 12.0954 13.4872C12.0954 13.485 12.0962 13.483 12.0962 13.4807C12.0962 13.3973 12.0568 13.3253 11.9989 13.2863C11.9411 13.3253 11.9017 13.3973 11.9017 13.4807C11.9017 13.4829 11.9024 13.485 11.9025 13.4872C11.8417 13.4948 11.788 13.5092 11.7477 13.5341C11.8082 13.6153 11.8975 13.6755 11.9989 13.6752Z" fill="#FFCD5A"/>
<path d="M11.1063 13.7671C11.2057 13.7472 11.2812 13.6703 11.3242 13.5787C11.2798 13.5623 11.2243 13.5589 11.1633 13.5637C11.1628 13.5615 11.1632 13.5593 11.1627 13.5571C11.1461 13.4755 11.0931 13.4128 11.0285 13.386C10.9797 13.436 10.9555 13.5144 10.9722 13.596C10.9726 13.5983 10.9737 13.6001 10.9742 13.6022C10.9161 13.6218 10.8664 13.6467 10.8319 13.6792C10.9075 13.7466 11.007 13.7877 11.1063 13.7671Z" fill="#FFCD5A"/>
<path d="M12.9694 13.386C12.9048 13.4127 12.8518 13.4754 12.8352 13.5571C12.8347 13.5593 12.8351 13.5614 12.8346 13.5636C12.7736 13.5588 12.7181 13.5623 12.6737 13.5786C12.7167 13.6702 12.7922 13.7471 12.8916 13.7671C12.9909 13.7877 13.0904 13.7465 13.166 13.679C13.1315 13.6467 13.0818 13.6217 13.0238 13.6021C13.0243 13.6 13.0254 13.5981 13.0258 13.5959C13.0424 13.5143 13.0182 13.4359 12.9694 13.386Z" fill="#FFCD5A"/>
<path d="M11.973 9.80431L11.9074 10.0008L11.7004 10.0024C11.6736 10.0025 11.6625 10.0368 11.684 10.0527L11.8506 10.1757L11.7881 10.3731C11.7801 10.3987 11.8091 10.4198 11.831 10.4043L11.9995 10.2838L12.1679 10.4043C12.1898 10.4198 12.2188 10.3987 12.2108 10.3731L12.1483 10.1757L12.3148 10.0527C12.3364 10.0368 12.3253 10.0026 12.2985 10.0024L12.0914 10.0008L12.0259 9.80431C12.0174 9.77885 11.9815 9.77885 11.973 9.80431Z" fill="#FFCD5A"/>
<path d="M10.7877 10.1285L10.7222 10.3249L10.5151 10.3265C10.4883 10.3267 10.4772 10.3609 10.4988 10.3769L10.6653 10.4999L10.6028 10.6973C10.5948 10.7228 10.6238 10.744 10.6457 10.7284L10.8141 10.608L10.9826 10.7284C11.0044 10.744 11.0335 10.7229 11.0254 10.6973L10.963 10.4999L11.1295 10.3769C11.1511 10.3609 11.14 10.3267 11.1131 10.3265L10.9061 10.3249L10.8406 10.1285C10.8321 10.103 10.7962 10.103 10.7877 10.1285Z" fill="#FFCD5A"/>
<path d="M9.91652 11.0037L9.85099 11.2001L9.64394 11.2017C9.61713 11.2019 9.60602 11.2361 9.62758 11.2521L9.79413 11.3751L9.73169 11.5725C9.72363 11.598 9.75269 11.6192 9.77453 11.6036L9.943 11.4832L10.1115 11.6036C10.1333 11.6192 10.1624 11.5981 10.1543 11.5725L10.0919 11.3751L10.2584 11.2521C10.28 11.2361 10.2689 11.202 10.2421 11.2017L10.035 11.2001L9.96949 11.0037C9.96096 10.9783 9.925 10.9783 9.91652 11.0037Z" fill="#FFCD5A"/>
<path d="M9.59641 12.1869L9.53088 12.3834L9.32383 12.385C9.29702 12.3852 9.28591 12.4194 9.30747 12.4353L9.47402 12.5583L9.41154 12.7558C9.40347 12.7813 9.43254 12.8025 9.45438 12.7869L9.62285 12.6665L9.79132 12.7869C9.81316 12.8025 9.84223 12.7814 9.83416 12.7558L9.77168 12.5583L9.93823 12.4353C9.95979 12.4194 9.94868 12.3852 9.92187 12.385L9.71482 12.3834L9.64929 12.1869C9.64085 12.1615 9.6049 12.1615 9.59641 12.1869Z" fill="#FFCD5A"/>
<path d="M13.2123 10.1285L13.2778 10.3249L13.4848 10.3265C13.5117 10.3267 13.5228 10.3609 13.5012 10.3769L13.3347 10.4999L13.3971 10.6973C13.4052 10.7228 13.3761 10.744 13.3543 10.7284L13.1858 10.608L13.0174 10.7284C12.9955 10.744 12.9664 10.7229 12.9745 10.6973L13.037 10.4999L12.8704 10.3769C12.8489 10.3609 12.86 10.3267 12.8868 10.3265L13.0939 10.3249L13.1594 10.1285C13.1678 10.103 13.2038 10.103 13.2123 10.1285Z" fill="#FFCD5A"/>
<path d="M14.0834 11.0037L14.149 11.2001L14.356 11.2017C14.3828 11.2019 14.3939 11.2361 14.3724 11.2521L14.2058 11.3751L14.2683 11.5725C14.2764 11.598 14.2473 11.6192 14.2255 11.6036L14.057 11.4832L13.8885 11.6036C13.8667 11.6192 13.8376 11.5981 13.8457 11.5725L13.9082 11.3751L13.7416 11.2521C13.7201 11.2361 13.7312 11.202 13.758 11.2017L13.965 11.2001L14.0306 11.0037C14.039 10.9783 14.0749 10.9783 14.0834 11.0037Z" fill="#FFCD5A"/>
<path d="M14.4035 12.1869L14.4691 12.3834L14.6761 12.385C14.7029 12.3852 14.714 12.4194 14.6925 12.4353L14.5259 12.5583L14.5884 12.7558C14.5964 12.7813 14.5674 12.8025 14.5455 12.7869L14.3771 12.6665L14.2086 12.7869C14.1867 12.8025 14.1577 12.7814 14.1657 12.7558L14.2282 12.5583L14.0616 12.4353C14.0401 12.4194 14.0512 12.3852 14.078 12.385L14.285 12.3834L14.3506 12.1869C14.3591 12.1615 14.3951 12.1615 14.4035 12.1869Z" fill="#FFCD5A"/>
</svg>
