<svg xmlns="http://www.w3.org/2000/svg" width="24" height="24" viewBox="0 0 24 24" fill="none"><rect width="24" height="24" fill="none"/>
<path d="M22.2026 4.13794H1.79742C0.804703 4.13794 0 4.94264 0 5.93536V8.91375H24V5.93536C24 4.94264 23.1953 4.13794 22.2026 4.13794Z" fill="#82AFFF"/>
<path d="M0 18.0646C0 19.0573 0.804703 19.8621 1.79742 19.8621H22.2026C23.1952 19.8621 24 19.0574 24 18.0646V15.0862H0V18.0646Z" fill="#73AF00"/>
<path d="M24 9.56714H0V14.4323H24V9.56714Z" fill="#F5F5F5"/>
<path d="M0 9.37931V9.56727H24V9.37931V8.9137H0V9.37931Z" fill="#FF4B55"/>
<path d="M0 14.6211V15.0867H24V14.6211V14.4331H0V14.6211Z" fill="#FF4B55"/>
<path d="M5.31989 8.06578C4.47276 8.06578 3.78609 7.38075 3.78609 6.53667C3.78609 5.6895 4.47272 5.00137 5.31989 5.00137C5.32317 5.00137 5.32636 5.00137 5.32955 5.00142C5.37942 5.00207 5.3969 4.93584 5.35294 4.91226C5.09208 4.77243 4.79437 4.69331 4.47787 4.69561C3.46425 4.70282 2.64089 5.54278 2.65167 6.5564C2.66226 7.55957 3.48239 8.37159 4.49114 8.37159C4.80328 8.37159 5.09681 8.29261 5.35444 8.1547C5.39826 8.13121 5.38055 8.06498 5.33086 8.06568C5.32711 8.06578 5.3235 8.06578 5.31989 8.06578Z" fill="#F5F5F5"/>
<path d="M6.52087 7.64298L6.45238 7.84839L6.23587 7.85003C6.20784 7.85021 6.19621 7.88603 6.21876 7.90267L6.39295 8.03129L6.3276 8.23773C6.31916 8.26445 6.34959 8.28657 6.37241 8.27026L6.54857 8.14436L6.72473 8.27026C6.74756 8.28657 6.77793 8.26445 6.76954 8.23773L6.7042 8.03129L6.87834 7.90267C6.90088 7.88603 6.88926 7.85021 6.86123 7.85003L6.64471 7.84839L6.57623 7.64298C6.56737 7.6164 6.52977 7.6164 6.52087 7.64298Z" fill="#F5F5F5"/>
<path d="M8.04632 7.64298L7.97784 7.84839L7.76132 7.85003C7.73329 7.85021 7.72166 7.88603 7.74421 7.90267L7.91835 8.03129L7.85301 8.23773C7.84457 8.26445 7.87499 8.28657 7.89782 8.27026L8.07398 8.14436L8.25013 8.27026C8.27296 8.28657 8.30334 8.26445 8.29494 8.23773L8.2296 8.03129L8.40374 7.90267C8.42629 7.88603 8.41466 7.85021 8.38663 7.85003L8.17012 7.84839L8.10163 7.64298C8.09277 7.6164 8.05513 7.6164 8.04632 7.64298Z" fill="#F5F5F5"/>
<path d="M9.57173 7.64298L9.50324 7.84839L9.28673 7.85003C9.25869 7.85021 9.24707 7.88603 9.26962 7.90267L9.4438 8.03129L9.37846 8.23773C9.37002 8.26445 9.40044 8.28657 9.42327 8.27026L9.59943 8.14436L9.77558 8.27026C9.79841 8.28657 9.82879 8.26445 9.8204 8.23773L9.75505 8.03129L9.92919 7.90267C9.95174 7.88603 9.94012 7.85021 9.91208 7.85003L9.69557 7.84839L9.62708 7.64298C9.61823 7.6164 9.58058 7.6164 9.57173 7.64298Z" fill="#F5F5F5"/>
<path d="M11.0971 7.64298L11.0286 7.84839L10.8121 7.85003C10.7841 7.85021 10.7725 7.88603 10.795 7.90267L10.9692 8.03129L10.9038 8.23773C10.8954 8.26445 10.9258 8.28657 10.9486 8.27026L11.1248 8.14436L11.3009 8.27026C11.3238 8.28657 11.3541 8.26445 11.3458 8.23773L11.2804 8.03129L11.4546 7.90267C11.4771 7.88603 11.4655 7.85021 11.4374 7.85003L11.2209 7.84839L11.1524 7.64298C11.1436 7.6164 11.106 7.6164 11.0971 7.64298Z" fill="#F5F5F5"/>
<path d="M12.6226 7.64298L12.5541 7.84839L12.3376 7.85003C12.3096 7.85021 12.2979 7.88603 12.3205 7.90267L12.4947 8.03129L12.4293 8.23773C12.4209 8.26445 12.4513 8.28657 12.4741 8.27026L12.6503 8.14436L12.8265 8.27026C12.8493 8.28657 12.8797 8.26445 12.8713 8.23773L12.8059 8.03129L12.9801 7.90267C13.0027 7.88603 12.991 7.85021 12.963 7.85003L12.7465 7.84839L12.678 7.64298C12.6691 7.6164 12.6315 7.6164 12.6226 7.64298Z" fill="#F5F5F5"/>
<path d="M8.04632 6.21922L7.97784 6.42463L7.76132 6.42627C7.73329 6.42646 7.72166 6.46227 7.74421 6.47891L7.91835 6.60754L7.85301 6.81397C7.84457 6.84069 7.87499 6.86282 7.89782 6.8465L8.07398 6.7206L8.25013 6.8465C8.27296 6.86282 8.30334 6.84069 8.29494 6.81397L8.2296 6.60754L8.40374 6.47891C8.42629 6.46227 8.41466 6.42646 8.38663 6.42627L8.17012 6.42463L8.10163 6.21922C8.09277 6.19255 8.05513 6.19255 8.04632 6.21922Z" fill="#F5F5F5"/>
<path d="M9.57173 6.21922L9.50324 6.42463L9.28673 6.42627C9.25869 6.42646 9.24707 6.46227 9.26962 6.47891L9.4438 6.60754L9.37846 6.81397C9.37002 6.84069 9.40044 6.86282 9.42327 6.8465L9.59943 6.7206L9.77558 6.8465C9.79841 6.86282 9.82879 6.84069 9.8204 6.81397L9.75505 6.60754L9.92919 6.47891C9.95174 6.46227 9.94012 6.42646 9.91208 6.42627L9.69557 6.42463L9.62708 6.21922C9.61823 6.19255 9.58058 6.19255 9.57173 6.21922Z" fill="#F5F5F5"/>
<path d="M11.0971 6.21922L11.0286 6.42463L10.8121 6.42627C10.7841 6.42646 10.7725 6.46227 10.795 6.47891L10.9692 6.60754L10.9038 6.81397C10.8954 6.84069 10.9258 6.86282 10.9486 6.8465L11.1248 6.7206L11.3009 6.8465C11.3238 6.86282 11.3541 6.84069 11.3458 6.81397L11.2804 6.60754L11.4546 6.47891C11.4771 6.46227 11.4655 6.42646 11.4374 6.42627L11.2209 6.42463L11.1524 6.21922C11.1436 6.19255 11.106 6.19255 11.0971 6.21922Z" fill="#F5F5F5"/>
<path d="M12.6226 6.21922L12.5541 6.42463L12.3376 6.42627C12.3096 6.42646 12.2979 6.46227 12.3205 6.47891L12.4947 6.60754L12.4293 6.81397C12.4209 6.84069 12.4513 6.86282 12.4741 6.8465L12.6503 6.7206L12.8265 6.8465C12.8493 6.86282 12.8797 6.84069 12.8713 6.81397L12.8059 6.60754L12.9801 6.47891C13.0027 6.46227 12.991 6.42646 12.963 6.42627L12.7465 6.42463L12.678 6.21922C12.6691 6.19255 12.6315 6.19255 12.6226 6.21922Z" fill="#F5F5F5"/>
<path d="M9.57173 7.64298L9.50324 7.84839L9.28673 7.85003C9.25869 7.85021 9.24707 7.88603 9.26962 7.90267L9.4438 8.03129L9.37846 8.23773C9.37002 8.26445 9.40044 8.28657 9.42327 8.27026L9.59943 8.14436L9.77558 8.27026C9.79841 8.28657 9.82879 8.26445 9.8204 8.23773L9.75505 8.03129L9.92919 7.90267C9.95174 7.88603 9.94012 7.85021 9.91208 7.85003L9.69557 7.84839L9.62708 7.64298C9.61823 7.6164 9.58058 7.6164 9.57173 7.64298Z" fill="#F5F5F5"/>
<path d="M9.57173 4.79551L9.50324 5.00091L9.28673 5.00255C9.25869 5.00274 9.24707 5.03855 9.26962 5.05519L9.4438 5.18382L9.37846 5.39026C9.37002 5.41698 9.40044 5.4391 9.42327 5.42279L9.59943 5.29688L9.77558 5.42279C9.79841 5.4391 9.82879 5.41698 9.8204 5.39026L9.75505 5.18382L9.92919 5.05519C9.95174 5.03855 9.94012 5.00274 9.91208 5.00255L9.69557 5.00091L9.62708 4.79551C9.61823 4.76893 9.58058 4.76893 9.57173 4.79551Z" fill="#F5F5F5"/>
<path d="M11.0971 7.64298L11.0286 7.84839L10.8121 7.85003C10.7841 7.85021 10.7725 7.88603 10.795 7.90267L10.9692 8.03129L10.9038 8.23773C10.8954 8.26445 10.9258 8.28657 10.9486 8.27026L11.1248 8.14436L11.3009 8.27026C11.3238 8.28657 11.3541 8.26445 11.3458 8.23773L11.2804 8.03129L11.4546 7.90267C11.4771 7.88603 11.4655 7.85021 11.4374 7.85003L11.2209 7.84839L11.1524 7.64298C11.1436 7.6164 11.106 7.6164 11.0971 7.64298Z" fill="#F5F5F5"/>
<path d="M12.6226 7.64298L12.5541 7.84839L12.3376 7.85003C12.3096 7.85021 12.2979 7.88603 12.3205 7.90267L12.4947 8.03129L12.4293 8.23773C12.4209 8.26445 12.4513 8.28657 12.4741 8.27026L12.6503 8.14436L12.8265 8.27026C12.8493 8.28657 12.8797 8.26445 12.8713 8.23773L12.8059 8.03129L12.9801 7.90267C13.0027 7.88603 12.991 7.85021 12.963 7.85003L12.7465 7.84839L12.678 7.64298C12.6691 7.6164 12.6315 7.6164 12.6226 7.64298Z" fill="#F5F5F5"/>
<path d="M11.0971 4.79551L11.0286 5.00091L10.8121 5.00255C10.7841 5.00274 10.7725 5.03855 10.795 5.05519L10.9692 5.18382L10.9038 5.39026C10.8954 5.41698 10.9258 5.4391 10.9486 5.42279L11.1248 5.29688L11.3009 5.42279C11.3238 5.4391 11.3541 5.41698 11.3458 5.39026L11.2804 5.18382L11.4546 5.05519C11.4771 5.03855 11.4655 5.00274 11.4374 5.00255L11.2209 5.00091L11.1524 4.79551C11.1436 4.76893 11.106 4.76893 11.0971 4.79551Z" fill="#F5F5F5"/>
<path d="M12.6226 4.79551L12.5541 5.00091L12.3376 5.00255C12.3096 5.00274 12.2979 5.03855 12.3205 5.05519L12.4947 5.18382L12.4293 5.39026C12.4209 5.41698 12.4513 5.4391 12.4741 5.42279L12.6503 5.29688L12.8265 5.42279C12.8493 5.4391 12.8797 5.41698 12.8713 5.39026L12.8059 5.18382L12.9801 5.05519C13.0027 5.03855 12.991 5.00274 12.963 5.00255L12.7465 5.00091L12.678 4.79551C12.6691 4.76893 12.6315 4.76893 12.6226 4.79551Z" fill="#F5F5F5"/>
</svg>
