<svg xmlns="http://www.w3.org/2000/svg" width="24" height="24" viewBox="0 0 24 24" fill="none"><rect width="24" height="24" fill="none"/>
<path d="M22.2026 4.13788H1.79742C0.804703 4.13788 0 4.94258 0 5.9353V18.0647C0 19.0573 0.804703 19.8621 1.79742 19.8621H22.2026C23.1952 19.8621 24 19.0574 24 18.0647V5.9353C24 4.94258 23.1953 4.13788 22.2026 4.13788Z" fill="#41479B"/>
<path d="M24 7.03455H0V16.9655H24V7.03455Z" fill="#F5F5F5"/>
<path d="M14.1501 11.9999L15.2251 10.138H13.0752L12 8.27576L10.9249 10.138H8.77495L9.84993 11.9999L8.77495 13.8618H10.9249L12 15.7241L13.0751 13.8619H15.225L14.1501 11.9999ZM14.1704 10.747L13.7985 11.391L13.4267 10.747H14.1704ZM13.447 11.9999L12.7236 13.2529H11.2764L10.553 11.9999L11.2764 10.7469H12.7236L13.447 11.9999ZM12 9.49366L12.372 10.138H11.628L12 9.49366ZM9.82959 10.747H10.5733L10.2014 11.391L9.82959 10.747ZM9.82959 13.2529L10.2014 12.6088L10.5733 13.2529H9.82959ZM12 14.5061L11.628 13.8618H12.372L12 14.5061ZM13.7985 12.6088L14.1704 13.2529H13.4267L13.7985 12.6088Z" fill="#41479B"/>
</svg>
