<svg xmlns="http://www.w3.org/2000/svg" width="24" height="24" viewBox="0 0 24 24" fill="none"><rect width="24" height="24" fill="none"/>
<path d="M22.2026 4.13794H1.79742C0.804703 4.13794 0 4.94264 0 5.93536V8.91375H24V5.93536C24 4.94264 23.1953 4.13794 22.2026 4.13794Z" fill="#5AA587"/>
<path d="M0 18.0646C0 19.0573 0.804703 19.8621 1.79742 19.8621H22.2026C23.1952 19.8621 24 19.0574 24 18.0646V15.0862H0V18.0646Z" fill="#FFE15A"/>
<path d="M24 9.5672H0V14.4324H24V9.5672Z" fill="#464655"/>
<path d="M0 9.37934V9.56731H24V9.37934V8.91373H0V9.37934Z" fill="#F5F5F5"/>
<path d="M0 14.6206V15.0862H24V14.6206V14.4326H0V14.6206Z" fill="#F5F5F5"/>
<path d="M0.601313 19.4059L9.66084 12.2145C9.79894 12.1049 9.79894 11.8952 9.66084 11.7856L0.601313 4.59409C0.232453 4.92329 0 5.40207 0 5.93537V18.0647C0 18.5979 0.232453 19.0767 0.601313 19.4059Z" fill="#FF4B55"/>
<path d="M3.83503 9.3083L4.43995 11.1221L6.35194 11.137C6.45886 11.1378 6.50316 11.2743 6.41714 11.3378L4.87903 12.4736L5.45573 14.2966C5.48794 14.3986 5.37192 14.4829 5.28492 14.4207L3.72937 13.3088L2.17383 14.4207C2.08683 14.4829 1.97076 14.3986 2.00301 14.2966L2.57972 12.4736L1.04166 11.3378C0.95564 11.2743 0.999983 11.1378 1.10686 11.137L3.01884 11.1221L3.62376 9.3083C3.6577 9.20691 3.80119 9.20691 3.83503 9.3083Z" fill="#FFE15A"/>
<path d="M3.61856 12.6771L3.46903 12.8276H2.21849L2.55979 11.5752L2.69924 11.5055L2.47537 12.6221C2.47349 12.6358 2.47631 12.6496 2.48545 12.6606C2.49374 12.6716 2.50654 12.6771 2.52032 12.6771H3.61856Z" fill="#F5F5F5"/>
<path d="M3.91856 12.8854C3.86442 12.9257 3.79837 12.9487 3.72956 12.9487C3.66074 12.9487 3.5947 12.9258 3.54056 12.8854L3.72956 12.6964L3.91856 12.8854Z" fill="#F5F5F5"/>
<path d="M5.24067 12.8276H3.99013L3.8406 12.6771H4.93879C4.95257 12.6771 4.96537 12.6716 4.97367 12.6606C4.98281 12.6496 4.98562 12.6358 4.98374 12.6221L4.75987 11.5055L4.89932 11.5752L5.24067 12.8276Z" fill="#F5F5F5"/>
<path d="M4.88287 12.5854H3.77545V11.4431C3.96079 11.2862 4.44979 11.3935 4.65712 11.4577L4.88287 12.5854Z" fill="#F5F5F5"/>
<path d="M3.68367 11.443V12.5853H2.57629L2.802 11.4578C3.00937 11.3935 3.49837 11.2862 3.68367 11.443Z" fill="#F5F5F5"/>
<path d="M5.34526 12.8615L4.98282 11.5312C4.97917 11.5192 4.97092 11.5082 4.95896 11.5027L4.71676 11.3816C4.71582 11.3807 4.71489 11.3807 4.7131 11.3807C4.71217 11.3807 4.71217 11.3797 4.71128 11.3788C4.68189 11.3687 4.01124 11.1503 3.72957 11.3641C3.4479 11.1503 2.77721 11.3687 2.74787 11.3788C2.74693 11.3797 2.74693 11.3797 2.74604 11.3807C2.74417 11.3807 2.74332 11.3807 2.74239 11.3816L2.50018 11.5027C2.48823 11.5082 2.48003 11.5192 2.47632 11.5312L2.11389 12.8615C2.11023 12.8753 2.11295 12.89 2.12124 12.901C2.13039 12.912 2.14417 12.9194 2.15795 12.9194H3.44242C3.51854 12.9955 3.62134 13.0404 3.72957 13.0404C3.83785 13.0404 3.9406 12.9955 4.01673 12.9194H5.3012C5.31498 12.9194 5.32871 12.912 5.3379 12.901C5.34615 12.89 5.34892 12.8753 5.34526 12.8615ZM3.77542 11.4431C3.96076 11.2862 4.44976 11.3935 4.65709 11.4577L4.88279 12.5853H3.77542C3.77542 12.5854 3.77542 11.4431 3.77542 11.4431ZM2.80196 11.4578C3.00934 11.3936 3.49834 11.2862 3.68364 11.4431V12.5854H2.57626L2.80196 11.4578ZM2.21846 12.8276L2.55976 11.5752L2.69921 11.5055L2.47534 12.6221C2.47346 12.6359 2.47628 12.6496 2.48542 12.6606C2.49371 12.6716 2.50651 12.6771 2.52029 12.6771H3.61848L3.46895 12.8276H2.21846ZM3.72953 12.9487C3.66071 12.9487 3.59467 12.9258 3.54053 12.8854L3.72953 12.6964L3.91853 12.8854C3.86443 12.9257 3.79839 12.9487 3.72953 12.9487ZM3.9901 12.8276L3.84057 12.6771H4.93876C4.95254 12.6771 4.96534 12.6716 4.97364 12.6606C4.98278 12.6496 4.98559 12.6358 4.98371 12.6221L4.75984 11.5055L4.89929 11.5752L5.24059 12.8276H3.9901Z" fill="#464655"/>
<path d="M4.87659 10.2449C4.82981 10.2775 4.76644 10.2719 4.72608 10.2316L4.66504 10.1705V10.3199L4.29159 10.6934H4.1422L3.54473 11.2909H3.39534L2.24653 12.4397C2.21822 12.468 2.20837 12.5098 2.22103 12.5478L2.27508 12.7099L2.05101 12.934H1.90162L1.44492 13.3907C1.40845 13.4272 1.40845 13.4863 1.44492 13.5228L1.74633 13.8243C1.78983 13.8678 1.86117 13.865 1.9012 13.8183L2.57386 13.0087L2.64853 12.7846L2.79792 12.6352L3.0967 13.0833L3.32076 12.8593L3.08175 12.5008L3.14128 12.4413C3.19917 12.3834 3.19917 12.2896 3.14128 12.2317L3.0967 12.1871L3.13865 12.1451C3.45745 12.4183 3.84023 12.489 4.20469 12.3327L4.07986 12.0415C3.77873 12.1705 3.53283 12.0625 3.36178 11.922L3.9929 11.2908L3.96801 11.1663L4.14229 10.9921H4.29169L5.41204 9.8717L4.87659 10.2449Z" fill="#464655"/>
<path d="M2.64845 10.0957L2.49906 10.2451C2.45785 10.2863 2.45785 10.3532 2.49906 10.3945L2.52395 10.4194L2.275 10.4692L1.60281 11.1414L1.97626 11.5149L2.64845 10.8427L2.69823 10.5937L2.79784 10.6933L2.87251 10.6186L5.35689 13.103L5.50628 12.9536L3.0219 10.4692L3.09657 10.3946L2.79779 10.0958C2.75659 10.0545 2.68975 10.0545 2.64845 10.0957Z" fill="#464655"/>
</svg>
