<svg xmlns="http://www.w3.org/2000/svg" width="24" height="24" viewBox="0 0 24 24" fill="none"><rect width="24" height="24" fill="none"/>
<path d="M22.2026 4.1384H1.79742C0.804703 4.1384 0 4.9431 0 5.93582V18.0651C0 19.0578 0.804703 19.8626 1.79742 19.8626H22.2026C23.1952 19.8626 24 19.0579 24 18.0651V5.93582C24 4.9431 23.1953 4.1384 22.2026 4.1384Z" fill="#82AFFF"/>
<path d="M0.413813 11.9995H11.5862C11.8148 11.9995 12 11.8142 12 11.5857V4.55123C12 4.32272 11.8148 4.13742 11.5862 4.13742H1.79742C0.804703 4.13747 0 4.94217 0 5.93489V11.5858C0 11.8142 0.185297 11.9995 0.413813 11.9995Z" fill="#41479B"/>
<path d="M11.5862 4.1384H10.8674L7.03444 6.64968V4.1384H4.96547V6.64968L1.1325 4.1384H0.413813C0.185297 4.1384 0 4.32365 0 4.55216V4.88038L3.28852 7.0349H0V9.10387H3.28852L0 11.2584V11.5866C0 11.8152 0.185297 12.0005 0.413813 12.0005H1.13259L4.96556 9.48918V12.0005H7.03453V9.48918L10.8675 12.0005H11.5862C11.8148 12.0005 12 11.8152 12 11.5866V11.2584L8.71153 9.10391H12V7.03494H8.71148L12 4.88043V4.55221C12 4.32365 11.8147 4.1384 11.5862 4.1384Z" fill="#F5F5F5"/>
<path d="M12 7.44873H6.62067V4.13837H5.37933V7.44873H0V8.69007H5.37933V12.0004H6.62067V8.69007H12V7.44873Z" fill="#FF4B55"/>
<path d="M0.385643 4.82307L3.79167 7.03402H4.55171L0.684706 4.52386C0.573659 4.61152 0.473299 4.71197 0.385643 4.82307Z" fill="#FF4B55"/>
<path d="M7.79451 7.034L11.937 4.34497C11.865 4.22314 11.738 4.13745 11.5862 4.13745H11.4967L7.03448 7.034H7.79451Z" fill="#FF4B55"/>
<path d="M4.1941 9.10297L0.0594864 11.7868C0.130783 11.9116 0.259783 11.9995 0.413815 11.9995H0.491861L4.95417 9.10297H4.1941Z" fill="#FF4B55"/>
<path d="M11.9934 11.6182L8.11847 9.10297H7.35844L11.7588 11.9593C11.8906 11.8981 11.981 11.7699 11.9934 11.6182Z" fill="#FF4B55"/>
<path d="M15.0953 8.65347V13.1937C15.0953 15.035 17.6818 15.9813 17.997 16.0897C18.3119 15.9813 20.8987 15.0334 20.8987 13.1937V8.65347H15.0953V8.65347Z" fill="#F5F5F5"/>
<path d="M21.001 10.7358V8.55103H14.9929V10.7358H17.5874V12.784H14.9929V13.6034H17.5874V16.0612L17.997 16.1977L18.4066 16.0612V13.6034H21.001V12.784H18.4066V10.7358H21.001Z" fill="#FF4B55"/>
<path d="M15.6666 10.2255C15.8554 10.2255 16.0084 10.0724 16.0084 9.88361C16.0084 9.6948 15.8554 9.54175 15.6666 9.54175C15.4778 9.54175 15.3247 9.6948 15.3247 9.88361C15.3247 10.0724 15.4778 10.2255 15.6666 10.2255Z" fill="#F5F5F5"/>
<path d="M16.3233 9.42113C16.2139 9.36099 16.017 9.1996 15.9377 9.22698C15.8584 9.25435 15.8407 9.31041 15.7298 9.31894C15.6217 9.32729 15.4509 9.43276 15.5221 9.54966C15.6146 9.70182 15.9041 9.58351 15.9232 9.51235C15.9232 9.51235 15.9943 9.52374 16.0541 9.50949C16.0541 9.50949 16.173 9.67543 16.3207 9.66451C16.4683 9.65354 16.5367 9.47035 16.5039 9.47035C16.4712 9.47035 16.3233 9.42113 16.3233 9.42113Z" fill="#FFE15A"/>
<path d="M16.7773 10.1458C16.7527 10.1909 16.5653 10.3511 16.2522 10.4248C16.1825 10.4412 16.1948 10.5232 16.1251 10.4822C16.0553 10.4412 15.8625 10.4083 15.6902 10.4002C15.5179 10.392 15.5008 10.2323 15.5302 10.1745C15.5676 10.1012 15.8426 10.0565 15.8918 10.1467C15.9411 10.237 15.978 10.2181 16.1004 10.2442C16.1763 10.2605 16.1784 10.2976 16.1784 10.2976C16.1784 10.2976 16.3179 10.1581 16.4369 10.1171C16.5558 10.0761 16.6584 9.98578 16.6789 9.98578C16.6994 9.98578 16.8061 10.0145 16.8061 10.0145L16.7773 10.1458Z" fill="#FFE15A"/>
<path d="M17.2327 9.66174C17.4132 9.72736 17.9465 9.70683 18.5167 9.52224C19.0869 9.33764 19.251 9.30483 19.53 9.40735C19.8089 9.50986 19.9297 9.18586 19.7465 9.13106C19.4588 9.04496 18.5688 9.56203 17.9244 9.27188C17.9244 9.27188 17.9054 9.34992 17.9259 9.38681C17.9259 9.38681 17.4583 9.40322 17.569 8.91919C17.569 8.91919 17.6009 9.09591 17.822 9.07561C18.2402 9.03722 18.2999 9.33164 19.1853 9.05864C19.6769 8.9071 20.0589 8.98149 20.0622 9.22064C20.0663 9.5086 19.6694 9.57553 19.6694 9.57553C19.6694 9.57553 19.8239 9.89142 20.1357 9.75192C20.4475 9.61242 20.4639 9.85308 20.4912 9.93521C20.5186 10.0173 20.5705 10.0966 20.6389 10.1048C20.6389 10.1048 20.6881 10.2524 20.669 10.2716C20.6499 10.2907 20.5213 10.4521 20.3928 10.4521C20.2643 10.4521 19.9853 10.4521 19.9853 10.4521C19.9853 10.4521 19.9114 10.2688 20.0537 10.2661C20.1959 10.2634 20.3682 10.2525 20.3463 10.1759C20.3244 10.0993 20.2123 10.0637 20.215 9.97894C20.215 9.97894 19.8841 10.2196 19.679 9.93516L19.6735 10.0692C19.6735 10.0692 19.4246 10.0227 19.3344 9.82303C19.3344 9.82303 19.3591 10.0473 19.1458 10.0145C19.1458 10.0145 19.1896 10.0801 19.2634 10.1266C19.3373 10.1731 19.2606 10.2743 19.1184 10.359C18.9763 10.4438 18.5387 10.69 18.339 10.4384C18.1394 10.1868 18.3828 10.0418 18.4429 10.0582C18.5031 10.0746 18.6754 10.3399 18.793 10.3043C18.9106 10.2688 18.968 10.1484 18.8695 10.0747C18.7711 10.0009 18.6974 9.93103 18.7594 9.8565C18.8448 9.75408 19.1595 9.78478 19.1485 9.71644C19.1376 9.64805 18.8449 9.66722 18.6535 9.85861C18.4621 10.05 17.6306 10.4904 17.2997 10.2114C16.9688 9.93249 17.2327 9.66174 17.2327 9.66174Z" fill="#FFE15A"/>
<path d="M17.126 9.53893C17.126 9.53893 17.3762 9.78507 17.7988 9.86302C17.7988 9.86302 17.7209 9.98199 17.4952 9.94918C17.4952 9.94918 17.5855 10.0271 17.6471 10.1584C17.6471 10.1584 17.5035 10.1912 17.3763 10.1214C17.3763 10.1214 17.3927 10.2281 17.4542 10.3143C17.4542 10.3143 17.286 10.3143 17.1424 10.1871L17.085 10.3512C17.085 10.3512 16.9866 10.2856 16.925 10.1583C16.925 10.1583 16.8101 10.2486 16.6953 10.2486C16.6953 10.2486 16.7363 10.1256 16.7363 10.0558C16.7363 10.0558 16.5723 10.1542 16.4369 10.1173C16.4369 10.1173 16.4409 9.945 16.4861 9.89578C16.4861 9.89578 16.3794 9.90811 16.3097 9.87118C16.3097 9.87118 16.3507 9.77682 16.3712 9.71527C16.3712 9.71527 16.2563 9.71935 16.1866 9.65372C16.1866 9.65372 16.4082 9.56757 16.4574 9.48553L17.126 9.53893Z" fill="#FFD25A"/>
<path d="M16.7226 8.84973C16.7718 8.87711 16.8511 8.93725 16.884 9.0384C16.884 9.0384 16.9743 8.90711 17.1301 8.8825C17.1301 8.8825 17.1985 8.95904 17.1794 9.15868C17.1794 9.15868 17.3517 9.10947 17.4447 9.1997C17.4447 9.1997 17.2614 9.24072 17.1766 9.39386C17.1766 9.39386 17.1437 9.55032 17.2012 9.64332C17.2012 9.64332 17.1372 9.65186 17.0727 9.62364C17.0727 9.62364 17.0399 9.77954 17.0727 9.82876C17.0727 9.82876 16.9824 9.81779 16.9332 9.72212C16.9332 9.72212 16.8593 9.83425 16.8648 9.90264C16.8648 9.90264 16.7664 9.84522 16.7609 9.76047C16.7609 9.76047 16.6925 9.889 16.6187 9.89997C16.6187 9.89997 16.6105 9.71945 16.5777 9.65106C16.5777 9.65106 16.5148 9.71945 16.4328 9.71668C16.4328 9.71668 16.4328 9.57718 16.5012 9.51156C16.5012 9.51156 16.3863 9.54709 16.3234 9.42128C16.3234 9.42128 16.512 9.47593 16.5585 9.36114C16.605 9.24625 16.6187 9.21072 16.6844 9.14781C16.75 9.08495 16.7226 8.84973 16.7226 8.84973Z" fill="#FFBE5A"/>
<path d="M17.126 9.37895C17.126 9.37895 16.8922 9.8261 16.6789 9.69077C16.4452 9.54241 16.7363 9.19436 16.7732 9.15747C16.7732 9.15742 16.9455 9.20256 17.126 9.37895Z" fill="#FFE15A"/>
<path d="M16.2826 11.6692C16.2826 11.6692 16.2581 11.348 16.084 11.2554C15.9203 11.1683 15.8236 11.1247 15.8049 11.0131C15.8049 11.0131 15.9471 11.0784 16.0974 11.1192C16.2333 11.1561 16.3658 11.386 16.3256 11.6447L16.2826 11.6692Z" fill="#5ABEA0"/>
<path d="M15.7331 11.9332L15.7552 11.974L15.7713 12.0618L15.7391 12.1659C15.7391 12.1659 15.867 12.2168 15.8961 12.3905C15.9161 12.5097 15.9686 12.5355 16.0008 12.511C16.033 12.4864 16.0525 12.4575 16.0189 12.3272C15.9759 12.1608 15.8598 12.0026 15.8598 12.0026L15.7693 11.8637L15.7331 11.9332Z" fill="#B46446"/>
<path d="M15.86 12.0028C15.7432 11.8517 15.4251 11.5373 15.3648 11.966C15.3648 11.966 15.2401 11.6048 15.4735 11.6189C15.7432 11.6353 15.86 12.0028 15.86 12.0028Z" fill="#5ABEA0"/>
<path d="M15.7552 11.9742C15.6546 11.8639 15.6223 11.7823 15.57 11.5781C15.5177 11.374 15.5016 11.3127 15.4412 11.3167C15.3808 11.3208 15.3446 11.3862 15.3446 11.5168C15.3446 11.5168 15.1674 11.3575 15.2882 11.231C15.409 11.1044 15.6787 11.1738 15.6948 11.3984C15.7109 11.623 15.7069 11.7741 15.7874 11.9619L15.7552 11.9742Z" fill="#5ABEA0"/>
<path d="M15.7835 11.8762C15.7835 11.8762 15.5701 11.4066 16.17 11.1534C16.17 11.1534 15.6385 11.0105 15.703 11.7659L15.7835 11.8762Z" fill="#5ABEA0"/>
<path d="M15.8519 12.0436C15.8519 12.0436 15.401 11.8721 15.4413 12.2887C15.4413 12.2887 15.5178 12.0926 15.7392 12.1662L15.8519 12.0436Z" fill="#5ABEA0"/>
<path d="M16.3632 11.8788C16.3632 12.0006 16.4111 12.3541 16.3431 12.3987C16.3088 12.4212 16.2122 12.4028 16.2203 12.3171C16.2283 12.2314 16.2666 11.8148 16.2666 11.7127C16.2666 11.6106 16.3632 11.8788 16.3632 11.8788Z" fill="#B46446"/>
<path d="M16.076 12.1618C16.1539 12.0828 16.178 11.9032 16.1511 11.6636C16.1511 11.6636 16.3122 11.7752 16.3632 11.8786C16.3632 11.8786 16.4142 11.6418 16.2478 11.5792C16.0814 11.5165 15.9928 11.552 15.9633 11.6281C15.9337 11.7044 16.0141 11.7896 16.0492 11.914C16.0813 12.0284 16.076 12.1618 16.076 12.1618Z" fill="#5ABEA0"/>
<path d="M16.3525 11.816C16.3525 11.816 16.3793 11.6908 16.4679 11.6391C16.4679 11.6391 16.6504 11.767 16.6369 11.9385C16.6369 11.9385 16.6853 11.7044 16.5859 11.6119C16.4866 11.5193 16.3739 11.4948 16.3175 11.5765C16.2612 11.6581 16.3525 11.816 16.3525 11.816Z" fill="#5ABEA0"/>
<path d="M16.3954 11.5764C16.3954 11.5764 16.4518 11.2416 16.594 11.1681C16.7362 11.0946 16.9993 11.0265 17.0154 11.0101C17.0154 11.0101 16.7014 11.0265 16.6504 11.0265C16.5994 11.0265 16.3175 11.2306 16.3175 11.5329C16.3175 11.835 16.3444 11.6282 16.3525 11.6254C16.3605 11.6227 16.3954 11.5764 16.3954 11.5764Z" fill="#5ABEA0"/>
<path d="M16.5263 12.462C16.5585 12.5294 16.635 12.5457 16.6511 12.511C16.6672 12.4763 16.7397 12.2109 16.7397 12.2109L16.637 12.1619L16.5263 12.462Z" fill="#B46446"/>
<path d="M17.1282 11.3479C17.2543 11.2744 17.3376 11.4922 17.3376 11.4922C17.3376 11.2358 17.257 11.1547 17.0557 11.2527C16.9951 11.2822 16.9507 11.344 16.9181 11.4157C16.8162 11.1229 16.5914 11.1274 16.5914 11.1274L16.5404 11.1628C16.7244 11.1982 16.8299 11.4187 16.8744 11.539C16.8504 11.6268 16.8388 11.7119 16.8338 11.7606C16.7132 11.8857 16.637 12.1619 16.637 12.1619C16.637 12.1619 16.7236 12.2129 16.7397 12.2108C16.7397 12.2108 16.7961 12.0373 16.8665 12.0414C16.937 12.0455 17.0195 12.1578 17.0215 12.2293C17.0215 12.2293 17.1262 12.0169 17.0014 11.9353C16.9545 11.9046 16.9171 11.8929 16.8868 11.8924L16.9793 11.7883C17.1303 11.8169 17.235 11.9598 17.235 11.9598C17.238 11.7046 17.1253 11.6548 17.0065 11.6761C17.0277 11.5734 17.0745 11.3792 17.1282 11.3479Z" fill="#5ABEA0"/>
<path d="M19.6134 11.7014C19.6134 11.9154 19.6134 12.39 19.6134 12.4251C19.6134 12.4601 19.4602 12.5962 19.4602 12.5962H19.8676C19.8676 12.5962 19.7368 12.4445 19.7368 12.4251C19.7368 12.4057 19.7667 11.7558 19.7667 11.7558L19.6134 11.7014Z" fill="#B46446"/>
<path d="M19.6396 11.7754C19.5425 11.7676 19.2733 11.9894 19.1948 12.3279C19.1948 12.3279 18.9555 11.9388 19.5537 11.6158C19.5537 11.6158 19.2882 11.538 18.8845 11.9582C18.8627 11.9809 18.8434 11.324 19.5686 11.4991C19.5686 11.4991 19.292 11.0983 18.7237 11.4135C18.7237 11.4135 19.1013 10.7364 19.6584 11.3435C19.6584 11.3435 19.6621 10.8181 19.6658 10.8726C19.6696 10.9271 19.7107 11.1683 19.7107 11.1683L19.8191 10.9777L19.7332 11.3668C19.7332 11.3668 20.2304 10.7053 20.6528 11.3941C20.6528 11.3941 20.107 11.1684 19.8453 11.4213C19.8453 11.4213 20.4061 11.2695 20.3612 11.9193C20.3612 11.9193 20.1407 11.5341 19.7818 11.5847C19.7818 11.5847 20.2043 11.7792 20.0696 12.3046C20.0696 12.3046 19.815 11.7894 19.6396 11.7754Z" fill="#5ABEA0"/>
<path d="M16.0695 14.1138C16.0487 14.0857 16.0195 14.0721 15.9909 14.0685C16.002 14.0306 16.0093 14.0132 16.0064 13.9856C16.0151 13.9877 16.0234 13.9917 16.0324 13.9928L16.0362 13.9615C16.003 13.9575 15.9668 13.9426 15.9297 13.92C15.9526 13.9003 15.9692 13.8701 15.9692 13.8331C15.9692 13.793 15.9508 13.7593 15.9246 13.7402C15.8984 13.7594 15.8799 13.793 15.8799 13.8331C15.8799 13.8633 15.8923 13.8875 15.9085 13.9068C15.8947 13.8973 15.8807 13.8862 15.8667 13.8743C15.8631 13.8496 15.8536 13.8247 15.8317 13.8047C15.802 13.7777 15.7648 13.7686 15.733 13.7751C15.7295 13.8073 15.7419 13.8436 15.7716 13.8707C15.7945 13.8916 15.8215 13.8987 15.8475 13.8993C15.8534 13.9043 15.8595 13.9093 15.8661 13.9144C15.8483 13.9123 15.8291 13.9141 15.8099 13.9211C15.7721 13.9349 15.7469 13.9636 15.7379 13.9948C15.7648 14.0128 15.8027 14.0187 15.8404 14.0049C15.8734 13.9929 15.8946 13.9688 15.906 13.9423C15.9281 13.9564 15.9523 13.9682 15.9774 13.9776L15.9734 13.9781C15.9726 14.0008 15.9741 14.0101 15.9628 14.0522C15.9375 14.0357 15.9039 14.0283 15.8684 14.0388C15.8299 14.0501 15.8028 14.0773 15.7919 14.1078C15.8176 14.1275 15.855 14.1358 15.8936 14.1244C15.9226 14.1158 15.9422 14.0972 15.9563 14.0761C15.951 14.0921 15.9443 14.1086 15.9368 14.1254C15.9142 14.1359 15.893 14.152 15.88 14.1787C15.8624 14.2148 15.8643 14.2531 15.8795 14.2818C15.9114 14.2761 15.9427 14.2538 15.9603 14.2178C15.9738 14.1899 15.9731 14.162 15.9663 14.1369C15.9694 14.1299 15.9725 14.1225 15.9756 14.1148C15.9785 14.1325 15.9857 14.1504 15.9978 14.1668C16.0216 14.1991 16.0564 14.2153 16.0888 14.2151C16.0985 14.1842 16.0934 14.1462 16.0695 14.1138Z" fill="#5ABEA0"/>
<path d="M15.8847 14.0129C16.0212 14.0129 16.1997 14.0077 16.1944 14.1441C16.1892 14.2805 16.0369 14.7425 16.3886 14.8842C16.7402 15.0259 16.7822 15.0049 16.7822 15.0049L16.9397 15.3671L17.3228 15.2306L16.9554 14.9366C16.9554 14.9366 16.9239 14.7372 16.8347 14.6007C16.8347 14.6007 17.0604 14.4852 17.1391 14.3855L16.9817 14.375C16.9817 14.375 17.1864 14.2438 17.2808 14.0968L17.1706 14.1073C17.1706 14.1073 17.2966 13.9813 17.3281 13.8344C17.3281 13.8344 17.1234 14.0391 16.9134 14.0653C16.9134 14.0653 17.0026 13.8344 17.0236 13.7452C17.0236 13.7452 16.8662 13.8449 16.756 13.8869C16.6458 13.9289 16.4725 13.9341 16.5513 14.291C16.5513 14.291 16.4568 14.2123 16.3991 14.0443C16.3414 13.8764 16.3204 13.8134 16.2416 13.8134C16.113 13.8134 16.0632 13.9289 16.0632 13.9289L15.8847 14.0129Z" fill="#FFECDE"/>
<path d="M19.7587 14.0804C19.8059 14.0174 19.9004 13.8207 19.983 13.8718C20.0656 13.923 20.1758 14.0489 20.2427 13.9899C20.3095 13.9309 20.3135 13.8561 20.2112 13.8207C20.1089 13.7853 19.9948 13.7262 19.924 13.7499C19.8532 13.7734 19.6368 13.9978 19.6368 13.9978L19.7587 14.0804Z" fill="#B46446"/>
<path d="M19.1489 14.2495C19.1449 14.159 19.206 13.7661 19.4519 13.8167C19.5856 13.8443 19.6515 13.9861 19.8257 14.0528C20.0106 14.1236 20.1287 14.1669 20.0933 14.2888C20.0578 14.4108 19.9909 14.5564 19.8375 14.5918C19.684 14.6273 19.1489 14.2495 19.1489 14.2495Z" fill="#FFE15A"/>
<path d="M18.9876 14.5735C18.9351 14.584 18.741 14.8673 18.9719 15.1559C18.9719 15.1559 19.2552 15.2713 19.4808 15.0929C19.7064 14.9145 19.5385 14.8253 19.5385 14.8253L18.9876 14.5735Z" fill="#5ABEA0"/>
<path d="M19.0072 14.6351C18.9836 14.5997 18.9876 14.5735 18.9876 14.5735C18.9876 14.5735 18.9757 14.1669 19.145 14.159C19.3142 14.1511 19.924 14.5525 19.924 14.6194C19.924 14.6863 19.7272 14.8791 19.562 14.9184C19.3968 14.9578 19.0072 14.6351 19.0072 14.6351Z" fill="#5ABEA0"/>
<path d="M18.5901 15.6189C18.5901 15.6189 19.1276 15.3774 19.0266 15.1809C18.9537 15.0392 18.7898 15.13 18.7639 15.2383C18.7315 15.3733 18.6265 15.5615 18.5901 15.6189Z" fill="#B46446"/>
<path d="M17.997 16.3052L17.9659 16.2953C17.9348 16.2853 17.1928 16.0463 16.4386 15.5492C15.4259 14.8818 14.8905 14.0672 14.8905 13.1937V8.44861H21.1035V13.1937C21.1035 14.0672 20.5681 14.8818 19.5554 15.5492C18.8012 16.0463 18.0593 16.2853 18.028 16.2953L17.997 16.3052ZM15.0953 8.65345V13.1937C15.0953 15.035 17.6818 15.9813 17.997 16.0897C18.3119 15.9813 20.8987 15.0334 20.8987 13.1937V8.65345H15.0953V8.65345Z" fill="#464655"/>
</svg>
