<svg xmlns="http://www.w3.org/2000/svg" width="24" height="24" viewBox="0 0 24 24" fill="none"><rect width="24" height="24" fill="none"/>
<path d="M0 18.0647C0 19.0573 0.804703 19.8621 1.79742 19.8621H22.2026C23.1952 19.8621 24 19.0574 24 18.0647V14.6207H0V18.0647Z" fill="#FF4B55"/>
<path d="M22.2026 4.13793H1.79742C0.804703 4.13793 0 4.94263 0 5.93535V9.37931H24V5.93535C24 4.94263 23.1953 4.13793 22.2026 4.13793Z" fill="#FFE15A"/>
<path d="M24 9.37922H0V14.6203H24V9.37922Z" fill="#73AF00"/>
<path d="M12.2359 6.79495L13.475 10.5104L17.3915 10.5408C17.6304 10.5427 17.7295 10.8476 17.5373 10.9894L14.3866 13.3161L15.568 17.0503C15.6401 17.2781 15.3807 17.4665 15.1864 17.3276L12 15.0501L8.81363 17.3276C8.61924 17.4665 8.35993 17.2781 8.43197 17.0503L9.61336 13.3161L6.46271 10.9894C6.27052 10.8475 6.36961 10.5426 6.60849 10.5408L10.525 10.5104L11.7641 6.79495C11.8397 6.56831 12.1603 6.56831 12.2359 6.79495Z" fill="#F5F5F5"/>
</svg>
