<svg xmlns="http://www.w3.org/2000/svg" width="24" height="24" viewBox="0 0 24 24" fill="none"><rect width="24" height="24" fill="none"/>
<path d="M0.642188 4.55862C0.249656 4.88839 0 5.38259 0 5.93534V18.0647C0 18.6174 0.249656 19.1116 0.642188 19.4413L12 12L0.642188 4.55862Z" fill="#41479B"/>
<path d="M0.642189 19.4414C0.954611 19.7038 1.35741 19.8621 1.79738 19.8621H22.2025C23.1952 19.8621 24 19.0574 24 18.0646V12H12L0.642189 19.4414Z" fill="#FF4B55"/>
<path d="M22.2026 4.13794H1.79742C1.35745 4.13794 0.95461 4.29628 0.642235 4.55864L12 12H24V5.93536C24 4.94264 23.1953 4.13794 22.2026 4.13794Z" fill="#F5F5F5"/>
</svg>
