<svg xmlns="http://www.w3.org/2000/svg" width="24" height="24" viewBox="0 0 24 24" fill="none"><rect width="24" height="24" fill="none"/>
<path d="M22.2026 19.8621H1.79742C0.804703 19.8621 0 19.0574 0 18.0646V5.93536C0 4.94269 0.804703 4.13794 1.79742 4.13794H22.2026C23.1952 4.13794 24 4.94264 24 5.93536V18.0647C24 19.0574 23.1953 19.8621 22.2026 19.8621Z" fill="#F5F5F5"/>
<path d="M24 5.79327H0V7.44843H24V5.79327Z" fill="#FF4B55"/>
<path d="M24 16.5516H0V18.2068H24V16.5516Z" fill="#FF4B55"/>
<path d="M11.6486 10.7269L12.2311 11.4889L13.1406 11.1844C13.1915 11.1674 13.2347 11.2249 13.2043 11.269L12.6596 12.0585L13.2302 12.8295C13.2621 12.8725 13.2208 12.9315 13.1693 12.9161L12.2502 12.6421L11.6933 13.423C11.6622 13.4666 11.5934 13.4455 11.5921 13.392L11.5688 12.4331L10.654 12.1448C10.6028 12.1286 10.6016 12.0567 10.6522 12.0389L11.5569 11.7204L11.5484 10.7612C11.5479 10.7076 11.616 10.6843 11.6486 10.7269Z" fill="#FF4B55"/>
<path d="M8.64793 14.9814C7.00285 14.9814 5.66837 13.6469 5.66837 12.0003C5.66837 10.3568 7.00285 9.01933 8.64793 9.01933C9.25998 9.01933 9.82444 9.20754 10.2948 9.52619C10.3669 9.57499 10.4491 9.4803 10.3888 9.41763C9.68579 8.68671 8.69077 8.24083 7.58762 8.27852C5.69227 8.34316 4.12327 9.8628 4.00215 11.7553C3.86344 13.9231 5.57987 15.7246 7.71699 15.7246C8.76966 15.7246 9.71579 15.2845 10.3914 14.5808C10.4511 14.5187 10.3687 14.4254 10.2974 14.4738C9.82641 14.7929 9.26105 14.9814 8.64793 14.9814Z" fill="#FF4B55"/>
</svg>
