<svg xmlns="http://www.w3.org/2000/svg" width="24" height="24" viewBox="0 0 24 24" fill="none"><rect width="24" height="24" fill="none"/>
<path d="M22.2026 4.13789H1.79742C0.804703 4.13789 0 4.9426 0 5.93532V18.0647C0 19.0574 0.804703 19.8621 1.79742 19.8621H22.2026C23.1952 19.8621 24 19.0574 24 18.0647V5.93532C24 4.9426 23.1953 4.13789 22.2026 4.13789Z" fill="#F5F5F5"/>
<path d="M12 16.5515C14.5138 16.5515 16.5516 14.5137 16.5516 12C16.5516 9.4862 14.5138 7.44839 12 7.44839C9.48624 7.44839 7.44844 9.4862 7.44844 12C7.44844 14.5137 9.48624 16.5515 12 16.5515Z" fill="#FF4B55"/>
</svg>
