<svg xmlns="http://www.w3.org/2000/svg" width="24" height="24" viewBox="0 0 24 24" fill="none"><rect width="24" height="24" fill="none"/>
<path d="M22.209 19.8624H1.79566C0.806407 19.8624 0 19.0607 0 18.0668V5.93317C0 4.93923 0.806407 4.13751 1.79566 4.13751H22.2043C23.1983 4.13751 24 4.94392 24 5.93317V18.0668C24.0047 19.0607 23.1983 19.8624 22.209 19.8624Z" fill="#FFE15A"/>
<path d="M1.79566 4.13751C0.806407 4.13751 0 4.93923 0 5.93317V18.0668C0 19.0607 0.806407 19.8624 1.79566 19.8624H7.99843V4.13751H1.79566Z" fill="#464655"/>
<path d="M22.209 4.13751H16.0016V19.8624H22.2043C23.1983 19.8624 24 19.056 24 18.0668V5.93317C24.0047 4.93923 23.1983 4.13751 22.209 4.13751Z" fill="#FF4B55"/>
</svg>
