<svg xmlns="http://www.w3.org/2000/svg" width="24" height="24" viewBox="0 0 24 24" fill="none"><rect width="24" height="24" fill="none"/>
<g clip-path="url(#clip0)">
<path d="M22.2031 19.8625H1.79794C0.805269 19.8625 0.000518799 19.0578 0.000518799 18.0651V5.93588C0.000518799 4.94321 0.805222 4.13846 1.79794 4.13846H22.2031C23.1957 4.13846 24.0005 4.94316 24.0005 5.93588V18.0652C24.0005 19.0578 23.1958 19.8625 22.2031 19.8625Z" fill="#41479B"/>
<path d="M7.03496 6.64872V4.13753H4.96599V6.64876L1.25883 4.21993C0.825988 4.35587 0.464113 4.65133 0.241128 5.03715L3.28903 7.03408H0.000518799V9.10304H3.28894L0.000518799 11.2575V11.5871C0.00131567 11.815 0.186191 11.9995 0.414238 11.9995H1.13297L4.96594 9.48831V11.9995H7.03491V9.48831L10.8679 11.9995H11.5866C11.8151 11.9995 12.0004 11.8142 12.0004 11.5857V11.2575L8.71191 9.103H12.0004V7.03408H8.71191L12.0004 4.87951V4.55129C12.0004 4.32283 11.8153 4.13762 11.5868 4.13748H10.8679L7.03496 6.64872Z" fill="#F5F5F5"/>
<path d="M11.9995 7.44874H6.62021V4.13843H5.37882V7.44874H-0.000457764V8.69013H5.37882V12.0005H6.62021V8.69013H11.9995V7.44874Z" fill="#FF4B55"/>
<path d="M0.385239 4.82311L3.79122 7.03402H4.55125L0.684301 4.52386C0.573254 4.61157 0.472895 4.71202 0.385239 4.82311Z" fill="#FF4B55"/>
<path d="M7.79406 7.03406L11.9366 4.34503C11.8646 4.2232 11.7376 4.13751 11.5857 4.13751H11.4962L7.03403 7.03406H7.79406Z" fill="#FF4B55"/>
<path d="M4.19363 9.10303L0.059021 11.7868C0.130224 11.9116 0.259318 11.9995 0.413349 11.9995H0.491396L4.95366 9.10294H4.19363V9.10303Z" fill="#FF4B55"/>
<path d="M11.9929 11.6182L8.11797 9.10303H7.35799L11.7583 11.9593C11.8901 11.8981 11.9805 11.7699 11.9929 11.6182Z" fill="#FF4B55"/>
<path d="M18.1753 8.02103H15.4661C15.4661 8.02103 15.4661 11.527 15.4661 12.9613C15.4661 14.0769 18.1753 15.1924 18.1753 15.1924C18.1753 15.1924 20.8845 14.0769 20.8845 12.9613C20.8845 11.527 20.8845 8.02103 20.8845 8.02103H18.1753V8.02103Z" fill="#73AF00"/>
<path d="M16.5892 11.7906C16.5892 11.7906 16.574 11.7382 16.5875 11.6908C16.6011 11.6434 16.5663 11.6 16.5588 11.5589C16.5385 11.4472 16.6332 11.4184 16.6383 11.3187C16.6383 11.3187 16.7059 11.388 16.6806 11.454C16.6552 11.52 16.7178 11.5302 16.7094 11.5927C16.7009 11.6553 16.6315 11.7213 16.6383 11.7771L16.5892 11.7906Z" fill="#FF4B55"/>
<path d="M17.6544 11.6846C17.599 11.6154 17.502 11.6899 17.4309 11.7441C17.421 11.7517 17.4126 11.7575 17.4039 11.7639L17.1417 11.3768C17.1491 11.3657 17.1544 11.3532 17.1544 11.3389C17.1544 11.3004 17.1232 11.2691 17.0845 11.2691C17.0459 11.2691 17.0147 11.3003 17.0147 11.3389C17.0147 11.3532 17.02 11.3658 17.0274 11.3768L16.7569 11.7761H16.5655C16.5655 11.7761 16.5575 11.8951 16.7666 11.9096C16.7935 11.9504 16.832 11.9829 16.878 12.0012C16.8564 12.0048 16.839 12.0214 16.839 12.0441V12.0721C16.839 12.0739 16.8407 12.0749 16.8408 12.0766H17.3279C17.3281 12.0749 17.3298 12.0739 17.3298 12.0721V12.0441C17.3298 12.0212 17.3121 12.0042 17.2901 12.001C17.3716 11.9682 17.4289 11.8919 17.4385 11.8013C17.4461 11.7957 17.4532 11.7905 17.4615 11.7843C17.5129 11.7448 17.5903 11.6847 17.615 11.7162C17.6212 11.7239 17.6206 11.7282 17.6203 11.7297C17.6175 11.748 17.5785 11.7742 17.5471 11.7953C17.4978 11.8284 17.4467 11.8628 17.4427 11.9116C17.4415 11.9255 17.4518 11.9375 17.4656 11.9388C17.4663 11.9388 17.4671 11.9388 17.4678 11.9388C17.4807 11.9388 17.4918 11.9288 17.4928 11.9158C17.4948 11.8911 17.5394 11.8612 17.5752 11.8372C17.6208 11.8064 17.6639 11.7775 17.6701 11.7375C17.6729 11.719 17.6676 11.7013 17.6544 11.6846ZM17.2063 11.776C17.1919 11.721 17.1579 11.6681 17.1153 11.649C17.1378 11.6374 17.1537 11.6146 17.1537 11.5875C17.1537 11.549 17.1225 11.5177 17.0839 11.5177C17.0454 11.5177 17.014 11.5489 17.014 11.5875C17.014 11.6146 17.0299 11.6374 17.0524 11.649C17.0099 11.6681 16.9758 11.7209 16.9615 11.776H16.8178L17.0687 11.4055C17.0739 11.4067 17.079 11.4087 17.0846 11.4087C17.0902 11.4087 17.0952 11.4067 17.1005 11.4055L17.3514 11.776H17.2063Z" fill="#FFE15A"/>
<path d="M18.0026 9.42875C18.0026 9.42875 17.7503 9.35408 17.6374 10.2372C17.6374 10.2372 17.0199 11.0224 17 11.0689C16.9801 11.1154 16.9983 11.449 17.0648 11.4224C17.1312 11.3959 17.2507 11.2415 17.2441 11.1286C17.2374 11.0157 17.2884 10.9527 17.3387 10.8962C17.4332 10.79 17.9662 10.3085 17.9861 10.2023C18.006 10.0961 18.0026 9.42875 18.0026 9.42875Z" fill="#FFC8B9"/>
<path d="M18.3945 9.2613C18.3945 9.2613 18.7846 9.20983 18.8991 9.60827C18.8991 9.60827 18.5787 9.78424 18.6186 10.0133C18.6584 10.2424 18.6136 11.2882 18.6136 11.2882C18.001 11.4874 17.6773 11.2384 17.6773 11.2384C17.6773 11.2384 17.8367 10.6458 17.8118 10.1627C17.8118 10.1627 17.6674 10.0532 17.7023 9.92866C17.7371 9.80416 17.8268 9.66471 17.8567 9.56013C17.8866 9.45555 17.9662 9.28122 18.1605 9.26627C18.3546 9.25136 18.3945 9.2613 18.3945 9.2613Z" fill="#F5F5F5"/>
<path d="M17.7902 11.1222C17.7902 11.1222 17.4848 12.2776 17.591 13.8513C17.591 13.8513 18.5439 13.9774 19.0619 13.7882C19.0619 13.7882 18.7929 11.9057 18.534 11.1686L17.7902 11.1222Z" fill="#F5F5F5"/>
<path d="M17.9695 8.58054V9.05918C17.9695 9.11172 18.0121 9.15433 18.0646 9.15433H18.0731C18.1103 9.15433 18.1405 9.18447 18.1405 9.22169V9.33611C18.1405 9.33611 18.2046 9.50365 18.4541 9.30761V8.5841L17.9695 8.58054Z" fill="#FFC8B9"/>
<path d="M17.913 8.48251C17.8975 8.52118 17.9139 8.62608 18.0093 8.61863C18.1285 8.6093 18.2724 8.60865 18.3047 8.74065C18.3348 8.86332 18.3147 9.16974 18.4475 9.18971C18.5804 9.20963 18.7309 9.12137 18.7281 8.85769C18.7256 8.62529 18.5737 8.34722 18.3612 8.38955C18.3612 8.38955 18.1728 8.25755 18.0624 8.40615C18.0625 8.40615 17.9463 8.39949 17.913 8.48251Z" fill="#8C5A28"/>
<path d="M18.8991 9.60803C18.8991 9.60803 19.035 10.5035 19.0285 10.5775C19.0219 10.6539 18.5471 11.3876 18.5737 11.4673C18.6003 11.547 18.6268 11.6533 18.4807 11.6931C18.3347 11.733 18.3496 11.4997 18.3894 11.3802C18.4292 11.2607 18.7629 10.624 18.7629 10.551C18.7629 10.478 18.5736 10.0065 18.6201 9.82056C18.6667 9.63456 18.8991 9.60803 18.8991 9.60803Z" fill="#FFC8B9"/>
<path d="M15.9916 8.96497C15.9916 8.96497 15.9764 8.91251 15.9899 8.86512C16.0034 8.81773 15.9686 8.77428 15.9611 8.73317C15.9408 8.62151 16.0356 8.59273 16.0406 8.49298C16.0406 8.49298 16.1083 8.56236 16.083 8.62836C16.0576 8.69436 16.1202 8.70448 16.1117 8.76706C16.1033 8.82964 16.0339 8.89564 16.0407 8.95147L15.9916 8.96497Z" fill="#FF4B55"/>
<path d="M17.0568 8.85892C17.0014 8.78973 16.9044 8.86426 16.8333 8.91845C16.8234 8.92605 16.815 8.93186 16.8062 8.93823L16.5441 8.55109C16.5515 8.54003 16.5568 8.52751 16.5568 8.51326C16.5568 8.47469 16.5256 8.44342 16.4869 8.44342C16.4483 8.44342 16.4171 8.47464 16.4171 8.51326C16.4171 8.52756 16.4224 8.54008 16.4297 8.55109L16.1593 8.95042H15.9678C15.9678 8.95042 15.9599 9.06944 16.169 9.08387C16.1959 9.1247 16.2344 9.15719 16.2804 9.17556C16.2588 9.17908 16.2414 9.19576 16.2414 9.21841V9.24639C16.2414 9.24817 16.243 9.2492 16.2432 9.25094H16.7303C16.7305 9.24925 16.7322 9.24822 16.7322 9.24639V9.21841C16.7322 9.19553 16.7145 9.17847 16.6925 9.17533C16.774 9.14251 16.8313 9.06625 16.8409 8.97564C16.8485 8.97001 16.8556 8.96486 16.8639 8.95862C16.9153 8.91915 16.9927 8.85906 17.0174 8.89051C17.0236 8.8982 17.023 8.90247 17.0227 8.90401C17.0199 8.9223 16.9809 8.94854 16.9495 8.96959C16.9001 9.00273 16.8491 9.03714 16.8451 9.08589C16.8439 9.09981 16.8542 9.11186 16.868 9.11317C16.8687 9.11317 16.8695 9.11317 16.8701 9.11317C16.8831 9.11317 16.8941 9.10319 16.8952 9.09015C16.8972 9.06545 16.9418 9.03555 16.9776 9.01155C17.0232 8.98075 17.0663 8.95187 17.0725 8.91184C17.0753 8.89333 17.07 8.87565 17.0568 8.85892ZM16.6087 8.95037C16.5943 8.89534 16.5602 8.84247 16.5177 8.82334C16.5402 8.81176 16.5561 8.78894 16.5561 8.76189C16.5561 8.72336 16.5249 8.69205 16.4863 8.69205C16.4477 8.69205 16.4164 8.72326 16.4164 8.76189C16.4164 8.78894 16.4323 8.81176 16.4548 8.82334C16.4123 8.84242 16.3782 8.8953 16.3638 8.95037H16.2202L16.4711 8.57983C16.4763 8.58105 16.4813 8.58301 16.487 8.58301C16.4926 8.58301 16.4976 8.58105 16.5029 8.57983L16.7538 8.95037H16.6087Z" fill="#FFE15A"/>
<path d="M15.9916 9.90683C15.9916 9.90683 15.9764 9.85438 15.9899 9.80699C16.0034 9.7596 15.9686 9.71614 15.9611 9.67503C15.9408 9.56338 16.0356 9.53459 16.0406 9.43484C16.0406 9.43484 16.1083 9.50422 16.083 9.57022C16.0576 9.63622 16.1202 9.64634 16.1117 9.70892C16.1033 9.7715 16.0339 9.8375 16.0407 9.89333L15.9916 9.90683Z" fill="#FF4B55"/>
<path d="M17.0568 9.80081C17.0014 9.73163 16.9044 9.80616 16.8333 9.86035C16.8234 9.86794 16.815 9.87375 16.8062 9.88013L16.5441 9.49299C16.5515 9.48192 16.5568 9.46941 16.5568 9.45516C16.5568 9.41658 16.5256 9.38531 16.4869 9.38531C16.4483 9.38531 16.4171 9.41653 16.4171 9.45516C16.4171 9.46946 16.4224 9.48197 16.4297 9.49299L16.1593 9.89232H15.9678C15.9678 9.89232 15.9599 10.0113 16.169 10.0258C16.1959 10.0666 16.2344 10.0991 16.2804 10.1175C16.2588 10.121 16.2414 10.1377 16.2414 10.1603V10.1883C16.2414 10.1901 16.243 10.1911 16.2432 10.1928H16.7303C16.7305 10.1911 16.7322 10.1901 16.7322 10.1883V10.1603C16.7322 10.1374 16.7145 10.1204 16.6925 10.1172C16.774 10.0844 16.8313 10.0081 16.8409 9.91749C16.8485 9.91186 16.8556 9.90671 16.8639 9.90047C16.9153 9.861 16.9927 9.80091 17.0174 9.83236C17.0236 9.84005 17.023 9.84431 17.0227 9.84586C17.0199 9.86414 16.9809 9.89039 16.9495 9.91144C16.9001 9.94458 16.8491 9.97899 16.8451 10.0277C16.8439 10.0417 16.8542 10.0537 16.868 10.055C16.8687 10.055 16.8695 10.055 16.8701 10.055C16.8831 10.055 16.8941 10.045 16.8952 10.032C16.8972 10.0073 16.9418 9.97735 16.9776 9.95335C17.0232 9.92255 17.0663 9.89367 17.0725 9.85364C17.0753 9.83522 17.07 9.81755 17.0568 9.80081ZM16.6087 9.89227C16.5943 9.83724 16.5602 9.78436 16.5177 9.76524C16.5402 9.75366 16.5561 9.73083 16.5561 9.70378C16.5561 9.66525 16.5249 9.63394 16.4863 9.63394C16.4477 9.63394 16.4164 9.66516 16.4164 9.70378C16.4164 9.73083 16.4323 9.75366 16.4548 9.76524C16.4123 9.78432 16.3782 9.83719 16.3638 9.89227H16.2202L16.4711 9.52172C16.4763 9.52294 16.4813 9.52491 16.487 9.52491C16.4926 9.52491 16.4976 9.52294 16.5029 9.52172L16.7538 9.89227H16.6087Z" fill="#FFE15A"/>
<path d="M15.9916 10.8487C15.9916 10.8487 15.9764 10.7963 15.9899 10.7489C16.0034 10.7015 15.9686 10.658 15.9611 10.6169C15.9408 10.5053 16.0356 10.4765 16.0406 10.3767C16.0406 10.3767 16.1083 10.4461 16.083 10.5121C16.0576 10.5781 16.1202 10.5882 16.1117 10.6508C16.1033 10.7134 16.0339 10.7794 16.0407 10.8352L15.9916 10.8487Z" fill="#FF4B55"/>
<path d="M17.0568 10.7427C17.0014 10.6735 16.9044 10.7481 16.8333 10.8022C16.8234 10.8098 16.815 10.8156 16.8062 10.822L16.5441 10.4349C16.5515 10.4238 16.5568 10.4113 16.5568 10.3971C16.5568 10.3585 16.5256 10.3272 16.4869 10.3272C16.4483 10.3272 16.4171 10.3584 16.4171 10.3971C16.4171 10.4114 16.4224 10.4239 16.4297 10.4349L16.1593 10.8342H15.9678C15.9678 10.8342 15.9599 10.9532 16.169 10.9677C16.1959 11.0085 16.2344 11.041 16.2804 11.0594C16.2588 11.0629 16.2414 11.0796 16.2414 11.1022V11.1302C16.2414 11.132 16.243 11.133 16.2432 11.1347H16.7303C16.7305 11.133 16.7322 11.132 16.7322 11.1302V11.1022C16.7322 11.0793 16.7145 11.0623 16.6925 11.0591C16.774 11.0263 16.8313 10.95 16.8409 10.8594C16.8485 10.8538 16.8556 10.8486 16.8639 10.8424C16.9153 10.8029 16.9927 10.7428 17.0174 10.7743C17.0236 10.782 17.023 10.7863 17.0227 10.7878C17.0199 10.8061 16.9809 10.8323 16.9495 10.8534C16.9001 10.8865 16.8491 10.9209 16.8451 10.9697C16.8439 10.9836 16.8542 10.9956 16.868 10.997C16.8687 10.997 16.8695 10.997 16.8701 10.997C16.8831 10.997 16.8941 10.987 16.8952 10.9739C16.8972 10.9492 16.9418 10.9193 16.9776 10.8953C17.0232 10.8645 17.0663 10.8357 17.0725 10.7956C17.0753 10.7771 17.07 10.7594 17.0568 10.7427ZM16.6087 10.8342C16.5943 10.7792 16.5602 10.7263 16.5177 10.7072C16.5402 10.6956 16.5561 10.6728 16.5561 10.6457C16.5561 10.6072 16.5249 10.5759 16.4863 10.5759C16.4477 10.5759 16.4164 10.6071 16.4164 10.6457C16.4164 10.6728 16.4323 10.6956 16.4548 10.7072C16.4123 10.7263 16.3782 10.7791 16.3638 10.8342H16.2202L16.4711 10.4637C16.4763 10.4649 16.4813 10.4669 16.487 10.4669C16.4926 10.4669 16.4976 10.4649 16.5029 10.4637L16.7538 10.8342H16.6087Z" fill="#FFE15A"/>
<path d="M15.9916 12.7324C15.9916 12.7324 15.9764 12.68 15.9899 12.6326C16.0034 12.5852 15.9686 12.5417 15.9611 12.5006C15.9408 12.389 16.0356 12.3602 16.0406 12.2604C16.0406 12.2604 16.1083 12.3298 16.083 12.3958C16.0576 12.4618 16.1202 12.4719 16.1117 12.5345C16.1033 12.5971 16.0339 12.6631 16.0407 12.7189L15.9916 12.7324Z" fill="#FF4B55"/>
<path d="M17.0568 12.6265C17.0014 12.5573 16.9044 12.6318 16.8333 12.686C16.8234 12.6936 16.815 12.6994 16.8062 12.7058L16.5441 12.3187C16.5515 12.3076 16.5568 12.2951 16.5568 12.2808C16.5568 12.2423 16.5256 12.211 16.4869 12.211C16.4483 12.211 16.4171 12.2422 16.4171 12.2808C16.4171 12.2951 16.4224 12.3077 16.4297 12.3187L16.1593 12.718H15.9678C15.9678 12.718 15.9599 12.837 16.169 12.8515C16.1959 12.8923 16.2344 12.9248 16.2804 12.9431C16.2588 12.9467 16.2414 12.9633 16.2414 12.986V13.014C16.2414 13.0157 16.243 13.0168 16.2432 13.0185H16.7303C16.7305 13.0168 16.7322 13.0158 16.7322 13.014V12.986C16.7322 12.9631 16.7145 12.946 16.6925 12.9429C16.774 12.9101 16.8313 12.8338 16.8409 12.7432C16.8485 12.7376 16.8556 12.7324 16.8639 12.7262C16.9153 12.6867 16.9927 12.6266 17.0174 12.6581C17.0236 12.6658 17.023 12.67 17.0227 12.6716C17.0199 12.6898 16.9809 12.7161 16.9495 12.7372C16.9001 12.7703 16.8491 12.8047 16.8451 12.8535C16.8439 12.8674 16.8542 12.8794 16.868 12.8807C16.8687 12.8807 16.8695 12.8807 16.8701 12.8807C16.8831 12.8807 16.8941 12.8708 16.8952 12.8577C16.8972 12.833 16.9418 12.8031 16.9776 12.7791C17.0232 12.7483 17.0663 12.7195 17.0725 12.6794C17.0753 12.6609 17.07 12.6432 17.0568 12.6265ZM16.6087 12.7179C16.5943 12.6629 16.5602 12.61 16.5177 12.5909C16.5402 12.5793 16.5561 12.5565 16.5561 12.5294C16.5561 12.4909 16.5249 12.4596 16.4863 12.4596C16.4477 12.4596 16.4164 12.4908 16.4164 12.5294C16.4164 12.5565 16.4323 12.5793 16.4548 12.5909C16.4123 12.61 16.3782 12.6628 16.3638 12.7179H16.2202L16.4711 12.3474C16.4763 12.3486 16.4813 12.3505 16.487 12.3505C16.4926 12.3505 16.4976 12.3486 16.5029 12.3474L16.7538 12.7179H16.6087Z" fill="#FFE15A"/>
<path d="M15.9916 13.6743C15.9916 13.6743 15.9764 13.6219 15.9899 13.5745C16.0034 13.5271 15.9686 13.4837 15.9611 13.4425C15.9408 13.3309 16.0356 13.3021 16.0406 13.2024C16.0406 13.2024 16.1083 13.2717 16.083 13.3377C16.0576 13.4037 16.1202 13.4139 16.1117 13.4764C16.1033 13.539 16.0339 13.605 16.0407 13.6608L15.9916 13.6743Z" fill="#FF4B55"/>
<path d="M17.0568 13.5683C17.0014 13.4991 16.9044 13.5737 16.8333 13.6278C16.8234 13.6354 16.815 13.6413 16.8062 13.6476L16.5441 13.2605C16.5515 13.2495 16.5568 13.237 16.5568 13.2227C16.5568 13.1841 16.5256 13.1529 16.4869 13.1529C16.4483 13.1529 16.4171 13.1841 16.4171 13.2227C16.4171 13.237 16.4224 13.2495 16.4297 13.2605L16.1593 13.6599H15.9678C15.9678 13.6599 15.9599 13.7789 16.169 13.7933C16.1959 13.8341 16.2344 13.8666 16.2804 13.885C16.2588 13.8885 16.2414 13.9052 16.2414 13.9278V13.9558C16.2414 13.9576 16.243 13.9586 16.2432 13.9604H16.7303C16.7305 13.9587 16.7322 13.9577 16.7322 13.9558V13.9278C16.7322 13.905 16.7145 13.8879 16.6925 13.8848C16.774 13.852 16.8313 13.7757 16.8409 13.6851C16.8485 13.6795 16.8556 13.6743 16.8639 13.6681C16.9153 13.6286 16.9927 13.5685 17.0174 13.6C17.0236 13.6076 17.023 13.6119 17.0227 13.6135C17.0199 13.6317 16.9809 13.658 16.9495 13.679C16.9001 13.7122 16.8491 13.7466 16.8451 13.7953C16.8439 13.8093 16.8542 13.8213 16.868 13.8226C16.8687 13.8226 16.8695 13.8226 16.8701 13.8226C16.8831 13.8226 16.8941 13.8126 16.8952 13.7996C16.8972 13.7749 16.9418 13.745 16.9776 13.721C17.0232 13.6902 17.0663 13.6613 17.0725 13.6213C17.0753 13.6028 17.07 13.585 17.0568 13.5683ZM16.6087 13.6598C16.5943 13.6048 16.5602 13.5519 16.5177 13.5328C16.5402 13.5212 16.5561 13.4984 16.5561 13.4713C16.5561 13.4328 16.5249 13.4015 16.4863 13.4015C16.4477 13.4015 16.4164 13.4328 16.4164 13.4713C16.4164 13.4984 16.4323 13.5212 16.4548 13.5328C16.4123 13.5519 16.3782 13.6047 16.3638 13.6598H16.2202L16.4711 13.2893C16.4763 13.2905 16.4813 13.2925 16.487 13.2925C16.4926 13.2925 16.4976 13.2905 16.5029 13.2893L16.7538 13.6598H16.6087Z" fill="#FFE15A"/>
<path d="M19.2685 8.96497C19.2685 8.96497 19.2533 8.91251 19.2668 8.86512C19.2804 8.81773 19.2455 8.77428 19.2381 8.73317C19.2178 8.62151 19.3125 8.59273 19.3176 8.49298C19.3176 8.49298 19.3852 8.56236 19.3599 8.62836C19.3345 8.69436 19.3971 8.70448 19.3887 8.76706C19.3802 8.82964 19.3108 8.89564 19.3176 8.95147L19.2685 8.96497Z" fill="#FF4B55"/>
<path d="M20.3337 8.85892C20.2783 8.78973 20.1812 8.86426 20.1102 8.91845C20.1003 8.92605 20.0919 8.93186 20.0831 8.93823L19.821 8.55109C19.8284 8.54003 19.8337 8.52751 19.8337 8.51326C19.8337 8.47469 19.8024 8.44342 19.7638 8.44342C19.7252 8.44342 19.694 8.47464 19.694 8.51326C19.694 8.52756 19.6993 8.54008 19.7066 8.55109L19.4362 8.95042H19.2447C19.2447 8.95042 19.2368 9.06944 19.4459 9.08387C19.4728 9.1247 19.5113 9.15719 19.5573 9.17556C19.5357 9.17908 19.5182 9.19576 19.5182 9.21841V9.24639C19.5182 9.24817 19.5199 9.2492 19.5201 9.25094H20.0072C20.0074 9.24925 20.0091 9.24822 20.0091 9.24639V9.21841C20.0091 9.19553 19.9914 9.17847 19.9694 9.17533C20.0509 9.14251 20.1082 9.06625 20.1178 8.97564C20.1254 8.97001 20.1325 8.96486 20.1407 8.95862C20.1922 8.91915 20.2696 8.85906 20.2943 8.89051C20.3004 8.8982 20.2998 8.90247 20.2996 8.90401C20.2968 8.9223 20.2577 8.94854 20.2264 8.96959C20.177 9.00273 20.126 9.03714 20.1219 9.08589C20.1208 9.09981 20.131 9.11186 20.1449 9.11317C20.1456 9.11317 20.1464 9.11317 20.147 9.11317C20.16 9.11317 20.171 9.10319 20.1721 9.09015C20.1741 9.06545 20.2187 9.03555 20.2545 9.01155C20.3001 8.98075 20.3432 8.95187 20.3493 8.91184C20.3522 8.89333 20.347 8.87565 20.3337 8.85892ZM19.8857 8.95037C19.8712 8.89534 19.8372 8.84247 19.7947 8.82334C19.8172 8.81176 19.8331 8.78894 19.8331 8.76189C19.8331 8.72336 19.8018 8.69205 19.7632 8.69205C19.7247 8.69205 19.6934 8.72326 19.6934 8.76189C19.6934 8.78894 19.7092 8.81176 19.7318 8.82334C19.6892 8.84242 19.6552 8.8953 19.6408 8.95037H19.4971L19.748 8.57983C19.7532 8.58105 19.7582 8.58301 19.7639 8.58301C19.7695 8.58301 19.7746 8.58105 19.7798 8.57983L20.0307 8.95037H19.8857Z" fill="#FFE15A"/>
<path d="M19.2685 9.90683C19.2685 9.90683 19.2533 9.85438 19.2668 9.80699C19.2804 9.7596 19.2455 9.71614 19.2381 9.67503C19.2178 9.56338 19.3125 9.53459 19.3176 9.43484C19.3176 9.43484 19.3852 9.50422 19.3599 9.57022C19.3345 9.63622 19.3971 9.64634 19.3887 9.70892C19.3802 9.7715 19.3108 9.8375 19.3176 9.89333L19.2685 9.90683Z" fill="#FF4B55"/>
<path d="M20.3337 9.80081C20.2783 9.73163 20.1812 9.80616 20.1102 9.86035C20.1003 9.86794 20.0919 9.87375 20.0831 9.88013L19.821 9.49299C19.8284 9.48192 19.8337 9.46941 19.8337 9.45516C19.8337 9.41658 19.8024 9.38531 19.7638 9.38531C19.7252 9.38531 19.694 9.41653 19.694 9.45516C19.694 9.46946 19.6993 9.48197 19.7066 9.49299L19.4362 9.89232H19.2447C19.2447 9.89232 19.2368 10.0113 19.4459 10.0258C19.4728 10.0666 19.5113 10.0991 19.5573 10.1175C19.5357 10.121 19.5182 10.1377 19.5182 10.1603V10.1883C19.5182 10.1901 19.5199 10.1911 19.5201 10.1928H20.0072C20.0074 10.1911 20.0091 10.1901 20.0091 10.1883V10.1603C20.0091 10.1374 19.9914 10.1204 19.9694 10.1172C20.0509 10.0844 20.1082 10.0081 20.1178 9.91749C20.1254 9.91186 20.1325 9.90671 20.1407 9.90047C20.1922 9.861 20.2696 9.80091 20.2943 9.83236C20.3004 9.84005 20.2998 9.84431 20.2996 9.84586C20.2968 9.86414 20.2577 9.89039 20.2264 9.91144C20.177 9.94458 20.126 9.97899 20.1219 10.0277C20.1208 10.0417 20.131 10.0537 20.1449 10.055C20.1456 10.055 20.1464 10.055 20.147 10.055C20.16 10.055 20.171 10.045 20.1721 10.032C20.1741 10.0073 20.2187 9.97735 20.2545 9.95335C20.3001 9.92255 20.3432 9.89367 20.3493 9.85364C20.3522 9.83522 20.347 9.81755 20.3337 9.80081ZM19.8857 9.89227C19.8712 9.83724 19.8372 9.78436 19.7947 9.76524C19.8172 9.75366 19.8331 9.73083 19.8331 9.70378C19.8331 9.66525 19.8018 9.63394 19.7632 9.63394C19.7247 9.63394 19.6934 9.66516 19.6934 9.70378C19.6934 9.73083 19.7092 9.75366 19.7318 9.76524C19.6892 9.78432 19.6552 9.83719 19.6408 9.89227H19.4971L19.748 9.52172C19.7532 9.52294 19.7582 9.52491 19.7639 9.52491C19.7695 9.52491 19.7746 9.52294 19.7798 9.52172L20.0307 9.89227H19.8857Z" fill="#FFE15A"/>
<path d="M19.2685 10.8487C19.2685 10.8487 19.2533 10.7963 19.2668 10.7489C19.2804 10.7015 19.2455 10.658 19.2381 10.6169C19.2178 10.5053 19.3125 10.4765 19.3176 10.3767C19.3176 10.3767 19.3852 10.4461 19.3599 10.5121C19.3345 10.5781 19.3971 10.5882 19.3887 10.6508C19.3802 10.7134 19.3108 10.7794 19.3176 10.8352L19.2685 10.8487Z" fill="#FF4B55"/>
<path d="M20.3337 10.7427C20.2783 10.6735 20.1812 10.7481 20.1102 10.8022C20.1003 10.8098 20.0919 10.8156 20.0831 10.822L19.821 10.4349C19.8284 10.4238 19.8337 10.4113 19.8337 10.3971C19.8337 10.3585 19.8024 10.3272 19.7638 10.3272C19.7252 10.3272 19.694 10.3584 19.694 10.3971C19.694 10.4114 19.6993 10.4239 19.7066 10.4349L19.4362 10.8342H19.2447C19.2447 10.8342 19.2368 10.9532 19.4459 10.9677C19.4728 11.0085 19.5113 11.041 19.5573 11.0594C19.5357 11.0629 19.5182 11.0796 19.5182 11.1022V11.1302C19.5182 11.132 19.5199 11.133 19.5201 11.1347H20.0072C20.0074 11.133 20.0091 11.132 20.0091 11.1302V11.1022C20.0091 11.0793 19.9914 11.0623 19.9694 11.0591C20.0509 11.0263 20.1082 10.95 20.1178 10.8594C20.1254 10.8538 20.1325 10.8486 20.1407 10.8424C20.1922 10.8029 20.2696 10.7428 20.2943 10.7743C20.3004 10.782 20.2998 10.7863 20.2996 10.7878C20.2968 10.8061 20.2577 10.8323 20.2264 10.8534C20.177 10.8865 20.126 10.9209 20.1219 10.9697C20.1208 10.9836 20.131 10.9956 20.1449 10.997C20.1456 10.997 20.1464 10.997 20.147 10.997C20.16 10.997 20.171 10.987 20.1721 10.9739C20.1741 10.9492 20.2187 10.9193 20.2545 10.8953C20.3001 10.8645 20.3432 10.8357 20.3493 10.7956C20.3522 10.7771 20.347 10.7594 20.3337 10.7427ZM19.8857 10.8342C19.8712 10.7792 19.8372 10.7263 19.7947 10.7072C19.8172 10.6956 19.8331 10.6728 19.8331 10.6457C19.8331 10.6072 19.8018 10.5759 19.7632 10.5759C19.7247 10.5759 19.6934 10.6071 19.6934 10.6457C19.6934 10.6728 19.7092 10.6956 19.7318 10.7072C19.6892 10.7263 19.6552 10.7791 19.6408 10.8342H19.4971L19.748 10.4637C19.7532 10.4649 19.7582 10.4669 19.7639 10.4669C19.7695 10.4669 19.7746 10.4649 19.7798 10.4637L20.0307 10.8342H19.8857Z" fill="#FFE15A"/>
<path d="M19.2685 11.7906C19.2685 11.7906 19.2533 11.7382 19.2668 11.6908C19.2804 11.6434 19.2455 11.6 19.2381 11.5589C19.2178 11.4472 19.3125 11.4184 19.3176 11.3187C19.3176 11.3187 19.3852 11.388 19.3599 11.454C19.3345 11.52 19.3971 11.5302 19.3887 11.5927C19.3802 11.6553 19.3108 11.7213 19.3176 11.7771L19.2685 11.7906Z" fill="#FF4B55"/>
<path d="M20.3337 11.6846C20.2783 11.6154 20.1812 11.6899 20.1102 11.7441C20.1003 11.7517 20.0919 11.7575 20.0831 11.7639L19.821 11.3768C19.8284 11.3657 19.8337 11.3532 19.8337 11.3389C19.8337 11.3004 19.8024 11.2691 19.7638 11.2691C19.7252 11.2691 19.694 11.3003 19.694 11.3389C19.694 11.3532 19.6993 11.3658 19.7066 11.3768L19.4362 11.7761H19.2447C19.2447 11.7761 19.2368 11.8951 19.4459 11.9096C19.4728 11.9504 19.5113 11.9829 19.5573 12.0012C19.5357 12.0048 19.5182 12.0214 19.5182 12.0441V12.0721C19.5182 12.0739 19.5199 12.0749 19.5201 12.0766H20.0072C20.0074 12.0749 20.0091 12.0739 20.0091 12.0721V12.0441C20.0091 12.0212 19.9914 12.0042 19.9694 12.001C20.0509 11.9682 20.1082 11.8919 20.1178 11.8013C20.1254 11.7957 20.1325 11.7905 20.1407 11.7843C20.1922 11.7448 20.2696 11.6847 20.2943 11.7162C20.3004 11.7239 20.2998 11.7282 20.2996 11.7297C20.2968 11.748 20.2577 11.7742 20.2264 11.7953C20.177 11.8284 20.126 11.8628 20.1219 11.9116C20.1208 11.9255 20.131 11.9375 20.1449 11.9388C20.1456 11.9388 20.1464 11.9388 20.147 11.9388C20.16 11.9388 20.171 11.9288 20.1721 11.9158C20.1741 11.8911 20.2187 11.8612 20.2545 11.8372C20.3001 11.8064 20.3432 11.7775 20.3493 11.7375C20.3522 11.719 20.347 11.7013 20.3337 11.6846ZM19.8857 11.776C19.8712 11.721 19.8372 11.6681 19.7947 11.649C19.8172 11.6374 19.8331 11.6146 19.8331 11.5875C19.8331 11.549 19.8018 11.5177 19.7632 11.5177C19.7247 11.5177 19.6934 11.5489 19.6934 11.5875C19.6934 11.6146 19.7092 11.6374 19.7318 11.649C19.6892 11.6681 19.6552 11.7209 19.6408 11.776H19.4971L19.748 11.4055C19.7532 11.4067 19.7582 11.4087 19.7639 11.4087C19.7695 11.4087 19.7746 11.4067 19.7798 11.4055L20.0307 11.776H19.8857Z" fill="#FFE15A"/>
<path d="M19.2685 12.7324C19.2685 12.7324 19.2533 12.68 19.2668 12.6326C19.2804 12.5852 19.2455 12.5417 19.2381 12.5006C19.2178 12.389 19.3125 12.3602 19.3176 12.2604C19.3176 12.2604 19.3852 12.3298 19.3599 12.3958C19.3345 12.4618 19.3971 12.4719 19.3887 12.5345C19.3802 12.5971 19.3108 12.6631 19.3176 12.7189L19.2685 12.7324Z" fill="#FF4B55"/>
<path d="M20.3337 12.6265C20.2783 12.5573 20.1812 12.6318 20.1102 12.686C20.1003 12.6936 20.0919 12.6994 20.0831 12.7058L19.821 12.3187C19.8284 12.3076 19.8337 12.2951 19.8337 12.2808C19.8337 12.2423 19.8024 12.211 19.7638 12.211C19.7252 12.211 19.694 12.2422 19.694 12.2808C19.694 12.2951 19.6993 12.3077 19.7066 12.3187L19.4362 12.718H19.2447C19.2447 12.718 19.2368 12.837 19.4459 12.8515C19.4728 12.8923 19.5113 12.9248 19.5573 12.9431C19.5357 12.9467 19.5182 12.9633 19.5182 12.986V13.014C19.5182 13.0157 19.5199 13.0168 19.5201 13.0185H20.0072C20.0074 13.0168 20.0091 13.0158 20.0091 13.014V12.986C20.0091 12.9631 19.9914 12.946 19.9694 12.9429C20.0509 12.9101 20.1082 12.8338 20.1178 12.7432C20.1254 12.7376 20.1325 12.7324 20.1407 12.7262C20.1922 12.6867 20.2696 12.6266 20.2943 12.6581C20.3004 12.6658 20.2998 12.67 20.2996 12.6716C20.2968 12.6898 20.2577 12.7161 20.2264 12.7372C20.177 12.7703 20.126 12.8047 20.1219 12.8535C20.1208 12.8674 20.131 12.8794 20.1449 12.8807C20.1456 12.8807 20.1464 12.8807 20.147 12.8807C20.16 12.8807 20.171 12.8708 20.1721 12.8577C20.1741 12.833 20.2187 12.8031 20.2545 12.7791C20.3001 12.7483 20.3432 12.7195 20.3493 12.6794C20.3522 12.6609 20.347 12.6432 20.3337 12.6265ZM19.8857 12.7179C19.8712 12.6629 19.8372 12.61 19.7947 12.5909C19.8172 12.5793 19.8331 12.5565 19.8331 12.5294C19.8331 12.4909 19.8018 12.4596 19.7632 12.4596C19.7247 12.4596 19.6934 12.4908 19.6934 12.5294C19.6934 12.5565 19.7092 12.5793 19.7318 12.5909C19.6892 12.61 19.6552 12.6628 19.6408 12.7179H19.4971L19.748 12.3474C19.7532 12.3486 19.7582 12.3505 19.7639 12.3505C19.7695 12.3505 19.7746 12.3486 19.7798 12.3474L20.0307 12.7179H19.8857Z" fill="#FFE15A"/>
<path d="M19.2685 13.6743C19.2685 13.6743 19.2533 13.6219 19.2668 13.5745C19.2804 13.5271 19.2455 13.4837 19.2381 13.4425C19.2178 13.3309 19.3125 13.3021 19.3176 13.2024C19.3176 13.2024 19.3852 13.2717 19.3599 13.3377C19.3345 13.4037 19.3971 13.4139 19.3887 13.4764C19.3802 13.539 19.3108 13.605 19.3176 13.6608L19.2685 13.6743Z" fill="#FF4B55"/>
<path d="M20.3337 13.5683C20.2783 13.4991 20.1812 13.5737 20.1102 13.6278C20.1003 13.6354 20.0919 13.6413 20.0831 13.6476L19.821 13.2605C19.8284 13.2495 19.8337 13.237 19.8337 13.2227C19.8337 13.1841 19.8024 13.1529 19.7638 13.1529C19.7252 13.1529 19.694 13.1841 19.694 13.2227C19.694 13.237 19.6993 13.2495 19.7066 13.2605L19.4362 13.6599H19.2447C19.2447 13.6599 19.2368 13.7789 19.4459 13.7933C19.4728 13.8341 19.5113 13.8666 19.5573 13.885C19.5357 13.8885 19.5182 13.9052 19.5182 13.9278V13.9558C19.5182 13.9576 19.5199 13.9586 19.5201 13.9604H20.0072C20.0074 13.9587 20.0091 13.9577 20.0091 13.9558V13.9278C20.0091 13.905 19.9914 13.8879 19.9694 13.8848C20.0509 13.852 20.1082 13.7757 20.1178 13.6851C20.1254 13.6795 20.1325 13.6743 20.1407 13.6681C20.1922 13.6286 20.2696 13.5685 20.2943 13.6C20.3004 13.6076 20.2998 13.6119 20.2996 13.6135C20.2968 13.6317 20.2577 13.658 20.2264 13.679C20.177 13.7122 20.126 13.7466 20.1219 13.7953C20.1208 13.8093 20.131 13.8213 20.1449 13.8226C20.1456 13.8226 20.1464 13.8226 20.147 13.8226C20.16 13.8226 20.171 13.8126 20.1721 13.7996C20.1741 13.7749 20.2187 13.745 20.2545 13.721C20.3001 13.6902 20.3432 13.6613 20.3493 13.6213C20.3522 13.6028 20.347 13.585 20.3337 13.5683ZM19.8857 13.6598C19.8712 13.6048 19.8372 13.5519 19.7947 13.5328C19.8172 13.5212 19.8331 13.4984 19.8331 13.4713C19.8331 13.4328 19.8018 13.4015 19.7632 13.4015C19.7247 13.4015 19.6934 13.4328 19.6934 13.4713C19.6934 13.4984 19.7092 13.5212 19.7318 13.5328C19.6892 13.5519 19.6552 13.6047 19.6408 13.6598H19.4971L19.748 13.2893C19.7532 13.2905 19.7582 13.2925 19.7639 13.2925C19.7695 13.2925 19.7746 13.2905 19.7798 13.2893L20.0307 13.6598H19.8857Z" fill="#FFE15A"/>
<path d="M20.8845 8.0211C20.8845 8.0211 20.8845 11.5271 20.8845 12.9614C20.8845 14.0769 18.1753 15.1925 18.1753 15.1925C18.1753 15.1925 15.4661 14.077 15.4661 12.9614C15.4661 11.5271 15.4661 8.0211 15.4661 8.0211H18.1753H20.8845V8.0211ZM21.0439 7.86172H20.8845H18.1753H15.4661H15.3067V8.0211V12.9614C15.3067 13.483 15.7879 14.0447 16.7369 14.6309C17.4175 15.0512 18.0865 15.3283 18.1146 15.3399L18.1752 15.3649L18.2359 15.3399C18.264 15.3283 18.933 15.0512 19.6136 14.6309C20.5626 14.0447 21.0438 13.483 21.0438 12.9614V8.0211L21.0439 7.86172Z" fill="#F5F5F5"/>
<path d="M21.0669 13.84L21.7893 14.3382C20.9502 15.4146 19.6427 16.1088 18.1752 16.1088C16.7078 16.1088 15.4003 15.4146 14.5612 14.3382L15.2836 13.84C15.9632 14.6879 17.0066 15.2323 18.1752 15.2323C19.3439 15.2323 20.3873 14.6879 21.0669 13.84ZM21.0353 13.6247L20.9426 13.7404C20.2638 14.5872 19.2551 15.073 18.1753 15.073C17.0955 15.073 16.0869 14.5872 15.4081 13.7404L15.3154 13.6247L15.1933 13.7089L14.4709 14.2071L14.3318 14.303L14.4357 14.4362C15.3433 15.6004 16.7064 16.2682 18.1754 16.2682C19.6443 16.2682 21.0075 15.6005 21.9151 14.4362L22.0189 14.303L21.8799 14.2071L21.1574 13.7089L21.0353 13.6247Z" fill="#F5F5F5"/>
<path d="M18.1753 16.1088C19.6427 16.1088 20.9502 15.4146 21.7894 14.3383L21.0669 13.84C20.3874 14.6879 19.344 15.2324 18.1754 15.2324C17.0067 15.2324 15.9634 14.6879 15.2838 13.84L14.5614 14.3383C15.4004 15.4146 16.7079 16.1088 18.1753 16.1088Z" fill="#FFE15A"/>
</g>
<defs>
<clipPath id="clip0">
<path d="M0 0H24V24H0V0Z" fill="white"/>
</clipPath>
</defs>
</svg>
