<svg xmlns="http://www.w3.org/2000/svg" width="24" height="24" viewBox="0 0 24 24" fill="none"><rect width="24" height="24" fill="none"/>
<path d="M22.1254 4.13825H1.86995C0.838899 4.13825 0 4.97246 0 6.0082V17.9918C0 19.0228 0.834212 19.8617 1.86995 19.8617H22.1301C23.1611 19.8617 24 19.0275 24 17.9918V6.00351C23.9953 4.97246 23.1611 4.13825 22.1254 4.13825Z" fill="#41479B"/>
<path d="M0.412419 11.9977H1.12947L4.96309 9.48564V11.9977H7.02988V9.48564L10.8635 11.9977H11.5806C11.8102 11.9977 11.993 11.8102 11.993 11.5852V11.2572L8.70299 9.10135H11.9977V7.03456H8.70767L11.9977 4.87873V4.55067C11.9977 4.32103 11.8102 4.13825 11.5852 4.13825H10.8682L7.03456 6.65026V4.13825H4.96778V6.65026L1.27944 4.23198C0.848272 4.37258 0.492091 4.66784 0.262449 5.05214L3.28998 7.03456H0V9.10135H3.28998L0 11.2572V11.5852C0 11.8102 0.187463 11.9977 0.412419 11.9977Z" fill="#F5F5F5"/>
<path d="M11.9977 7.44698H6.61746V4.13825H5.3802V7.44698H0V8.68893H5.3802V11.9977H6.61746V8.68893H11.9977V7.44698Z" fill="#FF4B55"/>
<path d="M0.40773 4.83655L3.78676 7.02988H4.54598L0.702985 4.53661C0.59988 4.62566 0.496775 4.72876 0.40773 4.83655Z" fill="#FF4B55"/>
<path d="M7.79379 7.03456L11.9367 4.34446C11.8664 4.22261 11.7399 4.13825 11.5852 4.13825H11.4962L7.03456 7.03456H7.79379V7.03456Z" fill="#FF4B55"/>
<path d="M4.19449 9.10134L0 11.7868C0.0702988 11.9133 0.257762 11.9977 0.412419 11.9977H0.492091L4.95372 9.10134H4.19449Z" fill="#FF4B55"/>
<path d="M11.993 11.618L8.11717 9.10134H7.35794L11.7586 11.9555C11.8899 11.8945 11.9789 11.768 11.993 11.618Z" fill="#FF4B55"/>
<path d="M15.4001 9.03105C15.3439 9.77153 15.1142 14.4675 18.0949 15.5313C21.0756 14.4675 20.8459 9.77153 20.7897 9.03105C20.4288 9.17165 19.1213 9.60281 18.0949 8.8717C17.0685 9.59812 15.761 9.17165 15.4001 9.03105Z" fill="#F5F5F5"/>
<path d="M19.5618 9.97768C19.3977 9.85114 19.0978 10.0855 18.7557 10.062C18.4417 10.0386 18.0527 9.71992 17.5512 9.86052C17.4106 9.73398 17.4809 9.43404 17.4809 9.43404C17.1294 9.65899 17.106 9.96831 17.1294 10.137C16.881 10.4651 16.8951 10.9712 16.942 11.1212C17.0029 11.3227 17.1154 11.3462 17.1341 11.5711C17.1529 11.7961 17.2372 11.7164 17.2372 11.7164C17.4106 11.618 17.4387 11.4352 17.5137 11.1306C17.7996 11.1681 17.9824 10.9103 17.9824 10.9103C17.7949 10.9665 17.6778 10.8681 17.6121 10.7744C17.6215 10.7463 17.6309 10.7182 17.6403 10.6854C17.8512 10.1042 18.8681 10.2636 18.9619 10.4229C19.1306 10.7135 19.3556 10.8213 19.3556 10.8213C19.3556 10.5166 19.1306 10.2542 19.1306 10.2542C19.4727 10.1933 19.5618 9.97768 19.5618 9.97768ZM17.1201 11.2243C17.0872 11.2243 17.0591 11.1962 17.0591 11.1634C17.0591 11.1306 17.0872 11.1025 17.1201 11.1025C17.1529 11.1025 17.181 11.1306 17.181 11.1634C17.181 11.1962 17.1575 11.2243 17.1201 11.2243Z" fill="#FFA028"/>
<path d="M18.5635 13.6941C18.7604 13.6332 18.7369 13.2489 18.9525 12.9818C19.1493 12.7334 19.6321 12.5975 19.8055 12.1054C19.9882 12.0632 20.1991 12.2882 20.1991 12.2882C20.2132 11.8711 19.9695 11.6742 19.8195 11.5992C19.6883 11.2056 19.2665 10.9337 19.1118 10.8869C18.915 10.8213 18.826 10.9056 18.6338 10.7931C18.4417 10.6807 18.4557 10.7931 18.4557 10.7931C18.437 10.9947 18.5776 11.1212 18.7838 11.3508C18.5916 11.5664 18.6947 11.8617 18.6947 11.8617C18.751 11.6742 18.9056 11.6367 19.0134 11.6367C19.0322 11.6602 19.0509 11.6836 19.0697 11.7117C19.4259 12.2179 18.7229 12.9583 18.5354 12.9443C18.198 12.9209 17.9824 13.0427 17.9824 13.0427C18.2308 13.2161 18.5776 13.1833 18.5776 13.1833C18.437 13.4973 18.5635 13.6941 18.5635 13.6941ZM18.9197 10.9806C18.9384 10.9525 18.9759 10.9478 19.0041 10.9666C19.0322 10.9853 19.0369 11.0228 19.0181 11.0509C18.9994 11.079 18.9619 11.0837 18.9338 11.065C18.9103 11.0462 18.901 11.0087 18.9197 10.9806Z" fill="#FFA028"/>
<path d="M15.8968 11.004C15.8687 11.2103 16.2296 11.3509 16.3796 11.6555C16.5202 11.9367 16.4405 12.4335 16.8154 12.799C16.7779 12.9818 16.4874 13.0755 16.4874 13.0755C16.8576 13.263 17.1388 13.1271 17.27 13.024C17.6824 13.0708 18.1042 12.799 18.212 12.6818C18.3526 12.5272 18.3151 12.4147 18.4979 12.2882C18.6807 12.1569 18.5729 12.1241 18.5729 12.1241C18.3995 12.021 18.2261 12.096 17.9261 12.1851C17.8137 11.9226 17.4997 11.8898 17.4997 11.8898C17.6449 12.021 17.6168 12.1757 17.57 12.2741C17.5372 12.2788 17.509 12.2882 17.4762 12.2929C16.867 12.4053 16.492 11.4493 16.5811 11.2899C16.7451 10.9947 16.7264 10.7463 16.7264 10.7463C16.4639 10.9009 16.3514 11.229 16.3514 11.229C16.1265 10.9712 15.8968 11.004 15.8968 11.004ZM18.2073 12.4709C18.2261 12.4991 18.2167 12.5366 18.1839 12.5553C18.1558 12.5741 18.1183 12.5647 18.0995 12.5319C18.0808 12.5038 18.0902 12.4663 18.123 12.4475C18.1558 12.4335 18.1933 12.4428 18.2073 12.4709Z" fill="#FFA028"/>
<path d="M18.0949 15.686L18.0715 15.6766C14.7159 14.5097 15.2548 8.97481 15.2642 8.91857L15.2736 8.82015L15.3673 8.86233C15.3814 8.8717 16.942 9.56063 18.0527 8.72642L18.0949 8.69361L18.1371 8.72642C19.2525 9.56063 20.8084 8.8717 20.8225 8.86233L20.9162 8.82015L20.9256 8.91857C20.9303 8.97481 21.4739 14.5097 18.1183 15.6766L18.0949 15.686ZM15.4001 9.03105C15.3439 9.77153 15.1142 14.4675 18.0949 15.5313C21.0756 14.4675 20.8459 9.77153 20.7897 9.03105C20.4288 9.17164 19.1213 9.60281 18.0949 8.8717C17.0685 9.59812 15.761 9.17164 15.4001 9.03105Z" fill="#CDCE0C"/>
<path d="M16.225 13.8629C16.6327 14.6034 17.2279 15.222 18.0949 15.5313C18.9619 15.222 19.5571 14.6034 19.9648 13.8629H16.225Z" fill="#82AFFF"/>
</svg>
