<svg xmlns="http://www.w3.org/2000/svg" width="24" height="24" viewBox="0 0 24 24" fill="none"><rect width="24" height="24" fill="none"/>
<path d="M0 18.0646C0 19.0573 0.804703 19.862 1.79742 19.862H22.2026C23.1952 19.862 24 19.0573 24 18.0646V14.6207H0V18.0646Z" fill="#73AF00"/>
<path d="M22.2026 4.13794H1.79742C0.804703 4.13794 0 4.94264 0 5.93536V9.37931H24V5.93536C24 4.94264 23.1953 4.13794 22.2026 4.13794Z" fill="#FF9B55"/>
<path d="M24 9.37921H0V14.6203H24V9.37921Z" fill="#F5F5F5"/>
<path d="M12 14.069C13.1427 14.069 14.0691 13.1427 14.0691 12C14.0691 10.8573 13.1427 9.93091 12 9.93091C10.8573 9.93091 9.93094 10.8573 9.93094 12C9.93094 13.1427 10.8573 14.069 12 14.069Z" fill="#FF9B55"/>
</svg>
