<svg xmlns="http://www.w3.org/2000/svg" width="24" height="24" viewBox="0 0 24 24" fill="none"><rect width="24" height="24" fill="none"/>
<path d="M22.2026 4.13794H1.79742C0.804703 4.13794 0 4.94264 0 5.93536V9.37931H24V5.93536C24 4.94264 23.1953 4.13794 22.2026 4.13794Z" fill="#F5F5F5"/>
<path d="M0 18.0646C0 19.0573 0.804703 19.8621 1.79742 19.8621H22.2026C23.1952 19.8621 24 19.0574 24 18.0646V14.6207H0V18.0646Z" fill="#FF4B55"/>
<path d="M24 9.37924H0V14.6203H24V9.37924Z" fill="#41479B"/>
<path d="M8.06316 7.37674C8.06316 7.37674 7.97982 10.0312 7.60735 10.7766C7.14629 11.6928 6.68274 11.96 5.99307 12.207C5.30349 11.9601 4.83994 11.693 4.37879 10.7766C4.00636 10.0311 3.92293 7.37702 3.92297 7.37674C5.23908 6.7825 6.74705 6.7825 8.06316 7.37674Z" fill="#41479B"/>
<path d="M6.59262 11.0577C6.54218 11.0254 6.50581 11.0022 6.42303 11.0022C6.34048 11.0022 6.3041 11.0253 6.2539 11.0577C6.19639 11.0943 6.12485 11.1402 5.99187 11.1402C5.85879 11.1402 5.78726 11.0943 5.72975 11.0575C5.67954 11.0254 5.64326 11.0023 5.56071 11.0023C5.47817 11.0023 5.44189 11.0254 5.39168 11.0575C5.33735 11.0924 5.26868 11.1339 5.14929 11.1385C5.40059 11.445 5.66412 11.5904 5.99295 11.7166C6.32164 11.5903 6.58507 11.4451 6.83642 11.1386C6.71618 11.1342 6.64714 11.0925 6.59262 11.0577Z" fill="#F5F5F5"/>
<path d="M4.96088 10.5674C5.01108 10.5995 5.04727 10.6226 5.12954 10.6226C5.21208 10.6226 5.24837 10.5995 5.29857 10.5674C5.35608 10.5305 5.42762 10.4847 5.5606 10.4847C5.69358 10.4847 5.76512 10.5306 5.82263 10.5672C5.87283 10.5995 5.90921 10.6227 5.99176 10.6227C6.0743 10.6227 6.11058 10.5996 6.16079 10.5675C6.2183 10.5306 6.28983 10.4848 6.42291 10.4848C6.55608 10.4848 6.6278 10.5307 6.68527 10.5673C6.73571 10.5996 6.77194 10.6228 6.85477 10.6228C6.93755 10.6228 6.97393 10.5997 7.02437 10.5673C7.07241 10.5367 7.13274 10.5012 7.22827 10.4899C7.2533 10.4247 7.27763 10.3504 7.30027 10.2602L6.68293 9.23129L6.45291 9.69132L5.99288 8.7713L5.53285 9.69132L5.30283 9.23129L4.68591 10.2595C4.70846 10.3497 4.73274 10.4243 4.75782 10.4899C4.85293 10.5012 4.91298 10.5366 4.96088 10.5674Z" fill="#F5F5F5"/>
<path d="M7.11719 10.7127C7.05967 10.7494 6.98805 10.7952 6.85483 10.7952C6.72175 10.7952 6.65013 10.7494 6.59261 10.7127C6.54217 10.6804 6.5058 10.6572 6.42302 10.6572C6.34047 10.6572 6.30409 10.6804 6.25389 10.7127C6.19638 10.7494 6.12484 10.7952 5.99186 10.7952C5.85878 10.7952 5.78725 10.7494 5.72973 10.7126C5.67953 10.6804 5.64325 10.6573 5.5607 10.6573C5.47816 10.6573 5.44187 10.6804 5.39167 10.7126C5.33416 10.7494 5.26262 10.7952 5.12964 10.7952C4.99675 10.7952 4.92531 10.7494 4.86798 10.7126C4.86766 10.7124 4.86747 10.7122 4.86719 10.712C4.91228 10.7939 4.95733 10.869 5.00223 10.9372C5.0358 10.9556 5.07091 10.9677 5.12964 10.9677C5.21219 10.9677 5.24847 10.9446 5.29867 10.9125C5.35619 10.8756 5.42772 10.8298 5.5607 10.8298C5.69369 10.8298 5.76522 10.8757 5.82273 10.9123C5.87294 10.9446 5.90931 10.9678 5.99186 10.9678C6.07441 10.9678 6.11069 10.9447 6.16089 10.9126C6.21841 10.8757 6.28994 10.8299 6.42302 10.8299C6.55619 10.8299 6.62791 10.8758 6.68538 10.9124C6.73581 10.9447 6.77205 10.9679 6.85488 10.9679C6.9145 10.9679 6.94989 10.9556 6.98397 10.9368C7.02883 10.8687 7.07387 10.7936 7.11892 10.7119C7.11831 10.7121 7.1178 10.7124 7.11719 10.7127Z" fill="#F5F5F5"/>
<path d="M6.00224 7.9791L6.0426 8.111L6.17699 8.08002C6.18608 8.07791 6.19246 8.08892 6.18608 8.09572L6.09205 8.19664L6.18608 8.29757C6.19246 8.30441 6.18613 8.31542 6.17699 8.31327L6.0426 8.28228L6.00224 8.41419C5.99952 8.42314 5.98682 8.42314 5.9841 8.41419L5.94374 8.28228L5.80935 8.31327C5.80025 8.31538 5.79388 8.30436 5.80025 8.29757L5.89428 8.19664L5.80025 8.09572C5.79388 8.08883 5.80021 8.07786 5.80935 8.08002L5.94374 8.111L5.9841 7.9791C5.98686 7.97014 5.99952 7.97014 6.00224 7.9791Z" fill="#FFE15A"/>
<path d="M5.34089 7.3454L5.38125 7.47731L5.51564 7.44632C5.52478 7.44421 5.53111 7.45523 5.52473 7.46202L5.4307 7.56295L5.52473 7.66387C5.53111 7.67076 5.52478 7.68173 5.51564 7.67957L5.38125 7.64859L5.34089 7.78049C5.33817 7.78945 5.32547 7.78945 5.32275 7.78049L5.28239 7.64859L5.148 7.67957C5.13891 7.68168 5.13253 7.67066 5.13891 7.66387L5.23294 7.56295L5.13891 7.46202C5.13253 7.45518 5.13886 7.44416 5.148 7.44632L5.28239 7.47731L5.32275 7.3454C5.32547 7.33645 5.33813 7.33645 5.34089 7.3454Z" fill="#FFE15A"/>
<path d="M6.6683 7.34534L6.70866 7.47724L6.84305 7.44626C6.85215 7.44415 6.85852 7.45517 6.85215 7.46196L6.75812 7.56289L6.85215 7.66381C6.85852 7.6707 6.85219 7.68167 6.84305 7.67951L6.70866 7.64853L6.6683 7.78043C6.66559 7.78938 6.65288 7.78938 6.65016 7.78043L6.6098 7.64853L6.47541 7.67951C6.46632 7.68162 6.45994 7.6706 6.46632 7.66381L6.56035 7.56289L6.46632 7.46196C6.4599 7.45512 6.46627 7.4441 6.47541 7.44626L6.6098 7.47724L6.65016 7.34534C6.65293 7.33638 6.66559 7.33638 6.6683 7.34534Z" fill="#FFE15A"/>
<path d="M7.82503 7.27678C7.82644 7.35014 7.82761 7.42415 7.82761 7.50408C7.79442 8.33395 7.67095 10.1412 7.40189 10.6855C7.00519 11.4822 6.63891 11.7455 5.99306 11.9882C5.34722 11.7456 4.98099 11.4823 4.58456 10.6861C4.31452 10.1397 4.19016 8.30175 4.15842 7.50412C4.15842 7.42411 4.15974 7.35094 4.16086 7.27697C4.08127 7.30809 4.00214 7.34109 3.92377 7.37648C3.9293 7.53764 3.96942 8.59486 4.08994 9.52444C4.15791 10.0434 4.25147 10.5217 4.37883 10.7766C4.83994 11.693 5.30349 11.9601 5.99311 12.207C6.68278 11.96 7.14633 11.6928 7.60744 10.7766C7.73485 10.5217 7.82836 10.0434 7.89638 9.52444C8.01684 8.59486 8.05692 7.53764 8.0625 7.37648C7.98399 7.341 7.90481 7.30795 7.82503 7.27678Z" fill="#FF1722"/>
</svg>
