<svg xmlns="http://www.w3.org/2000/svg" width="24" height="24" viewBox="0 0 24 24" fill="none"><rect width="24" height="24" fill="none"/>
<path d="M22.2026 19.8621H1.79742C0.804703 19.8621 0 19.0574 0 18.0646V5.93536C0 4.94269 0.804703 4.13794 1.79742 4.13794H22.2026C23.1952 4.13794 24 4.94264 24 5.93536V18.0647C24 19.0574 23.1953 19.8621 22.2026 19.8621Z" fill="#41479B"/>
<path d="M0.413813 12H1.13259L4.96556 9.48872V12H7.03453V9.48872L10.8675 12H11.5862C11.8148 12 12 11.8147 12 11.5862V11.258L8.71158 9.10346H12V7.03449H8.71148L12 4.87997V4.55175C12 4.32324 11.8148 4.13803 11.5863 4.13794H10.8674L7.03448 6.64922V4.13794H4.96552V6.64922L1.25831 4.22035C0.825469 4.35628 0.463594 4.65174 0.240609 5.03756L3.28856 7.03449H0V9.10346H3.28852L0 11.258V11.5862C0 11.8147 0.185297 12 0.413813 12Z" fill="#F5F5F5"/>
<path d="M12 7.4483H6.62067V4.13794H5.37933V7.4483H0V8.68964H5.37933V12H6.62067V8.68964H12V7.4483Z" fill="#FF4B55"/>
<path d="M0.385651 4.82356L3.79168 7.03451H4.55171L0.684713 4.52435C0.573666 4.61201 0.473307 4.71246 0.385651 4.82356Z" fill="#FF4B55"/>
<path d="M7.79452 7.03449L11.937 4.34546C11.865 4.22363 11.738 4.13794 11.5862 4.13794H11.4967L7.03448 7.03449H7.79452Z" fill="#FF4B55"/>
<path d="M4.19409 9.10345L0.0594788 11.7873C0.130776 11.9121 0.259776 12 0.413807 12H0.491854L4.95417 9.10345H4.19409Z" fill="#FF4B55"/>
<path d="M11.9934 11.6187L8.11846 9.10345H7.35843L11.7588 11.9598C11.8906 11.8986 11.981 11.7704 11.9934 11.6187Z" fill="#FF4B55"/>
<path d="M16.1284 9.65515C16.0785 9.65515 16.0381 9.6956 16.0381 9.74553V11.2818C16.0381 14.3543 18.2069 14.8965 18.2069 14.8965C18.2069 14.8965 20.3758 14.3543 20.3758 11.2818V9.74553C20.3758 9.6956 20.3353 9.65515 20.2854 9.65515H16.1284Z" fill="#FFE15A"/>
<path d="M20.1499 9.88109V11.2818C20.1499 13.8951 18.5345 14.5542 18.207 14.6609C17.8777 14.5535 16.264 13.8936 16.264 11.2818V9.88109H20.1499ZM20.2854 9.65515H16.1284C16.0785 9.65515 16.0381 9.6956 16.0381 9.74553V11.2818C16.0381 14.3543 18.2069 14.8965 18.2069 14.8965C18.2069 14.8965 20.3758 14.3543 20.3758 11.2818V9.74553C20.3757 9.6956 20.3353 9.65515 20.2854 9.65515Z" fill="#F5F5F5"/>
<path d="M18.4495 12.5175H17.9871C17.9871 12.5175 17.6143 12.8903 17.5288 13.7093C17.5261 13.7354 17.5366 13.7618 17.5573 13.7781C17.6357 13.8396 17.856 13.9815 18.2183 13.9815C18.5806 13.9815 18.8008 13.8396 18.8793 13.7781C18.8999 13.7619 18.9104 13.7355 18.9078 13.7093C18.8223 12.8903 18.4495 12.5175 18.4495 12.5175Z" fill="#73AF00"/>
<path d="M18.4495 12.44H17.9872V12.0547C17.9872 11.9276 18.0912 11.8236 18.2183 11.8236C18.3454 11.8236 18.4494 11.9276 18.4494 12.0547V12.44H18.4495Z" fill="#FF4B55"/>
<path d="M18.4495 12.5941H17.9872C17.9446 12.5941 17.9101 12.5596 17.9101 12.5171C17.9101 12.4745 17.9446 12.44 17.9872 12.44H18.4495C18.492 12.44 18.5265 12.4745 18.5265 12.5171C18.5265 12.5596 18.492 12.5941 18.4495 12.5941Z" fill="#FF4B55"/>
<path d="M19.9905 10.8908C19.9769 10.8908 19.7759 10.8918 19.5667 10.9277V10.8073C19.7432 10.7267 19.9161 10.6851 19.9191 10.6844C19.9397 10.6795 19.9526 10.6588 19.9478 10.638C19.9428 10.6174 19.9222 10.6044 19.9014 10.6094C19.8898 10.612 19.7345 10.6494 19.5653 10.723C19.5626 10.6769 19.5465 10.6345 19.5205 10.5995C19.6586 10.4926 19.7762 10.4247 19.7784 10.4235C19.7969 10.413 19.8033 10.3895 19.7928 10.371C19.7822 10.3524 19.7587 10.346 19.7403 10.3565C19.731 10.3619 19.6076 10.433 19.4643 10.5449C19.4275 10.5201 19.3832 10.5056 19.3355 10.5056C19.286 10.5056 19.2402 10.5216 19.2026 10.5482C19.2421 10.3499 19.3233 10.2641 19.3244 10.263C19.3393 10.248 19.3393 10.2236 19.3243 10.2087C19.3092 10.1936 19.2849 10.1936 19.2698 10.2087C19.2652 10.2133 19.1904 10.2906 19.1429 10.4642C19.0955 10.2905 19.0206 10.2132 19.016 10.2087C19.0011 10.1937 18.9769 10.1937 18.9617 10.2086C18.9467 10.2235 18.9466 10.2479 18.9614 10.263C18.9624 10.2641 19.0437 10.35 19.0832 10.5482C19.0456 10.5216 18.9998 10.5056 18.9503 10.5056C18.9026 10.5056 18.8583 10.5202 18.8214 10.545C18.6782 10.433 18.5549 10.3619 18.5455 10.3566C18.527 10.346 18.5034 10.3525 18.4929 10.371C18.4824 10.3895 18.4889 10.413 18.5074 10.4235C18.5095 10.4248 18.6272 10.4926 18.7653 10.5995C18.7393 10.6345 18.7233 10.6769 18.7205 10.7231C18.5513 10.6494 18.396 10.6121 18.3843 10.6094C18.3635 10.6044 18.3429 10.6174 18.338 10.6381C18.3332 10.6588 18.346 10.6796 18.3667 10.6844C18.3697 10.6851 18.5426 10.7267 18.7191 10.8073V10.9278C18.51 10.8918 18.309 10.8909 18.2953 10.8909C18.274 10.8909 18.2567 10.9081 18.2567 10.9294C18.2567 10.9507 18.2739 10.968 18.2953 10.968C18.2986 10.968 18.5092 10.9688 18.7191 11.006V11.1307C18.6035 11.1272 18.4745 11.1434 18.3551 11.2032C18.3361 11.2127 18.3284 11.2358 18.3379 11.2548C18.3447 11.2683 18.3583 11.2762 18.3724 11.2762C18.3782 11.2762 18.384 11.2748 18.3895 11.2721C18.4959 11.219 18.6131 11.2051 18.719 11.2087V11.6854C18.719 11.7435 18.7132 11.802 18.7019 11.8592L18.6428 12.1547C18.6386 12.1756 18.6521 12.1958 18.6729 12.2C18.6755 12.2005 18.678 12.2008 18.6805 12.2008C18.6985 12.2008 18.7146 12.1882 18.7183 12.1698L18.7774 11.8743C18.7899 11.8122 18.7961 11.7487 18.7961 11.6854V11.2144C18.8539 11.2209 18.9058 11.2313 18.9476 11.2418L18.977 11.6233C18.9806 11.6709 19.0044 11.712 19.0392 11.7398L18.9142 11.9273C18.8473 12.0277 18.9192 12.1622 19.0399 12.1622H19.2458C19.3664 12.1622 19.4384 12.0277 19.3715 11.9273L19.2465 11.7398C19.2813 11.712 19.3051 11.6708 19.3087 11.6233L19.3381 11.2418C19.3798 11.2313 19.4317 11.2209 19.4895 11.2144V11.6854C19.4895 11.7487 19.4958 11.8122 19.5082 11.8743L19.5673 12.1698C19.571 12.1881 19.5871 12.2008 19.6051 12.2008C19.6076 12.2008 19.6101 12.2006 19.6127 12.2C19.6336 12.1958 19.6471 12.1755 19.6429 12.1546L19.5838 11.8591C19.5724 11.802 19.5666 11.7436 19.5666 11.6853V11.2086C19.6726 11.205 19.7898 11.2189 19.8961 11.272C19.9016 11.2748 19.9075 11.2761 19.9133 11.2761C19.9274 11.2761 19.941 11.2683 19.9478 11.2548C19.9573 11.2358 19.9496 11.2126 19.9306 11.2031C19.8112 11.1435 19.6822 11.1272 19.5666 11.1307V11.006C19.7764 10.9688 19.987 10.9679 19.9904 10.9679C20.0117 10.9679 20.0289 10.9506 20.0289 10.9294C20.029 10.9081 20.0118 10.8908 19.9905 10.8908ZM19.4897 10.9425C19.4436 10.9525 19.3983 10.9644 19.3556 10.9786C19.3548 10.9634 19.3526 10.9487 19.3488 10.9344C19.3915 10.9014 19.4395 10.8715 19.4897 10.845V10.9425H19.4897ZM19.4897 10.7367V10.758C19.4286 10.7884 19.3685 10.8235 19.3147 10.8634C19.3036 10.8481 19.2907 10.8344 19.2759 10.8226C19.3335 10.7588 19.3975 10.6996 19.4606 10.6474C19.4787 10.6726 19.4897 10.7034 19.4897 10.7367ZM19.3356 10.5826C19.3585 10.5826 19.3802 10.588 19.3997 10.5971C19.3332 10.653 19.2657 10.7166 19.2053 10.7856C19.1974 10.7832 19.1897 10.7808 19.1814 10.7793V10.7752C19.1814 10.7577 19.182 10.741 19.1826 10.7245C19.189 10.6454 19.2547 10.5826 19.3356 10.5826ZM18.9503 10.5826C19.0311 10.5826 19.0968 10.6453 19.1032 10.7245C19.1038 10.7411 19.1044 10.7577 19.1044 10.7753V10.7793C19.0962 10.7808 19.0884 10.7832 19.0805 10.7857C19.0201 10.7167 18.9526 10.653 18.886 10.5971C18.9057 10.588 18.9273 10.5826 18.9503 10.5826ZM18.7962 10.7367C18.7962 10.7033 18.8071 10.6726 18.8252 10.6473C18.8883 10.6995 18.9523 10.7587 19.0099 10.8225C18.9951 10.8343 18.9823 10.8481 18.9711 10.8634C18.9173 10.8235 18.8572 10.7883 18.7961 10.758L18.7962 10.7367ZM18.7962 10.845C18.8463 10.8715 18.8943 10.9015 18.9371 10.9345C18.9332 10.9488 18.931 10.9635 18.9303 10.9786C18.8875 10.9644 18.8423 10.9525 18.7962 10.9425V10.845H18.7962ZM18.7962 11.136V11.0216C18.8445 11.0325 18.8911 11.0458 18.9338 11.0617L18.9414 11.1603C18.8995 11.1506 18.8502 11.1417 18.7962 11.136ZM19.4897 11.1361C19.4356 11.1417 19.3863 11.1506 19.3445 11.1604L19.3521 11.0617C19.3948 11.0458 19.4414 11.0326 19.4897 11.0217V11.1361Z" fill="#D35A10"/>
<path d="M17.5563 11.931H17.3833L16.7219 11.3431C16.6496 11.279 16.6191 11.1799 16.6425 11.0861L16.8269 10.3485C16.8432 10.2832 16.9245 10.2607 16.972 10.3083L17.2713 10.6076C17.2875 10.6238 17.3095 10.6329 17.3325 10.6329H17.5562V11.9311L17.5563 11.931Z" fill="#FFA033"/>
<path d="M17.4323 10.4555L17.3261 10.9335C17.3069 11.0201 17.3101 11.1103 17.3356 11.1953L17.5563 11.931H17.7294L17.9501 11.1953C17.9756 11.1103 17.9789 11.0202 17.9596 10.9335L17.8534 10.4555C17.8315 10.3569 17.7441 10.2868 17.6431 10.2868H17.6426C17.5416 10.2867 17.4542 10.3569 17.4323 10.4555Z" fill="#FF9480"/>
<path d="M17.6429 10.4598C17.5951 10.4598 17.5563 10.4985 17.5563 10.5463V11.9309H17.7294V10.5463C17.7294 10.4985 17.6906 10.4598 17.6429 10.4598Z" fill="#FFA0E4"/>
</svg>
