<svg xmlns="http://www.w3.org/2000/svg" width="24" height="24" viewBox="0 0 24 24" fill="none"><rect width="24" height="24" fill="none"/>
<path d="M10.5651 4.13788H2.89932L10.5651 6.64909V4.13788Z" fill="#41479B"/>
<path d="M23.9999 7.03443V5.93531C23.9999 5.58098 23.8969 5.25089 23.7199 4.9725L17.4256 7.03443H23.9999Z" fill="#41479B"/>
<path d="M21.106 4.13788H13.4402V6.64909L21.106 4.13788Z" fill="#41479B"/>
<path d="M0.280962 4.97101C0.119666 5.22408 0.0196825 5.52 0.00280762 5.83809V7.03443H6.57974L0.280962 4.97101Z" fill="#41479B"/>
<path d="M23.9999 11.257V9.10336H17.4257L23.9999 11.257Z" fill="#41479B"/>
<path d="M0.00271606 9.10336V11.2579L6.57965 9.10336H0.00271606Z" fill="#41479B"/>
<path d="M13.4402 11.9999H21.106L13.4402 9.48862V11.9999Z" fill="#41479B"/>
<path d="M2.89929 11.9999H10.5651V9.48862L2.89929 11.9999Z" fill="#41479B"/>
<path d="M4.79698 17.5343C5.99645 17.5343 5.99645 17.1722 7.19593 17.1722C8.39592 17.1722 8.39592 17.5343 9.59591 17.5343C10.7959 17.5343 10.7959 17.1722 11.9959 17.1722C13.1959 17.1722 13.1959 17.5343 14.3959 17.5343C15.5955 17.5343 15.5955 17.1722 16.7952 17.1722C17.995 17.1722 17.995 17.5343 19.1948 17.5343C20.3957 17.5343 20.3957 17.1722 21.5965 17.1722C22.7982 17.1722 22.7982 17.5343 23.9999 17.5343V16.4481C22.7982 16.4481 22.7982 16.0861 21.5965 16.0861C20.3956 16.0861 20.3956 16.4481 19.1948 16.4481C17.995 16.4481 17.9949 16.0861 16.7952 16.0861C15.5955 16.0861 15.5955 16.4481 14.3959 16.4481C13.1959 16.4481 13.1959 16.0861 11.9959 16.0861C10.7959 16.0861 10.7959 16.4481 9.59591 16.4481C8.39592 16.4481 8.39592 16.0861 7.19593 16.0861C5.99645 16.0861 5.99645 16.4481 4.79698 16.4481C3.59811 16.4481 3.59811 16.0861 2.3992 16.0861C1.20057 16.0861 1.19954 16.4476 0.00268555 16.4481V17.5343C1.19954 17.5337 1.20052 17.1722 2.3992 17.1722C3.59811 17.1722 3.59811 17.5343 4.79698 17.5343Z" fill="#F5F5F5"/>
<path d="M4.79698 15.3619C5.99645 15.3619 5.99645 14.9998 7.19593 14.9998C8.39592 14.9998 8.39592 15.3619 9.59591 15.3619C10.7959 15.3619 10.7959 14.9998 11.9959 14.9998C13.1959 14.9998 13.1959 15.3619 14.3959 15.3619C15.5955 15.3619 15.5955 14.9998 16.7952 14.9998C17.995 14.9998 17.995 15.3619 19.1948 15.3619C20.3957 15.3619 20.3957 14.9998 21.5965 14.9998C22.7982 14.9998 22.7982 15.3619 23.9999 15.3619V14.2757C22.7982 14.2757 22.7982 13.9137 21.5965 13.9137C20.3956 13.9137 20.3956 14.2757 19.1948 14.2757C17.995 14.2757 17.9949 13.9137 16.7952 13.9137C15.5955 13.9137 15.5955 14.2757 14.3959 14.2757C13.1959 14.2757 13.1959 13.9137 11.9959 13.9137C10.7959 13.9137 10.7959 14.2757 9.59591 14.2757C8.39592 14.2757 8.39592 13.9137 7.19593 13.9137C5.99645 13.9137 5.99645 14.2757 4.79698 14.2757C3.59811 14.2757 3.59811 13.9137 2.3992 13.9137C1.20057 13.9137 1.19954 14.2752 0.00268555 14.2757V15.3619C1.19954 15.3613 1.20052 14.9998 2.3992 14.9998C3.59811 14.9998 3.59811 15.3619 4.79698 15.3619Z" fill="#F5F5F5"/>
<path d="M4.79696 13.1895C5.99643 13.1895 5.99643 12.8274 7.19591 12.8274C8.3959 12.8274 8.3959 13.1895 9.59589 13.1895C10.7959 13.1895 10.7959 12.8274 11.9959 12.8274C13.1959 12.8274 13.1959 13.1895 14.3959 13.1895C15.5955 13.1895 15.5955 12.8274 16.7952 12.8274C17.995 12.8274 17.995 13.1895 19.1948 13.1895C20.3957 13.1895 20.3957 12.8274 21.5965 12.8274C22.7982 12.8274 22.7982 13.1895 23.9999 13.1895V11.9999H23.642H21.106H13.4402H12.6233H11.382H10.5651H2.89929H0.986474H0.00271606V13.1895C1.19957 13.1889 1.20055 12.8274 2.39923 12.8274C3.59809 12.8274 3.59809 13.1895 4.79696 13.1895Z" fill="#F5F5F5"/>
<path d="M19.1948 18.6205C17.9949 18.6205 17.9949 18.2584 16.7952 18.2584C15.5955 18.2584 15.5955 18.6205 14.3959 18.6205C13.1959 18.6205 13.1959 18.2584 11.9959 18.2584C10.7959 18.2584 10.7959 18.6205 9.5959 18.6205C8.39591 18.6205 8.39591 18.2584 7.19592 18.2584C5.99644 18.2584 5.99644 18.6205 4.79697 18.6205C3.5981 18.6205 3.5981 18.2584 2.39919 18.2584C1.22976 18.2584 1.19981 18.6023 0.0877991 18.6196C0.321797 19.3405 0.998526 19.8618 1.79741 19.8618H22.2024C23.0013 19.8618 23.678 19.3405 23.912 18.6196C22.7979 18.6023 22.7679 18.2584 21.5965 18.2584C20.3957 18.2584 20.3957 18.6205 19.1948 18.6205Z" fill="#F5F5F5"/>
<path d="M12.6234 11.9999H13.4402V9.48862L21.106 11.9999H23.642L14.7195 9.10335H16.2395L23.9999 11.622V11.257L17.4257 9.10335H23.9999V8.68954H12.6234V11.9999Z" fill="#F5F5F5"/>
<path d="M9.91093 9.10335L0.986474 11.9999H2.89929L10.5651 9.48862V11.9999H11.382V8.68954H0.00271606V9.10335H6.57965L0.00271606 11.2579V11.8249L8.39088 9.10335H9.91093Z" fill="#F5F5F5"/>
<path d="M23.9999 7.44815V7.03434H17.4257L23.7199 4.97242C23.6119 4.80259 23.4764 4.65227 23.3193 4.52749L15.5917 7.03434H14.0717L22.7419 4.22027C22.5716 4.16679 22.3905 4.13782 22.2026 4.13782H21.1061L13.4402 6.64908V4.13786H12.6234V7.4482H23.9999V7.44815Z" fill="#F5F5F5"/>
<path d="M11.3829 4.13882H10.5661V6.65009L2.90031 4.13882H1.79843C1.47406 4.13882 1.17003 4.22521 0.907295 4.37549L9.10712 7.03535H7.58707L0.470095 4.72541C0.400486 4.80177 0.337674 4.88441 0.28194 4.97193L6.58067 7.03535H0.00369263V7.44916H11.3829V4.13882V4.13882Z" fill="#F5F5F5"/>
<path d="M23.9998 7.44836H12.6234V8.68975H23.9998V7.44836Z" fill="#FF4B55"/>
<path d="M11.382 7.44836H0.00271606V8.68975H11.382V7.44836Z" fill="#FF4B55"/>
<path d="M11.382 8.68955V11.9999H12.6233V8.68955V7.44817V4.13788H11.382V7.44817V8.68955Z" fill="#FF4B55"/>
<path d="M9.91094 9.10336H8.39089L0.00271606 11.825V11.9999H0.986474L9.91094 9.10336Z" fill="#FF4B55"/>
<path d="M14.7195 9.10336L23.642 11.9999H23.9999V11.622L16.2395 9.10336H14.7195Z" fill="#FF4B55"/>
<path d="M4.79696 14.2758C5.99644 14.2758 5.99644 13.9137 7.19591 13.9137C8.3959 13.9137 8.3959 14.2758 9.59589 14.2758C10.7959 14.2758 10.7959 13.9137 11.9959 13.9137C13.1959 13.9137 13.1959 14.2758 14.3959 14.2758C15.5955 14.2758 15.5955 13.9137 16.7952 13.9137C17.995 13.9137 17.995 14.2758 19.1948 14.2758C20.3957 14.2758 20.3957 13.9137 21.5965 13.9137C22.7982 13.9137 22.7982 14.2758 23.9999 14.2758V13.1896C22.7982 13.1896 22.7982 12.8275 21.5965 12.8275C20.3956 12.8275 20.3956 13.1896 19.1948 13.1896C17.9949 13.1896 17.9949 12.8275 16.7952 12.8275C15.5955 12.8275 15.5955 13.1896 14.3959 13.1896C13.1959 13.1896 13.1959 12.8275 11.9959 12.8275C10.7959 12.8275 10.7959 13.1896 9.59589 13.1896C8.3959 13.1896 8.3959 12.8275 7.19591 12.8275C5.99644 12.8275 5.99644 13.1896 4.79696 13.1896C3.5981 13.1896 3.5981 12.8275 2.39918 12.8275C1.20055 12.8275 1.19952 13.189 0.00267185 13.1896C0.00173436 13.1896 0.000890618 13.1896 0 13.1896V14.2758C0.000937493 14.2758 0.00178124 14.2758 0.00267185 14.2758C1.19952 14.2752 1.20051 13.9137 2.39918 13.9137C3.5981 13.9137 3.5981 14.2758 4.79696 14.2758Z" fill="#41479B"/>
<path d="M4.79696 16.4483C5.99644 16.4483 5.99644 16.0863 7.19591 16.0863C8.3959 16.0863 8.3959 16.4483 9.59589 16.4483C10.7959 16.4483 10.7959 16.0863 11.9959 16.0863C13.1959 16.0863 13.1959 16.4483 14.3959 16.4483C15.5955 16.4483 15.5955 16.0863 16.7952 16.0863C17.995 16.0863 17.995 16.4483 19.1948 16.4483C20.3957 16.4483 20.3957 16.0863 21.5965 16.0863C22.7982 16.0863 22.7982 16.4483 23.9999 16.4483V15.3622C22.7982 15.3622 22.7982 15.0001 21.5965 15.0001C20.3956 15.0001 20.3956 15.3622 19.1948 15.3622C17.9949 15.3622 17.9949 15.0001 16.7952 15.0001C15.5955 15.0001 15.5955 15.3622 14.3959 15.3622C13.1959 15.3622 13.1959 15.0001 11.9959 15.0001C10.7959 15.0001 10.7959 15.3622 9.59589 15.3622C8.3959 15.3622 8.3959 15.0001 7.19591 15.0001C5.99644 15.0001 5.99644 15.3622 4.79696 15.3622C3.5981 15.3622 3.5981 15.0001 2.39918 15.0001C1.20055 15.0001 1.19952 15.3616 0.00267185 15.3622C0.00173436 15.3622 0.000890618 15.3622 0 15.3622V16.4483C0.000937493 16.4483 0.00178124 16.4483 0.00267185 16.4483C1.19952 16.4478 1.20051 16.0863 2.39918 16.0863C3.5981 16.0863 3.5981 16.4483 4.79696 16.4483Z" fill="#41479B"/>
<path d="M0.0878878 18.6199C1.19989 18.6026 1.22985 18.2587 2.39928 18.2587C3.59814 18.2587 3.59814 18.6208 4.79705 18.6208C5.99653 18.6208 5.99653 18.2587 7.196 18.2587C8.396 18.2587 8.396 18.6208 9.59599 18.6208C10.796 18.6208 10.796 18.2587 11.996 18.2587C13.196 18.2587 13.196 18.6208 14.3959 18.6208C15.5956 18.6208 15.5956 18.2587 16.7953 18.2587C17.9951 18.2587 17.9951 18.6208 19.1949 18.6208C20.3958 18.6208 20.3958 18.2587 21.5966 18.2587C22.7681 18.2587 22.7981 18.6026 23.9122 18.6199C23.9689 18.4451 24 18.2585 24 18.0648V17.5346C22.7984 17.5346 22.7983 17.1725 21.5966 17.1725C20.3958 17.1725 20.3958 17.5346 19.1949 17.5346C17.995 17.5346 17.995 17.1725 16.7953 17.1725C15.5956 17.1725 15.5956 17.5346 14.3959 17.5346C13.196 17.5346 13.196 17.1725 11.996 17.1725C10.796 17.1725 10.796 17.5346 9.59599 17.5346C8.396 17.5346 8.396 17.1725 7.196 17.1725C5.99653 17.1725 5.99653 17.5346 4.79705 17.5346C3.59819 17.5346 3.59819 17.1725 2.39928 17.1725C1.20064 17.1725 1.19961 17.534 0.00276346 17.5346C0.00182597 17.5346 0.000982224 17.5346 9.16058e-05 17.5346V18.0648C4.47311e-05 18.2585 0.0310757 18.445 0.0878878 18.6199Z" fill="#41479B"/>
<path d="M9.10611 7.03443L0.90633 4.37457C0.742831 4.46813 0.595223 4.58621 0.469177 4.72449L7.5861 7.03443H9.10611Z" fill="#FF4B55"/>
<path d="M15.5917 7.03442L23.3194 4.52757C23.1492 4.39238 22.9542 4.28705 22.7419 4.2204L14.0716 7.03442H15.5917Z" fill="#FF4B55"/>
<path d="M14.1242 7.34819L13.5138 7.66375L13.2727 7.1029C13.2478 7.045 13.148 7.03469 13.1043 7.08541L12.6071 7.66375L12.0872 6.85746C12.0524 6.80341 11.9529 6.80341 11.9181 6.85746L11.3982 7.66375L10.901 7.08541C10.8574 7.03469 10.7575 7.045 10.7327 7.1029L10.4916 7.66375L9.88113 7.34819C9.80046 7.30652 9.70076 7.37472 9.74412 7.44199L10.3405 8.36687H10.3146C10.2454 8.36687 10.1893 8.41037 10.1893 8.46404V8.7384C10.1893 8.79207 10.2454 8.83557 10.3146 8.83557H13.6906C13.7598 8.83557 13.8159 8.79207 13.8159 8.7384V8.46404C13.8159 8.41037 13.7598 8.36687 13.6906 8.36687H13.6648L14.2611 7.44199C14.3046 7.37472 14.2049 7.30647 14.1242 7.34819Z" fill="#FFE15A"/>
<path d="M18.8296 19.3048C19.6987 18.8572 20.0114 18.1859 20.1253 17.9365C20.2977 17.5587 21.0978 17.254 21.0978 17.254C21.0978 17.254 20.1094 17.2586 19.5804 17.9454C19.0927 18.5786 18.2146 18.633 17.3678 19.1175C17.2871 19.016 17.204 18.9165 17.1178 18.8199L19.7564 15.6257L16.5623 18.2644C16.4373 18.1529 16.3079 18.0462 16.1749 17.9439C16.259 17.7253 16.4249 17.3873 16.7508 17.0025C17.3824 16.2564 17.4144 15.5165 17.4241 15.2425C17.4389 14.8275 18.0615 14.2398 18.0615 14.2398C18.0615 14.2398 17.1501 14.6223 16.9241 15.4592C16.716 16.2304 15.9263 16.6168 15.3295 17.3877C15.2162 17.3246 15.1015 17.2638 14.9844 17.2072L16.1991 13.2487L14.2584 16.9078C14.1005 16.8527 13.9402 16.8029 13.7773 16.7593C13.7715 16.525 13.7957 16.1499 13.9491 15.6709C14.2471 14.7399 13.9935 14.0441 13.8976 13.7872C13.7525 13.3981 14.1027 12.6169 14.1027 12.6169C14.1027 12.6169 13.4071 13.3191 13.5187 14.1788C13.6215 14.9712 13.0394 15.6305 12.7831 16.5715C12.6548 16.557 12.5258 16.5454 12.3955 16.538L12.0027 12.4138L11.6099 16.5378C11.4413 16.5474 11.2746 16.5642 11.1094 16.5857C11.0143 16.3717 10.8926 16.0153 10.8509 15.5128C10.77 14.5386 10.2694 13.9927 10.0826 13.7922C9.79948 13.4883 9.82413 12.6325 9.82413 12.6325C9.82413 12.6325 9.45017 13.5474 9.88226 14.299C10.2804 14.9915 9.99518 15.8233 10.1183 16.7904C9.99307 16.8262 9.86928 16.8651 9.74717 16.9077L7.80646 13.2486L9.02117 17.2071C8.86972 17.2804 8.7223 17.3606 8.57727 17.4444C8.40744 17.283 8.15891 17.0004 7.92824 16.5525C7.48064 15.6834 6.80925 15.3707 6.55988 15.2569C6.18207 15.0844 5.87739 14.2844 5.87739 14.2844C5.87739 14.2844 5.88198 15.2728 6.56883 15.8018C7.20197 16.2894 7.25644 17.1676 7.74089 18.0144C7.6394 18.0951 7.53989 18.1782 7.44323 18.2644L4.24905 15.6257L6.88772 18.8199C6.77621 18.9449 6.66952 19.0743 6.56724 19.2073C6.34862 19.1232 6.01065 18.9572 5.62586 18.6314C4.87975 17.9998 4.13984 17.9678 3.86585 17.958C3.45083 17.9433 2.86316 17.3207 2.86316 17.3207C2.86316 17.3207 3.2457 18.2321 4.08265 18.4581C4.77447 18.6448 5.1588 19.2986 5.78659 19.8622H18.0321C18.2011 19.7007 18.4547 19.4979 18.8296 19.3048Z" fill="#FFE15A"/>
<path d="M20.853 19.8621L22.1334 19.183L19.9204 19.8621H20.853Z" fill="#FFE15A"/>
<path d="M1.87189 19.183L3.15231 19.8621H4.08489L1.87189 19.183Z" fill="#FFE15A"/>
</svg>
