<svg xmlns="http://www.w3.org/2000/svg" width="24" height="24" viewBox="0 0 24 24" fill="none"><rect width="24" height="24" fill="none"/>
<path d="M22.2134 4.13855H1.78664C0.798984 4.14432 0 4.94663 0 5.93569V18.065C0 19.0577 0.804703 19.8624 1.79742 19.8624H22.2026C23.1952 19.8624 24 19.0577 24 18.065V5.93569C24 4.94663 23.201 4.14432 22.2134 4.13855Z" fill="#41479B"/>
<path d="M23.358 4.55823L0.642372 19.4409C0.954794 19.7032 1.35754 19.8614 1.79742 19.8614H22.2026C23.1952 19.8614 24 19.0567 24 18.064V5.93471C24 5.3821 23.7504 4.88799 23.358 4.55823Z" fill="#73AF00"/>
<path d="M24 4.55139C24 4.32287 23.8147 4.13757 23.5862 4.13757H22.8672L0 19.1196V19.448C0 19.6765 0.185297 19.8618 0.413813 19.8618H1.13283L24 4.87979V4.55139Z" fill="#FFE15A"/>
<path d="M2.08261 5.42678L1.86108 6.09095L1.16096 6.09638C1.09383 6.0969 1.06599 6.18259 1.11999 6.22248L1.68319 6.6384L1.47202 7.30595C1.45172 7.36998 1.52466 7.4229 1.57932 7.3839L2.14894 6.97679L2.71857 7.3839C2.77318 7.42295 2.84607 7.36998 2.82586 7.30595L2.61469 6.6384L3.17789 6.22248C3.23189 6.18259 3.20405 6.0969 3.13693 6.09638L2.4368 6.09095L2.21527 5.42678C2.19399 5.36307 2.10389 5.36307 2.08261 5.42678Z" fill="#F5F5F5"/>
<path d="M7.41604 5.42699L7.19451 6.09116L6.49438 6.0966C6.42726 6.09711 6.39942 6.1828 6.45342 6.22269L7.01662 6.63861L6.80545 7.30616C6.78515 7.37019 6.85809 7.42311 6.91274 7.38411L7.48237 6.977L8.05199 7.38411C8.1066 7.42316 8.17949 7.37019 8.15929 7.30616L7.94812 6.63861L8.51132 6.22269C8.56532 6.1828 8.53748 6.09711 8.47035 6.0966L7.77023 6.09116L7.5487 5.42699C7.52737 5.36329 7.43728 5.36329 7.41604 5.42699Z" fill="#F5F5F5"/>
<path d="M4.74932 7.80345L4.52779 8.46763L3.82767 8.47306C3.76054 8.47358 3.7327 8.55927 3.7867 8.59916L4.3499 9.01508L4.13873 9.68263C4.11843 9.74666 4.19137 9.79958 4.24603 9.76058L4.81565 9.35347L5.38528 9.76058C5.43989 9.79963 5.51278 9.74666 5.49257 9.68263L5.2814 9.01508L5.8446 8.59916C5.8986 8.55927 5.87076 8.47358 5.80364 8.47306L5.10351 8.46763L4.88198 7.80345C4.8606 7.73975 4.77056 7.73975 4.74932 7.80345Z" fill="#F5F5F5"/>
<path d="M2.08256 10.1799L1.86103 10.8441L1.1609 10.8495C1.09378 10.8501 1.06593 10.9357 1.11993 10.9756L1.68314 11.3916L1.47197 12.0591C1.45167 12.1231 1.52461 12.1761 1.57926 12.1371L2.14889 11.7299L2.71851 12.1371C2.77312 12.1761 2.84601 12.1231 2.82581 12.0591L2.61464 11.3916L3.17784 10.9756C3.23184 10.9357 3.204 10.8501 3.13687 10.8495L2.43675 10.8441L2.21522 10.1799C2.19393 10.1162 2.10384 10.1162 2.08256 10.1799Z" fill="#F5F5F5"/>
<path d="M7.41604 10.1799L7.19451 10.8441L6.49438 10.8495C6.42726 10.8501 6.39942 10.9357 6.45342 10.9756L7.01662 11.3916L6.80545 12.0591C6.78515 12.1231 6.85809 12.1761 6.91274 12.1371L7.48237 11.7299L8.05199 12.1371C8.1066 12.1761 8.17949 12.1231 8.15929 12.0591L7.94812 11.3916L8.51132 10.9756C8.56532 10.9357 8.53748 10.8501 8.47035 10.8495L7.77023 10.8441L7.5487 10.1799C7.52737 10.1162 7.43728 10.1162 7.41604 10.1799Z" fill="#F5F5F5"/>
</svg>
