<svg xmlns="http://www.w3.org/2000/svg" width="24" height="24" viewBox="0 0 24 24" fill="none"><rect width="24" height="24" fill="none"/>
<path d="M22.2026 19.8621H1.79742C0.804703 19.8621 0 19.0574 0 18.0646V5.93536C0 4.94269 0.804703 4.13794 1.79742 4.13794H22.2026C23.1952 4.13794 24 4.94264 24 5.93536V18.0647C24 19.0574 23.1953 19.8621 22.2026 19.8621Z" fill="#FF4B55"/>
<path d="M13.9664 13.0294L17.1274 10.7101H13.2129L12 6.97705L10.7871 10.7101H6.87262L10.0335 13.0294L8.83003 16.7335L11.9969 14.47L12 14.4723L12.0031 14.47L15.17 16.7335L13.9664 13.0294ZM14.6005 11.5377L13.6971 12.2006L13.4817 11.5377H14.6005V11.5377ZM11.0055 12.7161L11.3884 11.5376H12.6116L12.9945 12.7161L12 13.4458L11.0055 12.7161ZM12 9.65539L12.3427 10.7101H11.6572L12 9.65539ZM9.39946 11.5377H10.5183L10.3029 12.2006L9.39946 11.5377ZM10.3939 14.5983L10.7362 13.5449L11.2945 13.9545L10.3939 14.5983ZM13.2638 13.5449L13.6061 14.5983L12.7056 13.9546L13.2638 13.5449Z" fill="#5A8250"/>
</svg>
