<svg xmlns="http://www.w3.org/2000/svg" width="24" height="24" viewBox="0 0 24 24" fill="none"><rect width="24" height="24" fill="none"/>
<path d="M22.209 4.13751H1.79566C0.806407 4.13751 0 4.93923 0 5.93317V18.0668C0 19.0607 0.806407 19.8624 1.79566 19.8624H22.2043C23.1983 19.8624 24 19.056 24 18.0668V5.93317C24.0047 4.93923 23.1983 4.13751 22.209 4.13751Z" fill="#FF4B55"/>
<path d="M12.1945 7.31152L13.301 10.6309L16.7986 10.659C16.9955 10.659 17.0752 10.9122 16.9158 11.0247L14.1027 13.1017L15.1576 16.4352C15.2186 16.6227 15.0029 16.7774 14.8435 16.6602L12.0023 14.6301L9.15646 16.6649C8.99705 16.7774 8.78607 16.6227 8.84233 16.4399L9.89723 13.1064L7.08418 11.0294C6.92477 10.9122 7.00917 10.6637 7.20139 10.6637L10.6989 10.6356L11.8054 7.31621C11.871 7.12398 12.1336 7.12398 12.1945 7.31152Z" fill="#FFE15A"/>
</svg>
