<svg xmlns="http://www.w3.org/2000/svg" width="24" height="24" viewBox="0 0 24 24" fill="none"><rect width="24" height="24" fill="none"/>
<path d="M22.2026 19.8619H1.79742C0.804703 19.8619 0 19.0572 0 18.0645V5.93524C0 4.94257 0.804703 4.13782 1.79742 4.13782H22.2026C23.1952 4.13782 24 4.94252 24 5.93524V18.0646C24 19.0572 23.1953 19.8619 22.2026 19.8619Z" fill="#73AF00"/>
<path d="M7.44844 4.138H3.31032V19.8622H7.44844V4.138Z" fill="#FF4B55"/>
<path d="M7.03443 5.93086L6.20686 6.62048H4.55165L3.72408 5.93086V5.24119L4.55165 4.55151H6.20686L7.03443 5.24119V5.93086Z" fill="#F5F5F5"/>
<path d="M7.03439 11.7237L6.20681 12.4134H4.55161L3.72403 11.7237V11.034L4.55161 10.3444H6.20681L7.03439 11.034V11.7237Z" fill="#73AF00"/>
<path d="M7.03443 8.82742L6.20686 9.51704H4.55165L3.72408 8.82742V8.13775L4.55165 7.44812H6.20686L7.03443 8.13775V8.82742Z" fill="#73AF00"/>
<path d="M7.03439 14.6203L6.20681 15.3099H4.55161L3.72403 14.6203V13.9306L4.55161 13.241H6.20681L7.03439 13.9306V14.6203Z" fill="#73AF00"/>
<path d="M3.31033 6.20679L4.13791 7.03437L3.31033 7.86194V6.20679Z" fill="#FFB400"/>
<path d="M7.44823 7.86194L6.62065 7.03437L7.44823 6.20679V7.86194Z" fill="#FFB400"/>
<path d="M3.31033 9.10333L4.13791 9.93091L3.31033 10.7585V9.10333Z" fill="#FFB400"/>
<path d="M7.44823 10.7585L6.62065 9.93091L7.44823 9.10333V10.7585Z" fill="#FFB400"/>
<path d="M3.31033 11.9999L4.13791 12.8275L3.31033 13.655V11.9999Z" fill="#FFB400"/>
<path d="M7.44823 13.655L6.62065 12.8275L7.44823 11.9999V13.655Z" fill="#FFB400"/>
<path d="M3.31033 14.8964L4.13791 15.724L3.31033 16.5516V14.8964Z" fill="#FFB400"/>
<path d="M7.44823 16.5516L6.62065 15.724L7.44823 14.8964V16.5516Z" fill="#FFB400"/>
<path d="M3.31032 4.13782H4.1379L3.31032 4.9654V4.13782Z" fill="#FFB400"/>
<path d="M7.44823 4.9654L6.62065 4.13782H7.44823V4.9654Z" fill="#FFB400"/>
<path d="M5.58602 7.4483H5.17221V9.51737H5.58602V7.4483Z" fill="#FFB400"/>
<path d="M6.20673 8.27563H4.55157V8.68945H6.20673V8.27563Z" fill="#FF4B55"/>
<path d="M6.62058 7.79252L6.20682 7.44775V9.51668L6.62058 9.17186V7.79252Z" fill="#FFB400"/>
<path d="M4.13785 9.17186L4.55161 9.51663V7.44775L4.13785 7.79252V9.17186Z" fill="#FFB400"/>
<path d="M5.37928 4.55151H4.55165L3.72408 5.24119V5.586H5.37928V4.55151Z" fill="#FFB400"/>
<path d="M5.37924 6.62018H6.20677L7.0344 5.93055V5.58569H5.37924V6.62018Z" fill="#FFB400"/>
<path d="M5.37929 6.20672L4.55167 5.58844L5.37929 4.96533L6.20687 5.58844L5.37929 6.20672Z" fill="#FF4B55"/>
<path d="M5.37923 6.20714L6.2068 5.58886L6.20352 5.58643H5.37923V6.20714Z" fill="#73AF00"/>
<path d="M5.37928 5.586V4.96533L4.55489 5.586H5.37928Z" fill="#73AF00"/>
<path d="M6.20673 10.7586H4.55157V12H6.20673V10.7586Z" fill="#FF4B55"/>
<path d="M6.62052 11.1721H6.20671V11.5859H6.62052V11.1721Z" fill="#FFB400"/>
<path d="M5.58601 11.1721H5.1722V11.5859H5.58601V11.1721Z" fill="#F5F5F5"/>
<path d="M5.58601 13.655H5.1722V14.0688H5.58601V13.655Z" fill="#FF4B55"/>
<path d="M6.20716 14.0693H5.79335V14.4831H6.20716V14.0693Z" fill="#FFB400"/>
<path d="M4.96539 14.0689H4.55157V14.4827H4.96539V14.0689Z" fill="#FFB400"/>
<path d="M5.58601 14.4828H5.1722V14.8966H5.58601V14.4828Z" fill="#FF4B55"/>
<path d="M4.55194 11.1721H4.13812V11.5859H4.55194V11.1721Z" fill="#FFB400"/>
<path d="M7.03443 17.5172L6.20686 18.2068H4.55165L3.72408 17.5172V16.8274L4.55165 16.1378H6.20686L7.03443 16.8274V17.5172Z" fill="#F5F5F5"/>
<path d="M5.37928 16.1378H4.55165L3.72408 16.8274V17.1723H5.37928V16.1378Z" fill="#FFB400"/>
<path d="M5.37924 18.2068H6.20677L7.0344 17.5172V17.1723H5.37924V18.2068Z" fill="#FFB400"/>
<path d="M6.20687 17.3791L5.37929 17.7929L4.55167 17.3791V16.9653L5.37929 16.5515L6.20687 16.9653V17.3791Z" fill="#FF4B55"/>
<path d="M13.1255 6.39069C13.0815 6.36903 13.0416 6.42636 13.0773 6.46006C13.5456 6.90195 13.8415 7.52253 13.8415 8.21473C13.8415 9.57444 12.7486 10.6653 11.4047 10.6653C11.1566 10.6653 10.9177 10.6266 10.6923 10.5562C10.6456 10.5416 10.6154 10.6042 10.6556 10.6322C11.0485 10.9053 11.5221 11.0686 12.0391 11.0686C13.4008 11.0686 14.5135 9.97756 14.5135 8.59812C14.5135 7.62866 13.9445 6.7932 13.1255 6.39069Z" fill="#F5F5F5"/>
<path d="M9.75811 7.98722L9.6569 8.27358L9.89503 8.46206C9.92587 8.48649 9.90792 8.53608 9.86859 8.53505L9.56498 8.52722L9.45933 8.81194C9.44564 8.84883 9.3929 8.84705 9.38175 8.80936L9.29536 8.51822L8.99189 8.50571C8.95256 8.50411 8.93798 8.45339 8.97037 8.43113L9.22059 8.259L9.1387 7.9665C9.12811 7.92863 9.1718 7.89905 9.20301 7.923L9.44405 8.10778L9.69694 7.9395C9.72961 7.91775 9.77123 7.95019 9.75811 7.98722Z" fill="#F5F5F5"/>
<path d="M10.9879 8.60831L10.8867 8.89467L11.1248 9.08316C11.1557 9.10758 11.1377 9.15717 11.0984 9.15614L10.7948 9.14831L10.6891 9.43303C10.6755 9.46992 10.6227 9.46814 10.6116 9.43046L10.5252 9.13931L10.2217 9.1268C10.1824 9.12521 10.1678 9.07449 10.2002 9.05222L10.4504 8.8801L10.3685 8.5876C10.3579 8.54972 10.4016 8.52014 10.4328 8.5441L10.6739 8.72888L10.9267 8.5606C10.9594 8.53885 11.001 8.57124 10.9879 8.60831Z" fill="#F5F5F5"/>
<path d="M10.9755 7.3289L10.8743 7.61526L11.1124 7.80374C11.1433 7.82816 11.1253 7.87776 11.086 7.87672L10.7824 7.8689L10.6767 8.15361C10.663 8.19051 10.6103 8.18872 10.5991 8.15104L10.5127 7.8599L10.2093 7.84738C10.17 7.84579 10.1554 7.79507 10.1878 7.7728L10.438 7.60068L10.3561 7.30818C10.3455 7.2703 10.3892 7.24072 10.4204 7.26468L10.6614 7.44946L10.9143 7.28118C10.947 7.25933 10.9886 7.29177 10.9755 7.3289Z" fill="#F5F5F5"/>
<path d="M11.0173 6.09397L10.9161 6.38033L11.1542 6.56882C11.1851 6.59324 11.1671 6.64283 11.1278 6.6418L10.8242 6.63397L10.7185 6.91869C10.7048 6.95558 10.6521 6.9538 10.6409 6.91611L10.5546 6.62497L10.2511 6.61246C10.2118 6.61086 10.1972 6.56014 10.2296 6.53788L10.4798 6.36575L10.3979 6.07325C10.3873 6.03538 10.431 6.0058 10.4622 6.02975L10.7032 6.21453L10.9561 6.04625C10.9888 6.02446 11.0305 6.05689 11.0173 6.09397Z" fill="#F5F5F5"/>
<path d="M12.2222 6.715L12.121 7.00136L12.3592 7.18985C12.39 7.21427 12.372 7.26386 12.3327 7.26283L12.0291 7.255L11.9235 7.53972C11.9098 7.57661 11.857 7.57483 11.8459 7.53714L11.7595 7.246L11.456 7.23349C11.4167 7.23189 11.4021 7.18118 11.4345 7.15891L11.6847 6.98679L11.6028 6.69429C11.5922 6.65641 11.6359 6.62683 11.6671 6.65079L11.9082 6.83557L12.1611 6.66728C12.1937 6.64553 12.2354 6.67797 12.2222 6.715Z" fill="#F5F5F5"/>
</svg>
