<svg xmlns="http://www.w3.org/2000/svg" width="24" height="24" viewBox="0 0 24 24" fill="none"><rect width="24" height="24" fill="none"/>
<path d="M0 18.0647C0 19.0573 0.804703 19.8621 1.79742 19.8621H22.2026C23.1952 19.8621 24 19.0574 24 18.0647V14.6207H0V18.0647Z" fill="#F5F5F5"/>
<path d="M22.2026 4.13793H1.79742C0.804703 4.13793 0 4.94263 0 5.93535V9.37931H24V5.93535C24 4.94263 23.1953 4.13793 22.2026 4.13793Z" fill="#FF4B55"/>
<path d="M24 9.37921H0V14.6203H24V9.37921Z" fill="#41479B"/>
<path d="M8.11035 9.37829H5.13102L5.0069 8.63345H8.23448L8.11035 9.37829Z" fill="#FFE15A"/>
<path d="M5.09998 9.19205L5.13101 9.37829H8.11033L8.14137 9.19205H5.09998Z" fill="#FFD350"/>
<path d="M6.68296 6.89538H6.55884V7.39192H6.68296V6.89538Z" fill="#FFE15A"/>
<path d="M6.80705 7.01959H6.43463V7.14372H6.80705V7.01959Z" fill="#FFE15A"/>
<path d="M8.12016 8.88176C8.1061 8.88176 8.09185 8.87933 8.07783 8.87436C8.01338 8.85097 7.98005 8.77981 8.00344 8.71531L8.26641 7.98964C8.27944 7.95364 8.27635 7.91403 8.25797 7.88093C8.24818 7.86336 8.22539 7.83242 8.18185 7.82309C7.86127 7.75498 7.23985 7.64042 6.68072 7.64042H6.56082C6.00174 7.64042 5.38032 7.75498 5.0596 7.82323C5.01619 7.83242 4.99332 7.86336 4.98361 7.88093C4.96524 7.91403 4.96214 7.95364 4.97522 7.98964L5.23814 8.71531C5.26153 8.77981 5.22821 8.85097 5.16375 8.87436C5.09935 8.89737 5.02805 8.86428 5.00475 8.79992L4.74178 8.07425C4.70428 7.9707 4.71324 7.85637 4.76644 7.76047C4.81786 7.66775 4.9058 7.60203 5.0078 7.58033C5.33813 7.51001 5.97896 7.39203 6.56082 7.39203H6.68072C7.26258 7.39203 7.90341 7.51001 8.2336 7.58014C8.33574 7.60198 8.42368 7.66765 8.4751 7.76042C8.5283 7.85633 8.53725 7.97061 8.4998 8.0742L8.23678 8.79987C8.2186 8.8504 8.17088 8.88176 8.12016 8.88176Z" fill="#FFE15A"/>
<path d="M6.62123 8.77315C6.5527 8.77315 6.4971 8.71765 6.4971 8.64902V7.64041C6.4971 7.57179 6.5527 7.51629 6.62123 7.51629C6.68976 7.51629 6.74535 7.57179 6.74535 7.64041V8.64902C6.7454 8.7176 6.6898 8.77315 6.62123 8.77315Z" fill="#FFE15A"/>
<path d="M7.47943 8.88176C7.47104 8.88176 7.46255 8.88092 7.45407 8.87923C7.3869 8.86526 7.34377 8.79959 7.35774 8.73242L7.5083 8.00675C7.52785 7.9122 7.49724 7.82937 7.4798 7.81484C7.30768 7.7517 6.96235 7.64037 6.65508 7.64037H6.58641C6.27919 7.64037 5.93386 7.7517 5.75532 7.81807C5.7443 7.82937 5.71365 7.91215 5.73319 8.0067L5.88376 8.73237C5.89772 8.7995 5.8546 8.86526 5.78743 8.87918C5.72021 8.89217 5.65449 8.84998 5.64071 8.78281L5.49015 8.05714C5.45265 7.87625 5.51021 7.64459 5.66865 7.58548C5.90597 7.49726 6.25763 7.39212 6.58636 7.39212H6.65504C6.98382 7.39212 7.33552 7.49721 7.57266 7.58534C7.73124 7.64464 7.7888 7.87629 7.7513 8.05718L7.60074 8.78285C7.58865 8.84154 7.53699 8.88176 7.47943 8.88176Z" fill="#FFE15A"/>
<path d="M5.03793 8.81963H8.20344L8.23448 8.63345H5.0069L5.03793 8.81963Z" fill="#FFD350"/>
<path d="M4.26206 9.37827C4.19349 9.37827 4.13794 9.43387 4.13794 9.5024V13.8377C4.13794 15.2142 5.24949 16.33 6.62072 16.33C7.99195 16.33 9.1035 15.2142 9.1035 13.8377V9.5024C9.1035 9.43382 9.04795 9.37827 8.97938 9.37827H4.26206Z" fill="#FF4B55"/>
<path d="M6.86897 13.4748L7.11727 12.8542L6.62072 12.9783L6.12418 12.8542L6.37247 13.4748L5.7518 15.5852C5.7518 15.5852 6.12422 15.8335 6.62077 15.8335C7.11732 15.8335 7.48974 15.5852 7.48974 15.5852L6.86897 13.4748Z" fill="#F5F5F5"/>
<path d="M5.7216 13.9751L5.50256 14.0299L5.98438 13.1626L5.76735 13.0421L5.18212 14.0955H4.63448V14.3438H4.9012L4.55695 14.6192L4.71201 14.8132L5.00446 14.5792L4.8891 14.9251L5.12465 15.0037L5.35138 14.3235L5.78184 14.2159L5.7216 13.9751Z" fill="#FFE15A"/>
<path d="M5.75169 10.6196L5.18501 10.3363C5.08095 10.2842 5.02695 10.1669 5.05517 10.054L5.08723 9.92579C5.10945 9.83682 5.04219 9.75066 4.95045 9.75066C4.90761 9.75066 4.86711 9.77012 4.84039 9.80359C4.54634 10.1711 4.38617 10.6278 4.38617 11.0985V13.7231C4.38617 13.7231 4.90456 13.6194 5.37279 12.9383C5.45876 12.8132 5.60033 12.7392 5.75117 12.7315L5.50339 13.4748L5.99998 13.599L6.43447 13.0819L5.75169 10.6196Z" fill="#F5F5F5"/>
<path d="M7.51977 13.9751L7.73882 14.0299L7.25699 13.1626L7.47402 13.0421L8.05916 14.0955H8.60689V14.3438H8.34013L8.68443 14.6192L8.52936 14.8132L8.23691 14.5792L8.35227 14.9251L8.11668 15.0037L7.88999 14.3235L7.45954 14.2159L7.51977 13.9751Z" fill="#FFE15A"/>
<path d="M7.48962 10.6196L8.05629 10.3363C8.16035 10.2842 8.21435 10.1669 8.18613 10.054L8.15407 9.92579C8.13185 9.83682 8.19912 9.75066 8.29085 9.75066C8.3337 9.75066 8.3742 9.77012 8.40092 9.80359C8.69496 10.1711 8.85513 10.6278 8.85513 11.0985V13.7231C8.85513 13.7231 8.33674 13.6194 7.86851 12.9383C7.78254 12.8132 7.64102 12.7392 7.49013 12.7315L7.73792 13.4748L7.24137 13.5989L6.80688 13.0819L7.48962 10.6196Z" fill="#F5F5F5"/>
<path d="M5.87588 9.75066H5.25516L5.44139 9.99896L5.87588 10.1231L5.62758 10.2472H6L5.87588 9.75066Z" fill="#FFE15A"/>
<path d="M7.36531 9.7506H7.98598L7.79979 9.9989L7.36531 10.123L7.6136 10.2471H7.24118L7.36531 9.7506Z" fill="#FFE15A"/>
<path d="M7.45294 9.65335L6.86897 9.75071L6.62068 10.2473L6.37238 9.75071L5.78841 9.65335C5.72147 9.64219 5.6701 9.71171 5.70047 9.77241L6.00001 10.3714L5.75171 10.6197H6.62068H7.48965L7.24135 10.3714L7.54083 9.77241C7.57121 9.71166 7.51988 9.64215 7.45294 9.65335Z" fill="#F5F5F5"/>
<path d="M6.62064 8.87401C6.72346 8.87401 6.80682 8.79065 6.80682 8.68782C6.80682 8.58499 6.72346 8.50163 6.62064 8.50163C6.51781 8.50163 6.43445 8.58499 6.43445 8.68782C6.43445 8.79065 6.51781 8.87401 6.62064 8.87401Z" fill="#FFBE50"/>
<path d="M6.61827 9.23563C6.69953 9.23563 6.76541 9.18931 6.76541 9.13218C6.76541 9.07504 6.69953 9.02872 6.61827 9.02872C6.53701 9.02872 6.47113 9.07504 6.47113 9.13218C6.47113 9.18931 6.53701 9.23563 6.61827 9.23563Z" fill="#41479B"/>
<path d="M5.88374 9.23563C5.96501 9.23563 6.03088 9.18931 6.03088 9.13218C6.03088 9.07504 5.96501 9.02872 5.88374 9.02872C5.80248 9.02872 5.7366 9.07504 5.7366 9.13218C5.7366 9.18931 5.80248 9.23563 5.88374 9.23563Z" fill="#FF4B55"/>
<path d="M5.14922 9.23563C5.23048 9.23563 5.29636 9.18931 5.29636 9.13218C5.29636 9.07504 5.23048 9.02872 5.14922 9.02872C5.06795 9.02872 5.00208 9.07504 5.00208 9.13218C5.00208 9.18931 5.06795 9.23563 5.14922 9.23563Z" fill="#41479B"/>
<path d="M8.08699 9.2358C8.16825 9.2358 8.23413 9.18948 8.23413 9.13235C8.23413 9.07521 8.16825 9.02889 8.08699 9.02889C8.00573 9.02889 7.93985 9.07521 7.93985 9.13235C7.93985 9.18948 8.00573 9.2358 8.08699 9.2358Z" fill="#41479B"/>
<path d="M7.35234 9.23563C7.4336 9.23563 7.49948 9.18931 7.49948 9.13218C7.49948 9.07504 7.4336 9.02872 7.35234 9.02872C7.27108 9.02872 7.2052 9.07504 7.2052 9.13218C7.2052 9.18931 7.27108 9.23563 7.35234 9.23563Z" fill="#FF4B55"/>
<path d="M7.48376 8.87394C7.58659 8.87394 7.66995 8.79058 7.66995 8.68775C7.66995 8.58492 7.58659 8.50156 7.48376 8.50156C7.38094 8.50156 7.29758 8.58492 7.29758 8.68775C7.29758 8.79058 7.38094 8.87394 7.48376 8.87394Z" fill="#FFBE50"/>
<path d="M8.1644 8.87394C8.26723 8.87394 8.35059 8.79058 8.35059 8.68775C8.35059 8.58492 8.26723 8.50156 8.1644 8.50156C8.06157 8.50156 7.97821 8.58492 7.97821 8.68775C7.97821 8.79058 8.06157 8.87394 8.1644 8.87394Z" fill="#FFBE50"/>
<path d="M5.75925 8.87394C5.86208 8.87394 5.94543 8.79058 5.94543 8.68775C5.94543 8.58492 5.86208 8.50156 5.75925 8.50156C5.65642 8.50156 5.57306 8.58492 5.57306 8.68775C5.57306 8.79058 5.65642 8.87394 5.75925 8.87394Z" fill="#FFBE50"/>
<path d="M5.07797 8.87401C5.1808 8.87401 5.26416 8.79065 5.26416 8.68782C5.26416 8.58499 5.1808 8.50163 5.07797 8.50163C4.97514 8.50163 4.89178 8.58499 4.89178 8.68782C4.89178 8.79065 4.97514 8.87401 5.07797 8.87401Z" fill="#FFBE50"/>
<path d="M6.83452 7.64034C6.85584 7.60373 6.86897 7.56168 6.86897 7.51621C6.86897 7.3791 6.75783 7.26791 6.62067 7.26791C6.48352 7.26791 6.37238 7.37905 6.37238 7.51621C6.37238 7.56168 6.38545 7.60373 6.40683 7.64034H6.83452Z" fill="#41479B"/>
<path d="M6.62067 13.1645C6.10725 13.1645 5.68964 12.7469 5.68964 12.2334V10.5576H7.5517V12.2334C7.5517 12.7469 7.13409 13.1645 6.62067 13.1645Z" fill="#FF4B55"/>
<path d="M7.48964 10.6196V12.2334C7.48964 12.7133 7.10058 13.1024 6.62067 13.1024C6.14077 13.1024 5.7517 12.7133 5.7517 12.2334V10.6196H7.48964V10.6196ZM7.61381 10.4955H7.48969H5.75175H5.62762V10.6196V12.2334C5.62762 12.781 6.07312 13.2265 6.62072 13.2265C7.16831 13.2265 7.61381 12.781 7.61381 12.2334V10.6196V10.4955V10.4955Z" fill="#A54B50"/>
<path d="M6.43459 13.0821C6.49463 13.0952 6.55679 13.1025 6.62077 13.1025C6.68476 13.1025 6.74691 13.0951 6.80696 13.0821V10.6198H6.43454C6.43459 10.6198 6.43459 13.0821 6.43459 13.0821Z" fill="#F5F5F5"/>
<path d="M7.4898 11.6439H5.75168V12.0164H7.4898V11.6439Z" fill="#F5F5F5"/>
</svg>
