<svg xmlns="http://www.w3.org/2000/svg" width="24" height="24" viewBox="0 0 24 24" fill="none"><rect width="24" height="24" fill="none"/>
<path d="M22.2026 19.8621H1.79742C0.804703 19.8621 0 19.0574 0 18.0646V5.93536C0 4.94269 0.804703 4.13794 1.79742 4.13794H22.2026C23.1952 4.13794 24 4.94264 24 5.93536V18.0647C24 19.0574 23.1953 19.8621 22.2026 19.8621Z" fill="#73AF00"/>
<path d="M10.3448 17.3794C13.3158 17.3794 15.7242 14.9709 15.7242 12C15.7242 9.02903 13.3158 6.62061 10.3448 6.62061C7.3739 6.62061 4.96547 9.02903 4.96547 12C4.96547 14.9709 7.3739 17.3794 10.3448 17.3794Z" fill="#FF4B55"/>
</svg>
