<svg xmlns="http://www.w3.org/2000/svg" width="24" height="24" viewBox="0 0 24 24" fill="none"><rect width="24" height="24" fill="none"/>
<path d="M0 18.0646C0 19.0573 0.804703 19.862 1.79742 19.862H22.2026C23.1947 19.862 23.9991 19.0582 24 18.0664V15.931H0V18.0646Z" fill="#FFE15A"/>
<path d="M24 11.9998H0V15.9308H24V11.9998Z" fill="#73AF00"/>
<path d="M24 8.0689H0V11.9998H24V8.0689Z" fill="#F5F5F5"/>
<path d="M22.2026 4.13782H1.79742C0.804703 4.13782 0 4.94252 0 5.93524V8.06885H24V5.93346C23.9991 4.94163 23.1947 4.13782 22.2026 4.13782Z" fill="#41479B"/>
<path d="M13.9655 4.13796H10.0345V19.8622H13.9655V4.13796Z" fill="#FF4B55"/>
<path d="M3.58589 4.66737L3.93117 5.7027L5.02252 5.71118C5.10708 5.71184 5.1421 5.81975 5.07408 5.87L4.19611 6.51828L4.52527 7.55881C4.55077 7.63939 4.45899 7.70614 4.39022 7.65692L3.50236 7.02232L2.6145 7.65692C2.54569 7.70609 2.45395 7.63939 2.47945 7.55881L2.80861 6.51828L1.93078 5.86995C1.86277 5.81975 1.89783 5.71184 1.98235 5.71114L3.07369 5.70265L3.41897 4.66732C3.44564 4.58717 3.55913 4.58717 3.58589 4.66737Z" fill="#FFE15A"/>
</svg>
