<svg xmlns="http://www.w3.org/2000/svg" width="24" height="24" viewBox="0 0 24 24" fill="none"><rect width="24" height="24" fill="none"/>
<path d="M22.2026 4.13794H1.79742C0.804703 4.13794 0 4.94264 0 5.93536V9.37931H24V5.93536C24 4.94264 23.1953 4.13794 22.2026 4.13794Z" fill="#FF4B55"/>
<path d="M0 18.0646C0 19.0573 0.804703 19.8621 1.79742 19.8621H22.2026C23.1952 19.8621 24 19.0574 24 18.0646V14.6207H0V18.0646Z" fill="#41479B"/>
<path d="M24 9.37923H0V14.6203H24V9.37923Z" fill="#F5F5F5"/>
<path d="M12 9.93104C10.8574 9.93104 9.93103 10.8573 9.93103 12C9.93103 13.1427 10.8574 14.069 12 14.069C13.1426 14.069 14.069 13.1427 14.069 12C14.069 10.8573 13.1426 9.93104 12 9.93104ZM12 13.5604C11.1382 13.5604 10.4396 12.8618 10.4396 12C10.4396 11.1383 11.1382 10.4396 12 10.4396C12.8618 10.4396 13.5604 11.1382 13.5604 12C13.5604 12.8617 12.8618 13.5604 12 13.5604Z" fill="#FF4B55"/>
<path d="M12 12.7177C12.3964 12.7177 12.7177 12.3964 12.7177 12C12.7177 11.6037 12.3964 11.2823 12 11.2823C11.6037 11.2823 11.2823 11.6037 11.2823 12C11.2823 12.3964 11.6037 12.7177 12 12.7177Z" fill="#41479B"/>
<path d="M12.0468 11.4564L12.1624 11.8033L12.528 11.8061C12.5753 11.8065 12.595 11.8669 12.5569 11.8951L12.2628 12.1122L12.3731 12.4608C12.3874 12.5059 12.336 12.5432 12.2975 12.5157L12 12.3031L11.7025 12.5157C11.664 12.5432 11.6126 12.5059 11.6269 12.4608L11.7372 12.1122L11.4431 11.8951C11.4051 11.8669 11.4247 11.8065 11.472 11.8061L11.8376 11.8033L11.9532 11.4564C11.9682 11.4115 12.0318 11.4115 12.0468 11.4564Z" fill="#FFE15A"/>
<path d="M13.3575 12.0167C13.3575 12.0167 13.3985 11.827 13.1967 12.0546C13.1967 12.0546 13.1997 11.9898 13.194 11.9364C13.2383 11.8884 13.2934 11.7833 13.2804 11.559C13.2804 11.559 13.2488 11.3676 13.1449 11.6534C13.1449 11.6534 13.1166 11.5691 13.0864 11.5224C13.1115 11.4705 13.1308 11.3759 13.0708 11.1968C13.0708 11.1968 13.0006 11.0436 12.9788 11.3068C12.9788 11.3068 12.9211 11.2207 12.8837 11.1995C12.891 11.157 12.8853 11.0841 12.8005 10.966C12.8005 10.966 12.716 10.8713 12.7587 11.0656C12.7587 11.0656 12.6813 11.003 12.6565 11.0103C12.6437 10.9732 12.6065 10.9104 12.4817 10.8278C12.4817 10.8278 12.3736 10.7686 12.4976 10.9232C12.4976 10.9232 12.388 10.8797 12.3893 10.9046C12.3906 10.9296 12.4436 10.9756 12.4871 10.9961C12.4871 10.9961 12.3263 11.0128 12.3923 11.0486C12.3923 11.0486 12.5555 11.1049 12.6536 11.0507C12.6615 11.0793 12.6774 11.1113 12.7012 11.1343C12.7012 11.1343 12.5097 11.0972 12.5616 11.1546C12.5616 11.1546 12.7051 11.2601 12.847 11.244C12.8464 11.2831 12.8582 11.3335 12.879 11.3714C12.879 11.3714 12.6507 11.2493 12.6939 11.3425C12.6939 11.3425 12.8304 11.5251 13.012 11.5647C13.0046 11.6053 13.0047 11.6543 13.0146 11.695C13.0146 11.695 12.7979 11.4904 12.8177 11.607C12.8177 11.607 12.9083 11.8471 13.0919 11.9491C13.0769 11.9795 13.0647 12.0136 13.0602 12.0454C13.0602 12.0454 12.934 11.7754 12.9096 11.8911C12.9096 11.8911 12.9054 12.1608 13.0494 12.3221C13.0187 12.3476 12.9887 12.3833 12.9703 12.4183C12.9703 12.4183 12.9427 12.1216 12.8806 12.2223C12.8806 12.2223 12.7949 12.4471 12.8529 12.6408C12.8145 12.6522 12.7727 12.6731 12.7418 12.6982C12.7418 12.6982 12.8333 12.4146 12.7366 12.4826C12.7366 12.4826 12.5644 12.669 12.5512 12.8786C12.5056 12.8776 12.4437 12.8941 12.3989 12.9209C12.3989 12.9209 12.5299 12.6533 12.4245 12.7068C12.4245 12.7068 12.2366 12.8603 12.1881 13.0594C12.1436 13.0848 12.0682 13.1279 11.9927 13.1706C11.9489 13.1452 11.9063 13.1204 11.8698 13.0991L11.8711 13.0972L11.444 12.7391L11.4525 12.8562L11.238 12.4727L11.2115 12.6032L11.1413 12.1792L11.079 12.2418L11.1031 11.8463L11.0219 11.89L11.1694 11.5958L11.1001 11.6154L11.2823 11.4407L11.1859 11.4489L11.4163 11.3444L11.3321 11.3314L11.557 11.2176L11.4601 11.2129L11.7516 11.112L11.6982 11.0653L11.9506 10.9909L11.6482 10.9678L11.7343 10.8618L11.5036 10.9799L11.5367 10.8203L11.3349 11.0281L11.37 10.8826L11.1811 11.0705L11.1933 10.9287L11.0066 11.2449L10.9825 11.1034L10.8274 11.4584L10.7847 11.3037L10.7154 11.744L10.6576 11.6785L10.7336 12.1032L10.6372 12.0309L10.8139 12.4124C10.8139 12.4124 10.6854 12.3562 10.6693 12.3562C10.6532 12.3562 10.9765 12.6845 10.9765 12.6845L10.8078 12.6665L11.1337 12.8956L11.0126 12.9255L11.2837 13.0309L11.2174 13.0821L11.7786 13.1222C11.7786 13.1222 11.8327 13.1672 11.9063 13.2194C11.8674 13.2413 11.8333 13.2604 11.8121 13.272C11.7908 13.2836 11.7658 13.2848 11.7433 13.2754C11.69 13.2531 11.613 13.2216 11.5758 13.2067C11.5758 13.2067 11.5794 13.3662 11.7455 13.3702C11.8137 13.3718 11.9067 13.3283 11.9932 13.277C12.0817 13.3322 12.1794 13.3809 12.25 13.3793C12.4125 13.3753 12.4161 13.2158 12.4161 13.2158C12.3797 13.2307 12.3042 13.2622 12.2521 13.2845C12.2302 13.2939 12.2057 13.2927 12.1848 13.2811C12.1618 13.2682 12.1239 13.2466 12.0805 13.2215C12.1249 13.1915 12.1621 13.1642 12.1882 13.1441C12.229 13.1762 12.346 13.2326 12.6075 13.1345C12.6075 13.1345 12.7809 13.0474 12.4771 13.0331C12.4771 13.0331 12.5335 12.9917 12.5716 12.9524C12.6214 12.9781 12.7446 13.0084 12.9787 12.8799C12.9787 12.8799 13.1379 12.7689 12.8352 12.7981C12.8352 12.7981 12.8756 12.7587 12.9074 12.7186C12.9596 12.7245 13.0886 12.7106 13.2596 12.4918C13.2596 12.4918 13.3622 12.3271 13.0955 12.4732C13.0955 12.4732 13.13 12.391 13.1381 12.336C13.1971 12.3075 13.287 12.23 13.3575 12.0167Z" fill="#64C86E"/>
</svg>
