<svg xmlns="http://www.w3.org/2000/svg" width="24" height="24" viewBox="0 0 24 24" fill="none"><rect width="24" height="24" fill="none"/>
<path d="M14.8965 4.55174V5.26109H23.8687C23.6019 4.60264 22.9567 4.13797 22.2026 4.13797H14.4827C14.7113 4.13797 14.8965 4.32322 14.8965 4.55174Z" fill="#FF4B55"/>
<path d="M14.8965 5.26111V6.38424H24V5.93531C24 5.69677 23.9531 5.46933 23.8688 5.26102H14.8965V5.26111Z" fill="#F5F5F5"/>
<path d="M24 6.38443H14.8964V7.50755H24V6.38443Z" fill="#FF4B55"/>
<path d="M24 7.50702H14.8964V8.63014H24V7.50702Z" fill="#F5F5F5"/>
<path d="M24 8.63065H14.8964V9.75377H24V8.63065Z" fill="#FF4B55"/>
<path d="M24 9.75381H14.8964V10.8769H24V9.75381Z" fill="#F5F5F5"/>
<path d="M24 10.8769H14.8964V12H24V10.8769Z" fill="#FF4B55"/>
<path d="M14.8965 12.7094C14.8965 12.9379 14.7112 13.1232 14.4827 13.1232H24V12H14.8965V12.7094Z" fill="#F5F5F5"/>
<path d="M0.413906 13.1232H0.413812C0.185297 13.1232 0 12.9379 0 12.7094V13.1232V14.2463H24V13.1232H14.4828H0.413906Z" fill="#FF4B55"/>
<path d="M24 14.2463H0V15.3694H24V14.2463Z" fill="#F5F5F5"/>
<path d="M24 15.3694H0V16.4925H24V15.3694Z" fill="#FF4B55"/>
<path d="M24 16.493H0V17.6161H24V16.493Z" fill="#F5F5F5"/>
<path d="M0 18.0647C0 18.3032 0.046875 18.5307 0.131203 18.739H23.8687C23.9531 18.5307 23.9999 18.3033 23.9999 18.0647V17.6158H0V18.0647Z" fill="#FF4B55"/>
<path d="M1.79742 19.8621H22.2026C22.9567 19.8621 23.602 19.3974 23.8687 18.739H0.131203C0.398015 19.3975 1.0433 19.8621 1.79742 19.8621Z" fill="#F5F5F5"/>
<path d="M0.413812 13.1232H0.413906H14.4828C14.7113 13.1232 14.8966 12.9379 14.8966 12.7094V12V10.8769V9.75375V8.63063V7.5075V6.38438V5.26125V4.55175C14.8966 4.32324 14.7113 4.13794 14.4828 4.13794H1.79742C0.804703 4.13799 0 4.94269 0 5.93541V6.38433V7.50745V8.63058V9.7537V10.8768V12V12.4138V12.7094C0 12.938 0.185297 13.1232 0.413812 13.1232Z" fill="#41479B"/>
<path d="M3.93102 8.62607C3.93102 7.06105 5.20134 5.79154 6.7649 5.79154C7.15832 5.79154 7.53238 5.87207 7.87307 6.01719C7.91727 6.03604 7.9506 5.97449 7.9109 5.9474C7.34723 5.56368 6.65788 5.35344 5.91848 5.39188C4.2929 5.47635 2.96367 6.78576 2.85857 8.41016C2.73637 10.2996 4.23149 11.8648 6.09102 11.8648C6.76302 11.8648 7.38768 11.6578 7.90645 11.3067C7.94638 11.2797 7.91329 11.218 7.86885 11.2368C7.52934 11.3808 7.15673 11.4607 6.76495 11.4607C5.20134 11.4606 3.93102 10.1911 3.93102 8.62607Z" fill="#FFE15A"/>
<path d="M10.4091 8.62601L11.6071 8.16247C11.6663 8.13954 11.6462 8.05109 11.5829 8.05615L10.3028 8.15867L11.1825 7.21836C11.2259 7.172 11.1693 7.10117 11.1145 7.13314L10.0027 7.7817L10.3864 6.5547C10.4054 6.49414 10.3237 6.45481 10.2882 6.5074L9.56851 7.57358L9.38387 6.30101C9.37477 6.23815 9.28402 6.23811 9.27483 6.30097L9.1569 7.10619L9.10796 7.44697L9.08912 7.57362L8.3694 6.50829C8.33387 6.4557 8.25212 6.49508 8.27119 6.55569L8.65632 7.78165L7.54463 7.13309C7.48979 7.10112 7.43326 7.17195 7.47666 7.21831L8.35627 8.15862L7.07588 8.05615C7.01255 8.05109 6.99235 8.13954 7.0516 8.16247L8.25071 8.62601L7.05155 9.08965C6.99226 9.11257 7.01251 9.20103 7.07584 9.19597L8.35627 9.09345L7.47662 10.0362C7.43326 10.0826 7.48993 10.1533 7.54473 10.1213L8.65637 9.47042L8.27124 10.6964C8.25221 10.7569 8.33387 10.7964 8.36944 10.7437L9.08916 9.67845L9.10801 9.80811L9.15694 10.1459L9.27493 10.9533C9.28412 11.0162 9.37487 11.0161 9.38396 10.9532L9.5686 9.67854L10.2883 10.7447C10.3238 10.7973 10.4055 10.7581 10.3865 10.6974L10.0028 9.47047L11.1144 10.1213C11.1692 10.1534 11.2259 10.0827 11.1826 10.0362L10.3028 9.09354L11.583 9.19606C11.6463 9.20112 11.6665 9.11267 11.6072 9.08975L10.4091 8.62601Z" fill="#FFE15A"/>
</svg>
