<svg xmlns="http://www.w3.org/2000/svg" width="24" height="24" viewBox="0 0 24 24" fill="none"><rect width="24" height="24" fill="none"/>
<path d="M22.2026 19.8621H1.79742C0.804703 19.8621 0 19.0574 0 18.0646V5.93536C0 4.94269 0.804703 4.13794 1.79742 4.13794H22.2026C23.1952 4.13794 24 4.94264 24 5.93536V18.0647C24 19.0574 23.1953 19.8621 22.2026 19.8621Z" fill="#FF4B55"/>
<path d="M16.5258 13.959C16.2995 13.8168 16.1638 14.0431 16.1638 14.0431L15.5043 14.1207L15.834 13.8426C16.0732 13.8621 16.1056 13.7909 16.1702 13.694C16.2348 13.597 16.5064 13.6423 16.5064 13.6423C16.4676 13.3448 16.0926 13.5129 16.0926 13.5129C15.7887 13.4806 15.737 13.7263 15.737 13.7263L15.265 14.0884L14.2263 13.7806C14.334 13.6619 14.4186 13.5449 14.4309 13.4741C14.4516 13.3552 13.6637 13.1551 13.4223 12.9051C13.181 12.6551 13.0948 12.2586 13.2068 12.1551C13.3189 12.0517 13.4138 12.3448 13.5344 12.5862C13.6551 12.8276 13.8793 13.0172 14.0258 12.8965C14.1723 12.7759 13.8706 12.5948 13.7327 12.3362C13.5948 12.0776 13.8361 11.9827 13.9482 12.0086C14.0603 12.0344 14.1293 12.569 14.3965 12.8448C14.6637 13.1206 14.9051 13.0689 14.931 12.8965C14.9569 12.7241 14.49 12.5116 14.3951 12.3651C14.3003 12.2185 14.2758 11.9309 14.431 11.9224C14.5861 11.9137 15.1551 12.7617 15.6379 13.0862C16.1638 13.4396 16.5862 13.0258 16.5173 12.8534C16.4483 12.6809 16.1293 12.7499 15.7586 12.6551C15.3879 12.5602 15.0086 12.0602 14.8966 11.7844C14.7845 11.5086 14.8771 11.5086 14.9418 11.5344C15.0065 11.5603 15.2522 11.9224 15.7242 12.2004C16.1962 12.4784 16.5259 12.2133 16.5647 12.1487C16.6035 12.084 16.7526 11.7938 16.2673 11.862C15.7156 11.9396 15.4009 11.6121 15.1746 11.4375C14.9483 11.2629 14.8578 11.0237 14.9612 10.9267C15.0647 10.8297 15.4052 11.2672 15.9225 11.4051C16.3976 11.5318 16.5906 11.3276 16.5776 11.1401C16.5646 10.9526 16.4547 11.0301 15.9181 10.9784C15.3815 10.9267 15.0065 10.4224 14.9871 10.3901C14.9677 10.3577 14.9741 10.1767 15.2457 10.3513C15.5172 10.5258 16.0021 10.6293 16.2866 10.6163C16.5711 10.6034 16.6293 10.2219 16.4935 10.1573C16.3577 10.0926 16.3254 10.1896 16.0151 10.2543C15.7047 10.3189 15.1229 10.0021 14.9806 9.85339C14.8384 9.70471 14.9935 9.60772 15.0646 9.62061C15.1358 9.6335 15.6013 9.9051 16.0151 9.89216C16.4289 9.87922 16.6035 9.49775 16.5905 9.38136C16.5776 9.26497 16.4612 9.16799 16.2866 9.28438C16.1121 9.40077 15.8793 9.53652 15.4913 9.47188C15.1034 9.40724 14.9224 9.14858 14.9741 9.0516C15.0258 8.95461 15.4008 9.12271 15.9957 9.05807C16.5905 8.99343 16.6163 8.46969 16.5582 8.36624C16.5 8.26279 16.3577 8.29513 16.1573 8.48263C15.9569 8.67013 15.5689 8.70894 15.2651 8.70894C14.9612 8.70894 14.9547 8.56025 15 8.4568C15.0453 8.35335 15.3685 8.37922 15.8211 8.23696C16.2737 8.09474 16.5323 7.73263 16.6035 7.50636C16.6746 7.28005 16.5 7.10549 16.4289 7.10549C16.3578 7.10549 16.403 7.00204 16.0927 7.44814C15.7824 7.89425 14.9677 8.06882 14.9677 8.06882C14.9095 7.95889 14.819 7.92013 14.819 7.92013C14.2695 8.03005 13.6066 8.50457 13.6066 8.50457C13.6066 8.50457 13.7234 8.87938 13.5774 9.1715C13.3894 9.54754 12.7449 9.31265 12.9202 8.71879C13.0661 8.22425 13.6309 7.92529 14.1081 7.87171C14.5852 7.81818 14.6095 7.63804 14.6095 7.63804C14.6095 7.63804 14.1085 7.80116 14.0995 7.57724C14.203 7.59824 14.3555 7.60738 14.6144 7.58446C14.999 7.55043 15.2132 7.27775 15.0428 7.21935C14.8724 7.16094 14.9454 7.33621 14.6533 7.47252C14.445 7.56974 14.2263 7.52596 14.1168 7.49272C14.2179 7.27194 14.6436 7.38486 14.6436 7.38486C14.6485 7.00025 14.1382 7.13783 14.1382 7.13783C13.9141 6.65502 12.6037 7.21541 12.6037 7.21541L12.914 7.46539C12.1553 7.88779 12.0001 8.68949 12.0001 8.68949C12.0001 8.68949 11.845 7.88779 11.0863 7.46535L11.3967 7.21536C11.3967 7.21536 10.0863 6.65497 9.86218 7.13779C9.86218 7.13779 9.3518 7.00025 9.35672 7.38482C9.35672 7.38482 9.78235 7.27189 9.88351 7.49268C9.77405 7.52596 9.55538 7.56969 9.34702 7.47247C9.05494 7.33611 9.12797 7.16094 8.95754 7.2193C8.78715 7.27771 9.00136 7.55033 9.38597 7.58441C9.64486 7.60733 9.79735 7.59824 9.9008 7.57719C9.89185 7.80111 9.39085 7.63799 9.39085 7.63799C9.39085 7.63799 9.41522 7.81808 9.89227 7.87166C10.3694 7.92524 10.9342 8.22421 11.0801 8.71874C11.2553 9.31264 10.611 9.54744 10.4229 9.17146C10.2769 8.87938 10.3938 8.50452 10.3938 8.50452C10.3938 8.50452 9.73088 8.03 9.18132 7.92008C9.18132 7.92008 9.0908 7.9589 9.03263 8.06877C9.03263 8.06877 8.21799 7.89421 7.90763 7.4481C7.59727 7.00199 7.64255 7.10544 7.57144 7.10544C7.50033 7.10544 7.32577 7.28 7.39688 7.50632C7.46799 7.73263 7.7266 8.09469 8.17922 8.23691C8.6318 8.37913 8.9551 8.3533 9.00033 8.45675C9.04557 8.56021 9.03915 8.70889 8.73526 8.70889C8.43137 8.70889 8.04343 8.67008 7.84304 8.48258C7.64265 8.29508 7.50038 8.26274 7.44216 8.36619C7.38399 8.46965 7.40982 8.99333 8.00466 9.05802C8.59951 9.12266 8.97451 8.95457 9.02621 9.05155C9.07791 9.14854 8.89688 9.40714 8.50899 9.47183C8.12105 9.53647 7.88832 9.40072 7.71371 9.28433C7.5391 9.16794 7.42276 9.26493 7.40982 9.38132C7.39688 9.49771 7.57144 9.87918 7.98526 9.89211C8.39907 9.90505 8.86458 9.6335 8.93569 9.62057C9.0068 9.60763 9.16201 9.70461 9.01974 9.85335C8.87752 10.002 8.29562 10.3189 7.98526 10.2542C7.6749 10.1896 7.6426 10.0926 7.5068 10.1572C7.37101 10.2219 7.42922 10.6033 7.71371 10.6163C7.99819 10.6292 8.48312 10.5258 8.75466 10.3512C9.02621 10.1766 9.03268 10.3577 9.01327 10.39C8.99387 10.4224 8.61887 10.9266 8.08224 10.9784C7.54562 11.0301 7.43569 10.9525 7.42276 11.14C7.40982 11.3275 7.6028 11.5318 8.07793 11.4051C8.59515 11.2671 8.93574 10.8297 9.03915 10.9266C9.14255 11.0236 9.05208 11.2628 8.82577 11.4374C8.59946 11.6121 8.28479 11.9396 7.73312 11.862C7.24777 11.7938 7.39693 12.084 7.43569 12.1486C7.47451 12.2133 7.80422 12.4783 8.27621 12.2003C8.74819 11.9223 8.99386 11.5603 9.05855 11.5344C9.12319 11.5085 9.21591 11.5085 9.10383 11.7844C8.99176 12.0602 8.61244 12.5602 8.24176 12.655C7.87107 12.7499 7.55208 12.6809 7.48313 12.8533C7.41418 13.0258 7.83657 13.4395 8.36246 13.0861C8.84527 12.7617 9.41424 11.9137 9.5694 11.9223C9.72455 11.9309 9.70008 12.2185 9.6053 12.365C9.51047 12.5116 9.04351 12.724 9.06938 12.8964C9.09526 13.0688 9.33657 13.1205 9.60385 12.8447C9.87113 12.5689 9.94004 12.0343 10.0522 12.0085C10.1642 11.9826 10.4056 12.0775 10.2676 12.3361C10.1297 12.5947 9.82801 12.7758 9.97458 12.8965C10.1211 13.0171 10.3453 12.8275 10.466 12.5861C10.5866 12.3447 10.6815 12.0516 10.7935 12.1551C10.9056 12.2586 10.8194 12.6551 10.578 12.9051C10.3366 13.1551 9.54868 13.3551 9.5694 13.4741C9.58172 13.5449 9.66629 13.6618 9.77405 13.7805L8.73535 14.0883L8.26337 13.7263C8.26337 13.7263 8.21166 13.4806 7.90777 13.5129C7.90777 13.5129 7.53277 13.3448 7.49396 13.6422C7.49396 13.6422 7.76551 13.5969 7.83015 13.6939C7.89479 13.7909 7.92713 13.862 8.16633 13.8426L8.49605 14.1206L7.83657 14.043C7.83657 14.043 7.70077 13.8167 7.47451 13.959C7.47451 13.959 7.19002 13.8685 7.11891 14.14C7.11891 14.14 7.36458 14.0947 7.42927 14.1271C7.42927 14.1271 7.52626 14.3469 7.83662 14.2176L8.48963 14.2499L8.1211 14.431C8.1211 14.431 7.65558 14.2823 7.67499 14.6702C7.67499 14.6702 7.53919 14.8253 7.66205 14.9805C7.66205 14.9805 7.68793 14.8124 7.81074 14.7413C7.81074 14.7413 8.04994 14.8383 8.20515 14.5538L8.67713 14.2693L9.14265 14.4957C9.14265 14.4957 9.12971 14.7478 9.47236 14.6443C9.47236 14.6443 9.58876 14.7219 9.62105 14.8254C9.62105 14.8254 9.76974 14.6638 9.53054 14.4763C9.53054 14.4763 9.47236 14.2564 9.18788 14.3405L8.9228 14.2047L9.90366 13.9136C10.0735 14.0754 10.2567 14.2079 10.3208 14.1857C10.4474 14.1419 10.5448 14.0105 10.6324 13.8254C10.72 13.6404 11.1143 12.9979 11.3091 13.0028C11.5038 13.0077 11.5914 13.1634 11.5427 13.4409C11.4941 13.7184 11.1146 14.2499 10.8689 14.3599C10.6232 14.4698 10.5844 14.5215 10.3581 14.5021C10.1318 14.4827 10.0542 14.5797 10.1059 14.709C10.1576 14.8383 10.4122 14.9205 10.662 14.8254C10.9335 14.7219 11.037 14.5797 11.1404 14.6638C11.2439 14.7478 11.0305 15.0517 10.7395 15.1422C10.4486 15.2327 10.2287 15.1746 10.274 15.3556C10.3193 15.5366 10.6296 15.5496 10.8301 15.4332C11.0305 15.3168 11.2568 14.9935 11.315 15.097C11.3731 15.2004 11.3344 15.4655 11.1404 15.6078C10.9464 15.75 10.7258 15.6663 10.6814 15.7953C10.6167 15.9828 10.843 16.1056 11.0176 16.0345C11.1921 15.9633 11.3926 15.7435 11.4831 15.5496C11.5736 15.3556 11.7417 15.5237 11.69 15.7047C11.6383 15.8857 11.6813 16.0344 11.3107 16.3189L12.0003 17.3793L12.69 16.3189C12.3193 16.0344 12.3624 15.8857 12.3106 15.7047C12.2589 15.5237 12.427 15.3556 12.5176 15.5496C12.6081 15.7435 12.8085 15.9634 12.9831 16.0345C13.1576 16.1056 13.3839 15.9828 13.3193 15.7953C13.2748 15.6663 13.0542 15.75 12.8602 15.6078C12.6662 15.4656 12.6274 15.2004 12.6856 15.097C12.7438 14.9935 12.9701 15.3168 13.1706 15.4332C13.371 15.5496 13.6814 15.5366 13.7266 15.3556C13.7718 15.1746 13.552 15.2327 13.2611 15.1422C12.9701 15.0517 12.7568 14.7478 12.8602 14.6638C12.9637 14.5797 13.0671 14.7219 13.3387 14.8254C13.5885 14.9205 13.843 14.8383 13.8947 14.709C13.9464 14.5797 13.8688 14.4827 13.6426 14.5021C13.4162 14.5215 13.3775 14.4697 13.1318 14.3599C12.8861 14.2499 12.5066 13.7184 12.4579 13.4409C12.4092 13.1634 12.4968 13.0076 12.6916 13.0028C12.8863 12.9979 13.2806 13.6404 13.3682 13.8254C13.4558 14.0105 13.5532 14.1419 13.6798 14.1857C13.7439 14.2079 13.9272 14.0753 14.097 13.9136L15.0778 14.2047L14.8127 14.3405C14.5283 14.2564 14.4701 14.4763 14.4701 14.4763C14.2309 14.6638 14.3796 14.8254 14.3796 14.8254C14.4119 14.7219 14.5283 14.6443 14.5283 14.6443C14.8709 14.7478 14.858 14.4957 14.858 14.4957L15.3235 14.2693L15.7955 14.5538C15.9506 14.8383 16.1899 14.7413 16.1899 14.7413C16.3127 14.8124 16.3386 14.9805 16.3386 14.9805C16.4614 14.8254 16.3256 14.6702 16.3256 14.6702C16.345 14.2822 15.8795 14.431 15.8795 14.431L15.511 14.2499L16.164 14.2176C16.4744 14.3469 16.5713 14.1271 16.5713 14.1271C16.636 14.0947 16.8817 14.14 16.8817 14.14C16.8103 13.8685 16.5258 13.959 16.5258 13.959Z" fill="#464655"/>
</svg>
