<svg xmlns="http://www.w3.org/2000/svg" width="24" height="24" viewBox="0 0 24 24" fill="none"><rect width="24" height="24" fill="none"/>
<path d="M22.2026 19.8625H1.79742C0.804703 19.8625 0 19.0578 0 18.0651V5.93585C0 4.94318 0.804703 4.13843 1.79742 4.13843H22.2026C23.1952 4.13843 24 4.94313 24 5.93585V18.0651C24 19.0578 23.1953 19.8625 22.2026 19.8625Z" fill="#FFE15A"/>
<path d="M0.413813 11.9995H11.5862C11.8148 11.9995 12 11.8142 12 11.5857V4.55126C12 4.32279 11.8149 4.13754 11.5864 4.13745H1.79742C0.804703 4.1375 0 4.9422 0 5.93492V11.5858C0 11.8143 0.185297 11.9995 0.413813 11.9995Z" fill="#41479B"/>
<path d="M0.413813 12.0004H1.13259L4.96556 9.48916V12.0004H7.03453V9.48916L10.8675 12.0004H11.5862C11.8148 12.0004 12 11.8151 12 11.5866V11.2584L8.71158 9.1039H12V7.03497H8.71148L12 4.88046V4.55224C12 4.32372 11.8148 4.13852 11.5863 4.13843H10.8674L7.03448 6.64971V4.13843H4.96552V6.64971L1.25831 4.22083C0.825469 4.35677 0.463594 4.65222 0.240609 5.03805L3.28856 7.03497H0V9.10394H3.28852L0 11.2585V11.5867C0 11.8152 0.185297 12.0004 0.413813 12.0004Z" fill="#F5F5F5"/>
<path d="M12 7.44879H6.62067V4.13843H5.37933V7.44879H0V8.69013H5.37933V12.0004H6.62067V8.69013H12V7.44879Z" fill="#FF4B55"/>
<path d="M0.385651 4.82313L3.79168 7.03408H4.55171L0.684713 4.52393C0.573666 4.61158 0.473307 4.71204 0.385651 4.82313Z" fill="#FF4B55"/>
<path d="M7.79452 7.03406L11.937 4.34503C11.865 4.2232 11.738 4.13751 11.5862 4.13751H11.4967L7.03448 7.03406H7.79452Z" fill="#FF4B55"/>
<path d="M4.19409 9.10301L0.0594788 11.7869C0.130776 11.9117 0.259776 11.9995 0.413807 11.9995H0.491854L4.95417 9.10297H4.19409V9.10301Z" fill="#FF4B55"/>
<path d="M11.9934 11.6182L8.11846 9.10303H7.35843L11.7588 11.9594C11.8906 11.8982 11.981 11.77 11.9934 11.6182Z" fill="#FF4B55"/>
<path d="M6 9.30999C6.6856 9.30999 7.24139 8.7542 7.24139 8.0686C7.24139 7.383 6.6856 6.82721 6 6.82721C5.3144 6.82721 4.75861 7.383 4.75861 8.0686C4.75861 8.7542 5.3144 9.30999 6 9.30999Z" fill="#41479B"/>
<path d="M6.08385 7.06249L6.29127 7.68434L6.94677 7.6894C7.03166 7.69006 7.06682 7.79838 6.99857 7.84877L6.47122 8.23817L6.66894 8.86315C6.69454 8.94406 6.60243 9.01099 6.53338 8.96163L6.00004 8.58054L5.46674 8.96168C5.39769 9.01104 5.30558 8.9441 5.33118 8.8632L5.52889 8.23821L5.00155 7.84882C4.93325 7.79838 4.96846 7.6901 5.05335 7.68945L5.70885 7.68438L5.91627 7.06254C5.94308 6.98201 6.05699 6.98201 6.08385 7.06249Z" fill="#FFE15A"/>
<path d="M2.64852 7.56911L2.76003 7.90346L3.11248 7.90618C3.15809 7.90656 3.17703 7.96478 3.14033 7.99187L2.85683 8.20126L2.96314 8.53726C2.97692 8.58076 2.92733 8.61676 2.89025 8.59023L2.60356 8.38529L2.31687 8.59023C2.27975 8.61676 2.23025 8.58076 2.24398 8.53726L2.3503 8.20126L2.0668 7.99187C2.03009 7.96478 2.04898 7.90651 2.09464 7.90618L2.44709 7.90346L2.55861 7.56911C2.57291 7.52579 2.63408 7.52579 2.64852 7.56911Z" fill="#FFE15A"/>
<path d="M9.4728 7.56911L9.58431 7.90346L9.93676 7.90618C9.98237 7.90656 10.0013 7.96478 9.96461 7.99187L9.68111 8.20126L9.78742 8.53726C9.8012 8.58076 9.75161 8.61676 9.71453 8.59023L9.42784 8.38529L9.14115 8.59023C9.10403 8.61676 9.05453 8.58076 9.06826 8.53726L9.17458 8.20126L8.89108 7.99187C8.85437 7.96478 8.87326 7.90651 8.91892 7.90618L9.27137 7.90346L9.38289 7.56911C9.39714 7.52579 9.45836 7.52579 9.4728 7.56911Z" fill="#FFE15A"/>
<path d="M6.05042 5.05751L6.16193 5.39187L6.51439 5.39459C6.56 5.39497 6.57893 5.45319 6.54223 5.48028L6.25868 5.68962L6.365 6.02562C6.37878 6.06912 6.32918 6.10512 6.29211 6.07859L6.00542 5.87366L5.71873 6.07859C5.68161 6.10512 5.63211 6.06912 5.64584 6.02562L5.75215 5.68962L5.46865 5.48023C5.43195 5.45314 5.45084 5.39487 5.4965 5.39455L5.84895 5.39183L5.96046 5.05747C5.97471 5.0142 6.03598 5.0142 6.05042 5.05751Z" fill="#FFE15A"/>
<path d="M6.05042 10.1398L6.16193 10.4741L6.51439 10.4768C6.56 10.4772 6.57893 10.5354 6.54223 10.5625L6.25868 10.7719L6.365 11.1079C6.37878 11.1514 6.32918 11.1874 6.29211 11.1608L6.00542 10.9559L5.71873 11.1608C5.68161 11.1874 5.63211 11.1514 5.64584 11.1079L5.75215 10.7719L5.46865 10.5625C5.43195 10.5354 5.45084 10.4771 5.4965 10.4768L5.84895 10.4741L5.96046 10.1397C5.97471 10.0965 6.03598 10.0965 6.05042 10.1398Z" fill="#FFE15A"/>
</svg>
