<svg xmlns="http://www.w3.org/2000/svg" width="24" height="24" viewBox="0 0 24 24" fill="none"><rect width="24" height="24" fill="none"/>
<path d="M22.2026 4.13788H1.79742C0.804703 4.13788 0 4.94258 0 5.9353V18.0647C0 19.0573 0.804703 19.8621 1.79742 19.8621H22.2026C23.1952 19.8621 24 19.0574 24 18.0647V5.9353C24 4.94258 23.1953 4.13788 22.2026 4.13788Z" fill="#73AF00"/>
<path d="M11.7848 6.33782L3.06348 11.6465C2.79858 11.8077 2.79858 12.1921 3.06348 12.3534L11.7848 17.6621C11.917 17.7426 12.083 17.7426 12.2152 17.6621L20.9365 12.3534C21.2014 12.1922 21.2014 11.8078 20.9365 11.6465L12.2152 6.33782C12.083 6.25743 11.917 6.25743 11.7848 6.33782Z" fill="#FFE15A"/>
<path d="M12 15.3102C13.8282 15.3102 15.3103 13.8281 15.3103 11.9999C15.3103 10.1717 13.8282 8.68958 12 8.68958C10.1718 8.68958 8.68968 10.1717 8.68968 11.9999C8.68968 13.8281 10.1718 15.3102 12 15.3102Z" fill="#41479B"/>
<path d="M9.15937 10.3065C9.00318 10.5679 8.88257 10.8521 8.80289 11.1538C10.638 11.0157 13.3527 11.5291 15.0805 13.2057C15.1933 12.9178 15.2677 12.6112 15.2956 12.2906C13.5116 10.789 11.0451 10.2551 9.15937 10.3065Z" fill="#F5F5F5"/>
<path d="M12.1371 13.1298L12.2252 13.3941L12.5038 13.3963C12.5398 13.3965 12.5548 13.4426 12.5258 13.464L12.3017 13.6295L12.3857 13.8951C12.3966 13.9295 12.3574 13.958 12.3281 13.937L12.1015 13.775L11.8748 13.937C11.8455 13.9579 11.8063 13.9295 11.8172 13.8951L11.9013 13.6295L11.6771 13.464C11.6481 13.4426 11.6631 13.3965 11.6991 13.3963L11.9777 13.3941L12.0658 13.1298C12.0773 13.0956 12.1256 13.0956 12.1371 13.1298Z" fill="#F5F5F5"/>
<path d="M13.2198 13.8134L13.2578 13.9272L13.3777 13.9281C13.3932 13.9282 13.3996 13.948 13.3871 13.9573L13.2907 14.0285L13.3268 14.1428C13.3315 14.1576 13.3147 14.1698 13.302 14.1608L13.2044 14.0911L13.1069 14.1608C13.0943 14.1698 13.0774 14.1576 13.0821 14.1428L13.1182 14.0285L13.0218 13.9573C13.0092 13.9481 13.0157 13.9282 13.0312 13.9281L13.1511 13.9272L13.189 13.8134C13.1941 13.7987 13.2149 13.7987 13.2198 13.8134Z" fill="#F5F5F5"/>
<path d="M11.6689 12.6277L11.7069 12.7414L11.8268 12.7424C11.8423 12.7425 11.8487 12.7623 11.8362 12.7715L11.7398 12.8427L11.7759 12.9571C11.7805 12.9719 11.7638 12.9841 11.7511 12.9751L11.6536 12.9054L11.556 12.9751C11.5434 12.9841 11.5265 12.9719 11.5312 12.9571L11.5673 12.8427L11.4708 12.7715C11.4584 12.7624 11.4648 12.7425 11.4803 12.7424L11.6002 12.7414L11.6381 12.6277C11.6432 12.6131 11.664 12.6131 11.6689 12.6277Z" fill="#F5F5F5"/>
<path d="M9.56856 12.4898L9.60648 12.6035L9.72638 12.6045C9.7419 12.6046 9.74837 12.6244 9.73585 12.6336L9.63938 12.7048L9.67552 12.8192C9.68016 12.834 9.66338 12.8462 9.65068 12.8372L9.55313 12.7675L9.45559 12.8372C9.44298 12.8462 9.4261 12.834 9.43079 12.8192L9.46693 12.7048L9.37046 12.6336C9.35795 12.6244 9.36441 12.6046 9.37993 12.6045L9.49984 12.6035L9.53776 12.4898C9.54282 12.4752 9.56363 12.4752 9.56856 12.4898Z" fill="#F5F5F5"/>
<path d="M11.3256 13.7742L11.3636 13.8879L11.4835 13.8888C11.499 13.8889 11.5054 13.9087 11.4929 13.918L11.3965 13.9892L11.4326 14.1035C11.4372 14.1183 11.4205 14.1306 11.4078 14.1215L11.3103 14.0518L11.2127 14.1215C11.2001 14.1306 11.1832 14.1183 11.1879 14.1035L11.224 13.9892L11.1275 13.918C11.1151 13.9088 11.1215 13.889 11.137 13.8888L11.2569 13.8879L11.2948 13.7742C11.2999 13.7594 11.3208 13.7594 11.3256 13.7742Z" fill="#F5F5F5"/>
<path d="M10.3589 12.4105L10.3899 12.5035L10.488 12.5043C10.5006 12.5044 10.5059 12.5206 10.4957 12.5281L10.4169 12.5864L10.4464 12.6798C10.4503 12.6919 10.4365 12.702 10.4261 12.6946L10.3464 12.6376L10.2666 12.6946C10.2562 12.702 10.2425 12.6919 10.2463 12.6798L10.2759 12.5864L10.197 12.5281C10.1868 12.5206 10.192 12.5044 10.2047 12.5043L10.3028 12.5035L10.3338 12.4105C10.3378 12.3985 10.3548 12.3985 10.3589 12.4105Z" fill="#F5F5F5"/>
<path d="M13.304 10.4905L13.3428 10.6069L13.4654 10.6078C13.4813 10.6079 13.4879 10.6282 13.4751 10.6377L13.3764 10.7105L13.4134 10.8275C13.4183 10.8426 13.401 10.8551 13.3881 10.8459L13.2883 10.7745L13.1885 10.8459C13.1755 10.8552 13.1583 10.8425 13.1631 10.8275L13.2001 10.7105L13.1015 10.6377C13.0887 10.6282 13.0953 10.608 13.1111 10.6078L13.2338 10.6069L13.2726 10.4905C13.2776 10.4753 13.299 10.4753 13.304 10.4905Z" fill="#F5F5F5"/>
<path d="M9.70365 11.8415L9.73468 11.9345L9.83274 11.9353C9.8454 11.9354 9.85069 11.9516 9.84052 11.9591L9.76163 12.0174L9.79121 12.1108C9.79505 12.1229 9.78127 12.133 9.77091 12.1256L9.69113 12.0686L9.61135 12.1256C9.60099 12.133 9.58726 12.1229 9.59105 12.1108L9.62063 12.0174L9.54174 11.9591C9.53152 11.9516 9.53677 11.9354 9.54952 11.9353L9.64758 11.9345L9.67862 11.8415C9.6826 11.8294 9.69962 11.8294 9.70365 11.8415Z" fill="#F5F5F5"/>
<path d="M10.1771 13.1524L10.2241 13.2932L10.3726 13.2944C10.3918 13.2945 10.3997 13.319 10.3843 13.3305L10.2648 13.4187L10.3096 13.5602C10.3154 13.5786 10.2946 13.5938 10.2789 13.5826L10.1581 13.4962L10.0372 13.5826C10.0216 13.5937 10.0007 13.5786 10.0065 13.5602L10.0513 13.4187L9.93184 13.3305C9.91637 13.319 9.92434 13.2945 9.94356 13.2944L10.0921 13.2932L10.139 13.1524C10.1453 13.1341 10.171 13.1341 10.1771 13.1524Z" fill="#F5F5F5"/>
<path d="M13.8235 13.843L13.8531 13.9316L13.9465 13.9323C13.9586 13.9324 13.9637 13.9478 13.954 13.955L13.8788 14.0105L13.907 14.0996C13.9106 14.1111 13.8975 14.1206 13.8876 14.1136L13.8116 14.0592L13.7356 14.1136C13.7258 14.1206 13.7126 14.1111 13.7163 14.0996L13.7444 14.0105L13.6693 13.955C13.6596 13.9478 13.6646 13.9324 13.6767 13.9323L13.7701 13.9316L13.7996 13.843C13.8035 13.8315 13.8198 13.8315 13.8235 13.843Z" fill="#F5F5F5"/>
<path d="M14.1505 13.1666L14.1884 13.2803L14.3083 13.2812C14.3238 13.2813 14.3303 13.3012 14.3178 13.3104L14.2213 13.3816L14.2574 13.4959C14.2621 13.5107 14.2453 13.523 14.2326 13.5139L14.1351 13.4442L14.0375 13.5139C14.0249 13.523 14.0081 13.5107 14.0127 13.4959L14.0489 13.3816L13.9524 13.3104C13.9399 13.3012 13.9464 13.2814 13.9619 13.2812L14.0818 13.2803L14.1197 13.1666C14.1247 13.1518 14.1455 13.1518 14.1505 13.1666Z" fill="#F5F5F5"/>
</svg>
