<svg xmlns="http://www.w3.org/2000/svg" width="24" height="24" viewBox="0 0 24 24" fill="none"><rect width="24" height="24" fill="none"/>
<path d="M22.2026 19.8621H1.79742C0.804703 19.8621 0 19.0574 0 18.0646V5.93536C0 4.94269 0.804703 4.13794 1.79742 4.13794H22.2026C23.1952 4.13794 24 4.94264 24 5.93536V18.0647C24 19.0574 23.1953 19.8621 22.2026 19.8621Z" fill="#41479B"/>
<path d="M0.413813 12.0003H1.13259L4.96556 9.4891V12.0004H7.03453V9.4891L10.8675 12.0004H11.5863C11.8148 12.0004 12.0001 11.8151 12.0001 11.5866V11.2583L8.71158 9.10383H12V7.03487H8.71148L12 4.88021V4.55199C12 4.32347 11.8147 4.13818 11.5862 4.13818H10.8674L7.03444 6.64946V4.13818H4.96547V6.64946L1.25798 4.2204C0.825281 4.35638 0.463406 4.65188 0.240469 5.03771L3.28852 7.03473H0V9.10369H3.28852L0 11.2583V11.5865C0 11.815 0.185297 12.0003 0.413813 12.0003Z" fill="#F5F5F5"/>
<path d="M12 7.44854H6.62067V4.13818H5.37933V7.44854H0V8.68993H5.37933V12.0003H6.62067V8.68993H12V7.44854Z" fill="#FF4B55"/>
<path d="M0.385544 4.82372L3.79172 7.03477H4.5517L0.684513 4.52442C0.573513 4.61213 0.473106 4.71258 0.385544 4.82372Z" fill="#FF4B55"/>
<path d="M7.79452 7.03472L11.937 4.34569C11.865 4.22386 11.738 4.13817 11.5862 4.13817H11.4967L7.03448 7.03472H7.79452Z" fill="#FF4B55"/>
<path d="M4.19409 9.10369L0.0594788 11.7876C0.130682 11.9124 0.259776 12.0002 0.413807 12.0002H0.491854L4.95417 9.10369H4.19409Z" fill="#FF4B55"/>
<path d="M11.9934 11.619L8.11846 9.10379H7.35843L11.7588 11.9601C11.8906 11.8989 11.981 11.7706 11.9934 11.619Z" fill="#FF4B55"/>
<path d="M20.7483 8.77735H15.2513V13.0256H20.7483V8.77735Z" fill="#82AFFF"/>
<path d="M15.2513 13.0254C15.2513 14.4744 16.8755 15.649 18 15.649C18.9995 15.649 20.7487 14.4744 20.7487 13.0254H15.2513Z" fill="#C86464"/>
<path d="M18.734 10.3287C18.8225 10.3443 18.9735 10.3652 18.9891 10.5786C19.0047 10.792 18.9266 11.5521 18.8486 11.6458C18.8486 11.6458 19.1037 12.2236 19.1141 12.5672C19.1245 12.9108 19.0777 13.9389 19.1089 14.1029C19.1401 14.2668 19.2572 14.6026 19.2572 14.6026C19.2572 14.6026 18.898 14.3918 18.7575 14.5245C18.617 14.6572 18.1016 14.8369 17.8985 14.626C17.8985 14.626 18.1406 13.9389 18.1406 13.158C18.1406 12.3771 18.1406 10.4484 18.1406 10.4484C18.1406 10.4484 18.2421 10.3677 18.3748 10.3651C18.5076 10.3626 18.734 10.3287 18.734 10.3287Z" fill="#73AF00"/>
<path d="M18.7861 14.4569C18.8017 14.5558 18.8433 14.6286 18.8225 14.6651C18.8016 14.7015 18.6663 15.0347 18.7444 15.0347C18.8224 15.0347 18.9578 14.9931 18.9943 14.9202C19.0307 14.8473 19.0463 14.738 19.0672 14.7067C19.088 14.6755 19.0307 14.5193 18.9839 14.4933C18.937 14.4673 18.7861 14.4569 18.7861 14.4569Z" fill="#FFF5E1"/>
<path d="M17.8855 10.5474L17.5992 10.5839C17.5992 10.5839 17.6356 10.3965 17.6408 10.2663C17.646 10.1362 17.6564 9.89667 17.6564 9.89667C17.6564 9.89667 17.8594 9.77175 17.8646 9.75089C17.8672 9.74049 17.8913 9.67542 17.8724 9.64158C17.8536 9.60774 17.7918 9.60511 17.7918 9.60511C17.7918 9.60511 17.5523 9.73003 17.5523 9.75089C17.5523 9.77175 17.5523 9.89668 17.5263 9.9435C17.5003 9.99038 17.3545 10.3808 17.3441 10.4849C17.3337 10.589 17.3181 10.8077 17.3597 10.8181C17.4013 10.8285 17.8334 10.8754 17.8803 10.8545C17.9271 10.8337 17.8855 10.5474 17.8855 10.5474Z" fill="#FFF5E1"/>
<path d="M19.1826 9.51929H18.1405V9.02733H17.7814V9.51929H16.7393V9.87844H17.7814V14.6027H18.1405V9.87844H19.1826V9.51929Z" fill="#464655"/>
<path d="M18.5674 10.157C18.5674 10.157 18.9162 10.2574 18.963 10.1414C19.0177 10.006 18.8355 9.9878 18.8017 9.84464C18.7979 9.82861 18.7652 9.63642 18.6247 9.6C18.4841 9.56353 18.354 9.6 18.3488 9.6937C18.3435 9.78741 18.5674 10.157 18.5674 10.157Z" fill="#963C3C"/>
<path d="M18.38 10.5994C18.3697 10.6011 18.354 10.4953 18.3748 10.3651C18.3957 10.235 18.3748 10.1933 18.3748 10.1933C18.3748 10.1933 18.2291 10.209 18.2291 10.1517C18.2291 10.0945 18.2603 9.82894 18.3488 9.69361C18.3488 9.69361 18.4113 9.7717 18.5258 9.7717C18.5258 9.7717 18.5206 9.86541 18.5831 9.92784C18.5831 9.92784 18.505 9.99548 18.5415 10.0424C18.5779 10.0892 18.6456 10.1465 18.6456 10.1465C18.6456 10.1465 18.6508 10.2558 18.7341 10.3287C18.734 10.3287 18.6299 10.5578 18.38 10.5994Z" fill="#FFF5E1"/>
<path d="M16.985 12.8588H16.9538V13.4783H16.985V12.8588Z" fill="#464655"/>
<path d="M17.1106 12.7388H17.0794V13.5982H17.1106V12.7388Z" fill="#464655"/>
<path d="M17.2362 12.6296H17.205V13.7082H17.2362V12.6296Z" fill="#464655"/>
<path d="M17.3618 12.473H17.3306V13.8647H17.3618V12.473Z" fill="#464655"/>
<path d="M17.4875 12.2682H17.4563V14.0693H17.4875V12.2682Z" fill="#464655"/>
<path d="M17.6131 12.2682H17.5819V14.1535H17.6131V12.2682Z" fill="#464655"/>
<path d="M18.1457 13.2544C18.0077 12.5365 17.6251 12.1195 17.4898 12.0987C17.3544 12.0779 17.2556 12.1872 17.2452 12.2653C17.2348 12.3434 17.1619 12.5777 17.0109 12.687C16.8599 12.7963 16.5788 12.8588 16.5164 13.0618C16.4539 13.2648 16.6205 13.3533 16.7194 13.3324C16.7268 13.3309 16.734 13.328 16.7415 13.3255L17.8057 14.6346C17.8443 14.6821 17.9196 14.6744 17.9465 14.6193C18.0559 14.3957 18.2635 13.8665 18.1457 13.2544ZM16.8308 13.2689C16.8725 13.2241 16.8901 13.1624 16.8443 13.0982C16.7662 12.9889 16.6777 13.1451 16.6777 13.1451C16.6777 13.1451 16.6517 13.0097 16.8547 12.9421C17.0578 12.8745 17.2868 12.7599 17.391 12.5152C17.4951 12.2706 17.4899 12.3173 17.4899 12.3173C17.4899 12.3173 17.9063 12.5516 17.9636 13.2856C18.0209 14.0197 17.8178 14.3164 17.8178 14.3164L16.8308 13.2689Z" fill="#FFE15A"/>
<path d="M17.7814 11.6839C17.7336 11.7144 17.6905 11.7408 17.6603 11.7565C17.5627 11.8072 17.4456 11.858 17.4339 11.9048C17.4222 11.9517 17.3558 11.9907 17.3597 12.0454C17.3637 12.1 17.3597 12.264 17.3597 12.264C17.4183 12.2523 17.5354 12.2328 17.5745 12.1624C17.6136 12.0921 17.6487 11.9555 17.7736 11.8969C17.7758 11.8959 17.7791 11.8948 17.7815 11.8938V11.6839H17.7814Z" fill="#FFF5E1"/>
<path d="M18.816 10.6866C18.7575 10.714 18.5818 10.9248 18.5544 11.0224C18.5271 11.12 18.4412 11.3504 18.4412 11.3504C18.4412 11.3504 18.2638 11.3736 18.1406 11.4425V11.7835C18.2089 11.7637 18.2693 11.7442 18.3046 11.7253C18.4061 11.6706 18.5505 11.5692 18.6248 11.5496C18.6989 11.5301 18.7614 11.4051 18.7887 11.331C18.816 11.2568 18.9019 11.0382 18.9136 10.8898C18.9254 10.7413 18.8745 10.6594 18.816 10.6866Z" fill="#FFF5E1"/>
<path d="M18 15.7376L17.9864 15.7355C15.1959 15.2949 15.1639 12.8781 15.1639 12.7755V8.68997H20.8362V12.7755C20.8362 12.8781 20.8041 15.2949 18.0137 15.7355L18 15.7376ZM15.3389 8.86491V12.7755C15.3389 12.8719 15.3691 15.1373 18 15.5605C20.631 15.1373 20.6611 12.8719 20.6611 12.7755V8.86491H15.3389Z" fill="#F5F5F5"/>
</svg>
