<svg xmlns="http://www.w3.org/2000/svg" width="24" height="24" viewBox="0 0 24 24" fill="none"><rect width="24" height="24" fill="none"/>
<path d="M1.79742 19.8619H8.00002V4.13779H1.79742C0.804703 4.13779 0 4.94249 0 5.93521V18.0645C0 19.0572 0.804703 19.8619 1.79742 19.8619Z" fill="#464655"/>
<path d="M16.0003 4.13797H8.00015V19.8622H16.0003V4.13797Z" fill="#FF4B55"/>
<path d="M22.2026 19.8619C23.1952 19.8619 24 19.0572 24 18.0645V5.93521C24 4.94254 23.1953 4.13779 22.2026 4.13779H16V19.8619H22.2026Z" fill="#73AF00"/>
<path d="M11.4 11.6112H11.04V11.7312H11.4V11.6112Z" fill="#F5F5F5"/>
<path d="M13.0799 12.811H10.9201L11.0401 12.5711H12.9599L13.0799 12.811Z" fill="#F5F5F5"/>
<path d="M13.0799 10.8913H10.9201L11.0401 11.1313H12.9599L13.0799 10.8913Z" fill="#F5F5F5"/>
<path d="M12.6 11.0113H11.4001L11.6401 10.7713H12.36L12.6 11.0113Z" fill="#F5F5F5"/>
<path d="M11.4 12.2112H11.04V12.4512H11.4V12.2112Z" fill="#F5F5F5"/>
<path d="M11.4 11.8512H11.04V12.0912H11.4V11.8512Z" fill="#F5F5F5"/>
<path d="M11.4 11.2513H11.04V11.4913H11.4V11.2513Z" fill="#F5F5F5"/>
<path d="M12.96 12.2112H12.6V12.4512H12.96V12.2112Z" fill="#F5F5F5"/>
<path d="M12.96 11.8512H12.6V12.0912H12.96V11.8512Z" fill="#F5F5F5"/>
<path d="M12.96 11.2513H12.6V11.4913H12.96V11.2513Z" fill="#F5F5F5"/>
<path d="M12.96 11.6112H12.6V11.7312H12.96V11.6112Z" fill="#F5F5F5"/>
<path d="M11.4 10.2912H11.16V10.7712H11.4V10.2912Z" fill="#F5F5F5"/>
<path d="M11.4001 10.1713H11.1601V10.0513C11.1601 9.98505 11.2138 9.93134 11.2801 9.93134C11.3464 9.93134 11.4001 9.98505 11.4001 10.0513V10.1713Z" fill="#F5F5F5"/>
<path d="M12.84 10.2912H12.6V10.7712H12.84V10.2912Z" fill="#F5F5F5"/>
<path d="M12.84 10.1713H12.6V10.0513C12.6 9.98505 12.6537 9.93134 12.72 9.93134C12.7863 9.93134 12.84 9.98505 12.84 10.0513V10.1713Z" fill="#F5F5F5"/>
<path d="M12 11.2513C11.735 11.2513 11.5201 11.4661 11.5201 11.7312V12.4512H12.48V11.7312C12.48 11.4662 12.2651 11.2513 12 11.2513Z" fill="#F5F5F5"/>
<path d="M11.2056 12.0072L10.5523 11.245C10.5566 11.2327 10.5602 11.22 10.5602 11.2063C10.5602 11.14 10.5064 11.0863 10.4402 11.0863C10.3739 11.0863 10.3202 11.14 10.3202 11.2063C10.3202 11.2726 10.3739 11.3263 10.4402 11.3263C10.4474 11.3263 10.4537 11.3234 10.4605 11.3222L10.5281 11.4011L10.2002 12.1663L10.5601 12.5262L10.8709 11.8011L11.1146 12.0853L11.2056 12.0072ZM10.6219 12.2579L10.3347 11.9706L10.4643 11.6683L10.7515 11.9555L10.6219 12.2579Z" fill="#F5F5F5"/>
<path d="M12.8885 12.0852L13.1321 11.801L13.4429 12.5261L13.8029 12.1662L13.475 11.4011L13.5426 11.3222C13.5494 11.3233 13.5557 11.3262 13.5629 11.3262C13.6292 11.3262 13.6829 11.2725 13.6829 11.2062C13.6829 11.14 13.6292 11.0862 13.5629 11.0862C13.4966 11.0862 13.4429 11.14 13.4429 11.2062C13.4429 11.22 13.4465 11.2327 13.4507 11.245L12.7974 12.0071L12.8885 12.0852ZM13.2516 11.9554L13.5388 11.6682L13.6683 11.9706L13.3811 12.2578L13.2516 11.9554Z" fill="#F5F5F5"/>
<path d="M12.1359 10.0723C12.0982 10.0612 12.0645 10.0406 12.0433 10.0076C12.0291 9.98552 12.0146 9.96044 12.0001 9.93143C11.9856 9.96044 11.9711 9.98552 11.9569 10.0076C11.9356 10.0406 11.902 10.0612 11.8643 10.0723C11.6655 10.1308 11.5201 10.3136 11.5201 10.5313C11.5201 10.573 11.5271 10.6128 11.5371 10.6513H12.4631C12.4731 10.6128 12.48 10.573 12.48 10.5313C12.48 10.3136 12.3346 10.1308 12.1359 10.0723Z" fill="#F5F5F5"/>
<path d="M9.25035 11.8371C9.24426 11.7626 9.24032 11.6874 9.24032 11.6113C9.24032 11.4571 9.25429 11.3055 9.27904 11.1568C9.31363 11.1808 9.34987 11.2071 9.38751 11.2367C9.36993 11.3597 9.36023 11.4847 9.36023 11.6113C9.36023 11.6999 9.36477 11.7876 9.37335 11.8741L9.62699 11.9503C9.61115 11.8392 9.60018 11.7266 9.60018 11.6113C9.60018 11.5539 9.6036 11.4972 9.60815 11.4407C9.74062 11.5876 9.84515 11.7651 9.84515 11.9612C9.84515 11.9662 10.2301 11.3913 9.5302 10.7563L9.52518 11.0263L9.12206 11.0221C9.08573 11.0217 9.05376 11.0475 9.04743 11.0833C9.01677 11.2557 9.00027 11.4321 9.00027 11.6113C9.00027 11.6622 9.00163 11.7128 9.00412 11.7632L9.25035 11.8371Z" fill="#F5F5F5"/>
<path d="M10.315 9.42636C10.3675 9.3859 10.3771 9.31058 10.3366 9.25808C10.296 9.20558 10.2208 9.19611 10.1683 9.23651C9.62526 9.6559 9.25261 10.2321 9.09122 10.8775L9.33853 10.8807C9.49415 10.3095 9.83095 9.80023 10.315 9.42636Z" fill="#F5F5F5"/>
<path d="M10.1542 9.72565C9.89329 9.98121 9.69576 10.282 9.56137 10.6087C9.63557 10.6697 9.69637 10.7313 9.74686 10.7926C9.86779 10.4594 10.0604 10.1536 10.3222 9.89721C10.3695 9.85081 10.3703 9.77487 10.324 9.72757C10.2775 9.68004 10.2016 9.67924 10.1542 9.72565Z" fill="#F5F5F5"/>
<path d="M9.73726 13.1843C9.55932 12.929 9.42334 12.6427 9.33892 12.3352L9.47842 12.3864C9.56556 12.6671 9.69779 12.9281 9.8671 13.1606L10.1319 13.1122C9.98242 12.9263 9.85951 12.7182 9.76974 12.4935L9.92631 12.551C10.0157 12.7472 10.13 12.9276 10.2664 13.0876L10.542 13.0371C10.4336 12.9265 10.3388 12.8019 10.2572 12.6676L10.0975 12.3483C10.0482 12.2497 9.96039 12.1758 9.85478 12.1441L9.47706 12.0306L9.38973 12.0044L9.26401 11.9666L9.01393 11.8914L8.88043 11.8513L8.96303 12.0992C8.98117 12.1536 9.01787 12.199 9.06559 12.2288C9.14195 12.5914 9.28356 12.9302 9.47809 13.232L9.73726 13.1843Z" fill="#F5F5F5"/>
<path d="M14.4748 11.0263L14.4698 10.7563C13.7698 11.3913 14.1548 11.9662 14.1548 11.9612C14.1548 11.7651 14.2593 11.5876 14.3918 11.4407C14.3963 11.4972 14.3998 11.5539 14.3998 11.6113C14.3998 11.7267 14.3888 11.8393 14.373 11.9503L14.6266 11.8741C14.6352 11.7876 14.6397 11.7 14.6397 11.6113C14.6397 11.4846 14.6301 11.3597 14.6124 11.2367C14.6501 11.2071 14.6864 11.1808 14.7209 11.1568C14.7457 11.3055 14.7596 11.4572 14.7596 11.6113C14.7596 11.6874 14.7557 11.7626 14.7496 11.8371L14.9957 11.7632C14.9983 11.7128 14.9996 11.6622 14.9996 11.6113C14.9996 11.4321 14.983 11.2557 14.9524 11.0833C14.946 11.0474 14.9141 11.0217 14.8778 11.0221L14.4748 11.0263Z" fill="#F5F5F5"/>
<path d="M14.6616 10.8807L14.9089 10.8775C14.7475 10.2321 14.3749 9.65592 13.8318 9.23653C13.7794 9.19608 13.7041 9.2056 13.6635 9.2581C13.623 9.3106 13.6326 9.38597 13.6851 9.42638C14.1691 9.8002 14.5059 10.3095 14.6616 10.8807Z" fill="#F5F5F5"/>
<path d="M14.4387 10.6087C14.3043 10.282 14.1068 9.9812 13.8459 9.72564C13.7985 9.67923 13.7227 9.68007 13.6762 9.72751C13.6298 9.77486 13.6306 9.85079 13.678 9.89715C13.9398 10.1535 14.1324 10.4593 14.2533 10.7925C14.3037 10.7313 14.3645 10.6697 14.4387 10.6087Z" fill="#F5F5F5"/>
<path d="M14.9862 11.8913L14.7362 11.9665L14.6104 12.0043L14.5231 12.0305L14.1453 12.144C14.0397 12.1757 13.9519 12.2496 13.9026 12.3482L13.743 12.6675C13.6614 12.8018 13.5665 12.9264 13.4582 13.037L13.7337 13.0875C13.8701 12.9275 13.9845 12.7471 14.0738 12.5509L14.2304 12.4934C14.1406 12.7181 14.0177 12.9262 13.8682 13.112L14.133 13.1605C14.3024 12.9279 14.4346 12.667 14.5217 12.3863L14.6612 12.335C14.5768 12.6426 14.4408 12.929 14.2629 13.1842L14.522 13.2317C14.7166 12.9298 14.8581 12.5911 14.9345 12.2285C14.9823 12.1987 15.019 12.1533 15.0371 12.0989L15.1197 11.851L14.9862 11.8913Z" fill="#F5F5F5"/>
<path d="M13.2506 13.2179L13.2444 13.2234C12.8953 13.4928 12.4618 13.651 12.0001 13.651C11.5385 13.651 11.1049 13.4928 10.7558 13.2234L10.7496 13.2179C10.7043 13.1681 10.6362 13.1458 10.5702 13.1591L9.36032 13.411L9.62877 13.6464C9.70059 13.7093 9.79284 13.7387 9.88457 13.7333C10.1006 13.9484 10.3487 14.1313 10.6216 14.2734L10.543 14.4184C10.9764 14.6541 11.4729 14.7881 12 14.7881C12.5272 14.7881 13.0236 14.6541 13.4571 14.4184L13.3785 14.2734C13.6514 14.1313 13.8995 13.9484 14.1155 13.7333C14.2073 13.7387 14.2995 13.7093 14.3714 13.6464L14.6398 13.411L13.43 13.1591C13.364 13.1458 13.2959 13.168 13.2506 13.2179ZM10.7363 14.0615C10.5188 13.9484 10.3197 13.8055 10.1405 13.6411L10.257 13.5855C10.4197 13.7295 10.5987 13.8556 10.7931 13.9565L10.7363 14.0615ZM13.8596 13.6411C13.6804 13.8055 13.4812 13.9483 13.2637 14.0615L13.2069 13.9566C13.4014 13.8557 13.5803 13.7296 13.743 13.5856L13.8596 13.6411ZM12 14.011C11.4285 14.011 10.9049 13.8082 10.4926 13.4732L10.6123 13.4161C11.0016 13.7159 11.4854 13.891 11.9999 13.891C12.5145 13.891 12.9983 13.7159 13.3876 13.4161L13.5073 13.4732C13.0952 13.8082 12.5715 14.011 12 14.011Z" fill="#F5F5F5"/>
<path d="M10.6834 13.0479C10.7349 13.0915 10.7884 13.1327 10.8441 13.1711H13.156C13.2117 13.1327 13.2651 13.0915 13.3167 13.0479L13.1999 12.9312H10.8002L10.6834 13.0479Z" fill="#F5F5F5"/>
</svg>
