<svg xmlns="http://www.w3.org/2000/svg" width="24" height="24" viewBox="0 0 24 24" fill="none"><rect width="24" height="24" fill="none"/>
<path d="M24 5.93536C24 4.94269 23.1953 4.13794 22.2026 4.13794H1.79742C0.804703 4.13794 0 4.94264 0 5.93536V12H24V5.93536Z" fill="#FF4B55"/>
<path d="M1.79742 19.8621H22.2026C23.1952 19.8621 24 19.0574 24 18.0646V12H0V18.0646C0 19.0574 0.804703 19.8621 1.79742 19.8621Z" fill="#464655"/>
<path d="M11.0579 8.54493L11.3408 9.39323L12.235 9.40016C12.3043 9.40068 12.333 9.48913 12.2773 9.53024L11.558 10.0614L11.8277 10.914C11.8486 10.98 11.7734 11.0346 11.717 10.9944L10.9895 10.4744L10.262 10.9944C10.2056 11.0347 10.1304 10.98 10.1513 10.914L10.4211 10.0614L9.70172 9.53024C9.64603 9.48909 9.67472 9.40068 9.744 9.40016L10.6382 9.39323L10.9211 8.54493C10.943 8.47916 11.036 8.47916 11.0579 8.54493Z" fill="#FFE15A"/>
<path d="M14.8821 15.7473C14.8821 15.7473 9.76307 11.8855 9.61194 11.7586C9.37837 11.5625 9.19813 11.2155 9.18951 10.7931C9.18951 10.7931 8.63746 11.3586 8.74555 11.944C8.87057 12.6207 9.25851 12.8621 9.75852 13.1896C10.1099 13.4198 12.9032 15.1816 14.5339 16.2093L14.8821 15.7473Z" fill="#FFE15A"/>
<path d="M16.4137 16.8792C16.347 16.8316 15.8109 16.4353 15.067 15.8842L14.7971 16.3751C15.3432 16.7192 15.7069 16.9482 15.7069 16.9482C15.7069 16.9482 15.7586 17.6207 16.3017 17.5086C16.4975 17.4681 16.6551 17.0516 16.4137 16.8792Z" fill="#FFE15A"/>
<path d="M11.9935 15.0962C11.6065 15.2323 11.1921 15.3102 10.7585 15.3102C9.65967 15.3102 8.67515 14.8316 7.9935 14.0746L7.3875 14.62C7.59061 14.8456 7.8075 15.0581 8.05195 15.2396L7.93129 15.4486L8.82717 15.9658L8.94576 15.7603C9.35048 15.9363 9.78557 16.0548 10.2413 16.1064V16.3447H11.2758V16.1064C11.7315 16.0548 12.1666 15.9363 12.5713 15.7603L12.6899 15.9658L13.0459 15.7602C12.6983 15.541 12.3421 15.3163 11.9935 15.0962Z" fill="#FFE15A"/>
<path d="M15.2789 11.0689C15.2272 10.6132 15.1088 10.1781 14.9328 9.77343L15.1382 9.65483L14.621 8.75891L14.412 8.87957C14.1444 8.51905 13.8256 8.20025 13.4651 7.93269L13.5857 7.72368L12.6899 7.20646L12.5713 7.41191C12.2355 7.2659 11.8781 7.16221 11.5061 7.10071L11.3702 7.91652C13.1353 8.20888 14.4827 9.73818 14.4827 11.5862C14.4827 12.5812 14.09 13.483 13.4541 14.151C13.6741 14.3171 13.8924 14.4819 14.1082 14.6449C14.2127 14.5304 14.3193 14.4177 14.412 14.2928L14.6211 14.4134L15.1383 13.5176L14.9328 13.399C15.1088 12.9943 15.2273 12.5592 15.2789 12.1035H15.5172V11.069H15.2789V11.0689Z" fill="#FFE15A"/>
</svg>
