<svg xmlns="http://www.w3.org/2000/svg" width="24" height="24" viewBox="0 0 24 24" fill="none"><rect width="24" height="24" fill="none"/>
<path d="M22.2026 4.1377H1.79742C0.804703 4.1377 0 4.9424 0 5.93512V11.9998H24V5.93512C24 4.9424 23.1953 4.1377 22.2026 4.1377Z" fill="#F5F5F5"/>
<path d="M0 18.0646C0 19.0573 0.804703 19.8621 1.79742 19.8621H22.2026C23.1952 19.8621 24 19.0574 24 18.0646V12H0V18.0646Z" fill="#73AF00"/>
<path d="M18.2577 8.73881C18.2577 8.73881 18.5437 9.52336 18.5682 9.56423L18.6009 9.49884L18.797 8.4773L19.3037 7.5293L19.1566 7.54566L18.0043 8.10136C18.0043 8.10136 17.3178 8.85323 17.3096 8.87775C17.3015 8.90227 18.2577 8.73881 18.2577 8.73881Z" fill="#FF4B55"/>
<path d="M18.6635 16.2415C18.6254 16.236 18.0587 16.2633 18.0587 16.2633L17.8735 15.6422L17.7673 14.4681L17.9675 14.415L18.2168 14.5335L18.3067 14.0636C18.3067 14.0636 18.0901 13.8266 18.0492 13.8102C18.0084 13.7939 17.5181 13.6836 17.5181 13.6836L16.8602 12.8132L17.6447 12.376L18.2576 11.5342L18.4047 10.7742L18.2822 10.1449L18.0034 9.6782C17.9993 9.66488 17.9961 9.65457 17.9961 9.65457C17.9941 9.65209 17.9872 9.6474 17.9829 9.64374L17.9307 9.55646L17.9299 9.60737C17.809 9.53185 17.5616 9.40051 17.4976 9.36849C17.4159 9.32762 16.9827 9.25407 16.8928 9.31946C16.8029 9.38485 16.3861 9.58098 16.3126 9.71991C16.239 9.85885 16.19 10.3574 16.19 10.3574C16.19 10.3574 16.3126 10.6352 16.4679 10.7006C16.6232 10.766 16.9255 10.8395 16.9745 10.8232C17.0169 10.8091 17.4966 10.6673 17.6275 10.6077L17.6855 10.7251L17.661 11.0602L17.3914 11.2481L16.8928 11.4443C16.8928 11.4443 16.1328 11.2318 16.1001 11.2399C16.0675 11.2481 15.1276 10.9621 15.1276 10.9621L14.245 10.7577L14.5392 10.6106L15.3401 10.5534C15.3401 10.5534 15.4954 9.64632 15.5199 9.62996C15.5444 9.6136 16.0675 9.19684 16.0675 9.19684L16.5006 9.09062L16.2391 7.98184L16.6314 6.77232L15.6071 7.06651L13.9835 7.46963L12.9484 7.40424L12.033 7.69843L11.4446 8.23238L11.1068 8.69002L10.9869 9.4201L10.9106 10.3899L10.6273 10.9239L10.3063 11.1755C10.2703 11.0805 10.1016 10.7169 10.1016 10.7169L10.5102 10.6188L10.404 10.3492L10.1179 10.1367L10.2079 9.80977L10.5348 9.98959L10.6247 10.055L10.6819 9.71991L10.3223 9.21324L10.3795 8.95988L10.8126 9.18873L10.7636 8.6003L10.3795 8.3633L10.404 8.0364L10.8235 8.16174L10.7799 7.8512L10.3223 7.5188L10.769 6.79965L10.2242 6.82693L10.1806 6.5926L10.039 6.53809C10.039 6.53809 9.2816 6.85955 9.22713 6.84863C9.17266 6.83776 8.56793 6.75606 8.49705 6.77232C8.42623 6.78868 8.17563 6.85402 8.17563 6.85402L8.10476 7.1319L7.64168 7.05559L6.9552 6.9984L6.74815 7.25176L7.07505 7.38254C7.07505 7.38254 6.99884 7.96004 7.02059 8.00363C7.04238 8.04718 7.23851 8.33054 7.23851 8.33054L6.79179 8.94071L7.24943 9.0061L7.88145 8.90804L7.8596 9.06062L8.69866 8.97343L8.51337 9.07149L8.27365 9.79065L7.57624 11.2072L7.33109 12.4658L6.93879 12.0571L6.67727 10.9784L6.28498 9.91595C6.28498 9.91595 6.20327 9.58904 6.1542 9.58088C6.10516 9.57273 5.89268 9.53185 5.89268 9.53185L5.62301 9.75249L5.27979 9.70346L5.08366 9.97313L5.3043 10.3164C5.3043 10.3164 4.93652 10.4634 4.93652 10.5043C4.93652 10.5452 4.96104 10.7822 4.98555 10.7904C5.01007 10.7985 5.56577 10.7822 5.56577 10.7822L5.90084 11.3788L5.63932 12.0653L5.7701 12.3268L5.99895 12.3594L6.21143 12.1143L6.94695 14.3127C6.94695 14.3127 6.88976 14.5987 6.84888 14.6232C6.80801 14.6477 6.61188 14.8684 6.66091 14.8684C6.70995 14.8684 7.01234 14.9093 7.04501 14.8929C7.07768 14.8765 7.50265 14.5497 7.50265 14.5497C7.50265 14.5497 8.17277 14.0348 8.21365 14.0757C8.25452 14.1166 8.89198 14.5088 8.89198 14.5088L8.59779 15.5222L7.90315 16.5356L7.47002 16.2741L7.15948 15.8327L6.93063 15.9063L6.84893 16.0452L6.8816 16.3394C6.8816 16.3394 6.6446 16.5274 6.6446 16.5683C6.6446 16.6091 6.66912 16.9033 6.66912 16.9033C6.66912 16.9033 6.82441 16.9769 6.83257 17.0177C6.84073 17.0586 6.92248 17.3528 6.92248 17.3528L7.08593 17.41L7.39648 17.222H7.91135L8.23005 17.2711L8.90838 17.0586L9.89726 17.1076L9.80735 16.9196C9.80735 16.9196 9.4069 16.7153 9.26796 16.6745C9.12902 16.6336 8.99009 16.6009 8.99009 16.6009L8.9329 16.3149L9.90541 15.1626L10.265 15.089L10.3876 15.3914C10.3876 15.3914 10.7907 15.2934 10.7907 15.2606C10.7907 15.228 10.7907 14.8792 10.7907 14.8465C10.7907 14.8139 10.7036 14.5415 10.7036 14.5415C10.7036 14.5415 10.7024 14.5314 10.7006 14.5165L11.0086 14.4652L12.0765 13.9531L12.4524 14.4052L12.921 14.6286L12.338 15.6747L11.8367 16.0125L11.4771 15.8491L10.9759 15.4786L10.7797 15.5985L10.8233 15.969L10.5291 15.9472L10.3984 16.2087L10.6163 16.5247L10.54 16.7753C10.54 16.7753 10.5944 17.0041 10.6489 17.0041C10.7034 17.0041 11.0303 16.8842 11.0303 16.8842L11.9892 16.8079L12.6866 16.5791L13.4167 16.6336C13.4167 16.6336 13.5584 16.1432 13.5257 16.1432C13.493 16.1432 13.4821 16.1323 13.3949 16.1323C13.3078 16.1323 13.0026 16.1432 13.0026 16.1432L12.9917 16.0343L13.2314 15.5984L14.1576 14.8247L14.4301 14.8792L14.5281 15.0208L14.8006 14.8138L14.7896 14.4651L14.55 14.2145L14.3102 13.9312L14.3865 13.5062L14.8006 13.7023C14.8006 13.7023 15.4544 14.16 15.5088 14.1818C15.5633 14.2036 16.8273 14.5305 16.8273 14.5305L17.0888 15.1516L16.958 16.1322L16.5549 16.0124L16.1735 15.522C16.1735 15.522 16.0645 15.4675 16.01 15.4784C15.9556 15.4893 15.8248 15.7073 15.8248 15.7073L15.9556 16.0124L15.7812 16.0668L15.6178 16.1758L15.5851 16.4047L15.7376 16.5463C15.7376 16.5463 15.7376 16.8078 15.7376 16.8405C15.7376 16.8731 15.8248 16.993 15.8576 17.0039C15.8902 17.0148 16.1409 17.0475 16.2008 17.0421C16.2607 17.0366 16.7074 16.8514 16.7074 16.8514C16.7074 16.8514 17.5465 16.8677 17.5683 16.8623C17.5901 16.8569 18.3147 16.6989 18.3147 16.6989L18.7234 16.7642C18.7234 16.7642 18.9958 16.5572 18.9849 16.5299C18.974 16.503 18.7016 16.2469 18.6635 16.2415ZM17.0971 10.341C16.8764 10.3655 16.762 10.4309 16.7456 10.3083C16.7293 10.1857 16.7293 9.94051 16.7538 9.93235C16.7783 9.9242 17.0317 9.77705 17.0398 9.80157C17.048 9.82609 17.3014 9.94866 17.3014 9.94866L17.4557 10.2605C17.3742 10.3038 17.2487 10.3241 17.0971 10.341Z" fill="#FF4B55"/>
<path d="M5.9576 8.33852C5.9576 8.33852 6.04751 7.87268 6.07202 7.87268C6.09654 7.87268 6.4316 7.7501 6.4316 7.7501L5.43457 7.10449C5.43457 7.10449 5.60618 7.8972 5.62254 7.96259C5.63885 8.02793 5.9576 8.33852 5.9576 8.33852Z" fill="#FF4B55"/>
<path d="M8.49415 7.3802C8.49762 7.381 8.5175 7.3854 8.54787 7.3914L8.54037 7.42408C8.52809 7.47667 8.56104 7.52954 8.61392 7.54154C8.62132 7.54337 8.62873 7.54408 8.636 7.54408C8.68057 7.54408 8.72103 7.51347 8.73139 7.468L8.74189 7.42234C8.81253 7.43106 8.89029 7.43786 8.96543 7.43786C9.0289 7.43786 9.09021 7.43326 9.14295 7.42098C9.19568 7.4087 9.22859 7.35611 9.21636 7.30351C9.20407 7.25064 9.15186 7.21693 9.09875 7.22997C8.94359 7.26648 8.64111 7.21258 8.53789 7.18909C8.48618 7.17681 8.4327 7.20976 8.42042 7.26264C8.40846 7.31556 8.44142 7.3682 8.49415 7.3802Z" fill="#464655"/>
<path fill-rule="evenodd" clip-rule="evenodd" d="M18.2029 8.96277L18.45 9.71766C18.4627 9.7577 18.5008 9.78504 18.5428 9.78504C18.5916 9.78309 18.6287 9.75184 18.6385 9.70887C18.7518 9.22449 18.9354 8.56336 19.1199 8.0868C19.2303 7.80164 19.3416 7.58289 19.4373 7.5077C19.4725 7.48035 19.4842 7.4325 19.4656 7.39051C19.4471 7.34949 19.4041 7.32606 19.3592 7.33484C19.3065 7.34461 18.0662 7.58582 17.2029 8.88074C17.1805 8.91395 17.1805 8.95691 17.2029 8.99012C17.2254 9.02234 17.2654 9.03797 17.3045 9.03113L18.0233 8.8827C17.9227 9.12488 17.8582 9.33875 17.8358 9.41688C17.5086 9.21766 17.1395 9.1825 16.8836 9.24891C16.5916 9.32508 16.3465 9.5116 16.2098 9.75965C16.1053 9.95008 16.0779 10.1591 16.1346 10.3329C16.199 10.535 16.3738 10.786 16.6668 10.8846C16.7713 10.9198 16.91 10.9403 17.0799 10.913C17.2274 10.8886 17.3983 10.828 17.5897 10.7089C17.5867 10.8778 17.5027 11.0116 17.3397 11.1112C17.0164 11.3095 16.4481 11.3231 16.074 11.1405C15.5818 10.8993 14.8406 10.7626 14.4266 10.7011L14.0994 10.8544C14.1063 10.8554 14.5027 10.8993 14.9656 10.9979C15.3143 11.0721 15.702 11.1766 15.9891 11.3163C16.1932 11.4159 16.4412 11.4657 16.6883 11.4657C16.9656 11.4657 17.241 11.4022 17.4432 11.2782C17.5779 11.1962 17.6746 11.0917 17.7303 10.9706C17.7654 10.8934 17.784 10.8085 17.7859 10.7177C17.7938 10.243 17.5018 9.87879 17.2234 9.77625C17.0486 9.7118 16.8797 9.75086 16.7733 9.88074C16.6404 10.0419 16.6483 10.2509 16.7918 10.3778C16.9402 10.5096 17.2156 10.5302 17.4901 10.287C17.5223 10.3495 17.5486 10.4188 17.5652 10.4921C17.2557 10.7069 16.9666 10.7782 16.7303 10.6991C16.5057 10.6229 16.3719 10.4286 16.3211 10.2723C16.2811 10.1493 16.3035 9.99695 16.3826 9.8534C16.493 9.65223 16.6932 9.50086 16.9334 9.43836C17.1844 9.37293 17.5945 9.42957 17.9041 9.70789C18.1346 9.91395 18.3856 10.3124 18.2772 11.0399C18.1033 12.2001 17.1736 12.5848 16.8973 12.6737C16.7615 12.368 16.5731 12.0907 16.3885 11.8866C16.2576 11.7411 16.1287 11.6327 16.0223 11.577C15.9744 11.5526 15.9149 11.5712 15.8895 11.619C15.8651 11.6679 15.8836 11.7264 15.9315 11.7518C16.1277 11.8524 16.5233 12.2655 16.7518 12.829C16.9988 13.4374 17.3934 13.7821 17.9256 13.8534C17.9803 13.8612 18.0252 13.8759 18.0633 13.8983C18.0994 13.9198 18.1277 13.9491 18.1502 13.9862C18.2147 14.0956 18.2117 14.2606 18.1873 14.4061C18.0623 14.3261 17.8592 14.3007 17.7479 14.3856C17.6785 14.4393 17.659 14.5233 17.6951 14.6112C17.7078 14.6415 17.7166 14.7138 17.7244 14.8046C17.7313 14.8886 17.7361 14.9901 17.741 15.0897C17.7723 15.6884 17.8123 16.1581 18.0086 16.3173C18.0652 16.3632 18.1336 16.3827 18.2039 16.37C18.5916 16.3095 18.7332 16.3915 18.826 16.5341C18.8318 16.5429 18.8484 16.5692 18.8026 16.618C18.7508 16.6727 18.6551 16.7108 18.5682 16.703C18.5399 16.7001 18.5125 16.6923 18.4881 16.6786C18.2557 16.5458 18.0936 16.6024 17.8192 16.6962L17.6688 16.747C17.4012 16.8339 17.1258 16.7909 16.9002 16.7557L16.8738 16.7528C16.8211 16.744 16.7713 16.7352 16.7274 16.7323C16.6014 16.7196 16.4861 16.7831 16.3738 16.8436C16.2371 16.9188 16.1111 16.9882 15.9617 16.9423C15.8924 16.9218 15.869 16.8866 15.8582 16.8622C15.8484 16.8417 15.8436 16.8182 15.8426 16.7938C15.8387 16.7313 15.8563 16.662 15.8729 16.6132C15.9344 16.6024 15.992 16.6014 16.0506 16.6054L16.116 16.6102C16.1785 16.6161 16.242 16.622 16.3113 16.62C16.3817 16.6171 16.4588 16.6044 16.5447 16.5731C16.5955 16.5546 16.6219 16.4979 16.6033 16.4471C16.5945 16.4247 16.5789 16.4071 16.5594 16.3954C16.535 16.3817 16.5057 16.3788 16.4774 16.3886C16.4012 16.4169 16.3348 16.4247 16.2713 16.4247C16.2264 16.4247 16.1824 16.4198 16.1365 16.4149C16.033 16.4042 15.9168 16.3925 15.7772 16.4296C15.7557 16.4354 15.7234 16.4384 15.699 16.3983C15.6805 16.368 15.6727 16.3221 15.6834 16.2743C15.6902 16.2411 15.7068 16.2059 15.7342 16.1747C15.7859 16.1171 15.8846 16.119 15.9764 16.1386C16.0272 16.1669 16.0926 16.1903 16.1766 16.2069C16.2244 16.2167 16.2723 16.1874 16.2879 16.1415C16.3035 16.0956 16.283 16.0438 16.2391 16.0223C16.2274 16.0165 16.1522 15.9804 16.0516 15.955C16.0233 15.9345 16.0047 15.9091 15.9891 15.8778C15.9744 15.8495 15.9627 15.8163 15.949 15.7772L15.9276 15.7157C15.9139 15.6815 15.8973 15.6552 15.8787 15.6356C15.9266 15.6151 15.9725 15.6054 16.0174 15.6083C16.118 15.6151 16.2078 15.6835 16.285 15.8124C16.5399 16.2362 16.9617 16.2411 16.9793 16.2411C17.0203 16.2411 17.0565 16.2157 17.0711 16.1776C17.3885 15.3397 16.9647 14.5292 16.9461 14.495C16.907 14.4266 16.0018 12.8973 14.0858 12.4843C12.7049 12.1854 11.0369 12.9647 10.9666 12.9979C10.95 13.0057 10.9354 13.0175 10.9256 13.0331C10.7274 13.3397 10.3963 14.1542 10.6404 14.7108C10.7234 14.9013 10.743 15.0516 10.699 15.1581C10.6805 15.204 10.6502 15.243 10.6043 15.2802C10.5789 15.3007 10.5486 15.3202 10.5135 15.3388C10.5008 15.2167 10.4578 15.0575 10.3318 14.9872C10.2576 14.9462 10.1697 14.9442 10.0692 14.9804C10.0027 15.0038 9.93146 15.0438 9.85529 15.0995C9.39728 15.4364 8.74493 16.2304 8.8045 16.5741C8.81915 16.6591 8.87189 16.7196 8.95294 16.744C9.03204 16.7675 9.12872 16.787 9.23126 16.8085C9.36798 16.8368 9.5174 16.8671 9.63361 16.911C9.6922 16.9325 9.742 16.9569 9.77716 16.9862C9.492 16.9501 8.93927 16.8993 8.72052 17.0214C8.46271 17.1669 8.02032 17.2596 7.71173 17.1473C7.59943 17.1005 7.34845 17.0643 7.20294 17.2616C7.14825 17.3358 7.06329 17.3554 7.00763 17.3368C6.97736 17.327 6.9588 17.3065 6.94708 17.2821C6.93439 17.2557 6.93048 17.2245 6.93048 17.1971C6.93048 17.0292 7.04962 16.9755 7.13849 16.9589C7.17072 16.953 7.19904 16.952 7.21661 16.952C7.27032 16.952 7.31427 16.9081 7.31427 16.8544C7.31427 16.7997 7.27032 16.7557 7.21661 16.7557C7.11798 16.7557 7.03107 16.7772 6.9588 16.8153C6.92072 16.8358 6.88654 16.8602 6.85724 16.8886C6.77911 16.8475 6.72833 16.7987 6.70978 16.743C6.69513 16.6962 6.70294 16.6483 6.71661 16.6083C6.7254 16.5839 6.73615 16.5624 6.74493 16.5468C6.79083 16.4696 6.87091 16.4286 6.91974 16.4091C6.99786 16.4823 7.08478 16.5409 7.15314 16.579L7.22638 16.6171C7.27521 16.6386 7.33282 16.6161 7.35529 16.5663C7.37677 16.5165 7.35431 16.4589 7.3045 16.4374C7.17365 16.3798 6.93341 16.202 6.92169 16.0536C6.91974 16.0263 6.93146 16.0018 6.95099 15.9823C6.96954 15.9647 6.99396 15.9511 7.01935 15.9452C7.05743 15.9354 7.15118 15.9286 7.20782 16.0595C7.35138 16.3905 7.81818 16.6239 7.83771 16.6337C7.85138 16.6405 7.86603 16.6444 7.88068 16.6444C7.90509 16.6444 7.92853 16.6356 7.94708 16.619C7.9881 16.5809 8.96466 15.6786 8.97052 14.203L8.75665 14.4989C8.65118 15.5389 8.04181 16.2411 7.8631 16.4257C7.742 16.3563 7.4754 16.1854 7.38751 15.9823C7.3045 15.7899 7.14923 15.7352 7.02325 15.747C6.98126 15.6923 6.88654 15.5897 6.75275 15.5751C6.71173 15.5712 6.65802 15.5731 6.59943 15.6005C6.56329 15.6171 6.52521 15.6434 6.48712 15.6815C6.44904 15.7196 6.44904 15.7821 6.48712 15.8202C6.52521 15.8583 6.58771 15.8593 6.62579 15.8202C6.68146 15.7655 6.71857 15.7684 6.73126 15.7704C6.76935 15.7743 6.80548 15.8016 6.83478 15.83C6.76251 15.8905 6.71857 15.9755 6.7254 16.0692C6.73029 16.1346 6.75568 16.1962 6.78986 16.2528C6.71857 16.2899 6.63263 16.3514 6.57599 16.4481L6.56915 16.4608C6.45197 16.4677 6.24103 16.5507 6.2088 16.8231C6.20197 16.8768 6.24005 16.9257 6.29376 16.9325L6.30646 16.9335C6.32892 16.9335 6.3504 16.9257 6.367 16.912C6.38654 16.8964 6.40021 16.8739 6.40314 16.8466C6.41486 16.7489 6.46271 16.702 6.50665 16.6786C6.50568 16.7186 6.50861 16.7606 6.52325 16.8046C6.54279 16.8641 6.57892 16.9179 6.62872 16.9657C6.66388 16.9989 6.70685 17.0292 6.75665 17.0555C6.74396 17.0956 6.73615 17.1386 6.73517 17.1854C6.67169 17.2167 6.57892 17.2763 6.53107 17.3768C6.49591 17.453 6.49298 17.537 6.52423 17.621C6.53888 17.661 6.57697 17.6854 6.617 17.6854C6.62775 17.6854 6.63947 17.6835 6.65118 17.6786C6.70197 17.66 6.72736 17.6034 6.7088 17.5526C6.69122 17.5067 6.70001 17.4784 6.7088 17.4618C6.72247 17.4305 6.75177 17.4042 6.78107 17.3846C6.8172 17.4501 6.87286 17.4989 6.94611 17.5233C6.96564 17.5302 6.98712 17.535 7.00861 17.537L7.04962 17.5399C7.1297 17.5399 7.21173 17.5116 7.27911 17.4598C7.30939 17.4374 7.33673 17.41 7.36017 17.3788C7.45099 17.2557 7.62872 17.3261 7.64044 17.3309C8.01154 17.4657 8.51349 17.3641 8.8172 17.1932C8.98517 17.0985 9.57892 17.1493 9.9129 17.204C9.93927 17.2079 9.96759 17.202 9.98907 17.1854C10.0106 17.1688 10.0242 17.1444 10.0272 17.1171C10.0604 16.7792 9.62286 16.6893 9.27032 16.6171L9.12189 16.5829C9.07892 16.5721 9.03693 16.5585 8.99689 16.5419C8.96271 16.3427 9.47931 15.62 9.97052 15.2577C10.0916 15.1698 10.1883 15.1337 10.2371 15.16C10.3065 15.1981 10.3289 15.3749 10.3221 15.4833C10.3152 15.5751 10.41 15.5985 10.4793 15.5702C10.532 15.5429 10.6209 15.5731 10.6824 15.6054C10.6756 15.6249 10.6707 15.6454 10.6678 15.6659C10.6658 15.6825 10.6658 15.7001 10.6678 15.7186C10.6717 15.7694 10.6873 15.8192 10.7117 15.868C10.6151 15.8563 10.5233 15.868 10.4578 15.9179C10.4354 15.9354 10.4178 15.9569 10.4002 15.9784C10.2596 15.995 10.0867 16.0819 10.0457 16.288C10.035 16.3407 10.0692 16.3925 10.1229 16.4032L10.1414 16.4052C10.1873 16.4052 10.2283 16.3729 10.2381 16.3261C10.2479 16.2772 10.2733 16.247 10.3006 16.2245L10.3026 16.2723C10.3045 16.2919 10.3084 16.3114 10.3143 16.33C10.3328 16.3905 10.3856 16.4804 10.5164 16.5311L10.4861 16.5946C10.3875 16.6268 10.2401 16.7284 10.2401 16.9442C10.2401 16.9677 10.2488 16.9891 10.2625 17.0057C10.2801 17.0282 10.3074 17.0419 10.3377 17.0419C10.3924 17.0419 10.4363 16.9979 10.4363 16.9442C10.4363 16.9198 10.4402 16.9003 10.4461 16.8827L10.4578 16.8554L10.4686 16.8973C10.492 16.9598 10.5633 17.0761 10.7635 17.0761C10.8289 17.0761 10.909 17.0634 11.0057 17.0321C11.2391 16.9559 11.4041 16.9481 11.5643 16.9403C11.6697 16.9354 11.7713 16.9305 11.8826 16.9081C11.9764 16.8895 12.077 16.8583 12.1932 16.8046C12.5604 16.6337 13.0145 16.6913 13.2527 16.7411C13.3817 16.7675 13.5076 16.705 13.5594 16.5868C13.5721 16.5585 13.5809 16.5321 13.5897 16.5067L13.6014 16.4745C13.7127 16.4882 13.7352 16.5956 13.7381 16.62C13.744 16.6698 13.7859 16.7069 13.8358 16.7069H13.8445C13.8992 16.7011 13.9393 16.6532 13.9334 16.5985C13.9227 16.496 13.8465 16.3124 13.6434 16.2802C13.6463 16.2108 13.6326 16.1542 13.5984 16.1112C13.5613 16.0653 13.4871 16.0175 13.3416 16.0468C13.2684 16.0624 13.2137 16.0712 13.1736 16.0761C13.1326 16.0819 13.1063 16.0839 13.0906 16.0819L13.1014 16.0477L13.1326 15.9706C13.2205 15.7733 13.8016 15.2538 14.1824 14.9423C14.2742 14.9218 14.3904 14.9198 14.4178 14.9511C14.4276 14.9618 14.4276 14.997 14.4061 15.0546C14.3904 15.0946 14.4031 15.1405 14.4373 15.1669C14.4715 15.1932 14.5184 15.1942 14.5535 15.1698C14.5692 15.1591 14.9246 14.9061 14.9178 14.5985C14.9139 14.4432 14.8231 14.3075 14.6483 14.1971C14.4998 14.1034 14.4139 13.995 14.3943 13.8749C14.3738 13.7489 14.4266 13.6376 14.4627 13.578C14.6033 13.6454 14.744 13.7323 14.8846 13.8485C15.7127 14.5341 16.4178 14.6425 16.7977 14.6405C16.8777 14.8173 17.1121 15.4188 16.9119 16.038C16.8602 16.0282 16.785 16.0077 16.7049 15.9628C16.619 15.9139 16.5272 15.8358 16.4529 15.7118C16.3133 15.4794 16.1463 15.4208 16.0301 15.413C15.9344 15.4061 15.8358 15.4315 15.741 15.4852C15.658 15.5321 15.5779 15.6014 15.5076 15.6893C15.4754 15.7304 15.4803 15.788 15.5184 15.8231C15.5555 15.8583 15.6141 15.8573 15.6512 15.8221C15.6766 15.7987 15.7234 15.7694 15.743 15.785L15.7635 15.8417L15.7986 15.9354C15.7205 15.9471 15.6453 15.9794 15.5867 16.0458C15.5486 16.0897 15.5242 16.1395 15.5067 16.1923C15.4031 16.2108 15.327 16.2636 15.2801 16.3065C15.2459 16.3378 15.2274 16.3641 15.2254 16.3671C15.1951 16.411 15.2068 16.4716 15.2518 16.5018C15.2684 16.5126 15.2879 16.5184 15.3065 16.5184C15.3377 16.5184 15.369 16.5038 15.3875 16.4764C15.3895 16.4735 15.4256 16.4247 15.491 16.3973C15.4988 16.4335 15.5115 16.4696 15.532 16.5018C15.5662 16.5565 15.6141 16.5936 15.6688 16.6132C15.6609 16.6415 15.6551 16.6718 15.6443 16.7069C15.41 16.8055 15.4578 17.0975 15.5154 17.2372C15.5311 17.2753 15.5682 17.2977 15.6063 17.2977C15.619 17.2977 15.6317 17.2958 15.6434 17.2909C15.6932 17.2704 15.7176 17.2128 15.6971 17.163C15.6961 17.161 15.6414 17.0165 15.6785 16.9413C15.7195 17.0331 15.7977 17.0985 15.9051 17.1307C15.9578 17.1464 16.0086 17.1532 16.0565 17.1532C16.2176 17.1532 16.3533 17.079 16.4686 17.0165C16.5574 16.9677 16.6424 16.9227 16.7088 16.9276C16.7547 16.9315 16.8065 16.9393 16.8631 16.9481L16.8729 16.9501C16.9969 16.9686 17.1453 16.9921 17.3055 16.993C17.4412 16.994 17.5848 16.9794 17.7283 16.9335L17.8807 16.8827C18.0252 16.8339 18.116 16.8026 18.1951 16.7977C18.2615 16.7938 18.3201 16.8085 18.3904 16.8495C18.5779 16.9569 18.8201 16.8846 18.9451 16.7528C18.9842 16.7118 19.0067 16.6659 19.0184 16.619C19.0818 16.6444 19.1346 16.6727 19.1424 16.6874C19.1238 16.7391 19.1512 16.7948 19.202 16.8134L19.2195 16.8182H19.2352C19.2752 16.8182 19.3123 16.7938 19.327 16.7538C19.3455 16.702 19.3406 16.6493 19.3143 16.6005C19.2498 16.4823 19.0604 16.4198 18.9647 16.3944C18.8875 16.2889 18.7899 16.2186 18.6639 16.1825C18.534 16.1464 18.3738 16.1454 18.1736 16.1766C18.158 16.1796 18.1453 16.1766 18.1317 16.1649C18.0516 16.1005 18.0067 15.8856 17.9793 15.6454C17.9568 15.452 17.9451 15.2421 17.9373 15.0809C17.9217 14.7909 17.9109 14.6229 17.867 14.5419C17.8787 14.5321 17.9168 14.5272 17.9617 14.5321C18.0047 14.537 18.0535 14.5507 18.0916 14.578C18.1287 14.6054 18.1326 14.6298 18.1229 14.6581L18.119 14.6698C18.1072 14.6991 18.1111 14.7304 18.1268 14.7557C18.1375 14.7733 18.1541 14.788 18.1746 14.7958C18.2244 14.8153 18.2811 14.7919 18.3016 14.7421L18.3094 14.7206C18.327 14.6718 18.3699 14.538 18.3895 14.3798C18.41 14.2177 18.4041 14.0311 18.3182 13.8866C18.243 13.7587 18.119 13.6825 17.951 13.6591C17.5233 13.6014 17.1971 13.328 16.9783 12.8524C17.3104 12.7352 18.2879 12.2919 18.4705 11.0692C18.5428 10.5868 18.4695 10.2313 18.3426 9.97059C18.2557 9.79188 18.1434 9.65906 18.035 9.56141L17.9959 9.53113C18.0037 9.52039 18.0135 9.51258 18.0164 9.49988C18.0174 9.495 18.0848 9.24793 18.2029 8.96277ZM15.6785 16.9413C15.6776 16.9393 15.6776 16.9364 15.6766 16.9345L15.6785 16.9413ZM15.6443 16.7069C15.6463 16.7059 15.6492 16.7059 15.6512 16.705L15.6443 16.7069ZM18.7967 7.74988C18.4207 7.93055 17.9305 8.24891 17.5106 8.79481L18.1229 8.66883C18.1932 8.5243 18.2752 8.38172 18.367 8.26063C18.4002 8.21766 18.4617 8.20984 18.5047 8.24305C18.5369 8.26844 18.5496 8.30848 18.5399 8.34559C18.5369 8.35828 18.5311 8.37 18.5233 8.38074C18.4832 8.43152 18.4109 8.53895 18.326 8.71473L18.5301 9.33875C18.6219 8.98231 18.7781 8.42274 18.9549 7.98231C19.0106 7.84363 19.0682 7.71766 19.1258 7.61316C19.033 7.64539 18.9217 7.69031 18.7967 7.74988ZM14.5486 12.827L14.3777 13.3329C14.4852 13.372 14.5906 13.4227 14.6942 13.4833L15.0203 13.0282C14.8729 12.954 14.7156 12.8856 14.5486 12.827ZM13.9119 13.2245C14.0057 13.2333 14.0984 13.2509 14.1902 13.2743L14.3621 12.7655C14.2586 12.7352 14.1541 12.7059 14.0438 12.6825L13.9754 12.6708L13.9119 13.2245ZM13.4217 13.2411C13.5203 13.2255 13.619 13.2167 13.7156 13.2157L13.7811 12.6415L13.6297 12.6288C13.5438 12.6229 13.4559 12.621 13.368 12.622L13.4217 13.2411ZM13.2283 13.2811L13.1717 12.6298C13.0291 12.6386 12.8885 12.6552 12.7488 12.6757L12.9227 13.3817C13.0252 13.3417 13.1277 13.3065 13.2283 13.2811ZM12.6483 14.4071C12.7176 14.4491 12.7918 14.4862 12.8699 14.5136C12.9471 14.3095 13.0057 14.1259 13.0379 14.0009C13.0623 13.9061 13.0574 13.829 13.0223 13.7704L13.0076 13.7499L12.9988 13.7411L12.6483 14.4071ZM12.8328 13.6356C12.6902 13.703 12.5574 13.7811 12.4354 13.8622C12.3524 13.9169 12.2703 13.9686 12.1883 14.0175C12.2469 14.0848 12.3504 14.1932 12.4842 14.2968L12.8328 13.6356ZM12.7401 13.4628L12.5555 12.7089C12.4227 12.7343 12.2938 12.7626 12.1707 12.7948L12.4549 13.618C12.5506 13.5604 12.6453 13.5077 12.7401 13.4628ZM12.2801 13.7138L11.9813 12.8456C11.8592 12.8807 11.7469 12.9169 11.6434 12.9511L11.9334 13.9354C12.0496 13.871 12.1678 13.8016 12.2869 13.7235L12.2801 13.7138ZM11.7557 14.0282L11.4578 13.0165C11.2654 13.0878 11.1297 13.1464 11.076 13.1708L11.0633 13.1932L11.3875 14.2059C11.5018 14.1561 11.6268 14.0966 11.7557 14.0282ZM11.2059 14.2811L10.9383 13.4462C10.8182 13.7284 10.7117 14.1132 10.7625 14.4374C10.8416 14.4139 11.0018 14.3622 11.2059 14.2811ZM10.8201 14.6395C10.9276 14.8837 10.9471 15.0809 10.8807 15.2401C10.8484 15.3153 10.7986 15.3729 10.742 15.4218L10.8055 15.455L10.8201 15.4432L10.8484 15.4257C11.0545 15.3173 11.2 15.4774 11.3279 15.62C11.4178 15.7196 11.5096 15.8212 11.6326 15.8749C11.7098 15.9091 11.7996 15.9237 11.908 15.9061C12.243 15.8514 12.576 15.2411 12.7986 14.6962C12.4061 14.5555 12.1131 14.2352 12.0145 14.1151C11.7049 14.286 11.4178 14.41 11.1961 14.495C11.0213 14.5624 10.8875 14.6054 10.8143 14.6268L10.8201 14.6395ZM14.3055 14.1561C14.2498 14.0809 14.2147 13.9989 14.201 13.911C14.1736 13.745 14.2303 13.5995 14.2791 13.5096C13.8514 13.3612 13.4344 13.4061 13.0643 13.5399C13.1082 13.5702 13.1551 13.6093 13.1912 13.6708C13.2537 13.7763 13.2664 13.9032 13.2283 14.0497C13.2225 14.0692 12.6922 15.9774 11.9393 16.0995C11.5526 16.16 11.3387 15.9247 11.1824 15.7518C11.0477 15.6024 11.0027 15.5663 10.9393 15.5995C10.867 15.6376 10.8611 15.6786 10.8631 15.7098C10.866 15.743 10.8807 15.7792 10.9041 15.8163C10.9432 15.8759 11.0047 15.9364 11.075 15.9843C11.1434 16.0145 11.201 16.0448 11.2352 16.0643C11.2801 16.0888 11.2986 16.1425 11.2781 16.1893C11.2576 16.2362 11.2049 16.2596 11.157 16.243C11.1004 16.2245 11.0428 16.1962 10.9871 16.161C10.8113 16.0848 10.6307 16.0399 10.5779 16.0809C10.5164 16.1278 10.4822 16.2157 10.5018 16.2772C10.5164 16.3261 10.5652 16.3514 10.617 16.3651C10.6522 16.3739 10.6893 16.3778 10.7176 16.3788C11.1219 16.3954 11.2859 16.3954 11.2859 16.3954C11.324 16.3954 11.3563 16.4159 11.3729 16.4471C11.3807 16.4608 11.3846 16.4764 11.3846 16.493C11.3846 16.5477 11.3406 16.5917 11.2859 16.5917L11.0975 16.5878L10.743 16.5761C10.6805 16.6171 10.6219 16.7548 10.6522 16.8339C10.6883 16.9276 10.8856 16.871 10.9451 16.8524C11.2039 16.7684 11.3914 16.7587 11.5565 16.7509C11.7361 16.7421 11.8914 16.7352 12.1111 16.6337C12.5291 16.4393 13.0311 16.5018 13.2928 16.5565C13.3289 16.5634 13.366 16.5468 13.3807 16.5136C13.4598 16.3348 13.4539 16.2557 13.4461 16.2421L13.4285 16.2401L13.3817 16.246C13.1365 16.2968 12.9988 16.3065 12.9276 16.2177C12.8582 16.1317 12.9022 16.0126 12.9539 15.8973C13.0897 15.5907 13.9754 14.8641 14.076 14.7831C14.0877 14.7743 14.0994 14.7675 14.1131 14.7645C14.1668 14.7499 14.4393 14.6874 14.5643 14.8261C14.576 14.8388 14.5867 14.8554 14.5965 14.8739C14.6639 14.7968 14.7244 14.7011 14.7215 14.6093C14.7195 14.5233 14.66 14.4432 14.5438 14.37C14.4422 14.3055 14.3631 14.2343 14.3055 14.1561ZM15.1951 13.121L14.8602 13.5897C14.91 13.6249 14.9608 13.6639 15.0096 13.705L15.1092 13.7811L15.5399 13.3368C15.4315 13.2616 15.3172 13.1903 15.1951 13.121ZM16.1307 13.8202L15.7 14.163C15.8074 14.2177 15.91 14.2636 16.0086 14.2997L16.3563 14.0526L16.2693 13.9589L16.1307 13.8202ZM15.2664 13.9013C15.3504 13.9608 15.4324 14.0136 15.5135 14.0614L15.9852 13.6854C15.8983 13.6073 15.8026 13.5292 15.701 13.452L15.2664 13.9013ZM16.4852 14.2011L16.242 14.3749C16.407 14.4188 16.5555 14.4423 16.6766 14.4491L16.5604 14.2929L16.4852 14.2011ZM16.9217 10.2382C17.0096 10.3163 17.1863 10.3124 17.3797 10.1307C17.3113 10.0526 17.2332 9.99598 17.1551 9.96766C17.1268 9.95691 17.0936 9.94813 17.0594 9.94813C17.0125 9.94813 16.9637 9.96473 16.9246 10.0126C16.8582 10.0927 16.8572 10.1815 16.9217 10.2382Z" fill="#464655"/>
<path fill-rule="evenodd" clip-rule="evenodd" d="M14.4277 10.7051C14.6845 10.624 14.995 10.6006 15.3671 10.6855C15.4335 10.7031 15.4999 10.6387 15.4853 10.5713C15.4843 10.5654 15.3759 10.0088 15.6747 9.625C15.8544 9.39453 16.1493 9.26855 16.5488 9.25C16.6161 9.24707 16.6581 9.17578 16.6337 9.11523C16.2704 8.20801 16.2909 7.19531 17.1083 6.52539C17.1484 6.49219 17.1562 6.43262 17.124 6.39062C17.0917 6.34863 17.0331 6.33887 16.9892 6.37012C15.7519 7.23926 14.0409 7.33301 13.3622 7.33301C12.621 7.33301 12.0478 7.50391 11.6308 7.85254C11.3671 8.07227 11.1669 8.3623 11.0263 8.72461C10.9892 8.82227 10.9618 8.9375 10.9394 9.06055C10.9521 8.8877 10.9199 8.73535 10.8417 8.6084C10.7304 8.42773 10.5595 8.35156 10.4833 8.3252L10.4814 8.19336C10.5546 8.18164 10.6347 8.20801 10.7011 8.24121C10.7548 8.26855 10.7997 8.2998 10.8232 8.31934C10.8866 8.37402 10.9902 8.3252 10.9843 8.23828C10.9706 8.04883 10.9091 7.90039 10.8271 7.78516C10.7118 7.62305 10.5546 7.5293 10.4306 7.48535C10.6181 7.33691 10.8173 7.09375 10.9394 6.69727C10.9511 6.6582 10.9384 6.61719 10.9072 6.5918C10.8886 6.57715 10.8661 6.56934 10.8437 6.57031C10.8281 6.57031 10.8124 6.57422 10.7978 6.58203C10.7949 6.58398 10.5947 6.69238 10.2949 6.78125L10.3222 6.4248C10.3251 6.38867 10.3075 6.35449 10.2773 6.33496C10.2616 6.32422 10.2431 6.31934 10.2236 6.31934C10.207 6.31934 10.1904 6.32422 10.1757 6.33203C10.1611 6.34082 9.66399 6.61816 9.15716 6.76562C8.77044 6.66797 8.26751 6.59277 8.0761 6.79102C8.0302 6.83887 7.98821 6.91699 7.99798 7.03711C7.66985 6.96875 6.91399 6.85645 6.45501 7.15234C6.41887 7.17578 6.40227 7.21973 6.41399 7.26172C6.42571 7.30273 6.46282 7.33203 6.50676 7.33301C6.65227 7.33691 6.87688 7.37012 6.97063 7.43164C6.92962 7.54395 6.86126 7.78027 6.92083 8.00781C6.72161 8.06543 6.51262 8.07422 6.25872 7.9375L6.4804 7.88281C6.51946 7.87305 6.54973 7.83984 6.55462 7.79883C6.55657 7.77441 6.54973 7.75 6.53704 7.73145C6.52825 7.71875 6.51653 7.70801 6.50188 7.7002C6.49602 7.69727 5.93743 7.40723 5.47356 6.91895C5.44719 6.8916 5.40716 6.88184 5.37102 6.89355C5.33391 6.90625 5.30852 6.93945 5.30462 6.97656C5.30071 7.0166 5.2177 7.94434 5.92278 8.49414C5.94036 8.50781 5.96184 8.51465 5.98333 8.51465C5.99602 8.51465 6.00969 8.51172 6.02239 8.50684C6.05559 8.49219 6.07805 8.46094 6.08098 8.4248L6.10833 8.07422C6.45989 8.28418 6.75091 8.26465 6.99993 8.18848C7.02044 8.21973 7.04387 8.24902 7.07122 8.27734L7.12102 8.32324L7.1513 8.34473C6.99114 8.7207 6.67278 8.81738 6.65911 8.82129C6.63469 8.82812 6.61516 8.84375 6.60247 8.86328C6.59466 8.87695 6.5888 8.8916 6.58782 8.9082C6.58489 8.94922 6.60833 8.98828 6.64544 9.00488C6.66985 9.01562 7.18255 9.2373 7.75774 9.03223C7.74602 9.12012 7.74798 9.20996 7.86321 9.20996C7.92962 9.20996 8.14837 9.20508 8.39641 9.14746C8.3593 9.49902 8.14544 9.91699 7.9179 10.3584C7.61028 10.9561 7.26653 11.6299 7.27239 12.3105C7.1552 12.1582 7.00872 11.9219 6.93645 11.6064C6.91106 11.4971 6.89446 11.3994 6.87981 11.3096C6.86126 11.2031 6.84466 11.1035 6.81731 11.0098C6.78899 10.9121 6.74895 10.8193 6.68352 10.7295C6.53801 10.5303 6.33294 10.0859 6.34173 9.84277C6.35051 9.61816 6.20305 9.48633 6.05364 9.45508L6.03313 9.4541H6.02239C5.98723 9.38281 5.89153 9.24609 5.67083 9.23047C5.64446 9.22754 5.62005 9.23633 5.60149 9.25293C5.58196 9.26953 5.56829 9.29395 5.56634 9.32129C5.56438 9.34961 5.57415 9.37598 5.5927 9.39453C5.6093 9.41211 5.63176 9.42383 5.65716 9.42578C5.73333 9.43164 5.78118 9.46094 5.81048 9.49023C5.73919 9.52734 5.68059 9.58887 5.63958 9.66797C5.50872 9.5918 5.37591 9.57324 5.27434 9.59668C5.25579 9.60059 5.24016 9.60938 5.22356 9.61816L5.20598 9.62695C5.13958 9.59277 4.96282 9.52637 4.74895 9.66211C4.70305 9.69141 4.68938 9.75195 4.71868 9.79785C4.72844 9.81348 4.74212 9.8252 4.75676 9.83203C4.77044 9.83887 4.78606 9.84277 4.80169 9.84277L4.83196 9.83789L4.85442 9.82812C4.88665 9.80762 4.91692 9.79492 4.94426 9.78711C4.98235 9.77637 5.01555 9.77637 5.0429 9.7793C5.02532 9.81152 5.01165 9.84668 5.00286 9.88184C4.99407 9.91504 4.99016 9.94922 4.99212 9.98145C4.99895 10.1143 5.07512 10.2158 5.19329 10.2598C5.05266 10.2861 4.93255 10.3516 4.86907 10.4404L4.8554 10.4688L4.84954 10.4863C4.75969 10.4951 4.622 10.5557 4.53509 10.7402C4.51165 10.7891 4.53216 10.8467 4.58098 10.8701C4.59466 10.877 4.6093 10.8799 4.62298 10.8799C4.64348 10.8799 4.66301 10.873 4.67962 10.8613C4.69329 10.8525 4.70403 10.8398 4.71184 10.8232C4.75091 10.7412 4.7968 10.709 4.83098 10.6943C4.92376 11.001 5.22649 10.9316 5.40911 10.8887L5.48235 10.8721C5.58489 10.8516 5.76555 11.1504 5.81438 11.3447C5.84759 11.4795 5.78997 11.6445 5.60833 11.9336C5.49798 12.1094 5.52923 12.2363 5.5761 12.3115C5.54973 12.3242 5.5136 12.3311 5.46477 12.3242C5.41204 12.3135 5.36126 12.3545 5.35442 12.4082C5.34759 12.4619 5.38469 12.5117 5.43841 12.5186C5.46282 12.5225 5.48723 12.5234 5.50969 12.5234C5.62298 12.5234 5.69915 12.4844 5.74505 12.4531C5.80852 12.4805 5.87395 12.4902 5.92278 12.4863C6.05852 12.4756 6.14934 12.3574 6.21184 12.21C6.3388 12.9092 6.58098 13.5732 6.73919 13.96C6.80559 14.123 6.85735 14.2373 6.87884 14.2842C6.86419 14.6348 6.48723 14.7188 6.4677 14.7227C6.42473 14.7314 6.39348 14.7666 6.38958 14.8096C6.38567 14.8525 6.41009 14.8936 6.44915 14.9092C6.61516 14.9775 6.75969 15.0049 6.88567 15.0049C7.27337 15.0049 7.47844 14.749 7.5429 14.6504C7.83001 14.5498 8.16594 14.3164 8.2968 14.2207C8.51555 14.3848 8.69719 14.4756 8.75774 14.5039L8.97161 14.208C8.97551 13.3164 9.09954 12.7598 9.14544 12.583C9.21868 12.5791 9.34075 12.5674 9.48723 12.5322C9.68548 12.4834 9.93059 12.3916 10.1601 12.2158C10.2743 12.4199 10.5673 12.8164 11.1054 12.8301C11.1249 12.8301 11.1425 12.8252 11.1572 12.8164C11.1718 12.8076 11.1845 12.7949 11.1933 12.7803L11.204 12.752C11.2089 12.7266 11.204 12.7002 11.1904 12.6787C11.1884 12.6758 11.038 12.4346 11.0722 12.2266C11.1952 12.3467 11.4208 12.5078 11.7411 12.5195C11.7685 12.5195 11.79 12.5098 11.8075 12.4951C11.8202 12.4844 11.83 12.4697 11.8359 12.4541C11.8398 12.4453 11.9755 12.0186 12.3632 11.8184C12.5527 11.7207 12.7724 11.6934 13.0185 11.7363C13.0937 11.749 13.1708 11.7686 13.2509 11.7949C13.2988 11.8105 13.3554 11.7861 13.374 11.7363C13.3866 11.7002 13.5898 11.1709 14.0956 10.8584L14.4277 10.7051ZM5.50091 7.22168C5.51946 7.47363 5.59759 7.88867 5.90032 8.20898L5.92083 7.94238L5.87102 7.9043L5.81829 7.86035C5.77825 7.82422 5.77532 7.76172 5.81145 7.72168C5.84759 7.68164 5.91009 7.67773 5.95012 7.71387L6.01653 7.76953L6.03997 7.78809L6.19622 7.75C6.12688 7.70703 6.04485 7.65332 5.95501 7.58984C5.81634 7.49023 5.65813 7.36719 5.50091 7.22168ZM11.206 8.80469C12.5615 9.78418 13.1142 10.9551 13.2978 11.4443C13.5097 11.0703 14.0488 10.3682 15.0673 10.4434C14.7939 10.2246 14.2929 9.86914 13.5575 9.50586C12.954 9.20801 12.1933 8.90527 11.2685 8.66895C11.249 8.71191 11.2265 8.75 11.2089 8.79492L11.206 8.80469ZM15.2949 10.0186C15.3271 9.84961 15.3925 9.66699 15.5185 9.50488C15.6845 9.29199 15.9286 9.1582 16.2392 9.09473C15.6865 8.82129 14.1767 8.24023 11.4706 8.35645L11.4491 8.35156L11.4218 8.39062C11.3984 8.42285 11.3749 8.4541 11.3544 8.48926C12.4657 8.77734 13.3388 9.15332 13.9882 9.50391C14.624 9.84668 15.0458 10.165 15.2685 10.3516C15.2665 10.2559 15.2724 10.1406 15.2949 10.0186ZM16.5322 6.86621C15.3407 7.45605 13.9599 7.52832 13.3622 7.52832C12.5741 7.52832 11.997 7.73828 11.6064 8.15625C14.3154 8.06348 15.8007 8.64648 16.3495 8.92773C16.205 8.50098 16.0204 7.63672 16.5322 6.86621ZM11.1493 9.00781C11.1103 9.18555 11.0859 9.39648 11.0615 9.61816C11.0488 9.73438 11.0351 9.85449 11.0185 9.97363L11.0253 9.97852C11.621 10.6719 11.7831 11.5527 11.8271 12.0459C11.9247 11.9043 12.0673 11.749 12.2714 11.6436C12.5214 11.5146 12.8115 11.4912 13.1308 11.5635C12.9765 11.1406 12.4511 9.97363 11.1493 9.00781ZM10.582 12.4297C10.6757 12.5088 10.7939 12.5781 10.9384 12.6113C10.873 12.4473 10.8163 12.1934 10.9609 11.9883C10.9794 11.9619 11.0097 11.9473 11.0419 11.9473C11.0732 11.9473 11.1034 11.9629 11.122 11.9893C11.124 11.9922 11.3105 12.252 11.6445 12.3105C11.6366 11.9932 11.5605 11.0215 10.9902 10.252C10.9853 10.3135 10.9599 10.6133 10.9628 10.9512C10.9648 11.1719 10.9784 11.4082 11.0175 11.6064C11.0419 11.7324 10.8495 11.7705 10.8251 11.6445C10.7792 11.4131 10.7665 11.1377 10.7665 10.8906C10.6825 11.0459 10.5751 11.1768 10.4257 11.2637L10.3984 11.2793C9.79973 11.627 9.3554 11.8848 9.19719 12.3809C9.39739 12.3604 9.79778 12.2832 10.1259 11.9883C10.1435 11.9717 10.1669 11.9629 10.1913 11.9629L10.2128 11.9658C10.2353 11.9707 10.2558 11.9844 10.2704 12.002L10.2822 12.0244C10.288 12.0391 10.3798 12.2588 10.582 12.4297ZM10.3749 9.39648C10.3554 9.49805 10.3339 9.5957 10.3115 9.6875C10.412 9.73242 10.5146 9.83496 10.5907 9.92871C10.6386 9.66016 10.4804 9.48242 10.3749 9.39648ZM10.4316 10.5479C10.3574 10.3184 10.1786 10.2832 10.1493 10.2793C10.1327 10.3975 10.1357 10.502 10.1513 10.5938C10.2499 10.541 10.3476 10.5332 10.4316 10.5479ZM10.5976 10.793C10.5654 10.8066 10.5273 10.8037 10.499 10.7822C10.4843 10.7715 10.3544 10.6846 10.2089 10.79C10.2402 10.8633 10.2773 10.9238 10.3124 10.9707C10.3368 11.0039 10.3613 11.0312 10.3808 11.0508C10.4687 10.9854 10.5409 10.8984 10.5976 10.793ZM10.9072 9.2666C10.8974 9.30078 10.871 9.32715 10.8368 9.33594L10.8124 9.33984C10.7958 9.33984 10.7802 9.33594 10.7656 9.32812L10.7402 9.30859C10.6913 9.25586 10.5556 9.13281 10.4277 9.07324L10.412 9.18164C10.6318 9.31738 10.9482 9.67676 10.7128 10.1816C10.705 10.1992 10.6923 10.2129 10.6767 10.2227C10.663 10.2314 10.6474 10.2373 10.624 10.2383C10.5907 10.2383 10.5605 10.2217 10.5419 10.1943C10.4726 10.0879 10.3486 9.93457 10.2587 9.87793C10.246 9.92188 10.2324 9.96387 10.2177 10.002L10.1913 10.0889C10.3486 10.1162 10.6181 10.2676 10.6542 10.6797C10.7812 10.373 10.8261 9.96973 10.8671 9.59668L10.9072 9.2666ZM10.745 9.04492C10.7538 8.91406 10.7304 8.80176 10.6747 8.71094C10.6171 8.61816 10.537 8.56543 10.4775 8.53516C10.4736 8.61914 10.4677 8.70312 10.4599 8.78711L10.4521 8.86914C10.5605 8.90723 10.665 8.97852 10.745 9.04492ZM10.4687 7.99609C10.5673 7.98535 10.665 8.00977 10.745 8.04492C10.6718 7.84375 10.5234 7.74219 10.4199 7.69434C10.4423 7.78613 10.4579 7.8877 10.4687 7.99609ZM10.0937 6.83203L10.1122 6.58691C9.96868 6.66016 9.74212 6.7666 9.49016 6.86035L9.59661 6.89551C9.77434 6.8916 9.94134 6.86621 10.0937 6.83203ZM7.19329 8.11914C7.20891 8.1377 7.22649 8.15527 7.24602 8.17188C7.28118 8.2002 7.40911 8.25879 7.55755 8.28711C7.63665 8.30273 7.72063 8.31055 7.79973 8.30176C7.89934 8.29004 7.97356 8.25195 8.02044 8.18945C8.03118 8.17383 8.03411 8.14355 8.01555 8.10938C8.00091 8.08301 7.94915 8.01172 7.79876 7.98828C7.75481 7.98145 7.70208 7.97852 7.6386 7.98242C7.51458 7.99023 7.38665 8.04102 7.24993 8.0957L7.19329 8.11914ZM7.83489 8.78613C7.86712 8.76953 7.90618 8.77246 7.93548 8.79395C7.96477 8.81543 7.9804 8.85156 7.97551 8.88672L7.95891 9.00977C8.18645 8.99707 8.70794 8.93555 8.96477 8.63574C9.09661 8.48145 9.14055 8.28711 9.09759 8.04102C9.08782 7.9873 9.12395 7.93652 9.17669 7.92773C9.2304 7.91699 9.28118 7.95312 9.29094 8.00684C9.34368 8.31055 9.28411 8.56445 9.11321 8.76367C9.06341 8.82129 9.00676 8.87012 8.94622 8.91309C9.10149 9.43457 8.89348 9.99023 8.6718 10.5791C8.59661 10.7773 8.51946 10.9824 8.45403 11.1914C8.21282 11.959 8.66106 12.6133 8.90032 12.7734C8.93059 12.6191 8.95696 12.5195 8.96868 12.4766L8.97551 12.4561C9.11126 11.8252 9.59563 11.5195 10.2157 11.1592C10.0585 10.9844 9.80266 10.5771 10.0331 9.93555C10.2392 9.36328 10.3915 8.16797 10.1972 7.63086C10.0673 7.69434 9.97161 7.71094 9.96087 7.71191C9.90716 7.72168 9.85735 7.68359 9.84856 7.62988C9.84075 7.57617 9.87688 7.52637 9.93059 7.51855C9.95208 7.51465 10.4023 7.43359 10.6679 6.8584C10.4325 6.95508 10.0361 7.08496 9.58196 7.0918C9.57122 7.08984 9.5595 7.09082 9.54778 7.08691C9.08782 6.9248 8.37005 6.76758 8.2177 6.92676C8.19231 6.95312 8.18548 6.99512 8.19719 7.05078C8.20208 7.0752 8.21087 7.10254 8.22259 7.13184C8.23626 7.16699 8.22942 7.20605 8.20501 7.23438C8.17962 7.26172 8.14153 7.27246 8.1054 7.2627C8.09759 7.26074 7.41887 7.07812 6.88958 7.18848C7.00384 7.2207 7.11223 7.27148 7.16692 7.35352C7.18645 7.38281 7.18841 7.41895 7.17473 7.4502C7.17278 7.45312 7.05559 7.70898 7.10735 7.94141L7.17766 7.91406C7.32219 7.85547 7.47161 7.7959 7.62786 7.78711C8.00969 7.76465 8.14641 7.94043 8.18841 8.01562C8.24114 8.11426 8.23723 8.22559 8.17766 8.30566C8.12688 8.375 8.05657 8.42773 7.97161 8.46094C7.92571 8.47852 7.87591 8.49023 7.82317 8.49707L7.76165 8.50195L7.72649 8.50293C7.58489 8.50293 7.44231 8.46875 7.32805 8.42773C7.28509 8.52734 7.23235 8.61035 7.17669 8.68066C7.10247 8.77246 7.02239 8.84082 6.95012 8.89062C7.16301 8.93359 7.49798 8.9541 7.83489 8.78613ZM8.17083 13.8506C8.30462 13.7471 8.64739 13.4727 8.81634 13.2656L8.82903 13.2559C8.84075 13.1514 8.85247 13.0557 8.86614 12.9717C8.85637 12.9707 8.84661 12.9697 8.83782 12.9648C8.80559 12.9482 8.77044 12.9229 8.73235 12.8906C8.61907 13.0352 8.31829 13.3467 7.81634 13.4316C7.92473 13.5947 8.04778 13.7334 8.17083 13.8506ZM8.09563 11.5527C7.90618 11.5527 7.7011 11.501 7.622 11.4785C7.56341 11.6484 7.51751 11.8203 7.49114 11.9922C7.68841 12 8.05266 11.9922 8.20891 11.8896C8.19231 11.7793 8.18645 11.6631 8.19329 11.543L8.16985 11.5459C8.14544 11.5488 8.12102 11.5527 8.09563 11.5527ZM8.22454 10.9395C8.08196 10.9395 7.94036 10.9102 7.86809 10.8936C7.80462 11.0244 7.74505 11.1592 7.69134 11.2939C7.81926 11.3291 8.06829 11.3809 8.2138 11.3447C8.22844 11.2754 8.24407 11.2041 8.26653 11.1328C8.28606 11.0713 8.30755 11.0127 8.32903 10.9531L8.33489 10.9326C8.29876 10.9365 8.26165 10.9395 8.22454 10.9395ZM8.16692 10.3008L8.09173 10.4473L7.95696 10.7119C8.07512 10.7363 8.25579 10.7607 8.372 10.7256C8.38469 10.7217 8.39739 10.7207 8.40911 10.7217L8.48821 10.5098L8.53899 10.375C8.42083 10.3604 8.25286 10.3213 8.16692 10.3008ZM8.7011 9.87012C8.58684 9.87012 8.47356 9.83398 8.40325 9.80762C8.3593 9.91016 8.31048 10.0146 8.25774 10.1201L8.48821 10.1689C8.54094 10.1787 8.58391 10.1846 8.60735 10.1846C8.64641 10.0762 8.68157 9.9707 8.71087 9.86816L8.7011 9.87012ZM8.68841 9.43945C8.64544 9.43945 8.59368 9.43652 8.53899 9.43262C8.52044 9.49609 8.49993 9.55957 8.47551 9.625C8.56634 9.6582 8.68743 9.68652 8.76165 9.66504C8.77923 9.58594 8.78997 9.50879 8.7968 9.43262C8.76555 9.43652 8.73137 9.43945 8.68841 9.43945ZM8.24895 12.085C8.06829 12.1699 7.80559 12.1904 7.61712 12.1904L7.46966 12.1875C7.46575 12.2559 7.46282 12.3252 7.46673 12.3936C7.47161 12.4805 7.48235 12.5645 7.497 12.6455C7.62981 12.6348 8.00676 12.5811 8.34368 12.3467C8.30657 12.2656 8.27532 12.1777 8.24895 12.085ZM8.59368 12.749C8.53899 12.6846 8.48528 12.6074 8.4345 12.5215C8.19817 12.6807 7.95012 12.7627 7.76165 12.8037C7.67278 12.8232 7.59759 12.834 7.5429 12.8389C7.58489 12.9883 7.64153 13.127 7.70989 13.2529C8.21575 13.1973 8.50969 12.8594 8.59368 12.749ZM8.80071 9.23535C8.7968 9.16211 8.78704 9.08984 8.76946 9.01855C8.71282 9.0459 8.6552 9.07031 8.59661 9.08984C8.59563 9.12598 8.59173 9.16211 8.58782 9.19824L8.58196 9.23828C8.68255 9.24414 8.77532 9.24316 8.80071 9.23535ZM7.39055 14.5234C7.40227 14.5 7.42278 14.4814 7.44817 14.4736C7.56341 14.4375 7.69426 14.3711 7.81438 14.3008C7.94231 14.2266 8.0595 14.1475 8.13762 14.0918C7.78606 13.7891 7.40325 13.3145 7.2968 12.6338C7.24602 12.5859 7.08684 12.4277 6.94524 12.1719C6.86614 12.0283 6.79192 11.8535 6.74505 11.6504C6.71868 11.5361 6.7011 11.4346 6.68548 11.3418C6.65032 11.1338 6.62493 10.9824 6.52434 10.8438C6.39055 10.6602 6.13372 10.1592 6.14544 9.83496C6.15032 9.7168 6.08001 9.66016 6.0136 9.64551C5.94329 9.63184 5.84661 9.65625 5.79973 9.77637L5.7929 9.78613C5.90911 9.90527 6.0136 10.0811 6.07708 10.3379C6.08587 10.3711 6.0761 10.4053 6.05364 10.4287C6.04094 10.4414 6.02434 10.4512 6.00579 10.4561C5.96966 10.4648 5.93157 10.4512 5.90716 10.4248C5.89739 10.4141 5.89055 10.4004 5.88665 10.3848C5.76165 9.88379 5.47259 9.75195 5.31731 9.78711C5.23137 9.80664 5.18352 9.89551 5.18743 9.9707C5.18938 10.0166 5.21087 10.0732 5.29973 10.084C5.56634 10.1162 5.69524 10.2627 5.75188 10.3574C5.77825 10.4023 5.78899 10.4355 5.78997 10.4395C5.80364 10.4844 5.78313 10.5322 5.74212 10.5537C5.7011 10.5762 5.65032 10.5664 5.62102 10.5293C5.61809 10.5273 5.52825 10.4307 5.30169 10.4424C5.18059 10.4492 5.07122 10.4941 5.02825 10.5537C5.01067 10.5781 5.00676 10.6006 5.01458 10.6299C5.04583 10.7441 5.11126 10.7568 5.36419 10.6973L5.44134 10.6787C5.64641 10.6377 5.81341 10.8564 5.91301 11.0586C5.95794 11.1504 5.98919 11.2383 6.00384 11.2969C6.03801 11.4326 6.01165 11.5723 5.94524 11.7246C5.90227 11.8223 5.84368 11.9258 5.77337 12.0371C5.72844 12.1094 5.7177 12.168 5.74309 12.209C5.7763 12.2656 5.86712 12.2939 5.90618 12.29C5.96282 12.2852 6.01946 12.1807 6.06243 12.0361C6.09856 11.916 6.12591 11.7676 6.13762 11.6279C6.14251 11.5771 6.18548 11.5381 6.23626 11.5381C6.28704 11.5381 6.33001 11.5781 6.33294 11.6289C6.42083 12.8457 7.05852 14.207 7.06536 14.2207L7.07317 14.2422L7.07512 14.2627C7.07512 14.5254 6.93255 14.6973 6.77727 14.7988C7.21575 14.8623 7.38176 14.5391 7.39055 14.5234ZM8.53997 13.8027C8.45501 13.875 8.37688 13.9385 8.32024 13.9834C8.50676 14.1377 8.67473 14.2373 8.77141 14.2891L8.77434 14.207C8.77532 13.9688 8.78606 13.7598 8.79973 13.5684C8.71673 13.6494 8.62493 13.7305 8.53997 13.8027Z" fill="#464655"/>
</svg>
