<svg xmlns="http://www.w3.org/2000/svg" width="24" height="24" viewBox="0 0 24 24" fill="none"><rect width="24" height="24" fill="none"/>
<path d="M22.2025 19.8621H1.79742C0.804703 19.8621 0 19.0574 0 18.0646V5.93536C0 4.94269 0.804703 4.13794 1.79742 4.13794H22.2025C23.1952 4.13794 24 4.94264 24 5.93536V18.0646C24 19.0574 23.1952 19.8621 22.2025 19.8621Z" fill="#41479B"/>
<path d="M24 7.86188H0V16.1377H24V7.86188Z" fill="#FF4B55"/>
<path d="M17.4758 15.1375V14.5508H17.2802V14.1597H17.0846V13.7685H16.889V13.3774H16.3023V12.2041H16.3023L16.4979 12.0085V11.4218H16.3023V11.0307H16.1068V10.444H15.9113V10.0528H15.7157V9.66172H15.5201V9.4662H15.129V9.66172H14.9334V10.0528H14.7378V10.444H14.5423V11.0307H14.3468V11.4218H13.1733V10.8351H12.9778V10.2484H12.7823V9.66172H12.5867V9.27064H12.3911V8.87951H12.1956V8.6839H12.0978V8.48834H11.9022V8.6839H11.8044V8.87951H11.6089V9.27064H11.4133V9.66172H11.2178V10.2484H11.0222V10.8351H10.8266V11.4218H9.65325V11.0307H9.45769V10.444H9.26213V10.0528H9.06657V9.66172H8.871V9.4662H8.47988V9.66172H8.28431V10.0528H8.08875V10.444H7.89319V11.0307H7.69763V11.4218H7.50207V12.0085L7.69753 12.2041H7.69763V13.3774H7.11099V13.7685H6.91542V14.1597H6.71982V14.5508H6.52425V15.1375H6.32869V15.7242H17.6713V15.1375H17.4758Z" fill="#F5F5F5"/>
</svg>
