<svg xmlns="http://www.w3.org/2000/svg" width="24" height="24" viewBox="0 0 24 24" fill="none"><rect width="24" height="24" fill="none"/>
<path d="M0 18.0646C0 19.0573 0.804703 19.8621 1.79742 19.8621H22.2026C23.1952 19.8621 24 19.0574 24 18.0646V16.9655H0V18.0646Z" fill="#4173CD"/>
<path d="M22.2026 4.13794H1.79742C0.804703 4.13794 0 4.94264 0 5.93536V7.03449H24V5.93536C24 4.94264 23.1953 4.13794 22.2026 4.13794Z" fill="#4173CD"/>
<path d="M24 7.03455H0V16.9655H24V7.03455Z" fill="#FF4B55"/>
<path d="M24 6.62061H0V7.44818H24V6.62061Z" fill="#FFE15A"/>
<path d="M24 16.5518H0V17.3794H24V16.5518Z" fill="#FFE15A"/>
<path d="M21.042 12.3996H2.94065C2.81779 12.3996 2.71823 12.3 2.71823 12.1772V12.1068C2.71823 11.984 2.81779 11.8844 2.94065 11.8844H21.042C21.1649 11.8844 21.2645 11.984 21.2645 12.1068V12.1772C21.2645 12.3 21.1649 12.3996 21.042 12.3996Z" fill="#FFE15A"/>
<path d="M17.5295 11.3689L18.431 10.9825L19.3326 11.3689L18.431 11.7553L17.5295 11.3689Z" fill="#F5F5F5"/>
<path d="M17.7513 11.2044H4.52137C4.43048 11.2044 4.3568 11.278 4.3568 11.369C4.3568 11.4599 4.43044 11.5336 4.52137 11.5336H17.7513C17.8422 11.5336 17.9159 11.4599 17.9159 11.369C17.9159 11.2781 17.8422 11.2044 17.7513 11.2044Z" fill="#FFE15A"/>
<path d="M18.4668 10.4674L19.3684 10.081L20.2699 10.4674L19.3684 10.8538L18.4668 10.4674Z" fill="#F5F5F5"/>
<path d="M18.6886 10.3029H5.45869C5.3678 10.3029 5.29411 10.3765 5.29411 10.4674C5.29411 10.5583 5.36775 10.632 5.45869 10.632H18.6886C18.7795 10.632 18.8532 10.5583 18.8532 10.4674C18.8532 10.3765 18.7795 10.3029 18.6886 10.3029Z" fill="#FFE15A"/>
<path d="M11.9914 8.79309C9.70351 8.79309 7.70748 10.0887 6.6384 12.0129C7.70743 13.9372 9.70351 15.2328 11.9914 15.2328C14.2793 15.2328 16.2753 13.9372 17.3444 12.0129C16.2753 10.0887 14.2792 8.79309 11.9914 8.79309Z" fill="#F5F5F5"/>
<path d="M6.63844 12.0129C7.70747 13.9371 9.70355 15.2328 11.9914 15.2328C12.3735 15.2328 12.7464 15.1936 13.1092 15.1244C12.8322 14.5164 11.8581 14.5174 11.7983 14.2883C11.7338 14.0414 12.5925 14.0951 12.7427 13.8912C12.893 13.6872 11.9271 13.6014 11.8841 13.3975C11.8412 13.1935 12.2705 13.054 12.3457 12.732C12.4208 12.41 12.5925 12.3135 12.7213 12.1203C12.8501 11.9271 12.5066 11.8627 12.4208 11.2188C12.3349 10.5748 11.8304 10.4889 11.5836 9.96307C11.3367 9.43718 11.7339 9.05079 11.9915 8.79321C9.70355 8.79307 7.70747 10.0887 6.63844 12.0129Z" fill="#464655"/>
<path d="M8.89993 10.8539H8.64235V11.8842H8.89993V10.8539Z" fill="#F5F5F5"/>
<path d="M9.41555 10.854H9.15797V11.8844H9.41555V10.854Z" fill="#F5F5F5"/>
<path d="M9.9307 10.854H9.67313V11.8844H9.9307V10.854Z" fill="#F5F5F5"/>
<path d="M10.4459 10.854H10.1883V11.8844H10.4459V10.854Z" fill="#F5F5F5"/>
<path d="M10.961 10.854H10.7034V11.8844H10.961V10.854Z" fill="#F5F5F5"/>
<path d="M11.4762 10.854H11.2186V11.8844H11.4762V10.854Z" fill="#F5F5F5"/>
<path d="M8.89993 12.3995H8.64235V13.4298H8.89993V12.3995Z" fill="#F5F5F5"/>
<path d="M9.41555 12.3995H9.15797V13.4298H9.41555V12.3995Z" fill="#F5F5F5"/>
<path d="M9.9307 12.3995H9.67313V13.4298H9.9307V12.3995Z" fill="#F5F5F5"/>
<path d="M10.4459 12.3995H10.1883V13.4298H10.4459V12.3995Z" fill="#F5F5F5"/>
<path d="M10.961 12.3995H10.7034V13.4298H10.961V12.3995Z" fill="#F5F5F5"/>
<path d="M11.4762 12.3995H11.2186V13.4298H11.4762V12.3995Z" fill="#F5F5F5"/>
<path d="M12.7638 10.8539H12.5063V11.8842H12.7638V10.8539Z" fill="#464655"/>
<path d="M13.279 10.854H13.0214V11.8844H13.279V10.854Z" fill="#464655"/>
<path d="M13.7941 10.854H13.5366V11.8844H13.7941V10.854Z" fill="#464655"/>
<path d="M14.3093 10.854H14.0517V11.8844H14.3093V10.854Z" fill="#464655"/>
<path d="M14.8245 10.854H14.5669V11.8844H14.8245V10.854Z" fill="#464655"/>
<path d="M15.3396 10.854H15.082V11.8844H15.3396V10.854Z" fill="#464655"/>
<path d="M12.7638 12.3995H12.5063V13.4298H12.7638V12.3995Z" fill="#464655"/>
<path d="M13.279 12.3995H13.0214V13.4298H13.279V12.3995Z" fill="#464655"/>
<path d="M13.7941 12.3995H13.5366V13.4298H13.7941V12.3995Z" fill="#464655"/>
<path d="M14.3093 12.3995H14.0517V13.4298H14.3093V12.3995Z" fill="#464655"/>
<path d="M14.8245 12.3995H14.5669V13.4298H14.8245V12.3995Z" fill="#464655"/>
<path d="M15.3396 12.3995H15.082V13.4298H15.3396V12.3995Z" fill="#464655"/>
<path d="M19.94 11.8439C19.7337 12.3231 19.1466 12.3795 19.4719 13.601L19.6385 13.4319C19.6385 13.4319 19.813 13.8924 20.2335 14.2024C20.2335 14.2024 20.7491 13.7702 20.7888 13.0843L21.003 13.1783C21.003 13.1781 20.8999 11.9284 19.94 11.8439Z" fill="#245DBD"/>
<path d="M20.7016 12.8263C20.6851 12.8263 20.6687 12.8187 20.6563 12.8037C20.4542 12.56 20.1969 12.4819 20.1944 12.4811C20.1604 12.4711 20.1396 12.4302 20.1481 12.39C20.1565 12.3501 20.1909 12.3251 20.2247 12.3351C20.2366 12.3386 20.5186 12.4235 20.7467 12.6986C20.7713 12.728 20.7709 12.7758 20.746 12.8049C20.7337 12.8193 20.7177 12.8263 20.7016 12.8263Z" fill="#FF4B55"/>
<path d="M20.5561 13.3948C20.5372 13.3948 20.5183 13.3848 20.5058 13.3654C20.3559 13.1346 20.186 13.0089 20.1842 13.0078C20.1543 12.9861 20.1452 12.9397 20.1636 12.9041C20.182 12.8689 20.2211 12.8581 20.251 12.8798C20.2588 12.8853 20.4426 13.0216 20.6065 13.2738C20.6278 13.3067 20.6226 13.354 20.5949 13.3793C20.5833 13.3898 20.5696 13.3948 20.5561 13.3948Z" fill="#FF4B55"/>
<path d="M20.2231 14.0276C20.2195 14.0276 20.2159 14.0273 20.2122 14.0264C20.1777 14.0194 20.1544 13.9806 20.1603 13.9398C20.1854 13.7677 20.1644 13.4855 20.1301 13.3399C20.1206 13.2999 20.1404 13.2585 20.1741 13.2471C20.2081 13.2362 20.2429 13.2594 20.2523 13.2994C20.2911 13.4638 20.3138 13.7707 20.2854 13.965C20.2802 14.0018 20.2533 14.0276 20.2231 14.0276Z" fill="#FF4B55"/>
<path d="M19.7767 13.3334C19.7586 13.3334 19.7407 13.3243 19.7281 13.3067C19.7056 13.275 19.709 13.2273 19.7357 13.2007C19.7373 13.1992 19.8993 13.0347 19.9416 12.8072C19.9492 12.7667 19.9828 12.7412 20.0172 12.75C20.0514 12.7588 20.0731 12.799 20.0656 12.8395C20.0137 13.1179 19.8255 13.3079 19.8174 13.3158C19.8055 13.3275 19.7911 13.3334 19.7767 13.3334Z" fill="#FF4B55"/>
<path d="M19.6005 12.852C19.5791 12.852 19.5583 12.8393 19.5463 12.8161C19.5279 12.7809 19.5373 12.7345 19.5672 12.7127C19.5696 12.711 19.7997 12.5415 19.8711 12.3566C19.8856 12.3184 19.9236 12.3016 19.9553 12.3193C19.9871 12.3366 20.0011 12.3812 19.9866 12.4188C19.899 12.6458 19.6443 12.8329 19.6336 12.8408C19.6231 12.8484 19.6117 12.852 19.6005 12.852Z" fill="#FF4B55"/>
<path d="M3.85712 12.0051C3.68466 12.4058 3.19374 12.453 3.46571 13.4744L3.60502 13.333C3.60502 13.333 3.75094 13.718 4.10255 13.9773C4.10255 13.9773 4.53371 13.6158 4.5669 13.0423L4.74601 13.1208C4.74601 13.1209 4.6598 12.0759 3.85712 12.0051Z" fill="#245DBD"/>
<path d="M4.49395 12.8265C4.48012 12.8265 4.46648 12.8201 4.45612 12.8075C4.28718 12.6037 4.07202 12.5384 4.06991 12.5377C4.04151 12.5293 4.02407 12.4952 4.0312 12.4615C4.03823 12.4281 4.06706 12.4073 4.09532 12.4156C4.10526 12.4186 4.34104 12.4895 4.53177 12.7196C4.55231 12.7441 4.55198 12.7841 4.53117 12.8085C4.52081 12.8205 4.5074 12.8265 4.49395 12.8265Z" fill="#FF4B55"/>
<path d="M4.37235 13.3017C4.35646 13.3017 4.34076 13.2934 4.33026 13.2772C4.20491 13.0842 4.06284 12.9791 4.06138 12.9781C4.0364 12.96 4.02876 12.9212 4.04404 12.8914C4.05951 12.8619 4.09213 12.8529 4.11712 12.871C4.12363 12.8757 4.27734 12.9896 4.4144 13.2006C4.43226 13.2281 4.4279 13.2676 4.4047 13.2887C4.39504 13.2976 4.3836 13.3017 4.37235 13.3017Z" fill="#FF4B55"/>
<path d="M4.09383 13.8309C4.09083 13.8309 4.08783 13.8306 4.08474 13.8299C4.05591 13.824 4.03641 13.7916 4.04138 13.7575C4.06233 13.6136 4.0448 13.3776 4.01607 13.2559C4.00819 13.2225 4.02465 13.1879 4.05286 13.1783C4.08136 13.1692 4.11038 13.1886 4.11826 13.222C4.15069 13.3595 4.16968 13.6161 4.14605 13.7787C4.1416 13.8093 4.1191 13.8309 4.09383 13.8309Z" fill="#FF4B55"/>
<path d="M3.72056 13.2505C3.70542 13.2505 3.69042 13.2429 3.67992 13.2281C3.66103 13.2016 3.66384 13.1618 3.68624 13.1395C3.6876 13.1382 3.82307 13.0008 3.85837 12.8104C3.8647 12.7766 3.89278 12.7552 3.92156 12.7625C3.95015 12.7699 3.96834 12.8036 3.96201 12.8374C3.91865 13.0702 3.7612 13.2291 3.75449 13.2357C3.7446 13.2455 3.7326 13.2505 3.72056 13.2505Z" fill="#FF4B55"/>
<path d="M3.57319 12.8481C3.55533 12.8481 3.53799 12.8376 3.52787 12.8182C3.51249 12.7887 3.52032 12.7499 3.5453 12.7317C3.54727 12.7303 3.73974 12.5886 3.79946 12.4339C3.81155 12.402 3.84333 12.388 3.86987 12.4027C3.89649 12.4172 3.90821 12.4546 3.89607 12.4859C3.82276 12.6757 3.6099 12.8321 3.6009 12.8388C3.59218 12.8452 3.58262 12.8481 3.57319 12.8481Z" fill="#FF4B55"/>
</svg>
