<svg xmlns="http://www.w3.org/2000/svg" width="24" height="24" viewBox="0 0 24 24" fill="none"><rect width="24" height="24" fill="none"/>
<path d="M22.2026 4.13782H16V19.8619H22.2026C23.1953 19.8619 24 19.0572 24 18.0645V5.93524C24 4.94252 23.1953 4.13782 22.2026 4.13782Z" fill="#FF4B55"/>
<path d="M16.0003 4.138H8.00015V19.8622H16.0003V4.138Z" fill="#FFE15A"/>
<path d="M1.79742 4.13782C0.804703 4.13782 0 4.94252 0 5.93524V18.0646C0 19.0572 0.804703 19.862 1.79742 19.862H8.00002V4.13782H1.79742Z" fill="#41479B"/>
<path d="M13.4663 14.8357L13.6722 14.6679L12.7342 13.5175L12.5283 13.6853L13.4663 14.8357Z" fill="#FFCD5A"/>
<path d="M12.8374 14.2759L13.2491 13.9405L12.8365 13.434L12.4248 13.7694L12.8374 14.2759Z" fill="#FFBE5A"/>
<path d="M11.5868 13.6853L11.381 13.5175L10.443 14.668L10.6488 14.8358L11.5868 13.6853Z" fill="#FFCD5A"/>
<path d="M11.6895 13.7694L11.2778 13.434L10.8651 13.9405L11.2769 14.2759L11.6895 13.7694Z" fill="#FFBE5A"/>
<path d="M11.7253 13.9492L11.0614 15.277L11.9909 15.9409V14.082L11.7253 13.9492Z" fill="#FFE15A"/>
<path d="M12.2565 13.9492L12.9204 15.277L11.9909 15.9409V14.082L12.2565 13.9492Z" fill="#FFCD5A"/>
<path d="M10.1319 13.9492V10.4969H10.5303C10.5303 10.4969 10.5303 12.7542 10.5303 13.1525C10.5303 13.5508 10.1319 13.9492 10.1319 13.9492Z" fill="#FFBE5A"/>
<path d="M9.86633 14.6131V10.4968H10.2647C10.2647 10.4968 10.2647 13.418 10.2647 13.8164C10.2646 14.2147 9.86633 14.6131 9.86633 14.6131Z" fill="#FFCD5A"/>
<path d="M9.6008 15.1443V10.4969H9.99914C9.99914 10.4969 9.99914 13.9492 9.99914 14.3476C9.99914 14.7459 9.6008 15.1443 9.6008 15.1443Z" fill="#FFE15A"/>
<path d="M10.5303 10.6296C10.5303 10.6296 10.5303 12.5217 10.5303 13.1525C10.5303 13.8164 11.4929 13.7279 11.9909 14.2147C12.4888 13.7278 13.4514 13.8164 13.4514 13.1525C13.4514 12.5218 13.4514 10.6296 13.4514 10.6296H10.5303Z" fill="#FF4B55"/>
<path d="M10.5303 12.0903C10.5303 12.5106 10.5303 12.9184 10.5303 13.1525C10.5303 13.8165 11.4929 13.7279 11.9909 14.2148C12.4888 13.7279 13.4514 13.8164 13.4514 13.1525C13.4514 12.9184 13.4514 12.5106 13.4514 12.0902L10.5303 12.0903Z" fill="#41479B"/>
<path d="M11.9908 13.8166L11.5925 13.551V13.4183L11.7252 13.2855V12.4888L11.3269 12.2232L11.7252 11.6921H11.858L11.9908 11.8249L12.1236 11.6921H12.2564L12.6547 12.2232L12.2564 12.4888V13.2855L12.3891 13.4183V13.551L11.9908 13.8166Z" fill="#FFE15A"/>
<path d="M11.4597 10.7626C11.4597 10.7626 10.9286 10.8954 10.9286 11.4266C10.9286 11.9577 11.4597 12.2233 11.4597 12.2233L11.7252 11.8249C10.9285 11.5593 11.4597 10.7626 11.4597 10.7626Z" fill="#FFE15A"/>
<path d="M12.522 10.7626C12.522 10.7626 13.053 10.8954 13.053 11.4266C13.053 11.9577 12.522 12.2233 12.522 12.2233L12.2564 11.8249C13.053 11.5593 12.522 10.7626 12.522 10.7626Z" fill="#FFE15A"/>
<path d="M10.663 12.0904L10.9285 12.2232L11.1941 12.0904L10.9285 11.9576L10.663 12.0904Z" fill="#FFE15A"/>
<path d="M12.7875 12.0904L13.053 12.2232L13.3186 12.0904L13.053 11.9576L12.7875 12.0904Z" fill="#FFE15A"/>
<path d="M11.9908 10.829L12.0874 10.9279L12.2255 10.9262L12.2239 11.0644L12.3228 11.1609L12.2239 11.2575L12.2255 11.3957L12.0874 11.394L11.9908 11.4929L11.8943 11.394L11.756 11.3957L11.7577 11.2575L11.6589 11.1609L11.7577 11.0644L11.756 10.9262L11.8943 10.9279L11.9908 10.829Z" fill="#FFE15A"/>
<path d="M11.0891 12.6703L11.1848 12.7768L11.3179 12.724C11.3869 12.6967 11.4516 12.7717 11.4144 12.8359L11.3428 12.9599L11.4341 13.0702C11.4814 13.1273 11.4301 13.212 11.3576 13.1966L11.2175 13.1667L11.1408 13.2877C11.1011 13.3503 11.0047 13.3276 10.997 13.2539L10.9821 13.1114L10.8434 13.0759C10.7715 13.0574 10.7633 12.9588 10.831 12.9287L10.9619 12.8706L10.9528 12.7276C10.9483 12.6535 11.0395 12.6151 11.0891 12.6703Z" fill="#FFE15A"/>
<path d="M12.8576 12.973C12.8869 12.822 13.0115 12.7151 13.1568 12.6989C13.127 12.6829 13.0953 12.6696 13.0604 12.6629C12.8744 12.6268 12.6944 12.7484 12.6583 12.9343C12.6223 13.1203 12.7438 13.3003 12.9298 13.3364C12.9647 13.3432 12.9991 13.3428 13.0327 13.339C12.904 13.2698 12.8284 13.124 12.8576 12.973Z" fill="#FFE15A"/>
<path d="M11.4597 10.6298L11.7252 9.302L11.1941 8.90366L11.3269 8.77086H11.5925C11.5925 8.77086 11.7253 8.63806 11.9908 8.63806C12.2564 8.63806 12.5219 8.77086 12.5219 9.16916C12.5219 9.56745 12.6547 10.6297 12.6547 10.6297H11.4597V10.6298V10.6298Z" fill="#FFE15A"/>
<path d="M10.5303 10.0985C10.2369 10.0985 9.99918 10.3363 9.99918 10.6296H11.0615C11.0614 10.3363 10.8236 10.0985 10.5303 10.0985Z" fill="#FFAA5A"/>
<path d="M10.3975 10.6297H9.6008V9.74583C9.6008 9.57394 9.74016 9.43463 9.912 9.43463H10.0863C10.2582 9.43463 10.3975 9.57399 10.3975 9.74583V10.6297Z" fill="#FFBE5A"/>
<path d="M13.85 13.9492V10.4969H13.4517C13.4517 10.4969 13.4517 12.7542 13.4517 13.1525C13.4517 13.5508 13.85 13.9492 13.85 13.9492Z" fill="#FFBE5A"/>
<path d="M14.1154 14.6131V10.4968H13.717C13.717 10.4968 13.717 13.418 13.717 13.8164C13.717 14.2147 14.1154 14.6131 14.1154 14.6131Z" fill="#FFCD5A"/>
<path d="M14.3809 15.1443V10.4969H13.9826C13.9826 10.4969 13.9826 13.9492 13.9826 14.3476C13.9826 14.7459 14.3809 15.1443 14.3809 15.1443Z" fill="#FFE15A"/>
<path d="M13.4515 10.0985C13.7448 10.0985 13.9826 10.3363 13.9826 10.6296H12.9203C12.9203 10.3363 13.1581 10.0985 13.4515 10.0985Z" fill="#FFAA5A"/>
<path d="M13.5843 10.6297H14.381V9.74583C14.381 9.57394 14.2416 9.43463 14.0698 9.43463H13.8955C13.7236 9.43463 13.5843 9.57399 13.5843 9.74583L13.5843 10.6297Z" fill="#FFBE5A"/>
<path d="M15.1218 12.1421L14.9517 12.0385L13.0923 15.0921L13.2624 15.1956L15.1218 12.1421Z" fill="#FFAA5A"/>
<path d="M13.5002 15.0199L13.8318 14.605L13.5074 14.3456L13.1757 14.7605L13.5002 15.0199Z" fill="#FFE15A"/>
<path d="M15.1765 12.1766L14.893 12.004L14.4947 12.6584L14.7782 12.831L15.1765 12.1766Z" fill="#FFCD5A"/>
<path d="M10.9798 15.0896L9.10556 12.1903L8.99404 12.2624L10.8683 15.1617L10.9798 15.0896Z" fill="#73AF00"/>
<path d="M10.285 13.5652C10.2373 13.6192 10.2057 13.7011 10.1978 13.7955C10.1323 13.7294 10.0571 13.6873 9.98706 13.676C9.96859 13.7445 9.97609 13.8304 10.0095 13.9172C9.92012 13.8857 9.83256 13.8808 9.76379 13.9021C9.78315 14 9.86289 14.1062 9.98509 14.1791C10.1072 14.252 10.2386 14.2717 10.3339 14.2423L10.3612 14.2247C10.4272 14.1498 10.4631 14.022 10.4468 13.8807C10.4304 13.7393 10.3662 13.623 10.285 13.5652Z" fill="#73AF00"/>
<path d="M10.3476 14.3663C10.421 14.3663 10.4804 14.3068 10.4804 14.2335C10.4804 14.1602 10.421 14.1007 10.3476 14.1007C10.2743 14.1007 10.2148 14.1602 10.2148 14.2335C10.2148 14.3068 10.2743 14.3663 10.3476 14.3663Z" fill="#FF4B55"/>
<path d="M9.78037 12.7843C9.73275 12.8383 9.70115 12.9202 9.69318 13.0146C9.6277 12.9485 9.55251 12.9064 9.48248 12.8951C9.46401 12.9636 9.47151 13.0495 9.50494 13.1363C9.41554 13.1048 9.32798 13.1 9.25922 13.1212C9.27858 13.2191 9.35831 13.3253 9.48051 13.3982C9.60267 13.4712 9.73406 13.4908 9.82936 13.4614L9.85664 13.4438C9.92259 13.3689 9.95854 13.2411 9.94223 13.0998C9.92583 12.9584 9.86165 12.8421 9.78037 12.7843Z" fill="#73AF00"/>
<path d="M9.84331 13.5858C9.91665 13.5858 9.9761 13.5263 9.9761 13.453C9.9761 13.3796 9.91665 13.3202 9.84331 13.3202C9.76997 13.3202 9.71051 13.3796 9.71051 13.453C9.71051 13.5263 9.76997 13.5858 9.84331 13.5858Z" fill="#FF4B55"/>
<path d="M9.27583 12.0037C9.2282 12.0577 9.19661 12.1396 9.18864 12.234C9.12315 12.1679 9.04797 12.1258 8.97793 12.1145C8.95947 12.183 8.96697 12.2689 9.00039 12.3557C8.911 12.3242 8.82343 12.3194 8.75467 12.3407C8.77403 12.4385 8.85376 12.5448 8.97597 12.6176C9.09812 12.6906 9.22951 12.7103 9.32481 12.6808L9.35209 12.6632C9.41804 12.5883 9.454 12.4605 9.43768 12.3192C9.42118 12.1778 9.35706 12.0615 9.27583 12.0037Z" fill="#73AF00"/>
<path d="M9.33846 12.8053C9.4118 12.8053 9.47125 12.7458 9.47125 12.6725C9.47125 12.5991 9.4118 12.5397 9.33846 12.5397C9.26511 12.5397 9.20566 12.5991 9.20566 12.6725C9.20566 12.7458 9.26511 12.8053 9.33846 12.8053Z" fill="#FF4B55"/>
<path d="M10.939 14.7616L10.6073 14.3467L10.2829 14.6061L10.6145 15.021L10.939 14.7616Z" fill="#FFE15A"/>
<path d="M11.3269 8.37317H11.1941V9.30265H11.3269V8.37317Z" fill="#FFE15A"/>
<path d="M11.4593 8.50586H11.0609V8.63866H11.4593V8.50586Z" fill="#FFE15A"/>
<path d="M11.1942 8.9035L11.5925 9.20228V8.77075H11.327L11.1942 8.9035Z" fill="#FF875A"/>
<path d="M11.327 8.37239V8.50519H11.4598V8.63798H11.327V8.77078H11.5925C11.5925 8.77078 11.7253 8.63798 11.9909 8.63798C12.2564 8.63798 12.522 8.77078 12.522 9.16908C12.522 9.56742 12.6547 10.6297 12.6547 10.6297H12.9203C12.9203 10.3363 13.1581 10.0986 13.4514 10.0986C13.4975 10.0986 13.5415 10.1062 13.5842 10.1174V9.83302C13.5842 9.61303 13.7625 9.43467 13.9825 9.43467C14.2025 9.43467 14.3809 9.61303 14.3809 9.83302V10.497V10.6297V12.9747L14.5523 12.693L14.4957 12.6585L14.894 12.0041L14.9507 12.0386L15.0358 12.0904L15.1776 12.1767L14.7792 12.8312L14.7225 12.7967L14.3809 13.358V15.1445C14.3809 15.1445 14.0638 14.8266 13.9959 14.4748C13.9474 14.4125 13.8915 14.333 13.8424 14.2427L13.6904 14.4923L13.8317 14.6053L13.5 15.0202L13.412 14.9497L13.2619 15.1964L13.0918 15.0928L13.2551 14.8244L13.1758 14.7609L13.2887 14.6197L12.9403 14.1924L12.8373 14.2763L12.5275 13.8961C12.4451 13.9293 12.3636 13.9657 12.2851 14.0073L12.9202 15.2774L11.9907 15.9413L11.0612 15.2774L11.6962 14.0073C11.6493 13.9824 11.6017 13.9589 11.553 13.9374L11.2769 14.2763L11.1739 14.1924L10.8255 14.6197L10.9384 14.7609L10.8256 14.8511L10.9797 15.0895L10.8682 15.1616L10.7213 14.9344L10.6141 15.0201L10.2825 14.6052L10.4315 14.4861L10.3525 14.3639C10.3507 14.364 10.3488 14.364 10.347 14.364C10.3035 14.364 10.261 14.3446 10.2358 14.3055C10.225 14.2889 10.2192 14.2707 10.2166 14.2523C10.1916 14.2508 10.1663 14.2472 10.14 14.241C10.0906 14.3319 10.0343 14.412 9.98555 14.4748C9.91772 14.8266 9.60061 15.1445 9.60061 15.1445V13.4507C9.56048 13.4381 9.52003 13.422 9.48023 13.3983C9.35808 13.3253 9.2783 13.2191 9.25894 13.1213C9.28687 13.1127 9.31786 13.1084 9.35086 13.1084C9.39914 13.1084 9.45164 13.1177 9.5047 13.1363C9.48741 13.0913 9.47733 13.0468 9.474 13.0046L9.34341 12.8026C9.34153 12.8026 9.3397 12.8027 9.33783 12.8027C9.29442 12.8027 9.25191 12.7833 9.22664 12.7442C9.21586 12.7275 9.21005 12.7094 9.20742 12.691C9.13392 12.6866 9.05339 12.6641 8.97572 12.6178C8.85356 12.5448 8.77378 12.4386 8.75442 12.3408C8.78236 12.3322 8.81339 12.3278 8.84634 12.3278C8.89462 12.3278 8.94712 12.3371 9.00019 12.3558C8.96676 12.269 8.95926 12.1831 8.97773 12.1147C9.04776 12.126 9.12295 12.168 9.18844 12.2341C9.19641 12.1397 9.228 12.0578 9.27558 12.0038C9.35686 12.0617 9.42098 12.178 9.4373 12.3194C9.4477 12.4093 9.43514 12.4919 9.40894 12.5608C9.42464 12.5707 9.43884 12.5835 9.44958 12.6001C9.47597 12.641 9.47503 12.69 9.45487 12.7306L9.58547 12.9326C9.59053 12.9354 9.5955 12.9388 9.60056 12.942V10.6299V10.4971V9.83316C9.60056 9.61317 9.77892 9.43481 9.99891 9.43481C10.2189 9.43481 10.3972 9.61317 10.3972 9.83316V10.1175C10.4399 10.1064 10.4839 10.0987 10.53 10.0987C10.8234 10.0987 11.0611 10.3365 11.0611 10.6298H11.4595L11.725 9.30197L11.5922 9.20241L11.3267 9.00323V9.30202H11.1939V8.63808H11.0611V8.50528H11.1939V8.37248H11.3272L11.327 8.37239ZM13.4585 14.4072L13.5075 14.3459L13.5336 14.3667L13.7476 14.0151C13.729 13.9501 13.717 13.8834 13.717 13.8165C13.717 13.81 13.717 13.801 13.717 13.7932C13.6012 13.6407 13.4515 13.3968 13.4515 13.1526C13.4515 13.4322 13.2798 13.5779 13.0449 13.6898L13.2493 13.9407L13.1464 14.0245L13.4585 14.4072ZM10.536 14.4025L10.607 14.3458L10.656 14.4072L10.9681 14.0243L10.8652 13.9405L11.0342 13.7332C10.7506 13.6147 10.5302 13.4696 10.5302 13.1525C10.5302 13.3303 10.4509 13.5077 10.363 13.6501C10.4047 13.7114 10.4362 13.7896 10.4467 13.8803C10.4571 13.9702 10.4445 14.0528 10.4183 14.1217C10.434 14.1317 10.4482 14.1444 10.459 14.1611C10.4854 14.2019 10.4844 14.2509 10.4643 14.2915L10.536 14.4025ZM11.327 8.27283H11.1942C11.1392 8.27283 11.0946 8.31741 11.0946 8.37239V8.40558H11.0614C11.0064 8.40558 10.9619 8.45016 10.9619 8.50514V8.63794C10.9619 8.69292 11.0064 8.7375 11.0614 8.7375H11.0946V9.30183C11.0946 9.35681 11.1392 9.40139 11.1942 9.40139H11.327C11.382 9.40139 11.4265 9.35681 11.4265 9.30183V9.20226L11.5327 9.28191L11.6153 9.34383L11.378 10.53H11.1531C11.1052 10.2294 10.8441 9.99895 10.5302 9.99895C10.5192 9.99895 10.5082 9.99933 10.497 9.99998V9.83297C10.497 9.55842 10.2736 9.33501 9.99905 9.33501C9.7245 9.33501 9.50109 9.55842 9.50109 9.83297V10.4969V10.6297V12.1568C9.46514 12.0577 9.40669 11.9747 9.33342 11.9225C9.31598 11.9101 9.29578 11.904 9.27576 11.904C9.24806 11.904 9.22059 11.9156 9.20105 11.9377C9.17039 11.9726 9.14517 12.015 9.12637 12.0628C9.08278 12.0391 9.03792 12.0232 8.99367 12.0161C8.98833 12.0152 8.98303 12.0148 8.97778 12.0148C8.93348 12.0148 8.89364 12.0444 8.88173 12.0884C8.87006 12.1316 8.86617 12.1791 8.86983 12.2285C8.862 12.2281 8.85422 12.228 8.84648 12.228C8.80336 12.228 8.76253 12.2338 8.72517 12.2453C8.67647 12.2604 8.64698 12.3098 8.65683 12.3598C8.68261 12.4899 8.78273 12.6183 8.92476 12.703C8.9903 12.7421 9.06145 12.7689 9.13369 12.782C9.13659 12.7875 9.13973 12.7928 9.14311 12.798C9.17578 12.8486 9.22706 12.8834 9.2857 12.8963L9.35826 13.0086C9.35583 13.0086 9.35344 13.0086 9.35105 13.0086C9.30792 13.0086 9.26709 13.0144 9.22973 13.026C9.18103 13.041 9.15155 13.0904 9.16139 13.1404C9.18717 13.2705 9.2873 13.3989 9.42933 13.4836C9.45201 13.4971 9.47564 13.5091 9.50114 13.52V15.1441C9.50114 15.1844 9.52547 15.2207 9.56269 15.2361C9.57501 15.2412 9.58791 15.2437 9.6007 15.2437C9.62667 15.2437 9.65217 15.2335 9.67125 15.2144C9.6848 15.2008 9.99712 14.8843 10.0785 14.5169C10.112 14.4729 10.143 14.4285 10.1711 14.3841C10.2031 14.4211 10.2465 14.4466 10.295 14.4574L10.2993 14.464L10.2206 14.5269C10.2 14.5434 10.1867 14.5674 10.1838 14.5937C10.1809 14.6199 10.1885 14.6463 10.205 14.667L10.5367 15.0818C10.5532 15.1025 10.5772 15.1157 10.6035 15.1186C10.6071 15.1191 10.6108 15.1192 10.6145 15.1192C10.637 15.1192 10.6589 15.1117 10.6766 15.0975L10.6978 15.0805L10.7849 15.2152C10.7992 15.2374 10.8217 15.253 10.8476 15.2585C10.8545 15.26 10.8615 15.2607 10.8685 15.2607C10.8875 15.2607 10.9064 15.2552 10.9225 15.2447L10.9869 15.2031L10.9724 15.2323C10.9504 15.2761 10.9637 15.3294 11.0035 15.3579L11.933 16.0218C11.9504 16.0342 11.9706 16.0404 11.9909 16.0404C12.0112 16.0404 12.0315 16.0342 12.0488 16.0218L12.9783 15.3579C13.0182 15.3294 13.0314 15.2762 13.0095 15.2323L12.419 14.0513C12.444 14.0395 12.4701 14.0278 12.4974 14.016L12.7604 14.3386C12.78 14.3628 12.8087 14.3753 12.8377 14.3753C12.8598 14.3753 12.882 14.3679 12.9005 14.3529L12.9263 14.3319L13.161 14.6197L13.0983 14.6982C13.0818 14.7188 13.0742 14.7452 13.0771 14.7714C13.08 14.7977 13.0933 14.8217 13.1139 14.8382L13.1248 14.8469L13.0069 15.0405C12.9783 15.0874 12.9932 15.1486 13.0402 15.1773L13.2103 15.2809C13.226 15.2904 13.244 15.2954 13.2622 15.2954C13.27 15.2954 13.278 15.2945 13.2857 15.2925C13.3113 15.2863 13.3335 15.2701 13.3472 15.2475L13.4385 15.0976C13.4568 15.1121 13.4786 15.1191 13.5003 15.1191C13.5295 15.1191 13.5585 15.1063 13.5781 15.0817L13.9098 14.6668C13.922 14.6515 13.929 14.6338 13.931 14.6157C14.0392 14.9393 14.2984 15.202 14.3107 15.2143C14.3297 15.2333 14.3552 15.2436 14.3812 15.2436C14.394 15.2436 14.4069 15.2411 14.4192 15.236C14.4564 15.2206 14.4808 15.1843 14.4808 15.144V13.3855L14.7591 12.9284C14.7659 12.9298 14.7727 12.9305 14.7795 12.9305C14.8131 12.9305 14.8459 12.9135 14.8646 12.8827L15.263 12.2282C15.2767 12.2056 15.2809 12.1785 15.2746 12.1529C15.2684 12.1272 15.2522 12.105 15.2296 12.0913L15.0878 12.005L15.0028 11.9532L14.946 11.9187C14.9299 11.9088 14.912 11.9042 14.8944 11.9042C14.8608 11.9042 14.828 11.9212 14.8093 11.952L14.4808 12.4917V10.6296V10.4968V9.83283C14.4808 9.55828 14.2574 9.33487 13.9829 9.33487C13.7083 9.33487 13.4849 9.55828 13.4849 9.83283V9.99984C13.4738 9.99919 13.4627 9.99881 13.4517 9.99881C13.1378 9.99881 12.8767 10.2293 12.8288 10.5299H12.7432C12.7118 10.2685 12.6218 9.49055 12.6218 9.16889C12.6218 8.70389 12.296 8.53819 11.9911 8.53819C11.7653 8.53819 11.6196 8.62425 11.5571 8.67098H11.5538C11.5575 8.66058 11.5595 8.64942 11.5595 8.6378V8.505C11.5595 8.45001 11.5149 8.40544 11.46 8.40544H11.4268V8.37225C11.4265 8.31741 11.382 8.27283 11.327 8.27283ZM10.4789 13.65C10.5044 13.6051 10.5266 13.5609 10.5457 13.5173C10.6288 13.6287 10.7482 13.7079 10.8753 13.7707L10.7881 13.8777C10.7715 13.8982 10.7636 13.9244 10.7662 13.9507C10.7689 13.977 10.7819 14.0011 10.8024 14.0178L10.828 14.0387L10.6506 14.2563C10.6404 14.2513 10.6294 14.2481 10.618 14.2468C10.6143 14.2464 10.6106 14.2462 10.607 14.2462C10.597 14.2462 10.5873 14.2477 10.5779 14.2506C10.5824 14.2005 10.5705 14.1502 10.5427 14.107C10.5393 14.1018 10.5357 14.0967 10.5319 14.0918C10.5496 14.0206 10.5544 13.9447 10.5457 13.8689C10.5367 13.791 10.5138 13.7165 10.4789 13.65ZM13.199 13.7214C13.2867 13.6702 13.3719 13.6055 13.4365 13.5184C13.4873 13.6345 13.5542 13.7401 13.6175 13.8263C13.6183 13.8818 13.6259 13.9389 13.6405 13.9995L13.4893 14.2479C13.4806 14.2495 13.472 14.2523 13.4639 14.2563L13.2864 14.0387L13.312 14.0178C13.3325 14.0011 13.3455 13.977 13.3482 13.9507C13.3508 13.9245 13.343 13.8982 13.3263 13.8777L13.199 13.7214ZM11.277 14.3756C11.3059 14.3756 11.3346 14.3631 11.3543 14.3389L11.5222 14.1329L11.0677 15.042C11.0665 15.0397 11.0651 15.0374 11.0637 15.0352L10.9585 14.8724L11.0009 14.8384C11.0215 14.8219 11.0348 14.7979 11.0377 14.7716C11.0407 14.7454 11.033 14.719 11.0165 14.6985L10.9538 14.62L11.1885 14.3321L11.2143 14.3531C11.2326 14.3683 11.2549 14.3756 11.277 14.3756ZM13.8211 14.469L13.8427 14.4334C13.8618 14.4614 13.8819 14.4893 13.9031 14.5172C13.905 14.5256 13.907 14.5339 13.9091 14.5422C13.9047 14.5368 13.8996 14.5318 13.8939 14.5272L13.8211 14.469Z" fill="#FFAA5A"/>
</svg>
