<svg xmlns="http://www.w3.org/2000/svg" width="24" height="24" viewBox="0 0 24 24" fill="none"><rect width="24" height="24" fill="none"/>
<path d="M1.79742 19.8621H22.2026C23.1952 19.8621 24 19.0574 24 18.0646V5.93536C24 4.94269 23.1953 4.13794 22.2026 4.13794H1.79742C0.804703 4.13794 0 4.94264 0 5.93536V18.0647C0 19.0574 0.804703 19.8621 1.79742 19.8621Z" fill="#F5F5F5"/>
<path d="M22.6207 6.62953C22.5405 6.60121 22.4512 6.64289 22.4227 6.72407C22.3202 7.0132 22.2093 7.27237 22.0943 7.5172C21.8019 7.80656 21.4377 8.02237 21.0862 8.08626C20.5172 8.18972 20.2414 8.46557 20.2414 8.46557C19.2414 8.17247 19.0517 8.72418 18.8275 8.96559C18.702 9.10073 18.5392 9.14765 18.3926 9.14915C17.857 8.85707 17.4963 8.50101 17.4896 8.49436C17.4294 8.43332 17.3308 8.4329 17.2702 8.49318C17.2091 8.55337 17.2087 8.65162 17.269 8.71261C17.3144 8.75859 18.1866 9.62311 19.3056 9.80282C18.9808 9.89845 18.7414 9.96553 18.7414 9.96553C18.7414 9.96553 18.3794 9.96553 17.2931 10.8449C16.2069 11.7242 15.4483 11.8104 14.9655 11.7932C14.4827 11.776 14.1207 11.6035 13.6035 12.0001C13.0862 12.3967 12.4138 12.3277 12 12.3277C11.5862 12.3277 10.9138 12.3967 10.3965 12.0001C9.87933 11.6035 9.51722 11.776 9.03445 11.7932C8.55173 11.8104 7.79306 11.7242 6.70687 10.8449C5.62069 9.96548 5.25858 9.96553 5.25858 9.96553C5.25858 9.96553 5.01919 9.89845 4.69439 9.80282C5.81334 9.62311 6.68555 8.75854 6.73101 8.71261C6.7912 8.65157 6.79083 8.55342 6.72984 8.49318C6.66923 8.433 6.57066 8.43337 6.51042 8.49436C6.50372 8.50092 6.14297 8.85698 5.60742 9.14915C5.46075 9.14765 5.298 9.10073 5.17247 8.96559C4.94831 8.72418 4.75865 8.17247 3.75862 8.46557C3.75862 8.46557 3.48276 8.18972 2.9138 8.08626C2.56233 8.02237 2.19811 7.80656 1.90565 7.5172C1.79076 7.27232 1.67981 7.0132 1.57734 6.72407C1.54884 6.64289 1.45955 6.60121 1.37934 6.62953C1.29848 6.65821 1.25606 6.74672 1.2848 6.82753C1.28789 6.83625 1.29145 6.8437 1.29459 6.85247C1.30969 6.93182 1.6245 8.51981 2.77589 9.62081C3.58678 10.3962 4.3732 11.5793 4.70695 12.2415C5.79314 14.3967 7.86211 17.2932 12 17.2932C16.138 17.2932 18.207 14.3967 19.2931 12.2415C19.6269 11.5793 20.4133 10.3961 21.2242 9.62081C22.3755 8.51986 22.6903 6.93182 22.7055 6.85247C22.7086 6.84375 22.7122 6.83629 22.7153 6.82753C22.7439 6.74672 22.7015 6.65821 22.6207 6.62953Z" fill="#FF4B55"/>
</svg>
