<svg xmlns="http://www.w3.org/2000/svg" width="24" height="24" viewBox="0 0 24 24" fill="none"><rect width="24" height="24" fill="none"/>
<path d="M22.2026 19.8621H1.79742C0.804703 19.8621 0 19.0574 0 18.0646V5.93536C0 4.94269 0.804703 4.13794 1.79742 4.13794H22.2026C23.1952 4.13794 24 4.94264 24 5.93536V18.0647C24 19.0574 23.1953 19.8621 22.2026 19.8621Z" fill="#41479B"/>
<path d="M0.413813 12H1.13259L4.96556 9.48872V12H7.03453V9.48872L10.8675 12H11.5862C11.8148 12 12 11.8147 12 11.5862V11.258L8.71153 9.10346H12V7.03449H8.71148L12 4.87997V4.55175C12 4.32324 11.8148 4.13794 11.5862 4.13794H10.8674L7.03444 6.64922V4.13794H4.96547V6.64922L1.25831 4.22035C0.825469 4.35628 0.463594 4.65174 0.240609 5.03756L3.28856 7.03449H0V9.10346H3.28852L0 11.258V11.5862C0 11.8147 0.185297 12 0.413813 12Z" fill="#F5F5F5"/>
<path d="M12 7.4483H6.62067V4.13794H5.37933V7.4483H0V8.68964H5.37933V12H6.62067V8.68964H12V7.4483Z" fill="#FF4B55"/>
<path d="M0.385651 4.82356L3.79168 7.03451H4.55171L0.684713 4.52435C0.573666 4.61201 0.473307 4.71246 0.385651 4.82356Z" fill="#FF4B55"/>
<path d="M7.79452 7.03449L11.937 4.34546C11.865 4.22363 11.738 4.13794 11.5862 4.13794H11.4967L7.03448 7.03449H7.79452Z" fill="#FF4B55"/>
<path d="M4.19409 9.10345L0.0594788 11.7873C0.130776 11.9121 0.259823 12 0.413807 12H0.491854L4.95417 9.10345H4.19409Z" fill="#FF4B55"/>
<path d="M11.9934 11.6187L8.11846 9.10345H7.35843L11.7588 11.9598C11.8906 11.8986 11.981 11.7704 11.9934 11.6187Z" fill="#FF4B55"/>
<path d="M18.5378 17.2553C18.521 17.2553 18.5041 17.25 18.4897 17.2399L18 16.89L17.5102 17.2399C17.4958 17.25 17.4789 17.2553 17.4621 17.2553C17.4449 17.2553 17.428 17.25 17.4134 17.2395C17.3848 17.2185 17.3724 17.1813 17.3831 17.1474L17.5648 16.5736L17.0807 16.2164C17.052 16.1949 17.0401 16.1582 17.051 16.1243C17.0621 16.0903 17.0934 16.0673 17.1292 16.0669L17.7311 16.062L17.9215 15.491C17.9328 15.4575 17.9645 15.4344 18.0001 15.4344C18.0357 15.4344 18.0674 15.4575 18.0787 15.491L18.269 16.062L18.871 16.0669C18.9067 16.0673 18.938 16.0903 18.9492 16.1243C18.9601 16.1582 18.9481 16.1949 18.9195 16.2164L18.4354 16.5736L18.617 17.1474C18.6277 17.1813 18.6155 17.2185 18.5867 17.2395C18.572 17.25 18.5548 17.2553 18.5378 17.2553Z" fill="#FF4B55"/>
<path d="M18 15.5172L18.2091 16.1443L18.8701 16.1494L18.3383 16.5421L18.5377 17.1723L18 16.788L17.4622 17.1724L17.6616 16.5422L17.1298 16.1495L17.7908 16.1444L18 15.5172ZM18 15.3517C17.9288 15.3517 17.8655 15.3973 17.843 15.4649L17.6713 15.9797L17.1285 15.984C17.0573 15.9845 16.9944 16.0306 16.9724 16.0983C16.9504 16.1661 16.9742 16.2403 17.0315 16.2827L17.4681 16.6051L17.3044 17.1225C17.2829 17.1904 17.3073 17.2645 17.3649 17.3064C17.3939 17.3274 17.4281 17.338 17.4622 17.338C17.4959 17.338 17.5297 17.3276 17.5585 17.3071L18 16.9915L18.4416 17.3071C18.4704 17.3276 18.5041 17.338 18.5379 17.338C18.572 17.338 18.6062 17.3274 18.6352 17.3064C18.6928 17.2644 18.7172 17.1904 18.6957 17.1225L18.532 16.6051L18.9686 16.2827C19.0259 16.2403 19.0497 16.1661 19.0277 16.0983C19.0056 16.0306 18.9428 15.9845 18.8716 15.984L18.3289 15.9797L18.1572 15.4649C18.1345 15.3973 18.0712 15.3517 18 15.3517Z" fill="#F5F5F5"/>
<path d="M18.5378 10.5841C18.5209 10.5841 18.5041 10.5788 18.4897 10.5687L18 10.2184L17.5102 10.5687C17.4958 10.5788 17.4789 10.5841 17.4621 10.5841C17.4451 10.5841 17.428 10.5788 17.4134 10.5683C17.3848 10.5473 17.3724 10.5101 17.3831 10.4762L17.5648 9.90235L17.0807 9.54474C17.052 9.52332 17.0401 9.48615 17.051 9.45264C17.0621 9.4187 17.0936 9.39564 17.1292 9.39526L17.7311 9.39081L17.9215 8.81982C17.9328 8.78631 17.9645 8.76324 18.0001 8.76324C18.0357 8.76324 18.0674 8.78626 18.0787 8.81982L18.269 9.39081L18.871 9.39526C18.9065 9.39568 18.938 9.4187 18.9492 9.45264C18.9601 9.48615 18.9481 9.52332 18.9195 9.54474L18.4354 9.90235L18.617 10.4762C18.6277 10.5101 18.6155 10.5473 18.5867 10.5683C18.572 10.5788 18.5548 10.5841 18.5378 10.5841Z" fill="#FF4B55"/>
<path d="M18 8.84594L18.2091 9.47303L18.8701 9.47814L18.3383 9.87081L18.5377 10.5011L18 10.1167L17.4622 10.5011L17.6616 9.87081L17.1298 9.47814L17.7908 9.47303L18 8.84594ZM18 8.68042C17.9288 8.68042 17.8655 8.72598 17.843 8.79358L17.6713 9.30845L17.1285 9.31267C17.0573 9.31319 16.9944 9.35926 16.9724 9.42704C16.9504 9.49483 16.9742 9.56903 17.0315 9.61136L17.4681 9.93376L17.3044 10.4512C17.2829 10.5191 17.3073 10.5932 17.3649 10.6351C17.3939 10.6561 17.4281 10.6667 17.4622 10.6667C17.4959 10.6667 17.5297 10.6563 17.5585 10.6358L18 10.3202L18.4416 10.6358C18.4704 10.6563 18.5041 10.6667 18.5379 10.6667C18.572 10.6667 18.6062 10.6561 18.6352 10.6351C18.6928 10.5932 18.7172 10.5191 18.6957 10.4512L18.532 9.93376L18.9686 9.61136C19.0259 9.56903 19.0497 9.49483 19.0277 9.42704C19.0056 9.35926 18.9428 9.31319 18.8716 9.31267L18.3289 9.30845L18.1572 8.79358C18.1345 8.72598 18.0712 8.68042 18 8.68042Z" fill="#F5F5F5"/>
<path d="M21.4344 12.653C21.4174 12.653 21.4007 12.6477 21.3863 12.6376L20.8966 12.2873L20.4068 12.6376C20.3925 12.6477 20.3755 12.653 20.3587 12.653C20.3417 12.653 20.3246 12.6477 20.31 12.6372C20.2814 12.6162 20.269 12.579 20.2797 12.5451L20.4614 11.9713L19.9773 11.6137C19.9486 11.5922 19.9367 11.5551 19.9476 11.5215C19.9587 11.4876 19.9902 11.4645 20.0258 11.4642L20.6277 11.4597L20.8181 10.8887C20.8294 10.8552 20.8611 10.8322 20.8967 10.8322C20.9323 10.8322 20.964 10.8552 20.9753 10.8887L21.1657 11.4597L21.7676 11.4642C21.8032 11.4646 21.8347 11.4876 21.8458 11.5215C21.8567 11.5551 21.8447 11.5922 21.8161 11.6137L21.332 11.9713L21.5137 12.5451C21.5243 12.579 21.5121 12.6162 21.4833 12.6372C21.4686 12.6477 21.4514 12.653 21.4344 12.653Z" fill="#FF4B55"/>
<path d="M20.8965 10.9149L21.1056 11.542L21.7667 11.5471L21.2349 11.9398L21.4343 12.5701L20.8965 12.1856L20.3587 12.5701L20.5581 11.9398L20.0263 11.5472L20.6873 11.542L20.8965 10.9149ZM20.8965 10.7494C20.8253 10.7494 20.7621 10.795 20.7395 10.8625L20.5678 11.3774L20.0251 11.3816C19.9539 11.3822 19.891 11.4282 19.869 11.496C19.847 11.5638 19.8708 11.638 19.9281 11.6803L20.3646 12.0027L20.201 12.5202C20.1795 12.5881 20.2039 12.6622 20.2615 12.704C20.2905 12.7251 20.3246 12.7356 20.3588 12.7356C20.3925 12.7356 20.4262 12.7253 20.4551 12.7047L20.8966 12.3891L21.3382 12.7047C21.367 12.7253 21.4007 12.7356 21.4344 12.7356C21.4686 12.7356 21.5027 12.7251 21.5317 12.704C21.5894 12.6621 21.6137 12.5881 21.5923 12.5202L21.4286 12.0027L21.8652 11.6803C21.9225 11.638 21.9463 11.5638 21.9242 11.496C21.9022 11.4282 21.8393 11.3822 21.7681 11.3816L21.2254 11.3774L21.0537 10.8625C21.031 10.795 20.9678 10.7494 20.8965 10.7494Z" fill="#F5F5F5"/>
<path d="M15.6413 13.4806C15.6243 13.4806 15.6076 13.4753 15.5932 13.4652L15.1035 13.1149L14.6137 13.4652C14.5994 13.4753 14.5824 13.4806 14.5656 13.4806C14.5486 13.4806 14.5315 13.4753 14.517 13.4648C14.4883 13.4438 14.4759 13.4067 14.4866 13.3727L14.6683 12.7989L14.1842 12.4413C14.1555 12.4198 14.1436 12.3827 14.1545 12.3492C14.1656 12.3152 14.1971 12.2922 14.2327 12.2918L14.8346 12.2873L15.025 11.7163C15.0363 11.6828 15.068 11.6598 15.1036 11.6598C15.1392 11.6598 15.1709 11.6828 15.1822 11.7163L15.3726 12.2873L15.9745 12.2918C16.0101 12.2922 16.0416 12.3152 16.0527 12.3492C16.0636 12.3827 16.0516 12.4198 16.023 12.4413L15.5389 12.7989L15.7206 13.3727C15.7313 13.4067 15.719 13.4438 15.6902 13.4648C15.6755 13.4754 15.6583 13.4806 15.6413 13.4806Z" fill="#FF4B55"/>
<path d="M15.1034 11.7425L15.3126 12.3696L15.9736 12.3747L15.4418 12.7674L15.6412 13.3976L15.1034 13.0132L14.5656 13.3976L14.765 12.7674L14.2332 12.3747L14.8942 12.3696L15.1034 11.7425ZM15.1034 11.577C15.0322 11.577 14.969 11.6225 14.9464 11.6901L14.7747 12.205L14.232 12.2092C14.1608 12.2097 14.0979 12.2558 14.0759 12.3236C14.0539 12.3914 14.0777 12.4656 14.135 12.5079L14.5716 12.8303L14.4079 13.3478C14.3864 13.4157 14.4108 13.4897 14.4684 13.5316C14.4974 13.5527 14.5315 13.5632 14.5657 13.5632C14.5994 13.5632 14.6332 13.5529 14.662 13.5323L15.1035 13.2167L15.5451 13.5323C15.5739 13.5528 15.6076 13.5632 15.6413 13.5632C15.6755 13.5632 15.7096 13.5527 15.7387 13.5316C15.7963 13.4897 15.8206 13.4157 15.7992 13.3478L15.6355 12.8303L16.0721 12.5079C16.1294 12.4656 16.1532 12.3914 16.1311 12.3236C16.1091 12.2558 16.0462 12.2097 15.975 12.2092L15.4323 12.205L15.2606 11.6901C15.2379 11.6225 15.1747 11.577 15.1034 11.577Z" fill="#F5F5F5"/>
</svg>
