<svg xmlns="http://www.w3.org/2000/svg" width="24" height="24" viewBox="0 0 24 24" fill="none"><rect width="24" height="24" fill="none"/>
<path d="M22.2134 4.13808H1.78664C0.798984 4.14389 0 4.94611 0 5.93517V12.0001H24V5.93517C24 4.94611 23.201 4.14389 22.2134 4.13808Z" fill="#FF4B55"/>
<path d="M0 18.0645C0 19.0572 0.804703 19.8619 1.79742 19.8619H22.2026C23.1952 19.8619 24 19.0572 24 18.0645V12.0002H0V18.0645Z" fill="#41479B"/>
<path d="M0.642375 19.4414L11.6062 12.2582C11.7921 12.1364 11.7921 11.8639 11.6062 11.7421L0.642 4.55869C0.249609 4.8884 0 5.38256 0 5.93517V18.0645C0 18.6173 0.249797 19.1116 0.642375 19.4414Z" fill="#F5F5F5"/>
<path d="M4.24218 11.7023C4.95978 11.7023 5.54151 11.1206 5.54151 10.403C5.54151 9.68537 4.95978 9.10364 4.24218 9.10364C3.52458 9.10364 2.94286 9.68537 2.94286 10.403C2.94286 11.1206 3.52458 11.7023 4.24218 11.7023Z" fill="#FFE15A"/>
<path d="M5.83077 11.6066C5.83593 11.7643 5.85309 11.9269 5.86963 12.0842C5.93455 12.7012 5.99066 13.2341 5.39807 13.4409C5.25801 13.4897 5.06713 13.5171 4.88263 13.5435C4.61774 13.5815 4.38056 13.6154 4.2426 13.7116C4.10465 13.6155 3.86751 13.5815 3.60257 13.5435C3.41807 13.5171 3.22715 13.4897 3.08713 13.4409C2.49454 13.2341 2.55065 12.7012 2.61557 12.0842C2.63212 11.9269 2.64923 11.7643 2.65443 11.6066C2.67285 11.048 2.55505 10.5006 2.47232 10.1912C2.61018 10.2477 2.80129 10.2988 3.03562 10.2947C3.13659 10.2926 3.24998 10.2783 3.36998 10.2631C3.64391 10.2281 3.95437 10.1889 4.20285 10.2871L4.2427 10.3048L4.28254 10.2871C4.53098 10.1889 4.84148 10.2281 5.11541 10.2631C5.23541 10.2783 5.3488 10.2926 5.44977 10.2947C5.6841 10.2988 5.87526 10.2477 6.01307 10.1912C5.9301 10.5006 5.81235 11.048 5.83077 11.6066Z" fill="#8CD7FF"/>
<path d="M6.0472 11.5995C6.02109 10.8076 6.29127 10.0131 6.29404 10.0052L6.12374 9.88557C6.12154 9.8874 5.86541 10.0861 5.45385 10.0781C5.36441 10.0764 5.25665 10.0627 5.14251 10.0482C4.85596 10.0119 4.53271 9.97079 4.24256 10.071C3.9524 9.97084 3.6292 10.0119 3.3426 10.0482C3.22851 10.0627 3.1207 10.0764 3.03126 10.0781C2.6197 10.0861 2.36362 9.88736 2.36137 9.88557L2.19107 10.0052C2.19374 10.0131 2.46402 10.8076 2.43791 11.5995C2.43299 11.7494 2.4163 11.908 2.40009 12.0615C2.33498 12.6805 2.26115 13.3822 3.0157 13.6454C3.17559 13.7011 3.37762 13.7258 3.57173 13.7579C4.15452 13.8545 4.24251 14.0034 4.24251 14.0034C4.24251 14.0034 4.33049 13.8544 4.91329 13.7579C5.1074 13.7258 5.30943 13.7011 5.46932 13.6454C6.22391 13.3822 6.15013 12.6805 6.08493 12.0615C6.06885 11.908 6.05212 11.7494 6.0472 11.5995ZM5.83077 11.6066C5.83593 11.7643 5.85309 11.9269 5.86963 12.0842C5.93455 12.7012 5.99066 13.2341 5.39807 13.4409C5.25801 13.4897 5.06713 13.5171 4.88263 13.5435C4.61774 13.5815 4.38056 13.6154 4.2426 13.7116C4.10465 13.6155 3.86751 13.5815 3.60257 13.5435C3.41807 13.5171 3.22715 13.4897 3.08713 13.4409C2.49454 13.2341 2.55065 12.7012 2.61557 12.0842C2.63212 11.9269 2.64923 11.7643 2.65443 11.6066C2.67285 11.048 2.55505 10.5006 2.47232 10.1912C2.61018 10.2477 2.80129 10.2988 3.03562 10.2947C3.13659 10.2926 3.24998 10.2782 3.36998 10.2631C3.64391 10.2281 3.95437 10.1889 4.20285 10.2871L4.2427 10.3048L4.28254 10.2871C4.53098 10.1889 4.84148 10.2281 5.11541 10.2631C5.23541 10.2782 5.3488 10.2926 5.44977 10.2947C5.6841 10.2988 5.87526 10.2477 6.01307 10.1912C5.9301 10.5006 5.81235 11.048 5.83077 11.6066Z" fill="#FF4B55"/>
<path d="M5.35922 12.9378V12.4605H5.44102V12.3198H5.24096V11.8295H5.44102L4.52611 11.1814V10.9376H4.65338L4.24256 10.6466L3.83185 10.9376H3.95902V11.1814L3.04411 11.8295H3.24422V12.3198H3.04411V12.4605H3.12595V12.9378H3.00642V13.1439H5.4788V12.9378H5.35922Z" fill="#F5F5F5"/>
<path d="M3.05581 10.9844C3.02665 11.0535 3.03162 11.1267 3.0626 11.1806C3.12289 11.1652 3.17876 11.1177 3.20796 11.0486C3.23712 10.9796 3.23215 10.9063 3.20117 10.8525C3.14093 10.8678 3.08501 10.9153 3.05581 10.9844Z" fill="#41AA5A"/>
<path d="M3.19751 11.0061C3.21658 11.0786 3.26529 11.1335 3.32271 11.1573C3.36105 11.1083 3.37629 11.0366 3.35721 10.964C3.33813 10.8915 3.28943 10.8366 3.23201 10.8129C3.19371 10.8618 3.17843 10.9335 3.19751 11.0061Z" fill="#41AA5A"/>
<path d="M3.41773 10.8855C3.48804 10.9116 3.56093 10.9035 3.61343 10.8701C3.59548 10.8106 3.54556 10.7568 3.47529 10.7307C3.40498 10.7046 3.33209 10.7127 3.27959 10.746C3.29754 10.8056 3.34741 10.8594 3.41773 10.8855Z" fill="#41AA5A"/>
<path d="M3.48368 10.7618C3.5523 10.7316 3.59904 10.675 3.61348 10.6145C3.5591 10.5843 3.48588 10.5804 3.41726 10.6106C3.34863 10.6408 3.30194 10.6974 3.28746 10.7578C3.34174 10.7881 3.41501 10.792 3.48368 10.7618Z" fill="#41AA5A"/>
<path d="M3.02233 10.8244C3.0835 10.781 3.11786 10.7162 3.11988 10.654C3.06058 10.6353 2.98802 10.6462 2.92685 10.6896C2.86567 10.733 2.83132 10.7978 2.8293 10.86C2.8886 10.8786 2.96121 10.8677 3.02233 10.8244Z" fill="#41AA5A"/>
<path d="M2.97136 10.7337C3.06548 10.7876 3.16631 10.8023 3.24131 10.7806C3.222 10.7049 3.15839 10.6254 3.06426 10.5715C2.97014 10.5176 2.86931 10.503 2.79431 10.5246C2.81362 10.6003 2.87728 10.6799 2.97136 10.7337Z" fill="#41AA5A"/>
<path d="M3.36844 10.8442C3.36844 10.8077 3.33933 10.7782 3.30305 10.7769C3.30169 10.7406 3.27234 10.7115 3.23569 10.7115C3.19903 10.7115 3.16969 10.7406 3.16833 10.7769C3.13205 10.7782 3.10294 10.8076 3.10294 10.8442C3.10294 10.8808 3.13205 10.9102 3.16833 10.9116C3.16969 10.9479 3.19903 10.977 3.23569 10.977C3.27234 10.977 3.30169 10.9479 3.30305 10.9116C3.33933 10.9102 3.36844 10.8809 3.36844 10.8442Z" fill="#FFE15A"/>
<path d="M3.23578 10.8844C3.25779 10.8844 3.27563 10.8665 3.27563 10.8445C3.27563 10.8225 3.25779 10.8047 3.23578 10.8047C3.21378 10.8047 3.19594 10.8225 3.19594 10.8445C3.19594 10.8665 3.21378 10.8844 3.23578 10.8844Z" fill="#F5F5F5"/>
<path d="M3.15657 10.7771C3.15657 10.747 3.13262 10.7229 3.10285 10.7218C3.10173 10.692 3.07754 10.6681 3.04749 10.6681C3.0174 10.6681 2.99321 10.692 2.99213 10.7218C2.96232 10.7229 2.93842 10.7471 2.93842 10.7771C2.93842 10.8072 2.96237 10.8314 2.99213 10.8325C2.99326 10.8623 3.01745 10.8862 3.04749 10.8862C3.07759 10.8862 3.10177 10.8623 3.10285 10.8325C3.13262 10.8314 3.15657 10.8072 3.15657 10.7771Z" fill="#FFE15A"/>
<path d="M3.04734 10.8098C3.06541 10.8098 3.08006 10.7951 3.08006 10.777C3.08006 10.759 3.06541 10.7443 3.04734 10.7443C3.02927 10.7443 3.01462 10.759 3.01462 10.777C3.01462 10.7951 3.02927 10.8098 3.04734 10.8098Z" fill="#F5F5F5"/>
<path d="M3.35981 10.6833C3.35981 10.6616 3.34251 10.6442 3.32109 10.6434C3.32025 10.6219 3.3029 10.6047 3.2812 10.6047C3.2595 10.6047 3.24211 10.622 3.24131 10.6434C3.21984 10.6442 3.20259 10.6616 3.20259 10.6833C3.20259 10.705 3.21989 10.7224 3.24131 10.7232C3.24215 10.7446 3.2595 10.7619 3.2812 10.7619C3.3029 10.7619 3.32029 10.7446 3.32109 10.7232C3.34256 10.7224 3.35981 10.7049 3.35981 10.6833Z" fill="#FFE15A"/>
<path d="M3.28125 10.7069C3.29428 10.7069 3.30483 10.6963 3.30483 10.6833C3.30483 10.6703 3.29428 10.6597 3.28125 10.6597C3.26823 10.6597 3.25768 10.6703 3.25768 10.6833C3.25768 10.6963 3.26823 10.7069 3.28125 10.7069Z" fill="#F5F5F5"/>
<path d="M3.21066 10.6154C3.21066 10.5938 3.19336 10.5763 3.17194 10.5755C3.17109 10.5541 3.15375 10.5368 3.13205 10.5368C3.11039 10.5368 3.09295 10.5541 3.09216 10.5755C3.07069 10.5764 3.05344 10.5937 3.05344 10.6154C3.05344 10.6371 3.07073 10.6545 3.09216 10.6553C3.093 10.6768 3.11034 10.694 3.13205 10.694C3.1537 10.694 3.17114 10.6767 3.17194 10.6553C3.19341 10.6545 3.21066 10.6371 3.21066 10.6154Z" fill="#FFE15A"/>
<path d="M3.13184 10.6388C3.14486 10.6388 3.15542 10.6282 3.15542 10.6152C3.15542 10.6022 3.14486 10.5916 3.13184 10.5916C3.11882 10.5916 3.10826 10.6022 3.10826 10.6152C3.10826 10.6282 3.11882 10.6388 3.13184 10.6388Z" fill="#F5F5F5"/>
<path d="M4.94084 11.2105H5.69183C5.64373 11.1004 5.54937 11.0152 5.43237 10.9805C5.4409 10.9258 5.44615 10.8651 5.44615 10.8C5.44615 10.5732 5.38808 10.3893 5.31636 10.3893C5.24464 10.3893 5.18656 10.5732 5.18656 10.8C5.18656 10.8651 5.19176 10.9258 5.20034 10.9805C5.08329 11.0152 4.98889 11.1003 4.94084 11.2105Z" fill="#F5F5F5"/>
<path d="M4.24256 14.8967C2.66034 14.8967 1.37306 13.6095 1.37306 12.0272H1.91447C1.91447 13.3109 2.95884 14.3552 4.24252 14.3552C5.52619 14.3552 6.57056 13.3109 6.57056 12.0272H7.11206C7.11206 13.6095 5.82487 14.8967 4.24256 14.8967Z" fill="#FFE15A"/>
<path d="M5.30606 9.46322H4.83811C4.88508 9.46322 4.92319 9.42515 4.92319 9.37814C4.92319 9.33112 4.88512 9.29306 4.83811 9.29306H4.24256C4.19559 9.29306 4.15748 9.33112 4.15748 9.37814C4.15748 9.42515 4.19555 9.46322 4.24256 9.46322H3.17911C3.10861 9.46322 3.05151 9.52036 3.05151 9.59081C3.05151 9.66126 3.10865 9.7184 3.17911 9.7184H3.56194C3.51497 9.7184 3.4769 9.75647 3.4769 9.80348C3.4769 9.85045 3.51497 9.88856 3.56198 9.88856H4.32769C4.37465 9.88856 4.41276 9.8505 4.41276 9.80348C4.41276 9.75651 4.3747 9.7184 4.32773 9.7184H5.30611C5.37661 9.7184 5.4337 9.66126 5.4337 9.59081C5.4337 9.52036 5.37656 9.46322 5.30606 9.46322Z" fill="#C87878"/>
</svg>
