<svg xmlns="http://www.w3.org/2000/svg" width="24" height="24" viewBox="0 0 24 24" fill="none"><rect width="24" height="24" fill="none"/>
<path d="M22.2026 4.13794H1.79742C0.804703 4.13794 0 4.94264 0 5.93536V9.37931H24V5.93536C24 4.94264 23.1953 4.13794 22.2026 4.13794Z" fill="#82AFFF"/>
<path d="M0 18.0646C0 19.0573 0.804703 19.862 1.79742 19.862H22.2026C23.1952 19.862 24 19.0573 24 18.0646V14.6207H0V18.0646Z" fill="#82AFFF"/>
<path d="M24 9.37921H0V14.6203H24V9.37921Z" fill="#F5F5F5"/>
<path d="M14.069 11.8965H12.5791C12.6069 11.8754 12.6289 11.8547 12.6488 11.8351C12.6851 11.7995 12.7141 11.7712 12.7908 11.7397C12.8679 11.7073 12.9083 11.707 12.9595 11.7062C13.0211 11.7058 13.0908 11.7046 13.2048 11.6577C13.3186 11.6104 13.3682 11.5618 13.4121 11.519C13.4485 11.4835 13.4774 11.4552 13.5543 11.4232C13.6309 11.3913 13.6711 11.3909 13.722 11.3905C13.7835 11.3897 13.8531 11.3889 13.9671 11.3416L13.8875 11.1508C13.8109 11.1828 13.7707 11.1832 13.7198 11.1836C13.6583 11.1844 13.5887 11.1852 13.4749 11.2321C13.3612 11.2794 13.3115 11.3279 13.2676 11.3707C13.2312 11.4063 13.2023 11.4345 13.1256 11.4661C13.0484 11.4984 13.008 11.4988 12.9569 11.4996C12.8953 11.5 12.8255 11.5012 12.7116 11.5485C12.5978 11.5954 12.5481 11.6443 12.5042 11.6871C12.4684 11.7219 12.4388 11.7498 12.3652 11.7809L13.5361 10.6101L13.3898 10.4638L12.3358 11.5177C12.3405 11.4832 12.3417 11.4526 12.342 11.4248C12.3426 11.3735 12.343 11.3334 12.375 11.2563C12.4069 11.1791 12.4351 11.1504 12.4708 11.114C12.514 11.07 12.5627 11.0199 12.6099 10.906C12.657 10.792 12.6578 10.7225 12.6585 10.6611C12.6591 10.6102 12.6595 10.5697 12.6912 10.493C12.7231 10.4162 12.7512 10.3875 12.7868 10.3512C12.8298 10.3071 12.8784 10.2574 12.9256 10.1438L12.7345 10.0647C12.7026 10.1414 12.6745 10.1701 12.6389 10.2065C12.5959 10.2506 12.5472 10.3003 12.5001 10.4138C12.453 10.5278 12.4522 10.5973 12.4516 10.6587C12.4509 10.7096 12.4505 10.7501 12.4188 10.8268C12.3869 10.904 12.3586 10.9327 12.323 10.969C12.2798 11.0131 12.2311 11.0631 12.1838 11.1771C12.1368 11.291 12.1359 11.361 12.1352 11.4224C12.1348 11.4722 12.1334 11.5125 12.1035 11.5865V9.93097H11.8966V11.4208C11.8755 11.3932 11.8548 11.3713 11.8354 11.3514C11.7997 11.315 11.7715 11.2859 11.7396 11.2092C11.7076 11.132 11.707 11.0916 11.7064 11.0402C11.7058 10.9788 11.705 10.9089 11.6578 10.7949C11.6107 10.6814 11.562 10.6317 11.5189 10.5876C11.4833 10.5512 11.4553 10.5225 11.4233 10.4458C11.3917 10.369 11.3912 10.3286 11.3906 10.2777C11.39 10.2162 11.3892 10.1467 11.3421 10.0332L11.151 10.1123C11.1827 10.1891 11.1831 10.2291 11.1837 10.28C11.1843 10.3415 11.1851 10.4109 11.2322 10.5249C11.2793 10.6384 11.3281 10.6881 11.3711 10.7322C11.4067 10.7686 11.4347 10.7973 11.4667 10.874C11.4986 10.9512 11.4992 10.9916 11.4998 11.043C11.5004 11.1044 11.5012 11.1743 11.5485 11.2883C11.5955 11.4022 11.6443 11.4519 11.6873 11.496C11.7224 11.5316 11.7501 11.5614 11.7812 11.6348L10.6102 10.4639L10.4639 10.6102L11.6331 11.7793C11.569 11.7502 11.5381 11.7234 11.5044 11.6908C11.4602 11.6476 11.4103 11.5987 11.2959 11.5514C11.182 11.5045 11.1123 11.5033 11.0506 11.5025C10.9993 11.5021 10.959 11.5013 10.8811 11.469C10.8033 11.4371 10.7743 11.4088 10.7373 11.3728C10.6931 11.33 10.6429 11.2812 10.5284 11.2334C10.414 11.1861 10.3441 11.1853 10.2823 11.1845C10.2308 11.1837 10.1902 11.183 10.1123 11.1506L10.0332 11.3421C10.1476 11.3894 10.2175 11.3902 10.2793 11.391C10.3308 11.3919 10.3714 11.3926 10.4492 11.425C10.5272 11.4569 10.5563 11.4852 10.5932 11.5211C10.6374 11.5643 10.6876 11.6128 10.8019 11.6601C10.9163 11.7078 10.9862 11.7087 11.0478 11.7095C11.0992 11.7103 11.1395 11.7106 11.217 11.743C11.2943 11.7749 11.3233 11.8032 11.3598 11.8388C11.3786 11.8573 11.3996 11.8767 11.425 11.8966H9.93094V12.1035H11.5835C11.5182 12.1283 11.4773 12.1315 11.4306 12.1322C11.369 12.1326 11.2992 12.1338 11.1851 12.1807C11.0709 12.228 11.0208 12.2768 10.9766 12.3197C10.9398 12.3557 10.9109 12.3839 10.8335 12.4159C10.7557 12.4482 10.7151 12.449 10.6636 12.4498C10.6018 12.4506 10.5319 12.4514 10.4175 12.4987C10.3029 12.5464 10.2528 12.5948 10.2086 12.6381C10.1716 12.674 10.1425 12.7023 10.0647 12.7342L10.1439 12.9258C10.2583 12.8781 10.3084 12.8296 10.3526 12.7864C10.3896 12.7504 10.4186 12.7221 10.4966 12.6902C10.5744 12.6579 10.615 12.6571 10.6666 12.6563C10.7284 12.6554 10.7983 12.6547 10.9129 12.607C11.0268 12.5597 11.0768 12.5112 11.121 12.4679C11.1575 12.4324 11.1866 12.4041 11.2643 12.3721C11.3414 12.3398 11.3821 12.3394 11.4332 12.3386C11.4593 12.3385 11.4888 12.3367 11.5208 12.3328L10.4638 13.3896L10.6101 13.5359L11.7787 12.3675C11.7499 12.4313 11.7233 12.4621 11.6906 12.4958C11.6476 12.5399 11.5989 12.59 11.5516 12.7039C11.5043 12.8179 11.5033 12.8882 11.5027 12.9496C11.5019 13.0009 11.5015 13.0413 11.4693 13.1189C11.4372 13.1969 11.4087 13.226 11.373 13.2628C11.3297 13.3068 11.281 13.3573 11.2336 13.4717C11.1861 13.586 11.1852 13.656 11.1845 13.7178C11.1836 13.7691 11.1831 13.8099 11.151 13.8875L11.3421 13.9666C11.3896 13.8523 11.3904 13.7823 11.3911 13.7205C11.392 13.6692 11.3926 13.6284 11.4247 13.5508C11.4568 13.4728 11.4853 13.4438 11.521 13.407C11.5643 13.3629 11.613 13.3124 11.6604 13.1981C11.7077 13.0841 11.7088 13.0138 11.7093 12.9524C11.7102 12.9011 11.7105 12.8607 11.7427 12.7831C11.7746 12.7055 11.8029 12.6768 11.8387 12.64C11.857 12.6212 11.8766 12.6002 11.8965 12.5746V14.0689H12.1034V12.4165C12.128 12.4816 12.1312 12.5224 12.1319 12.5693C12.1325 12.6308 12.1335 12.7007 12.1808 12.8146C12.2278 12.929 12.2767 12.9791 12.3198 13.0231C12.3555 13.0599 12.3838 13.089 12.4159 13.1666C12.448 13.2441 12.4486 13.285 12.4494 13.3363C12.4503 13.3981 12.451 13.468 12.4985 13.5823C12.546 13.6967 12.5947 13.7473 12.6379 13.7913C12.6736 13.8281 12.7021 13.8571 12.7343 13.9351L12.9254 13.856C12.8779 13.7416 12.8293 13.691 12.786 13.647C12.7503 13.6102 12.7217 13.5812 12.6896 13.5032C12.6575 13.4256 12.6569 13.3848 12.6561 13.3335C12.6553 13.2717 12.6545 13.2018 12.607 13.0874C12.5597 12.973 12.5111 12.9229 12.468 12.8789C12.4323 12.8421 12.404 12.813 12.3719 12.7355C12.3398 12.6583 12.3393 12.6179 12.3385 12.5665C12.3382 12.5404 12.3365 12.5109 12.3326 12.479L13.3897 13.536L13.536 13.3897L12.4822 12.336C12.5164 12.3406 12.547 12.3419 12.5746 12.3423C12.6257 12.3427 12.666 12.3432 12.7432 12.375C12.8203 12.4074 12.8492 12.4352 12.8858 12.4712C12.9299 12.514 12.9797 12.5629 13.0937 12.6102C13.2075 12.6571 13.2772 12.6579 13.3386 12.6583C13.3895 12.6591 13.4297 12.6595 13.5065 12.6914C13.5833 12.7229 13.612 12.7513 13.6484 12.7868C13.6924 12.8297 13.7422 12.8785 13.8559 12.9259L13.9351 12.7343C13.8583 12.7028 13.8296 12.6745 13.7932 12.6389C13.7491 12.5961 13.6994 12.5473 13.5857 12.4999C13.4719 12.453 13.4022 12.4522 13.3408 12.4518C13.2899 12.451 13.2497 12.4506 13.1729 12.4187C13.0958 12.3868 13.0668 12.3589 13.0303 12.3229C12.9862 12.28 12.9363 12.2312 12.8223 12.1843C12.7084 12.1366 12.6387 12.1357 12.577 12.1354C12.5269 12.1345 12.4862 12.1336 12.4118 12.1034H14.0688V11.8965H14.069V11.8965Z" fill="#F09146"/>
<path d="M12 13.0345C12.5714 13.0345 13.0345 12.5713 13.0345 12C13.0345 11.4286 12.5714 10.9655 12 10.9655C11.4286 10.9655 10.9655 11.4286 10.9655 12C10.9655 12.5713 11.4286 13.0345 12 13.0345Z" fill="#FFE15A"/>
</svg>
