<svg xmlns="http://www.w3.org/2000/svg" width="24" height="24" viewBox="0 0 24 24" fill="none"><rect width="24" height="24" fill="none"/>
<path d="M22.2134 4.13808H1.78664C0.798984 4.14389 0 4.94611 0 5.93517V12.0001H24V5.93517C24 4.94611 23.201 4.14389 22.2134 4.13808Z" fill="#FFE15A"/>
<path d="M0 18.0645C0 19.0572 0.804703 19.8619 1.79742 19.8619H22.2026C23.1952 19.8619 24 19.0572 24 18.0645V12.0001H0V18.0645Z" fill="#73AF00"/>
<path d="M1.79742 19.8619H7.86206V4.13808H1.78664C0.798984 4.14389 0 4.94611 0 5.93517V18.0645C0 19.0572 0.804703 19.8619 1.79742 19.8619Z" fill="#FF4B55"/>
<path d="M3.85298 9.93571L3.39684 11.3035L1.95502 11.3147C1.87598 11.3153 1.84317 11.4162 1.90683 11.4631L3.0667 12.3196L2.6318 13.6943C2.60794 13.7697 2.69377 13.832 2.75808 13.7861L3.93108 12.9476L5.10408 13.7861C5.16839 13.8321 5.25417 13.7697 5.23036 13.6943L4.79545 12.3196L5.95533 11.4631C6.01889 11.4162 5.98617 11.3153 5.90714 11.3147L4.46531 11.3035L4.00917 9.93571C3.98405 9.86071 3.87802 9.86071 3.85298 9.93571Z" fill="#464655"/>
</svg>
