<svg xmlns="http://www.w3.org/2000/svg" width="24" height="24" viewBox="0 0 24 24" fill="none"><rect width="24" height="24" fill="none"/>
<path d="M22.2026 19.8621H1.79742C0.804703 19.8621 0 19.0574 0 18.0646V5.93536C0 4.94269 0.804703 4.13794 1.79742 4.13794H22.2026C23.1952 4.13794 24 4.94264 24 5.93536V18.0647C24 19.0574 23.1953 19.8621 22.2026 19.8621Z" fill="#F5F5F5"/>
<path d="M22.4612 4.15668L12 11.0106L1.53882 4.15668C0.911914 4.24705 0.38982 4.66077 0.14682 5.22346L10.4899 12L0.14682 18.7765C0.38982 19.3392 0.911961 19.7529 1.53887 19.8433L12 12.9894L22.4612 19.8433C23.0881 19.7529 23.6102 19.3392 23.8532 18.7765L13.5101 12L23.8533 5.22346C23.6102 4.66077 23.0881 4.24705 22.4612 4.15668Z" fill="#FF4B55"/>
<path d="M13.2449 5.94655C13.2449 5.94655 13.1138 5.75001 12.9173 5.88102C12.9173 5.88102 13.1446 6.04485 12.991 6.21683C12.8285 6.39885 12.6051 6.22082 12.591 6.09037C12.6506 6.08582 12.6977 6.03655 12.6977 5.9758C12.6977 5.91201 12.6461 5.86035 12.5823 5.86035C12.5185 5.86035 12.4668 5.91201 12.4668 5.9758C12.4668 6.02558 12.4985 6.06763 12.5427 6.08385C12.5145 6.19551 12.2216 6.28096 12.1372 6.09604C12.0421 5.88787 12.1925 5.7111 12.3952 5.73566C12.3952 5.73566 12.3563 5.47771 12.082 5.58618C12.082 5.58618 12.1966 5.29133 12.0001 5.09479C11.8035 5.29133 11.9182 5.58618 11.9182 5.58618C11.6438 5.47766 11.605 5.73566 11.605 5.73566C11.8077 5.7111 11.958 5.88777 11.863 6.09604C11.7786 6.28096 11.4857 6.19551 11.4575 6.08385C11.5017 6.06768 11.5334 6.02563 11.5334 5.9758C11.5334 5.91201 11.4817 5.86035 11.4179 5.86035C11.3541 5.86035 11.3025 5.91201 11.3025 5.9758C11.3025 6.0366 11.3496 6.08582 11.4091 6.09037C11.3951 6.22082 11.1717 6.39885 11.0092 6.21683C10.8556 6.04485 11.0829 5.88102 11.0829 5.88102C10.8863 5.75001 10.7553 5.94655 10.7553 5.94655C10.6898 5.68447 10.4278 5.75001 10.4278 5.75001C10.6898 6.07757 10.8825 6.75332 10.8825 6.75332H13.1179C13.1179 6.75332 13.3105 6.07762 13.5727 5.75001C13.5724 5.75001 13.3103 5.68447 13.2449 5.94655Z" fill="#FFE15A"/>
<path d="M13.1176 6.75329C12.7561 6.62584 12.378 6.56213 12 6.56213C11.622 6.56213 11.244 6.62584 10.8824 6.75329C10.2961 9.32199 12 10.0086 12 10.0086C12 10.0086 13.7039 9.32199 13.1176 6.75329Z" fill="#FF4B55"/>
<path d="M11.1826 7.66726C11.1826 7.66726 11.1288 7.65714 11.0821 7.69454C11.0821 7.69454 11.0658 7.62995 11.1498 7.61439C11.2339 7.59873 11.1826 7.66726 11.1826 7.66726Z" fill="#82AFFF"/>
<path d="M11.1179 7.58557C11.1179 7.58557 11.0753 7.55126 11.0165 7.56213C11.0165 7.56213 11.0326 7.49749 11.1141 7.52351C11.1955 7.54947 11.1179 7.58557 11.1179 7.58557Z" fill="#82AFFF"/>
<path d="M11.1531 7.61903C11.1531 7.61903 11.0944 7.60891 11.0433 7.64631C11.0433 7.64631 11.0254 7.58172 11.1173 7.56616C11.2092 7.55055 11.1531 7.61903 11.1531 7.61903Z" fill="#82AFFF"/>
<path d="M12.1698 7.79062C12.1698 7.79062 12.1152 7.79319 12.0784 7.8404C12.0784 7.8404 12.0476 7.78133 12.1258 7.74674C12.2039 7.7121 12.1698 7.79062 12.1698 7.79062Z" fill="#82AFFF"/>
<path d="M12.0897 7.72025C12.0897 7.72025 12.0404 7.69672 11.9857 7.72091C11.9857 7.72091 11.9864 7.65425 12.0716 7.66072C12.1569 7.66719 12.0897 7.72025 12.0897 7.72025Z" fill="#82AFFF"/>
<path d="M12.13 7.75051C12.13 7.75051 12.0705 7.75421 12.0295 7.8024C12.0295 7.8024 11.9972 7.74371 12.083 7.70729C12.1688 7.67087 12.13 7.75051 12.13 7.75051Z" fill="#82AFFF"/>
<path d="M12.7936 7.82438C12.7936 7.82438 12.7732 7.82438 12.7366 7.85884C12.7366 7.85884 12.7104 7.80024 12.7876 7.77146C12.8648 7.74268 12.7936 7.82438 12.7936 7.82438Z" fill="#82AFFF"/>
<path d="M12.7545 7.74392C12.7545 7.74392 12.7084 7.71842 12.6544 7.73848C12.6544 7.73848 12.6589 7.67445 12.7405 7.68556C12.8222 7.69676 12.7545 7.74392 12.7545 7.74392Z" fill="#82AFFF"/>
<path d="M12.7914 7.77535C12.7914 7.77535 12.734 7.77549 12.6918 7.81942C12.6918 7.81942 12.6641 7.76106 12.7487 7.73101C12.8334 7.70101 12.7914 7.77535 12.7914 7.77535Z" fill="#82AFFF"/>
<path d="M11.0927 7.2619C11.0927 7.2619 11.0433 7.22909 10.9808 7.24648C10.9808 7.24648 10.992 7.17527 11.0825 7.19534C11.1731 7.2154 11.0927 7.2619 11.0927 7.2619Z" fill="#82AFFF"/>
<path d="M11.0886 7.13899C11.0886 7.13899 11.0568 7.08888 10.9887 7.08447C10.9887 7.08447 11.0328 7.01692 11.1101 7.06877C11.1874 7.12052 11.0886 7.13899 11.0886 7.13899Z" fill="#82AFFF"/>
<path d="M11.0889 7.20423C11.0889 7.20423 11.0369 7.16579 10.9681 7.17995C10.9681 7.17995 10.9836 7.1048 11.081 7.13255C11.1784 7.1604 11.0889 7.20423 11.0889 7.20423Z" fill="#82AFFF"/>
<path d="M12.636 7.429C12.7224 7.43135 12.8251 7.39708 12.8415 7.30755C12.8603 7.20466 12.7722 7.15263 12.6539 7.15727C12.5676 7.16069 12.3489 7.21029 12.1923 7.20475C12.0374 7.19932 12.0331 7.04604 12.2678 7.0623C12.6158 7.08644 12.6711 7.0413 12.6711 7.0413C12.4842 7.07632 12.4095 7.01093 12.211 7.01093C12.0125 7.01093 11.9744 7.14841 12.0545 7.22346C12.1443 7.30755 12.4702 7.25149 12.5566 7.23513C12.6431 7.21877 12.7527 7.21793 12.7613 7.27872C12.7691 7.33324 12.6243 7.33028 12.5218 7.32635C12.3586 7.32007 12.121 7.36436 11.9097 7.37529C11.7336 7.38438 11.7091 7.33474 11.669 7.28388C11.6784 7.26696 11.6837 7.24807 11.6837 7.2281C11.6837 7.21802 11.6821 7.20827 11.6796 7.1988C11.6929 7.18422 11.7069 7.16088 11.7133 7.12296C11.7133 7.12296 11.6682 7.11504 11.6342 7.13224C11.6069 7.11072 11.5708 7.09727 11.5308 7.09727C11.4908 7.09727 11.4547 7.11072 11.4274 7.13224C11.3933 7.11508 11.3483 7.12296 11.3483 7.12296C11.3547 7.16093 11.3687 7.18418 11.382 7.1988C11.3794 7.20822 11.3778 7.21793 11.3778 7.2281C11.3778 7.26475 11.3955 7.29789 11.4239 7.32166C11.4376 7.33314 11.4478 7.34824 11.4513 7.36577L11.4562 7.39066C11.4584 7.40158 11.4654 7.41011 11.4745 7.41532C11.3294 7.40036 11.2607 7.30914 11.2254 7.25843C11.1856 7.20124 11.1608 7.07472 11.1001 7.06071L11.0643 7.25149C11.0643 7.25149 11.141 7.42896 11.2838 7.50138C11.445 7.58308 11.4753 7.58547 11.5283 7.60882C11.5344 7.63685 11.4286 7.65396 11.3212 7.63221C11.2462 7.61702 11.1451 7.50808 11.0875 7.51586L11.1546 7.66488C11.3368 7.7801 11.496 7.78253 11.6326 7.7583C11.7291 7.74119 11.7658 7.66258 11.7722 7.62893C11.8116 7.62161 11.8546 7.61346 11.9876 7.58079C12.0433 7.5671 12.1074 7.55988 12.1713 7.55688C12.1893 7.59794 12.2304 7.65053 12.3721 7.6555C12.3721 7.6555 12.4064 7.71002 12.2896 7.6991C12.1728 7.68818 12.1429 7.6518 12.0743 7.65958L12.1355 7.80499C12.1355 7.80499 12.285 7.75361 12.4687 7.77232C12.4687 7.77232 12.5029 7.78169 12.5232 7.75211C12.5434 7.72254 12.5341 7.70543 12.5153 7.67894C12.5048 7.66404 12.4988 7.61575 12.4955 7.57624C12.5628 7.59316 12.7693 7.55125 12.8439 7.55754C12.9186 7.56372 12.9295 7.65096 12.9124 7.68053C12.8953 7.71011 12.7388 7.68485 12.7388 7.68485L12.7913 7.82847C12.7913 7.82847 12.8071 7.82088 12.847 7.78333C12.8794 7.75282 13.012 7.76313 13.012 7.73974V7.47368C13.012 7.46107 13.0011 7.45122 12.9885 7.4523C12.6959 7.4778 12.636 7.429 12.636 7.429Z" fill="#FFE15A"/>
<path d="M11.4693 7.33441C11.4737 7.34299 11.477 7.35232 11.4788 7.36221L11.4832 7.3871C11.4847 7.39582 11.4916 7.40215 11.4996 7.40215H11.5674C11.5754 7.40215 11.5823 7.39582 11.5838 7.3871L11.5883 7.36221C11.59 7.35232 11.5933 7.34304 11.5977 7.33441H11.4693Z" fill="#FF4B55"/>
<path d="M11.5335 7.38312C11.5178 7.38312 11.5056 7.38504 11.5073 7.40679L11.5136 7.49984C11.5147 7.51404 11.5232 7.52487 11.5335 7.52487C11.5436 7.52487 11.5523 7.51404 11.5533 7.49984L11.5597 7.40679C11.5613 7.38504 11.5491 7.38312 11.5335 7.38312Z" fill="#82AFFF"/>
<path d="M11.3314 8.58566C11.3314 8.58566 11.2875 8.57737 11.2494 8.60788C11.2494 8.60788 11.2361 8.55519 11.3047 8.54244C11.3733 8.52983 11.3314 8.58566 11.3314 8.58566Z" fill="#82AFFF"/>
<path d="M11.2786 8.51909C11.2786 8.51909 11.2439 8.4911 11.1959 8.49996C11.1959 8.49996 11.209 8.44718 11.2755 8.46842C11.342 8.4896 11.2786 8.51909 11.2786 8.51909Z" fill="#82AFFF"/>
<path d="M11.3074 8.54631C11.3074 8.54631 11.2595 8.53801 11.2178 8.56852C11.2178 8.56852 11.2033 8.51584 11.2782 8.50309C11.3531 8.49043 11.3074 8.54631 11.3074 8.54631Z" fill="#82AFFF"/>
<path d="M12.1367 8.68633C12.1367 8.68633 12.0921 8.68844 12.0621 8.72688C12.0621 8.72688 12.037 8.67869 12.1008 8.65047C12.1646 8.6223 12.1367 8.68633 12.1367 8.68633Z" fill="#82AFFF"/>
<path d="M12.0714 8.62888C12.0714 8.62888 12.0312 8.60971 11.9865 8.6294C11.9865 8.6294 11.9871 8.57502 12.0566 8.58032C12.1262 8.58557 12.0714 8.62888 12.0714 8.62888Z" fill="#82AFFF"/>
<path d="M12.1041 8.65357C12.1041 8.65357 12.0556 8.65661 12.0222 8.6959C12.0222 8.6959 11.9958 8.64799 12.0658 8.61832C12.1358 8.5886 12.1041 8.65357 12.1041 8.65357Z" fill="#82AFFF"/>
<path d="M12.6455 8.71379C12.6455 8.71379 12.6289 8.71379 12.599 8.74187C12.599 8.74187 12.5775 8.69406 12.6405 8.67066C12.7035 8.64718 12.6455 8.71379 12.6455 8.71379Z" fill="#82AFFF"/>
<path d="M12.6136 8.6482C12.6136 8.6482 12.576 8.62739 12.5319 8.6438C12.5319 8.6438 12.5356 8.59158 12.6022 8.60067C12.6688 8.60972 12.6136 8.6482 12.6136 8.6482Z" fill="#82AFFF"/>
<path d="M12.6437 8.67381C12.6437 8.67381 12.5969 8.67391 12.5624 8.70977C12.5624 8.70977 12.5398 8.66219 12.6089 8.63767C12.6779 8.61316 12.6437 8.67381 12.6437 8.67381Z" fill="#82AFFF"/>
<path d="M11.2581 8.25501C11.2581 8.25501 11.2178 8.2283 11.1668 8.24245C11.1668 8.24245 11.1759 8.18433 11.2498 8.20073C11.3237 8.21714 11.2581 8.25501 11.2581 8.25501Z" fill="#82AFFF"/>
<path d="M11.2548 8.15475C11.2548 8.15475 11.2288 8.11382 11.1733 8.11026C11.1733 8.11026 11.2092 8.05518 11.2723 8.09742C11.3353 8.1397 11.2548 8.15475 11.2548 8.15475Z" fill="#82AFFF"/>
<path d="M11.255 8.20797C11.255 8.20797 11.2125 8.17662 11.1565 8.18819C11.1565 8.18819 11.1691 8.12688 11.2485 8.14957C11.328 8.17221 11.255 8.20797 11.255 8.20797Z" fill="#82AFFF"/>
<path d="M12.5169 8.39187C12.5874 8.39379 12.6712 8.36586 12.6846 8.29282C12.6999 8.20892 12.628 8.16645 12.5315 8.17029C12.4611 8.17311 12.2827 8.21351 12.155 8.20901C12.0286 8.20456 12.0251 8.07954 12.2166 8.09281C12.5004 8.1125 12.5455 8.0757 12.5455 8.0757C12.3931 8.10425 12.3321 8.0509 12.1701 8.0509C12.0082 8.0509 11.9772 8.16303 12.0425 8.22429C12.1158 8.29287 12.3816 8.24717 12.4521 8.23381C12.5226 8.22045 12.612 8.21975 12.6191 8.26939C12.6255 8.31382 12.5073 8.31143 12.4237 8.30825C12.2905 8.30314 12.0968 8.33928 11.9244 8.34814C11.7808 8.35554 11.7608 8.31504 11.7281 8.27361C11.7357 8.25978 11.7401 8.24445 11.7401 8.22814C11.7401 8.21993 11.7387 8.21201 11.7366 8.20428C11.7475 8.19237 11.7589 8.17334 11.7641 8.1424C11.7641 8.1424 11.7273 8.13593 11.6996 8.14995C11.6774 8.13242 11.6479 8.12145 11.6152 8.12145C11.5826 8.12145 11.5531 8.13242 11.5309 8.14995C11.5032 8.13593 11.4664 8.1424 11.4664 8.1424C11.4716 8.17334 11.483 8.19237 11.4938 8.20428C11.4918 8.21197 11.4904 8.21989 11.4904 8.22814C11.4904 8.25804 11.5049 8.28509 11.528 8.30445C11.5392 8.31383 11.5475 8.32611 11.5503 8.34045L11.5544 8.36079C11.5561 8.3697 11.5619 8.37664 11.5693 8.3809C11.4509 8.36872 11.3949 8.29433 11.3661 8.25293C11.3337 8.20629 11.3135 8.10307 11.2639 8.09164L11.2347 8.24722C11.2347 8.24722 11.2973 8.39201 11.4137 8.45107C11.5452 8.51773 11.5699 8.51965 11.6131 8.53868C11.6182 8.56156 11.5319 8.57553 11.4442 8.55772C11.383 8.54529 11.3006 8.45651 11.2536 8.46279L11.3083 8.58434C11.4569 8.67832 11.5868 8.68029 11.6982 8.66051C11.7769 8.64654 11.8069 8.58247 11.8121 8.555C11.8442 8.54904 11.8792 8.54239 11.9878 8.51572C12.0332 8.50456 12.0855 8.49865 12.1377 8.49622C12.1523 8.52973 12.1859 8.57267 12.3015 8.57665C12.3015 8.57665 12.3294 8.62109 12.2342 8.61218C12.1389 8.60328 12.1145 8.57361 12.0586 8.57998L12.1085 8.69858C12.1085 8.69858 12.2304 8.65667 12.3803 8.6719C12.3803 8.6719 12.4082 8.6795 12.4247 8.6554C12.4412 8.63126 12.4336 8.61729 12.4184 8.59573C12.4098 8.58359 12.4049 8.54417 12.4021 8.51192C12.457 8.52575 12.6255 8.49153 12.6863 8.49659C12.7473 8.50165 12.7561 8.57276 12.7422 8.59695C12.7282 8.62109 12.6006 8.60047 12.6006 8.60047L12.6434 8.71761C12.6434 8.71761 12.6563 8.71142 12.6889 8.68076C12.7153 8.65587 12.8235 8.66426 12.8235 8.64523V8.4282C12.8235 8.41789 12.8145 8.40987 12.8043 8.41076C12.5658 8.43162 12.5169 8.39187 12.5169 8.39187Z" fill="#FFE15A"/>
<path d="M11.5653 8.3147C11.5689 8.32173 11.5716 8.32932 11.573 8.33734L11.5765 8.35768C11.5777 8.36481 11.5834 8.36996 11.5899 8.36996H11.6452C11.6517 8.36996 11.6573 8.36481 11.6586 8.35768L11.6622 8.33734C11.6636 8.32932 11.6662 8.32168 11.6698 8.3147H11.5653Z" fill="#FF4B55"/>
<path d="M11.6176 8.35498C11.6048 8.35498 11.5949 8.35653 11.5962 8.37434L11.6014 8.45023C11.6023 8.46186 11.6093 8.47067 11.6176 8.47067C11.626 8.47067 11.633 8.46186 11.6338 8.45023L11.639 8.37434C11.6404 8.35653 11.6304 8.35498 11.6176 8.35498Z" fill="#82AFFF"/>
<path d="M11.4969 9.31665C11.4969 9.31665 11.4641 9.31046 11.4356 9.33329C11.4356 9.33329 11.4256 9.29382 11.477 9.28431C11.5283 9.27479 11.4969 9.31665 11.4969 9.31665Z" fill="#82AFFF"/>
<path d="M11.4574 9.26671C11.4574 9.26671 11.4314 9.24576 11.3955 9.25237C11.3955 9.25237 11.4053 9.21285 11.4551 9.22874C11.5048 9.24468 11.4574 9.26671 11.4574 9.26671Z" fill="#82AFFF"/>
<path d="M11.4789 9.28717C11.4789 9.28717 11.4431 9.28098 11.4119 9.30381C11.4119 9.30381 11.401 9.26434 11.4571 9.25483C11.5132 9.24531 11.4789 9.28717 11.4789 9.28717Z" fill="#82AFFF"/>
<path d="M12.0999 9.39206C12.0999 9.39206 12.0665 9.39361 12.044 9.42243C12.044 9.42243 12.0252 9.38634 12.073 9.36525C12.1207 9.34411 12.0999 9.39206 12.0999 9.39206Z" fill="#82AFFF"/>
<path d="M12.051 9.34908C12.051 9.34908 12.0208 9.33469 11.9874 9.3495C11.9874 9.3495 11.9879 9.30881 12.0399 9.3127C12.0921 9.31664 12.051 9.34908 12.051 9.34908Z" fill="#82AFFF"/>
<path d="M12.0755 9.36753C12.0755 9.36753 12.0392 9.36983 12.0142 9.39922C12.0142 9.39922 11.9944 9.36336 12.0468 9.34114C12.0992 9.31892 12.0755 9.36753 12.0755 9.36753Z" fill="#82AFFF"/>
<path d="M12.4809 9.41264C12.4809 9.41264 12.4685 9.41264 12.446 9.43368C12.446 9.43368 12.43 9.39787 12.4772 9.38034C12.5243 9.36276 12.4809 9.41264 12.4809 9.41264Z" fill="#82AFFF"/>
<path d="M12.457 9.36348C12.457 9.36348 12.4288 9.34792 12.3958 9.36015C12.3958 9.36015 12.3987 9.32106 12.4485 9.32781C12.4984 9.33461 12.457 9.36348 12.457 9.36348Z" fill="#82AFFF"/>
<path d="M12.4795 9.38268C12.4795 9.38268 12.4444 9.38277 12.4186 9.40963C12.4186 9.40963 12.4017 9.37401 12.4534 9.35563C12.5051 9.33726 12.4795 9.38268 12.4795 9.38268Z" fill="#82AFFF"/>
<path d="M11.442 9.06913C11.442 9.06913 11.4119 9.04912 11.3737 9.05971C11.3737 9.05971 11.3805 9.01621 11.4358 9.02849C11.4912 9.04073 11.442 9.06913 11.442 9.06913Z" fill="#82AFFF"/>
<path d="M11.4396 8.99407C11.4396 8.99407 11.4201 8.96346 11.3786 8.96074C11.3786 8.96074 11.4055 8.91954 11.4526 8.95113C11.4999 8.98277 11.4396 8.99407 11.4396 8.99407Z" fill="#82AFFF"/>
<path d="M11.4397 9.03395C11.4397 9.03395 11.4079 9.01047 11.3659 9.01914C11.3659 9.01914 11.3753 8.97325 11.4349 8.99022C11.4944 9.00714 11.4397 9.03395 11.4397 9.03395Z" fill="#82AFFF"/>
<path d="M12.3846 9.17104C12.4373 9.17249 12.5001 9.15154 12.5101 9.09688C12.5216 9.03402 12.4678 9.00229 12.3955 9.0051C12.3427 9.00716 12.2092 9.03749 12.1136 9.03412C12.019 9.03079 12.0164 8.93718 12.1597 8.94712C12.3722 8.96184 12.406 8.93427 12.406 8.93427C12.2919 8.9557 12.2462 8.91571 12.125 8.91571C12.0038 8.91571 11.9805 8.99966 12.0294 9.04555C12.0843 9.09693 12.2834 9.06266 12.3361 9.05268C12.3889 9.04269 12.4558 9.04218 12.4612 9.0793C12.4659 9.11259 12.3775 9.1108 12.3148 9.10837C12.2151 9.10452 12.0701 9.13157 11.9409 9.13827C11.8334 9.1438 11.8184 9.11348 11.7939 9.08245C11.7997 9.07209 11.8029 9.0606 11.8029 9.04841C11.8029 9.04227 11.802 9.03632 11.8004 9.03055C11.8085 9.0216 11.817 9.0074 11.821 8.98419C11.821 8.98419 11.7935 8.97937 11.7727 8.98982C11.756 8.9767 11.734 8.96844 11.7095 8.96844C11.685 8.96844 11.663 8.97665 11.6464 8.98982C11.6256 8.97932 11.598 8.98419 11.598 8.98419C11.602 9.00735 11.6105 9.0216 11.6186 9.03055C11.6171 9.03627 11.6161 9.04223 11.6161 9.04841C11.6161 9.07082 11.6269 9.09102 11.6442 9.10555C11.6526 9.11254 11.6588 9.12177 11.6609 9.13251L11.6639 9.1477C11.6652 9.15435 11.6695 9.15955 11.6751 9.16274C11.5864 9.1536 11.5445 9.09787 11.523 9.06693C11.4986 9.03201 11.4835 8.95476 11.4464 8.94613L11.4245 9.06262C11.4245 9.06262 11.4714 9.17104 11.5586 9.21524C11.657 9.26516 11.6755 9.26662 11.7079 9.28087C11.7117 9.29798 11.647 9.30843 11.5814 9.29516C11.5356 9.28584 11.4739 9.21932 11.4387 9.2241L11.4797 9.31513C11.591 9.38549 11.6882 9.38699 11.7716 9.37218C11.8306 9.36173 11.853 9.31373 11.8568 9.2932C11.8809 9.28874 11.9071 9.28373 11.9884 9.26376C12.0224 9.25537 12.0615 9.25096 12.1006 9.24918C12.1116 9.27426 12.1367 9.30637 12.2232 9.30937C12.2232 9.30937 12.2441 9.34265 12.1728 9.33599C12.1015 9.32934 12.0832 9.30712 12.0413 9.31185L12.0787 9.40068C12.0787 9.40068 12.17 9.36927 12.2822 9.38071C12.2822 9.38071 12.3031 9.38638 12.3155 9.36834C12.3278 9.35029 12.3221 9.33979 12.3107 9.32366C12.3043 9.31457 12.3006 9.28504 12.2985 9.26095C12.3397 9.2713 12.4657 9.24566 12.5114 9.24951C12.557 9.25335 12.5637 9.30655 12.5532 9.3246C12.5428 9.34265 12.4472 9.32723 12.4472 9.32723L12.4792 9.41493C12.4792 9.41493 12.4889 9.41029 12.5132 9.38737C12.5331 9.36876 12.6141 9.37499 12.6141 9.36074V9.19823C12.6141 9.19054 12.6074 9.18454 12.5997 9.1852C12.4211 9.2009 12.3846 9.17104 12.3846 9.17104Z" fill="#FFE15A"/>
<path d="M11.672 9.11334C11.6747 9.11864 11.6767 9.12431 11.6777 9.13031L11.6804 9.1455C11.6813 9.15084 11.6856 9.15469 11.6904 9.15469H11.7318C11.7367 9.15469 11.7409 9.1508 11.7418 9.1455L11.7445 9.13031C11.7456 9.12431 11.7475 9.11859 11.7502 9.11334H11.672Z" fill="#FF4B55"/>
<path d="M11.7112 9.14337C11.7016 9.14337 11.6941 9.1445 11.6951 9.15786L11.699 9.21467C11.6997 9.22334 11.7049 9.23 11.7112 9.23C11.7174 9.23 11.7226 9.22339 11.7233 9.21467L11.7272 9.15786C11.7282 9.1445 11.7207 9.14337 11.7112 9.14337Z" fill="#82AFFF"/>
</svg>
