<svg xmlns="http://www.w3.org/2000/svg" width="24" height="24" viewBox="0 0 24 24" fill="none"><rect width="24" height="24" fill="none"/>
<path d="M22.2047 4.13904H1.79531C0.801562 4.13904 0 4.94529 0 5.93435V18.0656C0 19.0593 0.80625 19.8609 1.79531 19.8609H22.2C23.1938 19.8609 23.9953 19.0547 23.9953 18.0656V5.93435C24 4.9406 23.1938 4.13904 22.2047 4.13904Z" fill="#F5F5F5"/>
<path d="M0 18.0656C0 19.0594 0.80625 19.8609 1.79531 19.8609H22.2C23.1938 19.8609 23.9953 19.0547 23.9953 18.0656V17.3812H0V18.0656Z" fill="#FF4B55"/>
<path d="M22.2047 4.13904H1.79531C0.801562 4.13904 0 4.94529 0 5.93435V6.61873H24V5.93435C24 4.9406 23.1938 4.13904 22.2047 4.13904Z" fill="#FF4B55"/>
<path d="M24 9.10315H0V14.8969H24V9.10315Z" fill="#41479B"/>
</svg>
