<svg xmlns="http://www.w3.org/2000/svg" width="24" height="24" viewBox="0 0 24 24" fill="none"><rect width="24" height="24" fill="none"/>
<path d="M24 5.93536C24 4.94269 23.1953 4.13794 22.2026 4.13794H1.79742C0.804703 4.13794 0 4.94264 0 5.93536V7.28278H24V5.93536Z" fill="#41479B"/>
<path d="M1.79742 19.8621H22.2026C23.1952 19.8621 24 19.0574 24 18.0646V16.7172H0V18.0646C0 19.0574 0.804703 19.8621 1.79742 19.8621Z" fill="#41479B"/>
<path d="M24 7.28296H0V10.4278H24V7.28296Z" fill="#F5F5F5"/>
<path d="M24 10.4278H0V13.5726H24V10.4278Z" fill="#41479B"/>
<path d="M24 13.5726H0V16.7175H24V13.5726Z" fill="#F5F5F5"/>
<path d="M0.651562 19.4494L12.1272 12.1815C12.2604 12.0971 12.2604 11.9028 12.1272 11.8184L0.651516 4.55054C0.253547 4.88026 0 5.37812 0 5.93532V18.0646C0 18.6218 0.253547 19.1197 0.651562 19.4494Z" fill="#FF4B55"/>
<path d="M4.14965 10.005L4.57452 11.2789L5.91735 11.2893C6.02137 11.2902 6.06449 11.4229 5.98082 11.4847L4.90054 12.2824L5.30559 13.5627C5.33699 13.6619 5.22402 13.7439 5.13941 13.6834L4.04695 12.9026L2.95448 13.6834C2.86987 13.7439 2.7569 13.6618 2.78831 13.5627L3.19335 12.2824L2.11312 11.4847C2.02945 11.4229 2.07257 11.2901 2.17659 11.2893L3.51941 11.2789L3.94429 10.005C3.97715 9.90636 4.11679 9.90636 4.14965 10.005Z" fill="#F5F5F5"/>
</svg>
