<svg xmlns="http://www.w3.org/2000/svg" width="24" height="24" viewBox="0 0 24 24" fill="none"><rect width="24" height="24" fill="none"/>
<path d="M22.2026 4.13782H16V19.8619H22.2026C23.1952 19.8619 24 19.0572 24 18.0645V5.93524C24 4.94252 23.1953 4.13782 22.2026 4.13782Z" fill="#FF4B55"/>
<path d="M16.0003 4.138H8.00015V19.8622H16.0003V4.138Z" fill="#41479B"/>
<path d="M1.79742 4.13782C0.804703 4.13782 0 4.94252 0 5.93524V18.0646C0 19.0572 0.804703 19.862 1.79742 19.862H8.00002V4.13782H1.79742Z" fill="#FF4B55"/>
<path d="M4.0167 10.6413C3.39134 10.6413 2.85533 10.2645 2.61917 9.72632C2.61903 9.73452 2.61673 9.74216 2.61673 9.75037C2.61673 10.5235 3.24355 11.1503 4.0167 11.1503C4.78986 11.1503 5.41662 10.5235 5.41662 9.75037C5.41662 9.74216 5.41433 9.73452 5.41419 9.72637C5.17803 10.2645 4.64201 10.6413 4.0167 10.6413Z" fill="#F9CF02"/>
<path d="M4.01675 10.3869C4.57904 10.3869 5.03487 9.93107 5.03487 9.36877C5.03487 8.80648 4.57904 8.35065 4.01675 8.35065C3.45445 8.35065 2.99862 8.80648 2.99862 9.36877C2.99862 9.93107 3.45445 10.3869 4.01675 10.3869Z" fill="#F9CF02"/>
<path d="M3.38037 7.45966C3.38037 7.81108 3.66528 8.09599 4.0167 8.09599C4.36813 8.09599 4.65303 7.81108 4.65303 7.45966C4.65303 7.20513 4.49394 7.1733 4.49394 7.07786C4.49394 6.98243 4.58937 6.85516 4.3985 6.69607C4.49394 6.85516 4.33489 6.88699 4.33489 7.04604C4.33489 7.20508 4.3985 7.20513 4.3985 7.3324C4.3985 7.40271 4.3415 7.45961 4.27128 7.45961C4.20097 7.45961 4.14406 7.40261 4.14406 7.3324C4.14406 7.20518 4.27128 7.07786 4.27128 6.88694C4.27128 6.69602 4.23945 6.63241 4.14406 6.47332C4.04862 6.31422 3.88953 6.18696 4.01684 6.05969C3.82592 6.1233 3.92141 6.37783 3.92141 6.53697C3.92141 6.69607 3.79419 6.7915 3.79419 6.98243C3.79419 7.17335 3.88962 7.20513 3.88962 7.3324C3.88962 7.40271 3.83262 7.45961 3.76241 7.45961C3.69219 7.45961 3.63519 7.40261 3.63519 7.3324C3.63519 7.20518 3.6988 7.20518 3.6988 7.04604C3.6988 6.8869 3.5397 6.85511 3.63519 6.69607C3.44427 6.85516 3.53975 6.98243 3.53975 7.07786C3.53947 7.1733 3.38037 7.20508 3.38037 7.45966Z" fill="#F9CF02"/>
<path d="M1.21686 11.51V17.4087C1.21686 17.4667 1.26392 17.5137 1.3219 17.5137H2.38442C2.44245 17.5137 2.48947 17.4667 2.48947 17.4087V11.51C2.48947 11.452 2.4424 11.405 2.38442 11.405H1.3219C1.26392 11.4049 1.21686 11.452 1.21686 11.51Z" fill="#F9CF02"/>
<path d="M5.54394 11.51V17.4087C5.54394 17.4667 5.591 17.5137 5.64898 17.5137H6.7115C6.76953 17.5137 6.81655 17.4667 6.81655 17.4087V11.51C6.81655 11.452 6.76948 11.405 6.7115 11.405H5.64898C5.59095 11.4049 5.54394 11.452 5.54394 11.51Z" fill="#F9CF02"/>
<path d="M2.74405 12.5281V12.827C2.74405 12.885 2.79111 12.9321 2.8491 12.9321H5.18427C5.2423 12.9321 5.28931 12.885 5.28931 12.827V12.5281C5.28931 12.4701 5.24225 12.423 5.18427 12.423H2.8491C2.79106 12.423 2.74405 12.4701 2.74405 12.5281Z" fill="#F9CF02"/>
<path d="M2.74405 16.0916V16.3905C2.74405 16.4485 2.79111 16.4955 2.8491 16.4955H5.18427C5.2423 16.4955 5.28931 16.4485 5.28931 16.3905V16.0916C5.28931 16.0335 5.24225 15.9865 5.18427 15.9865H2.8491C2.79106 15.9865 2.74405 16.0335 2.74405 16.0916Z" fill="#F9CF02"/>
<path d="M2.93371 11.4049H5.09971C5.153 11.4049 5.17241 11.4751 5.12675 11.5025L4.09785 12.1199C4.04793 12.1498 3.98554 12.1498 3.93571 12.1199L2.90671 11.5025C2.861 11.4751 2.88046 11.4049 2.93371 11.4049Z" fill="#F9CF02"/>
<path d="M2.93371 16.7502H5.09971C5.153 16.7502 5.17241 16.8204 5.12675 16.8478L4.09775 17.4651C4.04783 17.4951 3.98544 17.4951 3.93561 17.4651L2.90666 16.8477C2.861 16.8203 2.88046 16.7502 2.93371 16.7502Z" fill="#F9CF02"/>
<path d="M4.14101 13.1966C4.10089 13.1927 4.06203 13.1844 4.02092 13.1844C3.32103 13.1844 2.75164 13.7538 2.75164 14.4537C2.75164 14.8691 2.95456 15.2348 3.26459 15.4654C3.30026 15.492 3.34742 15.4536 3.33007 15.4126C3.2929 15.3245 3.272 15.228 3.272 15.1264C3.272 14.7127 3.60917 14.3763 4.02321 14.3776C4.24086 14.3782 4.4495 14.2707 4.54582 14.0755C4.74509 13.6719 4.50195 13.2707 4.14101 13.1966ZM4.02092 14.0349C3.88076 14.0349 3.76704 13.9212 3.76704 13.781C3.76704 13.6408 3.88071 13.5272 4.02092 13.5272C4.16107 13.5272 4.27475 13.6408 4.27475 13.781C4.2747 13.9212 4.16107 14.0349 4.02092 14.0349Z" fill="#F9CF02"/>
<path d="M4.77716 13.4419C4.74148 13.4154 4.69433 13.4538 4.71167 13.4948C4.74889 13.5828 4.76975 13.6794 4.76975 13.7809C4.76975 14.1946 4.43253 14.5311 4.01853 14.5298C3.80089 14.5291 3.5922 14.6366 3.49592 14.8318C3.29675 15.2355 3.53989 15.6368 3.90083 15.7108C3.94095 15.7146 3.97981 15.7229 4.02092 15.7229C4.72077 15.7229 5.2902 15.1535 5.2902 14.4536C5.29011 14.0383 5.08719 13.6726 4.77716 13.4419ZM4.02092 15.3802C3.88077 15.3802 3.76705 15.2666 3.76705 15.1263C3.76705 14.9862 3.88072 14.8725 4.02092 14.8725C4.16108 14.8725 4.27475 14.9861 4.27475 15.1263C4.2747 15.2665 4.16108 15.3802 4.02092 15.3802Z" fill="#F9CF02"/>
</svg>
