<svg xmlns="http://www.w3.org/2000/svg" width="24" height="24" viewBox="0 0 24 24" fill="none"><rect width="24" height="24" fill="none"/>
<path d="M1.79744 19.862H22.2026C23.1953 19.862 24 19.0573 24 18.0646V14.6207L0.956451 19.6532C1.20742 19.7863 1.4935 19.862 1.79744 19.862Z" fill="#73AF00"/>
<path d="M1.79742 4.13794C0.804703 4.13794 0 4.94264 0 5.93536V18.0647C0 18.4716 0.135375 18.8468 0.363328 19.148L7.99997 4.13794H1.79742Z" fill="#41479B"/>
<path d="M7.99998 4.13794L0.363342 19.148C0.414764 19.2159 0.470827 19.2801 0.531202 19.3401L16 4.13794H7.99998Z" fill="#FFE15A"/>
<path d="M22.2026 4.13794H16L0.531128 19.3401C0.6013 19.4098 0.677472 19.4734 0.758331 19.5308L24 9.37931V5.93536C24 4.94264 23.1953 4.13794 22.2026 4.13794Z" fill="#FF4B55"/>
<path d="M0.956425 19.6531L24 14.6206V9.37927L0.758331 19.5308C0.821519 19.5756 0.887566 19.6166 0.956425 19.6531Z" fill="#F5F5F5"/>
</svg>
