<svg xmlns="http://www.w3.org/2000/svg" width="24" height="24" viewBox="0 0 24 24" fill="none"><rect width="24" height="24" fill="none"/>
<path d="M22.203 19.863H1.797C0.804 19.863 0 19.059 0 18.066V5.93402C0 4.94102 0.804 4.13702 1.797 4.13702H22.203C23.196 4.13702 24 4.94102 24 5.93402V18.063C24 19.056 23.196 19.863 22.203 19.863Z" fill="#41479B"/>
<path d="M12 8.36401L5.13 12L12 15.636L18.87 12L12 8.36401Z" fill="#F5F5F5"/>
<path d="M9.71701 14.337H14.196L17.313 12.687L15.912 11.283H15.423L15.06 11.646L14.802 11.388H14.286L12.309 13.365H9.82501L9.261 12.531H8.544L8.262 12.924H7.944L7.755 13.299L9.71701 14.337Z" fill="#73AF00"/>
<path d="M12.054 10.017L12.219 10.509L12.738 10.512C12.804 10.512 12.834 10.599 12.78 10.638L12.363 10.95L12.519 11.445C12.54 11.508 12.465 11.562 12.411 11.523L11.988 11.22L11.565 11.523C11.511 11.562 11.436 11.508 11.457 11.445L11.613 10.95L11.196 10.641C11.142 10.602 11.169 10.515 11.238 10.515L11.757 10.512L11.922 10.02C11.943 9.95404 12.033 9.95404 12.054 10.017Z" fill="#FFE15A"/>
<path d="M22.203 4.13702H1.797C0.804 4.13702 0 4.94102 0 5.93402V18.063C0 19.056 0.804 19.86 1.797 19.86H22.203C23.196 19.86 24 19.056 24 18.063V5.93402C24 4.94402 23.196 4.13702 22.203 4.13702ZM0.828 4.96502H11.586V8.02502L4.863 11.586H0.828V4.96502ZM11.586 19.035H0.828V12.414H4.863L11.586 15.972V19.035ZM5.85 12L12 8.74502L18.15 12L12 15.255L5.85 12ZM23.172 19.035H12.414V15.975L19.137 12.417H23.172V19.035V19.035ZM23.172 11.586H19.137L12.414 8.02802V4.96802H23.172V11.586Z" fill="#FF4B55"/>
</svg>
