<svg xmlns="http://www.w3.org/2000/svg" width="24" height="24" viewBox="0 0 24 24" fill="none"><rect width="24" height="24" fill="none"/>
<path d="M22.2026 19.8621H1.79742C0.804703 19.8621 0 19.0574 0 18.0646V5.93536C0 4.94269 0.804703 4.13794 1.79742 4.13794H22.2026C23.1952 4.13794 24 4.94264 24 5.93536V18.0647C24 19.0574 23.1953 19.8621 22.2026 19.8621Z" fill="#FF4B55"/>
<path d="M1.79705 19.862H22.203C22.6428 19.8619 23.0455 19.7036 23.3579 19.4413L0.642187 4.55859C0.249656 4.88836 0 5.38256 0 5.93531V18.0646C0 19.0571 0.804516 19.8618 1.79705 19.862Z" fill="#464655"/>
<path d="M2.41402 11.7325L2.17721 12.4426L1.42871 12.4484C1.3569 12.4489 1.32718 12.5405 1.38488 12.5832L1.98699 13.0278L1.76119 13.7414C1.73954 13.8099 1.81749 13.8665 1.87585 13.8248L2.4848 13.3895L3.09375 13.8248C3.15216 13.8665 3.23007 13.8099 3.20841 13.7414L2.98261 13.0278L3.58472 12.5832C3.64243 12.5406 3.61271 12.449 3.5409 12.4484L2.7924 12.4426L2.55558 11.7325C2.53304 11.6644 2.43671 11.6644 2.41402 11.7325Z" fill="#F5F5F5"/>
<path d="M7.51323 11.7325L7.27642 12.4426L6.52792 12.4484C6.45611 12.4489 6.42639 12.5405 6.48409 12.5832L7.0862 13.0278L6.86041 13.7414C6.83875 13.8099 6.9167 13.8665 6.97506 13.8248L7.58402 13.3895L8.19297 13.8248C8.25137 13.8665 8.32928 13.8099 8.30762 13.7414L8.08183 13.0278L8.68394 12.5832C8.74164 12.5406 8.71192 12.449 8.64011 12.4484L7.89161 12.4426L7.6548 11.7325C7.6323 11.6644 7.53597 11.6644 7.51323 11.7325Z" fill="#F5F5F5"/>
<path d="M4.96361 8.64178L4.7268 9.35184L3.9783 9.35766C3.90649 9.35822 3.87677 9.44981 3.93447 9.49247L4.53658 9.93708L4.31078 10.6507C4.28913 10.7191 4.36708 10.7758 4.42544 10.734L5.03439 10.2988L5.64335 10.734C5.70175 10.7758 5.77966 10.7191 5.758 10.6507L5.53221 9.93708L6.13432 9.49247C6.19202 9.44986 6.1623 9.35826 6.09049 9.35766L5.34199 9.35184L5.10517 8.64178C5.08263 8.57367 4.98635 8.57367 4.96361 8.64178Z" fill="#F5F5F5"/>
<path d="M4.96361 16.2425L4.7268 16.9525L3.9783 16.9583C3.90649 16.9589 3.87677 17.0505 3.93447 17.0931L4.53658 17.5377L4.31078 18.2514C4.28913 18.3198 4.36708 18.3764 4.42544 18.3347L5.03439 17.8994L5.64335 18.3347C5.70175 18.3765 5.77966 18.3198 5.758 18.2514L5.53221 17.5377L6.13432 17.0931C6.19202 17.0505 6.1623 16.9589 6.09049 16.9583L5.34199 16.9525L5.10517 16.2425C5.08263 16.1744 4.98635 16.1744 4.96361 16.2425Z" fill="#F5F5F5"/>
<path d="M6.15135 14.3905L6.0254 14.7681L5.62738 14.7712C5.58923 14.7715 5.57338 14.8202 5.60409 14.8429L5.92424 15.0793L5.80419 15.4588C5.79266 15.4952 5.8341 15.5253 5.86518 15.5031L6.18904 15.2717L6.5129 15.5031C6.54393 15.5253 6.58537 15.4952 6.57388 15.4588L6.45384 15.0793L6.77399 14.8429C6.80469 14.8202 6.7889 14.7715 6.75069 14.7712L6.35268 14.7681L6.22673 14.3905C6.21463 14.3544 6.1634 14.3544 6.15135 14.3905Z" fill="#F5F5F5"/>
<path d="M20.5109 11.6411C20.4503 11.1722 20.25 10.7088 20.1044 10.4226C20.1763 10.4586 20.288 10.5233 20.288 10.5233L20.1894 10.1657C20.436 10.2643 20.6209 10.4555 20.6209 10.4555C20.4976 9.839 20.3065 9.54932 20.3065 9.54932L20.4606 9.60482C20.1708 8.88969 19.7393 8.68625 19.7393 8.68625L19.9859 8.62461C19.6222 8.16842 19.1105 8.0143 19.1105 8.0143L19.4434 7.85399C18.5618 7.35463 17.7111 7.87864 17.7111 7.87864C17.7111 7.87864 18.007 7.57044 18.1179 7.44097C18.2289 7.3115 17.9638 7.26838 17.9638 7.26838C17.9638 7.26838 18.2227 7.0896 18.2104 6.98478C18.198 6.87997 17.9638 6.93547 17.9638 6.93547C17.9638 6.93547 18.1672 6.72589 18.1672 6.60875C18.1672 6.49161 17.9577 6.56563 17.9577 6.56563C17.9577 6.56563 18.0255 6.42383 18.044 6.31283C18.0625 6.20188 17.859 6.29432 17.859 6.29432C17.859 6.29432 18.0871 5.88744 18.0749 5.80114C18.0625 5.7148 17.4769 6.07855 17.0577 6.47928C16.6385 6.88007 16.6888 7.52394 16.7259 7.67718C16.763 7.83041 16.7863 8.18778 16.6005 8.31308C16.4149 8.43843 16.0836 8.13149 15.9192 7.94244C15.7548 7.75339 15.5493 7.81911 15.3356 7.89308C15.1219 7.96705 14.7191 7.86842 14.5958 7.85197C14.4725 7.83552 14.7355 7.9753 14.9574 8.05747C15.1794 8.13964 15.278 8.33694 15.5904 8.45202C15.864 8.55285 16.083 8.80874 15.8678 8.92667C15.7001 9.0186 15.7013 8.87118 14.9616 8.68011C14.2218 8.489 13.3341 10.3693 13.3341 10.3693C13.8093 10.3105 14.0522 10.0258 14.0522 10.0258L13.9238 10.3941C14.275 10.3276 14.4468 10.114 14.4468 10.114L14.3539 10.4854C14.6231 10.4018 14.8088 10.114 14.8088 10.114L14.7299 10.4807C14.9945 10.3554 15.1338 10.114 15.1338 10.114C15.1616 10.2486 15.1836 10.5234 15.1836 10.5234C15.5933 10.3043 15.6891 9.99322 15.6891 9.99322C16.1576 11.4111 16.8357 11.6454 16.8357 11.6454L16.8727 11.2755C17.0823 11.5714 17.3782 11.7193 17.3782 11.7193L17.3289 11.3988C18.0563 12.2865 18.8947 12.5084 18.8947 12.5084L18.6801 12.0171L18.9441 12.0707C18.6605 11.8303 18.5557 11.411 18.5557 11.411L18.7776 11.448C18.42 11.1213 18.2413 10.7452 18.2413 10.7452L18.4571 10.7822C18.3892 10.6774 18.3337 10.3076 18.3337 10.3076C18.7283 10.4309 18.9317 10.585 18.9317 10.585L18.9551 10.4507C19.2936 10.6946 19.8495 11.1486 20.2347 11.7194C20.2352 11.9056 20.2051 12.0936 20.1277 12.2823C19.7744 13.1442 18.8454 13.0879 18.4344 12.907C18.4344 12.907 19.7085 13.9016 20.4072 12.4878C20.4515 12.3982 20.4792 12.3023 20.499 12.204C20.5862 12.4118 20.6464 12.6286 20.658 12.8535C20.7319 14.2961 19.2277 14.1605 19.2277 14.1605C19.2277 14.1605 20.8922 14.8263 20.9662 12.9029C20.9826 12.4753 20.8015 12.0477 20.5109 11.6411ZM18.9985 10.2012L19.0057 10.1595C19.2585 10.2335 19.5236 10.4123 19.5236 10.4123L19.5822 10.2366C19.8322 10.5372 20.032 10.8606 20.1432 11.1953C19.8056 10.8326 19.401 10.4958 18.9985 10.2012Z" fill="#FFE15A"/>
</svg>
