<svg xmlns="http://www.w3.org/2000/svg" width="24" height="24" viewBox="0 0 24 24" fill="none"><rect width="24" height="24" fill="none"/>
<path d="M22.2026 19.8621H1.79742C0.804703 19.8621 0 19.0574 0 18.0646V5.93536C0 4.94269 0.804703 4.13794 1.79742 4.13794H22.2026C23.1952 4.13794 24 4.94264 24 5.93536V18.0647C24 19.0574 23.1953 19.8621 22.2026 19.8621Z" fill="#FF4B55"/>
<path d="M21.5172 6.62067V17.3793H2.48279V6.62067H21.5172Z" fill="#FFE15A"/>
<path d="M2.48279 6.62067L12 12L2.48279 17.3793V6.62067Z" fill="#73AF00"/>
<path d="M21.5173 6.62097L12.0001 12.0003L21.5173 17.3796V6.62097Z" fill="#73AF00"/>
<path d="M12 13.6552C12.9141 13.6552 13.6552 12.9141 13.6552 12C13.6552 11.0859 12.9141 10.3448 12 10.3448C11.0859 10.3448 10.3448 11.0859 10.3448 12C10.3448 12.9141 11.0859 13.6552 12 13.6552Z" fill="#FF4B55"/>
<path d="M12.1046 10.787L12.3635 11.5632L13.1816 11.5696C13.2876 11.5704 13.3315 11.7055 13.2463 11.7685L12.5881 12.2545L12.8349 13.0346C12.8669 13.1357 12.7519 13.2192 12.6657 13.1576L12 12.6819L11.3344 13.1577C11.2482 13.2193 11.1332 13.1358 11.1652 13.0347L11.412 12.2546L10.7538 11.7686C10.6686 11.7056 10.7125 11.5705 10.8185 11.5697L11.6366 11.5633L11.8955 10.7871C11.9289 10.6865 12.0711 10.6865 12.1046 10.787Z" fill="#FFE15A"/>
<path d="M12.0618 4.68695L12.2148 5.14553L12.6982 5.14923C12.7608 5.1497 12.7868 5.22962 12.7364 5.26675L12.3474 5.55391L12.4933 6.01483C12.5122 6.0745 12.4442 6.12386 12.3933 6.08744L12 5.80642L11.6067 6.08753C11.5558 6.12395 11.4878 6.07455 11.5067 6.01492L11.6525 5.554L11.2636 5.26684C11.2133 5.22967 11.2392 5.1498 11.3018 5.14933L11.7852 5.14562L11.9381 4.68705C11.958 4.62761 12.042 4.62761 12.0618 4.68695Z" fill="#FFE15A"/>
<path d="M17.5058 4.68696L17.6587 5.14554L18.1422 5.14925C18.2047 5.14971 18.2307 5.22964 18.1803 5.26676L17.7914 5.55392L17.9372 6.01484C17.9561 6.07451 17.8882 6.12387 17.8372 6.08745L17.4439 5.80634L17.0506 6.08745C16.9997 6.12387 16.9317 6.07446 16.9506 6.01484L17.0964 5.55392L16.7075 5.26676C16.6572 5.22959 16.6831 5.14971 16.7457 5.14925L17.2291 5.14554L17.382 4.68696C17.402 4.62762 17.486 4.62762 17.5058 4.68696Z" fill="#FFE15A"/>
<path d="M6.61787 4.68696L6.77082 5.14554L7.25424 5.14925C7.31682 5.14971 7.34279 5.22964 7.2924 5.26676L6.90348 5.55392L7.0493 6.01484C7.06819 6.07451 7.00023 6.12387 6.94932 6.08745L6.55599 5.80634L6.16266 6.08745C6.11176 6.12387 6.04379 6.07446 6.06268 6.01484L6.20851 5.55392L5.81959 5.26676C5.76924 5.22959 5.79516 5.14971 5.85774 5.14925L6.34116 5.14554L6.49412 4.68696C6.51404 4.62762 6.59804 4.62762 6.61787 4.68696Z" fill="#FFE15A"/>
<path d="M12.0618 17.9057L12.2148 18.3643L12.6982 18.368C12.7608 18.3685 12.7868 18.4484 12.7364 18.4855L12.3474 18.7727L12.4933 19.2336C12.5122 19.2933 12.4442 19.3426 12.3933 19.3062L12 19.0252L11.6067 19.3063C11.5558 19.3427 11.4878 19.2933 11.5067 19.2337L11.6525 18.7728L11.2636 18.4856C11.2133 18.4485 11.2392 18.3686 11.3018 18.3681L11.7852 18.3644L11.9381 17.9058C11.958 17.8463 12.042 17.8463 12.0618 17.9057Z" fill="#FFE15A"/>
<path d="M17.5058 17.9057L17.6587 18.3643L18.1422 18.368C18.2047 18.3685 18.2307 18.4484 18.1803 18.4855L17.7914 18.7727L17.9372 19.2336C17.9561 19.2933 17.8882 19.3427 17.8372 19.3062L17.4439 19.0251L17.0506 19.3062C16.9997 19.3427 16.9317 19.2932 16.9506 19.2336L17.0964 18.7727L16.7075 18.4855C16.6572 18.4484 16.6831 18.3685 16.7457 18.368L17.2291 18.3643L17.382 17.9057C17.402 17.8464 17.486 17.8464 17.5058 17.9057Z" fill="#FFE15A"/>
<path d="M6.61787 17.9057L6.77082 18.3643L7.25424 18.368C7.31682 18.3685 7.34279 18.4484 7.2924 18.4855L6.90348 18.7727L7.0493 19.2336C7.06819 19.2933 7.00023 19.3427 6.94932 19.3062L6.55599 19.0251L6.16266 19.3062C6.11176 19.3427 6.04379 19.2932 6.06268 19.2336L6.20851 18.7727L5.81959 18.4855C5.76924 18.4484 5.79516 18.3685 5.85774 18.368L6.34116 18.3643L6.49412 17.9057C6.51404 17.8464 6.59804 17.8464 6.61787 17.9057Z" fill="#FFE15A"/>
<path d="M5.53448 10.9653H4.5V11.9998C4.5 12.5712 4.96313 13.0343 5.53448 13.0343C6.10584 13.0343 6.56897 12.5712 6.56897 11.9998C6.56897 11.4285 6.10584 10.9653 5.53448 10.9653Z" fill="#FFE15A"/>
<path d="M6.56897 13.0345L6.00033 12.9243L5.53448 12L6.45872 12.4658L6.56897 13.0345Z" fill="#FF4B55"/>
</svg>
