<svg xmlns="http://www.w3.org/2000/svg" width="24" height="24" viewBox="0 0 24 24" fill="none"><rect width="24" height="24" fill="none"/>
<path d="M22.2026 4.13789H1.79742C0.804703 4.13789 0 4.9426 0 5.93532V18.0647C0 19.0574 0.804703 19.8621 1.79742 19.8621H22.2026C23.1952 19.8621 24 19.0574 24 18.0647V5.93532C24 4.9426 23.1953 4.13789 22.2026 4.13789Z" fill="#F5F5F5"/>
<path d="M10.7586 12L0.611813 4.58499C0.236906 4.91443 0 5.39705 0 5.93532V18.0647C0 19.0574 0.804703 19.8621 1.79742 19.8621H10.7586L3.70988 12H10.7586ZM9.55388 19.3241H0.537938V5.19732L9.11081 11.462H3.70988H2.50509L3.30928 12.3591L9.55388 19.3241Z" fill="#41479B"/>
<path d="M3.30937 12.3591L2.50509 11.462H3.70987H9.11081L0.537935 5.19731V19.3241H9.55387L3.30937 12.3591Z" fill="#FF4B55"/>
<path d="M3.15685 13.8936L3.48807 14.5772L4.11671 14.1508C4.14441 14.132 4.18168 14.1535 4.17924 14.1869L4.12435 14.9445L4.88194 14.8896C4.91536 14.8872 4.93688 14.9244 4.91804 14.9521L4.49166 15.5808L5.17524 15.9121C5.20538 15.9267 5.20538 15.9697 5.17524 15.9843L4.49166 16.3155L4.91804 16.9441C4.93688 16.9718 4.91536 17.0091 4.88194 17.0067L4.12435 16.9518L4.17924 17.7094C4.18168 17.7428 4.14441 17.7643 4.11671 17.7455L3.48807 17.3191L3.15685 18.0027C3.14222 18.0328 3.09929 18.0328 3.08466 18.0027L2.75344 17.3191L2.1248 17.7455C2.0971 17.7643 2.05983 17.7428 2.06227 17.7094L2.11716 16.9518L1.35957 17.0067C1.32615 17.0091 1.30463 16.9718 1.32347 16.9441L1.74985 16.3155L1.06627 15.9843C1.03613 15.9697 1.03613 15.9267 1.06627 15.9121L1.74985 15.5808L1.32347 14.9521C1.30463 14.9244 1.32615 14.8872 1.35957 14.8896L2.11716 14.9445L2.06227 14.1869C2.05983 14.1535 2.0971 14.132 2.1248 14.1508L2.75344 14.5772L3.08466 13.8936C3.09924 13.8635 3.14222 13.8635 3.15685 13.8936Z" fill="#F5F5F5"/>
<path d="M4.01691 9.94037L3.72933 9.74392L3.9825 9.47856L3.6217 9.4127L3.74508 9.06737L3.38869 9.15395L3.36099 8.78832L3.07064 9.01239L2.89655 8.68961L2.72245 9.01239L2.43211 8.78832L2.40441 9.15395L2.04802 9.06737L2.17139 9.4127L1.8106 9.47856L2.06377 9.74392L1.77619 9.94037C1.41333 9.77097 1.0943 9.52342 0.843189 9.21723C1.01185 10.1998 1.86577 10.9483 2.8965 10.9483C3.92724 10.9483 4.78116 10.1998 4.94981 9.21723C4.6988 9.52346 4.37972 9.77097 4.01691 9.94037Z" fill="#F5F5F5"/>
</svg>
