<svg xmlns="http://www.w3.org/2000/svg" width="24" height="24" viewBox="0 0 24 24" fill="none"><rect width="24" height="24" fill="none"/>
<path d="M22.2047 4.13904H1.79531C0.80625 4.13904 0 4.9406 0 5.93435V6.1031V18.0656C0 19.0593 0.80625 19.8609 1.79531 19.8609H22.2C23.1938 19.8609 23.9953 19.0547 23.9953 18.0656V5.93435C24 4.9406 23.1938 4.13904 22.2047 4.13904Z" fill="#F5F5F5"/>
<path d="M0 6.10315H24V8.06721H0V6.10315ZM0.515625 11.5875H0V12V13.9641H24V12H1.11562L0.515625 11.5875ZM0 18.0656C0 19.0594 0.80625 19.861 1.79531 19.861H22.2C23.1938 19.861 23.9953 19.0547 23.9953 18.0656V17.8969H0V18.0656Z" fill="#FF4B55"/>
<path d="M0 8.06714H24V10.0312H0V8.06714ZM0 13.964H24V15.9281H0V13.964Z" fill="#41479B"/>
<path d="M0.4125 12H11.5828C11.8125 12 11.9953 11.8125 11.9953 11.5875V4.55154C11.9953 4.32185 11.8078 4.13904 11.5828 4.13904H1.79531C0.80625 4.13904 0 4.9406 0 5.93435V11.5875C0 11.8125 0.1875 12 0.4125 12Z" fill="#41479B"/>
<path d="M0.4125 12H1.12969L4.96406 9.48748V12H7.03125V9.48748L10.8656 12H11.5828C11.8125 12 12 11.8219 12 11.5969L11.9953 11.2594L8.70469 9.1031H12V7.03591H8.70938L12 4.87966L12.0047 4.55623C12.0047 4.31248 11.8172 4.13904 11.5875 4.13904H10.8703L7.03594 6.65154V4.13904H4.96875V6.65154L1.25625 4.21873C0.825 4.35466 0.459375 4.64998 0.239062 5.03435L3.28594 7.03123H0V9.09841H3.29062L0 11.2594V11.5875C0 11.8125 0.1875 12 0.4125 12Z" fill="#F5F5F5"/>
<path d="M12 7.44841H6.61875V4.13904H5.38125V7.44841H0V8.6906H5.38125V12H6.61875V8.6906H12V7.44841Z" fill="#FF4B55"/>
<path d="M0.384399 4.82344L3.79221 7.03594H4.55159L0.684399 4.52344C0.571899 4.6125 0.473462 4.71094 0.384399 4.82344Z" fill="#FF4B55"/>
<path d="M7.79532 7.03591L11.9438 4.3406C11.8734 4.21873 11.7422 4.13904 11.5875 4.13904H11.4984L7.03595 7.03591H7.79532Z" fill="#FF4B55"/>
<path d="M4.19532 9.10315L0.0515747 11.7938C0.121887 11.9203 0.257825 12.0047 0.412512 12.0047L0.4922 12L4.9547 9.10315H4.19532Z" fill="#FF4B55"/>
<path d="M11.9953 11.6203L8.11875 9.10315H7.35938L11.7609 11.9578C11.8922 11.8969 11.9812 11.7703 11.9953 11.6203Z" fill="#FF4B55"/>
</svg>
