<svg xmlns="http://www.w3.org/2000/svg" width="24" height="24" viewBox="0 0 24 24" fill="none"><rect width="24" height="24" fill="none"/>
<path d="M22.2026 4.13788H12V19.862H22.2026C23.1952 19.862 24 19.0573 24 18.0646V5.9353C24 4.94258 23.1953 4.13788 22.2026 4.13788Z" fill="#FF4B55"/>
<path d="M1.79742 4.13788C0.804703 4.13788 0 4.94258 0 5.9353V18.0647C0 19.0573 0.804703 19.8621 1.79742 19.8621H12V4.13788H1.79742Z" fill="#F5F5F5"/>
<path d="M3.44831 5.10341V6.21059C3.50929 6.21299 3.57731 6.24064 3.63384 6.29717C3.69037 6.3537 3.71812 6.42172 3.72042 6.4827H4.82761V7.58614H3.72037C3.71798 7.64713 3.69033 7.71514 3.63379 7.77167C3.57726 7.8282 3.50925 7.85586 3.44826 7.85825V8.96544H2.34483V7.85825C2.28384 7.85586 2.21583 7.8282 2.15929 7.77167C2.10276 7.71514 2.07511 7.64713 2.07272 7.58614H0.965529V6.48275H2.07272C2.07511 6.42177 2.10276 6.35375 2.15929 6.29722C2.21583 6.24069 2.28384 6.21303 2.34483 6.21064V5.10345H3.44831V5.10341ZM3.58617 4.96545H3.44822H2.34478H2.20687V5.10341V6.10199C2.15423 6.12355 2.10483 6.15659 2.06175 6.19963C2.01867 6.2427 1.98567 6.29211 1.96406 6.34475H0.965529H0.827576V6.4827V7.58614V7.72409H0.965529H1.96411C1.98572 7.77674 2.01872 7.82619 2.06179 7.86922C2.10483 7.91225 2.15423 7.9453 2.20687 7.96686V8.96544V9.10334H2.34483H3.44826H3.58622V8.96539V7.96681C3.63886 7.94525 3.68826 7.9122 3.73134 7.86913C3.77437 7.82609 3.80742 7.77669 3.82898 7.72405H4.82756H4.96547V7.58609V6.48266V6.3447H4.82751H3.82903C3.80747 6.29206 3.77442 6.24266 3.73134 6.19958C3.68831 6.15655 3.6389 6.1235 3.58622 6.10194V5.10341L3.58617 4.96545Z" fill="#FF4B55"/>
<path d="M4.82756 6.48269H3.44831V5.10339H2.34483V6.48269H0.96553V7.58617H2.34483V8.96547H3.44831V7.58617H4.82756V6.48269Z" fill="#CDCDCD"/>
<path d="M2.89655 7.58671C3.20126 7.58671 3.44827 7.3397 3.44827 7.035C3.44827 6.73029 3.20126 6.48328 2.89655 6.48328C2.59185 6.48328 2.34483 6.73029 2.34483 7.035C2.34483 7.3397 2.59185 7.58671 2.89655 7.58671Z" fill="#B4A08C"/>
<path d="M2.40215 7.52931C2.30634 7.4335 2.17431 7.41019 2.10726 7.47724C2.0402 7.5443 2.06352 7.67632 2.15933 7.77214C2.25514 7.86795 2.38717 7.89126 2.45422 7.82421C2.52127 7.75715 2.49796 7.62512 2.40215 7.52931Z" fill="#B4A08C"/>
<path d="M3.63393 7.77173C3.72974 7.67592 3.75305 7.54389 3.686 7.47684C3.61894 7.40978 3.48692 7.4331 3.3911 7.52891C3.29529 7.62472 3.27198 7.75675 3.33903 7.8238C3.40609 7.89086 3.53811 7.86754 3.63393 7.77173Z" fill="#B4A08C"/>
<path d="M3.39057 6.54069C3.48639 6.63651 3.61842 6.65982 3.68547 6.59277C3.75252 6.52571 3.72921 6.39368 3.6334 6.29787C3.53759 6.20206 3.40556 6.17875 3.3385 6.2458C3.27145 6.31285 3.29476 6.44488 3.39057 6.54069Z" fill="#B4A08C"/>
<path d="M2.15915 6.29766C2.06334 6.39348 2.04002 6.5255 2.10708 6.59256C2.17413 6.65961 2.30616 6.6363 2.40197 6.54049C2.49778 6.44468 2.5211 6.31265 2.45404 6.24559C2.38699 6.17854 2.25496 6.20185 2.15915 6.29766Z" fill="#B4A08C"/>
<path d="M2.89655 7.79026C2.48006 7.79026 2.14125 7.45154 2.14125 7.03496C2.14125 6.61838 2.48006 6.27966 2.89655 6.27966C3.31303 6.27966 3.65184 6.61848 3.65184 7.03496C3.65184 7.4514 3.31303 7.79026 2.89655 7.79026ZM2.89655 6.34862C2.51817 6.34862 2.21025 6.65654 2.21025 7.03491C2.21025 7.41329 2.51817 7.72121 2.89655 7.72121C3.27492 7.72121 3.58284 7.41329 3.58284 7.03491C3.58284 6.65654 3.27492 6.34862 2.89655 6.34862Z" fill="#B4A08C"/>
</svg>
