<svg xmlns="http://www.w3.org/2000/svg" width="24" height="24" viewBox="0 0 24 24" fill="none"><rect width="24" height="24" fill="none"/>
<path d="M1.79742 19.8621H12V4.13794H1.79742C0.804703 4.13794 0 4.94264 0 5.93536V18.0647C0 19.0574 0.804703 19.8621 1.79742 19.8621Z" fill="#73AF00"/>
<path d="M22.2026 19.8621C23.1952 19.8621 24 19.0574 24 18.0646V5.93536C24 4.94269 23.1953 4.13794 22.2026 4.13794H12V19.8621H22.2026Z" fill="#F5F5F5"/>
<path d="M13.9973 10.4956L13.2799 11.4341L12.1597 11.0591C12.0971 11.0382 12.0438 11.109 12.0813 11.1633L12.7522 12.1356L12.0494 13.0851C12.01 13.1382 12.0609 13.2108 12.1243 13.1919L13.2563 12.8543L13.9422 13.8162C13.9805 13.87 14.0653 13.844 14.0669 13.778L14.0956 12.597L15.2222 12.2419C15.2852 12.222 15.2867 12.1334 15.2244 12.1115L14.1102 11.7192L14.1206 10.5379C14.1212 10.4719 14.0374 10.4431 13.9973 10.4956Z" fill="#FF4B55"/>
<path d="M12.7437 14.842C11.1753 14.842 9.90309 13.5697 9.90309 11.9999C9.90309 10.433 11.1754 9.15788 12.7437 9.15788C13.3272 9.15788 13.8653 9.33737 14.3138 9.64107C14.3825 9.68757 14.4608 9.59738 14.4033 9.53757C13.7331 8.84073 12.7845 8.41567 11.7328 8.45157C9.92587 8.51321 8.43 9.96198 8.31459 11.7662C8.18231 13.8329 9.81876 15.5504 11.8562 15.5504C12.8598 15.5504 13.7617 15.1308 14.4059 14.46C14.4628 14.4007 14.3842 14.3118 14.3162 14.3579C13.8673 14.6623 13.3283 14.842 12.7437 14.842Z" fill="#FF4B55"/>
</svg>
