<svg xmlns="http://www.w3.org/2000/svg" width="24" height="24" viewBox="0 0 24 24" fill="none"><rect width="24" height="24" fill="none"/>
<path d="M22.2026 4.13794H1.79742C0.804703 4.13794 0 4.94264 0 5.93536V9.37931H24V5.93536C24 4.94264 23.1953 4.13794 22.2026 4.13794Z" fill="#73AF00"/>
<path d="M0 18.0646C0 19.0573 0.804703 19.8621 1.79742 19.8621H22.2026C23.1952 19.8621 24 19.0574 24 18.0646V14.6207H0V18.0646Z" fill="#FF4B55"/>
<path d="M24 9.37921H0V14.6203H24V9.37921Z" fill="#FFE15A"/>
<path d="M16.9662 12.0046C16.9662 14.7433 14.7427 16.9708 12 16.9708C9.2573 16.9708 7.03383 14.7433 7.03383 12.0046C7.03383 9.25795 9.25734 7.03448 12 7.03448C14.7427 7.03448 16.9662 9.25795 16.9662 12.0046Z" fill="#4173CD"/>
<path d="M8.22281 10.7561H11.1082L11.7612 8.74669L11.9346 9.28566L10.9864 12.2067L10.7039 12.0007L10.9993 11.0931H8.67871L8.22281 10.7561ZM9.6645 15.1991L10.5563 12.4564L8.84714 11.2119H9.41086L11.895 13.0153L11.6126 13.2214L10.8388 12.6586L10.1204 14.8702L9.6645 15.1991ZM14.3354 15.1991L12 13.5029L10.2918 14.7434L10.4662 14.2123L12.9483 12.4049L13.0544 12.7378L12.2824 13.2967L14.1601 14.6641L14.3354 15.1991ZM15.7771 10.7561L13.4436 12.4564L14.0966 14.4659L13.6408 14.1329L12.6935 11.2118H13.0403L13.3356 12.1235L15.2143 10.756H15.777V10.7561H15.7771V10.7561ZM12 8.01343L12.8918 10.7561H15.0053L14.5485 11.0931H11.4788L11.5868 10.7561H12.5439L11.8255 8.54846L12 8.01343Z" fill="#F2DD30"/>
<path d="M12.0832 15.976H11.9177V13.8239H12.0832V15.976ZM15.7524 13.3046L13.7062 12.6427L13.7578 12.4882L15.8049 13.15L15.7524 13.3046ZM8.24662 13.3046L8.19505 13.15L10.2431 12.4882L10.2937 12.6427L8.24662 13.3046ZM13.1385 10.5777L13.0037 10.4827L14.2691 8.74266L14.4009 8.83782L13.1385 10.5777ZM10.8645 10.5777L9.59708 8.83782L9.73091 8.74266L10.9953 10.4827L10.8645 10.5777Z" fill="#F2DD30"/>
</svg>
