<svg xmlns="http://www.w3.org/2000/svg" width="24" height="24" viewBox="0 0 24 24" fill="none"><rect width="24" height="24" fill="none"/>
<g clip-path="url(#clip0)">
<path d="M22.2031 19.8625H1.79794C0.805269 19.8625 0.000518799 19.0578 0.000518799 18.0651V5.93586C0.000518799 4.94319 0.805222 4.13844 1.79794 4.13844H22.2031C23.1957 4.13844 24.0005 4.94315 24.0005 5.93586V18.0651C24.0005 19.0578 23.1958 19.8625 22.2031 19.8625Z" fill="#FF4B55"/>
<path d="M0.000518799 5.93494V11.5872C0.00131567 11.8151 0.186191 11.9996 0.414238 11.9996H11.5866C11.8151 11.9996 12.0004 11.8143 12.0004 11.5858V4.55128C12.0004 4.32281 11.8153 4.13761 11.5868 4.13747H1.79794C0.805269 4.13751 0.000518799 4.94222 0.000518799 5.93494Z" fill="#41479B"/>
<path d="M7.03496 6.6487V4.13751H4.96599V6.64875L1.25883 4.21992C0.825988 4.35586 0.464113 4.65131 0.241128 5.03714L3.28903 7.03406H0.000518799V9.10303H3.28894L0.000518799 11.2575V11.5871C0.00131567 11.815 0.186191 11.9995 0.414238 11.9995H1.13297L4.96594 9.4883V11.9995H7.03491V9.4883L10.8679 11.9995H11.5866C11.8151 11.9995 12.0004 11.8142 12.0004 11.5857V11.2575L8.71191 9.10298H12.0004V7.03406H8.71191L12.0004 4.8795V4.55128C12.0004 4.32281 11.8153 4.13761 11.5868 4.13747H10.8679L7.03496 6.6487Z" fill="#F5F5F5"/>
<path d="M11.9995 7.44876H6.62021V4.13844H5.37882V7.44876H-0.000457764V8.69015H5.37882V12.0005H6.62021V8.69015H11.9995V7.44876Z" fill="#FF4B55"/>
<path d="M0.385223 4.82311L3.79121 7.03402H4.55124L0.684286 4.52386C0.573239 4.61157 0.47288 4.71202 0.385223 4.82311Z" fill="#FF4B55"/>
<path d="M7.79406 7.03406L11.9366 4.34503C11.8646 4.2232 11.7376 4.13751 11.5857 4.13751H11.4962L7.03403 7.03406H7.79406Z" fill="#FF4B55"/>
<path d="M4.19363 9.10303L0.059021 11.7868C0.130224 11.9116 0.259318 11.9995 0.413349 11.9995H0.491396L4.95366 9.10294H4.19363V9.10303Z" fill="#FF4B55"/>
<path d="M11.9929 11.6182L8.11796 9.10303H7.35797L11.7583 11.9593C11.8901 11.8981 11.9805 11.7699 11.9929 11.6182Z" fill="#FF4B55"/>
<path d="M15.0439 8.15718C14.9622 8.15718 14.8961 8.22332 14.8961 8.30498V13.7729C14.8961 14.2163 15.1916 15.6941 17.9995 16.1375C20.8074 15.6941 21.103 14.2163 21.103 13.7729V8.30498C21.103 8.22337 21.0368 8.15718 20.9552 8.15718H15.0439Z" fill="#F5F5F5"/>
<path d="M17.9995 16.1375C20.3434 15.7674 20.9363 14.6769 21.0684 14.0685H14.9307C15.0627 14.6768 15.6556 15.7674 17.9995 16.1375Z" fill="#73AF00"/>
<path d="M19.9207 11.2606C19.9207 11.2606 20.0684 11.1128 19.9207 10.8173L17.9995 10.7313L16.0783 10.8173C15.9305 11.1128 16.0783 11.2606 16.0783 11.2606C15.9305 11.4084 15.9305 11.5562 15.9305 11.5562H16.2261L16.5463 12.0857L17.9994 12.8863L19.4527 12.0858L19.7729 11.5562H20.0684C20.0684 11.5562 20.0684 11.4084 19.9207 11.2606Z" fill="#82AFFF"/>
<path d="M19.4528 12.0857C19.4528 12.0857 19.3604 11.8825 19.1141 11.9072C19.1141 11.9072 18.9786 11.7287 18.7508 11.7779C18.7508 11.7779 18.486 11.6239 18.3321 11.9072C18.3321 11.9072 17.8425 11.8574 17.8163 12.2302C17.8163 12.2302 18.5783 13.3788 18.5969 13.3912C18.6153 13.4035 19.5082 13.3973 19.5082 13.3973L19.9208 12.9421L19.5143 12.3567L19.4528 12.0857Z" fill="#F5F5F5"/>
<path d="M18.018 12.449C18.018 12.449 17.3716 11.393 17.2791 11.3037C17.1898 11.2175 17.0143 11.1375 16.8357 11.2852C16.8357 11.2852 16.3 11.2421 16.3738 11.6485L16.5278 12.2643C16.5278 12.2643 16.3923 12.6892 16.3307 12.7323C16.2692 12.7754 16.0413 12.8924 16.0413 12.8924L16.1706 13.4035L17.8947 13.3173L18.018 12.449Z" fill="#F0C850"/>
<path d="M18.7631 11.9872L18.761 11.9881L18.7134 11.8756C18.7095 11.8665 18.7022 11.8593 18.693 11.8557C18.6838 11.8521 18.6737 11.8522 18.6645 11.8562L18.3438 11.9977L17.9623 11.3732C17.9792 11.3587 17.9866 11.3349 17.9786 11.3128C17.9683 11.2839 17.9366 11.2689 17.9077 11.2792L17.8227 11.3096L17.7652 11.1396C17.7586 11.1202 17.7378 11.1102 17.7184 11.1164C17.699 11.123 17.6886 11.144 17.6952 11.1633L17.7531 11.3346L17.6622 11.3671C17.6334 11.3775 17.6184 11.4093 17.6288 11.438C17.6368 11.4607 17.6582 11.4749 17.681 11.4749C17.6841 11.4749 17.6874 11.4738 17.6907 11.4732L17.8164 12.2304L17.7353 12.2661C17.7176 12.2739 17.7088 12.2941 17.7154 12.3123L17.7614 12.4403C17.7625 12.4619 17.7624 12.4983 17.7551 12.5443L17.2392 11.6594C17.2608 11.6458 17.2716 11.6195 17.2627 11.5945C17.2523 11.5657 17.2208 11.5505 17.1918 11.5609L17.1068 11.5913L17.0493 11.4214C17.0427 11.402 17.0217 11.3917 17.0024 11.3982C16.9831 11.4048 16.9727 11.4257 16.9793 11.4451L17.0372 11.6164L16.9463 11.6489C16.9175 11.6593 16.9025 11.691 16.9129 11.7198C16.9203 11.7404 16.9391 11.7526 16.9595 11.7548L17.1834 13.1524C17.1545 13.1645 17.1261 13.1768 17.0943 13.1882C17.0943 13.1882 16.9896 13.687 17.0697 13.7116C17.1498 13.7362 17.9749 13.9887 17.9749 13.9887C17.9749 13.9887 19.114 13.4468 19.1387 13.4345C19.1633 13.4222 19.2126 13.065 19.2126 13.065L18.7631 11.9872ZM18.6932 12.0172L18.5978 12.0582L18.5662 11.9803L18.6599 11.9389L18.6932 12.0172ZM18.1166 12.1785L18.195 12.1439L18.2252 12.2182L18.1422 12.2539L18.1166 12.1785ZM18.074 12.2831L17.9813 12.323L17.9521 12.2511L18.0488 12.2084L18.074 12.2831ZM18.293 12.1891L18.2626 12.1141L18.3464 12.0772L18.3771 12.153L18.293 12.1891ZM18.4139 12.0474L18.4986 12.01L18.53 12.0873L18.4449 12.1238L18.4139 12.0474ZM17.8934 11.4021L18.2756 12.0277L18.0929 12.1082L17.8583 11.4147L17.8934 11.4021ZM17.7615 11.4493L17.7886 11.4396L18.025 12.1382L17.8861 12.1994L17.7615 11.4493ZM17.8845 12.2808L17.9135 12.3521L17.8223 12.3913L17.7966 12.3196L17.8845 12.2808ZM17.1696 11.6866L17.7292 12.6466C17.7011 12.728 17.6479 12.8225 17.5547 12.9153L17.1424 11.6963L17.1696 11.6866ZM17.0315 11.7361L17.0728 11.7213L17.4951 12.9697C17.4311 13.0228 17.3515 13.0741 17.2535 13.1211L17.0315 11.7361Z" fill="#965032"/>
<path d="M20.0546 10.5933C20.0154 10.5309 19.8895 10.5577 19.8895 10.5577C19.8895 10.5577 19.8535 10.4858 19.7585 10.4788C19.6635 10.4719 19.646 10.5565 19.646 10.5565C19.646 10.5565 19.6282 10.5433 19.5235 10.5464C19.4189 10.5495 19.4404 10.7219 19.4404 10.7219C19.4404 10.7219 19.4004 10.7219 19.2649 10.6788C19.1295 10.6357 19.0402 10.6665 19.0402 10.6665C19.0341 10.5956 18.9971 10.5433 18.9971 10.5433C18.8832 10.5895 18.7939 10.5372 18.7724 10.4971C18.7509 10.4571 18.8063 10.3956 18.8063 10.3432C18.8063 10.2909 18.7339 10.2932 18.7085 10.247C18.6831 10.2009 18.7085 10.1754 18.7755 10.1454C18.8425 10.1154 18.9048 10.0046 18.8632 9.91454C18.8216 9.82449 18.7016 9.84062 18.7016 9.84062C18.7432 9.84755 18.7778 9.92607 18.7109 9.9422C18.644 9.95832 18.5839 9.71359 18.5839 9.71359C18.7386 9.81751 18.8518 9.75516 18.8841 9.66507C18.9164 9.57498 18.831 9.51268 18.831 9.51268C18.764 9.6212 18.6485 9.52655 18.7109 9.45727C18.7733 9.38799 18.7786 9.27179 18.7786 9.27179C18.64 9.33957 18.5539 9.25332 18.5539 9.25332C18.7355 9.12713 18.6832 8.94849 18.6832 8.94849C18.6155 8.9177 18.4708 8.94235 18.4708 8.94235C18.5016 8.88076 18.4954 8.7699 18.4954 8.7699C18.4184 8.75757 18.3322 8.80684 18.3322 8.80684C18.3568 8.72068 18.3229 8.56979 18.3229 8.56979C18.2675 8.57907 18.1629 8.60982 18.1629 8.60982C18.1198 8.51129 17.9997 8.45279 17.9997 8.45279C17.9997 8.45279 17.8796 8.51129 17.8365 8.60982C17.8365 8.60982 17.7318 8.57902 17.6764 8.56979C17.6764 8.56979 17.6425 8.72068 17.6672 8.80684C17.6672 8.80684 17.581 8.75762 17.504 8.7699C17.504 8.7699 17.4978 8.88076 17.5286 8.94235C17.5286 8.94235 17.3839 8.91774 17.3162 8.94849C17.3162 8.94849 17.2638 9.12704 17.4455 9.25332C17.4455 9.25332 17.3593 9.33952 17.2208 9.27179C17.2208 9.27179 17.2262 9.38799 17.2885 9.45727C17.3508 9.52655 17.2353 9.62124 17.1684 9.51268C17.1684 9.51268 17.083 9.57502 17.1153 9.66507C17.1476 9.75512 17.2608 9.81746 17.4155 9.71359C17.4155 9.71359 17.3554 9.95832 17.2885 9.9422C17.2216 9.92607 17.2562 9.84755 17.2978 9.84062C17.2978 9.84062 17.1777 9.82445 17.1362 9.91454C17.0946 10.0046 17.157 10.1154 17.2239 10.1454C17.2908 10.1754 17.3163 10.2009 17.2908 10.247C17.2654 10.2932 17.1931 10.2909 17.1931 10.3432C17.1931 10.3955 17.2485 10.4571 17.227 10.4971C17.2054 10.5372 17.1161 10.5895 17.0022 10.5433C17.0022 10.5433 16.9653 10.5957 16.9592 10.6665C16.9592 10.6665 16.8699 10.6357 16.7344 10.6788C16.599 10.7219 16.5589 10.7219 16.5589 10.7219C16.5589 10.7219 16.5805 10.5495 16.4758 10.5464C16.3712 10.5433 16.3533 10.5565 16.3533 10.5565C16.3533 10.5565 16.336 10.4719 16.2409 10.4788C16.1459 10.4858 16.1099 10.5577 16.1099 10.5577C16.1099 10.5577 15.984 10.531 15.9447 10.5933C15.9055 10.6556 15.9009 10.7503 15.9747 10.7896C16.0487 10.8289 16.2449 10.9928 16.2449 10.9928L16.522 11.1129L17.4918 10.6833L17.9998 10.8173L18.5078 10.6833L19.4776 11.1129L19.7547 10.9928C19.7547 10.9928 19.951 10.8288 20.0248 10.7896C20.0985 10.7503 20.0939 10.6557 20.0546 10.5933Z" fill="#FF4B55"/>
<path d="M17.697 9.02822C17.697 9.02822 17.7075 9.15863 17.9005 9.12384C17.9004 9.12384 17.8953 8.98824 17.697 9.02822Z" fill="#F5F5F5"/>
<path d="M16.983 14.1794C16.983 14.1794 16.8444 14.1748 16.7013 14.2809C16.5581 14.3872 16.495 14.3117 16.3518 14.3117C16.2087 14.3117 16.1748 14.4611 16.1748 14.4611C16.1748 14.4611 15.8977 14.5304 16.0086 14.7336C16.0786 14.8621 16.1762 14.8594 16.2386 14.8401C16.2355 14.9264 16.2551 15.0213 16.3549 15.0384C16.5443 15.0707 16.6274 14.9691 16.5858 14.8121C16.5858 14.8121 16.6089 14.9737 16.7336 14.9691C16.8583 14.9645 16.9415 14.8952 16.9276 14.729C16.9137 14.5628 17.1354 14.6643 17.3063 14.4196L16.983 14.1794Z" fill="#FF4B55"/>
<path d="M16.1732 14.7736C16.1732 14.7736 16.087 14.8875 16.1117 14.9983C16.1117 14.9983 15.927 14.9398 16.0255 14.6657C16.0254 14.6658 16.1517 14.6319 16.1732 14.7736Z" fill="#82AFFF"/>
<path d="M16.4633 14.9228C16.4633 14.9228 16.4125 15.0659 16.4818 15.1929C16.4818 15.1929 16.2509 15.186 16.2971 14.9019C16.2971 14.902 16.371 14.8258 16.4633 14.9228Z" fill="#82AFFF"/>
<path d="M16.6943 14.9089C16.6943 14.9089 16.7359 15.0289 16.6943 15.1444C16.6943 15.1444 16.8837 15.1329 16.8513 14.8604C16.8513 14.8604 16.7497 14.8234 16.6943 14.9089Z" fill="#82AFFF"/>
<path d="M16.5258 12.1473C16.5083 12.0049 15.616 11.921 15.6714 12.6708C15.6714 12.6708 15.5724 12.6689 15.5238 12.7611C15.4751 12.8533 15.3708 12.8307 15.3394 12.7976C15.3394 12.7976 15.3464 12.9646 15.5533 12.9576C15.5533 12.9576 15.4878 13.0091 15.4971 13.0845C15.5064 13.1599 15.5608 13.2549 15.5574 13.3198C15.5539 13.3848 15.4924 13.4752 15.4924 13.4752C15.4924 13.4752 15.6513 13.4207 15.6617 13.3071C15.6721 13.1936 15.6466 13.0985 15.6779 13.0406C15.6779 13.0406 15.6628 13.1205 15.7335 13.2214C15.8042 13.3223 15.8077 13.4451 15.7787 13.5216C15.7787 13.5216 15.9549 13.4346 15.9213 13.2666C15.8876 13.0985 15.8517 13.1136 15.8679 13.0197C15.8679 13.0197 16.0511 13.2063 16.0198 13.3651C16.0198 13.3651 16.0783 13.295 16.0731 13.1629C16.0679 13.0308 15.9762 12.9419 15.9762 12.9419C15.9762 12.9419 16.5858 12.6369 16.5258 12.1473Z" fill="#FF4B55"/>
<path d="M19.0161 14.1793C19.0161 14.1793 19.1547 14.1747 19.2978 14.2809C19.441 14.3871 19.5041 14.3117 19.6473 14.3117C19.7904 14.3117 19.8243 14.461 19.8243 14.461C19.8243 14.461 20.1014 14.5303 19.9905 14.7335C19.9204 14.8621 19.8229 14.8593 19.7605 14.84C19.7636 14.9264 19.744 15.0212 19.6442 15.0384C19.4548 15.0707 19.3717 14.9691 19.4133 14.812C19.4133 14.812 19.3902 14.9737 19.2655 14.9691C19.1408 14.9645 19.0576 14.8951 19.0715 14.7289C19.0854 14.5627 18.8637 14.6643 18.6928 14.4195L19.0161 14.1793Z" fill="#FF4B55"/>
<path d="M19.8257 14.7734C19.8257 14.7734 19.9119 14.8873 19.8873 14.9981C19.8873 14.9981 20.072 14.9396 19.9735 14.6656C19.9735 14.6656 19.8473 14.6318 19.8257 14.7734Z" fill="#82AFFF"/>
<path d="M19.5355 14.9228C19.5355 14.9228 19.5863 15.0659 19.517 15.1929C19.517 15.1929 19.7479 15.186 19.7017 14.9019C19.7018 14.902 19.6279 14.8258 19.5355 14.9228Z" fill="#82AFFF"/>
<path d="M19.3046 14.9089C19.3046 14.9089 19.2631 15.0289 19.3046 15.1444C19.3046 15.1444 19.1153 15.1329 19.1476 14.8604C19.1476 14.8604 19.2492 14.8234 19.3046 14.9089Z" fill="#82AFFF"/>
<path d="M19.4733 12.1473C19.4908 12.0049 20.3831 11.921 20.3277 12.6708C20.3277 12.6708 20.4267 12.6689 20.4753 12.7611C20.524 12.8533 20.6283 12.8307 20.6596 12.7976C20.6596 12.7976 20.6527 12.9646 20.4458 12.9576C20.4458 12.9576 20.5113 13.0091 20.502 13.0845C20.4927 13.1599 20.4382 13.2549 20.4417 13.3198C20.4452 13.3848 20.5066 13.4752 20.5066 13.4752C20.5066 13.4752 20.3478 13.4207 20.3374 13.3071C20.327 13.1936 20.3525 13.0985 20.3212 13.0406C20.3212 13.0406 20.3362 13.1205 20.2656 13.2214C20.1949 13.3223 20.1914 13.4451 20.2204 13.5216C20.2204 13.5216 20.0442 13.4346 20.0778 13.2666C20.1114 13.0985 20.1474 13.1136 20.1312 13.0197C20.1312 13.0197 19.948 13.2063 19.9793 13.3651C19.9793 13.3651 19.9207 13.295 19.9259 13.1629C19.9312 13.0308 20.0229 12.9419 20.0229 12.9419C20.0229 12.9419 19.4132 12.6369 19.4733 12.1473Z" fill="#FF4B55"/>
<path d="M19.8383 10.8696C19.8044 10.8467 19.7585 10.8563 19.7359 10.8905C19.6892 10.9611 19.6276 11.0024 19.5477 11.0167C19.2833 11.0625 18.9021 10.8022 18.7914 10.7208C18.6309 10.6028 18.4328 10.5824 18.3012 10.6634C18.2487 10.6808 18.0882 10.7314 17.9996 10.7314C17.911 10.7314 17.7505 10.6808 17.698 10.6634C17.5664 10.5824 17.3682 10.6028 17.2078 10.7208C17.0971 10.8022 16.7159 11.0625 16.4514 11.0167C16.3716 11.0024 16.31 10.9611 16.2633 10.8905C16.2407 10.8563 16.1948 10.8468 16.1609 10.8696C16.1268 10.8921 16.1175 10.938 16.14 10.9719C16.2093 11.0767 16.3053 11.1406 16.4255 11.1621C16.4559 11.1675 16.4869 11.17 16.5185 11.17C16.8005 11.17 17.1196 10.9688 17.2952 10.8399C17.4257 10.7441 17.572 10.7443 17.6379 10.7998C17.6546 10.8139 17.6735 10.8362 17.669 10.8623C17.6665 10.8766 17.6571 10.8894 17.6415 10.9003C17.6453 10.8776 17.6384 10.8535 17.6209 10.8359C17.592 10.807 17.5453 10.807 17.5164 10.8359C17.4788 10.8733 17.4747 10.934 17.5064 10.9834C17.5382 11.0329 17.6068 11.0691 17.6882 11.039C17.7296 11.0235 17.7627 10.9941 17.7857 10.958C17.898 10.9253 17.9996 10.9251 17.9996 10.9251C17.9996 10.9251 18.1013 10.9253 18.2136 10.958C18.2365 10.9941 18.2696 11.0235 18.311 11.039C18.3925 11.0691 18.461 11.0329 18.4929 10.9834C18.5245 10.9341 18.5205 10.8733 18.4829 10.8359C18.454 10.807 18.4073 10.807 18.3784 10.8359C18.3609 10.8535 18.3541 10.8776 18.3578 10.9003C18.3422 10.8894 18.3328 10.8766 18.3303 10.8623C18.3257 10.8362 18.3447 10.8139 18.3613 10.7998C18.4272 10.7443 18.5735 10.7441 18.7041 10.8399C18.8797 10.9688 19.1987 11.17 19.4807 11.17C19.5123 11.17 19.5434 11.1675 19.5737 11.1621C19.6939 11.1405 19.79 11.0766 19.8593 10.9719C19.8817 10.9379 19.8724 10.8921 19.8383 10.8696Z" fill="#FFE15A"/>
<path d="M16.1164 10.9514C16.1164 10.9514 16.1043 10.7862 16.0991 10.7323C16.0938 10.6784 15.993 10.6384 15.9547 10.6923C15.9165 10.7461 15.9061 10.8453 16.1164 10.9514Z" fill="#82AFFF"/>
<path d="M16.1521 10.8983C16.1521 10.8983 16.2976 10.7805 16.2791 10.7182C16.2606 10.6559 16.2214 10.6236 16.1729 10.642C16.1243 10.6605 16.1013 10.7736 16.1521 10.8983Z" fill="#82AFFF"/>
<path d="M16.4361 10.8059C16.457 10.785 16.4638 10.6835 16.4061 10.672C16.3484 10.6605 16.2722 10.7505 16.2768 10.8614C16.2768 10.8614 16.3969 10.8451 16.4361 10.8059Z" fill="#82AFFF"/>
<path d="M16.3761 10.8636C16.3091 10.885 16.2445 10.9421 16.2445 10.9421C16.2445 10.9421 16.3645 11.0298 16.4477 11.0022C16.5308 10.9745 16.4916 10.8267 16.3761 10.8636Z" fill="#82AFFF"/>
<path d="M18.302 9.02822C18.302 9.02822 18.2916 9.15863 18.0986 9.12384C18.0986 9.12384 18.1038 8.98824 18.302 9.02822Z" fill="#F5F5F5"/>
<path d="M19.8825 10.9514C19.8825 10.9514 19.8946 10.7862 19.8999 10.7323C19.9051 10.6784 20.0059 10.6384 20.0442 10.6923C20.0824 10.7462 20.0929 10.8453 19.8825 10.9514Z" fill="#82AFFF"/>
<path d="M19.8468 10.8983C19.8468 10.8983 19.7013 10.7805 19.7199 10.7182C19.7383 10.6559 19.7776 10.6236 19.8261 10.642C19.8746 10.6605 19.8976 10.7736 19.8468 10.8983Z" fill="#82AFFF"/>
<path d="M19.5628 10.8059C19.5419 10.785 19.5351 10.6835 19.5928 10.672C19.6505 10.6605 19.7267 10.7505 19.7221 10.8614C19.7221 10.8614 19.602 10.8451 19.5628 10.8059Z" fill="#82AFFF"/>
<path d="M19.6228 10.8636C19.6898 10.885 19.7544 10.9421 19.7544 10.9421C19.7544 10.9421 19.6344 11.0298 19.5512 11.0022C19.4681 10.9745 19.5074 10.8267 19.6228 10.8636Z" fill="#82AFFF"/>
<path d="M17.9231 9.33539L17.9817 9.39398C17.9915 9.40383 18.0075 9.40383 18.0173 9.39398L18.0759 9.33539C18.0918 9.3195 18.0806 9.29236 18.0581 9.29236H17.9409C17.9185 9.29236 17.9073 9.3195 17.9231 9.33539Z" fill="#464655"/>
<path d="M17.8924 9.57561C17.849 9.57561 17.8114 9.56004 17.7859 9.53126C17.7594 9.50136 17.7482 9.46025 17.7549 9.41839C17.7573 9.40437 17.7713 9.39589 17.7845 9.39701C17.7986 9.39936 17.8082 9.41257 17.8059 9.42673C17.8017 9.45317 17.8084 9.47867 17.8245 9.49686C17.8411 9.51547 17.8665 9.52409 17.8976 9.52372C17.9626 9.52114 17.9734 9.45762 17.9739 9.45504L17.9736 9.33912C17.9736 9.32482 17.9851 9.31329 17.9994 9.31329C18.0137 9.31329 18.0252 9.32482 18.0252 9.33912V9.45907C18.019 9.50051 17.9851 9.57195 17.8996 9.57542C17.8973 9.57561 17.8948 9.57561 17.8924 9.57561Z" fill="#464655"/>
<path d="M18.1066 9.57564C18.1042 9.57564 18.1018 9.57564 18.0993 9.57549C18.0138 9.57203 17.98 9.50059 17.974 9.46318L17.9736 9.3392C17.9736 9.3249 17.9852 9.31337 17.9995 9.31337C18.0138 9.31337 18.0253 9.3249 18.0253 9.3392V9.45915C18.0262 9.46173 18.0383 9.52135 18.1013 9.52379C18.1333 9.52435 18.1577 9.51587 18.1744 9.49693C18.1904 9.47874 18.1972 9.45324 18.193 9.42681C18.1908 9.4127 18.2003 9.39939 18.2144 9.39709C18.2279 9.3954 18.2418 9.40431 18.244 9.41846C18.2507 9.46032 18.2395 9.50143 18.2131 9.53134C18.1876 9.56007 18.1501 9.57564 18.1066 9.57564Z" fill="#464655"/>
<path d="M18.8862 13.3296C18.8862 13.3296 18.7015 13.0341 18.486 13.2311C18.2705 13.4281 18.1905 13.6683 17.9441 13.6498C17.809 13.6396 17.7399 13.5779 17.7041 13.524C17.7695 13.4701 17.8159 13.3883 17.7656 13.268C17.6547 13.0032 17.2484 13.0833 17.1375 13.3726C17.1375 13.3726 17.2668 12.9478 16.8173 13.0894C16.8173 13.0894 16.7619 12.7939 16.5033 12.8739C16.3627 12.9174 16.3106 13.004 16.2913 13.0745C16.2369 13.0618 16.167 13.0622 16.103 13.114L16.4294 13.9945L16.922 14.0007L17.0328 14.1669L17.6794 14.5733L17.7964 14.8196H18.2028C18.2028 14.8196 18.2336 14.5672 18.4491 14.4933C18.6647 14.4194 19.0156 14.2654 19.0526 14.13C19.0895 13.9945 19.0895 13.9945 19.0895 13.9945L19.4836 14.0006C19.5267 13.9698 19.8161 13.4957 19.8161 13.4957L19.9505 12.885C19.8763 12.8745 19.0276 12.7643 18.8862 13.3296Z" fill="#F5F5F5"/>
<path d="M19.9514 12.8801L19.9503 12.8852C19.9537 12.8857 19.9576 12.8863 19.9576 12.8863L19.9514 12.8801Z" fill="#F5F5F5"/>
<path d="M17.2694 14.2737C17.1098 14.2094 17.0528 14.1192 17.033 14.0711C17.0147 14.0267 17.0183 13.9952 17.0233 13.9837C17.0335 13.9601 17.0458 13.9451 17.0573 13.9422C17.0681 13.9396 17.0818 13.9458 17.0843 13.9474C17.0895 13.9533 17.0922 13.972 17.0873 13.9767C17.0575 14.0047 17.0562 14.0514 17.0841 14.0812C17.1122 14.1109 17.1588 14.1122 17.1886 14.0843C17.219 14.0558 17.2364 14.0158 17.2376 13.9718C17.239 13.9246 17.2217 13.8775 17.1915 13.8458C17.1613 13.8137 17.0992 13.7846 17.033 13.7964C17.0193 13.7988 17.004 13.8044 16.9883 13.812C16.9986 13.7096 16.9591 13.6572 16.9302 13.636C16.8815 13.6006 16.8121 13.5998 16.7538 13.634C16.6941 13.6691 16.6619 13.7304 16.6697 13.7939C16.6748 13.8345 16.7154 13.8587 16.7551 13.8533C16.7956 13.8483 16.8274 13.8065 16.8225 13.7661C16.8308 13.7585 16.8419 13.7559 16.8415 13.7541C16.8416 13.7543 16.8514 13.7704 16.8396 13.8225C16.8212 13.9042 16.778 13.9545 16.7112 13.9721C16.628 13.995 16.5214 13.96 16.4584 13.8908C16.3708 13.7944 16.1874 13.2828 16.0784 12.942C16.5458 12.7203 16.6032 12.352 16.5943 12.1468C16.5808 11.8342 16.3938 11.5144 16.1858 11.4484C16.104 11.4226 15.9814 11.4173 15.8924 11.4631C15.842 11.4894 15.807 11.5297 15.7913 11.5797C15.7592 11.6819 15.8235 11.7663 15.9003 11.7939C15.9799 11.8224 16.0603 11.7881 16.0912 11.712C16.1065 11.6742 16.0898 11.631 16.052 11.6156C16.014 11.5999 15.9726 11.6183 15.9573 11.656C15.9542 11.6577 15.944 11.6539 15.9363 11.6452C15.9308 11.6388 15.9296 11.6326 15.9323 11.6242C15.9348 11.6163 15.9404 11.6048 15.9607 11.5943C16.009 11.569 16.0897 11.5729 16.1413 11.5892C16.2603 11.6268 16.434 11.8597 16.4467 12.153C16.4542 12.3284 16.401 12.6498 15.9598 12.833C15.9244 12.8477 15.9061 12.8868 15.9176 12.9233C15.9464 13.0155 16.2034 13.83 16.349 13.99C16.4273 14.0761 16.5457 14.1262 16.6589 14.1262C16.6896 14.1262 16.7199 14.1226 16.7489 14.1149C16.7983 14.1018 16.8395 14.0764 16.8753 14.0444C16.8789 14.0715 16.8852 14.0993 16.8966 14.127C16.9252 14.1966 17.0044 14.3259 17.2257 14.415C17.6732 14.5946 17.7157 14.7146 17.7133 14.7581C17.7119 14.7819 17.6983 14.7943 17.6872 14.8005C17.6823 14.8032 17.6775 14.805 17.6735 14.806C17.69 14.7833 17.693 14.7523 17.6784 14.7262C17.6585 14.6905 17.6136 14.6778 17.5779 14.6977C17.5276 14.7258 17.4925 14.7921 17.5226 14.8645C17.546 14.9208 17.6009 14.9549 17.6643 14.9549C17.6745 14.9549 17.6849 14.954 17.6954 14.9521C17.7874 14.9366 17.8553 14.8602 17.8608 14.7666C17.8734 14.5426 17.5356 14.3805 17.2694 14.2737Z" fill="#FFE15A"/>
<path d="M18.7297 14.2735C18.8894 14.2092 18.9464 14.119 18.9661 14.0709C18.9844 14.0265 18.9808 13.995 18.9758 13.9835C18.9656 13.9599 18.9533 13.9449 18.9418 13.942C18.931 13.9394 18.9173 13.9456 18.9148 13.9472C18.9097 13.9531 18.9069 13.9718 18.9119 13.9765C18.9416 14.0045 18.943 14.0512 18.915 14.081C18.8869 14.1107 18.8403 14.112 18.8105 14.0841C18.7802 14.0556 18.7627 14.0156 18.7616 13.9716C18.7602 13.9244 18.7774 13.8773 18.8076 13.8456C18.8379 13.8135 18.9 13.7844 18.9662 13.7962C18.9798 13.7986 18.9952 13.8042 19.0109 13.8118C19.0005 13.7094 19.04 13.657 19.069 13.6358C19.1177 13.6004 19.187 13.5996 19.2453 13.6338C19.305 13.6689 19.3373 13.7302 19.3294 13.7937C19.3243 13.8343 19.2837 13.8585 19.244 13.8531C19.2035 13.8481 19.1717 13.8063 19.1767 13.7659C19.1683 13.7583 19.1573 13.7557 19.1576 13.7539C19.1575 13.7541 19.1478 13.7702 19.1595 13.8223C19.1779 13.904 19.2211 13.9543 19.288 13.9719C19.3712 13.9948 19.4778 13.9598 19.5408 13.8906C19.6284 13.7942 19.8117 13.2826 19.9208 12.9418C19.4534 12.7201 19.396 12.3518 19.4048 12.1466C19.4183 11.834 19.6053 11.5142 19.8133 11.4482C19.8952 11.4224 20.0178 11.4171 20.1067 11.4629C20.1571 11.4892 20.1921 11.5295 20.2078 11.5795C20.2399 11.6817 20.1757 11.7661 20.0988 11.7937C20.0192 11.8222 19.9389 11.7879 19.908 11.7118C19.8926 11.674 19.9094 11.6308 19.9472 11.6154C19.9852 11.5997 20.0266 11.6181 20.0418 11.6558C20.0449 11.6575 20.0552 11.6537 20.0628 11.645C20.0683 11.6386 20.0695 11.6324 20.0668 11.624C20.0643 11.6161 20.0588 11.6046 20.0384 11.5941C19.9901 11.5688 19.9094 11.5727 19.8579 11.589C19.7388 11.6266 19.5651 11.8595 19.5524 12.1528C19.5449 12.3282 19.5981 12.6496 20.0394 12.8328C20.0748 12.8475 20.093 12.8866 20.0816 12.9231C20.0527 13.0154 19.7957 13.8298 19.6501 13.9898C19.5718 14.0759 19.4534 14.126 19.3402 14.126C19.3096 14.126 19.2792 14.1224 19.2502 14.1147C19.2009 14.1016 19.1597 14.0762 19.1238 14.0442C19.1202 14.0713 19.114 14.0991 19.1025 14.1268C19.074 14.1964 18.9947 14.3257 18.7735 14.4148C18.3259 14.5944 18.2834 14.7144 18.2859 14.7579C18.2873 14.7817 18.3009 14.7941 18.312 14.8003C18.3168 14.803 18.3216 14.8048 18.3257 14.8058C18.3092 14.7831 18.3062 14.7521 18.3207 14.726C18.3407 14.6903 18.3856 14.6776 18.4212 14.6975C18.4715 14.7256 18.5066 14.7919 18.4766 14.8643C18.4531 14.9206 18.3982 14.9547 18.3348 14.9547C18.3247 14.9547 18.3143 14.9538 18.3038 14.9519C18.2118 14.9364 18.1438 14.86 18.1383 14.7664C18.1256 14.5424 18.4635 14.3803 18.7297 14.2735Z" fill="#FFE15A"/>
</g>
<defs>
<clipPath id="clip0">
<path d="M0 0H24V24H0V0Z" fill="white"/>
</clipPath>
</defs>
</svg>
