<svg xmlns="http://www.w3.org/2000/svg" width="24" height="24" viewBox="0 0 24 24" fill="none"><rect width="24" height="24" fill="none"/>
<path d="M22.2026 19.8621H1.79742C0.804703 19.8621 0 19.0574 0 18.0646V5.93536C0 4.94269 0.804703 4.13794 1.79742 4.13794H22.2026C23.1952 4.13794 24 4.94264 24 5.93536V18.0647C24 19.0574 23.1953 19.8621 22.2026 19.8621Z" fill="#41479B"/>
<path d="M0.413813 12H1.13259L4.96556 9.48872V12H7.03453V9.48872L10.8675 12H11.5862C11.8148 12 12 11.8147 12 11.5862V11.258L8.71158 9.10346H12V7.03449H8.71148L12 4.87997V4.55175C12 4.32328 11.8148 4.13808 11.5864 4.13794H10.8675L7.03448 6.64922V4.13794H4.96552V6.64922L1.25831 4.22035C0.825469 4.35628 0.463594 4.65174 0.240516 5.03756L3.28852 7.03449H0V9.10346H3.28852L0 11.258V11.5862C0 11.8147 0.185297 12 0.413813 12Z" fill="#F5F5F5"/>
<path d="M12 7.4483H6.62067V4.13794H5.37933V7.4483H0V8.68964H5.37933V12H6.62067V8.68964H12V7.4483Z" fill="#FF4B55"/>
<path d="M0.385651 4.82354L3.79168 7.03449H4.55171L0.684713 4.52434C0.573666 4.61199 0.473307 4.71245 0.385651 4.82354Z" fill="#FF4B55"/>
<path d="M7.79452 7.03449L11.937 4.34546C11.865 4.22363 11.738 4.13794 11.5862 4.13794H11.4967L7.03448 7.03449H7.79452Z" fill="#FF4B55"/>
<path d="M4.19409 9.10345L0.0594788 11.7873C0.130776 11.9121 0.259776 12 0.413807 12H0.491854L4.95417 9.10345H4.19409Z" fill="#FF4B55"/>
<path d="M11.9934 11.6187L8.11846 9.10345H7.35843L11.7588 11.9598C11.8906 11.8986 11.981 11.7704 11.9934 11.6187Z" fill="#FF4B55"/>
<path d="M17.6779 7.03654L17.8296 7.4916L18.3093 7.4953C18.3464 7.49563 18.3618 7.54298 18.3319 7.5651L17.946 7.85005L18.0907 8.30741C18.1019 8.34285 18.0616 8.37219 18.0313 8.35054L17.641 8.07159L17.2507 8.35054C17.2205 8.37215 17.1802 8.34285 17.1914 8.30741L17.336 7.85005L16.9501 7.5651C16.9202 7.54302 16.9357 7.49559 16.9728 7.4953L17.4524 7.4916L17.6042 7.03654C17.6163 7.00129 17.6661 7.00129 17.6779 7.03654Z" fill="#F5F5F5"/>
<path d="M15.6382 7.59617L15.962 7.95017L16.4017 7.7585C16.4357 7.74364 16.4691 7.78067 16.4507 7.81302L16.2141 8.2303L16.5323 8.58927C16.5569 8.61711 16.532 8.66028 16.4956 8.65283L16.0257 8.55673L15.7826 8.97027C15.7638 9.00228 15.715 8.99192 15.7108 8.95498L15.6569 8.47836L15.1885 8.375C15.1522 8.36698 15.147 8.31739 15.1809 8.30202L15.6176 8.1035L15.5711 7.62608C15.5676 7.58905 15.6131 7.5688 15.6382 7.59617Z" fill="#F5F5F5"/>
<path d="M14.0025 8.93713L14.4422 9.1288L14.7659 8.7748C14.791 8.74738 14.8366 8.76767 14.833 8.80466L14.7865 9.28208L15.2232 9.4806C15.257 9.49597 15.2518 9.54556 15.2156 9.55358L14.7471 9.65694L14.6933 10.1336C14.6891 10.1705 14.6403 10.1809 14.6215 10.1488L14.3784 9.73531L13.9084 9.83141C13.872 9.83886 13.8471 9.79569 13.8718 9.76784L14.19 9.40888L13.9534 8.9916C13.9351 8.95935 13.9684 8.92227 14.0025 8.93713Z" fill="#F5F5F5"/>
<path d="M13.0536 10.8274L13.5333 10.8237L13.685 10.3687C13.6968 10.3334 13.7466 10.3334 13.7584 10.3687L13.9102 10.8237L14.3898 10.8274C14.427 10.8277 14.4424 10.8751 14.4125 10.8972L14.0266 11.1822L14.1713 11.6395C14.1825 11.675 14.1422 11.7043 14.1119 11.6827L13.7216 11.4037L13.3313 11.6827C13.301 11.7043 13.2608 11.675 13.2719 11.6395L13.4166 11.1822L13.0307 10.8972C13.0011 10.8751 13.0165 10.8277 13.0536 10.8274Z" fill="#F5F5F5"/>
<path d="M12.9557 12.9402L13.3924 12.7417L13.3459 12.2642C13.3423 12.2272 13.3879 12.207 13.413 12.2344L13.7367 12.5884L14.1764 12.3967C14.2105 12.3818 14.2438 12.4189 14.2255 12.4512L13.9888 12.8685L14.307 13.2275C14.3317 13.2553 14.3067 13.2985 14.2704 13.291L13.8004 13.1949L13.5573 13.6085C13.5385 13.6405 13.4898 13.6301 13.4855 13.5932L13.4317 13.1166L12.9633 13.0132C12.927 13.0051 12.9219 12.9555 12.9557 12.9402Z" fill="#F5F5F5"/>
<path d="M13.7255 14.9101L14.0437 14.5512L13.8071 14.1339C13.7887 14.1015 13.8221 14.0645 13.8561 14.0794L14.2958 14.271L14.6195 13.917C14.6446 13.8896 14.6902 13.9099 14.6866 13.9469L14.6401 14.4243L15.0768 14.6228C15.1106 14.6382 15.1054 14.6878 15.0692 14.6958L14.6007 14.7992L14.5469 15.2758C14.5427 15.3127 14.4939 15.3231 14.4751 15.2911L14.232 14.8776L13.7621 14.9736C13.7258 14.9811 13.7008 14.9379 13.7255 14.9101Z" fill="#F5F5F5"/>
<path d="M15.23 16.3967L15.3746 15.9393L14.9888 15.6544C14.9589 15.6323 14.9743 15.5849 15.0114 15.5846L15.4911 15.5809L15.6428 15.1258C15.6545 15.0905 15.7044 15.0905 15.7162 15.1258L15.868 15.5809L16.3476 15.5846C16.3848 15.5849 16.4002 15.6322 16.3703 15.6544L15.9844 15.9393L16.1291 16.3967C16.1403 16.4321 16.0999 16.4615 16.0697 16.4398L15.6794 16.1609L15.2891 16.4398C15.2591 16.4614 15.2188 16.4321 15.23 16.3967Z" fill="#F5F5F5"/>
<path d="M17.2091 17.1428L17.1552 16.6662L16.6868 16.5628C16.6505 16.5548 16.6453 16.5052 16.6792 16.4898L17.1159 16.2913L17.0694 15.8139C17.0658 15.7769 17.1114 15.7566 17.1364 15.784L17.4602 16.138L17.8998 15.9464C17.9339 15.9315 17.9673 15.9685 17.9489 16.0009L17.7123 16.4181L18.0305 16.7771C18.0551 16.805 18.0302 16.8481 17.9938 16.8407L17.5239 16.7446L17.2808 17.1581C17.262 17.19 17.2133 17.1797 17.2091 17.1428Z" fill="#F5F5F5"/>
<path d="M19.3205 17.0194L19.0775 16.6058L18.6075 16.7019C18.5711 16.7094 18.5462 16.6662 18.5709 16.6384L18.889 16.2794L18.6524 15.8622C18.6341 15.8298 18.6675 15.7928 18.7015 15.8077L19.1412 15.9993L19.4649 15.6453C19.49 15.6179 19.5355 15.6382 19.5319 15.6752L19.4855 16.1526L19.9222 16.3511C19.956 16.3665 19.9508 16.4161 19.9145 16.4241L19.4461 16.5275L19.3922 17.0041C19.3881 17.041 19.3394 17.0514 19.3205 17.0194Z" fill="#F5F5F5"/>
<path d="M21.1993 16.0479L20.809 15.7689L20.4187 16.0479C20.3885 16.0695 20.3482 16.0402 20.3594 16.0048L20.504 15.5474L20.1181 15.2624C20.0882 15.2404 20.1037 15.1929 20.1408 15.1927L20.6204 15.1889L20.7722 14.7339C20.7839 14.6986 20.8338 14.6986 20.8456 14.7339L20.9974 15.1889L21.477 15.1927C21.5142 15.193 21.5296 15.2403 21.4997 15.2624L21.1138 15.5474L21.2585 16.0048C21.2699 16.0402 21.2295 16.0694 21.1993 16.0479Z" fill="#F5F5F5"/>
<path d="M22.5204 14.3961L22.0504 14.3L21.8074 14.7136C21.7886 14.7456 21.7398 14.7352 21.7356 14.6983L21.6817 14.2217L21.2133 14.1183C21.177 14.1103 21.1718 14.0607 21.2057 14.0453L21.6424 13.8468L21.5959 13.3694C21.5923 13.3324 21.6379 13.3121 21.6629 13.3395L21.9866 13.6935L22.4263 13.5019C22.4604 13.487 22.4938 13.524 22.4754 13.5564L22.2388 13.9736L22.557 14.3326C22.5818 14.3604 22.5568 14.4036 22.5204 14.3961Z" fill="#F5F5F5"/>
<path d="M23.0556 12.35L22.5871 12.4533L22.5333 12.93C22.5291 12.9669 22.4803 12.9772 22.4615 12.9452L22.2184 12.5317L21.7484 12.6278C21.712 12.6352 21.6871 12.5921 21.7118 12.5642L22.03 12.2053L21.7933 11.788C21.775 11.7556 21.8084 11.7186 21.8424 11.7335L22.2821 11.9251L22.6058 11.5711C22.6309 11.5437 22.6765 11.564 22.6729 11.601L22.6264 12.0784L23.0631 12.2769C23.097 12.2924 23.0918 12.342 23.0556 12.35Z" fill="#F5F5F5"/>
<path d="M22.7121 10.2629L22.3262 10.5479L22.4709 11.0052C22.4821 11.0407 22.4418 11.07 22.4115 11.0484L22.0212 10.7694L21.6309 11.0484C21.6007 11.07 21.5604 11.0407 21.5715 11.0052L21.7162 10.5479L21.3303 10.2629C21.3004 10.2409 21.3158 10.1934 21.353 10.1931L21.8326 10.1894L21.9844 9.73437C21.9961 9.69908 22.046 9.69908 22.0578 9.73437L22.2096 10.1894L22.6893 10.1931C22.7266 10.1935 22.742 10.2409 22.7121 10.2629Z" fill="#F5F5F5"/>
<path d="M21.5495 8.49608L21.3129 8.91336L21.6311 9.27233C21.6558 9.30017 21.6308 9.34335 21.5945 9.33589L21.1245 9.2398L20.8814 9.65333C20.8626 9.68535 20.8138 9.67499 20.8096 9.63805L20.7558 9.16142L20.2873 9.05807C20.251 9.05005 20.2459 9.00046 20.2797 8.98508L20.7164 8.78657L20.6699 8.30914C20.6663 8.27216 20.7119 8.25186 20.737 8.27928L21.0607 8.63328L21.5004 8.44161C21.5345 8.42671 21.5679 8.46378 21.5495 8.49608Z" fill="#F5F5F5"/>
<path d="M19.7688 7.35486L19.7224 7.83229L20.159 8.0308C20.1929 8.04618 20.1876 8.09577 20.1514 8.10379L19.683 8.20714L19.6291 8.68377C19.625 8.72071 19.5762 8.73107 19.5573 8.69905L19.3143 8.28552L18.8443 8.38161C18.8079 8.38907 18.7829 8.34589 18.8076 8.31805L19.1258 7.95908L18.8892 7.5418C18.8709 7.50946 18.9043 7.47243 18.9383 7.48729L19.378 7.67896L19.7017 7.32496C19.7269 7.29754 19.7724 7.31788 19.7688 7.35486Z" fill="#F5F5F5"/>
<path d="M17.6779 7.03654L17.8296 7.4916L18.3093 7.4953C18.3464 7.49563 18.3618 7.54298 18.3319 7.5651L17.946 7.85005L18.0907 8.30741C18.1019 8.34285 18.0616 8.37219 18.0313 8.35054L17.641 8.07159L17.2507 8.35054C17.2205 8.37215 17.1802 8.34285 17.1914 8.30741L17.336 7.85005L16.9501 7.5651C16.9202 7.54302 16.9357 7.49559 16.9728 7.4953L17.4524 7.4916L17.6042 7.03654C17.6163 7.00129 17.6661 7.00129 17.6779 7.03654Z" fill="#F5F5F5"/>
</svg>
