<svg xmlns="http://www.w3.org/2000/svg" width="24" height="24" viewBox="0 0 24 24" fill="none"><rect width="24" height="24" fill="none"/>
<path d="M22.2134 4.13857H1.78664C0.798984 4.14433 0 4.9466 0 5.93566V18.065C0 19.0577 0.804703 19.8624 1.79742 19.8624H22.2026C23.1952 19.8624 24 19.0577 24 18.065V5.93566C24 4.9466 23.201 4.14433 22.2134 4.13857Z" fill="#82AFFF"/>
<path d="M0.413813 11.9997H11.5862C11.8148 11.9997 12 11.8144 12 11.5859V4.5514C12 4.32289 11.8148 4.13759 11.5862 4.13759H1.78664C0.798984 4.1434 0 4.94567 0 5.93473V11.5858C0 11.8144 0.185297 11.9997 0.413813 11.9997Z" fill="#41479B"/>
<path d="M0.413813 11.9997H1.13259L4.96556 9.48842V11.9997H7.03453V9.48842L10.8675 11.9997H11.5863C11.8148 11.9997 12.0001 11.8144 12.0001 11.5859V11.2577L8.71158 9.10315H12V7.03418H8.71148L12 4.87962V4.5514C12 4.32289 11.8147 4.13759 11.5862 4.13759H10.8674L7.03444 6.64887V4.13764H4.96547V6.64892L1.25798 4.21985C0.825281 4.35579 0.463406 4.65129 0.240469 5.03717L3.28852 7.03418H0V9.10315H3.28852L0 11.2577V11.5859C0 11.8144 0.185297 11.9997 0.413813 11.9997Z" fill="#F5F5F5"/>
<path d="M12 7.44888H6.62067V4.13857H5.37933V7.44888H0V8.69027H5.37933V12.0006H6.62067V8.69027H12V7.44888Z" fill="#FF4B55"/>
<path d="M0.38559 4.82319L3.79171 7.03419H4.5517L0.684652 4.52394C0.573605 4.61164 0.473199 4.71214 0.38559 4.82319Z" fill="#FF4B55"/>
<path d="M7.79452 7.03418L11.937 4.34515C11.865 4.22332 11.738 4.13763 11.5862 4.13763H11.4967L7.03448 7.03418H7.79452Z" fill="#FF4B55"/>
<path d="M4.19409 9.10316L0.0594788 11.7869C0.130682 11.9118 0.259776 11.9996 0.413807 11.9996H0.491854L4.95417 9.10307H4.19409V9.10316Z" fill="#FF4B55"/>
<path d="M11.9934 11.6184L8.11846 9.10316H7.35843L11.7588 11.9595C11.8906 11.8983 11.981 11.7701 11.9934 11.6184Z" fill="#FF4B55"/>
<path d="M10.25 16.5635L10.0285 17.2277L9.32837 17.2331C9.26124 17.2336 9.2334 17.3193 9.2874 17.3592L9.8506 17.7751L9.63943 18.4427C9.61913 18.5067 9.69207 18.5596 9.74673 18.5206L10.3164 18.1135L10.886 18.5206C10.9406 18.5597 11.0135 18.5067 10.9933 18.4427L10.7821 17.7751L11.3453 17.3592C11.3993 17.3193 11.3715 17.2336 11.3043 17.2331L10.6042 17.2277L10.3827 16.5635C10.3614 16.4998 10.2713 16.4998 10.25 16.5635Z" fill="#FFE15A"/>
<path d="M21.0345 11.3911L20.813 12.0552L20.1129 12.0607C20.0457 12.0612 20.0179 12.1469 20.0719 12.1868L20.6351 12.6027L20.4239 13.2702C20.4036 13.3343 20.4766 13.3872 20.5312 13.3482L21.1008 12.9411L21.6705 13.3482C21.7251 13.3872 21.798 13.3343 21.7778 13.2702L21.5666 12.6027L22.1298 12.1868C22.1838 12.1469 22.1559 12.0612 22.0888 12.0607L21.3887 12.0552L21.1672 11.3911C21.1459 11.3274 21.0557 11.3274 21.0345 11.3911Z" fill="#FFE15A"/>
<path d="M21.0345 5.80484L20.813 6.46901L20.1129 6.47445C20.0457 6.47496 20.0179 6.56065 20.0719 6.60054L20.6351 7.01646L20.4239 7.68401C20.4036 7.74804 20.4766 7.80096 20.5312 7.76196L21.1008 7.35485L21.6705 7.76196C21.7251 7.80101 21.798 7.74804 21.7778 7.68401L21.5666 7.01646L22.1298 6.60054C22.1838 6.56065 22.1559 6.47496 22.0888 6.47445L21.3887 6.46901L21.1672 5.80484C21.1459 5.74118 21.0557 5.74118 21.0345 5.80484Z" fill="#FFE15A"/>
<path d="M13.0225 13.0691L13.2412 13.7342L12.6827 14.1564C12.6291 14.1969 12.6579 14.2823 12.725 14.282L13.4252 14.2796L13.6541 14.9412C13.6761 15.0047 13.7662 15.0037 13.7867 14.9397L14.0007 14.2731L14.7008 14.2598C14.7679 14.2585 14.7948 14.1725 14.7403 14.1333L14.1724 13.7237L14.3761 13.0538C14.3957 12.9896 14.3222 12.9374 14.268 12.9771L13.703 13.3907L13.1289 12.99C13.0738 12.9516 13.0015 13.0053 13.0225 13.0691Z" fill="#FFE15A"/>
<path d="M12.9707 15.9398L13.1894 16.6049L12.6309 17.0271C12.5774 17.0676 12.6061 17.1529 12.6733 17.1527L13.3734 17.1503L13.6024 17.8119C13.6244 17.8754 13.7144 17.8743 13.7349 17.8104L13.949 17.1438L14.649 17.1304C14.7161 17.1291 14.743 17.0432 14.6886 17.0039L14.1207 16.5944L14.3244 15.9245C14.3439 15.8603 14.2704 15.8081 14.2163 15.8478L13.6513 16.2613L13.0772 15.8606C13.0221 15.8223 12.9497 15.876 12.9707 15.9398Z" fill="#FFE15A"/>
<path d="M15.9966 15.2157L16.2153 15.8808L15.6568 16.303C15.6032 16.3435 15.632 16.4288 15.6992 16.4286L16.3993 16.4262L16.6283 17.0878C16.6502 17.1513 16.7403 17.1502 16.7608 17.0863L16.9749 16.4196L17.6749 16.4063C17.742 16.405 17.7689 16.319 17.7145 16.2798L17.1466 15.8703L17.3502 15.2004C17.3698 15.1362 17.2963 15.084 17.2421 15.1237L16.6772 15.5372L16.103 15.1365C16.048 15.0981 15.9756 15.1519 15.9966 15.2157Z" fill="#FFE15A"/>
<path d="M15.9449 8.95704L16.1636 9.62215L15.6051 10.0444C15.5516 10.0849 15.5803 10.1702 15.6475 10.17L16.3476 10.1675L16.5766 10.8292C16.5986 10.8926 16.6886 10.8916 16.7091 10.8277L16.9232 10.161L17.6232 10.1477C17.6903 10.1464 17.7172 10.0604 17.6628 10.0212L17.0949 9.61165L17.2985 8.94176C17.3181 8.87754 17.2446 8.82537 17.1904 8.86507L16.6255 9.2786L16.0513 8.87792C15.9962 8.83952 15.9239 8.89324 15.9449 8.95704Z" fill="#FFE15A"/>
<path d="M18.5052 8.10359L18.7239 8.7687L18.1654 9.1909C18.1119 9.2314 18.1406 9.31676 18.2078 9.31652L18.9079 9.31409L19.1369 9.97573C19.1589 10.0392 19.2489 10.0382 19.2694 9.97423L19.4835 9.30757L20.1835 9.29426C20.2506 9.29294 20.2775 9.20698 20.2231 9.16774L19.6552 8.7582L19.8588 8.0883C19.8784 8.02409 19.8049 7.97191 19.7507 8.01162L19.1858 8.42515L18.6116 8.02446C18.5566 7.98607 18.4842 8.03979 18.5052 8.10359Z" fill="#FFE15A"/>
</svg>
