<svg xmlns="http://www.w3.org/2000/svg" width="24" height="24" viewBox="0 0 24 24" fill="none"><rect width="24" height="24" fill="none"/>
<path d="M22.2026 4.13788H1.79743C0.804705 4.13788 0 4.94258 0 5.9353V18.0647C0 19.0572 0.804611 19.8619 1.79714 19.8621H22.2029C23.1954 19.8619 24 19.0572 24 18.0647V5.9353C24 4.94258 23.1953 4.13788 22.2026 4.13788Z" fill="#FF4B55"/>
<path d="M20.6897 7.44824V16.5517H3.31036V7.44824H20.6897Z" fill="#73AF00"/>
<path d="M11.174 12.0011C11.174 10.4343 12.2412 9.12222 13.6859 8.74215C13.734 8.7295 13.7305 8.65993 13.6812 8.65361C13.5501 8.63673 13.4168 8.62708 13.2812 8.62708C11.4163 8.62708 9.90659 10.1365 9.90659 12.0011C9.90659 13.8577 11.4163 15.3713 13.2812 15.3713C13.4171 15.3713 13.5505 15.3615 13.6817 15.3446C13.731 15.3382 13.7345 15.2687 13.6864 15.2561C12.2414 14.8754 11.174 13.5613 11.174 12.0011Z" fill="#F5F5F5"/>
</svg>
