<svg xmlns="http://www.w3.org/2000/svg" width="24" height="24" viewBox="0 0 24 24" fill="none"><rect width="24" height="24" fill="none"/>
<path d="M1.79742 19.8621H22.2026C23.1952 19.8621 24 19.0574 24 18.0646V5.93541C24 5.3827 23.7503 4.88845 23.3578 4.55878L0.642181 19.4413C0.954603 19.7037 1.35745 19.8621 1.79742 19.8621Z" fill="#FF6E55"/>
<path d="M0.642188 19.4413L23.3578 4.55873C23.0454 4.29628 22.6426 4.13794 22.2026 4.13794H1.79742C0.804703 4.13798 0 4.94264 0 5.9354V18.0647C0 18.6174 0.249656 19.1116 0.642188 19.4413Z" fill="#FFE15A"/>
<path d="M13.1963 8.34496C12.9884 8.38949 12.6617 8.27812 12.6617 8.27812C12.729 8.39404 12.909 8.47209 13.0714 8.52121C12.9403 8.53429 12.7908 8.5417 12.6245 8.53804C11.9563 8.52313 11.6444 8.96132 11.6444 8.96132C11.882 8.81277 12.1271 8.81277 12.4909 8.86481C12.8548 8.91679 13.627 8.68663 13.627 8.68663L13.6938 8.38963C13.6938 8.38949 13.4042 8.30043 13.1963 8.34496Z" fill="#FFF5DC"/>
<path d="M13.8831 6.95278C13.8831 6.95278 14.2286 7.026 14.5793 7.22723C14.5582 7.23829 14.538 7.25184 14.5188 7.26773C14.4055 7.21139 14.2685 7.16578 14.091 7.14768C14.091 7.14768 14.2748 7.1955 14.4513 7.33378C14.4056 7.38764 14.368 7.4489 14.3389 7.50337C13.9505 7.08684 13.5304 7.36486 13.5304 7.36486C14.0515 7.32525 14.1745 7.66007 14.2038 7.82179C14.1029 7.75434 14.0078 7.69875 13.9187 7.65351C13.9317 7.64372 13.9383 7.6349 13.9537 7.62483C13.9537 7.62483 13.9211 7.62614 13.8758 7.63289C13.2107 7.31325 12.8844 7.56539 12.8844 7.56539C13.1798 7.52929 13.4527 7.60608 13.6693 7.7017C13.5741 7.7565 13.5097 7.85301 13.5628 8.01707C13.1898 7.91559 12.7211 7.81561 12.4908 7.87725C12.075 7.98862 12.2087 8.37473 12.2087 8.37473C12.2087 8.37473 12.2162 8.11486 12.4983 8.05542C12.7095 8.01093 13.7606 8.34501 13.7606 8.34501L14.1021 8.18165L13.9611 8.06282C13.9611 8.06282 13.69 7.95398 13.8062 7.76695C14.0006 7.87059 14.1244 7.97367 14.1244 7.97367L14.208 7.85156C14.2121 7.88315 14.2135 7.90687 14.2135 7.90687L14.4511 7.80295L14.5031 7.72865C14.5239 7.61597 14.5583 7.53581 14.5979 7.47581C14.6666 7.5622 14.7235 7.66889 14.7519 7.80098L14.9672 7.82329C14.9672 7.82329 14.9322 7.57439 14.6913 7.37643C14.7127 7.36125 14.7338 7.34864 14.7545 7.34025C14.9132 7.45411 15.0612 7.59647 15.1639 7.77506L15.5612 7.76948C15.5612 7.76953 14.9078 7.04189 13.8831 6.95278Z" fill="#FFF5DC"/>
<path d="M17.6738 10.9586C17.9485 10.9586 18.1713 10.7358 18.1713 10.4611C18.1713 10.1863 17.9485 9.9636 17.6738 9.9636C17.399 9.9636 17.1763 10.1863 17.1763 10.4611C17.1763 10.7358 17.399 10.9586 17.6738 10.9586Z" fill="#FFF5DC"/>
<path d="M16.5122 15.3158C16.8808 15.3158 17.1796 15.017 17.1796 14.6484C17.1796 14.2798 16.8808 13.981 16.5122 13.981C16.1436 13.981 15.8448 14.2798 15.8448 14.6484C15.8448 15.017 16.1436 15.3158 16.5122 15.3158Z" fill="#FFF5DC"/>
<path d="M11.4244 14.8539C11.7166 14.8539 11.9534 14.6171 11.9534 14.325C11.9534 14.0328 11.7166 13.796 11.4244 13.796C11.1323 13.796 10.8954 14.0328 10.8954 14.325C10.8954 14.6171 11.1323 14.8539 11.4244 14.8539Z" fill="#FFF5DC"/>
<path d="M10.208 17.4478C10.5453 17.4478 10.8188 17.1743 10.8188 16.837C10.8188 16.4997 10.5453 16.2262 10.208 16.2262C9.87069 16.2262 9.59723 16.4997 9.59723 16.837C9.59723 17.1743 9.87069 17.4478 10.208 17.4478Z" fill="#FFF5DC"/>
<path d="M16.0253 9.16171C16.0253 9.16171 17.1692 9.56934 17.4454 9.70743C17.8352 9.90234 18.4478 9.33431 18.8765 9.77427C18.8765 9.77427 18.8022 9.48098 18.4459 9.45871C18.4459 9.45871 18.4534 9.16912 18.1192 9.18402C18.1192 9.18402 18.3642 9.3622 18.2232 9.48848C18.2232 9.48848 18.1267 9.27313 17.8519 9.31031C17.8519 9.31031 18.0598 9.39196 18.0079 9.5182C18.0079 9.5182 17.6774 9.67781 17.5289 9.57388C17.3804 9.46992 16.2073 8.83692 15.836 8.82206L16.0253 9.16171Z" fill="#FFF5DC"/>
<path d="M15.732 9.51821C15.732 9.51821 15.977 9.59063 16.3334 9.96371C16.4986 10.1366 16.9237 10.1475 16.8569 9.81334C16.79 9.47921 15.9659 9.2732 15.8768 9.2732C15.7877 9.27315 15.732 9.51821 15.732 9.51821Z" fill="#F5F5F5"/>
<path d="M17.5178 8.78303L17.05 8.93898C17.05 8.93898 17.102 9.25642 16.8347 9.39564C16.67 9.48142 16.56 9.70375 16.5673 9.86711C16.5673 9.86711 16.7233 9.65176 16.946 9.53298C16.9984 9.505 17.0468 9.48048 17.0909 9.45559C17.082 9.56692 17.0797 9.68378 17.0945 9.78545C17.1391 10.0899 17.0426 10.1938 17.0426 10.1938C17.0426 10.1938 17.3025 9.99334 17.2727 9.66667C17.2613 9.54114 17.2819 9.45222 17.3138 9.38472C17.3368 9.6122 17.4583 9.7187 17.4583 9.7187C17.3692 9.54053 17.5548 9.3474 17.6291 9.1915C17.7035 9.0355 17.5178 8.78303 17.5178 8.78303Z" fill="#FFF5DC"/>
<path d="M18.7003 8.13709C18.5161 8.07446 18.3383 8.1872 18.2325 8.28188C18.1874 8.3222 18.0687 8.34268 17.9473 8.3537C18.0284 8.29632 18.1147 8.22859 18.1601 8.17056C18.2603 8.04249 18.4441 8.02018 18.6001 7.97007C18.756 7.91996 18.8228 7.71948 18.8228 7.71948C18.8228 7.71948 18.7393 7.84201 18.5054 7.83085C18.2715 7.8197 18.1936 7.80854 18.0376 7.97565C17.9896 8.02702 17.9225 8.06673 17.8529 8.09865C17.8544 8.02567 17.8607 7.93281 17.8817 7.86981C17.9207 7.75285 18.0989 7.65821 18.11 7.42431C18.1211 7.1904 18.1323 7.21271 18.266 7.07345C18.3996 6.93423 18.4386 6.67248 18.3996 6.75601C18.3606 6.83954 18.1824 6.93981 18.0321 7.07902C17.8817 7.21824 17.9875 7.37415 17.9095 7.49668C17.8316 7.61921 17.6478 7.64706 17.6366 7.87534C17.6255 8.10367 17.464 8.23731 17.464 8.23731C17.464 8.23731 17.0686 8.45448 17.5419 8.62717C18.0153 8.79981 18.3983 8.31953 18.6334 8.33204C19.1569 8.35988 19.2961 8.18724 19.2961 8.18724C19.207 8.1872 18.9787 8.23173 18.7003 8.13709Z" fill="#FFF5DC"/>
<path d="M12.9587 11.8051C12.9291 11.7827 12.4167 11.2185 12.2459 11.1368L12.283 11.2778C12.283 11.2778 12.1716 11.2704 11.9712 11.0254C11.7707 10.7804 11.6222 10.7135 11.6222 10.7135C11.6222 10.7135 11.7633 10.9363 11.7558 11.0774C11.7558 11.0774 11.4514 11.0551 11.1247 11.211C11.1247 11.211 10.9762 10.9214 10.85 10.8695C10.85 10.8695 10.8945 11.1739 10.7906 11.2481C10.6866 11.3224 11.7707 11.8347 11.9192 11.8496C12.0677 11.8645 12.9587 11.8051 12.9587 11.8051Z" fill="#FFF5DC"/>
<path d="M13.6345 10.6988C13.6239 10.6962 13.5691 10.7347 13.4985 10.7852C13.4672 10.6049 13.4043 10.2403 13.4043 10.2236C13.4043 10.2013 12.8994 9.49594 12.8845 9.46622C12.8843 9.46571 12.8826 9.46566 12.8822 9.46519C12.9313 9.3466 12.9841 9.14466 12.6841 9.30286C12.2756 9.51825 12.1123 10.0157 12.1123 10.0157C12.2054 9.91857 12.3678 9.84441 12.4975 9.79622C12.5002 9.85679 12.5007 9.92869 12.4167 10.0528C12.2459 10.3052 12.3424 10.4018 12.3424 10.4018C12.4761 10.1716 12.7731 10.1493 12.7731 10.1493C12.7285 10.4241 12.8844 10.58 12.8844 10.58L13.0106 10.4315C12.9951 10.6441 13.1088 10.8721 13.1796 10.992C13.1516 11.0055 13.1261 11.0159 13.1072 11.018C12.9809 11.0329 12.7805 11.1294 12.7805 11.1294C12.7805 11.1294 12.943 11.0948 13.0352 11.166C13.1274 11.2373 13.2743 11.2918 13.3539 11.275C13.3539 11.275 13.3161 11.4679 13.3581 11.5392C13.3581 11.5392 13.2532 11.5097 13.1316 11.514C13.01 11.5183 12.9215 11.4338 12.9215 11.4338C12.9215 11.4338 13.1443 11.7531 13.3076 11.8199C13.471 11.8868 13.7531 11.6417 13.7531 11.6417C13.7531 11.6417 13.6642 10.7061 13.6345 10.6988Z" fill="#FFF5DC"/>
<path d="M9.79567 15.3543C9.79567 15.3543 9.65457 15.3692 9.52098 15.5697L9.46159 15.3617C9.46159 15.3617 9.29823 15.4806 9.12006 15.4063C9.12006 15.4063 9.28342 15.3691 9.31309 15.2206C9.34276 15.0721 9.4022 15.0573 9.4022 15.0573C9.4022 15.0573 9.29082 14.9385 9.17204 14.9459C9.17204 14.9459 9.49871 14.7751 9.67698 14.9385C9.85506 15.1019 9.79567 15.3543 9.79567 15.3543Z" fill="#FFF5DC"/>
<path d="M13.7236 13.7133C13.7236 13.7133 13.5825 13.7282 13.4489 13.9287L13.3895 13.7208C13.3895 13.7208 13.2261 13.8396 13.0479 13.7653C13.0479 13.7653 13.2113 13.7282 13.241 13.5797C13.2706 13.4312 13.3301 13.4163 13.3301 13.4163C13.3301 13.4163 13.2187 13.2975 13.0999 13.305C13.0999 13.305 13.4266 13.1342 13.6049 13.2975C13.783 13.4609 13.7236 13.7133 13.7236 13.7133Z" fill="#FFF5DC"/>
<path d="M16.132 11.601C16.132 11.601 16.0631 11.725 16.1505 11.9495L15.9461 11.8787C15.9461 11.8787 15.9496 12.0807 15.7864 12.1839C15.7864 12.1839 15.8499 12.0288 15.7454 11.9192C15.6409 11.8096 15.6628 11.7524 15.6628 11.7524C15.6628 11.7524 15.5016 11.7753 15.4394 11.8769C15.4394 11.8769 15.4873 11.5113 15.7233 11.4593C15.9595 11.4073 16.132 11.601 16.132 11.601Z" fill="#FFF5DC"/>
<path d="M16.8468 14.1103L16.9906 14.196C16.9487 14.1601 16.8991 14.1331 16.8468 14.1103Z" fill="#FF6E55"/>
<path d="M8.74116 14.8272C8.74116 14.8272 8.08032 15.7553 7.32296 15.9558L7.59029 15.6142C7.59029 15.6142 7.23385 15.9261 6.83293 15.9929L7.31555 15.436C7.31555 15.436 6.23893 16.4385 4.85785 16.6463C4.85785 16.6463 5.92707 15.9707 6.14241 15.733C6.14241 15.733 5.62261 15.9409 5.15485 15.9484C5.15485 15.9484 6.4988 15.4286 6.72155 15.2207C6.72155 15.2207 6.18694 15.3396 5.85277 15.2282C5.85277 15.2282 7.0111 14.8941 7.17441 14.9386C7.17441 14.9386 6.50611 14.6713 6.10519 14.701C6.10519 14.701 6.7883 14.5376 7.58279 14.701L7.41197 14.5154C7.41197 14.5154 7.86493 14.3965 8.31043 14.3669C8.75593 14.3372 8.53322 14.3 8.53322 14.3L8.58521 14.1515C8.58521 14.1515 8.29561 14.1886 8.05805 14.1515C8.05805 14.1515 8.77088 13.7505 8.97137 13.5724C9.17185 13.3942 9.03821 13.4759 9.03821 13.4759C9.03821 13.4759 8.66691 13.602 8.53327 13.6244C8.53327 13.6244 8.8674 13.2382 8.97137 12.9858C8.97137 12.9858 8.66691 13.1046 8.40704 12.9858C8.40704 12.9858 8.7189 12.8967 8.87485 12.7408C9.0308 12.5848 9.26096 12.1969 9.26096 12.1969L8.99363 12.3138C8.99363 12.3138 9.22754 11.9129 9.4336 11.8126C9.4336 11.8126 9.08274 11.8405 8.97141 11.757C8.97141 11.757 9.34454 11.6678 9.45591 11.5788C9.56729 11.4897 9.81235 11.2558 10.0629 11.3449C10.0629 11.3449 10.4138 11.0219 10.2968 10.8103C10.2968 10.8103 10.5251 10.827 10.6421 10.9662C10.759 11.1054 10.9428 11.2224 10.9428 11.2224L9.98865 11.9686L9.26096 14.3297L8.74116 14.8272Z" fill="#FFF5DC"/>
<path d="M18.0893 10.3721C18.3641 10.8176 18.0225 10.8621 18.0225 10.8621C17.9705 10.4389 17.6141 10.4909 17.6141 10.4909L17.7106 10.8028C17.1166 10.8771 17.1612 10.283 17.1612 10.283C17.0721 10.3573 16.9236 10.6616 16.9236 10.6616C16.9236 10.6616 15.3197 11.1963 14.2357 9.60729C14.2357 9.60729 14.206 9.3251 14.2951 9.19141L13.6268 8.68652L12.7655 8.80535C12.7655 8.80535 12.4239 9.57752 12.8398 10.0528C13.2556 10.528 13.7456 11.1963 13.6566 11.5081C13.6037 11.693 13.4466 11.7682 13.2284 11.7525C13.0784 11.7417 12.8997 11.6879 12.7062 11.5972C12.231 11.3744 11.0727 10.8993 10.2411 11.2854C9.40946 11.6715 9.31922 12.3396 9.15699 12.8595C9.01336 13.3197 8.69466 14.4947 6.42418 15.5667C6.31571 15.6179 6.37088 15.7827 6.48727 15.7538C7.47146 15.5091 8.81326 15.1014 9.22744 14.6193L9.56157 14.6304L9.43904 15.1428C9.43904 15.1428 9.87343 15.2764 9.94022 15.9113C9.94022 15.9113 9.17916 16.1192 9.6098 16.7726C9.6098 16.7726 9.67665 16.2974 10.2038 16.2751C10.2038 16.2751 10.3226 16.4311 10.5825 16.4533C10.5825 16.4533 10.7161 16.6687 10.6493 16.8469C10.6493 16.8469 11.1765 16.6835 10.731 16.0523C10.731 16.0523 11.2284 15.9335 11.2953 16.5573C11.2953 16.5573 11.6146 15.5474 10.4748 15.6217C10.4748 15.6217 10.4748 15.4435 10.1741 15.1205C10.1741 15.1205 10.0999 14.9385 10.1741 14.6861C10.1965 14.6101 10.2167 14.5313 10.2336 14.4509C10.2955 14.4853 10.3907 14.5259 10.5157 14.5302C10.5157 14.5302 10.7013 14.8346 11.2508 14.7827C11.2508 14.7827 10.8498 14.5971 10.8869 14.2406C10.924 13.8842 11.3918 13.6911 11.5923 13.8322C11.5923 13.8322 11.5403 13.3644 10.8127 13.6689C10.8127 13.6689 10.8127 13.3199 11.1988 13.2977C11.1988 13.2977 10.5751 12.8224 10.434 13.7283L10.1759 13.7928C10.0498 13.4433 9.89007 12.6317 10.5974 12.336C11.3436 12.0242 12.1232 12.7259 13.5043 12.7927C13.5043 12.7927 13.3707 13.6057 13.8162 13.8062C14.2617 14.0067 15.3532 14.1961 15.3532 14.1961C15.3421 15.3692 16.1959 15.2133 16.1959 15.2133C15.7815 14.9649 15.7815 14.4911 16.0373 14.2144C16.3859 13.8372 16.9904 14.196 16.9904 14.196C16.9818 13.6249 16.181 13.7133 16.181 13.7133C16.3072 13.3421 16.8047 13.2455 16.8047 13.2455C16.1142 12.9931 15.5424 13.7393 15.5424 13.7393L14.3729 13.4052C14.3729 13.4052 14.3284 13.1713 14.6068 12.8595C14.8853 12.5476 15.1192 12.0241 15.0412 11.4673C15.0412 11.4673 15.3642 11.2408 15.7651 11.4636C16.1661 11.6864 17.0274 11.1963 17.0274 11.1963C17.3987 11.6714 18.2823 11.5824 18.4011 11.0107C18.52 10.4389 18.0893 10.3721 18.0893 10.3721Z" fill="#F5F5F5"/>
<path d="M16.8642 9.00588C16.6434 8.87702 16.2479 8.76827 16.1143 9.06527C15.9806 9.36227 15.8321 9.65927 15.3718 9.64441C14.9114 9.62955 14.7035 10.0231 14.3842 9.91174C14.3842 9.91174 14.6812 9.81522 14.7407 9.67413C14.8 9.53304 15.0377 9.27316 15.0377 9.27316L15.008 9.00583C15.008 9.00583 14.4585 9.03546 14.2952 9.19141C14.1318 9.34736 13.5155 9.05782 13.5155 9.05782L13.5898 8.41183C13.5898 8.41183 14.065 7.68419 14.7259 7.73618C15.3867 7.78816 15.4981 7.61735 15.8174 7.63966C16.1367 7.66197 16.3 7.98864 16.6415 8.06294C16.9831 8.13724 17.6662 7.9961 17.7553 8.20404C17.8444 8.41193 17.5845 8.49363 17.5177 8.78318C17.4508 9.07268 17.3097 9.26571 16.8642 9.00588Z" fill="#F5F5F5"/>
<path d="M14.9338 8.8202C14.9338 8.8202 14.6145 9.03555 14.3472 8.94639C14.0799 8.85728 13.8423 8.887 13.5676 8.97606C13.5676 8.97606 14.0725 8.91667 14.2804 9.1097C14.4883 9.30273 15.0155 9.17655 15.0526 9.09484L14.9338 8.8202Z" fill="#FFF5DC"/>
<path d="M15.0971 9.31764C15.0971 9.31764 14.7852 9.54043 14.4734 9.481C14.1616 9.42161 13.8794 9.54784 13.8794 9.54784C13.8794 9.54784 14.1096 9.29537 14.4214 9.33995C14.7333 9.38448 14.8446 9.08007 14.8446 9.08007L15.0526 9.09493L15.0971 9.31764Z" fill="#FFF5DC"/>
<path d="M15.3497 9.45902C15.5793 9.45902 15.7655 9.27282 15.7655 9.04314C15.7655 8.81346 15.5793 8.62727 15.3497 8.62727C15.12 8.62727 14.9338 8.81346 14.9338 9.04314C14.9338 9.27282 15.12 9.45902 15.3497 9.45902Z" fill="#FFF5DC"/>
<path d="M15.1045 8.73109C15.1045 8.73109 14.9411 8.5232 14.5327 8.6049C14.1243 8.68656 14.0278 8.53806 14.0278 8.53806C14.0278 8.53806 14.2208 8.83506 14.5253 8.79793C14.8297 8.76081 14.9559 8.96875 14.9559 8.96875L15.1045 8.73109Z" fill="#FFF5DC"/>
<path d="M16.4784 8.21116C16.5151 8.16058 16.5612 8.11234 16.6243 8.07564C16.6615 8.05398 16.6998 8.0403 16.7378 8.02905C16.7462 7.97266 16.7379 7.91186 16.7057 7.85664C16.6356 7.73617 16.4897 7.69042 16.3798 7.75445C16.2699 7.81844 16.2378 7.96797 16.308 8.08844C16.3474 8.15608 16.4109 8.19686 16.4784 8.21116Z" fill="#FFF5DC"/>
<path d="M16.1136 8.68956C16.1345 8.63064 16.1651 8.57139 16.2152 8.51823C16.2448 8.48692 16.2776 8.46301 16.3108 8.44145C16.3029 8.38501 16.2778 8.329 16.2313 8.28512C16.1299 8.18945 15.9769 8.18683 15.8897 8.27926C15.8024 8.3717 15.8139 8.52423 15.9153 8.6199C15.9724 8.67381 16.0449 8.6949 16.1136 8.68956Z" fill="#FFF5DC"/>
</svg>
