<svg xmlns="http://www.w3.org/2000/svg" width="24" height="24" viewBox="0 0 24 24" fill="none"><rect width="24" height="24" fill="none"/>
<path d="M22.2026 4.13794H1.79742C0.804703 4.13794 0 4.94264 0 5.93536V9.37931H24V5.93536C24 4.94264 23.1953 4.13794 22.2026 4.13794Z" fill="#FF4B55"/>
<path d="M0 18.0646C0 19.0573 0.804703 19.862 1.79742 19.862H22.2026C23.1952 19.862 24 19.0573 24 18.0646V14.6207H0V18.0646Z" fill="#464655"/>
<path d="M24 9.37921H0V14.6203H24V9.37921Z" fill="#F5F5F5"/>
<path d="M0.601313 19.4059L9.66084 12.2144C9.79894 12.1048 9.79894 11.8951 9.66084 11.7855L0.601313 4.59406C0.232453 4.92326 0 5.40204 0 5.93534V18.0647C0 18.5979 0.232453 19.0767 0.601313 19.4059Z" fill="#73AF00"/>
</svg>
