<svg xmlns="http://www.w3.org/2000/svg" width="24" height="24" viewBox="0 0 24 24" fill="none"><rect width="24" height="24" fill="none"/>
<path d="M23.991 5.7945C23.922 4.8675 23.142 4.1385 22.2 4.1385H1.794C0.852 4.1385 0.078 4.8645 0.003 5.7945H0V18.2085H0.006C0.075 19.1355 0.852 19.8615 1.794 19.8615H22.2C23.148 19.8615 23.919 19.1295 23.991 18.2055H24V5.7945H23.991Z" fill="#FF4B55"/>
<path d="M24 5.79469H0V18.2086H24V5.79469Z" fill="#41479B"/>
<path d="M12 17.3836C14.9725 17.3836 17.3822 14.9739 17.3822 12.0014C17.3822 9.0289 14.9725 6.61922 12 6.61922C9.0275 6.61922 6.61781 9.0289 6.61781 12.0014C6.61781 14.9739 9.0275 17.3836 12 17.3836Z" fill="#F5F5F5"/>
<path d="M10.968 14.8275L10.137 14.9685C10.035 14.9865 9.936 14.9085 9.936 14.8005V14.4855H10.968V14.8275Z" fill="#82AFFF"/>
<path d="M13.026 14.8273L13.857 14.9683C13.959 14.9863 14.058 14.9083 14.058 14.8003V14.4853H13.026V14.8273Z" fill="#82AFFF"/>
<path d="M11.8259 9.24449H11.7569C11.6729 9.24449 11.5919 9.19649 11.5559 9.11849L11.4299 8.86649L11.5469 8.80949L11.6729 9.06149C11.6909 9.09449 11.7239 9.11249 11.7629 9.11249H11.8319V9.24449H11.8259Z" fill="#965032"/>
<path d="M10.3843 9.03878L10.5963 9.46272L10.709 9.40638L10.497 8.98243L10.3843 9.03878Z" fill="#965032"/>
<path d="M12.2339 11.2275L11.8829 10.8765C11.8079 10.8015 11.7599 10.6935 11.7599 10.5855V10.4685C11.7599 10.4265 11.7509 10.3785 11.7329 10.3425L11.6429 10.1685C11.6249 10.1295 11.5859 10.1085 11.5499 10.1085H11.2439C11.1539 10.1085 11.0759 10.0575 11.0339 9.97647L10.9109 9.72747L11.0279 9.67047L11.1509 9.91947C11.1689 9.95847 11.2079 9.97947 11.2439 9.97947H11.5499C11.6399 9.97947 11.7179 10.0305 11.7599 10.1115L11.8499 10.2855C11.8769 10.3425 11.8919 10.4085 11.8919 10.4685V10.5855C11.8919 10.6605 11.9189 10.7295 11.9759 10.7835L12.1079 10.9155V10.3155C12.1079 10.1505 12.0509 9.99147 11.9489 9.86547C11.8259 9.71547 11.7599 9.52647 11.7599 9.33447V8.83647H11.8859V9.33447C11.8859 9.49947 11.9429 9.65847 12.0449 9.78447C12.1679 9.93447 12.2339 10.1235 12.2339 10.3155V11.2275Z" fill="#965032"/>
<path d="M11.9249 10.8945H11.7329C11.6159 10.8945 11.5079 10.8195 11.4659 10.7115L11.4179 10.5795L11.5409 10.5315L11.5889 10.6635C11.6129 10.7235 11.6699 10.7625 11.7329 10.7625H11.9249V10.8945Z" fill="#965032"/>
<path d="M11.7333 10.2853L11.8486 10.3362L12.5724 8.69468L12.4571 8.64384L11.7333 10.2853Z" fill="#965032"/>
<path d="M12.7499 10.1085H12.1259V9.97649H12.6179V9.35249H12.7499V10.1085Z" fill="#965032"/>
<path d="M11.5679 10.7265H11.0519C10.9109 10.7265 10.7939 10.6095 10.7939 10.4685C10.7939 10.3275 10.9109 10.2105 11.0519 10.2105H11.5679C11.7089 10.2105 11.8259 10.3275 11.8259 10.4685C11.8259 10.6155 11.7089 10.7265 11.5679 10.7265Z" fill="#73AF00"/>
<path d="M12.7679 10.7265H12.2519C12.1109 10.7265 11.9939 10.6095 11.9939 10.4685C11.9939 10.3275 12.1109 10.2105 12.2519 10.2105H12.7679C12.9089 10.2105 13.0259 10.3275 13.0259 10.4685C13.0259 10.6155 12.9149 10.7265 12.7679 10.7265Z" fill="#73AF00"/>
<path d="M13.2839 10.2105H12.5999C12.4589 10.2105 12.3419 10.0935 12.3419 9.95249C12.3419 9.81149 12.4589 9.69449 12.5999 9.69449H13.2839C13.4249 9.69449 13.5419 9.81149 13.5419 9.95249C13.5419 10.0995 13.4249 10.2105 13.2839 10.2105Z" fill="#73AF00"/>
<path d="M13.4579 9.52648H12.2579C12.1169 9.52648 11.9999 9.40948 11.9999 9.26848C11.9999 9.12748 12.1169 9.01048 12.2579 9.01048H13.4579C13.5989 9.01048 13.7159 9.12748 13.7159 9.26848C13.7159 9.40948 13.5989 9.52648 13.4579 9.52648Z" fill="#73AF00"/>
<path d="M12.7679 8.84249H12.4259C12.2849 8.84249 12.1679 8.72549 12.1679 8.58449C12.1679 8.44349 12.2849 8.32649 12.4259 8.32649H12.7679C12.9089 8.32649 13.0259 8.44349 13.0259 8.58449C13.0259 8.72549 12.9149 8.84249 12.7679 8.84249Z" fill="#73AF00"/>
<path d="M10.5389 9.18449H10.3649C10.2239 9.18449 10.1069 9.06749 10.1069 8.92649C10.1069 8.78549 10.2239 8.66849 10.3649 8.66849H10.5389C10.6799 8.66849 10.7969 8.78549 10.7969 8.92649C10.7939 9.06749 10.6829 9.18449 10.5389 9.18449Z" fill="#73AF00"/>
<path d="M11.7419 9.01049H11.2259C11.0849 9.01049 10.9679 8.89349 10.9679 8.75249C10.9679 8.61149 11.0849 8.49449 11.2259 8.49449H11.7419C11.8829 8.49449 11.9999 8.61149 11.9999 8.75249C11.9939 8.89949 11.8829 9.01049 11.7419 9.01049Z" fill="#73AF00"/>
<path d="M11.568 9.86851H10.536C10.395 9.86851 10.278 9.75151 10.278 9.61051C10.278 9.46951 10.395 9.35251 10.536 9.35251H11.568C11.709 9.35251 11.826 9.46951 11.826 9.61051C11.826 9.75751 11.709 9.86851 11.568 9.86851Z" fill="#73AF00"/>
<path d="M14.5739 13.4595H9.42293C9.23393 13.4595 9.08093 13.6155 9.08093 13.8015C9.08093 13.9875 9.23693 14.1435 9.42293 14.1435H10.7969C10.7969 14.3325 10.9529 14.4855 11.1389 14.4855H12.8549C13.0439 14.4855 13.1969 14.3295 13.1969 14.1435H14.5709C14.7599 14.1435 14.9129 13.9875 14.9129 13.8015C14.9159 13.6095 14.7599 13.4595 14.5739 13.4595Z" fill="#73AF00"/>
<path d="M15.417 10.4115C15.402 10.3875 15.336 10.4175 15.294 10.4025C14.775 10.2105 14.079 9.8595 13.626 9.6195L13.536 9.4755L12.675 9.0585C12.618 9.0315 12.552 9.0525 12.525 9.1065L12.483 9.1815C12.45 9.2385 12.474 9.3135 12.531 9.3405L13.35 9.7665L13.584 9.7485L14.484 10.2135C14.484 10.2135 15.099 10.5285 15.132 10.5525C15.165 10.5765 15.183 10.7025 15.246 10.6935C15.285 10.6785 15.474 10.5255 15.417 10.4115Z" fill="#BE7855"/>
<path d="M9.73212 13.7115C9.73212 13.7115 9.78912 13.9635 9.73812 13.9935C9.68712 14.0205 9.39912 14.0205 9.40512 13.9605C9.41412 13.9005 9.45312 13.6845 9.45312 13.6845L9.73212 13.7115Z" fill="#FFBE3C"/>
<path d="M10.2061 13.5765C10.2061 13.5765 10.1581 13.7655 10.2541 13.7745C10.3501 13.7835 10.8721 13.7805 10.8871 13.7655C10.9021 13.7505 10.9201 13.7145 10.9201 13.7145L10.4311 13.5795H10.2061V13.5765Z" fill="#FFBE3C"/>
<path d="M9.66899 11.2155C9.66899 11.2155 9.54299 11.5215 9.49499 12.5715C9.47999 12.8535 9.51899 12.7875 9.37799 13.6875L9.54299 13.7715C9.59099 13.7955 9.65099 13.7955 9.69899 13.7655L9.85799 13.6665C9.85799 13.6665 9.77699 12.6585 10.035 12.0765C10.035 12.0765 10.17 12.3255 10.17 12.5115C10.17 12.6975 10.161 13.5885 10.161 13.5885C10.161 13.5885 10.461 13.6395 10.596 13.6275C10.596 13.6275 10.512 11.6865 10.422 11.2335L9.66899 11.2155Z" fill="#EAF3F5"/>
<path d="M9.699 11.0865C9.699 11.0865 9.648 11.1255 9.675 11.2125C9.675 11.2125 10.068 11.3805 10.434 11.2365C10.434 11.2365 10.476 11.1765 10.425 11.1045L9.699 11.0865Z" fill="#965032"/>
<path d="M9.17401 10.1595C8.94901 10.2435 8.61001 10.4505 8.63401 10.6155C8.65801 10.7805 8.76901 10.7415 8.80801 10.6995C8.84701 10.6575 8.949 10.5315 8.982 10.5075C9.015 10.4835 9.54001 10.2135 9.54001 10.2135L10.938 9.4965C10.938 9.4965 10.947 9.4275 10.869 9.3705C10.86 9.3675 10.008 9.8445 9.17401 10.1595Z" fill="#965032"/>
<path d="M9.831 9.34951L9.822 9.40951C9.822 9.40951 9.798 9.79051 9.924 9.88651C9.924 9.88651 9.951 9.96751 9.909 10.0035C9.867 10.0425 9.441 10.2555 9.441 10.2555C9.441 10.2555 9.333 10.4865 9.333 10.6125C9.333 10.6125 9.231 10.5705 9.24 10.5225C9.249 10.4715 9.309 10.3395 9.291 10.2735C9.273 10.2075 9.201 10.2255 9.201 10.2255C9.201 10.2255 9.168 10.2645 9.225 10.2855L9.207 10.3665L8.976 10.5015L9.027 10.5615C9.027 10.5615 9.033 11.0355 9.309 11.0955C9.309 11.0955 9.453 11.1045 9.633 10.7715C9.633 10.7715 9.726 10.9365 9.693 11.0805C9.693 11.0805 9.999 11.2455 10.416 11.1045L10.422 10.8135C10.422 10.8135 10.488 11.2575 10.707 11.2155C10.707 11.2155 11.316 10.9815 11.214 10.8915C10.98 10.6845 10.695 10.8585 10.695 10.8585C10.68 10.5585 10.656 10.1685 10.614 10.1265C10.548 10.0575 10.35 10.0935 10.314 10.0035C10.275 9.91351 10.287 9.75451 10.329 9.57151C10.371 9.38851 10.155 9.26251 10.155 9.26251L9.831 9.34951Z" fill="#FFBE3C"/>
<path d="M9.825 9.4095C9.825 9.4095 10.044 9.4665 10.215 9.3945L10.29 9.5835H10.332C10.332 9.5835 10.434 9.2415 10.299 9.2415C10.299 9.2415 10.299 9.1275 10.059 9.1335C9.852 9.1365 9.777 9.2745 9.825 9.4095Z" fill="#464655"/>
<path d="M14.292 13.7115C14.292 13.7115 14.235 13.9635 14.286 13.9935C14.337 14.0205 14.625 14.0205 14.619 13.9605C14.61 13.9005 14.571 13.6845 14.571 13.6845L14.292 13.7115Z" fill="#965032"/>
<path d="M13.818 13.5765C13.818 13.5765 13.866 13.7655 13.77 13.7745C13.674 13.7835 13.152 13.7805 13.137 13.7655C13.122 13.7505 13.104 13.7145 13.104 13.7145L13.59 13.5795H13.818V13.5765Z" fill="#965032"/>
<path d="M14.349 11.2155C14.349 11.2155 14.475 11.5215 14.523 12.5715C14.538 12.8535 14.499 12.7875 14.64 13.6875L14.475 13.7715C14.427 13.7955 14.367 13.7955 14.319 13.7655L14.16 13.6665C14.16 13.6665 14.241 12.6585 13.983 12.0765C13.983 12.0765 13.848 12.3255 13.848 12.5115C13.848 12.6975 13.857 13.5885 13.857 13.5885C13.857 13.5885 13.557 13.6395 13.422 13.6275C13.422 13.6275 13.506 11.6865 13.596 11.2335L14.349 11.2155Z" fill="#EAF3F5"/>
<path d="M14.325 11.0865C14.325 11.0865 14.376 11.1255 14.349 11.2125C14.349 11.2125 13.956 11.3805 13.59 11.2365C13.59 11.2365 13.548 11.1765 13.599 11.1045L14.325 11.0865Z" fill="#BE7855"/>
<path d="M14.193 9.34951L14.202 9.40951C14.202 9.40951 14.226 9.79051 14.1 9.88651C14.1 9.88651 14.073 9.96751 14.115 10.0035C14.157 10.0425 14.583 10.2555 14.583 10.2555C14.583 10.2555 14.691 10.4865 14.691 10.6125C14.691 10.6125 14.793 10.5705 14.784 10.5225C14.775 10.4715 14.715 10.3395 14.733 10.2735C14.751 10.2075 14.823 10.2255 14.823 10.2255C14.823 10.2255 14.856 10.2645 14.799 10.2855L14.817 10.3665L15.048 10.5015L14.997 10.5615C14.997 10.5615 14.991 11.0355 14.715 11.0955C14.715 11.0955 14.571 11.1045 14.391 10.7715C14.391 10.7715 14.298 10.9365 14.331 11.0805C14.331 11.0805 14.025 11.2455 13.608 11.1045L13.602 10.8135C13.602 10.8135 13.536 11.2575 13.317 11.2155C13.317 11.2155 12.708 10.9815 12.81 10.8915C13.044 10.6845 13.329 10.8585 13.329 10.8585C13.344 10.5585 13.368 10.1685 13.41 10.1265C13.476 10.0575 13.674 10.0935 13.71 10.0035C13.749 9.91351 13.737 9.75451 13.695 9.57151C13.653 9.38851 13.869 9.26251 13.869 9.26251L14.193 9.34951Z" fill="#965032"/>
<path d="M14.199 9.4095C14.199 9.4095 13.98 9.4665 13.809 9.3945L13.734 9.5835H13.692C13.692 9.5835 13.59 9.2415 13.725 9.2415C13.725 9.2415 13.725 9.1275 13.965 9.1335C14.169 9.1365 14.244 9.2745 14.199 9.4095Z" fill="#464655"/>
<path d="M10.524 9.55051C10.506 9.50851 10.539 9.49351 10.539 9.49351C10.539 9.49351 10.755 9.37651 10.782 9.37651C10.824 9.38251 10.875 9.45151 10.875 9.51751C10.875 9.57751 10.956 9.74251 11.124 9.78451C11.124 9.78451 10.914 10.0695 10.623 10.0275C10.617 10.0275 10.635 9.83551 10.524 9.55051Z" fill="#EAF3F5"/>
<path d="M10.827 10.8825C10.761 10.8825 10.71 10.9395 10.71 11.0055V12.4245C10.71 12.7665 10.869 13.9725 12 14.3145C13.125 13.9725 13.29 12.7665 13.29 12.4245V11.0055C13.29 10.9365 13.239 10.8825 13.173 10.8825H10.827Z" fill="#82AFFF"/>
<path d="M13.284 12.4275V11.0085C13.284 10.9395 13.233 10.8855 13.167 10.8855H11.994V12.0855L13.125 13.2165C13.251 12.8835 13.284 12.5775 13.284 12.4275Z" fill="#FFE15A"/>
<path d="M10.71 12.4275V11.0085C10.71 10.9395 10.761 10.8855 10.827 10.8855H12V12.0855L10.869 13.2165C10.74 12.8835 10.71 12.5775 10.71 12.4275Z" fill="#EAF3F5"/>
<path d="M11.235 13.1775L11.535 13.4925H12.366L12.54 13.2675L12.339 13.3515H11.667L11.235 13.1775Z" fill="#8C5A28"/>
<path d="M11.559 12.7695L11.511 13.2285L11.304 13.1475C11.307 13.1505 11.4 12.9285 11.559 12.7695Z" fill="#F5F5F5"/>
<path d="M12.0001 12.5924H11.9671V13.3754H12.0001V12.5924Z" fill="#8C5A28"/>
<path d="M12.2818 12.6585H12.2488V13.3725H12.2818V12.6585Z" fill="#8C5A28"/>
<path d="M11.7179 12.6585H11.6849V13.3725H11.7179V12.6585Z" fill="#8C5A28"/>
<path d="M12.0841 13.2944H11.8771C11.8621 13.2944 11.8531 13.2854 11.8531 13.2704V13.1594C11.8531 13.1444 11.8621 13.1354 11.8771 13.1354H12.0841C12.0991 13.1354 12.1081 13.1444 12.1081 13.1594V13.2704C12.1141 13.2854 12.0991 13.2944 12.0841 13.2944Z" fill="#F5F5F5"/>
<path d="M12.0841 13.0784H11.8771C11.8621 13.0784 11.8531 13.0694 11.8531 13.0544V12.9374C11.8531 12.9224 11.8621 12.9134 11.8771 12.9134H12.0841C12.0991 12.9134 12.1081 12.9224 12.1081 12.9374V13.0514C12.1141 13.0664 12.0991 13.0784 12.0841 13.0784Z" fill="#F5F5F5"/>
<path d="M12.0841 12.8744H11.8771C11.8621 12.8744 11.8531 12.8654 11.8531 12.8504V12.7394C11.8531 12.7244 11.8621 12.7154 11.8771 12.7154H12.0841C12.0991 12.7154 12.1081 12.7244 12.1081 12.7394V12.8504C12.1141 12.8654 12.0991 12.8744 12.0841 12.8744Z" fill="#F5F5F5"/>
<path d="M12.3511 13.2944H12.1771C12.1621 13.2944 12.1531 13.2854 12.1531 13.2704V13.1594C12.1531 13.1444 12.1621 13.1354 12.1771 13.1354H12.3511C12.3661 13.1354 12.3751 13.1444 12.3751 13.1594V13.2704C12.3751 13.2854 12.3661 13.2944 12.3511 13.2944Z" fill="#F5F5F5"/>
<path d="M12.3511 13.0934H12.1771C12.1621 13.0934 12.1531 13.0844 12.1531 13.0694V12.9794C12.1531 12.9644 12.1621 12.9554 12.1771 12.9554H12.3511C12.3661 12.9554 12.3751 12.9644 12.3751 12.9794V13.0694C12.3751 13.0844 12.3661 13.0934 12.3511 13.0934Z" fill="#F5F5F5"/>
<path d="M12.3511 12.8954H12.1771C12.1621 12.8954 12.1531 12.8864 12.1531 12.8714V12.8054C12.1531 12.7904 12.1621 12.7814 12.1771 12.7814H12.3511C12.3661 12.7814 12.3751 12.7904 12.3751 12.8054V12.8714C12.3751 12.8834 12.3661 12.8954 12.3511 12.8954Z" fill="#F5F5F5"/>
<path d="M11.7841 13.2944H11.6101C11.5951 13.2944 11.5861 13.2854 11.5861 13.2704V13.1594C11.5861 13.1444 11.5951 13.1354 11.6101 13.1354H11.7841C11.7991 13.1354 11.8081 13.1444 11.8081 13.1594V13.2704C11.8141 13.2854 11.7991 13.2944 11.7841 13.2944Z" fill="#F5F5F5"/>
<path d="M11.7841 13.0934H11.6101C11.5951 13.0934 11.5861 13.0844 11.5861 13.0694V12.9794C11.5861 12.9644 11.5951 12.9554 11.6101 12.9554H11.7841C11.7991 12.9554 11.8081 12.9644 11.8081 12.9794V13.0694C11.8141 13.0844 11.7991 13.0934 11.7841 13.0934Z" fill="#F5F5F5"/>
<path d="M11.7841 12.8954H11.6101C11.5951 12.8954 11.5861 12.8864 11.5861 12.8714V12.8054C11.5861 12.7904 11.5951 12.7814 11.6101 12.7814H11.7841C11.7991 12.7814 11.8081 12.7904 11.8081 12.8054V12.8714C11.8141 12.8834 11.7991 12.8954 11.7841 12.8954Z" fill="#F5F5F5"/>
<path d="M12.2489 12.6584V12.7514L12.1139 12.7034L12.2489 12.6584Z" fill="#FF4B55"/>
<path d="M11.6849 12.6584V12.7514L11.5499 12.7034L11.6849 12.6584Z" fill="#FF4B55"/>
<path d="M11.9669 12.5924V12.6824L11.8319 12.6344L11.9669 12.5924Z" fill="#FF4B55"/>
<path d="M13.017 13.4595H10.974C11.001 13.5165 11.04 13.5765 11.076 13.6335H12.918C12.957 13.5705 12.99 13.5165 13.017 13.4595Z" fill="#4173CD"/>
<path d="M12.918 13.6275H11.076C11.157 13.7505 11.259 13.8675 11.376 13.9695H12.615C12.735 13.8675 12.834 13.7505 12.918 13.6275Z" fill="#73AF00"/>
<path d="M11.376 13.9695C11.541 14.1135 11.742 14.2365 11.994 14.3115C12.246 14.2365 12.45 14.1135 12.612 13.9695H11.376Z" fill="#FFE15A"/>
<path d="M11.775 12.1845C11.775 12.1845 11.76 12.1905 11.748 12.1905C11.739 12.1845 11.715 12.1845 11.73 12.1425C11.736 12.1245 11.748 12.0945 11.739 12.0855C11.73 12.0765 11.724 12.0675 11.715 12.0585C11.697 12.0405 11.676 12.0165 11.655 11.9895C11.607 11.9385 11.556 11.8815 11.496 11.8245C11.463 11.7975 11.436 11.7675 11.403 11.7345C11.37 11.7075 11.337 11.6745 11.301 11.6445C11.283 11.6355 11.253 11.6265 11.232 11.6205C11.208 11.6115 11.193 11.5935 11.181 11.5785C11.148 11.5515 11.115 11.5185 11.088 11.4885C11.028 11.4315 10.971 11.3775 10.923 11.3295C10.875 11.2815 10.839 11.2455 10.815 11.2155C10.791 11.1885 10.791 11.1465 10.821 11.1225L10.896 11.0475C10.923 11.0235 10.965 11.0235 10.989 11.0475C11.016 11.0745 11.055 11.1135 11.103 11.1585C11.151 11.2035 11.202 11.2665 11.259 11.3265C11.286 11.3595 11.316 11.3925 11.343 11.4255C11.358 11.4435 11.376 11.4585 11.382 11.4825C11.391 11.5065 11.397 11.5335 11.406 11.5515C11.43 11.5905 11.463 11.6205 11.49 11.6535C11.517 11.6865 11.547 11.7195 11.574 11.7525C11.631 11.8185 11.682 11.8755 11.733 11.9205C11.757 11.9445 11.781 11.9625 11.799 11.9805C11.808 11.9895 11.817 11.9985 11.826 12.0075C11.832 12.0165 11.859 12.0015 11.883 11.9985C11.925 11.9895 11.925 12.0075 11.925 12.0165C11.925 12.0315 11.919 12.0435 11.919 12.0435L11.775 12.1845Z" fill="#BE7855"/>
<path d="M10.935 12.3195C10.92 12.3195 10.908 12.3135 10.896 12.3045C10.869 12.2805 10.863 12.2445 10.881 12.2145L11.49 11.3835C11.508 11.3565 11.55 11.3505 11.58 11.3685C11.607 11.3925 11.613 11.4285 11.595 11.4585L10.986 12.2895C10.974 12.3105 10.956 12.3195 10.935 12.3195Z" fill="#965032"/>
<path d="M11.424 11.3325L11.742 11.5425L11.877 11.3535L11.583 11.1165L11.424 11.3325Z" fill="#F5F5F5"/>
<path d="M12.273 11.2515L13.089 12.2595C13.089 12.2595 13.203 12.2655 13.188 12.1755L12.345 11.1855L12.273 11.2515Z" fill="#965032"/>
<path d="M12.09 11.3925C12.09 11.3925 12.321 11.3505 12.414 11.2095L12.546 11.3655C12.546 11.3655 12.33 11.5155 12.312 11.6805C12.309 11.6745 12.135 11.6265 12.09 11.3925Z" fill="#EAF3F5"/>
<path d="M12.9691 11.2903C12.9541 11.2903 12.9421 11.2813 12.9301 11.2663C12.9061 11.2243 12.9031 11.1823 12.9151 11.1493C12.9391 11.1013 12.9841 11.0893 12.9961 11.0833C13.0201 11.0773 13.0441 11.0923 13.0471 11.1103C13.0531 11.1343 13.0381 11.1583 13.0201 11.1613C13.0141 11.1613 13.0021 11.1703 12.9961 11.1793C12.9901 11.1883 12.9961 11.2063 13.0051 11.2273C13.0141 11.2453 13.0111 11.2753 12.9871 11.2843C12.9841 11.2903 12.9751 11.2903 12.9691 11.2903Z" fill="#965032"/>
<path d="M12.3001 11.9113C12.3001 11.8963 12.2911 11.8843 12.2761 11.8723C12.2341 11.8483 12.1921 11.8453 12.1591 11.8573C12.1111 11.8813 12.0991 11.9263 12.0931 11.9383C12.0871 11.9623 12.1021 11.9863 12.1201 11.9893C12.1441 11.9953 12.1681 11.9803 12.1711 11.9623C12.1711 11.9563 12.1801 11.9443 12.1891 11.9383C12.1981 11.9323 12.2161 11.9383 12.2371 11.9473C12.2551 11.9563 12.2851 11.9533 12.2941 11.9293C12.3001 11.9263 12.3001 11.9173 12.3001 11.9113Z" fill="#965032"/>
<path d="M12.999 11.1945L12.231 11.9505L12.408 12.1515L13.161 11.3955L12.999 11.1945Z" fill="#EAF3F5"/>
<path d="M9.099 10.1115C9.15 10.0965 9.198 10.1685 9.15 10.2195C9.102 10.2705 8.967 10.3605 8.931 10.3515C8.856 10.3365 8.802 10.1775 9.099 10.1115Z" fill="#FFBE3C"/>
<path d="M14.919 10.1835C14.871 10.1685 14.829 10.2405 14.871 10.2915C14.913 10.3425 15.039 10.4325 15.078 10.4235C15.15 10.4085 15.192 10.2525 14.919 10.1835Z" fill="#965032"/>
<path d="M13.167 10.8825C13.233 10.8825 13.284 10.9395 13.284 11.0055V12.4245C13.284 12.7665 13.125 13.9725 11.994 14.3145C10.869 13.9725 10.704 12.7665 10.704 12.4245V11.0055C10.704 10.9365 10.755 10.8825 10.821 10.8825H13.167ZM13.167 10.7955H10.827C10.713 10.7955 10.626 10.8885 10.626 11.0055V12.4245C10.626 12.5055 10.635 12.9405 10.857 13.4055C11.091 13.9035 11.475 14.2455 11.976 14.3955L12 14.4045L12.024 14.3955C12.525 14.2455 12.909 13.9035 13.143 13.4055C13.362 12.9405 13.374 12.5055 13.374 12.4245V11.0055C13.368 10.8915 13.281 10.7955 13.167 10.7955Z" fill="#464655"/>
<path d="M14.058 14.3355C13.692 14.2125 13.302 14.2695 12.933 14.5125C12.459 14.8275 12.15 14.8275 12 14.8275C11.85 14.8275 11.535 14.8275 11.067 14.5125C10.698 14.2695 10.308 14.2065 9.942 14.3355V14.7015C10.173 14.5935 10.494 14.5455 10.875 14.8005C11.433 15.1695 11.832 15.1695 12 15.1695C12.168 15.1695 12.567 15.1695 13.125 14.8005C13.506 14.5485 13.827 14.5935 14.058 14.7015V14.3355Z" fill="#EAF3F5"/>
<path d="M11.994 16.2915C9.579 16.2915 7.617 14.3265 7.617 11.9145C7.617 9.50249 9.582 7.53749 11.994 7.53749C14.406 7.53749 16.374 9.49949 16.374 11.9115C16.374 14.3235 14.409 16.2915 11.994 16.2915ZM11.994 7.70849C9.675 7.70849 7.788 9.59249 7.788 11.9145C7.788 14.2365 9.672 16.1205 11.994 16.1205C14.316 16.1205 16.2 14.2335 16.2 11.9115C16.2 9.58949 14.316 7.70849 11.994 7.70849Z" fill="#965032"/>
<path d="M7.20894 12.2775C7.20894 12.2775 7.19094 11.7435 7.70694 11.7435C7.70694 11.7435 7.71594 11.9535 7.53294 12.0495C7.38294 12.1185 7.20894 12.2775 7.20894 12.2775Z" fill="#73AF00"/>
<path d="M8.20193 12.2775C8.20193 12.2775 8.21993 11.7435 7.70393 11.7435C7.70393 11.7435 7.69493 11.9535 7.87793 12.0495C8.03393 12.1185 8.20193 12.2775 8.20193 12.2775Z" fill="#73AF00"/>
<path d="M16.7819 11.7405C16.7819 11.7405 16.7999 12.2745 16.2839 12.2745C16.2839 12.2745 16.2749 12.0645 16.4579 11.9685C16.6079 11.8995 16.7819 11.7405 16.7819 11.7405Z" fill="#73AF00"/>
<path d="M15.7889 11.7405C15.7889 11.7405 15.7709 12.2745 16.2869 12.2745C16.2869 12.2745 16.2959 12.0645 16.1129 11.9685C15.9569 11.8995 15.7889 11.7405 15.7889 11.7405Z" fill="#73AF00"/>
<path d="M12.2639 16.7955C12.2639 16.7955 11.7299 16.8135 11.7299 16.2975C11.7299 16.2975 11.9399 16.2885 12.0359 16.4715C12.1079 16.6245 12.2639 16.7955 12.2639 16.7955Z" fill="#73AF00"/>
<path d="M12.2639 15.7995C12.2639 15.7995 11.7299 15.7815 11.7299 16.2975C11.7299 16.2975 11.9399 16.3065 12.0359 16.1235C12.1079 15.9705 12.2639 15.7995 12.2639 15.7995Z" fill="#73AF00"/>
<path d="M11.7269 7.22553C11.7269 7.22553 12.2609 7.20753 12.2609 7.72353C12.2609 7.72353 12.0509 7.73253 11.9549 7.54953C11.8829 7.39353 11.7269 7.22553 11.7269 7.22553Z" fill="#73AF00"/>
<path d="M11.7269 8.21853C11.7269 8.21853 12.2609 8.23653 12.2609 7.72053C12.2609 7.72053 12.0509 7.71153 11.9549 7.89453C11.8829 8.04453 11.7269 8.21853 11.7269 8.21853Z" fill="#73AF00"/>
<path d="M8.80194 15.5835C8.80194 15.5835 8.40894 15.2175 8.77494 14.8515C8.77494 14.8515 8.93094 14.9925 8.86494 15.1905C8.81394 15.3495 8.80194 15.5835 8.80194 15.5835Z" fill="#73AF00"/>
<path d="M9.50693 14.8785C9.50693 14.8785 9.14093 14.4855 8.77493 14.8515C8.77493 14.8515 8.91593 15.0075 9.11393 14.9415C9.27293 14.8905 9.50693 14.8785 9.50693 14.8785Z" fill="#73AF00"/>
<path d="M15.1919 8.43451C15.1919 8.43451 15.5849 8.80051 15.2189 9.16651C15.2189 9.16651 15.0629 9.02551 15.1289 8.82751C15.1769 8.66851 15.1919 8.43451 15.1919 8.43451Z" fill="#73AF00"/>
<path d="M14.4899 9.13652C14.4899 9.13652 14.8559 9.52952 15.2219 9.16352C15.2219 9.16352 15.0809 9.00752 14.8829 9.07352C14.7179 9.12752 14.4899 9.13652 14.4899 9.13652Z" fill="#73AF00"/>
<path d="M15.5669 15.2025C15.5669 15.2025 15.2009 15.5955 14.8349 15.2295C14.8349 15.2295 14.9759 15.0735 15.1739 15.1395C15.3389 15.1935 15.5669 15.2025 15.5669 15.2025Z" fill="#73AF00"/>
<path d="M14.8649 14.5005C14.8649 14.5005 14.4719 14.8665 14.8379 15.2325C14.8379 15.2325 14.9939 15.0915 14.9279 14.8935C14.8769 14.7345 14.8649 14.5005 14.8649 14.5005Z" fill="#73AF00"/>
<path d="M8.42393 8.81552C8.42393 8.81552 8.78993 8.42252 9.15593 8.78852C9.15593 8.78852 9.01493 8.94452 8.81693 8.87852C8.65193 8.82452 8.42393 8.81552 8.42393 8.81552Z" fill="#73AF00"/>
<path d="M9.12594 9.51752C9.12594 9.51752 9.51894 9.15152 9.15294 8.78552C9.15294 8.78552 8.99694 8.92652 9.06294 9.12452C9.11694 9.28652 9.12594 9.51752 9.12594 9.51752Z" fill="#73AF00"/>
<path d="M7.67693 14.0865C7.67693 14.0865 7.45793 13.5975 7.92893 13.4025C7.92893 13.4025 8.01893 13.5945 7.88093 13.7505C7.77593 13.8765 7.67693 14.0865 7.67693 14.0865Z" fill="#73AF00"/>
<path d="M8.59793 13.7085C8.59793 13.7085 8.40893 13.2075 7.93193 13.4025C7.93193 13.4025 8.00093 13.6005 8.20793 13.6185C8.37593 13.6275 8.59793 13.7085 8.59793 13.7085Z" fill="#73AF00"/>
<path d="M16.3139 9.92853C16.3139 9.92853 16.5329 10.4175 16.0619 10.6125C16.0619 10.6125 15.9719 10.4205 16.1099 10.2645C16.2149 10.1415 16.3139 9.92853 16.3139 9.92853Z" fill="#73AF00"/>
<path d="M15.3929 10.3095C15.3929 10.3095 15.5819 10.8105 16.0589 10.6155C16.0589 10.6155 15.9899 10.4175 15.7829 10.3995C15.6149 10.3905 15.3929 10.3095 15.3929 10.3095Z" fill="#73AF00"/>
<path d="M14.0759 16.3275C14.0759 16.3275 13.5899 16.5465 13.3919 16.0755C13.3919 16.0755 13.5839 15.9855 13.7399 16.1235C13.8659 16.2285 14.0759 16.3275 14.0759 16.3275Z" fill="#73AF00"/>
<path d="M13.6919 15.4095C13.6919 15.4095 13.1909 15.5985 13.3859 16.0755C13.3859 16.0755 13.5839 16.0065 13.6019 15.7995C13.6139 15.6285 13.6919 15.4095 13.6919 15.4095Z" fill="#73AF00"/>
<path d="M9.91794 7.69053C9.91794 7.69053 10.4069 7.47153 10.6019 7.94253C10.6019 7.94253 10.4099 8.03253 10.2539 7.89453C10.1309 7.78653 9.91794 7.69053 9.91794 7.69053Z" fill="#73AF00"/>
<path d="M10.2989 8.60854C10.2989 8.60854 10.7999 8.41954 10.6049 7.94254C10.6049 7.94254 10.4069 8.01154 10.3889 8.21854C10.3769 8.39254 10.2989 8.60854 10.2989 8.60854Z" fill="#73AF00"/>
<path d="M10.4099 16.5345C10.4099 16.5345 9.90893 16.3455 10.1039 15.8685C10.1039 15.8685 10.3019 15.9375 10.3199 16.1445C10.3319 16.3155 10.4099 16.5345 10.4099 16.5345Z" fill="#73AF00"/>
<path d="M10.7909 15.6165C10.7909 15.6165 10.3019 15.3975 10.1069 15.8685C10.1069 15.8685 10.2989 15.9585 10.4549 15.8205C10.5809 15.7155 10.7909 15.6165 10.7909 15.6165Z" fill="#73AF00"/>
<path d="M13.5809 7.48654C13.5809 7.48654 14.0819 7.67554 13.8869 8.15254C13.8869 8.15254 13.6889 8.08354 13.6709 7.87654C13.6589 7.70254 13.5809 7.48654 13.5809 7.48654Z" fill="#73AF00"/>
<path d="M13.1999 8.40153C13.1999 8.40153 13.6889 8.62053 13.8839 8.14953C13.8839 8.14953 13.6919 8.05953 13.5359 8.19753C13.4099 8.30853 13.1999 8.40153 13.1999 8.40153Z" fill="#73AF00"/>
<path d="M16.5179 13.5915C16.5179 13.5915 16.3289 14.0925 15.8519 13.8975C15.8519 13.8975 15.9209 13.6995 16.1279 13.6815C16.3019 13.6695 16.5179 13.5915 16.5179 13.5915Z" fill="#73AF00"/>
<path d="M15.5999 13.2105C15.5999 13.2105 15.3809 13.6995 15.8519 13.8945C15.8519 13.8945 15.9419 13.7025 15.8039 13.5465C15.6989 13.4205 15.5999 13.2105 15.5999 13.2105Z" fill="#73AF00"/>
<path d="M7.47293 10.4265C7.47293 10.4265 7.66193 9.92553 8.13893 10.1205C8.13893 10.1205 8.06993 10.3185 7.86293 10.3365C7.69193 10.3455 7.47293 10.4265 7.47293 10.4265Z" fill="#73AF00"/>
<path d="M8.39094 10.8075C8.39094 10.8075 8.60994 10.3185 8.13894 10.1235C8.13894 10.1235 8.04894 10.3155 8.18694 10.4715C8.29194 10.5945 8.39094 10.8075 8.39094 10.8075Z" fill="#73AF00"/>
<path d="M7.35593 13.2075C7.35593 13.2075 7.23293 12.6885 7.73993 12.5835C7.73993 12.5835 7.79093 12.7905 7.62593 12.9165C7.49093 13.0185 7.35593 13.2075 7.35593 13.2075Z" fill="#73AF00"/>
<path d="M8.33093 13.0155C8.33093 13.0155 8.24093 12.4845 7.73993 12.5835C7.73993 12.5835 7.77293 12.7935 7.97093 12.8475C8.13293 12.8925 8.33093 13.0155 8.33093 13.0155Z" fill="#73AF00"/>
<path d="M16.6349 10.8105C16.6349 10.8105 16.7579 11.3295 16.2509 11.4345C16.2509 11.4345 16.1999 11.2275 16.3619 11.1015C16.4999 10.9995 16.6349 10.8105 16.6349 10.8105Z" fill="#73AF00"/>
<path d="M15.6599 11.0085C15.6599 11.0085 15.7499 11.5395 16.2509 11.4405C16.2509 11.4405 16.2179 11.2305 16.0199 11.1765C15.8639 11.1285 15.6599 11.0085 15.6599 11.0085Z" fill="#73AF00"/>
<path d="M13.1909 16.6515C13.1909 16.6515 12.6719 16.7745 12.5669 16.2675C12.5669 16.2675 12.7739 16.2165 12.8999 16.3815C13.0019 16.5105 13.1909 16.6515 13.1909 16.6515Z" fill="#73AF00"/>
<path d="M12.9989 15.6765C12.9989 15.6765 12.4679 15.7665 12.5669 16.2675C12.5669 16.2675 12.7769 16.2345 12.8309 16.0365C12.8759 15.8745 12.9989 15.6765 12.9989 15.6765Z" fill="#73AF00"/>
<path d="M10.7999 7.36951C10.7999 7.36951 11.3189 7.24651 11.4239 7.75351C11.4239 7.75351 11.2169 7.80451 11.0909 7.63951C10.9889 7.50751 10.7999 7.36951 10.7999 7.36951Z" fill="#73AF00"/>
<path d="M10.9919 8.34452C10.9919 8.34452 11.5229 8.25452 11.4239 7.75352C11.4239 7.75352 11.2139 7.78652 11.1599 7.98452C11.1149 8.14352 10.9919 8.34452 10.9919 8.34452Z" fill="#73AF00"/>
<path d="M9.55793 16.1355C9.55793 16.1355 9.10193 15.8535 9.38993 15.4215C9.38993 15.4215 9.57293 15.5295 9.54593 15.7365C9.52493 15.9075 9.55793 16.1355 9.55793 16.1355Z" fill="#73AF00"/>
<path d="M10.1099 15.3105C10.1099 15.3105 9.67493 14.9955 9.38693 15.4275C9.38693 15.4275 9.55493 15.5535 9.73793 15.4515C9.88493 15.3675 10.1099 15.3105 10.1099 15.3105Z" fill="#73AF00"/>
<path d="M14.4329 7.88252C14.4329 7.88252 14.8889 8.16452 14.6009 8.59652C14.6009 8.59652 14.4179 8.48852 14.4449 8.28152C14.4659 8.11052 14.4329 7.88252 14.4329 7.88252Z" fill="#73AF00"/>
<path d="M13.8809 8.70752C13.8809 8.70752 14.3159 9.02252 14.6039 8.59052C14.6039 8.59052 14.4359 8.46452 14.2529 8.56652C14.1059 8.65352 13.8809 8.70752 13.8809 8.70752Z" fill="#73AF00"/>
<path d="M16.1249 14.4435C16.1249 14.4435 15.8429 14.8995 15.4109 14.6115C15.4109 14.6115 15.5189 14.4285 15.7259 14.4555C15.8939 14.4825 16.1249 14.4435 16.1249 14.4435Z" fill="#73AF00"/>
<path d="M15.2939 13.8915C15.2939 13.8915 14.9789 14.3265 15.4109 14.6145C15.4109 14.6145 15.5369 14.4465 15.4349 14.2635C15.3509 14.1195 15.2939 13.8915 15.2939 13.8915Z" fill="#73AF00"/>
<path d="M7.86594 9.57451C7.86594 9.57451 8.14794 9.11851 8.57994 9.40651C8.57994 9.40651 8.47194 9.58951 8.26494 9.56251C8.09394 9.53551 7.86594 9.57451 7.86594 9.57451Z" fill="#73AF00"/>
<path d="M8.69394 10.1265C8.69394 10.1265 9.00894 9.69153 8.57694 9.40353C8.57694 9.40353 8.45094 9.57153 8.55294 9.75453C8.63994 9.90153 8.69394 10.1265 8.69394 10.1265Z" fill="#73AF00"/>
<path d="M8.16594 14.8905C8.16594 14.8905 7.85094 14.4555 8.28294 14.1675C8.28294 14.1675 8.40894 14.3355 8.30694 14.5185C8.22294 14.6625 8.16594 14.8905 8.16594 14.8905Z" fill="#73AF00"/>
<path d="M8.99093 14.3415C8.99093 14.3415 8.70893 13.8855 8.27693 14.1735C8.27693 14.1735 8.38493 14.3565 8.59193 14.3295C8.75993 14.3025 8.99093 14.3415 8.99093 14.3415Z" fill="#73AF00"/>
<path d="M15.8249 9.12753C15.8249 9.12753 16.1399 9.56253 15.7079 9.85053C15.7079 9.85053 15.5819 9.68253 15.6839 9.49953C15.7679 9.35253 15.8249 9.12753 15.8249 9.12753Z" fill="#73AF00"/>
<path d="M14.9999 9.68253C14.9999 9.68253 15.2819 10.1385 15.7139 9.85053C15.7139 9.85053 15.6059 9.66753 15.3989 9.69453C15.2309 9.71553 14.9999 9.68253 14.9999 9.68253Z" fill="#73AF00"/>
<path d="M14.8769 15.8415C14.8769 15.8415 14.4419 16.1565 14.1539 15.7245C14.1539 15.7245 14.3219 15.5985 14.5049 15.7005C14.6519 15.7845 14.8769 15.8415 14.8769 15.8415Z" fill="#73AF00"/>
<path d="M14.3249 15.0105C14.3249 15.0105 13.8689 15.2925 14.1569 15.7245C14.1569 15.7245 14.3399 15.6165 14.3129 15.4095C14.2859 15.2415 14.3249 15.0105 14.3249 15.0105Z" fill="#73AF00"/>
<path d="M9.11394 8.18252C9.11394 8.18252 9.54894 7.86752 9.83694 8.29952C9.83694 8.29952 9.66894 8.42552 9.48594 8.32352C9.34194 8.23352 9.11394 8.18252 9.11394 8.18252Z" fill="#73AF00"/>
<path d="M9.66594 9.00752C9.66594 9.00752 10.1219 8.72552 9.83394 8.29352C9.83394 8.29352 9.65094 8.40152 9.67794 8.60852C9.70194 8.77652 9.66594 9.00752 9.66594 9.00752Z" fill="#73AF00"/>
<path d="M11.3249 16.7535C11.3249 16.7535 10.7939 16.6635 10.8929 16.1625C10.8929 16.1625 11.1029 16.1955 11.1569 16.3935C11.2019 16.5585 11.3249 16.7535 11.3249 16.7535Z" fill="#73AF00"/>
<path d="M11.5169 15.7785C11.5169 15.7785 10.9979 15.6555 10.8929 16.1625C10.8929 16.1625 11.0999 16.2135 11.2259 16.0515C11.3309 15.9165 11.5169 15.7785 11.5169 15.7785Z" fill="#73AF00"/>
<path d="M12.6659 7.26152C12.6659 7.26152 13.1969 7.35152 13.0979 7.85252C13.0979 7.85252 12.8879 7.81952 12.8339 7.62152C12.7859 7.46552 12.6659 7.26152 12.6659 7.26152Z" fill="#73AF00"/>
<path d="M12.4739 8.23652C12.4739 8.23652 12.9929 8.35952 13.0979 7.85252C13.0979 7.85252 12.8909 7.80152 12.7649 7.96652C12.6599 8.10152 12.4739 8.23652 12.4739 8.23652Z" fill="#73AF00"/>
<path d="M16.7429 12.6825C16.7429 12.6825 16.6529 13.2135 16.1519 13.1145C16.1519 13.1145 16.1849 12.9045 16.3829 12.8505C16.5419 12.7995 16.7429 12.6825 16.7429 12.6825Z" fill="#73AF00"/>
<path d="M15.7679 12.4845C15.7679 12.4845 15.6449 13.0035 16.1519 13.1085C16.1519 13.1085 16.2029 12.9015 16.0379 12.7755C15.9059 12.6705 15.7679 12.4845 15.7679 12.4845Z" fill="#73AF00"/>
<path d="M7.25095 11.3415C7.25095 11.3415 7.34095 10.8105 7.84195 10.9095C7.84195 10.9095 7.80895 11.1195 7.61095 11.1735C7.44895 11.2185 7.25095 11.3415 7.25095 11.3415Z" fill="#73AF00"/>
<path d="M8.22595 11.5335C8.22595 11.5335 8.34895 11.0145 7.84195 10.9095C7.84195 10.9095 7.79095 11.1165 7.95595 11.2425C8.08495 11.3445 8.22595 11.5335 8.22595 11.5335Z" fill="#73AF00"/>
</svg>
