<svg xmlns="http://www.w3.org/2000/svg" width="24" height="24" viewBox="0 0 24 24" fill="none"><rect width="24" height="24" fill="none"/>
<path d="M22.2026 4.13794H1.79742C0.804703 4.13794 0 4.94264 0 5.93536V6.75867H24V5.93536C24 4.94264 23.1953 4.13794 22.2026 4.13794Z" fill="#464655"/>
<path d="M24 6.75891H0V9.3796H24V6.75891Z" fill="#FFE15A"/>
<path d="M24 9.37921H0V11.9999H24V9.37921Z" fill="#FF4B55"/>
<path d="M24 12H0V14.6207H24V12Z" fill="#464655"/>
<path d="M24 14.6208H0V17.2415H24V14.6208Z" fill="#FFE15A"/>
<path d="M0 18.0646C0 19.0573 0.804703 19.8621 1.79742 19.8621H22.2026C23.1952 19.8621 24 19.0574 24 18.0646V17.2413H0V18.0646Z" fill="#FF4B55"/>
<path d="M12 14.4828C13.3712 14.4828 14.4828 13.3712 14.4828 12C14.4828 10.6288 13.3712 9.51721 12 9.51721C10.6288 9.51721 9.51721 10.6288 9.51721 12C9.51721 13.3712 10.6288 14.4828 12 14.4828Z" fill="#F5F5F5"/>
<path d="M12.1497 10.4884L12.3943 10.3906C12.4297 10.3764 12.4468 10.3357 12.4312 10.301C12.3763 10.1794 12.2294 9.92776 11.9501 9.92016C11.7732 9.91538 11.641 9.95522 11.5664 9.98602C11.5283 10.0017 11.5129 10.0471 11.5337 10.0827L11.6813 10.3348L12.1497 10.4884Z" fill="#FF4B55"/>
<path d="M11.9501 9.92016C11.9297 9.9196 11.9114 9.92077 11.8922 9.92133L11.8656 10.3118L12.0076 10.3904L12.3149 10.1124C12.234 10.0146 12.1154 9.92462 11.9501 9.92016Z" fill="#FFE15A"/>
<path d="M13.002 12.7843L11.8964 11.4943C11.8964 11.2273 11.9928 11.0093 12.0462 10.909C12.1984 10.8411 12.2965 10.6737 12.2557 10.4889C12.226 10.3545 12.1175 10.2449 11.9834 10.2142C11.742 10.1591 11.5278 10.3409 11.5278 10.5728C11.5278 10.5816 11.5298 10.5898 11.5304 10.5983C11.2919 10.6612 11.2475 10.7379 11.2475 10.7379C11.2475 10.7379 11.4038 10.6964 11.5395 10.6608C11.5422 10.6719 11.5459 10.6825 11.5495 10.6932L11.282 10.7841L11.5741 10.7485C11.6066 10.8079 11.6547 10.8572 11.7128 10.8913C11.4944 11.0672 11.1592 11.3977 11.1592 11.7708C11.1592 12.112 11.4119 12.3393 11.7301 12.4905C11.8413 12.5433 11.9437 12.613 12.0278 12.703L12.0309 12.7064L12.0585 13.1299C11.8303 13.1299 11.5582 13.1299 11.4356 13.1299C11.2052 13.1299 11.1419 13.2796 11.1419 13.5273L11.2513 13.3718L11.3435 13.5446L11.355 13.3487L11.4529 13.4754C11.4529 13.4754 11.4519 13.3099 11.5768 13.2883C11.643 13.2767 11.8724 13.2623 12.0673 13.2623L12.1086 13.8935C11.8443 13.8923 11.5451 14.0167 11.5451 14.0167C11.6372 13.9994 11.8619 14.034 11.8619 14.034L11.8245 14.1435C12.0836 14.0024 12.5588 13.9995 12.5588 13.9995C12.5588 13.9995 12.4551 13.9288 12.2132 13.9011L12.2188 13.2622H12.599L12.6566 13.1125C12.6566 13.1125 12.4604 12.8522 12.4604 12.7144C12.7645 12.7722 13.002 12.7843 13.002 12.7843ZM12.2199 13.1299L12.2218 12.9108C12.336 13.0331 12.4262 13.1299 12.4262 13.1299C12.4262 13.1299 12.341 13.1299 12.2199 13.1299Z" fill="#464655"/>
<path d="M13.002 12.9686C12.9099 12.6 12.5061 12.4867 12.0806 12.2314C11.6199 11.955 11.8963 11.4943 11.8963 11.4943C11.8963 11.4943 13.4397 11.9474 13.5549 12.6C13.6446 13.1083 13.2785 13.4293 13.0942 13.5214L13.1604 13.3371H12.8177C12.8177 13.3371 13.1805 13.0549 13.1863 12.7842L13.002 12.9686Z" fill="#696E7D"/>
<path d="M13.5549 12.6C13.4779 12.1636 12.7631 11.8169 12.2973 11.6347C12.1483 11.6181 12.0173 11.8686 12.4262 12.1393C12.9763 12.5034 13.0021 12.9686 13.0021 12.9686L13.1864 12.7843C13.1807 13.0549 12.8178 13.3372 12.8178 13.3372H13.1605L13.0943 13.5215C13.2785 13.4293 13.6446 13.1083 13.5549 12.6Z" fill="#FFFCFF"/>
<path d="M13.5549 12.6C13.5039 12.3108 13.1725 12.0613 12.8193 11.8726C12.6492 11.8218 12.501 11.8283 12.501 11.8283C12.6047 11.8917 12.6508 12.0529 12.6508 12.0529C12.5759 12.0068 12.4089 12.0299 12.4089 12.0299C12.4553 12.0697 12.4994 12.1509 12.5288 12.2132C12.9792 12.5633 13.0021 12.9686 13.0021 12.9686L13.1864 12.7843C13.1807 13.055 12.8178 13.3372 12.8178 13.3372H13.1605L13.0943 13.5215C13.2785 13.4293 13.6446 13.1083 13.5549 12.6Z" fill="#FF4B55"/>
<path d="M11.7464 10.5999C11.7803 10.5999 11.8079 10.5724 11.8079 10.5384C11.8079 10.5045 11.7803 10.477 11.7464 10.477C11.7125 10.477 11.685 10.5045 11.685 10.5384C11.685 10.5724 11.7125 10.5999 11.7464 10.5999Z" fill="#F5F5F5"/>
<path d="M11.5854 10.7725C11.5854 10.7725 11.451 10.9299 11.5393 10.976C11.6276 11.0221 11.7128 10.8912 11.7128 10.8912L11.5854 10.7725Z" fill="#FF4B55"/>
</svg>
