<svg xmlns="http://www.w3.org/2000/svg" width="24" height="24" viewBox="0 0 24 24" fill="none"><rect width="24" height="24" fill="none"/>
<path d="M22.2026 4.13794H1.79742C0.804703 4.13794 0 4.94264 0 5.93536V9.37931H24V5.93536C24 4.94264 23.1953 4.13794 22.2026 4.13794Z" fill="#41479B"/>
<path d="M0 18.0646C0 19.0573 0.804703 19.8621 1.79742 19.8621H22.2026C23.1952 19.8621 24 19.0574 24 18.0646V14.6207H0V18.0646Z" fill="#41479B"/>
<path d="M24 9.37921H0V14.6203H24V9.37921Z" fill="#F5F5F5"/>
<path d="M12 10.4849L10.7378 12.3411H13.2622L12 10.4849Z" fill="#AFEBFF"/>
<path d="M10.7378 12.3411L9.92104 13.529H14.0789L13.2622 12.3411H10.7378Z" fill="#557DE6"/>
<path d="M12.3229 12.2374C12.328 12.227 12.3333 12.2168 12.3378 12.2062C12.3333 12.2167 12.328 12.227 12.3229 12.2374Z" fill="#73AF00"/>
<path d="M12.3577 12.1518C12.3608 12.1425 12.3646 12.1334 12.3672 12.124C12.3645 12.1334 12.3608 12.1424 12.3577 12.1518Z" fill="#73AF00"/>
<path d="M12.28 12.3152C12.2864 12.305 12.2927 12.2949 12.2986 12.2845C12.2927 12.295 12.2863 12.3051 12.28 12.3152Z" fill="#73AF00"/>
<path d="M12.4729 11.9694C12.4616 11.9694 12.4508 11.9713 12.4408 11.9746C12.4508 11.9712 12.4616 11.9694 12.4729 11.9694Z" fill="#73AF00"/>
<path d="M12.4138 11.989C12.3981 12.0013 12.3873 12.0184 12.3849 12.0379L12.3849 12.038L12.3849 12.0379C12.3874 12.0184 12.3981 12.0012 12.4138 11.989Z" fill="#73AF00"/>
<path d="M12.3755 12.543C12.3932 12.5598 12.4107 12.5757 12.4284 12.591C12.5226 12.5095 12.6209 12.4058 12.6899 12.2846C12.685 12.2932 12.6796 12.3017 12.6744 12.3102C12.6099 12.1917 12.5759 12.0891 12.5594 12.0283C12.55 11.9937 12.514 11.9695 12.473 11.9694C12.4888 12.1079 12.5228 12.3624 12.3755 12.543Z" fill="#73AF00"/>
<path d="M12.749 12.1518C12.7521 12.1425 12.7558 12.1334 12.7585 12.124C12.7558 12.1334 12.7521 12.1424 12.749 12.1518Z" fill="#73AF00"/>
<path d="M12.8051 11.989C12.7894 12.0013 12.7787 12.0184 12.7762 12.0379V12.038V12.0379C12.7787 12.0184 12.7894 12.0012 12.8051 11.989Z" fill="#73AF00"/>
<path d="M12.7143 12.2374C12.7193 12.227 12.7246 12.2168 12.7291 12.2062C12.7246 12.2167 12.7193 12.227 12.7143 12.2374Z" fill="#73AF00"/>
<path d="M13.5159 12.6381C13.3728 12.6381 13.2374 12.5694 13.1547 12.4525C13.0301 12.2766 12.9736 12.1125 12.9508 12.0284C12.9414 11.9936 12.9054 11.9694 12.8643 11.9694L12.8645 11.9694C12.8833 12.1347 12.9281 12.4651 12.6596 12.6381H12.4847C12.4776 12.6324 12.4706 12.627 12.4632 12.621C12.4634 12.6211 12.4635 12.6213 12.4637 12.6214C12.4148 12.6853 12.3169 12.7032 12.241 12.664C11.9233 12.5003 11.9726 12.1433 11.9924 11.9694C11.9514 11.9695 11.9155 11.9936 11.9061 12.0284C11.8896 12.0892 11.8555 12.1917 11.7911 12.3102C11.7859 12.3016 11.7805 12.2933 11.7756 12.2846C11.8532 12.421 11.9684 12.5361 12.0724 12.6214C12.0235 12.6853 11.9256 12.7032 11.8497 12.6641C11.532 12.5004 11.5813 12.1433 11.6011 11.9695C11.5601 11.9695 11.5242 11.9937 11.5148 12.0284C11.4983 12.0892 11.4642 12.1917 11.3998 12.3102C11.3946 12.3017 11.3892 12.2933 11.3843 12.2846C11.4619 12.421 11.577 12.5362 11.6811 12.6215C11.6322 12.6854 11.5343 12.7033 11.4584 12.6641C11.1407 12.5004 11.19 12.1433 11.2098 11.9695L11.21 11.9695C11.1689 11.9695 11.1329 11.9936 11.1235 12.0285C11.1007 12.1126 11.0442 12.2767 10.9196 12.4526C10.837 12.5695 10.7016 12.6382 10.5584 12.6382H10.4408V12.7867H13.485H13.5593V12.6382H13.5159V12.6381V12.6381Z" fill="#73AF00"/>
<path d="M12.1276 12.2062C12.1321 12.2168 12.1374 12.227 12.1424 12.2373C12.1375 12.227 12.1321 12.2167 12.1276 12.2062Z" fill="#73AF00"/>
<path d="M12.0983 12.1239C12.1009 12.1334 12.1047 12.1424 12.1078 12.1518C12.1047 12.1424 12.1009 12.1334 12.0983 12.1239Z" fill="#73AF00"/>
<path d="M12.0805 12.038V12.0379C12.0781 12.0184 12.0674 12.0013 12.0516 11.989C12.0673 12.0013 12.0781 12.0184 12.0805 12.0379V12.038Z" fill="#73AF00"/>
<path d="M12.1668 12.2846C12.1728 12.295 12.1791 12.3051 12.1854 12.3153C12.179 12.3051 12.1728 12.295 12.1668 12.2846Z" fill="#73AF00"/>
<path d="M12.235 12.3875C12.2342 12.3865 12.2336 12.3854 12.2328 12.3844C12.2392 12.3759 12.2453 12.3674 12.2514 12.3587C12.2453 12.3673 12.239 12.3759 12.2328 12.3843C12.2264 12.3759 12.2202 12.3674 12.2141 12.3587C12.2209 12.3685 12.2278 12.378 12.235 12.3875Z" fill="#73AF00"/>
<path d="M12.2676 12.4286C12.2748 12.4372 12.2821 12.4459 12.2895 12.4543C12.2821 12.4459 12.2748 12.4372 12.2676 12.4286Z" fill="#73AF00"/>
<path d="M12.3469 12.5157C12.34 12.5087 12.3333 12.5015 12.3264 12.4943C12.3333 12.5015 12.34 12.5087 12.3469 12.5157Z" fill="#73AF00"/>
<path d="M12.8645 11.9694L12.8643 11.9694C12.8418 11.9694 12.821 11.9768 12.8052 11.989C12.7895 12.0013 12.7787 12.0184 12.7763 12.0379V12.038C12.7726 12.0673 12.7664 12.0958 12.7586 12.1239C12.7559 12.1334 12.7522 12.1424 12.7491 12.1517C12.743 12.1701 12.7368 12.1884 12.7292 12.2062C12.7246 12.2168 12.7193 12.227 12.7143 12.2373C12.7066 12.2532 12.6988 12.2691 12.69 12.2845C12.621 12.4057 12.5227 12.5094 12.4284 12.591C12.4109 12.5758 12.3933 12.5598 12.3756 12.543C12.5228 12.3623 12.4889 12.1079 12.4732 11.9694L12.473 11.9693C12.4617 11.9693 12.4509 11.9712 12.4409 11.9745C12.4309 11.9779 12.4218 11.9828 12.4139 11.9889C12.3982 12.0012 12.3874 12.0183 12.385 12.0378L12.3849 12.0379C12.3813 12.0672 12.375 12.0958 12.3672 12.1238C12.3646 12.1333 12.3608 12.1424 12.3577 12.1517C12.3517 12.1701 12.3454 12.1883 12.3378 12.2061C12.3333 12.2167 12.328 12.2269 12.323 12.2372C12.3153 12.2532 12.3074 12.2691 12.2986 12.2844C12.2927 12.2949 12.2864 12.305 12.28 12.3151C12.2708 12.3299 12.2614 12.3444 12.2514 12.3586C12.2453 12.3673 12.2392 12.3759 12.2328 12.3843C12.2264 12.3758 12.2202 12.3673 12.214 12.3586C12.204 12.3444 12.1946 12.3299 12.1854 12.3151C12.1791 12.305 12.1728 12.2948 12.1668 12.2844C12.158 12.269 12.1502 12.2532 12.1425 12.2372C12.1375 12.2268 12.1322 12.2167 12.1276 12.2061C12.12 12.1884 12.1138 12.1701 12.1078 12.1517C12.1047 12.1424 12.1009 12.1333 12.0982 12.1238C12.0904 12.0958 12.0842 12.0672 12.0805 12.0379V12.0378C12.0781 12.0183 12.0674 12.0012 12.0516 11.9889C12.0358 11.9767 12.0151 11.9693 11.9925 11.9693L11.9924 11.9694C11.9726 12.1433 11.9233 12.5003 12.241 12.664C12.2946 12.6916 12.3589 12.6905 12.4093 12.6651C12.4415 12.6489 12.4761 12.638 12.5122 12.638H12.6596C12.9281 12.4651 12.8833 12.1347 12.8645 11.9694Z" fill="#FFE15A"/>
<path d="M11.7069 12.1239C11.7096 12.1334 11.7134 12.1424 11.7164 12.1518C11.7134 12.1424 11.7096 12.1334 11.7069 12.1239Z" fill="#73AF00"/>
<path d="M11.6892 12.038L11.6891 12.0379C11.6867 12.0184 11.676 12.0013 11.6602 11.989C11.6759 12.0013 11.6867 12.0184 11.6891 12.0379L11.6892 12.038Z" fill="#73AF00"/>
<path d="M11.7363 12.2062C11.7409 12.2168 11.7462 12.227 11.7512 12.2373C11.7461 12.227 11.7409 12.2167 11.7363 12.2062Z" fill="#73AF00"/>
<path d="M11.6013 11.9694C11.6126 11.9694 11.6234 11.9713 11.6334 11.9746C11.6234 11.9712 11.6125 11.9694 11.6013 11.9694Z" fill="#73AF00"/>
<path d="M11.8497 12.664C11.9256 12.7031 12.0235 12.6852 12.0724 12.6213C11.9683 12.536 11.8532 12.4209 11.7755 12.2845C11.7667 12.2691 11.7589 12.2533 11.7512 12.2373C11.7462 12.2269 11.7409 12.2168 11.7363 12.2062C11.7287 12.1884 11.7225 12.1701 11.7165 12.1517C11.7134 12.1424 11.7096 12.1334 11.7069 12.1239C11.6991 12.0959 11.6929 12.0673 11.6892 12.038L11.6892 12.0379C11.6867 12.0183 11.676 12.0013 11.6602 11.989C11.6524 11.9829 11.6432 11.978 11.6332 11.9746C11.6233 11.9712 11.6124 11.9694 11.6011 11.9694L11.601 11.9694C11.5813 12.1433 11.5319 12.5003 11.8497 12.664Z" fill="#FFE15A"/>
<path d="M11.3157 12.1239C11.3183 12.1333 11.3221 12.1424 11.3252 12.1517C11.3221 12.1424 11.3183 12.1333 11.3157 12.1239Z" fill="#73AF00"/>
<path d="M11.3451 12.2061C11.3496 12.2167 11.3549 12.2269 11.3599 12.2373C11.3549 12.2269 11.3496 12.2167 11.3451 12.2061Z" fill="#73AF00"/>
<path d="M11.298 12.038V12.0379C11.2955 12.0184 11.2848 12.0013 11.269 11.989C11.2847 12.0013 11.2955 12.0184 11.298 12.0379V12.038Z" fill="#73AF00"/>
<path d="M11.4584 12.664C11.5343 12.7031 11.6322 12.6852 11.6811 12.6213C11.577 12.536 11.4619 12.4209 11.3842 12.2845C11.3755 12.2691 11.3677 12.2533 11.3599 12.2373C11.3549 12.2269 11.3496 12.2168 11.3451 12.2062C11.3375 12.1884 11.3312 12.1701 11.3252 12.1517C11.3221 12.1424 11.3183 12.1334 11.3157 12.1239C11.3078 12.0959 11.3016 12.0673 11.298 12.038V12.0379C11.2955 12.0183 11.2848 12.0013 11.269 11.989C11.2533 11.9767 11.2325 11.9694 11.21 11.9694L11.2098 11.9694C11.19 12.1433 11.1406 12.5003 11.4584 12.664Z" fill="#FFE15A"/>
<path d="M11.3745 11.379C11.3683 11.4027 11.3621 11.4264 11.3559 11.4501C11.5586 11.3893 11.7823 11.3527 12.025 11.3527C12.2677 11.3529 12.4914 11.3891 12.6941 11.4501C12.688 11.4264 12.6818 11.4027 12.6756 11.379C12.474 11.327 12.257 11.2971 12.025 11.2971C11.7931 11.2971 11.5761 11.327 11.3745 11.379Z" fill="#41479B"/>
<path d="M11.3825 11.3481C11.3764 11.3718 11.3701 11.3955 11.364 11.4192C11.5644 11.3582 11.7854 11.3217 12.025 11.3216C12.2647 11.3217 12.4856 11.3582 12.6861 11.4192C12.6799 11.3955 12.6737 11.3718 12.6676 11.3481C12.4682 11.2957 12.254 11.266 12.025 11.266C11.7961 11.266 11.5819 11.2959 11.3825 11.3481Z" fill="#5AA0E6"/>
<path d="M11.39 11.3196C11.3838 11.3432 11.3776 11.3669 11.3715 11.3906C11.5699 11.3295 11.7883 11.2927 12.025 11.2927C12.2619 11.2927 12.4802 11.3294 12.6786 11.3906C12.6725 11.3669 12.6662 11.3432 12.6601 11.3196C12.4629 11.2672 12.2512 11.2371 12.025 11.2371C11.7989 11.2371 11.5872 11.2672 11.39 11.3196Z" fill="#9BC800"/>
<path d="M11.3985 11.2869C11.3923 11.3106 11.3861 11.3343 11.3799 11.358C11.5761 11.2966 11.7915 11.2598 12.025 11.2598C12.2586 11.2599 12.474 11.2966 12.6701 11.358C12.664 11.3343 12.6577 11.3106 12.6516 11.2869C12.4567 11.2343 12.2481 11.2043 12.025 11.2042C11.802 11.2042 11.5933 11.2343 11.3985 11.2869Z" fill="#FFE14E"/>
<path d="M11.4068 11.2549C11.4007 11.2785 11.3945 11.3023 11.3883 11.3259C11.5822 11.2644 11.7946 11.2275 12.025 11.2274C12.2554 11.2275 12.4679 11.2643 12.6617 11.3259C12.6556 11.3023 12.6494 11.2785 12.6432 11.2549C12.4507 11.2022 12.2449 11.1718 12.025 11.1718C11.8051 11.1719 11.5994 11.202 11.4068 11.2549Z" fill="#FFB14E"/>
<path d="M11.4104 11.2412C11.406 11.2578 11.4017 11.2744 11.3974 11.291C11.5887 11.2294 11.7982 11.192 12.025 11.1921C12.2519 11.192 12.4613 11.2292 12.6526 11.291C12.6482 11.2744 12.644 11.2578 12.6396 11.2412C12.4481 11.1884 12.2435 11.158 12.025 11.158C11.8065 11.1578 11.6019 11.1883 11.4104 11.2412Z" fill="#FF4B55"/>
<path d="M14.079 13.6011H9.92105C9.89363 13.6011 9.8685 13.586 9.85557 13.562C9.84268 13.5378 9.84413 13.5085 9.85927 13.4857L11.9383 10.3672C11.9658 10.326 12.0343 10.326 12.0618 10.3672L14.1408 13.4857C14.156 13.5084 14.1574 13.5377 14.1445 13.562C14.1316 13.5861 14.1064 13.6011 14.079 13.6011ZM10.0597 13.4526H13.9403L12 10.5423L10.0597 13.4526Z" fill="#FFE15A"/>
<path d="M12.142 11.6687C12.142 11.6033 12.0758 11.5041 11.9698 11.5041C11.9079 11.5041 11.8577 11.5419 11.8577 11.5886C11.8577 11.6119 11.8702 11.633 11.8904 11.6482C11.8903 11.6491 11.8903 11.65 11.8902 11.6508C11.8649 11.6663 11.8484 11.6897 11.8484 11.7162C11.8484 11.7607 11.8943 11.7968 11.9523 11.8001L12 11.8955L12.0431 11.8094C12.0997 11.795 12.142 11.7375 12.142 11.6687Z" fill="#FF4B55"/>
</svg>
