<svg xmlns="http://www.w3.org/2000/svg" width="24" height="24" viewBox="0 0 24 24" fill="none"><rect width="24" height="24" fill="none"/>
<path d="M22.2026 4.13788H1.79742C0.804703 4.13788 0 4.94258 0 5.9353V18.0647C0 19.0573 0.804703 19.8621 1.79742 19.8621H22.2026C23.1952 19.8621 24 19.0574 24 18.0647V5.9353C24 4.94258 23.1953 4.13788 22.2026 4.13788Z" fill="#FFE15A"/>
<path d="M23.3794 5.3793H0.620667V18.6206H23.3794V5.3793Z" fill="#41479B"/>
<path d="M0.620667 5.37927L12 11.9999L6.3104 5.37932L0.620667 5.37927Z" fill="#FF4B55"/>
<path d="M12.0001 12.0001V5.37946L17.6897 5.3795L12.0001 12.0001Z" fill="#FF4B55"/>
<path d="M23.3794 5.37946L12.0001 12.0001L23.3794 8.68977V5.37946Z" fill="#FF4B55"/>
<path d="M12.0001 12.0001H23.3794V15.3105L12.0001 12.0001Z" fill="#FF4B55"/>
<path d="M12.0001 12.0001L0.62088 8.68985V12.0002L12.0001 12.0001Z" fill="#FF4B55"/>
<path d="M0.62088 15.3106L12.0001 12.0001L0.62088 18.6209V15.3106Z" fill="#FF4B55"/>
<path d="M12.1903 10.7889L13.6741 7.36688L12.5785 10.9322L12.1903 10.7889Z" fill="#FFE15A"/>
<path d="M14.1442 12.7568C14.1766 12.6652 14.2048 12.5719 14.2253 12.4754L16.6983 12.6947L14.2656 12.203C14.2715 12.136 14.2758 12.0685 14.2758 12C14.2758 11.934 14.2715 11.869 14.2659 11.8045L16.6788 11.2964L14.2277 11.5338C14.2062 11.4308 14.1757 11.3313 14.1408 11.2338L16.3311 10.0888L14.0333 10.9819C13.9747 10.8653 13.9065 10.7547 13.8296 10.6506L15.6457 8.976L13.6541 10.44C13.4429 10.2161 13.188 10.0343 12.9014 9.9105L13.6248 7.55658L12.6442 9.81811C12.4398 9.75774 12.224 9.72408 12 9.72408C11.7743 9.72408 11.5567 9.75807 11.3509 9.81928L10.3697 7.55649L11.0938 9.91271C10.8082 10.0369 10.5542 10.2187 10.3438 10.4423L8.3488 8.97586L10.1682 10.6535C10.0918 10.7573 10.0241 10.8674 9.96589 10.9836L7.66344 10.0886L9.85841 11.2362C9.82391 11.3331 9.79358 11.4318 9.7723 11.5342L7.31576 11.2962L9.73405 11.8056C9.72856 11.8697 9.7242 11.9342 9.7242 11.9999C9.7242 12.068 9.72851 12.1351 9.73437 12.2018L7.29626 12.6946L9.77464 12.4748C9.79503 12.5706 9.82297 12.6633 9.85498 12.7542L7.6693 13.8711L9.96059 13.005C10.332 13.7571 11.1046 14.2758 12.0001 14.2758C12.895 14.2758 13.667 13.758 14.0388 13.0068L16.3254 13.8712L14.1442 12.7568Z" fill="#FFE15A"/>
<path d="M23.3793 18.6206L12.2601 12.1513C12.0993 12.0578 11.9007 12.0578 11.7399 12.1513L0.620667 18.6206H23.3793Z" fill="#F5F5F5"/>
<path d="M12.0017 15.3327C12.0493 15.3327 12.0878 15.2941 12.0878 15.2466C12.0878 15.199 12.0493 15.1605 12.0017 15.1605C11.9541 15.1605 11.9156 15.199 11.9156 15.2466C11.9156 15.2941 11.9541 15.3327 12.0017 15.3327Z" fill="#FF4B55"/>
<path d="M11.8706 12.362C12.1289 12.6814 11.711 12.8411 11.7626 13.1464C11.7626 13.1464 11.6781 13.0195 11.711 12.8411C11.7438 12.6626 11.6311 12.6062 11.6311 12.6062C11.6311 12.6062 11.6827 12.8082 11.5559 12.9209C11.4291 13.0336 11.4667 13.2919 11.4667 13.2919C11.4667 13.2919 11.3071 13.1839 11.3399 13.0195C11.3399 13.0195 11.1238 13.2074 11.3164 13.5221C11.3164 13.5221 11.1896 13.5127 11.1426 13.4329C11.1426 13.4329 11.0301 13.764 11.4832 14.0164C11.9363 14.2689 12.0021 13.6677 12.0021 13.6677L12.3261 14.0717C12.3261 14.0717 12.7144 14.0607 12.8991 13.6442L12.6768 13.6849C12.6909 13.5675 12.9883 13.5362 12.8709 13.184C12.8709 13.184 12.8615 13.2591 12.777 13.3108C12.777 13.3108 12.7801 13.0682 12.6048 12.9085C12.6048 12.9085 12.5985 13.0384 12.5422 13.0854C12.5422 13.0854 12.561 12.9178 12.4577 12.7863C12.359 12.6607 12.3497 12.5453 12.3497 12.5453C12.3497 12.5453 12.2322 12.7613 12.2745 12.8693C12.2745 12.8693 12.1766 12.8455 12.1665 12.7143C12.1446 12.4294 11.8706 12.362 11.8706 12.362Z" fill="#FF4B55"/>
<path d="M12.0019 15.2391C12.4067 15.2391 12.7349 15.0985 12.7349 14.925C12.7349 14.7515 12.4067 14.6108 12.0019 14.6108C11.5971 14.6108 11.2689 14.7515 11.2689 14.925C11.2689 15.0985 11.5971 15.2391 12.0019 15.2391Z" fill="#FFE15A"/>
<path d="M12.0019 15.1406C12.3519 15.1406 12.6357 15.0134 12.6357 14.8565C12.6357 14.6997 12.3519 14.5725 12.0019 14.5725C11.6518 14.5725 11.368 14.6997 11.368 14.8565C11.368 15.0134 11.6518 15.1406 12.0019 15.1406Z" fill="#FF4B55"/>
<path d="M12.1349 14.8933H11.8692C11.8645 14.9762 11.902 15.0964 12.0018 15.14V15.1402C12.0019 15.1402 12.0019 15.1402 12.0019 15.1402C12.0019 15.1402 12.0021 15.1402 12.0022 15.1402V15.14C12.1021 15.0963 12.1396 14.9762 12.1349 14.8933Z" fill="#FF82AA"/>
<path d="M12.3462 14.8422L12.1052 14.8988C12.1198 14.9804 12.1813 15.0895 12.2819 15.1107L12.2819 15.111L12.2821 15.1108C12.2821 15.1108 12.2822 15.1109 12.2822 15.1109V15.1106C12.3628 15.0469 12.3694 14.9219 12.3462 14.8422Z" fill="#FF82AA"/>
<path d="M12.471 14.7557L12.3031 14.8656C12.3456 14.9369 12.4352 15.022 12.5221 15.0171L12.5223 15.0173L12.5223 15.0171C12.5223 15.0171 12.5225 15.0171 12.5225 15.0171L12.5224 15.017C12.5616 14.9391 12.5194 14.8229 12.471 14.7557Z" fill="#FF82AA"/>
<path d="M12.4661 14.5858L12.4 14.7524C12.4896 14.8663 12.6363 14.8546 12.6363 14.8546C12.6422 14.7619 12.5265 14.6425 12.4661 14.5858Z" fill="#FF82AA"/>
<path d="M11.6557 14.8422L11.8968 14.8988C11.8821 14.9804 11.8206 15.0895 11.7201 15.1107L11.72 15.111L11.7199 15.1108L11.7197 15.1109L11.7197 15.1106C11.6391 15.0469 11.6325 14.9219 11.6557 14.8422Z" fill="#FF82AA"/>
<path d="M11.531 14.7557L11.6988 14.8656C11.6564 14.9369 11.5668 15.022 11.4798 15.0171L11.4797 15.0173L11.4797 15.0171L11.4795 15.0171L11.4796 15.017C11.4404 14.9391 11.4826 14.8229 11.531 14.7557Z" fill="#FF82AA"/>
<path d="M11.5358 14.5859L11.6018 14.7526C11.5123 14.8665 11.3655 14.8548 11.3655 14.8548C11.3596 14.762 11.4754 14.6427 11.5358 14.5859Z" fill="#FF82AA"/>
<path d="M12.0019 14.915C12.286 14.915 12.5163 14.8118 12.5163 14.6844C12.5163 14.5571 12.286 14.4539 12.0019 14.4539C11.7178 14.4539 11.4874 14.5571 11.4874 14.6844C11.4874 14.8118 11.7178 14.915 12.0019 14.915Z" fill="#FFE15A"/>
<path d="M12.0019 14.8343C12.2133 14.8343 12.3846 14.7672 12.3846 14.6845C12.3846 14.6017 12.2133 14.5347 12.0019 14.5347C11.7905 14.5347 11.6191 14.6017 11.6191 14.6845C11.6191 14.7672 11.7905 14.8343 12.0019 14.8343Z" fill="#FF4B55"/>
<path d="M12.0408 17.2745C11.7906 17.2958 11.5708 17.1098 11.5495 16.8599C11.5385 16.735 11.6316 16.6248 11.7566 16.6142C11.8817 16.6036 11.9916 16.6963 12.0022 16.8214C12.0128 16.9465 12.123 17.039 12.2478 17.0286C12.373 17.018 12.4658 16.9076 12.4549 16.7828C12.4763 17.0331 12.2908 17.2532 12.0408 17.2745Z" fill="#41479B"/>
<path d="M11.5495 16.86C11.5385 16.7351 11.6316 16.6248 11.7567 16.6142C11.8817 16.6036 11.9916 16.6963 12.0022 16.8214C12.0128 16.9465 12.123 17.039 12.2478 17.0287C12.373 17.0181 12.4658 16.9077 12.455 16.7829C12.434 16.5324 12.214 16.3472 11.9638 16.3684C11.7138 16.3898 11.5282 16.6097 11.5495 16.86Z" fill="#FF9B55"/>
<path d="M12.0021 16.0774C11.5913 16.0774 11.2582 16.4105 11.2582 16.8213C11.2582 17.2322 11.5913 17.5652 12.0021 17.5652C12.413 17.5652 12.7461 17.2321 12.7461 16.8213C12.7461 16.4105 12.413 16.0774 12.0021 16.0774ZM12.0021 17.4103C11.6769 17.4103 11.4132 17.1466 11.4132 16.8214C11.4132 16.4961 11.6769 16.2324 12.0021 16.2324C12.3274 16.2324 12.5911 16.4961 12.5911 16.8214C12.5911 17.1466 12.3274 17.4103 12.0021 17.4103Z" fill="#FFE15A"/>
<path d="M12.0021 16.2324C11.6769 16.2324 11.4132 16.4961 11.4132 16.8214C11.4132 17.1466 11.6769 17.4103 12.0021 17.4103C12.3274 17.4103 12.5911 17.1466 12.5911 16.8214C12.5911 16.4961 12.3274 16.2324 12.0021 16.2324ZM12.0021 17.2724C11.753 17.2724 11.551 17.0705 11.551 16.8213C11.551 16.5722 11.753 16.3702 12.0021 16.3702C12.2513 16.3702 12.4533 16.5722 12.4533 16.8213C12.4533 17.0705 12.2513 17.2724 12.0021 17.2724Z" fill="#FF4B55"/>
<path d="M11.7736 16.8778C11.805 16.8778 11.8304 16.8524 11.8304 16.821C11.8304 16.7897 11.805 16.7642 11.7736 16.7642C11.7422 16.7642 11.7168 16.7897 11.7168 16.821C11.7168 16.8524 11.7422 16.8778 11.7736 16.8778Z" fill="#FF9B55"/>
<path d="M12.2283 16.8778C12.2597 16.8778 12.2851 16.8524 12.2851 16.821C12.2851 16.7897 12.2597 16.7642 12.2283 16.7642C12.1969 16.7642 12.1715 16.7897 12.1715 16.821C12.1715 16.8524 12.1969 16.8778 12.2283 16.8778Z" fill="#41479B"/>
<path d="M12.0017 15.9637C12.0397 15.9637 12.0705 15.9329 12.0705 15.8948C12.0705 15.8568 12.0397 15.826 12.0017 15.826C11.9636 15.826 11.9328 15.8568 11.9328 15.8948C11.9328 15.9329 11.9636 15.9637 12.0017 15.9637Z" fill="#FF4B55"/>
<path d="M12.0706 16.0837C12.1086 16.0837 12.1395 16.0529 12.1395 16.0148C12.1395 15.9768 12.1086 15.946 12.0706 15.946C12.0326 15.946 12.0017 15.9768 12.0017 16.0148C12.0017 16.0529 12.0326 16.0837 12.0706 16.0837Z" fill="#FF4B55"/>
<path d="M11.9332 16.0837C11.9713 16.0837 12.0021 16.0529 12.0021 16.0148C12.0021 15.9768 11.9713 15.946 11.9332 15.946C11.8952 15.946 11.8644 15.9768 11.8644 16.0148C11.8644 16.0529 11.8952 16.0837 11.9332 16.0837Z" fill="#FF4B55"/>
<path d="M12.0017 17.819C12.0397 17.819 12.0705 17.7882 12.0705 17.7502C12.0705 17.7121 12.0397 17.6813 12.0017 17.6813C11.9636 17.6813 11.9328 17.7121 11.9328 17.7502C11.9328 17.7882 11.9636 17.819 12.0017 17.819Z" fill="#FF4B55"/>
<path d="M11.9332 17.6991C11.9713 17.6991 12.0021 17.6682 12.0021 17.6302C12.0021 17.5922 11.9713 17.5613 11.9332 17.5613C11.8952 17.5613 11.8644 17.5922 11.8644 17.6302C11.8644 17.6682 11.8952 17.6991 11.9332 17.6991Z" fill="#FF4B55"/>
<path d="M12.0706 17.6991C12.1086 17.6991 12.1395 17.6682 12.1395 17.6302C12.1395 17.5922 12.1086 17.5613 12.0706 17.5613C12.0326 17.5613 12.0017 17.5922 12.0017 17.6302C12.0017 17.6682 12.0326 17.6991 12.0706 17.6991Z" fill="#FF4B55"/>
<path d="M11.8763 13.946C11.829 13.6822 11.7027 13.4841 11.5942 13.5035C11.4857 13.523 11.4361 13.7526 11.4834 14.0164C11.5175 14.2068 11.593 14.3599 11.673 14.4247C11.64 14.4814 11.6199 14.5679 11.6194 14.6749C11.6789 14.68 11.7401 14.6797 11.803 14.6685C11.8659 14.6572 11.9234 14.6362 11.9774 14.6108C11.9398 14.5106 11.8909 14.4365 11.8402 14.3948C11.8927 14.3062 11.9104 14.1364 11.8763 13.946Z" fill="#FF9B55"/>
<path d="M12.1266 13.946C12.1739 13.6822 12.3002 13.4841 12.4087 13.5035C12.5172 13.523 12.5668 13.7526 12.5195 14.0164C12.4854 14.2068 12.4099 14.3599 12.3299 14.4247C12.3629 14.4814 12.383 14.5679 12.3834 14.6749C12.324 14.68 12.2628 14.6797 12.1999 14.6685C12.137 14.6572 12.0795 14.6362 12.0255 14.6108C12.0631 14.5106 12.112 14.4365 12.1627 14.3948C12.1102 14.3062 12.0925 14.1364 12.1266 13.946Z" fill="#41479B"/>
<path d="M12.2039 13.9399C12.2039 13.6493 12.1145 13.4137 12.0043 13.4137C11.8941 13.4137 11.8047 13.6493 11.8047 13.9399C11.8047 14.1497 11.8521 14.3274 11.9194 14.412C11.8769 14.4662 11.8418 14.5546 11.8225 14.6688C11.8801 14.6856 11.9405 14.697 12.0043 14.697C12.0682 14.697 12.1286 14.6856 12.1862 14.6688C12.1668 14.5546 12.1318 14.4662 12.0893 14.412C12.1566 14.3274 12.2039 14.1496 12.2039 13.9399Z" fill="#F5F5F5"/>
<path d="M12.0022 14.4893C11.8722 14.4893 11.7529 14.4772 11.6753 14.4558C11.6487 14.4487 11.633 14.4215 11.6403 14.3946C11.6477 14.3681 11.6758 14.3505 11.7014 14.3599C11.8386 14.3965 12.1658 14.3965 12.303 14.3599C12.3297 14.3502 12.357 14.3681 12.3642 14.3946C12.3713 14.4215 12.3558 14.4488 12.3291 14.4558C12.2516 14.4772 12.1323 14.4893 12.0022 14.4893Z" fill="#FFE15A"/>
<path d="M11.5749 15.2785C11.6289 15.2714 11.697 15.255 11.7017 15.1728C11.7017 15.1728 11.5796 15.1611 11.5796 15.1705C11.5796 15.1798 11.5749 15.2785 11.5749 15.2785Z" fill="#FFE15A"/>
<path d="M10.3488 14.9735C10.4098 14.9907 10.4694 15.0032 10.4882 15.0784C10.4882 15.0784 10.5508 14.9532 10.4631 14.878C10.4472 14.8643 10.3488 14.9735 10.3488 14.9735Z" fill="#FF4B55"/>
<path d="M10.6087 14.7637C10.6697 14.7809 10.7293 14.7934 10.7481 14.8686C10.7481 14.8686 10.8107 14.7434 10.723 14.6682C10.707 14.6546 10.6087 14.7637 10.6087 14.7637Z" fill="#FF4B55"/>
<path d="M10.3677 15.1989C10.3302 15.1894 10.2644 15.1049 10.3489 14.9734C10.4335 14.842 10.0624 15.0392 10.0484 15.1473C10.0343 15.2553 10.0202 15.4478 10.1047 15.3962C10.1893 15.3444 10.3677 15.1989 10.3677 15.1989Z" fill="#FFE15A"/>
<path d="M10.7701 15.2129C10.7826 15.144 10.7701 15.097 10.8578 15.0344C10.9454 14.9719 10.9579 14.9374 10.9579 14.8966C10.9579 14.8966 10.9102 14.9475 10.8256 14.9686C10.7739 14.9816 10.7293 15.0187 10.7293 15.0187C10.7293 15.0187 10.7074 14.9405 10.7857 14.8966C10.7857 14.8966 10.6479 14.8966 10.6261 15.0218C10.6041 15.147 10.6762 15.1659 10.5729 15.1784C10.4695 15.1909 10.2284 15.1409 10.1439 15.3318C10.0594 15.5228 10.3161 15.385 10.385 15.36C10.4539 15.335 10.673 15.3882 10.7075 15.3412C10.742 15.2943 10.7701 15.2129 10.7701 15.2129Z" fill="#FF4B55"/>
<path d="M9.86755 15.5558L10.2386 14.9452C10.2386 14.9452 10.6072 14.8028 10.6104 14.7839C10.6135 14.7651 10.7325 14.6118 10.7325 14.5898C10.7325 14.5679 10.72 14.4614 10.673 14.4427C10.626 14.4239 10.4765 14.487 10.4115 14.5036C10.3466 14.5202 10.244 14.3989 10.244 14.3989C10.244 14.3989 9.64602 14.5116 9.60214 14.5836C9.55832 14.6556 9.35164 15.1722 9.34227 15.2255C9.33285 15.2787 9.34227 15.6451 9.35478 15.6389C9.36735 15.6324 9.86755 15.5558 9.86755 15.5558Z" fill="#FFF5E6"/>
<path d="M10.7544 14.499C10.698 14.4176 10.5948 14.4176 10.5509 14.4834C10.5071 14.5491 10.4132 14.5491 10.3913 14.6306C10.3739 14.6949 10.4789 14.8121 10.5416 14.7902C10.6043 14.7683 10.72 14.6963 10.72 14.6963C10.72 14.6963 10.8108 14.5804 10.7544 14.499ZM10.583 14.6648C10.5573 14.6976 10.4928 14.6568 10.4924 14.6203C10.4919 14.5838 10.5458 14.5818 10.5726 14.6007C10.59 14.613 10.604 14.638 10.583 14.6648ZM10.6795 14.5836C10.6419 14.6017 10.602 14.5366 10.6178 14.5037C10.6335 14.4708 10.6827 14.4927 10.6984 14.5215C10.7086 14.5404 10.7101 14.5689 10.6795 14.5836Z" fill="#FF4B55"/>
<path d="M10.8731 16.8676C10.9355 16.8739 11.0181 16.8653 11.0353 16.7241C11.055 16.5623 11.1039 16.5058 11.1849 16.5432C11.266 16.5807 11.2459 16.6453 11.2459 16.6453C11.2459 16.6453 11.3351 16.8802 11.2882 16.9741C11.2412 17.068 11.1332 17.1807 11.0534 17.1995C10.9735 17.2183 10.8091 17.1103 10.8091 17.1103L10.8731 16.8676Z" fill="#FFF5E6"/>
<path d="M10.4225 16.3213C10.4757 16.2963 11.1332 15.8391 11.2116 15.6669C11.2898 15.4947 11.246 15.3694 11.3494 15.3632C11.4527 15.3569 11.628 15.3507 11.6124 15.2223C11.5967 15.0939 11.4245 15.1753 11.3775 15.1503C11.3306 15.1252 11.1834 15.0563 11.1552 15.1565C11.127 15.2568 11.1552 15.3476 11.1145 15.3976C11.0738 15.4477 10.8922 15.5354 10.8609 15.5291C10.8296 15.5228 10.7628 15.5147 10.7116 15.547C10.6605 15.5793 10.6323 15.623 10.6323 15.623C10.6323 15.623 10.4398 15.6309 10.4123 15.6567C10.3849 15.6825 10.2816 15.8203 10.2816 15.8203L10.4225 16.3213Z" fill="#FFE6D7"/>
<path d="M10.4914 16.218C10.4914 16.218 10.6166 16.171 10.7059 15.9972C10.7951 15.8234 10.8844 15.8938 11.0159 15.7999C11.1474 15.706 11.0629 15.5651 11.0253 15.5087C10.9878 15.4524 11.0136 15.3068 11.1428 15.3114C11.2277 15.3145 11.4997 15.5791 11.3776 15.8421C11.3776 15.8421 11.3588 15.7952 11.3119 15.7388C11.3119 15.7388 11.3823 15.9126 11.2179 16.1052C11.2179 16.1052 11.2226 16.0065 11.171 15.9408C11.171 15.9408 11.1663 16.185 10.9784 16.3399C10.9784 16.3399 11.0019 16.1803 10.9737 16.1145C10.9737 16.1145 10.9456 16.3259 10.6684 16.5184C10.6684 16.5184 10.7107 16.4433 10.7013 16.3212L10.4665 16.4433L10.4914 16.218Z" fill="#5AA587"/>
<path d="M8.7051 17.0211C8.7051 17.0211 8.62059 17.2794 8.8507 17.3545C9.08081 17.4297 9.20765 17.3311 9.29217 17.3545C9.37668 17.378 9.35789 17.5284 9.24051 17.6551C9.12309 17.7819 9.00567 17.796 8.87414 17.7021C8.74265 17.6081 8.73323 17.5236 8.59706 17.5565C8.46089 17.5894 8.27301 17.4579 8.27301 17.4579C8.27301 17.4579 8.39512 16.9271 8.40918 16.9318C8.42334 16.9365 8.7051 17.0211 8.7051 17.0211Z" fill="#F5DCD2"/>
<path d="M7.51102 16.3749C7.51102 16.3749 7.67316 16.2189 8.30321 16.0256C8.93321 15.8322 9.27005 15.7511 9.27005 15.7511L9.76285 15.5952C9.76285 15.5952 9.99479 15.5943 10.147 15.5511C10.2993 15.5078 10.2993 15.5078 10.2993 15.5078C10.2993 15.5078 10.7048 16.0817 10.3991 16.6618L10.5052 16.7617C10.5052 16.7617 10.6166 16.7957 10.7012 16.8255C10.7859 16.8553 10.7235 17.0174 10.7235 17.0174L10.3991 17.1671L9.45094 17.1234C9.45094 17.1234 9.43224 17.0798 9.12033 17.1795C8.80843 17.2794 8.67123 17.0548 8.0724 17.0361C7.47357 17.0174 7.51102 16.3749 7.51102 16.3749Z" fill="#FFF5E6"/>
<path d="M10.2067 14.1361C10.2067 14.1361 10.3022 14.2315 10.2505 14.3333C10.2505 14.3333 10.1441 14.2237 10.0564 14.1986C9.92145 14.1601 9.89356 14.2338 9.59534 14.248C9.4077 14.2568 9.3319 14.4366 9.14839 14.3928C8.95193 14.3458 8.78989 14.4358 8.78989 14.4358C8.78989 14.4358 8.90258 14.4218 8.99422 14.5087C9.08576 14.5955 9.24781 14.5767 9.24781 14.5767C9.24781 14.5767 9.09987 14.6801 8.97542 14.6307C8.85097 14.5814 8.67247 14.673 8.67247 14.673C8.70533 14.6707 8.77812 14.6824 8.86034 14.7693C8.94256 14.8561 9.12575 14.835 9.12575 14.835C9.09289 14.8749 9.00129 14.9195 8.91476 14.9029C8.71864 14.8653 8.50929 14.9529 8.50929 14.9529C8.50929 14.9529 8.63408 14.9092 8.80245 15.034C8.97087 15.1587 9.16428 15.0839 9.16428 15.0839C9.16428 15.165 8.99548 15.4773 8.696 15.4668C8.32311 15.4536 8.22861 15.6702 8.22861 15.6702C8.22861 15.6702 8.37828 15.6203 8.57169 15.6515C8.94626 15.712 9.20169 15.4956 9.20169 15.4956C9.20169 15.4956 9.13929 15.7887 8.88359 15.7763C8.62789 15.7638 8.30351 16.0258 8.30351 16.0258C8.30351 16.0258 8.59165 15.9738 8.96379 15.9693C9.08619 15.9678 9.1857 15.9195 9.27078 15.8621C9.49456 15.711 9.70118 15.711 9.70118 15.711C9.45697 15.7674 9.33017 16.0351 9.33017 16.0351C9.33017 16.0351 9.51804 15.8707 9.79039 15.8707C10.0628 15.8707 10.1473 15.5513 10.1473 15.5513C9.89375 15.556 9.85615 15.3493 9.85615 15.3493C9.85615 15.3493 9.78101 15.3728 9.71056 15.4574C9.66598 15.5109 9.59065 15.529 9.53909 15.5362C9.52029 15.3715 9.64465 15.2212 9.64465 15.2212C9.64465 15.2212 9.47623 14.9655 9.69458 14.691C9.91292 14.4165 10.4119 14.5038 10.4119 14.5038C10.4634 14.2738 10.2693 14.1297 10.2067 14.1361Z" fill="#5AA587"/>
<path d="M9.69949 15.044C9.78092 15.0315 10.1598 14.9062 10.1535 14.7372C10.1472 14.5681 9.92177 14.6276 9.93434 14.7184C9.94685 14.8092 10.0283 14.7904 10.0283 14.7904C10.0283 14.7904 10.0204 14.8313 9.85292 14.8655C9.71515 14.8938 9.69949 15.044 9.69949 15.044Z" fill="#5AA587"/>
<path d="M10.7014 16.8256C10.7014 16.8256 10.9362 16.7881 10.9268 16.9571C10.9174 17.1262 10.7828 17.3046 10.5042 17.383C10.5042 17.383 10.6075 17.2938 10.584 17.2421C10.5605 17.1904 10.4431 17.1763 10.3821 17.2655C10.3211 17.3547 10.2177 17.3924 10.1285 17.3782C10.1285 17.3782 10.2882 17.2608 10.1755 17.2186C10.0739 17.1805 10.1128 17.3454 9.87017 17.3735C9.87017 17.3735 10.0486 17.2326 9.94531 17.1951C9.842 17.1575 9.78566 17.4017 9.60242 17.383C9.60242 17.383 9.75584 17.2295 9.67287 17.2045C9.54219 17.165 9.50848 17.3924 9.27369 17.2937C9.27369 17.2937 9.39111 17.2421 9.29717 17.1153C9.20323 16.9884 9.33472 16.8288 9.40053 16.763C9.46634 16.6973 9.51322 16.655 9.49447 16.5892C9.49447 16.5892 9.662 16.6941 9.57744 16.8788C9.49803 17.0523 9.81941 16.9565 10.069 16.9352C10.3258 16.9133 10.4781 17.0606 10.642 17.0104C10.7953 16.9633 10.7014 16.8256 10.7014 16.8256Z" fill="#5AA587"/>
<path d="M6.15765 16.9053C6.15765 16.9053 6.46572 17.0473 6.64037 16.9039C6.81503 16.7604 6.86247 16.9302 7.06834 16.8054C7.27422 16.6807 7.2617 16.7493 7.42389 16.7493C7.58603 16.7493 7.70458 16.4873 7.60478 16.3064C7.60478 16.3064 7.9435 16.1751 7.87398 15.9035C7.82233 15.7016 7.56733 15.7638 7.56733 15.7638C7.56733 15.7638 7.29826 15.5947 7.11198 15.8137C6.95978 15.9928 7.04336 16.1132 6.78761 16.1443C6.5319 16.1755 6.49445 16.4375 6.22 16.4063C6.22 16.4063 6.40712 16.6496 6.69404 16.4937C6.69409 16.4936 6.68734 16.7286 6.15765 16.9053Z" fill="#5AA587"/>
<path d="M8.88381 17.3642C8.88381 17.3642 9.14683 17.599 8.63022 17.7399C8.63022 17.7399 8.66312 17.6976 8.70067 17.6225C8.70067 17.6225 8.54101 17.7399 8.3343 17.7305C8.3343 17.7305 8.39533 17.6835 8.40944 17.6271C8.40944 17.6271 8.22156 17.6788 8.08539 17.5896C8.08539 17.5896 8.24978 17.5801 8.35309 17.4252C8.35309 17.4252 8.40006 17.5191 8.49869 17.4721C8.59731 17.4252 8.65384 17.4927 8.7429 17.4956C8.8157 17.498 8.87912 17.4604 8.88381 17.3642Z" fill="#5AA587"/>
<path d="M8.75387 15.9145C8.75387 15.9145 8.56599 16.0021 8.6537 16.1681C8.71215 16.2787 8.89524 16.3053 8.96677 16.2025C9.02781 16.1149 8.97938 16.0298 8.91512 16.0178C8.84781 16.0052 8.80712 16.0334 8.77576 16.0898C8.77576 16.0898 8.65988 16.046 8.75387 15.9145Z" fill="#5AA587"/>
<path d="M9.59772 16.2065C9.59772 16.2065 10.0057 16.222 9.98519 16.5047C9.97619 16.6291 9.8079 16.716 9.70178 16.6507C9.61122 16.5951 9.62589 16.5024 9.67314 16.4612C9.72517 16.416 9.77664 16.4323 9.82773 16.4713C9.82773 16.4712 9.85365 16.3168 9.59772 16.2065Z" fill="#5AA587"/>
<path d="M10.4126 15.6569C10.4126 15.6569 10.6328 15.5092 10.7186 15.685C10.7562 15.7624 10.6859 15.8725 10.6 15.8704C10.5266 15.8685 10.5033 15.8081 10.5172 15.7672C10.5326 15.7222 10.569 15.7141 10.6129 15.7196C10.6129 15.7197 10.6263 15.6052 10.4126 15.6569Z" fill="#5AA587"/>
<path d="M10.7118 15.5472C10.7118 15.5472 10.9149 15.4109 10.994 15.5732C11.0288 15.6446 10.9639 15.7462 10.8846 15.7441C10.8169 15.7425 10.7954 15.6867 10.8083 15.649C10.8224 15.6075 10.856 15.6 10.8966 15.6051C10.8966 15.6051 10.9089 15.4996 10.7118 15.5472Z" fill="#5AA587"/>
<path d="M9.95099 16.4481C9.95099 16.4481 10.302 16.4614 10.2844 16.7047C10.2766 16.8117 10.1319 16.8865 10.0405 16.8303C9.96257 16.7824 9.95839 16.6945 9.99219 16.6526C10.0509 16.5798 10.1213 16.6127 10.1213 16.6127C10.1213 16.6127 10.1712 16.543 9.95099 16.4481Z" fill="#5AA587"/>
<path d="M10.2083 16.6408C10.2083 16.6408 10.5957 16.6033 10.5669 16.8648C10.5594 16.933 10.4694 16.9811 10.4109 16.9452C10.3611 16.9146 10.3584 16.8583 10.38 16.8315C10.4176 16.785 10.4626 16.806 10.4626 16.806C10.4626 16.806 10.4384 16.6902 10.2083 16.6408Z" fill="#5AA587"/>
<path d="M7.7231 17.8844C7.7231 17.8844 7.77611 17.992 7.81042 18.0965C7.83981 18.1859 7.99131 18.2462 8.07241 18.19C8.1535 18.1339 8.29042 17.9661 8.23431 17.9287C8.1782 17.8913 7.9352 17.9218 7.8978 17.7908C7.86034 17.6598 7.87286 17.5725 7.87286 17.5725C7.87286 17.5725 8.19794 17.6692 8.35295 17.425C8.50797 17.1807 8.4858 16.9423 8.54655 16.8239C8.59403 16.7314 8.67756 16.6867 8.67756 16.6867C8.58208 16.3086 7.41756 16.038 7.5527 17.0194L7.36975 17.4353L7.7231 17.8844Z" fill="#FFE6D7"/>
<path d="M7.3102 17.868C7.39008 17.9197 7.68281 18.0684 7.8644 17.9557C8.0129 17.8635 8.01473 17.7584 7.92079 17.7349C7.82686 17.7114 7.7752 17.7772 7.7235 17.7349C7.67184 17.6927 7.38061 17.4531 7.48865 17.378C7.5967 17.3028 7.65515 17.242 7.65304 17.1103C7.6515 17.0132 7.56693 16.9192 7.46672 16.9099C7.34179 16.8982 7.24439 16.9506 7.1129 16.9506L7.26632 17.0288C7.1677 17.0758 7.15987 17.2089 7.04245 17.2324C7.04245 17.2324 7.12233 17.3232 7.2225 17.295C7.2225 17.295 7.18804 17.3889 7.09411 17.4014C7.09411 17.4014 7.18176 17.5016 7.26318 17.5298C7.26318 17.5298 7.20998 17.5674 7.12701 17.5518C7.12701 17.5518 7.25695 17.7428 7.45106 17.7913L7.3102 17.868Z" fill="#5AA587"/>
<path d="M7.87599 17.5102C7.87599 17.5102 7.92816 17.5011 7.93261 17.4376C7.93519 17.401 7.89863 17.3535 7.83642 17.3571C7.76353 17.3613 7.71408 17.4581 7.749 17.5222C7.83839 17.6863 8.1712 17.6204 8.21189 17.561C8.21194 17.561 7.94583 17.5735 7.87599 17.5102Z" fill="#5AA587"/>
<path d="M8.03212 18.2909C8.0466 18.2705 8.05832 18.2154 8.03015 18.1813C8.03015 18.1813 8.04543 18.1026 8.10529 18.1308C8.10529 18.1308 8.13075 18.1938 8.11035 18.2377C8.09006 18.2815 8.03212 18.2909 8.03212 18.2909Z" fill="#FFE15A"/>
<path d="M8.15429 18.2467C8.15326 18.19 8.14051 18.1589 8.09476 18.1543C8.09476 18.1543 8.08304 18.0721 8.15115 18.0721C8.15115 18.0721 8.20164 18.1167 8.20211 18.165C8.20257 18.2134 8.15429 18.2467 8.15429 18.2467Z" fill="#FFE15A"/>
<path d="M8.22979 18.1917C8.21863 18.1361 8.20809 18.0973 8.15713 18.0936C8.15713 18.0936 8.13004 18.0263 8.20513 18.0169C8.20513 18.0169 8.25304 18.0553 8.26218 18.1028C8.27127 18.1502 8.22979 18.1917 8.22979 18.1917Z" fill="#FFE15A"/>
<path d="M8.3053 18.1054C8.28219 18.0536 8.25918 18.0328 8.20865 18.0403C8.20865 18.0403 8.16519 17.9793 8.2251 17.9464C8.2251 17.9464 8.29804 17.9672 8.3173 18.0115C8.33666 18.0559 8.3053 18.1054 8.3053 18.1054Z" fill="#FFE15A"/>
<path d="M9.19688 17.7878C9.20752 17.7652 9.2093 17.7088 9.17551 17.6803C9.17551 17.6803 9.17654 17.6002 9.24048 17.6173C9.24048 17.6173 9.27666 17.6748 9.26443 17.7215C9.25224 17.7682 9.19688 17.7878 9.19688 17.7878Z" fill="#FFE15A"/>
<path d="M9.30926 17.7227C9.2982 17.667 9.28015 17.6387 9.23426 17.6422C9.23426 17.6422 9.20815 17.5634 9.27513 17.5513C9.27513 17.5513 9.3327 17.5863 9.34174 17.6337C9.35079 17.6812 9.30926 17.7227 9.30926 17.7227Z" fill="#FFE15A"/>
<path d="M9.37376 17.6551C9.3529 17.6023 9.33565 17.5661 9.28479 17.5715C9.28479 17.5715 9.24617 17.51 9.3184 17.4875C9.3184 17.4875 9.37235 17.5168 9.38979 17.5618C9.40723 17.607 9.37376 17.6551 9.37376 17.6551Z" fill="#FFE15A"/>
<path d="M9.43284 17.5568C9.40087 17.5098 9.37453 17.4935 9.32615 17.5099C9.32615 17.5099 9.27257 17.4575 9.32564 17.4145C9.32564 17.4145 9.4011 17.422 9.42801 17.4622C9.45487 17.5024 9.43284 17.5568 9.43284 17.5568Z" fill="#FFE15A"/>
<path d="M10.7575 14.6649C10.7677 14.7158 10.7419 14.7714 10.6198 14.8246C10.4977 14.8778 10.5008 14.8559 10.4194 14.9592C10.338 15.0626 10.3286 15.0657 10.2284 15.0844C10.1282 15.1032 10.0813 15.4132 10.2002 15.3662C10.3192 15.3193 10.3349 15.2222 10.4663 15.2535C10.5978 15.2849 10.6667 15.3287 10.77 15.2129C10.77 15.2129 10.8702 15.3475 10.6824 15.4039C10.4945 15.4603 10.392 15.4646 10.2993 15.5078C10.2065 15.551 9.87741 15.6567 9.8558 15.3491C9.84952 15.2599 9.91528 15.2254 9.95287 15.1597C9.99042 15.0939 10.028 15.0501 10.1188 14.9781C10.2096 14.9061 10.1533 14.8466 10.3004 14.8246C10.4475 14.8027 10.5697 14.8058 10.6135 14.6994C10.6574 14.5929 10.745 14.6023 10.7575 14.6649Z" fill="#FFE6D7"/>
<path d="M8.29165 16.1575C8.29165 16.1575 8.26343 16.0453 8.39426 15.9978C8.36355 16.0071 8.33529 16.0155 8.30304 16.0254C8.27552 16.0339 8.25368 16.0418 8.22794 16.0501C8.21791 16.0636 8.20441 16.0708 8.19762 16.0898C8.15782 16.2012 8.25626 16.3459 8.37368 16.3301C8.4738 16.3166 8.50221 16.2285 8.46949 16.176C8.43513 16.121 8.35971 16.1082 8.29165 16.1575Z" fill="#5AA587"/>
<path d="M8.33214 17.3485C8.19016 17.3802 8.12627 17.3254 8.12627 17.3254C8.12627 17.3254 8.17844 17.3164 8.18289 17.2528C8.18547 17.2162 8.14891 17.1687 8.08671 17.1723C8.01382 17.1765 7.96436 17.2733 7.99933 17.3374C8.07625 17.4786 8.29474 17.4453 8.39102 17.3452C8.39608 17.3349 8.40133 17.3247 8.40588 17.3144C8.38483 17.3278 8.35788 17.3428 8.33214 17.3485Z" fill="#5AA587"/>
<path d="M8.47562 17.1112C8.47923 17.0952 8.48434 17.0789 8.48743 17.0636C8.32055 17.1311 8.2719 17.0461 8.2719 17.0461C8.2719 17.0461 8.32407 17.0371 8.32852 16.9736C8.3311 16.937 8.29454 16.8895 8.23234 16.8931C8.15945 16.8972 8.10999 16.994 8.14496 17.0582C8.22648 17.2078 8.37179 17.1661 8.47562 17.1112Z" fill="#5AA587"/>
<path d="M8.85098 17.1906C8.754 17.2775 8.67989 17.2727 8.67989 17.2727C8.67989 17.2727 8.7186 17.2367 8.68771 17.181C8.66985 17.1489 8.61332 17.1292 8.56317 17.1661C8.50434 17.2094 8.51578 17.3175 8.58009 17.3522C8.73843 17.4375 8.84118 17.3055 8.89612 17.1993C8.88117 17.1972 8.86598 17.1937 8.85098 17.1906Z" fill="#5AA587"/>
<path d="M11.351 17.107C11.344 17.0724 11.3077 17.0065 11.2631 17.002C11.2631 17.002 11.2105 16.9096 11.2703 16.8761C11.2703 16.8761 11.336 16.9116 11.3579 16.9752C11.3798 17.0387 11.351 17.107 11.351 17.107Z" fill="#FFE15A"/>
<path d="M11.3926 16.9393C11.3472 16.8849 11.3146 16.8676 11.2822 16.9097C11.2822 16.9097 11.2099 16.8414 11.2526 16.7721C11.2526 16.7721 11.3195 16.7641 11.358 16.8108C11.3965 16.8576 11.3926 16.9393 11.3926 16.9393Z" fill="#FFE15A"/>
<path d="M11.3965 16.8086C11.3455 16.7657 11.3084 16.7387 11.2734 16.787C11.2734 16.787 11.2033 16.7489 11.2429 16.6631C11.2429 16.6631 11.3033 16.6518 11.3465 16.6888C11.3897 16.7259 11.3965 16.8086 11.3965 16.8086Z" fill="#FFE15A"/>
<path d="M11.3755 16.6473C11.3201 16.6203 11.2892 16.6235 11.2635 16.6823C11.2635 16.6823 11.188 16.667 11.1996 16.5739C11.1996 16.5739 11.2617 16.5199 11.3089 16.5434C11.356 16.5668 11.3755 16.6473 11.3755 16.6473Z" fill="#FFE15A"/>
<path d="M10.1658 14.9278C10.2142 14.9278 10.2534 14.8885 10.2534 14.8401C10.2534 14.7917 10.2142 14.7524 10.1658 14.7524C10.1174 14.7524 10.0781 14.7917 10.0781 14.8401C10.0781 14.8885 10.1174 14.9278 10.1658 14.9278Z" fill="#F5F5F5"/>
<path d="M10.1658 14.8719C10.1833 14.8719 10.1976 14.8577 10.1976 14.8401C10.1976 14.8225 10.1833 14.8083 10.1658 14.8083C10.1482 14.8083 10.134 14.8225 10.134 14.8401C10.134 14.8577 10.1482 14.8719 10.1658 14.8719Z" fill="#41479B"/>
<path d="M10.3463 14.5912C10.3856 14.5912 10.4175 14.5593 10.4175 14.52C10.4175 14.4807 10.3856 14.4488 10.3463 14.4488C10.3069 14.4488 10.2751 14.4807 10.2751 14.52C10.2751 14.5593 10.3069 14.5912 10.3463 14.5912Z" fill="#F5F5F5"/>
<path d="M10.3463 14.5458C10.3605 14.5458 10.3721 14.5343 10.3721 14.52C10.3721 14.5057 10.3605 14.4942 10.3463 14.4942C10.332 14.4942 10.3204 14.5057 10.3204 14.52C10.3204 14.5343 10.332 14.5458 10.3463 14.5458Z" fill="#41479B"/>
<path d="M7.81747 16.2414C7.73638 16.3038 7.45583 16.1663 7.25858 16.232C7.00363 16.317 7.00574 16.4809 7.00574 16.4809C7.00574 16.4809 7.16464 16.2837 7.42921 16.3807C7.5756 16.4344 7.66072 16.4372 7.66072 16.4372L7.81747 16.2414Z" fill="#FFF5E6"/>
<path d="M12.4251 15.2787C12.3711 15.2716 12.303 15.2552 12.2982 15.173C12.2982 15.173 12.4203 15.1613 12.4203 15.1707C12.4203 15.18 12.4251 15.2787 12.4251 15.2787Z" fill="#FFE15A"/>
<path d="M13.6509 14.9735C13.5899 14.9907 13.5303 15.0033 13.5115 15.0784C13.5115 15.0784 13.4489 14.9532 13.5366 14.8781C13.5526 14.8643 13.6509 14.9735 13.6509 14.9735Z" fill="#FF4B55"/>
<path d="M13.391 14.7635C13.33 14.7807 13.2705 14.7933 13.2517 14.8684C13.2517 14.8684 13.189 14.7432 13.2767 14.6681C13.2926 14.6544 13.391 14.7635 13.391 14.7635Z" fill="#FF4B55"/>
<path d="M13.6321 15.1989C13.6696 15.1894 13.7354 15.1049 13.6509 14.9734C13.5663 14.842 13.9374 15.0392 13.9514 15.1473C13.9655 15.2553 13.9796 15.4478 13.895 15.3962C13.8105 15.3444 13.6321 15.1989 13.6321 15.1989Z" fill="#FFE15A"/>
<path d="M13.2297 15.2129C13.2172 15.144 13.2297 15.097 13.1421 15.0344C13.0544 14.9719 13.0419 14.9374 13.0419 14.8966C13.0419 14.8966 13.0896 14.9475 13.1742 14.9686C13.2259 14.9816 13.2705 15.0187 13.2705 15.0187C13.2705 15.0187 13.2924 14.9405 13.2141 14.8966C13.2141 14.8966 13.3519 14.8966 13.3737 15.0218C13.3957 15.147 13.3236 15.1659 13.4269 15.1784C13.5303 15.1909 13.7714 15.1409 13.8559 15.3318C13.9404 15.5228 13.6837 15.385 13.6148 15.36C13.5459 15.335 13.3268 15.3882 13.2923 15.3412C13.2579 15.2943 13.2297 15.2129 13.2297 15.2129Z" fill="#FF4B55"/>
<path d="M14.1323 15.5558L13.7613 14.9452C13.7613 14.9452 13.3926 14.8028 13.3895 14.7839C13.3863 14.7651 13.2674 14.6118 13.2674 14.5898C13.2674 14.5679 13.2799 14.4614 13.3268 14.4427C13.3738 14.4239 13.5233 14.487 13.5883 14.5036C13.6533 14.5202 13.7558 14.3989 13.7558 14.3989C13.7558 14.3989 14.3538 14.5116 14.3977 14.5836C14.4415 14.6556 14.6482 15.1722 14.6576 15.2255C14.667 15.2787 14.6576 15.6451 14.6451 15.6389C14.6325 15.6324 14.1323 15.5558 14.1323 15.5558Z" fill="#FFF5E6"/>
<path d="M13.2799 14.6963C13.2799 14.6963 13.3957 14.7683 13.4583 14.7902C13.521 14.8121 13.626 14.6948 13.6087 14.6306C13.5868 14.5492 13.4928 14.5492 13.449 14.4834C13.4052 14.4177 13.3019 14.4177 13.2455 14.499C13.189 14.5804 13.2799 14.6963 13.2799 14.6963ZM13.4273 14.6007C13.4541 14.5818 13.5079 14.5838 13.5075 14.6203C13.5071 14.6567 13.4426 14.6976 13.4169 14.6647C13.3959 14.638 13.4099 14.613 13.4273 14.6007ZM13.3014 14.5215C13.3171 14.4927 13.3663 14.4708 13.382 14.5036C13.3977 14.5365 13.3579 14.6017 13.3203 14.5836C13.2897 14.5689 13.2912 14.5404 13.3014 14.5215Z" fill="#FF4B55"/>
<path d="M13.1267 16.8676C13.0643 16.8739 12.9817 16.8653 12.9645 16.7241C12.9449 16.5623 12.8959 16.5058 12.8149 16.5432C12.7338 16.5807 12.7539 16.6453 12.7539 16.6453C12.7539 16.6453 12.6647 16.8802 12.7116 16.9741C12.7586 17.068 12.8666 17.1807 12.9465 17.1995C13.0263 17.2183 13.1907 17.1103 13.1907 17.1103L13.1267 16.8676Z" fill="#FFF5E6"/>
<path d="M13.5773 16.3213C13.5241 16.2963 12.8666 15.8391 12.7883 15.6669C12.71 15.4947 12.7538 15.3694 12.6504 15.3632C12.5471 15.3569 12.3718 15.3507 12.3874 15.2223C12.4031 15.0939 12.5753 15.1753 12.6223 15.1503C12.6692 15.1252 12.8164 15.0563 12.8446 15.1565C12.8728 15.2568 12.8446 15.3476 12.8853 15.3976C12.926 15.4477 13.1076 15.5354 13.1389 15.5291C13.1702 15.5228 13.237 15.5147 13.2882 15.547C13.3393 15.5793 13.3675 15.623 13.3675 15.623C13.3675 15.623 13.56 15.6309 13.5875 15.6567C13.6149 15.6825 13.7182 15.8203 13.7182 15.8203L13.5773 16.3213Z" fill="#FFE6D7"/>
<path d="M13.5084 16.218C13.5084 16.218 13.3832 16.171 13.2939 15.9972C13.2047 15.8234 13.1155 15.8938 12.984 15.7999C12.8525 15.706 12.937 15.5651 12.9745 15.5087C13.0121 15.4523 12.9863 15.3068 12.8571 15.3114C12.7721 15.3145 12.5002 15.5791 12.6223 15.8421C12.6223 15.8421 12.6411 15.7952 12.688 15.7388C12.688 15.7388 12.6175 15.9126 12.7819 16.1052C12.7819 16.1052 12.7772 16.0065 12.8289 15.9408C12.8289 15.9408 12.8336 16.185 13.0215 16.3399C13.0215 16.3399 12.998 16.1803 13.0261 16.1145C13.0261 16.1145 13.0543 16.3259 13.3314 16.5184C13.3314 16.5184 13.2892 16.4433 13.2985 16.3212L13.5334 16.4433L13.5084 16.218Z" fill="#5AA587"/>
<path d="M15.2947 17.0211C15.2947 17.0211 15.3792 17.2794 15.1491 17.3545C14.919 17.4297 14.7922 17.3311 14.7076 17.3545C14.6231 17.378 14.6419 17.5284 14.7593 17.6551C14.8767 17.7819 14.9941 17.796 15.1257 17.7021C15.2572 17.6081 15.2666 17.5236 15.4027 17.5565C15.5389 17.5894 15.7268 17.4579 15.7268 17.4579C15.7268 17.4579 15.6047 16.9271 15.5906 16.9318C15.5765 16.9365 15.2947 17.0211 15.2947 17.0211Z" fill="#F5DCD2"/>
<path d="M16.4888 16.3749C16.4888 16.3749 16.3267 16.2189 15.6966 16.0256C15.0666 15.8322 14.7298 15.7511 14.7298 15.7511L14.237 15.5952C14.237 15.5952 14.0051 15.5943 13.8529 15.5511C13.7007 15.5078 13.7006 15.5078 13.7006 15.5078C13.7006 15.5078 13.2951 16.0817 13.6007 16.6618L13.4947 16.7617C13.4947 16.7617 13.3832 16.7957 13.2986 16.8255C13.214 16.8553 13.2764 17.0174 13.2764 17.0174L13.6008 17.1671L14.5489 17.1234C14.5489 17.1234 14.5676 17.0798 14.8795 17.1795C15.1914 17.2793 15.3286 17.0548 15.9275 17.0361C16.5262 17.0174 16.4888 16.3749 16.4888 16.3749Z" fill="#FFF5E6"/>
<path d="M13.7932 14.1361C13.7932 14.1361 13.6977 14.2315 13.7494 14.3333C13.7494 14.3333 13.8558 14.2237 13.9435 14.1986C14.0784 14.1601 14.1063 14.2338 14.4045 14.248C14.5922 14.2568 14.668 14.4366 14.8515 14.3928C15.0479 14.3458 15.21 14.4358 15.21 14.4358C15.21 14.4358 15.0973 14.4218 15.0057 14.5087C14.9141 14.5955 14.7521 14.5767 14.7521 14.5767C14.7521 14.5767 14.9 14.6801 15.0245 14.6307C15.1489 14.5814 15.3274 14.673 15.3274 14.673C15.2946 14.6707 15.2218 14.6824 15.1395 14.7693C15.0574 14.8562 14.8741 14.835 14.8741 14.835C14.907 14.8749 14.9986 14.9195 15.0851 14.9029C15.2812 14.8653 15.4906 14.9529 15.4906 14.9529C15.4906 14.9529 15.3659 14.9092 15.1974 15.034C15.029 15.1587 14.8356 15.0839 14.8356 15.0839C14.8356 15.165 15.0044 15.4773 15.3039 15.4668C15.6768 15.4536 15.7713 15.6702 15.7713 15.6702C15.7713 15.6702 15.6216 15.6203 15.4282 15.6515C15.0536 15.712 14.7982 15.4956 14.7982 15.4956C14.7982 15.4956 14.8606 15.7887 15.1163 15.7763C15.372 15.7638 15.6964 16.0258 15.6964 16.0258C15.6964 16.0258 15.4082 15.9738 15.0361 15.9693C14.9137 15.9678 14.8142 15.9195 14.7291 15.8621C14.5053 15.711 14.2987 15.711 14.2987 15.711C14.5429 15.7674 14.6697 16.0351 14.6697 16.0351C14.6697 16.0351 14.4818 15.8707 14.2095 15.8707C13.9371 15.8707 13.8525 15.5513 13.8525 15.5513C14.1061 15.556 14.1437 15.3493 14.1437 15.3493C14.1437 15.3493 14.2189 15.3728 14.2893 15.4574C14.3339 15.5109 14.4092 15.529 14.4608 15.5362C14.4796 15.3715 14.3552 15.2212 14.3552 15.2212C14.3552 15.2212 14.5237 14.9655 14.3053 14.691C14.087 14.4165 13.5879 14.5038 13.5879 14.5038C13.5365 14.2738 13.7306 14.1297 13.7932 14.1361Z" fill="#5AA587"/>
<path d="M14.3004 15.0441C14.219 15.0315 13.8401 14.9062 13.8465 14.7372C13.8528 14.5682 14.0782 14.6276 14.0656 14.7184C14.0531 14.8092 13.9717 14.7904 13.9717 14.7904C13.9717 14.7904 13.9795 14.8313 14.147 14.8656C14.2848 14.8938 14.3004 15.0441 14.3004 15.0441Z" fill="#5AA587"/>
<path d="M13.2985 16.8256C13.2985 16.8256 13.0636 16.7881 13.073 16.9571C13.0825 17.1262 13.2171 17.3046 13.4957 17.383C13.4957 17.383 13.3923 17.2938 13.4158 17.2421C13.4393 17.1904 13.5567 17.1763 13.6178 17.2655C13.6788 17.3547 13.7822 17.3924 13.8714 17.3782C13.8714 17.3782 13.7117 17.2608 13.8244 17.2186C13.9259 17.1805 13.887 17.3454 14.1297 17.3735C14.1297 17.3735 13.9512 17.2326 14.0545 17.1951C14.1579 17.1575 14.2142 17.4017 14.3974 17.383C14.3974 17.383 14.244 17.2295 14.327 17.2045C14.4577 17.165 14.4914 17.3924 14.7262 17.2937C14.7262 17.2937 14.6087 17.2421 14.7027 17.1153C14.7966 16.9884 14.6651 16.8288 14.5993 16.763C14.5336 16.6973 14.4866 16.655 14.5054 16.5892C14.5054 16.5892 14.3379 16.6941 14.4224 16.8788C14.5018 17.0523 14.1805 16.9565 13.9308 16.9352C13.6741 16.9133 13.5218 17.0606 13.3578 17.0104C13.2045 16.9633 13.2985 16.8256 13.2985 16.8256Z" fill="#5AA587"/>
<path d="M17.8423 16.9053C17.8423 16.9053 17.5342 17.0473 17.3595 16.9039C17.1849 16.7604 17.1374 16.9302 16.9316 16.8054C16.7257 16.6807 16.7382 16.7493 16.576 16.7493C16.4139 16.7493 16.2953 16.4873 16.3951 16.3064C16.3951 16.3064 16.0564 16.1751 16.1259 15.9035C16.1776 15.7016 16.4326 15.7638 16.4326 15.7638C16.4326 15.7638 16.7016 15.5947 16.8879 15.8137C17.0401 15.9928 16.9566 16.1132 17.2123 16.1443C17.468 16.1755 17.5055 16.4375 17.7799 16.4063C17.7799 16.4063 17.5928 16.6496 17.3059 16.4937C17.3058 16.4936 17.3125 16.7286 17.8423 16.9053Z" fill="#5AA587"/>
<path d="M15.1161 17.3642C15.1161 17.3642 14.853 17.599 15.3696 17.7399C15.3696 17.7399 15.3367 17.6976 15.2992 17.6225C15.2992 17.6225 15.4588 17.7399 15.6656 17.7305C15.6656 17.7305 15.6045 17.6835 15.5904 17.6271C15.5904 17.6271 15.7783 17.6788 15.9145 17.5896C15.9145 17.5896 15.7501 17.5801 15.6468 17.4252C15.6468 17.4252 15.5998 17.5191 15.5012 17.4721C15.4026 17.4252 15.346 17.4927 15.2569 17.4956C15.1842 17.498 15.1208 17.4604 15.1161 17.3642Z" fill="#5AA587"/>
<path d="M15.246 15.9145C15.246 15.9145 15.4339 16.0021 15.3461 16.1681C15.2877 16.2787 15.1046 16.3053 15.0331 16.2025C14.972 16.1149 15.0205 16.0298 15.0847 16.0178C15.1521 16.0052 15.1927 16.0334 15.2241 16.0898C15.224 16.0898 15.3399 16.046 15.246 15.9145Z" fill="#5AA587"/>
<path d="M14.4022 16.2065C14.4022 16.2065 13.9942 16.222 14.0147 16.5047C14.0237 16.6291 14.192 16.716 14.2981 16.6507C14.3887 16.5951 14.374 16.5024 14.3268 16.4612C14.2747 16.416 14.2233 16.4323 14.1722 16.4713C14.1722 16.4712 14.1463 16.3168 14.4022 16.2065Z" fill="#5AA587"/>
<path d="M13.5873 15.6569C13.5873 15.6569 13.3671 15.5092 13.2814 15.685C13.2437 15.7624 13.314 15.8725 13.3999 15.8704C13.4733 15.8685 13.4966 15.8081 13.4827 15.7672C13.4674 15.7222 13.4309 15.7141 13.387 15.7196C13.387 15.7197 13.3737 15.6052 13.5873 15.6569Z" fill="#5AA587"/>
<path d="M13.2881 15.5472C13.2881 15.5472 13.085 15.4109 13.0059 15.5732C12.9711 15.6446 13.036 15.7462 13.1153 15.7441C13.1829 15.7425 13.2044 15.6867 13.1916 15.649C13.1774 15.6075 13.1439 15.6 13.1032 15.6051C13.1033 15.6051 13.091 15.4996 13.2881 15.5472Z" fill="#5AA587"/>
<path d="M14.0489 16.4481C14.0489 16.4481 13.6979 16.4614 13.7155 16.7047C13.7232 16.8117 13.868 16.8865 13.9594 16.8303C14.0373 16.7824 14.0415 16.6945 14.0077 16.6526C13.949 16.5798 13.8786 16.6127 13.8786 16.6127C13.8786 16.6127 13.8287 16.543 14.0489 16.4481Z" fill="#5AA587"/>
<path d="M13.7916 16.6408C13.7916 16.6408 13.4042 16.6033 13.433 16.8648C13.4405 16.933 13.5305 16.9811 13.589 16.9452C13.6388 16.9146 13.6415 16.8583 13.6198 16.8315C13.5823 16.785 13.5373 16.806 13.5373 16.806C13.5373 16.806 13.5615 16.6902 13.7916 16.6408Z" fill="#5AA587"/>
<path d="M16.2768 17.8844C16.2768 17.8844 16.2238 17.992 16.1895 18.0965C16.1601 18.1859 16.0086 18.2462 15.9275 18.19C15.8464 18.1339 15.7095 17.9661 15.7656 17.9287C15.8217 17.8913 16.0647 17.9218 16.1021 17.7908C16.1396 17.6598 16.1271 17.5725 16.1271 17.5725C16.1271 17.5725 15.802 17.6692 15.647 17.425C15.492 17.1807 15.5141 16.9423 15.4534 16.8239C15.4059 16.7314 15.3224 16.6867 15.3224 16.6867C15.4178 16.3086 16.5824 16.038 16.4472 17.0194L16.6302 17.4353L16.2768 17.8844Z" fill="#FFE6D7"/>
<path d="M16.6895 17.8678C16.6096 17.9195 16.3169 18.0682 16.1353 17.9555C15.9868 17.8633 15.9849 17.7582 16.0789 17.7347C16.1728 17.7112 16.2245 17.777 16.2762 17.7347C16.3278 17.6925 16.6191 17.4529 16.511 17.3778C16.403 17.3026 16.3445 17.2418 16.3466 17.11C16.3482 17.013 16.4327 16.919 16.5329 16.9097C16.6579 16.898 16.7553 16.9503 16.8868 16.9503L16.7333 17.0286C16.832 17.0756 16.8398 17.2087 16.9572 17.2322C16.9572 17.2322 16.8773 17.323 16.7772 17.2948C16.7772 17.2948 16.8116 17.3887 16.9056 17.4012C16.9056 17.4012 16.8179 17.5014 16.7365 17.5296C16.7365 17.5296 16.7897 17.5672 16.8727 17.5516C16.8727 17.5516 16.7427 17.7426 16.5486 17.7911L16.6895 17.8678Z" fill="#5AA587"/>
<path d="M16.1237 17.5102C16.1237 17.5102 16.0715 17.5011 16.0671 17.4376C16.0645 17.401 16.101 17.3535 16.1632 17.3571C16.2361 17.3612 16.2856 17.458 16.2507 17.5222C16.1613 17.6863 15.8285 17.6204 15.7878 17.5609C15.7877 17.5609 16.0538 17.5735 16.1237 17.5102Z" fill="#5AA587"/>
<path d="M15.9679 18.2909C15.9534 18.2706 15.9417 18.2154 15.9699 18.1813C15.9699 18.1813 15.9546 18.1026 15.8948 18.1308C15.8948 18.1308 15.8693 18.1938 15.8897 18.2377C15.91 18.2815 15.9679 18.2909 15.9679 18.2909Z" fill="#FFE15A"/>
<path d="M15.8457 18.2467C15.8468 18.19 15.8595 18.1589 15.9053 18.1543C15.9053 18.1543 15.917 18.0721 15.8489 18.0721C15.8489 18.0721 15.7984 18.1167 15.7979 18.165C15.7975 18.2134 15.8457 18.2467 15.8457 18.2467Z" fill="#FFE15A"/>
<path d="M15.7703 18.1917C15.7814 18.1361 15.792 18.0973 15.8429 18.0936C15.8429 18.0936 15.87 18.0263 15.7949 18.0169C15.7949 18.0169 15.747 18.0553 15.7379 18.1028C15.7287 18.1501 15.7703 18.1917 15.7703 18.1917Z" fill="#FFE15A"/>
<path d="M15.6947 18.1054C15.7178 18.0536 15.7408 18.0328 15.7914 18.0403C15.7914 18.0403 15.8348 17.9793 15.7749 17.9464C15.7749 17.9464 15.702 17.9672 15.6826 18.0115C15.6634 18.0559 15.6947 18.1054 15.6947 18.1054Z" fill="#FFE15A"/>
<path d="M14.8032 17.7878C14.7925 17.7652 14.7908 17.7088 14.8246 17.6803C14.8246 17.6803 14.8235 17.6002 14.7595 17.6173C14.7595 17.6173 14.7234 17.6748 14.7355 17.7215C14.7479 17.7682 14.8032 17.7878 14.8032 17.7878Z" fill="#FFE15A"/>
<path d="M14.6908 17.7227C14.7018 17.667 14.7199 17.6387 14.7658 17.6422C14.7658 17.6422 14.7919 17.5634 14.7249 17.5513C14.7249 17.5513 14.6673 17.5863 14.6583 17.6337C14.6492 17.6813 14.6908 17.7227 14.6908 17.7227Z" fill="#FFE15A"/>
<path d="M14.6262 17.6551C14.6471 17.6023 14.6643 17.5661 14.7152 17.5715C14.7152 17.5715 14.7538 17.51 14.6816 17.4875C14.6816 17.4875 14.6276 17.5168 14.6102 17.5618C14.5928 17.607 14.6262 17.6551 14.6262 17.6551Z" fill="#FFE15A"/>
<path d="M14.5672 17.5566C14.5991 17.5097 14.6255 17.4934 14.6738 17.5098C14.6738 17.5098 14.7274 17.4574 14.6744 17.4144C14.6744 17.4144 14.5989 17.4219 14.572 17.462C14.5451 17.5023 14.5672 17.5566 14.5672 17.5566Z" fill="#FFE15A"/>
<path d="M13.2423 14.6649C13.2321 14.7158 13.2579 14.7714 13.3801 14.8246C13.5023 14.8778 13.4991 14.8559 13.5805 14.9592C13.6619 15.0626 13.6713 15.0657 13.7715 15.0844C13.8717 15.1032 13.9187 15.4132 13.7997 15.3662C13.6807 15.3193 13.6651 15.2222 13.5336 15.2535C13.4021 15.2849 13.3332 15.3287 13.2299 15.2129C13.2299 15.2129 13.1297 15.3475 13.3175 15.4039C13.5054 15.4603 13.6079 15.4646 13.7006 15.5078C13.7934 15.551 14.1225 15.6567 14.1441 15.3491C14.1504 15.2599 14.0846 15.2254 14.047 15.1597C14.0095 15.0939 13.9719 15.0501 13.8811 14.9781C13.7903 14.9061 13.8467 14.8466 13.6995 14.8246C13.5524 14.8027 13.4302 14.8058 13.3864 14.6994C13.3425 14.5929 13.2548 14.6023 13.2423 14.6649Z" fill="#FFE6D7"/>
<path d="M15.7079 16.1575C15.7079 16.1575 15.7362 16.0453 15.6053 15.9978C15.636 16.0071 15.6643 16.0155 15.6966 16.0254C15.7241 16.0339 15.746 16.0418 15.7717 16.0501C15.7817 16.0636 15.7952 16.0708 15.802 16.0898C15.8418 16.2012 15.7434 16.3459 15.626 16.3301C15.5258 16.3166 15.4974 16.2285 15.5302 16.176C15.5644 16.121 15.6398 16.1082 15.7079 16.1575Z" fill="#5AA587"/>
<path d="M15.6674 17.3485C15.8094 17.3802 15.8733 17.3254 15.8733 17.3254C15.8733 17.3254 15.8211 17.3164 15.8166 17.2528C15.8141 17.2162 15.8506 17.1687 15.9128 17.1723C15.9857 17.1765 16.0352 17.2733 16.0002 17.3374C15.9233 17.4786 15.7048 17.4453 15.6085 17.3452C15.6035 17.3349 15.5982 17.3247 15.5937 17.3144C15.6148 17.3278 15.6417 17.3428 15.6674 17.3485Z" fill="#5AA587"/>
<path d="M15.524 17.1112C15.5203 17.0952 15.5152 17.0789 15.5121 17.0636C15.679 17.1311 15.7277 17.0461 15.7277 17.0461C15.7277 17.0461 15.6755 17.0371 15.6711 16.9736C15.6685 16.937 15.705 16.8895 15.7672 16.8931C15.8401 16.8972 15.8896 16.994 15.8546 17.0582C15.7731 17.2078 15.6277 17.1661 15.524 17.1112Z" fill="#5AA587"/>
<path d="M15.1485 17.1906C15.2455 17.2775 15.3196 17.2727 15.3196 17.2727C15.3196 17.2727 15.2809 17.2367 15.3118 17.181C15.3297 17.1489 15.3862 17.1292 15.4363 17.1661C15.4952 17.2094 15.4837 17.3175 15.4194 17.3522C15.2611 17.4375 15.1583 17.3055 15.1034 17.1993C15.1183 17.1972 15.1335 17.1937 15.1485 17.1906Z" fill="#5AA587"/>
<path d="M12.649 17.107C12.656 17.0724 12.6922 17.0065 12.7368 17.002C12.7368 17.002 12.7894 16.9096 12.7296 16.8761C12.7296 16.8761 12.6639 16.9116 12.642 16.9752C12.6201 17.0387 12.649 17.107 12.649 17.107Z" fill="#FFE15A"/>
<path d="M12.6073 16.9393C12.6528 16.8849 12.6853 16.8676 12.7178 16.9097C12.7178 16.9097 12.7901 16.8414 12.7474 16.7721C12.7474 16.7721 12.6805 16.7641 12.642 16.8108C12.6034 16.8575 12.6073 16.9393 12.6073 16.9393Z" fill="#FFE15A"/>
<path d="M12.6034 16.8086C12.6544 16.7657 12.6916 16.7387 12.7265 16.787C12.7265 16.787 12.7967 16.7489 12.757 16.6631C12.757 16.6631 12.6966 16.6518 12.6534 16.6888C12.6102 16.7259 12.6034 16.8086 12.6034 16.8086Z" fill="#FFE15A"/>
<path d="M12.6243 16.6475C12.6797 16.6205 12.7106 16.6236 12.7363 16.6825C12.7363 16.6825 12.8118 16.6672 12.8002 16.574C12.8002 16.574 12.7381 16.52 12.6909 16.5435C12.6438 16.567 12.6243 16.6475 12.6243 16.6475Z" fill="#FFE15A"/>
<path d="M13.8342 14.9278C13.8826 14.9278 13.9219 14.8885 13.9219 14.8401C13.9219 14.7917 13.8826 14.7524 13.8342 14.7524C13.7858 14.7524 13.7466 14.7917 13.7466 14.8401C13.7466 14.8885 13.7858 14.9278 13.8342 14.9278Z" fill="#F5F5F5"/>
<path d="M13.8342 14.8719C13.8518 14.8719 13.866 14.8577 13.866 14.8401C13.866 14.8225 13.8518 14.8083 13.8342 14.8083C13.8167 14.8083 13.8024 14.8225 13.8024 14.8401C13.8024 14.8577 13.8167 14.8719 13.8342 14.8719Z" fill="#41479B"/>
<path d="M13.6533 14.5912C13.6926 14.5912 13.7245 14.5593 13.7245 14.52C13.7245 14.4807 13.6926 14.4488 13.6533 14.4488C13.614 14.4488 13.5821 14.4807 13.5821 14.52C13.5821 14.5593 13.614 14.5912 13.6533 14.5912Z" fill="#F5F5F5"/>
<path d="M13.6533 14.5458C13.6675 14.5458 13.6791 14.5343 13.6791 14.52C13.6791 14.5057 13.6675 14.4942 13.6533 14.4942C13.639 14.4942 13.6274 14.5057 13.6274 14.52C13.6274 14.5343 13.639 14.5458 13.6533 14.5458Z" fill="#41479B"/>
<path d="M16.1824 16.2414C16.2635 16.3038 16.544 16.1663 16.7413 16.232C16.9962 16.317 16.9941 16.4809 16.9941 16.4809C16.9941 16.4809 16.8352 16.2837 16.5706 16.3807C16.4242 16.4344 16.3391 16.4372 16.3391 16.4372L16.1824 16.2414Z" fill="#FFF5E6"/>
</svg>
