<svg xmlns="http://www.w3.org/2000/svg" width="24" height="24" viewBox="0 0 24 24" fill="none"><rect width="24" height="24" fill="none"/>
<path d="M22.2025 4.13791H1.79742C0.804702 4.13791 0 4.94266 0 5.93533V9.37927H24V5.93533C24 4.94266 23.1953 4.13791 22.2025 4.13791Z" fill="#73AF00"/>
<path d="M0 18.0646C0 19.0573 0.804702 19.8621 1.79742 19.8621H22.2025C23.1952 19.8621 24 19.0574 24 18.0646V14.6207H0V18.0646Z" fill="#FF4B55"/>
<path d="M24 9.3793H0V14.6204H24V9.3793Z" fill="#F5F5F5"/>
<path d="M0.0650624 9.10196H0.0687186C0.104672 9.10196 0.133828 9.07285 0.133828 9.0369V8.8959C0.133828 8.85995 0.162937 8.83084 0.198937 8.83084H0.472077C0.50803 8.83084 0.537186 8.85995 0.537186 8.8959V9.0369C0.537186 9.07285 0.566296 9.10196 0.602296 9.10196H1.14145C1.1774 9.10196 1.20651 9.07285 1.20651 9.0369V8.75851C1.20651 8.72256 1.1774 8.69345 1.14145 8.69345H0.870045C0.834092 8.69345 0.804983 8.72256 0.804983 8.75851V8.76568C0.804983 8.80163 0.834092 8.83074 0.870045 8.83074H1.00762C1.04358 8.83074 1.07273 8.85985 1.07273 8.89581V8.90288C1.07273 8.93884 1.04362 8.96795 1.00762 8.96795H0.736124C0.700171 8.96795 0.671014 8.93884 0.671014 8.90288V8.75846C0.671014 8.72251 0.641858 8.6934 0.605905 8.6934H0.0650624C0.0291093 8.6934 0 8.72251 0 8.75846V9.03685C0 9.07276 0.0291093 9.10196 0.0650624 9.10196ZM0.334546 9.10196H0.338249C0.374202 9.10196 0.403312 9.07285 0.403312 9.0369V9.0332C0.403312 8.99724 0.374202 8.96813 0.338249 8.96813H0.334546C0.298593 8.96813 0.269437 8.99729 0.269437 9.0332V9.0369C0.269437 9.07276 0.298593 9.10196 0.334546 9.10196ZM0.0650624 8.5561H1.67864C1.71459 8.5561 1.74375 8.52699 1.74375 8.49104V8.48392C1.74375 8.44796 1.71464 8.41885 1.67864 8.41885H0.0650624C0.0291093 8.41885 0 8.44796 0 8.48392V8.49104C0 8.52699 0.0291093 8.5561 0.0650624 8.5561ZM1.67864 9.10196H1.40723C1.37128 9.10196 1.34212 9.07285 1.34212 9.0369V8.75851C1.34212 8.72256 1.37123 8.69345 1.40723 8.69345H1.81256C1.84851 8.69345 1.87767 8.66429 1.87767 8.62838V8.48396C1.87767 8.44801 1.90678 8.4189 1.94273 8.4189H1.94634C1.98229 8.4189 2.01145 8.44801 2.01145 8.48396V8.90303C2.01145 8.93898 2.04056 8.96809 2.07651 8.96809H2.08021C2.11617 8.96809 2.14528 8.93898 2.14528 8.90303V8.48396C2.14528 8.44801 2.17439 8.4189 2.21034 8.4189H2.21395C2.2499 8.4189 2.27906 8.44801 2.27906 8.48396V8.90303C2.27906 8.93898 2.30817 8.96809 2.34412 8.96809H2.34951C2.38546 8.96809 2.41462 8.93898 2.41462 8.90303V8.48396C2.41462 8.44801 2.44373 8.4189 2.47968 8.4189H2.48165C2.5176 8.4189 2.54671 8.44801 2.54671 8.48396V9.03695C2.54671 9.0729 2.5176 9.10201 2.48165 9.10201H1.94282C1.90687 9.10201 1.87776 9.0729 1.87776 9.03695V8.89595C1.87776 8.85999 1.84865 8.83088 1.81265 8.83088H1.54125C1.50529 8.83088 1.47614 8.85999 1.47614 8.89595V8.90303C1.47614 8.93898 1.50525 8.96809 1.54125 8.96809H1.67873C1.71468 8.96809 1.74384 8.99724 1.74384 9.03315V9.03685C1.74379 9.07276 1.71459 9.10196 1.67864 9.10196Z" fill="#F5F5F5"/>
<path d="M2.74771 9.10214H2.7531C2.78905 9.10214 2.81821 9.07304 2.81821 9.03708V8.89608C2.81821 8.86013 2.84732 8.83102 2.88327 8.83102H3.15299C3.18894 8.83102 3.2181 8.86013 3.2181 8.89608V9.03708C3.2181 9.07304 3.24721 9.10214 3.28316 9.10214H3.82232C3.85827 9.10214 3.88738 9.07304 3.88738 9.03708V8.75869C3.88738 8.72274 3.85827 8.69363 3.82232 8.69363H3.55091C3.51496 8.69363 3.4858 8.72274 3.4858 8.75869V8.76586C3.4858 8.80182 3.51491 8.83093 3.55091 8.83093H3.68849C3.72444 8.83093 3.75355 8.86004 3.75355 8.89599V8.90307C3.75355 8.93902 3.72444 8.96813 3.68849 8.96813H3.41699C3.38104 8.96813 3.35193 8.93902 3.35193 8.90307V8.75865C3.35193 8.72269 3.32282 8.69358 3.28687 8.69358H2.74771C2.71176 8.69358 2.68265 8.72269 2.68265 8.75865V9.03704C2.68265 9.07294 2.7118 9.10214 2.74771 9.10214ZM3.01551 9.10214H3.01916C3.05512 9.10214 3.08422 9.07304 3.08422 9.03708V9.03338C3.08422 8.99743 3.05512 8.96832 3.01916 8.96832H3.01551C2.97955 8.96832 2.95044 8.99747 2.95044 9.03338V9.03708C2.95044 9.07294 2.97955 9.10214 3.01551 9.10214ZM2.74771 8.55629H4.3596C4.39555 8.55629 4.42471 8.52718 4.42471 8.49122V8.4841C4.42471 8.44815 4.3956 8.41904 4.3596 8.41904H2.74771C2.71176 8.41904 2.68265 8.44815 2.68265 8.4841V8.49122C2.68265 8.52718 2.7118 8.55629 2.74771 8.55629ZM4.35964 9.10214H4.0865C4.05055 9.10214 4.0214 9.07304 4.0214 9.03708V8.75869C4.0214 8.72274 4.0505 8.69363 4.0865 8.69363H4.49188C4.52783 8.69363 4.55694 8.66447 4.55694 8.62857V8.48415C4.55694 8.44819 4.58605 8.41908 4.62205 8.41908H4.62744C4.66339 8.41908 4.6925 8.44819 4.6925 8.48415V8.90321C4.6925 8.93916 4.72161 8.96827 4.75761 8.96827H4.763C4.79896 8.96827 4.82811 8.93916 4.82811 8.90321V8.48415C4.82811 8.44819 4.85722 8.41908 4.89322 8.41908H4.89519C4.93114 8.41908 4.96025 8.44819 4.96025 8.48415V8.90321C4.96025 8.93916 4.98936 8.96827 5.02536 8.96827H5.03075C5.06671 8.96827 5.09586 8.93916 5.09586 8.90321V8.48415C5.09586 8.44819 5.12497 8.41908 5.16092 8.41908H5.16458C5.20053 8.41908 5.22964 8.44819 5.22964 8.48415V9.03713C5.22964 9.07308 5.20053 9.10219 5.16458 9.10219H4.62205C4.5861 9.10219 4.55694 9.07308 4.55694 9.03713V8.89613C4.55694 8.86018 4.52783 8.83107 4.49188 8.83107H4.22216C4.18621 8.83107 4.1571 8.86018 4.1571 8.89613V8.90321C4.1571 8.93916 4.18621 8.96827 4.22216 8.96827H4.35974C4.39569 8.96827 4.42485 8.99743 4.42485 9.03333V9.03704C4.42471 9.07294 4.3956 9.10214 4.35964 9.10214Z" fill="#F5F5F5"/>
<path d="M5.42877 9.10214H5.43238C5.46833 9.10214 5.49744 9.07304 5.49744 9.03708V8.89608C5.49744 8.86013 5.52655 8.83102 5.56251 8.83102H5.834C5.86996 8.83102 5.89907 8.86013 5.89907 8.89608V9.03708C5.89907 9.07304 5.92822 9.10214 5.96418 9.10214H6.50502C6.54097 9.10214 6.57013 9.07304 6.57013 9.03708V8.75869C6.57013 8.72274 6.54102 8.69363 6.50502 8.69363H6.23361C6.19766 8.69363 6.1685 8.72274 6.1685 8.75869V8.76586C6.1685 8.80182 6.19761 8.83093 6.23361 8.83093H6.37119C6.40714 8.83093 6.4363 8.86004 6.4363 8.89599V8.90307C6.4363 8.93902 6.40719 8.96813 6.37119 8.96813H6.09805C6.0621 8.96813 6.03299 8.93902 6.03299 8.90307V8.75865C6.03299 8.72269 6.00388 8.69358 5.96793 8.69358H5.42877C5.39282 8.69358 5.36371 8.72269 5.36371 8.75865V9.03704C5.36361 9.07294 5.39282 9.10214 5.42877 9.10214ZM5.69652 9.10214H5.70018C5.73613 9.10214 5.76524 9.07304 5.76524 9.03708V9.03338C5.76524 8.99743 5.73613 8.96832 5.70018 8.96832H5.69652C5.66057 8.96832 5.63146 8.99747 5.63146 9.03338V9.03708C5.63141 9.07294 5.66057 9.10214 5.69652 9.10214ZM5.42877 8.55629H7.04239C7.07835 8.55629 7.1075 8.52718 7.1075 8.49122V8.4841C7.1075 8.44815 7.07839 8.41904 7.04239 8.41904H5.42877C5.39282 8.41904 5.36371 8.44815 5.36371 8.4841V8.49122C5.36361 8.52718 5.39282 8.55629 5.42877 8.55629ZM7.04239 9.10214H6.76925C6.7333 9.10214 6.70414 9.07304 6.70414 9.03708V8.75869C6.70414 8.72274 6.73325 8.69363 6.76925 8.69363H7.17453C7.21049 8.69363 7.2396 8.66447 7.2396 8.62857V8.48415C7.2396 8.44819 7.26875 8.41908 7.3047 8.41908H7.30841C7.34436 8.41908 7.37347 8.44819 7.37347 8.48415V8.90321C7.37347 8.93916 7.40263 8.96827 7.43858 8.96827H7.44397C7.47992 8.96827 7.50908 8.93916 7.50908 8.90321V8.48415C7.50908 8.44819 7.53819 8.41908 7.57414 8.41908H7.57958C7.61553 8.41908 7.64464 8.44819 7.64464 8.48415V8.90321C7.64464 8.93916 7.6738 8.96827 7.7097 8.96827H7.71167C7.74763 8.96827 7.77678 8.93916 7.77678 8.90321V8.48415C7.77678 8.44819 7.80589 8.41908 7.84184 8.41908H7.8455C7.88145 8.41908 7.91056 8.44819 7.91056 8.48415V9.03713C7.91056 9.07308 7.88141 9.10219 7.8455 9.10219H7.30456C7.26861 9.10219 7.23946 9.07308 7.23946 9.03713V8.89613C7.23946 8.86018 7.21035 8.83107 7.17439 8.83107H6.90299C6.86703 8.83107 6.83788 8.86018 6.83788 8.89613V8.90321C6.83788 8.93916 6.86699 8.96827 6.90299 8.96827H7.04235C7.0783 8.96827 7.10746 8.99743 7.10746 9.03333V9.03704C7.1075 9.07294 7.07835 9.10214 7.04239 9.10214Z" fill="#F5F5F5"/>
<path d="M8.10969 9.10214H8.1133C8.14925 9.10214 8.17836 9.07304 8.17836 9.03708V8.89608C8.17836 8.86013 8.20752 8.83102 8.24342 8.83102H8.51483C8.55078 8.83102 8.57994 8.86013 8.57994 8.89608V9.03708C8.57994 9.07304 8.60905 9.10214 8.64505 9.10214H9.18598C9.22194 9.10214 9.25105 9.07304 9.25105 9.03708V8.75869C9.25105 8.72274 9.22194 8.69363 9.18598 8.69363H8.91284C8.87689 8.69363 8.84773 8.72274 8.84773 8.75869V8.76586C8.84773 8.80182 8.87689 8.83093 8.91284 8.83093H9.05042C9.08637 8.83093 9.11548 8.86004 9.11548 8.89599V8.90307C9.11548 8.93902 9.08637 8.96813 9.05042 8.96813H8.77901C8.74306 8.96813 8.71395 8.93902 8.71395 8.90307V8.75865C8.71395 8.72269 8.6848 8.69358 8.64884 8.69358H8.10969C8.07374 8.69358 8.04458 8.72269 8.04458 8.75865V9.03704C8.04463 9.07294 8.07378 9.10214 8.10969 9.10214ZM8.37748 9.10214H8.38109C8.41705 9.10214 8.44616 9.07304 8.44616 9.03708V9.03338C8.44616 8.99743 8.41705 8.96832 8.38109 8.96832H8.37748C8.34153 8.96832 8.31237 8.99747 8.31237 9.03338V9.03708C8.31237 9.07294 8.34153 9.10214 8.37748 9.10214ZM8.10969 8.55629H9.72158C9.75753 8.55629 9.78664 8.52718 9.78664 8.49122V8.4841C9.78664 8.44815 9.75753 8.41904 9.72158 8.41904H8.10969C8.07374 8.41904 8.04458 8.44815 8.04458 8.4841V8.49122C8.04463 8.52718 8.07378 8.55629 8.10969 8.55629ZM9.72162 9.10214H9.44848C9.41253 9.10214 9.38342 9.07304 9.38342 9.03708V8.75869C9.38342 8.72274 9.41253 8.69363 9.44848 8.69363H9.85728C9.89323 8.69363 9.92239 8.66447 9.92239 8.62857V8.48415C9.92239 8.44819 9.9515 8.41908 9.98745 8.41908H9.99111C10.0271 8.41908 10.0562 8.44819 10.0562 8.48415V8.90321C10.0562 8.93916 10.0853 8.96827 10.1212 8.96827H10.1232C10.1592 8.96827 10.1883 8.93916 10.1883 8.90321V8.48415C10.1883 8.44819 10.2174 8.41908 10.2534 8.41908H10.2588C10.2948 8.41908 10.3239 8.44819 10.3239 8.48415V8.90321C10.3239 8.93916 10.353 8.96827 10.3889 8.96827H10.3926C10.4286 8.96827 10.4577 8.93916 10.4577 8.90321V8.48415C10.4577 8.44819 10.4869 8.41908 10.5228 8.41908H10.5264C10.5624 8.41908 10.5915 8.44819 10.5915 8.48415V9.03713C10.5915 9.07308 10.5624 9.10219 10.5264 9.10219H9.98731C9.95136 9.10219 9.92225 9.07308 9.92225 9.03713V8.89613C9.92225 8.86018 9.89314 8.83107 9.85714 8.83107H9.584C9.54804 8.83107 9.51889 8.86018 9.51889 8.89613V8.90321C9.51889 8.93916 9.54804 8.96827 9.584 8.96827H9.72158C9.75753 8.96827 9.78664 8.99743 9.78664 9.03333V9.03704C9.78668 9.07294 9.75758 9.10214 9.72162 9.10214Z" fill="#F5F5F5"/>
<path d="M10.7906 9.10214H10.7943C10.8303 9.10214 10.8594 9.07304 10.8594 9.03708V8.89608C10.8594 8.86013 10.8885 8.83102 10.9244 8.83102H11.1958C11.2318 8.83102 11.2609 8.86013 11.2609 8.89608V9.03708C11.2609 9.07304 11.2901 9.10214 11.326 9.10214H11.8669C11.9029 9.10214 11.932 9.07304 11.932 9.03708V8.75869C11.932 8.72274 11.9029 8.69363 11.8669 8.69363H11.5938C11.5579 8.69363 11.5287 8.72274 11.5287 8.75869V8.76586C11.5287 8.80182 11.5579 8.83093 11.5938 8.83093H11.733C11.769 8.83093 11.7981 8.86004 11.7981 8.89599V8.90307C11.7981 8.93902 11.7689 8.96813 11.733 8.96813H11.4616C11.4257 8.96813 11.3966 8.93902 11.3966 8.90307V8.75865C11.3966 8.72269 11.3674 8.69358 11.3314 8.69358H10.7905C10.7546 8.69358 10.7254 8.72269 10.7254 8.75865V9.03704C10.7255 9.07294 10.7547 9.10214 10.7906 9.10214ZM11.0601 9.10214H11.0621C11.0981 9.10214 11.1272 9.07304 11.1272 9.03708V9.03338C11.1272 8.99743 11.0981 8.96832 11.0621 8.96832H11.0601C11.0242 8.96832 10.9951 8.99747 10.9951 9.03338V9.03708C10.995 9.07294 11.0242 9.10214 11.0601 9.10214ZM10.7906 8.55629H12.4043C12.4402 8.55629 12.4693 8.52718 12.4693 8.49122V8.4841C12.4693 8.44815 12.4402 8.41904 12.4043 8.41904H10.7906C10.7547 8.41904 10.7255 8.44815 10.7255 8.4841V8.49122C10.7255 8.52718 10.7547 8.55629 10.7906 8.55629ZM12.4043 9.10214H12.1312C12.0952 9.10214 12.0661 9.07304 12.0661 9.03708V8.75869C12.0661 8.72274 12.0952 8.69363 12.1312 8.69363H12.5382C12.5742 8.69363 12.6033 8.66447 12.6033 8.62857V8.48415C12.6033 8.44819 12.6325 8.41908 12.6684 8.41908H12.672C12.708 8.41908 12.7371 8.44819 12.7371 8.48415V8.90321C12.7371 8.93916 12.7662 8.96827 12.8021 8.96827H12.8059C12.8418 8.96827 12.8709 8.93916 12.8709 8.90321V8.48415C12.8709 8.44819 12.9001 8.41908 12.936 8.41908H12.9396C12.9756 8.41908 13.0047 8.44819 13.0047 8.48415V8.90321C13.0047 8.93916 13.0339 8.96827 13.0698 8.96827H13.0734C13.1093 8.96827 13.1384 8.93916 13.1384 8.90321V8.48415C13.1384 8.44819 13.1676 8.41908 13.2035 8.41908H13.2072C13.2432 8.41908 13.2724 8.44819 13.2724 8.48415V9.03713C13.2724 9.07308 13.2432 9.10219 13.2072 9.10219H12.6681C12.6321 9.10219 12.603 9.07308 12.603 9.03713V8.89613C12.603 8.86018 12.5739 8.83107 12.5379 8.83107H12.2648C12.2288 8.83107 12.1997 8.86018 12.1997 8.89613V8.90321C12.1997 8.93916 12.2288 8.96827 12.2648 8.96827H12.404C12.4399 8.96827 12.4691 8.99743 12.4691 9.03333V9.03704C12.4694 9.07294 12.4403 9.10214 12.4043 9.10214Z" fill="#F5F5F5"/>
<path d="M13.4716 9.10214H13.4753C13.5113 9.10214 13.5404 9.07304 13.5404 9.03708V8.89608C13.5404 8.86013 13.5695 8.83102 13.6055 8.83102H13.8769C13.9129 8.83102 13.942 8.86013 13.942 8.89608V9.03708C13.942 9.07304 13.9712 9.10214 14.0071 9.10214H14.548C14.584 9.10214 14.6132 9.07304 14.6132 9.03708V8.75869C14.6132 8.72274 14.584 8.69363 14.548 8.69363H14.2765C14.2406 8.69363 14.2115 8.72274 14.2115 8.75869V8.76586C14.2115 8.80182 14.2406 8.83093 14.2765 8.83093H14.4125C14.4484 8.83093 14.4776 8.86004 14.4776 8.89599V8.90307C14.4776 8.93902 14.4484 8.96813 14.4125 8.96813H14.1428C14.1068 8.96813 14.0777 8.93902 14.0777 8.90307V8.75865C14.0777 8.72269 14.0485 8.69358 14.0126 8.69358H13.4717C13.4357 8.69358 13.4065 8.72269 13.4065 8.75865V9.03704C13.4065 9.07294 13.4357 9.10214 13.4716 9.10214ZM13.7411 9.10214H13.7431C13.779 9.10214 13.8082 9.07304 13.8082 9.03708V9.03338C13.8082 8.99743 13.779 8.96832 13.7431 8.96832H13.7411C13.7051 8.96832 13.676 8.99747 13.676 9.03338V9.03708C13.676 9.07294 13.7051 9.10214 13.7411 9.10214ZM13.4716 8.55629H15.0853C15.1212 8.55629 15.1503 8.52718 15.1503 8.49122V8.4841C15.1503 8.44815 15.1212 8.41904 15.0853 8.41904H13.4716C13.4357 8.41904 13.4065 8.44815 13.4065 8.4841V8.49122C13.4065 8.52718 13.4357 8.55629 13.4716 8.55629ZM15.0853 9.10214H14.8139C14.7779 9.10214 14.7488 9.07304 14.7488 9.03708V8.75869C14.7488 8.72274 14.7779 8.69363 14.8139 8.69363H15.2192C15.2551 8.69363 15.2842 8.66447 15.2842 8.62857V8.48415C15.2842 8.44819 15.3134 8.41908 15.3493 8.41908H15.353C15.389 8.41908 15.4181 8.44819 15.4181 8.48415V8.90321C15.4181 8.93916 15.4472 8.96827 15.4832 8.96827H15.4868C15.5228 8.96827 15.5519 8.93916 15.5519 8.90321V8.48415C15.5519 8.44819 15.581 8.41908 15.617 8.41908H15.6207C15.6567 8.41908 15.6858 8.44819 15.6858 8.48415V8.90321C15.6858 8.93916 15.7149 8.96827 15.7509 8.96827H15.7546C15.7905 8.96827 15.8196 8.93916 15.8196 8.90321V8.48415C15.8196 8.44819 15.8488 8.41908 15.8847 8.41908H15.8884C15.9244 8.41908 15.9535 8.44819 15.9535 8.48415V9.03713C15.9535 9.07308 15.9244 9.10219 15.8884 9.10219H15.3491C15.3132 9.10219 15.284 9.07308 15.284 9.03713V8.89613C15.284 8.86018 15.2549 8.83107 15.219 8.83107H14.9459C14.9099 8.83107 14.8808 8.86018 14.8808 8.89613V8.90321C14.8808 8.93916 14.9099 8.96827 14.9459 8.96827H15.0851C15.121 8.96827 15.1502 8.99743 15.1502 9.03333V9.03704C15.1504 9.07294 15.1212 9.10214 15.0853 9.10214Z" fill="#F5F5F5"/>
<path d="M16.1526 9.10214H16.1563C16.1922 9.10214 16.2214 9.07304 16.2214 9.03708V8.89608C16.2214 8.86013 16.2505 8.83102 16.2864 8.83102H16.5595C16.5955 8.83102 16.6246 8.86013 16.6246 8.89608V9.03708C16.6246 9.07304 16.6538 9.10214 16.6897 9.10214H17.229C17.265 9.10214 17.2941 9.07304 17.2941 9.03708V8.75869C17.2941 8.72274 17.265 8.69363 17.229 8.69363H16.9575C16.9216 8.69363 16.8924 8.72274 16.8924 8.75869V8.76586C16.8924 8.80182 16.9215 8.83093 16.9575 8.83093H17.0969C17.1328 8.83093 17.1619 8.86004 17.1619 8.89599V8.90307C17.1619 8.93902 17.1328 8.96813 17.0969 8.96813H16.8219C16.786 8.96813 16.7569 8.93902 16.7569 8.90307V8.75865C16.7569 8.72269 16.7277 8.69358 16.6918 8.69358H16.1526C16.1167 8.69358 16.0875 8.72269 16.0875 8.75865V9.03704C16.0875 9.07294 16.1166 9.10214 16.1526 9.10214ZM16.4204 9.10214H16.4258C16.4618 9.10214 16.4909 9.07304 16.4909 9.03708V9.03338C16.4909 8.99743 16.4618 8.96832 16.4258 8.96832H16.4204C16.3844 8.96832 16.3553 8.99747 16.3553 9.03338V9.03708C16.3553 9.07294 16.3844 9.10214 16.4204 9.10214ZM16.1526 8.55629H17.7662C17.8021 8.55629 17.8313 8.52718 17.8313 8.49122V8.4841C17.8313 8.44815 17.8022 8.41904 17.7662 8.41904H16.1526C16.1166 8.41904 16.0875 8.44815 16.0875 8.4841V8.49122C16.0875 8.52718 16.1166 8.55629 16.1526 8.55629ZM17.7663 9.10214H17.4949C17.4589 9.10214 17.4298 9.07304 17.4298 9.03708V8.75869C17.4298 8.72274 17.4589 8.69363 17.4949 8.69363H17.9002C17.9361 8.69363 17.9653 8.66447 17.9653 8.62857V8.48415C17.9653 8.44819 17.9944 8.41908 18.0304 8.41908H18.0341C18.07 8.41908 18.0992 8.44819 18.0992 8.48415V8.90321C18.0992 8.93916 18.1283 8.96827 18.1643 8.96827H18.1679C18.2038 8.96827 18.233 8.93916 18.233 8.90321V8.48415C18.233 8.44819 18.2621 8.41908 18.2981 8.41908H18.3018C18.3377 8.41908 18.3669 8.44819 18.3669 8.48415V8.90321C18.3669 8.93916 18.396 8.96827 18.432 8.96827H18.4374C18.4733 8.96827 18.5025 8.93916 18.5025 8.90321V8.48415C18.5025 8.44819 18.5316 8.41908 18.5676 8.41908H18.5694C18.6054 8.41908 18.6346 8.44819 18.6346 8.48415V9.03713C18.6346 9.07308 18.6054 9.10219 18.5694 9.10219H18.0303C17.9943 9.10219 17.9652 9.07308 17.9652 9.03713V8.89613C17.9652 8.86018 17.9361 8.83107 17.9001 8.83107H17.6304C17.5944 8.83107 17.5652 8.86018 17.5652 8.89613V8.90321C17.5652 8.93916 17.5944 8.96827 17.6304 8.96827H17.7662C17.8022 8.96827 17.8314 8.99743 17.8314 9.03333V9.03704C17.8314 9.07294 17.8022 9.10214 17.7663 9.10214Z" fill="#F5F5F5"/>
<path d="M18.8353 9.10214H18.8373C18.8732 9.10214 18.9024 9.07304 18.9024 9.03708V8.89608C18.9024 8.86013 18.9315 8.83102 18.9675 8.83102H19.239C19.2749 8.83102 19.3041 8.86013 19.3041 8.89608V9.03708C19.3041 9.07304 19.3332 9.10214 19.3691 9.10214H19.91C19.9459 9.10214 19.9751 9.07304 19.9751 9.03708V8.75869C19.9751 8.72274 19.9459 8.69363 19.91 8.69363H19.6404C19.6044 8.69363 19.5752 8.72274 19.5752 8.75869V8.76586C19.5752 8.80182 19.6044 8.83093 19.6404 8.83093H19.7778C19.8138 8.83093 19.843 8.86004 19.843 8.89599V8.90307C19.843 8.93902 19.8138 8.96813 19.7778 8.96813H19.5048C19.4688 8.96813 19.4397 8.93902 19.4397 8.90307V8.75865C19.4397 8.72269 19.4106 8.69358 19.3746 8.69358H18.8353C18.7993 8.69358 18.7702 8.72269 18.7702 8.75865V9.03704C18.7701 9.07294 18.7993 9.10214 18.8353 9.10214ZM19.103 9.10214H19.1067C19.1427 9.10214 19.1718 9.07304 19.1718 9.03708V9.03338C19.1718 8.99743 19.1427 8.96832 19.1067 8.96832H19.103C19.0671 8.96832 19.038 8.99747 19.038 9.03338V9.03708C19.0379 9.07294 19.067 9.10214 19.103 9.10214ZM18.8353 8.55629H20.4507C20.4866 8.55629 20.5158 8.52718 20.5158 8.49122V8.4841C20.5158 8.44815 20.4867 8.41904 20.4507 8.41904H18.8353C18.7993 8.41904 18.7702 8.44815 18.7702 8.4841V8.49122C18.7701 8.52718 18.7993 8.55629 18.8353 8.55629ZM20.4506 9.10214H20.1757C20.1398 9.10214 20.1106 9.07304 20.1106 9.03708V8.75869C20.1106 8.72274 20.1398 8.69363 20.1757 8.69363H20.581C20.617 8.69363 20.6462 8.66447 20.6462 8.62857V8.48415C20.6462 8.44819 20.6753 8.41908 20.7113 8.41908H20.7167C20.7526 8.41908 20.7817 8.44819 20.7817 8.48415V8.90321C20.7817 8.93916 20.8109 8.96827 20.8468 8.96827H20.8504C20.8864 8.96827 20.9155 8.93916 20.9155 8.90321V8.48415C20.9155 8.44819 20.9447 8.41908 20.9806 8.41908H20.9826C21.0185 8.41908 21.0477 8.44819 21.0477 8.48415V8.90321C21.0477 8.93916 21.0768 8.96827 21.1128 8.96827H21.1182C21.1541 8.96827 21.1832 8.93916 21.1832 8.90321V8.48415C21.1832 8.44819 21.2124 8.41908 21.2484 8.41908H21.2521C21.288 8.41908 21.3172 8.44819 21.3172 8.48415V9.03713C21.3172 9.07308 21.2881 9.10219 21.2521 9.10219H20.7111C20.6752 9.10219 20.646 9.07308 20.646 9.03713V8.89613C20.646 8.86018 20.6169 8.83107 20.5809 8.83107H20.3095C20.2735 8.83107 20.2444 8.86018 20.2444 8.89613V8.90321C20.2444 8.93916 20.2735 8.96827 20.3095 8.96827H20.4505C20.4865 8.96827 20.5156 8.99743 20.5156 9.03333V9.03704C20.5158 9.07294 20.4866 9.10214 20.4506 9.10214Z" fill="#F5F5F5"/>
<path d="M21.5162 9.10214H21.5199C21.5559 9.10214 21.585 9.07304 21.585 9.03708V8.89608C21.585 8.86013 21.6141 8.83102 21.6501 8.83102H21.9215C21.9575 8.83102 21.9866 8.86013 21.9866 8.89608V9.03708C21.9866 9.07304 22.0157 9.10214 22.0517 9.10214H22.5927C22.6286 9.10214 22.6578 9.07304 22.6578 9.03708V8.75869C22.6578 8.72274 22.6287 8.69363 22.5927 8.69363H22.323C22.287 8.69363 22.2579 8.72274 22.2579 8.75869V8.76586C22.2579 8.80182 22.2871 8.83093 22.323 8.83093H22.4605C22.4965 8.83093 22.5256 8.86004 22.5256 8.89599V8.90307C22.5256 8.93902 22.4964 8.96813 22.4605 8.96813H22.1856C22.1497 8.96813 22.1205 8.93902 22.1205 8.90307V8.75865C22.1205 8.72269 22.0914 8.69358 22.0554 8.69358H21.5163C21.4803 8.69358 21.4512 8.72269 21.4512 8.75865V9.03704C21.4511 9.07294 21.4803 9.10214 21.5162 9.10214ZM21.784 9.10214H21.7877C21.8236 9.10214 21.8528 9.07304 21.8528 9.03708V9.03338C21.8528 8.99743 21.8237 8.96832 21.7877 8.96832H21.784C21.748 8.96832 21.7189 8.99747 21.7189 9.03338V9.03708C21.7189 9.07294 21.748 9.10214 21.784 9.10214ZM21.5162 8.55629H23.1281C23.1641 8.55629 23.1932 8.52718 23.1932 8.49122V8.4841C23.1932 8.44815 23.1641 8.41904 23.1281 8.41904H21.5162C21.4802 8.41904 21.4511 8.44815 21.4511 8.4841V8.49122C21.4511 8.52718 21.4803 8.55629 21.5162 8.55629ZM23.1281 9.10214H22.8567C22.8208 9.10214 22.7916 9.07304 22.7916 9.03708V8.75869C22.7916 8.72274 22.8207 8.69363 22.8567 8.69363H23.2655C23.3015 8.69363 23.3306 8.66447 23.3306 8.62857V8.48415C23.3306 8.44819 23.3597 8.41908 23.3957 8.41908H23.3959C23.4318 8.41908 23.461 8.44819 23.461 8.48415V8.90321C23.461 8.93916 23.4901 8.96827 23.5261 8.96827H23.5332C23.5691 8.96827 23.5983 8.93916 23.5983 8.90321V8.48415C23.5983 8.44819 23.6274 8.41908 23.6634 8.41908H23.6636C23.6995 8.41908 23.7287 8.44819 23.7287 8.48415V8.90321C23.7287 8.93916 23.7578 8.96827 23.7938 8.96827H23.7975C23.8335 8.96827 23.8626 8.93916 23.8626 8.90321V8.48415C23.8626 8.44819 23.8918 8.41908 23.9277 8.41908H23.9348C23.9708 8.41908 23.9999 8.44819 23.9999 8.48415V9.03713C23.9999 9.07308 23.9708 9.10219 23.9348 9.10219H23.3956C23.3597 9.10219 23.3306 9.07308 23.3306 9.03713V8.89613C23.3306 8.86018 23.3014 8.83107 23.2655 8.83107H22.9906C22.9546 8.83107 22.9255 8.86018 22.9255 8.89613V8.90321C22.9255 8.93916 22.9546 8.96827 22.9906 8.96827H23.1281C23.164 8.96827 23.1932 8.99743 23.1932 9.03333V9.03704C23.1932 9.07294 23.1641 9.10214 23.1281 9.10214Z" fill="#F5F5F5"/>
<path d="M0.0650624 9.51744H1.14145C1.1774 9.51744 1.20651 9.48833 1.20651 9.45237V9.30795C1.20651 9.272 1.1774 9.24289 1.14145 9.24289H0.0650624C0.0291093 9.24289 0 9.27205 0 9.30795V9.45237C0 9.48833 0.0291093 9.51744 0.0650624 9.51744ZM1.40728 9.51744H2.48198C2.51793 9.51744 2.54704 9.48833 2.54704 9.45237V9.30795C2.54704 9.272 2.51793 9.24289 2.48198 9.24289H1.40728C1.37133 9.24289 1.34217 9.27205 1.34217 9.30795V9.45237C1.34212 9.48833 1.37133 9.51744 1.40728 9.51744Z" fill="#F5F5F5"/>
<path d="M2.74771 9.51744H3.82241C3.85836 9.51744 3.88747 9.48833 3.88747 9.45237V9.30795C3.88747 9.272 3.85836 9.24289 3.82241 9.24289H2.74771C2.71176 9.24289 2.68265 9.27205 2.68265 9.30795V9.45237C2.68265 9.48833 2.7118 9.51744 2.74771 9.51744ZM4.0865 9.51744H5.16463C5.20058 9.51744 5.22969 9.48833 5.22969 9.45237V9.30795C5.22969 9.272 5.20058 9.24289 5.16463 9.24289H4.0865C4.05055 9.24289 4.0214 9.27205 4.0214 9.30795V9.45237C4.0214 9.48833 4.05055 9.51744 4.0865 9.51744Z" fill="#F5F5F5"/>
<path d="M5.42877 9.51744H6.50516C6.54111 9.51744 6.57027 9.48833 6.57027 9.45237V9.30795C6.57027 9.272 6.54116 9.24289 6.50516 9.24289H5.42877C5.39282 9.24289 5.36371 9.27205 5.36371 9.30795V9.45237C5.36361 9.48833 5.39282 9.51744 5.42877 9.51744ZM6.76921 9.51744H7.84559C7.88155 9.51744 7.91066 9.48833 7.91066 9.45237V9.30795C7.91066 9.272 7.8815 9.24289 7.84559 9.24289H6.76921C6.73325 9.24289 6.7041 9.27205 6.7041 9.30795V9.45237C6.7041 9.48833 6.7333 9.51744 6.76921 9.51744Z" fill="#F5F5F5"/>
<path d="M8.10969 9.51744H9.18608C9.22203 9.51744 9.25114 9.48833 9.25114 9.45237V9.30795C9.25114 9.272 9.22203 9.24289 9.18608 9.24289H8.10969C8.07374 9.24289 8.04458 9.27205 8.04458 9.30795V9.45237C8.04463 9.48833 8.07378 9.51744 8.10969 9.51744ZM9.44848 9.51744H10.5266C10.5626 9.51744 10.5917 9.48833 10.5917 9.45237V9.30795C10.5917 9.272 10.5626 9.24289 10.5266 9.24289H9.44848C9.41253 9.24289 9.38342 9.27205 9.38342 9.30795V9.45237C9.38337 9.48833 9.41248 9.51744 9.44848 9.51744Z" fill="#F5F5F5"/>
<path d="M10.7906 9.51744H11.8671C11.903 9.51744 11.9321 9.48833 11.9321 9.45237V9.30795C11.9321 9.272 11.903 9.24289 11.8671 9.24289H10.7906C10.7547 9.24289 10.7255 9.27205 10.7255 9.30795V9.45237C10.7255 9.48833 10.7547 9.51744 10.7906 9.51744ZM12.1311 9.51744H13.2076C13.2435 9.51744 13.2727 9.48833 13.2727 9.45237V9.30795C13.2727 9.272 13.2435 9.24289 13.2076 9.24289H12.1311C12.0951 9.24289 12.066 9.27205 12.066 9.30795V9.45237C12.066 9.48833 12.0951 9.51744 12.1311 9.51744Z" fill="#F5F5F5"/>
<path d="M13.4716 9.51744H14.5481C14.584 9.51744 14.6132 9.48833 14.6132 9.45237V9.30795C14.6132 9.272 14.5841 9.24289 14.5481 9.24289H13.4716C13.4357 9.24289 13.4065 9.27205 13.4065 9.30795V9.45237C13.4065 9.48833 13.4357 9.51744 13.4716 9.51744ZM14.8139 9.51744H15.8886C15.9245 9.51744 15.9537 9.48833 15.9537 9.45237V9.30795C15.9537 9.272 15.9245 9.24289 15.8886 9.24289H14.8139C14.7779 9.24289 14.7488 9.27205 14.7488 9.30795V9.45237C14.7488 9.48833 14.7779 9.51744 14.8139 9.51744Z" fill="#F5F5F5"/>
<path d="M16.1526 9.51744H17.2291C17.265 9.51744 17.2941 9.48833 17.2941 9.45237V9.30795C17.2941 9.272 17.265 9.24289 17.2291 9.24289H16.1526C16.1166 9.24289 16.0875 9.27205 16.0875 9.30795V9.45237C16.0875 9.48833 16.1166 9.51744 16.1526 9.51744ZM17.4948 9.51744H18.5694C18.6054 9.51744 18.6346 9.48833 18.6346 9.45237V9.30795C18.6346 9.272 18.6054 9.24289 18.5694 9.24289H17.4948C17.4589 9.24289 17.4297 9.27205 17.4297 9.30795V9.45237C17.4298 9.48833 17.4589 9.51744 17.4948 9.51744Z" fill="#F5F5F5"/>
<path d="M18.8353 9.51744H19.91C19.9459 9.51744 19.9751 9.48833 19.9751 9.45237V9.30795C19.9751 9.272 19.9459 9.24289 19.91 9.24289H18.8353C18.7993 9.24289 18.7702 9.27205 18.7702 9.30795V9.45237C18.7701 9.48833 18.7993 9.51744 18.8353 9.51744ZM20.1758 9.51744H21.2522C21.2882 9.51744 21.3174 9.48833 21.3174 9.45237V9.30795C21.3174 9.272 21.2882 9.24289 21.2522 9.24289H20.1758C20.1398 9.24289 20.1107 9.27205 20.1107 9.30795V9.45237C20.1106 9.48833 20.1398 9.51744 20.1758 9.51744Z" fill="#F5F5F5"/>
<path d="M21.5162 9.51744H22.5927C22.6286 9.51744 22.6578 9.48833 22.6578 9.45237V9.30795C22.6578 9.272 22.6287 9.24289 22.5927 9.24289H21.5162C21.4802 9.24289 21.4511 9.27205 21.4511 9.30795V9.45237C21.4511 9.48833 21.4803 9.51744 21.5162 9.51744ZM22.8568 9.51744H23.9349C23.9708 9.51744 24 9.48833 24 9.45237V9.30795C24 9.272 23.9708 9.24289 23.9349 9.24289H22.8568C22.8208 9.24289 22.7917 9.27205 22.7917 9.30795V9.45237C22.7916 9.48833 22.8208 9.51744 22.8568 9.51744Z" fill="#F5F5F5"/>
<path d="M23.9348 14.8983H23.9312C23.8953 14.8983 23.8662 14.9274 23.8662 14.9633V15.1043C23.8662 15.1403 23.837 15.1694 23.8011 15.1694H23.5279C23.492 15.1694 23.4628 15.1403 23.4628 15.1043V14.9633C23.4628 14.9274 23.4337 14.8983 23.3977 14.8983H22.8586C22.8226 14.8983 22.7935 14.9274 22.7935 14.9633V15.2417C22.7935 15.2777 22.8226 15.3068 22.8586 15.3068H23.13C23.1659 15.3068 23.195 15.2777 23.195 15.2417V15.2346C23.195 15.1986 23.1659 15.1695 23.13 15.1695H22.9924C22.9564 15.1695 22.9273 15.1404 22.9273 15.1044V15.0973C22.9273 15.0614 22.9564 15.0323 22.9924 15.0323H23.2639C23.2998 15.0323 23.3289 15.0614 23.3289 15.0973V15.2418C23.3289 15.2777 23.3581 15.3069 23.3941 15.3069H23.9349C23.9708 15.3069 24 15.2777 24 15.2418V14.9634C24 14.9274 23.9708 14.8983 23.9348 14.8983ZM23.6654 14.8983H23.6617C23.6258 14.8983 23.5966 14.9274 23.5966 14.9633V14.967C23.5966 15.003 23.6257 15.0321 23.6617 15.0321H23.6654C23.7014 15.0321 23.7305 15.003 23.7305 14.967V14.9633C23.7305 14.9274 23.7014 14.8983 23.6654 14.8983ZM23.9348 15.4441H22.3213C22.2853 15.4441 22.2562 15.4732 22.2562 15.5091V15.5163C22.2562 15.5523 22.2853 15.5814 22.3213 15.5814H23.9348C23.9708 15.5814 24 15.5522 24 15.5163V15.5091C24 15.4732 23.9708 15.4441 23.9348 15.4441ZM22.3213 14.8983H22.5927C22.6287 14.8983 22.6578 14.9274 22.6578 14.9633V15.2417C22.6578 15.2777 22.6287 15.3068 22.5927 15.3068H22.1874C22.1514 15.3068 22.1223 15.3359 22.1223 15.3719V15.5163C22.1223 15.5523 22.0932 15.5814 22.0572 15.5814H22.0536C22.0177 15.5814 21.9885 15.5522 21.9885 15.5163V15.0972C21.9885 15.0613 21.9594 15.0322 21.9234 15.0322H21.9197C21.8838 15.0322 21.8546 15.0613 21.8546 15.0972V15.5163C21.8546 15.5523 21.8255 15.5814 21.7896 15.5814H21.7859C21.75 15.5814 21.7208 15.5522 21.7208 15.5163V15.0972C21.7208 15.0613 21.6917 15.0322 21.6557 15.0322H21.6503C21.6144 15.0322 21.5852 15.0613 21.5852 15.0972V15.5163C21.5852 15.5523 21.5561 15.5814 21.5201 15.5814H21.5181C21.4822 15.5814 21.4531 15.5522 21.4531 15.5163V14.9633C21.4531 14.9274 21.4822 14.8983 21.5181 14.8983H22.0573C22.0932 14.8983 22.1224 14.9274 22.1224 14.9633V15.1043C22.1224 15.1403 22.1515 15.1694 22.1874 15.1694H22.4589C22.4948 15.1694 22.5239 15.1403 22.5239 15.1043V15.0972C22.5239 15.0613 22.4948 15.0322 22.4589 15.0322H22.3214C22.2854 15.0322 22.2563 15.003 22.2563 14.9671V14.9634C22.2562 14.9274 22.2854 14.8983 22.3213 14.8983Z" fill="#F5F5F5"/>
<path d="M21.2522 14.8983H21.2469C21.2109 14.8983 21.1818 14.9274 21.1818 14.9633V15.1043C21.1818 15.1403 21.1526 15.1694 21.1167 15.1694H20.847C20.811 15.1694 20.7819 15.1403 20.7819 15.1043V14.9633C20.7819 14.9274 20.7527 14.8983 20.7168 14.8983H20.1776C20.1417 14.8983 20.1125 14.9274 20.1125 14.9633V15.2417C20.1125 15.2777 20.1417 15.3068 20.1776 15.3068H20.449C20.485 15.3068 20.5141 15.2777 20.5141 15.2417V15.2346C20.5141 15.1986 20.485 15.1695 20.449 15.1695H20.3115C20.2755 15.1695 20.2464 15.1404 20.2464 15.1044V15.0973C20.2464 15.0614 20.2755 15.0323 20.3115 15.0323H20.583C20.6189 15.0323 20.648 15.0614 20.648 15.0973V15.2418C20.648 15.2777 20.6772 15.3069 20.7131 15.3069H21.2523C21.2882 15.3069 21.3174 15.2777 21.3174 15.2418V14.9634C21.3173 14.9274 21.2881 14.8983 21.2522 14.8983ZM20.9844 14.8983H20.9808C20.9449 14.8983 20.9157 14.9274 20.9157 14.9633V14.967C20.9157 15.003 20.9449 15.0321 20.9808 15.0321H20.9844C21.0204 15.0321 21.0496 15.003 21.0496 14.967V14.9633C21.0495 14.9274 21.0204 14.8983 20.9844 14.8983ZM21.2522 15.4441H19.6404C19.6044 15.4441 19.5752 15.4732 19.5752 15.5091V15.5163C19.5752 15.5523 19.6044 15.5814 19.6404 15.5814H21.2522C21.2882 15.5814 21.3174 15.5522 21.3174 15.5163V15.5091C21.3173 15.4732 21.2881 15.4441 21.2522 15.4441ZM19.6403 14.8983H19.9134C19.9494 14.8983 19.9786 14.9274 19.9786 14.9633V15.2417C19.9786 15.2777 19.9494 15.3068 19.9134 15.3068H19.5081C19.4722 15.3068 19.443 15.3359 19.443 15.3719V15.5163C19.443 15.5523 19.4139 15.5814 19.3779 15.5814H19.3725C19.3366 15.5814 19.3074 15.5522 19.3074 15.5163V15.0972C19.3074 15.0613 19.2782 15.0322 19.2423 15.0322H19.2369C19.2009 15.0322 19.1718 15.0613 19.1718 15.0972V15.5163C19.1718 15.5523 19.1427 15.5814 19.1067 15.5814H19.1048C19.0688 15.5814 19.0397 15.5522 19.0397 15.5163V15.0972C19.0397 15.0613 19.0105 15.0322 18.9746 15.0322H18.9692C18.9332 15.0322 18.9041 15.0613 18.9041 15.0972V15.5163C18.9041 15.5523 18.875 15.5814 18.839 15.5814H18.8354C18.7994 15.5814 18.7703 15.5522 18.7703 15.5163V14.9633C18.7703 14.9274 18.7995 14.8983 18.8354 14.8983H19.3779C19.4139 14.8983 19.4431 14.9274 19.4431 14.9633V15.1043C19.4431 15.1403 19.4722 15.1694 19.5082 15.1694H19.7779C19.8138 15.1694 19.843 15.1403 19.843 15.1043V15.0972C19.843 15.0613 19.8139 15.0322 19.7779 15.0322H19.6403C19.6044 15.0322 19.5752 15.003 19.5752 14.9671V14.9634C19.5752 14.9274 19.6044 14.8983 19.6403 14.8983Z" fill="#F5F5F5"/>
<path d="M18.5712 14.8983H18.5676C18.5316 14.8983 18.5025 14.9274 18.5025 14.9633V15.1043C18.5025 15.1403 18.4734 15.1694 18.4374 15.1694H18.1659C18.1299 15.1694 18.1008 15.1403 18.1008 15.1043V14.9633C18.1008 14.9274 18.0716 14.8983 18.0357 14.8983H17.4948C17.4589 14.8983 17.4297 14.9274 17.4297 14.9633V15.2417C17.4297 15.2777 17.4588 15.3068 17.4948 15.3068H17.7662C17.8022 15.3068 17.8314 15.2777 17.8314 15.2417V15.2346C17.8314 15.1986 17.8022 15.1695 17.7662 15.1695H17.6287C17.5927 15.1695 17.5636 15.1404 17.5636 15.1044V15.0973C17.5636 15.0614 17.5927 15.0323 17.6287 15.0323H17.9018C17.9378 15.0323 17.9669 15.0614 17.9669 15.0973V15.2418C17.9669 15.2777 17.996 15.3069 18.032 15.3069H18.5711C18.6071 15.3069 18.6362 15.2777 18.6362 15.2418V14.9634C18.6363 14.9274 18.6071 14.8983 18.5712 14.8983ZM18.3034 14.8983H18.2998C18.2639 14.8983 18.2347 14.9274 18.2347 14.9633V14.967C18.2347 15.003 18.2639 15.0321 18.2998 15.0321H18.3034C18.3394 15.0321 18.3685 15.003 18.3685 14.967V14.9633C18.3685 14.9274 18.3394 14.8983 18.3034 14.8983ZM18.5712 15.4441H16.9576C16.9216 15.4441 16.8924 15.4732 16.8924 15.5091V15.5163C16.8924 15.5523 16.9216 15.5814 16.9576 15.5814H18.5712C18.6071 15.5814 18.6363 15.5522 18.6363 15.5163V15.5091C18.6363 15.4732 18.6071 15.4441 18.5712 15.4441ZM16.9576 14.8983H17.2307C17.2667 14.8983 17.2958 14.9274 17.2958 14.9633V15.2417C17.2958 15.2777 17.2667 15.3068 17.2307 15.3068H16.8254C16.7895 15.3068 16.7604 15.3359 16.7604 15.3719V15.5163C16.7604 15.5523 16.7312 15.5814 16.6952 15.5814H16.6915C16.6556 15.5814 16.6265 15.5522 16.6265 15.5163V15.0972C16.6265 15.0613 16.5973 15.0322 16.5614 15.0322H16.556C16.52 15.0322 16.4909 15.0613 16.4909 15.0972V15.5163C16.4909 15.5523 16.4618 15.5814 16.4258 15.5814H16.4204C16.3844 15.5814 16.3553 15.5522 16.3553 15.5163V15.0972C16.3553 15.0613 16.3262 15.0322 16.2902 15.0322H16.2882C16.2523 15.0322 16.2231 15.0613 16.2231 15.0972V15.5163C16.2231 15.5523 16.194 15.5814 16.158 15.5814H16.1544C16.1184 15.5814 16.0893 15.5522 16.0893 15.5163V14.9633C16.0893 14.9274 16.1184 14.8983 16.1544 14.8983H16.6953C16.7313 14.8983 16.7604 14.9274 16.7604 14.9633V15.1043C16.7604 15.1403 16.7896 15.1694 16.8255 15.1694H17.0969C17.1329 15.1694 17.162 15.1403 17.162 15.1043V15.0972C17.162 15.0613 17.1329 15.0322 17.0969 15.0322H16.9576C16.9216 15.0322 16.8924 15.003 16.8924 14.9671V14.9634C16.8924 14.9274 16.9216 14.8983 16.9576 14.8983Z" fill="#F5F5F5"/>
<path d="M15.8903 14.8983H15.8867C15.8507 14.8983 15.8215 14.9274 15.8215 14.9633V15.1043C15.8215 15.1403 15.7924 15.1694 15.7565 15.1694H15.4851C15.4491 15.1694 15.42 15.1403 15.42 15.1043V14.9633C15.42 14.9274 15.3909 14.8983 15.3549 14.8983H14.814C14.778 14.8983 14.7489 14.9274 14.7489 14.9633V15.2417C14.7489 15.2777 14.778 15.3068 14.814 15.3068H15.0871C15.1231 15.3068 15.1522 15.2777 15.1522 15.2417V15.2346C15.1522 15.1986 15.1231 15.1695 15.0871 15.1695H14.9495C14.9136 15.1695 14.8845 15.1404 14.8845 15.1044V15.0973C14.8845 15.0614 14.9136 15.0323 14.9495 15.0323H15.2209C15.2569 15.0323 15.286 15.0614 15.286 15.0973V15.2418C15.286 15.2777 15.3152 15.3069 15.3511 15.3069H15.8903C15.9262 15.3069 15.9554 15.2777 15.9554 15.2418V14.9634C15.9553 14.9274 15.9262 14.8983 15.8903 14.8983ZM15.6225 14.8983H15.6189C15.5829 14.8983 15.5538 14.9274 15.5538 14.9633V14.967C15.5538 15.003 15.583 15.0321 15.6189 15.0321H15.6225C15.6584 15.0321 15.6876 15.003 15.6876 14.967V14.9633C15.6875 14.9274 15.6584 14.8983 15.6225 14.8983ZM15.8903 15.4441H14.2783C14.2424 15.4441 14.2133 15.4732 14.2133 15.5091V15.5163C14.2133 15.5523 14.2424 15.5814 14.2783 15.5814H15.8903C15.9262 15.5814 15.9554 15.5522 15.9554 15.5163V15.5091C15.9553 15.4732 15.9262 15.4441 15.8903 15.4441ZM14.2783 14.8983H14.5515C14.5874 14.8983 14.6166 14.9274 14.6166 14.9633V15.2417C14.6166 15.2777 14.5874 15.3068 14.5515 15.3068H14.1427C14.1067 15.3068 14.0776 15.3359 14.0776 15.3719V15.5163C14.0776 15.5523 14.0485 15.5814 14.0125 15.5814H14.0089C13.9729 15.5814 13.9438 15.5522 13.9438 15.5163V15.0972C13.9438 15.0613 13.9146 15.0322 13.8787 15.0322H13.8767C13.8408 15.0322 13.8116 15.0613 13.8116 15.0972V15.5163C13.8116 15.5523 13.7825 15.5814 13.7465 15.5814H13.7411C13.7051 15.5814 13.676 15.5522 13.676 15.5163V15.0972C13.676 15.0613 13.6469 15.0322 13.6109 15.0322H13.6072C13.5713 15.0322 13.5422 15.0613 13.5422 15.0972V15.5163C13.5422 15.5523 13.513 15.5814 13.4771 15.5814H13.4734C13.4375 15.5814 13.4083 15.5522 13.4083 15.5163V14.9633C13.4083 14.9274 13.4375 14.8983 13.4734 14.8983H14.0126C14.0485 14.8983 14.0777 14.9274 14.0777 14.9633V15.1043C14.0777 15.1403 14.1068 15.1694 14.1428 15.1694H14.4159C14.4519 15.1694 14.481 15.1403 14.481 15.1043V15.0972C14.481 15.0613 14.4519 15.0322 14.4159 15.0322H14.2783C14.2424 15.0322 14.2133 15.003 14.2133 14.9671V14.9634C14.2133 14.9274 14.2424 14.8983 14.2783 14.8983Z" fill="#F5F5F5"/>
<path d="M13.2093 14.8983H13.2056C13.1697 14.8983 13.1406 14.9274 13.1406 14.9633V15.1043C13.1406 15.1403 13.1115 15.1694 13.0755 15.1694H12.8041C12.7682 15.1694 12.7391 15.1403 12.7391 15.1043V14.9633C12.7391 14.9274 12.7099 14.8983 12.6739 14.8983H12.133C12.0971 14.8983 12.0679 14.9274 12.0679 14.9633V15.2417C12.0679 15.2777 12.0971 15.3068 12.133 15.3068H12.4061C12.4421 15.3068 12.4713 15.2777 12.4713 15.2417V15.2346C12.4713 15.1986 12.4421 15.1695 12.4061 15.1695H12.2669C12.231 15.1695 12.2019 15.1404 12.2019 15.1044V15.0973C12.2019 15.0614 12.231 15.0323 12.2669 15.0323H12.5383C12.5743 15.0323 12.6034 15.0614 12.6034 15.0973V15.2418C12.6034 15.2777 12.6326 15.3069 12.6685 15.3069H13.2094C13.2454 15.3069 13.2746 15.2777 13.2746 15.2418V14.9634C13.2744 14.9274 13.2453 14.8983 13.2093 14.8983ZM12.9398 14.8983H12.9378C12.9019 14.8983 12.8727 14.9274 12.8727 14.9633V14.967C12.8727 15.003 12.9018 15.0321 12.9378 15.0321H12.9398C12.9758 15.0321 13.0049 15.003 13.0049 14.967V14.9633C13.0049 14.9274 12.9758 14.8983 12.9398 14.8983ZM13.2093 15.4441H11.5957C11.5598 15.4441 11.5307 15.4732 11.5307 15.5091V15.5163C11.5307 15.5523 11.5598 15.5814 11.5957 15.5814H13.2093C13.2453 15.5814 13.2745 15.5522 13.2745 15.5163V15.5091C13.2744 15.4732 13.2453 15.4441 13.2093 15.4441ZM11.5956 14.8983H11.8688C11.9047 14.8983 11.9338 14.9274 11.9338 14.9633V15.2417C11.9338 15.2777 11.9047 15.3068 11.8688 15.3068H11.4617C11.4258 15.3068 11.3966 15.3359 11.3966 15.3719V15.5163C11.3966 15.5523 11.3675 15.5814 11.3315 15.5814H11.3279C11.292 15.5814 11.2628 15.5522 11.2628 15.5163V15.0972C11.2628 15.0613 11.2337 15.0322 11.1978 15.0322H11.1941C11.1581 15.0322 11.129 15.0613 11.129 15.0972V15.5163C11.129 15.5523 11.0998 15.5814 11.0639 15.5814H11.0603C11.0243 15.5814 10.9952 15.5522 10.9952 15.5163V15.0972C10.9952 15.0613 10.9661 15.0322 10.9301 15.0322H10.9265C10.8905 15.0322 10.8614 15.0613 10.8614 15.0972V15.5163C10.8614 15.5523 10.8323 15.5814 10.7963 15.5814H10.7926C10.7567 15.5814 10.7275 15.5522 10.7275 15.5163V14.9633C10.7275 14.9274 10.7566 14.8983 10.7926 14.8983H11.3318C11.3677 14.8983 11.3969 14.9274 11.3969 14.9633V15.1043C11.3969 15.1403 11.426 15.1694 11.4619 15.1694H11.7351C11.771 15.1694 11.8002 15.1403 11.8002 15.1043V15.0972C11.8002 15.0613 11.771 15.0322 11.7351 15.0322H11.5959C11.5599 15.0322 11.5308 15.003 11.5308 14.9671V14.9634C11.5306 14.9274 11.5597 14.8983 11.5956 14.8983Z" fill="#F5F5F5"/>
<path d="M10.5283 14.8983H10.5246C10.4887 14.8983 10.4595 14.9274 10.4595 14.9633V15.1043C10.4595 15.1403 10.4304 15.1694 10.3945 15.1694H10.1231C10.0871 15.1694 10.058 15.1403 10.058 15.1043V14.9633C10.058 14.9274 10.0288 14.8983 9.99293 14.8983H9.45199C9.41604 14.8983 9.38693 14.9274 9.38693 14.9633V15.2417C9.38693 15.2777 9.41604 15.3068 9.45199 15.3068H9.72349C9.75944 15.3068 9.78855 15.2777 9.78855 15.2417V15.2346C9.78855 15.1986 9.75944 15.1695 9.72349 15.1695H9.5876C9.55165 15.1695 9.52249 15.1404 9.52249 15.1044V15.0973C9.52249 15.0614 9.55165 15.0323 9.5876 15.0323H9.85732C9.89327 15.0323 9.92243 15.0614 9.92243 15.0973V15.2418C9.92243 15.2777 9.95154 15.3069 9.98749 15.3069H10.5284C10.5644 15.3069 10.5935 15.2777 10.5935 15.2418V14.9634C10.5934 14.9274 10.5643 14.8983 10.5283 14.8983ZM10.2588 14.8983H10.2569C10.2209 14.8983 10.1918 14.9274 10.1918 14.9633V14.967C10.1918 15.003 10.2209 15.0321 10.2569 15.0321H10.2588C10.2948 15.0321 10.3239 15.003 10.3239 14.967V14.9633C10.3239 14.9274 10.2948 14.8983 10.2588 14.8983ZM10.5283 15.4441H8.91466C8.87871 15.4441 8.8496 15.4732 8.8496 15.5091V15.5163C8.8496 15.5523 8.87871 15.5814 8.91466 15.5814H10.5283C10.5642 15.5814 10.5934 15.5522 10.5934 15.5163V15.5091C10.5934 15.4732 10.5643 15.4441 10.5283 15.4441ZM8.91466 14.8983H9.18607C9.22202 14.8983 9.25113 14.9274 9.25113 14.9633V15.2417C9.25113 15.2777 9.22202 15.3068 9.18607 15.3068H8.78079C8.74484 15.3068 8.71573 15.3359 8.71573 15.3719V15.5163C8.71573 15.5523 8.68662 15.5814 8.65062 15.5814H8.64691C8.61096 15.5814 8.58185 15.5522 8.58185 15.5163V15.0972C8.58185 15.0613 8.55274 15.0322 8.51679 15.0322H8.51313C8.47718 15.0322 8.44807 15.0613 8.44807 15.0972V15.5163C8.44807 15.5523 8.41896 15.5814 8.38296 15.5814H8.37926C8.34331 15.5814 8.31415 15.5522 8.31415 15.5163V15.0972C8.31415 15.0613 8.28504 15.0322 8.24909 15.0322H8.24548C8.20952 15.0322 8.18042 15.0613 8.18042 15.0972V15.5163C8.18042 15.5523 8.15126 15.5814 8.11531 15.5814H8.1116C8.07565 15.5814 8.04649 15.5522 8.04649 15.5163V14.9633C8.04649 14.9274 8.07565 14.8983 8.1116 14.8983H8.6509C8.68685 14.8983 8.71601 14.9274 8.71601 14.9633V15.1043C8.71601 15.1403 8.74512 15.1694 8.78107 15.1694H9.05412C9.09007 15.1694 9.11923 15.1403 9.11923 15.1043V15.0972C9.11923 15.0613 9.09012 15.0322 9.05412 15.0322H8.9149C8.87895 15.0322 8.84984 15.003 8.84984 14.9671V14.9634C8.84955 14.9274 8.87876 14.8983 8.91466 14.8983Z" fill="#F5F5F5"/>
<path d="M7.84737 14.8983H7.84367C7.80772 14.8983 7.77856 14.9274 7.77856 14.9633V15.1043C7.77856 15.1403 7.74945 15.1694 7.7135 15.1694H7.4404C7.40445 15.1694 7.37529 15.1403 7.37529 15.1043V14.9633C7.37529 14.9274 7.34619 14.8983 7.31023 14.8983H6.77094C6.73498 14.8983 6.70583 14.9274 6.70583 14.9633V15.2417C6.70583 15.2777 6.73494 15.3068 6.77094 15.3068H7.04244C7.07839 15.3068 7.10755 15.2777 7.10755 15.2417V15.2346C7.10755 15.1986 7.07844 15.1695 7.04244 15.1695H6.90308C6.86712 15.1695 6.83797 15.1404 6.83797 15.1044V15.0973C6.83797 15.0614 6.86708 15.0323 6.90308 15.0323H7.178C7.21395 15.0323 7.24306 15.0614 7.24306 15.0973V15.2418C7.24306 15.2777 7.27222 15.3069 7.30817 15.3069H7.84733C7.88328 15.3069 7.91243 15.2777 7.91243 15.2418V14.9634C7.91248 14.9274 7.88333 14.8983 7.84737 14.8983ZM7.57958 14.8983H7.57414C7.53819 14.8983 7.50908 14.9274 7.50908 14.9633V14.967C7.50908 15.003 7.53819 15.0321 7.57414 15.0321H7.57958C7.61553 15.0321 7.64464 15.003 7.64464 14.967V14.9633C7.64469 14.9274 7.61553 14.8983 7.57958 14.8983ZM7.84737 15.4441H6.23375C6.1978 15.4441 6.16864 15.4732 6.16864 15.5091V15.5163C6.16864 15.5523 6.19775 15.5814 6.23375 15.5814H7.84737C7.88333 15.5814 7.91248 15.5522 7.91248 15.5163V15.5091C7.91248 15.4732 7.88333 15.4441 7.84737 15.4441ZM6.23366 14.8983H6.50506C6.54102 14.8983 6.57017 14.9274 6.57017 14.9633V15.2417C6.57017 15.2777 6.54106 15.3068 6.50506 15.3068H6.09978C6.06383 15.3068 6.03472 15.3359 6.03472 15.3719V15.5163C6.03472 15.5523 6.00561 15.5814 5.96961 15.5814H5.96591C5.92995 15.5814 5.9008 15.5522 5.9008 15.5163V15.0972C5.9008 15.0613 5.87169 15.0322 5.83574 15.0322H5.83208C5.79613 15.0322 5.76702 15.0613 5.76702 15.0972V15.5163C5.76702 15.5523 5.73791 15.5814 5.70191 15.5814H5.6982C5.66225 15.5814 5.63309 15.5522 5.63309 15.5163V15.0972C5.63309 15.0613 5.60399 15.0322 5.56799 15.0322H5.5626C5.52664 15.0322 5.49753 15.0613 5.49753 15.0972V15.5163C5.49753 15.5523 5.46842 15.5814 5.43247 15.5814H5.4306C5.39464 15.5814 5.36549 15.5522 5.36549 15.5163V14.9633C5.36549 14.9274 5.3946 14.8983 5.4306 14.8983H5.96975C6.0057 14.8983 6.03486 14.9274 6.03486 14.9633V15.1043C6.03486 15.1403 6.06397 15.1694 6.09992 15.1694H6.36964C6.40559 15.1694 6.43475 15.1403 6.43475 15.1043V15.0972C6.43475 15.0613 6.40564 15.0322 6.36964 15.0322H6.23375C6.1978 15.0322 6.16864 15.003 6.16864 14.9671V14.9634C6.16859 14.9274 6.1977 14.8983 6.23366 14.8983Z" fill="#F5F5F5"/>
<path d="M5.16468 14.8983H5.16271C5.12676 14.8983 5.0976 14.9274 5.0976 14.9633V15.1043C5.0976 15.1403 5.06849 15.1694 5.03254 15.1694H4.76104C4.72508 15.1694 4.69598 15.1403 4.69598 15.1043V14.9633C4.69598 14.9274 4.66687 14.8983 4.63091 14.8983H4.09002C4.05407 14.8983 4.02496 14.9274 4.02496 14.9633V15.2417C4.02496 15.2777 4.05407 15.3068 4.09002 15.3068H4.35965C4.3956 15.3068 4.42476 15.2777 4.42476 15.2417V15.2346C4.42476 15.1986 4.39565 15.1695 4.35965 15.1695H4.22216C4.18621 15.1695 4.1571 15.1404 4.1571 15.1044V15.0973C4.1571 15.0614 4.18621 15.0323 4.22216 15.0323H4.4953C4.53126 15.0323 4.56041 15.0614 4.56041 15.0973V15.2418C4.56041 15.2777 4.58952 15.3069 4.62548 15.3069H5.16477C5.20072 15.3069 5.22988 15.2777 5.22988 15.2418V14.9634C5.22983 14.9274 5.20063 14.8983 5.16468 14.8983ZM4.89693 14.8983H4.89322C4.85727 14.8983 4.82812 14.9274 4.82812 14.9633V14.967C4.82812 15.003 4.85722 15.0321 4.89322 15.0321H4.89693C4.93288 15.0321 4.96199 15.003 4.96199 14.967V14.9633C4.96204 14.9274 4.93288 14.8983 4.89693 14.8983ZM5.16468 15.4441H3.54932C3.51337 15.4441 3.48426 15.4732 3.48426 15.5091V15.5163C3.48426 15.5523 3.51337 15.5814 3.54932 15.5814H5.16472C5.20068 15.5814 5.22983 15.5522 5.22983 15.5163V15.5091C5.22983 15.4732 5.20063 15.4441 5.16468 15.4441ZM3.54932 14.8983H3.82424C3.8602 14.8983 3.88935 14.9274 3.88935 14.9633V15.2417C3.88935 15.2777 3.86024 15.3068 3.82424 15.3068H3.41887C3.38292 15.3068 3.35381 15.3359 3.35381 15.3719V15.5163C3.35381 15.5523 3.3247 15.5814 3.2887 15.5814H3.28331C3.24735 15.5814 3.21824 15.5522 3.21824 15.5163V15.0972C3.21824 15.0613 3.18913 15.0322 3.15313 15.0322H3.14953C3.11357 15.0322 3.08442 15.0613 3.08442 15.0972V15.5163C3.08442 15.5523 3.05531 15.5814 3.01935 15.5814H3.01734C2.98138 15.5814 2.95223 15.5522 2.95223 15.5163V15.0972C2.95223 15.0613 2.92312 15.0322 2.88717 15.0322H2.88178C2.84582 15.0322 2.81667 15.0613 2.81667 15.0972V15.5163C2.81667 15.5523 2.78756 15.5814 2.7516 15.5814H2.7479C2.71195 15.5814 2.68284 15.5522 2.68284 15.5163V14.9633C2.68284 14.9274 2.71195 14.8983 2.7479 14.8983H3.28884C3.32479 14.8983 3.35395 14.9274 3.35395 14.9633V15.1043C3.35395 15.1403 3.38306 15.1694 3.41901 15.1694H3.69041C3.72637 15.1694 3.75548 15.1403 3.75548 15.1043V15.0972C3.75548 15.0613 3.72637 15.0322 3.69041 15.0322H3.54937C3.51341 15.0322 3.48431 15.003 3.48431 14.9671V14.9634C3.48417 14.9274 3.51337 14.8983 3.54932 14.8983Z" fill="#F5F5F5"/>
<path d="M2.48371 14.8983H2.48001C2.44406 14.8983 2.41495 14.9274 2.41495 14.9633V15.1043C2.41495 15.1403 2.38584 15.1694 2.34984 15.1694H2.07843C2.04248 15.1694 2.01332 15.1403 2.01332 15.1043V14.9633C2.01332 14.9274 1.98421 14.8983 1.94826 14.8983H1.40728C1.37133 14.8983 1.34217 14.9274 1.34217 14.9633V15.2417C1.34217 15.2777 1.37128 15.3068 1.40728 15.3068H1.677C1.71295 15.3068 1.74206 15.2777 1.74206 15.2417V15.2346C1.74206 15.1986 1.71295 15.1695 1.677 15.1695H1.53942C1.50347 15.1695 1.47431 15.1404 1.47431 15.1044V15.0973C1.47431 15.0614 1.50347 15.0323 1.53942 15.0323H1.81434C1.85029 15.0323 1.87945 15.0614 1.87945 15.0973V15.2418C1.87945 15.2777 1.90856 15.3069 1.94451 15.3069H2.48367C2.51962 15.3069 2.54873 15.2777 2.54873 15.2418V14.9634C2.54882 14.9274 2.51967 14.8983 2.48371 14.8983ZM2.21596 14.8983H2.21226C2.17631 14.8983 2.1472 14.9274 2.1472 14.9633V14.967C2.1472 15.003 2.17631 15.0321 2.21226 15.0321H2.21596C2.25192 15.0321 2.28103 15.003 2.28103 14.967V14.9633C2.28103 14.9274 2.25192 14.8983 2.21596 14.8983ZM2.48371 15.4441H0.871827C0.835873 15.4441 0.806717 15.4732 0.806717 15.5091V15.5163C0.806717 15.5523 0.835873 15.5814 0.871827 15.5814H2.48371C2.51967 15.5814 2.54878 15.5522 2.54878 15.5163V15.5091C2.54882 15.4732 2.51967 15.4441 2.48371 15.4441ZM0.871827 14.8983H1.14323C1.17919 14.8983 1.20834 14.9274 1.20834 14.9633V15.2417C1.20834 15.2777 1.17923 15.3068 1.14323 15.3068H0.73453C0.698577 15.3068 0.669421 15.3359 0.669421 15.3719V15.5163C0.669421 15.5523 0.640311 15.5814 0.604311 15.5814H0.604124C0.568171 15.5814 0.539015 15.5522 0.539015 15.5163V15.0972C0.539015 15.0613 0.509905 15.0322 0.473905 15.0322H0.466687C0.430734 15.0322 0.401577 15.0613 0.401577 15.0972V15.5163C0.401577 15.5523 0.372468 15.5814 0.336468 15.5814H0.336327C0.300374 15.5814 0.271265 15.5522 0.271265 15.5163V15.0972C0.271265 15.0613 0.242109 15.0322 0.206156 15.0322H0.202359C0.166406 15.0322 0.13725 15.0613 0.13725 15.0972V15.5163C0.13725 15.5523 0.10814 15.5814 0.0721874 15.5814H0.0650624C0.0291093 15.5814 0 15.5522 0 15.5163V14.9633C0 14.9274 0.0291093 14.8983 0.0650624 14.8983H0.604218C0.640171 14.8983 0.669327 14.9274 0.669327 14.9633V15.1043C0.669327 15.1403 0.698436 15.1694 0.734436 15.1694H1.00931C1.04526 15.1694 1.07437 15.1403 1.07437 15.1043V15.0972C1.07437 15.0613 1.04526 15.0322 1.00931 15.0322H0.871873C0.83592 15.0322 0.806764 15.003 0.806764 14.9671V14.9634C0.806717 14.9274 0.835873 14.8983 0.871827 14.8983Z" fill="#F5F5F5"/>
<path d="M23.9348 14.4829H22.8585C22.8225 14.4829 22.7934 14.5121 22.7934 14.548V14.6924C22.7934 14.7284 22.8225 14.7575 22.8585 14.7575H23.9348C23.9708 14.7575 24 14.7284 24 14.6924V14.548C24 14.5121 23.9708 14.4829 23.9348 14.4829ZM22.5927 14.4829H21.518C21.482 14.4829 21.4529 14.5121 21.4529 14.548V14.6924C21.4529 14.7284 21.482 14.7575 21.518 14.7575H22.5927C22.6286 14.7575 22.6578 14.7284 22.6578 14.6924V14.548C22.6578 14.5121 22.6286 14.4829 22.5927 14.4829Z" fill="#F5F5F5"/>
<path d="M21.2522 14.4829H20.1775C20.1416 14.4829 20.1124 14.5121 20.1124 14.548V14.6924C20.1124 14.7284 20.1416 14.7575 20.1775 14.7575H21.2522C21.2882 14.7575 21.3174 14.7284 21.3174 14.6924V14.548C21.3173 14.5121 21.2881 14.4829 21.2522 14.4829ZM19.9134 14.4829H18.8353C18.7994 14.4829 18.7703 14.5121 18.7703 14.548V14.6924C18.7703 14.7284 18.7994 14.7575 18.8353 14.7575H19.9134C19.9494 14.7575 19.9786 14.7284 19.9786 14.6924V14.548C19.9786 14.5121 19.9494 14.4829 19.9134 14.4829Z" fill="#F5F5F5"/>
<path d="M18.5712 14.4829H17.4948C17.4588 14.4829 17.4297 14.5121 17.4297 14.548V14.6924C17.4297 14.7284 17.4588 14.7575 17.4948 14.7575H18.5712C18.6071 14.7575 18.6363 14.7284 18.6363 14.6924V14.548C18.6363 14.5121 18.6071 14.4829 18.5712 14.4829ZM17.2307 14.4829H16.1544C16.1184 14.4829 16.0893 14.5121 16.0893 14.548V14.6924C16.0893 14.7284 16.1184 14.7575 16.1544 14.7575H17.2307C17.2667 14.7575 17.2959 14.7284 17.2959 14.6924V14.548C17.2959 14.5121 17.2667 14.4829 17.2307 14.4829Z" fill="#F5F5F5"/>
<path d="M15.8903 14.4829H14.8139C14.7779 14.4829 14.7488 14.5121 14.7488 14.548V14.6924C14.7488 14.7284 14.7779 14.7575 14.8139 14.7575H15.8903C15.9262 14.7575 15.9554 14.7284 15.9554 14.6924V14.548C15.9553 14.5121 15.9262 14.4829 15.8903 14.4829ZM14.5515 14.4829H13.4734C13.4374 14.4829 13.4082 14.5121 13.4082 14.548V14.6924C13.4082 14.7284 13.4374 14.7575 13.4734 14.7575H14.5515C14.5874 14.7575 14.6166 14.7284 14.6166 14.6924V14.548C14.6166 14.5121 14.5875 14.4829 14.5515 14.4829Z" fill="#F5F5F5"/>
<path d="M13.2094 14.4829H12.1329C12.0969 14.4829 12.0678 14.5121 12.0678 14.548V14.6924C12.0678 14.7284 12.0969 14.7575 12.1329 14.7575H13.2094C13.2453 14.7575 13.2745 14.7284 13.2745 14.6924V14.548C13.2744 14.5121 13.2453 14.4829 13.2094 14.4829ZM11.8689 14.4829H10.7924C10.7564 14.4829 10.7273 14.5121 10.7273 14.548V14.6924C10.7273 14.7284 10.7564 14.7575 10.7924 14.7575H11.8689C11.9048 14.7575 11.9339 14.7284 11.9339 14.6924V14.548C11.9339 14.5121 11.9048 14.4829 11.8689 14.4829Z" fill="#F5F5F5"/>
<path d="M10.5283 14.4829H9.45186C9.4159 14.4829 9.38679 14.5121 9.38679 14.548V14.6924C9.38679 14.7284 9.4159 14.7575 9.45186 14.7575H10.5283C10.5643 14.7575 10.5934 14.7284 10.5934 14.6924V14.548C10.5934 14.5121 10.5643 14.4829 10.5283 14.4829ZM9.18607 14.4829H8.11137C8.07542 14.4829 8.04626 14.5121 8.04626 14.548V14.6924C8.04626 14.7284 8.07542 14.7575 8.11137 14.7575H9.18607C9.22203 14.7575 9.25114 14.7284 9.25114 14.6924V14.548C9.25118 14.5121 9.22203 14.4829 9.18607 14.4829Z" fill="#F5F5F5"/>
<path d="M7.84737 14.4829H6.77089C6.73494 14.4829 6.70578 14.5121 6.70578 14.548V14.6924C6.70578 14.7284 6.73489 14.7575 6.77089 14.7575H7.84737C7.88333 14.7575 7.91248 14.7284 7.91248 14.6924V14.548C7.91248 14.5121 7.88333 14.4829 7.84737 14.4829ZM6.50511 14.4829H5.4305C5.39455 14.4829 5.36539 14.5121 5.36539 14.548V14.6924C5.36539 14.7284 5.3945 14.7575 5.4305 14.7575H6.50511C6.54106 14.7575 6.57022 14.7284 6.57022 14.6924V14.548C6.57017 14.5121 6.54106 14.4829 6.50511 14.4829Z" fill="#F5F5F5"/>
<path d="M5.16467 14.4829H4.09002C4.05407 14.4829 4.02496 14.5121 4.02496 14.548V14.6924C4.02496 14.7284 4.05407 14.7575 4.09002 14.7575H5.16472C5.20067 14.7575 5.22983 14.7284 5.22983 14.6924V14.548C5.22983 14.5121 5.20063 14.4829 5.16467 14.4829ZM3.82419 14.4829H2.74771C2.71176 14.4829 2.68265 14.5121 2.68265 14.548V14.6924C2.68265 14.7284 2.71176 14.7575 2.74771 14.7575H3.82419C3.86015 14.7575 3.8893 14.7284 3.8893 14.6924V14.548C3.8893 14.5121 3.86015 14.4829 3.82419 14.4829Z" fill="#F5F5F5"/>
<path d="M2.48371 14.4829H1.40728C1.37133 14.4829 1.34217 14.5121 1.34217 14.548V14.6924C1.34217 14.7284 1.37128 14.7575 1.40728 14.7575H2.48376C2.51971 14.7575 2.54882 14.7284 2.54882 14.6924V14.548C2.54882 14.5121 2.51967 14.4829 2.48371 14.4829ZM1.14319 14.4829H0.0650624C0.0291093 14.4829 0 14.5121 0 14.548V14.6924C0 14.7284 0.0291093 14.7575 0.0650624 14.7575H1.14319C1.17914 14.7575 1.20829 14.7284 1.20829 14.6924V14.548C1.20834 14.5121 1.17919 14.4829 1.14319 14.4829Z" fill="#F5F5F5"/>
<path d="M11.6577 10.044C11.7805 10.0768 11.9115 10.0407 12.0015 9.94908C12.1374 10.0866 12.36 10.0899 12.5007 9.95569C12.5924 9.86728 12.63 9.73303 12.5972 9.61191C12.4778 9.80508 12.2258 9.86728 12.0326 9.74611C12.0227 9.7395 12.0097 9.73299 12.0015 9.72647C11.8199 9.86067 11.5629 9.82467 11.4254 9.64467C11.4204 9.63478 11.4107 9.62171 11.4041 9.61196C11.355 9.8018 11.4695 9.99816 11.6577 10.044Z" fill="#FF4B55"/>
<path d="M12.4203 13.8681C12.8603 13.6266 13.2274 13.246 13.4288 12.7447C13.7716 11.8855 13.5557 10.9157 12.8999 10.2866C12.8773 10.265 12.8431 10.2939 12.8594 10.3205C13.5062 11.3754 13.2514 12.7615 12.2505 13.5211L12.2984 10.457C12.299 10.4154 12.2805 10.3758 12.2482 10.3496L12.0854 10.218C12.0355 10.1777 11.9642 10.1779 11.9147 10.2185L11.7542 10.3496C11.7222 10.3757 11.7039 10.4151 11.7046 10.4565L11.7511 13.5227C10.75 12.7636 10.4947 11.3762 11.1405 10.3206C11.1568 10.294 11.1226 10.2651 11.1001 10.2867C10.4455 10.9158 10.2282 11.8856 10.571 12.7448C10.7724 13.2459 11.1395 13.6266 11.5796 13.8681C11.2995 13.9641 11.0051 14.015 10.7075 14.0065C10.676 14.0056 10.6697 14.0499 10.6998 14.0589C11.078 14.1737 11.467 14.1816 11.8327 14.0996L11.9763 14.3782C11.9862 14.3974 12.0137 14.3975 12.0237 14.3783L12.1683 14.0998C12.534 14.1816 12.9231 14.1736 13.3016 14.0588C13.3317 14.0497 13.3254 14.0055 13.2939 14.0064C12.9959 14.015 12.7008 13.9641 12.4203 13.8681Z" fill="#FF4B55"/>
<path d="M14.2111 11.0196C13.986 10.5989 13.612 10.28 13.1668 10.1237C13.1389 10.1139 13.1171 10.1508 13.1399 10.1696C14.1227 10.9791 14.3197 12.4211 13.5596 13.465C13.5203 13.5174 13.4777 13.573 13.4368 13.6188C14.37 13.118 14.7153 11.9526 14.2111 11.0196Z" fill="#FF4B55"/>
<path d="M10.4417 13.465C9.68167 12.4211 9.87709 10.9792 10.8597 10.1697C10.8825 10.1509 10.8607 10.1141 10.8328 10.1238C10.3882 10.2801 10.0168 10.5989 9.79019 11.0196C9.28281 11.9526 9.63147 13.1179 10.5661 13.6188C10.5219 13.573 10.4793 13.5174 10.4417 13.465Z" fill="#FF4B55"/>
</svg>
