<svg xmlns="http://www.w3.org/2000/svg" width="24" height="24" viewBox="0 0 24 24" fill="none"><rect width="24" height="24" fill="none"/>
<path d="M22.2026 19.8621H1.79742C0.804703 19.8621 0 19.0574 0 18.0646V5.93536C0 4.94269 0.804703 4.13794 1.79742 4.13794H22.2026C23.1952 4.13794 24 4.94264 24 5.93536V18.0647C24 19.0574 23.1953 19.8621 22.2026 19.8621Z" fill="#41479B"/>
<path d="M0.413813 12H1.13259L4.96556 9.48872V12H7.03453V9.48872L10.8675 12H11.5862C11.8148 12 12 11.8147 12 11.5862V11.258L8.71158 9.10346H12V7.03449H8.71148L12 4.87997V4.55175C12 4.32324 11.8148 4.13803 11.5863 4.13794H10.8674L7.03448 6.64922V4.13794H4.96552V6.64922L1.25831 4.22035C0.825469 4.35628 0.463594 4.65174 0.240609 5.03756L3.28856 7.03449H0V9.10346H3.28852L0 11.258V11.5862C0 11.8147 0.185297 12 0.413813 12Z" fill="#F5F5F5"/>
<path d="M12 7.4483H6.62067V4.13794H5.37933V7.4483H0V8.68964H5.37933V12H6.62067V8.68964H12V7.4483Z" fill="#FF4B55"/>
<path d="M0.385635 4.82356L3.79167 7.03451H4.5517L0.684698 4.52435C0.573651 4.61201 0.473292 4.71246 0.385635 4.82356Z" fill="#FF4B55"/>
<path d="M7.79452 7.03449L11.937 4.34546C11.865 4.22363 11.738 4.13794 11.5862 4.13794H11.4967L7.03448 7.03449H7.79452Z" fill="#FF4B55"/>
<path d="M4.19409 9.10345L0.0594788 11.7873C0.130776 11.9121 0.259776 12 0.413807 12H0.491854L4.95417 9.10345H4.19409Z" fill="#FF4B55"/>
<path d="M11.9934 11.6187L8.11846 9.10345H7.35843L11.7588 11.9598C11.8906 11.8986 11.981 11.7704 11.9934 11.6187Z" fill="#FF4B55"/>
<path d="M15.5019 16.5184L15.3077 16.0652L15.4048 16.2918L15.3066 16.0657C15.3475 16.0477 16.3088 15.6091 16.3088 14.3195H16.8018C16.8018 15.9426 15.555 16.4956 15.5019 16.5184Z" fill="#E67346"/>
<path d="M15.6946 15.4156L15.346 15.067C16.0125 14.4005 16.3589 14.2177 16.3962 14.199L16.6168 14.64L16.5065 14.4195L16.6186 14.639C16.6155 14.6407 16.3034 14.8069 15.6946 15.4156Z" fill="#EB7D4B"/>
<path d="M20.5686 16.5184L20.7628 16.0652L20.6657 16.2918L20.7639 16.0657C20.723 16.0477 19.7617 15.6091 19.7617 14.3195H19.2686C19.2686 15.9426 20.5154 16.4956 20.5686 16.5184Z" fill="#E67346"/>
<path d="M20.3758 15.4156L20.7244 15.067C20.0579 14.4005 19.7115 14.2177 19.6742 14.199L19.4537 14.64L19.564 14.4195L19.4518 14.639C19.4549 14.6407 19.7671 14.8069 20.3758 15.4156Z" fill="#EB7D4B"/>
<path d="M18.0345 7.90942H15.4047C15.4047 7.90942 15.4047 11.0323 15.4047 11.854C15.4047 12.6758 15.5691 14.8125 18.0345 15.6343C20.4999 14.8125 20.6643 12.6759 20.6643 11.854C20.6643 11.0322 20.6643 7.90942 20.6643 7.90942H18.0345Z" fill="#4173CD"/>
<path d="M19.185 8.89557H17.772C17.6227 8.89557 17.4779 8.84475 17.3613 8.75152L16.8097 8.31015C16.7513 8.26355 16.679 8.2381 16.6043 8.2381H16.5553C16.3737 8.2381 16.2266 8.38524 16.2266 8.56679H15.9801C15.8439 8.56679 15.7336 8.67718 15.7336 8.8133C15.7336 8.94943 15.8439 9.05982 15.9801 9.05982H16.2266C16.3174 9.05982 16.391 9.13341 16.391 9.22421V10.046C16.391 10.352 16.601 10.6069 16.8841 10.6802V11.1965H17.2127L17.336 10.7034H18.8564L19.0208 10.8678V11.1965H19.1851V10.7034H19.3495V11.1965H19.5139V10.6579C19.6118 10.6009 19.6783 10.4962 19.6783 10.3748V9.3886C19.6781 9.11635 19.4573 8.89557 19.185 8.89557Z" fill="#C8C8C8"/>
<path d="M16.2265 11.0322L16.5553 12.0183H19.5138L19.8425 11.0322H16.2265Z" fill="#73AF00"/>
<path d="M19.7856 11.6896C19.3474 11.6896 19.3474 12.0183 18.9092 12.0183C18.4711 12.0183 18.4711 11.6896 18.033 11.6896C17.595 11.6896 17.595 12.0183 17.157 12.0183C16.7189 12.0183 16.7189 11.6896 16.2807 11.6896C15.8435 11.6896 15.8423 12.0168 15.407 12.0182C15.4123 12.2013 15.428 12.4252 15.4684 12.6727C15.843 12.6421 15.8653 12.3471 16.2807 12.3471C16.7189 12.3471 16.7189 12.6758 17.157 12.6758C17.595 12.6758 17.595 12.3471 18.0331 12.3471C18.4711 12.3471 18.4711 12.6758 18.9092 12.6758C19.3474 12.6758 19.3474 12.3471 19.7856 12.3471C20.2022 12.3471 20.2241 12.6427 20.6005 12.6728C20.6409 12.4253 20.6566 12.2014 20.6619 12.0183C20.2245 12.0175 20.224 11.6896 19.7856 11.6896Z" fill="#F5F5F5"/>
<path d="M19.7856 12.3471C19.3474 12.3471 19.3474 12.6758 18.9092 12.6758C18.4711 12.6758 18.4711 12.3471 18.033 12.3471C17.595 12.3471 17.595 12.6758 17.157 12.6758C16.7189 12.6758 16.7189 12.3471 16.2807 12.3471C15.8652 12.3471 15.843 12.6421 15.4684 12.6727C15.5005 12.8697 15.5489 13.0816 15.6195 13.2993C15.8593 13.2156 15.9292 13.0045 16.2806 13.0045C16.7188 13.0045 16.7188 13.3332 17.1569 13.3332C17.5949 13.3332 17.5949 13.0045 18.033 13.0045C18.471 13.0045 18.471 13.3332 18.9091 13.3332C19.3473 13.3332 19.3473 13.0045 19.7855 13.0045C20.1381 13.0045 20.2079 13.2164 20.4491 13.2998C20.5199 13.0819 20.5682 12.8699 20.6004 12.6728C20.2241 12.6427 20.2022 12.3471 19.7856 12.3471Z" fill="#4173CD"/>
<path d="M19.7856 13.0045C19.3474 13.0045 19.3474 13.3332 18.9092 13.3332C18.4711 13.3332 18.4711 13.0045 18.0331 13.0045C17.5951 13.0045 17.5951 13.3332 17.157 13.3332C16.7189 13.3332 16.7189 13.0045 16.2807 13.0045C15.9293 13.0045 15.8593 13.2156 15.6196 13.2994C15.6763 13.4739 15.748 13.6522 15.8378 13.8298C15.9489 13.7465 16.0584 13.6619 16.2807 13.6619C16.7188 13.6619 16.7188 13.9906 17.157 13.9906C17.595 13.9906 17.595 13.6619 18.0331 13.6619C18.4711 13.6619 18.4711 13.9906 18.9092 13.9906C19.3474 13.9906 19.3474 13.6619 19.7856 13.6619C20.0091 13.6619 20.1188 13.7472 20.2306 13.8309C20.3206 13.653 20.3924 13.4746 20.4491 13.2999C20.2079 13.2164 20.1382 13.0045 19.7856 13.0045Z" fill="#F5F5F5"/>
<path d="M19.7856 13.6619C19.3474 13.6619 19.3474 13.9906 18.9092 13.9906C18.4711 13.9906 18.4711 13.6619 18.033 13.6619C17.595 13.6619 17.595 13.9906 17.157 13.9906C16.7189 13.9906 16.7189 13.6619 16.2807 13.6619C16.0585 13.6619 15.9489 13.7464 15.8378 13.8298C15.9233 13.9991 16.0256 14.1676 16.1478 14.3316C16.1875 14.3241 16.2309 14.3194 16.2807 14.3194C16.7188 14.3194 16.7188 14.6481 17.157 14.6481C17.595 14.6481 17.595 14.3194 18.033 14.3194C18.4711 14.3194 18.4711 14.6481 18.9092 14.6481C19.3474 14.6481 19.3474 14.3194 19.7856 14.3194C19.8362 14.3194 19.8805 14.3242 19.9209 14.332C20.0429 14.1682 20.1451 14 20.2306 13.8309C20.1188 13.7471 20.0091 13.6619 19.7856 13.6619Z" fill="#4173CD"/>
<path d="M19.9209 14.332C19.8806 14.3242 19.8363 14.3195 19.7856 14.3195C19.3474 14.3195 19.3474 14.6481 18.9092 14.6481C18.4711 14.6481 18.4711 14.3195 18.033 14.3195C17.595 14.3195 17.595 14.6481 17.157 14.6481C16.7189 14.6481 16.7189 14.3195 16.2807 14.3195C16.231 14.3195 16.1875 14.3241 16.1478 14.3316C16.4142 14.6892 16.7755 15.0245 17.2645 15.2973C17.5975 15.2481 17.6345 14.9769 18.033 14.9769C18.4323 14.9769 18.4686 15.2493 18.8037 15.2976C19.293 15.0249 19.6544 14.6896 19.9209 14.332Z" fill="#F5F5F5"/>
<path d="M18.1171 11.6897H17.9527V14.4839H18.1171V11.6897Z" fill="#FF965A"/>
<path d="M18.5274 12.1003H17.5411V12.2647H18.5274V12.1003Z" fill="#FF965A"/>
<path d="M18.5274 13.0865H17.5411V13.2509H18.5274V13.0865Z" fill="#FF965A"/>
<path d="M18.5273 12.2643H17.5411V12.9145H18.5273V12.2643Z" fill="#FFE15A"/>
<path d="M17.9523 11.6896V12.0184L17.4592 11.854L17.9523 11.6896Z" fill="#FF4B55"/>
<path d="M19.2125 11.6897H19.0481V13.6209H19.2125V11.6897Z" fill="#FF965A"/>
<path d="M19.6233 12.1003H18.637V12.2647H19.6233V12.1003Z" fill="#FF965A"/>
<path d="M19.6233 13.0865H18.637V13.2509H19.6233V13.0865Z" fill="#FF965A"/>
<path d="M19.6233 12.2643H18.637V12.9145H19.6233V12.2643Z" fill="#FFE15A"/>
<path d="M19.048 11.6896V12.0184L18.5549 11.854L19.048 11.6896Z" fill="#FF4B55"/>
<path d="M17.014 11.6897H16.8497V13.6071H17.014V11.6897Z" fill="#FF965A"/>
<path d="M17.4253 12.1003H16.439V12.2647H17.4253V12.1003Z" fill="#FF965A"/>
<path d="M17.4253 13.0865H16.439V13.2509H17.4253V13.0865Z" fill="#FF965A"/>
<path d="M17.4253 12.2643H16.4391V12.9145H17.4253V12.2643Z" fill="#FFE15A"/>
<path d="M16.8498 11.6896V12.0184L16.3567 11.854L16.8498 11.6896Z" fill="#FF4B55"/>
<path d="M18.8563 13.4976C18.8563 13.9507 18.4876 14.3194 18.0345 14.3194C17.5814 14.3194 17.2127 13.9507 17.2127 13.4976H17.0483H16.8853L15.7721 13.2462L15.7359 13.4066L16.2265 13.5174V13.6619L16.5883 13.8066C16.7309 14.4743 17.3249 14.9767 18.0344 14.9767C18.737 14.9767 19.3255 14.4839 19.4756 13.8262H20.0067V13.3332L18.8563 13.4976Z" fill="#FF965A"/>
<path d="M20.6643 7.90939C20.6643 7.90939 20.6643 11.0322 20.6643 11.854C20.6643 12.6758 20.4999 14.8125 18.0345 15.6343C15.5691 14.8125 15.4047 12.6758 15.4047 11.854C15.4047 11.0322 15.4047 7.90939 15.4047 7.90939H18.0345H20.6643ZM20.8286 7.745H20.6642H18.0344H15.4046H15.2402V7.90939V11.854C15.2402 13.8029 16.2141 15.2008 17.9824 15.7902L18.0344 15.8075L18.0863 15.7902C19.8547 15.2007 20.8285 13.8028 20.8285 11.854V7.90939L20.8286 7.745Z" fill="#F5F5F5"/>
<path d="M18.0345 16.456C16.8248 16.456 15.7029 16.0508 15.0335 15.372L15.5016 14.9103C16.0501 15.4665 16.997 15.7986 18.0345 15.7986C19.0721 15.7986 20.019 15.4665 20.5675 14.9103L21.0356 15.372C20.3661 16.0508 19.2442 16.456 18.0345 16.456Z" fill="#FF965A"/>
</svg>
