<svg xmlns="http://www.w3.org/2000/svg" width="24" height="24" viewBox="0 0 24 24" fill="none"><rect width="24" height="24" fill="none"/>
<path d="M22.2025 19.862H1.79742C0.804702 19.862 0 19.0573 0 18.0646V5.93537C0 4.9427 0.804702 4.13795 1.79742 4.13795H22.2025C23.1952 4.13795 24 4.94265 24 5.93537V18.0647C24 19.0573 23.1953 19.862 22.2025 19.862Z" fill="#73AF00"/>
<path d="M0 15.6573V16.894L19.4698 4.13795H17.5821L0 15.6573Z" fill="#FFE15A"/>
<path d="M6.41783 19.862L24 8.34267V7.10597L4.53018 19.862H6.41783Z" fill="#FFE15A"/>
<path d="M22.2025 4.13795H19.4697L0 16.894V18.0646C0 19.0573 0.804702 19.862 1.79742 19.862H4.53023L24 7.10597V5.93537C24 4.94265 23.1953 4.13795 22.2025 4.13795Z" fill="#464655"/>
<path d="M7.31337 12.9327L8.1627 13.6166L9.08473 13.0345C9.20412 12.9591 9.35075 13.0791 9.30045 13.211L8.91247 14.2301L9.75106 14.9271C9.85962 15.0174 9.79085 15.1938 9.64985 15.1869L8.56076 15.1328L8.15698 16.1457C8.10467 16.2768 7.91558 16.2661 7.87864 16.1297L7.59355 15.0772L6.50544 15.0062C6.36453 14.9971 6.31644 14.8138 6.43461 14.7366L7.3475 14.1402L7.07872 13.0833C7.04398 12.9466 7.20341 12.8442 7.31337 12.9327Z" fill="#F5F5F5"/>
<path d="M15.1409 7.79487L15.9902 8.47878L16.9123 7.89659C17.0317 7.82122 17.1783 7.94117 17.128 8.07312L16.74 9.09218L17.5786 9.78916C17.6872 9.87945 17.6184 10.0559 17.4774 10.0489L16.3883 9.99485L15.9846 11.0078C15.9323 11.1389 15.7432 11.1281 15.7062 10.9918L15.4211 9.9393L14.333 9.86834C14.1921 9.85915 14.144 9.67591 14.2622 9.59871L15.1751 9.00228L14.9063 7.94543C14.8716 7.80865 15.0309 7.70632 15.1409 7.79487Z" fill="#F5F5F5"/>
<path d="M24 8.34268L6.41783 19.8621H22.2026C23.1953 19.8621 24 19.0573 24 18.0646L24 8.34268Z" fill="#FF4B55"/>
</svg>
