<svg xmlns="http://www.w3.org/2000/svg" width="24" height="24" viewBox="0 0 24 24" fill="none"><rect width="24" height="24" fill="none"/>
<path d="M22.2134 4.13812H1.78664C0.798984 4.14394 0 4.94615 0 5.93522V12.0001H24V5.93522C24 4.94615 23.201 4.14394 22.2134 4.13812Z" fill="#F5F5F5"/>
<path d="M0 18.0644C0 19.0571 0.804703 19.8618 1.79742 19.8618H22.2026C23.1952 19.8618 24 19.0571 24 18.0644V12.0001H0V18.0644Z" fill="#FF4B55"/>
<path d="M8.27587 6.62079C5.30494 6.62079 2.89655 9.02923 2.89655 12.0001H13.6552C13.6552 9.02913 11.2468 6.62079 8.27587 6.62079Z" fill="#FF4B55"/>
<path d="M8.27587 17.3795C11.2468 17.3795 13.6552 14.9711 13.6552 12.0002H2.89655C2.89655 14.9711 5.30498 17.3795 8.27587 17.3795Z" fill="#F5F5F5"/>
</svg>
