<svg xmlns="http://www.w3.org/2000/svg" width="24" height="24" viewBox="0 0 24 24" fill="none"><rect width="24" height="24" fill="none"/>
<path d="M22.2026 4.13789H1.79742C0.804703 4.13789 0 4.9426 0 5.93532V18.0647C0 19.0574 0.804703 19.8621 1.79742 19.8621H22.2026C23.1952 19.8621 24 19.0574 24 18.0647V5.93532C24 4.9426 23.1953 4.13789 22.2026 4.13789Z" fill="#82AFFF"/>
<path d="M11.9648 15.0776C14.0696 15.0776 15.7819 13.3651 15.7819 11.2605C15.7819 9.15586 14.0696 7.44342 11.9648 7.44342C9.86011 7.44342 8.14777 9.15586 8.14777 11.2605C8.14772 13.3651 9.86006 15.0776 11.9648 15.0776ZM12.4003 7.84265L12.7284 7.72176C13.1914 7.82161 13.6219 8.00925 14.0008 8.2679C13.9682 8.26462 13.8821 8.25581 13.8673 8.25084C13.8489 8.24475 13.8205 8.36775 13.8205 8.36775L13.971 8.42765L14.0121 8.27644C14.1685 8.38401 14.3145 8.505 14.4519 8.63522L14.2305 8.85656H14.1915L14.1596 8.73164L14.0385 8.514L13.6109 8.35983L13.3151 8.50298L13.483 8.8664C13.0694 8.6032 12.5841 8.44505 12.0629 8.42719V7.92065L12.3643 8.01581L12.239 7.79494L12.0629 7.87031V7.64419C12.1937 7.6477 12.3225 7.65839 12.4495 7.67555L12.3015 7.7249L12.4003 7.84265ZM14.3811 10.6365L14.4531 10.606L14.4713 10.4287C14.5485 10.6608 14.593 10.9071 14.6024 11.1626H13.9386L13.963 11.0565L14.1506 11.0402L14.3059 10.7758L14.3015 10.7262L14.1425 10.9301L14.0453 10.954L13.9834 10.8812L14.0563 10.7574L13.8978 10.6405L13.7554 10.7653C13.7171 10.6269 13.6649 10.4944 13.5973 10.3709L13.6745 10.3428L13.7364 10.3059L13.7359 10.233L13.7756 10.1837L13.7527 10.1696C13.7357 10.1777 13.6471 10.2034 13.6471 10.2034L13.6164 10.3031L13.5724 10.3299C13.5074 10.2181 13.431 10.1141 13.345 10.0186L13.7111 9.65254L13.7142 9.6577L13.8034 9.60412L13.7895 9.57398L13.8983 9.46519C14.1436 9.72919 14.3351 10.0426 14.4568 10.3895L14.3656 10.2541L14.3187 10.2716L14.3811 10.6365ZM13.8985 13.0557L13.7005 12.8577L13.6258 12.6596L13.5873 12.7446L13.5107 12.668L13.5893 12.4273L13.5384 12.2526L13.5348 12.2531C13.5886 12.1683 13.6371 12.0799 13.6768 11.9865L13.6778 11.9865C13.69 11.9865 13.7348 11.9294 13.7348 11.9294L13.845 11.9415L14.1296 11.829L14.0203 11.7254L13.9559 11.6679L13.906 11.5664L13.8169 11.4111C13.8183 11.3937 13.8187 11.376 13.8195 11.3584H14.6025C14.5783 12.013 14.316 12.6063 13.8985 13.0557ZM10.0991 12.9305L10.1971 12.7592L9.98611 12.0218L9.81975 11.6112L9.97064 11.5459L10.0114 11.4235L10.1133 11.4206C10.1489 11.835 10.3213 12.2099 10.5846 12.5022L10.1523 12.9345L10.0991 12.9305ZM10.3346 11.1228L10.3325 11.1626H10.3059C10.3068 11.1476 10.3069 11.1323 10.3082 11.1173L10.3346 11.1228ZM12.8475 12.6684L12.8139 12.6502L12.387 12.8153L12.1657 12.7301L12.0627 12.7586V12.6179L12.1692 12.5857L12.2338 12.6013L12.3698 12.6545L12.2878 12.5046L12.4635 12.6518L12.5478 12.6711L12.5221 12.5587L12.5793 12.373L12.7784 12.2516L12.7956 12.3634L12.5527 12.4954L12.5993 12.5883L12.8519 12.5373L12.8558 12.6633C12.8532 12.665 12.8502 12.6666 12.8475 12.6684ZM11.8411 11.9331L11.8335 11.9168L11.7877 11.9194C11.7287 11.9035 11.6733 11.8801 11.6217 11.85L11.7921 11.8293L11.867 11.6284V11.9357C11.8584 11.9345 11.8495 11.9346 11.8411 11.9331ZM11.1256 11.514L10.9591 11.4883L11.044 11.3583H11.0939C11.0999 11.412 11.1104 11.4637 11.1256 11.514ZM12.0627 10.8367L12.1086 10.8506L12.1663 10.9206L12.0627 11.0242V10.8367ZM12.3714 12.0809L12.2919 12.1739L12.1595 12.2397L12.1151 12.1619L12.0884 12.3166L12.0628 12.3266V12.1315C12.0813 12.1294 12.1004 12.129 12.1185 12.1259L12.1819 12.2053L12.2345 12.1398L12.2304 12.096C12.2596 12.0867 12.2894 12.079 12.3173 12.0667L12.3714 12.0809ZM12.3118 11.0519L12.3097 11.1578L12.3059 11.1626H12.201L12.3118 11.0519ZM12.3747 11.4165L12.5014 11.4124L12.5705 11.47L12.5475 11.5114L12.4508 11.4562L12.3978 11.4976L12.4244 11.577L12.4233 11.5806L12.2011 11.3584H12.3491L12.3747 11.4165ZM12.2909 11.7249L12.1698 11.7119L12.0843 11.9335C12.0773 11.9347 12.0698 11.9347 12.0628 11.9356V11.4967L12.2909 11.7249ZM11.6625 11.1626L11.654 11.1269L11.569 11.1626H11.5314L11.5438 11.111L11.5987 11.0578L11.5552 11.0479L11.5099 11.1123L11.4628 11.1338L11.4683 11.1627H11.4189L11.4487 11.047L11.5357 10.9699L11.7285 11.1627H11.6625V11.1626V11.1626ZM11.2993 11.3584L11.3194 11.382L11.3329 11.3584H11.4029L11.3119 11.4569C11.3022 11.4248 11.2945 11.3922 11.2897 11.3584H11.2993ZM11.4076 11.6563L11.5342 11.4378L11.5011 11.4082L11.5568 11.3794L11.5638 11.3583H11.6529L11.6325 11.3693L11.624 11.3986L11.693 11.394L11.6416 11.4453L11.5895 11.4562L11.5786 11.5083L11.418 11.6688C11.4147 11.6645 11.4108 11.6607 11.4076 11.6563ZM11.867 10.6057L11.8304 10.6L11.8587 10.7175L11.867 10.7239V11.0242L11.7025 10.8597L11.8179 10.7973L11.7136 10.6245C11.7622 10.6053 11.8137 10.593 11.867 10.5852V10.6057ZM10.3221 11.3584L10.3201 11.3956L10.3119 11.4453C10.3088 11.4166 10.3077 11.3874 10.3059 11.3583L10.3221 11.3584ZM10.4178 11.5908L10.5396 11.7132L10.6395 11.6437L10.8748 11.8411L11.1279 11.8856L11.1987 11.6865C11.2226 11.7292 11.2494 11.7694 11.2798 11.8073L11.0623 12.0248L11.0973 11.9357L10.9678 11.9146L11.0093 12.0667L11.0154 12.0718L10.723 12.3641C10.5325 12.1499 10.3951 11.8876 10.3352 11.5965L10.4178 11.5908ZM11.418 11.9456C11.5444 12.0467 11.6979 12.1125 11.867 12.1314V12.3578L11.8648 12.3631L11.867 12.3624V12.5317L11.81 12.5431L11.7769 12.7556L11.867 12.7452V12.8126L11.7244 12.852L11.6769 12.8977C11.367 12.8433 11.0871 12.7032 10.8614 12.5024L11.418 11.9456ZM13.0691 12.7532L13.2127 12.7837L13.354 12.7881L13.4317 12.8657L13.1943 12.8571L13.0414 12.774C13.0508 12.7672 13.0598 12.7601 13.0691 12.7532ZM13.2067 12.3639L13.1639 12.3211L13.251 12.3144C13.237 12.3316 13.2214 12.3473 13.2067 12.3639ZM13.4312 10.4756C13.3646 10.4766 13.3 10.4775 13.2943 10.4775C13.282 10.4775 13.1861 10.5595 13.1861 10.5595L13.1128 10.6544L13.0907 10.5386L13.1426 10.4203L13.1026 10.3836L12.9232 10.4978L12.8851 10.4786L13.0253 10.3384L13.0561 10.3486L13.1454 10.3276L13.1 10.2637L13.2067 10.157C13.293 10.2541 13.3692 10.3604 13.4312 10.4756ZM12.9063 10.1806L12.8977 10.1532L12.8396 10.1624L12.8035 10.2322L12.6439 10.248C12.6556 10.2713 12.7053 10.3684 12.7098 10.3771L12.5117 10.5751C12.4696 10.5415 12.4247 10.512 12.3768 10.4865L12.4013 10.4733L12.3722 10.3749L12.3524 10.3387L12.264 10.4353C12.2 10.412 12.1327 10.3972 12.0627 10.3893V9.60145C12.4477 9.624 12.7972 9.77733 13.0683 10.0185L12.9063 10.1806ZM11.867 10.3895C11.8038 10.3966 11.7429 10.4098 11.6845 10.4295L11.7138 10.3615L11.5611 10.4815L11.5614 10.482C11.5103 10.5086 11.4627 10.5396 11.418 10.5753L10.8614 10.0186C11.1324 9.77747 11.482 9.62414 11.867 9.60159V10.3895ZM11.2482 10.6823L10.9851 10.7284L10.9943 10.6284L10.7761 10.5531L10.4273 10.626C10.4991 10.4527 10.6001 10.2951 10.7229 10.157L11.2482 10.6823ZM10.4035 10.6911L10.513 10.714L10.3817 10.7504C10.3882 10.7302 10.3962 10.7108 10.4035 10.6911ZM10.1101 11.1626H10.0932L10.111 11.1461C10.1107 11.1516 10.1105 11.1571 10.1101 11.1626ZM10.3189 13.0448L10.723 12.6408C10.9435 12.8394 11.2111 12.9856 11.5075 13.0609L11.3683 13.195L11.6679 13.5909L11.867 13.6019V13.8982C11.3442 13.879 10.8599 13.7089 10.457 13.4278L10.5217 13.3858L10.3189 13.0448ZM12.0627 13.6126L12.3151 13.6265L12.3215 13.6844L12.4751 13.8527C12.3411 13.879 12.203 13.893 12.0627 13.8982V13.6126ZM13.6661 13.1001L13.7601 13.194C13.7152 13.2358 13.67 13.2772 13.6222 13.3158L13.6661 13.1001ZM13.7601 9.3269L13.7027 9.38423L13.6348 9.23573L13.5112 9.17001C13.5112 9.17001 13.3961 9.06848 13.3362 9.00595C13.4884 9.09881 13.6302 9.20615 13.7601 9.3269ZM13.3096 8.98969L13.3961 9.29226L13.5981 9.46814L13.606 9.48098L13.2067 9.88026C12.8998 9.60384 12.5016 9.42881 12.0627 9.4058V8.62279C12.517 8.63962 12.9416 8.77097 13.3096 8.98969ZM11.867 9.40589C11.4281 9.4289 11.0298 9.60394 10.723 9.88036L10.1696 9.32695C10.619 8.90939 11.2124 8.64708 11.867 8.62294V9.40589V9.40589ZM10.5846 10.0186C10.3748 10.2515 10.2227 10.5366 10.1516 10.8527L9.97959 11.1626H9.32714C9.35128 10.508 9.61359 9.91462 10.0311 9.46523L10.5846 10.0186ZM9.88528 11.3584L9.69938 11.7579L9.43641 11.6601L9.38705 11.8351C9.35264 11.6808 9.33319 11.5214 9.32719 11.3583H9.88523L9.88528 11.3584ZM9.6892 13.3403L9.71958 13.3672L9.33938 13.7474C9.07683 13.4704 8.85872 13.1523 8.69353 12.8035L8.79464 12.8625L9.46903 13.4626L9.6892 13.3403ZM9.86634 13.4972L9.95841 13.5788L10.257 13.5221C10.7083 13.8638 11.2634 14.0731 11.8669 14.0938V14.8768C10.9425 14.8519 10.1049 14.4802 9.47775 13.8858L9.86634 13.4972ZM12.0627 14.0939C12.2286 14.0882 12.3915 14.0709 12.549 14.0378L12.5672 14.1584L13.0337 14.5024L13.559 14.211L13.7098 13.8931L13.6999 13.6964L13.7991 13.4637L13.7749 13.4448C13.8177 13.4092 13.8578 13.3704 13.8984 13.3325L13.9887 13.4227L14.0161 13.5931L14.1186 13.5525L14.4519 13.8859C13.8248 14.4803 12.9871 14.852 12.0628 14.8769V14.0939H12.0627V14.0939ZM14.1653 13.3225L14.1466 13.0997L14.1216 13.1008C14.5255 12.628 14.7755 12.022 14.7983 11.3583H15.5813C15.5564 12.2827 15.1846 13.1203 14.5903 13.7474L14.1653 13.3225ZM14.7982 11.1626C14.7812 10.6687 14.638 10.2074 14.3991 9.80826L14.7319 10.1196L14.9989 9.8902L14.589 9.27234L14.3185 9.06436L14.3192 9.04444L14.5902 8.77345C15.1846 9.40059 15.5563 10.2382 15.5812 11.1625H14.7982V11.1626V11.1626ZM11.867 8.42709C11.1585 8.45142 10.5163 8.73562 10.0313 9.18853L9.4778 8.63512C10.1049 8.0407 10.9426 7.66898 11.867 7.64409V8.42709ZM9.89283 9.327C9.43997 9.81201 9.15581 10.4542 9.13144 11.1627H8.34844C8.37333 10.2383 8.74505 9.40073 9.33938 8.77359L9.89283 9.327ZM9.13144 11.3584C9.14142 11.6494 9.19495 11.9289 9.28655 12.1915L9.25702 12.2963L8.49202 12.2795C8.40572 11.9861 8.35711 11.6773 8.34848 11.3584H9.13144Z" fill="#F5F5F5"/>
<path d="M9.32779 15.7953L10.0345 15.681C10.0977 15.6707 10.1239 15.5944 10.0801 15.5477C9.91012 15.3661 9.57229 14.99 9.37663 14.6699C9.10748 14.2294 8.63357 13.8663 8.63357 13.8663C8.63357 13.8663 8.72413 15.0777 9.63763 15.4936C9.63763 15.4936 8.73229 15.2653 8.1532 15.1103C7.5741 14.9553 7.41562 14.7848 7.41562 14.7848C7.41562 14.7848 7.86787 15.9421 9.32779 15.7953Z" fill="#F5F5F5"/>
<path d="M8.62635 14.4415C8.60188 14.1396 8.38129 13.3681 7.9655 12.7303C7.9655 12.7303 7.96602 14.2803 8.51638 14.8054C8.51638 14.8054 7.73732 14.0581 7.27241 13.7155C6.83713 13.3948 6.64438 13.0304 6.64438 13.0304C6.64438 13.0304 6.76133 14.0099 7.39475 14.4985C7.82291 14.8288 8.77316 15.0612 8.77316 15.0612C8.77316 15.0612 8.65082 14.7431 8.62635 14.4415Z" fill="#F5F5F5"/>
<path d="M7.13382 13.2832L7.60979 13.6948C7.65943 13.7378 7.73677 13.7039 7.7378 13.6383C7.74038 13.4727 7.75051 13.2214 7.78632 13.063C7.84341 12.8101 7.91401 11.9891 7.62586 11.3923C7.62586 11.3923 7.27754 12.4618 7.54979 13.3525C7.54979 13.3525 7.12215 12.6726 6.68522 12.1576C6.45685 11.8885 6.36643 11.5711 6.36643 11.5711C6.36643 11.5711 6.35897 12.6389 7.13382 13.2832Z" fill="#F5F5F5"/>
<path d="M7.00317 12.2296C7.04048 12.2799 7.11787 12.2693 7.1392 12.2105C7.20177 12.0378 7.32318 11.7274 7.48448 11.4318C7.7781 10.8935 7.64268 10.2599 7.64268 10.2599C7.64268 10.2599 7.17131 11.0679 7.03466 11.9658C7.02576 11.9257 7.01601 11.883 7.00434 11.8341C6.87496 11.2902 6.37176 9.93365 6.37176 9.93365C6.37176 9.93365 6.19476 10.6786 6.41596 11.2687C6.52959 11.5714 6.84721 12.0192 7.00317 12.2296Z" fill="#F5F5F5"/>
<path d="M6.90609 11.0386C6.92029 11.0928 6.99609 11.0941 7.01221 11.0405C7.05726 10.891 7.15092 10.6849 7.34582 10.4857C7.71285 10.1105 7.99115 9.58969 8.13337 9.12418C8.13337 9.12418 7.35027 9.75249 7.10334 10.1761C7.10334 10.1761 7.12776 9.59354 7.04399 9.1725C6.9726 8.81363 7.12429 8.46793 7.12429 8.46793C7.12429 8.46793 6.62807 8.94422 6.70143 9.81689C6.74765 10.3659 6.84229 10.7955 6.90609 11.0386Z" fill="#F5F5F5"/>
<path d="M7.40204 9.54269C7.55058 9.40652 7.81074 9.17458 8.06157 9.03381C8.39462 8.84697 8.65801 8.24425 8.71608 8.11014C8.71608 8.11014 7.7881 8.86956 7.53549 9.11331C7.53549 9.11331 7.68844 8.43433 7.78632 8.14071C7.88419 7.84708 7.87196 7.74921 7.9576 7.62686C7.9576 7.62686 7.51107 8.01836 7.38868 8.33031C7.28813 8.58672 7.3074 9.16952 7.29371 9.49127C7.29118 9.54958 7.35905 9.58211 7.40204 9.54269Z" fill="#F5F5F5"/>
<path d="M8.3409 8.17746C8.6019 7.9654 9.01787 7.34552 9.01787 7.34552C8.91479 7.4044 8.49587 7.54943 8.14519 7.9083C7.79448 8.26718 7.72107 8.7565 7.72107 8.7565C7.72107 8.7565 8.0799 8.38952 8.3409 8.17746Z" fill="#F5F5F5"/>
<path d="M14.2674 15.9748C13.5008 15.8239 12.8442 15.7138 12.0746 15.914C12.0367 15.9238 12.0013 15.9352 11.9648 15.9459C11.9283 15.9353 11.8929 15.9239 11.855 15.914C11.0854 15.7138 10.4288 15.8239 9.66215 15.9748C8.97112 16.1108 8.30948 15.9931 8.30948 15.9931C8.30948 15.9931 8.78948 16.4805 9.88242 16.4805C10.3592 16.4805 10.9584 16.0792 11.3365 16.0578C11.4296 16.0525 11.5216 16.0582 11.6127 16.0684C10.8008 16.3995 10.426 16.9018 10.4187 16.9115C10.3861 16.9545 10.3945 17.0159 10.4375 17.0484C10.4552 17.0619 10.4759 17.0684 10.4966 17.0684C10.5261 17.0684 10.5554 17.055 10.5746 17.0299C10.6044 16.9905 11.2042 16.3702 11.9648 16.141C12.7254 16.3702 13.3252 16.9906 13.355 17.0299C13.3742 17.0551 13.4035 17.0684 13.433 17.0684C13.4536 17.0684 13.4744 17.0619 13.4921 17.0484C13.5351 17.0159 13.5435 16.9545 13.5109 16.9115C13.5036 16.9018 13.1288 16.3995 12.3169 16.0684C12.408 16.0582 12.5 16.0526 12.5931 16.0578C12.9712 16.0792 13.5704 16.4805 14.0472 16.4805C15.1401 16.4805 15.6201 15.9931 15.6201 15.9931C15.6201 15.9931 14.9585 16.1107 14.2674 15.9748Z" fill="#F5F5F5"/>
<path d="M14.2919 15.4936C15.2054 15.0776 15.296 13.8662 15.296 13.8662C15.296 13.8662 14.822 14.2293 14.5529 14.6698C14.3573 14.9899 14.0194 15.3661 13.8495 15.5476C13.8058 15.5943 13.832 15.6706 13.8951 15.6809L14.6018 15.7953C16.0618 15.9421 16.5139 14.7847 16.5139 14.7847C16.5139 14.7847 16.3554 14.9552 15.7763 15.1102C15.1972 15.2652 14.2919 15.4936 14.2919 15.4936Z" fill="#F5F5F5"/>
<path d="M16.6572 13.7155C16.1923 14.0581 15.4132 14.8054 15.4132 14.8054C15.9636 14.2803 15.9641 12.7303 15.9641 12.7303C15.5483 13.3681 15.3277 14.1397 15.3032 14.4415C15.2788 14.7432 15.1564 15.0613 15.1564 15.0613C15.1564 15.0613 16.1066 14.8289 16.5348 14.4986C17.1683 14.0099 17.2852 13.0305 17.2852 13.0305C17.2852 13.0305 17.0925 13.3948 16.6572 13.7155Z" fill="#F5F5F5"/>
<path d="M16.3799 13.3526C16.6521 12.4618 16.3038 11.3924 16.3038 11.3924C16.0157 11.9892 16.0863 12.8103 16.1434 13.0631C16.1792 13.2215 16.1893 13.4727 16.1919 13.6383C16.1929 13.704 16.2703 13.7379 16.3199 13.6949L16.7959 13.2833C17.5707 12.6389 17.5633 11.5713 17.5633 11.5713C17.5633 11.5713 17.4728 11.8886 17.2445 12.1578C16.8075 12.6726 16.3799 13.3526 16.3799 13.3526Z" fill="#F5F5F5"/>
<path d="M16.895 11.9658C16.7583 11.0679 16.2869 10.26 16.2869 10.26C16.2869 10.26 16.1515 10.8935 16.4451 11.4318C16.6064 11.7274 16.7278 12.0379 16.7904 12.2105C16.8118 12.2694 16.8891 12.28 16.9265 12.2297C17.0825 12.0193 17.4 11.5715 17.5136 11.2687C17.7348 10.6786 17.5578 9.93365 17.5578 9.93365C17.5578 9.93365 17.0546 11.2902 16.9252 11.8341C16.9136 11.883 16.9039 11.9257 16.895 11.9658Z" fill="#F5F5F5"/>
<path d="M16.8855 9.17246C16.8018 9.59349 16.8262 10.1761 16.8262 10.1761C16.5793 9.75244 15.7962 9.12413 15.7962 9.12413C15.9384 9.5896 16.2167 10.1104 16.5837 10.4856C16.7786 10.6848 16.8723 10.8909 16.9173 11.0405C16.9335 11.0941 17.0093 11.0927 17.0235 11.0386C17.0873 10.7955 17.1819 10.3659 17.2281 9.8168C17.3015 8.94413 16.8052 8.46783 16.8052 8.46783C16.8052 8.46783 16.9569 8.81363 16.8855 9.17246Z" fill="#F5F5F5"/>
<path d="M16.3942 9.11336C16.1415 8.86952 15.2136 8.11019 15.2136 8.11019C15.2717 8.2443 15.535 8.84706 15.8681 9.03386C16.1189 9.17453 16.3791 9.40652 16.5276 9.54273C16.5705 9.58211 16.6385 9.54963 16.6359 9.49136C16.6222 9.16966 16.6415 8.58681 16.541 8.33041C16.4186 8.01845 15.972 7.62695 15.972 7.62695C16.0577 7.7493 16.0455 7.84717 16.1433 8.1408C16.2412 8.43438 16.3942 9.11336 16.3942 9.11336Z" fill="#F5F5F5"/>
<path d="M15.5887 8.17746C15.8497 8.38947 16.2086 8.7565 16.2086 8.7565C16.2086 8.7565 16.1352 8.26713 15.7844 7.9083C15.4338 7.54943 15.0148 7.4044 14.9118 7.34552C14.9118 7.34552 15.3277 7.9654 15.5887 8.17746Z" fill="#F5F5F5"/>
<path d="M13.9896 10.1949L13.8232 10.3045L14.0007 10.3322L14.1946 10.5467L14.3032 10.4768L14.1729 10.2104L13.9896 10.1949Z" fill="#F5F5F5"/>
<path d="M14.2522 11.1085L14.3138 11.132L14.4698 10.7131L14.4269 10.6549L14.3596 10.6885L14.2526 11.0679L14.2522 11.1085Z" fill="#F5F5F5"/>
<path d="M12.6866 10.398L12.6377 10.346L12.5276 10.4867L12.555 10.5292L12.6866 10.398Z" fill="#F5F5F5"/>
<path d="M13.8137 10.0707L13.8435 9.97502L13.745 9.99499L13.7171 10.0029L13.6879 10.042L13.7944 10.1654L13.8375 10.1287L13.8137 10.0707Z" fill="#F5F5F5"/>
<path d="M11.8363 12.3127L11.8379 12.2531L11.7629 12.3616L11.7844 12.3983L11.8363 12.3127Z" fill="#F5F5F5"/>
</svg>
