<svg xmlns="http://www.w3.org/2000/svg" width="24" height="24" viewBox="0 0 24 24" fill="none"><rect width="24" height="24" fill="none"/>
<path d="M0.642 4.55869C0.249609 4.88841 0 5.38257 0 5.93518V18.0645C0 18.6173 0.249797 19.1116 0.642375 19.4414L12 12.0001L0.642 4.55869Z" fill="#F5F5F5"/>
<path d="M0.64238 19.4414C0.954802 19.7037 1.35755 19.8619 1.79743 19.8619H22.2026C23.1952 19.8619 24 19.0572 24 18.0645V12.0001H12L0.64238 19.4414Z" fill="#73AF00"/>
<path d="M22.2134 4.13808H1.78664C1.3508 4.14065 0.951842 4.2983 0.641998 4.55869L12 12.0001H24V5.93517C24 4.94611 23.201 4.14389 22.2134 4.13808Z" fill="#82AFFF"/>
<path d="M4.30153 10.1314L3.88246 11.388L2.55792 11.3983C2.48531 11.3988 2.45521 11.4916 2.51357 11.5347L3.57914 12.3216L3.17962 13.5845C3.15773 13.6538 3.23657 13.711 3.29564 13.6688L4.37324 12.8986L5.45085 13.6688C5.50992 13.711 5.58876 13.6537 5.56687 13.5845L5.16735 12.3216L6.23292 11.5347C6.29132 11.4916 6.26123 11.3988 6.18857 11.3983L4.86403 11.388L4.44496 10.1314C4.42195 10.0625 4.32449 10.0625 4.30153 10.1314Z" fill="#FF4B55"/>
</svg>
