<svg xmlns="http://www.w3.org/2000/svg" width="24" height="24" viewBox="0 0 24 24" fill="none"><rect width="24" height="24" fill="none"/>
<path d="M1.79742 19.8621H22.2026C23.1952 19.8621 24 19.0574 24 18.0647V15.7242H0V18.0647C0 19.0574 0.804703 19.8621 1.79742 19.8621Z" fill="#73AF00"/>
<path d="M24 5.93536C24 4.94269 23.1953 4.13794 22.2026 4.13794H1.79742C0.804703 4.13794 0 4.94264 0 5.93536V15.7242H24V5.93536Z" fill="#FF4B55"/>
<path d="M1.79742 19.8621H3.31036V4.13794H1.79742C0.804703 4.13794 0 4.94264 0 5.93536V18.0647C0 19.0574 0.804703 19.8621 1.79742 19.8621Z" fill="#F5F5F5"/>
<path d="M2.89634 14.9871H2.75066V15.3972H2.89634V14.9871Z" fill="#FF4B55"/>
<path d="M0.56065 6.81958H0.414307V7.22974H0.56065V6.81958Z" fill="#FF4B55"/>
<path d="M0.414032 8.05318H0.487532V8.26121H0.560376V8.46633H0.778813V8.26121H0.85236V8.05318H0.923751V7.77971H0.85236V7.57168H0.778813V7.3696H0.560376V7.57168H0.487532V7.77971H0.414032V8.05318ZM0.560376 7.8481H0.632516V7.71141H0.707516V7.8481H0.778813V7.98479H0.707516V8.12447H0.632516V7.98479H0.560376V7.8481V7.8481Z" fill="#FF4B55"/>
<path d="M0.56065 8.60318H0.414307V9.01624H0.56065V8.60318Z" fill="#FF4B55"/>
<path d="M1.72845 6.81958H1.58206V7.22974H1.72845V6.81958Z" fill="#FF4B55"/>
<path d="M1.36358 7.3696V7.57168H1.29074V7.77971H1.21719V8.05318H1.29074V8.26121H1.36358V8.46633H1.58202V8.26121H1.72841V8.46633H1.9476V8.26121H2.0219V8.05318H2.09329V7.77971H2.0219V7.57168H1.9476V7.3696H1.72841V7.57168H1.58202V7.3696H1.36358ZM1.72846 7.8481H1.80201V7.71141H1.87555V7.8481H1.9476V7.98479H1.87555V8.12447H1.80201V7.98479H1.72846V7.8481ZM1.58207 7.98483H1.51002V8.12452H1.43568V7.98483H1.36363V7.84815H1.43568V7.71146H1.51002V7.84815H1.58207V7.98483Z" fill="#FF4B55"/>
<path d="M0.56065 13.4092H0.414307V13.6826H0.56065V13.4092Z" fill="#FF4B55"/>
<path d="M0.56065 10.3206H0.414307V10.594H0.56065V10.3206Z" fill="#FF4B55"/>
<path d="M1.72845 8.60318H1.58206V9.01624H1.72845V8.60318Z" fill="#FF4B55"/>
<path d="M0.56065 14.9871H0.414307V15.3972H0.56065V14.9871Z" fill="#FF4B55"/>
<path d="M0.560376 12.0031V12.0002V11.7952H0.414032V12.0002V12.0031V12.2082H0.560376V12.0031Z" fill="#FF4B55"/>
<path d="M0.56065 18.7647H0.414307V19.1749H0.56065V18.7647Z" fill="#FF4B55"/>
<path d="M2.89634 18.7647H2.75066V19.1749H2.89634V18.7647Z" fill="#FF4B55"/>
<path d="M0.56065 16.7735H0.414307V17.1836H0.56065V16.7735Z" fill="#FF4B55"/>
<path d="M1.72845 18.7647H1.58206V19.1749H1.72845V18.7647Z" fill="#FF4B55"/>
<path d="M2.52941 7.36664V7.57167H2.45737V7.7797H2.38382V8.05317H2.45737V8.2582H2.52941V8.46333H2.7494V8.2582H2.82224V8.05317H2.89429V7.7797H2.82224V7.57167H2.7494V7.36664H2.52941ZM2.7494 7.98483H2.67585V8.12147H2.60226V7.98483H2.52941V7.84514H2.60226V7.71136H2.6758V7.84514H2.74935L2.7494 7.98483Z" fill="#FF4B55"/>
<path d="M2.89634 4.82831H2.75066V5.23846H2.89634V4.82831Z" fill="#FF4B55"/>
<path d="M0.56065 4.82831H0.414307V5.23846H0.56065V4.82831Z" fill="#FF4B55"/>
<path d="M2.89634 8.60318H2.75066V9.01624H2.89634V8.60318Z" fill="#FF4B55"/>
<path d="M2.89634 6.81958H2.75066V7.22974H2.89634V6.81958Z" fill="#FF4B55"/>
<path d="M1.72845 4.82831H1.58206V5.23846H1.72845V4.82831Z" fill="#FF4B55"/>
<path d="M1.14369 17.7339H0.998795V18.0758H1.14369V17.7339Z" fill="#FF4B55"/>
<path d="M1.36358 12.0031V12.0002V11.7952H1.21719V12.0002V12.0031V12.2082H1.36358V12.0031Z" fill="#FF4B55"/>
<path d="M2.16755 4.5517V4.89656H2.02191V5.23837H1.87556V5.58309H1.72842V5.9249H1.58203V5.58309H1.43564V5.23837H1.29075V4.89656H1.14516V4.5517H0.998766V4.89656H0.852375V5.23837H0.707485V5.58309H0.560344V5.9249H0.414047V6.26976H0.560391V6.61157H0.707532V6.95629H0.852422V7.30101H0.998813V7.64282H1.1437V7.30101H1.29084V6.95629H1.43573V6.61157H1.58213V6.26976H1.72852V6.61157H1.87566V6.95629H2.02055V7.30101H2.16764V7.64282H2.31333V7.30101H2.45892V6.95629H2.60527V6.61157H2.75086V6.26976H2.89655V5.9249H2.75161V5.58309H2.60522V5.23837H2.45888V4.89656H2.31328V4.5517H2.16755ZM1.43564 6.26967H1.29075V6.61148H1.14361V6.9562H0.998766V6.61148H0.852375V6.26967H0.707485V5.92481H0.852375V5.58299H0.998766V5.23828H1.14366V5.58299H1.2908V5.92481H1.43569L1.43564 6.26967ZM2.45892 5.58309V5.9249H2.60527V6.26976H2.45892V6.61157H2.31333V6.95629H2.16764V6.61157H2.022V6.26976H1.87566V5.9249H2.022V5.58309H2.16764V5.23837H2.31333V5.58309H2.45892Z" fill="#FF4B55"/>
<path d="M1.72845 11.2807H1.58206V11.6225H1.72845V11.2807Z" fill="#FF4B55"/>
<path d="M1.72845 12.3804H1.58206V12.7222H1.72845V12.3804Z" fill="#FF4B55"/>
<path d="M1.94765 12.0002V12.0031V12.2082H2.09329V12.0031V12.0002V11.7952H1.94765V12.0002Z" fill="#FF4B55"/>
<path d="M2.02194 18.7648V19.1066H2.16758V19.4485H2.31327V19.1066H2.45886V18.7648H2.6052V18.4201H2.75159V18.0754H2.89653V17.7336H2.75084V17.3887H2.60525V17.0469H2.45891V16.7022H2.31331V16.3604H2.16763V16.7022H2.02053V17.0469H1.87564V17.3887H1.7285V17.7336H1.58211V17.3887H1.43572V17.0469H1.29083V16.7022H1.14369V16.3604H0.998798V16.7022H0.852407V17.0469H0.707516V17.3887H0.560376V17.7336H0.414032V18.0754H0.560376V18.4201H0.707516V18.7648H0.852407V19.1066H0.998798V19.4485H1.14519V19.1066H1.29083V18.7648H1.43572V18.4201H1.58211V18.0754H1.7285V18.4201H1.87564V18.7648H2.02194ZM1.43563 18.0753H1.29074V18.42H1.14359V18.7648H0.998751V18.42H0.85236V18.0753H0.70747V17.7335H0.85236V17.3886H0.998751V17.0468H1.14364V17.3886H1.29078V17.7335H1.43567L1.43563 18.0753ZM1.87559 17.7336H2.02194V17.3887H2.16758V17.0469H2.31327V17.3887H2.45886V17.7336H2.6052V18.0754H2.45886V18.4201H2.31327V18.7648H2.16758V18.4201H2.02194V18.0754H1.87559C1.87559 18.0753 1.87559 17.7336 1.87559 17.7336Z" fill="#FF4B55"/>
<path d="M1.80201 11.6912H1.72846V11.7952H1.58207V11.6912H1.51002V11.5544H1.36359V11.7595H1.43563V11.8635H1.51002V12.0002V12.0032V12.1369H1.43563V12.2409H1.36359V12.446H1.51002V12.3094H1.58207V12.2082H1.72846V12.3094H1.80201V12.446H1.94765V12.2409H1.8756V12.1369H1.80201V12.0032V12.0002V11.8635H1.8756V11.7595H1.94765V11.5544H1.80201V11.6912Z" fill="#FF4B55"/>
<path d="M2.31317 5.92517H2.16748V6.27003H2.31317V5.92517Z" fill="#FF4B55"/>
<path d="M2.31317 17.7339H2.16748V18.0758H2.31317V17.7339Z" fill="#FF4B55"/>
<path d="M0.778813 16.6338V16.4288H0.85236V16.2237H0.923751V15.9473H0.85236V15.7423H0.778813V15.5371H0.560376V15.7423H0.487532V15.9473H0.414032V16.2237H0.487532V16.4288H0.560376V16.6338H0.778813ZM0.560376 16.0155H0.633923V15.8789H0.707469V16.0155H0.778766V16.1552H0.707469V16.2919H0.633923V16.1552H0.560376V16.0155V16.0155Z" fill="#FF4B55"/>
<path d="M1.14369 5.92517H0.998795V6.27003H1.14369V5.92517Z" fill="#FF4B55"/>
<path d="M2.89634 16.7735H2.75066V17.1836H2.89634V16.7735Z" fill="#FF4B55"/>
<path d="M1.94765 16.6338V16.4288H2.02194V16.2237H2.09333V15.9473H2.02194V15.7423H1.94765V15.5371H1.72846V15.7423H1.58207V15.5371H1.36363V15.7423H1.29079V15.9473H1.21724V16.2237H1.29079V16.4288H1.36363V16.6338H1.58207V16.4288H1.72846V16.6338H1.94765ZM1.58207 16.1552H1.51002V16.2919H1.43568V16.1552H1.36363V16.0155H1.43568V15.8789H1.51002V16.0155H1.58207V16.1552ZM1.72846 16.0155H1.80201V15.8789H1.87555V16.0155H1.9476V16.1552H1.87555V16.2919H1.80201V16.1552H1.72846V16.0155Z" fill="#FF4B55"/>
<path d="M1.72845 16.7735H1.58206V17.1836H1.72845V16.7735Z" fill="#FF4B55"/>
<path d="M1.72845 14.9871H1.58206V15.3972H1.72845V14.9871Z" fill="#FF4B55"/>
<path d="M2.89634 13.4092H2.75066V13.6826H2.89634V13.4092Z" fill="#FF4B55"/>
<path d="M2.7494 16.6338V16.4287H2.82224V16.2237H2.89429V15.9502H2.82224V15.7422H2.7494V15.54H2.52941V15.7422H2.45737V15.9502H2.38382V16.2237H2.45737V16.4287H2.52941V16.6338H2.7494ZM2.52941 16.0186H2.60226V15.8819H2.6758V16.0186H2.74935V16.1552H2.6758V16.2949H2.60226V16.1552H2.52941V16.0186Z" fill="#FF4B55"/>
<path d="M2.75084 12.0002V12.0031V12.2082H2.89653V12.0031V12.0002V11.7952H2.75084V12.0002Z" fill="#FF4B55"/>
<path d="M2.89634 10.3206H2.75066V10.594H2.89634V10.3206Z" fill="#FF4B55"/>
<path d="M2.89653 9.56307H2.75084V9.22126H2.60525V8.8764H2.45891V8.53458H2.31331V8.18987H2.16763V8.53458H2.02053V8.8764H1.87564V9.22126H1.7285V9.49463V9.56302H1.58211V9.22121H1.43572V8.87635H1.29083V8.53454H1.14369V8.18982H0.998798V8.53454H0.852407V8.87635H0.706016V9.22121H0.560376V9.49458V9.56298H0.414032V9.90769H0.560376V10.2524H0.706016V10.5942H0.852407V10.9361H0.998798V10.5942H1.14369V10.2524H1.29083V9.90769H1.14369V9.49454H1.29083V9.56293V9.77096H1.43572V10.3209H1.51006V10.6597L1.29088 10.6626V10.9361H1.14374V11.1411H0.998844V11.4858H0.852454V11.1411H0.706063V10.9361H0.560423V10.731H0.414032V11.3491H0.560376V11.6256H0.706016V11.8634H0.852407V12.0002V12.0031V12.1369H0.706016V12.3806H0.560376V12.6541H0.414032V13.2723H0.560376V13.0642H0.706016V12.8592H0.852407V12.5174H0.998798V12.8592H1.14369V13.0642H1.29083V13.3406L1.51002 13.3436V13.6824H1.43567V14.2323H1.29078V14.4373V14.5087H1.14364V14.0926H1.29078V13.7508H1.14364V13.409H0.998751V13.0641H0.85236V13.409H0.705969V13.7508H0.560329V14.0926H0.414032V14.4373H0.560376V14.5087V14.7791H0.707516V15.124H0.852407V15.4687H0.998798V15.8105H1.14369V15.4687H1.29083V15.124H1.43572V14.7791H1.58211V14.4373H1.7285V14.5087V14.7791H1.87564V15.124H2.02199V15.4687H2.16763V15.8105H2.31331V15.4687H2.45891V15.124H2.60525V14.7791H2.75084V14.4373H2.89653V14.0926H2.75084V13.7508H2.60525V13.409H2.45891V13.0641H2.31331V13.409H2.16763V13.7508H2.02053V14.0926H2.16763V14.4373V14.5087H2.02053V14.4373V14.2323H1.87564V13.6824H1.85478H1.80209V13.3406H1.85478H1.8942H1.94769H2.02199V13.0642H2.16763V12.8591H2.31331V12.5173H2.45891V12.8591H2.60525V13.0642H2.75164V13.2722H2.89658V12.6541H2.75164V12.3806H2.60525V12.1369H2.45891V12.0031V12.0002V11.8635H2.60525V11.6257H2.75164V11.3493H2.89658V10.7311H2.75164V10.9362H2.60525V11.1413H2.45891V11.486H2.31331V11.1413H2.16763V10.9362H2.02199V10.6628H1.94764H1.89416H1.85474H1.80205V10.3209H1.85474H1.87559V9.77105H2.02049V9.56302V9.49463H2.16758V9.56302V9.90774H2.02049V10.2525H2.16758V10.5943H2.31327V10.9361H2.45886V10.5943H2.6052V10.2525H2.7508V9.90774H2.89649L2.89653 9.56307ZM2.02194 11.3492V11.4859V11.6256H2.16758V11.8634H2.31327V12.0002V12.1369H2.16758V12.3806H2.02194V12.5173V12.654H1.80205V12.978H1.7285V13.1325H1.6557H1.58211V12.978H1.51006V12.654H1.29088V12.3805H1.14374V12.1368H0.998798V12.006V11.9971V11.8633H1.14369V11.6255H1.29083V11.3491H1.51002V11.0251H1.58206V10.8676H1.65566H1.72845V11.0221H1.802V11.3491H2.02194V11.3492Z" fill="#FF4B55"/>
</svg>
