<svg xmlns="http://www.w3.org/2000/svg" width="24" height="24" viewBox="0 0 24 24" fill="none"><rect width="24" height="24" fill="none"/>
<path d="M22.2026 19.8621H1.79742C0.804703 19.8621 0 19.0574 0 18.0646V5.93536C0 4.94269 0.804703 4.13794 1.79742 4.13794H22.2026C23.1952 4.13794 24 4.94264 24 5.93536V18.0647C24 19.0574 23.1953 19.8621 22.2026 19.8621Z" fill="#FF4B55"/>
<path d="M10.5224 12.6059C10.0007 12.6113 9.41499 12.4443 8.90176 11.8785C8.86637 11.8395 8.87129 11.7781 8.91155 11.744L8.91174 11.7439C8.95074 11.7108 9.0084 11.7159 9.04285 11.7537C9.82519 12.6128 10.7948 12.4624 11.3742 12.2548C11.1601 12.2644 10.8912 12.2483 10.7183 12.1346C9.99568 11.6596 10.323 11.1543 9.84305 10.5435C9.36619 9.93654 8.9371 9.9514 8.26144 10.0538C7.59254 10.1552 7.37944 9.66452 7.31312 9.39223C7.30126 9.34343 7.23319 9.34038 7.21576 9.3874C6.38204 11.6399 8.88891 14.4271 11.4627 12.4231C11.2087 12.5166 10.8816 12.6023 10.5224 12.6059ZM8.64422 11.8415C8.6296 11.8818 8.57218 11.8802 8.55976 11.8392L8.46376 11.5228L8.13333 11.5113C8.09054 11.5098 8.07432 11.4547 8.10943 11.4302L8.38065 11.2412L8.28957 10.9233C8.27776 10.8822 8.32515 10.8497 8.35927 10.8755L8.6229 11.075L8.89702 10.8901C8.93251 10.8662 8.97802 10.9012 8.96401 10.9416L8.85572 11.254L9.11626 11.4576C9.14996 11.484 9.13074 11.5381 9.08794 11.5372L8.75738 11.5308L8.64422 11.8415Z" fill="#F5F5F5"/>
<path d="M12.3689 11.1093C12.7831 10.7922 13.3519 10.5746 14.1019 10.7195C14.1536 10.7295 14.1865 10.7816 14.1748 10.833L14.1748 10.8332C14.1634 10.883 14.1142 10.9135 14.0639 10.9038C12.9227 10.6855 12.2369 11.3874 11.8979 11.901C12.0634 11.765 12.2883 11.6166 12.4949 11.6039C13.3579 11.5506 13.399 12.1513 14.1495 12.3522C14.895 12.5519 15.2295 12.2827 15.7088 11.7955C16.1833 11.3132 16.6481 11.5781 16.8644 11.7562C16.9031 11.7881 16.9594 11.7498 16.9452 11.7017C16.2615 9.3992 12.5838 8.67231 11.7262 11.8195C11.8732 11.5925 12.0836 11.3277 12.3689 11.1093ZM14.3302 10.5947C14.3178 10.5537 14.3647 10.5205 14.3992 10.5459L14.6658 10.7414L14.9371 10.5525C14.9723 10.528 15.0183 10.5624 15.0049 10.603L14.9013 10.917L15.1648 11.1167C15.1989 11.1426 15.1804 11.1969 15.1377 11.1968L14.8071 11.1952L14.6986 11.5075C14.6845 11.548 14.6271 11.5472 14.614 11.5065L14.5134 11.1916L14.1828 11.1849C14.14 11.1841 14.1229 11.1293 14.1577 11.1043L14.4261 10.9112L14.3302 10.5947Z" fill="#F5F5F5"/>
<path d="M10.9875 11.3264C10.784 10.8461 10.7156 10.2408 11.0435 9.55094C11.0661 9.50336 11.1248 9.48457 11.1716 9.5088L11.1718 9.50889C11.2172 9.53238 11.2344 9.58769 11.2126 9.63391C10.7157 10.6843 11.2239 11.5238 11.6362 11.9805C11.5459 11.7862 11.4586 11.5314 11.4978 11.3282C11.6621 10.4792 12.254 10.5896 12.6362 9.91329C13.0161 9.24133 12.8391 8.85021 12.4873 8.26427C12.139 7.68424 12.5117 7.30047 12.7383 7.13557C12.7788 7.10603 12.7558 7.04196 12.7057 7.04374C10.3054 7.12985 8.68173 10.5087 11.5143 12.1263C11.3313 11.9271 11.1276 11.6572 10.9875 11.3264ZM10.9797 9.29871C10.9369 9.30049 10.9166 9.24677 10.9497 9.21972L11.2058 9.01057L11.0907 8.70058C11.0758 8.66046 11.1206 8.62446 11.1566 8.64761L11.4346 8.82649L11.6939 8.62132C11.7274 8.59474 11.7755 8.62619 11.7646 8.66763L11.6804 8.98732L11.9556 9.17046C11.9912 9.19418 11.9761 9.24958 11.9334 9.25202L11.6034 9.27072L11.5142 9.5891C11.5027 9.6303 11.4453 9.63311 11.4298 9.59322L11.31 9.28511L10.9797 9.29871Z" fill="#F5F5F5"/>
<path d="M12.8577 12.4164C13.2888 12.71 13.6741 13.1818 13.7721 13.9393C13.7789 13.9916 13.7397 14.0392 13.6872 14.0442H13.6869C13.636 14.0491 13.5916 14.0118 13.585 13.9612C13.4338 12.8091 12.552 12.3785 11.9579 12.2179C12.139 12.3324 12.3505 12.4992 12.4275 12.6914C12.7492 13.494 12.1919 13.7218 12.2368 14.4973C12.2813 15.2679 12.6419 15.5008 13.2551 15.8029C13.862 16.1019 13.7565 16.6263 13.6554 16.8877C13.6373 16.9345 13.6913 16.9759 13.7325 16.9472C15.7038 15.5749 15.2388 11.8552 11.9815 12.0294C12.2434 12.0977 12.5608 12.2142 12.8577 12.4164ZM13.9624 14.1168C13.9974 14.0922 14.0436 14.1263 14.0304 14.167L13.9284 14.4815L14.193 14.6798C14.2272 14.7054 14.2091 14.76 14.1663 14.76L13.8357 14.7602L13.7289 15.0731C13.7151 15.1136 13.6576 15.1132 13.6444 15.0725L13.542 14.7581L13.2114 14.7532C13.1686 14.7526 13.1513 14.6978 13.1859 14.6726L13.4533 14.4781L13.3558 14.1622C13.3432 14.1212 13.3898 14.0878 13.4245 14.113L13.6921 14.3071L13.9624 14.1168Z" fill="#F5F5F5"/>
<path d="M11.7793 13.3513C11.6308 13.8513 11.2987 14.3619 10.6068 14.6857C10.5592 14.7081 10.5019 14.6852 10.4812 14.6368L10.4811 14.6366C10.461 14.5896 10.4829 14.536 10.5291 14.5142C11.5805 14.0196 11.7224 13.0487 11.6946 12.4339C11.6407 12.6413 11.5461 12.8935 11.3865 13.0253C10.7198 13.576 10.3332 13.1143 9.60812 13.3931C8.88765 13.67 8.77548 14.0845 8.67428 14.7604C8.57415 15.4295 8.04245 15.4886 7.76275 15.4718C7.71268 15.4688 7.68967 15.5329 7.72947 15.5634C9.63653 17.0235 13.0384 15.4488 11.8814 12.399C11.8961 12.6691 11.8816 13.0069 11.7793 13.3513ZM10.4956 14.9209C10.5297 14.9468 10.5113 15.0012 10.4685 15.001L10.138 14.9995L10.0296 15.3119C10.0156 15.3523 9.95809 15.3516 9.94506 15.3109L9.84423 14.996L9.51367 14.9894C9.47087 14.9886 9.45376 14.9338 9.48854 14.9087L9.75686 14.7155L9.66095 14.3991C9.64853 14.3582 9.6954 14.325 9.7299 14.3503L9.99653 14.5458L10.2678 14.3568C10.3029 14.3323 10.349 14.3667 10.3356 14.4073L10.2321 14.7213L10.4956 14.9209Z" fill="#F5F5F5"/>
</svg>
