<svg xmlns="http://www.w3.org/2000/svg" width="24" height="24" viewBox="0 0 24 24" fill="none"><rect width="24" height="24" fill="none"/>
<path d="M22.2026 19.8621H1.79742C0.804703 19.8621 0 19.0574 0 18.0646V5.93536C0 4.94269 0.804703 4.13794 1.79742 4.13794H22.2026C23.1952 4.13794 24 4.94264 24 5.93536V18.0647C24 19.0574 23.1953 19.8621 22.2026 19.8621Z" fill="#F5F5F5"/>
<path d="M9.79055 15.1009C8.83524 14.8828 7.98357 14.3896 7.32465 13.708V15.1657C8.04366 15.6901 8.88258 16.0576 9.79055 16.2257V15.1009Z" fill="#FFECD7"/>
<path d="M14.207 15.1007C15.1624 14.8826 16.014 14.3894 16.673 13.7078V15.1655C15.9539 15.6899 15.115 16.0574 14.207 16.2255V15.1007Z" fill="#FFECD7"/>
<path d="M9.36719 11.9412C9.32121 11.9504 9.25675 12.07 9.23838 12.2724C9.21996 12.4748 9.09119 13.3305 8.8151 13.2385C8.53905 13.1465 8.35507 12.7416 8.35507 12.7416L7.96863 13.3029C7.96863 13.3029 8.22625 13.2017 8.49311 13.3213C8.75997 13.4409 8.82433 13.5053 8.89797 13.4318C8.97157 13.3582 9.14641 13.1373 9.28441 13.1557L9.44083 12.0423L9.36719 11.9412Z" fill="#FFE15A"/>
<path d="M7.83983 13.7722C7.83983 13.7722 7.77542 14.3059 7.81222 14.3703C7.84906 14.4347 8.86114 14.6739 8.86114 14.6739C8.86114 14.6739 8.56672 14.9131 8.55753 15.042C8.55753 15.042 8.19865 15.1064 8.06989 15.2168L7.59144 14.4255L7.57301 13.7722H7.83983Z" fill="#FFE15A"/>
<path d="M7.52016 8.91886L7.52705 8.64282C7.52705 8.64282 7.20267 8.60832 7.16133 9.3398L7.044 9.01543C7.044 9.01543 6.80245 9.3398 6.94739 9.86424L6.88528 9.91257C6.88528 9.91257 6.56784 9.49163 6.37463 8.94647C6.37463 8.94647 6.05025 9.2018 6.4298 9.9264L5.96058 9.33291C5.96058 9.33291 5.72597 9.82979 6.4298 10.4233L5.76731 9.95405C5.76731 9.95405 5.72592 10.4924 6.36769 10.8374L5.72588 10.4923C5.72588 10.4923 5.74655 11.0099 6.49186 11.2652L5.78794 11.1341C5.78794 11.1341 5.96616 11.5573 6.48666 11.6715C6.37734 11.7935 6.27638 11.9574 6.25027 12.1693L6.77475 11.8794C6.77475 11.8794 6.52631 12.1347 6.59531 12.4867L7.40274 11.6793L7.29239 11.6299C7.90322 11.5154 7.77539 11.4722 7.77539 11.4722C7.77539 11.4722 7.3245 10.3129 7.6282 9.5124C7.93181 8.71191 8.19867 8.60147 8.19867 8.56468C8.19872 8.52779 7.87209 8.48405 7.52016 8.91886Z" fill="#FFECD7"/>
<path d="M8.14355 9.3835C8.14355 9.3835 9.19248 10.4876 9.2109 10.5889C9.22932 10.6901 9.10046 10.6717 9.10046 10.6717C9.10046 10.6717 8.84284 10.3405 8.49315 10.2117C8.14351 10.0829 7.91349 9.67801 7.77549 9.58605C7.63749 9.49394 8.14355 9.3835 8.14355 9.3835Z" fill="#FFE15A"/>
<path d="M7.7939 9.65034C7.9319 9.69633 8.24479 9.63192 8.23556 9.34673C8.22637 9.06145 7.94114 8.95111 7.72949 9.01551C7.5179 9.07992 7.12218 9.37439 7.37062 9.94486C7.61906 10.5153 7.98712 10.727 8.06071 11.2147C8.06071 11.2147 7.7295 11.2652 7.55465 11.2238C7.40437 11.1883 7.14979 11.0674 7.20501 10.7362C7.26018 10.405 7.38904 10.2117 7.2786 10.0277C7.16817 9.84365 6.81857 9.52162 6.81857 9.52162C6.81857 9.52162 6.06407 11.4539 7.42589 11.96C7.42589 11.96 6.78182 12.5765 6.45979 13.1745L6.65301 13.2297C6.65301 13.2297 6.31256 13.5977 6.11934 13.7357C6.11934 13.7357 6.75421 13.9566 7.3799 13.2389C7.3799 13.2389 7.53632 13.4965 7.57312 13.7725H7.83998C7.83998 13.7725 7.932 13.3309 8.35528 12.9629C8.77856 12.5948 9.20812 12.07 9.16495 11.5919C9.11437 11.0306 8.69165 10.7781 8.25173 10.4302C7.65815 9.96089 7.7939 9.65034 7.7939 9.65034Z" fill="#FFF5E1"/>
<path d="M14.6327 11.9414C14.6787 11.9506 14.7431 12.0702 14.7615 12.2726C14.7799 12.4751 14.9087 13.3307 15.1848 13.2387C15.4608 13.1467 15.6449 12.7418 15.6449 12.7418L16.0313 13.3031C16.0313 13.3031 15.7737 13.2019 15.5068 13.3215C15.24 13.4412 15.1756 13.5056 15.102 13.432C15.0284 13.3584 14.8535 13.1376 14.7155 13.1559L14.5591 12.0426L14.6327 11.9414Z" fill="#FFE15A"/>
<path d="M16.1601 13.7722C16.1601 13.7722 16.2245 14.3059 16.1877 14.3703C16.1508 14.4347 15.1388 14.6739 15.1388 14.6739C15.1388 14.6739 15.4332 14.9131 15.4424 15.042C15.4424 15.042 15.8012 15.1064 15.93 15.2168L16.4085 14.4255L16.4269 13.7722H16.16H16.1601Z" fill="#FFE15A"/>
<path d="M16.4798 8.91886L16.473 8.64282C16.473 8.64282 16.7973 8.60832 16.8387 9.3398L16.956 9.01543C16.956 9.01543 17.1975 9.3398 17.0526 9.86424L17.1147 9.91257C17.1147 9.91257 17.4322 9.49163 17.6254 8.94647C17.6254 8.94647 17.9498 9.2018 17.5702 9.9264L18.0394 9.33291C18.0394 9.33291 18.274 9.82979 17.5702 10.4233L18.2327 9.95405C18.2327 9.95405 18.2741 10.4924 17.6323 10.8374L18.2741 10.4923C18.2741 10.4923 18.2535 11.0099 17.5081 11.2652L18.2121 11.1341C18.2121 11.1341 18.0338 11.5573 17.5133 11.6715C17.6227 11.7935 17.7236 11.9574 17.7497 12.1693L17.2253 11.8794C17.2253 11.8794 17.4737 12.1347 17.4047 12.4867L16.5973 11.6793L16.7076 11.6299C16.0967 11.5154 16.2246 11.4722 16.2246 11.4722C16.2246 11.4722 16.6755 10.3129 16.3718 9.5124C16.0681 8.71191 15.8013 8.60147 15.8013 8.56468C15.8013 8.52779 16.1279 8.48405 16.4798 8.91886Z" fill="#FFECD7"/>
<path d="M15.8565 9.3835C15.8565 9.3835 14.8075 10.4876 14.7891 10.5889C14.7707 10.6901 14.8995 10.6717 14.8995 10.6717C14.8995 10.6717 15.1572 10.3405 15.5069 10.2117C15.8565 10.0829 16.0865 9.67801 16.2245 9.58605C16.3625 9.49408 15.8565 9.3835 15.8565 9.3835Z" fill="#FFE15A"/>
<path d="M16.2061 9.65034C16.0681 9.69633 15.7552 9.63192 15.7644 9.34673C15.7736 9.06145 16.0589 8.95111 16.2705 9.01551C16.4821 9.07992 16.8778 9.37439 16.6294 9.94486C16.3809 10.5153 16.0129 10.727 15.9393 11.2147C15.9393 11.2147 16.2705 11.2652 16.4453 11.2238C16.5956 11.1883 16.8502 11.0674 16.795 10.7362C16.7398 10.405 16.611 10.2117 16.7214 10.0277C16.8318 9.84365 17.1814 9.52162 17.1814 9.52162C17.1814 9.52162 17.9359 11.4539 16.5741 11.96C16.5741 11.96 17.2182 12.5765 17.5402 13.1745L17.347 13.2297C17.347 13.2297 17.6874 13.5977 17.8807 13.7357C17.8807 13.7357 17.2458 13.9566 16.6201 13.2389C16.6201 13.2389 16.4637 13.4965 16.4269 13.7725H16.16C16.16 13.7725 16.068 13.3309 15.6447 12.9629C15.2214 12.5948 14.7919 12.07 14.8351 11.5919C14.8856 11.0306 15.3083 10.7781 15.7483 10.4302C16.3418 9.96089 16.2061 9.65034 16.2061 9.65034Z" fill="#FFF5E1"/>
<path d="M14.6489 7.78265H9.34921V8.85H14.6489V7.78265Z" fill="#464655"/>
<path d="M11.9989 8.629H9.34894C9.34894 8.629 9.34894 11.4998 9.34894 12.1623C9.34894 12.8248 9.79059 14.5914 11.9989 15.2539C14.2072 14.5914 14.6488 12.8248 14.6488 12.1623C14.6488 11.4998 14.6488 8.629 14.6488 8.629H11.9989V8.629Z" fill="#41479B"/>
<path d="M9.34894 12.1623C9.34894 12.3264 9.37636 12.5587 9.45075 12.8248H14.547C14.6214 12.5587 14.6489 12.3264 14.6489 12.1623V10.8373H9.34894V12.1623Z" fill="#FF4B55"/>
<path d="M11.9988 11.8308L11.6896 12.6037L11.9988 12.4491L12.3079 12.6037L11.9988 11.8308Z" fill="#F5F5F5"/>
<path d="M11.9988 11.8308L12.3079 11.0579L11.9988 11.2125L11.6896 11.0579L11.9988 11.8308Z" fill="#F5F5F5"/>
<path d="M11.9988 11.8308L11.2258 11.5217L11.3804 11.8308L11.2258 12.1399L11.9988 11.8308Z" fill="#F5F5F5"/>
<path d="M11.9987 11.8308L12.7716 12.1399L12.617 11.8308L12.7716 11.5217L11.9987 11.8308Z" fill="#F5F5F5"/>
<path d="M12.3461 9.40965C12.2945 9.41795 12.2492 9.42451 12.2082 9.44603C12.2547 9.32983 12.2875 9.22075 12.2586 9.14439C12.1881 8.95759 12.0524 8.99101 12.0002 8.85484V8.84969C11.9998 8.85072 11.9992 8.85128 11.9989 8.85226C11.9985 8.85123 11.9979 8.85067 11.9975 8.84969V8.85484C11.9453 8.99101 11.8096 8.95764 11.7391 9.14439C11.7102 9.2208 11.743 9.32978 11.7895 9.44603C11.7486 9.42451 11.7032 9.4179 11.6516 9.40965C11.5463 9.39278 11.3864 9.50228 11.42 9.7128C11.4537 9.92331 11.6979 9.94019 11.6979 9.94019C11.6643 9.90653 11.6348 9.85178 11.6516 9.79281C11.6685 9.73384 11.7905 9.68336 11.8537 9.88122C11.9168 10.0791 11.7021 10.3612 11.7021 10.3612C11.7756 10.3573 11.8293 10.3344 11.8681 10.3112C11.8171 10.4774 11.9839 10.606 11.9975 10.6161V10.618L11.9988 10.6171C11.999 10.6172 12.0001 10.618 12.0001 10.618V10.6161C12.0138 10.606 12.1805 10.4774 12.1295 10.3112C12.1683 10.3345 12.222 10.3573 12.2955 10.3612C12.2955 10.3612 12.0808 10.0791 12.1439 9.88122C12.2071 9.68331 12.3292 9.73384 12.346 9.79281C12.3629 9.85178 12.3334 9.90648 12.2997 9.94019C12.2997 9.94019 12.5439 9.92331 12.5776 9.7128C12.6113 9.50228 12.4513 9.39278 12.3461 9.40965Z" fill="#FFE15A"/>
<path d="M13.971 9.40965C13.9195 9.41795 13.8741 9.42451 13.8332 9.44603C13.8797 9.32983 13.9125 9.22075 13.8836 9.14439C13.8131 8.95759 13.6774 8.99101 13.6251 8.85484V8.84969C13.6248 8.85072 13.6242 8.85128 13.6238 8.85226C13.6235 8.85123 13.6229 8.85067 13.6225 8.84969V8.85484C13.5703 8.99101 13.4346 8.95764 13.364 9.14439C13.3352 9.2208 13.368 9.32978 13.4145 9.44603C13.3736 9.42451 13.3282 9.4179 13.2766 9.40965C13.1713 9.39278 13.0114 9.50228 13.045 9.7128C13.0787 9.92331 13.3229 9.94019 13.3229 9.94019C13.2892 9.90653 13.2598 9.85178 13.2766 9.79281C13.2935 9.73384 13.4155 9.68336 13.4787 9.88122C13.5418 10.0791 13.3271 10.3612 13.3271 10.3612C13.4006 10.3573 13.4543 10.3344 13.493 10.3112C13.4421 10.4774 13.6088 10.606 13.6225 10.6161V10.618L13.6238 10.6171C13.6239 10.6172 13.6251 10.618 13.6251 10.618V10.6161C13.6387 10.606 13.8055 10.4774 13.7545 10.3112C13.7932 10.3345 13.847 10.3573 13.9205 10.3612C13.9205 10.3612 13.7058 10.0791 13.7689 9.88122C13.832 9.68331 13.9542 9.73384 13.971 9.79281C13.9879 9.85178 13.9584 9.90648 13.9247 9.94019C13.9247 9.94019 14.1688 9.92331 14.2025 9.7128C14.2363 9.50228 14.0763 9.39278 13.971 9.40965Z" fill="#FFE15A"/>
<path d="M10.7211 9.40965C10.6695 9.41795 10.6242 9.42451 10.5832 9.44603C10.6297 9.32983 10.6625 9.22075 10.6337 9.14439C10.5631 8.95759 10.4275 8.99101 10.3752 8.85484V8.84969C10.3748 8.85072 10.3743 8.85128 10.3739 8.85226C10.3735 8.85123 10.373 8.85067 10.3726 8.84969V8.85484C10.3204 8.99101 10.1847 8.95764 10.1141 9.14439C10.0852 9.2208 10.118 9.32978 10.1645 9.44603C10.1236 9.42451 10.0783 9.4179 10.0266 9.40965C9.92136 9.39278 9.76142 9.50228 9.79508 9.7128C9.82874 9.92331 10.073 9.94019 10.073 9.94019C10.0393 9.90653 10.0098 9.85178 10.0266 9.79281C10.0435 9.73384 10.1656 9.68336 10.2287 9.88122C10.2919 10.0791 10.0772 10.3612 10.0772 10.3612C10.1507 10.3573 10.2043 10.3344 10.2431 10.3112C10.1922 10.4774 10.3589 10.606 10.3725 10.6161V10.618L10.3738 10.6171C10.374 10.6172 10.3752 10.618 10.3752 10.618V10.6161C10.3888 10.606 10.5555 10.4774 10.5046 10.3112C10.5433 10.3345 10.597 10.3573 10.6705 10.3612C10.6705 10.3612 10.4558 10.0791 10.519 9.88122C10.5821 9.68331 10.7043 9.73384 10.721 9.79281C10.7379 9.85178 10.7084 9.90648 10.6747 9.94019C10.6747 9.94019 10.9189 9.92331 10.9526 9.7128C10.9864 9.50228 10.8264 9.39278 10.7211 9.40965Z" fill="#FFE15A"/>
<path d="M12.5172 13.9596C12.5172 13.9596 12.3991 13.9411 12.3897 14.0601C12.3897 14.0601 12.3897 14.0737 12.3891 14.0926C12.3745 14.0857 12.3586 14.0811 12.3414 14.0811C12.279 14.0811 12.2285 14.1317 12.2285 14.1941C12.2285 14.2565 12.279 14.3071 12.3414 14.3071C12.3464 14.3071 12.3506 14.3049 12.3554 14.3042C12.3386 14.3581 12.3118 14.4071 12.2743 14.4426H12.1235C12.0838 14.3986 12.0717 14.3127 12.0691 14.2504C12.0716 14.2506 12.0734 14.2523 12.0759 14.2523C12.1271 14.2523 12.1686 14.2108 12.1686 14.1596C12.1686 14.1091 12.128 14.0683 12.0777 14.0673C12.0857 14.0536 12.0915 14.0385 12.0915 14.0214C12.0915 13.9703 12.05 13.9288 11.9989 13.9288C11.9477 13.9288 11.9062 13.9703 11.9062 14.0214C11.9062 14.0385 11.912 14.0536 11.9201 14.0673C11.8697 14.0683 11.8291 14.1091 11.8291 14.1596C11.8291 14.2108 11.8707 14.2523 11.9218 14.2523C11.9243 14.2523 11.9262 14.2507 11.9286 14.2504C11.9261 14.3127 11.914 14.3986 11.8743 14.4426H11.7234C11.6859 14.4071 11.6591 14.3581 11.6423 14.3042C11.6472 14.3049 11.6513 14.3071 11.6563 14.3071C11.7187 14.3071 11.7693 14.2565 11.7693 14.1941C11.7693 14.1317 11.7187 14.0811 11.6563 14.0811C11.6391 14.0811 11.6232 14.0856 11.6086 14.0926C11.6081 14.0737 11.6081 14.0601 11.6081 14.0601C11.5986 13.9411 11.4806 13.9596 11.4806 13.9596C11.554 14.1837 11.5347 14.4426 11.5347 14.4426V14.6704H12.4617V14.4431L12.4631 14.4426C12.4631 14.4426 12.4437 14.1837 12.5172 13.9596Z" fill="#FFE15A"/>
<path d="M11.4337 13.0763C11.4337 13.0763 11.3157 13.0578 11.3062 13.1768C11.3062 13.1768 11.3062 13.1903 11.3057 13.2092C11.2911 13.2023 11.2752 13.1978 11.258 13.1978C11.1956 13.1978 11.145 13.2484 11.145 13.3108C11.145 13.3732 11.1956 13.4238 11.258 13.4238C11.263 13.4238 11.2672 13.4216 11.272 13.4209C11.2551 13.4748 11.2284 13.5238 11.1909 13.5593H11.04C11.0004 13.5153 10.9883 13.4294 10.9857 13.3671C10.9881 13.3673 10.99 13.369 10.9925 13.369C11.0437 13.369 11.0852 13.3275 11.0852 13.2763C11.0852 13.2257 11.0446 13.185 10.9942 13.184C11.0023 13.1703 11.0081 13.1551 11.0081 13.1381C11.0081 13.0869 10.9666 13.0455 10.9154 13.0455C10.8643 13.0455 10.8228 13.087 10.8228 13.1381C10.8228 13.1551 10.8286 13.1702 10.8366 13.184C10.7863 13.185 10.7457 13.2258 10.7457 13.2763C10.7457 13.3275 10.7872 13.369 10.8384 13.369C10.8409 13.369 10.8427 13.3673 10.8452 13.3671C10.8426 13.4294 10.8305 13.5153 10.7908 13.5593H10.64C10.6025 13.5238 10.5757 13.4747 10.5589 13.4209C10.5637 13.4215 10.5679 13.4238 10.5729 13.4238C10.6353 13.4238 10.6858 13.3732 10.6858 13.3108C10.6858 13.2484 10.6353 13.1978 10.5729 13.1978C10.5557 13.1978 10.5398 13.2023 10.5252 13.2092C10.5246 13.1903 10.5246 13.1768 10.5246 13.1768C10.5152 13.0578 10.3971 13.0763 10.3971 13.0763C10.4705 13.3004 10.4512 13.5593 10.4512 13.5593V13.7871H11.3783V13.5598L11.3797 13.5593C11.3796 13.5593 11.3604 13.3003 11.4337 13.0763Z" fill="#FFE15A"/>
<path d="M13.6006 13.0763C13.6006 13.0763 13.4825 13.0578 13.4731 13.1768C13.4731 13.1768 13.4731 13.1903 13.4726 13.2092C13.458 13.2023 13.4421 13.1978 13.4249 13.1978C13.3625 13.1978 13.3119 13.2484 13.3119 13.3108C13.3119 13.3732 13.3624 13.4238 13.4249 13.4238C13.4299 13.4238 13.4341 13.4216 13.4389 13.4209C13.422 13.4748 13.3953 13.5238 13.3578 13.5593H13.2069C13.1673 13.5153 13.1552 13.4294 13.1526 13.3671C13.155 13.3673 13.1569 13.369 13.1594 13.369C13.2106 13.369 13.2521 13.3275 13.2521 13.2763C13.2521 13.2257 13.2115 13.185 13.1611 13.184C13.1691 13.1703 13.175 13.1551 13.175 13.1381C13.175 13.0869 13.1335 13.0455 13.0823 13.0455C13.0311 13.0455 12.9897 13.087 12.9897 13.1381C12.9897 13.1551 12.9955 13.1702 13.0035 13.184C12.9532 13.185 12.9126 13.2258 12.9126 13.2763C12.9126 13.3275 12.9541 13.369 13.0053 13.369C13.0077 13.369 13.0096 13.3673 13.0121 13.3671C13.0095 13.4294 12.9974 13.5153 12.9577 13.5593H12.8069C12.7693 13.5238 12.7426 13.4747 12.7258 13.4209C12.7306 13.4215 12.7348 13.4238 12.7398 13.4238C12.8022 13.4238 12.8527 13.3732 12.8527 13.3108C12.8527 13.2484 12.8022 13.1978 12.7398 13.1978C12.7226 13.1978 12.7067 13.2023 12.6921 13.2092C12.6915 13.1903 12.6915 13.1768 12.6915 13.1768C12.6821 13.0578 12.564 13.0763 12.564 13.0763C12.6374 13.3004 12.6181 13.5593 12.6181 13.5593V13.7871H13.5452V13.5598L13.5466 13.5593C13.5465 13.5593 13.5272 13.3003 13.6006 13.0763Z" fill="#FFE15A"/>
<path d="M15.4284 7.27492C15.3013 7.22444 15.1733 7.17691 15.0447 7.13228C15.0087 7.23663 14.9727 7.34092 14.9367 7.44532C14.8747 7.42385 14.8124 7.40289 14.7501 7.38278C14.7838 7.27764 14.8175 7.1726 14.8512 7.06741C14.7218 7.02564 14.5917 6.98683 14.4611 6.95097C14.432 7.05747 14.4029 7.16393 14.3738 7.27043C14.3108 7.25308 14.2477 7.23649 14.1843 7.22055C14.2111 7.11344 14.2379 7.00638 14.2647 6.89922C14.1335 6.86622 14.0017 6.83613 13.8695 6.80894C13.8253 7.02527 13.7811 7.2416 13.7369 7.45793C13.8188 7.4748 13.9005 7.4928 13.982 7.51202C13.9651 7.58364 13.9484 7.65532 13.9315 7.72699C13.455 7.61449 12.971 7.54413 12.4852 7.51605C12.4894 7.44255 12.4937 7.3691 12.4979 7.29555C12.5809 7.30038 12.664 7.30642 12.7469 7.3136C12.7659 7.09361 12.785 6.87363 12.804 6.6536C12.67 6.64197 12.5359 6.63321 12.4017 6.62739C12.3969 6.73774 12.3922 6.84799 12.3874 6.95833C12.3227 6.95552 12.2579 6.95341 12.1932 6.952C12.1956 6.84161 12.198 6.73117 12.2003 6.62088C12.066 6.61797 11.9317 6.61797 11.7974 6.62088C11.7998 6.73127 11.8022 6.84166 11.8045 6.952C11.7398 6.95341 11.675 6.95552 11.6103 6.95833C11.6056 6.84799 11.6008 6.73774 11.596 6.62739C11.4618 6.63321 11.3277 6.64192 11.1938 6.6536C11.2128 6.87358 11.2318 7.09361 11.2508 7.3136C11.3338 7.30642 11.4168 7.30038 11.4999 7.29555C11.5041 7.36905 11.5083 7.44255 11.5125 7.51605C11.0266 7.54417 10.5427 7.61449 10.0662 7.72699C10.0494 7.65536 10.0326 7.58369 10.0157 7.51202C10.0973 7.49271 10.1789 7.47471 10.2609 7.45793C10.2166 7.2416 10.1724 7.02527 10.1282 6.80894C9.99605 6.83608 9.86424 6.86622 9.73304 6.89922C9.75985 7.00633 9.78657 7.11344 9.81338 7.22055C9.75005 7.23649 9.68691 7.25308 9.62391 7.27043C9.59485 7.16393 9.56574 7.05743 9.53663 6.95097C9.40599 6.98693 9.27591 7.02569 9.14654 7.06741C9.18024 7.17255 9.21394 7.2776 9.24765 7.38278C9.18526 7.40289 9.12305 7.4238 9.06099 7.44532C9.02499 7.34097 8.98904 7.23667 8.95304 7.13228C8.82437 7.17696 8.69644 7.22449 8.56937 7.27492C8.65041 7.48024 8.73146 7.68555 8.81251 7.89091C8.89121 7.85969 8.97033 7.82955 9.04969 7.80077C9.14973 8.07761 9.24971 8.35436 9.34974 8.63121C9.56368 8.55339 9.78019 8.48538 9.99858 8.42711C10.0714 8.40771 10.1444 8.38924 10.2176 8.37203C10.6568 8.26839 11.1029 8.20352 11.5507 8.1776C11.8492 8.1603 12.1485 8.16039 12.447 8.1776C12.8948 8.20347 13.3408 8.2683 13.78 8.37203C13.8532 8.38938 13.9262 8.40766 13.999 8.42711C14.2175 8.48547 14.4339 8.55349 14.6479 8.63121C14.7479 8.35432 14.8479 8.07761 14.9479 7.80077C15.0273 7.82964 15.1064 7.85969 15.1851 7.89091C15.2662 7.68555 15.3473 7.48019 15.4284 7.27492Z" fill="#FFE15A"/>
<path d="M11.9989 17.7934C13.3163 17.7934 14.5359 17.3704 15.5322 16.655V15.2096C14.6308 16.1223 13.38 16.6891 11.9989 16.6891C10.5987 16.6891 9.33282 16.1061 8.42883 15.171V16.6287C9.43163 17.3603 10.6653 17.7934 11.9989 17.7934Z" fill="#FFE1CD"/>
</svg>
