<svg xmlns="http://www.w3.org/2000/svg" width="24" height="24" viewBox="0 0 24 24" fill="none"><rect width="24" height="24" fill="none"/>
<path d="M22.2026 4.13794H1.79742C0.804703 4.13794 0 4.94264 0 5.93536V9.37931H24V5.93536C24 4.94264 23.1953 4.13794 22.2026 4.13794Z" fill="#FF4B55"/>
<path d="M0 18.0646C0 19.0573 0.804703 19.8621 1.79742 19.8621H22.2026C23.1952 19.8621 24 19.0574 24 18.0646V14.6207H0V18.0646Z" fill="#464655"/>
<path d="M24 9.37921H0V14.6203H24V9.37921Z" fill="#F5F5F5"/>
<path d="M14.4405 10.9465C14.397 10.9238 14.3455 10.8428 14.3616 10.8074C14.3785 10.7702 14.3522 10.7734 14.4411 10.7999C14.6019 10.8415 14.7059 10.8225 14.8081 10.7355L14.8989 10.6637L15.0049 10.7167C15.0635 10.7431 15.124 10.762 15.141 10.7582C15.1902 10.7468 15.2849 10.6258 15.2829 10.5841C15.281 10.5275 15.3226 10.5426 15.3434 10.6031C15.3869 10.7167 15.3069 10.9124 15.1971 10.9389C15.1443 10.954 15.095 10.9503 15.0117 10.9238C14.9134 10.886 14.8982 10.886 14.8453 10.9238C14.7357 11.0108 14.5786 11.0185 14.4405 10.9465Z" fill="#73AF00"/>
<path d="M14.8547 10.5085C14.8016 10.4341 14.7378 10.1738 14.7565 10.1101C14.775 10.0516 14.7936 10.041 14.8441 10.057C14.9344 10.0888 14.9557 10.1473 14.945 10.3599C14.9291 10.5191 14.9079 10.5723 14.8547 10.5085Z" fill="#73AF00"/>
<path d="M11.2971 11.6592C11.0791 11.7833 10.7548 11.8046 10.7548 12.1483C10.2799 12.166 9.71996 12.1873 9.21493 12.1766C9.35181 11.9998 10.2181 11.1991 10.5783 10.8818C10.638 10.8293 10.6582 10.7277 10.6235 10.6562L10.6142 10.637C10.5623 10.5299 10.421 10.5044 10.3349 10.5866C9.97595 10.93 9.62021 11.25 9.56228 11.3048C9.09746 11.7745 8.96124 11.9114 8.88821 11.9849C8.83623 12.0373 8.80731 12.1081 8.80768 12.1818L8.80773 12.1866C8.80853 12.3399 8.93303 12.4637 9.08626 12.4637H11.1197C11.2349 12.4637 11.0933 12.0632 11.242 12.0632C11.3455 12.0632 11.355 12.2069 11.3505 12.3591C11.347 12.4749 11.2516 12.5665 11.1358 12.5666C10.2567 12.5678 9.34149 12.5762 8.48031 12.577C8.4092 12.5771 8.3521 12.5194 8.3521 12.4482V12.2933C8.3521 12.162 8.20623 12.0856 8.09645 12.1577C8.09242 12.1603 8.08848 12.1628 8.08454 12.1653C8.02717 12.2011 7.99782 12.2714 8.02023 12.3352C8.03476 12.3766 8.04109 12.427 8.04245 12.4798C8.04432 12.5495 7.98756 12.6069 7.91785 12.6091C7.63304 12.6178 7.32352 12.6204 7.23563 12.4524C7.18604 12.3578 7.08053 12.313 6.98485 12.3608L6.97215 12.3672C6.87146 12.4176 6.8311 12.5421 6.88628 12.6402C6.99118 12.8267 7.0869 13.0431 7.03721 13.3462C6.99671 13.4417 6.9204 13.5015 6.83771 13.5553C6.74584 13.6151 6.80349 13.7551 6.91126 13.7351C7.17254 13.6868 7.35259 13.48 7.40762 13.2363H11.4586C11.6071 13.2363 11.7276 13.1158 11.7276 12.9673V12.0881C11.6904 11.8259 11.4086 11.8365 11.2971 11.6592Z" fill="#73AF00"/>
<path d="M16.4353 10.4975C16.495 10.536 16.5549 10.5744 16.6216 10.6062C16.6945 10.641 16.7224 10.7301 16.6798 10.7987C16.6685 10.8169 16.6591 10.8372 16.6537 10.8618V12.6054C16.7729 12.6301 16.8412 12.6067 16.8956 12.5693C16.9569 12.527 17.0398 12.5578 17.0591 12.6297C17.1002 12.7826 17.1675 12.932 17.2034 13.068C17.2259 13.1531 17.1621 13.2362 17.0741 13.2362H16.3911C16.3306 13.2362 16.2816 13.1872 16.2816 13.1267V10.5814C16.2815 10.5026 16.3689 10.4548 16.4353 10.4975Z" fill="#73AF00"/>
<path d="M15.6082 10.9221C15.6087 11.4036 15.6143 11.9222 15.6151 12.4383C15.6152 12.5052 15.561 12.5594 15.4941 12.5594H15.4862C15.4195 12.5594 15.3653 12.5052 15.3653 12.4384V11.2155C15.3653 11.1489 15.2871 11.1133 15.237 11.1571L15.0767 11.2956C15.044 11.3239 15.025 11.3647 15.0249 11.408C15.0244 11.6069 15.0226 12.1861 15.0219 12.4389C15.0217 12.5055 14.9676 12.5594 14.901 12.5594H14.89C14.8235 12.5594 14.7695 12.506 14.7691 12.4395C14.7679 12.2712 14.7658 11.9592 14.765 11.7252C14.7647 11.6579 14.6851 11.6228 14.6345 11.6671C14.4684 11.8126 14.4301 11.8456 14.3429 11.9356C14.35 11.9817 14.3855 11.9356 14.4067 11.971V12.2049C13.8017 12.091 13.7565 12.5744 13.7792 13.093C13.7826 13.171 13.8466 13.2326 13.9246 13.2326H15.8242C15.8947 13.2326 15.9518 13.1755 15.9518 13.1051V10.7435C15.9518 10.6646 15.8582 10.6241 15.7999 10.6774C15.7535 10.7198 15.704 10.7624 15.6614 10.8008C15.6273 10.832 15.6081 10.8758 15.6082 10.9221ZM14.2101 12.5417C14.173 12.4354 14.3821 12.3963 14.4068 12.4921C14.4157 12.609 14.2562 12.6126 14.2101 12.5417Z" fill="#73AF00"/>
<path d="M7.93568 13.4241C8.00834 13.4241 8.06679 13.4844 8.06679 13.5551C8.06679 13.6296 8.00834 13.6863 7.93568 13.6863C7.86129 13.6863 7.80096 13.6296 7.80096 13.5551C7.80101 13.4844 7.86134 13.4241 7.93568 13.4241Z" fill="#73AF00"/>
<path d="M12.255 10.5509C12.2905 10.5723 12.3269 10.5927 12.3658 10.611C12.4359 10.6441 12.4636 10.7313 12.4207 10.7959C12.4078 10.8154 12.3968 10.8374 12.3903 10.8654V12.6054C12.5166 12.6335 12.5856 12.606 12.6407 12.5653C12.6956 12.5247 12.7745 12.5527 12.7921 12.6186C12.8236 12.7367 12.8711 12.8535 12.9077 12.9644C12.9525 13.1001 12.8519 13.2398 12.7091 13.2398H12.1762C12.0899 13.2398 12.02 13.1699 12.02 13.0835V10.6857C12.02 10.5652 12.1516 10.4888 12.255 10.5509Z" fill="#73AF00"/>
</svg>
