<svg xmlns="http://www.w3.org/2000/svg" width="24" height="24" viewBox="0 0 24 24" fill="none"><rect width="24" height="24" fill="none"/>
<path d="M1.79494 4.13702C0.834703 4.13702 0.0504844 4.88988 0 5.83751V18.1625C0.0504844 19.1101 0.834703 19.863 1.79494 19.863H9.51834V19.8112V4.13702H1.79494Z" fill="#41479B"/>
<path d="M22.2024 4.13702H9.5183V19.8112H22.6305C23.4165 19.6191 24 18.9105 24 18.0653V5.93463C24 4.94182 23.1952 4.13702 22.2024 4.13702Z" fill="#F5F5F5"/>
<path d="M12.3101 11.9093C12.1358 11.9093 11.9668 11.9685 11.8308 12.0774L11.0056 12.7376C10.8695 12.8464 10.7005 12.9057 10.5263 12.9057H10.2972V12.774C10.2972 12.5716 10.4612 12.4075 10.6637 12.4075H11.0446V12.2299C11.0446 12.0528 10.901 11.9093 10.7239 11.9093H10.5463C10.5463 11.7717 10.4348 11.6602 10.2972 11.6602C9.6094 11.6602 9.05173 12.2178 9.05173 12.9057H8.57356C8.39937 12.9057 8.23034 12.8464 8.09436 12.7375L7.26912 12.0773C7.13309 11.9685 6.96406 11.9092 6.78992 11.9092H3.15598C3.03354 11.9092 2.97223 12.0572 3.05881 12.1438L4.31656 13.4016C4.47748 13.5625 4.69578 13.6529 4.92336 13.6529H5.81342L6.54411 14.2009C6.71656 14.3303 6.92633 14.4002 7.14195 14.4002H8.05536C8.21215 14.4002 8.35986 14.3264 8.45389 14.2009L8.5535 14.0681V14.6493L7.93878 15.8788C7.87784 16.0006 7.96643 16.144 8.10265 16.144H10.114C10.2152 16.144 10.2972 16.062 10.2972 15.9607V13.736L10.6459 14.201C10.74 14.3264 10.8877 14.4002 11.0445 14.4002H11.9579C12.1736 14.4002 12.3833 14.3303 12.5558 14.201L13.2865 13.653H14.1765C14.4042 13.653 14.6224 13.5625 14.7833 13.4016L16.0411 12.1439C16.1276 12.0573 16.0663 11.9093 15.9439 11.9093H12.3101Z" fill="#FFE15A"/>
<path d="M9.59806 7.87308L9.71713 8.23017L10.0936 8.23308C10.1423 8.23345 10.1625 8.29566 10.1233 8.32458L9.82053 8.54822L9.93406 8.90714C9.94874 8.95359 9.89581 8.99203 9.85621 8.96367L9.54997 8.74481L9.24374 8.96367C9.20413 8.99203 9.15121 8.95359 9.16588 8.90714L9.27941 8.54822L8.9766 8.32458C8.93736 8.29561 8.95761 8.23345 9.00636 8.23308L9.38281 8.23017L9.50188 7.87308C9.51725 7.82681 9.58264 7.82681 9.59806 7.87308Z" fill="#FFE15A"/>
<path d="M4.06867 10.1235L4.40538 10.2918L4.6736 10.0277C4.70828 9.99351 4.7666 10.0232 4.75938 10.0714L4.70336 10.4436L5.03744 10.6171C5.0807 10.6396 5.07044 10.7042 5.02239 10.7121L4.6511 10.7739L4.58931 11.1452C4.5813 11.1933 4.51675 11.2035 4.4943 11.1603L4.32081 10.8262L3.94858 10.8822C3.90035 10.8895 3.87067 10.8312 3.90485 10.7964L4.16899 10.5282L4.0007 10.1915C3.97881 10.148 4.02508 10.1017 4.06867 10.1235Z" fill="#FFE15A"/>
<path d="M15.0992 10.1916L14.9309 10.5283L15.195 10.7965C15.2292 10.8312 15.1995 10.8895 15.1513 10.8823L14.7791 10.8263L14.6056 11.1603C14.5831 11.2036 14.5185 11.1933 14.5106 11.1453L14.4488 10.774L14.0775 10.7122C14.0294 10.7042 14.0192 10.6396 14.0624 10.6172L14.3965 10.4437L14.3405 10.0715C14.3332 10.0232 14.3915 9.99357 14.4263 10.0277L14.6945 10.2919L15.0312 10.1236C15.0747 10.1017 15.121 10.148 15.0992 10.1916Z" fill="#FFE15A"/>
<path d="M6.60949 8.4484L6.85619 8.73275L7.20508 8.59137C7.25022 8.57304 7.29269 8.62278 7.26757 8.66459L7.07336 8.98709L7.31561 9.27523C7.34697 9.31254 7.3128 9.36828 7.26532 9.35726L6.89861 9.27223L6.69944 9.59168C6.67366 9.63303 6.61005 9.61775 6.60588 9.56923L6.57344 9.19418L6.20815 9.10343C6.16085 9.09167 6.15569 9.02651 6.2006 9.00748L6.54724 8.86071L6.52061 8.4852C6.51719 8.43659 6.57757 8.41161 6.60949 8.4484Z" fill="#FFE15A"/>
<path d="M12.5793 8.48523L12.5526 8.86075L12.8993 9.00751C12.9442 9.0265 12.939 9.09175 12.8917 9.10346L12.5264 9.19422L12.494 9.56926C12.4898 9.61782 12.4262 9.63311 12.4004 9.59171L12.2013 9.27226L11.8346 9.35729C11.7871 9.36831 11.753 9.31253 11.7843 9.27526L12.0265 8.98712L11.8323 8.66462C11.8072 8.62286 11.8497 8.57317 11.8948 8.5914L12.2436 8.73278L12.4903 8.44843C12.5223 8.41159 12.5827 8.43657 12.5793 8.48523Z" fill="#FFE15A"/>
<path d="M8.07542 8.01356L8.26188 8.34056L8.63163 8.27001C8.67949 8.26087 8.71146 8.31792 8.67865 8.35396L8.42529 8.63235L8.60665 8.96217C8.63013 9.00492 8.58574 9.05292 8.54131 9.03281L8.19823 8.87788L7.94056 9.15229C7.90718 9.18782 7.84779 9.16045 7.85318 9.11198L7.89452 8.73782L7.55388 8.57756C7.50977 8.55679 7.51746 8.49187 7.56523 8.48202L7.93385 8.40571L7.98096 8.03221C7.9872 7.98398 8.05132 7.97123 8.07542 8.01356Z" fill="#FFE15A"/>
<path d="M13.9233 9.2143L13.8239 9.57739L14.1352 9.78898C14.1756 9.81636 14.1578 9.87931 14.1091 9.88156L13.7331 9.89923L13.6281 10.2607C13.6145 10.3076 13.5492 10.3101 13.5319 10.2645L13.3989 9.9124L13.0227 9.92426C12.9739 9.92581 12.9513 9.86445 12.9893 9.83398L13.2831 9.59867L13.1556 9.24453C13.1391 9.19869 13.1905 9.15819 13.2312 9.18495L13.5458 9.39167L13.8432 9.1609C13.8818 9.131 13.9362 9.16733 13.9233 9.2143Z" fill="#FFE15A"/>
<path d="M5.25664 9.16082L5.55402 9.39158L5.86864 9.18486C5.90938 9.1581 5.9607 9.19855 5.9442 9.24444L5.81666 9.59858L6.11047 9.8339C6.14848 9.86436 6.12589 9.92572 6.07714 9.92418L5.70092 9.91232L5.56789 10.2644C5.55069 10.31 5.48534 10.3075 5.4717 10.2606L5.36675 9.89915L4.99072 9.88147C4.94206 9.87918 4.9243 9.81622 4.96461 9.7889L5.27595 9.5773L5.17658 9.21421C5.16374 9.16729 5.21811 9.13096 5.25664 9.16082Z" fill="#FFE15A"/>
<path d="M11.1188 8.03238L11.1659 8.40588L11.5345 8.48219C11.5823 8.49208 11.5899 8.557 11.5459 8.57772L11.2052 8.73799L11.2466 9.11214C11.2519 9.16056 11.1925 9.18799 11.1592 9.15245L10.9015 8.87805L10.5584 9.03297C10.514 9.05303 10.4696 9.00499 10.4931 8.96233L10.6745 8.63252L10.4211 8.35413C10.3883 8.31808 10.4203 8.26103 10.4681 8.27017L10.8379 8.34072L11.0243 8.01372C11.0486 7.97125 11.1126 7.984 11.1188 8.03238Z" fill="#FFE15A"/>
<path d="M3.38386 5.91409V6.98527C3.38386 7.42824 3.02344 7.78862 2.58052 7.78862C2.13759 7.78862 1.77717 7.4282 1.77717 6.98527V5.91409H3.38386ZM3.65161 5.37854H1.50933C1.36144 5.37854 1.24153 5.49845 1.24153 5.64634V6.98532C1.24153 7.72482 1.84102 8.32431 2.58052 8.32431C3.32002 8.32431 3.9195 7.72482 3.9195 6.98532V5.64634C3.91941 5.49845 3.7995 5.37854 3.65161 5.37854Z" fill="#FF4B55"/>
<path d="M3.38386 5.91412V6.98531C3.38386 7.42828 3.02344 7.78865 2.58052 7.78865C2.1376 7.78865 1.77718 7.42823 1.77718 6.98531V5.91412H3.38386Z" fill="#F5F5F5"/>
<path d="M1.5075 5.77996C1.58144 5.77996 1.64138 5.72002 1.64138 5.64608C1.64138 5.57214 1.58144 5.51221 1.5075 5.51221C1.43356 5.51221 1.37363 5.57214 1.37363 5.64608C1.37363 5.72002 1.43356 5.77996 1.5075 5.77996Z" fill="#FFE15A"/>
<path d="M3.64964 5.78014C3.72357 5.78014 3.78351 5.7202 3.78351 5.64626C3.78351 5.57233 3.72357 5.51239 3.64964 5.51239C3.5757 5.51239 3.51576 5.57233 3.51576 5.64626C3.51576 5.7202 3.5757 5.78014 3.64964 5.78014Z" fill="#FFE15A"/>
<path d="M1.50759 6.85167C1.58153 6.85167 1.64147 6.79174 1.64147 6.7178C1.64147 6.64386 1.58153 6.58392 1.50759 6.58392C1.43366 6.58392 1.37372 6.64386 1.37372 6.7178C1.37372 6.79174 1.43366 6.85167 1.50759 6.85167Z" fill="#FFE15A"/>
<path d="M3.64964 6.85167C3.72357 6.85167 3.78351 6.79174 3.78351 6.7178C3.78351 6.64386 3.72357 6.58392 3.64964 6.58392C3.5757 6.58392 3.51576 6.64386 3.51576 6.7178C3.51576 6.79174 3.5757 6.85167 3.64964 6.85167Z" fill="#FFE15A"/>
<path d="M2.57868 5.78014C2.65262 5.78014 2.71256 5.7202 2.71256 5.64626C2.71256 5.57233 2.65262 5.51239 2.57868 5.51239C2.50475 5.51239 2.44481 5.57233 2.44481 5.64626C2.44481 5.7202 2.50475 5.78014 2.57868 5.78014Z" fill="#FFE15A"/>
<path d="M3.38212 7.83934C3.45606 7.83934 3.516 7.77941 3.516 7.70547C3.516 7.63153 3.45606 7.57159 3.38212 7.57159C3.30818 7.57159 3.24825 7.63153 3.24825 7.70547C3.24825 7.77941 3.30818 7.83934 3.38212 7.83934Z" fill="#FFE15A"/>
<path d="M1.79025 7.83934C1.86418 7.83934 1.92412 7.77941 1.92412 7.70547C1.92412 7.63153 1.86418 7.57159 1.79025 7.57159C1.71631 7.57159 1.65637 7.63153 1.65637 7.70547C1.65637 7.77941 1.71631 7.83934 1.79025 7.83934Z" fill="#FFE15A"/>
<path d="M2.75353 6.64966V6.88028C2.75353 6.97563 2.67595 7.0532 2.58061 7.0532C2.48526 7.0532 2.40768 6.97563 2.40768 6.88028V6.64966H2.75353Z" fill="#41479B"/>
<path d="M2.75353 6.10291V6.33353C2.75353 6.42887 2.67595 6.50645 2.58061 6.50645C2.48526 6.50645 2.40768 6.42887 2.40768 6.33353V6.10291H2.75353Z" fill="#41479B"/>
<path d="M2.75353 7.20197V7.43259C2.75353 7.52793 2.67595 7.60551 2.58061 7.60551C2.48526 7.60551 2.40768 7.52793 2.40768 7.43259V7.20197H2.75353Z" fill="#41479B"/>
<path d="M3.21933 6.64966V6.88028C3.21933 6.97563 3.14175 7.0532 3.04641 7.0532C2.95107 7.0532 2.87349 6.97563 2.87349 6.88028V6.64966H3.21933Z" fill="#41479B"/>
<path d="M2.28769 6.64966V6.88028C2.28769 6.97563 2.21011 7.0532 2.11477 7.0532C2.01943 7.0532 1.94185 6.97563 1.94185 6.88028V6.64966H2.28769Z" fill="#41479B"/>
</svg>
