<svg xmlns="http://www.w3.org/2000/svg" width="24" height="24" viewBox="0 0 24 24" fill="none"><rect width="24" height="24" fill="none"/>
<path d="M22.2026 19.8621H1.79742C0.804703 19.8621 0 19.0574 0 18.0646V5.93536C0 4.94269 0.804703 4.13794 1.79742 4.13794H22.2026C23.1952 4.13794 24 4.94264 24 5.93536V18.0647C24 19.0574 23.1953 19.8621 22.2026 19.8621Z" fill="#41479B"/>
<path d="M12.0027 7.86206C10.4301 8.68945 9.36947 10.66 9.36947 12C9.36947 13.34 10.4301 15.3106 12.0027 16.1379C13.5753 15.3105 14.6359 13.34 14.6359 12C14.6359 10.66 13.5753 8.6894 12.0027 7.86206Z" fill="#3CC8FF"/>
<path d="M12.3423 10.5831C12.5963 10.4492 13.0301 10.3018 13.5231 10.4827C13.5231 10.4827 13.0484 9.95388 12.3896 10.3847C12.5668 10.1698 12.833 9.90372 13.1212 9.82961C13.1212 9.82961 12.5476 9.61539 12.2005 10.3804C12.2678 9.99456 12.2555 9.38706 11.6336 9.03442C11.6336 9.03442 11.9814 9.78063 12.0155 10.3998C11.9953 10.29 11.9549 10.1751 11.8481 10.0638C11.5193 9.72067 11.2334 9.69208 11.2334 9.69208C11.2334 9.69208 11.6893 10.1973 11.9133 10.6753C11.7842 10.5209 11.5568 10.3232 11.1905 10.3353C10.3327 10.3639 10.1468 10.8786 10.1468 10.8786C10.5024 10.7289 11.0668 10.6543 11.5043 10.6913C10.9395 10.7908 10.7388 11.4945 10.7388 11.4945C11.1923 10.929 11.6873 10.8371 11.8849 10.8236C11.5239 11.1223 11.5459 11.6723 11.5459 11.6723C11.6298 11.3627 11.9548 11.0098 12.1132 10.8516C12.5397 11.313 12.5902 11.8316 12.5902 11.8316C12.5902 11.8316 12.6835 11.6756 12.6405 11.358C12.5998 11.0582 12.4116 10.8614 12.268 10.7457C13.021 10.8495 13.5124 11.3957 13.5124 11.3957C13.266 10.6769 12.6495 10.5833 12.3423 10.5831Z" fill="#73AF00"/>
<path d="M22.2026 4.13794H1.79742C0.837327 4.13794 0.0532023 4.89075 0.00271797 5.83824V18.1618C0.0532023 19.1093 0.837327 19.8621 1.79742 19.8621H22.2026C23.1952 19.8621 24 19.0574 24 18.0647V5.93536C24 4.94264 23.1953 4.13794 22.2026 4.13794ZM23.1751 19.0345H0.830343V4.96552H23.1752L23.1751 19.0345Z" fill="#FF4B55"/>
<path d="M11.1622 12.9999L11.5415 12.3448L14.6579 12.2758L14.451 13.1379L11.1622 12.9999Z" fill="#FF965A"/>
<path d="M9.48314 12.8276C9.79552 14.0535 10.7315 15.4691 12.0027 16.1379C13.2739 15.4691 14.2098 14.0535 14.5222 12.8276H9.48314Z" fill="#4173CD"/>
<path d="M9.93369 14.0692C9.93369 14.0692 10.8363 14.0245 11.3785 14.2472C11.514 14.3028 11.5315 14.4858 11.4092 14.5663C11.145 14.7401 10.7613 15.0392 10.7613 15.3107L9.93369 14.0692Z" fill="#FFE15A"/>
<path d="M11.5199 15.7243C11.4854 15.3795 11.7905 15.1287 12.2096 14.9657C12.7527 14.7545 12.4552 14.4183 12.1837 14.1985C11.8598 13.9364 12.2785 13.8623 14.0371 13.8278L13.175 15.1727L12.0027 16.1382L11.5199 15.7243Z" fill="#FFE15A"/>
<path d="M12.0027 16.372L11.9063 16.321C10.265 15.4579 9.16247 13.3897 9.16247 12.0001C9.16247 10.6104 10.265 8.54219 11.9063 7.67908L12.0027 7.62817L12.0991 7.67908C13.7402 8.54224 14.8429 10.6104 14.8429 12.0001C14.8429 13.3897 13.7403 15.4579 12.0991 16.321L12.0027 16.372ZM12.0027 8.09767C10.5469 8.91963 9.57628 10.7583 9.57628 12C9.57628 13.2418 10.5469 15.0805 12.0027 15.9024C13.4585 15.0804 14.4291 13.2418 14.4291 12C14.4291 10.7583 13.4585 8.91958 12.0027 8.09767Z" fill="#FF4B55"/>
<path d="M12.882 14.3619C12.8631 14.3619 12.8441 14.3568 12.8271 14.3461C12.2647 13.9927 11.9423 13.4077 11.9423 12.7412V10.8361C11.9423 10.779 11.9887 10.7327 12.0458 10.7327C12.1029 10.7327 12.1492 10.779 12.1492 10.8361V12.7412C12.1492 13.335 12.4364 13.8561 12.937 14.1707C12.9855 14.2012 13.0001 14.2651 12.9697 14.3134C12.95 14.3447 12.9164 14.3619 12.882 14.3619Z" fill="#A54B37"/>
<path d="M12.0459 11.069C12.1709 11.069 12.2722 10.9676 12.2722 10.8426C12.2722 10.7177 12.1709 10.6163 12.0459 10.6163C11.9209 10.6163 11.8196 10.7177 11.8196 10.8426C11.8196 10.9676 11.9209 11.069 12.0459 11.069Z" fill="#A54B37"/>
</svg>
