<svg xmlns="http://www.w3.org/2000/svg" width="24" height="24" viewBox="0 0 24 24" fill="none"><rect width="24" height="24" fill="none"/>
<path d="M4.576 9.01366C5.75937 6.07459 8.63741 4 12 4C15.3626 4 18.2406 6.07459 19.424 9.01366C19.3315 9.00462 19.2377 9 19.1429 9C17.9594 9 17 9.95939 17 11.1429V14.8571C17 15.7646 17.564 16.5403 18.3606 16.8527C17.4803 18.0049 16.2941 18.9107 14.9232 19.4491C14.684 18.6124 13.9135 18 13 18L11 18C9.89543 18 9 18.8954 9 20C9 21.1046 9.89543 22 11 22H12.0032C17.5246 21.9983 22 17.5218 22 12C22 6.47715 17.5228 2 12 2C7.10274 2 3.0277 5.52032 2.16735 10.1685C2.05743 10.7623 2 11.3745 2 12.0001C2 13.171 2.20124 14.2949 2.57102 15.3391C2.79489 15.9713 3.1957 16.5628 3.82061 16.8062C4.14195 16.9313 4.49153 17 4.85714 17C6.04061 17 7 16.0406 7 14.8571V11.1429C7 9.95939 6.04061 9 4.85714 9C4.76228 9 4.66849 9.00462 4.576 9.01366Z" fill="#0B1F35"/>
</svg>
