<svg xmlns="http://www.w3.org/2000/svg" width="24" height="24" viewBox="0 0 24 24" fill="none"><rect width="24" height="24" fill="none"/>
<path d="M11 1.75C14 1.75 15 4.2737 15 6.75C15 9.2263 13.2275 11.25 11 11.25C8.77252 11.25 7 9.27253 7 6.75C7 4.22747 7.99999 1.75 11 1.75Z" fill="#0B1F35"/>
<path d="M14.9996 22C14.3719 21.1643 14 20.1256 14 19C14 17.3843 14.7664 15.9476 15.9554 15.0335C14.6646 14.4264 13.0246 14 11 14C6.99172 14 4.32064 15.8877 3.05404 17.405C2.45205 18.1261 2.05901 18.7199 2.00002 19.7143V22H14.9996Z" fill="#0B1F35"/>
<path d="M19 16V18H17V20H19V22H21V20H23V18H21V16H19Z" fill="#0B1F35"/>
</svg>
