<svg xmlns="http://www.w3.org/2000/svg" width="24" height="24" viewBox="0 0 24 24" fill="none"><rect width="24" height="24" fill="none"/>
<path fill-rule="evenodd" clip-rule="evenodd" d="M7 3C7 2.44772 7.44772 2 8 2H15.185C16.9599 2 18.3468 3.53245 18.1701 5.29851L18.0243 6.75677C18.0117 6.88251 18.1175 6.98825 18.2432 6.97568L19.7015 6.82985C21.4675 6.65325 23 8.0401 23 9.81496V21C23 21.5523 22.5523 22 22 22H8C7.44772 22 7 21.5523 7 21V3ZM15 11H10V13H15V11ZM19 15H10V17H19V15Z" fill="black"/>
<path d="M5.5001 19.5V7.5C4.66676 10.5 2.9001 16.9 2.5001 18.5C2.0001 20.5 3.5001 21 6.0001 21.5C5.6001 21.1 5.5001 20 5.5001 19.5Z" fill="black"/>
</svg>
