<svg xmlns="http://www.w3.org/2000/svg" width="24" height="24" viewBox="0 0 24 24" fill="none"><rect width="24" height="24" fill="none"/>
<path d="M5 3L4.99995 2L4 2.00004V3H5ZM5 21H4V22.0001L5.00006 22L5 21ZM19 21V22H20V21H19ZM19 10.0334H20H19ZM14.5 7.5L13.5299 7.25746C13.4447 7.59824 13.5445 7.95873 13.7929 8.20711C14.0413 8.45549 14.4018 8.55534 14.7425 8.47014L14.5 7.5ZM6 21V3H4V21H6ZM18 10.0334V21H20V10.0334H18ZM5.00005 4C7.38732 3.99988 10.1096 3.99998 12.497 3.99998V1.99998C10.1097 1.99998 7.38728 1.99988 4.99995 2L5.00005 4ZM19 20C14.3334 20 9.66664 19.9997 4.99994 20L5.00006 22C9.66669 21.9997 14.3333 22 19 22V20ZM12.497 3.99998C12.9527 3.99998 13.1926 4.11116 13.3253 4.2135C13.4608 4.31814 13.5813 4.48869 13.6632 4.77509C13.8402 5.39361 13.7669 6.30945 13.5299 7.25746L15.4701 7.74254C15.7331 6.69055 15.9098 5.35638 15.586 4.22489C15.4176 3.63628 15.1 3.05682 14.5472 2.63021C13.9915 2.2013 13.2928 1.99998 12.497 1.99998V3.99998ZM14.7425 8.47014C15.6989 8.23106 16.5771 8.17116 17.1597 8.38199C17.4191 8.4759 17.6028 8.61681 17.7337 8.82318C17.8714 9.04027 18 9.40877 18 10.0334H20C20 9.1414 19.8161 8.37235 19.4226 7.75191C19.0222 7.12075 18.4559 6.72414 17.8403 6.50137C16.6729 6.07884 15.3011 6.26894 14.2575 6.52986L14.7425 8.47014Z" fill="#0B1F35"/>
<rect x="8" y="11" width="5" height="2" fill="#0B1F35"/>
<rect x="8" y="15" width="8" height="2" fill="#0B1F35"/>
</svg>
