<svg xmlns="http://www.w3.org/2000/svg" width="24" height="24" viewBox="0 0 24 24" fill="none"><rect width="24" height="24" fill="none"/>
<path fill-rule="evenodd" clip-rule="evenodd" d="M2 6C2 4.89543 2.89543 4 4 4H20C21.1046 4 22 4.89543 22 6V14C22 15.1046 21.1046 16 20 16H4.00002C2.89545 16 2.00002 15.1046 2.00002 14L2 6ZM7 14H4.00003V11L7 14ZM20 6H17L20 9V6ZM14 9.99998C14 11.1046 13.1046 12 12 12C10.8954 12 10 11.1046 10 9.99998C10 8.89541 10.8954 7.99998 12 7.99998C13.1046 7.99998 14 8.89541 14 9.99998Z" fill="black"/>
<path d="M12 22.1442L7.0144 19.3744L7.98568 17.626L12 19.8562L16.0144 17.626L16.9856 19.3744L12 22.1442Z" fill="black"/>
</svg>
