<svg xmlns="http://www.w3.org/2000/svg" width="48" height="48" viewBox="0 0 48 48" fill="none"><rect width="48" height="48" fill="none"/>
<path d="M27 22.2221L22.9926 18.2147L21.2281 20.0472L25.2192 24.0089L21.2249 27.9722L22.9957 29.782L27 25.7778L31.0043 29.782L32.7751 27.9722L28.7789 24.007L32.7774 19.9995L31 18.2221L27 22.2221Z" fill="#0B1F35"/>
<path fill-rule="evenodd" clip-rule="evenodd" d="M19.9222 11.45C19.1165 11.45 18.3578 11.7667 17.7899 12.3383L8.33261 21.8573C7.76355 22.4301 7.45 23.192 7.45 24C7.45 24.8076 7.76337 25.5696 8.33112 26.1411L17.7899 35.6616C18.3578 36.2332 19.1165 36.5499 19.9222 36.5499H36C38.6092 36.5499 40.55 34.6287 40.55 32V16C40.55 13.3712 38.6092 11.45 36 11.45H19.9222ZM19.2797 13.8184C19.4544 13.6425 19.6775 13.55 19.9222 13.55H36C36.7486 13.55 37.3543 13.8103 37.7717 14.2272C38.189 14.6442 38.45 15.2498 38.45 16V32C38.45 32.7501 38.189 33.3557 37.7717 33.7727C37.3543 34.1896 36.7486 34.45 36 34.45H19.9222C19.6775 34.45 19.4544 34.3574 19.2797 34.1815L9.82086 24.661C9.6451 24.4841 9.55 24.2546 9.55 24C9.55 23.7456 9.64487 23.516 9.82236 23.3374L19.2797 13.8184Z" fill="#0B1F35"/>
</svg>
