<svg xmlns="http://www.w3.org/2000/svg" width="18" height="18" viewBox="0 0 18 18" fill="none"><rect width="18" height="18" fill="none"/>
<path d="M7.4173 4.33337C7.17078 4.33337 6.95087 4.48835 6.86795 4.72051L5.82629 7.63718C5.80288 7.70271 5.7919 7.76882 5.79181 7.83337C5.79139 8.14305 6.04183 8.41671 6.37564 8.41671H11.6247C11.9585 8.41671 12.2089 8.14305 12.2085 7.83337C12.2084 7.76882 12.1974 7.70271 12.174 7.63718L11.1324 4.72051C11.0494 4.48835 10.8295 4.33337 10.583 4.33337H7.4173Z" fill="black"/>
<path d="M10.7329 9.58337C10.4864 9.58337 10.2665 9.73835 10.1835 9.97051L9.28014 12.5H8.72019L7.81678 9.97051C7.73387 9.73835 7.51396 9.58337 7.26743 9.58337H4.20899C3.96247 9.58337 3.74256 9.73835 3.65964 9.97051L2.61797 12.8872C2.59457 12.9527 2.58358 13.0188 2.5835 13.0834C2.58308 13.393 2.83351 13.6667 3.16732 13.6667H14.833C15.1668 13.6667 15.4172 13.393 15.4168 13.0834C15.4167 13.0188 15.4058 12.9527 15.3824 12.8872L14.3407 9.97051C14.2578 9.73835 14.0379 9.58337 13.7913 9.58337H10.7329Z" fill="black"/>
</svg>
