<svg xmlns="http://www.w3.org/2000/svg" width="24" height="24" viewBox="0 0 24 24" fill="none"><rect width="24" height="24" fill="none"/>
<path d="M13.5001 8H10.0001V12H13.5001C14.6046 12 15.5001 11.1046 15.5001 10C15.5001 8.89543 14.6046 8 13.5001 8Z" fill="black"/>
<path fill-rule="evenodd" clip-rule="evenodd" d="M5 3C3.89543 3 3 3.89543 3 5V19C3 20.1046 3.89543 21 5 21H19C20.1046 21 21 20.1046 21 19V5C21 3.89543 20.1046 3 19 3H5ZM13.5001 6H8.00006V18H10.0001V13.75H13.5001C15.6402 13.75 17.5049 12.3558 17.5049 10C17.5049 7.64422 15.6402 6 13.5001 6Z" fill="black"/>
</svg>
