<svg xmlns="http://www.w3.org/2000/svg" width="24" height="24" viewBox="0 0 24 24" fill="none"><rect width="24" height="24" fill="none"/>
<path d="M19.5 8H18.9291C18.4439 4.60771 15.5265 2 12 2C8.47353 2 5.55612 4.60771 5.07089 8H4.5C3.67157 8 3 8.67157 3 9.5C3 10.3284 3.67157 11 4.5 11H19.5C20.3284 11 21 10.3284 21 9.5C21 8.67157 20.3284 8 19.5 8Z" fill="black"/>
<path d="M16.0183 19.8693C16.6781 19.3019 17.2455 18.6451 17.7073 17.9229C18.4068 18.5903 19.3541 19.0001 20.3972 19.0001H21V17.0617C21 15.8501 20.175 14.7941 18.9996 14.5002L12.8922 13.1028C12.305 12.9684 11.695 12.9684 11.1078 13.1028L5 14.5003C5.32269 16.588 6.38005 18.4919 7.98173 19.8693C9.5834 21.2467 12 23.0001 12 23.0001C12 23.0001 15.3585 20.4367 16.0183 19.8693Z" fill="black"/>
</svg>
