<svg xmlns="http://www.w3.org/2000/svg" width="24" height="24" viewBox="0 0 24 24" fill="none"><rect width="24" height="24" fill="none"/>
<path fill-rule="evenodd" clip-rule="evenodd" d="M1 5C1 4.44772 1.44772 4 2 4H13C13.5523 4 14 4.44772 14 5V12.5C14 16.0899 11.0899 19 7.5 19C3.91015 19 1 16.0899 1 12.5V5ZM4.5 10C5.32843 10 6 9.88562 6 9.33333C6 8.78105 5.5 8 4.5 8C3.5 8 3 8.78105 3 9.33333C3 9.88562 3.67157 10 4.5 10ZM12 9.33333C12 9.88562 11.3284 10 10.5 10C9.67157 10 9 9.88562 9 9.33333C9 8.78105 9.5 8 10.5 8C11.5 8 12 8.78105 12 9.33333ZM4.03543 13C4.27805 14.6961 5.73675 16 7.49999 16C9.26322 16 10.7219 14.6961 10.9645 13H4.03543Z" fill="black"/>
<path fill-rule="evenodd" clip-rule="evenodd" d="M16 12.5V7H21C21.5523 7 22 7.44772 22 8V15.5C22 19.0899 19.0899 22 15.5 22C13.7739 22 12.205 21.3272 11.0411 20.2295C11.7433 19.9073 12.394 19.4922 12.9775 19H18.9645C18.7219 17.3039 17.2632 16 15.5 16C15.4139 16 15.3286 16.0031 15.2441 16.0092C15.7296 14.9395 16 13.7513 16 12.5ZM18.5 11C19.3284 11 20 11.1144 20 11.6667C20 12.219 19.5 13 18.5 13C17.5 13 17 12.219 17 11.6667C17 11.1144 17.6716 11 18.5 11Z" fill="black"/>
</svg>
