<svg xmlns="http://www.w3.org/2000/svg" width="24" height="24" viewBox="0 0 24 24" fill="none"><rect width="24" height="24" fill="none"/>
<path fill-rule="evenodd" clip-rule="evenodd" d="M12 2C6.47715 2 2 6.47715 2 12C2 17.5228 6.47715 22 12 22C17.5228 22 22 17.5228 22 12C22 6.47715 17.5228 2 12 2ZM13 17V11H11V17H13ZM12 9.00006C12.7037 9.00006 13.2742 8.42958 13.2742 7.72586C13.2742 7.02214 12.7037 6.45166 12 6.45166C11.2963 6.45166 10.7258 7.02214 10.7258 7.72586C10.7258 8.42958 11.2963 9.00006 12 9.00006Z" fill="black"/>
</svg>
