<svg xmlns="http://www.w3.org/2000/svg" width="24" height="24" viewBox="0 0 24 24" fill="none"><rect width="24" height="24" fill="none"/>
<path fill-rule="evenodd" clip-rule="evenodd" d="M21.7721 8.46609C21.7277 7.90429 21.4761 7.26024 21.1247 6.67755C20.7992 6.13777 20.3882 5.65067 19.9772 5.3304C19.0161 4.64883 18.0174 4.01891 16.9858 3.44344C15.9619 2.85234 14.9062 2.31508 13.8234 1.83397C13.2449 1.60414 12.6246 1.49086 12 1.50097C11.3751 1.48819 10.7543 1.60156 10.1766 1.83397C9.09393 2.31542 8.03831 2.85267 7.01425 3.44344C5.36182 4.41467 4.02279 5.3304 4.02279 5.3304C3.04595 6.12668 2.39822 7.2406 2.19943 8.46609C2.06832 9.63651 2.00175 10.8129 2 11.9903C2.00305 13.1676 2.06962 14.3439 2.19943 15.5145C2.31339 16.5967 3.16809 17.9842 4.02279 18.6502C4.02279 18.6502 5.36182 19.6214 7.01425 20.5649C8.03812 21.156 9.09376 21.6932 10.1766 22.1743C10.7557 22.4013 11.3759 22.5118 12 22.499C12.6249 22.5118 13.2457 22.3984 13.8234 22.166C14.9061 21.6846 15.9617 21.1473 16.9858 20.5565C18.6382 19.5853 19.9772 18.6418 19.9772 18.6418C20.9541 17.8455 21.6018 16.7316 21.8006 15.5061C21.9317 14.3357 21.9983 13.1593 22 11.982C21.9715 10.0756 21.7721 8.46609 21.7721 8.46609ZM6.01953 9H13.0195V11H6.01953V9ZM17.0195 13H6.01953V15H17.0195V13Z" fill="black"/>
</svg>
