<svg xmlns="http://www.w3.org/2000/svg" width="24" height="24" viewBox="0 0 24 24" fill="none"><rect width="24" height="24" fill="none"/>
<path d="M8.28016 1.78144L10.0479 0.0136719L15.534 5.49974L10.0479 10.9858L8.28016 9.21804L10.4981 7.00011H9C6.51472 7.00011 4.5 9.01483 4.5 11.5001V15.0001H1.5V11.5001C1.5 7.35798 4.85786 4.00011 9 4.00011H10.4988L8.28016 1.78144Z" fill="#0B1F35"/>
<path d="M22.5 12.5C22.5 16.6421 19.1421 20 15 20H13.4982L15.7159 22.2177L13.9481 23.9855L8.46265 18.5L13.9481 13.0145L15.7159 14.7823L13.4982 17H15C17.4852 17 19.5 14.9853 19.5 12.5V9H22.5V12.5Z" fill="#0B1F35"/>
</svg>
