<svg xmlns="http://www.w3.org/2000/svg" width="24" height="24" viewBox="0 0 24 24" fill="none"><rect width="24" height="24" fill="none"/>
<path fill-rule="evenodd" clip-rule="evenodd" d="M5 2C4.44772 2 4 2.44772 4 3V22.8008C4 22.8571 4.02601 22.9102 4.07046 22.9447C4.16158 23.0155 4.33186 23.0155 4.42298 22.9447L4.42383 22.9441C5.5093 22.1014 6.48107 21.347 8.06299 21.329C9.69811 21.3103 10.7055 22.0766 11.8237 22.9447C11.9148 23.0155 12.0851 23.0155 12.1762 22.9447L12.1808 22.9412C13.2859 22.0833 14.2545 21.3314 15.8656 21.3286C17.4796 21.3258 18.472 22.0869 19.577 22.9447C19.6681 23.0155 19.8384 23.0155 19.9295 22.9447C19.974 22.9102 20 22.857 20 22.8007V3C20 2.44772 19.5523 2 19 2H5ZM10.5 16L17 9.5L15.5 8L10.5 13L8.5 11L7 12.5L10.5 16Z" fill="black"/>
</svg>
