<svg xmlns="http://www.w3.org/2000/svg" width="24" height="24" viewBox="0 0 24 24" fill="none"><rect width="24" height="24" fill="none"/>
<path fill-rule="evenodd" clip-rule="evenodd" d="M18.2828 6.61854L5.85858 7.73439C5.16875 7.82172 5 8.22669 5 8.72434V8.99997H19C20.1046 8.99997 21 9.8954 21 11V19C21 20.1045 20.1046 21 19 21H5C3.89543 21 3 20.1045 3 19V8.72434C3 7.23139 3.60625 5.99985 5.57574 5.75449L16.1096 4.80842C17.1693 4.71325 18.118 5.46433 18.2684 6.51756L18.2828 6.61854ZM15 15.0114C15 16.1314 15.8914 17 17.0114 17C18.1314 17 19 16.1314 19 15.0114C19 13.8914 18.1314 13 17.0114 13C15.8914 13 15 13.8914 15 15.0114Z" fill="#0B1F35"/>
</svg>
