<svg width="24" height="24" viewBox="0 0 24 24" fill="none" xmlns="http://www.w3.org/2000/svg">
<path fill-rule="evenodd" clip-rule="evenodd" d="M5.29286 11.2927L3.62132 12.9643C1.66869 14.9169 1.66869 18.0827 3.62131 20.0353L3.96446 20.3785C5.91708 22.3311 9.08291 22.3311 11.0355 20.3785L14.3787 17.0353C16.3313 15.0827 16.3313 11.9169 14.3787 9.96431L14.0355 9.62116C13.8386 9.42418 13.6292 9.24708 13.4101 9.08984L11.9631 10.5368C12.199 10.6686 12.4208 10.8348 12.6213 11.0353L12.9645 11.3785C14.136 12.5501 14.136 14.4496 12.9645 15.6211L9.62132 18.9643C8.44974 20.1359 6.55025 20.1359 5.37868 18.9643L5.03553 18.6211C3.86396 17.4496 3.86396 15.5501 5.03553 14.3785L6.70707 12.7069L5.29286 11.2927Z" fill="#0B1F35"/>
<path fill-rule="evenodd" clip-rule="evenodd" d="M18.7071 12.707L20.3787 11.0354C22.3313 9.0828 22.3313 5.91698 20.3787 3.96436L20.0355 3.62121C18.0829 1.66859 14.9171 1.66858 12.9645 3.6212L9.62132 6.96436C7.6687 8.91698 7.66869 12.0828 9.62132 14.0354L9.96447 14.3786C10.1614 14.5755 10.3708 14.7527 10.5899 14.9099L12.0369 13.4629C11.801 13.3311 11.5792 13.1649 11.3787 12.9644L11.0355 12.6212C9.86396 11.4496 9.86396 9.55014 11.0355 8.37857L14.3787 5.03542C15.5503 3.86385 17.4497 3.86385 18.6213 5.03542L18.9645 5.37857C20.136 6.55014 20.136 8.44964 18.9645 9.62121L17.2929 11.2928L18.7071 12.707Z" fill="#0B1F35"/>
</svg>
