<svg xmlns="http://www.w3.org/2000/svg" width="24" height="24" viewBox="0 0 24 24" fill="none"><rect width="24" height="24" fill="none"/>
<path d="M15.2498 18.5H20.5C21.0522 18.5 21.5 18.0523 21.5 17.5V8.63996C21.5 6.8651 19.9675 5.47825 18.2015 5.65485L17.25 5.75L17.3451 4.79851C17.5217 3.03246 16.1349 1.5 14.36 1.5H8.89996C8.34768 1.5 7.89996 1.94772 7.89996 2.5V8.00061C9.92217 8.00066 11.9443 8.00051 13.9665 8.00005C15.653 7.99967 17.0219 9.3933 16.9706 11.0928C16.9602 11.4349 16.9461 11.8409 16.9257 12.081C16.705 14.6791 16.0769 16.7928 15.2498 18.5Z" fill="black"/>
<path fill-rule="evenodd" clip-rule="evenodd" d="M8.00025 23C8.00025 23 1.81363 20.9839 1.03967 11.9117C1.02636 11.7556 1.01231 11.3918 1.00051 11.023C0.982566 10.4619 1.43632 9.99991 1.99996 10C5.99697 10.0007 9.99399 10.001 13.991 10.0001C14.5583 9.99992 15.0167 10.4677 14.9995 11.0325C14.9887 11.3912 14.9757 11.7374 14.9608 11.9117C14.1869 20.9839 8.00025 23 8.00025 23ZM8.00024 12.0006V20.7969C7.54273 20.5409 6.90075 20.1122 6.23056 19.4442C4.94365 18.1615 3.45184 15.8989 3.06424 12.0002C4.70955 12.0004 6.35488 12.0006 8.00024 12.0006Z" fill="black"/>
</svg>
