<svg xmlns="http://www.w3.org/2000/svg" width="24" height="24" viewBox="0 0 24 24" fill="none"><rect width="24" height="24" fill="none"/>
<path d="M20.3407 5.64952C21.0095 8.1453 20.0531 10.6937 18.1203 12.1712C18.1096 12.2301 18.0945 12.2885 18.0752 12.3457L17.7446 13.3229C17.5845 13.7962 17.7247 14.3194 18.1 14.6493L18.5365 15.0329C18.9119 15.3628 19.0521 15.886 18.8919 16.3594L18.7057 16.9098C18.5456 17.3832 18.6858 17.9064 19.0612 18.2363L19.1354 18.3015C19.6689 18.7704 19.6993 19.5911 19.2019 20.0981L16.1204 23.2397L15.3349 20.4462L13.4396 13.373C11.081 13.0162 9.04098 11.3048 8.38411 8.85328C7.49941 5.55156 9.45881 2.15779 12.7605 1.2731C16.0623 0.388402 19.456 2.34779 20.3407 5.64952Z" fill="black"/>
<path d="M9.54635 13.9836C9.59235 13.9802 9.63825 13.9763 9.68407 13.9718C8.1517 12.9063 6.97344 11.314 6.45255 9.37003C5.69398 6.53901 6.51571 3.65685 8.377 1.66014C6.05407 1.93066 3.98492 3.51281 3.20825 5.88093C2.41728 8.29265 3.18921 10.8414 4.96885 12.4301L2.68619 19.3901L1.7973 21.9016L6.04326 21.1664C6.76485 21.0415 7.22082 20.3209 7.02472 19.6153L7.0144 19.5781C6.88058 19.0967 7.04939 18.582 7.44236 18.2733L7.89931 17.9143C8.29228 17.6056 8.46109 17.0909 8.32727 16.6094L8.17167 16.0495C8.03785 15.5681 8.20666 15.0534 8.59963 14.7447L9.4108 14.1074C9.45919 14.0694 9.50446 14.028 9.54635 13.9836Z" fill="black"/>
</svg>
