<svg xmlns="http://www.w3.org/2000/svg" width="24" height="24" viewBox="0 0 24 24" fill="none"><rect width="24" height="24" fill="none"/>
<path d="M2 3C2 1.89543 2.89543 1 4 1H20C21.1046 1 22 1.89543 22 3V7.53514C21.4117 7.19479 20.7286 7 20 7V4C20 3.44772 19.5523 3 19 3H5C4.44772 3 4 3.44772 4 4V11C4 11.5523 4.44772 12 5 12H10V17H4C2.89543 17 2 16.1046 2 15V3Z" fill="black"/>
<path fill-rule="evenodd" clip-rule="evenodd" d="M14 9C12.8954 9 12 9.89544 12 11L12.0001 21C12.0001 22.1046 12.8955 23 14.0001 23H20C21.1046 23 22 22.1046 22 21V11C22 9.89543 21.1046 9 20 9H14ZM14.8333 12C14.3731 12 14 12.3731 14 12.8333V16H20V12.8333C20 12.3731 19.6269 12 19.1667 12H14.8333Z" fill="black"/>
</svg>
