<svg xmlns="http://www.w3.org/2000/svg" width="24" height="24" viewBox="0 0 24 24" fill="none"><rect width="24" height="24" fill="none"/>
<path fill-rule="evenodd" clip-rule="evenodd" d="M20.5 18.9826C22.0621 17.0833 23 14.6512 23 12C23 5.92487 18.0751 1 12 1C5.92487 1 1 5.92487 1 12C1 14.6512 1.9379 17.0833 3.5 18.9826H20.5ZM8 7C8 5.89543 8.89542 5 10 5H14C15.1046 5 16 5.89543 16 7V11.5C16 11.7761 15.7762 12 15.5 12H8.5C8.22385 12 8 11.7761 8 11.5V7ZM16 15C16 15.5523 15.5523 16 15 16C14.4477 16 14 15.5523 14 15C14 14.4477 14.4477 14 15 14C15.5523 14 16 14.4477 16 15ZM10 15C10 15.5523 9.55228 16 9 16C8.44772 16 8 15.5523 8 15C8 14.4477 8.44772 14 9 14C9.55228 14 10 14.4477 10 15Z" fill="#0B1F35"/>
<path fill-rule="evenodd" clip-rule="evenodd" d="M3.60559 23.0528L6.10559 18.0528L7.89445 18.9472L5.39445 23.9472L3.60559 23.0528Z" fill="#0B1F35"/>
<path fill-rule="evenodd" clip-rule="evenodd" d="M16.1056 18.9472L18.6056 23.9472L20.3944 23.0528L17.8944 18.0528L16.1056 18.9472Z" fill="#0B1F35"/>
<path d="M5 21H19V23H5V21Z" fill="#0B1F35"/>
</svg>
