<svg xmlns="http://www.w3.org/2000/svg" width="24" height="24" viewBox="0 0 24 24" fill="none"><rect width="24" height="24" fill="none"/>
<path d="M9 11C10.1046 11 11 10.1046 11 9C11 7.89543 10.1046 7 9 7C7.89543 7 7 7.89543 7 9C7 10.1046 7.89543 11 9 11Z" fill="black"/>
<path fill-rule="evenodd" clip-rule="evenodd" d="M12 1C7.02944 1 3 5.02944 3 10V19C3 20.1046 3.89543 21 5 21H19C20.1046 21 21 20.1046 21 19V10C21 5.02944 16.9706 1 12 1ZM8.7971 13.2365L5 16.4495V10C5 6.13401 8.13401 3 12 3C15.866 3 19 6.13401 19 10V13.1427L16.7066 10.8493C16.3161 10.4588 15.6829 10.4588 15.2924 10.8493L11.4995 14.6422L10.1501 13.2928C9.95524 13.0979 9.69841 12.9994 9.44092 12.9999C9.21257 13.0004 8.98371 13.0786 8.7971 13.2365Z" fill="black"/>
</svg>
