<svg xmlns="http://www.w3.org/2000/svg" width="24" height="24" viewBox="0 0 24 24" fill="none"><rect width="24" height="24" fill="none"/>
<path d="M14 16C14 17.1046 13.1046 18 12 18C10.8954 18 10 17.1046 10 16C10 14.8954 10.8954 14 12 14C13.1046 14 14 14.8954 14 16Z" fill="#0B1F35"/>
<path fill-rule="evenodd" clip-rule="evenodd" d="M7 7C7 4.23858 9.23858 2 12 2C14.7614 2 17 4.23858 17 7V9H20V20C20 21.6569 18.6569 23 17 23H7C5.34315 23 4 21.6569 4 20V9H7V7ZM15 7V9H9V7C9 5.34315 10.3431 4 12 4C13.6569 4 15 5.34315 15 7ZM6 11V20C6 20.5523 6.44772 21 7 21H17C17.5523 21 18 20.5523 18 20V11H6Z" fill="#0B1F35"/>
</svg>
