<svg width="24" height="24" viewBox="0 0 24 24" fill="none" xmlns="http://www.w3.org/2000/svg">
<path d="M12 5C8.13401 5 5 8.13401 5 12H3C3 7.02944 7.02944 3 12 3C16.9706 3 21 7.02944 21 12C21 16.9706 16.9706 21 12 21C9.27858 21 6.83928 19.7921 5.18895 17.8832L5 20H3L3 14L9 14V16L6.25469 16C7.51964 17.8135 9.62125 19 12 19C15.866 19 19 15.866 19 12C19 8.13401 15.866 5 12 5Z" fill="#0B1F35"/>
<path fill-rule="evenodd" clip-rule="evenodd" d="M11 7.5V12C11 12.9443 11.4446 13.8334 12.2 14.4L14.8 16.1L16 14.5L13.4 12.8C13.1482 12.6111 13 12.3148 13 12V7.5H11Z" fill="#0B1F35"/>
</svg>
