<svg xmlns="http://www.w3.org/2000/svg" width="24" height="24" viewBox="0 0 24 24" fill="none"><rect width="24" height="24" fill="none"/>
<path d="M17 2H7V7H17V2Z" fill="black"/>
<path d="M6 9H10V13H14V9H18C18.5523 9 19 9.44771 19 10V12.8599C19 12.9529 18.9871 13.0453 18.9615 13.1347L17.2072 19.2747C17.0846 19.704 16.6922 20 16.2457 20H14V23H10V20H7.7543C7.30782 20 6.91543 19.704 6.79278 19.2747L5.03848 13.1347C5.01295 13.0453 5 12.9529 5 12.8599V10C5 9.44771 5.44772 9 6 9Z" fill="black"/>
</svg>
