<svg xmlns="http://www.w3.org/2000/svg" width="18" height="18" viewBox="0 0 18 18" fill="none"><rect width="18" height="18" fill="none"/>
<path d="M8.45357 3.87903C8.64254 3.37366 9.35737 3.37366 9.54634 3.87903L10.5928 6.67768C10.6748 6.89693 10.8799 7.04593 11.1137 7.05615L14.0988 7.18659C14.6378 7.21014 14.8587 7.88999 14.4365 8.22587L12.0982 10.086C11.915 10.2317 11.8367 10.4728 11.8992 10.6984L12.6976 13.5776C12.8418 14.0975 12.2635 14.5177 11.8135 14.2199L9.3219 12.5709C9.12671 12.4417 8.8732 12.4417 8.67801 12.5709L6.18638 14.2199C5.73645 14.5177 5.15814 14.0975 5.30231 13.5776L6.10069 10.6984C6.16323 10.4728 6.0849 10.2317 5.90172 10.086L3.56342 8.22587C3.14118 7.88999 3.36207 7.21014 3.9011 7.18659L6.88616 7.05615C7.12001 7.04593 7.3251 6.89693 7.40708 6.67768L8.45357 3.87903Z" fill="black"/>
</svg>
