<svg xmlns="http://www.w3.org/2000/svg" width="24" height="24" viewBox="0 0 24 24" fill="none"><rect width="24" height="24" fill="none"/>
<path d="M8 9C6.89543 9 6 9.89543 6 11C6 12.1046 6.89543 13 8 13C9.10457 13 10 12.1046 10 11C10 9.89543 9.10457 9 8 9Z" fill="black"/>
<path fill-rule="evenodd" clip-rule="evenodd" d="M2 4.5C2 3.67157 2.67157 3 3.5 3H20.5C21.3284 3 22 3.67157 22 4.5V21H19V19.0004H5V21H2V4.5ZM4 11C4 8.79086 5.79086 7 8 7C10.2091 7 12 8.79086 12 11C12 13.2091 10.2091 15 8 15C5.79086 15 4 13.2091 4 11Z" fill="black"/>
</svg>
