<svg xmlns="http://www.w3.org/2000/svg" width="24" height="24" viewBox="0 0 24 24" fill="none"><rect width="24" height="24" fill="none"/>
<path fill-rule="evenodd" clip-rule="evenodd" d="M4 3C4 2.44772 4.44772 2 5 2H12.185C13.9599 2 15.3468 3.53245 15.1701 5.29851L15.0243 6.75677C15.0117 6.88251 15.1175 6.98825 15.2432 6.97568L16.7015 6.82985C18.4675 6.65325 20 8.0401 20 9.81496V21C20 21.5523 19.5523 22 19 22H5C4.44772 22 4 21.5523 4 21V3ZM6 18L7.73178 15.9219C8.13157 15.4421 8.86843 15.4421 9.26822 15.9219L11 18L13.6362 13.4808C14.0221 12.8193 14.9779 12.8193 15.3638 13.4808L18 18V20H6V18ZM9 11C10.1046 11 11 10.1046 11 9C11 7.89543 10.1046 7 9 7C7.89543 7 7 7.89543 7 9C7 10.1046 7.89543 11 9 11Z" fill="black"/>
</svg>
