<svg fill="none" height="24" viewBox="0 0 24 24" width="24" xmlns="http://www.w3.org/2000/svg"><path d="m0 0h24v24h-24z" fill="none"/><g fill="#000"><path d="m3 9h18v-1c0-1.10457-.8954-2-2-2h-14c-1.10457 0-2 .89543-2 2z"/><path d="m13.9996 18h-8.9996c-1.10457 0-2-.8954-2-2v-5h11.9995c-1.2142.9122-1.9995 2.3644-1.9995 4 0 1.1256.3719 2.1643.9996 3z"/><path d="m18.6413 15.6945 1.087-3.0385h.0434l1.0326 3.0385zm2.5326-3.5905c-.2228-.6178-.4782-1.104-1.3587-1.104-.8804 0-1.1739.4862-1.4022 1.104l-2.413 6.396h1.6304l.5435-1.5192h3.0815l.5435 1.5192h1.7011z"/></g></svg>
