<svg xmlns="http://www.w3.org/2000/svg" width="18" height="18" viewBox="0 0 18 18" fill="none"><rect width="18" height="18" fill="none"/>
<path fill-rule="evenodd" clip-rule="evenodd" d="M7.5 1.5H10.5V3.18903C11.5805 3.46714 12.5433 4.03868 13.2982 4.81364L14.9999 3.75009L16.4999 6.37509L14.7953 7.44044C14.9288 7.93774 15 8.46056 15 9C15 9.53943 14.9288 10.0622 14.7953 10.5595L16.5002 11.6251L15.0002 14.2501L13.2982 13.1863C12.5433 13.9613 11.5805 14.5329 10.5 14.811V16.5H7.5V14.811C6.41947 14.5329 5.45674 13.9613 4.70182 13.1864L2.99994 14.25L1.5 11.625L3.20469 10.5596C3.07119 10.0623 3 9.53944 3 9C3 8.46057 3.07119 7.93777 3.20468 7.44047L1.49982 6.375L2.99982 3.75L4.70177 4.81368C5.4567 4.0387 6.41945 3.46714 7.5 3.18903V1.5ZM9 11.625C10.4497 11.625 11.625 10.4497 11.625 9C11.625 7.55025 10.4497 6.375 9 6.375C7.55025 6.375 6.375 7.55025 6.375 9C6.375 10.4497 7.55025 11.625 9 11.625Z" fill="#0B1F35"/>
</svg>
