<svg xmlns="http://www.w3.org/2000/svg" width="24" height="24" viewBox="0 0 24 24" fill="none"><rect width="24" height="24" fill="none"/>
<path fill-rule="evenodd" clip-rule="evenodd" d="M0.000110216 9.66538L0 9.68978H0.0288948L3 12.2086V16.7344C3.00149 19.0906 7.03033 21.0004 11.9999 21.0004C16.9695 21.0004 20.9984 19.0906 20.9999 16.7344V12.1773L23.9707 9.68978H24.0001C24.0001 8.18075 22.7358 6.73354 20.4854 5.6665C18.2349 4.59946 15.1827 4 12.0001 4C8.81745 4 5.76519 4.59946 3.51474 5.6665C1.27647 6.72776 0.0137136 8.16519 0.000110216 9.66538ZM12 16.955C13.1046 16.955 14 16.0732 14 14.9854C14 13.8977 13.1046 13.0159 12 13.0159C10.8954 13.0159 10 13.8977 10 14.9854C10 16.0732 10.8954 16.955 12 16.955Z" fill="black"/>
</svg>
