<svg xmlns="http://www.w3.org/2000/svg" width="24" height="24" viewBox="0 0 24 24" fill="none"><rect width="24" height="24" fill="none"/>
<path d="M19.0711 4.92893C17.1957 3.05357 14.6522 2 12 2V12L19.0711 4.92893Z" fill="black"/>
<path d="M2 11.9999C2 7.162 5.43552 3.12649 10 2.19995V4.25195C6.54955 5.14004 4 8.27224 4 11.9999C4 16.4182 7.58172 19.9999 12 19.9999C16.4183 19.9999 20 16.4182 20 11.9999C20 10.5163 19.5961 9.12701 18.8924 7.93598L20.3432 6.48513C21.3902 8.066 22 9.96175 22 11.9999C22 17.5228 17.5228 21.9999 12 21.9999C6.47715 21.9999 2 17.5228 2 11.9999Z" fill="black"/>
</svg>
