<svg xmlns="http://www.w3.org/2000/svg" width="24" height="24" viewBox="0 0 24 24" fill="none"><rect width="24" height="24" fill="none"/>
<path d="M16.8772 18H22L22 22L2 22L2 18H10.1228L13.5 20.4823L16.8772 18Z" fill="black"/>
<path fill-rule="evenodd" clip-rule="evenodd" d="M20 13.2225V3.00086C20 1.89601 19.1044 1.00047 17.9995 1.00065C15.7318 1.00102 13.2727 1.00082 10.922 1.00063C10.2708 1.00058 9.62795 1.00053 8.99974 1.00049C7.89518 1.00042 7 1.89585 7 3.00041L7 13.2225L13.4998 18L20 13.2225ZM13.5 9.5C14.6046 9.5 15.5 8.60457 15.5 7.5C15.5 6.39543 14.6046 5.5 13.5 5.5C12.3954 5.5 11.5 6.39543 11.5 7.5C11.5 8.60457 12.3954 9.5 13.5 9.5Z" fill="black"/>
</svg>
