<svg xmlns="http://www.w3.org/2000/svg" width="24" height="24" viewBox="0 0 24 24" fill="none"><rect width="24" height="24" fill="none"/>
<path d="M13.3137 9C13.2433 8.80086 13.1676 8.60338 13.0866 8.4078C12.673 7.40935 12.1273 6.47347 11.4659 5.62452C11.1937 5.27569 10.903 4.94194 10.5946 4.6255C10.5584 4.58835 10.522 4.55142 10.4853 4.51472C8.31371 2.34315 5.31371 1 2 1V12H4L6.90725 9.51735L4.69531 22H9.10002C9.56329 19.7178 11.581 18 14 18C16.419 18 18.4367 19.7178 18.9 22H23.3036L21.4754 11.6829C21.2004 10.1309 19.8514 9 18.2753 9H13.3137Z" fill="black"/>
</svg>
