<svg xmlns="http://www.w3.org/2000/svg" width="24" height="24" viewBox="0 0 24 24" fill="none"><rect width="24" height="24" fill="none"/>
<path fill-rule="evenodd" clip-rule="evenodd" d="M3 9.17143L14.8286 21L15.7547 20.331L15.943 19.2663C16.1928 17.8531 16.871 16.5508 17.8856 15.5359L19.178 14.2431C20.3529 13.0682 20.9999 11.5002 20.9999 9.82732C20.9999 6.29705 17.6881 3 14.1726 3C12.4997 3 10.9317 3.64701 9.75678 4.82195L8.46392 6.11443C7.44906 7.12899 6.14691 7.80714 4.73382 8.05702L3.66973 8.24519L3 9.17143ZM5.6631 18.2487C6.63902 19.2247 8.22032 19.2247 9.19625 18.2487L5.6631 14.7156C4.68717 15.6915 4.68717 17.2728 5.6631 18.2487Z" fill="#0B1F35"/>
</svg>
