<svg xmlns="http://www.w3.org/2000/svg" width="24" height="24" viewBox="0 0 24 24" fill="none"><rect width="24" height="24" fill="none"/>
<path fill-rule="evenodd" clip-rule="evenodd" d="M10.1618 3.19521C10.7975 1.46684 13.2024 1.46683 13.8382 3.1952L15.5985 7.98094L20.6198 8.20398C22.4333 8.28454 23.1765 10.6096 21.7559 11.7584L17.8226 14.9392L19.1656 19.8627C19.6506 21.6409 17.705 23.0779 16.1913 22.0595L12 19.2396L7.80871 22.0595C6.29502 23.0779 4.34941 21.6409 4.83444 19.8627L6.17744 14.9392L2.24408 11.7584C0.823547 10.6096 1.56669 8.28454 3.38015 8.20398L8.40146 7.98094L10.1618 3.19521ZM13.7603 8.67967L12 3.89394L10.2397 8.67967C9.96385 9.42949 9.27386 9.9391 8.48713 9.97405L3.46582 10.1971L7.39918 13.3779C8.01545 13.8762 8.279 14.7008 8.06858 15.4722L6.72559 20.3958L10.9169 17.5759C11.5736 17.1341 12.4264 17.1341 13.0831 17.5759L17.2744 20.3958L15.9314 15.4722C15.721 14.7008 15.9846 13.8762 16.6008 13.3779L20.5342 10.1971L15.5129 9.97405C14.7261 9.9391 14.0361 9.42949 13.7603 8.67967Z" fill="#0B1F35"/>
</svg>
