<svg xmlns="http://www.w3.org/2000/svg" width="24" height="24" viewBox="0 0 24 24" fill="none"><rect width="24" height="24" fill="none"/>
<path d="M3 4C2.44772 4 2 4.44772 2 5V13.8293C0.834808 13.4175 0 12.3062 0 11V5C0 3.34315 1.34315 2 3 2H15C16.3062 2 17.4175 2.83481 17.8293 4H3Z" fill="#0B1F35"/>
<path fill-rule="evenodd" clip-rule="evenodd" d="M8 8C6.34315 8 5 9.34315 5 11V19C5 20.6569 6.34315 22 8 22H21C22.6569 22 24 20.6569 24 19V11C24 9.34315 22.6569 8 21 8H8ZM21 10H8C7.44772 10 7 10.4477 7 11V13H22V11C22 10.4477 21.5523 10 21 10ZM7 19V15H22V19C22 19.5523 21.5523 20 21 20H8C7.44772 20 7 19.5523 7 19Z" fill="#0B1F35"/>
</svg>
