<svg xmlns="http://www.w3.org/2000/svg" width="24" height="24" viewBox="0 0 24 24" fill="none"><rect width="24" height="24" fill="none"/>
<path d="M12.8307 6.84961C13.8899 6.84961 14.7487 5.98784 14.7487 4.9248C14.7487 3.86176 13.8899 3 12.8307 3C11.7714 3 10.9126 3.86176 10.9126 4.9248C10.9126 5.98784 11.7714 6.84961 12.8307 6.84961Z" fill="black"/>
<path d="M8.40021 8.91613C7.71986 9.0705 7.55488 9.32335 7.02794 10.2933C6.501 11.2632 6.06263 12.2676 6.06263 12.2676C5.91337 12.5996 6.03902 12.9911 6.35334 13.1732C6.66766 13.3553 7.06834 13.2688 7.2802 12.9731L8.56381 11.3236L8.5653 11.3234L10.4776 11.0035L9.4828 13.2675C9.34407 13.8244 9.77994 14.0928 10.2761 14.3784L13.5103 16.2405L15.1166 20.3228C15.2275 20.7195 15.4613 20.9681 15.8882 20.9681C16.378 20.9681 16.5109 20.5543 16.4642 20.1211C16.4642 20.1211 16.1033 17.1233 16.0012 16.0903C15.8991 15.0574 15.8388 14.6501 15.243 14.3071L12.3875 12.6353L13.4316 9.72726C13.5362 9.30766 13.423 8.86343 13.1307 8.5456C12.8383 8.22782 12.4061 8.0792 11.9809 8.15028C11.9809 8.15028 9.08057 8.76176 8.40021 8.91613Z" fill="black"/>
<path d="M9.63402 15.8318L11.8488 17.115L9.21505 20.7045C8.99643 21.0025 8.58911 21.0876 8.26924 20.9023C7.95635 20.721 7.82399 20.3366 7.95886 20.0009L9.63402 15.8318Z" fill="black"/>
<path d="M16.1862 12.7438L13.8958 11.7064L14.4206 9.741L16.8892 11.5219C17.1839 11.7345 17.2701 12.1366 17.0887 12.452C16.9072 12.7675 16.5171 12.8936 16.1862 12.7438Z" fill="black"/>
</svg>
