<svg xmlns="http://www.w3.org/2000/svg" width="24" height="24" viewBox="0 0 24 24" fill="none"><rect width="24" height="24" fill="none"/>
<path d="M17.5 2H6.5C4.8 2 3.5 3.3 3.5 5V22C3.5 22.5 3.9 23 4.5 23C5.2 23 5.5 22.8 5.6 22.7C6.6 21.9 7.3 21.3 8.4 21.3C9.6 21.3 10.2 21.8 11.3 22.7C11.8 23.1 12.4 23.1 12.9 22.7C13.9 21.9 14.6 21.3 15.7 21.3C16.8 21.3 17.5 21.8 18.5 22.7C18.6 22.8 18.8 23 19.4 23H19.5C20 23 20.5 22.5 20.5 22V5C20.5 3.3 19.2 2 17.5 2ZM18.5 20.2C17.7 19.7 16.8 19.3 15.6 19.3C14 19.3 13 20 12 20.8C11.1 20.1 10 19.3 8.4 19.3C8.4 19.3 8.4 19.3 8.3 19.3C7.1 19.3 6.3 19.7 5.5 20.2V5C5.5 4.4 5.9 4 6.5 4H17.5C18.1 4 18.5 4.4 18.5 5V20.2ZM13 10H7V8H13V10ZM7 12H17V14H7V12Z" fill="#0B1F35"/>
</svg>
