<svg xmlns="http://www.w3.org/2000/svg" width="18" height="18" viewBox="0 0 18 18" fill="none"><rect width="18" height="18" fill="none"/>
<path d="M4.25 14.95H13.75" stroke="#121212" stroke-width="1.5" stroke-linecap="round"/>
<path fill-rule="evenodd" clip-rule="evenodd" d="M11.2001 13.2497H9.00009H7.31714H5.92063C5.1135 13.1285 4.31006 12.3438 4.31006 11.3874V5.8C4.31006 4.81282 5.15009 2.5 6.80009 2.5016L9.00995 2.5H11.2001C13.0112 2.4984 13.6901 4.81282 13.6901 5.8V11.3874C13.6901 12.3438 12.8867 13.1285 12.0796 13.2497H11.2001ZM5.89954 11.1642L6.71439 11.2933L7.80084 11.4653C7.84836 11.1653 7.18648 10.2543 6.88647 10.2068L6.07162 10.0777C5.92161 10.054 5.78075 10.1563 5.75699 10.3063L5.67095 10.8496C5.64719 10.9996 5.74954 11.1404 5.89954 11.1642ZM12.1016 11.1641L11.2868 11.2932L10.2001 11.4653C10.1526 11.1653 10.8147 10.2542 11.1147 10.2067L11.9296 10.0777C12.0796 10.0539 12.2204 10.1563 12.2442 10.3063L12.3302 10.8495C12.354 10.9995 12.2516 11.1404 12.1016 11.1641ZM11.2005 9.09999H9.00048H8.99866H6.80048C6.22176 9.09999 5.69511 8.2035 5.70044 7.40994L5.70048 5.79999C5.70048 5.11367 6.11653 4.47327 6.80048 4.47327H8.99866H9.00287H11.2005C11.8844 4.47327 12.3005 5.07217 12.3005 5.75849L12.3004 7.44999C12.3057 8.24355 11.7792 9.09999 11.2005 9.09999Z" fill="#121212"/>
</svg>
