<svg xmlns="http://www.w3.org/2000/svg" width="24" height="24" viewBox="0 0 24 24" fill="none"><rect width="24" height="24" fill="none"/>
<path fill-rule="evenodd" clip-rule="evenodd" d="M4 22.8008C4 22.8571 4.02601 22.9102 4.07046 22.9447C4.16158 23.0155 4.33186 23.0155 4.42298 22.9447L4.42383 22.9441L11.7691 19.1202C11.9138 19.0449 12.0862 19.0449 12.2309 19.1202L19.577 22.9447C19.6681 23.0155 19.8384 23.0155 19.9295 22.9447C19.974 22.9102 20 22.857 20 22.8007V3C20 2.44772 19.5523 2 19 2H5C4.44772 2 4 2.44772 4 3V22.8008ZM18 19.8689V4H6V19.8688L10.8456 17.3462C10.8456 17.3462 10.8456 17.3462 10.8456 17.3462C11.5691 16.9695 12.4309 16.9695 13.1545 17.3462L18 19.8689Z" fill="#0B1F35"/>
</svg>
