<svg xmlns="http://www.w3.org/2000/svg" width="24" height="24" viewBox="0 0 24 24" fill="none"><rect width="24" height="24" fill="none"/>
<path fill-rule="evenodd" clip-rule="evenodd" d="M14 3C14 3.74028 13.5978 4.38663 13 4.73244V7H17C19.5 6.99996 21 8.49996 21 11V17C21 19.5 19.5 21 17 21L7 20.9916C4.5 21 3 19.5 3 17V11C3 8.49996 4.5 7 7 7H11V4.73244C10.4022 4.38663 10 3.74028 10 3C10 1.89543 10.8954 1 12 1C13.1046 1 14 1.89543 14 3ZM10 13C10 14.1045 9.10457 15 8 15C6.89543 15 6 14.1045 6 13C6 11.8954 6.89543 11 8 11C9.10457 11 10 11.8954 10 13ZM18 13C18 14.1045 17.1046 15 16 15C14.8954 15 14 14.1045 14 13C14 11.8954 14.8954 11 16 11C17.1046 11 18 11.8954 18 13Z" fill="black"/>
</svg>
