<svg xmlns="http://www.w3.org/2000/svg" width="24" height="24" viewBox="0 0 24 24" fill="none"><rect width="24" height="24" fill="none"/>
<path fill-rule="evenodd" clip-rule="evenodd" d="M12 22C17.5228 22 22 17.5228 22 12C22 6.47715 17.5228 2 12 2C6.47715 2 2 6.47715 2 12C2 17.5228 6.47715 22 12 22ZM8.4553 7.07232C8.65596 6.79218 9.05889 6.75773 9.30104 7L10.877 8.57668C11.057 8.75678 11.1555 9.12581 10.9368 9.39535L9.9016 10.5649L11.6694 12.3327L13.4371 14.1005L14.6126 13.0438C14.8391 12.8563 15.2442 12.946 15.4242 13.1261L17 14.7027C17.2422 14.945 17.2078 15.3481 16.9278 15.5489L16.0016 16.2129C15.1721 16.8077 14.0507 16.8897 13.1468 16.3464C10.6141 14.8241 9.16581 13.4045 7.64616 10.8466C7.4063 10.4428 7.29112 9.99689 7.28975 9.55364C7.28807 9.0053 7.46056 8.46104 7.78667 8.00577L8.4553 7.07232Z" fill="black"/>
</svg>
