<svg xmlns="http://www.w3.org/2000/svg" width="24" height="24" viewBox="0 0 24 24" fill="none"><rect width="24" height="24" fill="none"/>
<path fill-rule="evenodd" clip-rule="evenodd" d="M11.6909 13.7334L16.8168 14.1088C18.907 14.2619 20.5247 16.0026 20.5247 18.0984V19.5659L20.5249 19.6267V22.6267C12.8476 22.6267 5.86533 18.9884 3.97879 17.9189C3.66341 17.7402 3.47998 17.4062 3.47998 17.0437C3.47998 16.339 4.16358 15.8223 4.85007 15.9816C6.80913 16.4362 10.6233 17.1319 14.6673 16.8354L11.3083 15.8569C10.8452 15.722 10.5269 15.2976 10.5269 14.8153C10.5269 14.185 11.0623 13.6874 11.6909 13.7334Z" fill="black"/>
<path fill-rule="evenodd" clip-rule="evenodd" d="M9.23684 6.47368C10.4722 6.47368 11.4737 5.47222 11.4737 4.23684C11.4737 3.00147 10.4722 2 9.23684 2C8.00147 2 7 3.00147 7 4.23684C7 5.47222 8.00147 6.47368 9.23684 6.47368ZM9.23684 5.15789C9.74553 5.15789 10.1579 4.74553 10.1579 4.23684C10.1579 3.72816 9.74553 3.31579 9.23684 3.31579C8.72816 3.31579 8.31579 3.72816 8.31579 4.23684C8.31579 4.74553 8.72816 5.15789 9.23684 5.15789Z" fill="black"/>
<path fill-rule="evenodd" clip-rule="evenodd" d="M14.7632 12C15.9985 12 17 10.9985 17 9.76316C17 8.52778 15.9985 7.52632 14.7632 7.52632C13.5278 7.52632 12.5263 8.52778 12.5263 9.76316C12.5263 10.9985 13.5278 12 14.7632 12ZM14.7632 10.6842C15.2718 10.6842 15.6842 10.2718 15.6842 9.76316C15.6842 9.25447 15.2718 8.84211 14.7632 8.84211C14.2545 8.84211 13.8421 9.25447 13.8421 9.76316C13.8421 10.2718 14.2545 10.6842 14.7632 10.6842Z" fill="black"/>
<path d="M15.0474 2.34231L16.0553 3.18808L8.95083 11.6549L7.94287 10.8091L15.0474 2.34231Z" fill="black"/>
</svg>
