<svg width="19" height="18" viewBox="0 0 19 18" fill="none" xmlns="http://www.w3.org/2000/svg">
<path fill-rule="evenodd" clip-rule="evenodd" d="M5.5 4C4.94771 4 4.5 4.44772 4.5 5C4.5 5.55228 4.94771 6 5.5 6C6.05228 6 6.5 5.55228 6.5 5C6.5 4.44772 6.05228 4 5.5 4ZM8.5 5C8.5 6.65685 7.15685 8 5.5 8C3.84314 8 2.5 6.65685 2.5 5C2.5 3.34315 3.84314 2 5.5 2C7.15685 2 8.5 3.34315 8.5 5Z" fill="#0B1F35"/>
<path fill-rule="evenodd" clip-rule="evenodd" d="M13.5 14C14.0522 14 14.5 13.5523 14.5 13C14.5 12.4477 14.0522 12 13.5 12C12.9477 12 12.5 12.4477 12.5 13C12.5 13.5523 12.9477 14 13.5 14ZM10.5 13C10.5 11.3431 11.8431 10 13.5 10C15.1568 10 16.5 11.3431 16.5 13C16.5 14.6568 15.1568 16 13.5 16C11.8431 16 10.5 14.6568 10.5 13Z" fill="#0B1F35"/>
<path d="M13.5549 2.61194L15.087 3.89752L5.44515 15.3882L3.91306 14.1026L13.5549 2.61194Z" fill="#0B1F35"/>
</svg>
