<svg xmlns="http://www.w3.org/2000/svg" width="24" height="24" viewBox="0 0 24 24" fill="none"><rect width="24" height="24" fill="none"/>
<path d="M12 8C13.933 8 15.5 6.433 15.5 4.5C15.5 2.567 13.933 1 12 1C10.067 1 8.5 2.567 8.5 4.5C8.5 6.433 10.067 8 12 8Z" fill="black"/>
<path d="M19.5 12C21.433 12 23 10.433 23 8.5C23 6.567 21.433 5 19.5 5C17.567 5 16 6.567 16 8.5C16 10.433 17.567 12 19.5 12Z" fill="black"/>
<path d="M8 8.5C8 10.433 6.433 12 4.5 12C2.567 12 1 10.433 1 8.5C1 6.567 2.567 5 4.5 5C6.433 5 8 6.567 8 8.5Z" fill="black"/>
<path d="M16.1603 11.7404C14.1811 8.77171 9.81886 8.77172 7.83975 11.7404L5.14587 15.7812C3.37372 18.4394 5.27929 22 8.47407 22H15.5259C18.7207 22 20.6263 18.4394 18.8541 15.7812L16.1603 11.7404Z" fill="black"/>
</svg>
