<svg xmlns="http://www.w3.org/2000/svg" width="24" height="24" viewBox="0 0 24 24" fill="none"><rect width="24" height="24" fill="none"/>
<path fill-rule="evenodd" clip-rule="evenodd" d="M9.54443 3C5.37776 3 2 6.37775 2 10.5444C2 14.7111 5.37776 18.0888 9.54443 18.0888C11.1885 18.0888 12.7098 17.5629 13.9492 16.6701L19.2791 22L21 20.2791L15.6701 14.9493C16.5629 13.7099 17.0889 12.1885 17.0889 10.5444C17.0889 6.37775 13.7111 3 9.54443 3ZM4.43369 10.5444C4.43369 7.72183 6.72184 5.43368 9.54443 5.43368C12.367 5.43368 14.6552 7.72183 14.6552 10.5444C14.6552 13.367 12.367 15.6551 9.54443 15.6551C6.72184 15.6551 4.43369 13.367 4.43369 10.5444Z" fill="#0B1F35"/>
</svg>
