<svg xmlns="http://www.w3.org/2000/svg" width="24" height="24" viewBox="0 0 24 24" fill="none"><rect width="24" height="24" fill="none"/>
<path fill-rule="evenodd" clip-rule="evenodd" d="M4.41421 2.58583L3.00003 4.00001L5.06497 6.06495L2.24588 9.29267C2.06847 9.49579 1.98761 9.75036 2.00002 10L2.00042 10.0027C2.00371 10.0656 2.0129 10.1281 2.02793 10.1894L3.48498 20.0766C3.64767 21.1806 4.59499 21.9986 5.71093 21.9986H18.2899C19.2401 21.9986 20.0681 21.4055 20.3935 20.5477L21.3848 19.5564L4.41421 2.58583ZM14 16V15L11 12H10V16H8.00002V12H4.31635L5.46361 19.785C5.48168 19.9077 5.58694 19.9986 5.71093 19.9986H18.2899C18.4139 19.9986 18.5191 19.9077 18.5372 19.785L18.569 19.569L15 16H14ZM6.48241 7.48239L9.00002 10H4.28353L6.48241 7.48239Z" fill="black"/>
<path d="M21.0573 16.4005L22 10H21.994C22.008 9.74849 21.9275 9.49152 21.7487 9.28681L15.6782 2.33633C15.3149 1.92037 14.6831 1.87768 14.2672 2.24098C13.8512 2.60429 13.8085 3.23601 14.1718 3.65198L19.7162 10H14.6568L16.6568 12H19.6839L19.2952 14.6384L21.0573 16.4005Z" fill="black"/>
<path d="M9.11967 4.46286L9.82278 3.65784C10.1861 3.24187 10.1434 2.61015 9.72743 2.24684C9.31147 1.88354 8.67974 1.92623 8.31644 2.34219L7.70224 3.04542L9.11967 4.46286Z" fill="black"/>
</svg>
