<svg xmlns="http://www.w3.org/2000/svg" width="18" height="18" viewBox="0 0 18 18" fill="none"><rect width="18" height="18" fill="none"/>
<path d="M7.58452 2.99952C7.41045 3.44306 7.25697 3.94358 7.13067 4.49993L10.8693 4.49993C10.743 3.94358 10.5896 3.44306 10.4155 2.99952C10.0016 1.94493 9.49266 1.2625 9 0.884033C8.50733 1.2625 7.9984 1.94493 7.58452 2.99952Z" fill="#0B1F35"/>
<path d="M2.50337 4.49993C3.45729 2.85088 5.02106 1.59874 6.88629 1.05191C6.6235 1.46803 6.3899 1.93758 6.18821 2.45152C5.94931 3.06024 5.74956 3.74442 5.59663 4.49993L2.50337 4.49993Z" fill="#0B1F35"/>
<path d="M1.84335 5.99993C1.62027 6.71021 1.5 7.46603 1.5 8.24993C1.5 9.03384 1.62027 9.78965 1.84335 10.4999L5.36655 10.4999C5.29033 9.79687 5.25 9.04602 5.25 8.24977C5.25 7.45365 5.29032 6.7029 5.36652 5.99993H1.84335Z" fill="#0B1F35"/>
<path d="M2.50337 11.9999C3.16201 13.1385 4.11139 14.0879 5.25 14.7466V11.9999H2.50337Z" fill="#0B1F35"/>
<path fill-rule="evenodd" clip-rule="evenodd" d="M6.75 12H16.5V17.25H6.75V12ZM13.5 14.625C13.5 15.6605 12.6605 16.5 11.625 16.5C10.5895 16.5 9.75 15.6605 9.75 14.625C9.75 13.5895 10.5895 12.75 11.625 12.75C12.6605 12.75 13.5 13.5895 13.5 14.625Z" fill="#0B1F35"/>
<path d="M16.5 8.24993C16.5 9.03384 16.3797 9.78965 16.1566 10.4999H12.6334C12.7097 9.79687 12.75 9.04602 12.75 8.24977C12.75 7.45365 12.7097 6.7029 12.6335 5.99993L16.1566 5.99993C16.3797 6.71021 16.5 7.46603 16.5 8.24993Z" fill="#0B1F35"/>
<path d="M11.1137 1.05191C12.9789 1.59874 14.5427 2.85088 15.4966 4.49993L12.4034 4.49993C12.2504 3.74442 12.0507 3.06024 11.8118 2.45152C11.6101 1.93758 11.3765 1.46803 11.1137 1.05191Z" fill="#0B1F35"/>
<path d="M6.87609 5.99993C6.79465 6.68841 6.75 7.4388 6.75 8.24977C6.75 9.06087 6.79467 9.81137 6.87613 10.4999H11.1239C11.2053 9.81137 11.25 9.06087 11.25 8.24977C11.25 7.4388 11.2053 6.68841 11.1239 5.99993H6.87609Z" fill="#0B1F35"/>
</svg>
