<svg xmlns="http://www.w3.org/2000/svg" width="24" height="24" viewBox="0 0 24 24" fill="none"><rect width="24" height="24" fill="none"/>
<path fill-rule="evenodd" clip-rule="evenodd" d="M5.25 8.5C5.25 4.77208 8.27208 1.75 12 1.75C15.7279 1.75 18.75 4.77208 18.75 8.5C18.75 10.7777 17.5456 12.83 16.0535 14.4891C14.5695 16.1393 12.8774 17.3142 12.0775 17.8242C12.0281 17.8557 11.9719 17.8557 11.9225 17.8242C11.1226 17.3142 9.43053 16.1393 7.94646 14.4891C6.45436 12.83 5.25 10.7777 5.25 8.5ZM12 5.75C10.4812 5.75 9.25 6.98122 9.25 8.5C9.25 10.0188 10.4812 11.25 12 11.25C13.5188 11.25 14.75 10.0188 14.75 8.5C14.75 6.98122 13.5188 5.75 12 5.75Z" fill="#0B1F35"/>
<path d="M5 19.5C5 18.5462 6.49566 17.7171 8.69506 17.2957C9.68616 18.1388 10.5858 18.7509 11.116 19.089C11.6573 19.4341 12.3427 19.4341 12.884 19.089C13.4142 18.7509 14.3138 18.1388 15.3049 17.2957C17.5043 17.7171 19 18.5462 19 19.5C19 20.8807 15.866 22 12 22C8.13401 22 5 20.8807 5 19.5Z" fill="#0B1F35"/>
</svg>
