<svg xmlns="http://www.w3.org/2000/svg" width="24" height="24" viewBox="0 0 24 24" fill="none"><rect width="24" height="24" fill="none"/>
<path fill-rule="evenodd" clip-rule="evenodd" d="M21.9998 11.9999C21.9998 16.8239 18.5839 20.8501 14.039 21.7917L11.5003 19.253C11.6629 18.6959 11.75 18.1074 11.75 17.5001C11.75 14.0483 8.9518 11.25 5.49997 11.25C4.2053 11.25 3.00256 11.6437 2.00493 12.3178C2.00163 12.2122 1.99997 12.1063 1.99997 11.9999C1.99997 6.47711 6.47708 2 11.9999 2C17.5227 2 21.9998 6.47711 21.9998 11.9999ZM12.3807 4.0089C16.6221 4.20766 19.9998 7.70933 19.9998 11.9999C19.9998 12.3646 19.9754 12.7236 19.9281 13.0754L17.5346 12.1272C17.3015 12.0398 17.0553 11.9971 16.8085 12C16.6853 12.0015 16.562 12.0143 16.4401 12.0387L13.5337 12.6932C12.6326 12.8735 11.7247 12.4165 11.3327 11.5854L10.7725 10.3979C10.3675 9.53931 10.8962 8.51427 11.6557 7.94465L12.1998 7.53655C12.7125 7.15206 12.9971 6.55775 13 5.94536C13.0012 5.69243 12.9543 5.43641 12.8556 5.19082L12.3807 4.0089Z" fill="black"/>
<path fill-rule="evenodd" clip-rule="evenodd" d="M5.49993 21.7501C6.31239 21.7501 7.07161 21.5221 7.71709 21.1267L10.5904 24L12.0046 22.5858L9.13016 19.7113C9.5234 19.0671 9.74999 18.31 9.74999 17.5001C9.74999 15.1528 7.84721 13.25 5.49997 13.25C3.15273 13.25 1.24988 15.1528 1.24988 17.5001C1.24988 19.8473 3.15269 21.7501 5.49993 21.7501ZM5.49993 19.7501C6.7426 19.7501 7.74999 18.7427 7.74999 17.5001C7.74999 16.2574 6.74262 15.25 5.49997 15.25C4.25728 15.25 3.24988 16.2574 3.24988 17.5001C3.24988 18.7427 4.25726 19.7501 5.49993 19.7501Z" fill="black"/>
</svg>
