<svg xmlns="http://www.w3.org/2000/svg" width="24" height="24" viewBox="0 0 24 24" fill="none"><rect width="24" height="24" fill="none"/>
<path d="M7 14H13V12H7V14Z" fill="#0B1F35"/>
<path d="M17 18H7V16H17V18Z" fill="#0B1F35"/>
<path fill-rule="evenodd" clip-rule="evenodd" d="M12.568 1C13.4471 1 14.2088 1.21553 14.813 1.66888C15.4167 2.12182 15.7699 2.74223 15.9589 3.38433C16.1794 4.13357 16.1935 4.9673 16.1037 5.76716C16.9424 5.68238 17.8256 5.71321 18.6176 5.9919C19.2912 6.2289 19.9132 6.65089 20.3554 7.32864C20.7917 7.99745 21 8.83383 21 9.81494V22.9999H14.8203C11.2136 22.9998 7.6068 22.9998 4.00006 23H3V1.00007L12.568 1ZM5 2.99998V20.9999C8.27349 20.9998 11.547 20.9998 14.8205 20.9999H19V9.81494C19 9.1108 18.8511 8.68325 18.6803 8.42148C18.5154 8.16864 18.2803 7.99339 17.9538 7.87852C17.2393 7.6271 16.1935 7.70432 15.0933 7.97172C14.752 8.05469 14.3921 7.95246 14.1454 7.70241C13.8986 7.45237 13.8012 7.09119 13.8887 6.75097C14.1607 5.69296 14.2489 4.65808 14.0403 3.94902C13.9431 3.61889 13.7957 3.40596 13.6127 3.26862C13.4302 3.1317 13.1192 3 12.568 3L5 2.99998Z" fill="#0B1F35"/>
</svg>
