<svg xmlns="http://www.w3.org/2000/svg" width="24" height="24" viewBox="0 0 24 24" fill="none"><rect width="24" height="24" fill="none"/>
<path d="M21.9999 20L11.1968 20C11.7072 19.1173 12 18.0916 12 17C12 13.6863 9.31371 11 6 11C4.46329 11 3.06151 11.5777 2 12.5278V5C2 4.44771 2.44772 4 3 4H14.185C15.9599 4 17.3468 5.53245 17.1701 7.29851L17.0243 8.75677C17.0117 8.88251 17.1175 8.98825 17.2432 8.97568L18.7015 8.82985C20.4675 8.65324 22 10.0401 22 11.815L21.9999 20Z" fill="black"/>
<path d="M2 17C2 18.0144 2.37764 18.9407 3 19.6458V24L6 22L9 24V19.6458C9.62236 18.9407 10 18.0144 10 17C10 14.7909 8.20914 13 6 13C3.79086 13 2 14.7909 2 17Z" fill="black"/>
</svg>
