<svg xmlns="http://www.w3.org/2000/svg" width="24" height="24" viewBox="0 0 24 24" fill="none"><rect width="24" height="24" fill="none"/>
<g clip-path="url(#clip0)">
<path d="M0.353997 6.85446L7.9998 14.5002L15.6456 6.86378C15.9608 6.549 15.738 6.01029 15.2926 6.01001L11.9997 6.00796L11.9998 1.00009L3.99975 1.00009L3.99975 6.00296L0.70786 6.00091C0.262255 6.00063 0.0389045 6.53937 0.353997 6.85446Z" fill="black"/>
<path d="M23.6461 17.1466L15.9999 9.50016L8.35326 17.1466C8.03827 17.4616 8.26135 18.0002 8.70681 18.0002L11.9997 18.0001L11.9996 23.0002L19.9996 23.0002L19.9996 18.0001L23.2926 18.0001C23.738 18.0001 23.9611 17.4616 23.6461 17.1466Z" fill="black"/>
</g>
<defs>
<clipPath id="clip0">
<rect width="24" height="24" fill="white" transform="matrix(-4.37114e-08 1 1 4.37114e-08 0 0)"/>
</clipPath>
</defs>
</svg>
