<svg xmlns="http://www.w3.org/2000/svg" width="24" height="24" viewBox="0 0 24 24" fill="none"><rect width="24" height="24" fill="none"/>
<path d="M4 17.4637C4 17.1667 4.13198 16.8851 4.36019 16.6951L10 12L4.36019 7.30487C4.13198 7.11488 4 6.83329 4 6.53634V4C4 3.44772 4.44772 3 5 3H19.0003C19.5526 3 20.0003 3.44772 20.0003 4V6C20.0003 6.0086 20.0002 6.01717 20 6.02572V9H18V7H9.91432L15.4602 12L9.91432 17H18V15H20V17.9743C20.0002 17.9828 20.0003 17.9914 20.0003 18V20C20.0003 20.5523 19.5526 21 19.0003 21H5C4.44772 21 4 20.5523 4 20V17.4637Z" fill="black"/>
</svg>
