<svg xmlns="http://www.w3.org/2000/svg" width="24" height="24" viewBox="0 0 24 24" fill="none"><rect width="24" height="24" fill="none"/>
<path fill-rule="evenodd" clip-rule="evenodd" d="M4 2H20V20.5C20 21.3284 19.3284 22 18.5 22H5.5C4.67157 22 4 21.3284 4 20.5V2ZM15.6955 6.53069C15.8965 6.04539 15.9999 5.52525 15.9999 4.99997H14.0128C14.0128 5.2643 13.9608 5.52605 13.8596 5.77026C13.7585 6.01448 13.6102 6.23637 13.4233 6.42329C13.2364 6.6102 13.0145 6.75847 12.7703 6.85962C12.526 6.96078 12.2643 7.01284 12 7.01284C11.7356 7.01284 11.4739 6.96078 11.2297 6.85962C10.9855 6.75847 10.7636 6.6102 10.5766 6.42329C10.3897 6.23637 10.2415 6.01448 10.1403 5.77026C10.0392 5.52605 9.98709 5.2643 9.98709 4.99997H8C8 5.52525 8.10346 6.04539 8.30448 6.53069C8.5055 7.01599 8.80013 7.45694 9.17156 7.82837C9.54299 8.1998 9.98395 8.49444 10.4692 8.69546C10.9545 8.89647 11.4747 8.99994 12 8.99994C12.5253 8.99994 13.0454 8.89647 13.5307 8.69546C14.016 8.49444 14.4569 8.1998 14.8284 7.82837C15.1998 7.45694 15.4944 7.01599 15.6955 6.53069Z" fill="black"/>
</svg>
