<svg xmlns="http://www.w3.org/2000/svg" width="24" height="24" viewBox="0 0 24 24" fill="none"><rect width="24" height="24" fill="none"/>
<path d="M5.1985 8.10706L6.99132 6.31424L5.5771 4.90002L1.37 9.10713L5.5771 13.3142L6.99132 11.9L5.19835 10.1071L7.99657 10.1071C9.65342 10.1071 10.9966 11.4502 10.9966 13.1071L10.9966 19.1071L12.9966 19.1071L12.9966 13.1071C12.9966 11.4502 14.3397 10.1071 15.9966 10.1071L18.7948 10.1071L17.0018 11.9L18.416 13.3142L22.6231 9.10713L18.416 4.90002L17.0018 6.31424L18.7946 8.10706L15.9966 8.10706C14.361 8.10706 12.9088 8.8924 11.9966 10.1066C11.0843 8.8924 9.63217 8.10706 7.99657 8.10706L5.1985 8.10706Z" fill="black"/>
</svg>
