<svg xmlns="http://www.w3.org/2000/svg" width="24" height="24" viewBox="0 0 24 24" fill="none"><rect width="24" height="24" fill="none"/>
<path fill-rule="evenodd" clip-rule="evenodd" d="M15.0149 5.68538C14.7849 5.22482 14.4964 4.99991 14 4.99991V2.99991C15.4116 2.99991 16.312 3.80642 16.8041 4.79181C17.2654 5.71535 17.3931 6.83064 17.3931 7.74897C17.3931 8.83952 17.1043 9.86387 16.5302 10.6428C15.944 11.4381 15.0656 11.9999 14 11.9999L14 9.99991C14.3511 9.99991 14.6616 9.80716 14.9203 9.45613C15.1911 9.08873 15.3931 8.5051 15.3931 7.74897C15.3931 6.96423 15.2758 6.2078 15.0149 5.68538Z" fill="#0B1F35"/>
<path fill-rule="evenodd" clip-rule="evenodd" d="M17.4633 15.2914C18.4643 15.7721 19.3615 16.3974 19.8817 16.9671C20.0838 17.1883 20.3408 17.4825 20.5537 17.8218C20.7654 18.1591 20.973 18.6099 21.0067 19.1289V21H14V19L18.9341 19.0159C18.8027 18.7543 18.6007 18.5302 18.4049 18.3158C18.112 17.995 17.454 17.5056 16.5975 17.0943C15.7476 16.6862 14.8158 16.4079 14.0062 16.4079V14.4079C15.2192 14.4079 16.4557 14.8075 17.4633 15.2914Z" fill="#0B1F35"/>
<path d="M10 21L10 23H12L12 1H10L10 3.0534C7.94782 3.41414 7.24294 5.54601 7.24294 7.71315C7.24294 9.81655 8.41994 11.5179 10 11.8826L10 14.4201C6.95147 14.5991 4.90067 16.0384 3.89443 17.21C3.38359 17.8048 3.05006 18.2946 3 19.1147V21H10Z" fill="#0B1F35"/>
</svg>
