<svg xmlns="http://www.w3.org/2000/svg" width="24" height="24" viewBox="0 0 24 24" fill="none"><rect width="24" height="24" fill="none"/>
<path d="M13.1353 17.3281V10.6667H10.8732V17.3281H13.1353Z" fill="black"/>
<path d="M13.4531 7.88021C13.4531 8.68275 12.8025 9.33333 12 9.33333C11.1975 9.33333 10.5469 8.68275 10.5469 7.88021C10.5469 7.07767 11.1975 6.42708 12 6.42708C12.8025 6.42708 13.4531 7.07767 13.4531 7.88021Z" fill="black"/>
<path fill-rule="evenodd" clip-rule="evenodd" d="M22 12C22 17.5228 17.5228 22 12 22C6.47715 22 2 17.5228 2 12C2 6.47715 6.47715 2 12 2C17.5228 2 22 6.47715 22 12ZM20 12C20 16.4183 16.4183 20 12 20C7.58172 20 4 16.4183 4 12C4 7.58172 7.58172 4 12 4C16.4183 4 20 7.58172 20 12Z" fill="black"/>
</svg>
