<svg width="24" height="24" viewBox="0 0 24 24" fill="none" xmlns="http://www.w3.org/2000/svg">
<rect width="24" height="24" fill="none"/>
<path d="M7 3C5.89543 3 5 3.89543 5 5H22V16C23.1046 16 24 15.1046 24 14V5C24 3.89543 23.1046 3 22 3H7Z" fill="#0B1F35"/>
<path d="M9.5 17.5C10.6046 17.5 11.5 16.6046 11.5 15.5C11.5 14.3954 10.6046 13.5 9.5 13.5C8.39543 13.5 7.5 14.3954 7.5 15.5C7.5 16.6046 8.39543 17.5 9.5 17.5Z" fill="#0B1F35"/>
<path fill-rule="evenodd" clip-rule="evenodd" d="M2 9C0.895431 9 0 9.89543 0 11V20C0 21.1046 0.895431 22 2 22H17C18.1046 22 19 21.1046 19 20V11C19 9.89543 18.1046 9 17 9H2ZM17 11H2V20H17V11Z" fill="#0B1F35"/>
</svg>
