<svg xmlns="http://www.w3.org/2000/svg" width="24" height="24" viewBox="0 0 24 24" fill="none"><rect width="24" height="24" fill="none"/>
<path d="M22 20L20.5 21.5L17 18H5C3.89543 18 3 17.1046 3 16V11H10L8 9H3V8C3 6.89543 3.89543 6 5 6L1.99808 2.99808L3.49804 1.49805L8 6H8.01233L11.0123 9H11L13 11H13.0123L19.8317 17.8194C19.8289 17.8207 19.8261 17.822 19.8232 17.8232L22 20Z" fill="#0B1F35"/>
<path d="M13.8408 9L10.8408 6H19C20.1046 6 21 6.89543 21 8V9H13.8408Z" fill="#0B1F35"/>
<path d="M20.9942 16.1534L15.8408 11H21V16C21 16.0516 20.998 16.1028 20.9942 16.1534Z" fill="#0B1F35"/>
</svg>
