<svg xmlns="http://www.w3.org/2000/svg" width="24" height="24" viewBox="0 0 24 24" fill="none"><rect width="24" height="24" fill="none"/>
<path d="M7.0144 20.3744L12 23.1442L16.9856 20.3744L16.0144 18.626L12 20.8562L7.98568 18.626L7.0144 20.3744Z" fill="#0B1F35"/>
<path fill-rule="evenodd" clip-rule="evenodd" d="M0 3C9.65646e-08 1.89543 0.895432 1 2 1H22C23.1046 1 24 1.89543 24 3V14C24 15.1046 23.1046 16 22 16H2C0.89543 16 8.49134e-07 15.1046 9.45698e-07 14L0 3ZM4.5 9C3.67157 9 3 9.67157 3 10.5C3 11.3284 3.67157 12 4.5 12C5.32843 12 6 11.3284 6 10.5C6 9.67157 5.32843 9 4.5 9ZM4.5 4C3.67157 4 3 4.67157 3 5.5C3 6.32843 3.67157 7 4.5 7C5.32843 7 6 6.32843 6 5.5C6 4.67157 5.32843 4 4.5 4ZM8 5.5C8 4.67157 8.67157 4 9.5 4C10.3284 4 11 4.67157 11 5.5C11 6.32843 10.3284 7 9.5 7C8.67157 7 8 6.32843 8 5.5ZM14.5 4C13.6716 4 13 4.67157 13 5.5C13 6.32843 13.6716 7 14.5 7C15.3284 7 16 6.32843 16 5.5C16 4.67157 15.3284 4 14.5 4ZM18 5.5C18 4.67157 18.6716 4 19.5 4C20.3284 4 21 4.67157 21 5.5C21 6.32843 20.3284 7 19.5 7C18.6716 7 18 6.32843 18 5.5ZM14.5 12H9.5C8.67157 12 8 11.3284 8 10.5C8 9.67157 8.67157 9 9.5 9H14.5C15.3284 9 16 9.67157 16 10.5C16 11.3284 15.3284 12 14.5 12ZM18 10.5C18 9.67157 18.6716 9 19.5 9C20.3284 9 21 9.67157 21 10.5C21 11.3284 20.3284 12 19.5 12C18.6716 12 18 11.3284 18 10.5Z" fill="#0B1F35"/>
</svg>
