<svg xmlns="http://www.w3.org/2000/svg" width="24" height="24" viewBox="0 0 24 24" fill="none"><rect width="24" height="24" fill="none"/>
<path fill-rule="evenodd" clip-rule="evenodd" d="M4 2C2.89543 2 2 2.89543 2 4V16C2 17.1046 2.89543 18 4 18H20C21.1046 18 22 17.1046 22 16V4C22 2.89543 21.1046 2 20 2H4ZM19 14C19.5523 14 20 13.5523 20 13V5C20 4.44772 19.5523 4 19 4H5C4.93096 4 4.86356 4.007 4.79847 4.02032C4.44804 4.09203 4.16438 4.34703 4.05203 4.68079C4.01829 4.78103 4 4.88838 4 5V13C4 13.5523 4.44772 14 5 14H19Z" fill="black"/>
<path d="M13.0003 20V19H11.0003V20H7.99788C7.44649 20 6.99924 20.4461 6.99927 20.9974C6.99928 21.2944 6.99954 21.6379 7.00028 22H17.0003C17.001 21.6379 17.0013 21.2943 17.0013 20.9973C17.0013 20.446 16.554 20 16.0027 20H13.0003Z" fill="black"/>
</svg>
