<svg width="24" height="24" viewBox="0 0 24 24" fill="none" xmlns="http://www.w3.org/2000/svg">
<path d="M9.59835 9.12418C9.59835 9.6622 9.1622 10.0984 8.62418 10.0984C8.08615 10.0984 7.65 9.6622 7.65 9.12418C7.65 8.58616 8.08615 8.15 8.62418 8.15C9.1622 8.15 9.59835 8.58616 9.59835 9.12418Z" fill="#0B1F35"/>
<path d="M15.373 15.85C15.9126 15.85 16.35 15.4126 16.35 14.873C16.35 14.3335 15.9126 13.8961 15.373 13.8961C14.8335 13.8961 14.3961 14.3335 14.3961 14.873C14.3961 15.4126 14.8335 15.85 15.373 15.85Z" fill="#0B1F35"/>
<path fill-rule="evenodd" clip-rule="evenodd" d="M12 22C17.5228 22 22 17.5229 22 12C22 6.47715 17.5228 2 12 2C6.47715 2 2 6.47715 2 12C2 17.5229 6.47715 22 12 22ZM10.9984 9.12418C10.9984 10.4354 9.9354 11.4984 8.62418 11.4984C7.31295 11.4984 6.25 10.4354 6.25 9.12418C6.25 7.81296 7.31295 6.75 8.62418 6.75C9.9354 6.75 10.9984 7.81296 10.9984 9.12418ZM15.373 17.25C16.6858 17.25 17.75 16.1858 17.75 14.873C17.75 13.5603 16.6858 12.4961 15.373 12.4961C14.0603 12.4961 12.9961 13.5603 12.9961 14.873C12.9961 16.1858 14.0603 17.25 15.373 17.25ZM15.2268 6.76585L7.60185 16.2971L8.77315 17.2341L16.3982 7.7029L15.2268 6.76585Z" fill="#0B1F35"/>
</svg>
