<svg xmlns="http://www.w3.org/2000/svg" width="24" height="24" viewBox="0 0 24 24" fill="none"><rect width="24" height="24" fill="none"/>
<path d="M6 4C5.44772 4 5 4.44772 5 5V7H3C2.44772 7 2 7.44772 2 8V16C2 16.5523 2.44772 17 3 17H5V19C5 19.5523 5.44772 20 6 20H8C8.55229 20 9 19.5523 9 19V14H13.5V10H9V5C9 4.44772 8.55229 4 8 4H6Z" fill="black"/>
<path d="M22 8C22 7.44772 21.5523 7 21 7H19V5C19 4.44772 18.5523 4 18 4H16C15.4477 4 15 4.44772 15 5V19C15 19.5523 15.4477 20 16 20H18C18.5523 20 19 19.5523 19 19V17H21C21.5523 17 22 16.5523 22 16V8Z" fill="black"/>
</svg>
