<svg xmlns="http://www.w3.org/2000/svg" width="24" height="24" viewBox="0 0 24 24" fill="none"><rect width="24" height="24" fill="none"/>
<path d="M11 6.00005C9.44291 4.26996 5.41641 4.03648 2.99863 4.00497C2.44639 3.99777 2 4.44777 2 5.00005V18.0001C2 18.5523 2.44639 18.9978 2.99863 19.005C5.41641 19.0365 9.44291 19.27 11 21.0001V6.00005Z" fill="black"/>
<path d="M13 6.00005C14.5571 4.26996 18.5836 4.03648 21.0014 4.00497C21.5536 3.99777 22 4.44777 22 5.00005V13.916C21.3875 13.6484 20.7111 13.5 20 13.5C17.2386 13.5 15 15.7386 15 18.5C15 18.9296 15.0542 19.3466 15.1561 19.7445C14.2703 20.035 13.5052 20.4387 13 21.0001V6.00005Z" fill="black"/>
<path d="M16.3599 18.3598L19.5 21.5L23.9978 17.002L22.725 15.7292L19.5 18.9543L17.6327 17.087L16.3599 18.3598Z" fill="black"/>
</svg>
