<svg xmlns="http://www.w3.org/2000/svg" width="24" height="24" viewBox="0 0 24 24" fill="none"><rect width="24" height="24" fill="none"/>
<path d="M17.9789 9.50012C17.8035 7.46322 16.5367 6.19637 14.4998 6.02089C14.2247 5.99718 13.9999 5.77595 14 5.49976C14.0001 5.22367 14.2248 5.00261 14.4998 4.97892C16.5366 4.80354 17.8037 3.53679 17.9791 1.49985C18.0028 1.22471 18.224 0.999981 18.5002 1C18.7763 1.00002 18.9974 1.22474 19.0211 1.49985C19.1965 3.53674 20.4631 4.8035 22.5005 4.97891C22.7756 5.0026 23.0004 5.22382 23.0003 5.5C23.0002 5.77607 22.7755 5.99712 22.5005 6.02079C20.4632 6.19615 19.1963 7.46309 19.0208 9.50012C18.9972 9.77524 18.776 9.99996 18.4999 9.99996C18.2237 9.99996 18.0026 9.77524 17.9789 9.50012Z" fill="black"/>
<path fill-rule="evenodd" clip-rule="evenodd" d="M15.5231 8.47664C15.3206 8.27404 14.9651 8.06839 14.3282 8.01351C13.1322 7.91048 11.9996 6.92391 12 5.4992C12.0001 5.31192 12.0197 5.13222 12.0565 4.96112L12.0084 4.91743C11.4363 4.39731 10.5625 4.39731 9.99038 4.91743L1.91332 12.2602C1.23699 12.8751 1.67196 14.0002 2.586 14.0002H3.99939V20.5002C3.99939 21.3286 4.67096 22.0002 5.49939 22.0002H16.4994C17.3278 22.0002 17.9994 21.3286 17.9994 20.5002V14.0002H19.4128C20.3268 14.0002 20.7618 12.8751 20.0855 12.2602L19.5496 11.7731C19.2375 11.9173 18.8847 12 18.4999 12C17.0754 12 16.0892 10.8675 15.9863 9.67172C15.9314 9.0347 15.7257 8.67925 15.5231 8.47664ZM12.9995 14.0001H8.99951V19.0001H12.9995V14.0001Z" fill="black"/>
</svg>
