<svg xmlns="http://www.w3.org/2000/svg" width="24" height="24" viewBox="0 0 24 24" fill="none"><rect width="24" height="24" fill="none"/>
<path d="M5.99946 5.21643C6.09024 3.78322 7.30281 2.66669 8.76873 2.66669H15.1852C16.6498 2.66669 17.8624 3.78322 17.9545 5.21643L18.6482 8.95053C17.5196 8.95053 15.7632 9.77808 15.3333 11.5047H8.66667C8 9.33335 6.48043 8.95053 5.51082 8.95053L5.99946 5.21643Z" fill="black"/>
<path d="M5.87868 10.9737C4.88423 10.4105 3.61069 10.7447 3.03625 11.7202L1.9998 13.479L5.33314 15.4415C5.31638 17.19 5.33314 18.9137 5.33314 20.6667C5.33314 21.3334 5.33314 21.3334 5.33314 21.3334H7.33314C7.33314 21.3334 7.62943 19.5556 7.77758 18.6667H16.222C16.3702 19.5556 16.5183 20.4445 16.6665 21.3334H18.6665C18.6665 21.3334 18.6665 21.3334 18.6665 20.6667L18.648 15.4415L21.9998 13.6701L20.9634 11.9113C20.3889 10.9358 19.1154 10.6015 18.1209 11.1647L17.5194 11.5047C16.9829 11.8087 16.636 12.781 16.5209 13.3334H7.50854C7.43944 12.7076 7.0777 11.6523 6.48022 11.3136L5.87868 10.9737Z" fill="black"/>
</svg>
