<svg xmlns="http://www.w3.org/2000/svg" width="24" height="24" viewBox="0 0 24 24" fill="none"><rect width="24" height="24" fill="none"/>
<path d="M15.36 18.355L18.5001 21.4951L23 17L21.7251 15.7244L18.5001 18.9495L16.6328 17.0822L15.36 18.355Z" fill="black"/>
<path d="M10.36 5.99517C8.8029 4.26507 4.7764 4.03159 2.35861 4.00009C1.80637 3.99289 1.35999 4.44288 1.35999 4.99517V17.9952C1.35999 18.5475 1.80637 18.9929 2.35861 19.0001C4.7764 19.0316 8.8029 19.2651 10.36 20.9952V13.4952V5.99517Z" fill="black"/>
<path d="M12.36 5.99517C13.9171 4.26507 17.9436 4.03159 20.3614 4.00009C20.9136 3.99289 21.36 4.44288 21.36 4.99517V13.9112C20.7475 13.6436 20.0711 13.4951 19.36 13.4951C16.5986 13.4951 14.36 15.7337 14.36 18.4951C14.36 18.9248 14.4142 19.3417 14.5161 19.7396C13.6303 20.0301 12.8652 20.4338 12.36 20.9952V5.99517Z" fill="black"/>
</svg>
