<svg xmlns="http://www.w3.org/2000/svg" width="24" height="24" viewBox="0 0 24 24" fill="none"><rect width="24" height="24" fill="none"/>
<path fill-rule="evenodd" clip-rule="evenodd" d="M20.4841 6.50001H20.5002L22.4716 17.6519C22.6882 18.8767 21.746 20 20.5022 20H19.9721C19.3584 20 18.7786 19.7182 18.3994 19.2356L15.0716 15H8.89674L5.48773 19.2512C5.10814 19.7246 4.53419 20 3.92743 20H3.40489C2.15443 20 1.21063 18.8654 1.43833 17.6358L3.50053 6.5H3.51595C3.57682 6.16687 3.80823 5.88993 4.1449 5.79923C5.22866 5.50728 7.72659 5 12 5C16.2734 5 18.7713 5.50728 19.8551 5.79923C20.1918 5.88993 20.4232 6.16688 20.4841 6.50001ZM8 8H6V9L5 9V11H6V12H8V11H9V9H8V8ZM17 12C18.1046 12 19 11.1046 19 10C19 8.89543 18.1046 8 17 8C15.8954 8 15 8.89543 15 10C15 11.1046 15.8954 12 17 12Z" fill="black"/>
</svg>
