<svg xmlns="http://www.w3.org/2000/svg" width="24" height="24" viewBox="0 0 24 24" fill="none"><rect width="24" height="24" fill="none"/>
<path d="M22.4997 7.25V9.24841H20.4997V17.2487C20.4997 17.2487 22.5002 17.2487 22.5002 19.25V20.75H1.49927V19.25C1.49935 17.2536 3.49927 17.2536 3.49927 17.2536L3.4998 9.25H1.49986V7.25L11.9997 2.25L22.4997 7.25Z" fill="#8A8A8E"/>
<path fill-rule="evenodd" clip-rule="evenodd" d="M10.8827 11.1636H12.9912L11.9861 8.00101H11.9468L10.8827 11.1636ZM13.3454 7.41719L15.5823 14.0898H13.9271L13.4247 12.5035H10.4295L9.8876 14.0898H8.33093L10.6783 7.41719C10.906 6.77002 11.1713 6.26257 12.0256 6.26257C12.8798 6.26257 13.1291 6.77211 13.3454 7.41719Z" fill="#BFBFBF"/>
<path d="M8.17505 16.226V17.801H15.7389V16.226H8.17505Z" fill="#F79891"/>
</svg>
