<svg xmlns="http://www.w3.org/2000/svg" width="24" height="24" viewBox="0 0 24 24" fill="none"><rect width="24" height="24" fill="none"/>
<path fill-rule="evenodd" clip-rule="evenodd" d="M4.4142 2.5858L3 4L3.53349 4.53349C3.51141 4.68499 3.5 4.84074 3.5 5V22C3.5 22.5 3.9 23 4.5 23C5.2 23 5.5 22.8 5.6 22.7L5.72491 22.5999C6.65972 21.8505 7.34637 21.3 8.4 21.3C9.58904 21.3 10.189 21.7909 11.27 22.6755L11.3 22.7C11.8 23.1 12.4 23.1 12.9 22.7L13.0249 22.5999C13.9597 21.8505 14.6464 21.3 15.7 21.3C16.8 21.3 17.5 21.8 18.5 22.7C18.6 22.8 18.8 23 19.4 23H19.5C20 23 20.5 22.5 20.5 22V20.4411L21.3847 19.5563L4.4142 2.5858ZM5.5 20.2V6.5L7 8V10H9L11 12H7V14H13L18.5 19.5V20.2C17.7 19.7 16.8 19.3 15.6 19.3C14 19.3 13 20 12 20.8C11.1 20.1 10 19.3 8.4 19.3H8.3C7.1 19.3 6.3 19.7 5.5 20.2Z" fill="black"/>
<path d="M6.65682 2L8.65682 4H17.5C18.1 4 18.5 4.4 18.5 5V13.8432L20.5 15.8432V5C20.5 3.3 19.2 2 17.5 2H6.65682Z" fill="black"/>
</svg>
