<svg xmlns="http://www.w3.org/2000/svg" width="24" height="24" viewBox="0 0 24 24" fill="none"><rect width="24" height="24" fill="none"/>
<path fill-rule="evenodd" clip-rule="evenodd" d="M20.4841 6.50001H20.5003L22.4717 17.6519C22.6882 18.8767 21.746 20 20.5022 20H19.9721C19.3584 20 18.7786 19.7182 18.3995 19.2356L15.0716 15H8.89677L5.48776 19.2512C5.10817 19.7246 4.53422 20 3.92746 20H3.40492C2.15446 20 1.21066 18.8654 1.43836 17.6358L3.50056 6.5H3.51598C3.57685 6.16687 3.80826 5.88993 4.14493 5.79923C5.22869 5.50728 7.72662 5 12 5C16.2734 5 18.7714 5.50728 19.8551 5.79923C20.1918 5.88993 20.4232 6.16688 20.4841 6.50001ZM8.00003 8H6.00003V9L5.00003 9V11H6.00003V12H8.00003V11H9.00003V9H8.00003V8ZM17 12C18.1046 12 19 11.1046 19 10C19 8.89543 18.1046 8 17 8C15.8955 8 15 8.89543 15 10C15 11.1046 15.8955 12 17 12Z" fill="#0B1F35"/>
</svg>
