<svg xmlns="http://www.w3.org/2000/svg" width="24" height="24" viewBox="0 0 24 24" fill="none"><rect width="24" height="24" fill="none"/>
<path fill-rule="evenodd" clip-rule="evenodd" d="M8 6.00024C8 4.89567 8.89543 4.00024 10 4.00024H14C15.1046 4.00024 16 4.89567 16 6.00024V6.99976H20C21.1046 6.99976 22 7.89519 22 8.99976V10.9998H2V8.99976C2 7.89519 2.89543 6.99976 4 6.99976H8V6.00024ZM14 6.00024V6.99976H10V6.00024H14Z" fill="#0B1F35"/>
<path fill-rule="evenodd" clip-rule="evenodd" d="M22 12.9998H2V18.9998C2 20.1043 2.89543 20.9998 4 20.9998H20C21.1046 20.9998 22 20.1043 22 18.9998V12.9998ZM14 13.0002C14 14.1048 13.1046 15.0002 12 15.0002C10.8954 15.0002 10 14.1048 10 13.0002H14Z" fill="#0B1F35"/>
</svg>
