<svg xmlns="http://www.w3.org/2000/svg" width="24" height="24" viewBox="0 0 24 24" fill="none"><rect width="24" height="24" fill="none"/>
<path fill-rule="evenodd" clip-rule="evenodd" d="M20.997 14L20.9955 14.0021L21 14C21 18.9706 16.9706 23 12 23C7.02944 23 3 18.9706 3 14C3 11.8997 3.71947 9.96736 4.9254 8.43611L4.91406 8.41039L7.10984 5.95183C8.32664 4.58941 8.9992 2.82668 8.9992 1C9.00129 1.00156 9.00337 1.00313 9.00546 1.00471C12.4942 2.61269 14.9976 5.9935 15.3607 9.99239C15.4066 9.99744 15.4528 10 15.499 10C16.9662 10 17.999 8.28509 17.999 7.00001C19.6355 8.51189 20.997 11.4952 20.997 14Z" fill="black"/>
</svg>
