<svg xmlns="http://www.w3.org/2000/svg" width="24" height="24" viewBox="0 0 24 24" fill="none"><rect width="24" height="24" fill="none"/>
<path d="M4 5C2.89543 5 2 5.89543 2 7V8H20V7C20 5.89543 19.1046 5 18 5H4Z" fill="black"/>
<path d="M13 13C13 11.8744 13.3719 10.8357 13.9996 10H2V15C2 16.1046 2.89543 17 4 17H13V13Z" fill="black"/>
<path d="M15.3638 12.3636L18.0002 15L21.6366 11.3636L20.3638 10.0908L18.0002 12.4544L16.6366 11.0908L15.3638 12.3636Z" fill="black"/>
<path d="M15.3638 17.3636L18.0002 20L21.6366 16.3636L20.3638 15.0908L18.0002 17.4544L16.6366 16.0908L15.3638 17.3636Z" fill="black"/>
</svg>
