<svg xmlns="http://www.w3.org/2000/svg" width="24" height="24" viewBox="0 0 24 24" fill="none"><rect width="24" height="24" fill="none"/>
<path fill-rule="evenodd" clip-rule="evenodd" d="M11.033 2.9834C9.37614 2.9834 8.03299 4.32654 8.03299 5.9834V6.98097H10.033V5.9834C10.033 5.43111 10.4807 4.9834 11.033 4.9834H11.1684C11.7207 4.9834 12.1684 5.43111 12.1684 5.9834V7.94842C12.1684 8.28278 12.0013 8.59501 11.7231 8.78047L1.8639 15.372C1.31471 15.7381 0.984833 16.3545 0.984833 17.0145C0.984833 18.6428 2.30479 19.9627 3.93303 19.9627H20.0648C21.6943 19.9627 23.0152 18.6418 23.0152 17.0124C23.0152 16.355 22.6882 15.7408 22.1429 15.3738L13.6391 9.65017C13.979 9.15663 14.1684 8.56507 14.1684 7.94842V5.9834C14.1684 4.32654 12.8253 2.9834 11.1684 2.9834H11.033ZM12.0312 10.9788L2.98493 17.0283C2.99231 17.5457 3.41396 17.9627 3.93303 17.9627H20.0648C20.5853 17.9627 21.0081 17.5443 21.0151 17.0255L12.0312 10.9788Z" fill="black"/>
</svg>
