<svg xmlns="http://www.w3.org/2000/svg" width="24" height="24" viewBox="0 0 24 24" fill="none"><rect width="24" height="24" fill="none"/>
<path d="M5 3.99994C3.89543 3.99994 3 4.89537 3 5.99994H18C19.6569 5.99994 21 7.34308 21 8.99994V16.9999C22.1046 16.9999 23 16.1045 23 14.9999V5.99994C23 4.89537 22.1046 3.99994 21 3.99994L5 3.99994Z" fill="#0B1F35"/>
<path fill-rule="evenodd" clip-rule="evenodd" d="M1 9.99994C1 8.89537 1.89543 7.99994 3 7.99994L17 7.99994C18.1046 7.99994 19 8.89537 19 9.99994V17.9999C19 19.1045 18.1046 19.9999 17 19.9999H3C1.89543 19.9999 1 19.1045 1 17.9999L1 9.99994ZM12 13.9999C12 15.1045 11.1046 15.9999 10 15.9999C8.89543 15.9999 8 15.1045 8 13.9999C8 12.8954 8.89543 11.9999 10 11.9999C11.1046 11.9999 12 12.8954 12 13.9999ZM6 17.9999L3 17.9999V14.9999L6 17.9999ZM17 9.99992H14L17 12.9999V9.99992Z" fill="#0B1F35"/>
</svg>
