<svg xmlns="http://www.w3.org/2000/svg" width="24" height="24" viewBox="0 0 24 24" fill="none"><rect width="24" height="24" fill="none"/>
<path fill-rule="evenodd" clip-rule="evenodd" d="M2 8C2 6.80338 2.99492 6 4.22222 6L19.7778 6C21.0051 6 22 6.80338 22 8V17C22 18.1966 21.0051 19 19.7778 19H4.22222C2.99492 19 2 18.1966 2 17L2 8ZM14.2222 12.5C14.2222 13.6966 13.2273 14.6667 12 14.6667C10.7727 14.6667 9.77778 13.6966 9.77778 12.5C9.77778 11.3034 10.7727 10.3333 12 10.3333C13.2273 10.3333 14.2222 11.3034 14.2222 12.5ZM7.33333 17H4V13.5L7.33333 17ZM20 8H16.6667L20 11.5V8Z" fill="black"/>
</svg>
