<svg xmlns="http://www.w3.org/2000/svg" width="24" height="24" viewBox="0 0 24 24" fill="none"><rect width="24" height="24" fill="none"/>
<path d="M12 0.5C11.4477 0.5 11 0.947715 11 1.5V2.04963C10.0232 2.14682 9.06415 2.38607 8.15389 2.76123C6.93452 3.26373 5.82657 4.00037 4.89332 4.92896C3.96005 5.85754 3.21974 6.9599 2.71467 8.17316C2.33827 9.07733 2.09799 10.0298 2 11V12H11L11 20.466C11 21.0371 10.5371 21.5 9.966 21.5C9.52095 21.5 9.12582 21.2152 8.98508 20.793L8.94867 20.6838C8.77403 20.1598 8.20771 19.8767 7.68376 20.0513C7.15982 20.226 6.87666 20.7923 7.05131 21.3162L7.08771 21.4254C7.50068 22.6643 8.66008 23.5 9.966 23.5C11.6416 23.5 13 22.1416 13 20.466L13 12H22V11C21.902 10.0298 21.6617 9.07733 21.2853 8.17316C20.7803 6.9599 20.0399 5.85754 19.1067 4.92896C18.1734 4.00037 17.0655 3.26373 15.8461 2.76123C14.9358 2.38607 13.9768 2.14682 13 2.04963V1.5C13 0.947715 12.5523 0.5 12 0.5Z" fill="#0B1F35"/>
</svg>
