<svg xmlns="http://www.w3.org/2000/svg" width="24" height="24" viewBox="0 0 24 24" fill="none"><rect width="24" height="24" fill="none"/>
<path fill-rule="evenodd" clip-rule="evenodd" d="M11 7.5V12C11 12.9443 11.4446 13.8334 12.2 14.4L14.8 16.1L16 14.5L13.4 12.8C13.1482 12.6111 13 12.3148 13 12V7.5H11Z" fill="#0B1F35"/>
<path d="M12 19.5C16.1421 19.5 19.5 16.1421 19.5 12C19.5 7.85786 16.1421 4.5 12 4.5C7.85786 4.5 4.5 7.85786 4.5 12H2.5C2.5 6.75329 6.75329 2.5 12 2.5C17.2467 2.5 21.5 6.75329 21.5 12C21.5 17.2467 17.2467 21.5 12 21.5C8.78487 21.5 5.94278 19.9028 4.22386 17.4587C4.21962 17.586 4.20896 17.7271 4.18895 17.8832L4 20H2V14L8 14V16L5.77999 16.192C7.12768 18.1878 9.41059 19.5 12 19.5Z" fill="#0B1F35"/>
</svg>
