<svg xmlns="http://www.w3.org/2000/svg" width="24" height="24" viewBox="0 0 24 24" fill="none"><rect width="24" height="24" fill="none"/>
<path d="M2.5 9.01429L14.9857 21.5L15.9633 20.7939L16.162 19.67C16.4257 18.1782 17.1416 16.8036 18.2126 15.7323L19.5767 14.3678C20.817 13.1275 21.4999 11.4725 21.4999 9.70661C21.4999 5.98022 18.0041 2.5 14.2933 2.5C12.5275 2.5 10.8724 3.18295 9.63215 4.42317L8.26747 5.78746C7.19623 6.85838 5.82174 7.5742 4.33014 7.83797L3.20693 8.03659L2.5 9.01429Z" fill="black"/>
<path d="M5.31105 18.5959C6.34119 19.626 8.01034 19.626 9.04048 18.5959L5.31105 14.8664C4.2809 15.8966 4.2809 17.5657 5.31105 18.5959Z" fill="black"/>
</svg>
