<svg xmlns="http://www.w3.org/2000/svg" width="24" height="24" viewBox="0 0 24 24" fill="none"><rect width="24" height="24" fill="none"/>
<path d="M16.2379 17.9418C15.0023 18.6025 14 19.7714 14 21.1725V24.0001H10V21.1725C10 19.7714 8.99765 18.6025 7.76212 17.9418C6.82803 17.4423 5.99235 16.7828 5.29168 16H18.7083C18.0077 16.7828 17.172 17.4423 16.2379 17.9418Z" fill="black"/>
<path d="M20.0645 14C20.6633 12.795 21 11.4368 21 10C21 5.02944 16.9706 1 12 1C7.02944 1 3 5.02944 3 10C3 11.4368 3.33671 12.795 3.93552 14H20.0645Z" fill="black"/>
</svg>
