<svg xmlns="http://www.w3.org/2000/svg" width="18" height="18" viewBox="0 0 18 18" fill="none"><rect width="18" height="18" fill="none"/>
<path d="M9.85145 12.9961V8H8.15487V12.9961H9.85145Z" fill="black"/>
<path d="M10.0898 5.91016C10.0898 6.51206 9.6019 7 9 7C8.3981 7 7.91016 6.51206 7.91016 5.91016C7.91016 5.30825 8.3981 4.82031 9 4.82031C9.6019 4.82031 10.0898 5.30825 10.0898 5.91016Z" fill="black"/>
<path fill-rule="evenodd" clip-rule="evenodd" d="M16.5 9C16.5 13.1421 13.1421 16.5 9 16.5C4.85786 16.5 1.5 13.1421 1.5 9C1.5 4.85786 4.85786 1.5 9 1.5C13.1421 1.5 16.5 4.85786 16.5 9ZM15 9C15 12.3137 12.3137 15 9 15C5.68629 15 3 12.3137 3 9C3 5.68629 5.68629 3 9 3C12.3137 3 15 5.68629 15 9Z" fill="black"/>
</svg>
