<svg xmlns="http://www.w3.org/2000/svg" width="24" height="24" viewBox="0 0 24 24" fill="none"><rect width="24" height="24" fill="none"/>
<path fill-rule="evenodd" clip-rule="evenodd" d="M16 5V6H20L21 22H3L4 6H8V5C8 2.79086 9.79086 1 12 1C14.2091 1 16 2.79086 16 5ZM12 3C13.1046 3 14 3.89543 14 5V6H10V5C10 3.89543 10.8954 3 12 3ZM10 9C10 9.55229 9.55229 10 9 10C8.44771 10 8 9.55229 8 9C8 8.44771 8.44771 8 9 8C9.55229 8 10 8.44771 10 9ZM16 9C16 9.55229 15.5523 10 15 10C14.4477 10 14 9.55229 14 9C14 8.44771 14.4477 8 15 8C15.5523 8 16 8.44771 16 9Z" fill="#0B1F35"/>
</svg>
