<svg xmlns="http://www.w3.org/2000/svg" width="12" height="12" viewBox="0 0 12 12" fill="none"><rect width="12" height="12" fill="none"/>
<path fill-rule="evenodd" clip-rule="evenodd" d="M8.81812 5.90432C9.51574 5.06718 9.86455 4.64861 9.86988 4.29511C9.87451 3.98779 9.73757 3.69542 9.49852 3.50224C9.22354 3.28003 8.67868 3.28003 7.58897 3.28003L4.4211 3.28003C3.33139 3.28003 2.78653 3.28003 2.51155 3.50224C2.2725 3.69542 2.13556 3.98779 2.14019 4.29511C2.14552 4.64861 2.49433 5.06718 3.19195 5.90432L4.77588 7.80505C5.19799 8.31158 5.40905 8.56485 5.66174 8.65721C5.88343 8.73824 6.12664 8.73824 6.34833 8.65721C6.60102 8.56485 6.81208 8.31158 7.23419 7.80504L8.81812 5.90432Z" fill="#0B1F35"/>
</svg>
