<svg xmlns="http://www.w3.org/2000/svg" width="24" height="24" viewBox="0 0 24 24" fill="none"><rect width="24" height="24" fill="none"/>
<path fill-rule="evenodd" clip-rule="evenodd" d="M12 4C12 3.44772 12.4477 3 13 3H14V1H13C11.3431 1 10 2.34315 10 4V12H16V13.3473C16.191 13.4914 16.3738 13.6452 16.5478 13.8077C16.6957 13.9458 16.8512 14 17 14C17.1488 14 17.3043 13.9458 17.4522 13.8077C17.6262 13.6452 17.809 13.4914 18 13.3473V4C18 3.44772 18.4477 3 19 3H20V1H19C17.3431 1 16 2.34315 16 4V6H12V4ZM12 8V10H16V8H12Z" fill="black"/>
<path d="M2 14C3.22869 14 4.34373 14.4856 5.1826 15.2692C5.67627 15.7303 6.31162 15.9999 7 15.9999C7.68838 15.9999 8.32373 15.7303 8.8174 15.2692C9.65633 14.4856 10.7714 14.0001 12 14.0001C13.2287 14.0001 14.3437 14.4857 15.1826 15.2693C15.6763 15.7304 16.3116 16 17 16C17.6884 16 18.3237 15.7304 18.8174 15.2693C19.6563 14.4857 20.7714 14.0002 22 14.0002V21H2V14Z" fill="black"/>
</svg>
