<svg xmlns="http://www.w3.org/2000/svg" width="24" height="24" viewBox="0 0 24 24" fill="none"><rect width="24" height="24" fill="none"/>
<path fill-rule="evenodd" clip-rule="evenodd" d="M8.63423 6H20V5C20 3.89543 19.1046 3 18 3H4C2.89543 3 2 3.89543 2 5V6H8.59486C8.15461 6.54475 7.84329 7.27085 7.78081 8H2V13C2 14.1046 2.89543 15 4 15H11.5416L12.6814 16.8038L12.3127 17.4167C11.675 16.5571 10.6526 16 9.5 16C7.567 16 6 17.567 6 19.5C6 21.433 7.567 23 9.5 23C10.8992 23 12.1066 22.179 12.6667 20.9925L12.6695 20.9946L13.9859 18.8635L15.3355 20.9942C15.8967 22.1781 17.1027 22.997 18.5 22.997C20.433 22.997 22 21.4299 22 19.497C22 17.564 20.433 15.997 18.5 15.997C17.3698 15.997 16.3647 16.5326 15.7248 17.3639L13.0183 13.0344L8.63423 6ZM9.5 21C8.67157 21 8 20.3284 8 19.5C8 18.6716 8.67157 18 9.5 18C10.3284 18 11 18.6716 11 19.5C11 20.3284 10.3284 21 9.5 21ZM20 19.497C20 20.3254 19.3284 20.997 18.5 20.997C17.6716 20.997 17 20.3254 17 19.497C17 18.6685 17.6716 17.997 18.5 17.997C19.3284 17.997 20 18.6685 20 19.497Z" fill="black"/>
<path d="M18 15H16.6161L12.242 8H20V13C20 14.1046 19.1046 15 18 15Z" fill="black"/>
</svg>
