<svg xmlns="http://www.w3.org/2000/svg" width="24" height="24" viewBox="0 0 24 24" fill="none"><rect width="24" height="24" fill="none"/>
<path fill-rule="evenodd" clip-rule="evenodd" d="M12.7074 2.29298C12.3167 1.90234 11.6833 1.90234 11.2926 2.29298L8.20951 5.37585C7.81883 5.7665 7.81883 6.39986 8.20951 6.79051L11.2933 9.87405C11.684 10.2647 12.3174 10.2647 12.7081 9.87405L15.7913 6.79118C16.1819 6.40053 16.1819 5.76717 15.7913 5.37652L12.7074 2.29298ZM17.2072 8.20839C17.5979 7.81775 18.2313 7.81774 18.622 8.20839L21.7071 11.2932C22.0978 11.6838 22.0978 12.3172 21.7071 12.7078L18.6227 15.7919C18.2321 16.1825 17.5986 16.1825 17.2079 15.7919L14.1229 12.7071C13.7322 12.3165 13.7322 11.6831 14.1229 11.2925L17.2072 8.20839ZM12.7094 14.1242C12.3187 13.7336 11.6853 13.7336 11.2946 14.1242L8.20928 17.2092C7.81859 17.5999 7.81859 18.2332 8.20928 18.6239L11.2926 21.7069C11.6833 22.0977 12.3167 22.0977 12.7074 21.7069L15.7927 18.6219C16.1834 18.2313 16.1834 17.5979 15.7927 17.2073L12.7094 14.1242ZM5.37714 8.20888C5.76782 7.81823 6.40125 7.81823 6.79193 8.20888L9.87755 11.2942C10.2682 11.6849 10.2682 12.3182 9.87755 12.7089L6.79342 15.7927C6.40274 16.1834 5.76932 16.1834 5.37864 15.7927L2.29301 12.7074C1.90233 12.3167 1.90233 11.6834 2.29301 11.2927L5.37714 8.20888Z" fill="black"/>
</svg>
