<svg xmlns="http://www.w3.org/2000/svg" width="24" height="24" viewBox="0 0 24 24" fill="none"><rect width="24" height="24" fill="none"/>
<path d="M20.6989 12.5638L19.5243 13.7385L18.9 10.3051L19.3772 9.82792L20.6989 11.1496C21.0894 11.5402 21.0894 12.1733 20.6989 12.5638Z" fill="black"/>
<path d="M12.8502 3.30119L14.1723 4.6233L13.6953 5.10034L10.2612 4.47597L11.436 3.30119C11.8265 2.91067 12.4597 2.91067 12.8502 3.30119Z" fill="black"/>
<path d="M14.3685 7.25549L16.4456 5.17845C17.4176 4.20642 18.6432 3.52712 19.9826 3.21803C20.4628 3.10721 20.8931 3.53752 20.7823 4.01766C20.4732 5.35711 19.7939 6.58272 18.8219 7.55476L16.7448 9.6318L18.4373 18.9405C18.6488 20.1036 17.5793 20.4513 16.701 20.7369C16.6351 20.7583 16.5703 20.7794 16.5072 20.8004L12.4675 13.9091L9.85354 16.5231L9.99615 18.6626C10.0531 19.5164 9.56499 20.313 8.77858 20.6501L8.42774 20.8004L6.50064 17.4998L3.19986 15.5726L3.35025 15.2217C3.68726 14.4353 4.48394 13.9472 5.33766 14.0041L7.47723 14.1468L10.0912 11.5328L3.19986 7.49312C3.2209 7.43001 3.24197 7.36521 3.26339 7.29932C3.54897 6.42096 3.89669 5.35148 5.0598 5.56301L14.3685 7.25549Z" fill="black"/>
</svg>
