<svg xmlns="http://www.w3.org/2000/svg" width="24" height="24" viewBox="0 0 24 24" fill="none"><rect width="24" height="24" fill="none"/>
<path d="M19 9C19 10.5235 18.5133 11.9332 17.687 13.0824C17.32 13.6789 16.9579 14.1964 16.6241 14.6734C16.0431 15.5037 15.5479 16.2115 15.262 17H8.73647C8.45018 16.2145 7.95531 15.5092 7.37561 14.6831C7.02211 14.1793 6.63708 13.6305 6.24855 12.9912C5.46142 11.859 5 10.4834 5 9C5 5.13401 8.13401 2 12 2C15.866 2 19 5.13401 19 9Z" fill="black"/>
<path d="M9 19V21L11 23H13L15 21V19H9Z" fill="black"/>
</svg>
