<svg xmlns="http://www.w3.org/2000/svg" width="24" height="24" viewBox="0 0 24 24" fill="none"><rect width="24" height="24" fill="none"/>
<path fill-rule="evenodd" clip-rule="evenodd" d="M22.4997 9.24841V7.25L11.9997 2.25L1.49986 7.25V9.25H3.4998L3.49927 17.2536C3.49927 17.2536 1.49935 17.2536 1.49927 19.25V20.75H22.5002V19.25C22.5002 17.2487 20.4997 17.2487 20.4997 17.2487V9.24841H22.4997ZM12.0002 8.68016L11.0002 11.6802H12.9902L12.0402 8.68016H12.0002ZM12.0802 7.04516C12.8902 7.04516 13.1252 7.52516 13.3302 8.13516L15.4702 14.4502H13.9052L13.4052 12.9502H10.5702L10.0702 14.4502H8.57019L10.7902 8.13516C11.0002 7.52516 11.2702 7.04516 12.0802 7.04516ZM16.0002 17.5002H8.00018V16.0002H16.0002V17.5002Z" fill="black"/>
</svg>
