<svg xmlns="http://www.w3.org/2000/svg" width="24" height="24" viewBox="0 0 24 24" fill="none"><rect width="24" height="24" fill="none"/>
<path d="M2 18L4.66128 5.58093C4.85888 4.6588 5.67381 4 6.61688 4L17.3832 4C18.3263 4 19.1412 4.6588 19.3388 5.58094L20.8215 12.5003L19.1769 12.5001C18.0177 12.5001 16.9121 12.8896 16.0758 13.7247L15.5919 12.3401C15.3114 11.5375 14.5541 11 13.7039 11L11.2905 11C10.4398 11 9.68223 11.5381 9.40206 12.3413L7.42824 18L2 18Z" fill="black"/>
<path fill-rule="evenodd" clip-rule="evenodd" d="M11.2905 13L13.7039 13L16.5 21L14.3814 21L13.8571 19.5L11.1414 19.5L10.6182 21L8.5 21L11.2905 13ZM11.6646 18L13.3328 18L12.4979 15.6111L11.6646 18Z" fill="black"/>
<path fill-rule="evenodd" clip-rule="evenodd" d="M23 20.9529C23 22.4174 21.7688 23.5 19.8125 23.5C18.0993 23.5 16.9443 22.6053 16.8669 21.5L18.768 21.5C18.8399 21.8316 19.2543 22.0416 19.8678 22.0416C20.6193 22.0416 21 21.6879 21 21.08L21 19.8916L20.9454 19.8916C20.6304 20.5272 20.0059 20.8588 19.1327 20.8588C17.624 20.8588 16.6846 19.3909 16.6846 17.5396C16.6846 15.6054 17.6241 14.5001 19.177 14.5001C19.9949 14.5001 20.6905 14.8151 21 15.4893L21 14.5001L23 14.5001L23 20.9529ZM18.6292 17.5341C18.6292 18.5178 19.0602 19.4219 19.8063 19.4219C20.5579 19.4219 21 18.5233 21 17.5396C21 16.5504 20.5524 16.0364 19.8063 16.0364C19.0658 16.0364 18.6292 16.5504 18.6292 17.5341Z" fill="black"/>
</svg>
