<svg xmlns="http://www.w3.org/2000/svg" width="24" height="24" viewBox="0 0 24 24" fill="none"><rect width="24" height="24" fill="none"/>
<path d="M15.5318 3.47121L17.4456 2.51448C17.4499 2.52155 17.4542 2.52868 17.4583 2.53588C19.1234 5.41334 20 8.6774 20 12C20 15.3226 19.1234 18.5867 17.4583 21.4641C17.4552 21.4696 17.452 21.475 17.4487 21.4804L15.5341 20.5232C15.5523 20.4789 15.5737 20.4353 15.5984 20.3927C17.0749 17.841 17.8523 14.9465 17.8523 12C17.8523 9.05354 17.0749 6.159 15.5984 3.60729C15.5727 3.56289 15.5505 3.51742 15.5318 3.47121Z" fill="#0B1F35"/>
<path d="M11.5958 5.43891L13.5101 4.48192C13.5138 4.48794 13.5173 4.49401 13.5209 4.50013C14.8404 6.78038 15.535 9.36699 15.535 12C15.535 14.633 14.8404 17.2196 13.5209 19.4999C13.5184 19.5042 13.5158 19.5086 13.5132 19.5129L11.5981 18.5555C11.616 18.5124 11.6369 18.47 11.6609 18.4285C12.7919 16.474 13.3873 14.2569 13.3873 12C13.3873 9.74314 12.7919 7.52604 11.6609 5.57154C11.6359 5.52825 11.6142 5.48394 11.5958 5.43891Z" fill="#0B1F35"/>
<path d="M7.86482 7.30411L9.78541 6.34397C10.7509 8.04476 11.2586 9.96985 11.2586 11.9286C11.2586 13.9011 10.7437 15.8396 9.76486 17.5492C9.75138 17.5728 9.73715 17.5956 9.7222 17.6177L7.818 16.6658C7.83939 16.6046 7.86666 16.5446 7.90001 16.4863C8.69303 15.1013 9.11095 13.5294 9.11095 11.9286C9.11095 10.3278 8.69303 8.75584 7.90001 7.37083C7.88742 7.34884 7.87569 7.32658 7.86482 7.30411Z" fill="#0B1F35"/>
<path d="M4.08151 9.19546L5.99775 8.2375C6.73229 9.36407 7.12481 10.6665 7.12481 12C7.12481 13.3315 6.73347 14.632 6.00105 15.7574L4.08384 14.799C4.10928 14.7388 4.14063 14.6801 4.17803 14.6236C4.70256 13.8315 4.97712 12.9227 4.97712 12C4.97712 11.0773 4.70256 10.1684 4.17803 9.37641C4.13948 9.31819 4.10736 9.2576 4.08151 9.19546Z" fill="#0B1F35"/>
</svg>
