<svg xmlns="http://www.w3.org/2000/svg" width="24" height="24" viewBox="0 0 24 24" fill="none"><rect width="24" height="24" fill="none"/>
<path fill-rule="evenodd" clip-rule="evenodd" d="M7.77208 4.68377C7.90819 4.27543 8.29033 4 8.72076 4H15.2792C15.7097 4 16.0918 4.27543 16.2279 4.68377L17 7H20C20.5523 7 21 7.44772 21 8V18C21 18.5523 20.5523 19 20 19H4C3.44772 19 3 18.5523 3 18V8C3 7.44772 3.44772 7 4 7H7L7.77208 4.68377ZM12 16C13.6569 16 15 14.6569 15 13C15 11.3431 13.6569 10 12 10C10.3431 10 9 11.3431 9 13C9 14.6569 10.3431 16 12 16Z" fill="#0B1F35"/>
</svg>
