<svg xmlns="http://www.w3.org/2000/svg" width="24" height="24" viewBox="0 0 24 24" fill="none"><rect width="24" height="24" fill="none"/>
<path d="M2 18L4.66128 5.58093C4.85888 4.6588 5.67381 4 6.61688 4L17.3832 4C18.3263 4 19.1412 4.6588 19.3388 5.58094L20.3372 10.2399C19.0022 10.6415 17.8812 11.5473 17.511 12.9572C17.3573 12.7404 17.1831 12.5356 16.9882 12.345C16.0535 11.4308 14.8034 11 13.5038 11L9.99998 11C8.89541 11 7.99998 11.8954 7.99998 13L7.99998 18L2 18Z" fill="black"/>
<path fill-rule="evenodd" clip-rule="evenodd" d="M19.1481 21.094C20.0047 21.094 20.696 20.7016 21 20.0384L21 21L23 21L23 12.5L21 12.5L21 15.8384L20.9387 15.8384C20.6347 15.1586 19.9716 14.7552 19.1481 14.7552C17.6118 14.7552 16.6778 15.9489 16.6778 17.9108C16.6778 19.8892 17.6063 21.094 19.1481 21.094ZM19.8665 16.2916C20.6071 16.2916 21 16.916 21 17.9274C21 18.9442 20.6126 19.5576 19.8665 19.5576C19.1205 19.5576 18.6839 18.9442 18.6839 17.9218C18.6839 16.9105 19.126 16.2916 19.8665 16.2916Z" fill="black"/>
<path fill-rule="evenodd" clip-rule="evenodd" d="M9.99998 21L12 21L12 18.5L13.3818 18.5C15.1615 18.5 16.3867 17.5405 16.3867 15.8385C16.3867 14.1199 15.2224 13 13.5038 13L9.99998 13L9.99998 21ZM12 14.5L12.966 14.5C13.8253 14.5 14.4285 14.8451 14.4285 15.6878C14.4285 16.5194 13.8198 17 12.9549 17L12 17L12 14.5Z" fill="black"/>
</svg>
