<svg xmlns="http://www.w3.org/2000/svg" width="24" height="24" viewBox="0 0 24 24" fill="none"><rect width="24" height="24" fill="none"/>
<path fill-rule="evenodd" clip-rule="evenodd" d="M4 6C2.89543 6 2 6.89544 2 7.99997L2.00001 13H13V15H2.00002V16C2.00002 17.1046 2.89544 18 4 18C4 19.1046 4.89543 20 6 20C7.10457 20 8 19.1045 8 18H16C16 19.1046 16.8954 20 18 20C19.1046 20 20 19.1045 20 18C21.1046 18 22 17.1046 22 16V13.8437C22 13.3042 21.7893 12.7481 21.403 12.3716L19.9859 10.9862L16.0356 7.18862L15.3982 6.56753C15.0247 6.20364 14.5239 6 14.0025 6H4ZM13.9938 7.99999L13 7.99997V11H17.1145L13.9938 7.99999Z" fill="black"/>
</svg>
