<svg xmlns="http://www.w3.org/2000/svg" width="24" height="24" viewBox="0 0 24 24" fill="none"><rect width="24" height="24" fill="none"/>
<path d="M13 3V6H20C21.1046 6 22 6.89543 22 8V10.0002C20.7714 10.0002 19.6563 10.4857 18.8174 11.2693C18.3237 11.7304 17.6884 12 17 12C16.3116 12 15.6763 11.7304 15.1826 11.2693C14.3437 10.4857 13.2287 10.0001 12 10.0001C10.7714 10.0001 9.65633 10.4856 8.8174 11.2692C8.32373 11.7303 7.68838 11.9999 7 11.9999C6.31162 11.9999 5.67627 11.7303 5.1826 11.2692C4.34373 10.4856 3.22869 10 2 10V8C2 6.89543 2.89543 6 4 6H11V3C11 2.44772 12 1 12 1C12 1 13 2.44772 13 3Z" fill="black"/>
<path d="M22 12.0002C21.3115 12.0002 20.6762 12.2698 20.1826 12.7308C19.3437 13.5144 18.2287 14 17 14C15.7713 14 14.6563 13.5144 13.8174 12.7308C13.3237 12.2697 12.6884 12.0001 12 12.0001C11.3115 12.0001 10.6762 12.2697 10.1826 12.7307C9.34373 13.5143 8.22869 13.9999 7 13.9999C5.77131 13.9999 4.65627 13.5143 3.8174 12.7307C3.32373 12.2696 2.68838 12 2 12V20H22V12.0002Z" fill="black"/>
</svg>
