<svg xmlns="http://www.w3.org/2000/svg" width="24" height="24" viewBox="0 0 24 24" fill="none"><rect width="24" height="24" fill="none"/>
<path d="M12.0012 13.2588C12.9175 11.8813 14.1109 10.704 15.5019 9.80643C15.5019 7.07249 14.4048 4.56846 12.6269 2.76327C12.4537 2.58749 12.2268 2.49973 12 2.5C11.7739 2.50027 11.5478 2.58802 11.3752 2.76326C9.59717 4.56846 8.50003 7.06966 8.50003 9.80366C9.89146 10.702 11.0851 11.8802 12.0012 13.2588Z" fill="black"/>
<path d="M11.9854 21.4982L11.9869 21.4996L11.9883 21.501H12.0009C17.2482 21.501 21.502 17.2473 21.502 12C21.502 11.5833 21.4751 11.173 21.4231 10.7705C21.3597 10.2792 20.9066 9.94251 20.4174 10.0203C15.6468 10.779 12.0004 14.9115 12.0004 19.8957C12.0004 19.9242 12.0001 19.9597 11.9997 20.001C11.9993 19.9578 11.9991 19.9208 11.9991 19.8913C11.9991 14.9094 8.35595 10.7784 3.58848 10.0169C3.09925 9.93881 2.64599 10.2753 2.58228 10.7666C2.52993 11.1703 2.50293 11.582 2.50293 12C2.50293 17.2405 6.74693 21.4897 11.9854 21.4982Z" fill="black"/>
</svg>
