<svg xmlns="http://www.w3.org/2000/svg" width="18" height="18" viewBox="0 0 18 18" fill="none"><rect width="18" height="18" fill="none"/>
<path fill-rule="evenodd" clip-rule="evenodd" d="M16.5 9C16.5 13.1421 13.1421 16.5 9 16.5C4.85786 16.5 1.5 13.1421 1.5 9C1.5 4.85786 4.85786 1.5 9 1.5C13.1421 1.5 16.5 4.85786 16.5 9ZM9.85145 8V12.9961H8.15487V8H9.85145ZM9 7C9.6019 7 10.0898 6.51206 10.0898 5.91016C10.0898 5.30825 9.6019 4.82031 9 4.82031C8.3981 4.82031 7.91016 5.30825 7.91016 5.91016C7.91016 6.51206 8.3981 7 9 7Z" fill="black"/>
</svg>
