<svg xmlns="http://www.w3.org/2000/svg" width="24" height="24" viewBox="0 0 24 24" fill="none"><rect width="24" height="24" fill="none"/>
<path d="M9 18V20H15V18H9Z" fill="#0B1F35"/>
<path fill-rule="evenodd" clip-rule="evenodd" d="M7.50003 1C5.84316 0.999983 4.5 2.34314 4.5 4V20.9994C4.5 22.6563 5.84313 23.9994 7.49998 23.9994L16.4997 23.9995C18.1566 23.9995 19.4997 22.6564 19.4997 20.9995V4.00009C19.4997 2.34325 18.1566 1.00011 16.4998 1.00009L7.50003 1ZM6.5 4C6.5 3.44771 6.94772 2.99999 7.50001 3L16.4998 3.00009C17.052 3.0001 17.4997 3.44781 17.4997 4.00009V20.9995C17.4997 21.5518 17.052 21.9995 16.4997 21.9995L7.49999 21.9994C6.94771 21.9994 6.5 21.5517 6.5 20.9994V4Z" fill="#0B1F35"/>
</svg>
