<svg xmlns="http://www.w3.org/2000/svg" width="24" height="24" viewBox="0 0 24 24" fill="none"><rect width="24" height="24" fill="none"/>
<path d="M5.33004 3.27087C5.95409 3.04825 6.62851 3.00733 7.2749 3.15287C7.92128 3.29842 8.51308 3.62445 8.98148 4.09306C9.44989 4.56168 9.77565 5.15362 9.92091 5.80007C10.0662 6.44652 10.025 7.12092 9.80204 7.74487L20.6471 18.5899L18.5251 20.7109L7.68004 9.86687C7.05599 10.0895 6.38157 10.1304 5.73519 9.98487C5.0888 9.83932 4.497 9.51329 4.0286 9.04468C3.5602 8.57607 3.23443 7.98413 3.08917 7.33768C2.94392 6.69122 2.98514 6.01682 3.20804 5.39287L5.44404 7.62987C5.58241 7.77314 5.74793 7.88741 5.93094 7.96602C6.11394 8.04464 6.31077 8.08602 6.50994 8.08775C6.70911 8.08948 6.90663 8.05153 7.09097 7.9761C7.27532 7.90068 7.4428 7.7893 7.58363 7.64846C7.72447 7.50763 7.83585 7.34015 7.91127 7.1558C7.9867 6.97146 8.02465 6.77394 8.02292 6.57477C8.02119 6.3756 7.97981 6.17877 7.90119 5.99576C7.82258 5.81276 7.70831 5.64724 7.56504 5.50887L5.32904 3.26987L5.33004 3.27087ZM15.6971 5.15487L18.8791 3.38687L20.2931 4.80087L18.5251 7.98287L16.7571 8.33687L14.6371 10.4579L13.2221 9.04387L15.3431 6.92287L15.6971 5.15487ZM8.62604 12.9329L10.7471 15.0549L5.79704 20.0049C5.52408 20.2753 5.15776 20.4306 4.77362 20.4389C4.38949 20.4471 4.01683 20.3077 3.7325 20.0493C3.44816 19.7908 3.27384 19.4332 3.24547 19.05C3.21711 18.6668 3.33686 18.2873 3.58004 17.9899L3.67704 17.8829L8.62704 12.9329H8.62604Z" fill="black"/>
</svg>
