<svg xmlns="http://www.w3.org/2000/svg" width="24" height="24" viewBox="0 0 24 24" fill="none"><rect width="24" height="24" fill="none"/>
<path fill-rule="evenodd" clip-rule="evenodd" d="M10.0052 2.20718L11.7981 4L9 4C6.23857 4 4 6.23858 4 9.00001L4.00001 15L6.00001 15L6 9.00001C6 7.34315 7.34314 6 9 6L11.7982 6L10.0052 7.79297L11.4195 9.20718L15.6266 5.00008L11.4195 0.792969L10.0052 2.20718ZM12.2019 20L13.9948 21.7928L12.5805 23.207L8.37343 18.9999L12.5805 14.7928L13.9948 16.207L12.2018 18L15 18C16.6569 18 18 16.6568 18 15L18 9L20 9L20 15C20 17.7614 17.7614 20 15 20L12.2019 20Z" fill="#0B1F35"/>
</svg>
