<svg xmlns="http://www.w3.org/2000/svg" width="24" height="24" viewBox="0 0 24 24" fill="none"><rect width="24" height="24" fill="none"/>
<path fill-rule="evenodd" clip-rule="evenodd" d="M6 2C4.89543 2 4 2.89543 4 4V19C4 20.1046 4.89543 21 6 21H6.60288C6.79909 21.151 7.03934 21.2904 7.31802 21.4142C7.73588 21.5999 8.23196 21.7472 8.77792 21.8478C9.32389 21.9483 9.90905 22 10.5 22C11.0909 22 11.6761 21.9483 12.2221 21.8478C12.768 21.7472 13.2641 21.5999 13.682 21.4142C13.9607 21.2904 14.2009 21.151 14.3971 21H15C16.1046 21 17 20.1046 17 19V4C17 2.89543 16.1046 2 15 2H6ZM6 5H15V18H6V5Z" fill="black"/>
<path d="M21 9C21 7.89544 20.1046 7.00002 19 7.00005V16C20.1046 16 21 15.1046 21 14V9Z" fill="black"/>
</svg>
