<svg xmlns="http://www.w3.org/2000/svg" width="24" height="24" viewBox="0 0 25 24" fill="none"><rect width="24" height="24" fill="none"/>
<path fill-rule="evenodd" clip-rule="evenodd" d="M17.8312 3.99984C14.3938 3.99961 11.2692 3.99956 7.83186 3.99975C7.27936 3.99978 6.83154 4.44774 6.83154 4.99973V19.9891L11.3413 17.4078C12.2645 16.8794 13.3986 16.8794 14.3218 17.4078L18.8315 19.9891V4.99983C18.8315 4.44785 18.3837 3.99988 17.8312 3.99984ZM7.83174 1.99975C11.2692 1.99956 14.3939 1.99961 17.8314 1.99984C19.4879 1.99996 20.8315 3.3428 20.8315 4.99983V21.7137C20.8315 22.0703 20.6416 22.3999 20.3332 22.5788C20.0247 22.7576 19.6443 22.7587 19.3348 22.5816L13.3283 19.1436C13.0206 18.9674 12.6425 18.9674 12.3348 19.1436L6.3283 22.5816C6.01882 22.7587 5.63841 22.7576 5.32993 22.5788C5.02144 22.3999 4.83154 22.0703 4.83154 21.7137V4.99973C4.83154 3.3427 6.17523 1.99985 7.83174 1.99975Z" fill="#0B1F35"/>
</svg>
