<svg width="24" height="24" viewBox="0 0 24 24" fill="none" xmlns="http://www.w3.org/2000/svg">
<path d="M12 22C6.47715 22 2 17.5228 2 12C2 6.47715 6.47715 2 12 2C17.5228 2 22 6.47715 22 12C22 12.3375 21.9833 12.6711 21.9506 13H19.9381C19.979 12.6724 20 12.3387 20 12C20 7.58172 16.4183 4 12 4C7.58172 4 4 7.58172 4 12C4 16.4183 7.58172 20 12 20C12.3387 20 12.6724 19.979 13 19.9381V21.9506C12.6711 21.9833 12.3375 22 12 22Z" fill="black"/>
<path d="M13 12V7H11V12C11 12.3148 10.8518 12.6111 10.6 12.8L8 14.5L9.2 16.1L11.8 14.4C12.5554 13.8334 13 12.9443 13 12Z" fill="black"/>
<path d="M17.5859 19.0001L15 21.5L16.5 23L19.0001 20.4143L21.5 23L23 21.5L20.4143 19.0001L23 16.5L21.5 15L19.0001 17.5859L16.5 15L15 16.5L17.5859 19.0001Z" fill="black"/>
</svg>
