<svg xmlns="http://www.w3.org/2000/svg" width="24" height="24" viewBox="0 0 24 24" fill="none"><rect width="24" height="24" fill="none"/>
<path d="M4.94118 3C3.86909 3 3 3.80589 3 4.8V19.2C3 20.1941 3.86909 21 4.94118 21H12.7059C13.778 21 14.6471 20.1941 14.6471 19.2V18.8384C14.4656 18.8667 14.2882 18.8824 14.1176 18.8824H13.0588V19.2C13.0588 19.2179 13.054 19.2568 12.9986 19.3082C12.9411 19.3615 12.8416 19.4118 12.7059 19.4118H4.94118C4.80548 19.4118 4.70594 19.3615 4.64846 19.3082C4.59301 19.2568 4.58824 19.2179 4.58824 19.2V4.8C4.58824 4.78212 4.59301 4.74323 4.64846 4.69181C4.70595 4.63851 4.80548 4.58824 4.94118 4.58824H10.8257C11.8139 4.03368 12.9408 3.67769 14.1198 3.56665C13.7657 3.21781 13.2632 3 12.7059 3H4.94118Z" fill="black"/>
<path d="M7.76471 17.2941C7.47232 17.2941 7.23529 17.5311 7.23529 17.8235C7.23529 18.1159 7.47232 18.3529 7.76471 18.3529H9.88235C10.1747 18.3529 10.4118 18.1159 10.4118 17.8235C10.4118 17.5311 10.1747 17.2941 9.88235 17.2941H7.76471Z" fill="black"/>
<path fill-rule="evenodd" clip-rule="evenodd" d="M20.9973 10.5715C20.9991 10.5184 21 10.4652 21 10.4118C21 7.4879 18.2742 5.11765 14.9118 5.11765C11.5493 5.11765 8.82353 7.4879 8.82353 10.4118C8.82353 13.1016 11.1304 15.3229 14.1176 15.6613V17.2941C15.7059 17.2941 21 14.3824 21 10.6807C21 10.6434 20.9991 10.607 20.9973 10.5715ZM12 8.82353V9.88235H17.8235V8.82353H12ZM12 10.9412V12H17.8235V10.9412H12Z" fill="black"/>
</svg>
