<svg xmlns="http://www.w3.org/2000/svg" width="24" height="24" viewBox="0 0 24 24" fill="none"><rect width="24" height="24" fill="none"/>
<path fill-rule="evenodd" clip-rule="evenodd" d="M19.9996 4.00055C19.9996 2.89598 19.1041 2.00055 17.9996 2.00055L5.99957 2.00055C4.895 2.00055 3.99957 2.89598 3.99957 4.00055L3.99957 20.0005C3.99957 21.1051 4.895 22.0005 5.99957 22.0005L17.9996 22.0006C19.1041 22.0006 19.9996 21.1051 19.9996 20.0005V4.00055ZM11.9996 19.0006C12.828 19.0006 13.4996 18.329 13.4996 17.5006C13.4996 16.6721 12.828 16.0006 11.9996 16.0006C11.1712 16.0006 10.4996 16.6721 10.4996 17.5006C10.4996 18.329 11.1712 19.0006 11.9996 19.0006ZM16.4996 11.0006C17.1899 11.0006 17.7496 11.5602 17.7496 12.2506V17.7506C17.7496 18.4409 17.1899 19.0006 16.4996 19.0006C15.8092 19.0006 15.2496 18.4409 15.2496 17.7506L15.2496 12.2506C15.2496 11.5602 15.8092 11.0006 16.4996 11.0006ZM5.99957 6.00055C5.99957 5.44827 6.44729 5.00055 6.99957 5.00055L16.9996 5.00055C17.5519 5.00055 17.9996 5.44827 17.9996 6.00055L17.9996 8.00055L5.99957 8.00055L5.99957 6.00055ZM7.49958 19.0006C8.32798 19.0006 8.99958 18.329 8.99958 17.5006C8.99958 16.6721 8.32798 16.0006 7.49958 16.0006C6.67118 16.0006 5.99957 16.6721 5.99957 17.5006C5.99957 18.329 6.67118 19.0006 7.49958 19.0006ZM13.4996 12.5006C13.4996 13.329 12.828 14.0006 11.9996 14.0006C11.1712 14.0006 10.4996 13.329 10.4996 12.5006C10.4996 11.6721 11.1712 11.0006 11.9996 11.0006C12.828 11.0006 13.4996 11.6721 13.4996 12.5006ZM8.99957 12.5006C8.99957 13.329 8.32797 14.0006 7.49957 14.0006C6.67117 14.0006 5.99957 13.329 5.99957 12.5006C5.99957 11.6721 6.67117 11.0006 7.49957 11.0006C8.32797 11.0006 8.99957 11.6721 8.99957 12.5006Z" fill="black"/>
</svg>
