<svg xmlns="http://www.w3.org/2000/svg" width="24" height="24" viewBox="0 0 24 24" fill="none"><rect width="24" height="24" fill="none"/>
<path fill-rule="evenodd" clip-rule="evenodd" d="M7.08593 5.49625L7.0838 5.49693L4.47125 2.87891L2.8786 4.46823L4.8154 6.40909C3.21954 7.19492 1.7612 8.23835 0.5 9.49955L2.86362 11.8632C4.18075 10.5461 5.71148 9.57279 7.34431 8.9433L8.75774 10.3597C7.06651 10.8734 5.47357 11.7988 4.13641 13.136L6.36362 15.3632C7.7777 13.9491 9.5909 13.1775 11.4406 13.0482L13.3703 14.9819C11.3721 14.5288 9.19225 15.0802 7.63641 16.636L10.9394 19.9389C11.5252 20.5247 12.4749 20.5247 13.0607 19.9389L15.6916 17.3081L17.3998 19.0199L18.9925 17.4305L15.3205 13.7509L15.3256 13.7532L11.4718 9.89135L11.4692 9.89148L9.84064 8.25954L9.84303 8.25913L7.08593 5.49625ZM12.871 8.10811L9.67299 4.90341C10.442 4.79224 11.2196 4.73607 12.0001 4.73607C14.1358 4.73607 16.2507 5.15674 18.2238 5.97406C20.197 6.79138 21.9899 7.98934 23.5001 9.49955L21.1363 11.8634C18.835 9.56215 15.8816 8.31032 12.871 8.10811Z" fill="#0B1F35"/>
</svg>
