<svg xmlns="http://www.w3.org/2000/svg" width="24" height="24" viewBox="0 0 24 24" fill="none"><rect width="24" height="24" fill="none"/>
<path d="M15 6.75C15 4.2737 14 1.75 11 1.75C7.99997 1.75 6.99998 4.22747 6.99998 6.75C6.99998 9.27253 8.7725 11.25 11 11.25C13.2275 11.25 15 9.2263 15 6.75Z" fill="black"/>
<path d="M14 19C14 20.1256 14.3719 21.1643 14.9996 22H2V19.7143C2.05899 18.7199 2.45203 18.1261 3.05402 17.405C4.32062 15.8877 6.9917 14 11 14C13.0246 14 14.6646 14.4264 15.9554 15.0335C14.7664 15.9476 14 17.3843 14 19Z" fill="black"/>
<path d="M20.3534 15.2452C20.2312 14.9183 19.7687 14.9183 19.6464 15.2452L18.9693 17.056C18.9163 17.1978 18.7836 17.2943 18.6323 17.3009L16.7009 17.3853C16.3522 17.4005 16.2092 17.8404 16.4824 18.0577L17.9953 19.2612C18.1139 19.3555 18.1645 19.5115 18.1241 19.6574L17.6075 21.5203C17.5142 21.8567 17.8884 22.1286 18.1795 21.9359L19.7916 20.869C19.9179 20.7854 20.0819 20.7854 20.2082 20.869L21.8203 21.9359C22.1115 22.1286 22.4856 21.8567 22.3923 21.5203L21.8758 19.6574C21.8353 19.5115 21.886 19.3555 22.0045 19.2612L23.5174 18.0577C23.7906 17.8404 23.6477 17.4005 23.2989 17.3853L21.3676 17.3009C21.2163 17.2943 21.0836 17.1978 21.0305 17.056L20.3534 15.2452Z" fill="black"/>
</svg>
