<svg xmlns="http://www.w3.org/2000/svg" width="24" height="24" viewBox="0 0 24 24" fill="none"><rect width="24" height="24" fill="none"/>
<g clip-path="url(#clip0)">
<path d="M15.2504 11.9997C15.2504 13.7947 13.7952 15.2499 12.0002 15.2499C10.2052 15.2499 8.75 13.7947 8.75 11.9997C8.75 10.2047 10.2052 8.74951 12.0002 8.74951C13.7952 8.74951 15.2504 10.2047 15.2504 11.9997Z" fill="black"/>
<path fill-rule="evenodd" clip-rule="evenodd" d="M12 3C6.71089 3 2.11247 6.64455 0.0745867 11.621C-0.0248623 11.8639 -0.0248622 12.1361 0.0745867 12.379C2.11248 17.3555 6.71096 20.9999 12 20.9999C17.2891 20.9999 21.8875 17.3555 23.9254 12.379C24.0249 12.1361 24.0249 11.8639 23.9254 11.621C21.8875 6.64454 17.289 3 12 3ZM12 18.9999C7.79469 18.9999 3.9458 16.1637 2.08752 12C3.94581 7.8363 7.79465 5 12 5C16.2053 5 20.0542 7.83631 21.9125 12C20.0542 16.1637 16.2053 18.9999 12 18.9999Z" fill="black"/>
</g>
<defs>
<clipPath id="clip0">
<rect width="24" height="24" fill="white"/>
</clipPath>
</defs>
</svg>
