<svg xmlns="http://www.w3.org/2000/svg" width="24" height="24" viewBox="0 0 24 24" fill="none"><rect width="24" height="24" fill="none"/>
<path d="M21.9999 19L11.1968 19C11.7072 18.1173 12 17.0916 12 16C12 12.6863 9.31371 10 6 10C4.46329 10 3.06151 10.5777 2 11.5278V4C2 3.44771 2.44772 3 3 3H14.185C15.9599 3 17.3468 4.53245 17.1701 6.29851L17.0243 7.75677C17.0117 7.88251 17.1175 7.98825 17.2432 7.97568L18.7015 7.82985C20.4675 7.65324 22 9.0401 22 10.815L21.9999 19Z" fill="black"/>
<path d="M2 16C2 17.0144 2.37764 17.9407 3 18.6458V23L6 21L9 23V18.6458C9.62236 17.9407 10 17.0144 10 16C10 13.7909 8.20914 12 6 12C3.79086 12 2 13.7909 2 16Z" fill="black"/>
</svg>
