<svg xmlns="http://www.w3.org/2000/svg" width="24" height="24" viewBox="0 0 24 24" fill="none"><rect width="24" height="24" fill="none"/>
<path d="M16.0609 6.99992L14.3437 8.82836L15.7579 10.2426L20 5.99992L15.7575 1.75732L14.3433 3.17154L16.0607 4.99992L9.82843 4.99992C7.7522 4.99992 5.76101 5.8247 4.2929 7.29282L5.70711 8.70703C6.80015 7.61399 8.28263 6.99992 9.82843 6.99992L16.0609 6.99992Z" fill="#0B1F35"/>
<path d="M7.93883 19.0001L9.65628 20.8288L8.24207 22.2431L4 18.0004L8.24253 13.7578L9.65674 15.172L7.93962 17.0001L14.1716 17.0001C15.7174 17.0001 17.1998 16.386 18.2929 15.293L19.7071 16.7072C18.239 18.1753 16.2478 19.0001 14.1716 19.0001H7.93883Z" fill="#0B1F35"/>
</svg>
