<svg xmlns="http://www.w3.org/2000/svg" width="24" height="24" viewBox="0 0 24 24" fill="none"><rect width="24" height="24" fill="none"/>
<path fill-rule="evenodd" clip-rule="evenodd" d="M4.50024 5.55103C4.56216 4.12459 5.73661 3 7.1644 3H16.8361C18.2639 3 19.4383 4.12459 19.5002 5.55103L19.5863 7H20C20.5523 7 21 7.44772 21 8V12C21 12.5523 20.5523 13 20 13H19.9426L20.2129 17.5517C20.2617 18.6769 19.6073 19.6639 18.6463 20.0985C18.6598 20.1747 18.6669 20.2532 18.6669 20.3333V21C18.6669 21.7364 18.07 22.3333 17.3336 22.3333C16.5972 22.3333 16.0002 21.7364 16.0002 21V20.334H8.00029V21C8.00029 21.7364 7.40333 22.3333 6.66695 22.3333C5.93057 22.3333 5.33362 21.7364 5.33362 21V20.3333C5.33362 20.2532 5.34069 20.1747 5.35424 20.0985C4.39327 19.6639 3.73888 18.6769 3.78772 17.5517L4.05797 13H4C3.44772 13 3 12.5523 3 12V8C3 7.44772 3.44772 7 4 7H4.41421L4.50024 5.55103ZM6 12.334H18L17.7366 7.59336C17.6974 6.8868 17.113 6.33398 16.4054 6.33398H7.59465C6.887 6.33398 6.30262 6.8868 6.26337 7.59336L6 12.334ZM7.00024 18C7.82867 18 8.50024 17.3284 8.50024 16.5C8.50024 15.6716 7.82867 15 7.00024 15C6.17182 15 5.50024 15.6716 5.50024 16.5C5.50024 17.3284 6.17182 18 7.00024 18ZM18.5 16.501C18.5 17.3294 17.8284 18.001 17 18.001C16.1716 18.001 15.5 17.3294 15.5 16.501C15.5 15.6725 16.1716 15.001 17 15.001C17.8284 15.001 18.5 15.6725 18.5 16.501Z" fill="black"/>
</svg>
