<svg xmlns="http://www.w3.org/2000/svg" width="24" height="24" viewBox="0 0 24 24" fill="none"><rect width="24" height="24" fill="none"/>
<path d="M8 7C7.44772 7 7 7.44772 7 8C7 8.55228 7.44772 9 8 9H15C15.5523 9 16 8.55228 16 8C16 7.44772 15.5523 7 15 7H8Z" fill="black"/>
<path d="M8 11C7.44772 11 7 11.4477 7 12C7 12.5523 7.44772 13 8 13H12C12.5523 13 13 12.5523 13 12C13 11.4477 12.5523 11 12 11H8Z" fill="black"/>
<path fill-rule="evenodd" clip-rule="evenodd" d="M6 1C4.34315 1 3 2.34315 3 4V20.7029C3 22.2757 4.73159 23.233 6.06354 22.3967L10.7778 19.4366V20.7895C10.7778 22.51 12.8061 23.4275 14.0982 22.2916L18.9807 17.9996C19.6286 17.43 20 16.6091 20 15.7464V4C20 2.34315 18.6569 1 17 1H6ZM5 4C5 3.44772 5.44772 3 6 3H17C17.5523 3 18 3.44772 18 4V15.7464C18 16.034 17.8762 16.3076 17.6602 16.4975L12.7778 20.7895L12.7778 18.0801C12.7778 17.0971 11.6955 16.4988 10.8631 17.0215L5 20.7029V4Z" fill="black"/>
</svg>
