<svg xmlns="http://www.w3.org/2000/svg" width="24" height="24" viewBox="0 0 24 24" fill="none"><rect width="24" height="24" fill="none"/>
<path fill-rule="evenodd" clip-rule="evenodd" d="M19.1407 2.00394C16.4893 2.004 13.9465 3.05697 12.0714 4.93135L9.0017 7.99969L6.82866 7.99971C6.29823 7.99972 5.78954 8.21043 5.41447 8.5855L1.00024 12.9997L6.78311 12.9997L11.0002 17.2169L11.0002 22.9997L15.4145 18.5855C15.7895 18.2104 16.0002 17.7017 16.0003 17.1713L16.0003 15.0022L19.0682 11.9367C20.9452 10.0612 21.9999 7.51641 21.9999 4.86288V3.00391C21.9999 2.45161 21.5522 2.0039 20.9999 2.00391L19.1407 2.00394ZM15 7.5C15 8.32843 15.6716 9 16.5 9C17.3284 9 18 8.32843 18 7.5C18 6.67157 17.3284 6 16.5 6C15.6716 6 15 6.67157 15 7.5Z" fill="black"/>
<path d="M8.75748 18.2427C7.63226 19.3679 6.10614 20.0001 4.51484 20.0001H4.00012L4.0001 19.4856C4.00003 17.8942 4.63223 16.3679 5.7576 15.2426L6.00012 15.0001L9.00012 18.0001L8.75748 18.2427Z" fill="black"/>
</svg>
