<svg xmlns="http://www.w3.org/2000/svg" width="24" height="24" viewBox="0 0 24 24" fill="none"><rect width="24" height="24" fill="none"/>
<path fill-rule="evenodd" clip-rule="evenodd" d="M18 2H7.00787C5.35408 2 4.00433 3.34622 4 5V20C4 21.1046 4.89543 22 6 22H20V6H7.00787C6.45457 6 6.00643 5.55069 6.00788 4.99738C6.00932 4.44612 6.45661 4 7.00787 4H18V2ZM8.54849 8.97701C8.74915 8.69688 9.15208 8.66242 9.39423 8.90469L10.9702 10.4814C11.1502 10.6615 11.1837 10.9418 11.0515 11.1612L9.99479 12.4696L13.5303 16.0052L14.8379 14.9494C15.0571 14.8171 15.3374 14.8507 15.5174 15.0308L17.0932 16.6074C17.3354 16.8497 17.301 17.2528 17.021 17.4535L16.0947 18.1176C15.2653 18.7123 14.1439 18.7944 13.24 18.2511C10.7073 16.7288 9.259 15.3092 7.73935 12.7513C7.49949 12.3475 7.38431 11.9016 7.38294 11.4583C7.38126 10.91 7.55375 10.3657 7.87987 9.91046L8.54849 8.97701Z" fill="black"/>
</svg>
