<svg xmlns="http://www.w3.org/2000/svg" width="24" height="24" viewBox="0 0 24 24" fill="none"><rect width="24" height="24" fill="none"/>
<path fill-rule="evenodd" clip-rule="evenodd" d="M7 7C7 4.23858 9.23858 2 12 2C14.7614 2 17 4.23858 17 7V10H19V20C19 21.1046 18.1046 22 17 22H7C5.89543 22 5 21.1046 5 20V10H7V7ZM15 7V10H9V7C9 5.34315 10.3431 4 12 4C13.6569 4 15 5.34315 15 7ZM12 18C13.1046 18 14 17.1046 14 16C14 14.8954 13.1046 14 12 14C10.8954 14 10 14.8954 10 16C10 17.1046 10.8954 18 12 18Z" fill="#0B1F35"/>
</svg>
