<svg xmlns="http://www.w3.org/2000/svg" width="24" height="24" viewBox="0 0 24 24" fill="none"><rect width="24" height="24" fill="none"/>
<path fill-rule="evenodd" clip-rule="evenodd" d="M22 10.3333C22 4.91667 17.8333 2 12 2C6.16667 2 2 4.91667 2 10.3333C2 15.75 6.16667 18.6426 11.1667 18.6426V20.775C11.1667 21.1975 11.1667 21.4088 11.2988 21.6146C11.3915 21.7589 11.6125 21.9217 11.7778 21.9674C12.0135 22.0326 12.1695 21.9842 12.4815 21.8873C17 20.3333 22 15.75 22 10.3333ZM11.4282 11.4978L11 14.495H13L12.5718 11.4978L15 13.495L16 11.495L13.1962 10.495L16 9.495L15 7.495L12.5718 9.4922L13 6.495H11L11.4282 9.49216L9 7.495L8 9.495L10.8039 10.495L8 11.495L9 13.495L11.4282 11.4978Z" fill="black"/>
</svg>
