<svg xmlns="http://www.w3.org/2000/svg" width="24" height="24" viewBox="0 0 24 24" fill="none"><rect width="24" height="24" fill="none"/>
<path d="M19 19.006L20.5 17.506L20.8172 17.8232L20.8257 17.8193L14.0063 10.9999H13.994L11.994 8.99993H12.0063L9.00627 5.99993H8.99394L5.99997 3.00586L4.5 4.50589L8.58171 8.58769L3.74664 10.7632C2.86916 11.158 3.00101 12.443 3.94038 12.6514L9.37979 13.8582C9.75899 13.9423 10.0552 14.2384 10.1394 14.6176L11.3487 20.0612C11.5574 21.0003 12.8421 21.132 13.2369 20.2546L15.4127 15.4186L19 19.006Z" fill="#0B1F35"/>
<path d="M19.9185 5.40392L17.2783 11.2719L16.0064 10H15.9941L13.9941 8H14.0064L12.7283 6.72191L18.5962 4.08168C19.4354 3.70408 20.296 4.56472 19.9185 5.40392Z" fill="#0B1F35"/>
</svg>
