<svg xmlns="http://www.w3.org/2000/svg" width="24" height="24" viewBox="0 0 24 24" fill="none"><rect width="24" height="24" fill="none"/>
<path fill-rule="evenodd" clip-rule="evenodd" d="M6 9L18 9V20C18 21.1046 17.1046 22 16 22H8C6.89543 22 6 21.1046 6 20V9ZM14 18.5V19.5C14 19.7761 13.7761 20 13.5 20H10.5C10.2239 20 10 19.7761 10 19.5V18.5C10 18.2239 10.2239 18 10.5 18H13.5C13.7761 18 14 18.2239 14 18.5Z" fill="black"/>
<path fill-rule="evenodd" clip-rule="evenodd" d="M8 3C8 2.44771 8.44772 2 9 2H15C15.5523 2 16 2.44771 16 3V8H8V3ZM10 6H11V4H10V6ZM14 6H13V4H14V6Z" fill="black"/>
</svg>
