<svg width="19" height="18" viewBox="0 0 19 18" fill="none" xmlns="http://www.w3.org/2000/svg">
<path fill-rule="evenodd" clip-rule="evenodd" d="M4.32487 8.21778L3.22073 9.32191C1.72395 10.8187 1.72395 13.2455 3.22073 14.7422L3.35761 14.8791C4.85439 16.3759 7.28116 16.3759 8.77794 14.8791L10.9863 12.6707C12.4831 11.174 12.4831 8.7472 10.9863 7.25042L10.8495 7.11354C10.6963 6.96042 10.5335 6.82297 10.3629 6.70117L8.9057 8.15835C9.0975 8.2466 9.2772 8.36973 9.43523 8.52776L9.5721 8.66463C10.2878 9.38037 10.2878 10.5408 9.5721 11.2565L7.36373 13.4649C6.64799 14.1806 5.48756 14.1806 4.77182 13.4649L4.63495 13.328C3.91921 12.6123 3.91921 11.4519 4.63495 10.7361L5.73908 9.63199L4.32487 8.21778Z" fill="#0B1F35"/>
<path fill-rule="evenodd" clip-rule="evenodd" d="M14.0252 9.63209L15.1294 8.52794C16.6261 7.03116 16.6261 4.60439 15.1294 3.10761L14.9925 2.97074C13.4957 1.47395 11.0689 1.47395 9.57214 2.97073L7.36376 5.17911C5.86698 6.67589 5.86698 9.10266 7.36376 10.5994L7.50064 10.7363C7.65374 10.8894 7.81658 11.0268 7.98716 11.1486L9.44433 9.69148C9.25254 9.60324 9.07286 9.48011 8.91485 9.3221L8.77798 9.18523C8.06224 8.46949 8.06224 7.30906 8.77798 6.59332L10.9864 4.38495C11.7021 3.66921 12.8625 3.66921 13.5783 4.38495L13.7151 4.52182C14.4309 5.23756 14.4309 6.39799 13.7151 7.11373L12.611 8.21788L14.0252 9.63209Z" fill="#0B1F35"/>
</svg>
