<svg xmlns="http://www.w3.org/2000/svg" width="18" height="18" viewBox="0 0 18 18" fill="none"><rect width="18" height="18" fill="none"/>
<path fill-rule="evenodd" clip-rule="evenodd" d="M4 3.5C4 3.22386 4.22386 3 4.5 3H13.5C13.7761 3 14 3.22386 14 3.5V14.3197C14 14.513 13.8885 14.6891 13.7137 14.7717L9.71369 16.6626C9.382 16.8194 9 16.5775 9 16.2106V15.0311C9 14.8476 8.809 14.7267 8.64316 14.8051L4.71369 16.6626C4.382 16.8194 4 16.5775 4 16.2106V3.5ZM6 7.5C6 7.22386 6.22386 7 6.5 7H11.5C11.7761 7 12 7.22386 12 7.5C12 7.77614 11.7761 8 11.5 8H6.5C6.22386 8 6 7.77614 6 7.5ZM6.5 9C6.22386 9 6 9.22386 6 9.5C6 9.77614 6.22386 10 6.5 10H9.5C9.77614 10 10 9.77614 10 9.5C10 9.22386 9.77614 9 9.5 9H6.5Z" fill="black"/>
</svg>
