<svg xmlns="http://www.w3.org/2000/svg" width="24" height="24" viewBox="0 0 24 24" fill="none"><rect width="24" height="24" fill="none"/>
<path fill-rule="evenodd" clip-rule="evenodd" d="M22 10.3333C22 4.91667 17.8333 2 12 2C6.16667 2 2 4.91667 2 10.3333C2 15.75 6.16667 18.6426 11.1667 18.6426V20.775C11.1667 21.1975 11.1667 21.4088 11.2988 21.6146C11.3915 21.7589 11.6125 21.9217 11.7778 21.9674C12.0135 22.0326 12.1695 21.9842 12.4815 21.8873C17 20.3333 22 15.75 22 10.3333ZM17 10V8H8V10H17ZM14 14V12H8V14H14Z" fill="black"/>
</svg>
