<svg xmlns="http://www.w3.org/2000/svg" width="24" height="24" viewBox="0 0 24 24" fill="none"><rect width="24" height="24" fill="none"/>
<path d="M6.5 1C5.32322 1 4.42902 2.05818 4.62531 3.21848L5.01506 4.52235C5.24958 5.9086 5.06123 7.33334 4.47453 8.61102L3.62202 10.4676C2.58389 12.7284 2.4913 15.3101 3.36482 17.6395L4.625 21H8.75L9.88983 17.4539C10.6039 15.2323 10.4599 12.8237 9.4861 10.7031L8.52547 8.61102C7.93878 7.33334 7.75043 5.9086 7.98494 4.52235L8.3747 3.21848C8.57099 2.05818 7.67679 1 6.5 1Z" fill="black"/>
<path fill-rule="evenodd" clip-rule="evenodd" d="M14 21C12.9494 21 11.9528 20.7685 11.0585 20.3538L11.7939 18.0659C12.661 15.3682 12.4861 12.4436 11.3036 9.86847L10.4342 7.97502C11.4785 7.35561 12.6977 7 14 7C17.866 7 21 10.134 21 14C21 17.866 17.866 21 14 21ZM16.5 13C17.3284 13 18 12.3284 18 11.5C18 10.6716 17.3284 10 16.5 10C15.6716 10 15 10.6716 15 11.5C15 12.3284 15.6716 13 16.5 13Z" fill="black"/>
</svg>
