<svg xmlns="http://www.w3.org/2000/svg" width="24" height="24" viewBox="0 0 24 24" fill="none"><rect width="24" height="24" fill="none"/>
<path d="M2.08556 13.3053C1.79823 11.1228 2.23909 8.90642 3.33976 7L12 12L12 2C14.2014 2 16.3412 2.72638 18.0876 4.06647C19.8341 5.40656 21.0895 7.28548 21.6593 9.41181C22.0629 10.9181 22.1064 12.489 21.798 14H15C13.8954 14 13 14.8954 13 16V21.9499C12.2374 22.0265 11.464 22.0157 10.6947 21.9144C8.51224 21.6271 6.48553 20.6277 4.92894 19.0711C3.37236 17.5145 2.3729 15.4878 2.08556 13.3053Z" fill="black"/>
<path d="M15 16H23V18H15V16Z" fill="black"/>
<path d="M23 20H15V22H23V20Z" fill="black"/>
</svg>
