<svg xmlns="http://www.w3.org/2000/svg" width="24" height="24" viewBox="0 0 24 24" fill="none"><rect width="24" height="24" fill="none"/>
<path d="M4.66128 5.58093L2 18L7.42825 18L9.40207 12.3413C9.68224 11.5381 10.4398 11 11.2905 11L13.7039 11C14.5541 11 15.3114 11.5375 15.5919 12.3401L15.8225 13L16.9948 13L18.9895 12.9895C19.0617 12.9892 19.1335 12.9927 19.2047 13L20.9286 13L19.3388 5.58094C19.1412 4.6588 18.3263 4 17.3832 4L6.61688 4C5.67381 4 4.85888 4.6588 4.66128 5.58093Z" fill="black"/>
<path fill-rule="evenodd" clip-rule="evenodd" d="M13.7039 13L16.5 21L14.3813 21L13.8571 19.5L11.1414 19.5L10.6182 21L8.49999 21L11.2905 13L13.7039 13ZM11.6646 18L13.3328 18L12.4979 15.6111L11.6646 18Z" fill="black"/>
<path d="M21 15L23 15L23 21L21 21L21 19.9525C20.7126 20.6764 20.171 21.0909 19.2426 21.0909C17.9384 21.0909 17 20.2343 17 18.8141L17 15L19 14.9895L19 18.1142C19 18.8658 19.3808 19.2637 20.0108 19.2637C20.6794 19.2637 21 18.8106 21 18.0921L21 15Z" fill="black"/>
</svg>
