<svg xmlns="http://www.w3.org/2000/svg" width="24" height="24" viewBox="0 0 24 24" fill="none"><rect width="24" height="24" fill="none"/>
<path d="M13.2378 15.0194V16H7.80575V13.9668C7.80575 12.1385 8.19775 11.3906 10.376 10.3102L12.224 9.34072C13.036 8.92521 13.512 8.45429 13.512 7.73407C13.512 6.84765 12.924 6.37673 11.944 6.37673C10.908 6.37673 10.348 6.98615 10.348 8.01108V8.5H5V7.59557C5 4.27147 7.492 2 11.944 2C16.508 2 19 4.10526 19 7.76177C19 10.5873 17.6337 11.9169 14.9458 13.3573L13.8537 13.9391C13.3777 14.1884 13.2378 14.4654 13.2378 15.0194Z" fill="black"/>
<path d="M10.5 23.5C12.1569 23.5 13.5 22.1569 13.5 20.5C13.5 18.8431 12.1569 17.5 10.5 17.5C8.84315 17.5 7.5 18.8431 7.5 20.5C7.5 22.1569 8.84315 23.5 10.5 23.5Z" fill="black"/>
</svg>
