<svg xmlns="http://www.w3.org/2000/svg" width="24" height="24" viewBox="0 0 24 24" fill="none"><rect width="24" height="24" fill="none"/>
<path fill-rule="evenodd" clip-rule="evenodd" d="M12 1C18.4167 1 23 4.20833 23 10.1667C23 16.125 17.5 21.1667 12.5296 22.876C12.1865 22.9826 12.0149 23.0359 11.7556 22.9641C11.5738 22.9138 11.3307 22.7348 11.2287 22.576C11.0833 22.3497 11.0833 22.1173 11.0833 21.6525V19.3069C5.58333 19.3069 1 16.125 1 10.1667C1 4.20833 5.58333 1 12 1ZM10.5859 10.0001L8 12.5L9.5 14L12.0001 11.4143L14.5 14L16 12.5L13.4143 10.0001L16 7.5L14.5 6L12.0001 8.58588L9.5 6L8 7.5L10.5859 10.0001Z" fill="black"/>
</svg>
