<svg xmlns="http://www.w3.org/2000/svg" width="24" height="24" viewBox="0 0 24 24" fill="none"><rect width="24" height="24" fill="none"/>
<path d="M8.13515 3.01508C8.14048 3.36858 8.48929 3.78715 9.18691 4.62429L10.7708 6.52501C11.193 7.03155 11.404 7.28482 11.6567 7.37718C11.8784 7.45821 12.1216 7.45821 12.3433 7.37718C12.596 7.28482 12.807 7.03155 13.2292 6.52502L14.8131 4.6243C15.5107 3.78716 15.8595 3.36858 15.8648 3.01508C15.8695 2.70776 15.7325 2.41539 15.4935 2.22221C15.2185 2 14.6736 2 13.5839 2H10.4161C9.32635 2 8.78149 2 8.50651 2.22221C8.26746 2.41539 8.13052 2.70776 8.13515 3.01508Z" fill="#0B1F35"/>
<path d="M8.13515 20.9849C8.14048 20.6314 8.48929 20.2128 9.18691 19.3757L10.7708 17.475C11.193 16.9685 11.404 16.7152 11.6567 16.6228C11.8784 16.5418 12.1216 16.5418 12.3433 16.6228C12.596 16.7152 12.807 16.9684 13.2292 17.475L14.8131 19.3757C15.5107 20.2128 15.8595 20.6314 15.8648 20.9849C15.8695 21.2922 15.7325 21.5846 15.4935 21.7778C15.2185 22 14.6736 22 13.5839 22H10.4161C9.32635 22 8.78149 22 8.50651 21.7778C8.26746 21.5846 8.13052 21.2922 8.13515 20.9849Z" fill="#0B1F35"/>
</svg>
