<svg xmlns="http://www.w3.org/2000/svg" width="24" height="24" viewBox="0 0 24 24" fill="none"><rect width="24" height="24" fill="none"/>
<path fill-rule="evenodd" clip-rule="evenodd" d="M11.2774 4.2591C12.8395 2.697 15.3722 2.697 16.9343 4.2591C18.4964 5.82119 18.4964 8.35385 16.9343 9.91595L10.9239 15.9264C9.94758 16.9027 8.36467 16.9027 7.38836 15.9264C6.41205 14.95 6.41205 13.3671 7.38836 12.3908L12.6917 7.08752L14.1059 8.50174L8.80257 13.805C8.60731 14.0003 8.60731 14.3169 8.80257 14.5121C8.99784 14.7074 9.31442 14.7074 9.50968 14.5121L15.5201 8.50174C16.3011 7.72069 16.3011 6.45436 15.5201 5.67331C14.739 4.89226 13.4727 4.89226 12.6917 5.67331L6.68125 11.6837C5.31442 13.0506 5.31442 15.2666 6.68125 16.6335C8.04809 18.0003 10.2642 18.0003 11.631 16.6335L13.9389 14.3255C15.0885 13.1759 16.49 12.3098 18.0323 11.7957L18.6647 13.6931C17.417 14.109 16.2832 14.8097 15.3532 15.7397L13.0452 18.0477C10.8973 20.1956 7.41492 20.1956 5.26704 18.0477C3.11916 15.8998 3.11916 12.4174 5.26704 10.2695L11.2774 4.2591Z" fill="#0B1F35"/>
</svg>
