<svg xmlns="http://www.w3.org/2000/svg" width="24" height="24" viewBox="0 0 24 24" fill="none"><rect width="24" height="24" fill="none"/>
<path fill-rule="evenodd" clip-rule="evenodd" d="M7.16727 2.79499C6.72575 2.35324 5.99108 2.41607 5.62521 2.92685L4.40608 4.62883C3.81147 5.45895 3.49696 6.45133 3.50002 7.45114C3.50251 8.25934 3.71252 9.07242 4.14987 9.80856C6.9207 14.4726 9.56148 17.061 14.1793 19.8366C15.8276 20.8272 17.8721 20.6776 19.3846 19.5932L21.0734 18.3824C21.5839 18.0164 21.6467 17.2814 21.2051 16.8396L18.3318 13.9649C18.0035 13.6365 17.4927 13.5753 17.0929 13.8165L14.7087 15.7415L8.26229 9.29506L10.189 6.9093C10.4301 6.50936 10.3689 5.9982 10.0407 5.66982L7.16727 2.79499Z" fill="#0B1F35"/>
</svg>
