<svg xmlns="http://www.w3.org/2000/svg" width="24" height="24" viewBox="0 0 24 24" fill="none"><rect width="24" height="24" fill="none"/>
<path fill-rule="evenodd" clip-rule="evenodd" d="M5.00002 16L5.42819 13.0028L3 15L2 13L4.80391 12L2 11L3 9L5.42817 10.9972L5.00002 8H7.00002L6.57183 10.9972L9 9L10 11L7.19619 12L10 13L9 15L6.57183 13.0028L7.00002 16H5.00002Z" fill="#0B1F35"/>
<path fill-rule="evenodd" clip-rule="evenodd" d="M17 16L17.4282 13.0028L15 15L14 13L16.8039 12L14 11L15 9L17.4282 10.9972L17 8H19L18.5718 10.9972L21 9L22 11L19.1962 12L22 13L21 15L18.5718 13.0028L19 16H17Z" fill="#0B1F35"/>
</svg>
