<svg xmlns="http://www.w3.org/2000/svg" width="18" height="18" viewBox="0 0 18 18" fill="none"><rect width="18" height="18" fill="none"/>
<path d="M5.54772 6.89934C5.54772 5.95868 5.89065 5 6.91947 5C7.94828 5 8.29121 5.94111 8.29121 6.89934C8.29121 7.85757 7.68335 8.60876 6.91946 8.60876C6.15557 8.60876 5.54772 7.84001 5.54772 6.89934Z" fill="black"/>
<path d="M10.1699 8.0549C10.1699 7.11423 10.5129 6.15555 11.5417 6.15555C12.5705 6.15555 12.9134 7.09667 12.9134 8.0549C12.9134 9.01313 12.3056 9.76431 11.5417 9.76431C10.7778 9.76431 10.1699 8.99557 10.1699 8.0549Z" fill="black"/>
<path d="M3.91501 11.6844V13H9.92388V11.6844C9.90419 11.3132 9.77298 11.0915 9.57202 10.8223C9.1492 10.2559 8.25752 9.55112 6.91945 9.55112C5.45316 9.55112 4.59109 10.3004 4.21271 10.8624C4.04684 11.1088 3.93221 11.3602 3.91501 11.6844Z" fill="black"/>
<path d="M10.6371 10.7885C10.9019 10.7263 11.2027 10.6888 11.5417 10.6888C12.6739 10.6888 13.4284 11.1611 13.7862 11.5407C13.9562 11.7211 14.0672 11.8696 14.0839 12.1184V12.9999H10.8483V11.6599L10.847 11.6355C10.8289 11.2934 10.7473 11.0199 10.6371 10.7885Z" fill="black"/>
</svg>
