<svg xmlns="http://www.w3.org/2000/svg" width="24" height="24" viewBox="0 0 24 24" fill="none"><rect width="24" height="24" fill="none"/>
<path d="M10.3002 11C10.3002 11.718 9.71817 12.3 9.0002 12.3C8.28223 12.3 7.7002 11.718 7.7002 11C7.7002 10.282 8.28223 9.7 9.0002 9.7C9.71817 9.7 10.3002 10.282 10.3002 11Z" fill="#0B1F35"/>
<path fill-rule="evenodd" clip-rule="evenodd" d="M2 5C2 4.44772 2.44772 4 3 4H21C21.5523 4 22 4.44772 22 5V20C22 20.5523 21.5523 21 21 21H19.7208C19.2903 21 18.9082 20.7246 18.7721 20.3162L18.2279 18.6838C18.0918 18.2754 17.7097 18 17.2792 18H6.72076C6.29033 18 5.90819 18.2754 5.77208 18.6838L5.22792 20.3162C5.09181 20.7246 4.70967 21 4.27924 21H3C2.44772 21 2 20.5523 2 20V5ZM16 8H18V14H16V8ZM12 11C12 12.6569 10.6569 14 9 14C7.34315 14 6 12.6569 6 11C6 9.34315 7.34315 8 9 8C10.6569 8 12 9.34315 12 11Z" fill="#0B1F35"/>
</svg>
