<svg xmlns="http://www.w3.org/2000/svg" width="24" height="24" viewBox="0 0 24 24" fill="none"><rect width="24" height="24" fill="none"/>
<path fill-rule="evenodd" clip-rule="evenodd" d="M5 1.03967C3.34315 1.03967 2 2.38282 2 4.03967V12.0374C2 13.6943 3.34314 15.0374 5 15.0374H8.00131V13.0374H5C4.44772 13.0374 4 12.5897 4 12.0374V4.03967C4 3.48739 4.44772 3.03967 5 3.03967H18.0044C18.5567 3.03967 19.0044 3.48739 19.0044 4.03967V6.03852H12V8.03852H19.0044V12.0374C19.0044 12.5897 18.5567 13.0374 18.0044 13.0374H13.0183L8.39349 5.63929C7.60682 6.59239 7.21752 8.1228 7.89026 9.24243L12.6814 16.8068L12.3127 17.4197C11.675 16.5601 10.6526 16.003 9.5 16.003C7.567 16.003 6 17.57 6 19.503C6 21.436 7.567 23.003 9.5 23.003C10.8992 23.003 12.1066 22.182 12.6667 20.9955L12.6695 20.9976L13.9859 18.8665L15.3355 20.9972C15.8967 22.1811 17.1027 23 18.5 23C20.433 23 22 21.4329 22 19.5C22 17.567 20.433 16 18.5 16C17.3698 16 16.3647 16.5356 15.7248 17.3669L15.3161 16.7131L16.3512 15.0374H18.0044C19.6613 15.0374 21.0044 13.6943 21.0044 12.0374V4.03967C21.0044 2.38282 19.6613 1.03967 18.0044 1.03967H5ZM9.5 21.003C8.67157 21.003 8 20.3314 8 19.503C8 18.6746 8.67157 18.003 9.5 18.003C10.3284 18.003 11 18.6746 11 19.503C11 20.3314 10.3284 21.003 9.5 21.003ZM20 19.5C20 20.3284 19.3284 21 18.5 21C17.6716 21 17 20.3284 17 19.5C17 18.6715 17.6716 18 18.5 18C19.3284 18 20 18.6715 20 19.5Z" fill="#0B1F35"/>
</svg>
