<svg xmlns="http://www.w3.org/2000/svg" width="18" height="18" viewBox="0 0 18 18" fill="none"><rect width="18" height="18" fill="none"/>
<path d="M3.00159 6.80573L11.2161 14.9982L11.5086 14.8266L11.5504 14.5904C11.7818 13.2854 12.2566 12.2613 13.1961 11.3241L13.7328 10.7887C14.5487 9.97493 14.9981 8.88895 14.9981 7.7303C14.9981 5.28524 12.6981 3.00171 10.2567 3.00171C9.09494 3.00171 8.00603 3.44983 7.19007 4.26359L6.65315 4.79891C5.71344 5.73582 4.66082 6.18351 3.35236 6.41426L3.11594 6.45596L3.00159 6.80573Z" fill="black"/>
<path d="M4.40329 11.8099C4.40329 11.2872 4.6338 10.8183 4.99871 10.4993L7.45695 12.951C7.13794 13.3179 6.66771 13.5499 6.14329 13.5499C5.18232 13.5499 4.40329 12.7709 4.40329 11.8099Z" fill="black"/>
</svg>
