<svg xmlns="http://www.w3.org/2000/svg" width="24" height="24" viewBox="0 0 24 24" fill="none"><rect width="24" height="24" fill="none"/>
<path d="M16.6633 5.74805H21V8.24805H16.6678C16.2361 8.99745 15.427 9.50195 14.5 9.50195C13.573 9.50195 12.7639 8.99745 12.3322 8.24805H3V5.74805H12.3367C12.7695 5.00295 13.5763 4.50195 14.5 4.50195C15.4237 4.50195 16.2305 5.00295 16.6633 5.74805Z" fill="#0B1F35"/>
<path d="M21 15.748H11.6655C11.2333 15.0008 10.4254 14.498 9.5 14.498C8.57465 14.498 7.76672 15.0008 7.33446 15.748H3V18.248H7.33446C7.76672 18.9953 8.57465 19.498 9.5 19.498C10.4254 19.498 11.2333 18.9953 11.6655 18.248H21V15.748Z" fill="#0B1F35"/>
</svg>
