<svg xmlns="http://www.w3.org/2000/svg" width="24" height="24" viewBox="0 0 24 24" fill="none"><rect width="24" height="24" fill="none"/>
<path d="M12 6.02222C13.6569 6.02222 15 4.68094 15 3.02639C15 3.01758 15 3.00879 14.9999 3L16.5463 3.24379C18.8087 3.60043 21.5391 5.44647 21.7462 7.72427L22 10.516L18 10.8488V20.0028C18 21.1058 15.3137 22 12 22C8.68629 22 6 21.1058 6 20.0028V10.8488L2 10.516L2.25383 7.72427C2.46094 5.44647 5.19135 3.60043 7.45368 3.24379L9.00011 3C9.00004 3.00879 9 3.01758 9 3.02639C9 4.68094 10.3431 6.02222 12 6.02222Z" fill="black"/>
</svg>
