<svg xmlns="http://www.w3.org/2000/svg" width="24" height="24" viewBox="0 0 24 24" fill="none"><rect width="24" height="24" fill="none"/>
<path d="M21.6071 8.05041L15.9503 2.39355L13.735 4.60881L10.0516 6.02266C8.39179 6.65976 7.10001 8.00012 6.52461 9.68228L3.57568 18.3033L4.10687 18.8345L9.55278 13.3886C9.41919 12.8888 9.54846 12.3333 9.94059 11.9412C10.5256 11.3562 11.474 11.3562 12.059 11.9412C12.644 12.5262 12.644 13.4746 12.059 14.0596C11.6669 14.4516 11.1117 14.5809 10.6119 14.4475L5.1659 19.8935L5.69701 20.4246L14.3335 17.4674C16.001 16.8965 17.3331 15.6212 17.9762 13.9802L19.4576 10.1999L21.6071 8.05041Z" fill="black"/>
</svg>
