<svg xmlns="http://www.w3.org/2000/svg" width="24" height="24" viewBox="0 0 24 24" fill="none"><rect width="24" height="24" fill="none"/>
<path fill-rule="evenodd" clip-rule="evenodd" d="M3.58648 13C2.67245 13 2.23748 11.8749 2.91381 11.2601L10.9909 3.91731C11.563 3.39719 12.4368 3.39719 13.0089 3.91731L21.0859 11.2601C21.7623 11.8749 21.3273 13 20.4133 13H18.9999V19.5C18.9999 20.3285 18.3283 21 17.4999 21H6.49988C5.67145 21 4.99988 20.3285 4.99988 19.5V13H3.58648ZM15.9998 3.54478H17.9998V6.99986L15.9998 4.99986V3.54478ZM11.5732 9.69815L9.36781 13.307C8.11171 15.3624 9.59098 18 11.9998 18C14.4087 18 15.888 15.3624 14.6319 13.307L12.4265 9.69815C12.2315 9.37912 11.7682 9.37912 11.5732 9.69815Z" fill="#0B1F35"/>
</svg>
