<svg xmlns="http://www.w3.org/2000/svg" width="24" height="24" viewBox="0 0 24 24" fill="none"><rect width="24" height="24" fill="none"/>
<path d="M12 10C13.1046 10 14 10.8954 14 12C14 13.1046 13.1046 14 12 14C10.8954 14 10 13.1046 10 12C10 10.8954 10.8954 10 12 10Z" fill="#0B1F35"/>
<path fill-rule="evenodd" clip-rule="evenodd" d="M10.2807 1C9.36294 1 8.56298 1.62459 8.34039 2.51493L7.81978 4.59737C7.77266 4.62403 7.72582 4.65112 7.67927 4.67865L5.61535 4.08824C4.733 3.83583 3.7921 4.21633 3.33323 5.01111L1.61401 7.98889C1.15514 8.78367 1.29607 9.78876 1.95584 10.4267L3.50028 11.92C3.49979 11.9733 3.49979 12.0267 3.50028 12.0799L1.95578 13.5733C1.29602 14.2112 1.15508 15.2163 1.61395 16.0111L3.33318 18.9889C3.79204 19.7837 4.73294 20.1642 5.61528 19.9118L7.67926 19.3213C7.72581 19.3489 7.77266 19.376 7.81978 19.4026L8.34039 21.4851C8.56298 22.3754 9.36294 23 10.2807 23H13.7191C14.6369 23 15.4368 22.3754 15.6594 21.4851L16.18 19.4026C16.2271 19.376 16.274 19.3489 16.3205 19.3214L18.3845 19.9118C19.2668 20.1642 20.2077 19.7837 20.6666 18.9889L22.3858 16.0111C22.8447 15.2163 22.7037 14.2112 22.044 13.5733L20.4995 12.08C20.5 12.0267 20.5 11.9733 20.4995 11.92L22.0439 10.4267C22.7037 9.78876 22.8446 8.78367 22.3857 7.98889L20.6665 5.01111C20.2076 4.21633 19.2667 3.83583 18.3844 4.08824L16.3205 4.67863C16.274 4.65111 16.2271 4.62402 16.18 4.59736L15.6594 2.51493C15.4368 1.62459 14.6369 1 13.7191 1H10.2807ZM10.2807 3L13.7191 3L14.3478 5.51453C14.419 5.79935 14.6117 6.03848 14.8749 6.16853C15.1298 6.29446 15.3753 6.43668 15.6102 6.59386C15.8546 6.75746 16.1586 6.80516 16.4414 6.72427L18.9345 6.01111L20.6537 8.98889L18.7891 10.7918C18.5781 10.9958 18.4674 11.2821 18.4863 11.575C18.4953 11.7153 18.4999 11.8571 18.4999 12C18.4999 12.1429 18.4953 12.2846 18.4863 12.425C18.4674 12.7178 18.5781 13.0042 18.7891 13.2082L20.6537 15.0111L18.9345 17.9889L16.4414 17.2757C16.1587 17.1948 15.8546 17.2425 15.6102 17.4061C15.3753 17.5633 15.1298 17.7055 14.8749 17.8315C14.6117 17.9615 14.419 18.2007 14.3478 18.4855L13.7191 21L10.2807 21L9.65204 18.4855C9.58084 18.2006 9.38808 17.9615 9.12489 17.8315C8.87001 17.7055 8.62446 17.5633 8.38963 17.4061C8.1452 17.2425 7.84114 17.1948 7.55836 17.2757L5.06523 17.9889L3.346 15.0111L5.21072 13.2081C5.42168 13.0041 5.53239 12.7178 5.51354 12.4249C5.5045 12.2846 5.49991 12.1429 5.49991 12C5.49991 11.8571 5.50451 11.7154 5.51354 11.575C5.5324 11.2822 5.42168 10.9958 5.21072 10.7919L3.34606 8.98889L5.06529 6.01111L7.55838 6.72428C7.84116 6.80518 8.14522 6.75748 8.38964 6.59387C8.62447 6.43669 8.87001 6.29447 9.12488 6.16854C9.38808 6.03849 9.58084 5.79935 9.65204 5.51454L10.2807 3Z" fill="#0B1F35"/>
</svg>
