<svg xmlns="http://www.w3.org/2000/svg" width="24" height="24" viewBox="0 0 24 24" fill="none"><rect width="24" height="24" fill="none"/>
<path fill-rule="evenodd" clip-rule="evenodd" d="M19.6421 17.0789L5.29056 2.72726L12.4714 2.73144C14.0986 2.73144 15.3701 4.13612 15.2082 5.75495L15.0745 7.09161C15.063 7.20686 15.16 7.30379 15.2752 7.29226L16.6122 7.15859C18.2314 6.9967 19.6364 8.26794 19.6364 9.89481L19.6421 17.0789ZM17.7273 10.3636C17.7273 10.9661 17.2389 11.4545 16.6364 11.4545C16.0339 11.4545 15.5455 10.9661 15.5455 10.3636C15.5455 9.76112 16.0339 9.27272 16.6364 9.27272C17.2389 9.27272 17.7273 9.76112 17.7273 10.3636Z" fill="black"/>
<path fill-rule="evenodd" clip-rule="evenodd" d="M20.0108 22.8495L21.361 21.4994L2.7462 2.88464L1.39612 4.23472L4.36036 7.19899L4.36366 20.3561C4.36366 20.8623 4.77415 21.2727 5.28049 21.2727L18.4341 21.2727L20.0108 22.8495ZM9.1488 15.9172L11.1137 13.9523L16.525 19.3636L6.27275 19.3637V16.6482L7.64427 15.2767C7.87385 15.0471 8.24506 15.0439 8.47852 15.2695L9.1488 15.9172Z" fill="black"/>
</svg>
