<svg xmlns="http://www.w3.org/2000/svg" width="24" height="24" viewBox="0 0 24 24" fill="none"><rect width="24" height="24" fill="none"/>
<path d="M17 20.6603C18.5202 19.7826 19.7826 18.5202 20.6603 17L12 12V2C10.2446 2 8.52019 2.46206 7 3.33975C5.47981 4.21743 4.21743 5.47981 3.33975 7C2.46206 8.52019 2 10.2446 2 12C2 13.7554 2.46206 15.4798 3.33975 17C4.21743 18.5202 5.47981 19.7826 7 20.6603C8.52019 21.5379 10.2446 22 12 22C13.7554 22 15.4798 21.5379 17 20.6603Z" fill="black"/>
<path d="M14 4.25207V2.20007C18.5645 3.12661 22 7.16212 22 12C22 13.1074 21.82 14.1727 21.4877 15.1684L19.71 14.142C19.899 13.4603 20 12.742 20 12C20 8.27236 17.4505 5.14016 14 4.25207Z" fill="black"/>
</svg>
