<svg width="24" height="25" viewBox="0 0 24 25" fill="none" xmlns="http://www.w3.org/2000/svg">
<path d="M17 13.5C17 12.9477 17.4477 12.5 18 12.5H20C20.5523 12.5 21 12.9477 21 13.5V22.5H17V13.5Z" fill="#0B1F35"/>
<path d="M10 16.5C10 15.9477 10.4477 15.5 11 15.5H13C13.5523 15.5 14 15.9477 14 16.5V22.5H10V16.5Z" fill="#0B1F35"/>
<path d="M4 18.5C3.44772 18.5 3 18.9477 3 19.5V22.5H7V19.5C7 18.9477 6.55228 18.5 6 18.5H4Z" fill="#0B1F35"/>
<path d="M21 2.5H13V4.5H17.2481C13.5738 8.62097 8.76118 10.7498 3 10.7498V13.2498C9.40647 13.2498 14.8591 10.8673 19 6.29073V10.5H21V2.5Z" fill="#0B1F35"/>
</svg>
