<svg xmlns="http://www.w3.org/2000/svg" width="24" height="24" viewBox="0 0 24 24" fill="none"><rect width="24" height="24" fill="none"/>
<path d="M3 12C3 12.5523 3.44772 13 4 13H15C15.5523 13 16 12.5523 16 12C16 11.4477 15.5523 11 15 11H4C3.44772 11 3 11.4477 3 12ZM4 6C3.44772 6 3 6.44772 3 7C3 7.55228 3.44772 8 4 8H20C20.5523 8 21 7.55228 21 7C21 6.44772 20.5523 6 20 6H4ZM3 17C3 17.5523 3.44772 18 4 18H10C10.5523 18 11 17.5523 11 17C11 16.4477 10.5523 16 10 16H4C3.44772 16 3 16.4477 3 17Z" fill="#0B1F35"/>
</svg>
