<svg xmlns="http://www.w3.org/2000/svg" width="24" height="24" viewBox="0 0 24 24" fill="none"><rect width="24" height="24" fill="none"/>
<path fill-rule="evenodd" clip-rule="evenodd" d="M23.5001 9.49993C21.9899 7.98972 20.197 6.79176 18.2238 5.97444C16.2507 5.15712 14.1358 4.73645 12.0001 4.73645C9.8643 4.73645 7.74946 5.15712 5.77627 5.97444C3.80309 6.79176 2.01021 7.98972 0.5 9.49993L2.86362 11.8636C7.90949 6.81781 16.0904 6.81784 21.1362 11.8637C21.1362 11.8637 21.1362 11.8637 21.1363 11.8638L23.5001 9.49993ZM19.8635 13.1366C19.8635 13.1365 19.8634 13.1365 19.8634 13.1365C15.5205 8.79358 8.47934 8.79354 4.13641 13.1363L6.36362 15.3635C9.47649 12.2508 14.5234 12.2508 17.6362 15.3637L17.6363 15.3638L19.8635 13.1366ZM13.0607 19.9393L16.3635 16.6366L16.3634 16.6364C13.9535 14.2266 10.0463 14.2265 7.63641 16.6363L10.9394 19.9393C11.5252 20.5251 12.4749 20.5251 13.0607 19.9393Z" fill="#0B1F35"/>
</svg>
