<svg xmlns="http://www.w3.org/2000/svg" width="24" height="24" viewBox="0 0 24 24" fill="none"><rect width="24" height="24" fill="none"/>
<path fill-rule="evenodd" clip-rule="evenodd" d="M14.5001 2C14.9305 2 15.3126 2.27543 15.4487 2.68377L15.8171 4.23152C15.9243 4.68204 16.3423 4.97511 16.7699 5.15291C17.4923 5.4533 18 6.16408 18 6.99581L18 17.0007C18 17.8324 17.4924 18.5451 16.77 18.8465C16.3425 19.0249 15.9244 19.3182 15.8173 19.7688L15.4487 21.3201C15.3126 21.7285 14.9305 22.0039 14.5001 22.0039H9.5C9.06957 22.0039 8.68743 21.7285 8.55131 21.3201L8.1827 19.7688C8.07561 19.3181 7.65749 19.0249 7.23002 18.8464C6.50768 18.5448 6.00002 17.8317 6.00002 17L6 7C6 6.1682 6.50779 5.455 7.23029 5.15348C7.65765 4.97513 8.07568 4.68205 8.18291 4.23155L8.55131 2.68377C8.68743 2.27543 9.06957 2 9.5 2H14.5001ZM16 8C16 7.44772 15.5523 7 15 7L9 7C8.44772 7 8 7.44772 8 8L8 16C8 16.5523 8.44772 17 9 17H15C15.5523 17 16 16.5523 16 16V8Z" fill="black"/>
</svg>
