<svg xmlns="http://www.w3.org/2000/svg" width="24" height="24" viewBox="0 0 24 24" fill="none"><rect width="24" height="24" fill="none"/>
<path fill-rule="evenodd" clip-rule="evenodd" d="M3 4C3 3.44772 3.44772 3 4 3H11V11H3V4ZM6 6V8H8V6H6Z" fill="#0B1F35"/>
<path fill-rule="evenodd" clip-rule="evenodd" d="M20 3H13V11H21V4C21 3.44772 20.5523 3 20 3ZM16 6V8H18V6H16Z" fill="#0B1F35"/>
<path fill-rule="evenodd" clip-rule="evenodd" d="M11 13H3V20C3 20.5523 3.44772 21 4 21H11V13ZM6 16V18H8V16H6Z" fill="#0B1F35"/>
<path fill-rule="evenodd" clip-rule="evenodd" d="M17 13H13V15H17V17H13V21H15V19H17V21H20C20.5523 21 21 20.5523 21 20V17H19V15H21V13H19V15H17V13ZM19 19H17V17H19V19Z" fill="#0B1F35"/>
</svg>
