<svg xmlns="http://www.w3.org/2000/svg" width="24" height="24" viewBox="0 0 24 24" fill="none"><rect width="24" height="24" fill="none"/>
<path fill-rule="evenodd" clip-rule="evenodd" d="M12.7798 3.62986C14.5397 1.87001 17.393 1.86995 19.153 3.62974C20.9131 5.38968 20.9131 8.24327 19.1531 10.0033L11.7322 17.4239C10.676 18.4802 8.96352 18.4802 7.9072 17.4241C6.85074 16.3678 6.85067 14.6551 7.90703 13.5987L14.812 6.69372L16.0848 7.96651L9.17983 14.8715C8.82645 15.2249 8.82647 15.7978 9.17988 16.1512C9.53325 16.5045 10.1061 16.5045 10.4594 16.1511L17.8803 8.73047C18.9374 7.67343 18.9373 5.9596 17.8802 4.9026C16.8232 3.84569 15.1096 3.84572 14.0526 4.90267L6.63842 12.3167C4.87324 14.0818 4.87323 16.9437 6.6384 18.7089C8.40354 20.474 11.2654 20.474 13.0305 18.7089L16.1239 15.6156C17.3498 14.3896 18.8443 13.466 20.4891 12.9177L21.0583 14.6254C19.6787 15.0852 18.425 15.86 17.3967 16.8884L14.3033 19.9817C11.8352 22.4498 7.83369 22.4497 5.36561 19.9817C2.89749 17.5136 2.8975 13.512 5.36564 11.0439L12.7798 3.62986Z" fill="black"/>
</svg>
