<svg xmlns="http://www.w3.org/2000/svg" width="18" height="18" viewBox="0 0 18 18" fill="none"><rect width="18" height="18" fill="none"/>
<path d="M10.5329 5.86459L11.9337 4.46372C12.5893 3.80813 13.416 3.34997 14.3194 3.1415C14.6432 3.06676 14.9334 3.35698 14.8587 3.68082C14.6502 4.58421 14.1921 5.41084 13.5365 6.06643L12.1356 7.4673L13.2771 13.7456C13.4198 14.5301 12.6984 14.7646 12.106 14.9572C12.0616 14.9716 12.0179 14.9859 11.9753 15L9.25067 10.3522L7.48767 12.1152L7.58385 13.5582C7.62224 14.134 7.29305 14.6713 6.76265 14.8986L6.52602 15L5.22626 12.7739L3 11.4741L3.10143 11.2375C3.32874 10.7071 3.86607 10.3779 4.44187 10.4163L5.88493 10.5124L7.64793 8.74947L3 6.02486C3.01419 5.9823 3.0284 5.93859 3.04285 5.89415C3.23546 5.30174 3.46998 4.58042 4.25446 4.72309L10.5329 5.86459Z" fill="#121212"/>
</svg>
