<svg xmlns="http://www.w3.org/2000/svg" width="24" height="24" viewBox="0 0 24 24" fill="none"><rect width="24" height="24" fill="none"/>
<path d="M16.8772 18H22L22 22L2 22L2 18H10.1228L13.5 20.4823L16.8772 18Z" fill="black"/>
<path fill-rule="evenodd" clip-rule="evenodd" d="M20 13.2225V3.00089C20 1.89604 19.1044 1.0005 17.9995 1.00068C15.7318 1.00105 13.2727 1.00085 10.922 1.00066C10.2708 1.00061 9.62795 1.00056 8.99974 1.00052C7.89518 1.00045 7 1.89588 7 3.00044L7 13.2225L13.4998 18L20 13.2225ZM13.5 9.50003C14.6046 9.50003 15.5 8.6046 15.5 7.50003C15.5 6.39546 14.6046 5.50003 13.5 5.50003C12.3954 5.50003 11.5 6.39546 11.5 7.50003C11.5 8.6046 12.3954 9.50003 13.5 9.50003Z" fill="black"/>
</svg>
