<svg xmlns="http://www.w3.org/2000/svg" width="24" height="24" viewBox="0 0 24 24" fill="none"><rect width="24" height="24" fill="none"/>
<path d="M4 16.9998C3.44772 16.9998 3 17.4475 3 17.9998V19.9998C3 20.552 3.44772 20.9998 4 20.9998H10C10.5523 20.9998 11 20.552 11 19.9998V17.9998C11 17.4475 10.5523 16.9998 10 16.9998H4Z" fill="black"/>
<path d="M4 2.99976C3.44772 2.99976 3 3.44747 3 3.99976V13.9998C3 14.552 3.44772 14.9998 4 14.9998H10C10.5523 14.9998 11 14.552 11 13.9998V3.99976C11 3.44747 10.5523 2.99976 10 2.99976H4Z" fill="black"/>
<path d="M13 9.99976C13 10.552 13.4477 10.9998 14 10.9998H20C20.5523 10.9998 21 10.552 21 9.99976V3.99976C21 3.44747 20.5523 2.99976 20 2.99976H14C13.4477 2.99976 13 3.44747 13 3.99976V9.99976Z" fill="black"/>
<path d="M14 20.9998C13.4477 20.9998 13 20.552 13 19.9998V13.9998C13 13.4475 13.4477 12.9998 14 12.9998H20C20.5523 12.9998 21 13.4475 21 13.9998V19.9998C21 20.552 20.5523 20.9998 20 20.9998H14Z" fill="black"/>
</svg>
