<svg xmlns="http://www.w3.org/2000/svg" width="24" height="24" viewBox="0 0 24 24" fill="none"><rect width="24" height="24" fill="none"/>
<path fill-rule="evenodd" clip-rule="evenodd" d="M9.18691 5.37567C8.48929 6.21281 8.14048 6.63138 8.13515 6.98488C8.13052 7.2922 8.26746 7.58457 8.50651 7.77775C8.78149 7.99996 9.32635 7.99996 10.4161 7.99996H13.5839C14.6736 7.99996 15.2185 7.99996 15.4935 7.77775C15.7325 7.58457 15.8695 7.2922 15.8648 6.98488C15.8595 6.63138 15.5107 6.21281 14.8131 5.37567L13.2292 3.47495C12.807 2.96841 12.596 2.71514 12.3433 2.62278C12.1216 2.54175 11.8784 2.54175 11.6567 2.62278C11.404 2.71514 11.193 2.96841 10.7708 3.47495L9.18691 5.37567Z" fill="#0B1F35"/>
<path fill-rule="evenodd" clip-rule="evenodd" d="M9.18691 18.6243C8.48929 17.7871 8.14048 17.3685 8.13515 17.015C8.13052 16.7077 8.26746 16.4154 8.50651 16.2222C8.78149 16 9.32635 16 10.4161 16H13.5839C14.6736 16 15.2185 16 15.4935 16.2222C15.7325 16.4154 15.8695 16.7077 15.8648 17.015C15.8595 17.3685 15.5107 17.7871 14.8131 18.6243L13.2292 20.525C12.807 21.0315 12.596 21.2848 12.3433 21.3771C12.1216 21.4582 11.8784 21.4582 11.6567 21.3771C11.404 21.2848 11.193 21.0315 10.7708 20.525L9.18691 18.6243Z" fill="#0B1F35"/>
</svg>
