<svg xmlns="http://www.w3.org/2000/svg" width="24" height="24" viewBox="0 0 24 24" fill="none"><rect width="24" height="24" fill="none"/>
<path d="M15.9999 1C16.7429 1.56719 17.1789 2.44846 17.1789 3.38323V3.77102L22.3926 7.19677C22.3926 7.19677 22.3926 7.5 22.3926 8C21 11 17.1972 10.7824 15.8634 9.99999L12.2509 7.27571L15.9999 1Z" fill="black"/>
<path d="M1.99959 7.02434L2.99984 11L1.99951 20.1164H4.37707C4.9751 20.1164 5.43942 19.595 5.37039 19.001L5.13788 17H13.5V20H17C17 19.3753 16.6878 18.7918 16.168 18.4453L15.5 18L16.4999 12.5L10.9999 8L5.33293 9.99999L3.03149 7.02434H1.99959Z" fill="black"/>
</svg>
