<svg xmlns="http://www.w3.org/2000/svg" width="24" height="24" viewBox="0 0 24 24" fill="none"><rect width="24" height="24" fill="none"/>
<path fill-rule="evenodd" clip-rule="evenodd" d="M14.823 21.5958C18.9711 20.3773 21.9998 16.5423 21.9998 11.9999C21.9998 6.47711 17.5227 2 11.9999 2C6.71068 2 2.38056 6.10645 2.02378 11.3051C3.0177 10.6387 4.21344 10.25 5.49997 10.25C8.9518 10.25 11.75 13.0483 11.75 16.5001C11.75 17.1074 11.6629 17.6959 11.5003 18.253L14.833 21.5857L14.823 21.5958ZM19.9998 11.9999C19.9998 7.70933 16.6221 4.20766 12.3807 4.0089L12.8557 5.19082C12.9544 5.43641 13.0012 5.69243 13 5.94536C12.9971 6.55775 12.7126 7.15206 12.1999 7.53655L11.6558 7.94465C10.8963 8.51427 10.3675 9.53931 10.7726 10.3979L11.3327 11.5854C11.7247 12.4165 12.6327 12.8735 13.5338 12.6932L16.4401 12.0387C16.562 12.0143 16.6853 12.0015 16.8086 12C17.0553 11.9971 17.3016 12.0398 17.5346 12.1272L19.9282 13.0754C19.9754 12.7236 19.9998 12.3646 19.9998 11.9999Z" fill="black"/>
<path fill-rule="evenodd" clip-rule="evenodd" d="M7.74999 16.5001C7.74999 17.7427 6.7426 18.7501 5.49993 18.7501C4.25726 18.7501 3.24988 17.7427 3.24988 16.5001C3.24988 15.2574 4.25728 14.25 5.49997 14.25C6.74262 14.25 7.74999 15.2574 7.74999 16.5001ZM7.71709 20.1267C7.07161 20.5221 6.31239 20.7501 5.49993 20.7501C3.15269 20.7501 1.24988 18.8473 1.24988 16.5001C1.24988 14.1528 3.15273 12.25 5.49997 12.25C7.84721 12.25 9.74999 14.1528 9.74999 16.5001C9.74999 17.31 9.5234 18.0671 9.13016 18.7113L12.0046 21.5857L10.5904 23L7.71709 20.1267Z" fill="black"/>
</svg>
