<svg xmlns="http://www.w3.org/2000/svg" width="24" height="24" viewBox="0 0 24 24" fill="none"><rect width="24" height="24" fill="none"/>
<path d="M15.5 12.5C15.5 14.433 13.933 16 12 16C10.067 16 8.5 14.433 8.5 12.5C8.5 10.567 10.067 9 12 9C13.933 9 15.5 10.567 15.5 12.5Z" fill="black"/>
<path d="M7 12.5C7 14.433 5.433 16 3.5 16C1.567 16 0 14.433 0 12.5C0 10.567 1.567 9 3.5 9C5.433 9 7 10.567 7 12.5Z" fill="black"/>
<path d="M24 12.5C24 14.433 22.433 16 20.5 16C18.567 16 17 14.433 17 12.5C17 10.567 18.567 9 20.5 9C22.433 9 24 10.567 24 12.5Z" fill="black"/>
</svg>
