<svg xmlns="http://www.w3.org/2000/svg" width="24" height="24" viewBox="0 0 24 24" fill="none"><rect width="24" height="24" fill="none"/>
<path d="M2 10L8.47988 2.56348L9.98777 3.87736L4.65279 10.0001H19.3472L14.0122 3.87739L15.5201 2.56351L21.9999 10.0001L21.4175 13.8809C20.827 13.6355 20.1793 13.5 19.5 13.5C16.7386 13.5 14.5 15.7386 14.5 18.5C14.5 19.4107 14.7435 20.2647 15.1689 21.0001H5.37326C4.38334 21.0001 3.54235 20.2759 3.39541 19.297L2 10Z" fill="black"/>
<path d="M18.0858 18.5L16.6715 19.9142L18.0858 21.3284L19.5 19.9142L20.9142 21.3284L22.3284 19.9142L20.9142 18.5L22.3284 17.0858L20.9142 15.6716L19.5 17.0858L18.0858 15.6716L16.6715 17.0858L18.0858 18.5Z" fill="black"/>
</svg>
