<svg xmlns="http://www.w3.org/2000/svg" width="24" height="24" viewBox="0 0 24 24" fill="none"><rect width="24" height="24" fill="none"/>
<path fill-rule="evenodd" clip-rule="evenodd" d="M12 22C17.5228 22 22 17.5228 22 12C22 6.47715 17.5228 2 12 2C6.47715 2 2 6.47715 2 12C2 17.5228 6.47715 22 12 22ZM16.6276 11.6915L15.7694 12.5496L14.6704 11.4505L15.5284 10.5924C16.0847 10.0361 16.0847 9.13422 15.5284 8.57795L15.4221 8.47158C14.8658 7.91531 13.964 7.91531 13.4077 8.47158L11.6914 10.1879C11.1352 10.7442 11.1352 11.646 11.6914 12.2023L11.7978 12.3087C11.9206 12.4315 12.0602 12.5272 12.2093 12.5958L11.0768 13.7283C10.9442 13.6336 10.8177 13.5268 10.6987 13.4078L10.5923 13.3014C9.42905 12.1381 9.42905 10.2521 10.5923 9.08879L12.3086 7.37246C13.4719 6.20918 15.3579 6.20918 16.5212 7.37247L16.6276 7.47884C17.7908 8.64212 17.7908 10.5282 16.6276 11.6915ZM7.37245 12.3085L8.23056 11.4504L9.32966 12.5495L8.47155 13.4076C7.91529 13.9639 7.91529 14.8658 8.47155 15.422L8.57792 15.5284C9.13418 16.0847 10.036 16.0847 10.5923 15.5284L12.3086 13.8121C12.8648 13.2558 12.8648 12.354 12.3086 11.7977L12.2022 11.6913C12.0794 11.5685 11.9397 11.4728 11.7907 11.4042L12.9232 10.2717C13.0558 10.3664 13.1823 10.4732 13.3014 10.5922L13.4077 10.6986C14.571 11.8619 14.571 13.748 13.4077 14.9112L11.6914 16.6275C10.5281 17.7908 8.64209 17.7908 7.47883 16.6275L7.37245 16.5211C6.20918 15.3579 6.20918 13.4718 7.37245 12.3085Z" fill="black"/>
</svg>
