<svg xmlns="http://www.w3.org/2000/svg" width="24" height="24" viewBox="0 0 24 24" fill="none"><rect width="24" height="24" fill="none"/>
<path d="M5.01012 1.12339C5.54533 0.987132 6 1.44767 6 1.99996C6 2.55224 5.52548 2.97923 5.04103 3.24443C4.42067 3.58402 4 4.24286 4 4.99996V8.99996C4 9.75705 4.42067 10.4159 5.04103 10.7555C5.52548 11.0207 6 11.4477 6 12C6 12.5522 5.54533 13.0128 5.01012 12.8765C3.27976 12.436 2 10.8674 2 8.99996V4.99996C2 3.13248 3.27976 1.5639 5.01012 1.12339Z" fill="black"/>
<path d="M18 12C18 11.4477 18.4745 11.0207 18.959 10.7555C19.5793 10.4159 20 9.75705 20 8.99996V4.99996C20 4.24286 19.5793 3.58402 18.959 3.24443C18.4745 2.97924 18 2.55224 18 1.99996C18 1.44767 18.4547 0.987132 18.9899 1.12339C20.7202 1.5639 22 3.13248 22 4.99996V8.99996C22 10.8674 20.7202 12.436 18.9899 12.8765C18.4547 13.0128 18 12.5522 18 12Z" fill="black"/>
<path d="M16 7.5C16 5.0237 15 2.5 12 2.5C8.99999 2.5 7.99999 4.97747 7.99999 7.5C7.99999 10.0225 9.77251 12 12 12C14.2275 12 16 9.9763 16 7.5Z" fill="black"/>
<path d="M21 20V22H3V20C3.05899 19.1299 3.45203 18.6104 4.05402 17.9794C5.32062 16.6517 7.9917 15 12 15C16.3924 15 18.9748 16.756 20.1082 18.0733C20.6051 18.6508 20.9485 19.24 21 20Z" fill="black"/>
</svg>
