<svg xmlns="http://www.w3.org/2000/svg" width="24" height="24" viewBox="0 0 24 24" fill="none"><rect width="24" height="24" fill="none"/>
<path d="M11.0633 3.50495C11.3873 2.6386 12.6127 2.6386 12.9367 3.50495L14.7306 8.30264C14.8712 8.67849 15.2228 8.93393 15.6236 8.95145L20.7409 9.17505C21.6649 9.21543 22.0436 10.3809 21.3198 10.9567L17.3113 14.1454C16.9972 14.3952 16.8629 14.8085 16.9702 15.1952L18.3388 20.1311C18.586 21.0224 17.5946 21.7427 16.8233 21.2322L12.5519 18.4053C12.2173 18.1838 11.7827 18.1838 11.4481 18.4053L7.17672 21.2322C6.40541 21.7427 5.41402 21.0224 5.66117 20.1311L7.02983 15.1952C7.13705 14.8085 7.00275 14.3952 6.68873 14.1454L2.68022 10.9567C1.95638 10.3809 2.33505 9.21543 3.2591 9.17505L8.37635 8.95145C8.77723 8.93393 9.12882 8.67849 9.26936 8.30264L11.0633 3.50495Z" fill="black"/>
</svg>
