<svg xmlns="http://www.w3.org/2000/svg" width="24" height="24" viewBox="0 0 24 24" fill="none"><rect width="24" height="24" fill="none"/>
<path fill-rule="evenodd" clip-rule="evenodd" d="M2 21C2 22.1046 2.89543 23 4 23H15C16.1046 23 17 22.1046 17 21V17L2 17L2 21ZM7 19H4L4 20.5H7L7 19Z" fill="#0B1F35"/>
<path d="M2 15L17 15V14C17 12.8954 16.1046 12 15 12L4 12C2.89543 12 2 12.8954 2 14L2 15Z" fill="#0B1F35"/>
<path d="M19 19H20.9999C21.5522 19 21.9999 18.5523 21.9999 18V9.13996C21.9999 7.3651 20.4675 5.97825 18.7014 6.15485L17.7499 6.25L17.8451 5.29851C18.0217 3.53246 16.6348 2 14.86 2L9.39993 2C8.84765 2 8.39993 2.44772 8.39993 3L8.39993 10L15 10C17.2091 10 19 11.7909 19 14V19Z" fill="#0B1F35"/>
</svg>
