<svg xmlns="http://www.w3.org/2000/svg" width="24" height="24" viewBox="0 0 24 24" fill="none"><rect width="24" height="24" fill="none"/>
<path fill-rule="evenodd" clip-rule="evenodd" d="M5.52314 3.99689L7.94943 8.7301C9.50262 11.7601 7.58203 15 4.49951 15C2.19183 15 0.535272 13.1842 0.5 11C0.488157 10.2666 0.659171 9.49173 1.04959 8.7301L4.49951 2C9.49953 2 14.4995 2.00003 19.4995 2.00003L22.9494 8.7301C24.4056 11.5707 22.8085 14.5958 20.0633 14.9629C19.8803 14.9873 19.6922 15 19.4995 15C17.1918 15 15.5353 13.1842 15.5 11C15.4882 10.2666 15.6592 9.49173 16.0496 8.7301L18.4726 4.00331L12.9994 3.99689C12.9994 11 13.5 16 16.0496 21H7.9995C10.5 16 10.9995 11 10.9994 3.99689H5.52314ZM4.49951 6.38434L2.82938 9.64244C2.58155 10.1259 2.48017 10.5851 2.4907 11H6.50833C6.51885 10.5851 6.41747 10.1259 6.16964 9.64243L4.49951 6.38434ZM17.8294 9.64244L19.4995 6.38434L21.1696 9.64243C21.4175 10.1259 21.5188 10.5851 21.5083 11H17.4907C17.4802 10.5851 17.5816 10.1259 17.8294 9.64244Z" fill="black"/>
</svg>
