<svg xmlns="http://www.w3.org/2000/svg" width="24" height="24" viewBox="0 0 24 24" fill="none"><rect width="24" height="24" fill="none"/>
<path d="M11 7.35082C11 7.8071 10.6842 8.19386 10.2727 8.39114C8.92833 9.03575 8 10.4095 8 12C8 14.2091 9.79086 16 12 16C12.8152 16 13.5735 15.7561 14.2058 15.3373C14.586 15.0855 15.0798 15.0141 15.4708 15.2487L19.0692 17.4077C19.577 17.7124 19.7128 18.3927 19.3086 18.8254C17.4835 20.7789 14.8843 22 12 22C6.47715 22 2 17.5229 2 12C2 7.19429 5.38994 3.18034 9.909 2.21896C10.4874 2.09591 11 2.56225 11 3.15359V7.35082Z" fill="black"/>
<path d="M13 7.35082C13 7.8071 13.3158 8.19386 13.7273 8.39114C15.0717 9.03575 16 10.4095 16 12C16 12.127 15.9941 12.2526 15.9825 12.3765C15.9401 12.8304 16.1095 13.2995 16.5004 13.5341L20.1011 15.6945C20.6084 15.9988 21.272 15.7994 21.4636 15.2397C21.8113 14.2237 22 13.1339 22 12C22 7.19429 18.6101 3.18034 14.091 2.21896C13.5126 2.09591 13 2.56224 13 3.15358V7.35082Z" fill="black"/>
</svg>
