<svg xmlns="http://www.w3.org/2000/svg" width="24" height="24" viewBox="0 0 24 24" fill="none"><rect width="24" height="24" fill="none"/>
<path fill-rule="evenodd" clip-rule="evenodd" d="M12 16C8.76305 16 6.65733 17.4968 5.6996 18.6261C5.2233 19.1878 5.03755 19.5011 5 20.0325V21H19V20.0329C18.9651 19.5534 18.7775 19.1574 18.413 18.6809C17.5844 17.5975 15.5763 16 12 16ZM4.17422 17.3326C5.46822 15.8067 8.11108 14 12 14C16.2323 14 18.8152 15.9146 20.0016 17.4658C20.5521 18.1855 21 19.0725 21 20V22C21 22.5523 20.5523 23 20 23H4C3.44772 23 3 22.5523 3 22V20C3 18.9753 3.53373 18.0879 4.17422 17.3326Z" fill="#0B1F35"/>
<path fill-rule="evenodd" clip-rule="evenodd" d="M10.0869 4.87927C9.69937 5.43697 9.5 6.26117 9.5 7.21053C9.5 8.85628 10.6743 10 12 10C13.3193 10 14.5 8.8243 14.5 7.21053C14.5 6.28348 14.3017 5.45663 13.9115 4.89149C13.5586 4.38045 12.997 4 12 4C10.996 4 10.4362 4.37641 10.0869 4.87927ZM8.44439 3.73809C9.18875 2.66674 10.379 2 12 2C13.628 2 14.8164 2.68216 15.5573 3.75506C16.2608 4.77386 16.5 6.05227 16.5 7.21053C16.5 9.76736 14.5788 12 12 12C9.42764 12 7.5 9.81324 7.5 7.21053C7.5 6.03565 7.73813 4.75459 8.44439 3.73809Z" fill="#0B1F35"/>
</svg>
