<svg xmlns="http://www.w3.org/2000/svg" width="24" height="24" viewBox="0 0 24 24" fill="none"><rect width="24" height="24" fill="none"/>
<path d="M13 1H11V3.06694C9.38008 3.28484 7.86539 4.028 6.6967 5.1967C5.40849 6.4849 4.6373 8.19348 4.51667 10H3V12H21V10H19.4833C19.3627 8.19348 18.5915 6.4849 17.3033 5.1967C16.1346 4.028 14.6199 3.28484 13 3.06694V1Z" fill="black"/>
<path d="M11.6914 13.7334L16.8173 14.1088C18.9075 14.2619 20.5252 16.0026 20.5252 18.0984V19.5659L20.5254 19.6267V22.6267C12.8481 22.6267 5.86581 18.9884 3.97927 17.9189C3.6639 17.7402 3.48047 17.4062 3.48047 17.0437C3.48047 16.339 4.16407 15.8223 4.85056 15.9816C6.80962 16.4362 10.6238 17.1319 14.6678 16.8354L11.3087 15.8569C10.8457 15.722 10.5273 15.2976 10.5274 14.8153C10.5274 14.185 11.0628 13.6874 11.6914 13.7334Z" fill="black"/>
</svg>
