<svg xmlns="http://www.w3.org/2000/svg" width="24" height="24" viewBox="0 0 24 24" fill="none"><rect width="24" height="24" fill="none"/>
<path d="M11 7.20349C11 7.66437 10.6842 8.05502 10.2727 8.25428C8.92833 8.90538 8 10.2929 8 11.8994C8 14.1308 9.79086 15.9397 12 15.9397C12.8152 15.9397 13.5735 15.6933 14.2058 15.2703C14.586 15.016 15.0798 14.9438 15.4708 15.1808L19.0692 17.3616C19.577 17.6693 19.7128 18.3564 19.3086 18.7934C17.4835 20.7666 14.8843 22 12 22C6.47715 22 2 17.4778 2 11.8994C2 7.0454 5.38994 2.99108 9.909 2.02003C10.4874 1.89574 11 2.36677 11 2.96406V7.20349Z" fill="black"/>
<path d="M13 7.20349C13 7.66437 13.3158 8.05502 13.7273 8.25428C15.0717 8.90538 16 10.2929 16 11.8994C16 12.0277 15.9941 12.1545 15.9825 12.2797C15.9401 12.7382 16.1095 13.212 16.5004 13.4489L20.1011 15.6311C20.6084 15.9385 21.272 15.737 21.4636 15.1717C21.8113 14.1455 22 13.0447 22 11.8994C22 7.0454 18.6101 2.99108 14.091 2.02003C13.5126 1.89574 13 2.36677 13 2.96406V7.20349Z" fill="black"/>
</svg>
