<svg xmlns="http://www.w3.org/2000/svg" width="24" height="24" viewBox="0 0 24 24" fill="none"><rect width="24" height="24" fill="none"/>
<path fill-rule="evenodd" clip-rule="evenodd" d="M13 3.73244C13.5978 3.38663 14 2.74028 14 2C14 0.895431 13.1046 0 12 0C10.8954 0 10 0.895431 10 2C10 2.74028 10.4022 3.38663 11 3.73244V6H6C4.89543 6 4 6.89543 4 8V12H3V11C3 10.4477 2.55228 10 2 10C1.44772 10 1 10.4477 1 11V15C1 15.5523 1.44772 16 2 16C2.55228 16 3 15.5523 3 15V14H4V18C4 19.1046 4.89543 20 6 20H18C19.1046 20 20 19.1046 20 18V14H21V15C21 15.5523 21.4477 16 22 16C22.5523 16 23 15.5523 23 15V11C23 10.4477 22.5523 10 22 10C21.4477 10 21 10.4477 21 11V12H20V8C20 6.89543 19.1046 6 18 6H13V3.73244ZM8.5 12C9.32843 12 10 11.3284 10 10.5C10 9.67157 9.32843 9 8.5 9C7.67157 9 7 9.67157 7 10.5C7 11.3284 7.67157 12 8.5 12ZM17 10.5C17 11.3284 16.3284 12 15.5 12C14.6716 12 14 11.3284 14 10.5C14 9.67157 14.6716 9 15.5 9C16.3284 9 17 9.67157 17 10.5ZM9 15C8.44772 15 8 15.4477 8 16C8 16.5523 8.44772 17 9 17H15C15.5523 17 16 16.5523 16 16C16 15.4477 15.5523 15 15 15H9Z" fill="black"/>
</svg>
