<svg xmlns="http://www.w3.org/2000/svg" width="24" height="24" viewBox="0 0 24 24" fill="none"><rect width="24" height="24" fill="none"/>
<path d="M2.00213 4.60297C1.95801 4.08048 2.60937 3.79916 2.96837 4.18565L7.44003 8.99967L11.5947 3.2C11.696 3.06667 11.848 3 12 3C12.152 3 12.304 3.06667 12.4053 3.2L16.56 8.99967L21.0316 4.18565C21.3906 3.79916 22.042 4.08048 21.9979 4.60297L21 14.9997H3L2.00213 4.60297Z" fill="black"/>
<path d="M3 18C3 17.4477 3.44772 17 4 17H20C20.5523 17 21 17.4477 21 18V20C21 20.5523 20.5523 21 20 21H4C3.44772 21 3 20.5523 3 20V18Z" fill="black"/>
</svg>
