<svg xmlns="http://www.w3.org/2000/svg" width="24" height="24" viewBox="0 0 24 24" fill="none"><rect width="24" height="24" fill="none"/>
<path d="M6 4C3.79086 4 2 5.79086 2 8V10H22V8C22 5.79086 20.2091 4 18 4H6Z" fill="black"/>
<path d="M22 12H14C14 13.1046 13.1046 14 12 14C10.8954 14 10 13.1046 10 12H2V20C2 20.5523 2.44772 21 3 21H4.27924C4.70967 21 5.09181 20.7246 5.22792 20.3162L5.43874 19.6838C5.57486 19.2754 5.957 19 6.38743 19H17.6126C18.043 19 18.4251 19.2754 18.5613 19.6838L18.7721 20.3162C18.9082 20.7246 19.2903 21 19.7208 21H21C21.5523 21 22 20.5523 22 20V12Z" fill="black"/>
</svg>
