<svg width="24" height="24" viewBox="0 0 24 24" fill="none" xmlns="http://www.w3.org/2000/svg">
<path fill-rule="evenodd" clip-rule="evenodd" d="M4 3C4 2.44772 4.44772 2 5 2H19C19.5523 2 20 2.44772 20 3V22.8007C20 22.857 19.974 22.9102 19.9295 22.9447C19.8384 23.0155 19.6681 23.0155 19.577 22.9447C18.472 22.0869 17.4796 21.3258 15.8656 21.3286C14.2545 21.3314 13.2859 22.0833 12.1808 22.9412L12.1762 22.9447C12.0851 23.0155 11.9148 23.0155 11.8237 22.9447C10.7055 22.0766 9.69811 21.3103 8.06299 21.329C6.48107 21.347 5.5093 22.1014 4.42383 22.9441L4.42298 22.9447C4.33186 23.0155 4.16158 23.0155 4.07046 22.9447C4.02601 22.9102 4 22.8571 4 22.8008V3ZM7 8H12V10H7V8ZM17 14V12H7V14H17Z" fill="#0B1F35"/>
</svg>
