<svg xmlns="http://www.w3.org/2000/svg" width="24" height="24" viewBox="0 0 24 24" fill="none"><rect width="24" height="24" fill="none"/>
<path d="M2 18L4.66128 5.58093C4.85888 4.6588 5.67381 4 6.61688 4L17.3832 4C18.3263 4 19.1412 4.6588 19.3388 5.58094L20.5 11C16.9727 11 13.5191 11 10 11C8.89543 11 8 11.8954 8 13L8 18L2 18Z" fill="black"/>
<path d="M18 13L18 15L17 15L17 16.4614L18 16.4614L18 19.2941C18 20.5054 18.639 21 20.2672 21C20.6395 21 21.2944 20.9667 21.5 20.9222L21.5 19.5C21.5 19.5 20.9395 19.5278 20.7117 19.5278C20.2005 19.5278 20 19.3219 20 18.8551L20 16.4614L21.5 16.4614L21.5 15L20 15L20 13L18 13Z" fill="black"/>
<path fill-rule="evenodd" clip-rule="evenodd" d="M10 21L12 21L12 18.5L13.3818 18.5C15.1615 18.5 16.3867 17.5405 16.3867 15.8385C16.3867 14.1199 15.2225 13 13.5038 13L10 13L10 21ZM12 14.5L12.966 14.5C13.8254 14.5 14.4285 14.8451 14.4285 15.6878C14.4285 16.5194 13.8198 17 12.955 17L12 17L12 14.5Z" fill="black"/>
</svg>
