<svg xmlns="http://www.w3.org/2000/svg" width="24" height="24" viewBox="0 0 24 24" fill="none"><rect width="24" height="24" fill="none"/>
<path fill-rule="evenodd" clip-rule="evenodd" d="M6.75 11C9.09721 11 11 9.09721 11 6.75C11 4.40279 9.09721 2.5 6.75 2.5C4.40279 2.5 2.5 4.40279 2.5 6.75C2.5 9.09721 4.40279 11 6.75 11ZM6.75 8.5C7.7165 8.5 8.5 7.7165 8.5 6.75C8.5 5.7835 7.7165 5 6.75 5C5.7835 5 5 5.7835 5 6.75C5 7.7165 5.7835 8.5 6.75 8.5Z" fill="black"/>
<path fill-rule="evenodd" clip-rule="evenodd" d="M17.25 21.5C19.5972 21.5 21.5 19.5972 21.5 17.25C21.5 14.9028 19.5972 13 17.25 13C14.9028 13 13 14.9028 13 17.25C13 19.5972 14.9028 21.5 17.25 21.5ZM17.25 19C18.2165 19 19 18.2165 19 17.25C19 16.2835 18.2165 15.5 17.25 15.5C16.2835 15.5 15.5 16.2835 15.5 17.25C15.5 18.2165 16.2835 19 17.25 19Z" fill="black"/>
<path d="M17.79 3.15039L19.7051 4.75736L6.20657 20.8443L4.29146 19.2373L17.79 3.15039Z" fill="black"/>
</svg>
