<svg xmlns="http://www.w3.org/2000/svg" width="24" height="24" viewBox="0 0 24 24" fill="none"><rect width="24" height="24" fill="none"/>
<path d="M17 13C17 12.4477 17.4477 12 18 12H20C20.5523 12 21 12.4477 21 13V22H17V13Z" fill="#0B1F35"/>
<path d="M10 16C10 15.4477 10.4477 15 11 15H13C13.5523 15 14 15.4477 14 16V22H10V16Z" fill="#0B1F35"/>
<path d="M4 18C3.44772 18 3 18.4477 3 19V22H7V19C7 18.4477 6.55228 18 6 18H4Z" fill="#0B1F35"/>
<path d="M21 2H13V4H17.2481C13.5738 8.12097 8.76118 10.2498 3 10.2498V12.7498C9.40647 12.7498 14.8591 10.3673 19 5.79073V10H21V2Z" fill="#0B1F35"/>
</svg>
