<svg xmlns="http://www.w3.org/2000/svg" width="24" height="24" viewBox="0 0 24 24" fill="none"><rect width="24" height="24" fill="none"/>
<path d="M4.53231 7.80155C4.53231 5.76645 5.27423 3.69238 7.50004 3.69238C9.72585 3.69238 10.4678 5.72845 10.4678 7.80155C10.4678 9.87465 9.15269 11.4998 7.50003 11.4998C5.84738 11.4998 4.53231 9.83666 4.53231 7.80155Z" fill="#0B1F35"/>
<path d="M14.5323 10.3016C14.5323 8.26645 15.2742 6.19238 17.5 6.19238C19.7258 6.19238 20.4678 8.22845 20.4678 10.3016C20.4678 12.3746 19.1527 13.9998 17.5 13.9998C15.8474 13.9998 14.5323 12.3367 14.5323 10.3016Z" fill="#0B1F35"/>
<path d="M1 18.154V21.0001H14V18.154C13.9574 17.3508 13.6735 16.8712 13.2388 16.2888C12.324 15.0632 10.3949 13.5386 7.5 13.5386C4.32774 13.5386 2.46267 15.1595 1.64406 16.3755C1.28522 16.9085 1.03722 17.4524 1 18.154Z" fill="#0B1F35"/>
<path d="M15.5431 16.2156C16.1158 16.0811 16.7667 16 17.5 16C19.9496 16 21.5819 17.0217 22.3559 17.8429C22.7238 18.2332 22.964 18.5546 23 19.0928V21H16V18.1009L15.9972 18.048C15.958 17.3079 15.7814 16.7163 15.5431 16.2156Z" fill="#0B1F35"/>
</svg>
