<svg xmlns="http://www.w3.org/2000/svg" width="24" height="24" viewBox="0 0 24 24" fill="none"><rect width="24" height="24" fill="none"/>
<path fill-rule="evenodd" clip-rule="evenodd" d="M10 23L10 9.5C10 9.22386 10.2239 9 10.5 9H13.5C13.7761 9 14 9.22386 14 9.5L14 23H10Z" fill="black"/>
<path fill-rule="evenodd" clip-rule="evenodd" d="M6 17V13.5C6 13.2239 6.22386 13 6.5 13H8.5C8.77614 13 9 13.2239 9 13.5L9 23H3V17.5C3 17.2239 3.22386 17 3.5 17H6Z" fill="black"/>
<path fill-rule="evenodd" clip-rule="evenodd" d="M18 17V13.5C18 13.2239 17.7761 13 17.5 13H15.5C15.2239 13 15 13.2239 15 13.5V23H21V17.5C21 17.2239 20.7761 17 20.5 17H18Z" fill="black"/>
<path d="M11.7659 1.17805C11.8396 0.940652 12.1604 0.940652 12.2341 1.17804L12.8288 3.09451H14.7534C14.9918 3.09451 15.091 3.41392 14.8981 3.56064L13.341 4.74508L13.9358 6.66154C14.0094 6.89893 13.7499 7.09634 13.5571 6.94962L12 5.76518L10.4429 6.94962C10.2501 7.09634 9.99056 6.89893 10.0642 6.66154L10.659 4.74508L9.10192 3.56064C8.90905 3.41392 9.00817 3.09451 9.24657 3.09451H11.1712L11.7659 1.17805Z" fill="black"/>
</svg>
