<svg xmlns="http://www.w3.org/2000/svg" width="24" height="24" viewBox="0 0 24 24" fill="none"><rect width="24" height="24" fill="none"/>
<path d="M10.0384 6.50009L6.50049 9.95315L8.54734 12L12.0006 8.4623L15.4536 12L17.5005 9.95315L13.9628 6.50009L17.5005 3.04685L15.4536 1L12.0006 4.53788L8.54734 1.00001L6.5005 3.04685L10.0384 6.50009Z" fill="black"/>
<path d="M11.6914 13.7334L16.8173 14.1088C18.9075 14.2619 20.5252 16.0026 20.5252 18.0984V19.5659L20.5254 19.6267V22.6267C12.8481 22.6267 5.86581 18.9884 3.97927 17.9189C3.6639 17.7402 3.48047 17.4062 3.48047 17.0437C3.48047 16.339 4.16407 15.8223 4.85056 15.9816C6.80962 16.4362 10.6238 17.1319 14.6678 16.8354L11.3087 15.8569C10.8457 15.722 10.5273 15.2976 10.5274 14.8153C10.5274 14.185 11.0628 13.6874 11.6914 13.7334Z" fill="black"/>
</svg>
