<svg xmlns="http://www.w3.org/2000/svg" width="24" height="24" viewBox="0 0 24 24" fill="none"><rect width="24" height="24" fill="none"/>
<path fill-rule="evenodd" clip-rule="evenodd" d="M12 2C6.47715 2 2 6.47715 2 12C2 17.5228 6.47715 22 12 22C17.5228 22 22 17.5228 22 12C22 6.47715 17.5228 2 12 2ZM9.5 7.83333C9.5 6.45262 10.6193 5.33333 12 5.33333C13.3807 5.33333 14.5 6.45262 14.5 7.83333V11.1667C14.5 12.5474 13.3807 13.6667 12 13.6667C10.6193 13.6667 9.5 12.5474 9.5 11.1667V7.83333ZM12 15.125C9.98042 15.125 8.45833 13.6656 8.45833 12H7.20833C7.20833 14.2051 8.95955 15.9519 11.1667 16.3083V18.6667H12.8333V16.3083C15.0404 15.9519 16.7917 14.2051 16.7917 12H15.5417C15.5417 13.6656 14.0196 15.125 12 15.125Z" fill="black"/>
</svg>
