<svg width="24" height="24" viewBox="0 0 24 24" fill="none" xmlns="http://www.w3.org/2000/svg">
<path fill-rule="evenodd" clip-rule="evenodd" d="M21.7721 8.46609C21.7277 7.90429 21.4761 7.26024 21.1247 6.67755C20.7992 6.13777 20.3882 5.65067 19.9772 5.3304C19.0161 4.64883 18.0174 4.01891 16.9858 3.44344C15.9619 2.85234 14.9062 2.31508 13.8234 1.83397C13.2449 1.60414 12.6246 1.49086 12 1.50097C11.3751 1.48819 10.7543 1.60156 10.1766 1.83397C9.09393 2.31542 8.03831 2.85267 7.01425 3.44344C5.36182 4.41467 4.02279 5.3304 4.02279 5.3304C3.04595 6.12668 2.39822 7.2406 2.19943 8.46609C2.06832 9.63651 2.00175 10.8129 2 11.9903C2.00305 13.1676 2.06962 14.3439 2.19943 15.5145C2.31339 16.5967 3.16809 17.9842 4.02279 18.6502C4.02279 18.6502 5.36182 19.6214 7.01425 20.5649C8.03812 21.156 9.09376 21.6932 10.1766 22.1743C10.7557 22.4013 11.3759 22.5118 12 22.499C12.6249 22.5118 13.2457 22.3984 13.8234 22.166C14.9061 21.6846 15.9617 21.1473 16.9858 20.5565C18.6382 19.5853 19.9772 18.6418 19.9772 18.6418C20.9541 17.8455 21.6018 16.7316 21.8006 15.5061C21.9317 14.3357 21.9983 13.1593 22 11.982C21.9715 10.0756 21.7721 8.46609 21.7721 8.46609ZM16.6276 11.6915L15.7694 12.5496L14.6704 11.4505L15.5284 10.5924C16.0847 10.0361 16.0847 9.13422 15.5284 8.57795L15.4221 8.47158C14.8658 7.91531 13.964 7.91531 13.4077 8.47158L11.6914 10.1879C11.1352 10.7442 11.1352 11.646 11.6914 12.2023L11.7978 12.3087C11.9206 12.4315 12.0602 12.5272 12.2093 12.5958L11.0768 13.7283C10.9442 13.6336 10.8177 13.5268 10.6987 13.4078L10.5923 13.3014C9.42905 12.1381 9.42905 10.2521 10.5923 9.08879L12.3086 7.37246C13.4719 6.20918 15.3579 6.20918 16.5212 7.37247L16.6276 7.47884C17.7908 8.64212 17.7908 10.5282 16.6276 11.6915ZM8.23056 11.4504L7.37245 12.3085C6.20918 13.4718 6.20918 15.3579 7.37245 16.5211L7.47883 16.6275C8.64209 17.7908 10.5281 17.7908 11.6914 16.6275L13.4077 14.9112C14.571 13.748 14.571 11.8619 13.4077 10.6986L13.3014 10.5922C13.1823 10.4732 13.0558 10.3664 12.9232 10.2717L11.7907 11.4042C11.9397 11.4728 12.0794 11.5685 12.2022 11.6913L12.3086 11.7977C12.8648 12.354 12.8648 13.2558 12.3086 13.8121L10.5923 15.5284C10.036 16.0847 9.13418 16.0847 8.57792 15.5284L8.47155 15.422C7.91529 14.8658 7.91529 13.9639 8.47155 13.4076L9.32966 12.5495L8.23056 11.4504Z" fill="black"/>
</svg>
