<svg xmlns="http://www.w3.org/2000/svg" width="24" height="24" viewBox="0 0 24 24" fill="none"><rect width="24" height="24" fill="none"/>
<path d="M13.0224 13.2328V16.6384C14.0725 16.4657 14.6675 15.8534 14.6675 14.9224C14.6675 14.0715 14.1495 13.53 13.0224 13.2328Z" fill="#0B1F35"/>
<path d="M11.0598 10.6529V7.48464C10.2121 7.66812 9.63135 8.29185 9.63135 9.07764C9.63135 9.82729 10.1239 10.3688 11.0598 10.6529Z" fill="#0B1F35"/>
<path fill-rule="evenodd" clip-rule="evenodd" d="M1.54497 3.73005C1 4.79961 1 6.19974 1 9V15C1 17.8003 1 19.2004 1.54497 20.27C2.02433 21.2108 2.78924 21.9757 3.73005 22.455C4.79961 23 6.19974 23 9 23H15C17.8003 23 19.2004 23 20.27 22.455C21.2108 21.9757 21.9757 21.2108 22.455 20.27C23 19.2004 23 17.8003 23 15V9C23 6.19974 23 4.79961 22.455 3.73005C21.9757 2.78924 21.2108 2.02433 20.27 1.54497C19.2004 1 17.8003 1 15 1H9C6.19974 1 4.79961 1 3.73005 1.54497C2.78924 2.02433 2.02433 2.78924 1.54497 3.73005ZM11.0598 4H13.0224V5.6598C15.155 5.9807 16.5244 7.33973 16.5659 9.20947H14.4653C14.4422 8.41626 13.8726 7.76475 13.0224 7.52101V11.0823L13.5161 11.187C15.7485 11.7056 16.812 12.8394 16.812 14.6938C16.812 16.768 15.4352 18.102 13.0224 18.4156V20H11.0598V18.4328C8.66115 18.1701 7.19635 16.8171 7.18799 14.8433H9.33252C9.40325 15.7235 10.0502 16.3788 11.0598 16.6019V12.829L10.5894 12.7163C8.55908 12.2153 7.46045 11.02 7.46045 9.26221C7.46045 7.2943 8.80535 5.96721 11.0598 5.6562V4Z" fill="#0B1F35"/>
</svg>
