<svg xmlns="http://www.w3.org/2000/svg" width="24" height="24" viewBox="0 0 24 24" fill="none"><rect width="24" height="24" fill="none"/>
<g clip-path="url(#clip0)">
<path fill-rule="evenodd" clip-rule="evenodd" d="M21.2929 20.7071L19.1597 18.5739C17.0987 20.0975 14.6351 21.0024 12 21.0024C6.71077 21.0024 2.11236 17.3567 0.0745455 12.3789C-0.0248485 12.1361 -0.0248485 11.8639 0.0745455 11.6211C1.20853 8.8511 3.13542 6.49356 5.53303 4.9472L3.29289 2.70706L4.70711 1.29285L22.7071 19.2928L21.2929 20.7071ZM10.0146 9.42874C9.24649 10.023 8.75195 10.9538 8.75195 12C8.75195 13.7945 10.2066 15.2491 12.0011 15.2491C13.0473 15.2491 13.9781 14.7546 14.5723 13.9865L17.7266 17.1407C16.0307 18.3229 14.058 19.0024 12 19.0024C7.79479 19.0024 3.94578 16.1653 2.08746 12C3.16118 9.59332 4.89946 7.63004 6.98704 6.40121L10.0146 9.42874Z" fill="black"/>
<path d="M20.5711 14.3286C21.0892 13.6136 21.5407 12.8334 21.9126 12C20.0542 7.83471 16.2052 4.99751 12 4.99751C11.7549 4.99751 11.511 5.00715 11.2687 5.02612L9.51262 3.27007C10.3187 3.09156 11.1504 2.99751 12 2.99751C17.2892 2.99751 21.8877 6.64329 23.9255 11.6211C24.0249 11.8639 24.0249 12.1361 23.9255 12.3789C23.4273 13.5957 22.7762 14.7329 21.9993 15.7568L20.5711 14.3286Z" fill="black"/>
</g>
<defs>
<clipPath id="clip0">
<rect width="24" height="24" fill="white"/>
</clipPath>
</defs>
</svg>
