<svg xmlns="http://www.w3.org/2000/svg" width="24" height="24" viewBox="0 0 24 24" fill="none"><rect width="24" height="24" fill="none"/>
<path fill-rule="evenodd" clip-rule="evenodd" d="M3.48123 1.99902L1.98682 3.49344L4.49318 5.9998H4C2.89543 5.9998 2 6.89523 2 7.99981L2.00002 15.9998C2.00002 17.1044 2.89545 17.9998 4.00002 17.9998H16.4932L20.5063 22.013L22.0008 20.5185L19.482 17.9998H19.4863L14.7306 13.2441L14.7292 13.247L10.7528 9.27055L10.7557 9.26919L7.48634 5.9998H7.48201L3.48123 1.99902ZM9.263 10.7696C9.09402 11.145 8.99999 11.5614 8.99999 11.9998C8.99999 13.6567 10.3431 14.9998 12 14.9998C12.4384 14.9998 12.8548 14.9058 13.2302 14.7368L9.263 10.7696ZM4.00002 15.9998L6.99999 15.9998L4.00002 12.9998V15.9998Z" fill="black"/>
<path fill-rule="evenodd" clip-rule="evenodd" d="M13.9405 9.71184C14.0656 9.818 14.1818 9.93424 14.288 10.0593L21.5239 17.2952C21.8208 16.9462 22 16.4939 22 15.9998L22 7.9998C22 6.89523 21.1046 5.9998 20 5.9998H10.2285L13.9405 9.71184ZM17 7.9998L20 7.9998V10.9998L17 7.9998Z" fill="black"/>
</svg>
