<svg xmlns="http://www.w3.org/2000/svg" width="18" height="18" viewBox="0 0 18 18" fill="none"><rect width="18" height="18" fill="none"/>
<path d="M7.88928 9.666H10.0699L9.03048 6.33261H8.98976L7.88928 9.666Z" fill="#0B1F35"/>
<path fill-rule="evenodd" clip-rule="evenodd" d="M16.5 9C16.5 13.1421 13.1421 16.5 9 16.5C4.85786 16.5 1.5 13.1421 1.5 9C1.5 4.85786 4.85786 1.5 9 1.5C13.1421 1.5 16.5 4.85786 16.5 9ZM10.4366 5.71716L12.75 12.75H11.038L10.5182 11.078H7.42053L6.85999 12.75H5.25L7.67775 5.71716C7.91318 5.03499 8.18752 4.5 9.07125 4.5C9.95468 4.5 10.2129 5.03724 10.4366 5.71716Z" fill="#0B1F35"/>
</svg>
