<svg xmlns="http://www.w3.org/2000/svg" width="24" height="24" viewBox="0 0 24 24" fill="none"><rect width="24" height="24" fill="none"/>
<path d="M3.00004 13.25C3.00004 13.25 15.4477 13.25 16 13.25C16 12.5833 16.0001 11.4167 16.0001 10.75H3.0001C3.00006 11.25 3.0001 12.75 3.00004 13.25ZM3.0001 5.75C3.00003 6.41667 3 7.58333 3 8.25H21C21 7.58333 21 6.41667 21 5.75C21 5.75 3.55238 5.75 3.0001 5.75ZM3.00009 18.25C3.21041 18.25 11 18.25 11 18.25C11 17.75 11 16.25 11 15.75C11 15.75 3.55238 15.75 3.00009 15.75C3 16.25 3 17.75 3.00009 18.25Z" fill="black"/>
</svg>
