<svg xmlns="http://www.w3.org/2000/svg" width="24" height="24" viewBox="0 0 24 24" fill="none"><rect width="24" height="24" fill="none"/>
<path d="M15 0.34375V2.41266C19.2461 3.6382 22 7.45074 22 11.9992C22 16.5476 19.2461 20.3601 15 21.5856V23.6546C20.4181 22.3665 24 17.6197 24 11.9992C24 6.37858 20.4181 1.6318 15 0.34375Z" fill="#0B1F35"/>
<path d="M9 23.6541V21.5861C5.39142 20.5454 2.87029 17.6379 2.18632 14.0137C2.06383 13.3646 2 12.691 2 11.9992C2 7.45074 4.75389 3.6382 9 2.41266V0.34375C3.58189 1.6318 2.45683e-07 6.37857 0 11.9992C-3.56251e-08 12.8142 0.0752065 13.612 0.221016 14.3846C1.0796 18.934 4.37701 22.5542 9 23.6541Z" fill="#0B1F35"/>
<path d="M12 16C13.1852 16 14 15.1353 14 14.2414C14 14.0356 13.953 13.939 13.9154 13.8837C13.8696 13.8164 13.7794 13.7275 13.5855 13.6223C13.3867 13.5143 13.129 13.4156 12.7898 13.3043C12.6782 13.2677 12.5447 13.2258 12.402 13.181C12.1662 13.107 11.905 13.025 11.674 12.9454C11.4539 12.8695 11.2602 12.809 11.0567 12.7455C10.9097 12.6995 10.7575 12.652 10.5867 12.596C10.2228 12.4766 9.82419 12.3329 9.46057 12.1356C9.09194 11.9356 8.71342 11.6564 8.43106 11.2414C8.14056 10.8144 8.00003 10.3146 8.00003 9.75862C8.00003 7.95166 9.3181 6.53041 11 6.12011V4H13V6.1201C14.6819 6.53039 16 7.95164 16 9.75862H14C14 8.86467 13.1852 8 12 8C10.8148 8 10 8.86468 10 9.75862C10 9.96443 10.047 10.061 10.0846 10.1163C10.1304 10.1836 10.2206 10.2725 10.4145 10.3777C10.6134 10.4857 10.871 10.5844 11.2102 10.6957C11.3218 10.7323 11.4554 10.7742 11.5981 10.819C11.8338 10.893 12.0951 10.975 12.326 11.0546C12.5461 11.1305 12.7401 11.1911 12.9436 11.2546C13.0905 11.3005 13.2426 11.348 13.4133 11.404C13.7772 11.5234 14.1758 11.6671 14.5395 11.8644C14.9081 12.0644 15.2866 12.3436 15.569 12.7586C15.8595 13.1856 16 13.6854 16 14.2414C16 16.0483 14.6819 17.4696 13 17.8799V20H11V17.8799C9.31809 17.4696 8 16.0484 8 14.2414H10C10 15.1353 10.8148 16 12 16Z" fill="#0B1F35"/>
</svg>
