<svg xmlns="http://www.w3.org/2000/svg" width="24" height="24" viewBox="0 0 24 24" fill="none"><rect width="24" height="24" fill="none"/>
<path fill-rule="evenodd" clip-rule="evenodd" d="M13.781 12C15.336 10.8369 17.4185 8.47495 17.9053 4C17.919 3.87424 17.9314 3.74682 17.9425 3.6177C17.9887 3.08127 18 2.53516 18 2L6.00006 2C6.00006 2.53516 6.01136 3.08127 6.05753 3.6177C6.06865 3.74681 6.08107 3.87424 6.09475 4C6.58158 8.47491 8.66402 10.8368 10.219 12C8.66401 13.1632 6.58152 15.5251 6.09469 20.0001C6.08101 20.1258 6.06859 20.2532 6.05747 20.3824C6.0113 20.9188 6 21.4649 6 22.0001L17.9999 22.0001C17.9999 21.4649 17.9886 20.9188 17.9425 20.3824C17.9314 20.2532 17.9189 20.1258 17.9053 20.0001C17.4184 15.5251 15.336 13.1632 13.781 12ZM8.10818 4C8.31976 5.70689 8.79307 7.0095 9.34793 8H14.6521C15.207 7.0095 15.6803 5.70689 15.8919 4L8.10818 4ZM15.4521 17.895C14.912 16.1272 14.0672 14.9756 13.3179 14.2353C12.8292 13.7526 12.3596 13.4243 12 13.2123C11.6403 13.4243 11.1707 13.7526 10.6821 14.2353C9.93277 14.9756 9.08798 16.1273 8.54784 17.8951C9.33151 17.3171 10.4074 17.0001 12 17.0001C13.5925 17.0001 14.6684 17.3171 15.4521 17.895Z" fill="#0B1F35"/>
</svg>
