<svg xmlns="http://www.w3.org/2000/svg" width="24" height="24" viewBox="0 0 24 24" fill="none"><rect width="24" height="24" fill="none"/>
<g clip-path="url(#clip0)">
<path d="M11.524 0.481188C11.6727 0.0184977 12.3273 0.0185 12.476 0.48119L14.9574 8.20213C15.0238 8.40892 15.2162 8.54915 15.4334 8.54915H23.4747C23.9578 8.54915 24.16 9.16616 23.7707 9.45212L17.2557 14.2377C17.0824 14.365 17.0099 14.5889 17.0757 14.7936L19.562 22.5299C19.7103 22.9915 19.1807 23.3729 18.79 23.0859L12.296 18.3157C12.1199 18.1864 11.8801 18.1864 11.704 18.3157L5.21003 23.0859C4.81925 23.3729 4.28965 22.9915 4.43801 22.5299L6.92427 14.7936C6.99008 14.5889 6.91758 14.365 6.74425 14.2377L0.229283 9.45212C-0.160012 9.16616 0.042248 8.54915 0.525281 8.54915H8.56662C8.78382 8.54915 8.97618 8.40892 9.04264 8.20213L11.524 0.481188Z" fill="black"/>
</g>
<defs>
<clipPath id="clip0">
<rect width="24" height="24" fill="white"/>
</clipPath>
</defs>
</svg>
