<svg xmlns="http://www.w3.org/2000/svg" width="24" height="24" viewBox="0 0 24 24" fill="none"><rect width="24" height="24" fill="none"/>
<path d="M18.9999 21C19.5522 21 19.9999 20.5523 19.9999 20V4C19.9999 3.44772 19.5522 3 18.9999 3H15.997C15.4447 3 14.997 3.44772 14.997 4V10H9.00291V4C9.00291 3.44772 8.5552 3 8.00291 3H5C4.44771 3 4 3.44772 4 4V20C4 20.5523 4.44772 21 5 21H8.00291C8.5552 21 9.00291 20.5523 9.00291 20V14H14.997V20C14.997 20.5523 15.4447 21 15.997 21H18.9999Z" fill="black"/>
</svg>
