<svg xmlns="http://www.w3.org/2000/svg" width="18" height="18" viewBox="0 0 18 18" fill="none"><rect width="18" height="18" fill="none"/>
<path d="M9.60849 4.99946C10.4338 4.99946 11.1029 4.32801 11.1029 3.49973C11.1029 2.67145 10.4338 2 9.60849 2C8.78313 2 8.11405 2.67145 8.11405 3.49973C8.11405 4.32801 8.78313 4.99946 9.60849 4.99946Z" fill="black"/>
<path d="M6.15646 6.60961C5.62636 6.72989 5.49781 6.9269 5.08725 7.68261C4.67668 8.43832 4.33511 9.22096 4.33511 9.22096C4.21881 9.47965 4.31672 9.78468 4.56162 9.92659C4.80653 10.0685 5.11873 10.001 5.28379 9.77061L6.28394 8.48544L6.28509 8.48525L7.77509 8.23603L6.99997 10C6.89188 10.434 7.23149 10.643 7.61812 10.8656L10.1381 12.3164L11.3896 15.4972C11.476 15.8064 11.6582 16 11.9908 16C12.3724 16 12.476 15.6776 12.4396 15.3401C12.4396 15.3401 12.1584 13.0043 12.0788 12.1995C11.9993 11.3946 11.9523 11.0773 11.4881 10.8101L9.26318 9.50741L10.0767 7.24161C10.1582 6.91467 10.07 6.56855 9.84224 6.32091C9.61444 6.0733 9.27765 5.95751 8.9464 6.01289C8.9464 6.01289 6.68657 6.48933 6.15646 6.60961Z" fill="black"/>
<path d="M7.11779 11.998L8.84343 12.9979L6.79135 15.7946C6.62102 16.0268 6.30364 16.0932 6.05442 15.9488C5.81063 15.8075 5.70749 15.508 5.81258 15.2465L7.11779 11.998Z" fill="black"/>
<path d="M12.223 9.59196L10.4384 8.78369L10.8473 7.25232L12.7707 8.63992C13.0004 8.80557 13.0675 9.11887 12.9262 9.36464C12.7848 9.61042 12.4808 9.70866 12.223 9.59196Z" fill="black"/>
</svg>
