<svg xmlns="http://www.w3.org/2000/svg" width="24" height="24" viewBox="0 0 24 24" fill="none"><rect width="24" height="24" fill="none"/>
<path fill-rule="evenodd" clip-rule="evenodd" d="M13 17.9711V15.9711H11C10.4807 15.9711 10.0024 15.959 9.56174 15.9351L4.49446 6.59693C4.77154 5.90674 5.14374 5.47784 5.55503 5.17728C6.60724 4.40836 8.5018 4 12 4C15.4982 4 17.3928 4.40836 18.445 5.17728C19.3087 5.80846 20 7.00562 20 10C20 12.8009 19.1532 14.824 17.816 16.3548C16.6454 17.6949 15.0125 18.7541 13 19.5722V17.9711ZM3.37597 4.53573C2.43994 5.75496 2 7.51086 2 10C2 16.3781 4.88856 17.9142 10.6657 17.9695L11 18.5856V19.9711V20.53C11 21.037 11 21.2905 11.1586 21.5375C11.2698 21.7106 11.535 21.906 11.7334 21.9609C12.0163 22.0391 12.2034 21.981 12.5777 21.8648C18 20 22 16.5 22 10C22 3.5 19 2 12 2C7.68061 2 4.88425 2.57114 3.37597 4.53573ZM3.37597 4.53573L4.49446 6.59693C4.18968 7.35614 4 8.43151 4 10C4 12.9978 4.69478 14.2281 5.48675 14.8513C6.24782 15.4501 7.48902 15.8229 9.56174 15.9351L10.6657 17.9695C10.7761 17.9706 10.8875 17.9711 11 17.9711V18.5856M11.1551 13.1675L16.2409 8.08167L14.7409 6.58167L11.1551 10.1675L9.51007 8.5224L8.01007 10.0224L11.1551 13.1675Z" fill="black"/>
</svg>
