<svg xmlns="http://www.w3.org/2000/svg" width="24" height="24" viewBox="0 0 24 24" fill="none"><rect width="24" height="24" fill="none"/>
<path d="M10.519 12.888H13.4265L12.0406 8.44348H11.9863L10.519 12.888Z" fill="#0B1F35"/>
<path fill-rule="evenodd" clip-rule="evenodd" d="M22 12C22 17.5228 17.5228 22 12 22C6.47715 22 2 17.5228 2 12C2 6.47715 6.47715 2 12 2C17.5228 2 22 6.47715 22 12ZM13.9154 7.62288L17 17H14.7173L14.0242 14.7707H9.89404L9.14666 17H7L10.237 7.62288C10.5509 6.71332 10.9167 6 12.095 6C13.2729 6 13.6172 6.71632 13.9154 7.62288Z" fill="#0B1F35"/>
</svg>
