<svg xmlns="http://www.w3.org/2000/svg" width="24" height="24" viewBox="0 0 24 24" fill="none"><rect width="24" height="24" fill="none"/>
<path d="M22 12C22 12.3375 22 13 21.8 14H16.9999V10C16.9999 9.44772 16.5522 9 15.9999 9H14.5098C14.1895 9 13.8886 8.84656 13.7005 8.58732L11.8807 6.07953C11.6384 5.74565 11.626 5.29727 11.8494 4.95051L12.4538 4.01266C12.3036 4.00426 12.1523 4 12 4C10.6571 4 9.39153 4.33087 8.28029 4.91553L8.64771 5.17827C9.24941 5.60854 9.19188 6.52053 8.54087 6.87177L6.67201 7.88008C6.52612 7.95879 6.36295 8 6.19718 8H5.07026C4.71218 8.61901 4.43466 9.29046 4.25203 10H7.5C7.77614 10 8 10.2239 8 10.5C8 10.7761 8.22386 11 8.5 11H10C10.5523 11 11 11.4477 11 12V14H7V20.6622C4.01099 18.9331 2 15.7014 2 12C2 6.47715 6.47715 2 12 2C17.5228 2 22 6.47715 22 12Z" fill="black"/>
<path fill-rule="evenodd" clip-rule="evenodd" d="M9 16H22V23H9V16ZM17.5 19.5C17.5 20.6046 16.6046 21.5 15.5 21.5C14.3954 21.5 13.5 20.6046 13.5 19.5C13.5 18.3954 14.3954 17.5 15.5 17.5C16.6046 17.5 17.5 18.3954 17.5 19.5Z" fill="black"/>
</svg>
