<svg xmlns="http://www.w3.org/2000/svg" width="24" height="24" viewBox="0 0 24 24" fill="none"><rect width="24" height="24" fill="none"/>
<path d="M13 1C12.4477 1 12 1.44771 12 2V3C12 3.55228 12.4477 4 13 4H19C19.5523 4 20 3.55228 20 3V2C20 1.44771 19.5523 1 19 1L13 1Z" fill="black"/>
<path fill-rule="evenodd" clip-rule="evenodd" d="M1 19C1 17.8954 1.89543 17 3 17L3.4132 7.90916C3.46176 6.84102 4.34189 6 5.41114 6H18.5888C19.6581 5.99999 20.5382 6.84103 20.5868 7.90918L21 17C22.1046 17 23 17.8954 23 19V21H1V19ZM6 9V12H18V9C18 8.44771 17.5523 7.99999 17 7.99999L7 8C6.44772 8 6 8.44771 6 9Z" fill="black"/>
</svg>
