<svg xmlns="http://www.w3.org/2000/svg" width="24" height="24" viewBox="0 0 24 24" fill="none"><rect width="24" height="24" fill="none"/>
<path fill-rule="evenodd" clip-rule="evenodd" d="M12.9718 16.496C12.9718 15.2231 14.7496 15.0208 15.0154 16.3849C15.0588 16.6074 15.1609 16.8227 15.3486 16.95C16.0144 17.4013 16.7614 17.8667 17.5206 18.1087C18.068 18.3313 18.6953 18.4878 19.2525 18.4226C19.2765 18.4198 19.2998 18.4157 19.3225 18.4104C20.0553 18.2898 20.6143 17.6535 20.6143 16.8866C20.6143 16.6208 20.5471 16.3707 20.4289 16.1524C20.3337 15.9847 20.2215 15.8279 20.1161 15.6667C20.0357 15.5435 19.8778 15.4969 19.7434 15.5566C19.5157 15.6576 19.2882 15.7572 19.0619 15.8564C18.7358 15.9992 18.4112 16.1414 18.0933 16.2845C17.9263 16.3596 17.7714 16.4294 17.5917 16.4379C17.4779 16.4432 17.3542 16.4242 17.2112 16.3662C16.8845 16.2001 16.6366 15.9031 16.6366 15.4955V13.4938C22.989 13.9944 24.5919 6.48864 21.4157 2.73576L17.828 6.61186C17.4572 7.01251 17.2926 7.55611 17.1665 8.08728C17.037 8.63296 16.7114 9.24061 15.9037 9.24061C14.6821 9.24061 14.4377 8.11502 14.4377 6.73875C14.4377 4.11289 16.5145 4.36239 17.3696 4.73767C17.9804 3.61183 17.0387 2.91641 16.2527 2.59786C14.1934 1.98562 12.2498 4.36235 12.0055 6.48881C11.7612 4.36235 9.80659 1.98562 7.74729 2.59786C6.9613 2.91641 6.01959 3.61183 6.6304 4.73767C7.48553 4.36239 9.56227 4.11289 9.56227 6.73875C9.56227 8.11502 9.31795 9.24061 8.09633 9.24061C7.2886 9.24061 6.96302 8.63296 6.83349 8.08728C6.7074 7.55611 6.54281 7.01251 6.17197 6.61186L2.58426 2.73576C-0.591931 6.48864 1.01098 13.9944 7.36337 13.4938V15.4996C7.36174 15.9048 7.11487 16.2002 6.78966 16.3659C6.64633 16.4241 6.52232 16.4432 6.4083 16.4379C6.22864 16.4294 6.07369 16.3596 5.90667 16.2845C5.58867 16.1414 5.26492 15.9996 4.93869 15.8566C4.71217 15.7574 4.48445 15.6576 4.25663 15.5566C4.12219 15.4969 3.96433 15.5435 3.88386 15.6667C3.77845 15.8279 3.66633 15.9847 3.57107 16.1524C3.45286 16.3707 3.38574 16.6208 3.38574 16.8866C3.38574 17.6535 3.94472 18.2898 4.67746 18.4104C4.7002 18.4157 4.72353 18.4198 4.74753 18.4226C5.30471 18.4878 5.93199 18.3313 6.47943 18.1087C7.23865 17.8667 7.98564 17.4013 8.65138 16.95C8.83732 16.8239 8.94423 16.611 8.98828 16.3906C9.25411 15.0266 11.0282 15.2231 11.0282 16.496C11.0282 16.9964 10.7839 17.3719 10.1731 17.8723L8.54578 18.9832C8.04811 19.3229 7.95848 20.0318 8.44083 20.3929C9.50745 21.1915 10.7476 21.5 11.9945 21.5C13.2417 21.5 14.489 21.1914 15.5586 20.3923C16.0414 20.0317 15.9519 19.3229 15.4542 18.9832L13.8269 17.8723C13.2161 17.3719 12.9718 16.9964 12.9718 16.496ZM10.7863 9.76636C10.4874 9.76636 10.245 10.0425 10.245 10.3832V12.8341C10.245 13.3462 12 13.9981 12 13.9981C12 13.9981 13.755 13.3463 13.755 12.8341V10.3832C13.755 10.0425 13.5126 9.76636 13.2137 9.76636H10.7863Z" fill="black"/>
</svg>
