<svg xmlns="http://www.w3.org/2000/svg" width="24" height="24" viewBox="0 0 24 24" fill="none"><rect width="24" height="24" fill="none"/>
<path fill-rule="evenodd" clip-rule="evenodd" d="M13 17.9711V15.9711H11C8.03854 15.9711 6.40964 15.5775 5.48675 14.8513C4.69478 14.2281 4 12.9978 4 10C4 7.00562 4.69132 5.80846 5.55503 5.17728C6.60724 4.40836 8.5018 4 12 4C15.4982 4 17.3928 4.40836 18.445 5.17728C19.3087 5.80846 20 7.00562 20 10C20 12.8009 19.1532 14.824 17.816 16.3548C16.6454 17.6949 15.0125 18.7541 13 19.5722V17.9711ZM11.7334 21.9609C11.535 21.906 11.2698 21.7106 11.1586 21.5375C11 21.2905 11 21.037 11 20.53V19.9711V17.9711C5 17.9711 2 16.5 2 10C2 3.5 5 2 12 2C19 2 22 3.5 22 10C22 16.5 18 20 12.5777 21.8648C12.2034 21.981 12.0163 22.0391 11.7334 21.9609ZM11 11V13H13V11H15V9H13V7H11V9H9V11H11Z" fill="black"/>
</svg>
