<svg xmlns="http://www.w3.org/2000/svg" width="24" height="24" viewBox="0 0 24 24" fill="none"><rect width="24" height="24" fill="none"/>
<path d="M8.45366 3.6641L9.56306 2L12.0003 3.62483L14.4375 2L15.5469 3.6641L13 5.36206V10.2683L17.2503 7.81444L17.4472 4.76174L19.443 4.89046L19.2545 7.81358L21.8802 9.11188L20.9938 10.9047L18.2487 9.5474L14 12.0004L18.251 14.4547L20.9937 13.0986L21.8801 14.8914L19.2544 16.1897L19.4429 19.1129L17.4471 19.2416L17.25 16.1862L13 13.7324V18.6379L15.5469 20.3359L14.4375 22L12.0003 20.3752L9.56306 22L8.45366 20.3359L11 18.6383V13.7324L6.75053 16.1859L6.55345 19.2416L4.5576 19.1129L4.74612 16.1897L2.12036 14.8914L3.00681 13.0986L5.74921 14.4546L10 12.0004L5.75161 9.54757L3.00686 10.9047L2.12041 9.11188L4.74617 7.81358L4.55765 4.89046L6.5535 4.76174L6.7504 7.81482L11 10.2683V5.36167L8.45366 3.6641Z" fill="black"/>
</svg>
