<svg xmlns="http://www.w3.org/2000/svg" width="12" height="12" viewBox="0 0 12 12" fill="none"><rect width="12" height="12" fill="none"/>
<path fill-rule="evenodd" clip-rule="evenodd" d="M3.18187 6.09369C2.48426 6.93083 2.13545 7.3494 2.13012 7.7029C2.12548 8.01021 2.26243 8.30259 2.50148 8.49577C2.77646 8.71798 3.32132 8.71798 4.41103 8.71798H7.5789C8.66861 8.71798 9.21347 8.71798 9.48845 8.49577C9.7275 8.30259 9.86444 8.01021 9.85981 7.7029C9.85448 7.3494 9.50567 6.93083 8.80805 6.09368L7.22412 4.19296C6.802 3.68643 6.59095 3.43316 6.33826 3.3408C6.11657 3.25977 5.87336 3.25977 5.65167 3.3408C5.39898 3.43316 5.18792 3.68643 4.76581 4.19296L3.18187 6.09369Z" fill="#0B1F35"/>
</svg>
