<svg xmlns="http://www.w3.org/2000/svg" width="24" height="24" viewBox="0 0 24 24" fill="none"><rect width="24" height="24" fill="none"/>
<path fill-rule="evenodd" clip-rule="evenodd" d="M4.92901 4.92903C1.02381 8.83423 1.02381 15.1658 4.92901 19.071C8.83422 22.9762 15.1658 22.9762 19.071 19.071C22.9762 15.1658 22.9762 8.83423 19.071 4.92903C15.1658 1.02382 8.83422 1.02382 4.92901 4.92903ZM15.0001 10.8H11.7001C9.60011 10.8 7.50011 11.7 6.00011 13.2L5.10011 14.1L6.50011 15.5L7.40011 14.6C8.60011 13.4 10.1001 12.8 11.7001 12.8H15.0001L12.1001 15.8L13.5001 17.2L18.7001 11.8L13.5001 6.50003L12.1001 7.90003L15.0001 10.8Z" fill="black"/>
</svg>
