<svg width="24" height="24" viewBox="0 0 24 24" fill="none" xmlns="http://www.w3.org/2000/svg">
<path d="M15 6.5C15 4.0237 14 1.5 11 1.5C7.99999 1.5 7 3.97747 7 6.5C7 9.02253 8.77252 11 11 11C13.2275 11 15 8.9763 15 6.5Z" fill="#0B1F35"/>
<path d="M15.9996 22C15.3719 21.1643 15 20.1256 15 19C15 17.5624 15.6067 16.2665 16.578 15.3544C15.206 14.5821 13.3655 14 11 14C6.9917 14 4.32062 15.8877 3.05402 17.405C2.45203 18.1261 2.05899 18.7199 2 19.7143V22H15.9996Z" fill="#0B1F35"/>
<path d="M19 18V16H21V18H23V20H21V22H19V20H17V18H19Z" fill="#0B1F35"/>
</svg>
