<svg xmlns="http://www.w3.org/2000/svg" width="24" height="24" viewBox="0 0 24 24" fill="none"><rect width="24" height="24" fill="none"/>
<path d="M4.00003 4.63281C3.24503 4.63281 2.633 5.24485 2.633 5.99982C2.633 6.7548 3.24503 7.36684 4.00003 7.36684C4.75503 7.36684 5.36707 6.75481 5.36707 5.99982C5.36707 5.24485 4.75503 4.63281 4.00003 4.63281Z" fill="black"/>
<path d="M8 5H20V7H8V5Z" fill="black"/>
<path d="M20 11H8V13H20V11Z" fill="black"/>
<path d="M20 17H8V19H20V17Z" fill="black"/>
<path d="M2.633 11.9998C2.633 11.2448 3.24503 10.6328 4.00003 10.6328C4.75503 10.6328 5.36707 11.2448 5.36707 11.9998C5.36707 12.7548 4.75503 13.3668 4.00003 13.3668C3.24503 13.3668 2.633 12.7548 2.633 11.9998Z" fill="black"/>
<path d="M4.00003 16.6331C3.24503 16.6331 2.633 17.2451 2.633 18.0001C2.633 18.755 3.24503 19.3671 4.00003 19.3671C4.75503 19.3671 5.36707 18.7551 5.36707 18.0001C5.36707 17.2451 4.75503 16.6331 4.00003 16.6331Z" fill="black"/>
</svg>
