<svg xmlns="http://www.w3.org/2000/svg" width="24" height="24" viewBox="0 0 24 24" fill="none"><rect width="24" height="24" fill="none"/>
<path fill-rule="evenodd" clip-rule="evenodd" d="M14 1.33337H16L14.6666 4.00004H12.6666L14 1.33337ZM6.91459 5.33403C5.48681 5.33403 4.31235 6.45862 4.25044 7.88506L3.78747 18.5517C3.73863 19.677 4.39303 20.664 5.35399 21.0985C5.34045 21.1748 5.33337 21.2532 5.33337 21.3334V22C5.33337 22.7364 5.93033 23.3334 6.66671 23.3334C7.40309 23.3334 8.00004 22.7364 8.00004 22V21.334H16V22C16 22.7364 16.597 23.3334 17.3333 23.3334C18.0697 23.3334 18.6667 22.7364 18.6667 22V21.3334C18.6667 21.2533 18.6596 21.1748 18.6461 21.0985C19.607 20.664 20.2615 19.677 20.2126 18.5517L19.7497 7.88507C19.6877 6.45862 18.5133 5.33403 17.0855 5.33403H6.91459ZM7.59437 7.33403C6.88672 7.33403 6.30234 7.88685 6.26309 8.5934L5.99972 13.334H17.9997L17.7364 8.5934C17.6971 7.88685 17.1127 7.33403 16.4051 7.33403H7.59437ZM8.5 17.5C8.5 18.3285 7.82843 19 7 19C6.17157 19 5.5 18.3285 5.5 17.5C5.5 16.6716 6.17157 16 7 16C7.82843 16 8.5 16.6716 8.5 17.5ZM16.9998 19.001C17.8282 19.001 18.4998 18.3294 18.4998 17.501C18.4998 16.6726 17.8282 16.001 16.9998 16.001C16.1713 16.001 15.4998 16.6726 15.4998 17.501C15.4998 18.3294 16.1713 19.001 16.9998 19.001ZM12 1.33337H9.99996L8.66663 4.00004H10.6666L12 1.33337Z" fill="#0B1F35"/>
</svg>
