<svg xmlns="http://www.w3.org/2000/svg" width="24" height="24" viewBox="0 0 24 24" fill="none"><rect width="24" height="24" fill="none"/>
<path d="M18.9858 2.74332C18.8933 3.6836 18.4307 4.52986 17.6905 5H6.30956C5.56934 4.52986 5.1067 3.6836 5.01418 2.74332C4.92165 1.89707 5.29176 1.14484 5.84692 0.580676C7.41989 -0.735718 9.64056 0.204563 11.9537 3.21346C14.2669 0.204563 16.4876 -0.735718 18.1531 0.580676C18.7083 1.14484 19.0784 1.89707 18.9858 2.74332Z" fill="black"/>
<path fill-rule="evenodd" clip-rule="evenodd" d="M4 8C4 7.44772 4.44772 7 5 7H11V14H4V8ZM6.5 9.5H8.5V11.5H6.5V9.5Z" fill="black"/>
<path fill-rule="evenodd" clip-rule="evenodd" d="M5 23C4.44772 23 4 22.5523 4 22V16H11V23H5ZM8.5 20.5H6.5V18.5H8.5V20.5Z" fill="black"/>
<path fill-rule="evenodd" clip-rule="evenodd" d="M20 8C20 7.44772 19.5523 7 19 7H13V14H20V8ZM17.5 9.5H15.5V11.5H17.5V9.5Z" fill="black"/>
<path d="M18 18V21H15V23H19C19.5523 23 20 22.5523 20 22V18H18Z" fill="black"/>
<path d="M16 16H13V19H16V16Z" fill="black"/>
</svg>
