<svg xmlns="http://www.w3.org/2000/svg" width="24" height="24" viewBox="0 0 24 24" fill="none"><rect width="24" height="24" fill="none"/>
<path d="M16.2077 6.68634C16.6604 6.23364 16.5756 5.47775 16.0338 5.13666L14.4089 4.11364C13.7695 3.71107 13.0516 3.50927 12.3361 3.49997C11.2875 3.48634 10.2442 3.88578 9.46107 4.66891L7.94888 6.18109L5.77686 4.00906L2.00002 4.00903L2 6.50903L4.74131 6.50905L6.18112 7.94886L4.66888 9.46109C3.35145 10.7785 3.12097 12.8323 4.11362 14.4089L5.13663 16.0338C5.32209 16.3284 5.63018 16.4886 5.94548 16.5C6.21008 16.5096 6.47976 16.4143 6.68632 16.2078L16.2077 6.68634Z" fill="black"/>
<path d="M16.6021 18.3407L12.6991 13.6611L11.2791 15.081L15.1821 19.7607L16.6021 18.3407Z" fill="black"/>
<path d="M13.3952 21.5476L10.2537 16.1064L8.78963 17.5705L11.931 23L13.3952 21.5476Z" fill="black"/>
<path d="M16.1059 10.254L21.5471 13.3955L22.9993 11.9315L17.57 8.7899L16.1059 10.254Z" fill="black"/>
<path d="M13.6605 12.6993L18.3402 16.6024L19.7602 15.1824L15.0805 11.2793L13.6605 12.6993Z" fill="black"/>
</svg>
