<svg xmlns="http://www.w3.org/2000/svg" width="24" height="24" viewBox="0 0 24 24" fill="none"><rect width="24" height="24" fill="none"/>
<path d="M12.3049 1.4204C12.0953 0.859866 11.3024 0.859867 11.0928 1.4204L9.9321 4.52456C9.84117 4.76774 9.61369 4.93301 9.35432 4.94435L6.0434 5.08902C5.44553 5.11515 5.20053 5.8692 5.66886 6.24176L8.26241 8.30491C8.46558 8.46653 8.55247 8.73395 8.4831 8.98413L7.59756 12.1777C7.43766 12.7544 8.0791 13.2204 8.57814 12.8901L11.3418 11.0611C11.5583 10.9178 11.8394 10.9178 12.0559 11.0611L14.8196 12.8901C15.3186 13.2204 15.96 12.7544 15.8001 12.1777L14.9146 8.98413C14.8452 8.73395 14.9321 8.46653 15.1353 8.30491L17.7288 6.24176C18.1972 5.8692 17.9522 5.11515 17.3543 5.08902L14.0434 4.94435C13.784 4.93301 13.5565 4.76774 13.4656 4.52456L12.3049 1.4204Z" fill="#0B1F35"/>
<path d="M16.8168 14.1088L11.6909 13.7334C11.0623 13.6874 10.5269 14.185 10.5269 14.8153C10.5269 15.2976 10.8452 15.722 11.3083 15.8569L14.6673 16.8354C10.6233 17.1319 6.80913 16.4362 4.85007 15.9816C4.16358 15.8223 3.47998 16.339 3.47998 17.0437C3.47998 17.4062 3.66341 17.7402 3.97879 17.9189C5.86533 18.9884 12.8476 22.6267 20.5249 22.6267V19.6267L20.5247 19.5659V18.0984C20.5247 16.0026 18.907 14.2619 16.8168 14.1088Z" fill="#0B1F35"/>
</svg>
