<svg xmlns="http://www.w3.org/2000/svg" width="24" height="24" viewBox="0 0 24 24" fill="none"><rect width="24" height="24" fill="none"/>
<path d="M16 6.75C16 4.2737 15 1.75 12 1.75C8.99999 1.75 8 4.22747 8 6.75C8 9.27253 9.77252 11.25 12 11.25C14.2275 11.25 16 9.2263 16 6.75Z" fill="#0B1F35"/>
<path d="M4.05402 17.4049C5.10577 16.145 7.12592 14.6297 10.076 14.1519L11 15.9999L10.1429 21.9999H3V19.7142C3.05899 18.7198 3.45203 18.126 4.05402 17.4049Z" fill="#0B1F35"/>
<path d="M13 15.9999L13.924 14.1519C16.8741 14.6297 18.8942 16.145 19.946 17.4049C20.548 18.126 20.941 18.7198 21 19.7142V21.9999H13.8572L13 15.9999Z" fill="#0B1F35"/>
</svg>
