<svg xmlns="http://www.w3.org/2000/svg" width="24" height="24" viewBox="0 0 24 24" fill="none"><rect width="24" height="24" fill="none"/>
<path d="M15.4903 3.47121L17.4041 2.51448C17.4084 2.52155 17.4127 2.52868 17.4168 2.53588C19.0819 5.41334 19.9585 8.6774 19.9585 12C19.9585 15.3226 19.0819 18.5867 17.4168 21.4641C17.4137 21.4696 17.4105 21.475 17.4072 21.4804L15.4926 20.5232C15.5108 20.4789 15.5322 20.4353 15.5569 20.3927C17.0334 17.841 17.8108 14.9465 17.8108 12C17.8108 9.05354 17.0334 6.159 15.5569 3.60729C15.5312 3.56289 15.509 3.51742 15.4903 3.47121Z" fill="black"/>
<path d="M11.5543 5.43891L13.4686 4.48192C13.4722 4.48794 13.4758 4.49401 13.4794 4.50013C14.7989 6.78038 15.4935 9.36699 15.4935 12C15.4935 14.633 14.7989 17.2196 13.4794 19.4999C13.4768 19.5042 13.4743 19.5086 13.4717 19.5129L11.5566 18.5555C11.5745 18.5124 11.5954 18.47 11.6194 18.4285C12.7504 16.474 13.3458 14.2569 13.3458 12C13.3458 9.74314 12.7504 7.52604 11.6194 5.57154C11.5944 5.52825 11.5727 5.48394 11.5543 5.43891Z" fill="black"/>
<path d="M7.82331 7.30411L9.74391 6.34397C10.7094 8.04476 11.2171 9.96985 11.2171 11.9286C11.2171 13.9011 10.7022 15.8396 9.72336 17.5492C9.70988 17.5728 9.69564 17.5956 9.6807 17.6177L7.77649 16.6658C7.79788 16.6046 7.82515 16.5446 7.85851 16.4863C8.65152 15.1013 9.06945 13.5294 9.06945 11.9286C9.06945 10.3278 8.65152 8.75584 7.85851 7.37083C7.84591 7.34884 7.83419 7.32658 7.82331 7.30411Z" fill="black"/>
<path d="M4.04001 9.19546L5.95624 8.2375C6.69079 9.36407 7.08331 10.6665 7.08331 12C7.08331 13.3315 6.69196 14.632 5.95954 15.7574L4.04234 14.799C4.06778 14.7388 4.09912 14.6801 4.13653 14.6236C4.66105 13.8315 4.93561 12.9227 4.93561 12C4.93561 11.0773 4.66105 10.1684 4.13653 9.37641C4.09797 9.31819 4.06586 9.2576 4.04001 9.19546Z" fill="black"/>
</svg>
