<svg xmlns="http://www.w3.org/2000/svg" width="24" height="24" viewBox="0 0 24 24" fill="none"><rect width="24" height="24" fill="none"/>
<path fill-rule="evenodd" clip-rule="evenodd" d="M2 10.0001C2 8.89557 2.89543 8.00013 4 8.00013H20C21.1046 8.00013 22 8.89556 22 10.0001V18.0001C22 19.1047 21.1046 20.0001 20 20.0001H4.00002C2.89545 20.0001 2.00002 19.1047 2.00002 18.0001L2 10.0001ZM7 18.0001H4.00003V15.0001L7 18.0001ZM20 10.0001H17L20 13.0001V10.0001ZM14 14.0001C14 15.1047 13.1046 16.0001 12 16.0001C10.8954 16.0001 10 15.1047 10 14.0001C10 12.8955 10.8954 12.0001 12 12.0001C13.1046 12.0001 14 12.8955 14 14.0001Z" fill="black"/>
<path d="M12 1.85596L7.0144 4.62575L7.98568 6.37416L12 4.14395L16.0144 6.37416L16.9856 4.62575L12 1.85596Z" fill="black"/>
</svg>
