<svg xmlns="http://www.w3.org/2000/svg" width="24" height="24" viewBox="0 0 24 24" fill="none"><rect width="24" height="24" fill="none"/>
<path d="M6.50049 9.95315L10.0384 6.50009L6.5005 3.04685L8.54734 1.00001L12.0006 4.53788L15.4536 1L17.5005 3.04685L13.9628 6.50009L17.5005 9.95315L15.4536 12L12.0006 8.4623L8.54734 12L6.50049 9.95315Z" fill="black"/>
<path d="M16.8173 14.1088L11.6914 13.7334C11.0628 13.6874 10.5274 14.185 10.5274 14.8153C10.5273 15.2976 10.8457 15.722 11.3087 15.8569L14.6678 16.8354C10.6238 17.1319 6.80962 16.4362 4.85056 15.9816C4.16407 15.8223 3.48047 16.339 3.48047 17.0437C3.48047 17.4062 3.6639 17.7402 3.97927 17.9189C5.86581 18.9884 12.8481 22.6267 20.5254 22.6267V19.6267L20.5252 19.5659V18.0984C20.5252 16.0026 18.9075 14.2619 16.8173 14.1088Z" fill="black"/>
</svg>
