<svg xmlns="http://www.w3.org/2000/svg" width="24" height="24" viewBox="0 0 24 24" fill="none"><rect width="24" height="24" fill="none"/>
<path d="M11.2254 5.65267C11.7216 5.44716 12.279 5.44716 12.7752 5.65267L15.9405 6.96377C16.4366 7.16928 16.8308 7.56348 17.0363 8.05964L18.3474 11.2249C18.5529 11.7211 18.5529 12.2785 18.3474 12.7747L17.0363 15.94C16.8308 16.4361 16.4366 16.8303 15.9405 17.0358L12.7752 18.3469C12.279 18.5525 11.7216 18.5525 11.2254 18.3469L8.06012 17.0358C7.56397 16.8303 7.16977 16.4361 6.96426 15.94L5.65316 12.7747C5.44764 12.2785 5.44764 11.7211 5.65316 11.2249L6.96426 8.05964C7.16977 7.56348 7.56397 7.16929 8.06012 6.96377L11.2254 5.65267Z" fill="black"/>
<path fill-rule="evenodd" clip-rule="evenodd" d="M12.7695 1.65305C12.2768 1.44898 11.7233 1.44898 11.2306 1.65305L5.22768 4.13956C4.73503 4.34362 4.34362 4.73503 4.13956 5.22768L1.65305 11.2306C1.44898 11.7233 1.44898 12.2768 1.65305 12.7695L4.13956 18.7724C4.34362 19.2651 4.73503 19.6565 5.22768 19.8606L11.2306 22.3471C11.7233 22.5511 12.2768 22.5511 12.7695 22.3471L18.7724 19.8606C19.2651 19.6565 19.6565 19.2651 19.8606 18.7724L22.3471 12.7695C22.5511 12.2768 22.5511 11.7233 22.3471 11.2306L19.8606 5.22768C19.6565 4.73503 19.2651 4.34362 18.7724 4.13956L12.7695 1.65305ZM18.0107 5.98913L12.0001 3.49931L5.98922 5.98884L3.49931 12.0001L5.98903 18.0111L12.0001 20.5009L18.0112 18.011L20.5008 12.0001L18.0107 5.98913Z" fill="black"/>
</svg>
