<svg xmlns="http://www.w3.org/2000/svg" width="24" height="24" viewBox="0 0 24 24" fill="none"><rect width="24" height="24" fill="none"/>
<g clip-path="url(#clip0)">
<path d="M23.6978 11.7056C23.899 10.4688 24.0001 9.2175 24.0002 7.964L23.5607 7.80903C20.4328 6.70583 17.0169 6.73512 13.9084 7.8918L13.8317 7.92034C12.6507 8.35979 11.351 8.35979 10.17 7.92034L10.0933 7.8918C6.98469 6.73513 3.56883 6.70583 0.440884 7.80903L0.000814298 7.96424L0.000732422 8.16806C0.0111013 9.35127 0.111579 10.5319 0.301259 11.6997L0.832717 14.6978C1.17127 16.6078 2.8315 18 4.77133 18H5.66995C7.11006 18 8.439 17.2259 9.1494 15.9732L11.1505 12.4446C11.5472 11.8051 12.4927 11.817 12.8689 12.4805L14.8496 15.9732L14.8506 15.9737C15.561 17.2264 16.8899 18.0005 18.33 18.0005H19.2287C21.1685 18.0005 22.8287 16.6087 23.1673 14.6986L23.6978 11.7056Z" fill="black"/>
</g>
<defs>
<clipPath id="clip0">
<rect width="24" height="24" fill="white"/>
</clipPath>
</defs>
</svg>
