<svg xmlns="http://www.w3.org/2000/svg" width="24" height="24" viewBox="0 0 24 24" fill="none"><rect width="24" height="24" fill="none"/>
<path d="M7.09685 2.00506C5.42613 1.96597 3.95439 2.57939 3.00537 3.71038L6.64027 6.76043C5.76126 7.02793 4.94623 7.36225 4.22183 7.75738C2.15893 8.8826 1 10.4087 1 12L9.74982 12L8 22H16L14.2501 12H23C23 10.4087 21.8411 8.8826 19.7782 7.75738C19.0561 7.36354 18.2441 7.03011 17.3683 6.76304L21.0063 3.71038C20.0573 2.57939 18.5856 1.96597 16.9149 2.00506C15.2442 2.04414 13.5113 2.73254 12.0976 3.9188C12.0668 3.94463 12.0362 3.97065 12.0059 3.99686C11.9755 3.97065 11.9449 3.94463 11.9141 3.9188C10.5004 2.73254 8.76757 2.04414 7.09685 2.00506Z" fill="black"/>
</svg>
