<svg width="24" height="24" viewBox="0 0 24 24" fill="none" xmlns="http://www.w3.org/2000/svg">
<path fill-rule="evenodd" clip-rule="evenodd" d="M12 22C17.5228 22 22 17.5228 22 12C22 6.47715 17.5228 2 12 2C6.47715 2 2 6.47715 2 12C2 17.5228 6.47715 22 12 22ZM11.12 6H12.87V12H11.12V6ZM9 7.38965C7.4949 8.371 6.5 10.0694 6.5 12.0002C6.5 15.0377 8.96243 17.5002 12 17.5002C15.0376 17.5002 17.5 15.0377 17.5 12.0002C17.5 10.0694 16.5051 8.371 15 7.38965V9.35436C15.6224 10.0595 16 10.9857 16 12.0002C16 14.2093 14.2091 16.0002 12 16.0002C9.79086 16.0002 8 14.2093 8 12.0002C8 10.9857 8.37764 10.0595 9 9.35436V7.38965Z" fill="#0B1F35"/>
</svg>
