<svg xmlns="http://www.w3.org/2000/svg" width="24" height="24" viewBox="0 0 24 24" fill="none"><rect width="24" height="24" fill="none"/>
<path d="M6 12C8.76142 12 11 9.76142 11 7C11 4.23858 8.76142 2 6 2C3.23858 2 1 4.23858 1 7C1 9.76142 3.23858 12 6 12Z" fill="black"/>
<path d="M7.1765 21.0001H3.22656L16.6379 3.00024H20.5878L7.1765 21.0001Z" fill="black"/>
<path d="M23 17C23 19.7614 20.7614 22 18 22C15.2386 22 13 19.7614 13 17C13 14.2386 15.2386 12 18 12C20.7614 12 23 14.2386 23 17Z" fill="black"/>
</svg>
