<svg xmlns="http://www.w3.org/2000/svg" width="24" height="24" viewBox="0 0 24 24" fill="none"><rect width="24" height="24" fill="none"/>
<path fill-rule="evenodd" clip-rule="evenodd" d="M12 2C17.5228 2 22 6.47715 22 12C22 17.5228 17.5228 22 12 22C6.47715 22 2 17.5228 2 12C2 6.47715 6.47715 2 12 2ZM11.8495 4.95051L12.4539 4.01266C12.3037 4.00426 12.1523 4 12 4C10.6571 4 9.39153 4.33087 8.28029 4.91553L8.64771 5.17827C9.24941 5.60854 9.19188 6.52053 8.54087 6.87177L6.67201 7.88008C6.52612 7.95879 6.36295 8 6.19718 8H5.07026C5.06588 8.00756 5.06152 8.01513 5.05717 8.02271C4.70541 8.63542 4.43243 9.29913 4.25203 10H8.81818C9.19474 10 9.5 10.3053 9.5 10.6818C9.5 11.0584 9.80526 11.3636 10.1818 11.3636H12.625C13.1773 11.3636 13.625 11.8114 13.625 12.3636V16C13.625 16.5523 13.1773 17 12.625 17H12C11.4477 17 11 17.4477 11 18C11 18.6445 11 19.2891 11 19.9336C11.3437 19.9787 11.644 20 12 20C15.3574 20 18.2317 17.9318 19.4185 15H18C17.4477 15 17 14.5523 17 14V10C17 9.44772 16.5523 9 16 9H14.5099C14.1896 9 13.8887 8.84656 13.7005 8.58732L11.8807 6.07953C11.6384 5.74565 11.626 5.29727 11.8495 4.95051Z" fill="black"/>
</svg>
