<svg xmlns="http://www.w3.org/2000/svg" width="24" height="24" viewBox="0 0 24 24" fill="none"><rect width="24" height="24" fill="none"/>
<path fill-rule="evenodd" clip-rule="evenodd" d="M10.5444 3C6.37776 3 3 6.37775 3 10.5444C3 14.7111 6.37776 18.0888 10.5444 18.0888C12.1885 18.0888 13.7098 17.5629 14.9492 16.6701L20.2791 22L22 20.2791L16.6701 14.9493C17.5629 13.7099 18.0889 12.1885 18.0889 10.5444C18.0889 6.37775 14.7111 3 10.5444 3ZM5.43369 10.5444C5.43369 7.72183 7.72184 5.43368 10.5444 5.43368C13.367 5.43368 15.6552 7.72183 15.6552 10.5444C15.6552 13.367 13.367 15.6551 10.5444 15.6551C7.72184 15.6551 5.43369 13.367 5.43369 10.5444Z" fill="#0B1F35"/>
</svg>
