<svg xmlns="http://www.w3.org/2000/svg" width="24" height="24" viewBox="0 0 24 24" fill="none"><rect width="24" height="24" fill="none"/>
<path d="M12 18C13.1046 18 14 17.1046 14 16C14 14.8954 13.1046 14 12 14C10.8954 14 10 14.8954 10 16C10 17.1046 10.8954 18 12 18Z" fill="#0B1F35"/>
<path fill-rule="evenodd" clip-rule="evenodd" d="M12 1C9.23858 1 7 3.23858 7 6V7H9V6C9 4.34315 10.3431 3 12 3C13.6569 3 15 4.34315 15 6V9H4V20C4 21.6569 5.34315 23 7 23H17C18.6569 23 20 21.6569 20 20V9H17V6C17 3.23858 14.7614 1 12 1ZM6 20V11H18V20C18 20.5523 17.5523 21 17 21H7C6.44772 21 6 20.5523 6 20Z" fill="#0B1F35"/>
</svg>
