<svg xmlns="http://www.w3.org/2000/svg" width="24" height="24" viewBox="0 0 24 24" fill="none"><rect width="24" height="24" fill="none"/>
<path d="M13.0001 2V0H11.0001V2H4.00049C2.8769 2 1.99778 2.91726 2 4H22C22.0022 2.91726 21.1231 2 19.9995 2H13.0001Z" fill="black"/>
<path d="M15 8H13V16H15V8Z" fill="black"/>
<path d="M9 8H11V16H9V8Z" fill="black"/>
<path d="M18.1582 6H20.1706L18.6806 19.3196L18.6804 19.322C18.5159 20.8453 17.23 22 15.6977 22H8.30619C6.77394 22 5.4881 20.8454 5.32355 19.3223L5.32326 19.3196L3.83005 6H5.84257L7.31189 19.1065C7.36632 19.6147 7.79514 20 8.30619 20H15.6977C16.2087 20 16.6376 19.6147 16.692 19.1065L16.6925 19.1019L18.1582 6Z" fill="black"/>
</svg>
