<svg xmlns="http://www.w3.org/2000/svg" width="24" height="24" viewBox="0 0 24 24" fill="none"><rect width="24" height="24" fill="none"/>
<path d="M17.6904 6C18.4307 5.52986 18.8933 4.6836 18.9858 3.74332C19.0784 2.89707 18.7082 2.14484 18.1531 1.58068C16.4876 0.264282 14.2669 1.20456 11.9537 4.21346C9.64055 1.20456 7.41989 0.264282 5.84692 1.58068C5.29175 2.14484 4.92164 2.89707 5.01417 3.74332C5.1067 4.6836 5.56933 5.52986 6.30956 6H17.6904Z" fill="black"/>
<path d="M11 8H4C2.89543 8 2 8.89543 2 10V12H4V19C4 20.1046 4.89543 21 6 21H11V8Z" fill="black"/>
<path d="M13 21V8H20C21.1046 8 22 8.89543 22 10V12H20V19C20 20.1046 19.1046 21 18 21H13Z" fill="black"/>
</svg>
