<svg xmlns="http://www.w3.org/2000/svg" width="24" height="24" viewBox="0 0 24 24" fill="none"><rect width="24" height="24" fill="none"/>
<path fill-rule="evenodd" clip-rule="evenodd" d="M19.0709 4.92903C22.9761 8.83423 22.9761 15.1658 19.0709 19.071C15.1657 22.9762 8.83411 22.9762 4.92891 19.071C1.0237 15.1658 1.0237 8.83423 4.92891 4.92903C8.83411 1.02382 15.1657 1.02382 19.0709 4.92903ZM8.99981 10.8H12.2998C14.3998 10.8 16.4998 11.7 17.9998 13.2L18.8998 14.1L17.4998 15.5L16.5998 14.6C15.3998 13.4 13.8998 12.8 12.2998 12.8H8.99981L11.8998 15.8L10.4998 17.2L5.29981 11.8L10.4998 6.50003L11.8998 7.90003L8.99981 10.8Z" fill="black"/>
</svg>
