<svg xmlns="http://www.w3.org/2000/svg" width="24" height="24" viewBox="0 0 24 24" fill="none"><rect width="24" height="24" fill="none"/>
<path fill-rule="evenodd" clip-rule="evenodd" d="M4 7L12 10.6L20 7L4 7ZM22 8.29317L12 12.7932L2 8.29317V6C2 5.44772 2.44772 5 3 5H21C21.5523 5 22 5.44772 22 6V8.29317Z" fill="#0B1F35"/>
<path d="M20 11.1932L22 10.2932L22 17.0384C22.0001 17.254 22.0002 17.4913 21.9783 17.6886C21.9559 17.8902 21.8925 18.2718 21.5821 18.5821C21.2718 18.8924 20.8902 18.9559 20.6886 18.9783C20.4913 19.0002 20.254 19.0001 20.0384 19H3.96166C3.74599 19.0001 3.50872 19.0002 3.31146 18.9783C3.10981 18.9559 2.72824 18.8924 2.41791 18.5821C2.10759 18.2718 2.04417 17.8902 2.02176 17.6886C1.99984 17.4913 1.99993 17.254 2.00001 17.0384L2.00002 10.2932L4 11.1932L4.00002 17H20V11.1932Z" fill="#0B1F35"/>
</svg>
