<svg xmlns="http://www.w3.org/2000/svg" width="24" height="24" viewBox="0 0 24 24" fill="none"><rect width="24" height="24" fill="none"/>
<path d="M15.36 18.3598L18.5001 21.5L22.9979 17.002L21.7251 15.7292L18.5001 18.9543L16.6328 17.087L15.36 18.3598Z" fill="black"/>
<path d="M10.36 6.00005C8.8029 4.26996 4.7764 4.03648 2.35861 4.00497C1.80637 3.99777 1.35999 4.44777 1.35999 5.00005V18.0001C1.35999 18.5523 1.80637 18.9978 2.35861 19.005C4.7764 19.0365 8.8029 19.27 10.36 21.0001V6.00005Z" fill="black"/>
<path d="M12.36 6.00005C13.9171 4.26996 17.9436 4.03648 20.3614 4.00497C20.9136 3.99777 21.36 4.44777 21.36 5.00005V13.916C20.7475 13.6484 20.0711 13.5 19.36 13.5C16.5986 13.5 14.36 15.7386 14.36 18.5C14.36 18.9296 14.4142 19.3466 14.5161 19.7445C13.6303 20.035 12.8652 20.4387 12.36 21.0001V6.00005Z" fill="black"/>
</svg>
