<svg xmlns="http://www.w3.org/2000/svg" width="24" height="24" viewBox="0 0 24 24" fill="none"><rect width="24" height="24" fill="none"/>
<path d="M9.5207 8.51072L5.46141 4.45143C9.20773 1.18286 14.7922 1.18286 18.5386 4.45143L14.4793 8.51072C12.997 7.44879 11.003 7.44879 9.5207 8.51072Z" fill="black"/>
<path d="M15.4893 9.5207L19.5486 5.46141C22.8171 9.20772 22.8171 14.7922 19.5486 18.5386L15.4893 14.4793C16.5512 12.997 16.5512 11.003 15.4893 9.5207Z" fill="black"/>
<path d="M14.4793 15.4893C12.997 16.5512 11.003 16.5512 9.5207 15.4893L5.46141 19.5486C9.20773 22.8171 14.7922 22.8171 18.5386 19.5486L14.4793 15.4893Z" fill="black"/>
<path d="M4.45143 5.46141L8.51072 9.5207C7.44879 11.003 7.44879 12.997 8.51072 14.4793L4.45143 18.5386C1.18286 14.7922 1.18286 9.20772 4.45143 5.46141Z" fill="black"/>
</svg>
