<svg xmlns="http://www.w3.org/2000/svg" width="24" height="24" viewBox="0 0 24 24" fill="none"><rect width="24" height="24" fill="none"/>
<path fill-rule="evenodd" clip-rule="evenodd" d="M12.1213 4.87152C13.6834 3.30943 16.2161 3.30943 17.7782 4.87152C19.3403 6.43362 19.3403 8.96628 17.7782 10.5284L11.7678 16.5388C10.7915 17.5151 9.20854 17.5151 8.23223 16.5388C7.25592 15.5625 7.25592 13.9796 8.23223 13.0033L13.5355 7.69995L14.9497 9.11416L9.64645 14.4175C9.45118 14.6127 9.45118 14.9293 9.64645 15.1246C9.84171 15.3198 10.1583 15.3198 10.3536 15.1246L16.364 9.11416C17.145 8.33312 17.145 7.06679 16.364 6.28574C15.5829 5.50469 14.3166 5.50469 13.5355 6.28574L7.52513 12.2961C6.15829 13.663 6.15829 15.8791 7.52513 17.2459C8.89196 18.6127 11.108 18.6127 12.4749 17.2459L14.7828 14.9379C15.9324 13.7884 17.3338 12.9222 18.8762 12.4081L19.5086 14.3055C18.2609 14.7214 17.1271 15.4221 16.197 16.3522L13.8891 18.6601C11.7412 20.808 8.2588 20.808 6.11091 18.6601C3.96303 16.5122 3.96303 13.0298 6.11091 10.8819L12.1213 4.87152Z" fill="#0B1F35"/>
</svg>
