<svg xmlns="http://www.w3.org/2000/svg" width="24" height="24" viewBox="0 0 24 24" fill="none"><rect width="24" height="24" fill="none"/>
<g clip-path="url(#clip0)">
<path d="M7.00003 3C5.89546 3 5.00003 3.89543 5.00003 5H22V16C23.1046 16 24 15.1046 24 14V5C24 3.89543 23.1046 3 22 3H7.00003Z" fill="#0B1F35"/>
<path d="M9.50003 17.5C10.6046 17.5 11.5 16.6046 11.5 15.5C11.5 14.3954 10.6046 13.5 9.50003 13.5C8.39546 13.5 7.50003 14.3954 7.50003 15.5C7.50003 16.6046 8.39546 17.5 9.50003 17.5Z" fill="#0B1F35"/>
<path fill-rule="evenodd" clip-rule="evenodd" d="M2.00003 9C0.895462 9 3.05176e-05 9.89543 3.05176e-05 11V20C3.05176e-05 21.1046 0.895462 22 2.00003 22H17C18.1046 22 19 21.1046 19 20V11C19 9.89543 18.1046 9 17 9H2.00003ZM17 11H2.00003V20H17V11Z" fill="#0B1F35"/>
</g>
<defs>
<clipPath id="clip0">
<rect width="24" height="24" fill="white"/>
</clipPath>
</defs>
</svg>
