<svg xmlns="http://www.w3.org/2000/svg" width="24" height="24" viewBox="0 0 24 24" fill="none"><rect width="24" height="24" fill="none"/>
<path fill-rule="evenodd" clip-rule="evenodd" d="M2.87639 6.23894L0.826717 17.8364C0.706082 18.5189 1.06884 19.1953 1.7042 19.4724L5.20707 21L8.67951 15H15.3858L18.8582 21L22.3611 19.4724C22.9965 19.1953 23.3592 18.5189 23.2386 17.8364L21.1889 6.23894C21.0623 5.52233 20.4395 5 19.7118 5H4.3535C3.62578 5 3.00304 5.52233 2.87639 6.23894ZM7.99997 10.5C7.99997 11.3284 7.3284 12 6.49997 12C5.67154 12 4.99997 11.3284 4.99997 10.5C4.99997 9.67157 5.67154 9 6.49997 9C7.3284 9 7.99997 9.67157 7.99997 10.5ZM17.5 12C18.3284 12 19 11.3284 19 10.5C19 9.67157 18.3284 9 17.5 9C16.6715 9 16 9.67157 16 10.5C16 11.3284 16.6715 12 17.5 12Z" fill="black"/>
</svg>
