<svg xmlns="http://www.w3.org/2000/svg" width="24" height="24" viewBox="0 0 24 24" fill="none"><rect width="24" height="24" fill="none"/>
<path fill-rule="evenodd" clip-rule="evenodd" d="M7 2C7 1.44772 7.44772 1 8 1H15.185C16.9599 1 18.3468 2.53245 18.1701 4.29851L18.0243 5.75677C18.0117 5.88251 18.1175 5.98825 18.2432 5.97568L19.7015 5.82985C21.4675 5.65325 23 7.0401 23 8.81496V20C23 20.5523 22.5523 21 22 21H8C7.44772 21 7 20.5523 7 20V2ZM15 10H10V12H15V10ZM19 14H10V16H19V14Z" fill="black"/>
<path d="M5.5001 18.5V6.5C4.66676 9.5 2.9001 15.9 2.5001 17.5C2.0001 19.5 3.5001 20 6.0001 20.5C5.6001 20.1 5.5001 19 5.5001 18.5Z" fill="black"/>
</svg>
