<svg width="24" height="24" viewBox="0 0 24 24" xmlns="http://www.w3.org/2000/svg"><g fill="none" fill-rule="evenodd"><path d="M0 0h24v24H0z"/><path d="M12 1.495a.48.48 0 0 1 .465.337l2.242 6.9a.485.485 0 0 0 .464.337h7.253c.473 0 .67.605.287.884l-5.868 4.263a.488.488 0 0 0-.178.546l2.241 6.9a.49.49 0 0 1-.465.64.479.479 0 0 1-.285-.095l-5.869-4.264a.486.486 0 0 0-.574 0l-5.869 4.264a.479.479 0 0 1-.285.096.49.49 0 0 1-.465-.642l2.241-6.899a.487.487 0 0 0-.178-.546L1.29 9.953a.488.488 0 0 1 .287-.884H8.83c.212 0 .4-.136.465-.337l2.242-6.9A.478.478 0 0 1 12 1.496zm0-.976c-.636 0-1.196.407-1.393 1.012L8.475 8.093h-6.9a1.46 1.46 0 0 0-1.39 1.011 1.462 1.462 0 0 0 .532 1.637l5.581 4.055-2.133 6.563c-.146.452-.072.93.204 1.31a1.458 1.458 0 0 0 2.05.327L12 18.94l5.582 4.056c.253.184.55.282.859.282.467 0 .912-.227 1.19-.61.276-.38.351-.857.204-1.31l-2.132-6.56 5.581-4.056a1.462 1.462 0 0 0 .532-1.637 1.46 1.46 0 0 0-1.392-1.012h-6.9l-2.13-6.563A1.461 1.461 0 0 0 12 .52z" fill="#0B1F35"/></g></svg>