<?xml version="1.0" encoding="UTF-8"?>
<svg width="48px" height="48px" viewBox="0 0 48 48" version="1.1" xmlns="http://www.w3.org/2000/svg" xmlns:xlink="http://www.w3.org/1999/xlink">
    <!-- Generator: Sketch 54.1 (76490) - https://sketchapp.com -->
    <title>icon_error_xxl_black</title>
    <desc>Created with Sketch.</desc>
    <g id="icon_error_xxl_black" stroke="none" stroke-width="1" fill="none" fill-rule="evenodd">
        <rect id="Rectangle" x="0" y="0" width="48" height="48"></rect>
        <g id="icon_error_xl_black" transform="translate(0.000000, 4.000000)" fill="#0B1F35" fill-rule="nonzero">
            <path d="M26.2376471,1.27058824 C25.2268235,-0.423529412 22.7745882,-0.423529412 21.7623529,1.27058824 L1.26635294,35.5863529 C0.228705882,37.3242353 1.47811765,39.5294118 3.504,39.5294118 L44.4974118,39.5294118 C46.5204706,39.5294118 47.7727059,37.3242353 46.7350588,35.5877647 L26.2362353,1.27058824 L26.2376471,1.27058824 Z M25.9694118,12.6409412 L25.728,27.3162353 L22.2691765,27.3162353 L22.0263529,12.6409412 L25.9708235,12.6409412 L25.9694118,12.6409412 Z M23.9915294,34.4527059 C22.7294118,34.4527059 21.7425882,33.4785882 21.7425882,32.232 C21.7425882,30.9868235 22.7294118,30.0112941 23.9915294,30.0112941 C25.2607059,30.0112941 26.256,30.9868235 26.256,32.232 C26.256,33.4771765 25.2621176,34.4527059 23.9915294,34.4527059 Z" id="Shape"></path>
        </g>
    </g>
</svg>