<svg width="18" height="18" viewBox="0 0 18 18" fill="none" xmlns="http://www.w3.org/2000/svg">
<path d="M2.5 5C2.77614 5 3 4.77614 3 4.5C3 4.22386 2.77614 4 2.5 4C2.22386 4 2 4.22386 2 4.5C2 4.77614 2.22386 5 2.5 5ZM2.5 6C3.32843 6 4 5.32843 4 4.5C4 3.67157 3.32843 3 2.5 3C1.67157 3 1 3.67157 1 4.5C1 5.32843 1.67157 6 2.5 6Z" fill="#0B1F35"/>
<path d="M2.5 9.5C2.77614 9.5 3 9.27614 3 9C3 8.72386 2.77614 8.5 2.5 8.5C2.22386 8.5 2 8.72386 2 9C2 9.27614 2.22386 9.5 2.5 9.5ZM2.5 10.5C3.32843 10.5 4 9.82843 4 9C4 8.17157 3.32843 7.5 2.5 7.5C1.67157 7.5 1 8.17157 1 9C1 9.82843 1.67157 10.5 2.5 10.5Z" fill="#0B1F35"/>
<path d="M2.5 14C2.77614 14 3 13.7761 3 13.5C3 13.2239 2.77614 13 2.5 13C2.22386 13 2 13.2239 2 13.5C2 13.7761 2.22386 14 2.5 14ZM2.5 15C3.32843 15 4 14.3284 4 13.5C4 12.6716 3.32843 12 2.5 12C1.67157 12 1 12.6716 1 13.5C1 14.3284 1.67157 15 2.5 15Z" fill="#0B1F35"/>
<path d="M6 4.5C6 4.22386 6.22386 4 6.5 4H15.5C15.7761 4 16 4.22386 16 4.5C16 4.77614 15.7761 5 15.5 5H6.5C6.22386 5 6 4.77614 6 4.5Z" fill="#0B1F35"/>
<path d="M6 9C6 8.72386 6.22386 8.5 6.5 8.5H15.5C15.7761 8.5 16 8.72386 16 9C16 9.27614 15.7761 9.5 15.5 9.5H6.5C6.22386 9.5 6 9.27614 6 9Z" fill="#0B1F35"/>
<path d="M6 13.5C6 13.2239 6.22386 13 6.5 13H15.5C15.7761 13 16 13.2239 16 13.5C16 13.7761 15.7761 14 15.5 14H6.5C6.22386 14 6 13.7761 6 13.5Z" fill="#0B1F35"/>
</svg>
