<?xml version="1.0" encoding="UTF-8"?>
<svg width="24px" height="24px" viewBox="0 0 24 24" version="1.1" xmlns="http://www.w3.org/2000/svg" xmlns:xlink="http://www.w3.org/1999/xlink">
    <!-- Generator: Sketch 48.2 (47327) - http://www.bohemiancoding.com/sketch -->
    <title>icon_verifying_m_white</title>
    <desc>Created with Sketch.</desc>
    <defs></defs>
    <g id="Artboard" stroke="none" stroke-width="1" fill="none" fill-rule="evenodd" transform="translate(-18.000000, -55.000000)">
        <g id="icon_verifying_m_white" transform="translate(18.000000, 55.000000)">
            <polygon id="Shape" points="0 0 24 0 24 24 0 24"></polygon>
            <path d="M9.7,17 L8.5,19 L15.5,19 L14.3,17 L9.7,17 Z M9.1,7 L12,12 L14.9,7 L9.1,7 Z" id="Shape" fill="#FFFFFF" fill-rule="nonzero" opacity="0.3"></path>
            <path d="M18.9,22 L5.1,22 C4.6,22 4.1,21.7 3.8,21.2 C3.5,20.7 3.5,20.2 3.8,19.7 L8.2,12 L3.8,4.2 C3.5,3.7 3.5,3.2 3.8,2.7 C4,2.3 4.5,2 5.1,2 L19,2 C19.5,2 20,2.3 20.3,2.8 C20.6,3.3 20.6,3.8 20.3,4.3 L15.8,12 L20.3,19.8 C20.6,20.3 20.6,20.8 20.3,21.3 C20,21.7 19.5,22 18.9,22 Z M5.1,3 C4.8,3 4.7,3.2 4.6,3.2 C4.6,3.3 4.5,3.5 4.6,3.7 L9.4,12 L4.6,20.2 C4.5,20.4 4.6,20.6 4.6,20.7 C4.6,20.8 4.8,20.9 5,20.9 L18.9,20.9 C19.2,20.9 19.3,20.7 19.3,20.7 C19.3,20.6 19.4,20.4 19.3,20.2 L14.6,12 L19.4,3.8 C19.5,3.6 19.4,3.4 19.4,3.3 C19.4,3.2 19.2,3.1 19,3.1 L5.1,3.1 L5.1,3 Z" id="Shape" fill="#FFFFFF" fill-rule="nonzero"></path>
        </g>
    </g>
</svg>