<?xml version="1.0" encoding="UTF-8"?>
<svg width="36px" height="36px" viewBox="0 0 36 36" version="1.1" xmlns="http://www.w3.org/2000/svg" xmlns:xlink="http://www.w3.org/1999/xlink">
    <!-- Generator: Sketch 54.1 (76490) - https://sketchapp.com -->
    <title>icon_error_xl_white</title>
    <desc>Created with Sketch.</desc>
    <g id="icon_error_xl_white" stroke="none" stroke-width="1" fill="none" fill-rule="evenodd">
        <g id="icon_error_xl_color" transform="translate(0.000000, 4.000000)" fill="#FFFFFF" fill-rule="nonzero">
            <path d="M35.0502353,26.6908235 L19.6782353,0.952941176 C18.9201176,-0.316588235 17.0809412,-0.316588235 16.3217647,0.952941176 L0.949764706,26.6929412 C0.171529412,27.9931765 1.10964706,29.6470588 2.628,29.6470588 L33.3730588,29.6470588 C34.8903529,29.6470588 35.8284706,27.9931765 35.0502353,26.6908235 Z M19.4781176,9.48070588 L19.296,20.4871765 L16.7018824,20.4871765 L16.5197647,9.48070588 L19.4781176,9.48070588 Z M17.9936471,25.8395294 C17.0470588,25.8395294 16.3069412,25.1089412 16.3069412,24.174 C16.3069412,23.2401176 17.0470588,22.5084706 17.9936471,22.5084706 C18.9455294,22.5084706 19.692,23.2401176 19.692,24.174 C19.692,25.1078824 18.9465882,25.8395294 17.9936471,25.8395294 Z" id="Shape"></path>
        </g>
        <rect id="Rectangle" x="0" y="0" width="36" height="36"></rect>
    </g>
</svg>