<svg width="12" height="12" fill="none" xmlns="http://www.w3.org/2000/svg"><path fill-rule="evenodd" clip-rule="evenodd" d="M7.706 4.933h1.576a.986.986 0 01.96 1.207l-.57 2.612c-.158.578-.687.981-1.286.981H5.733A1.335 1.335 0 014.4 8.4V5.61c0-.33.121-.647.342-.893l2.127-2.362a.266.266 0 01.262-.08l.392.098c.244.06.44.227.54.457.1.23.087.488-.035.707l-.555 1a.262.262 0 00.003.265c.024.04.093.131.23.131zM1.733 9.2V4.933c0-.294.24-.533.534-.533h1.6v5.333h-1.6a.533.533 0 01-.534-.533z" fill="#0B1F35"/></svg>