<svg xmlns="http://www.w3.org/2000/svg" width="18" height="18" viewBox="0 0 18 18" fill="none"><rect width="18" height="18" fill="none"/>
<path d="M9 1C4.589 1 1 4.589 1 9C1 13.411 4.589 17 9 17C13.411 17 17 13.411 17 9C17 4.589 13.411 1 9 1ZM9.004 15C8.118 15 7.5 14.386 7.5 13.507C7.5 12.62 8.118 12 9.004 12C9.885 12 10.5 12.62 10.5 13.507C10.5 14.386 9.885 15 9.004 15ZM10.766 9.123C10.009 9.569 9.875 9.819 9.875 10.298V11H7.925L7.914 10.2C7.88 9.204 8.292 8.521 9.291 7.923C10.042 7.47 10.169 7.193 10.169 6.742C10.169 6.209 9.735 5.865 9.065 5.865C8.369 5.865 7.943 6.237 7.898 6.885L7.881 7.186H7.643H5.931L5.941 6.926C6.012 5.118 7.265 4 9.135 4C10.969 4 12.25 5.104 12.25 6.686C12.25 7.713 11.75 8.533 10.766 9.123Z" fill="#EF3124"/>
</svg>
