<svg width="25" height="24" viewBox="0 0 25 24" xmlns="http://www.w3.org/2000/svg"><g fill="none" fill-rule="evenodd"><path d="M.88 0h24v24h-24z"/><path d="M10.58 17l-1.2 2h7l-1.2-2h-4.6zm-.6-10l2.9 5 2.9-5h-5.8z" fill="#FFF" fill-rule="nonzero" opacity=".3"/><path d="M19.78 21.5c.404 0 .77-.193.972-.457.205-.342.205-.644-.004-.993l-4.645-8.052.146-.25 4.503-7.705c.205-.342.205-.644 0-.986-.21-.35-.55-.557-.871-.557H5.98c-.4 0-.734.186-.872.457-.205.342-.205.644.007.997l4.54 8.048-.141.246-4.406 7.71c-.205.34-.205.643 0 .985.21.35.55.557.872.557h13.8z" stroke="#FFF"/></g></svg>