<?xml version="1.0" encoding="UTF-8"?>
<svg width="24px" height="24px" viewBox="0 0 24 24" version="1.1" xmlns="http://www.w3.org/2000/svg" xmlns:xlink="http://www.w3.org/1999/xlink">
    <!-- Generator: Sketch 50.2 (55047) - http://www.bohemiancoding.com/sketch -->
    <title>icon_arrow-expand_m_white</title>
    <desc>Created with Sketch.</desc>
    <defs></defs>
    <g id="Page-1" stroke="none" stroke-width="1" fill="none" fill-rule="evenodd">
        <g id="icon_arrow-expand_m_white" transform="translate(12.000000, 12.000000) scale(-1, 1) translate(-12.000000, -12.000000) ">
            <polygon id="Shape" points="0 0 24 0 24 24 0 24"></polygon>
            <g id="Group" transform="translate(1.000000, 8.000000)" fill="#FFFFFF" fill-opacity="0.9" fill-rule="nonzero">
                <path d="M19.5331991,0.0750251436 C20.3204162,-0.183007144 21.1677583,0.245981946 21.4257906,1.0331991 C21.6838229,1.82041624 21.2548338,2.66775833 20.4676167,2.92579062 L11.3150743,5.92579062 C11.0065883,6.02690549 10.673624,6.02521205 10.3661825,5.92096462 L1.51872485,2.92096462 C0.734173024,2.65493843 0.313824947,1.80327667 0.57985114,1.01872485 C0.845877334,0.234173024 1.69753909,-0.186175053 2.48209091,0.0798511402 L10.8559072,2.91924861 L19.5331991,0.0750251436 Z" id="Expand" transform="translate(11.000407, 3.000204) scale(1, -1) translate(-11.000407, -3.000204) "></path>
            </g>
        </g>
    </g>
</svg>