<svg width="18" height="18" viewBox="0 0 18 18" fill="none" xmlns="http://www.w3.org/2000/svg">
<rect width="18" height="18" fill="none"/> 
<path d="M15.7475 17.37H2.24752V9.87H1.43752C0.447518 9.87 0.140018 9.4575 0.0500176 9.2175C-0.0399823 8.9775 -0.0849823 8.4675 0.612518 7.8675L8.99752 0.75L17.3825 7.86C18.08 8.4825 18.035 8.9775 17.945 9.21C17.855 9.4425 17.5475 9.87 16.5575 9.87H15.7475V17.37ZM2.99752 16.62H14.9975V9.12H16.5575C16.6782 9.14296 16.8023 9.13942 16.9215 9.10963C17.0406 9.07985 17.1519 9.02453 17.2475 8.9475C17.2305 8.8396 17.1902 8.73671 17.1293 8.64603C17.0684 8.55535 16.9885 8.47906 16.895 8.4225L8.99752 1.74L1.10002 8.43C1.00745 8.48577 0.92802 8.56088 0.867179 8.6502C0.806338 8.73952 0.765519 8.84094 0.747518 8.9475C0.843163 9.02453 0.954407 9.07985 1.07355 9.10963C1.19269 9.13942 1.31688 9.14296 1.43752 9.12H2.99752V16.62Z" fill="#0B1F35"/>
<path d="M6.75 12C6.75 10.7574 7.75736 9.75 9 9.75V9.75C10.2426 9.75 11.25 10.7574 11.25 12V17.25H9H6.75V12Z" fill="#0B1F35" fill-opacity="0.3"/>
</svg>
