<?xml version="1.0" encoding="UTF-8"?>
<svg width="36px" height="36px" viewBox="0 0 36 36" version="1.1" xmlns="http://www.w3.org/2000/svg" xmlns:xlink="http://www.w3.org/1999/xlink">
    <!-- Generator: Sketch 53.2 (72643) - https://sketchapp.com -->
    <title>icon_attention-mark_xl_black</title>
    <desc>Created with Sketch.</desc>
    <g id="Page-1" stroke="none" stroke-width="1" fill="none" fill-rule="evenodd">
        <g id="icon_attention-mark_xl_black">
            <polygon id="Shape" points="0 0 36 0 36 36 0 36"></polygon>
            <path d="M18,34.5 C27.11265,34.5 34.5,27.11265 34.5,18 C34.5,8.887305 27.11265,1.5 18,1.5 C8.887305,1.5 1.5,8.887305 1.5,18 C1.5,27.11265 8.887305,34.5 18,34.5 Z" id="Path" fill="#0B1F35" fill-rule="nonzero"></path>
            <path d="M19.50015,19.5 L19.87515,9 L16.12515,9 L16.50015,19.5 L19.50015,19.5 Z M16.3971,26.34675 C16.8189,26.7702 17.39355,27.0057 17.99115,27 C19.27515,27 20.25015,26.0235 20.25015,24.75 C20.25015,23.475 19.27365,22.5 17.99115,22.5 C16.74315,22.5 15.75015,23.475 15.75015,24.75 C15.74205,25.3476 15.9753,25.9233 16.3971,26.34675 Z" id="Shape" fill="#FFFFFF" fill-rule="nonzero"></path>
        </g>
    </g>
</svg>