<svg width="18" height="18" viewBox="0 0 18 18" fill="none" xmlns="http://www.w3.org/2000/svg">
<path d="M4 4.5C4 4.22386 4.22386 4 4.5 4H13.5C13.7761 4 14 4.22386 14 4.5C14 4.77614 13.7761 5 13.5 5H4.5C4.22386 5 4 4.77614 4 4.5Z" fill="#0B1F35"/>
<path d="M4 7.5C4 7.22386 4.22386 7 4.5 7H13.5C13.7761 7 14 7.22386 14 7.5C14 7.77614 13.7761 8 13.5 8H4.5C4.22386 8 4 7.77614 4 7.5Z" fill="#0B1F35"/>
<path d="M4 10.5C4 10.2239 4.22386 10 4.5 10H13.5C13.7761 10 14 10.2239 14 10.5C14 10.7761 13.7761 11 13.5 11H4.5C4.22386 11 4 10.7761 4 10.5Z" fill="#0B1F35"/>
<path d="M4 13.5C4 13.2239 4.22386 13 4.5 13H13.5C13.7761 13 14 13.2239 14 13.5C14 13.7761 13.7761 14 13.5 14H4.5C4.22386 14 4 13.7761 4 13.5Z" fill="#0B1F35"/>
</svg>
