<?xml version="1.0" encoding="UTF-8"?>
<svg width="28px" height="28px" viewBox="0 0 28 28" version="1.1" xmlns="http://www.w3.org/2000/svg" xmlns:xlink="http://www.w3.org/1999/xlink">
    <!-- Generator: Sketch 51 (57462) - http://www.bohemiancoding.com/sketch -->
    <title>icon_attention_l_white</title>
    <desc>Created with Sketch.</desc>
    <defs></defs>
    <g id="Settings_Rates" stroke="none" stroke-width="1" fill="none" fill-rule="evenodd">
        <g id="icon_attention_l_white">
            <rect id="Mask" x="0" y="0" width="28" height="28"></rect>
            <g id="Group" transform="translate(1.000000, 2.000000)" fill="#FFFFFF">
                <path d="M13.4384002,1.84113453 C13.3925718,1.75748032 13.3237713,1.6886803 13.2401167,1.64285257 C12.9979339,1.51017973 12.6940533,1.59895512 12.5613804,1.84113795 L1.64953291,21.7597746 C1.60919043,21.8334163 1.58804373,21.916032 1.58804373,22 C1.58804373,22.2761424 1.81190135,22.5 2.08804373,22.5 L23.9119412,22.5 C23.9959105,22.5 24.0785275,22.4788526 24.1521701,22.4385089 C24.3943519,22.3058342 24.4831249,22.0019529 24.3504502,21.7597711 L13.4384002,1.84113453 Z M14.3154181,1.36067679 L25.2274681,21.2793134 C25.6254923,22.0058588 25.3591732,22.9175026 24.6326278,23.3155268 C24.4117001,23.4365579 24.1638491,23.5 23.9119412,23.5 L2.08804373,23.5 C1.2596166,23.5 0.588043727,22.8284271 0.588043727,22 C0.588043727,21.7480961 0.651483823,21.5002488 0.772511268,21.2793237 L11.6843588,1.36068708 C12.0823773,0.634138563 12.9940191,0.367812395 13.7205676,0.765830933 C13.9715313,0.903314118 14.1779329,1.10971417 14.3154181,1.36067679 Z" id="Triangle" fill-rule="nonzero" opacity="0.900000036" transform="translate(13.000133, 12.040541) rotate(-360.000000) translate(-13.000133, -12.040541) "></path>
                <path d="M13.0000255,8 L13.0000255,8 C13.5583616,8 14.0109824,8.45262081 14.0109824,9.01095688 C14.0109824,9.03370477 14.0102146,9.05644618 14.0086803,9.07914227 L13.5773033,15.4604289 C13.5567724,15.764138 13.3044278,16 13.0000255,16 L13.0000255,16 C12.6956232,16 12.4432786,15.764138 12.4227477,15.4604289 L11.9913707,9.07914227 C11.9537129,8.52207759 12.3747754,8.0399598 12.9318401,8.00230205 C12.9545362,8.00076779 12.9772776,8 13.0000255,8 Z" id="Rectangle-4" opacity="0.300000012"></path>
                <rect id="Rectangle-4" opacity="0.300000012" x="11.75" y="17.5" width="2.5" height="2.5" rx="1.25"></rect>
            </g>
        </g>
    </g>
</svg>