<svg xmlns="http://www.w3.org/2000/svg" width="48" height="48" viewBox="0 0 48 48" fill="none"><rect width="48" height="48" fill="none"/>
<path d="M47.2902 18.1827C46.9031 16.6281 45.2285 15.8921 43.629 15.9823C43.4208 15.9941 43.2111 16 43 16C36.9249 16 32 11.0751 32 5C32 4.7889 32.0059 4.57919 32.0177 4.37102C32.1078 2.7715 31.3719 1.09689 29.8173 0.709845C27.9547 0.246132 26.0061 0 24 0C10.7452 0 0 10.7452 0 24C0 37.2548 10.7452 48 24 48C37.2548 48 48 37.2548 48 24C48 21.9939 47.7539 20.0453 47.2902 18.1827Z" fill="black"/>
</svg>
