<svg width="80" height="80" viewBox="0 0 80 80" fill="none" xmlns="http://www.w3.org/2000/svg">
<rect width="80" height="80" fill="none"/>
<path fill-rule="nonzero" clip-rule="nonzero" d="M40 80C62.0914 80 80 62.0914 80 40C80 17.9086 62.0914 0 40 0C17.9086 0 0 17.9086 0 40C0 62.0914 17.9086 80 40 80Z" fill="#5C85AD" fill-opacity="0.07"/>
<path d="M24.2688 27.3637C24.096 26.2728 24.8403 25.2483 25.9313 25.0755L51.4885 21.0276C52.5795 20.8548 53.604 21.5992 53.7767 22.6901L56.2097 38.051C56.3825 39.142 55.6381 40.1665 54.5472 40.3393L28.99 44.3872C27.899 44.5599 26.8745 43.8156 26.7017 42.7246L24.2688 27.3637Z" fill="#5C85AD"/>
<rect x="20" y="29" width="38" height="30" rx="2.4" fill="#A5C2D6"/>
<rect x="42" y="39" width="20" height="11" rx="2.4" fill="#D2E0EB"/>
<path fill-rule="nonzero" clip-rule="nonzero" d="M57.5 47C58.8807 47 60 45.8807 60 44.5C60 43.1193 58.8807 42 57.5 42C56.1193 42 55 43.1193 55 44.5C55 45.8807 56.1193 47 57.5 47Z" fill="#5C85AD"/>
</svg>
