<svg width="80" height="80" viewBox="0 0 80 80" fill="none" xmlns="http://www.w3.org/2000/svg">
<rect width="80" height="80" fill="none"></rect>
<path d="M71 59C71 62.866 67.866 66 64 66L15 66C11.6863 66 9 63.3137 9 60L9 32L71 32L71 59Z" fill="url(#paint0_linear)"/>
<path d="M9 30C9 26.134 12.134 23 16 23H65C68.3137 23 71 25.6863 71 29V43.4835L68.2668 46.5971C66.3681 48.76 63.6296 50 60.7516 50H19.1811C16.2592 50 13.4836 48.7221 11.5837 46.5023L9 43.4835V30Z" fill="url(#paint1_linear)"/>
<path d="M59 53C59 53.5523 58.5523 54 58 54L53 54C52.4477 54 52 53.5523 52 53L52 45C52 44.4477 52.4477 44 53 44L58 44C58.5523 44 59 44.4477 59 45L59 53Z" fill="#18293D"/>
<path d="M28 53C28 53.5523 27.5523 54 27 54L22 54C21.4477 54 21 53.5523 21 53L21 45C21 44.4477 21.4477 44 22 44L27 44C27.5523 44 28 44.4477 28 45L28 53Z" fill="#18293D"/>
<path fill-rule="evenodd" clip-rule="evenodd" d="M48 23L46.9545 18L33.0455 18L32 23L28 23L29.1017 17.3316C29.4278 15.4078 31.0943 14 33.0455 14L46.9545 14C48.9057 14 50.5722 15.4078 50.8983 17.3316L52 23L48 23Z" fill="#18293D"/>
<defs>
<linearGradient id="paint0_linear" x1="40" y1="24.4256" x2="40" y2="56.0462" gradientUnits="userSpaceOnUse">
<stop stop-color="#445C78"/>
<stop offset="1" stop-color="#637B98"/>
</linearGradient>
<linearGradient id="paint1_linear" x1="40" y1="23" x2="40" y2="50" gradientUnits="userSpaceOnUse">
<stop stop-color="#D6DDE2"/>
<stop offset="0.51282" stop-color="#B5C6D2"/>
</linearGradient>
</defs>
</svg>
