<svg xmlns="http://www.w3.org/2000/svg" width="80" height="80" viewBox="0 0 80 80" fill="none"><rect width="80" height="80" fill="none"/>
<circle cx="40.3999" cy="39.9438" r="30" fill="#E7ECF0"/>
<path fill-rule="evenodd" clip-rule="evenodd" d="M41.808 57.9158C44.4825 61.2915 47.7265 65.386 49.1715 66.6029C51.3358 68.4254 56.2993 69.2232 58.0079 69.2232L58.0753 69.2232C59.7264 69.2228 60.1009 69.2227 61.1973 71.6149C62.5978 74.6707 69.1495 75.1928 73.0245 72.8178C76.8995 70.4428 78.6663 64.9183 75.6495 59.6928C72.5436 54.7174 69.0023 49.2005 66.4372 46.3276C62.9967 42.4742 59.2237 39.1612 56.3486 36.8657L53.4005 39.0018L51.6273 37.6405C51.1666 37.2868 50.6152 37.0719 50.0348 37.0505C48.0741 36.9781 44.963 37.0299 42.6777 37.068C41.6836 37.0846 40.8458 37.0985 40.3269 37.0985C37.9348 37.0985 37.9348 38.4654 38.1627 39.1489C38.3905 39.8323 38.8461 40.9714 40.3269 41.9965C41.5115 42.8167 44.4655 43.0976 45.7944 43.1356L46.458 44.0323L35.9897 51.6174C36.9122 52.2625 37.7897 52.9919 38.5298 53.8529C39.2869 54.7336 40.4769 56.2357 41.808 57.9158Z" fill="white"/>
<path fill-rule="evenodd" clip-rule="evenodd" d="M48.2843 24.4544L41.3479 9.4165L34.4116 24.4544L17.9663 26.4043L30.1248 37.6481L26.8973 53.891L41.3479 45.8022L50.3258 50.8276C50.0076 49.2617 49.8851 47.791 50.009 46.8309L45.7943 41.1356C44.4653 41.0976 41.5114 40.8167 40.3267 39.9965C38.8459 38.9714 38.3903 37.8323 38.1625 37.1489C37.9347 36.4654 37.9347 35.0985 40.3267 35.0985C40.8456 35.0985 41.6835 35.0846 42.6776 35.068C44.9629 35.0299 48.074 34.9781 50.0346 35.0505C50.615 35.0719 51.1665 35.2868 51.6272 35.6405L53.3291 36.9471L64.7296 26.4043L48.2843 24.4544Z" fill="#D6DDE2"/>
<path fill-rule="evenodd" clip-rule="evenodd" d="M54.589 39.2838L60.3508 43.7073L59.7418 44.5005L51.3228 38.037C50.9369 37.7407 50.4838 37.5673 50.0163 37.55C48.0689 37.4781 44.9957 37.5294 42.7147 37.5674C42.5151 37.5708 42.2481 37.5555 41.9454 37.5382C40.8074 37.4731 39.1632 37.3791 38.6847 38.1348C38.529 38.3806 38.5454 38.7161 38.6369 38.9906C39.7218 42.2451 43.0801 42.5577 46.0516 42.6426L50.5308 48.6952C50.1302 51.7985 50.9351 56.1883 52.9353 58.6647C54.7463 60.9068 57.9313 63.8967 61.0595 63.979L61.0332 64.9787C57.5951 64.8882 54.1635 61.7768 52.1574 59.293C51.0494 57.9212 50.2792 56.0262 49.8462 54.0609L41.3479 49.304L36.962 51.759C37.606 52.2764 38.443 52.9854 38.9087 53.5271C39.6722 54.4154 40.8738 55.9319 42.21 57.6185L42.2107 57.6194C42.8805 58.4648 43.5841 59.3528 44.2834 60.2259C45.3349 61.5389 46.3798 62.822 47.2953 63.8891C48.2181 64.9648 48.9873 65.7945 49.4933 66.2206C50.4832 67.0542 52.1699 67.6876 53.8805 68.1113C55.5783 68.5318 57.2046 68.7234 58.0076 68.7234C58.0765 68.7234 58.1449 68.7231 58.2126 68.7229C58.5465 68.7218 58.8637 68.7208 59.1445 68.7467C59.4948 68.779 59.8372 68.8559 60.1603 69.0517C60.7953 69.4363 61.2128 70.1951 61.6669 71.4442L60.7271 71.7859C60.27 70.5286 59.947 70.0916 59.6422 69.907C59.4955 69.8181 59.3182 69.767 59.0527 69.7425C58.8237 69.7214 58.5652 69.7221 58.2322 69.723L58.1197 69.7232L58.0076 69.7234C57.1019 69.7234 55.3923 69.516 53.6401 69.082C51.9007 68.6512 50.0235 67.9745 48.8492 66.9855C48.2731 66.5004 47.4558 65.612 46.5363 64.5403C45.6096 63.46 44.5564 62.1665 43.5028 60.851C42.7916 59.963 42.0816 59.0669 41.4094 58.2184L41.4083 58.217L41.4065 58.2148L41.4054 58.2134C40.0795 56.5398 38.9009 55.0521 38.1504 54.179C37.6492 53.596 36.6755 52.8038 36.0134 52.29L26.8973 57.3928V55.7738L27.1361 54.6917L26.8974 55.8928L41.3481 47.804L49.5616 52.4015C49.413 51.2027 49.3894 50.0249 49.4905 48.9704L45.5356 43.6263C42.3595 43.4865 38.8232 42.7118 37.6883 39.3068C37.5519 38.8979 37.4544 38.2083 37.8399 37.5997C38.5743 36.44 40.3476 36.5019 41.7571 36.5511C42.0755 36.5622 42.3753 36.5727 42.6404 36.5683C44.9297 36.5302 48.0791 36.4778 50.0532 36.5507C50.7464 36.5763 51.3963 36.8327 51.9317 37.2438L53.7028 38.6034L64.6719 28.4595L64.7296 28.4613V29.906L54.589 39.2838ZM22.8114 34.7081C22.6965 34.5454 22.6121 34.3506 22.5503 34.1452L17.9663 29.906V28.4613L18.0242 28.4595L30.1249 39.6498L30.1163 39.6934L30.1187 39.6956L28.6343 47.1001C28.6343 47.1001 24.8303 45.002 24.2347 44.0391C23.3471 42.604 23.855 41.1764 24.2347 40.7207C23.5515 40.5309 22.0486 40.0601 21.5018 39.6956C20.8184 39.2399 19.7965 38.3516 20.2338 36.5298C20.6712 34.708 22.8114 34.7081 22.8114 34.7081Z" fill="#B4C6D2"/>
</svg>
