<svg width="80" height="80" viewBox="0 0 80 80" fill="none" xmlns="http://www.w3.org/2000/svg">
<rect width="80" height="80" fill="none"></rect>
<path d="M47.3702 18.8685L54.0033 12L55.5351 12.4844L56.0029 14.0706L57.5344 14.5554L58.0022 16.1416L59.5341 16.626L60.0018 18.2121L61.5337 18.6965L62.0015 20.2827L63.5333 20.7673L64.0011 22.3534L65.533 22.8378L66.0007 24.424L67.5326 24.9084L68.0004 26.4946L69.5322 26.9791L70 28.5653L63.3669 35.4338L61.8061 34.9794L61.3673 33.3631L59.8065 32.9087L59.3677 31.2925L57.8069 30.8381L57.368 29.222L55.8072 28.7676L55.3684 27.1512L53.8076 26.6968L53.3688 25.0807L51.808 24.6263L51.3692 23.0101L49.8084 22.5557L49.3698 20.9391L47.809 20.4847L47.3702 18.8685Z" fill="white"/>
<path d="M21.7043 34.4199L17.3923 38.8849C16.1893 40.1306 14.2389 40.1306 13.0359 38.8849L10.9022 36.6754C9.69925 35.4298 9.69925 33.4101 10.9022 32.1644L15.4131 27.4935C15.0096 26.3616 15.2468 25.0403 16.1247 24.1313L17.3965 22.8144C18.2744 21.9053 19.5504 21.6597 20.6434 22.0775L23.9976 18.6043C24.885 17.6854 26.222 17.4158 27.3775 17.9228L30.3749 19.2378C32.3866 20.1204 32.8962 22.8307 31.3514 24.4304L27.3324 28.592L57.8069 60.1239C59.0099 61.3696 59.0099 63.3892 57.8069 64.6349L56.5352 65.9518C55.3322 67.1974 53.3817 67.1974 52.1788 65.9518L21.7043 34.4199Z" fill="white"/>
<path d="M29.613 47.2113C20.5825 56.7747 15.8888 64.7305 17.6985 66.6044C19.5083 68.4783 27.1603 63.586 36.396 54.235L29.613 47.2113Z" fill="white"/>
<path d="M47.1845 41.788C46.52 42.7765 46.93 42.683 46.2232 43.5512L39.9925 37.0993C40.8355 36.3635 40.7383 36.7564 41.7192 36.0671C43.1242 35.08 44.5431 34.083 45.6103 32.9114L45.6609 32.8561C46.2974 32.1599 47.4539 30.895 47.8673 28.8019C48.1518 27.3615 47.2537 25.7744 46.4474 24.7589L44.0645 22.2914L45.611 20.6901L61.6081 37.2549L60.0616 38.8563L58.1606 36.8878C57.18 36.0529 55.6471 35.1227 54.256 35.4174C52.2391 35.8445 50.9474 37.1085 50.2873 37.7545C49.1445 38.8726 48.1613 40.3352 47.1845 41.788Z" fill="white"/>
</svg>
