<svg width="96" height="96" viewBox="0 0 96 96" xmlns="http://www.w3.org/2000/svg"><g fill="none" fill-rule="evenodd"><path d="M0 0h96v96H0z"/><path d="M71.992 85.638L52.104 38.335a5.343 5.343 0 0 0 1.767-3.96 5.375 5.375 0 1 0-10.75 0c0 1.573.688 2.976 1.767 3.96L25 85.638l2.618 2.204 20.878-13.357 20.878 13.359 2.618-2.206zM48.496 39.75c.104 0 .2-.025.303-.03L58.843 63.61l-10.347 6.62-10.347-6.62L48.193 39.72c.102.005.199.03.303.03zM30.534 81.723l6.207-14.76 8.431 5.395-14.638 9.365zm21.285-9.365l8.432-5.394 6.206 14.76-14.638-9.366z" fill="#0F2338" opacity=".3"/><path d="M77.536 61.908l-.74-.673a38.818 38.818 0 0 0 10.12-26.176A38.82 38.82 0 0 0 76.807 8.89l.74-.673a39.82 39.82 0 0 1 10.37 26.84 39.818 39.818 0 0 1-10.38 26.85zM67.33 51.69l-.752-.658a24.225 24.225 0 0 0 6.005-15.973c0-5.945-2.29-11.903-6.323-16.328l.74-.673c4.202 4.609 6.583 10.808 6.583 17a25.225 25.225 0 0 1-6.253 16.633zM29 18.058l.74.673a24.176 24.176 0 0 0-6.323 16.328 24.222 24.222 0 0 0 6.005 15.973l-.752.659a25.222 25.222 0 0 1-6.253-16.632A25.176 25.176 0 0 1 29 18.058zM18.455 8.218l.74.673A38.82 38.82 0 0 0 9.082 35.059a38.818 38.818 0 0 0 10.12 26.176l-.74.673a39.818 39.818 0 0 1-10.38-26.85 39.82 39.82 0 0 1 10.372-26.84z" fill="#0F2338" fill-rule="nonzero"/></g></svg>