<svg xmlns="http://www.w3.org/2000/svg" width="100" height="145" viewBox="0 0 100 145" fill="none"><rect width="100" height="145" fill="none"/>
<g clip-path="url(#clip0)">
<path d="M-1.45773 126.822L0.874628 123.324H7.87171L5.53935 126.822H-1.45773Z" fill="white" fill-opacity="0.6"/>
<path d="M10.2041 126.822L12.5364 123.324H19.5335L17.2012 126.822H10.2041Z" fill="white" fill-opacity="0.6"/>
<path d="M24.1982 123.324L21.8659 126.822H28.863L31.1953 123.324H24.1982Z" fill="white" fill-opacity="0.6"/>
<path d="M33.5277 126.822L35.8601 123.324H42.8571L40.5248 126.822H33.5277Z" fill="white" fill-opacity="0.6"/>
<path d="M47.5219 123.324L45.1895 126.822H52.1866L54.5189 123.324H47.5219Z" fill="white" fill-opacity="0.6"/>
<path d="M56.8513 126.822L59.1837 123.324H66.1807L63.8484 126.822H56.8513Z" fill="white" fill-opacity="0.6"/>
<path d="M70.8455 123.324L68.5131 126.822H75.5102L77.8426 123.324H70.8455Z" fill="white" fill-opacity="0.6"/>
<path d="M80.1749 126.822L82.5073 123.324H89.5044L87.172 126.822H80.1749Z" fill="white" fill-opacity="0.6"/>
<path d="M94.1691 123.324L91.8367 126.822H98.8338L101.166 123.324H94.1691Z" fill="white" fill-opacity="0.6"/>
<path d="M14.2857 88.2944C14.1247 88.2944 13.9942 88.1639 13.9942 88.0029C13.9942 87.8419 14.1247 87.7114 14.2857 87.7114C14.4467 87.7114 14.5773 87.8419 14.5773 88.0029C14.5773 88.1639 14.4467 88.2944 14.2857 88.2944Z" fill="white" fill-opacity="0.6"/>
<path d="M13.1195 88.2944C12.9585 88.2944 12.828 88.1639 12.828 88.0029C12.828 87.8419 12.9585 87.7114 13.1195 87.7114C13.2805 87.7114 13.4111 87.8419 13.4111 88.0029C13.4111 88.1639 13.2805 88.2944 13.1195 88.2944Z" fill="white" fill-opacity="0.6"/>
<path d="M11.9533 88.2944C11.7923 88.2944 11.6618 88.1639 11.6618 88.0029C11.6618 87.8419 11.7923 87.7114 11.9533 87.7114C12.1144 87.7114 12.2449 87.8419 12.2449 88.0029C12.2449 88.1639 12.1144 88.2944 11.9533 88.2944Z" fill="white" fill-opacity="0.6"/>
<path d="M10.7872 88.2944C10.6261 88.2944 10.4956 88.1639 10.4956 88.0029C10.4956 87.8419 10.6261 87.7114 10.7872 87.7114C10.9482 87.7114 11.0787 87.8419 11.0787 88.0029C11.0787 88.1639 10.9482 88.2944 10.7872 88.2944Z" fill="white" fill-opacity="0.6"/>
<path d="M9.62098 88.2944C9.45997 88.2944 9.32944 88.1639 9.32944 88.0029C9.32944 87.8419 9.45997 87.7114 9.62098 87.7114C9.782 87.7114 9.91253 87.8419 9.91253 88.0029C9.91253 88.1639 9.782 88.2944 9.62098 88.2944Z" fill="white" fill-opacity="0.6"/>
<path d="M9.62098 89.4606C9.45997 89.4606 9.32944 89.3301 9.32944 89.1691C9.32944 89.0081 9.45997 88.8775 9.62098 88.8775C9.782 88.8775 9.91253 89.0081 9.91253 89.1691C9.91253 89.3301 9.782 89.4606 9.62098 89.4606Z" fill="white" fill-opacity="0.6"/>
<path d="M14.2857 89.4606C14.1247 89.4606 13.9942 89.3301 13.9942 89.1691C13.9942 89.0081 14.1247 88.8775 14.2857 88.8775C14.4467 88.8775 14.5773 89.0081 14.5773 89.1691C14.5773 89.3301 14.4467 89.4606 14.2857 89.4606Z" fill="white" fill-opacity="0.6"/>
<path d="M11.9533 89.4606C11.7923 89.4606 11.6618 89.3301 11.6618 89.1691C11.6618 89.0081 11.7923 88.8775 11.9533 88.8775C12.1144 88.8775 12.2449 89.0081 12.2449 89.1691C12.2449 89.3301 12.1144 89.4606 11.9533 89.4606Z" fill="white" fill-opacity="0.6"/>
<path d="M14.2857 90.6268C14.1247 90.6268 13.9942 90.4963 13.9942 90.3353C13.9942 90.1742 14.1247 90.0437 14.2857 90.0437C14.4467 90.0437 14.5773 90.1742 14.5773 90.3353C14.5773 90.4963 14.4467 90.6268 14.2857 90.6268Z" fill="white" fill-opacity="0.6"/>
<path d="M13.1195 90.6268C12.9585 90.6268 12.828 90.4963 12.828 90.3353C12.828 90.1742 12.9585 90.0437 13.1195 90.0437C13.2805 90.0437 13.4111 90.1742 13.4111 90.3353C13.4111 90.4963 13.2805 90.6268 13.1195 90.6268Z" fill="white" fill-opacity="0.6"/>
<path d="M11.9533 90.6268C11.7923 90.6268 11.6618 90.4963 11.6618 90.3353C11.6618 90.1742 11.7923 90.0437 11.9533 90.0437C12.1144 90.0437 12.2449 90.1742 12.2449 90.3353C12.2449 90.4963 12.1144 90.6268 11.9533 90.6268Z" fill="white" fill-opacity="0.6"/>
<path d="M10.7872 90.6268C10.6261 90.6268 10.4956 90.4963 10.4956 90.3353C10.4956 90.1742 10.6261 90.0437 10.7872 90.0437C10.9482 90.0437 11.0787 90.1742 11.0787 90.3353C11.0787 90.4963 10.9482 90.6268 10.7872 90.6268Z" fill="white" fill-opacity="0.6"/>
<path d="M9.62098 90.6268C9.45997 90.6268 9.32944 90.4963 9.32944 90.3353C9.32944 90.1742 9.45997 90.0437 9.62098 90.0437C9.782 90.0437 9.91253 90.1742 9.91253 90.3353C9.91253 90.4963 9.782 90.6268 9.62098 90.6268Z" fill="white" fill-opacity="0.6"/>
<path d="M14.2857 92.3761C14.1247 92.3761 13.9942 92.2456 13.9942 92.0845C13.9942 91.9235 14.1247 91.793 14.2857 91.793C14.4467 91.793 14.5773 91.9235 14.5773 92.0845C14.5773 92.2456 14.4467 92.3761 14.2857 92.3761Z" fill="white" fill-opacity="0.6"/>
<path d="M13.1195 92.3761C12.9585 92.3761 12.828 92.2456 12.828 92.0845C12.828 91.9235 12.9585 91.793 13.1195 91.793C13.2805 91.793 13.4111 91.9235 13.4111 92.0845C13.4111 92.2456 13.2805 92.3761 13.1195 92.3761Z" fill="white" fill-opacity="0.6"/>
<path d="M11.9533 92.3761C11.7923 92.3761 11.6618 92.2456 11.6618 92.0845C11.6618 91.9235 11.7923 91.793 11.9533 91.793C12.1144 91.793 12.2449 91.9235 12.2449 92.0845C12.2449 92.2456 12.1144 92.3761 11.9533 92.3761Z" fill="white" fill-opacity="0.6"/>
<path d="M10.7872 92.3761C10.6261 92.3761 10.4956 92.2456 10.4956 92.0845C10.4956 91.9235 10.6261 91.793 10.7872 91.793C10.9482 91.793 11.0787 91.9235 11.0787 92.0845C11.0787 92.2456 10.9482 92.3761 10.7872 92.3761Z" fill="white" fill-opacity="0.6"/>
<path d="M9.62098 92.3761C9.45997 92.3761 9.32944 92.2456 9.32944 92.0845C9.32944 91.9235 9.45997 91.793 9.62098 91.793C9.782 91.793 9.91253 91.9235 9.91253 92.0845C9.91253 92.2456 9.782 92.3761 9.62098 92.3761Z" fill="white" fill-opacity="0.6"/>
<path d="M9.62098 93.5423C9.45997 93.5423 9.32944 93.4117 9.32944 93.2507C9.32944 93.0897 9.45997 92.9592 9.62098 92.9592C9.782 92.9592 9.91253 93.0897 9.91253 93.2507C9.91253 93.4117 9.782 93.5423 9.62098 93.5423Z" fill="white" fill-opacity="0.6"/>
<path d="M14.2857 93.5423C14.1247 93.5423 13.9942 93.4117 13.9942 93.2507C13.9942 93.0897 14.1247 92.9592 14.2857 92.9592C14.4467 92.9592 14.5773 93.0897 14.5773 93.2507C14.5773 93.4117 14.4467 93.5423 14.2857 93.5423Z" fill="white" fill-opacity="0.6"/>
<path d="M11.9533 93.5423C11.7923 93.5423 11.6618 93.4117 11.6618 93.2507C11.6618 93.0897 11.7923 92.9592 11.9533 92.9592C12.1144 92.9592 12.2449 93.0897 12.2449 93.2507C12.2449 93.4117 12.1144 93.5423 11.9533 93.5423Z" fill="white" fill-opacity="0.6"/>
<path d="M14.2857 94.7084C14.1247 94.7084 13.9942 94.5779 13.9942 94.4169C13.9942 94.2559 14.1247 94.1254 14.2857 94.1254C14.4467 94.1254 14.5773 94.2559 14.5773 94.4169C14.5773 94.5779 14.4467 94.7084 14.2857 94.7084Z" fill="white" fill-opacity="0.6"/>
<path d="M13.1195 94.7084C12.9585 94.7084 12.828 94.5779 12.828 94.4169C12.828 94.2559 12.9585 94.1254 13.1195 94.1254C13.2805 94.1254 13.4111 94.2559 13.4111 94.4169C13.4111 94.5779 13.2805 94.7084 13.1195 94.7084Z" fill="white" fill-opacity="0.6"/>
<path d="M11.9533 94.7084C11.7923 94.7084 11.6618 94.5779 11.6618 94.4169C11.6618 94.2559 11.7923 94.1254 11.9533 94.1254C12.1144 94.1254 12.2449 94.2559 12.2449 94.4169C12.2449 94.5779 12.1144 94.7084 11.9533 94.7084Z" fill="white" fill-opacity="0.6"/>
<path d="M10.7872 94.7084C10.6261 94.7084 10.4956 94.5779 10.4956 94.4169C10.4956 94.2559 10.6261 94.1254 10.7872 94.1254C10.9482 94.1254 11.0787 94.2559 11.0787 94.4169C11.0787 94.5779 10.9482 94.7084 10.7872 94.7084Z" fill="white" fill-opacity="0.6"/>
<path d="M9.62098 94.7084C9.45997 94.7084 9.32944 94.5779 9.32944 94.4169C9.32944 94.2559 9.45997 94.1254 9.62098 94.1254C9.782 94.1254 9.91253 94.2559 9.91253 94.4169C9.91253 94.5779 9.782 94.7084 9.62098 94.7084Z" fill="white" fill-opacity="0.6"/>
<path d="M14.2857 97.6239C14.1247 97.6239 13.9942 97.4934 13.9942 97.3324C13.9942 97.1713 14.1247 97.0408 14.2857 97.0408C14.4467 97.0408 14.5773 97.1713 14.5773 97.3324C14.5773 97.4934 14.4467 97.6239 14.2857 97.6239Z" fill="white" fill-opacity="0.6"/>
<path d="M13.1195 97.6239C12.9585 97.6239 12.828 97.4934 12.828 97.3324C12.828 97.1713 12.9585 97.0408 13.1195 97.0408C13.2805 97.0408 13.4111 97.1713 13.4111 97.3324C13.4111 97.4934 13.2805 97.6239 13.1195 97.6239Z" fill="white" fill-opacity="0.6"/>
<path d="M11.9533 97.6239C11.7923 97.6239 11.6618 97.4934 11.6618 97.3324C11.6618 97.1713 11.7923 97.0408 11.9533 97.0408C12.1144 97.0408 12.2449 97.1713 12.2449 97.3324C12.2449 97.4934 12.1144 97.6239 11.9533 97.6239Z" fill="white" fill-opacity="0.6"/>
<path d="M10.7872 97.6239C10.6261 97.6239 10.4956 97.4934 10.4956 97.3324C10.4956 97.1713 10.6261 97.0408 10.7872 97.0408C10.9482 97.0408 11.0787 97.1713 11.0787 97.3324C11.0787 97.4934 10.9482 97.6239 10.7872 97.6239Z" fill="white" fill-opacity="0.6"/>
<path d="M9.62098 97.6239C9.45997 97.6239 9.32944 97.4934 9.32944 97.3324C9.32944 97.1713 9.45997 97.0408 9.62098 97.0408C9.782 97.0408 9.91253 97.1713 9.91253 97.3324C9.91253 97.4934 9.782 97.6239 9.62098 97.6239Z" fill="white" fill-opacity="0.6"/>
<path d="M9.62098 98.7901C9.45997 98.7901 9.32944 98.6595 9.32944 98.4985C9.32944 98.3375 9.45997 98.207 9.62098 98.207C9.782 98.207 9.91253 98.3375 9.91253 98.4985C9.91253 98.6595 9.782 98.7901 9.62098 98.7901Z" fill="white" fill-opacity="0.6"/>
<path d="M14.2857 98.7901C14.1247 98.7901 13.9942 98.6595 13.9942 98.4985C13.9942 98.3375 14.1247 98.207 14.2857 98.207C14.4467 98.207 14.5773 98.3375 14.5773 98.4985C14.5773 98.6595 14.4467 98.7901 14.2857 98.7901Z" fill="white" fill-opacity="0.6"/>
<path d="M11.9533 98.7901C11.7923 98.7901 11.6618 98.6595 11.6618 98.4985C11.6618 98.3375 11.7923 98.207 11.9533 98.207C12.1144 98.207 12.2449 98.3375 12.2449 98.4985C12.2449 98.6595 12.1144 98.7901 11.9533 98.7901Z" fill="white" fill-opacity="0.6"/>
<path d="M14.2857 99.9563C14.1247 99.9563 13.9942 99.8257 13.9942 99.6647C13.9942 99.5037 14.1247 99.3732 14.2857 99.3732C14.4467 99.3732 14.5773 99.5037 14.5773 99.6647C14.5773 99.8257 14.4467 99.9563 14.2857 99.9563Z" fill="white" fill-opacity="0.6"/>
<path d="M13.1195 99.9563C12.9585 99.9563 12.828 99.8257 12.828 99.6647C12.828 99.5037 12.9585 99.3732 13.1195 99.3732C13.2805 99.3732 13.4111 99.5037 13.4111 99.6647C13.4111 99.8257 13.2805 99.9563 13.1195 99.9563Z" fill="white" fill-opacity="0.6"/>
<path d="M11.9533 99.9563C11.7923 99.9563 11.6618 99.8257 11.6618 99.6647C11.6618 99.5037 11.7923 99.3732 11.9533 99.3732C12.1144 99.3732 12.2449 99.5037 12.2449 99.6647C12.2449 99.8257 12.1144 99.9563 11.9533 99.9563Z" fill="white" fill-opacity="0.6"/>
<path d="M10.7872 99.9563C10.6261 99.9563 10.4956 99.8257 10.4956 99.6647C10.4956 99.5037 10.6261 99.3732 10.7872 99.3732C10.9482 99.3732 11.0787 99.5037 11.0787 99.6647C11.0787 99.8257 10.9482 99.9563 10.7872 99.9563Z" fill="white" fill-opacity="0.6"/>
<path d="M9.62098 99.9563C9.45997 99.9563 9.32944 99.8257 9.32944 99.6647C9.32944 99.5037 9.45997 99.3732 9.62098 99.3732C9.782 99.3732 9.91253 99.5037 9.91253 99.6647C9.91253 99.8257 9.782 99.9563 9.62098 99.9563Z" fill="white" fill-opacity="0.6"/>
<path d="M14.2857 106.953C14.1247 106.953 13.9942 106.823 13.9942 106.662C13.9942 106.501 14.1247 106.37 14.2857 106.37C14.4467 106.37 14.5773 106.501 14.5773 106.662C14.5773 106.823 14.4467 106.953 14.2857 106.953Z" fill="white" fill-opacity="0.6"/>
<path d="M13.1195 106.953C12.9585 106.953 12.828 106.823 12.828 106.662C12.828 106.501 12.9585 106.37 13.1195 106.37C13.2805 106.37 13.4111 106.501 13.4111 106.662C13.4111 106.823 13.2805 106.953 13.1195 106.953Z" fill="white" fill-opacity="0.6"/>
<path d="M11.9533 106.953C11.7923 106.953 11.6618 106.823 11.6618 106.662C11.6618 106.501 11.7923 106.37 11.9533 106.37C12.1144 106.37 12.2449 106.501 12.2449 106.662C12.2449 106.823 12.1144 106.953 11.9533 106.953Z" fill="white" fill-opacity="0.6"/>
<path d="M10.7872 106.953C10.6261 106.953 10.4956 106.823 10.4956 106.662C10.4956 106.501 10.6261 106.37 10.7872 106.37C10.9482 106.37 11.0787 106.501 11.0787 106.662C11.0787 106.823 10.9482 106.953 10.7872 106.953Z" fill="white" fill-opacity="0.6"/>
<path d="M9.62098 106.953C9.45997 106.953 9.32944 106.823 9.32944 106.662C9.32944 106.501 9.45997 106.37 9.62098 106.37C9.782 106.37 9.91253 106.501 9.91253 106.662C9.91253 106.823 9.782 106.953 9.62098 106.953Z" fill="white" fill-opacity="0.6"/>
<path d="M9.62098 108.12C9.45997 108.12 9.32944 107.989 9.32944 107.828C9.32944 107.667 9.45997 107.536 9.62098 107.536C9.782 107.536 9.91253 107.667 9.91253 107.828C9.91253 107.989 9.782 108.12 9.62098 108.12Z" fill="white" fill-opacity="0.6"/>
<path d="M14.2857 108.12C14.1247 108.12 13.9942 107.989 13.9942 107.828C13.9942 107.667 14.1247 107.536 14.2857 107.536C14.4467 107.536 14.5773 107.667 14.5773 107.828C14.5773 107.989 14.4467 108.12 14.2857 108.12Z" fill="white" fill-opacity="0.6"/>
<path d="M11.9533 108.12C11.7923 108.12 11.6618 107.989 11.6618 107.828C11.6618 107.667 11.7923 107.536 11.9533 107.536C12.1144 107.536 12.2449 107.667 12.2449 107.828C12.2449 107.989 12.1144 108.12 11.9533 108.12Z" fill="white" fill-opacity="0.6"/>
<path d="M14.2857 109.286C14.1247 109.286 13.9942 109.155 13.9942 108.994C13.9942 108.833 14.1247 108.703 14.2857 108.703C14.4467 108.703 14.5773 108.833 14.5773 108.994C14.5773 109.155 14.4467 109.286 14.2857 109.286Z" fill="white" fill-opacity="0.6"/>
<path d="M13.1195 109.286C12.9585 109.286 12.828 109.155 12.828 108.994C12.828 108.833 12.9585 108.703 13.1195 108.703C13.2805 108.703 13.4111 108.833 13.4111 108.994C13.4111 109.155 13.2805 109.286 13.1195 109.286Z" fill="white" fill-opacity="0.6"/>
<path d="M11.9533 109.286C11.7923 109.286 11.6618 109.155 11.6618 108.994C11.6618 108.833 11.7923 108.703 11.9533 108.703C12.1144 108.703 12.2449 108.833 12.2449 108.994C12.2449 109.155 12.1144 109.286 11.9533 109.286Z" fill="white" fill-opacity="0.6"/>
<path d="M10.7872 109.286C10.6261 109.286 10.4956 109.155 10.4956 108.994C10.4956 108.833 10.6261 108.703 10.7872 108.703C10.9482 108.703 11.0787 108.833 11.0787 108.994C11.0787 109.155 10.9482 109.286 10.7872 109.286Z" fill="white" fill-opacity="0.6"/>
<path d="M9.62098 109.286C9.45997 109.286 9.32944 109.155 9.32944 108.994C9.32944 108.833 9.45997 108.703 9.62098 108.703C9.782 108.703 9.91253 108.833 9.91253 108.994C9.91253 109.155 9.782 109.286 9.62098 109.286Z" fill="white" fill-opacity="0.6"/>
<path d="M14.2857 115.117C14.1247 115.117 13.9942 114.986 13.9942 114.825C13.9942 114.664 14.1247 114.534 14.2857 114.534C14.4467 114.534 14.5773 114.664 14.5773 114.825C14.5773 114.986 14.4467 115.117 14.2857 115.117Z" fill="white" fill-opacity="0.6"/>
<path d="M13.1195 115.117C12.9585 115.117 12.828 114.986 12.828 114.825C12.828 114.664 12.9585 114.534 13.1195 114.534C13.2805 114.534 13.4111 114.664 13.4111 114.825C13.4111 114.986 13.2805 115.117 13.1195 115.117Z" fill="white" fill-opacity="0.6"/>
<path d="M11.9533 115.117C11.7923 115.117 11.6618 114.986 11.6618 114.825C11.6618 114.664 11.7923 114.534 11.9533 114.534C12.1144 114.534 12.2449 114.664 12.2449 114.825C12.2449 114.986 12.1144 115.117 11.9533 115.117Z" fill="white" fill-opacity="0.6"/>
<path d="M10.7872 115.117C10.6261 115.117 10.4956 114.986 10.4956 114.825C10.4956 114.664 10.6261 114.534 10.7872 114.534C10.9482 114.534 11.0787 114.664 11.0787 114.825C11.0787 114.986 10.9482 115.117 10.7872 115.117Z" fill="white" fill-opacity="0.6"/>
<path d="M9.62098 115.117C9.45997 115.117 9.32944 114.986 9.32944 114.825C9.32944 114.664 9.45997 114.534 9.62098 114.534C9.782 114.534 9.91253 114.664 9.91253 114.825C9.91253 114.986 9.782 115.117 9.62098 115.117Z" fill="white" fill-opacity="0.6"/>
<path d="M9.62098 116.283C9.45997 116.283 9.32944 116.152 9.32944 115.991C9.32944 115.83 9.45997 115.7 9.62098 115.7C9.782 115.7 9.91253 115.83 9.91253 115.991C9.91253 116.152 9.782 116.283 9.62098 116.283Z" fill="white" fill-opacity="0.6"/>
<path d="M14.2857 116.283C14.1247 116.283 13.9942 116.152 13.9942 115.991C13.9942 115.83 14.1247 115.7 14.2857 115.7C14.4467 115.7 14.5773 115.83 14.5773 115.991C14.5773 116.152 14.4467 116.283 14.2857 116.283Z" fill="white" fill-opacity="0.6"/>
<path d="M11.9533 116.283C11.7923 116.283 11.6618 116.152 11.6618 115.991C11.6618 115.83 11.7923 115.7 11.9533 115.7C12.1144 115.7 12.2449 115.83 12.2449 115.991C12.2449 116.152 12.1144 116.283 11.9533 116.283Z" fill="white" fill-opacity="0.6"/>
<path d="M14.2857 117.449C14.1247 117.449 13.9942 117.318 13.9942 117.157C13.9942 116.996 14.1247 116.866 14.2857 116.866C14.4467 116.866 14.5773 116.996 14.5773 117.157C14.5773 117.318 14.4467 117.449 14.2857 117.449Z" fill="white" fill-opacity="0.6"/>
<path d="M13.1195 117.449C12.9585 117.449 12.828 117.318 12.828 117.157C12.828 116.996 12.9585 116.866 13.1195 116.866C13.2805 116.866 13.4111 116.996 13.4111 117.157C13.4111 117.318 13.2805 117.449 13.1195 117.449Z" fill="white" fill-opacity="0.6"/>
<path d="M11.9533 117.449C11.7923 117.449 11.6618 117.318 11.6618 117.157C11.6618 116.996 11.7923 116.866 11.9533 116.866C12.1144 116.866 12.2449 116.996 12.2449 117.157C12.2449 117.318 12.1144 117.449 11.9533 117.449Z" fill="white" fill-opacity="0.6"/>
<path d="M10.7872 117.449C10.6261 117.449 10.4956 117.318 10.4956 117.157C10.4956 116.996 10.6261 116.866 10.7872 116.866C10.9482 116.866 11.0787 116.996 11.0787 117.157C11.0787 117.318 10.9482 117.449 10.7872 117.449Z" fill="white" fill-opacity="0.6"/>
<path d="M9.62098 117.449C9.45997 117.449 9.32944 117.318 9.32944 117.157C9.32944 116.996 9.45997 116.866 9.62098 116.866C9.782 116.866 9.91253 116.996 9.91253 117.157C9.91253 117.318 9.782 117.449 9.62098 117.449Z" fill="white" fill-opacity="0.6"/>
<path d="M14.2857 123.28C14.1247 123.28 13.9942 123.149 13.9942 122.988C13.9942 122.827 14.1247 122.697 14.2857 122.697C14.4467 122.697 14.5773 122.827 14.5773 122.988C14.5773 123.149 14.4467 123.28 14.2857 123.28Z" fill="white" fill-opacity="0.6"/>
<path d="M13.1195 123.28C12.9585 123.28 12.828 123.149 12.828 122.988C12.828 122.827 12.9585 122.697 13.1195 122.697C13.2805 122.697 13.4111 122.827 13.4111 122.988C13.4111 123.149 13.2805 123.28 13.1195 123.28Z" fill="white" fill-opacity="0.6"/>
<path d="M11.9533 123.28C11.7923 123.28 11.6618 123.149 11.6618 122.988C11.6618 122.827 11.7923 122.697 11.9533 122.697C12.1144 122.697 12.2449 122.827 12.2449 122.988C12.2449 123.149 12.1144 123.28 11.9533 123.28Z" fill="white" fill-opacity="0.6"/>
<path d="M10.7872 123.28C10.6261 123.28 10.4956 123.149 10.4956 122.988C10.4956 122.827 10.6261 122.697 10.7872 122.697C10.9482 122.697 11.0787 122.827 11.0787 122.988C11.0787 123.149 10.9482 123.28 10.7872 123.28Z" fill="white" fill-opacity="0.6"/>
<path d="M9.62098 123.28C9.45997 123.28 9.32944 123.149 9.32944 122.988C9.32944 122.827 9.45997 122.697 9.62098 122.697C9.782 122.697 9.91253 122.827 9.91253 122.988C9.91253 123.149 9.782 123.28 9.62098 123.28Z" fill="white" fill-opacity="0.6"/>
<path d="M9.62098 124.446C9.45997 124.446 9.32944 124.316 9.32944 124.155C9.32944 123.993 9.45997 123.863 9.62098 123.863C9.782 123.863 9.91253 123.993 9.91253 124.155C9.91253 124.316 9.782 124.446 9.62098 124.446Z" fill="white" fill-opacity="0.6"/>
<path d="M14.2857 124.446C14.1247 124.446 13.9942 124.316 13.9942 124.155C13.9942 123.993 14.1247 123.863 14.2857 123.863C14.4467 123.863 14.5773 123.993 14.5773 124.155C14.5773 124.316 14.4467 124.446 14.2857 124.446Z" fill="white" fill-opacity="0.6"/>
<path d="M11.9533 124.446C11.7923 124.446 11.6618 124.316 11.6618 124.155C11.6618 123.993 11.7923 123.863 11.9533 123.863C12.1144 123.863 12.2449 123.993 12.2449 124.155C12.2449 124.316 12.1144 124.446 11.9533 124.446Z" fill="white" fill-opacity="0.6"/>
<path d="M14.2857 125.612C14.1247 125.612 13.9942 125.482 13.9942 125.321C13.9942 125.16 14.1247 125.029 14.2857 125.029C14.4467 125.029 14.5773 125.16 14.5773 125.321C14.5773 125.482 14.4467 125.612 14.2857 125.612Z" fill="white" fill-opacity="0.6"/>
<path d="M13.1195 125.612C12.9585 125.612 12.828 125.482 12.828 125.321C12.828 125.16 12.9585 125.029 13.1195 125.029C13.2805 125.029 13.4111 125.16 13.4111 125.321C13.4111 125.482 13.2805 125.612 13.1195 125.612Z" fill="white" fill-opacity="0.6"/>
<path d="M11.9533 125.612C11.7923 125.612 11.6618 125.482 11.6618 125.321C11.6618 125.16 11.7923 125.029 11.9533 125.029C12.1144 125.029 12.2449 125.16 12.2449 125.321C12.2449 125.482 12.1144 125.612 11.9533 125.612Z" fill="white" fill-opacity="0.6"/>
<path d="M10.7872 125.612C10.6261 125.612 10.4956 125.482 10.4956 125.321C10.4956 125.16 10.6261 125.029 10.7872 125.029C10.9482 125.029 11.0787 125.16 11.0787 125.321C11.0787 125.482 10.9482 125.612 10.7872 125.612Z" fill="white" fill-opacity="0.6"/>
<path d="M9.62098 125.612C9.45997 125.612 9.32944 125.482 9.32944 125.321C9.32944 125.16 9.45997 125.029 9.62098 125.029C9.782 125.029 9.91253 125.16 9.91253 125.321C9.91253 125.482 9.782 125.612 9.62098 125.612Z" fill="white" fill-opacity="0.6"/>
<path d="M14.2857 101.706C14.1247 101.706 13.9942 101.575 13.9942 101.414C13.9942 101.253 14.1247 101.122 14.2857 101.122C14.4467 101.122 14.5773 101.253 14.5773 101.414C14.5773 101.575 14.4467 101.706 14.2857 101.706Z" fill="white" fill-opacity="0.6"/>
<path d="M13.1195 101.706C12.9585 101.706 12.828 101.575 12.828 101.414C12.828 101.253 12.9585 101.122 13.1195 101.122C13.2805 101.122 13.4111 101.253 13.4111 101.414C13.4111 101.575 13.2805 101.706 13.1195 101.706Z" fill="white" fill-opacity="0.6"/>
<path d="M11.9533 101.706C11.7923 101.706 11.6618 101.575 11.6618 101.414C11.6618 101.253 11.7923 101.122 11.9533 101.122C12.1144 101.122 12.2449 101.253 12.2449 101.414C12.2449 101.575 12.1144 101.706 11.9533 101.706Z" fill="white" fill-opacity="0.6"/>
<path d="M10.7872 101.706C10.6261 101.706 10.4956 101.575 10.4956 101.414C10.4956 101.253 10.6261 101.122 10.7872 101.122C10.9482 101.122 11.0787 101.253 11.0787 101.414C11.0787 101.575 10.9482 101.706 10.7872 101.706Z" fill="white" fill-opacity="0.6"/>
<path d="M9.62098 101.706C9.45997 101.706 9.32944 101.575 9.32944 101.414C9.32944 101.253 9.45997 101.122 9.62098 101.122C9.782 101.122 9.91253 101.253 9.91253 101.414C9.91253 101.575 9.782 101.706 9.62098 101.706Z" fill="white" fill-opacity="0.6"/>
<path d="M9.62098 102.872C9.45997 102.872 9.32944 102.741 9.32944 102.58C9.32944 102.419 9.45997 102.289 9.62098 102.289C9.782 102.289 9.91253 102.419 9.91253 102.58C9.91253 102.741 9.782 102.872 9.62098 102.872Z" fill="white" fill-opacity="0.6"/>
<path d="M14.2857 102.872C14.1247 102.872 13.9942 102.741 13.9942 102.58C13.9942 102.419 14.1247 102.289 14.2857 102.289C14.4467 102.289 14.5773 102.419 14.5773 102.58C14.5773 102.741 14.4467 102.872 14.2857 102.872Z" fill="white" fill-opacity="0.6"/>
<path d="M11.9533 102.872C11.7923 102.872 11.6618 102.741 11.6618 102.58C11.6618 102.419 11.7923 102.289 11.9533 102.289C12.1144 102.289 12.2449 102.419 12.2449 102.58C12.2449 102.741 12.1144 102.872 11.9533 102.872Z" fill="white" fill-opacity="0.6"/>
<path d="M14.2857 104.038C14.1247 104.038 13.9942 103.907 13.9942 103.746C13.9942 103.585 14.1247 103.455 14.2857 103.455C14.4467 103.455 14.5773 103.585 14.5773 103.746C14.5773 103.907 14.4467 104.038 14.2857 104.038Z" fill="white" fill-opacity="0.6"/>
<path d="M13.1195 104.038C12.9585 104.038 12.828 103.907 12.828 103.746C12.828 103.585 12.9585 103.455 13.1195 103.455C13.2805 103.455 13.4111 103.585 13.4111 103.746C13.4111 103.907 13.2805 104.038 13.1195 104.038Z" fill="white" fill-opacity="0.6"/>
<path d="M11.9533 104.038C11.7923 104.038 11.6618 103.907 11.6618 103.746C11.6618 103.585 11.7923 103.455 11.9533 103.455C12.1144 103.455 12.2449 103.585 12.2449 103.746C12.2449 103.907 12.1144 104.038 11.9533 104.038Z" fill="white" fill-opacity="0.6"/>
<path d="M10.7872 104.038C10.6261 104.038 10.4956 103.907 10.4956 103.746C10.4956 103.585 10.6261 103.455 10.7872 103.455C10.9482 103.455 11.0787 103.585 11.0787 103.746C11.0787 103.907 10.9482 104.038 10.7872 104.038Z" fill="white" fill-opacity="0.6"/>
<path d="M9.62098 104.038C9.45997 104.038 9.32944 103.907 9.32944 103.746C9.32944 103.585 9.45997 103.455 9.62098 103.455C9.782 103.455 9.91253 103.585 9.91253 103.746C9.91253 103.907 9.782 104.038 9.62098 104.038Z" fill="white" fill-opacity="0.6"/>
<path d="M14.2857 111.035C14.1247 111.035 13.9942 110.904 13.9942 110.743C13.9942 110.582 14.1247 110.452 14.2857 110.452C14.4467 110.452 14.5773 110.582 14.5773 110.743C14.5773 110.904 14.4467 111.035 14.2857 111.035Z" fill="white" fill-opacity="0.6"/>
<path d="M13.1195 111.035C12.9585 111.035 12.828 110.904 12.828 110.743C12.828 110.582 12.9585 110.452 13.1195 110.452C13.2805 110.452 13.4111 110.582 13.4111 110.743C13.4111 110.904 13.2805 111.035 13.1195 111.035Z" fill="white" fill-opacity="0.6"/>
<path d="M11.9533 111.035C11.7923 111.035 11.6618 110.904 11.6618 110.743C11.6618 110.582 11.7923 110.452 11.9533 110.452C12.1144 110.452 12.2449 110.582 12.2449 110.743C12.2449 110.904 12.1144 111.035 11.9533 111.035Z" fill="white" fill-opacity="0.6"/>
<path d="M10.7872 111.035C10.6261 111.035 10.4956 110.904 10.4956 110.743C10.4956 110.582 10.6261 110.452 10.7872 110.452C10.9482 110.452 11.0787 110.582 11.0787 110.743C11.0787 110.904 10.9482 111.035 10.7872 111.035Z" fill="white" fill-opacity="0.6"/>
<path d="M9.62098 111.035C9.45997 111.035 9.32944 110.904 9.32944 110.743C9.32944 110.582 9.45997 110.452 9.62098 110.452C9.782 110.452 9.91253 110.582 9.91253 110.743C9.91253 110.904 9.782 111.035 9.62098 111.035Z" fill="white" fill-opacity="0.6"/>
<path d="M9.62098 112.201C9.45997 112.201 9.32944 112.071 9.32944 111.91C9.32944 111.749 9.45997 111.618 9.62098 111.618C9.782 111.618 9.91253 111.749 9.91253 111.91C9.91253 112.071 9.782 112.201 9.62098 112.201Z" fill="white" fill-opacity="0.6"/>
<path d="M14.2857 112.201C14.1247 112.201 13.9942 112.071 13.9942 111.91C13.9942 111.749 14.1247 111.618 14.2857 111.618C14.4467 111.618 14.5773 111.749 14.5773 111.91C14.5773 112.071 14.4467 112.201 14.2857 112.201Z" fill="white" fill-opacity="0.6"/>
<path d="M11.9533 112.201C11.7923 112.201 11.6618 112.071 11.6618 111.91C11.6618 111.749 11.7923 111.618 11.9533 111.618C12.1144 111.618 12.2449 111.749 12.2449 111.91C12.2449 112.071 12.1144 112.201 11.9533 112.201Z" fill="white" fill-opacity="0.6"/>
<path d="M14.2857 113.367C14.1247 113.367 13.9942 113.237 13.9942 113.076C13.9942 112.915 14.1247 112.784 14.2857 112.784C14.4467 112.784 14.5773 112.915 14.5773 113.076C14.5773 113.237 14.4467 113.367 14.2857 113.367Z" fill="white" fill-opacity="0.6"/>
<path d="M13.1195 113.367C12.9585 113.367 12.828 113.237 12.828 113.076C12.828 112.915 12.9585 112.784 13.1195 112.784C13.2805 112.784 13.4111 112.915 13.4111 113.076C13.4111 113.237 13.2805 113.367 13.1195 113.367Z" fill="white" fill-opacity="0.6"/>
<path d="M11.9533 113.367C11.7923 113.367 11.6618 113.237 11.6618 113.076C11.6618 112.915 11.7923 112.784 11.9533 112.784C12.1144 112.784 12.2449 112.915 12.2449 113.076C12.2449 113.237 12.1144 113.367 11.9533 113.367Z" fill="white" fill-opacity="0.6"/>
<path d="M10.7872 113.367C10.6261 113.367 10.4956 113.237 10.4956 113.076C10.4956 112.915 10.6261 112.784 10.7872 112.784C10.9482 112.784 11.0787 112.915 11.0787 113.076C11.0787 113.237 10.9482 113.367 10.7872 113.367Z" fill="white" fill-opacity="0.6"/>
<path d="M9.62098 113.367C9.45997 113.367 9.32944 113.237 9.32944 113.076C9.32944 112.915 9.45997 112.784 9.62098 112.784C9.782 112.784 9.91253 112.915 9.91253 113.076C9.91253 113.237 9.782 113.367 9.62098 113.367Z" fill="white" fill-opacity="0.6"/>
<path d="M14.2857 119.198C14.1247 119.198 13.9942 119.068 13.9942 118.907C13.9942 118.746 14.1247 118.615 14.2857 118.615C14.4467 118.615 14.5773 118.746 14.5773 118.907C14.5773 119.068 14.4467 119.198 14.2857 119.198Z" fill="white" fill-opacity="0.6"/>
<path d="M13.1195 119.198C12.9585 119.198 12.828 119.068 12.828 118.907C12.828 118.746 12.9585 118.615 13.1195 118.615C13.2805 118.615 13.4111 118.746 13.4111 118.907C13.4111 119.068 13.2805 119.198 13.1195 119.198Z" fill="white" fill-opacity="0.6"/>
<path d="M11.9533 119.198C11.7923 119.198 11.6618 119.068 11.6618 118.907C11.6618 118.746 11.7923 118.615 11.9533 118.615C12.1144 118.615 12.2449 118.746 12.2449 118.907C12.2449 119.068 12.1144 119.198 11.9533 119.198Z" fill="white" fill-opacity="0.6"/>
<path d="M10.7872 119.198C10.6261 119.198 10.4956 119.068 10.4956 118.907C10.4956 118.746 10.6261 118.615 10.7872 118.615C10.9482 118.615 11.0787 118.746 11.0787 118.907C11.0787 119.068 10.9482 119.198 10.7872 119.198Z" fill="white" fill-opacity="0.6"/>
<path d="M9.62098 119.198C9.45997 119.198 9.32944 119.068 9.32944 118.907C9.32944 118.746 9.45997 118.615 9.62098 118.615C9.782 118.615 9.91253 118.746 9.91253 118.907C9.91253 119.068 9.782 119.198 9.62098 119.198Z" fill="white" fill-opacity="0.6"/>
<path d="M9.62098 120.364C9.45997 120.364 9.32944 120.234 9.32944 120.073C9.32944 119.912 9.45997 119.781 9.62098 119.781C9.782 119.781 9.91253 119.912 9.91253 120.073C9.91253 120.234 9.782 120.364 9.62098 120.364Z" fill="white" fill-opacity="0.6"/>
<path d="M14.2857 120.364C14.1247 120.364 13.9942 120.234 13.9942 120.073C13.9942 119.912 14.1247 119.781 14.2857 119.781C14.4467 119.781 14.5773 119.912 14.5773 120.073C14.5773 120.234 14.4467 120.364 14.2857 120.364Z" fill="white" fill-opacity="0.6"/>
<path d="M11.9533 120.364C11.7923 120.364 11.6618 120.234 11.6618 120.073C11.6618 119.912 11.7923 119.781 11.9533 119.781C12.1144 119.781 12.2449 119.912 12.2449 120.073C12.2449 120.234 12.1144 120.364 11.9533 120.364Z" fill="white" fill-opacity="0.6"/>
<path d="M14.2857 121.531C14.1247 121.531 13.9942 121.4 13.9942 121.239C13.9942 121.078 14.1247 120.948 14.2857 120.948C14.4467 120.948 14.5773 121.078 14.5773 121.239C14.5773 121.4 14.4467 121.531 14.2857 121.531Z" fill="white" fill-opacity="0.6"/>
<path d="M13.1195 121.531C12.9585 121.531 12.828 121.4 12.828 121.239C12.828 121.078 12.9585 120.948 13.1195 120.948C13.2805 120.948 13.4111 121.078 13.4111 121.239C13.4111 121.4 13.2805 121.531 13.1195 121.531Z" fill="white" fill-opacity="0.6"/>
<path d="M11.9533 121.531C11.7923 121.531 11.6618 121.4 11.6618 121.239C11.6618 121.078 11.7923 120.948 11.9533 120.948C12.1144 120.948 12.2449 121.078 12.2449 121.239C12.2449 121.4 12.1144 121.531 11.9533 121.531Z" fill="white" fill-opacity="0.6"/>
<path d="M10.7872 121.531C10.6261 121.531 10.4956 121.4 10.4956 121.239C10.4956 121.078 10.6261 120.948 10.7872 120.948C10.9482 120.948 11.0787 121.078 11.0787 121.239C11.0787 121.4 10.9482 121.531 10.7872 121.531Z" fill="white" fill-opacity="0.6"/>
<path d="M9.62098 121.531C9.45997 121.531 9.32944 121.4 9.32944 121.239C9.32944 121.078 9.45997 120.948 9.62098 120.948C9.782 120.948 9.91253 121.078 9.91253 121.239C9.91253 121.4 9.782 121.531 9.62098 121.531Z" fill="white" fill-opacity="0.6"/>
<path d="M14.2857 127.362C14.1247 127.362 13.9942 127.231 13.9942 127.07C13.9942 126.909 14.1247 126.778 14.2857 126.778C14.4467 126.778 14.5773 126.909 14.5773 127.07C14.5773 127.231 14.4467 127.362 14.2857 127.362Z" fill="white" fill-opacity="0.6"/>
<path d="M13.1195 127.362C12.9585 127.362 12.828 127.231 12.828 127.07C12.828 126.909 12.9585 126.778 13.1195 126.778C13.2805 126.778 13.4111 126.909 13.4111 127.07C13.4111 127.231 13.2805 127.362 13.1195 127.362Z" fill="white" fill-opacity="0.6"/>
<path d="M11.9533 127.362C11.7923 127.362 11.6618 127.231 11.6618 127.07C11.6618 126.909 11.7923 126.778 11.9533 126.778C12.1144 126.778 12.2449 126.909 12.2449 127.07C12.2449 127.231 12.1144 127.362 11.9533 127.362Z" fill="white" fill-opacity="0.6"/>
<path d="M10.7872 127.362C10.6261 127.362 10.4956 127.231 10.4956 127.07C10.4956 126.909 10.6261 126.778 10.7872 126.778C10.9482 126.778 11.0787 126.909 11.0787 127.07C11.0787 127.231 10.9482 127.362 10.7872 127.362Z" fill="white" fill-opacity="0.6"/>
<path d="M9.62098 127.362C9.45997 127.362 9.32944 127.231 9.32944 127.07C9.32944 126.909 9.45997 126.778 9.62098 126.778C9.782 126.778 9.91253 126.909 9.91253 127.07C9.91253 127.231 9.782 127.362 9.62098 127.362Z" fill="white" fill-opacity="0.6"/>
<path d="M9.62098 128.528C9.45997 128.528 9.32944 128.397 9.32944 128.236C9.32944 128.075 9.45997 127.945 9.62098 127.945C9.782 127.945 9.91253 128.075 9.91253 128.236C9.91253 128.397 9.782 128.528 9.62098 128.528Z" fill="white" fill-opacity="0.6"/>
<path d="M14.2857 128.528C14.1247 128.528 13.9942 128.397 13.9942 128.236C13.9942 128.075 14.1247 127.945 14.2857 127.945C14.4467 127.945 14.5773 128.075 14.5773 128.236C14.5773 128.397 14.4467 128.528 14.2857 128.528Z" fill="white" fill-opacity="0.6"/>
<path d="M11.9533 128.528C11.7923 128.528 11.6618 128.397 11.6618 128.236C11.6618 128.075 11.7923 127.945 11.9533 127.945C12.1144 127.945 12.2449 128.075 12.2449 128.236C12.2449 128.397 12.1144 128.528 11.9533 128.528Z" fill="white" fill-opacity="0.6"/>
<path d="M14.2857 129.694C14.1247 129.694 13.9942 129.563 13.9942 129.402C13.9942 129.241 14.1247 129.111 14.2857 129.111C14.4467 129.111 14.5773 129.241 14.5773 129.402C14.5773 129.563 14.4467 129.694 14.2857 129.694Z" fill="white" fill-opacity="0.6"/>
<path d="M13.1195 129.694C12.9585 129.694 12.828 129.563 12.828 129.402C12.828 129.241 12.9585 129.111 13.1195 129.111C13.2805 129.111 13.4111 129.241 13.4111 129.402C13.4111 129.563 13.2805 129.694 13.1195 129.694Z" fill="white" fill-opacity="0.6"/>
<path d="M11.9533 129.694C11.7923 129.694 11.6618 129.563 11.6618 129.402C11.6618 129.241 11.7923 129.111 11.9533 129.111C12.1144 129.111 12.2449 129.241 12.2449 129.402C12.2449 129.563 12.1144 129.694 11.9533 129.694Z" fill="white" fill-opacity="0.6"/>
<path d="M10.7872 129.694C10.6261 129.694 10.4956 129.563 10.4956 129.402C10.4956 129.241 10.6261 129.111 10.7872 129.111C10.9482 129.111 11.0787 129.241 11.0787 129.402C11.0787 129.563 10.9482 129.694 10.7872 129.694Z" fill="white" fill-opacity="0.6"/>
<path d="M9.62098 129.694C9.45997 129.694 9.32944 129.563 9.32944 129.402C9.32944 129.241 9.45997 129.111 9.62098 129.111C9.782 129.111 9.91253 129.241 9.91253 129.402C9.91253 129.563 9.782 129.694 9.62098 129.694Z" fill="white" fill-opacity="0.6"/>
<path d="M9.62098 56.7055C9.782 56.7055 9.91253 56.8361 9.91253 56.9971C9.91253 57.1581 9.782 57.2886 9.62098 57.2886C9.45997 57.2886 9.32944 57.1581 9.32944 56.9971C9.32944 56.8361 9.45997 56.7055 9.62098 56.7055Z" fill="white" fill-opacity="0.6"/>
<path d="M10.7872 56.7055C10.9482 56.7055 11.0787 56.8361 11.0787 56.9971C11.0787 57.1581 10.9482 57.2886 10.7872 57.2886C10.6261 57.2886 10.4956 57.1581 10.4956 56.9971C10.4956 56.8361 10.6261 56.7055 10.7872 56.7055Z" fill="white" fill-opacity="0.6"/>
<path d="M11.9533 56.7055C12.1144 56.7055 12.2449 56.8361 12.2449 56.9971C12.2449 57.1581 12.1144 57.2886 11.9533 57.2886C11.7923 57.2886 11.6618 57.1581 11.6618 56.9971C11.6618 56.8361 11.7923 56.7055 11.9533 56.7055Z" fill="white" fill-opacity="0.6"/>
<path d="M13.1195 56.7055C13.2805 56.7055 13.4111 56.8361 13.4111 56.9971C13.4111 57.1581 13.2805 57.2886 13.1195 57.2886C12.9585 57.2886 12.828 57.1581 12.828 56.9971C12.828 56.8361 12.9585 56.7055 13.1195 56.7055Z" fill="white" fill-opacity="0.6"/>
<path d="M14.2857 56.7055C14.4467 56.7055 14.5773 56.8361 14.5773 56.9971C14.5773 57.1581 14.4467 57.2886 14.2857 57.2886C14.1247 57.2886 13.9942 57.1581 13.9942 56.9971C13.9942 56.8361 14.1247 56.7055 14.2857 56.7055Z" fill="white" fill-opacity="0.6"/>
<path d="M14.2857 55.5394C14.4467 55.5394 14.5773 55.6699 14.5773 55.8309C14.5773 55.9919 14.4467 56.1224 14.2857 56.1224C14.1247 56.1224 13.9942 55.9919 13.9942 55.8309C13.9942 55.6699 14.1247 55.5394 14.2857 55.5394Z" fill="white" fill-opacity="0.6"/>
<path d="M9.62098 55.5394C9.782 55.5394 9.91253 55.6699 9.91253 55.8309C9.91253 55.9919 9.782 56.1224 9.62098 56.1224C9.45997 56.1224 9.32944 55.9919 9.32944 55.8309C9.32944 55.6699 9.45997 55.5394 9.62098 55.5394Z" fill="white" fill-opacity="0.6"/>
<path d="M11.9533 55.5394C12.1144 55.5394 12.2449 55.6699 12.2449 55.8309C12.2449 55.9919 12.1144 56.1224 11.9533 56.1224C11.7923 56.1224 11.6618 55.9919 11.6618 55.8309C11.6618 55.6699 11.7923 55.5394 11.9533 55.5394Z" fill="white" fill-opacity="0.6"/>
<path d="M9.62098 54.3732C9.782 54.3732 9.91253 54.5037 9.91253 54.6647C9.91253 54.8257 9.782 54.9563 9.62098 54.9563C9.45997 54.9563 9.32944 54.8257 9.32944 54.6647C9.32944 54.5037 9.45997 54.3732 9.62098 54.3732Z" fill="white" fill-opacity="0.6"/>
<path d="M10.7872 54.3732C10.9482 54.3732 11.0787 54.5037 11.0787 54.6647C11.0787 54.8257 10.9482 54.9563 10.7872 54.9563C10.6261 54.9563 10.4956 54.8257 10.4956 54.6647C10.4956 54.5037 10.6261 54.3732 10.7872 54.3732Z" fill="white" fill-opacity="0.6"/>
<path d="M11.9533 54.3732C12.1144 54.3732 12.2449 54.5037 12.2449 54.6647C12.2449 54.8257 12.1144 54.9563 11.9533 54.9563C11.7923 54.9563 11.6618 54.8257 11.6618 54.6647C11.6618 54.5037 11.7923 54.3732 11.9533 54.3732Z" fill="white" fill-opacity="0.6"/>
<path d="M13.1195 54.3732C13.2805 54.3732 13.4111 54.5037 13.4111 54.6647C13.4111 54.8257 13.2805 54.9563 13.1195 54.9563C12.9585 54.9563 12.828 54.8257 12.828 54.6647C12.828 54.5037 12.9585 54.3732 13.1195 54.3732Z" fill="white" fill-opacity="0.6"/>
<path d="M14.2857 54.3732C14.4467 54.3732 14.5773 54.5037 14.5773 54.6647C14.5773 54.8257 14.4467 54.9563 14.2857 54.9563C14.1247 54.9563 13.9942 54.8257 13.9942 54.6647C13.9942 54.5037 14.1247 54.3732 14.2857 54.3732Z" fill="white" fill-opacity="0.6"/>
<path d="M9.62098 52.6239C9.782 52.6239 9.91253 52.7544 9.91253 52.9155C9.91253 53.0765 9.782 53.207 9.62098 53.207C9.45997 53.207 9.32944 53.0765 9.32944 52.9155C9.32944 52.7544 9.45997 52.6239 9.62098 52.6239Z" fill="white" fill-opacity="0.6"/>
<path d="M10.7872 52.6239C10.9482 52.6239 11.0787 52.7544 11.0787 52.9155C11.0787 53.0765 10.9482 53.207 10.7872 53.207C10.6261 53.207 10.4956 53.0765 10.4956 52.9155C10.4956 52.7544 10.6261 52.6239 10.7872 52.6239Z" fill="white" fill-opacity="0.6"/>
<path d="M11.9533 52.6239C12.1144 52.6239 12.2449 52.7544 12.2449 52.9155C12.2449 53.0765 12.1144 53.207 11.9533 53.207C11.7923 53.207 11.6618 53.0765 11.6618 52.9155C11.6618 52.7544 11.7923 52.6239 11.9533 52.6239Z" fill="white" fill-opacity="0.6"/>
<path d="M13.1195 52.6239C13.2805 52.6239 13.4111 52.7544 13.4111 52.9155C13.4111 53.0765 13.2805 53.207 13.1195 53.207C12.9585 53.207 12.828 53.0765 12.828 52.9155C12.828 52.7544 12.9585 52.6239 13.1195 52.6239Z" fill="white" fill-opacity="0.6"/>
<path d="M14.2857 52.6239C14.4467 52.6239 14.5773 52.7544 14.5773 52.9155C14.5773 53.0765 14.4467 53.207 14.2857 53.207C14.1247 53.207 13.9942 53.0765 13.9942 52.9155C13.9942 52.7544 14.1247 52.6239 14.2857 52.6239Z" fill="white" fill-opacity="0.6"/>
<path d="M14.2857 51.4577C14.4467 51.4577 14.5773 51.5883 14.5773 51.7493C14.5773 51.9103 14.4467 52.0408 14.2857 52.0408C14.1247 52.0408 13.9942 51.9103 13.9942 51.7493C13.9942 51.5883 14.1247 51.4577 14.2857 51.4577Z" fill="white" fill-opacity="0.6"/>
<path d="M9.62098 51.4577C9.782 51.4577 9.91253 51.5883 9.91253 51.7493C9.91253 51.9103 9.782 52.0408 9.62098 52.0408C9.45997 52.0408 9.32944 51.9103 9.32944 51.7493C9.32944 51.5883 9.45997 51.4577 9.62098 51.4577Z" fill="white" fill-opacity="0.6"/>
<path d="M11.9533 51.4577C12.1144 51.4577 12.2449 51.5883 12.2449 51.7493C12.2449 51.9103 12.1144 52.0408 11.9533 52.0408C11.7923 52.0408 11.6618 51.9103 11.6618 51.7493C11.6618 51.5883 11.7923 51.4577 11.9533 51.4577Z" fill="white" fill-opacity="0.6"/>
<path d="M9.62098 50.2915C9.782 50.2915 9.91253 50.4221 9.91253 50.5831C9.91253 50.7441 9.782 50.8746 9.62098 50.8746C9.45997 50.8746 9.32944 50.7441 9.32944 50.5831C9.32944 50.4221 9.45997 50.2915 9.62098 50.2915Z" fill="white" fill-opacity="0.6"/>
<path d="M10.7872 50.2915C10.9482 50.2915 11.0787 50.4221 11.0787 50.5831C11.0787 50.7441 10.9482 50.8746 10.7872 50.8746C10.6261 50.8746 10.4956 50.7441 10.4956 50.5831C10.4956 50.4221 10.6261 50.2915 10.7872 50.2915Z" fill="white" fill-opacity="0.6"/>
<path d="M11.9533 50.2915C12.1144 50.2915 12.2449 50.4221 12.2449 50.5831C12.2449 50.7441 12.1144 50.8746 11.9533 50.8746C11.7923 50.8746 11.6618 50.7441 11.6618 50.5831C11.6618 50.4221 11.7923 50.2915 11.9533 50.2915Z" fill="white" fill-opacity="0.6"/>
<path d="M13.1195 50.2915C13.2805 50.2915 13.4111 50.4221 13.4111 50.5831C13.4111 50.7441 13.2805 50.8746 13.1195 50.8746C12.9585 50.8746 12.828 50.7441 12.828 50.5831C12.828 50.4221 12.9585 50.2915 13.1195 50.2915Z" fill="white" fill-opacity="0.6"/>
<path d="M14.2857 50.2915C14.4467 50.2915 14.5773 50.4221 14.5773 50.5831C14.5773 50.7441 14.4467 50.8746 14.2857 50.8746C14.1247 50.8746 13.9942 50.7441 13.9942 50.5831C13.9942 50.4221 14.1247 50.2915 14.2857 50.2915Z" fill="white" fill-opacity="0.6"/>
<path d="M9.62098 47.3761C9.782 47.3761 9.91253 47.5066 9.91253 47.6676C9.91253 47.8287 9.782 47.9592 9.62098 47.9592C9.45997 47.9592 9.32944 47.8287 9.32944 47.6676C9.32944 47.5066 9.45997 47.3761 9.62098 47.3761Z" fill="white" fill-opacity="0.6"/>
<path d="M10.7872 47.3761C10.9482 47.3761 11.0787 47.5066 11.0787 47.6676C11.0787 47.8287 10.9482 47.9592 10.7872 47.9592C10.6261 47.9592 10.4956 47.8287 10.4956 47.6676C10.4956 47.5066 10.6261 47.3761 10.7872 47.3761Z" fill="white" fill-opacity="0.6"/>
<path d="M11.9533 47.3761C12.1144 47.3761 12.2449 47.5066 12.2449 47.6676C12.2449 47.8287 12.1144 47.9592 11.9533 47.9592C11.7923 47.9592 11.6618 47.8287 11.6618 47.6676C11.6618 47.5066 11.7923 47.3761 11.9533 47.3761Z" fill="white" fill-opacity="0.6"/>
<path d="M13.1195 47.3761C13.2805 47.3761 13.4111 47.5066 13.4111 47.6676C13.4111 47.8287 13.2805 47.9592 13.1195 47.9592C12.9585 47.9592 12.828 47.8287 12.828 47.6676C12.828 47.5066 12.9585 47.3761 13.1195 47.3761Z" fill="white" fill-opacity="0.6"/>
<path d="M14.2857 47.3761C14.4467 47.3761 14.5773 47.5066 14.5773 47.6676C14.5773 47.8287 14.4467 47.9592 14.2857 47.9592C14.1247 47.9592 13.9942 47.8287 13.9942 47.6676C13.9942 47.5066 14.1247 47.3761 14.2857 47.3761Z" fill="white" fill-opacity="0.6"/>
<path d="M14.2857 46.2099C14.4467 46.2099 14.5773 46.3404 14.5773 46.5015C14.5773 46.6625 14.4467 46.793 14.2857 46.793C14.1247 46.793 13.9942 46.6625 13.9942 46.5015C13.9942 46.3404 14.1247 46.2099 14.2857 46.2099Z" fill="white" fill-opacity="0.6"/>
<path d="M9.62098 46.2099C9.782 46.2099 9.91253 46.3404 9.91253 46.5015C9.91253 46.6625 9.782 46.793 9.62098 46.793C9.45997 46.793 9.32944 46.6625 9.32944 46.5015C9.32944 46.3404 9.45997 46.2099 9.62098 46.2099Z" fill="white" fill-opacity="0.6"/>
<path d="M11.9533 46.2099C12.1144 46.2099 12.2449 46.3404 12.2449 46.5015C12.2449 46.6625 12.1144 46.793 11.9533 46.793C11.7923 46.793 11.6618 46.6625 11.6618 46.5015C11.6618 46.3404 11.7923 46.2099 11.9533 46.2099Z" fill="white" fill-opacity="0.6"/>
<path d="M9.62098 45.0437C9.782 45.0437 9.91253 45.1743 9.91253 45.3353C9.91253 45.4963 9.782 45.6268 9.62098 45.6268C9.45997 45.6268 9.32944 45.4963 9.32944 45.3353C9.32944 45.1743 9.45997 45.0437 9.62098 45.0437Z" fill="white" fill-opacity="0.6"/>
<path d="M10.7872 45.0437C10.9482 45.0437 11.0787 45.1743 11.0787 45.3353C11.0787 45.4963 10.9482 45.6268 10.7872 45.6268C10.6261 45.6268 10.4956 45.4963 10.4956 45.3353C10.4956 45.1743 10.6261 45.0437 10.7872 45.0437Z" fill="white" fill-opacity="0.6"/>
<path d="M11.9533 45.0437C12.1144 45.0437 12.2449 45.1743 12.2449 45.3353C12.2449 45.4963 12.1144 45.6268 11.9533 45.6268C11.7923 45.6268 11.6618 45.4963 11.6618 45.3353C11.6618 45.1743 11.7923 45.0437 11.9533 45.0437Z" fill="white" fill-opacity="0.6"/>
<path d="M13.1195 45.0437C13.2805 45.0437 13.4111 45.1743 13.4111 45.3353C13.4111 45.4963 13.2805 45.6268 13.1195 45.6268C12.9585 45.6268 12.828 45.4963 12.828 45.3353C12.828 45.1743 12.9585 45.0437 13.1195 45.0437Z" fill="white" fill-opacity="0.6"/>
<path d="M14.2857 45.0437C14.4467 45.0437 14.5773 45.1743 14.5773 45.3353C14.5773 45.4963 14.4467 45.6268 14.2857 45.6268C14.1247 45.6268 13.9942 45.4963 13.9942 45.3353C13.9942 45.1743 14.1247 45.0437 14.2857 45.0437Z" fill="white" fill-opacity="0.6"/>
<path d="M9.62098 38.0466C9.782 38.0466 9.91253 38.1772 9.91253 38.3382C9.91253 38.4992 9.782 38.6297 9.62098 38.6297C9.45997 38.6297 9.32944 38.4992 9.32944 38.3382C9.32944 38.1772 9.45997 38.0466 9.62098 38.0466Z" fill="white" fill-opacity="0.6"/>
<path d="M10.7872 38.0466C10.9482 38.0466 11.0787 38.1772 11.0787 38.3382C11.0787 38.4992 10.9482 38.6297 10.7872 38.6297C10.6261 38.6297 10.4956 38.4992 10.4956 38.3382C10.4956 38.1772 10.6261 38.0466 10.7872 38.0466Z" fill="white" fill-opacity="0.6"/>
<path d="M11.9533 38.0466C12.1144 38.0466 12.2449 38.1772 12.2449 38.3382C12.2449 38.4992 12.1144 38.6297 11.9533 38.6297C11.7923 38.6297 11.6618 38.4992 11.6618 38.3382C11.6618 38.1772 11.7923 38.0466 11.9533 38.0466Z" fill="white" fill-opacity="0.6"/>
<path d="M13.1195 38.0466C13.2805 38.0466 13.4111 38.1772 13.4111 38.3382C13.4111 38.4992 13.2805 38.6297 13.1195 38.6297C12.9585 38.6297 12.828 38.4992 12.828 38.3382C12.828 38.1772 12.9585 38.0466 13.1195 38.0466Z" fill="white" fill-opacity="0.6"/>
<path d="M14.2857 38.0466C14.4467 38.0466 14.5773 38.1772 14.5773 38.3382C14.5773 38.4992 14.4467 38.6297 14.2857 38.6297C14.1247 38.6297 13.9942 38.4992 13.9942 38.3382C13.9942 38.1772 14.1247 38.0466 14.2857 38.0466Z" fill="white" fill-opacity="0.6"/>
<path d="M14.2857 36.8805C14.4467 36.8805 14.5773 37.011 14.5773 37.172C14.5773 37.333 14.4467 37.4636 14.2857 37.4636C14.1247 37.4636 13.9942 37.333 13.9942 37.172C13.9942 37.011 14.1247 36.8805 14.2857 36.8805Z" fill="white" fill-opacity="0.6"/>
<path d="M9.62098 36.8805C9.782 36.8805 9.91253 37.011 9.91253 37.172C9.91253 37.333 9.782 37.4636 9.62098 37.4636C9.45997 37.4636 9.32944 37.333 9.32944 37.172C9.32944 37.011 9.45997 36.8805 9.62098 36.8805Z" fill="white" fill-opacity="0.6"/>
<path d="M11.9533 36.8805C12.1144 36.8805 12.2449 37.011 12.2449 37.172C12.2449 37.333 12.1144 37.4636 11.9533 37.4636C11.7923 37.4636 11.6618 37.333 11.6618 37.172C11.6618 37.011 11.7923 36.8805 11.9533 36.8805Z" fill="white" fill-opacity="0.6"/>
<path d="M9.62098 35.7143C9.782 35.7143 9.91253 35.8448 9.91253 36.0058C9.91253 36.1668 9.782 36.2974 9.62098 36.2974C9.45997 36.2974 9.32944 36.1668 9.32944 36.0058C9.32944 35.8448 9.45997 35.7143 9.62098 35.7143Z" fill="white" fill-opacity="0.6"/>
<path d="M10.7872 35.7143C10.9482 35.7143 11.0787 35.8448 11.0787 36.0058C11.0787 36.1668 10.9482 36.2974 10.7872 36.2974C10.6261 36.2974 10.4956 36.1668 10.4956 36.0058C10.4956 35.8448 10.6261 35.7143 10.7872 35.7143Z" fill="white" fill-opacity="0.6"/>
<path d="M11.9533 35.7143C12.1144 35.7143 12.2449 35.8448 12.2449 36.0058C12.2449 36.1668 12.1144 36.2974 11.9533 36.2974C11.7923 36.2974 11.6618 36.1668 11.6618 36.0058C11.6618 35.8448 11.7923 35.7143 11.9533 35.7143Z" fill="white" fill-opacity="0.6"/>
<path d="M13.1195 35.7143C13.2805 35.7143 13.4111 35.8448 13.4111 36.0058C13.4111 36.1668 13.2805 36.2974 13.1195 36.2974C12.9585 36.2974 12.828 36.1668 12.828 36.0058C12.828 35.8448 12.9585 35.7143 13.1195 35.7143Z" fill="white" fill-opacity="0.6"/>
<path d="M14.2857 35.7143C14.4467 35.7143 14.5773 35.8448 14.5773 36.0058C14.5773 36.1668 14.4467 36.2974 14.2857 36.2974C14.1247 36.2974 13.9942 36.1668 13.9942 36.0058C13.9942 35.8448 14.1247 35.7143 14.2857 35.7143Z" fill="white" fill-opacity="0.6"/>
<path d="M9.62098 29.8834C9.782 29.8834 9.91253 30.0139 9.91253 30.1749C9.91253 30.3359 9.782 30.4665 9.62098 30.4665C9.45997 30.4665 9.32944 30.3359 9.32944 30.1749C9.32944 30.0139 9.45997 29.8834 9.62098 29.8834Z" fill="white" fill-opacity="0.6"/>
<path d="M10.7872 29.8834C10.9482 29.8834 11.0787 30.0139 11.0787 30.1749C11.0787 30.3359 10.9482 30.4665 10.7872 30.4665C10.6261 30.4665 10.4956 30.3359 10.4956 30.1749C10.4956 30.0139 10.6261 29.8834 10.7872 29.8834Z" fill="white" fill-opacity="0.6"/>
<path d="M11.9533 29.8834C12.1144 29.8834 12.2449 30.0139 12.2449 30.1749C12.2449 30.3359 12.1144 30.4665 11.9533 30.4665C11.7923 30.4665 11.6618 30.3359 11.6618 30.1749C11.6618 30.0139 11.7923 29.8834 11.9533 29.8834Z" fill="white" fill-opacity="0.6"/>
<path d="M13.1195 29.8834C13.2805 29.8834 13.4111 30.0139 13.4111 30.1749C13.4111 30.3359 13.2805 30.4665 13.1195 30.4665C12.9585 30.4665 12.828 30.3359 12.828 30.1749C12.828 30.0139 12.9585 29.8834 13.1195 29.8834Z" fill="white" fill-opacity="0.6"/>
<path d="M14.2857 29.8834C14.4467 29.8834 14.5773 30.0139 14.5773 30.1749C14.5773 30.3359 14.4467 30.4665 14.2857 30.4665C14.1247 30.4665 13.9942 30.3359 13.9942 30.1749C13.9942 30.0139 14.1247 29.8834 14.2857 29.8834Z" fill="white" fill-opacity="0.6"/>
<path d="M14.2857 28.7172C14.4467 28.7172 14.5773 28.8477 14.5773 29.0087C14.5773 29.1698 14.4467 29.3003 14.2857 29.3003C14.1247 29.3003 13.9942 29.1698 13.9942 29.0087C13.9942 28.8477 14.1247 28.7172 14.2857 28.7172Z" fill="white" fill-opacity="0.6"/>
<path d="M9.62098 28.7172C9.782 28.7172 9.91253 28.8477 9.91253 29.0087C9.91253 29.1698 9.782 29.3003 9.62098 29.3003C9.45997 29.3003 9.32944 29.1698 9.32944 29.0087C9.32944 28.8477 9.45997 28.7172 9.62098 28.7172Z" fill="white" fill-opacity="0.6"/>
<path d="M11.9533 28.7172C12.1144 28.7172 12.2449 28.8477 12.2449 29.0087C12.2449 29.1698 12.1144 29.3003 11.9533 29.3003C11.7923 29.3003 11.6618 29.1698 11.6618 29.0087C11.6618 28.8477 11.7923 28.7172 11.9533 28.7172Z" fill="white" fill-opacity="0.6"/>
<path d="M9.62098 27.551C9.782 27.551 9.91253 27.6815 9.91253 27.8426C9.91253 28.0036 9.782 28.1341 9.62098 28.1341C9.45997 28.1341 9.32944 28.0036 9.32944 27.8426C9.32944 27.6815 9.45997 27.551 9.62098 27.551Z" fill="white" fill-opacity="0.6"/>
<path d="M10.7872 27.551C10.9482 27.551 11.0787 27.6815 11.0787 27.8426C11.0787 28.0036 10.9482 28.1341 10.7872 28.1341C10.6261 28.1341 10.4956 28.0036 10.4956 27.8426C10.4956 27.6815 10.6261 27.551 10.7872 27.551Z" fill="white" fill-opacity="0.6"/>
<path d="M11.9533 27.551C12.1144 27.551 12.2449 27.6815 12.2449 27.8426C12.2449 28.0036 12.1144 28.1341 11.9533 28.1341C11.7923 28.1341 11.6618 28.0036 11.6618 27.8426C11.6618 27.6815 11.7923 27.551 11.9533 27.551Z" fill="white" fill-opacity="0.6"/>
<path d="M13.1195 27.551C13.2805 27.551 13.4111 27.6815 13.4111 27.8426C13.4111 28.0036 13.2805 28.1341 13.1195 28.1341C12.9585 28.1341 12.828 28.0036 12.828 27.8426C12.828 27.6815 12.9585 27.551 13.1195 27.551Z" fill="white" fill-opacity="0.6"/>
<path d="M14.2857 27.551C14.4467 27.551 14.5773 27.6815 14.5773 27.8426C14.5773 28.0036 14.4467 28.1341 14.2857 28.1341C14.1247 28.1341 13.9942 28.0036 13.9942 27.8426C13.9942 27.6815 14.1247 27.551 14.2857 27.551Z" fill="white" fill-opacity="0.6"/>
<path d="M9.62098 21.7201C9.782 21.7201 9.91253 21.8506 9.91253 22.0117C9.91253 22.1727 9.782 22.3032 9.62098 22.3032C9.45997 22.3032 9.32944 22.1727 9.32944 22.0117C9.32944 21.8506 9.45997 21.7201 9.62098 21.7201Z" fill="white" fill-opacity="0.6"/>
<path d="M10.7872 21.7201C10.9482 21.7201 11.0787 21.8506 11.0787 22.0117C11.0787 22.1727 10.9482 22.3032 10.7872 22.3032C10.6261 22.3032 10.4956 22.1727 10.4956 22.0117C10.4956 21.8506 10.6261 21.7201 10.7872 21.7201Z" fill="white" fill-opacity="0.6"/>
<path d="M11.9533 21.7201C12.1144 21.7201 12.2449 21.8506 12.2449 22.0117C12.2449 22.1727 12.1144 22.3032 11.9533 22.3032C11.7923 22.3032 11.6618 22.1727 11.6618 22.0117C11.6618 21.8506 11.7923 21.7201 11.9533 21.7201Z" fill="white" fill-opacity="0.6"/>
<path d="M13.1195 21.7201C13.2805 21.7201 13.4111 21.8506 13.4111 22.0117C13.4111 22.1727 13.2805 22.3032 13.1195 22.3032C12.9585 22.3032 12.828 22.1727 12.828 22.0117C12.828 21.8506 12.9585 21.7201 13.1195 21.7201Z" fill="white" fill-opacity="0.6"/>
<path d="M14.2857 21.7201C14.4467 21.7201 14.5773 21.8506 14.5773 22.0117C14.5773 22.1727 14.4467 22.3032 14.2857 22.3032C14.1247 22.3032 13.9942 22.1727 13.9942 22.0117C13.9942 21.8506 14.1247 21.7201 14.2857 21.7201Z" fill="white" fill-opacity="0.6"/>
<path d="M14.2857 20.5539C14.4467 20.5539 14.5773 20.6845 14.5773 20.8455C14.5773 21.0065 14.4467 21.137 14.2857 21.137C14.1247 21.137 13.9942 21.0065 13.9942 20.8455C13.9942 20.6845 14.1247 20.5539 14.2857 20.5539Z" fill="white" fill-opacity="0.6"/>
<path d="M9.62098 20.5539C9.782 20.5539 9.91253 20.6845 9.91253 20.8455C9.91253 21.0065 9.782 21.137 9.62098 21.137C9.45997 21.137 9.32944 21.0065 9.32944 20.8455C9.32944 20.6845 9.45997 20.5539 9.62098 20.5539Z" fill="white" fill-opacity="0.6"/>
<path d="M11.9533 20.5539C12.1144 20.5539 12.2449 20.6845 12.2449 20.8455C12.2449 21.0065 12.1144 21.137 11.9533 21.137C11.7923 21.137 11.6618 21.0065 11.6618 20.8455C11.6618 20.6845 11.7923 20.5539 11.9533 20.5539Z" fill="white" fill-opacity="0.6"/>
<path d="M9.62098 19.3878C9.782 19.3878 9.91253 19.5183 9.91253 19.6793C9.91253 19.8403 9.782 19.9708 9.62098 19.9708C9.45997 19.9708 9.32944 19.8403 9.32944 19.6793C9.32944 19.5183 9.45997 19.3878 9.62098 19.3878Z" fill="white" fill-opacity="0.6"/>
<path d="M10.7872 19.3878C10.9482 19.3878 11.0787 19.5183 11.0787 19.6793C11.0787 19.8403 10.9482 19.9708 10.7872 19.9708C10.6261 19.9708 10.4956 19.8403 10.4956 19.6793C10.4956 19.5183 10.6261 19.3878 10.7872 19.3878Z" fill="white" fill-opacity="0.6"/>
<path d="M11.9533 19.3878C12.1144 19.3878 12.2449 19.5183 12.2449 19.6793C12.2449 19.8403 12.1144 19.9708 11.9533 19.9708C11.7923 19.9708 11.6618 19.8403 11.6618 19.6793C11.6618 19.5183 11.7923 19.3878 11.9533 19.3878Z" fill="white" fill-opacity="0.6"/>
<path d="M13.1195 19.3878C13.2805 19.3878 13.4111 19.5183 13.4111 19.6793C13.4111 19.8403 13.2805 19.9708 13.1195 19.9708C12.9585 19.9708 12.828 19.8403 12.828 19.6793C12.828 19.5183 12.9585 19.3878 13.1195 19.3878Z" fill="white" fill-opacity="0.6"/>
<path d="M14.2857 19.3878C14.4467 19.3878 14.5773 19.5183 14.5773 19.6793C14.5773 19.8403 14.4467 19.9708 14.2857 19.9708C14.1247 19.9708 13.9942 19.8403 13.9942 19.6793C13.9942 19.5183 14.1247 19.3878 14.2857 19.3878Z" fill="white" fill-opacity="0.6"/>
<path d="M9.62098 43.2945C9.782 43.2945 9.91253 43.425 9.91253 43.586C9.91253 43.747 9.782 43.8776 9.62098 43.8776C9.45997 43.8776 9.32944 43.747 9.32944 43.586C9.32944 43.425 9.45997 43.2945 9.62098 43.2945Z" fill="white" fill-opacity="0.6"/>
<path d="M10.7872 43.2945C10.9482 43.2945 11.0787 43.425 11.0787 43.586C11.0787 43.747 10.9482 43.8776 10.7872 43.8776C10.6261 43.8776 10.4956 43.747 10.4956 43.586C10.4956 43.425 10.6261 43.2945 10.7872 43.2945Z" fill="white" fill-opacity="0.6"/>
<path d="M11.9533 43.2945C12.1144 43.2945 12.2449 43.425 12.2449 43.586C12.2449 43.747 12.1144 43.8776 11.9533 43.8776C11.7923 43.8776 11.6618 43.747 11.6618 43.586C11.6618 43.425 11.7923 43.2945 11.9533 43.2945Z" fill="white" fill-opacity="0.6"/>
<path d="M13.1195 43.2945C13.2805 43.2945 13.4111 43.425 13.4111 43.586C13.4111 43.747 13.2805 43.8776 13.1195 43.8776C12.9585 43.8776 12.828 43.747 12.828 43.586C12.828 43.425 12.9585 43.2945 13.1195 43.2945Z" fill="white" fill-opacity="0.6"/>
<path d="M14.2857 43.2945C14.4467 43.2945 14.5773 43.425 14.5773 43.586C14.5773 43.747 14.4467 43.8776 14.2857 43.8776C14.1247 43.8776 13.9942 43.747 13.9942 43.586C13.9942 43.425 14.1247 43.2945 14.2857 43.2945Z" fill="white" fill-opacity="0.6"/>
<path d="M14.2857 42.1283C14.4467 42.1283 14.5773 42.2588 14.5773 42.4198C14.5773 42.5808 14.4467 42.7114 14.2857 42.7114C14.1247 42.7114 13.9942 42.5808 13.9942 42.4198C13.9942 42.2588 14.1247 42.1283 14.2857 42.1283Z" fill="white" fill-opacity="0.6"/>
<path d="M9.62098 42.1283C9.782 42.1283 9.91253 42.2588 9.91253 42.4198C9.91253 42.5808 9.782 42.7114 9.62098 42.7114C9.45997 42.7114 9.32944 42.5808 9.32944 42.4198C9.32944 42.2588 9.45997 42.1283 9.62098 42.1283Z" fill="white" fill-opacity="0.6"/>
<path d="M11.9533 42.1283C12.1144 42.1283 12.2449 42.2588 12.2449 42.4198C12.2449 42.5808 12.1144 42.7114 11.9533 42.7114C11.7923 42.7114 11.6618 42.5808 11.6618 42.4198C11.6618 42.2588 11.7923 42.1283 11.9533 42.1283Z" fill="white" fill-opacity="0.6"/>
<path d="M9.62098 40.9621C9.782 40.9621 9.91253 41.0926 9.91253 41.2536C9.91253 41.4147 9.782 41.5452 9.62098 41.5452C9.45997 41.5452 9.32944 41.4147 9.32944 41.2536C9.32944 41.0926 9.45997 40.9621 9.62098 40.9621Z" fill="white" fill-opacity="0.6"/>
<path d="M10.7872 40.9621C10.9482 40.9621 11.0787 41.0926 11.0787 41.2536C11.0787 41.4147 10.9482 41.5452 10.7872 41.5452C10.6261 41.5452 10.4956 41.4147 10.4956 41.2536C10.4956 41.0926 10.6261 40.9621 10.7872 40.9621Z" fill="white" fill-opacity="0.6"/>
<path d="M11.9533 40.9621C12.1144 40.9621 12.2449 41.0926 12.2449 41.2536C12.2449 41.4147 12.1144 41.5452 11.9533 41.5452C11.7923 41.5452 11.6618 41.4147 11.6618 41.2536C11.6618 41.0926 11.7923 40.9621 11.9533 40.9621Z" fill="white" fill-opacity="0.6"/>
<path d="M13.1195 40.9621C13.2805 40.9621 13.4111 41.0926 13.4111 41.2536C13.4111 41.4147 13.2805 41.5452 13.1195 41.5452C12.9585 41.5452 12.828 41.4147 12.828 41.2536C12.828 41.0926 12.9585 40.9621 13.1195 40.9621Z" fill="white" fill-opacity="0.6"/>
<path d="M14.2857 40.9621C14.4467 40.9621 14.5773 41.0926 14.5773 41.2536C14.5773 41.4147 14.4467 41.5452 14.2857 41.5452C14.1247 41.5452 13.9942 41.4147 13.9942 41.2536C13.9942 41.0926 14.1247 40.9621 14.2857 40.9621Z" fill="white" fill-opacity="0.6"/>
<path d="M9.62098 33.965C9.782 33.965 9.91253 34.0955 9.91253 34.2566C9.91253 34.4176 9.782 34.5481 9.62098 34.5481C9.45997 34.5481 9.32944 34.4176 9.32944 34.2566C9.32944 34.0955 9.45997 33.965 9.62098 33.965Z" fill="white" fill-opacity="0.6"/>
<path d="M10.7872 33.965C10.9482 33.965 11.0787 34.0955 11.0787 34.2566C11.0787 34.4176 10.9482 34.5481 10.7872 34.5481C10.6261 34.5481 10.4956 34.4176 10.4956 34.2566C10.4956 34.0955 10.6261 33.965 10.7872 33.965Z" fill="white" fill-opacity="0.6"/>
<path d="M11.9533 33.965C12.1144 33.965 12.2449 34.0955 12.2449 34.2566C12.2449 34.4176 12.1144 34.5481 11.9533 34.5481C11.7923 34.5481 11.6618 34.4176 11.6618 34.2566C11.6618 34.0955 11.7923 33.965 11.9533 33.965Z" fill="white" fill-opacity="0.6"/>
<path d="M13.1195 33.965C13.2805 33.965 13.4111 34.0955 13.4111 34.2566C13.4111 34.4176 13.2805 34.5481 13.1195 34.5481C12.9585 34.5481 12.828 34.4176 12.828 34.2566C12.828 34.0955 12.9585 33.965 13.1195 33.965Z" fill="white" fill-opacity="0.6"/>
<path d="M14.2857 33.965C14.4467 33.965 14.5773 34.0955 14.5773 34.2566C14.5773 34.4176 14.4467 34.5481 14.2857 34.5481C14.1247 34.5481 13.9942 34.4176 13.9942 34.2566C13.9942 34.0955 14.1247 33.965 14.2857 33.965Z" fill="white" fill-opacity="0.6"/>
<path d="M14.2857 32.7988C14.4467 32.7988 14.5773 32.9294 14.5773 33.0904C14.5773 33.2514 14.4467 33.3819 14.2857 33.3819C14.1247 33.3819 13.9942 33.2514 13.9942 33.0904C13.9942 32.9294 14.1247 32.7988 14.2857 32.7988Z" fill="white" fill-opacity="0.6"/>
<path d="M9.62098 32.7988C9.782 32.7988 9.91253 32.9294 9.91253 33.0904C9.91253 33.2514 9.782 33.3819 9.62098 33.3819C9.45997 33.3819 9.32944 33.2514 9.32944 33.0904C9.32944 32.9294 9.45997 32.7988 9.62098 32.7988Z" fill="white" fill-opacity="0.6"/>
<path d="M11.9533 32.7988C12.1144 32.7988 12.2449 32.9294 12.2449 33.0904C12.2449 33.2514 12.1144 33.3819 11.9533 33.3819C11.7923 33.3819 11.6618 33.2514 11.6618 33.0904C11.6618 32.9294 11.7923 32.7988 11.9533 32.7988Z" fill="white" fill-opacity="0.6"/>
<path d="M9.62098 31.6327C9.782 31.6327 9.91253 31.7632 9.91253 31.9242C9.91253 32.0852 9.782 32.2157 9.62098 32.2157C9.45997 32.2157 9.32944 32.0852 9.32944 31.9242C9.32944 31.7632 9.45997 31.6327 9.62098 31.6327Z" fill="white" fill-opacity="0.6"/>
<path d="M10.7872 31.6327C10.9482 31.6327 11.0787 31.7632 11.0787 31.9242C11.0787 32.0852 10.9482 32.2157 10.7872 32.2157C10.6261 32.2157 10.4956 32.0852 10.4956 31.9242C10.4956 31.7632 10.6261 31.6327 10.7872 31.6327Z" fill="white" fill-opacity="0.6"/>
<path d="M11.9533 31.6327C12.1144 31.6327 12.2449 31.7632 12.2449 31.9242C12.2449 32.0852 12.1144 32.2157 11.9533 32.2157C11.7923 32.2157 11.6618 32.0852 11.6618 31.9242C11.6618 31.7632 11.7923 31.6327 11.9533 31.6327Z" fill="white" fill-opacity="0.6"/>
<path d="M13.1195 31.6327C13.2805 31.6327 13.4111 31.7632 13.4111 31.9242C13.4111 32.0852 13.2805 32.2157 13.1195 32.2157C12.9585 32.2157 12.828 32.0852 12.828 31.9242C12.828 31.7632 12.9585 31.6327 13.1195 31.6327Z" fill="white" fill-opacity="0.6"/>
<path d="M14.2857 31.6327C14.4467 31.6327 14.5773 31.7632 14.5773 31.9242C14.5773 32.0852 14.4467 32.2157 14.2857 32.2157C14.1247 32.2157 13.9942 32.0852 13.9942 31.9242C13.9942 31.7632 14.1247 31.6327 14.2857 31.6327Z" fill="white" fill-opacity="0.6"/>
<path d="M9.62098 25.8017C9.782 25.8017 9.91253 25.9323 9.91253 26.0933C9.91253 26.2543 9.782 26.3848 9.62098 26.3848C9.45997 26.3848 9.32944 26.2543 9.32944 26.0933C9.32944 25.9323 9.45997 25.8017 9.62098 25.8017Z" fill="white" fill-opacity="0.6"/>
<path d="M10.7872 25.8017C10.9482 25.8017 11.0787 25.9323 11.0787 26.0933C11.0787 26.2543 10.9482 26.3848 10.7872 26.3848C10.6261 26.3848 10.4956 26.2543 10.4956 26.0933C10.4956 25.9323 10.6261 25.8017 10.7872 25.8017Z" fill="white" fill-opacity="0.6"/>
<path d="M11.9533 25.8017C12.1144 25.8017 12.2449 25.9323 12.2449 26.0933C12.2449 26.2543 12.1144 26.3848 11.9533 26.3848C11.7923 26.3848 11.6618 26.2543 11.6618 26.0933C11.6618 25.9323 11.7923 25.8017 11.9533 25.8017Z" fill="white" fill-opacity="0.6"/>
<path d="M13.1195 25.8017C13.2805 25.8017 13.4111 25.9323 13.4111 26.0933C13.4111 26.2543 13.2805 26.3848 13.1195 26.3848C12.9585 26.3848 12.828 26.2543 12.828 26.0933C12.828 25.9323 12.9585 25.8017 13.1195 25.8017Z" fill="white" fill-opacity="0.6"/>
<path d="M14.2857 25.8017C14.4467 25.8017 14.5773 25.9323 14.5773 26.0933C14.5773 26.2543 14.4467 26.3848 14.2857 26.3848C14.1247 26.3848 13.9942 26.2543 13.9942 26.0933C13.9942 25.9323 14.1247 25.8017 14.2857 25.8017Z" fill="white" fill-opacity="0.6"/>
<path d="M14.2857 24.6356C14.4467 24.6356 14.5773 24.7661 14.5773 24.9271C14.5773 25.0881 14.4467 25.2187 14.2857 25.2187C14.1247 25.2187 13.9942 25.0881 13.9942 24.9271C13.9942 24.7661 14.1247 24.6356 14.2857 24.6356Z" fill="white" fill-opacity="0.6"/>
<path d="M9.62098 24.6356C9.782 24.6356 9.91253 24.7661 9.91253 24.9271C9.91253 25.0881 9.782 25.2187 9.62098 25.2187C9.45997 25.2187 9.32944 25.0881 9.32944 24.9271C9.32944 24.7661 9.45997 24.6356 9.62098 24.6356Z" fill="white" fill-opacity="0.6"/>
<path d="M11.9533 24.6356C12.1144 24.6356 12.2449 24.7661 12.2449 24.9271C12.2449 25.0881 12.1144 25.2187 11.9533 25.2187C11.7923 25.2187 11.6618 25.0881 11.6618 24.9271C11.6618 24.7661 11.7923 24.6356 11.9533 24.6356Z" fill="white" fill-opacity="0.6"/>
<path d="M9.62098 23.4694C9.782 23.4694 9.91253 23.5999 9.91253 23.7609C9.91253 23.9219 9.782 24.0525 9.62098 24.0525C9.45997 24.0525 9.32944 23.9219 9.32944 23.7609C9.32944 23.5999 9.45997 23.4694 9.62098 23.4694Z" fill="white" fill-opacity="0.6"/>
<path d="M10.7872 23.4694C10.9482 23.4694 11.0787 23.5999 11.0787 23.7609C11.0787 23.9219 10.9482 24.0525 10.7872 24.0525C10.6261 24.0525 10.4956 23.9219 10.4956 23.7609C10.4956 23.5999 10.6261 23.4694 10.7872 23.4694Z" fill="white" fill-opacity="0.6"/>
<path d="M11.9533 23.4694C12.1144 23.4694 12.2449 23.5999 12.2449 23.7609C12.2449 23.9219 12.1144 24.0525 11.9533 24.0525C11.7923 24.0525 11.6618 23.9219 11.6618 23.7609C11.6618 23.5999 11.7923 23.4694 11.9533 23.4694Z" fill="white" fill-opacity="0.6"/>
<path d="M13.1195 23.4694C13.2805 23.4694 13.4111 23.5999 13.4111 23.7609C13.4111 23.9219 13.2805 24.0525 13.1195 24.0525C12.9585 24.0525 12.828 23.9219 12.828 23.7609C12.828 23.5999 12.9585 23.4694 13.1195 23.4694Z" fill="white" fill-opacity="0.6"/>
<path d="M14.2857 23.4694C14.4467 23.4694 14.5773 23.5999 14.5773 23.7609C14.5773 23.9219 14.4467 24.0525 14.2857 24.0525C14.1247 24.0525 13.9942 23.9219 13.9942 23.7609C13.9942 23.5999 14.1247 23.4694 14.2857 23.4694Z" fill="white" fill-opacity="0.6"/>
<path d="M9.62098 17.6385C9.782 17.6385 9.91253 17.769 9.91253 17.93C9.91253 18.091 9.782 18.2216 9.62098 18.2216C9.45997 18.2216 9.32944 18.091 9.32944 17.93C9.32944 17.769 9.45997 17.6385 9.62098 17.6385Z" fill="white" fill-opacity="0.6"/>
<path d="M10.7872 17.6385C10.9482 17.6385 11.0787 17.769 11.0787 17.93C11.0787 18.091 10.9482 18.2216 10.7872 18.2216C10.6261 18.2216 10.4956 18.091 10.4956 17.93C10.4956 17.769 10.6261 17.6385 10.7872 17.6385Z" fill="white" fill-opacity="0.6"/>
<path d="M11.9533 17.6385C12.1144 17.6385 12.2449 17.769 12.2449 17.93C12.2449 18.091 12.1144 18.2216 11.9533 18.2216C11.7923 18.2216 11.6618 18.091 11.6618 17.93C11.6618 17.769 11.7923 17.6385 11.9533 17.6385Z" fill="white" fill-opacity="0.6"/>
<path d="M13.1195 17.6385C13.2805 17.6385 13.4111 17.769 13.4111 17.93C13.4111 18.091 13.2805 18.2216 13.1195 18.2216C12.9585 18.2216 12.828 18.091 12.828 17.93C12.828 17.769 12.9585 17.6385 13.1195 17.6385Z" fill="white" fill-opacity="0.6"/>
<path d="M14.2857 17.6385C14.4467 17.6385 14.5773 17.769 14.5773 17.93C14.5773 18.091 14.4467 18.2216 14.2857 18.2216C14.1247 18.2216 13.9942 18.091 13.9942 17.93C13.9942 17.769 14.1247 17.6385 14.2857 17.6385Z" fill="white" fill-opacity="0.6"/>
<path d="M14.2857 16.4723C14.4467 16.4723 14.5773 16.6028 14.5773 16.7638C14.5773 16.9249 14.4467 17.0554 14.2857 17.0554C14.1247 17.0554 13.9942 16.9249 13.9942 16.7638C13.9942 16.6028 14.1247 16.4723 14.2857 16.4723Z" fill="white" fill-opacity="0.6"/>
<path d="M9.62098 16.4723C9.782 16.4723 9.91253 16.6028 9.91253 16.7638C9.91253 16.9249 9.782 17.0554 9.62098 17.0554C9.45997 17.0554 9.32944 16.9249 9.32944 16.7638C9.32944 16.6028 9.45997 16.4723 9.62098 16.4723Z" fill="white" fill-opacity="0.6"/>
<path d="M11.9533 16.4723C12.1144 16.4723 12.2449 16.6028 12.2449 16.7638C12.2449 16.9249 12.1144 17.0554 11.9533 17.0554C11.7923 17.0554 11.6618 16.9249 11.6618 16.7638C11.6618 16.6028 11.7923 16.4723 11.9533 16.4723Z" fill="white" fill-opacity="0.6"/>
<path d="M9.62098 15.3061C9.782 15.3061 9.91253 15.4367 9.91253 15.5977C9.91253 15.7587 9.782 15.8892 9.62098 15.8892C9.45997 15.8892 9.32944 15.7587 9.32944 15.5977C9.32944 15.4367 9.45997 15.3061 9.62098 15.3061Z" fill="white" fill-opacity="0.6"/>
<path d="M10.7872 15.3061C10.9482 15.3061 11.0787 15.4367 11.0787 15.5977C11.0787 15.7587 10.9482 15.8892 10.7872 15.8892C10.6261 15.8892 10.4956 15.7587 10.4956 15.5977C10.4956 15.4367 10.6261 15.3061 10.7872 15.3061Z" fill="white" fill-opacity="0.6"/>
<path d="M11.9533 15.3061C12.1144 15.3061 12.2449 15.4367 12.2449 15.5977C12.2449 15.7587 12.1144 15.8892 11.9533 15.8892C11.7923 15.8892 11.6618 15.7587 11.6618 15.5977C11.6618 15.4367 11.7923 15.3061 11.9533 15.3061Z" fill="white" fill-opacity="0.6"/>
<path d="M13.1195 15.3061C13.2805 15.3061 13.4111 15.4367 13.4111 15.5977C13.4111 15.7587 13.2805 15.8892 13.1195 15.8892C12.9585 15.8892 12.828 15.7587 12.828 15.5977C12.828 15.4367 12.9585 15.3061 13.1195 15.3061Z" fill="white" fill-opacity="0.6"/>
<path d="M14.2857 15.3061C14.4467 15.3061 14.5773 15.4367 14.5773 15.5977C14.5773 15.7587 14.4467 15.8892 14.2857 15.8892C14.1247 15.8892 13.9942 15.7587 13.9942 15.5977C13.9942 15.4367 14.1247 15.3061 14.2857 15.3061Z" fill="white" fill-opacity="0.6"/>
</g>
<defs>
<clipPath id="clip0">
<rect width="100" height="145" fill="white"/>
</clipPath>
</defs>
</svg>
