<svg fill="none" height="80" viewBox="0 0 80 80" width="80" xmlns="http://www.w3.org/2000/svg"><rect width="80" height="80" fill="none"></rect><path d="m67.6066 61.1141-3.5682-19.2425c-.6453-3.4798-3.4572-6.1488-6.9659-6.6117l-13.1017-1.7287c-.235-.031-.4729-.0312-.7079-.0006l-13.2444 1.7237c-3.5685.4644-6.4127 3.2052-7.0217 6.7519-1.3229 7.7039-3.627 20.8061-4.9685 26.6226h25.5886 17.7404c3.9745 0 6.974-3.6069 6.2493-7.5147z" fill="#d6dde2"/><path d="m50.2185 56.8972c-.0213.4413-.3571.8031-.7955.8574l-11.33 1.4016-2.7416-24.738 7.5398-1.0593 8.4121 1.0593z" fill="#f6f7f8"/><path d="m37.9589 28.113c0-2.9252 2.3713-5.2966 5.2965-5.2966 2.9253 0 5.2966 2.3714 5.2966 5.2966v6.1689c0 2.9252-2.3713 5.2966-5.2966 5.2966-2.9252 0-5.2965-2.3714-5.2965-5.2966z" fill="#d6dde2"/><path d="m50.1227 17.4385c.7169 1.7123.5585 4.5873-.8712 5.1859-1.4298.5986-3.5893-1.3058-4.3063-3.0181s-.1392-3.5857 1.2906-4.1844c1.4297-.5986 3.1699.3042 3.8869 2.0166z" fill="#e4eaee"/><path d="m33.3273 24.4717c.7169 1.7123.5585 4.5873-.8712 5.1859-1.4298.5986-3.5894-1.3058-4.3063-3.0181-.717-1.7123-.1392-3.5857 1.2906-4.1843 1.4297-.5987 3.1699.3042 3.8869 2.0165z" fill="#ffc1bd"/><path d="m47.2232 15.2377c1.0696 2.5545 2.8661 6.3783 2.7499 9.4887-.1639 4.3836-2.4903 8.8116-5.4961 10.0702-3.0059 1.2585-7.7932-.191-11.0314-3.15-2.2978-2.0997-3.7617-6.0629-4.8312-8.6173-2.5769-6.1544-.1151-11.9682 5.0236-14.11975 5.1387-2.15159 11.0083.17372 13.5852 6.32815z" fill="#e4eaee"/><path d="m47.2232 15.2377c1.0696 2.5545 2.8661 6.3783 2.7499 9.4887-.1639 4.3836-2.4903 8.8116-5.4961 10.0702-3.0059 1.2585-7.7932-.191-11.0314-3.15-2.2978-2.0997-3.7617-6.0629-4.8312-8.6173-2.5769-6.1544-.1151-11.9682 5.0236-14.11975 5.1387-2.15159 11.0083.17372 13.5852 6.32815z" fill="#e4eaee"/><path clip-rule="evenodd" d="m29.7501 22.6594c-.162-1.5909.0776-4.2386 2.1085-6.5774l.0511.0156c1.8634.5719 4.6839 1.4375 8.2255.0881 1.9251-.7335 3.0649-1.8617 3.5079-3.0946 1.8887 1.2838 2.9258 2.9575 4.1785 5.2129l.6077-.2544-1.1431-2.7302c-1.6943-4.0464-4.0325-5.74256-5.2647-6.3075l.0055.01787c-2.6091-1.44073-5.676-1.62075-8.5191-.43033-2.8246 1.18268-4.8404 3.47186-5.6552 6.31586l-.0144-.001c-.4182 1.56-.8874 4.1614.8068 8.2078l1.1191 2.6727.6077-.2545z" fill="#d6dde2" fill-rule="evenodd"/><path d="m26.7133 23.2222.3601-1.3548c.2155-.8109 1.3213-.9207 1.692-.168l3.3718 6.8463c.1475.2996.3488.5694.5939.7961l3.1547 2.9183c1.4943 1.3823 1.8858 3.5904.9579 5.4022l-3.6648 7.1554-5.4834-4.3622 1.7383-4.3005c.4061-1.0047.4395-2.1216.094-3.1488l-2.7637-8.216c-.1703-.5063-.188-1.0517-.0508-1.568z" fill="#f1f4f8"/><path d="m13.2235 58.6227 15.7297-21.2933s.4602 1.3801 2.3479 2.5127c1.8876 1.1327 4.2302.4558 4.2302.4558l-5.1104 11.5781-7.0513 15.2956c-.445.9652-1.4109 1.5835-2.4738 1.5835h-2.5601c-5.2163 0-8.2116-5.9367-5.1122-10.1324z" fill="#e4eaee"/></svg>