<svg fill="none" height="80" viewBox="0 0 80 80" width="80" xmlns="http://www.w3.org/2000/svg" xmlns:xlink="http://www.w3.org/1999/xlink"><rect width="80" height="80" fill="none"></rect><linearGradient id="a" gradientUnits="userSpaceOnUse" x1="39.4135" x2="45.276" y1="26.4934" y2="78.0838"><stop offset="0" stop-color="#d6dde2"/><stop offset="1" stop-color="#b5c6d2"/></linearGradient><clipPath id="b"><path d="m0 0h80v80h-80z"/></clipPath><g clip-path="url(#b)"><path d="m19.4931 43.4847s10.2013-2.144 11.1361-10.1979c-7.7171-2.4868-15.8003 1.2962-18.1292 2.9157z" fill="#e4eaee"/><path d="m39.0838 63.0749s2.144-10.2013 10.1978-11.1361c2.4868 7.7171-1.298 15.7323-2.9175 18.0612z" fill="#e4eaee"/><path d="m33.1216 49.5959-9.8094-9.8094c5.5908-5.8443 26.4083-23.4255 44.8464-27.306 1.2578-.2648 2.3432.8206 2.0785 2.0784-3.8806 18.4381-21.4618 39.2556-27.3061 44.8465z" fill="url(#a)"/><path d="m30.0604 65.7713c-4.3197 4.3197-22.87536 10.1109-22.87536 10.1109s5.79126-18.5557 10.11086-22.8753c4.3197-4.3196 10.6788-4.9639 14.2036-1.4391 3.5248 3.5247 2.8805 9.8839-1.4391 14.2035z" fill="#d6dde2"/><circle fill="#e4eaee" r="6.61803" transform="matrix(-.311262 .950324 -.991476 .130288 45.5829 28.6574)"/><ellipse fill="#f6f7f8" rx="3.91855" ry="3.91855" transform="matrix(-.311262 .950324 -.991476 .130288 45.5839 28.6563)"/><g fill="#e4eaee"><path d="m23.2859 39.6387h27.7917v5.43657h-27.7917z" transform="matrix(.70710678 .70710678 -.70710678 .70710678 34.849076 -4.855711)"/><path d="m29.5622 53.6037-3.5987-3.5987c2.1117-2.1966 7.4936-6.5945 13.8009-8.6572 1.3072-.4275 2.4812.7466 2.0538 2.0537-2.0627 6.3074-6.4606 11.6892-8.6573 13.8009z"/></g></g></svg>