<svg xmlns="http://www.w3.org/2000/svg" width="48" height="48" viewBox="0 0 48 48" fill="none"><rect width="48" height="48" fill="none"/>
<path d="M0.780288 12.3158C1.65342 6.21531 6.21531 1.65342 12.3158 0.780288C15.4298 0.334589 19.3246 0 24 0C28.6754 0 32.5702 0.334589 35.6842 0.780288C41.7847 1.65342 46.3466 6.21531 47.2197 12.3158C47.6654 15.4298 48 19.3246 48 24C48 28.6754 47.6654 32.5702 47.2197 35.6842C46.3466 41.7847 41.7847 46.3466 35.6842 47.2197C32.5702 47.6654 28.6754 48 24 48C19.3246 48 15.4298 47.6654 12.3158 47.2197C6.21531 46.3466 1.65342 41.7847 0.780288 35.6842C0.334589 32.5702 0 28.6754 0 24C0 19.3246 0.334589 15.4298 0.780288 12.3158Z" fill="black"/>
</svg>
