<svg width="80" height="80" viewBox="0 0 80 80" fill="none" xmlns="http://www.w3.org/2000/svg">
<rect width="80" height="80" fill="none"/>
<path fill-rule="evenodd" clip-rule="evenodd" d="M40 80C62.0914 80 80 62.0914 80 40C80 17.9086 62.0914 0 40 0C17.9086 0 0 17.9086 0 40C0 62.0914 17.9086 80 40 80Z" fill="#5C85AD" fill-opacity="0.07"/>
<rect x="23.9561" y="25.3884" width="29.8758" height="19.5524" rx="2" transform="rotate(-9 23.9561 25.3884)" fill="#5C85AD"/>
<rect x="20" y="29" width="38.4" height="30.2817" rx="2.4" fill="#A5C2D6"/>
<rect x="42" y="39" width="20.4" height="10.9014" rx="2.4" fill="#D2E0EB"/>
<path fill-rule="evenodd" clip-rule="evenodd" d="M57.9814 46C59.0757 46 59.9628 45.1046 59.9628 44C59.9628 42.8954 59.0757 42 57.9814 42C56.8871 42 56 42.8954 56 44C56 45.1046 56.8871 46 57.9814 46Z" fill="#5C85AD"/>
</svg>
