<svg fill="none" height="80" viewBox="0 0 80 80" width="80" xmlns="http://www.w3.org/2000/svg" xmlns:xlink="http://www.w3.org/1999/xlink"><rect width="80" height="80" fill="none"></rect><mask id="a" height="55" maskUnits="userSpaceOnUse" width="62" x="9" y="15"><path clip-rule="evenodd" d="m61.8285 54.6953c5.4866-4.211 8.8723-9.9912 8.8723-16.3694 0-12.8825-13.8122-23.3259-30.8504-23.3259s-30.8504 10.4434-30.8504 23.3259c0 12.8826 13.8122 23.326 30.8504 23.326 2.4575 0 4.8478-.2173 7.1393-.6278l13.4476 8.4845c.6041.3811 1.3912-.053 1.3912-.7672z" fill="#4c8df5" fill-rule="evenodd"/></mask><path clip-rule="evenodd" d="m61.7367 55.0429c5.4867-4.2109 8.8723-9.9912 8.8723-16.3693 0-12.8826-13.8122-23.3259-30.8504-23.3259s-30.8504 10.4433-30.8504 23.3259 13.8122 23.326 30.8504 23.326c2.4575 0 4.8479-.2173 7.1393-.6278l13.4476 8.4845c.6041.3811 1.3912-.053 1.3912-.7672z" fill="#d6dde2" fill-rule="evenodd"/><path d="m53.7948 10.0664h-16.0771l-8.7694 28.3136h11.2053l-6.3334 18.6749 21.9233-29.5184h-9.7437z" fill="#fff"/><g mask="url(#a)"><path d="m48.6875 14.5-12.1563-.5-7.8124 24.5h11.2812l-6.125 18.4688 17.625-27.4688h-8.9062z" fill="#f1f4f8"/></g></svg>