<svg width="80" height="80" viewBox="0 0 80 80" fill="none" xmlns="http://www.w3.org/2000/svg">
<rect width="80" height="80" fill="none"></rect>
<path d="M4.64444 15C3.73624 15 3 15.7462 3 16.6667V21.6667C3 22.5871 3.73624 23.3333 4.64444 23.3333H75.3556C76.2638 23.3333 77 22.5871 77 21.6667V16.6667C77 15.7462 76.2638 15 75.3556 15H4.64444Z" fill="white"/>
<path d="M19.4444 25.8333H60.5556V45.3934C57.883 42.8458 54.302 41.2879 50.3664 41.2879C46.4524 41.2879 42.8892 42.8286 40.2215 45.3513C37.5538 42.8286 33.9906 41.2879 30.0766 41.2879C25.9192 41.2879 22.1576 43.0263 19.4444 45.8333V25.8333Z" fill="white"/>
<path d="M67.1333 25.8333H70.4222V54.1667H67.1333V25.8333Z" fill="white"/>
<path d="M70.8333 56.6667H66.7222L64.6667 65H72.8889L70.8333 56.6667Z" fill="white"/>
</svg>
