<svg xmlns="http://www.w3.org/2000/svg" width="128" height="128" viewBox="0 0 128 128" fill="none"><rect width="128" height="128" fill="none"/>
<path fill-rule="evenodd" clip-rule="evenodd" d="M127.191 44.1068C126.757 38.9652 121.16 36 116 36C102.745 36 92 25.2548 92 12C92 6.84005 89.0349 1.24346 83.8932 0.809301C77.9868 0.31056 71.3557 0 64 0C51.5321 0 41.1462 0.892237 32.8421 2.08077C16.5742 4.40913 4.40913 16.5742 2.08077 32.8421C0.892237 41.1462 0 51.5321 0 64C0 76.4679 0.892237 86.8538 2.08077 95.1579C4.40913 111.426 16.5742 123.591 32.8421 125.919C41.1462 127.108 51.5321 128 64 128C76.4679 128 86.8538 127.108 95.1579 125.919C111.426 123.591 123.591 111.426 125.919 95.1579C127.108 86.8538 128 76.4679 128 64C128 56.6443 127.689 50.0132 127.191 44.1068Z" fill="black"/>
</svg>
