<svg width="56" height="56" viewBox="0 0 56 56" fill="none" xmlns="http://www.w3.org/2000/svg">
<rect width="56" height="56" fill="none"/>
<path fill-rule="evenodd" clip-rule="evenodd" d="M28 56C43.464 56 56 43.464 56 28C56 12.536 43.464 0 28 0C12.536 0 0 12.536 0 28C0 43.464 12.536 56 28 56Z" fill="#5C85AD" fill-opacity="0.07"/>
<rect x="20.225" y="47.1497" width="29.366" height="16.1649" transform="rotate(-118 20.225 47.1497)" fill="#DCE8F0"/>
<path d="M18.0427 21.4616C17.5849 20.6006 16.5025 20.2808 15.6252 20.7473C14.7479 21.2137 14.4078 22.2899 14.8656 23.1509C15.3234 24.0119 16.4058 24.3317 17.2831 23.8653C18.1604 23.3988 18.5005 22.3226 18.0427 21.4616Z" fill="#F8FAFB"/>
<path d="M26.5998 37.5553C26.142 36.6942 25.0597 36.3744 24.1824 36.8409C23.305 37.3074 22.965 38.3835 23.4228 39.2445C23.8806 40.1055 24.9629 40.4254 25.8402 39.9589C26.7176 39.4924 27.0576 38.4163 26.5998 37.5553Z" fill="#F8FAFB"/>
<path d="M25.8918 30.2909C25.8918 33.3837 23.4178 35.8909 20.366 35.8909C17.3141 35.8909 14.8401 33.3837 14.8401 30.2909C14.8401 27.1981 17.3141 24.6909 20.366 24.6909C23.4178 24.6909 25.8918 27.1981 25.8918 30.2909Z" fill="#F8FAFB"/>
<rect x="19.5339" y="41.1609" width="29.366" height="16.1649" transform="rotate(-91 19.5339 41.1609)" fill="#B8D1E0"/>
<path d="M29.2517 17.2819C29.2347 16.3069 28.4155 15.5305 27.422 15.5479C26.4286 15.5652 25.637 16.3697 25.654 17.3447C25.671 18.3197 26.4902 19.096 27.4837 19.0787C28.4772 19.0613 29.2687 18.2569 29.2517 17.2819Z" fill="#F5F8FA"/>
<path d="M29.5698 35.5062C29.5527 34.5312 28.7336 33.7549 27.7401 33.7722C26.7466 33.7896 25.955 34.594 25.9721 35.569C25.9891 36.544 26.8082 37.3204 27.8017 37.303C28.7952 37.2857 29.5868 36.4812 29.5698 35.5062Z" fill="#F5F8FA"/>
<path d="M32.7518 25.9C32.7518 28.9928 30.2778 31.5 27.226 31.5C24.1741 31.5 21.7001 28.9928 21.7001 25.9C21.7001 22.8072 24.1741 20.3 27.226 20.3C30.2778 20.3 32.7518 22.8072 32.7518 25.9Z" fill="#F5F8FA"/>
<rect x="21.6561" y="35.8321" width="29.366" height="16.1649" transform="rotate(-66 21.6561 35.8321)" fill="#5C85AD"/>
<path d="M40.5552 18.2973C40.9518 17.4064 40.5375 16.3566 39.6298 15.9525C38.722 15.5484 37.6647 15.9429 37.268 16.8338C36.8714 17.7246 37.2857 18.7744 38.1934 19.1785C39.1012 19.5827 40.1586 19.1881 40.5552 18.2973Z" fill="#F0F5F7"/>
<path d="M33.1415 34.9486C33.5382 34.0578 33.1238 33.008 32.2161 32.6038C31.3084 32.1997 30.251 32.5942 29.8544 33.4851C29.4577 34.3759 29.8721 35.4257 30.7798 35.8299C31.6875 36.234 32.7449 35.8395 33.1415 34.9486Z" fill="#F0F5F7"/>
<path d="M39.9578 25.7091C39.9578 28.5207 37.7087 30.8 34.9342 30.8C32.1598 30.8 29.9107 28.5207 29.9107 25.7091C29.9107 22.8974 32.1598 20.6182 34.9342 20.6182C37.7087 20.6182 39.9578 22.8974 39.9578 25.7091Z" fill="#F0F5F7"/>
</svg>
