<svg width="80" height="80" viewBox="0 0 80 80" fill="none" xmlns="http://www.w3.org/2000/svg">
<rect width="80" height="80" fill="none"></rect>
<path fill-rule="evenodd" clip-rule="evenodd" d="M67.3746 33.5432C68.5244 34.4276 67.899 36.2665 66.4484 36.2665C65.6094 36.2665 64.9293 36.9466 64.9293 37.7857V64.0036C64.9293 65.1081 64.0338 66.0036 62.9293 66.0036H17.0417C15.9371 66.0036 15.0417 65.1081 15.0417 64.0036V37.7859C15.0417 36.9467 14.3615 36.2665 13.5223 36.2665C12.0715 36.2665 11.446 34.4273 12.596 33.5428L38.7657 13.4147C39.4846 12.8618 40.4855 12.8618 41.2044 13.4147L67.3746 33.5432ZM43.0654 32.5H33.4842V45.3375H27.9845V48.3375H33.4842V50.5H27.9842V53.5H33.4842V59H36.4842V53.5H45.9842V50.5H36.4842V48.3375H43.0654C47.4388 48.3375 50.9842 44.7922 50.9842 40.4188C50.9842 36.0453 47.4388 32.5 43.0654 32.5ZM43.0654 45.3375H36.4842V35.5H43.0654C45.782 35.5 47.9842 37.7022 47.9842 40.4188C47.9842 43.1353 45.782 45.3375 43.0654 45.3375Z" fill="white"/>
</svg>
