<svg xmlns="http://www.w3.org/2000/svg" width="80" height="80" viewBox="0 0 80 80" fill="none"><rect width="80" height="80" fill="none"/>
<path fill-rule="evenodd" clip-rule="evenodd" d="M79.6484 50.4283C79.4034 53.954 75.5342 56 72 56C63.1634 56 56 63.1634 56 72C56 75.5342 53.954 79.4034 50.4282 79.6484C47.2588 79.8686 43.7827 80 40 80C32.2076 80 25.7164 79.4424 20.5263 78.6995C10.3588 77.2443 2.75571 69.6412 1.30048 59.4737C0.557648 54.2836 0 47.7924 0 40C0 32.2076 0.557648 25.7164 1.30048 20.5263C2.75571 10.3588 10.3588 2.7557 20.5263 1.3005C25.7164 0.557699 32.2076 0 40 0C47.7924 0 54.2836 0.557699 59.4737 1.3005C69.6412 2.7557 77.2443 10.3588 78.6995 20.5263C79.4423 25.7164 80 32.2076 80 40C80 43.7827 79.8686 47.2588 79.6484 50.4283Z" fill="black"/>
</svg>
