<svg fill="none" height="80" viewBox="0 0 80 80" width="80" xmlns="http://www.w3.org/2000/svg"><rect width="80" height="80" fill="none"></rect><path d="m59.0163 54.8733 2.1559 14.6112s-10.7942 3.0537-29.0861 3.0537-29.0861-3.0537-29.0861-3.0537l2.40038-14.7004c.34048-2.0852 1.73452-3.8463 3.68587-4.6563l16.51115-6.8544h12.978l16.7121 6.8391c1.9965.817 3.4139 2.6267 3.7288 4.7608z" fill="#3074e1"/><path d="m25.5973 37.2058c0-3.5838 2.9052-6.489 6.489-6.489 3.5837 0 6.489 2.9052 6.489 6.489v7.5577c0 3.5837-2.9053 6.4889-6.489 6.4889-3.5838 0-6.489-2.9052-6.489-6.4889z" fill="#fb9f9a"/><g fill="#ffc1bd"><path d="m44.586 23.9894c0 3.3928.2209 8.5641-1.3822 12.0241-2.2593 4.8761-6.9835 8.7794-10.9758 8.7794s-8.7165-3.9033-10.9757-8.7794c-1.6032-3.46-1.3822-8.6313-1.3822-12.0241 0-8.1742 5.5328-13.5792 12.3579-13.5792s12.358 5.405 12.358 13.5792z"/><path d="m24.5127 27.8504c0 2.2743-1.5394 5.4482-3.4383 5.4482s-3.4383-3.1739-3.4383-5.4482 1.5394-4.118 3.4383-4.118 3.4383 1.8437 3.4383 4.118z"/><path d="m46.8201 27.8504c0 2.2743-1.5394 5.4482-3.4383 5.4482s-3.4383-3.1739-3.4383-5.4482 1.5394-4.118 3.4383-4.118 3.4383 1.8437 3.4383 4.118z"/></g><path d="m21.3273 24.1136c.5699-1.8751 2.0942-4.7549 5.498-6.4368l.0486.0404c1.8352 1.528 4.6129 3.8407 9.2537 3.9916 2.5224.082 4.3443-.6537 5.4283-1.8372 1.5269 2.3444 1.907 4.7265 2.2555 7.8682h.8071v-3.6262c0-5.3744-1.8398-8.3975-2.965-9.6189l-.0021.0226c-2.2668-2.8627-5.6474-4.5173-9.4236-4.5173-3.7527 0-7.1147 1.6341-9.3812 4.4641l-.015-.0076c-1.2107 1.565-2.9719 4.2827-2.9719 9.6571v3.5498h.8072z" fill="#18293d"/><path d="m8.23157 41.4671c0-2.0238 1.64058-3.6644 3.66433-3.6644h40.3804c2.0237 0 3.6643 1.6406 3.6643 3.6644v31.0706h-23.8545-23.85453z" fill="#b4c6d2"/><path clip-rule="evenodd" d="m56.8535 25.9351h-5.1116v-2.4429h8.5327v2.6734l-5.247 4.6553h5.0354v2.4429h-8.3784v-2.7427z" fill="#4c8df5" fill-rule="evenodd"/><path clip-rule="evenodd" d="m73.1144 13.9358h-9.5051v-3.6643h14.4122v4.2093l-9.4685 8.4007h9.3739v3.6643h-14.1467v-4.3284z" fill="#4c8df5" fill-rule="evenodd"/></svg>