<svg xmlns="http://www.w3.org/2000/svg" width="80" height="80" viewBox="0 0 80 80" fill="none"><rect width="80" height="80" fill="none"/>
<path d="M69.9468 39.9438C69.9468 56.5124 56.5153 69.9438 39.9468 69.9438C23.3782 69.9438 9.94678 56.5124 9.94678 39.9438C9.94678 23.3753 23.3782 9.94385 39.9468 9.94385C56.5153 9.94385 69.9468 23.3753 69.9468 39.9438Z" fill="#E7ECF0"/>
<path d="M66.9468 40.272C66.9468 55.1837 54.8585 67.272 39.9468 67.272C25.0351 67.272 12.9468 55.1837 12.9468 40.272C12.9468 25.3603 25.0351 13.272 39.9468 13.272C54.8585 13.272 66.9468 25.3603 66.9468 40.272Z" fill="#E7ECF0"/>
<path d="M66.9468 40.772C66.9468 55.4075 55.0823 67.272 40.4468 67.272C25.8112 67.272 13.9468 55.4075 13.9468 40.772C13.9468 26.1364 25.8112 14.272 40.4468 14.272C55.0823 14.272 66.9468 26.1364 66.9468 40.772Z" fill="#D6DDE2"/>
<path d="M55.1755 25.9583C63.3334 34.1162 63.3334 47.3428 55.1755 55.5007C47.0176 63.6585 33.7911 63.6585 25.6332 55.5007C17.4753 47.3428 17.4753 34.1162 25.6332 25.9583C33.7911 17.8004 47.0176 17.8004 55.1755 25.9583Z" fill="white"/>
<path fill-rule="evenodd" clip-rule="evenodd" d="M25.9869 55.1474C33.9495 63.11 46.8595 63.11 54.8221 55.1474C62.7847 47.1848 62.7847 34.2748 54.8221 26.3122L55.5292 25.6051C63.8824 33.9582 63.8824 47.5013 55.5292 55.8545C47.1761 64.2076 33.6329 64.2076 25.2798 55.8545L25.9869 55.1474Z" fill="#B4C6D2"/>
<path fill-rule="evenodd" clip-rule="evenodd" d="M40.9468 30.5404C38.2773 30.5404 36.1243 32.743 36.1243 35.446H31.9468C31.9468 30.3731 35.9823 26.272 40.9468 26.272C45.9112 26.272 49.9468 30.3731 49.9468 35.446C49.9468 37.599 49.4036 39.2507 48.4996 40.5948C47.6862 41.8041 46.6292 42.6721 45.8223 43.3349C45.7851 43.3654 45.7485 43.3955 45.7124 43.4252C44.8223 44.1575 44.2101 44.6872 43.7659 45.3697C43.3659 45.9841 43.0355 46.8371 43.0355 48.272H38.858C38.858 46.0729 39.3916 44.382 40.2875 43.0058C41.1255 41.7184 42.2193 40.8187 43.0522 40.1336L43.0924 40.1005C44.0013 39.3527 44.6117 38.8388 45.0567 38.1772C45.4485 37.5947 45.7692 36.7987 45.7692 35.446C45.7692 32.743 43.6163 30.5404 40.9468 30.5404Z" fill="#B4C6D2"/>
<path d="M43.9468 53.272C43.9468 54.9288 42.6036 56.272 40.9468 56.272C39.2899 56.272 37.9468 54.9288 37.9468 53.272C37.9468 51.6151 39.2899 50.272 40.9468 50.272C42.6036 50.272 43.9468 51.6151 43.9468 53.272Z" fill="#B4C6D2"/>
</svg>
