<?xml version="1.0" encoding="UTF-8"?>
<svg width="64px" height="64px" viewBox="0 0 64 64" version="1.1" xmlns="http://www.w3.org/2000/svg" xmlns:xlink="http://www.w3.org/1999/xlink">
    <!-- Generator: Sketch 48.2 (47327) - http://www.bohemiancoding.com/sketch -->
    <title>art_transfer-card_xs_white</title>
    <desc>Created with Sketch.</desc>
    <defs></defs>
    <g id="set" stroke="none" stroke-width="1" fill="none" fill-rule="evenodd">
        <g id="art_transfer-card_xs_white">
            <rect id="_ph_" x="0" y="0" width="64" height="64"></rect>
            <g id="art" transform="translate(3.000000, 8.000000)" fill="#FFFFFF">
                <path d="M14.7192667,13.8333333 C12.2068706,13.8333333 10.1666,15.9100506 10.1666,18.476 L10.1666,44.1906667 C10.1666,46.756616 12.2068706,48.8333333 14.7192667,48.8333333 L52.6139333,48.8333333 C55.1263294,48.8333333 57.1666,46.756616 57.1666,44.1906667 L57.1666,18.476 C57.1666,15.9100506 55.1263294,13.8333333 52.6139333,13.8333333 L14.7192667,13.8333333 Z M14.7192667,12.8333333 L52.6139333,12.8333333 C55.6826161,12.8333333 58.1666,15.3616903 58.1666,18.476 L58.1666,44.1906667 C58.1666,47.3049764 55.6826161,49.8333333 52.6139333,49.8333333 L14.7192667,49.8333333 C11.6505839,49.8333333 9.1666,47.3049764 9.1666,44.1906667 L9.1666,18.476 C9.1666,15.3616903 11.6505839,12.8333333 14.7192667,12.8333333 Z" id="Stroke-1" fill-rule="nonzero"></path>
                <path d="M9.66666667,34.1666667 L9.66666667,35.1666667 L5.386,35.1666667 C2.32143767,35.1666667 -0.166666667,32.7277711 -0.166666667,29.714 L-0.166666667,4.95266667 C-0.166666667,1.93889557 2.32143767,-0.5 5.386,-0.5 L43.2806667,-0.5 C46.345229,-0.5 48.8333333,1.93889557 48.8333333,4.95266667 L48.8333333,13.3333333 L47.8333333,13.3333333 L47.8333333,4.95266667 C47.8333333,2.4957008 45.797366,0.5 43.2806667,0.5 L5.386,0.5 C2.86930071,0.5 0.833333333,2.4957008 0.833333333,4.95266667 L0.833333333,29.714 C0.833333333,32.1709659 2.86930071,34.1666667 5.386,34.1666667 L9.66666667,34.1666667 Z" id="Stroke-3" fill-rule="nonzero"></path>
                <polygon id="Fill-5" opacity="0.3" points="9.66733333 26 57.6673333 26 57.6673333 20.6666667 9.66733333 20.6666667"></polygon>
                <polygon id="Fill-7" opacity="0.3" points="17 42 27.6666667 42 27.6666667 36.6666667 17 36.6666667"></polygon>
            </g>
        </g>
    </g>
</svg>