<svg width="80" height="80" viewBox="0 0 80 80" fill="none" xmlns="http://www.w3.org/2000/svg">
<rect width="80" height="80" fill="none"></rect>
<path d="M28.4021 67.164V42.8772L13.697 40.8009L16.3792 61.6382C16.7859 64.7979 19.4761 67.164 22.6619 67.164H28.4021Z" fill="#ED6261"/>
<path fill-rule="evenodd" clip-rule="evenodd" d="M25.6874 50.7371C25.6874 49.7375 26.4977 48.9272 27.4972 48.9272C30.7925 48.9272 33.4638 46.2559 33.4638 42.9606C33.4638 41.9611 34.2741 41.1508 35.2737 41.1508C36.2733 41.1508 37.0836 41.9611 37.0836 42.9606C37.0836 48.255 32.7916 52.5469 27.4972 52.5469C26.4977 52.5469 25.6874 51.7366 25.6874 50.7371Z" fill="#ED6261"/>
<path fill-rule="evenodd" clip-rule="evenodd" d="M64.4991 33.4427C64.4991 32.4432 65.3094 31.6329 66.309 31.6329H74.0009C75.0005 31.6329 75.8108 32.4432 75.8108 33.4427C75.8108 34.4423 75.0005 35.2526 74.0009 35.2526H66.309C65.3094 35.2526 64.4991 34.4423 64.4991 33.4427Z" fill="#D6DDE2"/>
<path fill-rule="evenodd" clip-rule="evenodd" d="M64.7561 42.8529C64.9353 41.8695 65.8345 41.3694 66.7644 41.7358L74.1942 44.6635C75.1242 45.03 75.7328 46.1242 75.5536 47.1076C75.3745 48.0909 74.4753 48.591 73.5454 48.2246L66.1156 45.2969C65.1856 44.9305 64.577 43.8363 64.7561 42.8529V42.8529Z" fill="#D6DDE2"/>
<path fill-rule="evenodd" clip-rule="evenodd" d="M75.5537 19.3255C75.3746 18.3422 74.4754 17.8421 73.5455 18.2085L66.1157 21.1362C65.1857 21.5026 64.5771 22.5969 64.7562 23.5802C64.9354 24.5636 65.8345 25.0637 66.7645 24.6973L74.1943 21.7696C75.1243 21.4031 75.7329 20.3089 75.5537 19.3255Z" fill="#D6DDE2"/>
<path d="M29.5357 22.12C27.3125 22.5782 6.66758 26.0469 6.66758 26.0469C6.66758 26.0469 5 29.3285 5 33.3765C5 37.4245 6.66752 40.7061 6.66752 40.7061C6.66752 40.7061 27.6963 43.8934 29.5357 44.5171C31.375 45.1407 33.5 45.4845 34.7187 46.1876L34.5312 20.8126C32.3281 21.7344 31.7588 21.6619 29.5357 22.12V22.12Z" fill="#D6DDE2"/>
<path d="M34.7936 46.1833L49.0625 54.1067V13.0001L34.7936 20.7094C33.376 20.9664 32.2433 26.5706 32.2433 33.4463C32.2433 40.3221 33.376 45.9263 34.7936 46.1833Z" fill="#E4EAEE"/>
<path d="M49.4546 53.9812C53.0155 53.9812 55.9023 44.8072 55.9023 33.4906C55.9023 22.174 53.0155 13 49.4546 13C45.8936 13 43.0068 22.174 43.0068 33.4906C43.0068 44.8072 45.8936 53.9812 49.4546 53.9812Z" fill="#B4C6D2"/>
<path fill-rule="evenodd" clip-rule="evenodd" d="M43.3578 40.1746C43.1303 38.0794 43.0068 35.8303 43.0068 33.4895C43.0068 31.1496 43.1303 28.9013 43.3575 26.8067L48.2541 28.04V38.9413L43.3578 40.1746Z" fill="#D6DDE2"/>
<path d="M48.254 38.9821C49.6023 38.9821 50.6952 36.5259 50.6952 33.496C50.6952 30.4661 49.6023 28.0099 48.254 28.0099C46.9058 28.0099 45.8129 30.4661 45.8129 33.496C45.8129 36.5259 46.9058 38.9821 48.254 38.9821Z" fill="#E4EAEE"/>
</svg>
