<svg xmlns="http://www.w3.org/2000/svg" width="128" height="128" viewBox="0 0 128 128">
<rect width="24" height="24" fill="none"/>
<g>
  <path d="M77.54923 62.60659l-27.21902 0c-0.35674 0 -0.5351 -0.34979 -0.5368 -0.52385l0 -5.58337c0 -0.34979 0.35843 -0.52386 0.5368 -0.52386l27.21902 0c0.35843 0 0.5368 0.34979 0.5368 0.52386l0 5.58337c0 0.34979 -0.35843 0.52385 -0.5368 0.52385zM59.12295 21.6318c0.66591 -2.4406 1.66307 -4.557 4.82611 -4.5586 3.15965 0 4.15681 2.2793 4.98919 4.5586 0.33125 0.9776 8.48178 23.11411 8.64826 23.76582 0 0.16293 0 0.48878 -0.16648 0.65171 -0.33125 0 -4.48976 1.79054 -4.82271 1.79054 -0.16648 0 -0.49943 0 -0.6659 -0.32585 0 -0.16293 -1.82954 -5.04577 -1.99602 -5.53455l-11.97608 0c-0.16648 0.48878 -1.99601 5.37162 -1.99601 5.53455 0 0.16292 -0.33465 0.32585 -0.49943 0.32585 -0.16478 0 -4.48976 -1.79054 -4.82271 -1.79054 -0.16648 0 -0.33295 -0.32585 -0.16648 -0.65171C50.80595 44.58298 58.79 22.7706 59.12295 21.6318Zm9.14769 14.81312l-4.32498 -12.20792 -3.99202 12.20792 8.317 0z" fill="#ffffff"/>
  <path d="M92.04509 101.3923c0 3.31938 -2.0541 5.38596 -6.00855 5.38596 -1.73007 0 -3.41441 -0.28467 -5.13965 -0.90772l0.001 -15.45291c1.10732 -0.29475 3.43095 -0.66378 4.92749 -0.66378 1.51601 0 3.47276 0.1826 4.82046 0.4807l-0.08274 2.42268c-1.18611 -0.14282 -2.53767 -0.20034 -3.60513 -0.20034 -1.1287 0 -2.15331 0.07381 -2.75173 0.15768l0.0078 4.18063c0.96231 -0.22334 1.58412 -0.30769 2.47445 -0.30769 3.63043 0 5.35661 2.00045 5.35661 4.90479zm-3.32684 0.23388c0 -1.69276 -0.85433 -2.45096 -2.50072 -2.5123 -0.87088 -0.03068 -1.63471 0.08531 -2.0035 0.14569l0 4.74088c0.83682 0.22525 1.36323 0.22286 2.0035 0.22286 1.62109 0 2.50072 -1.0309 2.50072 -2.59713zm-38.32722 8.69577l-3.11569 0 0 -4.21178c-0.39506 0.23053 -1.18614 0.57129 -2.52408 0.57129 -2.84323 0 -4.59666 -2.09391 -4.59666 -6.05838 0 -4.26545 1.94025 -6.16813 5.12697 -6.16813 0.8086 0 1.33988 0.08196 1.99377 0.38964l0 -5.03227 3.11569 0 0 5.03227c0.65582 -0.30768 1.18224 -0.38964 1.99181 -0.38964 3.1877 0 5.126 1.82743 5.126 6.09576 0 3.96207 -1.95095 6.13075 -4.59958 6.13075 -1.33209 0 -2.12221 -0.34076 -2.51823 -0.57129l0 4.21178zm-7.02538 -9.69887c0 2.15812 0.6714 3.47322 2.30611 3.47322 0.60523 0 0.92537 -0.0302 1.60358 -0.24921l0 -6.47294c-0.74827 -0.35178 -1.1482 -0.34795 -1.7544 -0.34795 -1.4343 0 -2.15529 1.24417 -2.15529 3.59688zm10.93312 -0.0724c0 -2.35511 -0.71908 -3.52451 -2.1563 -3.52451 -0.60228 0 -1.00512 -0.0038 -1.75144 0.34795l0 6.47294c0.68015 0.21902 0.99928 0.24921 1.60162 0.24921 1.43427 0 2.30612 -1.38986 2.30612 -3.54559zm-30.70538 5.93137l0 -9.21337c-0.82708 -0.1203 -0.96623 -0.14762 -1.63182 -0.14762 -0.66067 0 -0.82511 0.02732 -1.65512 0.14762l0 4.25395c0 3.42194 -0.94482 4.49837 -3.45528 5.19618l-0.85335 -1.80299c0.63053 -0.41313 0.86211 -0.94847 1.03532 -1.3937 0.1732 -0.50898 0.20044 -0.98058 0.20044 -2.55304l0 -5.78328c1.7184 -0.50419 3.00671 -0.72274 4.72799 -0.72274 1.72426 0 3.04566 0.21855 4.76113 0.72274l0 11.29625 -3.12931 0zm45.62896 -1.12531l-1.99961 1.36207c-0.25591 -0.0815 -0.87769 -0.53774 -1.19004 -0.9892 -0.51765 0.33548 -0.69183 0.4323 -1.08886 0.60674 -0.66067 0.26264 -1.49554 0.40977 -2.29733 0.40977 -2.15723 0 -3.91456 -1.27244 -3.91456 -3.60454 0 -2.47971 1.6464 -3.98269 4.77473 -3.98269 0.60329 0 1.12192 0.08867 1.5812 0.2104l0 -0.5732c0 -1.52741 -0.2384 -1.82551 -2.31001 -1.82551 -0.66264 0 -1.57924 0.10496 -2.45791 0.22525L59.8568 94.93421c1.2922 -0.32446 2.64665 -0.47112 4.02353 -0.47112 1.95193 0 3.00962 0.37958 3.64308 1.25664 0.46022 0.62496 0.65972 1.25088 0.65972 2.95754l0 3.15787c0 1.55569 0.21505 2.28465 1.03922 3.52163zm-3.97294 -1.35153c-0.1158 -0.38724 -0.16153 -0.98297 -0.16153 -1.89309l0 -0.84254c-0.17515 -0.0604 -0.55074 -0.11647 -0.92342 -0.11647 -1.55006 0 -2.35282 0.39827 -2.35282 1.57486 0 1.12963 0.63637 1.56576 1.7544 1.56576 0.54393 0 0.99542 -0.0542 1.68337 -0.28852zm38.48099 1.35153l-2.0016 1.36207c-0.2539 -0.0815 -0.8796 -0.53774 -1.193 -0.9892 -0.5137 0.33548 -0.68787 0.4323 -1.08782 0.60674 -0.66067 0.26264 -1.4946 0.40977 -2.29538 0.40977 -2.15432 0 -3.91456 -1.27244 -3.91456 -3.60454 0 -2.47971 1.64636 -3.98269 4.77473 -3.98269 0.60325 0 1.119 0.08867 1.57824 0.2104l0 -0.5732c0 -1.52741 -0.23936 -1.82551 -2.30608 -1.82551 -0.6607 0 -1.58217 0.10496 -2.45891 0.22525l-0.46314 -2.26165c1.29317 -0.32446 2.64373 -0.47112 4.02253 -0.47112 1.95289 0 3.00969 0.37958 3.64599 1.25664 0.4573 0.62496 0.6559 1.25088 0.6559 2.95754l0 3.15787c0 1.55569 0.215 2.28465 1.0431 3.52163zm-3.97589 -1.35153c-0.11387 -0.38724 -0.1635 -0.98297 -0.1635 -1.89309l0 -0.84254c-0.17125 -0.0604 -0.54293 -0.11647 -0.9195 -0.11647 -1.55009 0 -2.35281 0.39827 -2.35281 1.57486 0 1.12963 0.6315 1.56576 1.75147 1.56576 0.54585 0 0.99835 -0.0542 1.68434 -0.28852zm-70.55054 -9.35331l3.12541 0 0 3.83794c0.82028 -0.1941 1.25815 -0.29235 2.00545 -0.29235 2.93956 0 4.51395 1.56144 4.51395 4.08333 0 2.7874 -1.77775 4.47921 -5.09975 4.47921 -1.44689 0 -3.07674 -0.27798 -4.55869 -0.89431L29.20397 94.6519Zm6.41041 7.77174c0 -1.10805 -0.48068 -1.7958 -1.91592 -1.7958 -0.48361 0 -0.55464 0.0268 -1.37102 0.1826l0 3.38121c0.6568 0.18164 0.86503 0.18164 1.37102 0.18164 1.5014 0 1.91592 -0.79318 1.91592 -1.94965zm76.41992 4.05841l0 -4.78785 -3.5409 0 0 4.78785 -3.1244 0 0 -11.72376 3.1244 0 0 4.43224 3.5409 0 0 -4.43224 3.1283 0 0 11.72376 -3.1283 0zm12.5572 0c0 0 -1.0548 -2.54202 -1.6124 -3.65055 -0.4749 -0.92834 -0.6276 -1.14688 -1.5199 -1.14688l-0.4271 0.007 0 4.79072 -3.142 0 0 -11.72376 3.142 0 0 4.4308 0.5254 0c0.8095 0 0.9575 -0.27654 1.2572 -0.89335 0.2938 -0.60339 0.5254 -1.08266 0.8193 -1.67503 0.2744 -0.55498 0.4982 -1.02754 0.8222 -1.34433 0.4135 -0.41696 0.8553 -0.65324 1.6999 -0.70452 0.5128 -0.02732 1.0081 -0.02636 1.4566 0.03163l-0.1585 2.13416c0 0 -0.4204 -0.10448 -0.7279 0.16966 -0.3114 0.27127 -0.47 0.51665 -1.0051 1.66209 -0.5556 1.17228 -1.0675 1.55761 -1.7136 1.67742l0 0.0537c0.9643 0.2262 1.3973 0.86123 1.8682 1.78238 0.4185 0.81091 2.1242 4.39916 2.1242 4.39916l-3.4085 0zm-119.233919 -5.96396l4.259986 0c0 0 -0.949691 -3.33568 -1.091757 -3.81782C8.162867 95.45996 7.609204 93.27932 7.609204 93.27932l-0.099251 0c0 0 -0.602312 2.10396 -1.004178 3.44015 -0.151797 0.51377 -1.148194 3.79865 -1.148194 3.79865zm6.062069 5.96396c0 0 -0.43301 -1.43587 -0.9711 -3.21778l-5.96867 0c-0.564364 1.78286 -1.029482 3.21778 -1.029482 3.21778L0 106.48208 5.771126 90.09412c0.647055 -0.20129 0.941904 -0.30864 1.767045 -0.30864 0.755085 0 1.470239 0.11838 2.04242 0.30864l5.442239 16.38796 -3.60318 0zm65.1122 -5.86715c0 1.09224 -0.89423 1.96882 -1.99377 1.96882 -1.10148 0 -1.99672 -0.87658 -1.99672 -1.96882 0 -1.08122 0.89524 -1.9669 1.99672 -1.9669 1.09954 0 1.99377 0.88568 1.99377 1.9669z" fill="#ffffff"/>
</g>
</svg>
