<svg xmlns="http://www.w3.org/2000/svg" width="30" height="40" viewBox="0 0 30 40" fill="none"><rect width="30" height="40" fill="none"/>
<path fill-rule="evenodd" clip-rule="evenodd" d="M30 15C30 21.7282 25.5702 27.4218 19.4681 29.3233C19.4401 29.3336 19.4118 29.3442 19.3834 29.355C17.3912 29.9522 15.8963 32.0992 15.291 34.1258C15.252 34.2565 15.1413 34.3497 15.0049 34.3494C14.8647 34.349 14.747 34.2526 14.7068 34.1181C14.113 32.1292 12.6861 30.062 10.7534 29.3904C10.6533 29.3609 10.5537 29.3304 10.4545 29.2989L10.4404 29.2952L10.421 29.2882C10.2972 29.2486 10.1741 29.2074 10.0518 29.1647L9.99994 29.1488V29.1465C4.17401 27.0873 0 21.5311 0 15C0 6.71573 6.71573 0 15 0C23.2843 0 30 6.71573 30 15ZM14.9202 40C15.9557 40 16.7952 39.1605 16.7952 38.125C16.7952 37.0895 15.9557 36.25 14.9202 36.25C13.8847 36.25 13.0452 37.0895 13.0452 38.125C13.0452 39.1605 13.8847 40 14.9202 40Z" fill="#EF3124"/>
<path d="M17.5 11.7188C17.5 10.1711 16.875 8.59375 15 8.59375C13.125 8.59375 12.5 10.1422 12.5 11.7188C12.5 13.2953 13.6078 14.5312 15 14.5312C16.3922 14.5312 17.5 13.2664 17.5 11.7188Z" fill="white"/>
<path d="M10.0338 18.3781C10.6911 17.5906 11.9537 16.6436 13.7975 16.3449L14.375 17.5L13.8393 21.25H9.375V19.8214C9.41187 19.1999 9.65752 18.8288 10.0338 18.3781Z" fill="white"/>
<path d="M15.625 17.5L16.2025 16.3449C18.0463 16.6436 19.3089 17.5906 19.9662 18.3781C20.3425 18.8288 20.5881 19.1999 20.625 19.8214V21.25H16.1607L15.625 17.5Z" fill="white"/>
</svg>
