<svg width="96" height="96" viewBox="0 0 96 96" xmlns="http://www.w3.org/2000/svg"><g fill="none" fill-rule="evenodd"><path d="M0 0h96v96H0z"/><g fill="#0F2338"><path d="M92.847 36.727A2.462 2.462 0 0 0 90.47 35H61.659a2.493 2.493 0 0 1-2.378-1.728L50.378 5.87A2.462 2.462 0 0 0 48 4.142a2.462 2.462 0 0 0-2.378 1.728l-8.903 27.402A2.494 2.494 0 0 1 34.341 35H5.53a2.462 2.462 0 0 0-2.377 1.727 2.463 2.463 0 0 0 .908 2.795l23.308 16.933a2.492 2.492 0 0 1 .908 2.795l-8.902 27.401a2.464 2.464 0 0 0 .908 2.795 2.465 2.465 0 0 0 2.938 0L46.53 72.512a2.496 2.496 0 0 1 2.939 0l23.309 16.935c.446.325.958.486 1.47.486s1.023-.162 1.47-.486a2.462 2.462 0 0 0 .908-2.795L67.723 59.25a2.492 2.492 0 0 1 .908-2.795l23.308-16.933a2.463 2.463 0 0 0 .908-2.795zm-1.496 1.987L68.043 55.646a3.491 3.491 0 0 0-1.271 3.913l8.903 27.401c.248.764-.119 1.368-.545 1.677-.426.311-1.114.472-1.764 0L50.058 71.703a3.496 3.496 0 0 0-4.116 0L22.634 88.638c-.649.47-1.337.309-1.763 0-.427-.31-.793-.913-.545-1.678l8.902-27.401a3.489 3.489 0 0 0-1.271-3.913L4.649 38.714c-.65-.473-.708-1.177-.545-1.678C4.267 36.535 4.727 36 5.53 36h28.811a3.492 3.492 0 0 0 3.329-2.419l8.903-27.403c.248-.764.9-1.036 1.427-1.036s1.179.272 1.427 1.037l8.903 27.403A3.492 3.492 0 0 0 61.659 36H90.47c.803 0 1.264.535 1.426 1.036.163.501.105 1.205-.545 1.678z"/><path d="M71 41H57.925a3.49 3.49 0 0 1-3.328-2.418l-4.936-15.191-2.854.927 4.936 15.191A6.483 6.483 0 0 0 57.925 44H71v-3z" opacity=".3"/></g></g></svg>