<svg width="80" height="80" viewBox="0 0 80 80" fill="none" xmlns="http://www.w3.org/2000/svg">
<rect width="80" height="80" fill="none"></rect>
<path d="M36.3036 15C34.6467 15 33.3036 16.3431 33.3036 18V33.3036H18C16.3431 33.3036 15 34.6467 15 36.3036V43.6964C15 45.3533 16.3431 46.6964 18 46.6964H33.3036V62C33.3036 63.6569 34.6467 65 36.3036 65H43.6964C45.3533 65 46.6964 63.6569 46.6964 62V46.6964H62C63.6569 46.6964 65 45.3533 65 43.6964V36.3036C65 34.6467 63.6569 33.3036 62 33.3036H46.6964V18C46.6964 16.3431 45.3533 15 43.6964 15H36.3036Z" fill="white"/>
</svg>
