<svg xmlns="http://www.w3.org/2000/svg" width="64" height="64" viewBox="0 0 64 64">
  <title>art_transfer-card_xs_white</title>
  <rect width="64" height="64" fill="none"/>
  <g>
    <path d="M55.45,22A4.6,4.6,0,0,1,60,26.64V52.36A4.6,4.6,0,0,1,55.45,57H17.55A4.6,4.6,0,0,1,13,52.36V26.64A4.6,4.6,0,0,1,17.55,22ZM12,26.64V52.36A5.6,5.6,0,0,0,17.55,58h37.9A5.6,5.6,0,0,0,61,52.36V26.64A5.6,5.6,0,0,0,55.45,21H17.55A5.6,5.6,0,0,0,12,26.64Z" fill="#fff"/>
    <path d="M8.55,42A4.46,4.46,0,0,1,4,37.64V13.36A4.46,4.46,0,0,1,8.55,9h37.9A4.46,4.46,0,0,1,51,13.36v8.22h1V13.36A5.46,5.46,0,0,0,46.45,8H8.55A5.46,5.46,0,0,0,3,13.36V37.64A5.46,5.46,0,0,0,8.55,43h4.28V42Z" fill="#fff"/>
    <path d="M12,37H60V29H12Z" fill="#fff" opacity="0.3"/>
    <path d="M20,50H30V44H20Z" fill="#fff" opacity="0.3"/>
  </g>
</svg>
