<svg fill="none" height="80" viewBox="0 0 80 80" width="80" xmlns="http://www.w3.org/2000/svg" xmlns:xlink="http://www.w3.org/1999/xlink"><rect width="80" height="80" fill="none"></rect><linearGradient id="a" gradientUnits="userSpaceOnUse" x1="40.819" x2="40.819" y1="17.6133" y2="60.59"><stop offset="0" stop-color="#fede7c"/><stop offset="1" stop-color="#f2c94c"/></linearGradient><linearGradient id="b" gradientUnits="userSpaceOnUse" x1="40.8602" x2="40.8602" y1="60.7148" y2="70.4787"><stop offset="0" stop-color="#d6dde2"/><stop offset="1" stop-color="#b5c6d2"/></linearGradient><path d="m40.819 17.6133c-10.3136 0-18.6745 8.3608-18.6745 18.6745 0 4.6153 1.6743 8.8396 4.4487 12.0985l2.0279 2.0659c1.6625 1.6937 2.5939 3.9722 2.5939 6.3455v3.7878h9.604l9.604.0045v-4.52c0-1.9069.7484-3.7376 2.0842-5.0985l2.5376-2.5852c2.7744-3.2589 4.4487-7.4832 4.4487-12.0985 0-10.3137-8.3609-18.6745-18.6745-18.6745z" fill="url(#a)"/><path d="m50.4956 64.8763v-4.1615h-19.2708v4.1615l6.3252 3.2014 1.3554 2.401h4.0153l1.2497-2.401z" fill="url(#b)"/><g stroke="#d6dde2" stroke-linecap="round" stroke-width="1.60304"><path d="m40.8188 11.2104v-8.00337"/><path d="m62.7425 23.7009 6.9311-4.0017"/><path d="m62.7425 47.9768 6.9311 4.0017"/><path d="m40.8188 11.2104v-8.00337"/><path d="m18.8952 23.7009-6.9311-4.0017"/><path d="m18.8952 47.9768-6.9311 4.0017"/></g></svg>