<svg width="80" height="80" viewBox="0 0 80 80" fill="none" xmlns="http://www.w3.org/2000/svg">
<rect width="80" height="80" fill="none"></rect>
<path fill-rule="evenodd" clip-rule="evenodd" d="M35 12C26.1634 12 18 19.1634 18 28V46.8H62V28C62 19.1634 53.8366 12 45 12H35ZM52.2 18.4H27.8V23.2H52.2V18.4ZM55.4 28H24.6V38.4C24.6 40.6091 26.3909 42.4 28.6 42.4H51.4C53.6091 42.4 55.4 40.6091 55.4 38.4V28Z" fill="white"/>
<path fill-rule="evenodd" clip-rule="evenodd" d="M62 50.2H18V62H20.4V66.4C20.4 67.2837 21.1163 68 22 68H26.2C27.0837 68 27.8 67.2837 27.8 66.4V62H52.2V66.4C52.2 67.2837 52.9164 68 53.8 68H58C58.8837 68 59.6 67.2837 59.6 66.4V62H62V50.2ZM24.6 57.4C25.9255 57.4 27 56.3255 27 55V55C27 53.6745 25.9255 52.6 24.6 52.6V52.6C23.2745 52.6 22.2 53.6745 22.2 55V55C22.2 56.3255 23.2745 57.4 24.6 57.4V57.4ZM55.4 52.6C56.7255 52.6 57.8 53.6745 57.8 55V55C57.8 56.3255 56.7255 57.4 55.4 57.4V57.4C54.0745 57.4 53 56.3255 53 55V55C53 53.6745 54.0745 52.6 55.4 52.6V52.6Z" fill="white"/>
</svg>
