<svg width="80" height="80" viewBox="0 0 80 80" fill="none" xmlns="http://www.w3.org/2000/svg">
<rect width="80" height="80" fill="none"></rect>
<path d="M67.6384 63.2994L64.0702 44.0569C63.4249 40.5771 60.613 37.9081 57.1043 37.4452L44.0025 35.7165C43.7676 35.6855 43.5297 35.6853 43.2947 35.7159L30.0503 37.4396C26.4818 37.904 23.6376 40.6448 23.0285 44.1915C21.7057 51.8954 19.4016 64.9976 18.0601 70.8141H61.3891C65.3636 70.8141 68.363 67.2072 67.6384 63.2994Z" fill="#3074E1"/>
<path d="M50.2499 59.0825C50.2286 59.5238 49.8929 59.8856 49.4545 59.9399L38.1245 61.3415L35.3828 36.6035L42.9226 35.5442L51.3348 36.6035L50.2499 59.0825Z" fill="#F6F7F8"/>
<path d="M37.9905 30.2983C37.9905 27.3731 40.3619 25.0017 43.2871 25.0017C46.2123 25.0017 48.5837 27.3731 48.5837 30.2983V36.4672C48.5837 39.3924 46.2123 41.7638 43.2871 41.7638C40.3619 41.7638 37.9905 39.3924 37.9905 36.4672V30.2983Z" fill="#FB9F9A"/>
<path d="M50.1543 19.6238C50.8713 21.3361 50.7128 24.2111 49.2831 24.8097C47.8534 25.4083 45.6938 23.5039 44.9768 21.7916C44.2599 20.0793 44.8377 18.2059 46.2674 17.6072C47.6971 17.0086 49.4373 17.9114 50.1543 19.6238V19.6238Z" fill="#FDB2AE"/>
<path d="M33.3589 26.657C34.0759 28.3693 33.9174 31.2443 32.4877 31.8429C31.058 32.4415 28.8984 30.5371 28.1814 28.8248C27.4645 27.1125 28.0423 25.2391 29.472 24.6405C30.9017 24.0418 32.6419 24.9447 33.3589 26.657Z" fill="#FFC1BD"/>
<path d="M47.2548 17.423C48.3243 19.9775 50.1209 23.8013 50.0046 26.9117C49.8408 31.2953 47.5144 35.7233 44.5086 36.9819C41.5027 38.2404 36.7153 36.7909 33.4771 33.8319C31.1794 31.7322 29.7155 27.769 28.6459 25.2146C26.0691 19.0602 28.5309 13.2464 33.6696 11.0949C38.8083 8.9433 44.6779 11.2686 47.2548 17.423Z" fill="#FDB2AE"/>
<path d="M47.2548 17.423C48.3243 19.9775 50.1209 23.8013 50.0046 26.9117C49.8408 31.2953 47.5144 35.7233 44.5086 36.9819C41.5027 38.2404 36.7153 36.7909 33.4771 33.8319C31.1794 31.7322 29.7155 27.769 28.6459 25.2146C26.0691 19.0602 28.5309 13.2464 33.6696 11.0949C38.8083 8.9433 44.6779 11.2686 47.2548 17.423Z" fill="#FDB2AE"/>
<path fill-rule="evenodd" clip-rule="evenodd" d="M29.7818 24.8447C29.6198 23.2538 29.8594 20.6061 31.8903 18.2673L31.9414 18.2829C33.8048 18.8548 36.6253 19.7204 40.1669 18.371C42.092 17.6375 43.2318 16.5093 43.6748 15.2764C45.5635 16.5602 46.6006 18.2338 47.8533 20.4893L48.461 20.2349L47.3179 17.5047C45.6236 13.4583 43.2854 11.7622 42.0532 11.1972L42.0587 11.2151C39.4496 9.77437 36.3827 9.59435 33.5396 10.7848C30.715 11.9674 28.6992 14.2566 27.8844 17.1006L27.87 17.0996C27.4518 18.6596 26.9826 21.261 28.6768 25.3074L29.7959 27.9801L30.4036 27.7256L29.7818 24.8447Z" fill="#18293D"/>
<path d="M26.745 25.4075L27.105 24.0527C27.3205 23.2418 28.4264 23.132 28.7971 23.8847L32.1688 30.731C32.3163 31.0306 32.5176 31.3004 32.7627 31.5271L35.9174 34.4454C37.4117 35.8277 37.8032 38.0358 36.8753 39.8476L33.2105 47.003L27.7271 42.6408L29.4654 38.3403C29.8716 37.3356 29.9049 36.2187 29.5594 35.1915L26.7957 26.9755C26.6254 26.4692 26.6077 25.9238 26.745 25.4075V25.4075Z" fill="#FFC1BD"/>
<path d="M13.2551 60.808L28.9849 39.5147C28.9849 39.5147 29.4451 40.8948 31.3327 42.0274C33.2204 43.1601 35.563 42.4832 35.563 42.4832L30.4526 54.0613L23.4012 69.3569C22.9562 70.3221 21.9904 70.9404 20.9275 70.9404H18.3674C13.1511 70.9404 10.1557 65.0037 13.2551 60.808V60.808Z" fill="#4C8DF5"/>
</svg>
