<svg xmlns="http://www.w3.org/2000/svg" width="80" height="80" viewBox="0 0 80 80" fill="none"><rect width="80" height="80" fill="none"/>
<g clip-path="url(#clip0)">
<circle cx="39.9468" cy="39.9438" r="30" fill="#E7ECF0"/>
<path d="M27.5695 57.8049C26.855 57.8049 26.1948 57.4237 25.8375 56.8049L13.2437 34.9918C12.8864 34.373 12.8864 33.6106 13.2437 32.9918L25.8375 11.1787C26.1947 10.5599 26.855 10.1787 27.5695 10.1787L52.7571 10.1787C53.4717 10.1787 54.1319 10.5599 54.4892 11.1787L67.083 32.9918C67.4403 33.6106 67.4403 34.373 67.083 34.9918L54.4892 56.8049C54.1319 57.4237 53.4717 57.8049 52.7571 57.8049L27.5695 57.8049Z" fill="#EF3124"/>
<path fill-rule="evenodd" clip-rule="evenodd" d="M67.5575 32.7423L54.3863 9.9292L53.5203 10.4292L66.6915 33.2423C66.9594 33.7064 66.9594 34.2782 66.6915 34.7423L54.0976 56.5554C53.8297 57.0195 53.3345 57.3054 52.7986 57.3054H26.4563V58.3054H36.9467V69.7959C37.9335 69.8939 38.9342 69.944 39.9467 69.944C40.9592 69.944 41.96 69.8939 42.9467 69.7959V58.3054H52.7986C53.6918 58.3054 54.5171 57.8289 54.9637 57.0554L67.5575 35.2423C68.0041 34.4688 68.0041 33.5158 67.5575 32.7423Z" fill="#18293D"/>
<rect x="23.9468" y="29.272" width="32" height="9" fill="white"/>
</g>
<defs>
<clipPath id="clip0">
<rect width="80" height="80" fill="white"/>
</clipPath>
</defs>
</svg>
