<svg width="56" height="56" viewBox="0 0 56 56" fill="none" xmlns="http://www.w3.org/2000/svg">
<rect width="56" height="56" fill="none"/>
<path fill-rule="evenodd" clip-rule="evenodd" d="M28 56C43.464 56 56 43.464 56 28C56 12.536 43.464 0 28 0C12.536 0 0 12.536 0 28C0 43.464 12.536 56 28 56Z" fill="#5C85AD" fill-opacity="0.07"/>
<path d="M39.0771 33.2005C38.7201 33.5584 38.1431 33.5584 37.7862 33.2005L36.4952 31.9096C36.1373 31.5526 36.1373 30.9747 36.4952 30.6186L39.0772 28.0366C39.4342 27.6796 40.0112 27.6796 40.3682 28.0366L41.6591 29.3276C42.017 29.6836 42.017 30.2616 41.6591 30.6185L39.0771 33.2005Z" fill="#B2CCDC"/>
<path d="M25.382 19.5056C25.025 19.8635 24.448 19.8635 24.091 19.5056L22.8001 18.2147C22.4422 17.8577 22.4422 17.2798 22.8001 16.9238L25.3821 14.3418C25.7391 13.9848 26.3161 13.9848 26.673 14.3418L27.964 15.6327C28.3218 15.9888 28.3218 16.5667 27.964 16.9236L25.382 19.5056Z" fill="#B2CCDC"/>
<path d="M13.5128 31.5311C15.3388 31.5311 23.5559 32.4441 23.5559 32.4441C23.5559 32.4441 24.4689 40.6611 24.4689 42.4871C24.4689 44.3131 22.6429 44.3131 21.7299 43.4001C20.8169 42.4871 18.0779 37.9221 18.0779 37.9221C18.0779 37.9221 13.5129 35.1831 12.5999 34.2701C11.6869 33.3571 11.6868 31.5311 13.5128 31.5311Z" fill="#5C85AD"/>
<path d="M15.3383 16.9585C18.0773 16.923 38.1635 17.836 38.1635 17.836C38.1635 17.836 39.007 37.9221 39.0418 40.6611C39.0765 43.4001 36.5201 44.3149 35.5158 40.662C34.5114 37.0091 30.8594 25.14 30.8594 25.14C30.8594 25.14 18.1185 21.1081 15.3338 20.4818C11.6863 19.6619 12.5993 16.9942 15.3383 16.9585Z" fill="#5C85AD"/>
<path d="M36.338 14.1838C38.164 12.3578 42.7291 11.4448 43.6421 12.3578C44.5551 13.2708 43.6421 17.8358 41.8161 19.6618C39.9901 21.4878 24.4689 36.0959 24.4689 36.0959C24.4689 36.0959 18.5344 40.2044 17.1649 38.8349C15.7954 37.4654 19.9039 31.5309 19.9039 31.5309C19.9039 31.5309 34.512 16.0098 36.338 14.1838Z" fill="#B2CCDC"/>
</svg>
