<svg xmlns="http://www.w3.org/2000/svg" width="80" height="80" viewBox="0 0 80 80" fill="none"><rect width="80" height="80" fill="none"/>
<path fill-rule="evenodd" clip-rule="evenodd" d="M79.6484 29.5717C79.4034 26.046 75.5342 24 72 24C63.1634 24 56 16.8366 56 8C56 4.46576 53.954 0.596579 50.4282 0.351617C47.2588 0.131408 43.7827 0 40 0C32.2076 0 25.7164 0.557648 20.5263 1.30048C10.3588 2.75571 2.75571 10.3588 1.30048 20.5263C0.557648 25.7164 0 32.2076 0 40C0 47.7924 0.557648 54.2836 1.30048 59.4737C2.75571 69.6412 10.3588 77.2443 20.5263 78.6995C25.7164 79.4423 32.2076 80 40 80C47.7924 80 54.2836 79.4423 59.4737 78.6995C69.6412 77.2443 77.2443 69.6412 78.6995 59.4737C79.4423 54.2836 80 47.7924 80 40C80 36.2173 79.8686 32.7412 79.6484 29.5717Z" fill="black"/>
</svg>
