<svg width="80" height="80" viewBox="0 0 80 80" fill="none" xmlns="http://www.w3.org/2000/svg">
<rect width="80" height="80" fill="none"></rect>
<circle cx="40" cy="56" r="7" fill="white"/>
<path fill-rule="evenodd" clip-rule="evenodd" d="M20.3818 46.1183C23.8866 38.3658 31.3499 33 40 33C48.6501 33 56.1134 38.3658 59.6182 46.1183C60.5417 48.161 59.7323 50.6127 57.8103 51.5942C55.8883 52.5758 53.5815 51.7155 52.658 49.6727C50.3901 44.6561 45.5702 41.2071 40 41.2071C34.4298 41.2071 29.6099 44.6561 27.342 49.6727C26.4185 51.7155 24.1117 52.5758 22.1897 51.5942C20.2677 50.6127 19.4583 48.161 20.3818 46.1183Z" fill="white"/>
<path fill-rule="evenodd" clip-rule="evenodd" d="M6.67788 35.4194C13.7626 24.3395 26.0392 17 40 17C53.9608 17 66.2374 24.3395 73.3221 35.4194C74.5813 37.3887 74.0359 40.0256 72.1038 41.3091C70.1718 42.5925 67.5848 42.0366 66.3256 40.0673C60.717 31.2958 51.02 25.5123 40 25.5123C28.98 25.5123 19.283 31.2958 13.6743 40.0673C12.4152 42.0366 9.82817 42.5925 7.89615 41.3091C5.96413 40.0256 5.41869 37.3887 6.67788 35.4194Z" fill="white"/>
</svg>
