<svg xmlns="http://www.w3.org/2000/svg" width="48" height="48" viewBox="0 0 48 48" fill="none"><rect width="48" height="48" fill="none"/>
<path d="M32.0177 4.37102C32.1078 2.7715 31.3719 1.09689 29.8173 0.709845C27.9547 0.246132 26.0061 0 24 0C10.7452 0 0 10.7452 0 24C0 37.2548 10.7452 48 24 48C26.0061 48 27.9547 47.7539 29.8173 47.2902C31.3719 46.9031 32.1078 45.2285 32.0177 43.629C32.0059 43.4208 32 43.2111 32 43C32 36.9249 36.9249 32 43 32C43.2111 32 43.4208 32.0059 43.629 32.0177C45.2285 32.1078 46.9031 31.3719 47.2902 29.8173C47.7539 27.9547 48 26.0061 48 24C48 21.9939 47.7539 20.0453 47.2902 18.1827C46.9031 16.6281 45.2285 15.8921 43.629 15.9823C43.4208 15.9941 43.2111 16 43 16C36.9249 16 32 11.0751 32 5C32 4.7889 32.0059 4.57919 32.0177 4.37102Z" fill="black"/>
</svg>
