<svg fill="none" height="80" viewBox="0 0 80 80" width="80" xmlns="http://www.w3.org/2000/svg"><rect width="80" height="80" fill="none"></rect><path d="m39.1215 15.5172-7.0814 22.8637h11.2053l-6.3334 18.6749 21.9233-29.5184h-9.7437l1.674-10.6628h3.0836c11.6071 3.3499 19.8516 11.8469 19.8516 21.7999 0 6.3781-3.3857 12.1584-8.8723 16.3693v13.4578c0 .7142-.8285 1.3555-1.3912 1.3555h-2.4373l-11.0103-8.4844c-2.2915.4105-4.6818.6277-7.1393.6277-17.0382 0-30.8504-10.4434-30.8504-23.3259 0-11.1024 10.2587-20.8032 24-23.1589 0 0 2.0636.098 3.1215.0016z" fill="#3074e1"/><path clip-rule="evenodd" d="m36.0297 15.5176-7.0814 22.8637h11.2053l-6.3334 18.6749 21.9233-29.5184h-9.7437l4.7576-10.6628c11.6071 3.3498 19.8516 11.8469 19.8516 21.7999 0 6.3781-3.3856 12.1583-8.8723 16.3693v14.0461c0 .7143-.7871 1.1483-1.3912.7672l-13.4476-8.4844c-2.2914.4105-4.6818.6277-7.1393.6277-17.0382 0-30.8504-10.4434-30.8504-23.3259 0-11.9283 11.8417-21.7654 27.1215-23.1573z" fill="#4c8df5" fill-rule="evenodd"/></svg>