<svg width="80" height="80" viewBox="0 0 80 80" fill="none" xmlns="http://www.w3.org/2000/svg">
<rect width="80" height="80" fill="none"></rect>
<path d="M47.0329 35.7247C47.6511 33.0752 49.7802 30.1467 50.3296 29.4495C52.9853 30.2164 59.011 32.2943 61.5934 34.4697C61.5934 33.3013 61.3041 31.1434 59.8342 29.0229C58.7902 27.5168 57.6099 26.4024 57.1291 26.0329C57.6557 25.266 59.3544 23.6902 61.9368 23.5228C64.5192 23.3555 66.7216 24.1968 67.5 24.6384C67.2024 23.2207 65.3628 20.2457 61.9368 18.5942C59.0797 17.5902 55.7097 17.6427 53.8324 17.5264C53.2829 16.2482 53.2692 13.1756 57.6099 11.1117C55.1373 10.6934 49.9587 11.2233 49.0247 16.6897C48.1776 15.9925 45.4807 14.6817 41.4697 15.0163C37.4587 15.351 36.1355 16.2714 35.9752 16.6897C37.4404 16.9222 40.3983 17.9587 40.5082 20.2457C39.043 20.8733 35.5494 23.0347 33.2966 26.6605C31.0439 30.2862 30.7554 33.3773 30.8928 34.4697C32.7014 32.4244 37.4175 28.1665 41.8131 27.4972C41.0805 30.7975 40.5082 38.7229 45.7967 42.9064C46.0742 40.4832 46.4787 38.1004 47.0329 35.7247Z" fill="white"/>
<path d="M33.4612 48.0897C31.8625 46.5594 29.3751 46.5546 27.7707 48.0788L14.2035 60.9673C11.4336 63.5986 13.2584 68.331 17.043 68.331H44.075C47.852 68.331 49.6806 63.6149 46.9261 60.9782L33.4612 48.0897Z" fill="white"/>
<path d="M59.945 68.6346L50.9134 32.1688C50.1922 33.2146 49.162 36.3523 49.4024 37.6422L54.1758 68.6346H59.945Z" fill="white"/>
<path d="M19.7841 44.0972C20.6262 43.3043 21.9275 43.3043 22.7696 44.0972L25.9255 47.3667L18.3435 54.64H14.1312C12.1348 54.64 11.2684 52.1159 12.7324 50.7373L19.7841 44.0972Z" fill="white"/>
</svg>
