<svg fill="none" height="80" viewBox="0 0 80 80" width="80" xmlns="http://www.w3.org/2000/svg"><rect width="80" height="80" fill="none"></rect><ellipse cx="39.7531" cy="73.9071" fill="#f6f7f8" rx="22.7179" ry="5.44229"/><path d="m36.3835 38.0817 13.1415 7.5873c.4997.2885.6709.9275.3824 1.4272l-17.419 30.1706c-.4049.7013-1.4193.6953-1.8158-.0109l-3.7126-6.6114c-.1871-.3333-.5413-.5378-.9235-.5332l-7.5819.0906c-.8098.0096-1.3223-.8658-.9174-1.5672l17.419-30.1705c.2885-.4998.9275-.671 1.4273-.3825z" fill="#d6dde2"/><path d="m42.7071 38.0045-13.3395 7.7016c-.4997.2885-.6709.9275-.3824 1.4273l17.4251 30.1811c.4035.699 1.4136.6959 1.8129-.0056l3.8093-6.6933c.1869-.3284.5366-.5303.9145-.528l7.7011.0477c.8072.005 1.3149-.8682.9113-1.5672l-3.8033-6.5876-13.6217-23.5935c-.2886-.4998-.9276-.671-1.4273-.3825z" fill="#e4eaee"/><path d="m36.0171 15.2977c2.0386-2.0316 5.3364-2.0316 7.375 0l3.6321 3.6194c.8339.8309 1.924 1.3559 3.0935 1.4897l5.0944.5831c2.8594.3272 4.9155 2.9055 4.5983 5.766l-.5652 5.0964c-.1297 1.17.1395 2.3496.764 3.3475l2.7205 4.3464c1.5269 2.4396.7931 5.6547-1.6411 7.1902l-4.3369 2.7356c-.9957.6281-1.75 1.574-2.1408 2.6845l-1.702 4.8369c-.9553 2.7149-3.9265 4.1457-6.6447 3.1999l-4.8428-1.6851c-1.1119-.3868-2.3218-.3868-3.4336 0l-4.8428 1.6851c-2.7182.9458-5.6894-.4851-6.6447-3.1999l-1.702-4.8369c-.3908-1.1105-1.1452-2.0564-2.1408-2.6845l-4.3369-2.7356c-2.4342-1.5355-3.1681-4.7506-1.6411-7.1902l2.7204-4.3465c.6246-.9978.8938-2.1774.7641-3.3474l-.5652-5.0964c-.3172-2.8605 1.7389-5.4388 4.5982-5.766l5.0944-.5831c1.1696-.1338 2.2597-.6588 3.0935-1.4897z" fill="#d6dde2"/><circle cx="39.7047" cy="38.0747" fill="#e4eaee" r="15.9731"/></svg>