<svg width="80" height="80" viewBox="0 0 80 80" fill="none" xmlns="http://www.w3.org/2000/svg">
<rect width="80" height="80" fill="none"></rect>
<path d="M38.4532 25.4173L39.2873 24.6115C39.6365 24.2742 40.2193 24.5282 40.2099 25.0137L39.9891 36.4511C39.982 36.8265 39.8971 37.1963 39.7401 37.5373L37.6205 42.1403L33.9307 39.904L36.3519 34.7608C36.4527 34.5467 36.5251 34.3203 36.5675 34.0874L37.9809 26.3004C38.0419 25.9639 38.2071 25.655 38.4532 25.4173Z" fill="#E4EAEE"/>
<path d="M19.4886 54.4878H16.2702C16.0392 54.4878 15.8093 54.5201 15.5871 54.5835L7.68272 56.8419C4.72977 57.5597 3.01446 59.2154 2.15854 62.4946L0 71.7946H28.696V64.8671C28.696 64.0868 28.8534 63.3145 29.1587 62.5965L39.1097 39.1979C39.1097 39.1979 37.6972 39.1979 36.7556 38.7859C35.814 38.3739 34.9901 36.8438 34.9901 36.8438L25.7458 51.0891C24.3703 53.2086 22.0153 54.4878 19.4886 54.4878Z" fill="#D6DDE2"/>
<path d="M15.6361 60.5636C18.0911 60.5636 20.0813 58.8723 20.0813 56.7859C20.0813 54.6996 18.0911 53.0083 15.6361 53.0083C13.1811 53.0083 11.1909 54.6996 11.1909 56.7859C11.1909 58.8723 13.1811 60.5636 15.6361 60.5636Z" fill="#F6F7F8"/>
<path d="M15.7199 47.6962H15.7199C13.7988 47.6962 12.2415 49.2536 12.2415 51.1747V55.2261C12.2415 57.1471 13.7988 58.7045 15.7199 58.7045H15.7199C17.641 58.7045 19.1984 57.1471 19.1984 55.2261V51.1747C19.1984 49.2536 17.641 47.6962 15.7199 47.6962Z" fill="#E4EAEE"/>
<path d="M11.638 46.0805C11.638 47.2974 10.8144 48.9955 9.79836 48.9955C8.78237 48.9955 7.95874 47.2974 7.95874 46.0805C7.95874 44.8637 8.78237 43.8773 9.79836 43.8773C10.8144 43.8773 11.638 44.8637 11.638 46.0805Z" fill="#F6F7F8"/>
<path d="M23.5733 46.0805C23.5733 47.2974 22.7497 48.9955 21.7337 48.9955C20.7177 48.9955 19.894 47.2974 19.894 46.0805C19.894 44.8637 20.7177 43.8773 21.7337 43.8773C22.7497 43.8773 23.5733 44.8637 23.5733 46.0805Z" fill="#F6F7F8"/>
<path d="M22.3779 44.0136C22.3779 45.8289 22.4961 48.5957 21.6384 50.447C20.4296 53.0559 17.902 55.1443 15.7659 55.1443C13.6299 55.1443 11.1023 53.0559 9.89348 50.447C9.03576 48.5957 9.15396 45.8289 9.15396 44.0136C9.15396 39.6401 12.1142 36.7482 15.7659 36.7482C19.4176 36.7482 22.3779 39.6401 22.3779 44.0136Z" fill="#F6F7F8"/>
<path d="M9.92172 44.1552C10.2314 43.1361 11.0671 41.5633 12.9454 40.6676C13.9274 41.4851 15.4115 42.7122 17.8838 42.7925C19.2298 42.8364 20.2031 42.4449 20.7836 41.8145C21.6389 43.0929 21.8465 44.385 22.0366 46.0988H22.4693V44.155C22.4693 41.2893 21.4934 39.6707 20.8895 39.0092C19.6767 37.438 17.8458 36.528 15.7973 36.528C13.762 36.528 11.9416 37.4262 10.7287 38.9787C10.0797 39.8176 9.13501 41.2741 9.13501 44.1552V46.058H9.56771L9.92172 44.1552Z" fill="#D6DDE2"/>
<path d="M41.5468 25.4173L40.7127 24.6115C40.3633 24.2742 39.7806 24.5282 39.7899 25.0137L39.8931 30.358L40.0107 36.4511C40.018 36.8265 40.1028 37.1963 40.2598 37.5373L42.3795 42.1403L46.0693 39.904L43.6481 34.7608C43.5473 34.5467 43.4748 34.3203 43.4325 34.0874L42.0191 26.3004C41.958 25.9639 41.7928 25.655 41.5468 25.4173Z" fill="#E4EAEE"/>
<path d="M60.5115 54.4878H63.7299C63.9608 54.4878 64.1908 54.5201 64.4129 54.5835L72.3173 56.8419C74.5282 57.5597 76.9729 59.0862 77.8818 62.4946L80 71.7946H51.3041V64.8671C51.3041 64.0868 51.1467 63.3145 50.8414 62.5965L40.8904 39.1979C40.8904 39.1979 42.3028 39.1979 43.2445 38.7859C44.1861 38.3739 45.01 36.8438 45.01 36.8438L54.2543 51.0891C55.6298 53.2086 57.9847 54.4878 60.5115 54.4878Z" fill="#D6DDE2"/>
<path d="M58.7117 54.1586L64.5343 54.6698L70.0553 56.1465C70.0553 56.1465 68.4599 61.2178 67.8026 63.1913C67.2975 64.7076 65.7022 68.0525 64.99 69.5211C64.8464 69.8173 64.4304 69.8194 64.2834 69.5248C63.5371 68.0296 61.8466 64.5844 61.4077 63.1913C60.8397 61.3882 58.7117 54.1586 58.7117 54.1586Z" fill="#F6F7F8"/>
<path d="M64.2801 47.6962H64.2801C66.2012 47.6962 67.7585 49.2536 67.7585 51.1747V55.2261C67.7585 57.1471 66.2012 58.7045 64.2801 58.7045H64.2801C62.359 58.7045 60.8016 57.1471 60.8016 55.2261V51.1747C60.8016 49.2536 62.359 47.6962 64.2801 47.6962Z" fill="#E4EAEE"/>
<path d="M68.2104 46.0786C68.2104 47.2954 69.0341 48.9936 70.0501 48.9936C71.066 48.9936 71.8897 47.2954 71.8897 46.0786C71.8897 44.8617 71.066 43.8753 70.0501 43.8753C69.0341 43.8753 68.2104 44.8617 68.2104 46.0786Z" fill="#F6F7F8"/>
<path d="M56.2751 46.0786C56.2751 47.2954 57.0988 48.9936 58.1148 48.9936C59.1308 48.9936 59.9545 47.2954 59.9545 46.0786C59.9545 44.8617 59.1308 43.8753 58.1148 43.8753C57.0988 43.8753 56.2751 44.8617 56.2751 46.0786Z" fill="#F6F7F8"/>
<path d="M57.4706 44.0136C57.4706 45.8289 57.3524 48.5957 58.2101 50.447C59.4189 53.0559 61.9466 55.1443 64.0825 55.1443C66.2186 55.1443 68.7463 53.0559 69.955 50.447C70.8127 48.5957 70.6946 45.8289 70.6946 44.0136C70.6946 39.6401 67.7343 36.7482 64.0825 36.7482C60.4309 36.7482 57.4706 39.6401 57.4706 44.0136Z" fill="#F6F7F8"/>
<path d="M58.1702 44.471C58.48 43.4519 59.3156 41.8792 61.1939 40.9834C62.1759 41.8009 63.66 43.028 66.1323 43.1083C67.4784 43.1522 68.4516 42.7607 69.0321 42.1303C69.8874 43.4087 70.095 44.7008 70.2851 46.4146H70.7178V44.4708C70.7178 41.6051 69.742 39.9865 69.138 39.325C67.9252 37.7538 66.0943 36.8438 64.0458 36.8438C62.0106 36.8438 60.1901 37.742 58.9772 39.2945C58.3281 40.1334 57.3835 41.5899 57.3835 44.471V46.3738H57.8162L58.1702 44.471Z" fill="#D6DDE2"/>
<path fill-rule="evenodd" clip-rule="evenodd" d="M40.2339 4.19849C40.6766 4.19849 41.0354 4.55734 41.0354 5.00001V14.9799C41.0354 15.4226 40.6766 15.7814 40.2339 15.7814C39.7912 15.7814 39.4324 15.4226 39.4324 14.9799V5.00001C39.4324 4.55734 39.7912 4.19849 40.2339 4.19849Z" fill="#D6DDE2"/>
<path fill-rule="evenodd" clip-rule="evenodd" d="M53.5314 10.8128C53.8449 11.1253 53.8457 11.6328 53.5332 11.9463L50.7075 14.781L50.7074 14.781L47.8816 17.6157C47.5691 17.9292 47.0616 17.9299 46.7481 17.6174C46.4346 17.3049 46.4338 16.7974 46.7463 16.4839L49.5721 13.6493L49.5722 13.6493L52.3979 10.8146C52.7104 10.5011 53.2179 10.5003 53.5314 10.8128Z" fill="#D6DDE2"/>
<path fill-rule="evenodd" clip-rule="evenodd" d="M26.9027 10.9453C27.2162 10.6328 27.7237 10.6336 28.0362 10.9471L30.7937 13.7135L30.7937 13.7135L33.5514 16.4797C33.8639 16.7932 33.8631 17.3007 33.5496 17.6132C33.2361 17.9258 32.7286 17.925 32.4161 17.6115L29.6584 14.8452L29.6584 14.8452L26.9009 12.0789C26.5883 11.7654 26.5891 11.2579 26.9027 10.9453Z" fill="#D6DDE2"/>
</svg>
