<svg fill="none" height="80" viewBox="0 0 80 80" width="80" xmlns="http://www.w3.org/2000/svg"><rect width="80" height="80" fill="none"></rect><path d="m67.6065 61.1141-3.5682-19.2425c-.6453-3.4798-3.4572-6.1488-6.9659-6.6117l-13.1018-1.7287c-.2349-.031-.4728-.0312-.7078-.0006l-13.2444 1.7237c-3.5685.4644-6.4127 3.2052-7.0218 6.7519-1.3228 7.7039-3.6269 20.8061-4.9684 26.6226h43.329c3.9745 0 6.9739-3.6069 6.2493-7.5147z" fill="#3074e1"/><path d="m50.2183 56.8972c-.0213.4413-.357.8031-.7954.8574l-11.33 1.4016-2.7417-24.738 7.5398-1.0593 8.4122 1.0593z" fill="#f6f7f8"/><path d="m37.9587 28.113c0-2.9252 2.3714-5.2966 5.2966-5.2966 2.9252 0 5.2966 2.3714 5.2966 5.2966v6.1689c0 2.9252-2.3714 5.2966-5.2966 5.2966-2.9252 0-5.2966-2.3714-5.2966-5.2966z" fill="#fb9f9a"/><path d="m50.1226 17.4385c.717 1.7123.5585 4.5873-.8712 5.1859s-3.5893-1.3058-4.3063-3.0181c-.7169-1.7123-.1391-3.5857 1.2906-4.1844 1.4297-.5986 3.1699.3042 3.8869 2.0166z" fill="#fdb2ae"/><path d="m33.3272 24.4717c.717 1.7123.5585 4.5873-.8712 5.1859s-3.5893-1.3058-4.3063-3.0181c-.7169-1.7123-.1391-3.5857 1.2906-4.1843 1.4297-.5987 3.1699.3042 3.8869 2.0165z" fill="#ffc1bd"/><path d="m47.2231 15.2377c1.0695 2.5545 2.8661 6.3783 2.7498 9.4887-.1638 4.3836-2.4902 8.8116-5.496 10.0702-3.0059 1.2585-7.7933-.191-11.0315-3.15-2.2977-2.0997-3.7616-6.0629-4.8312-8.6173-2.5768-6.1544-.115-11.9682 5.0237-14.11975 5.1387-2.15159 11.0083.17372 13.5852 6.32815z" fill="#fdb2ae"/><path d="m47.2231 15.2377c1.0695 2.5545 2.8661 6.3783 2.7498 9.4887-.1638 4.3836-2.4902 8.8116-5.496 10.0702-3.0059 1.2585-7.7933-.191-11.0315-3.15-2.2977-2.0997-3.7616-6.0629-4.8312-8.6173-2.5768-6.1544-.115-11.9682 5.0237-14.11975 5.1387-2.15159 11.0083.17372 13.5852 6.32815z" fill="#fdb2ae"/><path clip-rule="evenodd" d="m29.7501 22.6594c-.162-1.5909.0776-4.2386 2.1085-6.5774l.0511.0156c1.8634.5719 4.6839 1.4375 8.2255.0881 1.9251-.7335 3.0649-1.8617 3.5079-3.0946 1.8887 1.2838 2.9258 2.9574 4.1785 5.2129l.6077-.2544-1.1431-2.7302c-1.6943-4.0464-4.0325-5.74256-5.2647-6.3075l.0055.01787c-2.6091-1.44073-5.676-1.62075-8.5191-.43033-2.8246 1.18268-4.8404 3.47186-5.6552 6.31586l-.0144-.001c-.4182 1.56-.8874 4.1614.8068 8.2078l1.1191 2.6727.6077-.2545z" fill="#18293d" fill-rule="evenodd"/><path d="m26.7133 23.2222.36-1.3548c.2155-.8109 1.3214-.9207 1.6921-.168l3.3717 6.8463c.1475.2996.3488.5694.5939.7961l3.1547 2.9183c1.4943 1.3823 1.8858 3.5904.9579 5.4022l-3.6648 7.1554-5.4834-4.3622 1.7383-4.3005c.4062-1.0047.4395-2.1216.094-3.1488l-2.7637-8.216c-.1703-.5063-.188-1.0517-.0507-1.568z" fill="#ffc1bd"/><path d="m13.2233 58.6227 15.7298-21.2933s.4602 1.3801 2.3478 2.5127c1.8877 1.1327 4.2303.4558 4.2303.4558l-5.1104 11.5781-7.0514 15.2956c-.445.9652-1.4108 1.5835-2.4737 1.5835h-2.5601c-5.2163 0-8.2117-5.9367-5.1123-10.1324z" fill="#4c8df5"/></svg>