<svg xmlns="http://www.w3.org/2000/svg" width="128" height="128" viewBox="0 0 128 128" fill="none"><rect width="128" height="128" fill="none"/>
<path d="M2.08077 32.8421C4.40913 16.5742 16.5742 4.40913 32.8421 2.08077C41.1462 0.892237 51.5321 0 64 0C76.4679 0 86.8538 0.892237 95.1579 2.08077C111.426 4.40913 123.591 16.5742 125.919 32.8421C127.108 41.1462 128 51.5321 128 64C128 76.4679 127.108 86.8538 125.919 95.1579C123.591 111.426 111.426 123.591 95.1579 125.919C86.8538 127.108 76.4679 128 64 128C51.5321 128 41.1462 127.108 32.8421 125.919C16.5742 123.591 4.40913 111.426 2.08077 95.1579C0.892237 86.8538 0 76.4679 0 64C0 51.5321 0.892237 41.1462 2.08077 32.8421Z" fill="black"/>
</svg>
