<svg width="96" height="96" viewBox="0 0 96 96" xmlns="http://www.w3.org/2000/svg"><g fill="none" fill-rule="evenodd"><path d="M0 0h96v96H0z"/><path d="M36.612 5.499l.309 1.152L51.57 4.163a43.987 43.987 0 0 0-14.958 1.336zm23.443.194l-22.373 3.8.52 1.94 25.853-4.392a44.312 44.312 0 0 0-4-1.348zm8.703 3.521l-29.794 5.061.52 1.94 31.974-5.431a44.828 44.828 0 0 0-2.7-1.57zm2.04 4.654l-30.553 5.19.52 1.94 28.505-4.842zm-3.767 5.64L41.526 23.84l.52 1.94 23.457-3.984zm-3.767 5.64l-20.456 3.474.52 1.941 18.408-3.127zm-3.767 5.639l-15.408 2.618.52 1.94 13.359-2.269zm-3.767 5.64l-10.359 1.76.52 1.94 8.31-1.411zm-3.767 5.64l-5.311.902.52 1.941 3.262-.555z" opacity=".3" fill="#FFF"/><path d="M48 92a43.95 43.95 0 0 0 40.513-26.804l-.92-.392A42.952 42.952 0 0 1 48 91C24.29 91 5 71.71 5 48A42.953 42.953 0 0 1 31.195 8.407l-.391-.92A43.95 43.95 0 0 0 4 48c0 24.262 19.738 44 44 44z" fill="#FFF"/><path d="M90.501 36.612a44.005 44.005 0 0 0-11.388-19.725L48 48l42.501 11.388a44 44 0 0 0 0-22.776z" fill="#FFF" opacity=".3"/></g></svg>