                    <path d="M0.03194,72.76132 C0.03194,72.33959 0.40504,72 0.86684,72 L53.20284,72 C53.66156,72 54.03194,72.33959 54.03194,72.76132 L54.03194,81.239372 C54.03194,81.661786 53.66156,82 53.20284,82 L0.86684,82 C0.40504,82 0.03194,81.661786 0.03194,81.239372 L0.03194,72.76132 Z M35.6919,8.0024 C36.32375,9.69511 51.04506,49.40727 51.48672,50.59918 C51.60937,50.92776 51.5281,51.47688 51.00825,51.67176 C50.48758,51.86815 42.8352,54.79809 42.41345,54.9552 C41.99022,55.11156 41.51402,54.87892 41.35837,54.4665 C41.20197,54.05409 38.35885,44.9691 38,44 L16,44 C15.64115,44.9691 12.29878,54.06919 12.15043,54.4665 C12.00397,54.8623 11.54582,55.12969 11.09877,54.9552 C10.64947,54.77921 2.96485,51.84549 2.51093,51.67176 C2.07041,51.5086 1.86837,51.01462 2.02553,50.59918 C2.56611,49.10966 17.06392,10.03463 17.80689,8.0024 C19.24079,4.06333 21.08718,0 26.75288,0 C32.42085,0 34.20286,3.99912 35.6919,8.0024 Z M19.33318,34.78397 L34.20286,34.78397 L26.80118,12.96874 L26.70917,12.96874 L19.33318,34.78397 Z"></path>
<svg xmlns="http://www.w3.org/2000/svg" width="96" height="96" viewBox="0 0 96 96">
  <rect width="96" height="96" fill="none"/>
  <g fill="#0B1F35">
    <path d="M21,89H75V78H21Z"/>
    <path d="M40.66,43l7.27-21.61h.27L55.07,43ZM57.49,17.4C56,13,54.31,9.51,48.47,9.51S40.82,13,39.26,17.4L23.22,63H33.86l3.7-10.84H58L61.47,63H72.78Z"/>
  </g>
</svg>