<svg width="80" height="80" viewBox="0 0 80 80" fill="none" xmlns="http://www.w3.org/2000/svg">
<rect width="80" height="80" fill="none"></rect>
<path d="M46 63.5C46 67.6421 42.6421 71 38.5 71C34.3579 71 31 67.6421 31 63.5C31 59.3579 34.3579 56 38.5 56C42.6421 56 46 59.3579 46 63.5Z" fill="white"/>
<path d="M21.0129 27.6681H31.8843C31.9263 22.8299 34.5287 19.0871 39.5657 19.0871C43.3854 19.0871 46.9952 21.278 46.9952 26.4357C46.9952 30.6349 44.4767 32.5975 40.5311 35.5643C35.704 39.0788 32.6819 43.5062 33.1436 50.444L43.8052 50.6722C43.8052 45.6515 45.694 44.1909 50.6051 40.4481C54.6766 37.3444 59 33.7386 59 25.751C59 14.4772 50.2693 9 40.2373 9C30.4992 9 20.5931 14.112 21.0129 27.6681Z" fill="white"/>
</svg>
