<svg fill="none" height="80" viewBox="0 0 80 80" width="80" xmlns="http://www.w3.org/2000/svg" xmlns:xlink="http://www.w3.org/1999/xlink"><rect width="80" height="80" fill="none"></rect><linearGradient id="a" gradientUnits="userSpaceOnUse" x1="52.7434" x2="51.8085" y1="27.4531" y2="62.379"><stop offset=".242718" stop-color="#ffc1bd"/><stop offset="1" stop-color="#ffaba6"/></linearGradient><linearGradient id="b"><stop offset="0" stop-color="#fd9f99"/><stop offset="1" stop-color="#fd9f99" stop-opacity="0"/></linearGradient><linearGradient id="c" gradientUnits="userSpaceOnUse" x1="54.1091" x2="56.9324" xlink:href="#b" y1="46.5917" y2="41.0496"/><linearGradient id="d"><stop offset="0" stop-color="#ffa8a3"/><stop offset="1" stop-color="#ffcfcc"/></linearGradient><linearGradient id="e" gradientUnits="userSpaceOnUse" x1="20.9607" x2="54.8409" xlink:href="#d" y1="35.7157" y2="61.8578"/><linearGradient id="f" gradientUnits="userSpaceOnUse" x1="2.68654" x2="-2.6803" y1="49.2619" y2="30.2122"><stop offset="0" stop-color="#1d61ce"/><stop offset="1" stop-color="#3a7eeb"/></linearGradient><linearGradient id="g" gradientUnits="userSpaceOnUse" x1="20.9605" x2="54.8406" xlink:href="#d" y1="35.7159" y2="61.858"/><linearGradient id="h"><stop offset="0" stop-color="#ffaaa5" stop-opacity="0"/><stop offset="1" stop-color="#ffaaa5"/></linearGradient><linearGradient id="i" gradientUnits="userSpaceOnUse" x1="41.4724" x2="41.4724" xlink:href="#h" y1="53.3828" y2="62.7071"/><linearGradient id="j" gradientUnits="userSpaceOnUse" x1="48.4918" x2="48.4918" xlink:href="#h" y1="50.0312" y2="61.924"/><linearGradient id="k" gradientUnits="userSpaceOnUse" x1="53.7427" x2="53.7427" xlink:href="#h" y1="46.2598" y2="57.9937"/><linearGradient id="l" gradientUnits="userSpaceOnUse" x1="26.9739" x2="19.0249" y1="42.7618" y2="53.3611"><stop offset="0" stop-color="#ffcbc8" stop-opacity="0"/><stop offset=".494792" stop-color="#fb8881"/></linearGradient><linearGradient id="m" gradientUnits="userSpaceOnUse" x1="33.7386" x2="22.3304" y1="42.1928" y2="58.8016"><stop offset="0" stop-color="#ffcbc8" stop-opacity="0"/><stop offset=".494792" stop-color="#ff9c96"/></linearGradient><linearGradient id="n"><stop offset="0" stop-color="#ffcbc8" stop-opacity="0"/><stop offset=".494792" stop-color="#ffa7a2"/></linearGradient><linearGradient id="o" gradientUnits="userSpaceOnUse" x1="35.1144" x2="27.6359" xlink:href="#n" y1="49.8674" y2="60.7808"/><linearGradient id="p" gradientUnits="userSpaceOnUse" x1="38.5336" x2="33.2154" xlink:href="#n" y1="55.7709" y2="63.3068"/><linearGradient id="q" gradientUnits="userSpaceOnUse" x1="46.092" x2="44.127" y1="30.7156" y2="47.298"><stop offset="0" stop-color="#f3928c"/><stop offset="1" stop-color="#ffc1bd" stop-opacity="0"/></linearGradient><linearGradient id="r" gradientUnits="userSpaceOnUse" x1="67.6691" x2="62.4746" xlink:href="#b" y1="32.5164" y2="36.4806"/><linearGradient id="s"><stop offset="0" stop-color="#ffcbc8"/><stop offset="1" stop-color="#ffc1bd"/></linearGradient><linearGradient id="t" gradientUnits="userSpaceOnUse" x1="24.0201" x2="17.8805" xlink:href="#s" y1="45.3956" y2="54.0347"/><linearGradient id="u" gradientUnits="userSpaceOnUse" x1="29.9725" x2="21.2717" xlink:href="#s" y1="47.2898" y2="59.5328"/><linearGradient id="v" gradientUnits="userSpaceOnUse" x1="33.2006" x2="26.8988" xlink:href="#s" y1="52.8747" y2="61.7419"/><linearGradient id="w" gradientUnits="userSpaceOnUse" x1="36.3807" x2="32.1946" xlink:href="#s" y1="58.1785" y2="64.0687"/><linearGradient id="x" gradientUnits="userSpaceOnUse" x1="60.5208" x2="73.7012" y1="23.5528" y2="42.099"><stop offset="0" stop-color="#d6dde2"/><stop offset="1" stop-color="#b5c6d2"/></linearGradient><mask id="y" height="37" maskUnits="userSpaceOnUse" width="49" x="13" y="28"><path d="m24.5982 28.2207c.6528.5168 1.0269.9349 1.9409 1.5225 1.1424.7344 3.2642 1.4689 6.2835.7344l27.507 18.0244c1.3248.9415 1.6356 2.7787.694 4.1035-.9415 1.3248-2.7787 1.6356-4.1035.694l-10.2488-7.2835 11.5313 8.2324c1.3248.9415 1.6355 2.7787.694 4.1035s-2.7787 1.6355-4.1035.694l-.9762-.6937c1.0123.9996 1.1802 2.6137.3293 3.8109-.94 1.3227-2.7709 1.6395-4.1007.7097l-8.322-5.8133 3.0583 2.1735c1.3365.9498 1.65 2.8032.7001 4.1397-.938 1.3199-2.7605 1.6447-4.0967.7301l-23.2477-16.8844-4.835-3.4982z" fill="url(#g)"/></mask><path d="m61.6291 49.978c2.489-2.897 5.5083-4.8147 9.303-7.3036l-11.5947-15.2213-24.7827 20.9137 16.3126 11.3979z" fill="url(#a)"/><path d="m49.6883 38.2598 15.3836 8.2911-9.9893 9.2402-16.0848-9.2402z" fill="url(#c)"/><path d="m21.9678 26.2227c.6528.5168 3.6572 2.9327 4.5712 3.5203 1.1425.7344 3.2642 1.4689 6.2836.7344l27.507 18.0244c1.3248.9415 1.6355 2.7788.694 4.1036s-2.7787 1.6355-4.1035.694l-10.2488-7.2836 11.5313 8.2324c1.3248.9415 1.6355 2.7787.694 4.1035s-2.7787 1.6355-4.1036.694l-.9761-.6937c1.0122.9997 1.1801 2.6137.3293 3.8109-.94 1.3227-2.7709 1.6396-4.1008.7097l-8.322-5.8133 3.0583 2.1735c1.3365.9498 1.65 2.8033.7002 4.1398-.938 1.3198-2.7606 1.6446-4.0968.7301l-23.2476-16.8845-7.4654-5.496z" fill="url(#e)"/><path d="m17.5195 21.1095 6.876 4.8866s-4.7618 5.144-7.2723 8.5674-5.9081 9.9788-5.9081 9.9788l-6.876-4.8867z" fill="url(#f)"/><g mask="url(#y)"><path d="m36.7429 53.3828 8.5909 6.3908c1.1734 1.7601.908 2.689.6286 2.9335z" fill="url(#i)"/><path d="m41.7717 50.0312 12.5721 8.9593c1.1734 1.7601.908 2.689.6286 2.9335z" fill="url(#j)"/><path d="m47.3242 46.2598 11.969 8.8004c1.1733 1.7601.9079 2.689.6286 2.9335z" fill="url(#k)"/><path d="m26.0055 48.8803-2.6725 3.7605c-.9864 1.3879-2.9111 1.7134-4.2991.727-1.3879-.9863-1.7135-2.9111-.7271-4.2991l2.6725-3.7604c.9864-1.388 2.9112-1.7135 4.2991-.7271 1.388.9864 1.7135 2.9111.7271 4.2991z" fill="url(#l)"/><path d="m32.0968 51.3422-4.7483 6.6813c-1.1324 1.5934-3.3421 1.9672-4.9356.8347-1.5934-1.1324-1.9671-3.3421-.8347-4.9355l4.7483-6.6814c1.1324-1.5934 3.3421-1.9671 4.9356-.8347 1.5934 1.1324 1.9671 3.3422.8347 4.9356z" fill="url(#m)"/><path d="m34.9826 56.621-2.3887 3.3612c-1.1269 1.5856-3.3257 1.9574-4.9113.8306-1.5856-1.1269-1.9575-3.3257-.8307-4.9113l2.3887-3.3612c1.1269-1.5856 3.3258-1.9575 4.9114-.8306 1.5856 1.1268 1.9575 3.3257.8306 4.9113z" fill="url(#o)"/><path d="m38.2134 62.1624-.2491.3505c-1.0871 1.5298-3.2086 1.8885-4.7383.8014-1.5297-1.0872-1.8885-3.2086-.8014-4.7383l.2491-.3505c1.0872-1.5298 3.2086-1.8886 4.7383-.8014 1.5298 1.0872 1.8886 3.2086.8014 4.7383z" fill="url(#p)"/><path d="m56.0791 31.9276 4.4883-3.0194c0 9.9941-2.6026 11.1745-3.6363 11.2537-3.1826 2.5297-6.3284 2.2849-8.0421 1.1425-.8592-.5729-3.1663-1.493-5.3449-2.4953-2.1199-.9752-4.6984-.9435-6.5605.4629-2.1131 1.596-4.0802 3.9986-6.8548 3.509-2.7745-.4896-2.6929-2.6929-2.1217-3.509.5712-.816 1.7137-2.4481 4.2434-5.5491 2.5298-3.101 2.285-3.6722 8.9766-4.0803 5.3532-.3264 12.1319 1.3873 14.852 2.285z" fill="url(#q)"/></g><path d="m55.427 30.3143 4.4883-3.0194c0 9.9941-2.0673 12.6511-3.101 12.7304-3.1826 2.5297-6.3284 2.2849-8.0421 1.1424-.8985-.599-3.6107-2.2123-6.0317-3.7049-1.9864-1.2246-4.5469-1.2105-6.409.1959-2.1131 1.596-4.0802 3.9987-6.8548 3.509-2.7745-.4896-2.6929-2.6929-2.1217-3.509.5712-.816 1.7137-2.4481 4.2434-5.5491 2.5298-3.101 2.285-3.6722 8.9766-4.0802 5.3532-.3265 12.1319 1.3872 14.852 2.2849z" fill="#ffc1bd"/><path d="m67.2945 45.1024-10.0892-15.8827 1.9479-1.5306 6.6929 6.7924 4.1456 8.8232z" fill="url(#r)"/><path d="m24.7472 49.6947-2.5676 3.6129c-.9864 1.388-2.9112 1.7135-4.2991.7271s-1.7135-2.9111-.7271-4.2991l2.5676-3.6129c.9864-1.3879 2.9112-1.7134 4.2991-.7271 1.388.9864 1.7135 2.9112.7271 4.2991z" fill="url(#t)"/><path d="m30.6895 51.5287-5.1789 7.2872c-.9726 1.3685-2.8704 1.6895-4.2389.7169s-1.6895-2.8704-.7169-4.2389l5.1789-7.2872c.9725-1.3685 2.8703-1.6895 4.2388-.7169s1.6895 2.8704.717 4.2389z" fill="url(#u)"/><path d="m33.9243 57.1536-2.7465 3.8647c-.9818 1.3814-2.8975 1.7054-4.279.7236-1.3814-.9817-1.7054-2.8975-.7236-4.2789l2.7465-3.8646c.9817-1.3814 2.8975-1.7054 4.2789-.7237 1.3814.9818 1.7054 2.8975.7237 4.2789z" fill="url(#v)"/><path d="m37.0522 62.1494-.8867 1.2477c-.9111 1.282-2.6889 1.5826-3.9709.6716-1.282-.9111-1.5826-2.689-.6716-3.9709l.8868-1.2477c.911-1.282 2.6889-1.5827 3.9709-.6716 1.282.911 1.5826 2.6889.6715 3.9709z" fill="url(#w)"/><path d="m63.9588 21.1095-6.876 4.8866s4.7618 5.144 7.2723 8.5674 5.9081 9.9788 5.9081 9.9788l6.876-4.8867z" fill="url(#x)"/></svg>