<svg width="80" height="80" viewBox="0 0 80 80" fill="none" xmlns="http://www.w3.org/2000/svg">
<rect width="80" height="80" fill="none"></rect>
<path d="M28.4021 67.2108V42.924L13.697 40.8477L16.3792 61.685C16.7859 64.8447 19.4761 67.2108 22.6619 67.2108H28.4021Z" fill="#D6DDE2"/>
<path d="M35.2737 43.0087C35.2737 47.3035 31.792 50.7852 27.4972 50.7852" stroke="#D6DDE2" stroke-width="3.61972" stroke-linecap="round"/>
<path d="M74.0009 33.4902H66.309" stroke="#D6DDE2" stroke-width="3.61972" stroke-linecap="round"/>
<path d="M73.8699 46.4921L66.4401 43.5645" stroke="#D6DDE2" stroke-width="3.61972" stroke-linecap="round"/>
<path d="M66.4401 22.9648L73.8699 20.0371" stroke="#D6DDE2" stroke-width="3.61972" stroke-linecap="round"/>
<path fill-rule="evenodd" clip-rule="evenodd" d="M29.5357 22.1668L6.66758 26.0695V26.2222C6.66756 26.2222 6.66754 26.2222 6.66752 26.2222C5.74657 26.2222 5 29.5038 5 33.5518C5 37.5998 5.74657 40.8814 6.66752 40.8814C6.76801 40.8814 6.86642 40.8423 6.96202 40.7674L29.5357 44.5638C35.5758 45.3422 44.441 50.3969 48.8224 53.9811V13C44.1174 17.5444 35.3815 21.4758 29.5357 22.1668V22.1668Z" fill="#E4EAEE"/>
<path fill-rule="evenodd" clip-rule="evenodd" d="M34.9137 45.6948V45.7036L49.8546 53.2824V13.918L34.9137 21.2705V21.3005C33.4294 21.5467 32.2433 26.9133 32.2433 33.4977C32.2433 40.082 33.4294 45.4487 34.9137 45.6948Z" fill="#F1F4F8"/>
<path d="M49.4546 54.028C53.0155 54.028 55.9023 44.854 55.9023 33.5374C55.9023 22.2208 53.0155 13.0468 49.4546 13.0468C45.8936 13.0468 43.0068 22.2208 43.0068 33.5374C43.0068 44.854 45.8936 54.028 49.4546 54.028Z" fill="#D6DDE2"/>
<path fill-rule="evenodd" clip-rule="evenodd" d="M43.3578 40.2214C43.1303 38.1262 43.0068 35.8771 43.0068 33.5363C43.0068 31.1964 43.1303 28.9481 43.3575 26.8535L48.2541 28.0868V38.9881L43.3578 40.2214Z" fill="#E4EAEE"/>
<path d="M48.254 39.0289C49.6023 39.0289 50.6952 36.5727 50.6952 33.5428C50.6952 30.5129 49.6023 28.0567 48.254 28.0567C46.9058 28.0567 45.8129 30.5129 45.8129 33.5428C45.8129 36.5727 46.9058 39.0289 48.254 39.0289Z" fill="#F1F4F8"/>
</svg>
