<svg width="80" height="80" viewBox="0 0 80 80" fill="none" xmlns="http://www.w3.org/2000/svg"><rect width="80" height="80" fill="none"></rect><path d="M17.9415 48.0518C17.9415 48.0518 25.5509 46.7383 28.6245 40.039C31.2339 34.3516 31.0996 30.0156 30.9996 26.8041C30.9681 25.7936 31.475 24.8 32.4826 24.7182C34.7663 24.5329 38.3258 25.9101 39.2365 30.4499C40.2469 35.4869 39.8422 43.0269 39.8422 43.0269C39.8422 43.0269 44.9639 42.7975 47.588 42.7975C50.2121 42.7975 52.938 45.7896 51.1208 51.17C49.3035 56.5504 46.8804 61.7947 45.87 64.7712C44.862 67.7478 41.9352 70.2656 36.0788 70.2656C30.2224 70.2656 17.9415 70.2656 17.9415 70.2656" fill="#E4EAEE"/><path d="M48.8875 66.7445C48.5242 68.1574 47.491 69.3024 46.097 69.7323C43.1338 70.6463 37.6941 72.0918 32.9314 72.0918C25.967 72.0918 17.9415 70.9298 17.9415 70.9298L17.9415 64.0371L49.5837 64.0371L48.8875 66.7445Z" fill="#E4EAEE"/><path d="M48.8076 67.0664C48.8076 67.0664 48.8076 65.6022 47.0341 65.6022C47.0341 65.6022 44.518 66.1078 44.0128 62.711L48.1507 62.711C50.6501 62.711 49.0046 65.2602 48.8076 67.0664Z" fill="url(#paint0_linear)"/><path d="M51.992 61.0016C51.6796 63.0963 49.9306 64.6783 47.8152 64.7796L33.3446 65.4724C31.2537 65.5725 29.5037 63.9042 29.5037 61.811V61.811C29.5037 59.7865 31.1448 58.1454 33.1693 58.1454L52.4178 58.1454L51.992 61.0016Z" fill="#E4EAEE"/><path d="M51.8946 61.3535C51.8946 61.3535 51.993 60.3162 50.1211 60.3162C50.1211 60.3162 47.2439 60.8218 46.7387 57.425L50.6795 57.425C53.011 57.425 52.157 59.3832 51.8946 61.3535Z" fill="url(#paint1_linear)"/><path d="M54.2804 55.8027C54.038 58.0568 52.1354 59.7656 49.8684 59.7656L35.3775 59.7656C32.9267 59.7656 30.94 57.7389 30.94 55.2882V55.2882C30.94 52.8374 32.9267 50.8107 35.3775 50.8107L50.1375 50.8107C52.637 50.8107 54.5842 52.9787 54.3169 55.4637L54.2804 55.8027Z" fill="#E4EAEE"/><path d="M54.2804 55.8027C54.2804 55.8027 53.4378 53.7019 50.548 53.7019C50.548 53.7019 46.3243 54.2075 45.8191 50.8108L50.1375 50.8108C52.6369 50.8108 54.5842 52.9787 54.3169 55.4637L54.2804 55.8027Z" fill="url(#paint2_linear)"/><path d="M56.656 46.9115C56.656 49.8642 54.2624 52.2578 51.3097 52.2578L34.3954 52.2578C31.4427 52.2578 29.0491 49.8642 29.0491 46.9115V46.9115C29.0491 43.9589 31.4427 41.5653 34.3954 41.5653L51.3097 41.5653C54.2624 41.5653 56.656 43.9589 56.656 46.9115V46.9115Z" fill="#E4EAEE"/><path d="M8.02832 70.9316L17.9412 70.9316C17.9412 70.9316 19.8759 65.4824 19.8759 57.4244C19.8759 49.3664 17.9412 43.9172 17.9412 43.9172L8.02833 43.9172L8.02832 70.9316Z" fill="#D6DDE2"/><path fill-rule="evenodd" clip-rule="evenodd" d="M43.8688 24.3925C42.7697 22.7461 42.1519 20.8915 42.1519 18.9299C42.1519 12.1211 49.5947 6.60156 58.7758 6.60156C67.9569 6.60156 75.3997 12.1211 75.3997 18.9299C75.3997 25.7386 67.9569 31.2582 58.7758 31.2582C55.3471 31.2582 52.1609 30.4884 49.5142 29.1692L45.251 31.859C44.6509 32.2376 43.8688 31.8064 43.8688 31.0968V24.3925Z" fill="#D6DDE2"/><defs><linearGradient id="paint0_linear" x1="46.7669" y1="67.0664" x2="46.7669" y2="62.711" gradientUnits="userSpaceOnUse"><stop stop-color="#D6DDE2" stop-opacity="0"/><stop offset="1" stop-color="#D6DDE2"/></linearGradient><linearGradient id="paint1_linear" x1="49.5017" y1="61.3535" x2="49.5017" y2="57.425" gradientUnits="userSpaceOnUse"><stop stop-color="#D6DDE2" stop-opacity="0"/><stop offset="1" stop-color="#D6DDE2"/></linearGradient><linearGradient id="paint2_linear" x1="50.0803" y1="55.8027" x2="50.0803" y2="50.8108" gradientUnits="userSpaceOnUse"><stop stop-color="#D6DDE2" stop-opacity="0"/><stop offset="1" stop-color="#D6DDE2"/></linearGradient></defs></svg>