<svg width="80" height="80" viewBox="0 0 80 80" fill="none" xmlns="http://www.w3.org/2000/svg">
<rect width="80" height="80" fill="none"></rect>
<path d="M16.498 19.1088C21.6501 15.6508 29.4468 12 40.9568 12C55.5625 12 60.8702 15.0814 63.957 17.0042C67.275 19.072 68.3923 22.0254 68.3923 28.1834C68.2524 28.8572 67.782 29.9985 67.5567 30.7378C65.3049 38.1356 59.3691 54.6657 57.326 58.9888C55.2785 63.3141 51.4811 63.601 49.7267 58.9888C47.9701 54.3766 47.6656 53.032 47.6656 53.032C47.6656 53.032 27.2041 50.1477 16.498 41.4008C14.2813 39.5907 11.96 37.2634 11.0815 34.752C11.0815 28.6191 11.3313 22.5799 16.498 19.1088Z" fill="#EEF2F4"/>
<path d="M16.4984 22.6458C21.6505 19.1878 29.4472 15.537 40.9572 15.537C55.5629 15.537 60.8706 18.6184 63.9574 20.5412C67.6438 22.8385 69.8112 26.8769 67.5571 34.2748C65.3053 41.6726 59.3695 58.2027 57.3264 62.5258C55.2789 66.8511 51.4815 67.138 49.7271 62.5258C47.9705 57.9136 47.666 56.569 47.666 56.569C47.666 56.569 27.2045 53.6847 16.4984 44.9378C9.30553 39.0642 9.03014 27.6631 16.4984 22.6458Z" fill="#E6E9EC"/>
<path d="M54.2018 29.5483C54.2018 37.4898 39.8224 48.7822 39.8224 48.7822C39.8224 48.7822 25.4431 37.4898 25.4431 29.5483C25.4431 21.6068 36.9021 19.4987 39.8224 27.3924C42.8863 19.6246 54.2018 21.6068 54.2018 29.5483Z" fill="#F6F7F8"/>
</svg>
