<svg xmlns="http://www.w3.org/2000/svg" width="80" height="80" viewBox="0 0 80 80" fill="none"><rect width="80" height="80" fill="none"/>
<circle cx="39.5" cy="39.5" r="31.5" fill="#E7ECF0"/>
<path d="M45.3614 44.2399C44.7757 43.6541 43.8259 43.6541 43.2401 44.2399C42.6543 44.8257 42.6543 45.7754 43.2401 46.3612L45.2711 48.3922C44.408 50.1371 44.7029 52.3094 46.1558 53.7622L62.3666 69.973C64.1894 71.7958 67.1448 71.7958 68.9676 69.973C70.7905 68.1501 70.7905 65.1947 68.9676 63.3719L52.7569 47.1611C51.3061 45.7104 49.1379 45.4142 47.3943 46.2727L45.3614 44.2399Z" fill="#B4C6D2"/>
<ellipse cx="29.1593" cy="29.1593" rx="22.1593" ry="22.1593" fill="#D6DDE2"/>
<ellipse cx="29.1593" cy="29.1593" rx="17.1984" ry="17.1984" fill="white"/>
<path fill-rule="evenodd" clip-rule="evenodd" d="M16.4097 40.7021V36.4102L26.7847 34.9098L26.7847 33.113C23.8066 31.4789 21.6597 27.0699 21.6597 23.7578C21.6597 19.6157 25.0175 16.2578 29.1597 16.2578C33.3018 16.2578 36.6597 19.6157 36.6597 23.7578C36.6597 27.0699 34.5128 31.4789 31.5347 33.113L31.5347 34.9099L41.9097 36.4102V40.7013C41.5904 41.0537 41.2568 41.3929 40.9097 41.7178V37.276L30.5347 35.7756L30.5347 32.5211L31.0536 32.2363C32.3163 31.5435 33.4778 30.2102 34.3298 28.5975C35.1791 26.9899 35.6597 25.2192 35.6597 23.7578C35.6597 20.168 32.7495 17.2578 29.1597 17.2578C25.5698 17.2578 22.6597 20.168 22.6597 23.7578C22.6597 25.2192 23.1403 26.9899 23.9896 28.5975C24.8416 30.2102 26.0031 31.5435 27.2657 32.2363L27.7847 32.5211L27.7847 35.7756L17.4097 37.276V41.7184C17.0625 41.3936 16.7289 41.0545 16.4097 40.7021Z" fill="#B4C6D2"/>
</svg>
