<svg width="80" height="80" viewBox="0 0 80 80" fill="none" xmlns="http://www.w3.org/2000/svg">
<rect width="80" height="80" fill="none"></rect>
<path d="M67.6381 63.2994L64.0699 44.0569C63.4246 40.5771 60.6127 37.9081 57.104 37.4452L44.0023 35.7165C43.7673 35.6855 43.5294 35.6853 43.2944 35.7159L30.05 37.4396C26.4815 37.904 23.6373 40.6448 23.0283 44.1915C21.7054 51.8954 19.4013 64.9976 18.0598 70.8141H43.6484H61.3888C65.3633 70.8141 68.3628 67.2072 67.6381 63.2994Z" fill="#D6DDE2"/>
<path d="M50.2502 59.0825C50.2289 59.5238 49.8931 59.8856 49.4547 59.9399L38.1247 61.3415L35.3831 36.6035L42.9229 35.5442L51.335 36.6035L50.2502 59.0825Z" fill="#F6F7F8"/>
<path d="M37.9905 30.2983C37.9905 27.3731 40.3618 25.0017 43.287 25.0017C46.2123 25.0017 48.5836 27.3731 48.5836 30.2983V36.4672C48.5836 39.3924 46.2123 41.7638 43.287 41.7638C40.3618 41.7638 37.9905 39.3924 37.9905 36.4672V30.2983Z" fill="#D6DDE2"/>
<path d="M50.1544 19.6238C50.8713 21.3361 50.7129 24.2111 49.2832 24.8097C47.8534 25.4083 45.6939 23.5039 44.9769 21.7916C44.2599 20.0793 44.8377 18.2059 46.2675 17.6072C47.6972 17.0086 49.4374 17.9114 50.1544 19.6238V19.6238Z" fill="#E4EAEE"/>
<path d="M33.359 26.657C34.0759 28.3693 33.9175 31.2443 32.4878 31.8429C31.058 32.4415 28.8984 30.5371 28.1815 28.8248C27.4645 27.1125 28.0423 25.2391 29.4721 24.6405C30.9018 24.0418 32.642 24.9447 33.359 26.657Z" fill="#FFC1BD"/>
<path d="M47.2548 17.423C48.3244 19.9775 50.1209 23.8013 50.0047 26.9117C49.8408 31.2953 47.5144 35.7233 44.5086 36.9819C41.5027 38.2404 36.7154 36.7909 33.4772 33.8319C31.1794 31.7322 29.7155 27.769 28.646 25.2146C26.0691 19.0602 28.5309 13.2464 33.6696 11.0949C38.8083 8.9433 44.6779 11.2686 47.2548 17.423Z" fill="#E4EAEE"/>
<path d="M47.2548 17.423C48.3244 19.9775 50.1209 23.8013 50.0047 26.9117C49.8408 31.2953 47.5144 35.7233 44.5086 36.9819C41.5027 38.2404 36.7154 36.7909 33.4772 33.8319C31.1794 31.7322 29.7155 27.769 28.646 25.2146C26.0691 19.0602 28.5309 13.2464 33.6696 11.0949C38.8083 8.9433 44.6779 11.2686 47.2548 17.423Z" fill="#E4EAEE"/>
<path fill-rule="evenodd" clip-rule="evenodd" d="M29.7816 24.8447C29.6196 23.2538 29.8592 20.6061 31.8901 18.2673L31.9412 18.2829C33.8046 18.8548 36.6251 19.7204 40.1667 18.371C42.0918 17.6375 43.2316 16.5093 43.6746 15.2764C45.5633 16.5602 46.6004 18.2339 47.8531 20.4893L48.4608 20.2349L47.3177 17.5047C45.6234 13.4583 43.2852 11.7622 42.053 11.1972L42.0585 11.2151C39.4494 9.77437 36.3825 9.59435 33.5394 10.7848C30.7148 11.9674 28.699 14.2566 27.8842 17.1006L27.8698 17.0996C27.4516 18.6596 26.9824 21.261 28.6766 25.3074L29.7957 27.9801L30.4034 27.7256L29.7816 24.8447Z" fill="#D6DDE2"/>
<path d="M26.7449 25.4075L27.105 24.0527C27.3205 23.2418 28.4263 23.132 28.797 23.8847L32.1688 30.731C32.3163 31.0306 32.5176 31.3004 32.7627 31.5271L35.9174 34.4454C37.4117 35.8277 37.8032 38.0358 36.8753 39.8476L33.2105 47.003L27.7271 42.6408L29.4654 38.3403C29.8715 37.3356 29.9049 36.2187 29.5594 35.1915L26.7957 26.9755C26.6254 26.4692 26.6077 25.9238 26.7449 25.4075V25.4075Z" fill="#F1F4F8"/>
<path d="M13.2551 60.808L28.9848 39.5147C28.9848 39.5147 29.445 40.8948 31.3327 42.0274C33.2203 43.1601 35.5629 42.4832 35.5629 42.4832L30.4525 54.0613L23.4012 69.3569C22.9562 70.3221 21.9903 70.9404 20.9274 70.9404H18.3673C13.151 70.9404 10.1557 65.0037 13.2551 60.808V60.808Z" fill="#E4EAEE"/>
</svg>
