<svg fill="none" height="80" viewBox="0 0 80 80" width="80" xmlns="http://www.w3.org/2000/svg" xmlns:xlink="http://www.w3.org/1999/xlink"><rect width="80" height="80" fill="none"></rect><linearGradient id="a"><stop offset="0" stop-color="#1d61ce"/><stop offset="1" stop-color="#3a7eeb"/></linearGradient><linearGradient id="b" gradientUnits="userSpaceOnUse" x1="63.4847" x2="65.7041" xlink:href="#a" y1="71.3282" y2="60.5365"/><linearGradient id="c"><stop offset=".385417" stop-color="#ffc1bd"/><stop offset="1" stop-color="#fb9f9a"/></linearGradient><linearGradient id="d" gradientUnits="userSpaceOnUse" x1="51.8199" x2="53.6744" xlink:href="#c" y1="15.0416" y2="42.4334"/><linearGradient id="e" gradientUnits="userSpaceOnUse" x1="62.8661" x2="64.732" xlink:href="#c" y1="14.1236" y2="41.684"/><linearGradient id="f" gradientUnits="userSpaceOnUse" x1="67.0966" x2="68.4272" xlink:href="#c" y1="21.7792" y2="41.4328"/><linearGradient id="g" gradientUnits="userSpaceOnUse" x1="57.1622" x2="59.2493" xlink:href="#c" y1="10.2096" y2="41.037"/><linearGradient id="h"><stop offset="0" stop-color="#fb9f9a"/><stop offset="1" stop-color="#fb9f9a" stop-opacity="0"/></linearGradient><linearGradient id="i" gradientUnits="userSpaceOnUse" x1="57.6005" x2="51.3933" xlink:href="#h" y1="53.9107" y2="33.3984"/><linearGradient id="j" gradientUnits="userSpaceOnUse" x1="18.0526" x2="15.8333" xlink:href="#a" y1="71.3282" y2="60.5365"/><linearGradient id="k" gradientUnits="userSpaceOnUse" x1="29.7174" x2="27.8629" xlink:href="#c" y1="15.0416" y2="42.4334"/><linearGradient id="l" gradientUnits="userSpaceOnUse" x1="18.6713" x2="16.8054" xlink:href="#c" y1="14.1236" y2="41.684"/><linearGradient id="m" gradientUnits="userSpaceOnUse" x1="14.4407" x2="13.1101" xlink:href="#c" y1="21.7792" y2="41.4328"/><linearGradient id="n" gradientUnits="userSpaceOnUse" x1="24.3751" x2="22.288" xlink:href="#c" y1="10.2096" y2="41.037"/><linearGradient id="o" gradientUnits="userSpaceOnUse" x1="23.9368" x2="30.1441" xlink:href="#h" y1="53.9107" y2="33.3984"/><path d="m55.1282 53.1309h14.4643l1.4897 15.0626h-15.954z" fill="#ffc1bd"/><path d="m54.4089 60.0801s4.4287.7409 8.6339.7409c4.2053 0 8.8169-.7409 8.8169-.7409l.7008 8.1142h-18.1516z" fill="url(#b)"/><path d="m49.6763 17.4217c-.0298-1.2478.9283-2.2978 2.1736-2.3821 1.2475-.0845 2.3396.83 2.4755 2.0729l2.375 21.7118c.2016 1.8432-1.1719 3.4836-3.0219 3.6088-1.8531.1255-3.4367-1.3195-3.481-3.1763z" fill="url(#d)"/><path d="m59.6278 16.6772c-.0869-1.2833.883-2.3941 2.1664-2.481 1.2074-.0818 2.2762.7748 2.4595 1.971l3.3368 21.7806c.289 1.8867-1.0976 3.6169-3.0019 3.7459-1.7962.1216-3.3508-1.2359-3.4724-3.0321z" fill="url(#e)"/><path d="m65.8796 23.5082c.0055-.9287.7267-1.6958 1.6533-1.7585.9597-.065 1.7962.6471 1.8853 1.6049l1.4238 15.3128c.1318 1.4174-.9302 2.6649-2.3504 2.761-1.4685.0995-2.7121-1.0697-2.7034-2.5416z" fill="url(#f)"/><path d="m54.9072 12.6079c-.0413-1.2498.9151-2.3076 2.1627-2.3921 1.2419-.0841 2.3289.8265 2.4639 2.0639l2.741 25.1332c.2019 1.8516-1.1781 3.499-3.0364 3.6248-1.8501.1253-3.4355-1.3081-3.4967-3.1614z" fill="url(#g)"/><path d="m50.1141 35.3685c6.1166-3.9173 13.9354-3.9888 20.1227-.1841l.2994.1841 1.3414 10.8907c.7726 6.2724-3.8807 11.9068-10.1861 12.3337-6.4245.4349-11.85-4.7111-11.7552-11.1496z" fill="#ffc1bd"/><path d="m55.8701 37.8082c4.5767 3.035 6.4231 8.5186 6.4231 8.5186l-12.2494-4.2518v-6.4088s1.2496-.8929 5.8263 2.142z" fill="url(#i)"/><path d="m42.859 36.3995c-.9538-1.1851-.4018-3.3395 1.0808-3.6806.3665-.0843.7471-.0507 1.0798.1247 1.546.815 6.2613 3.6806 9.9099 9.9218.4715.8065 1.373 1.2812 2.3062 1.326 1.8387.0882 4.8497.687 6.4329 3.4768 2.3801 4.194.681 10.0487-6.0703 9.8144-6.7514-.2343-8.081-6.9764-8.081-6.9764-1.8755-7.0342-4.6171-11.4704-6.6583-14.0067z" fill="#ffc1bd"/><g stroke="#d6dde2" stroke-linecap="round" stroke-width="1.60304"><path d="m40.894 10.1077v-4.65247-4.652496"/><path d="m47.4953 12.0359 2.6347-2.64293 2.6346-2.64297"/><path d="m34.1342 12.0335-2.5711-2.57927-2.5712-2.57923"/></g><path d="m26.4092 53.1309h-14.4644l-1.4896 15.0626h15.954z" fill="#ffc1bd"/><path d="m27.1284 60.0801s-4.4286.7409-8.6339.7409c-4.2052 0-8.81686-.7409-8.81686-.7409l-.70076 8.1142h18.15152z" fill="url(#j)"/><path d="m31.8611 17.4217c.0297-1.2478-.9284-2.2978-2.1737-2.3821-1.2475-.0845-2.3395.83-2.4755 2.0729l-2.375 21.7118c-.2016 1.8432 1.172 3.4836 3.022 3.6088 1.853.1255 3.4366-1.3195 3.4809-3.1763z" fill="url(#k)"/><path d="m21.9096 16.6772c.0869-1.2833-.8831-2.3941-2.1664-2.481-1.2074-.0818-2.2763.7748-2.4595 1.971l-3.3368 21.7806c-.289 1.8867 1.0976 3.6169 3.0019 3.7459 1.7961.1216 3.3508-1.2359 3.4724-3.0321z" fill="url(#l)"/><path d="m15.6578 23.5082c-.0055-.9287-.7267-1.6958-1.6533-1.7585-.9598-.065-1.7963.6471-1.8853 1.6049l-1.4239 15.3128c-.1318 1.4174.9302 2.6649 2.3505 2.761 1.4685.0995 2.7121-1.0697 2.7033-2.5416z" fill="url(#m)"/><path d="m26.6302 12.6079c.0413-1.2498-.9151-2.3076-2.1628-2.3921-1.2418-.0841-2.3289.8265-2.4638 2.0639l-2.741 25.1332c-.2019 1.8516 1.178 3.499 3.0364 3.6248 1.85.1253 3.4354-1.3081 3.4966-3.1614z" fill="url(#n)"/><path d="m31.4233 35.3685c-6.1166-3.9173-13.9354-3.9888-20.1227-.1841l-.2994.1841-1.34144 10.8907c-.77257 6.2724 3.88074 11.9068 10.18604 12.3337 6.4245.4349 11.8501-4.7111 11.7553-11.1496z" fill="#ffc1bd"/><path d="m25.6673 37.8082c-4.5767 3.035-6.4232 8.5186-6.4232 8.5186l12.2494-4.2518v-6.4088s-1.2496-.8929-5.8262 2.142z" fill="url(#o)"/><path d="m38.6783 36.3995c.9539-1.1851.4018-3.3395-1.0807-3.6806-.3666-.0843-.7472-.0507-1.0799.1247-1.5459.815-6.2612 3.6806-9.9098 9.9218-.4715.8065-1.373 1.2812-2.3062 1.326-1.8388.0882-4.8497.687-6.4329 3.4768-2.3802 4.194-.6811 10.0487 6.0703 9.8144s8.081-6.9764 8.081-6.9764c1.8755-7.0342 4.617-11.4704 6.6582-14.0067z" fill="#ffc1bd"/></svg>