<svg width="80" height="80" viewBox="0 0 80 80" fill="none" xmlns="http://www.w3.org/2000/svg">
<rect width="80" height="80" fill="none"></rect>
<path d="M60.2083 14.9879L64.4509 19.2306L19.4224 64.2591L15.1798 60.0164L60.2083 14.9879Z" fill="white"/>
<path fill-rule="evenodd" clip-rule="evenodd" d="M55 62C58.866 62 62 58.866 62 55C62 51.134 58.866 48 55 48C51.134 48 48 51.134 48 55C48 58.866 51.134 62 55 62ZM55 67C61.6274 67 67 61.6274 67 55C67 48.3726 61.6274 43 55 43C48.3726 43 43 48.3726 43 55C43 61.6274 48.3726 67 55 67Z" fill="white"/>
<path fill-rule="evenodd" clip-rule="evenodd" d="M24 32C27.866 32 31 28.866 31 25C31 21.134 27.866 18 24 18C20.134 18 17 21.134 17 25C17 28.866 20.134 32 24 32ZM24 37C30.6274 37 36 31.6274 36 25C36 18.3726 30.6274 13 24 13C17.3726 13 12 18.3726 12 25C12 31.6274 17.3726 37 24 37Z" fill="white"/>
</svg>
