<svg width="80" height="80" viewBox="0 0 80 80" fill="none" xmlns="http://www.w3.org/2000/svg">
<rect width="80" height="80" fill="none"></rect>
<path d="M40.2555 69.511C56.4129 69.511 69.511 56.4129 69.511 40.2555C69.511 24.0981 56.4129 11 40.2555 11C24.0981 11 11 24.0981 11 40.2555C11 56.4129 24.0981 69.511 40.2555 69.511Z" fill="#F6F7F8"/>
<path d="M40.2555 69.511C56.4129 69.511 69.511 56.4129 69.511 40.2555C69.511 24.0981 56.4129 11 40.2555 11C24.0981 11 11 24.0981 11 40.2555C11 56.4129 24.0981 69.511 40.2555 69.511Z" fill="#EFF0F1"/>
<path fill-rule="evenodd" clip-rule="evenodd" d="M25.4398 47.0134C26.2351 46.218 27.5246 46.218 28.3199 47.0134C34.9116 53.605 45.5988 53.605 52.1905 47.0134C52.9858 46.218 54.2753 46.218 55.0706 47.0134C55.8659 47.8087 55.8659 49.0982 55.0706 49.8935C46.8883 58.0758 33.6221 58.0758 25.4398 49.8935C24.6444 49.0982 24.6444 47.8087 25.4398 47.0134Z" fill="#D6DDE2"/>
<path fill-rule="evenodd" clip-rule="evenodd" d="M32.0202 34.6195C30.025 32.6242 26.7899 32.6241 24.7945 34.6195C23.9992 35.4149 22.7097 35.4149 21.9144 34.6195C21.119 33.8242 21.119 32.5347 21.9144 31.7394C25.5004 28.1534 31.3145 28.1533 34.9004 31.7394C35.6957 32.5348 35.6957 33.8242 34.9004 34.6196C34.105 35.4149 32.8156 35.4148 32.0202 34.6195Z" fill="#D6DDE2"/>
<path fill-rule="evenodd" clip-rule="evenodd" d="M55.4408 34.6195C53.4454 32.6242 50.2103 32.6242 48.2149 34.6195C47.4196 35.4149 46.1301 35.4149 45.3348 34.6195C44.5394 33.8242 44.5394 32.5347 45.3348 31.7394C48.9208 28.1534 54.7349 28.1534 58.3209 31.7394C59.1162 32.5347 59.1162 33.8242 58.3209 34.6195C57.5256 35.4149 56.2361 35.4149 55.4408 34.6195Z" fill="#D6DDE2"/>
</svg>
