<svg width="80" height="80" viewBox="0 0 80 80" fill="none" xmlns="http://www.w3.org/2000/svg">
<rect width="80" height="80" fill="none"/>
<path fill-rule="evenodd" clip-rule="evenodd" d="M40 80C62.0914 80 80 62.0914 80 40C80 17.9086 62.0914 0 40 0C17.9086 0 0 17.9086 0 40C0 62.0914 17.9086 80 40 80Z" fill="#5C85AD" fill-opacity="0.07"/>
<rect x="27.1875" y="20.7118" width="39.5208" height="23.4667" rx="2" transform="rotate(17 27.1875 20.7118)" fill="#B8D1E0"/>
<rect x="14" y="35.8667" width="39.5208" height="23.4667" rx="2" fill="#5C85AD"/>
<path fill-rule="evenodd" clip-rule="evenodd" d="M20.1519 44.8332C20.0328 45.1592 19.87 45.605 19.87 45.6269C19.87 45.6602 19.8029 45.6932 19.7692 45.6932C19.7551 45.6932 19.5968 45.6304 19.4116 45.557C19.1506 45.4535 18.8361 45.3288 18.7969 45.3288C18.7636 45.3288 18.7302 45.2625 18.7636 45.1963C18.8307 45.0308 20.4397 40.5937 20.5068 40.3619C20.641 39.8654 20.8423 39.4348 21.4791 39.4348C22.1159 39.4348 22.3172 39.8984 22.4847 40.3619C22.5097 40.4364 22.757 41.1179 23.0578 41.947C23.5582 43.326 24.2067 45.1135 24.2275 45.1963C24.2275 45.2296 24.2275 45.2959 24.1942 45.3288C24.1606 45.3288 23.9343 45.4199 23.708 45.511C23.4817 45.6021 23.2555 45.6932 23.2219 45.6932C23.1881 45.6932 23.121 45.6932 23.0877 45.6269C23.0877 45.6045 22.9214 45.1491 22.802 44.8223C22.7436 44.6625 22.6965 44.5335 22.6856 44.5009H20.2722C20.261 44.5344 20.212 44.6685 20.1519 44.8332ZM22.3505 43.375L21.4791 40.8917L20.6743 43.375H22.3505Z" fill="white"/>
<path d="M18.2705 48.6801V47.5411C18.2705 47.4698 18.3426 47.4342 18.3787 47.4342H24.5771C24.6492 47.4342 24.6853 47.5055 24.6853 47.5411V48.6801C24.6853 48.7513 24.6132 48.787 24.5771 48.787H18.3787C18.3066 48.787 18.2705 48.7157 18.2705 48.6801Z" fill="white"/>
<rect x="17.2913" y="52.2" width="25.8745" height="4.33333" rx="1.408" fill="white" fill-opacity="0.3"/>
<path opacity="0.8" fill-rule="evenodd" clip-rule="evenodd" d="M48.2279 56.6667C49.682 56.6667 50.8608 55.4728 50.8608 54C50.8608 52.5273 49.682 51.3333 48.2279 51.3333C46.7738 51.3333 45.595 52.5273 45.595 54C45.595 55.4728 46.7738 56.6667 48.2279 56.6667Z" fill="white"/>
</svg>
