<svg xmlns="http://www.w3.org/2000/svg" width="64" height="64" viewBox="0 0 64 64" fill="none"><rect width="64" height="64" fill="none"/>
<path d="M1.04038 16.421C2.20457 8.28708 8.28708 2.20456 16.421 1.04038C20.5731 0.446119 25.7661 0 32 0C38.2339 0 43.4269 0.446119 47.579 1.04038C55.7129 2.20456 61.7954 8.28708 62.9596 16.421C63.5539 20.5731 64 25.7661 64 32C64 38.2339 63.5539 43.4269 62.9596 47.579C61.7954 55.7129 55.7129 61.7954 47.579 62.9596C43.4269 63.5539 38.2339 64 32 64C25.7661 64 20.5731 63.5539 16.421 62.9596C8.28708 61.7954 2.20456 55.7129 1.04038 47.579C0.446119 43.4269 0 38.2339 0 32C0 25.7661 0.446119 20.5731 1.04038 16.421Z" fill="black"/>
</svg>
