<svg width="80" height="80" viewBox="0 0 80 80" fill="none" xmlns="http://www.w3.org/2000/svg">
<rect width="80" height="80" fill="none"></rect>
<path d="M58.0163 53.8733L60.1722 68.4845C60.1722 68.4845 49.378 71.5382 31.0861 71.5382C12.7942 71.5382 2 68.4845 2 68.4845L4.40038 53.7841C4.74086 51.6989 6.1349 49.9378 8.08625 49.1278L24.5974 42.2734H37.5754L54.2875 49.1125C56.284 49.9295 57.7014 51.7392 58.0163 53.8733Z" fill="#3074E1"/>
<path d="M24.5974 36.2058C24.5974 32.622 27.5026 29.7168 31.0864 29.7168C34.6701 29.7168 37.5754 32.622 37.5754 36.2058V43.7635C37.5754 47.3472 34.6701 50.2524 31.0864 50.2524C27.5026 50.2524 24.5974 47.3472 24.5974 43.7635V36.2058Z" fill="#FB9F9A"/>
<path d="M43.5858 22.9894C43.5858 26.3822 43.8067 31.5535 42.2036 35.0135C39.9443 39.8896 35.2201 43.7929 31.2278 43.7929C27.2355 43.7929 22.5113 39.8896 20.2521 35.0135C18.6489 31.5535 18.8699 26.3822 18.8699 22.9894C18.8699 14.8152 24.4027 9.4102 31.2278 9.4102C38.0529 9.4102 43.5858 14.8152 43.5858 22.9894Z" fill="#FFC1BD"/>
<path d="M23.5126 26.8504C23.5126 29.1247 21.9732 32.2986 20.0743 32.2986C18.1754 32.2986 16.636 29.1247 16.636 26.8504C16.636 24.5761 18.1754 22.7324 20.0743 22.7324C21.9732 22.7324 23.5126 24.5761 23.5126 26.8504V26.8504Z" fill="#FFC1BD"/>
<path d="M45.82 26.8504C45.82 29.1247 44.2806 32.2986 42.3817 32.2986C40.4828 32.2986 38.9434 29.1247 38.9434 26.8504C38.9434 24.5761 40.4828 22.7324 42.3817 22.7324C44.2806 22.7324 45.82 24.5761 45.82 26.8504Z" fill="#FFC1BD"/>
<path d="M20.3272 23.1136C20.8971 21.2385 22.4214 18.3587 25.8252 16.6768L25.8738 16.7172C27.709 18.2452 30.4867 20.5579 35.1275 20.7088C37.6499 20.7908 39.4718 20.0551 40.5558 18.8716C42.0827 21.216 42.4628 23.5981 42.8113 26.7398H43.6184V23.1136C43.6184 17.7392 41.7786 14.7161 40.6534 13.4947L40.6513 13.5173C38.3845 10.6546 35.0039 9 31.2277 9C27.475 9 24.113 10.6341 21.8465 13.4641L21.8315 13.4565C20.6208 15.0215 18.8596 17.7392 18.8596 23.1136V26.6634H19.6668L20.3272 23.1136Z" fill="#18293D"/>
<path d="M7.23169 40.4671C7.23169 38.4433 8.87227 36.8027 10.896 36.8027H51.2764C53.3001 36.8027 54.9407 38.4433 54.9407 40.4671V71.5377H31.0862H7.23169V40.4671Z" fill="#B4C6D2"/>
<path fill-rule="evenodd" clip-rule="evenodd" d="M55.8535 24.9351H50.7419V22.4922H59.2746V25.1656L54.0276 29.8209H59.063V32.2638H50.6846V29.5211L55.8535 24.9351Z" fill="#4C8DF5"/>
<path fill-rule="evenodd" clip-rule="evenodd" d="M72.1145 12.9358H62.6094V9.2715H77.0216V13.4808L67.5531 21.8815H76.927V25.5458H62.7803V21.2174L72.1145 12.9358Z" fill="#4C8DF5"/>
</svg>
