<svg width="80" height="80" viewBox="0 0 80 80" fill="none" xmlns="http://www.w3.org/2000/svg">
<rect width="80" height="80" fill="none"></rect>
<path d="M39.5273 53.456C42.1381 53.456 44.2545 51.3563 44.2545 48.7662C44.2545 46.1762 42.1381 44.0765 39.5273 44.0765C36.9165 44.0765 34.8 46.1762 34.8 48.7662C34.8 51.3563 36.9165 53.456 39.5273 53.456Z" fill="white"/>
<path d="M39.7129 56.0369C35.8079 56.0369 32.6422 59.1774 32.6422 63.0514V64.9608H46.7836V63.0514C46.7836 59.1774 43.6179 56.0369 39.7129 56.0369Z" fill="white"/>
<path d="M28.1818 31.8831C32.8813 31.8831 36.6909 28.1037 36.6909 23.4416C36.6909 18.7794 32.8813 15 28.1818 15C23.4824 15 19.6727 18.7794 19.6727 23.4416C19.6727 28.1037 23.4824 31.8831 28.1818 31.8831Z" fill="white"/>
<path d="M28.1818 34.697C20.3494 34.697 14 40.996 14 48.7662V64.7114H30.0727V62.5041C30.0727 59.0136 31.8858 55.9432 34.6287 54.1693C33.1063 52.8126 32.1505 50.8553 32.1505 48.679C32.1505 44.5831 35.5363 41.2626 39.713 41.2626C39.8731 41.2626 40.032 41.2675 40.1897 41.2771C37.6791 37.3237 33.2397 34.697 28.1818 34.697Z" fill="white"/>
<path d="M44.6619 43.071C46.2628 44.4309 47.2754 46.439 47.2754 48.679C47.2754 50.7086 46.4441 52.5478 45.0971 53.887C48.0974 55.6048 50.1166 58.8205 50.1166 62.5041V64.7114H66V53.456C66 46.2038 60.0739 40.3247 52.7636 40.3247C49.7116 40.3247 46.9009 41.3494 44.6619 43.071Z" fill="white"/>
<path d="M53.7091 37.5108C57.8864 37.5108 61.2727 34.1513 61.2727 30.0072C61.2727 25.8631 57.8864 22.5036 53.7091 22.5036C49.5318 22.5036 46.1455 25.8631 46.1455 30.0072C46.1455 34.1513 49.5318 37.5108 53.7091 37.5108Z" fill="white"/>
</svg>
