<svg xmlns="http://www.w3.org/2000/svg" width="80" height="80" viewBox="0 0 80 80" fill="none"><rect width="80" height="80" fill="none"/>
<path d="M71.5 40.7283C71.5 58.1252 57.397 72.2283 40 72.2283C22.603 72.2283 8.5 58.1252 8.5 40.7283C8.5 23.3313 22.603 9.22827 40 9.22827C57.397 9.22827 71.5 23.3313 71.5 40.7283Z" fill="#E7ECF0"/>
<path d="M25.25 9.80249C25.25 8.14564 26.5931 6.80249 28.25 6.80249H51.5C53.1569 6.80249 54.5 8.14564 54.5 9.80249V70.1975C54.5 71.8543 53.1569 73.1975 51.5 73.1975H28.25C26.5931 73.1975 25.25 71.8543 25.25 70.1975V9.80249Z" fill="#B4C6D2"/>
<path d="M48.1798 19.9825C48.1798 24.5002 44.5175 28.1625 39.9998 28.1625C35.4821 28.1625 31.8198 24.5002 31.8198 19.9825C31.8198 15.4648 35.4821 11.8025 39.9998 11.8025C44.5175 11.8025 48.1798 15.4648 48.1798 19.9825Z" fill="white"/>
<path d="M48.1798 39.6153C48.1798 44.133 44.5175 47.7953 39.9998 47.7953C35.4821 47.7953 31.8198 44.133 31.8198 39.6153C31.8198 35.0976 35.4821 31.4353 39.9998 31.4353C44.5175 31.4353 48.1798 35.0976 48.1798 39.6153Z" fill="white"/>
<path d="M48.1798 59.2481C48.1798 63.7658 44.5175 67.4281 39.9998 67.4281C35.4821 67.4281 31.8198 63.7658 31.8198 59.2481C31.8198 54.7304 35.4821 51.0681 39.9998 51.0681C44.5175 51.0681 48.1798 54.7304 48.1798 59.2481Z" fill="#D6DDE2"/>
</svg>
