<svg width="80" height="80" viewBox="0 0 80 80" xmlns="http://www.w3.org/2000/svg"><title>art_abm-headset_s_white</title><g fill="none" fill-rule="evenodd"><path d="M0 0h80v80H0z"/><path d="M57.925 26h7.827C64.118 13.765 54.535 4 40 4c-11.404 0-21.98 6.303-24.866 18.692-.256 1.098-.747 2.197-1.194 3.308h7.135c.85-8.41 8.775-15 18.425-15s17.575 6.59 18.425 15z" fill="#FFF" fill-rule="nonzero" opacity=".2"/><path d="M9 34a5 5 0 0 0-5 5v15a5 5 0 0 0 5 5h7a1 1 0 0 0 1-1V35a1 1 0 0 0-1-1H9zm0-1h7a2 2 0 0 1 2 2v23a2 2 0 0 1-2 2H9a6 6 0 0 1-6-6V39a6 6 0 0 1 6-6zm55 1a1 1 0 0 0-1 1v23a1 1 0 0 0 1 1h7a5 5 0 0 0 5-5V39a5 5 0 0 0-5-5h-7zm0-1h7a6 6 0 0 1 6 6v15a6 6 0 0 1-6 6h-7a2 2 0 0 1-2-2V35a2 2 0 0 1 2-2z" fill="#FFF" fill-rule="nonzero"/><path d="M67.5 59.99C67.334 68.747 64.183 73 58 73H46v1h12c6.81 0 10.325-4.746 10.5-13.99l-1-.02z" fill="#FFF" fill-rule="nonzero"/><path d="M42 76c2.252 0 4-1.398 4-3s-1.748-3-4-3-4 1.398-4 3 1.748 3 4 3zm0 1c-2.761 0-5-1.79-5-4s2.239-4 5-4 5 1.79 5 4-2.239 4-5 4zM13.498 33.543C15.144 14.453 23.945 5 40 5s24.856 9.453 26.502 28.543l.996-.086C65.811 13.881 56.611 4 40 4s-25.81 9.88-27.498 29.457l.996.086z" fill="#FFF" fill-rule="nonzero"/></g></svg>