<svg width="80" height="80" viewBox="0 0 80 80" fill="none" xmlns="http://www.w3.org/2000/svg">
<rect width="80" height="80" fill="none"></rect>
<path d="M47.6349 39.8652H35.8386L29.4043 60.6397H37.6259L32.9789 74.342L49.0647 52.6835H41.9155L47.6349 39.8652Z" fill="#E4EAEE"/>
<path d="M61.4468 24.7948C61.4468 25.5314 61.393 26.2554 61.2891 26.9631C66.6483 27.562 70.8148 32.1079 70.8148 37.627C70.8148 43.5535 66.0104 48.3579 60.084 48.3579H19.7309C13.8044 48.3579 9 43.5535 9 37.627C9 32.093 13.1891 27.5374 18.5692 26.9583C20.293 23.257 24.0459 20.6914 28.398 20.6914C29.7545 20.6914 31.0527 20.9406 32.2495 21.3958C33.7853 14.8632 39.6507 10 46.652 10C54.8229 10 61.4468 16.6239 61.4468 24.7948V24.7948Z" fill="#D6DDE2"/>
</svg>
