<svg xmlns="http://www.w3.org/2000/svg" width="100" height="145" viewBox="0 0 100 145" fill="none"><rect width="100" height="145" fill="none"/>
<path d="M0 126.822V124.635L0.874354 123.324H7.87144L5.53908 126.822H0Z" fill="white" fill-opacity="0.6"/>
<path d="M10.2038 126.822L12.5362 123.324H19.5332L17.2009 126.822H10.2038Z" fill="white" fill-opacity="0.6"/>
<path d="M24.198 123.324L21.8656 126.822H28.8627L31.1951 123.324H24.198Z" fill="white" fill-opacity="0.6"/>
<path d="M33.5274 126.822L35.8598 123.324H42.8569L40.5245 126.822H33.5274Z" fill="white" fill-opacity="0.6"/>
<path d="M47.5216 123.324L45.1892 126.822H52.1863L54.5187 123.324H47.5216Z" fill="white" fill-opacity="0.6"/>
<path d="M56.851 126.822L59.1834 123.324H66.1805L63.8481 126.822H56.851Z" fill="white" fill-opacity="0.6"/>
<path d="M70.8452 123.324L68.5128 126.822H75.5099L77.8423 123.324H70.8452Z" fill="white" fill-opacity="0.6"/>
<path d="M80.1746 126.822L82.507 123.324H89.5041L87.1717 126.822H80.1746Z" fill="white" fill-opacity="0.6"/>
<path d="M94.1688 123.324L91.8364 126.822H98.8335L99.9997 125.073V123.324H94.1688Z" fill="white" fill-opacity="0.6"/>
<path d="M14.2854 88.2945C14.1244 88.2945 13.9939 88.164 13.9939 88.0029C13.9939 87.8419 14.1244 87.7114 14.2854 87.7114C14.4464 87.7114 14.577 87.8419 14.577 88.0029C14.577 88.164 14.4464 88.2945 14.2854 88.2945Z" fill="white" fill-opacity="0.6"/>
<path d="M13.1193 88.2945C12.9582 88.2945 12.8277 88.164 12.8277 88.0029C12.8277 87.8419 12.9582 87.7114 13.1193 87.7114C13.2803 87.7114 13.4108 87.8419 13.4108 88.0029C13.4108 88.164 13.2803 88.2945 13.1193 88.2945Z" fill="white" fill-opacity="0.6"/>
<path d="M11.9531 88.2945C11.7921 88.2945 11.6615 88.164 11.6615 88.0029C11.6615 87.8419 11.7921 87.7114 11.9531 87.7114C12.1141 87.7114 12.2446 87.8419 12.2446 88.0029C12.2446 88.164 12.1141 88.2945 11.9531 88.2945Z" fill="white" fill-opacity="0.6"/>
<path d="M10.7869 88.2945C10.6259 88.2945 10.4953 88.164 10.4953 88.0029C10.4953 87.8419 10.6259 87.7114 10.7869 87.7114C10.9479 87.7114 11.0784 87.8419 11.0784 88.0029C11.0784 88.164 10.9479 88.2945 10.7869 88.2945Z" fill="white" fill-opacity="0.6"/>
<path d="M9.62071 88.2945C9.45969 88.2945 9.32916 88.164 9.32916 88.0029C9.32916 87.8419 9.45969 87.7114 9.62071 87.7114C9.78173 87.7114 9.91225 87.8419 9.91225 88.0029C9.91225 88.164 9.78173 88.2945 9.62071 88.2945Z" fill="white" fill-opacity="0.6"/>
<path d="M9.62071 89.4607C9.45969 89.4607 9.32916 89.3301 9.32916 89.1691C9.32916 89.0081 9.45969 88.8776 9.62071 88.8776C9.78173 88.8776 9.91225 89.0081 9.91225 89.1691C9.91225 89.3301 9.78173 89.4607 9.62071 89.4607Z" fill="white" fill-opacity="0.6"/>
<path d="M14.2854 89.4607C14.1244 89.4607 13.9939 89.3301 13.9939 89.1691C13.9939 89.0081 14.1244 88.8776 14.2854 88.8776C14.4464 88.8776 14.577 89.0081 14.577 89.1691C14.577 89.3301 14.4464 89.4607 14.2854 89.4607Z" fill="white" fill-opacity="0.6"/>
<path d="M11.9531 89.4607C11.7921 89.4607 11.6615 89.3301 11.6615 89.1691C11.6615 89.0081 11.7921 88.8776 11.9531 88.8776C12.1141 88.8776 12.2446 89.0081 12.2446 89.1691C12.2446 89.3301 12.1141 89.4607 11.9531 89.4607Z" fill="white" fill-opacity="0.6"/>
<path d="M14.2854 90.6268C14.1244 90.6268 13.9939 90.4963 13.9939 90.3353C13.9939 90.1743 14.1244 90.0438 14.2854 90.0438C14.4464 90.0438 14.577 90.1743 14.577 90.3353C14.577 90.4963 14.4464 90.6268 14.2854 90.6268Z" fill="white" fill-opacity="0.6"/>
<path d="M13.1193 90.6268C12.9582 90.6268 12.8277 90.4963 12.8277 90.3353C12.8277 90.1743 12.9582 90.0438 13.1193 90.0438C13.2803 90.0438 13.4108 90.1743 13.4108 90.3353C13.4108 90.4963 13.2803 90.6268 13.1193 90.6268Z" fill="white" fill-opacity="0.6"/>
<path d="M11.9531 90.6268C11.7921 90.6268 11.6615 90.4963 11.6615 90.3353C11.6615 90.1743 11.7921 90.0438 11.9531 90.0438C12.1141 90.0438 12.2446 90.1743 12.2446 90.3353C12.2446 90.4963 12.1141 90.6268 11.9531 90.6268Z" fill="white" fill-opacity="0.6"/>
<path d="M10.7869 90.6268C10.6259 90.6268 10.4953 90.4963 10.4953 90.3353C10.4953 90.1743 10.6259 90.0438 10.7869 90.0438C10.9479 90.0438 11.0784 90.1743 11.0784 90.3353C11.0784 90.4963 10.9479 90.6268 10.7869 90.6268Z" fill="white" fill-opacity="0.6"/>
<path d="M9.62071 90.6268C9.45969 90.6268 9.32916 90.4963 9.32916 90.3353C9.32916 90.1743 9.45969 90.0438 9.62071 90.0438C9.78173 90.0438 9.91225 90.1743 9.91225 90.3353C9.91225 90.4963 9.78173 90.6268 9.62071 90.6268Z" fill="white" fill-opacity="0.6"/>
<path d="M14.2854 92.3761C14.1244 92.3761 13.9939 92.2456 13.9939 92.0846C13.9939 91.9236 14.1244 91.793 14.2854 91.793C14.4464 91.793 14.577 91.9236 14.577 92.0846C14.577 92.2456 14.4464 92.3761 14.2854 92.3761Z" fill="white" fill-opacity="0.6"/>
<path d="M13.1193 92.3761C12.9582 92.3761 12.8277 92.2456 12.8277 92.0846C12.8277 91.9236 12.9582 91.793 13.1193 91.793C13.2803 91.793 13.4108 91.9236 13.4108 92.0846C13.4108 92.2456 13.2803 92.3761 13.1193 92.3761Z" fill="white" fill-opacity="0.6"/>
<path d="M11.9531 92.3761C11.7921 92.3761 11.6615 92.2456 11.6615 92.0846C11.6615 91.9236 11.7921 91.793 11.9531 91.793C12.1141 91.793 12.2446 91.9236 12.2446 92.0846C12.2446 92.2456 12.1141 92.3761 11.9531 92.3761Z" fill="white" fill-opacity="0.6"/>
<path d="M10.7869 92.3761C10.6259 92.3761 10.4953 92.2456 10.4953 92.0846C10.4953 91.9236 10.6259 91.793 10.7869 91.793C10.9479 91.793 11.0784 91.9236 11.0784 92.0846C11.0784 92.2456 10.9479 92.3761 10.7869 92.3761Z" fill="white" fill-opacity="0.6"/>
<path d="M9.62071 92.3761C9.45969 92.3761 9.32916 92.2456 9.32916 92.0846C9.32916 91.9236 9.45969 91.793 9.62071 91.793C9.78173 91.793 9.91225 91.9236 9.91225 92.0846C9.91225 92.2456 9.78173 92.3761 9.62071 92.3761Z" fill="white" fill-opacity="0.6"/>
<path d="M9.62071 93.5423C9.45969 93.5423 9.32916 93.4118 9.32916 93.2507C9.32916 93.0897 9.45969 92.9592 9.62071 92.9592C9.78173 92.9592 9.91225 93.0897 9.91225 93.2507C9.91225 93.4118 9.78173 93.5423 9.62071 93.5423Z" fill="white" fill-opacity="0.6"/>
<path d="M14.2854 93.5423C14.1244 93.5423 13.9939 93.4118 13.9939 93.2507C13.9939 93.0897 14.1244 92.9592 14.2854 92.9592C14.4464 92.9592 14.577 93.0897 14.577 93.2507C14.577 93.4118 14.4464 93.5423 14.2854 93.5423Z" fill="white" fill-opacity="0.6"/>
<path d="M11.9531 93.5423C11.7921 93.5423 11.6615 93.4118 11.6615 93.2507C11.6615 93.0897 11.7921 92.9592 11.9531 92.9592C12.1141 92.9592 12.2446 93.0897 12.2446 93.2507C12.2446 93.4118 12.1141 93.5423 11.9531 93.5423Z" fill="white" fill-opacity="0.6"/>
<path d="M14.2854 94.7085C14.1244 94.7085 13.9939 94.5779 13.9939 94.4169C13.9939 94.2559 14.1244 94.1254 14.2854 94.1254C14.4464 94.1254 14.577 94.2559 14.577 94.4169C14.577 94.5779 14.4464 94.7085 14.2854 94.7085Z" fill="white" fill-opacity="0.6"/>
<path d="M13.1193 94.7085C12.9582 94.7085 12.8277 94.5779 12.8277 94.4169C12.8277 94.2559 12.9582 94.1254 13.1193 94.1254C13.2803 94.1254 13.4108 94.2559 13.4108 94.4169C13.4108 94.5779 13.2803 94.7085 13.1193 94.7085Z" fill="white" fill-opacity="0.6"/>
<path d="M11.9531 94.7085C11.7921 94.7085 11.6615 94.5779 11.6615 94.4169C11.6615 94.2559 11.7921 94.1254 11.9531 94.1254C12.1141 94.1254 12.2446 94.2559 12.2446 94.4169C12.2446 94.5779 12.1141 94.7085 11.9531 94.7085Z" fill="white" fill-opacity="0.6"/>
<path d="M10.7869 94.7085C10.6259 94.7085 10.4953 94.5779 10.4953 94.4169C10.4953 94.2559 10.6259 94.1254 10.7869 94.1254C10.9479 94.1254 11.0784 94.2559 11.0784 94.4169C11.0784 94.5779 10.9479 94.7085 10.7869 94.7085Z" fill="white" fill-opacity="0.6"/>
<path d="M9.62071 94.7085C9.45969 94.7085 9.32916 94.5779 9.32916 94.4169C9.32916 94.2559 9.45969 94.1254 9.62071 94.1254C9.78173 94.1254 9.91225 94.2559 9.91225 94.4169C9.91225 94.5779 9.78173 94.7085 9.62071 94.7085Z" fill="white" fill-opacity="0.6"/>
<path d="M14.2854 97.6239C14.1244 97.6239 13.9939 97.4934 13.9939 97.3324C13.9939 97.1714 14.1244 97.0408 14.2854 97.0408C14.4464 97.0408 14.577 97.1714 14.577 97.3324C14.577 97.4934 14.4464 97.6239 14.2854 97.6239Z" fill="white" fill-opacity="0.6"/>
<path d="M13.1193 97.6239C12.9582 97.6239 12.8277 97.4934 12.8277 97.3324C12.8277 97.1714 12.9582 97.0408 13.1193 97.0408C13.2803 97.0408 13.4108 97.1714 13.4108 97.3324C13.4108 97.4934 13.2803 97.6239 13.1193 97.6239Z" fill="white" fill-opacity="0.6"/>
<path d="M11.9531 97.6239C11.7921 97.6239 11.6615 97.4934 11.6615 97.3324C11.6615 97.1714 11.7921 97.0408 11.9531 97.0408C12.1141 97.0408 12.2446 97.1714 12.2446 97.3324C12.2446 97.4934 12.1141 97.6239 11.9531 97.6239Z" fill="white" fill-opacity="0.6"/>
<path d="M10.7869 97.6239C10.6259 97.6239 10.4953 97.4934 10.4953 97.3324C10.4953 97.1714 10.6259 97.0408 10.7869 97.0408C10.9479 97.0408 11.0784 97.1714 11.0784 97.3324C11.0784 97.4934 10.9479 97.6239 10.7869 97.6239Z" fill="white" fill-opacity="0.6"/>
<path d="M9.62071 97.6239C9.45969 97.6239 9.32916 97.4934 9.32916 97.3324C9.32916 97.1714 9.45969 97.0408 9.62071 97.0408C9.78173 97.0408 9.91225 97.1714 9.91225 97.3324C9.91225 97.4934 9.78173 97.6239 9.62071 97.6239Z" fill="white" fill-opacity="0.6"/>
<path d="M9.62071 98.7901C9.45969 98.7901 9.32916 98.6596 9.32916 98.4986C9.32916 98.3375 9.45969 98.207 9.62071 98.207C9.78173 98.207 9.91225 98.3375 9.91225 98.4986C9.91225 98.6596 9.78173 98.7901 9.62071 98.7901Z" fill="white" fill-opacity="0.6"/>
<path d="M14.2854 98.7901C14.1244 98.7901 13.9939 98.6596 13.9939 98.4986C13.9939 98.3375 14.1244 98.207 14.2854 98.207C14.4464 98.207 14.577 98.3375 14.577 98.4986C14.577 98.6596 14.4464 98.7901 14.2854 98.7901Z" fill="white" fill-opacity="0.6"/>
<path d="M11.9531 98.7901C11.7921 98.7901 11.6615 98.6596 11.6615 98.4986C11.6615 98.3375 11.7921 98.207 11.9531 98.207C12.1141 98.207 12.2446 98.3375 12.2446 98.4986C12.2446 98.6596 12.1141 98.7901 11.9531 98.7901Z" fill="white" fill-opacity="0.6"/>
<path d="M14.2854 99.9563C14.1244 99.9563 13.9939 99.8258 13.9939 99.6647C13.9939 99.5037 14.1244 99.3732 14.2854 99.3732C14.4464 99.3732 14.577 99.5037 14.577 99.6647C14.577 99.8258 14.4464 99.9563 14.2854 99.9563Z" fill="white" fill-opacity="0.6"/>
<path d="M13.1193 99.9563C12.9582 99.9563 12.8277 99.8258 12.8277 99.6647C12.8277 99.5037 12.9582 99.3732 13.1193 99.3732C13.2803 99.3732 13.4108 99.5037 13.4108 99.6647C13.4108 99.8258 13.2803 99.9563 13.1193 99.9563Z" fill="white" fill-opacity="0.6"/>
<path d="M11.9531 99.9563C11.7921 99.9563 11.6615 99.8258 11.6615 99.6647C11.6615 99.5037 11.7921 99.3732 11.9531 99.3732C12.1141 99.3732 12.2446 99.5037 12.2446 99.6647C12.2446 99.8258 12.1141 99.9563 11.9531 99.9563Z" fill="white" fill-opacity="0.6"/>
<path d="M10.7869 99.9563C10.6259 99.9563 10.4953 99.8258 10.4953 99.6647C10.4953 99.5037 10.6259 99.3732 10.7869 99.3732C10.9479 99.3732 11.0784 99.5037 11.0784 99.6647C11.0784 99.8258 10.9479 99.9563 10.7869 99.9563Z" fill="white" fill-opacity="0.6"/>
<path d="M9.62071 99.9563C9.45969 99.9563 9.32916 99.8258 9.32916 99.6647C9.32916 99.5037 9.45969 99.3732 9.62071 99.3732C9.78173 99.3732 9.91225 99.5037 9.91225 99.6647C9.91225 99.8258 9.78173 99.9563 9.62071 99.9563Z" fill="white" fill-opacity="0.6"/>
<path d="M14.2854 106.953C14.1244 106.953 13.9939 106.823 13.9939 106.662C13.9939 106.501 14.1244 106.37 14.2854 106.37C14.4464 106.37 14.577 106.501 14.577 106.662C14.577 106.823 14.4464 106.953 14.2854 106.953Z" fill="white" fill-opacity="0.6"/>
<path d="M13.1193 106.953C12.9582 106.953 12.8277 106.823 12.8277 106.662C12.8277 106.501 12.9582 106.37 13.1193 106.37C13.2803 106.37 13.4108 106.501 13.4108 106.662C13.4108 106.823 13.2803 106.953 13.1193 106.953Z" fill="white" fill-opacity="0.6"/>
<path d="M11.9531 106.953C11.7921 106.953 11.6615 106.823 11.6615 106.662C11.6615 106.501 11.7921 106.37 11.9531 106.37C12.1141 106.37 12.2446 106.501 12.2446 106.662C12.2446 106.823 12.1141 106.953 11.9531 106.953Z" fill="white" fill-opacity="0.6"/>
<path d="M10.7869 106.953C10.6259 106.953 10.4953 106.823 10.4953 106.662C10.4953 106.501 10.6259 106.37 10.7869 106.37C10.9479 106.37 11.0784 106.501 11.0784 106.662C11.0784 106.823 10.9479 106.953 10.7869 106.953Z" fill="white" fill-opacity="0.6"/>
<path d="M9.62071 106.953C9.45969 106.953 9.32916 106.823 9.32916 106.662C9.32916 106.501 9.45969 106.37 9.62071 106.37C9.78173 106.37 9.91225 106.501 9.91225 106.662C9.91225 106.823 9.78173 106.953 9.62071 106.953Z" fill="white" fill-opacity="0.6"/>
<path d="M9.62071 108.12C9.45969 108.12 9.32916 107.989 9.32916 107.828C9.32916 107.667 9.45969 107.536 9.62071 107.536C9.78173 107.536 9.91225 107.667 9.91225 107.828C9.91225 107.989 9.78173 108.12 9.62071 108.12Z" fill="white" fill-opacity="0.6"/>
<path d="M14.2854 108.12C14.1244 108.12 13.9939 107.989 13.9939 107.828C13.9939 107.667 14.1244 107.536 14.2854 107.536C14.4464 107.536 14.577 107.667 14.577 107.828C14.577 107.989 14.4464 108.12 14.2854 108.12Z" fill="white" fill-opacity="0.6"/>
<path d="M11.9531 108.12C11.7921 108.12 11.6615 107.989 11.6615 107.828C11.6615 107.667 11.7921 107.536 11.9531 107.536C12.1141 107.536 12.2446 107.667 12.2446 107.828C12.2446 107.989 12.1141 108.12 11.9531 108.12Z" fill="white" fill-opacity="0.6"/>
<path d="M14.2854 109.286C14.1244 109.286 13.9939 109.155 13.9939 108.994C13.9939 108.833 14.1244 108.703 14.2854 108.703C14.4464 108.703 14.577 108.833 14.577 108.994C14.577 109.155 14.4464 109.286 14.2854 109.286Z" fill="white" fill-opacity="0.6"/>
<path d="M13.1193 109.286C12.9582 109.286 12.8277 109.155 12.8277 108.994C12.8277 108.833 12.9582 108.703 13.1193 108.703C13.2803 108.703 13.4108 108.833 13.4108 108.994C13.4108 109.155 13.2803 109.286 13.1193 109.286Z" fill="white" fill-opacity="0.6"/>
<path d="M11.9531 109.286C11.7921 109.286 11.6615 109.155 11.6615 108.994C11.6615 108.833 11.7921 108.703 11.9531 108.703C12.1141 108.703 12.2446 108.833 12.2446 108.994C12.2446 109.155 12.1141 109.286 11.9531 109.286Z" fill="white" fill-opacity="0.6"/>
<path d="M10.7869 109.286C10.6259 109.286 10.4953 109.155 10.4953 108.994C10.4953 108.833 10.6259 108.703 10.7869 108.703C10.9479 108.703 11.0784 108.833 11.0784 108.994C11.0784 109.155 10.9479 109.286 10.7869 109.286Z" fill="white" fill-opacity="0.6"/>
<path d="M9.62071 109.286C9.45969 109.286 9.32916 109.155 9.32916 108.994C9.32916 108.833 9.45969 108.703 9.62071 108.703C9.78173 108.703 9.91225 108.833 9.91225 108.994C9.91225 109.155 9.78173 109.286 9.62071 109.286Z" fill="white" fill-opacity="0.6"/>
<path d="M14.2854 115.117C14.1244 115.117 13.9939 114.986 13.9939 114.825C13.9939 114.664 14.1244 114.534 14.2854 114.534C14.4464 114.534 14.577 114.664 14.577 114.825C14.577 114.986 14.4464 115.117 14.2854 115.117Z" fill="white" fill-opacity="0.6"/>
<path d="M13.1193 115.117C12.9582 115.117 12.8277 114.986 12.8277 114.825C12.8277 114.664 12.9582 114.534 13.1193 114.534C13.2803 114.534 13.4108 114.664 13.4108 114.825C13.4108 114.986 13.2803 115.117 13.1193 115.117Z" fill="white" fill-opacity="0.6"/>
<path d="M11.9531 115.117C11.7921 115.117 11.6615 114.986 11.6615 114.825C11.6615 114.664 11.7921 114.534 11.9531 114.534C12.1141 114.534 12.2446 114.664 12.2446 114.825C12.2446 114.986 12.1141 115.117 11.9531 115.117Z" fill="white" fill-opacity="0.6"/>
<path d="M10.7869 115.117C10.6259 115.117 10.4953 114.986 10.4953 114.825C10.4953 114.664 10.6259 114.534 10.7869 114.534C10.9479 114.534 11.0784 114.664 11.0784 114.825C11.0784 114.986 10.9479 115.117 10.7869 115.117Z" fill="white" fill-opacity="0.6"/>
<path d="M9.62071 115.117C9.45969 115.117 9.32916 114.986 9.32916 114.825C9.32916 114.664 9.45969 114.534 9.62071 114.534C9.78173 114.534 9.91225 114.664 9.91225 114.825C9.91225 114.986 9.78173 115.117 9.62071 115.117Z" fill="white" fill-opacity="0.6"/>
<path d="M9.62071 116.283C9.45969 116.283 9.32916 116.152 9.32916 115.991C9.32916 115.83 9.45969 115.7 9.62071 115.7C9.78173 115.7 9.91225 115.83 9.91225 115.991C9.91225 116.152 9.78173 116.283 9.62071 116.283Z" fill="white" fill-opacity="0.6"/>
<path d="M14.2854 116.283C14.1244 116.283 13.9939 116.152 13.9939 115.991C13.9939 115.83 14.1244 115.7 14.2854 115.7C14.4464 115.7 14.577 115.83 14.577 115.991C14.577 116.152 14.4464 116.283 14.2854 116.283Z" fill="white" fill-opacity="0.6"/>
<path d="M11.9531 116.283C11.7921 116.283 11.6615 116.152 11.6615 115.991C11.6615 115.83 11.7921 115.7 11.9531 115.7C12.1141 115.7 12.2446 115.83 12.2446 115.991C12.2446 116.152 12.1141 116.283 11.9531 116.283Z" fill="white" fill-opacity="0.6"/>
<path d="M14.2854 117.449C14.1244 117.449 13.9939 117.318 13.9939 117.157C13.9939 116.996 14.1244 116.866 14.2854 116.866C14.4464 116.866 14.577 116.996 14.577 117.157C14.577 117.318 14.4464 117.449 14.2854 117.449Z" fill="white" fill-opacity="0.6"/>
<path d="M13.1193 117.449C12.9582 117.449 12.8277 117.318 12.8277 117.157C12.8277 116.996 12.9582 116.866 13.1193 116.866C13.2803 116.866 13.4108 116.996 13.4108 117.157C13.4108 117.318 13.2803 117.449 13.1193 117.449Z" fill="white" fill-opacity="0.6"/>
<path d="M11.9531 117.449C11.7921 117.449 11.6615 117.318 11.6615 117.157C11.6615 116.996 11.7921 116.866 11.9531 116.866C12.1141 116.866 12.2446 116.996 12.2446 117.157C12.2446 117.318 12.1141 117.449 11.9531 117.449Z" fill="white" fill-opacity="0.6"/>
<path d="M10.7869 117.449C10.6259 117.449 10.4953 117.318 10.4953 117.157C10.4953 116.996 10.6259 116.866 10.7869 116.866C10.9479 116.866 11.0784 116.996 11.0784 117.157C11.0784 117.318 10.9479 117.449 10.7869 117.449Z" fill="white" fill-opacity="0.6"/>
<path d="M9.62071 117.449C9.45969 117.449 9.32916 117.318 9.32916 117.157C9.32916 116.996 9.45969 116.866 9.62071 116.866C9.78173 116.866 9.91225 116.996 9.91225 117.157C9.91225 117.318 9.78173 117.449 9.62071 117.449Z" fill="white" fill-opacity="0.6"/>
<path d="M14.2854 123.28C14.1244 123.28 13.9939 123.149 13.9939 122.988C13.9939 122.827 14.1244 122.697 14.2854 122.697C14.4464 122.697 14.577 122.827 14.577 122.988C14.577 123.149 14.4464 123.28 14.2854 123.28Z" fill="white" fill-opacity="0.6"/>
<path d="M13.1193 123.28C12.9582 123.28 12.8277 123.149 12.8277 122.988C12.8277 122.827 12.9582 122.697 13.1193 122.697C13.2803 122.697 13.4108 122.827 13.4108 122.988C13.4108 123.149 13.2803 123.28 13.1193 123.28Z" fill="white" fill-opacity="0.6"/>
<path d="M11.9531 123.28C11.7921 123.28 11.6615 123.149 11.6615 122.988C11.6615 122.827 11.7921 122.697 11.9531 122.697C12.1141 122.697 12.2446 122.827 12.2446 122.988C12.2446 123.149 12.1141 123.28 11.9531 123.28Z" fill="white" fill-opacity="0.6"/>
<path d="M10.7869 123.28C10.6259 123.28 10.4953 123.149 10.4953 122.988C10.4953 122.827 10.6259 122.697 10.7869 122.697C10.9479 122.697 11.0784 122.827 11.0784 122.988C11.0784 123.149 10.9479 123.28 10.7869 123.28Z" fill="white" fill-opacity="0.6"/>
<path d="M9.62071 123.28C9.45969 123.28 9.32916 123.149 9.32916 122.988C9.32916 122.827 9.45969 122.697 9.62071 122.697C9.78173 122.697 9.91225 122.827 9.91225 122.988C9.91225 123.149 9.78173 123.28 9.62071 123.28Z" fill="white" fill-opacity="0.6"/>
<path d="M9.62071 124.446C9.45969 124.446 9.32916 124.316 9.32916 124.155C9.32916 123.994 9.45969 123.863 9.62071 123.863C9.78173 123.863 9.91225 123.994 9.91225 124.155C9.91225 124.316 9.78173 124.446 9.62071 124.446Z" fill="white" fill-opacity="0.6"/>
<path d="M14.2854 124.446C14.1244 124.446 13.9939 124.316 13.9939 124.155C13.9939 123.994 14.1244 123.863 14.2854 123.863C14.4464 123.863 14.577 123.994 14.577 124.155C14.577 124.316 14.4464 124.446 14.2854 124.446Z" fill="white" fill-opacity="0.6"/>
<path d="M11.9531 124.446C11.7921 124.446 11.6615 124.316 11.6615 124.155C11.6615 123.994 11.7921 123.863 11.9531 123.863C12.1141 123.863 12.2446 123.994 12.2446 124.155C12.2446 124.316 12.1141 124.446 11.9531 124.446Z" fill="white" fill-opacity="0.6"/>
<path d="M14.2854 125.612C14.1244 125.612 13.9939 125.482 13.9939 125.321C13.9939 125.16 14.1244 125.029 14.2854 125.029C14.4464 125.029 14.577 125.16 14.577 125.321C14.577 125.482 14.4464 125.612 14.2854 125.612Z" fill="white" fill-opacity="0.6"/>
<path d="M13.1193 125.612C12.9582 125.612 12.8277 125.482 12.8277 125.321C12.8277 125.16 12.9582 125.029 13.1193 125.029C13.2803 125.029 13.4108 125.16 13.4108 125.321C13.4108 125.482 13.2803 125.612 13.1193 125.612Z" fill="white" fill-opacity="0.6"/>
<path d="M11.9531 125.612C11.7921 125.612 11.6615 125.482 11.6615 125.321C11.6615 125.16 11.7921 125.029 11.9531 125.029C12.1141 125.029 12.2446 125.16 12.2446 125.321C12.2446 125.482 12.1141 125.612 11.9531 125.612Z" fill="white" fill-opacity="0.6"/>
<path d="M10.7869 125.612C10.6259 125.612 10.4953 125.482 10.4953 125.321C10.4953 125.16 10.6259 125.029 10.7869 125.029C10.9479 125.029 11.0784 125.16 11.0784 125.321C11.0784 125.482 10.9479 125.612 10.7869 125.612Z" fill="white" fill-opacity="0.6"/>
<path d="M9.62071 125.612C9.45969 125.612 9.32916 125.482 9.32916 125.321C9.32916 125.16 9.45969 125.029 9.62071 125.029C9.78173 125.029 9.91225 125.16 9.91225 125.321C9.91225 125.482 9.78173 125.612 9.62071 125.612Z" fill="white" fill-opacity="0.6"/>
<path d="M14.2854 101.706C14.1244 101.706 13.9939 101.575 13.9939 101.414C13.9939 101.253 14.1244 101.122 14.2854 101.122C14.4464 101.122 14.577 101.253 14.577 101.414C14.577 101.575 14.4464 101.706 14.2854 101.706Z" fill="white" fill-opacity="0.6"/>
<path d="M13.1193 101.706C12.9582 101.706 12.8277 101.575 12.8277 101.414C12.8277 101.253 12.9582 101.122 13.1193 101.122C13.2803 101.122 13.4108 101.253 13.4108 101.414C13.4108 101.575 13.2803 101.706 13.1193 101.706Z" fill="white" fill-opacity="0.6"/>
<path d="M11.9531 101.706C11.7921 101.706 11.6615 101.575 11.6615 101.414C11.6615 101.253 11.7921 101.122 11.9531 101.122C12.1141 101.122 12.2446 101.253 12.2446 101.414C12.2446 101.575 12.1141 101.706 11.9531 101.706Z" fill="white" fill-opacity="0.6"/>
<path d="M10.7869 101.706C10.6259 101.706 10.4953 101.575 10.4953 101.414C10.4953 101.253 10.6259 101.122 10.7869 101.122C10.9479 101.122 11.0784 101.253 11.0784 101.414C11.0784 101.575 10.9479 101.706 10.7869 101.706Z" fill="white" fill-opacity="0.6"/>
<path d="M9.62071 101.706C9.45969 101.706 9.32916 101.575 9.32916 101.414C9.32916 101.253 9.45969 101.122 9.62071 101.122C9.78173 101.122 9.91225 101.253 9.91225 101.414C9.91225 101.575 9.78173 101.706 9.62071 101.706Z" fill="white" fill-opacity="0.6"/>
<path d="M9.62071 102.872C9.45969 102.872 9.32916 102.741 9.32916 102.58C9.32916 102.419 9.45969 102.289 9.62071 102.289C9.78173 102.289 9.91225 102.419 9.91225 102.58C9.91225 102.741 9.78173 102.872 9.62071 102.872Z" fill="white" fill-opacity="0.6"/>
<path d="M14.2854 102.872C14.1244 102.872 13.9939 102.741 13.9939 102.58C13.9939 102.419 14.1244 102.289 14.2854 102.289C14.4464 102.289 14.577 102.419 14.577 102.58C14.577 102.741 14.4464 102.872 14.2854 102.872Z" fill="white" fill-opacity="0.6"/>
<path d="M11.9531 102.872C11.7921 102.872 11.6615 102.741 11.6615 102.58C11.6615 102.419 11.7921 102.289 11.9531 102.289C12.1141 102.289 12.2446 102.419 12.2446 102.58C12.2446 102.741 12.1141 102.872 11.9531 102.872Z" fill="white" fill-opacity="0.6"/>
<path d="M14.2854 104.038C14.1244 104.038 13.9939 103.907 13.9939 103.746C13.9939 103.585 14.1244 103.455 14.2854 103.455C14.4464 103.455 14.577 103.585 14.577 103.746C14.577 103.907 14.4464 104.038 14.2854 104.038Z" fill="white" fill-opacity="0.6"/>
<path d="M13.1193 104.038C12.9582 104.038 12.8277 103.907 12.8277 103.746C12.8277 103.585 12.9582 103.455 13.1193 103.455C13.2803 103.455 13.4108 103.585 13.4108 103.746C13.4108 103.907 13.2803 104.038 13.1193 104.038Z" fill="white" fill-opacity="0.6"/>
<path d="M11.9531 104.038C11.7921 104.038 11.6615 103.907 11.6615 103.746C11.6615 103.585 11.7921 103.455 11.9531 103.455C12.1141 103.455 12.2446 103.585 12.2446 103.746C12.2446 103.907 12.1141 104.038 11.9531 104.038Z" fill="white" fill-opacity="0.6"/>
<path d="M10.7869 104.038C10.6259 104.038 10.4953 103.907 10.4953 103.746C10.4953 103.585 10.6259 103.455 10.7869 103.455C10.9479 103.455 11.0784 103.585 11.0784 103.746C11.0784 103.907 10.9479 104.038 10.7869 104.038Z" fill="white" fill-opacity="0.6"/>
<path d="M9.62071 104.038C9.45969 104.038 9.32916 103.907 9.32916 103.746C9.32916 103.585 9.45969 103.455 9.62071 103.455C9.78173 103.455 9.91225 103.585 9.91225 103.746C9.91225 103.907 9.78173 104.038 9.62071 104.038Z" fill="white" fill-opacity="0.6"/>
<path d="M14.2854 111.035C14.1244 111.035 13.9939 110.904 13.9939 110.743C13.9939 110.582 14.1244 110.452 14.2854 110.452C14.4464 110.452 14.577 110.582 14.577 110.743C14.577 110.904 14.4464 111.035 14.2854 111.035Z" fill="white" fill-opacity="0.6"/>
<path d="M13.1193 111.035C12.9582 111.035 12.8277 110.904 12.8277 110.743C12.8277 110.582 12.9582 110.452 13.1193 110.452C13.2803 110.452 13.4108 110.582 13.4108 110.743C13.4108 110.904 13.2803 111.035 13.1193 111.035Z" fill="white" fill-opacity="0.6"/>
<path d="M11.9531 111.035C11.7921 111.035 11.6615 110.904 11.6615 110.743C11.6615 110.582 11.7921 110.452 11.9531 110.452C12.1141 110.452 12.2446 110.582 12.2446 110.743C12.2446 110.904 12.1141 111.035 11.9531 111.035Z" fill="white" fill-opacity="0.6"/>
<path d="M10.7869 111.035C10.6259 111.035 10.4953 110.904 10.4953 110.743C10.4953 110.582 10.6259 110.452 10.7869 110.452C10.9479 110.452 11.0784 110.582 11.0784 110.743C11.0784 110.904 10.9479 111.035 10.7869 111.035Z" fill="white" fill-opacity="0.6"/>
<path d="M9.62071 111.035C9.45969 111.035 9.32916 110.904 9.32916 110.743C9.32916 110.582 9.45969 110.452 9.62071 110.452C9.78173 110.452 9.91225 110.582 9.91225 110.743C9.91225 110.904 9.78173 111.035 9.62071 111.035Z" fill="white" fill-opacity="0.6"/>
<path d="M9.62071 112.201C9.45969 112.201 9.32916 112.071 9.32916 111.91C9.32916 111.749 9.45969 111.618 9.62071 111.618C9.78173 111.618 9.91225 111.749 9.91225 111.91C9.91225 112.071 9.78173 112.201 9.62071 112.201Z" fill="white" fill-opacity="0.6"/>
<path d="M14.2854 112.201C14.1244 112.201 13.9939 112.071 13.9939 111.91C13.9939 111.749 14.1244 111.618 14.2854 111.618C14.4464 111.618 14.577 111.749 14.577 111.91C14.577 112.071 14.4464 112.201 14.2854 112.201Z" fill="white" fill-opacity="0.6"/>
<path d="M11.9531 112.201C11.7921 112.201 11.6615 112.071 11.6615 111.91C11.6615 111.749 11.7921 111.618 11.9531 111.618C12.1141 111.618 12.2446 111.749 12.2446 111.91C12.2446 112.071 12.1141 112.201 11.9531 112.201Z" fill="white" fill-opacity="0.6"/>
<path d="M14.2854 113.367C14.1244 113.367 13.9939 113.237 13.9939 113.076C13.9939 112.915 14.1244 112.784 14.2854 112.784C14.4464 112.784 14.577 112.915 14.577 113.076C14.577 113.237 14.4464 113.367 14.2854 113.367Z" fill="white" fill-opacity="0.6"/>
<path d="M13.1193 113.367C12.9582 113.367 12.8277 113.237 12.8277 113.076C12.8277 112.915 12.9582 112.784 13.1193 112.784C13.2803 112.784 13.4108 112.915 13.4108 113.076C13.4108 113.237 13.2803 113.367 13.1193 113.367Z" fill="white" fill-opacity="0.6"/>
<path d="M11.9531 113.367C11.7921 113.367 11.6615 113.237 11.6615 113.076C11.6615 112.915 11.7921 112.784 11.9531 112.784C12.1141 112.784 12.2446 112.915 12.2446 113.076C12.2446 113.237 12.1141 113.367 11.9531 113.367Z" fill="white" fill-opacity="0.6"/>
<path d="M10.7869 113.367C10.6259 113.367 10.4953 113.237 10.4953 113.076C10.4953 112.915 10.6259 112.784 10.7869 112.784C10.9479 112.784 11.0784 112.915 11.0784 113.076C11.0784 113.237 10.9479 113.367 10.7869 113.367Z" fill="white" fill-opacity="0.6"/>
<path d="M9.62071 113.367C9.45969 113.367 9.32916 113.237 9.32916 113.076C9.32916 112.915 9.45969 112.784 9.62071 112.784C9.78173 112.784 9.91225 112.915 9.91225 113.076C9.91225 113.237 9.78173 113.367 9.62071 113.367Z" fill="white" fill-opacity="0.6"/>
<path d="M14.2854 119.198C14.1244 119.198 13.9939 119.068 13.9939 118.907C13.9939 118.746 14.1244 118.615 14.2854 118.615C14.4464 118.615 14.577 118.746 14.577 118.907C14.577 119.068 14.4464 119.198 14.2854 119.198Z" fill="white" fill-opacity="0.6"/>
<path d="M13.1193 119.198C12.9582 119.198 12.8277 119.068 12.8277 118.907C12.8277 118.746 12.9582 118.615 13.1193 118.615C13.2803 118.615 13.4108 118.746 13.4108 118.907C13.4108 119.068 13.2803 119.198 13.1193 119.198Z" fill="white" fill-opacity="0.6"/>
<path d="M11.9531 119.198C11.7921 119.198 11.6615 119.068 11.6615 118.907C11.6615 118.746 11.7921 118.615 11.9531 118.615C12.1141 118.615 12.2446 118.746 12.2446 118.907C12.2446 119.068 12.1141 119.198 11.9531 119.198Z" fill="white" fill-opacity="0.6"/>
<path d="M10.7869 119.198C10.6259 119.198 10.4953 119.068 10.4953 118.907C10.4953 118.746 10.6259 118.615 10.7869 118.615C10.9479 118.615 11.0784 118.746 11.0784 118.907C11.0784 119.068 10.9479 119.198 10.7869 119.198Z" fill="white" fill-opacity="0.6"/>
<path d="M9.62071 119.198C9.45969 119.198 9.32916 119.068 9.32916 118.907C9.32916 118.746 9.45969 118.615 9.62071 118.615C9.78173 118.615 9.91225 118.746 9.91225 118.907C9.91225 119.068 9.78173 119.198 9.62071 119.198Z" fill="white" fill-opacity="0.6"/>
<path d="M9.62071 120.364C9.45969 120.364 9.32916 120.234 9.32916 120.073C9.32916 119.912 9.45969 119.781 9.62071 119.781C9.78173 119.781 9.91225 119.912 9.91225 120.073C9.91225 120.234 9.78173 120.364 9.62071 120.364Z" fill="white" fill-opacity="0.6"/>
<path d="M14.2854 120.364C14.1244 120.364 13.9939 120.234 13.9939 120.073C13.9939 119.912 14.1244 119.781 14.2854 119.781C14.4464 119.781 14.577 119.912 14.577 120.073C14.577 120.234 14.4464 120.364 14.2854 120.364Z" fill="white" fill-opacity="0.6"/>
<path d="M11.9531 120.364C11.7921 120.364 11.6615 120.234 11.6615 120.073C11.6615 119.912 11.7921 119.781 11.9531 119.781C12.1141 119.781 12.2446 119.912 12.2446 120.073C12.2446 120.234 12.1141 120.364 11.9531 120.364Z" fill="white" fill-opacity="0.6"/>
<path d="M14.2854 121.531C14.1244 121.531 13.9939 121.4 13.9939 121.239C13.9939 121.078 14.1244 120.948 14.2854 120.948C14.4464 120.948 14.577 121.078 14.577 121.239C14.577 121.4 14.4464 121.531 14.2854 121.531Z" fill="white" fill-opacity="0.6"/>
<path d="M13.1193 121.531C12.9582 121.531 12.8277 121.4 12.8277 121.239C12.8277 121.078 12.9582 120.948 13.1193 120.948C13.2803 120.948 13.4108 121.078 13.4108 121.239C13.4108 121.4 13.2803 121.531 13.1193 121.531Z" fill="white" fill-opacity="0.6"/>
<path d="M11.9531 121.531C11.7921 121.531 11.6615 121.4 11.6615 121.239C11.6615 121.078 11.7921 120.948 11.9531 120.948C12.1141 120.948 12.2446 121.078 12.2446 121.239C12.2446 121.4 12.1141 121.531 11.9531 121.531Z" fill="white" fill-opacity="0.6"/>
<path d="M10.7869 121.531C10.6259 121.531 10.4953 121.4 10.4953 121.239C10.4953 121.078 10.6259 120.948 10.7869 120.948C10.9479 120.948 11.0784 121.078 11.0784 121.239C11.0784 121.4 10.9479 121.531 10.7869 121.531Z" fill="white" fill-opacity="0.6"/>
<path d="M9.62071 121.531C9.45969 121.531 9.32916 121.4 9.32916 121.239C9.32916 121.078 9.45969 120.948 9.62071 120.948C9.78173 120.948 9.91225 121.078 9.91225 121.239C9.91225 121.4 9.78173 121.531 9.62071 121.531Z" fill="white" fill-opacity="0.6"/>
<path d="M14.2854 127.362C14.1244 127.362 13.9939 127.231 13.9939 127.07C13.9939 126.909 14.1244 126.778 14.2854 126.778C14.4464 126.778 14.577 126.909 14.577 127.07C14.577 127.231 14.4464 127.362 14.2854 127.362Z" fill="white" fill-opacity="0.6"/>
<path d="M13.1193 127.362C12.9582 127.362 12.8277 127.231 12.8277 127.07C12.8277 126.909 12.9582 126.778 13.1193 126.778C13.2803 126.778 13.4108 126.909 13.4108 127.07C13.4108 127.231 13.2803 127.362 13.1193 127.362Z" fill="white" fill-opacity="0.6"/>
<path d="M11.9531 127.362C11.7921 127.362 11.6615 127.231 11.6615 127.07C11.6615 126.909 11.7921 126.778 11.9531 126.778C12.1141 126.778 12.2446 126.909 12.2446 127.07C12.2446 127.231 12.1141 127.362 11.9531 127.362Z" fill="white" fill-opacity="0.6"/>
<path d="M10.7869 127.362C10.6259 127.362 10.4953 127.231 10.4953 127.07C10.4953 126.909 10.6259 126.778 10.7869 126.778C10.9479 126.778 11.0784 126.909 11.0784 127.07C11.0784 127.231 10.9479 127.362 10.7869 127.362Z" fill="white" fill-opacity="0.6"/>
<path d="M9.62071 127.362C9.45969 127.362 9.32916 127.231 9.32916 127.07C9.32916 126.909 9.45969 126.778 9.62071 126.778C9.78173 126.778 9.91225 126.909 9.91225 127.07C9.91225 127.231 9.78173 127.362 9.62071 127.362Z" fill="white" fill-opacity="0.6"/>
<path d="M9.62071 128.528C9.45969 128.528 9.32916 128.397 9.32916 128.236C9.32916 128.075 9.45969 127.945 9.62071 127.945C9.78173 127.945 9.91225 128.075 9.91225 128.236C9.91225 128.397 9.78173 128.528 9.62071 128.528Z" fill="white" fill-opacity="0.6"/>
<path d="M14.2854 128.528C14.1244 128.528 13.9939 128.397 13.9939 128.236C13.9939 128.075 14.1244 127.945 14.2854 127.945C14.4464 127.945 14.577 128.075 14.577 128.236C14.577 128.397 14.4464 128.528 14.2854 128.528Z" fill="white" fill-opacity="0.6"/>
<path d="M11.9531 128.528C11.7921 128.528 11.6615 128.397 11.6615 128.236C11.6615 128.075 11.7921 127.945 11.9531 127.945C12.1141 127.945 12.2446 128.075 12.2446 128.236C12.2446 128.397 12.1141 128.528 11.9531 128.528Z" fill="white" fill-opacity="0.6"/>
<path d="M14.2854 129.694C14.1244 129.694 13.9939 129.563 13.9939 129.402C13.9939 129.241 14.1244 129.111 14.2854 129.111C14.4464 129.111 14.577 129.241 14.577 129.402C14.577 129.563 14.4464 129.694 14.2854 129.694Z" fill="white" fill-opacity="0.6"/>
<path d="M13.1193 129.694C12.9582 129.694 12.8277 129.563 12.8277 129.402C12.8277 129.241 12.9582 129.111 13.1193 129.111C13.2803 129.111 13.4108 129.241 13.4108 129.402C13.4108 129.563 13.2803 129.694 13.1193 129.694Z" fill="white" fill-opacity="0.6"/>
<path d="M11.9531 129.694C11.7921 129.694 11.6615 129.563 11.6615 129.402C11.6615 129.241 11.7921 129.111 11.9531 129.111C12.1141 129.111 12.2446 129.241 12.2446 129.402C12.2446 129.563 12.1141 129.694 11.9531 129.694Z" fill="white" fill-opacity="0.6"/>
<path d="M10.7869 129.694C10.6259 129.694 10.4953 129.563 10.4953 129.402C10.4953 129.241 10.6259 129.111 10.7869 129.111C10.9479 129.111 11.0784 129.241 11.0784 129.402C11.0784 129.563 10.9479 129.694 10.7869 129.694Z" fill="white" fill-opacity="0.6"/>
<path d="M9.62071 129.694C9.45969 129.694 9.32916 129.563 9.32916 129.402C9.32916 129.241 9.45969 129.111 9.62071 129.111C9.78173 129.111 9.91225 129.241 9.91225 129.402C9.91225 129.563 9.78173 129.694 9.62071 129.694Z" fill="white" fill-opacity="0.6"/>
<path d="M9.62071 56.7056C9.78173 56.7056 9.91225 56.8361 9.91225 56.9971C9.91225 57.1581 9.78173 57.2887 9.62071 57.2887C9.45969 57.2887 9.32916 57.1581 9.32916 56.9971C9.32916 56.8361 9.45969 56.7056 9.62071 56.7056Z" fill="white" fill-opacity="0.6"/>
<path d="M10.7869 56.7056C10.9479 56.7056 11.0784 56.8361 11.0784 56.9971C11.0784 57.1581 10.9479 57.2887 10.7869 57.2887C10.6259 57.2887 10.4953 57.1581 10.4953 56.9971C10.4953 56.8361 10.6259 56.7056 10.7869 56.7056Z" fill="white" fill-opacity="0.6"/>
<path d="M11.9531 56.7056C12.1141 56.7056 12.2446 56.8361 12.2446 56.9971C12.2446 57.1581 12.1141 57.2887 11.9531 57.2887C11.7921 57.2887 11.6615 57.1581 11.6615 56.9971C11.6615 56.8361 11.7921 56.7056 11.9531 56.7056Z" fill="white" fill-opacity="0.6"/>
<path d="M13.1193 56.7056C13.2803 56.7056 13.4108 56.8361 13.4108 56.9971C13.4108 57.1581 13.2803 57.2887 13.1193 57.2887C12.9582 57.2887 12.8277 57.1581 12.8277 56.9971C12.8277 56.8361 12.9582 56.7056 13.1193 56.7056Z" fill="white" fill-opacity="0.6"/>
<path d="M14.2854 56.7056C14.4464 56.7056 14.577 56.8361 14.577 56.9971C14.577 57.1581 14.4464 57.2887 14.2854 57.2887C14.1244 57.2887 13.9939 57.1581 13.9939 56.9971C13.9939 56.8361 14.1244 56.7056 14.2854 56.7056Z" fill="white" fill-opacity="0.6"/>
<path d="M14.2854 55.5394C14.4464 55.5394 14.577 55.6699 14.577 55.8309C14.577 55.9919 14.4464 56.1225 14.2854 56.1225C14.1244 56.1225 13.9939 55.9919 13.9939 55.8309C13.9939 55.6699 14.1244 55.5394 14.2854 55.5394Z" fill="white" fill-opacity="0.6"/>
<path d="M9.62071 55.5394C9.78173 55.5394 9.91225 55.6699 9.91225 55.8309C9.91225 55.9919 9.78173 56.1225 9.62071 56.1225C9.45969 56.1225 9.32916 55.9919 9.32916 55.8309C9.32916 55.6699 9.45969 55.5394 9.62071 55.5394Z" fill="white" fill-opacity="0.6"/>
<path d="M11.9531 55.5394C12.1141 55.5394 12.2446 55.6699 12.2446 55.8309C12.2446 55.9919 12.1141 56.1225 11.9531 56.1225C11.7921 56.1225 11.6615 55.9919 11.6615 55.8309C11.6615 55.6699 11.7921 55.5394 11.9531 55.5394Z" fill="white" fill-opacity="0.6"/>
<path d="M9.62071 54.3732C9.78173 54.3732 9.91225 54.5037 9.91225 54.6648C9.91225 54.8258 9.78173 54.9563 9.62071 54.9563C9.45969 54.9563 9.32916 54.8258 9.32916 54.6648C9.32916 54.5037 9.45969 54.3732 9.62071 54.3732Z" fill="white" fill-opacity="0.6"/>
<path d="M10.7869 54.3732C10.9479 54.3732 11.0784 54.5037 11.0784 54.6648C11.0784 54.8258 10.9479 54.9563 10.7869 54.9563C10.6259 54.9563 10.4953 54.8258 10.4953 54.6648C10.4953 54.5037 10.6259 54.3732 10.7869 54.3732Z" fill="white" fill-opacity="0.6"/>
<path d="M11.9531 54.3732C12.1141 54.3732 12.2446 54.5037 12.2446 54.6648C12.2446 54.8258 12.1141 54.9563 11.9531 54.9563C11.7921 54.9563 11.6615 54.8258 11.6615 54.6648C11.6615 54.5037 11.7921 54.3732 11.9531 54.3732Z" fill="white" fill-opacity="0.6"/>
<path d="M13.1193 54.3732C13.2803 54.3732 13.4108 54.5037 13.4108 54.6648C13.4108 54.8258 13.2803 54.9563 13.1193 54.9563C12.9582 54.9563 12.8277 54.8258 12.8277 54.6648C12.8277 54.5037 12.9582 54.3732 13.1193 54.3732Z" fill="white" fill-opacity="0.6"/>
<path d="M14.2854 54.3732C14.4464 54.3732 14.577 54.5037 14.577 54.6648C14.577 54.8258 14.4464 54.9563 14.2854 54.9563C14.1244 54.9563 13.9939 54.8258 13.9939 54.6648C13.9939 54.5037 14.1244 54.3732 14.2854 54.3732Z" fill="white" fill-opacity="0.6"/>
<path d="M9.62071 52.6239C9.78173 52.6239 9.91225 52.7545 9.91225 52.9155C9.91225 53.0765 9.78173 53.207 9.62071 53.207C9.45969 53.207 9.32916 53.0765 9.32916 52.9155C9.32916 52.7545 9.45969 52.6239 9.62071 52.6239Z" fill="white" fill-opacity="0.6"/>
<path d="M10.7869 52.6239C10.9479 52.6239 11.0784 52.7545 11.0784 52.9155C11.0784 53.0765 10.9479 53.207 10.7869 53.207C10.6259 53.207 10.4953 53.0765 10.4953 52.9155C10.4953 52.7545 10.6259 52.6239 10.7869 52.6239Z" fill="white" fill-opacity="0.6"/>
<path d="M11.9531 52.6239C12.1141 52.6239 12.2446 52.7545 12.2446 52.9155C12.2446 53.0765 12.1141 53.207 11.9531 53.207C11.7921 53.207 11.6615 53.0765 11.6615 52.9155C11.6615 52.7545 11.7921 52.6239 11.9531 52.6239Z" fill="white" fill-opacity="0.6"/>
<path d="M13.1193 52.6239C13.2803 52.6239 13.4108 52.7545 13.4108 52.9155C13.4108 53.0765 13.2803 53.207 13.1193 53.207C12.9582 53.207 12.8277 53.0765 12.8277 52.9155C12.8277 52.7545 12.9582 52.6239 13.1193 52.6239Z" fill="white" fill-opacity="0.6"/>
<path d="M14.2854 52.6239C14.4464 52.6239 14.577 52.7545 14.577 52.9155C14.577 53.0765 14.4464 53.207 14.2854 53.207C14.1244 53.207 13.9939 53.0765 13.9939 52.9155C13.9939 52.7545 14.1244 52.6239 14.2854 52.6239Z" fill="white" fill-opacity="0.6"/>
<path d="M14.2854 51.4578C14.4464 51.4578 14.577 51.5883 14.577 51.7493C14.577 51.9103 14.4464 52.0408 14.2854 52.0408C14.1244 52.0408 13.9939 51.9103 13.9939 51.7493C13.9939 51.5883 14.1244 51.4578 14.2854 51.4578Z" fill="white" fill-opacity="0.6"/>
<path d="M9.62071 51.4578C9.78173 51.4578 9.91225 51.5883 9.91225 51.7493C9.91225 51.9103 9.78173 52.0408 9.62071 52.0408C9.45969 52.0408 9.32916 51.9103 9.32916 51.7493C9.32916 51.5883 9.45969 51.4578 9.62071 51.4578Z" fill="white" fill-opacity="0.6"/>
<path d="M11.9531 51.4578C12.1141 51.4578 12.2446 51.5883 12.2446 51.7493C12.2446 51.9103 12.1141 52.0408 11.9531 52.0408C11.7921 52.0408 11.6615 51.9103 11.6615 51.7493C11.6615 51.5883 11.7921 51.4578 11.9531 51.4578Z" fill="white" fill-opacity="0.6"/>
<path d="M9.62071 50.2916C9.78173 50.2916 9.91225 50.4221 9.91225 50.5831C9.91225 50.7441 9.78173 50.8747 9.62071 50.8747C9.45969 50.8747 9.32916 50.7441 9.32916 50.5831C9.32916 50.4221 9.45969 50.2916 9.62071 50.2916Z" fill="white" fill-opacity="0.6"/>
<path d="M10.7869 50.2916C10.9479 50.2916 11.0784 50.4221 11.0784 50.5831C11.0784 50.7441 10.9479 50.8747 10.7869 50.8747C10.6259 50.8747 10.4953 50.7441 10.4953 50.5831C10.4953 50.4221 10.6259 50.2916 10.7869 50.2916Z" fill="white" fill-opacity="0.6"/>
<path d="M11.9531 50.2916C12.1141 50.2916 12.2446 50.4221 12.2446 50.5831C12.2446 50.7441 12.1141 50.8747 11.9531 50.8747C11.7921 50.8747 11.6615 50.7441 11.6615 50.5831C11.6615 50.4221 11.7921 50.2916 11.9531 50.2916Z" fill="white" fill-opacity="0.6"/>
<path d="M13.1193 50.2916C13.2803 50.2916 13.4108 50.4221 13.4108 50.5831C13.4108 50.7441 13.2803 50.8747 13.1193 50.8747C12.9582 50.8747 12.8277 50.7441 12.8277 50.5831C12.8277 50.4221 12.9582 50.2916 13.1193 50.2916Z" fill="white" fill-opacity="0.6"/>
<path d="M14.2854 50.2916C14.4464 50.2916 14.577 50.4221 14.577 50.5831C14.577 50.7441 14.4464 50.8747 14.2854 50.8747C14.1244 50.8747 13.9939 50.7441 13.9939 50.5831C13.9939 50.4221 14.1244 50.2916 14.2854 50.2916Z" fill="white" fill-opacity="0.6"/>
<path d="M9.62071 47.3761C9.78173 47.3761 9.91225 47.5067 9.91225 47.6677C9.91225 47.8287 9.78173 47.9592 9.62071 47.9592C9.45969 47.9592 9.32916 47.8287 9.32916 47.6677C9.32916 47.5067 9.45969 47.3761 9.62071 47.3761Z" fill="white" fill-opacity="0.6"/>
<path d="M10.7869 47.3761C10.9479 47.3761 11.0784 47.5067 11.0784 47.6677C11.0784 47.8287 10.9479 47.9592 10.7869 47.9592C10.6259 47.9592 10.4953 47.8287 10.4953 47.6677C10.4953 47.5067 10.6259 47.3761 10.7869 47.3761Z" fill="white" fill-opacity="0.6"/>
<path d="M11.9531 47.3761C12.1141 47.3761 12.2446 47.5067 12.2446 47.6677C12.2446 47.8287 12.1141 47.9592 11.9531 47.9592C11.7921 47.9592 11.6615 47.8287 11.6615 47.6677C11.6615 47.5067 11.7921 47.3761 11.9531 47.3761Z" fill="white" fill-opacity="0.6"/>
<path d="M13.1193 47.3761C13.2803 47.3761 13.4108 47.5067 13.4108 47.6677C13.4108 47.8287 13.2803 47.9592 13.1193 47.9592C12.9582 47.9592 12.8277 47.8287 12.8277 47.6677C12.8277 47.5067 12.9582 47.3761 13.1193 47.3761Z" fill="white" fill-opacity="0.6"/>
<path d="M14.2854 47.3761C14.4464 47.3761 14.577 47.5067 14.577 47.6677C14.577 47.8287 14.4464 47.9592 14.2854 47.9592C14.1244 47.9592 13.9939 47.8287 13.9939 47.6677C13.9939 47.5067 14.1244 47.3761 14.2854 47.3761Z" fill="white" fill-opacity="0.6"/>
<path d="M14.2854 46.2099C14.4464 46.2099 14.577 46.3405 14.577 46.5015C14.577 46.6625 14.4464 46.793 14.2854 46.793C14.1244 46.793 13.9939 46.6625 13.9939 46.5015C13.9939 46.3405 14.1244 46.2099 14.2854 46.2099Z" fill="white" fill-opacity="0.6"/>
<path d="M9.62071 46.2099C9.78173 46.2099 9.91225 46.3405 9.91225 46.5015C9.91225 46.6625 9.78173 46.793 9.62071 46.793C9.45969 46.793 9.32916 46.6625 9.32916 46.5015C9.32916 46.3405 9.45969 46.2099 9.62071 46.2099Z" fill="white" fill-opacity="0.6"/>
<path d="M11.9531 46.2099C12.1141 46.2099 12.2446 46.3405 12.2446 46.5015C12.2446 46.6625 12.1141 46.793 11.9531 46.793C11.7921 46.793 11.6615 46.6625 11.6615 46.5015C11.6615 46.3405 11.7921 46.2099 11.9531 46.2099Z" fill="white" fill-opacity="0.6"/>
<path d="M9.62071 45.0438C9.78173 45.0438 9.91225 45.1743 9.91225 45.3353C9.91225 45.4963 9.78173 45.6269 9.62071 45.6269C9.45969 45.6269 9.32916 45.4963 9.32916 45.3353C9.32916 45.1743 9.45969 45.0438 9.62071 45.0438Z" fill="white" fill-opacity="0.6"/>
<path d="M10.7869 45.0438C10.9479 45.0438 11.0784 45.1743 11.0784 45.3353C11.0784 45.4963 10.9479 45.6269 10.7869 45.6269C10.6259 45.6269 10.4953 45.4963 10.4953 45.3353C10.4953 45.1743 10.6259 45.0438 10.7869 45.0438Z" fill="white" fill-opacity="0.6"/>
<path d="M11.9531 45.0438C12.1141 45.0438 12.2446 45.1743 12.2446 45.3353C12.2446 45.4963 12.1141 45.6269 11.9531 45.6269C11.7921 45.6269 11.6615 45.4963 11.6615 45.3353C11.6615 45.1743 11.7921 45.0438 11.9531 45.0438Z" fill="white" fill-opacity="0.6"/>
<path d="M13.1193 45.0438C13.2803 45.0438 13.4108 45.1743 13.4108 45.3353C13.4108 45.4963 13.2803 45.6269 13.1193 45.6269C12.9582 45.6269 12.8277 45.4963 12.8277 45.3353C12.8277 45.1743 12.9582 45.0438 13.1193 45.0438Z" fill="white" fill-opacity="0.6"/>
<path d="M14.2854 45.0438C14.4464 45.0438 14.577 45.1743 14.577 45.3353C14.577 45.4963 14.4464 45.6269 14.2854 45.6269C14.1244 45.6269 13.9939 45.4963 13.9939 45.3353C13.9939 45.1743 14.1244 45.0438 14.2854 45.0438Z" fill="white" fill-opacity="0.6"/>
<path d="M9.62071 38.0467C9.78173 38.0467 9.91225 38.1772 9.91225 38.3382C9.91225 38.4992 9.78173 38.6298 9.62071 38.6298C9.45969 38.6298 9.32916 38.4992 9.32916 38.3382C9.32916 38.1772 9.45969 38.0467 9.62071 38.0467Z" fill="white" fill-opacity="0.6"/>
<path d="M10.7869 38.0467C10.9479 38.0467 11.0784 38.1772 11.0784 38.3382C11.0784 38.4992 10.9479 38.6298 10.7869 38.6298C10.6259 38.6298 10.4953 38.4992 10.4953 38.3382C10.4953 38.1772 10.6259 38.0467 10.7869 38.0467Z" fill="white" fill-opacity="0.6"/>
<path d="M11.9531 38.0467C12.1141 38.0467 12.2446 38.1772 12.2446 38.3382C12.2446 38.4992 12.1141 38.6298 11.9531 38.6298C11.7921 38.6298 11.6615 38.4992 11.6615 38.3382C11.6615 38.1772 11.7921 38.0467 11.9531 38.0467Z" fill="white" fill-opacity="0.6"/>
<path d="M13.1193 38.0467C13.2803 38.0467 13.4108 38.1772 13.4108 38.3382C13.4108 38.4992 13.2803 38.6298 13.1193 38.6298C12.9582 38.6298 12.8277 38.4992 12.8277 38.3382C12.8277 38.1772 12.9582 38.0467 13.1193 38.0467Z" fill="white" fill-opacity="0.6"/>
<path d="M14.2854 38.0467C14.4464 38.0467 14.577 38.1772 14.577 38.3382C14.577 38.4992 14.4464 38.6298 14.2854 38.6298C14.1244 38.6298 13.9939 38.4992 13.9939 38.3382C13.9939 38.1772 14.1244 38.0467 14.2854 38.0467Z" fill="white" fill-opacity="0.6"/>
<path d="M14.2854 36.8805C14.4464 36.8805 14.577 37.011 14.577 37.172C14.577 37.3331 14.4464 37.4636 14.2854 37.4636C14.1244 37.4636 13.9939 37.3331 13.9939 37.172C13.9939 37.011 14.1244 36.8805 14.2854 36.8805Z" fill="white" fill-opacity="0.6"/>
<path d="M9.62071 36.8805C9.78173 36.8805 9.91225 37.011 9.91225 37.172C9.91225 37.3331 9.78173 37.4636 9.62071 37.4636C9.45969 37.4636 9.32916 37.3331 9.32916 37.172C9.32916 37.011 9.45969 36.8805 9.62071 36.8805Z" fill="white" fill-opacity="0.6"/>
<path d="M11.9531 36.8805C12.1141 36.8805 12.2446 37.011 12.2446 37.172C12.2446 37.3331 12.1141 37.4636 11.9531 37.4636C11.7921 37.4636 11.6615 37.3331 11.6615 37.172C11.6615 37.011 11.7921 36.8805 11.9531 36.8805Z" fill="white" fill-opacity="0.6"/>
<path d="M9.62071 35.7143C9.78173 35.7143 9.91225 35.8448 9.91225 36.0059C9.91225 36.1669 9.78173 36.2974 9.62071 36.2974C9.45969 36.2974 9.32916 36.1669 9.32916 36.0059C9.32916 35.8448 9.45969 35.7143 9.62071 35.7143Z" fill="white" fill-opacity="0.6"/>
<path d="M10.7869 35.7143C10.9479 35.7143 11.0784 35.8448 11.0784 36.0059C11.0784 36.1669 10.9479 36.2974 10.7869 36.2974C10.6259 36.2974 10.4953 36.1669 10.4953 36.0059C10.4953 35.8448 10.6259 35.7143 10.7869 35.7143Z" fill="white" fill-opacity="0.6"/>
<path d="M11.9531 35.7143C12.1141 35.7143 12.2446 35.8448 12.2446 36.0059C12.2446 36.1669 12.1141 36.2974 11.9531 36.2974C11.7921 36.2974 11.6615 36.1669 11.6615 36.0059C11.6615 35.8448 11.7921 35.7143 11.9531 35.7143Z" fill="white" fill-opacity="0.6"/>
<path d="M13.1193 35.7143C13.2803 35.7143 13.4108 35.8448 13.4108 36.0059C13.4108 36.1669 13.2803 36.2974 13.1193 36.2974C12.9582 36.2974 12.8277 36.1669 12.8277 36.0059C12.8277 35.8448 12.9582 35.7143 13.1193 35.7143Z" fill="white" fill-opacity="0.6"/>
<path d="M14.2854 35.7143C14.4464 35.7143 14.577 35.8448 14.577 36.0059C14.577 36.1669 14.4464 36.2974 14.2854 36.2974C14.1244 36.2974 13.9939 36.1669 13.9939 36.0059C13.9939 35.8448 14.1244 35.7143 14.2854 35.7143Z" fill="white" fill-opacity="0.6"/>
<path d="M9.62071 29.8834C9.78173 29.8834 9.91225 30.0139 9.91225 30.175C9.91225 30.336 9.78173 30.4665 9.62071 30.4665C9.45969 30.4665 9.32916 30.336 9.32916 30.175C9.32916 30.0139 9.45969 29.8834 9.62071 29.8834Z" fill="white" fill-opacity="0.6"/>
<path d="M10.7869 29.8834C10.9479 29.8834 11.0784 30.0139 11.0784 30.175C11.0784 30.336 10.9479 30.4665 10.7869 30.4665C10.6259 30.4665 10.4953 30.336 10.4953 30.175C10.4953 30.0139 10.6259 29.8834 10.7869 29.8834Z" fill="white" fill-opacity="0.6"/>
<path d="M11.9531 29.8834C12.1141 29.8834 12.2446 30.0139 12.2446 30.175C12.2446 30.336 12.1141 30.4665 11.9531 30.4665C11.7921 30.4665 11.6615 30.336 11.6615 30.175C11.6615 30.0139 11.7921 29.8834 11.9531 29.8834Z" fill="white" fill-opacity="0.6"/>
<path d="M13.1193 29.8834C13.2803 29.8834 13.4108 30.0139 13.4108 30.175C13.4108 30.336 13.2803 30.4665 13.1193 30.4665C12.9582 30.4665 12.8277 30.336 12.8277 30.175C12.8277 30.0139 12.9582 29.8834 13.1193 29.8834Z" fill="white" fill-opacity="0.6"/>
<path d="M14.2854 29.8834C14.4464 29.8834 14.577 30.0139 14.577 30.175C14.577 30.336 14.4464 30.4665 14.2854 30.4665C14.1244 30.4665 13.9939 30.336 13.9939 30.175C13.9939 30.0139 14.1244 29.8834 14.2854 29.8834Z" fill="white" fill-opacity="0.6"/>
<path d="M14.2854 28.7172C14.4464 28.7172 14.577 28.8478 14.577 29.0088C14.577 29.1698 14.4464 29.3003 14.2854 29.3003C14.1244 29.3003 13.9939 29.1698 13.9939 29.0088C13.9939 28.8478 14.1244 28.7172 14.2854 28.7172Z" fill="white" fill-opacity="0.6"/>
<path d="M9.62071 28.7172C9.78173 28.7172 9.91225 28.8478 9.91225 29.0088C9.91225 29.1698 9.78173 29.3003 9.62071 29.3003C9.45969 29.3003 9.32916 29.1698 9.32916 29.0088C9.32916 28.8478 9.45969 28.7172 9.62071 28.7172Z" fill="white" fill-opacity="0.6"/>
<path d="M11.9531 28.7172C12.1141 28.7172 12.2446 28.8478 12.2446 29.0088C12.2446 29.1698 12.1141 29.3003 11.9531 29.3003C11.7921 29.3003 11.6615 29.1698 11.6615 29.0088C11.6615 28.8478 11.7921 28.7172 11.9531 28.7172Z" fill="white" fill-opacity="0.6"/>
<path d="M9.62071 27.5511C9.78173 27.5511 9.91225 27.6816 9.91225 27.8426C9.91225 28.0036 9.78173 28.1341 9.62071 28.1341C9.45969 28.1341 9.32916 28.0036 9.32916 27.8426C9.32916 27.6816 9.45969 27.5511 9.62071 27.5511Z" fill="white" fill-opacity="0.6"/>
<path d="M10.7869 27.5511C10.9479 27.5511 11.0784 27.6816 11.0784 27.8426C11.0784 28.0036 10.9479 28.1341 10.7869 28.1341C10.6259 28.1341 10.4953 28.0036 10.4953 27.8426C10.4953 27.6816 10.6259 27.5511 10.7869 27.5511Z" fill="white" fill-opacity="0.6"/>
<path d="M11.9531 27.5511C12.1141 27.5511 12.2446 27.6816 12.2446 27.8426C12.2446 28.0036 12.1141 28.1341 11.9531 28.1341C11.7921 28.1341 11.6615 28.0036 11.6615 27.8426C11.6615 27.6816 11.7921 27.5511 11.9531 27.5511Z" fill="white" fill-opacity="0.6"/>
<path d="M13.1193 27.5511C13.2803 27.5511 13.4108 27.6816 13.4108 27.8426C13.4108 28.0036 13.2803 28.1341 13.1193 28.1341C12.9582 28.1341 12.8277 28.0036 12.8277 27.8426C12.8277 27.6816 12.9582 27.5511 13.1193 27.5511Z" fill="white" fill-opacity="0.6"/>
<path d="M14.2854 27.5511C14.4464 27.5511 14.577 27.6816 14.577 27.8426C14.577 28.0036 14.4464 28.1341 14.2854 28.1341C14.1244 28.1341 13.9939 28.0036 13.9939 27.8426C13.9939 27.6816 14.1244 27.5511 14.2854 27.5511Z" fill="white" fill-opacity="0.6"/>
<path d="M9.62071 21.7201C9.78173 21.7201 9.91225 21.8507 9.91225 22.0117C9.91225 22.1727 9.78173 22.3032 9.62071 22.3032C9.45969 22.3032 9.32916 22.1727 9.32916 22.0117C9.32916 21.8507 9.45969 21.7201 9.62071 21.7201Z" fill="white" fill-opacity="0.6"/>
<path d="M10.7869 21.7201C10.9479 21.7201 11.0784 21.8507 11.0784 22.0117C11.0784 22.1727 10.9479 22.3032 10.7869 22.3032C10.6259 22.3032 10.4953 22.1727 10.4953 22.0117C10.4953 21.8507 10.6259 21.7201 10.7869 21.7201Z" fill="white" fill-opacity="0.6"/>
<path d="M11.9531 21.7201C12.1141 21.7201 12.2446 21.8507 12.2446 22.0117C12.2446 22.1727 12.1141 22.3032 11.9531 22.3032C11.7921 22.3032 11.6615 22.1727 11.6615 22.0117C11.6615 21.8507 11.7921 21.7201 11.9531 21.7201Z" fill="white" fill-opacity="0.6"/>
<path d="M13.1193 21.7201C13.2803 21.7201 13.4108 21.8507 13.4108 22.0117C13.4108 22.1727 13.2803 22.3032 13.1193 22.3032C12.9582 22.3032 12.8277 22.1727 12.8277 22.0117C12.8277 21.8507 12.9582 21.7201 13.1193 21.7201Z" fill="white" fill-opacity="0.6"/>
<path d="M14.2854 21.7201C14.4464 21.7201 14.577 21.8507 14.577 22.0117C14.577 22.1727 14.4464 22.3032 14.2854 22.3032C14.1244 22.3032 13.9939 22.1727 13.9939 22.0117C13.9939 21.8507 14.1244 21.7201 14.2854 21.7201Z" fill="white" fill-opacity="0.6"/>
<path d="M14.2854 20.554C14.4464 20.554 14.577 20.6845 14.577 20.8455C14.577 21.0065 14.4464 21.1371 14.2854 21.1371C14.1244 21.1371 13.9939 21.0065 13.9939 20.8455C13.9939 20.6845 14.1244 20.554 14.2854 20.554Z" fill="white" fill-opacity="0.6"/>
<path d="M9.62071 20.554C9.78173 20.554 9.91225 20.6845 9.91225 20.8455C9.91225 21.0065 9.78173 21.1371 9.62071 21.1371C9.45969 21.1371 9.32916 21.0065 9.32916 20.8455C9.32916 20.6845 9.45969 20.554 9.62071 20.554Z" fill="white" fill-opacity="0.6"/>
<path d="M11.9531 20.554C12.1141 20.554 12.2446 20.6845 12.2446 20.8455C12.2446 21.0065 12.1141 21.1371 11.9531 21.1371C11.7921 21.1371 11.6615 21.0065 11.6615 20.8455C11.6615 20.6845 11.7921 20.554 11.9531 20.554Z" fill="white" fill-opacity="0.6"/>
<path d="M9.62071 19.3878C9.78173 19.3878 9.91225 19.5183 9.91225 19.6793C9.91225 19.8403 9.78173 19.9709 9.62071 19.9709C9.45969 19.9709 9.32916 19.8403 9.32916 19.6793C9.32916 19.5183 9.45969 19.3878 9.62071 19.3878Z" fill="white" fill-opacity="0.6"/>
<path d="M10.7869 19.3878C10.9479 19.3878 11.0784 19.5183 11.0784 19.6793C11.0784 19.8403 10.9479 19.9709 10.7869 19.9709C10.6259 19.9709 10.4953 19.8403 10.4953 19.6793C10.4953 19.5183 10.6259 19.3878 10.7869 19.3878Z" fill="white" fill-opacity="0.6"/>
<path d="M11.9531 19.3878C12.1141 19.3878 12.2446 19.5183 12.2446 19.6793C12.2446 19.8403 12.1141 19.9709 11.9531 19.9709C11.7921 19.9709 11.6615 19.8403 11.6615 19.6793C11.6615 19.5183 11.7921 19.3878 11.9531 19.3878Z" fill="white" fill-opacity="0.6"/>
<path d="M13.1193 19.3878C13.2803 19.3878 13.4108 19.5183 13.4108 19.6793C13.4108 19.8403 13.2803 19.9709 13.1193 19.9709C12.9582 19.9709 12.8277 19.8403 12.8277 19.6793C12.8277 19.5183 12.9582 19.3878 13.1193 19.3878Z" fill="white" fill-opacity="0.6"/>
<path d="M14.2854 19.3878C14.4464 19.3878 14.577 19.5183 14.577 19.6793C14.577 19.8403 14.4464 19.9709 14.2854 19.9709C14.1244 19.9709 13.9939 19.8403 13.9939 19.6793C13.9939 19.5183 14.1244 19.3878 14.2854 19.3878Z" fill="white" fill-opacity="0.6"/>
<path d="M9.62071 43.2945C9.78173 43.2945 9.91225 43.425 9.91225 43.586C9.91225 43.7471 9.78173 43.8776 9.62071 43.8776C9.45969 43.8776 9.32916 43.7471 9.32916 43.586C9.32916 43.425 9.45969 43.2945 9.62071 43.2945Z" fill="white" fill-opacity="0.6"/>
<path d="M10.7869 43.2945C10.9479 43.2945 11.0784 43.425 11.0784 43.586C11.0784 43.7471 10.9479 43.8776 10.7869 43.8776C10.6259 43.8776 10.4953 43.7471 10.4953 43.586C10.4953 43.425 10.6259 43.2945 10.7869 43.2945Z" fill="white" fill-opacity="0.6"/>
<path d="M11.9531 43.2945C12.1141 43.2945 12.2446 43.425 12.2446 43.586C12.2446 43.7471 12.1141 43.8776 11.9531 43.8776C11.7921 43.8776 11.6615 43.7471 11.6615 43.586C11.6615 43.425 11.7921 43.2945 11.9531 43.2945Z" fill="white" fill-opacity="0.6"/>
<path d="M13.1193 43.2945C13.2803 43.2945 13.4108 43.425 13.4108 43.586C13.4108 43.7471 13.2803 43.8776 13.1193 43.8776C12.9582 43.8776 12.8277 43.7471 12.8277 43.586C12.8277 43.425 12.9582 43.2945 13.1193 43.2945Z" fill="white" fill-opacity="0.6"/>
<path d="M14.2854 43.2945C14.4464 43.2945 14.577 43.425 14.577 43.586C14.577 43.7471 14.4464 43.8776 14.2854 43.8776C14.1244 43.8776 13.9939 43.7471 13.9939 43.586C13.9939 43.425 14.1244 43.2945 14.2854 43.2945Z" fill="white" fill-opacity="0.6"/>
<path d="M14.2854 42.1283C14.4464 42.1283 14.577 42.2588 14.577 42.4199C14.577 42.5809 14.4464 42.7114 14.2854 42.7114C14.1244 42.7114 13.9939 42.5809 13.9939 42.4199C13.9939 42.2588 14.1244 42.1283 14.2854 42.1283Z" fill="white" fill-opacity="0.6"/>
<path d="M9.62071 42.1283C9.78173 42.1283 9.91225 42.2588 9.91225 42.4199C9.91225 42.5809 9.78173 42.7114 9.62071 42.7114C9.45969 42.7114 9.32916 42.5809 9.32916 42.4199C9.32916 42.2588 9.45969 42.1283 9.62071 42.1283Z" fill="white" fill-opacity="0.6"/>
<path d="M11.9531 42.1283C12.1141 42.1283 12.2446 42.2588 12.2446 42.4199C12.2446 42.5809 12.1141 42.7114 11.9531 42.7114C11.7921 42.7114 11.6615 42.5809 11.6615 42.4199C11.6615 42.2588 11.7921 42.1283 11.9531 42.1283Z" fill="white" fill-opacity="0.6"/>
<path d="M9.62071 40.9621C9.78173 40.9621 9.91225 41.0927 9.91225 41.2537C9.91225 41.4147 9.78173 41.5452 9.62071 41.5452C9.45969 41.5452 9.32916 41.4147 9.32916 41.2537C9.32916 41.0927 9.45969 40.9621 9.62071 40.9621Z" fill="white" fill-opacity="0.6"/>
<path d="M10.7869 40.9621C10.9479 40.9621 11.0784 41.0927 11.0784 41.2537C11.0784 41.4147 10.9479 41.5452 10.7869 41.5452C10.6259 41.5452 10.4953 41.4147 10.4953 41.2537C10.4953 41.0927 10.6259 40.9621 10.7869 40.9621Z" fill="white" fill-opacity="0.6"/>
<path d="M11.9531 40.9621C12.1141 40.9621 12.2446 41.0927 12.2446 41.2537C12.2446 41.4147 12.1141 41.5452 11.9531 41.5452C11.7921 41.5452 11.6615 41.4147 11.6615 41.2537C11.6615 41.0927 11.7921 40.9621 11.9531 40.9621Z" fill="white" fill-opacity="0.6"/>
<path d="M13.1193 40.9621C13.2803 40.9621 13.4108 41.0927 13.4108 41.2537C13.4108 41.4147 13.2803 41.5452 13.1193 41.5452C12.9582 41.5452 12.8277 41.4147 12.8277 41.2537C12.8277 41.0927 12.9582 40.9621 13.1193 40.9621Z" fill="white" fill-opacity="0.6"/>
<path d="M14.2854 40.9621C14.4464 40.9621 14.577 41.0927 14.577 41.2537C14.577 41.4147 14.4464 41.5452 14.2854 41.5452C14.1244 41.5452 13.9939 41.4147 13.9939 41.2537C13.9939 41.0927 14.1244 40.9621 14.2854 40.9621Z" fill="white" fill-opacity="0.6"/>
<path d="M9.62071 33.965C9.78173 33.965 9.91225 34.0956 9.91225 34.2566C9.91225 34.4176 9.78173 34.5481 9.62071 34.5481C9.45969 34.5481 9.32916 34.4176 9.32916 34.2566C9.32916 34.0956 9.45969 33.965 9.62071 33.965Z" fill="white" fill-opacity="0.6"/>
<path d="M10.7869 33.965C10.9479 33.965 11.0784 34.0956 11.0784 34.2566C11.0784 34.4176 10.9479 34.5481 10.7869 34.5481C10.6259 34.5481 10.4953 34.4176 10.4953 34.2566C10.4953 34.0956 10.6259 33.965 10.7869 33.965Z" fill="white" fill-opacity="0.6"/>
<path d="M11.9531 33.965C12.1141 33.965 12.2446 34.0956 12.2446 34.2566C12.2446 34.4176 12.1141 34.5481 11.9531 34.5481C11.7921 34.5481 11.6615 34.4176 11.6615 34.2566C11.6615 34.0956 11.7921 33.965 11.9531 33.965Z" fill="white" fill-opacity="0.6"/>
<path d="M13.1193 33.965C13.2803 33.965 13.4108 34.0956 13.4108 34.2566C13.4108 34.4176 13.2803 34.5481 13.1193 34.5481C12.9582 34.5481 12.8277 34.4176 12.8277 34.2566C12.8277 34.0956 12.9582 33.965 13.1193 33.965Z" fill="white" fill-opacity="0.6"/>
<path d="M14.2854 33.965C14.4464 33.965 14.577 34.0956 14.577 34.2566C14.577 34.4176 14.4464 34.5481 14.2854 34.5481C14.1244 34.5481 13.9939 34.4176 13.9939 34.2566C13.9939 34.0956 14.1244 33.965 14.2854 33.965Z" fill="white" fill-opacity="0.6"/>
<path d="M14.2854 32.7989C14.4464 32.7989 14.577 32.9294 14.577 33.0904C14.577 33.2514 14.4464 33.382 14.2854 33.382C14.1244 33.382 13.9939 33.2514 13.9939 33.0904C13.9939 32.9294 14.1244 32.7989 14.2854 32.7989Z" fill="white" fill-opacity="0.6"/>
<path d="M9.62071 32.7989C9.78173 32.7989 9.91225 32.9294 9.91225 33.0904C9.91225 33.2514 9.78173 33.382 9.62071 33.382C9.45969 33.382 9.32916 33.2514 9.32916 33.0904C9.32916 32.9294 9.45969 32.7989 9.62071 32.7989Z" fill="white" fill-opacity="0.6"/>
<path d="M11.9531 32.7989C12.1141 32.7989 12.2446 32.9294 12.2446 33.0904C12.2446 33.2514 12.1141 33.382 11.9531 33.382C11.7921 33.382 11.6615 33.2514 11.6615 33.0904C11.6615 32.9294 11.7921 32.7989 11.9531 32.7989Z" fill="white" fill-opacity="0.6"/>
<path d="M9.62071 31.6327C9.78173 31.6327 9.91225 31.7632 9.91225 31.9242C9.91225 32.0852 9.78173 32.2158 9.62071 32.2158C9.45969 32.2158 9.32916 32.0852 9.32916 31.9242C9.32916 31.7632 9.45969 31.6327 9.62071 31.6327Z" fill="white" fill-opacity="0.6"/>
<path d="M10.7869 31.6327C10.9479 31.6327 11.0784 31.7632 11.0784 31.9242C11.0784 32.0852 10.9479 32.2158 10.7869 32.2158C10.6259 32.2158 10.4953 32.0852 10.4953 31.9242C10.4953 31.7632 10.6259 31.6327 10.7869 31.6327Z" fill="white" fill-opacity="0.6"/>
<path d="M11.9531 31.6327C12.1141 31.6327 12.2446 31.7632 12.2446 31.9242C12.2446 32.0852 12.1141 32.2158 11.9531 32.2158C11.7921 32.2158 11.6615 32.0852 11.6615 31.9242C11.6615 31.7632 11.7921 31.6327 11.9531 31.6327Z" fill="white" fill-opacity="0.6"/>
<path d="M13.1193 31.6327C13.2803 31.6327 13.4108 31.7632 13.4108 31.9242C13.4108 32.0852 13.2803 32.2158 13.1193 32.2158C12.9582 32.2158 12.8277 32.0852 12.8277 31.9242C12.8277 31.7632 12.9582 31.6327 13.1193 31.6327Z" fill="white" fill-opacity="0.6"/>
<path d="M14.2854 31.6327C14.4464 31.6327 14.577 31.7632 14.577 31.9242C14.577 32.0852 14.4464 32.2158 14.2854 32.2158C14.1244 32.2158 13.9939 32.0852 13.9939 31.9242C13.9939 31.7632 14.1244 31.6327 14.2854 31.6327Z" fill="white" fill-opacity="0.6"/>
<path d="M9.62071 25.8018C9.78173 25.8018 9.91225 25.9323 9.91225 26.0933C9.91225 26.2543 9.78173 26.3849 9.62071 26.3849C9.45969 26.3849 9.32916 26.2543 9.32916 26.0933C9.32916 25.9323 9.45969 25.8018 9.62071 25.8018Z" fill="white" fill-opacity="0.6"/>
<path d="M10.7869 25.8018C10.9479 25.8018 11.0784 25.9323 11.0784 26.0933C11.0784 26.2543 10.9479 26.3849 10.7869 26.3849C10.6259 26.3849 10.4953 26.2543 10.4953 26.0933C10.4953 25.9323 10.6259 25.8018 10.7869 25.8018Z" fill="white" fill-opacity="0.6"/>
<path d="M11.9531 25.8018C12.1141 25.8018 12.2446 25.9323 12.2446 26.0933C12.2446 26.2543 12.1141 26.3849 11.9531 26.3849C11.7921 26.3849 11.6615 26.2543 11.6615 26.0933C11.6615 25.9323 11.7921 25.8018 11.9531 25.8018Z" fill="white" fill-opacity="0.6"/>
<path d="M13.1193 25.8018C13.2803 25.8018 13.4108 25.9323 13.4108 26.0933C13.4108 26.2543 13.2803 26.3849 13.1193 26.3849C12.9582 26.3849 12.8277 26.2543 12.8277 26.0933C12.8277 25.9323 12.9582 25.8018 13.1193 25.8018Z" fill="white" fill-opacity="0.6"/>
<path d="M14.2854 25.8018C14.4464 25.8018 14.577 25.9323 14.577 26.0933C14.577 26.2543 14.4464 26.3849 14.2854 26.3849C14.1244 26.3849 13.9939 26.2543 13.9939 26.0933C13.9939 25.9323 14.1244 25.8018 14.2854 25.8018Z" fill="white" fill-opacity="0.6"/>
<path d="M14.2854 24.6356C14.4464 24.6356 14.577 24.7661 14.577 24.9271C14.577 25.0882 14.4464 25.2187 14.2854 25.2187C14.1244 25.2187 13.9939 25.0882 13.9939 24.9271C13.9939 24.7661 14.1244 24.6356 14.2854 24.6356Z" fill="white" fill-opacity="0.6"/>
<path d="M9.62071 24.6356C9.78173 24.6356 9.91225 24.7661 9.91225 24.9271C9.91225 25.0882 9.78173 25.2187 9.62071 25.2187C9.45969 25.2187 9.32916 25.0882 9.32916 24.9271C9.32916 24.7661 9.45969 24.6356 9.62071 24.6356Z" fill="white" fill-opacity="0.6"/>
<path d="M11.9531 24.6356C12.1141 24.6356 12.2446 24.7661 12.2446 24.9271C12.2446 25.0882 12.1141 25.2187 11.9531 25.2187C11.7921 25.2187 11.6615 25.0882 11.6615 24.9271C11.6615 24.7661 11.7921 24.6356 11.9531 24.6356Z" fill="white" fill-opacity="0.6"/>
<path d="M9.62071 23.4694C9.78173 23.4694 9.91225 23.5999 9.91225 23.761C9.91225 23.922 9.78173 24.0525 9.62071 24.0525C9.45969 24.0525 9.32916 23.922 9.32916 23.761C9.32916 23.5999 9.45969 23.4694 9.62071 23.4694Z" fill="white" fill-opacity="0.6"/>
<path d="M10.7869 23.4694C10.9479 23.4694 11.0784 23.5999 11.0784 23.761C11.0784 23.922 10.9479 24.0525 10.7869 24.0525C10.6259 24.0525 10.4953 23.922 10.4953 23.761C10.4953 23.5999 10.6259 23.4694 10.7869 23.4694Z" fill="white" fill-opacity="0.6"/>
<path d="M11.9531 23.4694C12.1141 23.4694 12.2446 23.5999 12.2446 23.761C12.2446 23.922 12.1141 24.0525 11.9531 24.0525C11.7921 24.0525 11.6615 23.922 11.6615 23.761C11.6615 23.5999 11.7921 23.4694 11.9531 23.4694Z" fill="white" fill-opacity="0.6"/>
<path d="M13.1193 23.4694C13.2803 23.4694 13.4108 23.5999 13.4108 23.761C13.4108 23.922 13.2803 24.0525 13.1193 24.0525C12.9582 24.0525 12.8277 23.922 12.8277 23.761C12.8277 23.5999 12.9582 23.4694 13.1193 23.4694Z" fill="white" fill-opacity="0.6"/>
<path d="M14.2854 23.4694C14.4464 23.4694 14.577 23.5999 14.577 23.761C14.577 23.922 14.4464 24.0525 14.2854 24.0525C14.1244 24.0525 13.9939 23.922 13.9939 23.761C13.9939 23.5999 14.1244 23.4694 14.2854 23.4694Z" fill="white" fill-opacity="0.6"/>
<path d="M9.62071 17.6385C9.78173 17.6385 9.91225 17.769 9.91225 17.9301C9.91225 18.0911 9.78173 18.2216 9.62071 18.2216C9.45969 18.2216 9.32916 18.0911 9.32916 17.9301C9.32916 17.769 9.45969 17.6385 9.62071 17.6385Z" fill="white" fill-opacity="0.6"/>
<path d="M10.7869 17.6385C10.9479 17.6385 11.0784 17.769 11.0784 17.9301C11.0784 18.0911 10.9479 18.2216 10.7869 18.2216C10.6259 18.2216 10.4953 18.0911 10.4953 17.9301C10.4953 17.769 10.6259 17.6385 10.7869 17.6385Z" fill="white" fill-opacity="0.6"/>
<path d="M11.9531 17.6385C12.1141 17.6385 12.2446 17.769 12.2446 17.9301C12.2446 18.0911 12.1141 18.2216 11.9531 18.2216C11.7921 18.2216 11.6615 18.0911 11.6615 17.9301C11.6615 17.769 11.7921 17.6385 11.9531 17.6385Z" fill="white" fill-opacity="0.6"/>
<path d="M13.1193 17.6385C13.2803 17.6385 13.4108 17.769 13.4108 17.9301C13.4108 18.0911 13.2803 18.2216 13.1193 18.2216C12.9582 18.2216 12.8277 18.0911 12.8277 17.9301C12.8277 17.769 12.9582 17.6385 13.1193 17.6385Z" fill="white" fill-opacity="0.6"/>
<path d="M14.2854 17.6385C14.4464 17.6385 14.577 17.769 14.577 17.9301C14.577 18.0911 14.4464 18.2216 14.2854 18.2216C14.1244 18.2216 13.9939 18.0911 13.9939 17.9301C13.9939 17.769 14.1244 17.6385 14.2854 17.6385Z" fill="white" fill-opacity="0.6"/>
<path d="M14.2854 16.4723C14.4464 16.4723 14.577 16.6029 14.577 16.7639C14.577 16.9249 14.4464 17.0554 14.2854 17.0554C14.1244 17.0554 13.9939 16.9249 13.9939 16.7639C13.9939 16.6029 14.1244 16.4723 14.2854 16.4723Z" fill="white" fill-opacity="0.6"/>
<path d="M9.62071 16.4723C9.78173 16.4723 9.91225 16.6029 9.91225 16.7639C9.91225 16.9249 9.78173 17.0554 9.62071 17.0554C9.45969 17.0554 9.32916 16.9249 9.32916 16.7639C9.32916 16.6029 9.45969 16.4723 9.62071 16.4723Z" fill="white" fill-opacity="0.6"/>
<path d="M11.9531 16.4723C12.1141 16.4723 12.2446 16.6029 12.2446 16.7639C12.2446 16.9249 12.1141 17.0554 11.9531 17.0554C11.7921 17.0554 11.6615 16.9249 11.6615 16.7639C11.6615 16.6029 11.7921 16.4723 11.9531 16.4723Z" fill="white" fill-opacity="0.6"/>
<path d="M9.62071 15.3062C9.78173 15.3062 9.91225 15.4367 9.91225 15.5977C9.91225 15.7587 9.78173 15.8892 9.62071 15.8892C9.45969 15.8892 9.32916 15.7587 9.32916 15.5977C9.32916 15.4367 9.45969 15.3062 9.62071 15.3062Z" fill="white" fill-opacity="0.6"/>
<path d="M10.7869 15.3062C10.9479 15.3062 11.0784 15.4367 11.0784 15.5977C11.0784 15.7587 10.9479 15.8892 10.7869 15.8892C10.6259 15.8892 10.4953 15.7587 10.4953 15.5977C10.4953 15.4367 10.6259 15.3062 10.7869 15.3062Z" fill="white" fill-opacity="0.6"/>
<path d="M11.9531 15.3062C12.1141 15.3062 12.2446 15.4367 12.2446 15.5977C12.2446 15.7587 12.1141 15.8892 11.9531 15.8892C11.7921 15.8892 11.6615 15.7587 11.6615 15.5977C11.6615 15.4367 11.7921 15.3062 11.9531 15.3062Z" fill="white" fill-opacity="0.6"/>
<path d="M13.1193 15.3062C13.2803 15.3062 13.4108 15.4367 13.4108 15.5977C13.4108 15.7587 13.2803 15.8892 13.1193 15.8892C12.9582 15.8892 12.8277 15.7587 12.8277 15.5977C12.8277 15.4367 12.9582 15.3062 13.1193 15.3062Z" fill="white" fill-opacity="0.6"/>
<path d="M14.2854 15.3062C14.4464 15.3062 14.577 15.4367 14.577 15.5977C14.577 15.7587 14.4464 15.8892 14.2854 15.8892C14.1244 15.8892 13.9939 15.7587 13.9939 15.5977C13.9939 15.4367 14.1244 15.3062 14.2854 15.3062Z" fill="white" fill-opacity="0.6"/>
</svg>
