<?xml version="1.0" encoding="UTF-8"?>
<svg width="96px" height="96px" viewBox="0 0 96 96" version="1.1" xmlns="http://www.w3.org/2000/svg" xmlns:xlink="http://www.w3.org/1999/xlink">
    <!-- Generator: Sketch 49.2 (51160) - http://www.bohemiancoding.com/sketch -->
    <title>art_logo_alfa_black</title>
    <desc>Created with Sketch.</desc>
    <defs>
        <path d="M21.03194,79.76132 C21.03194,79.33959 21.40504,79 21.86684,79 L74.20284,79 C74.66156,79 75.03194,79.33959 75.03194,79.76132 L75.03194,88.239372 C75.03194,88.661786 74.66156,89 74.20284,89 L21.86684,89 C21.40504,89 21.03194,88.661786 21.03194,88.239372 L21.03194,79.76132 Z M56.6919,15.0024 C57.32375,16.69511 72.04506,56.40727 72.48672,57.59918 C72.60937,57.92776 72.5281,58.47688 72.00825,58.67176 C71.48758,58.86815 63.8352,61.79809 63.41345,61.9552 C62.99022,62.11156 62.51402,61.87892 62.35837,61.4665 C62.20197,61.05409 59.35885,51.9691 59,51 L37,51 C36.64115,51.9691 33.29878,61.06919 33.15043,61.4665 C33.00397,61.8623 32.54582,62.12969 32.09877,61.9552 C31.64947,61.77921 23.96485,58.84549 23.51093,58.67176 C23.07041,58.5086 22.86837,58.01462 23.02553,57.59918 C23.56611,56.10966 38.06392,17.03463 38.80689,15.0024 C40.24079,11.06333 42.08718,7 47.75288,7 C53.42085,7 55.20286,10.99912 56.6919,15.0024 Z M40.33318,41.78397 L55.20286,41.78397 L47.80118,19.96874 L47.70917,19.96874 L40.33318,41.78397 Z" id="path-1"></path>
    </defs>
    <g id="Page-1" stroke="none" stroke-width="1" fill="none" fill-rule="evenodd">
        <g id="art_logo_alfa_black">
            <rect id="Rectangle-path" x="0" y="0" width="96" height="96"></rect>
            <mask id="mask-2" fill="white">
                <use xlink:href="#path-1"></use>
            </mask>
            <g id="Clip-2"></g>
            <polygon id="Fill-1" fill="#0B1F35" mask="url(#mask-2)" points="0 0 96 0 96 96 0 96"></polygon>
        </g>
    </g>
</svg>