<svg width="80" height="80" viewBox="0 0 80 80" fill="none" xmlns="http://www.w3.org/2000/svg">
<rect width="80" height="80" fill="none"/>
<path opacity="0.07" fill-rule="evenodd" clip-rule="evenodd" d="M40 80C62.0914 80 80 62.0914 80 40C80 17.9086 62.0914 0 40 0C17.9086 0 0 17.9086 0 40C0 62.0914 17.9086 80 40 80Z" fill="#5C85AD"/>
<path d="M56.6152 47.8012C56.0797 48.338 55.2143 48.338 54.6788 47.8012L52.7425 45.8648C52.2056 45.3293 52.2056 44.4625 52.7425 43.9284L56.6154 40.0554C57.1509 39.5199 58.0164 39.5199 58.5518 40.0554L60.4882 41.9918C61.025 42.5259 61.025 43.3928 60.4882 43.9282L56.6152 47.8012Z" fill="#B2CCDC"/>
<path d="M36.0725 27.259C35.537 27.7958 34.6715 27.7958 34.1361 27.259L32.1997 25.3226C31.6629 24.7871 31.6629 23.9203 32.1997 23.3862L36.0727 19.5133C36.6082 18.9778 37.4737 18.9778 38.0091 19.5133L39.9455 21.4497C40.4823 21.9837 40.4823 22.8506 39.9455 23.386L36.0725 27.259Z" fill="#B2CCDC"/>
<path d="M18.269 45.2971C21.008 45.2971 33.3335 46.6666 33.3335 46.6666C33.3335 46.6666 34.703 58.992 34.703 61.731C34.703 64.47 31.964 64.47 30.5945 63.1005C29.225 61.731 25.1166 54.8835 25.1166 54.8835C25.1166 54.8835 18.2691 50.7751 16.8996 49.4056C15.5301 48.0361 15.53 45.2971 18.269 45.2971Z" fill="#5C85AD"/>
<path d="M21.0072 23.4384C25.1157 23.3851 55.2446 24.7546 55.2446 24.7546C55.2446 24.7546 56.51 54.8835 56.5621 58.992C56.6142 63.1005 52.7796 64.4727 51.2731 58.9934C49.7666 53.514 44.2887 35.7105 44.2887 35.7105C44.2887 35.7105 25.1774 29.6627 21.0004 28.7233C15.5292 27.4934 16.8987 23.4918 21.0072 23.4384Z" fill="#5C85AD"/>
<path d="M52.5066 19.2763C55.2455 16.5373 62.093 15.1678 63.4625 16.5373C64.832 17.9068 63.4625 24.7543 60.7235 27.4933C57.9845 30.2322 34.7031 52.1442 34.7031 52.1442C34.7031 52.1442 25.8014 58.3069 23.7471 56.2527C21.6929 54.1985 27.8556 45.2968 27.8556 45.2968C27.8556 45.2968 49.7675 22.0153 52.5066 19.2763Z" fill="#B2CCDC"/>
</svg>
