<svg xmlns="http://www.w3.org/2000/svg" width="80" height="80" viewBox="0 0 80 80" fill="none"><rect width="80" height="80" fill="none"/>
<path d="M69.9468 39.9438C69.9468 56.5124 56.5153 69.9438 39.9468 69.9438C23.3782 69.9438 9.94678 56.5124 9.94678 39.9438C9.94678 23.3753 23.3782 9.94385 39.9468 9.94385C56.5153 9.94385 69.9468 23.3753 69.9468 39.9438Z" fill="#E7ECF0"/>
<path fill-rule="evenodd" clip-rule="evenodd" d="M51.8662 19.9277C51.8662 18.5915 50.783 17.5082 49.4467 17.5082H30.3662C29.03 17.5082 27.9467 18.5915 27.9467 19.9277V32.0968C27.9467 32.9591 28.4056 33.7562 29.1513 34.1891L34.9468 37.6819C36.5529 38.6144 36.5529 40.934 34.9468 41.8665L29.1513 45.2925C28.4056 45.7254 27.9467 46.5225 27.9467 47.3848L27.9467 59.5539C27.9467 60.8901 29.03 61.9733 30.3662 61.9733H49.5273C50.8635 61.9733 51.9467 60.8901 51.9467 59.5539V47.3848C51.9467 46.5225 51.4878 45.7254 50.7422 45.2925L44.4467 41.7997C42.8406 40.8672 42.8406 38.5476 44.4467 37.6151L50.6616 34.1891C51.4073 33.7562 51.8662 32.9591 51.8662 32.0968V19.9277Z" fill="white"/>
<path fill-rule="evenodd" clip-rule="evenodd" d="M51.4468 32.3774V17.7719H52.4468V32.3774C52.4468 33.2905 51.9609 34.1346 51.1712 34.5931L44.4489 38.3564C43.4119 38.9585 43.4119 40.4561 44.4489 41.0582L51.1744 44.9633C51.9641 45.4218 52.4501 46.2659 52.4501 47.179L52.4501 59.9111C52.4501 61.3262 51.303 62.4733 49.8879 62.4733H30.0089C28.5939 62.4733 27.4468 61.3262 27.4468 59.9111V51.179H28.4468V59.9111C28.4468 60.7739 29.1462 61.4733 30.0089 61.4733H49.8879C50.7507 61.4733 51.4501 60.7739 51.4501 59.9111L51.4501 47.179C51.4501 46.6223 51.1538 46.1076 50.6723 45.8281L43.9467 41.923C42.2459 40.9355 42.2459 38.4791 43.9467 37.4916L50.6691 33.7283C51.1505 33.4488 51.4468 32.9341 51.4468 32.3774Z" fill="#B4C6D2"/>
<path fill-rule="evenodd" clip-rule="evenodd" d="M30.5252 27.8106H49.4831V29.7459C49.4831 30.6426 48.9871 31.4657 48.1943 31.8848L41.1349 35.6167C41.0213 35.6767 40.9041 35.7271 40.7845 35.7679V47.9745L48.6858 55.115C49.1934 55.5738 49.483 56.2259 49.483 56.9101L49.483 60.6721H30.5252L30.5252 56.9101C30.5252 56.2259 30.8149 55.5737 31.3225 55.115L39.2379 47.9617V35.7727C39.1134 35.7311 38.9915 35.6791 38.8734 35.6167L31.8139 31.8848C31.0212 31.4657 30.5252 30.6426 30.5252 29.7459L30.5252 27.8106Z" fill="#B4C6D2"/>
<path fill-rule="evenodd" clip-rule="evenodd" d="M54.9468 13.272L24.9468 13.272V14.2474C24.9468 15.6026 26.0182 16.8036 26.9468 17.5466L26.9468 19.1695C26.9468 19.7784 27.3979 20.272 27.9544 20.272L51.9391 20.272C52.4956 20.272 52.9468 19.7784 52.9468 19.1695V17.5465C53.8753 16.8034 54.9468 15.6025 54.9468 14.2474V13.272Z" fill="#D6DDE2"/>
<path fill-rule="evenodd" clip-rule="evenodd" d="M25.0608 66.1184L54.8328 66.1184L54.8328 65.2337C54.8328 64.0045 54.2342 62.9152 53.3126 62.2412L53.3126 60.7693C53.3126 60.217 52.8649 59.7693 52.3126 59.7693L27.5808 59.7693C27.0285 59.7693 26.5808 60.217 26.5808 60.7693L26.5808 62.2414C25.6594 62.9153 25.0608 64.0046 25.0608 65.2337L25.0608 66.1184Z" fill="#D6DDE2"/>
</svg>
