<svg xmlns="http://www.w3.org/2000/svg" width="48" height="48" viewBox="0 0 48 48" fill="none"><rect width="48" height="48" fill="none"/>
<path fill-rule="evenodd" clip-rule="evenodd" d="M47.8761 28.8279C47.7687 30.8746 45.572 32.1084 43.5247 32.0123C43.3508 32.0041 43.1759 32 43 32C36.9249 32 32 36.9249 32 43C32 43.1759 32.0041 43.3508 32.0123 43.5247C32.1084 45.572 30.8746 47.7687 28.8279 47.8761C27.3235 47.955 25.7142 48 24 48C19.3246 48 15.4298 47.6654 12.3158 47.2197C6.21531 46.3466 1.65342 41.7847 0.780288 35.6842C0.334589 32.5702 0 28.6754 0 24C0 19.3246 0.334589 15.4298 0.780288 12.3158C1.65342 6.2153 6.21531 1.6534 12.3158 0.7803C15.4298 0.3346 19.3246 0 24 0C28.6754 0 32.5702 0.3346 35.6842 0.7803C41.7847 1.6534 46.3466 6.2153 47.2197 12.3158C47.6654 15.4298 48 19.3246 48 24C48 25.7142 47.955 27.3235 47.8761 28.8279Z" fill="black"/>
</svg>
