<svg fill="none" height="80" viewBox="0 0 80 80" width="80" xmlns="http://www.w3.org/2000/svg"><rect width="80" height="80" fill="none"></rect><path d="m45.3753 40.1641 13.0139 4.9475c2.2291.8474 3.7465 2.9324 3.8675 5.314l.9178 18.0648c.0633 1.2473-.7046 2.3811-1.9041 2.7286-3.7804 1.095-12.4212 3.2504-21.8692 3.2504-9.6274 0-17.6587-3.0502-20.9577-4.5135-.9975-.4424-1.5728-1.4623-1.5134-2.552l.9272-17.0152c.1287-2.3627 1.6317-4.4302 3.8394-5.2816l12.8172-4.943z" fill="#f6f7f8"/><path d="m31.51 41.3223c.0004 3.559.1655 9.222 1.075 13.3619.7297 3.3219 2.6401 7.0591 4.3316 9.9164l2.0964-14.2541-1.0882-1.4164 2.1124-2.0024v-.0963l2.1124 2.0504-1.0882 1.3685 2.0772 14.1232c1.6017-2.7379 3.367-6.2804 4.165-9.6893 1.0322-4.4093 1.1698-9.8976 1.1302-13.3576l9.9554 3.7847c2.2291.8475 3.7465 2.9324 3.8675 5.3141l.9177 18.0648c.0634 1.2472-.7045 2.381-1.9041 2.7285-3.7803 1.0951-12.4211 3.2504-21.8691 3.2504-9.6274 0-17.6587-3.0501-20.9577-4.5134-.9975-.4425-1.5728-1.4624-1.5134-2.552l.9272-17.0152c.1287-2.3628 1.6316-4.4302 3.8394-5.2817z" fill="#d6dde2"/><path d="m34.5133 35.085c0-2.9993 2.4314-5.4307 5.4308-5.4307 2.9993 0 5.4307 2.4314 5.4307 5.4307v6.3252c0 2.9993-2.4314 5.4307-5.4307 5.4307-2.9994 0-5.4308-2.4314-5.4308-5.4307z" fill="#e4eaee"/><path d="m50.4064 24.0249c0 2.8395.1848 7.1674-1.1568 10.0631-1.8909 4.081-5.8446 7.3477-9.1858 7.3477-3.3413 0-7.295-3.2667-9.1859-7.3477-1.3416-2.8957-1.1567-7.2236-1.1567-10.0631 0-6.8412 4.6305-11.3647 10.3426-11.3647 5.712 0 10.3426 4.5235 10.3426 11.3647z" fill="#f6f7f8"/><path d="m33.6059 27.2569c0 1.9034-1.2884 4.5598-2.8776 4.5598-1.5893 0-2.8776-2.6564-2.8776-4.5598s1.2883-3.4464 2.8776-3.4464c1.5892 0 2.8776 1.543 2.8776 3.4464z" fill="#f6f7f8"/><path d="m52.2759 27.2569c0 1.9034-1.2883 4.5598-2.8776 4.5598-1.5892 0-2.8775-2.6564-2.8775-4.5598s1.2883-3.4464 2.8775-3.4464c1.5893 0 2.8776 1.543 2.8776 3.4464z" fill="#f6f7f8"/><path clip-rule="evenodd" d="m30.9409 24.1263c.4769-1.5692 1.7526-3.9794 4.6014-5.387l.0406.0338c1.5359 1.2788 3.8607 3.2143 7.7446 3.3406 2.1109.0686 3.6356-.5469 4.5428-1.5373 1.2779 1.962 1.596 3.9556 1.8876 6.5848h.6755v-3.0348c0-4.4979-1.5398-7.028-2.4814-8.0502l-.0018.0185c-1.8971-2.3956-4.7263-3.7802-7.8865-3.7802-3.1407 0-5.9544 1.3675-7.8513 3.736l-.0125-.0064c-1.0133 1.3098-2.4873 3.5843-2.4873 8.0822v2.971h.6756z" fill="#d6dde2" fill-rule="evenodd"/><path d="m16.9491 43.6278c.5728-2.3775.9699-3.9584.9699-3.9584l6.4384-.7436.0248 5.1364s-1.6321.7503-4.0071.5628-3.426-.9972-3.426-.9972z" fill="#e4eaee"/><path d="m16.2524 45.688c.4972-2.2041.8447-3.6724.8447-3.6724s1.7167.7846 3.5711.9414c1.8544.1567 3.8495-.5462 3.8495-.5462v4.4642s-1.5802.8125-4.4552.4375-3.8101-1.6245-3.8101-1.6245z" fill="#f6f7f8"/><path d="m12.813 64.447c.0278-4.5566 3.5515-19.7693 3.5515-19.7693s1.7499 1.2777 3.6043 1.4344c1.8545.1567 4.6355-.3999 4.6355-.3999l-.0812 26.3468c.006.2036-.0426.4043-.1604.5706-.5812.8205-2.668 3.2439-6.4384 2.1671-4.5065-1.2871-5.1391-5.793-5.1113-10.3497z" fill="#d6dde2"/><g fill="#e4eaee"><path d="m12.7937 27.5143c-.2113-.3945-.6913-.559-1.1002-.3772-.4236.1883-.6198.6799-.4422 1.1081l2.8393 6.8455c.2628.6336.9961.9262 1.6229.6475.6482-.2881.915-1.0662.58-1.6914z"/><path d="m18.3282 21.273c-.2681-.5385-.9127-.7703-1.4623-.5259-.5506.2447-.8101.8802-.5884 1.4404l3.8742 9.7862c.3289.8308 1.2833 1.2207 2.0998.8577.8178-.3636 1.1674-1.3357.7685-2.1369z"/><path d="m13.92 23.1955c-.2518-.5664-.9151-.8215-1.4815-.5697-.5329.2369-.7955.8424-.6044 1.3934l3.4797 10.032c.3014.869 1.2817 1.2942 2.1221.9206.7928-.3524 1.1497-1.2807.7973-2.0734z"/><path d="m15.0164 20.4003c-.2637-.5419-.9093-.7774-1.4599-.5326-.5481.2437-.8064.8763-.5855 1.4339l4.4882 11.3265c.3306.8345 1.2894 1.2259 2.1096.8613.8165-.363 1.1695-1.3305.7785-2.134z"/><path d="m22.4653 29.502-.3921-.4202c-3.4123-.3486-6.7155 1.3199-8.4601 4.2731l-.1357.2296 1.7961 4.7237c1.1276 2.9655 4.5142 4.3757 7.4133 3.087 2.7901-1.2403 4.0464-4.5075 2.8062-7.2976z"/></g><path d="m20.2768 31.3546c-1.2672 2.3232-.82 5.0753-.82 5.0753l4.2948-4.5077-1.2221-2.8204s-.9855-.0704-2.2527 2.2528z" fill="#d6dde2"/><path d="m25.5044 27.825c.1397-.7197-.5804-1.5135-1.2889-1.3252-.1751.0465-.3297.1465-.432.2961-.4961.7255-1.9603 3.1793-2.0025 6.9196-.0019.1731-.1077.3301-.2639.4047-.6554.3131-2.3102 1.2857-2.3666 3.147-.0703 2.3227 1.9712 4.4351 4.7954 2.8159 2.8241-1.6192 1.8734-4.7913 1.8734-4.7913-.7838-3.4195-.6139-5.9268-.3149-7.4668z" fill="#e4eaee"/></svg>