<svg fill="none" height="80" viewBox="0 0 80 80" width="80" xmlns="http://www.w3.org/2000/svg"><rect width="80" height="80" fill="none"></rect><path d="m26.6478 40.9048c0 3.8523-2.6074 9.2284-5.8239 9.2284-3.2164 0-5.8239-5.3761-5.8239-9.2284 0-3.8522 2.6075-6.9751 5.8239-6.9751 3.2165 0 5.8239 3.1229 5.8239 6.9751z" fill="#e4eaee"/><path d="m64.4331 40.9048c0 3.8523-2.6074 9.2284-5.8239 9.2284s-5.8239-5.3761-5.8239-9.2284c0-3.8522 2.6074-6.9751 5.8239-6.9751s5.8239 3.1229 5.8239 6.9751z" fill="#e4eaee"/><path d="m60.6494 34.3604c0 5.7468.3742 14.5061-2.3412 20.3667-3.8268 8.2594-11.8288 14.8708-18.5911 14.8708s-14.7643-6.6114-18.5911-14.8708c-2.7154-5.8606-2.3412-14.6199-2.3412-20.3667 0-13.8458 9.3717-23.001 20.9323-23.001s20.9323 9.1552 20.9323 23.001z" fill="#f6f7f8"/><path d="m20.9797 22.5414c4.047-8.9525 11.0604-12.141 18.518-12.141 7.1046 0 14.3625 1.5582 18.6388 11.6632 1.351 2.8001 2.5304 6.8906 2.5304 12.4883v6.1367h-1.366c-.5628-5.0744-1.5256-10.6071-4.7363-14.3595-1.0848 1.3512-3.4195 2.4377-6.7548 3.505-6.5041 2.0814-15.3403-1.4213-17.2704-6.1688-5.7492 2.8474-8.3249 7.715-9.2884 10.8852l-1.1177 6.0075h-1.366v-6.0075c0-5.5249.9985-9.2678 2.2202-12.0082z" fill="#d6dde2"/><g stroke="#d6dde2" stroke-linecap="round" stroke-width="1.1633"><path d="m29.6377 56.1446c5.6189 5.6189 14.729 5.6189 20.3479 0-3.0786 1.166-6.6193 2.1124-10.1929 2.0628-3.6175-.0503-7.2666-1.1096-10.155-2.0628z" fill="#d6dde2" stroke-linejoin="round"/><path d="m26.8505 44.2657c1.92-1.92 5.033-1.92 6.953 0"/><path d="m45.7831 44.2676c1.9201-1.92 5.033-1.92 6.953 0"/><path d="m25.6283 39.702c1.9492-3.0923 6.2187-3.904 9.536-1.8129-2.9216-.3624-6.9184.1788-9.536 1.8129z" fill="#d6dde2" stroke-linejoin="round"/><path d="m54.0276 39.7001c-1.9492-3.0924-6.2187-3.9041-9.5361-1.813 2.9217-.3624 6.9185.1789 9.5361 1.813z" fill="#d6dde2" stroke-linejoin="round"/></g><path d="m35.4127 51.9011c0-.7006.6322-1.2317 1.3224-1.1107l2.325.4076c.3417.0599.6914.0584 1.0326-.0044l2.112-.3891c.6945-.1279 1.3349.4053 1.3349 1.1115 0 .3878-.1987.7484-.5265.9555l-1.3438.8491c-1.2829.8107-2.9133.8287-4.2138.0466l-1.4963-.8997c-.3391-.2039-.5465-.5707-.5465-.9664z" fill="#d6dde2"/></svg>