<svg width="80" height="80" viewBox="0 0 80 80" fill="none" xmlns="http://www.w3.org/2000/svg">
<rect width="80" height="80" fill="none"></rect>
<path fill-rule="evenodd" clip-rule="evenodd" d="M29.8707 21.3659C30.2255 19.3625 31.9667 17.9025 34.0014 17.9025H46.9064C48.941 17.9025 50.6823 19.3624 51.0372 21.3659C51.0372 21.3659 51.0372 21.3659 51.0372 21.3659L52.0185 26.9058L47.8878 27.6375L46.9065 22.0976L34.0014 22.0975L33.0201 27.6375L28.8894 26.9058L29.8707 21.3659C29.8707 21.3659 29.8707 21.3659 29.8707 21.3659Z" fill="#718398"/>
<path d="M68.9079 58.0924C68.9079 62.1468 65.6211 65.4336 61.5667 65.4336H18.2925C14.8173 65.4336 12 62.6164 12 59.1411V33.6713H68.9079V58.0924Z" fill="#647C99"/>
<path d="M12 33.7983C12 29.7438 15.2868 26.4571 19.3412 26.4571H62.6154C66.0906 26.4571 68.9079 29.2743 68.9079 32.7495V45.4213L66.7926 47.8519C64.8008 50.1406 61.9155 51.4545 58.8815 51.4545H21.9745C18.8946 51.4545 15.9705 50.1007 13.9778 47.7523L12 45.4213V33.7983Z" fill="#B6C6D3"/>
<path d="M23.4617 55.8926H27.9959C28.5751 55.8926 29.0447 55.423 29.0447 54.8438V48.0664C29.0447 47.4872 28.5751 47.0176 27.9959 47.0176H23.4617C22.8825 47.0176 22.413 47.4872 22.413 48.0664V54.8438C22.413 55.423 22.8825 55.8926 23.4617 55.8926Z" fill="#18293D"/>
<path d="M54.1187 55.8926H58.6529C59.2321 55.8926 59.7017 55.423 59.7017 54.8438V48.0664C59.7017 47.4872 59.2321 47.0176 58.6529 47.0176H54.1187C53.5395 47.0176 53.07 47.4872 53.07 48.0664V54.8438C53.07 55.423 53.5395 55.8926 54.1187 55.8926Z" fill="#18293D"/>
</svg>
