<svg width="56" height="56" viewBox="0 0 56 56" fill="none" xmlns="http://www.w3.org/2000/svg">
<rect width="56" height="56" fill="none"/>
<path fill-rule="evenodd" clip-rule="evenodd" d="M28 56C43.464 56 56 43.464 56 28C56 12.536 43.464 0 28 0C12.536 0 0 12.536 0 28C0 43.464 12.536 56 28 56Z" fill="#5C85AD" fill-opacity="0.07"/>
<rect x="19.0312" y="14.4983" width="27.6479" height="16.4367" rx="2" transform="matrix(0.95688 0.29427 -0.290483 0.955722 5.03213 -4.95835)" fill="#B8D1E0"/>
<rect x="9.79987" y="25.1064" width="27.6646" height="16.4267" rx="2" fill="#5C85AD"/>
<path fill-rule="evenodd" clip-rule="evenodd" d="M14.1062 31.3831C14.0228 31.6113 13.9089 31.9234 13.9089 31.9387C13.9089 31.962 13.8619 31.9851 13.8383 31.9851C13.8285 31.9851 13.7177 31.9411 13.588 31.8897C13.4053 31.8173 13.1852 31.73 13.1577 31.73C13.1344 31.73 13.111 31.6836 13.1344 31.6372C13.1813 31.5214 14.3077 28.4154 14.3546 28.2532C14.4486 27.9057 14.5895 27.6042 15.0352 27.6042C15.481 27.6042 15.6219 27.9287 15.7392 28.2532C15.7567 28.3053 15.9298 28.7824 16.1403 29.3628C16.4906 30.3281 16.9446 31.5793 16.9591 31.6372C16.9591 31.6606 16.9591 31.707 16.9358 31.73C16.9123 31.73 16.7539 31.7938 16.5955 31.8576C16.4371 31.9213 16.2787 31.9851 16.2552 31.9851C16.2316 31.9851 16.1846 31.9851 16.1613 31.9387C16.1613 31.923 16.0448 31.6042 15.9613 31.3755C15.9204 31.2636 15.8874 31.1733 15.8798 31.1505H14.1904C14.1826 31.1739 14.1483 31.2678 14.1062 31.3831ZM15.6454 30.3618L15.0354 28.6235L14.472 30.3618H15.6454Z" fill="white"/>
<path d="M12.7893 34.0762V33.2789C12.7893 33.229 12.8398 33.2041 12.865 33.2041H17.2039C17.2544 33.2041 17.2796 33.254 17.2796 33.2789V34.0762C17.2796 34.1261 17.2292 34.151 17.2039 34.151H12.865C12.8145 34.151 12.7893 34.1012 12.7893 34.0762Z" fill="white"/>
<rect x="12.1037" y="36.5399" width="18.1121" height="3.03333" rx="1.408" fill="white" fill-opacity="0.3"/>
<path opacity="0.8" fill-rule="evenodd" clip-rule="evenodd" d="M33.7595 39.6666C34.7774 39.6666 35.6025 38.8309 35.6025 37.7999C35.6025 36.769 34.7774 35.9333 33.7595 35.9333C32.7416 35.9333 31.9165 36.769 31.9165 37.7999C31.9165 38.8309 32.7416 39.6666 33.7595 39.6666Z" fill="white"/>
</svg>
