<svg width="80" height="80" viewBox="0 0 80 80" fill="none" xmlns="http://www.w3.org/2000/svg">
<rect width="80" height="80" fill="none"></rect>
<path fill-rule="evenodd" clip-rule="evenodd" d="M30.1111 15C27.902 15 26.1111 16.7909 26.1111 19V23H24V43.5C24 44.8807 25.1193 46 26.5 46H34V43L46 43V46H53.5C54.8807 46 56 44.8807 56 43.5V23H53.8889V19C53.8889 16.7909 52.098 15 49.8889 15H30.1111ZM50 23V17H30V23H50Z" fill="white"/>
<path d="M19 23H21V43.5C21 46.5376 23.4624 49 26.5 49H34V52C34 52.5523 34.4477 53 35 53H45C45.5523 53 46 52.5523 46 52V49H53.5C56.5376 49 59 46.5376 59 43.5V23H61C64.866 23 68 26.134 68 30V58C68 61.866 64.866 65 61 65H19C15.134 65 12 61.866 12 58V30C12 26.134 15.134 23 19 23Z" fill="white"/>
</svg>
