<svg width="80" height="80" viewBox="0 0 80 80" fill="none" xmlns="http://www.w3.org/2000/svg">
<rect width="80" height="80" fill="none"></rect>
<path fill-rule="evenodd" clip-rule="evenodd" d="M27 13C23.134 13 20 16.134 20 20V24.6667H60V20C60 16.134 56.866 13 53 13H27ZM39.5 18.6667C40.3284 18.6667 41 17.9951 41 17.1667C41 16.3383 40.3284 15.6667 39.5 15.6667C38.6716 15.6667 38 16.3383 38 17.1667C38 17.9951 38.6716 18.6667 39.5 18.6667ZM47 17.1667C47 17.9951 46.3284 18.6667 45.5 18.6667C44.6716 18.6667 44 17.9951 44 17.1667C44 16.3383 44.6716 15.6667 45.5 15.6667C46.3284 15.6667 47 16.3383 47 17.1667ZM51.5 18.6667C52.3284 18.6667 53 17.9951 53 17.1667C53 16.3383 52.3284 15.6667 51.5 15.6667C50.6716 15.6667 50 16.3383 50 17.1667C50 17.9951 50.6716 18.6667 51.5 18.6667Z" fill="white"/>
<path d="M40 34.1667C34.201 34.1667 29.5 38.8677 29.5 44.6667C29.5 50.4657 34.201 55.1667 40 55.1667C45.799 55.1667 50.5 50.4657 50.5 44.6667C50.5 38.8677 45.799 34.1667 40 34.1667Z" fill="white"/>
<path fill-rule="evenodd" clip-rule="evenodd" d="M60 27.6667H20V55.3333C20 61.4085 24.9249 66.3333 31 66.3333H49C55.0751 66.3333 60 61.4085 60 55.3333V27.6667ZM26.5 44.6667C26.5 37.2108 32.5442 31.1667 40 31.1667C47.4558 31.1667 53.5 37.2108 53.5 44.6667C53.5 52.1225 47.4558 58.1667 40 58.1667C32.5442 58.1667 26.5 52.1225 26.5 44.6667Z" fill="white"/>
</svg>
