<svg xmlns="http://www.w3.org/2000/svg" width="40" height="40" viewBox="0 0 40 40" fill="none"><rect width="40" height="40" fill="none"/>
<path fill-rule="evenodd" clip-rule="evenodd" d="M40 15C40 21.7282 35.5702 27.4218 29.4681 29.3233C29.4401 29.3336 29.4118 29.3442 29.3834 29.355C27.3912 29.9522 25.8963 32.0992 25.291 34.1258C25.252 34.2565 25.1413 34.3497 25.0049 34.3494C24.8647 34.349 24.747 34.2526 24.7068 34.1181C24.113 32.1292 22.6861 30.062 20.7534 29.3904C20.6533 29.3609 20.5537 29.3304 20.4545 29.2989L20.4404 29.2952L20.421 29.2882C20.2972 29.2486 20.1741 29.2074 20.0518 29.1647L19.9999 29.1488V29.1465C14.174 27.0873 10 21.5311 10 15C10 6.71573 16.7157 0 25 0C33.2843 0 40 6.71573 40 15ZM24.9202 40C25.9557 40 26.7952 39.1605 26.7952 38.125C26.7952 37.0895 25.9557 36.25 24.9202 36.25C23.8847 36.25 23.0452 37.0895 23.0452 38.125C23.0452 39.1605 23.8847 40 24.9202 40Z" fill="#EF3124"/>
<path fill-rule="evenodd" clip-rule="evenodd" d="M40 15C40 21.7282 35.5702 27.4218 29.4681 29.3233C29.4401 29.3336 29.4118 29.3442 29.3834 29.355C27.3912 29.9522 25.8963 32.0992 25.291 34.1258C25.252 34.2565 25.1413 34.3497 25.0049 34.3494C24.8647 34.349 24.747 34.2526 24.7068 34.1181C24.113 32.1292 22.6861 30.062 20.7534 29.3904C20.6533 29.3609 20.5537 29.3304 20.4545 29.2989L20.4404 29.2952L20.421 29.2882C20.2972 29.2486 20.1741 29.2074 20.0518 29.1647L19.9999 29.1488V29.1465C14.174 27.0873 10 21.5311 10 15C10 6.71573 16.7157 0 25 0C33.2843 0 40 6.71573 40 15ZM24.9202 40C25.9557 40 26.7952 39.1605 26.7952 38.125C26.7952 37.0895 25.9557 36.25 24.9202 36.25C23.8847 36.25 23.0452 37.0895 23.0452 38.125C23.0452 39.1605 23.8847 40 24.9202 40Z" fill="#1758C2"/>
<circle cx="25" cy="15" r="7.5" fill="#F3F4F5"/>
<path fill-rule="evenodd" clip-rule="evenodd" d="M30 15C30 21.7282 25.5702 27.4218 19.4681 29.3233C19.4401 29.3336 19.4118 29.3442 19.3834 29.355C17.3912 29.9522 15.8963 32.0992 15.291 34.1258C15.252 34.2565 15.1413 34.3497 15.0049 34.3494C14.8647 34.349 14.747 34.2526 14.7068 34.1181C14.113 32.1292 12.6861 30.062 10.7534 29.3904C10.6533 29.3609 10.5537 29.3304 10.4545 29.2989L10.4404 29.2952L10.421 29.2882C10.2972 29.2486 10.1741 29.2074 10.0518 29.1647L9.99994 29.1488V29.1465C4.17401 27.0873 0 21.5311 0 15C0 6.71573 6.71573 0 15 0C23.2843 0 30 6.71573 30 15ZM14.9202 40C15.9557 40 16.7952 39.1605 16.7952 38.125C16.7952 37.0895 15.9557 36.25 14.9202 36.25C13.8847 36.25 13.0452 37.0895 13.0452 38.125C13.0452 39.1605 13.8847 40 14.9202 40Z" fill="#EF3124"/>
<path fill-rule="evenodd" clip-rule="evenodd" d="M30 15C30 21.7282 25.5702 27.4218 19.4681 29.3233C19.4401 29.3336 19.4118 29.3442 19.3834 29.355C17.3912 29.9522 15.8963 32.0992 15.291 34.1258C15.252 34.2565 15.1413 34.3497 15.0049 34.3494C14.8647 34.349 14.747 34.2526 14.7068 34.1181C14.113 32.1292 12.6861 30.062 10.7534 29.3904C10.6533 29.3609 10.5537 29.3304 10.4545 29.2989L10.4404 29.2952L10.421 29.2882C10.2972 29.2486 10.1741 29.2074 10.0518 29.1647L9.99994 29.1488V29.1465C4.17401 27.0873 0 21.5311 0 15C0 6.71573 6.71573 0 15 0C23.2843 0 30 6.71573 30 15ZM14.9202 40C15.9557 40 16.7952 39.1605 16.7952 38.125C16.7952 37.0895 15.9557 36.25 14.9202 36.25C13.8847 36.25 13.0452 37.0895 13.0452 38.125C13.0452 39.1605 13.8847 40 14.9202 40Z" fill="#57B9E1"/>
<circle cx="15" cy="15" r="7.5" fill="#F3F4F5"/>
</svg>
