<?xml version="1.0" encoding="UTF-8"?>
<svg width="80px" height="80px" viewBox="0 0 80 80" version="1.1" xmlns="http://www.w3.org/2000/svg" xmlns:xlink="http://www.w3.org/1999/xlink">
    <!-- Generator: Sketch 48.2 (47327) - http://www.bohemiancoding.com/sketch -->
    <title>art_abm-headset_s_white</title>
    <desc>Created with Sketch.</desc>
    <defs></defs>
    <g id="Page-1" stroke="none" stroke-width="1" fill="none" fill-rule="evenodd">
        <g id="art_abm-headset_s_white">
            <polygon id="Shape" points="0 0 80 0 80 80 0 80"></polygon>
            <path d="M57.925,26 L65.752,26 C64.118,13.765 54.535,4 40,4 C28.596,4 18.02,10.303 15.134,22.692 C14.878,23.79 14.387,24.889 13.94,26 L21.075,26 C21.925,17.59 29.85,11 39.5,11 C49.15,11 57.075,17.59 57.925,26 Z" id="Shape" fill="#FFFFFF" fill-rule="nonzero" opacity="0.2"></path>
            <path d="M9,34 C6.23857625,34 4,36.2385763 4,39 L4,54 C4,56.7614237 6.23857625,59 9,59 L16,59 C16.5522847,59 17,58.5522847 17,58 L17,35 C17,34.4477153 16.5522847,34 16,34 L9,34 Z M9,33 L16,33 C17.1045695,33 18,33.8954305 18,35 L18,58 C18,59.1045695 17.1045695,60 16,60 L9,60 C5.6862915,60 3,57.3137085 3,54 L3,39 C3,35.6862915 5.6862915,33 9,33 Z M64,34 C63.4477153,34 63,34.4477153 63,35 L63,58 C63,58.5522847 63.4477153,59 64,59 L71,59 C73.7614237,59 76,56.7614237 76,54 L76,39 C76,36.2385763 73.7614237,34 71,34 L64,34 Z M64,33 L71,33 C74.3137085,33 77,35.6862915 77,39 L77,54 C77,57.3137085 74.3137085,60 71,60 L64,60 C62.8954305,60 62,59.1045695 62,58 L62,35 C62,33.8954305 62.8954305,33 64,33 Z" id="Shape" fill="#FFFFFF" fill-rule="nonzero"></path>
            <path d="M67.5,59.99 C67.334,68.747 64.183,73 58,73 L46,73 L46,74 L58,74 C64.81,74 68.325,69.254 68.5,60.01 L67.5,59.99 Z" id="Shape" fill="#FFFFFF" fill-rule="nonzero"></path>
            <path d="M42,76 C44.252,76 46,74.602 46,73 C46,71.398 44.252,70 42,70 C39.748,70 38,71.398 38,73 C38,74.602 39.748,76 42,76 Z M42,77 C39.239,77 37,75.21 37,73 C37,70.79 39.239,69 42,69 C44.761,69 47,70.79 47,73 C47,75.21 44.761,77 42,77 Z M13.498,33.543 C15.144,14.453 23.945,5 40,5 C56.055,5 64.856,14.453 66.502,33.543 L67.498,33.457 C65.811,13.881 56.611,4 40,4 C23.389,4 14.19,13.88 12.502,33.457 L13.498,33.543 Z" id="Shape" fill="#FFFFFF" fill-rule="nonzero"></path>
        </g>
    </g>
</svg>