<svg width="80" height="80" viewBox="0 0 80 80" fill="none" xmlns="http://www.w3.org/2000/svg">
<rect width="80" height="80" fill="none"/>
<path fill-rule="nonzero" clip-rule="nonzero" d="M40 80C62.0914 80 80 62.0914 80 40C80 17.9086 62.0914 0 40 0C17.9086 0 0 17.9086 0 40C0 62.0914 17.9086 80 40 80Z" fill="#5C85AD" fill-opacity="0.07"/>
<path d="M26.6027 22.6244C26.9256 21.5681 28.0437 20.9736 29.1 21.2965L63.0687 31.6818C64.125 32.0048 64.7196 33.1229 64.3966 34.1792L58.7051 52.7952C58.3822 53.8515 57.2641 54.446 56.2077 54.1231L22.239 43.7378C21.1827 43.4149 20.5882 42.2968 20.9112 41.2405L26.6027 22.6244Z" fill="#B8D1E0"/>
<rect x="14.3931" y="36" width="38.7349" height="23" rx="1.96023" fill="#5C85AD"/>
<path fill-rule="nonzero" clip-rule="nonzero" d="M19.8814 44.8332C19.7623 45.1592 19.5995 45.605 19.5995 45.6269C19.5995 45.6602 19.5324 45.6932 19.4987 45.6932C19.4846 45.6932 19.3263 45.6304 19.1411 45.557C18.8801 45.4535 18.5656 45.3288 18.5264 45.3288C18.4931 45.3288 18.4597 45.2625 18.4931 45.1963C18.5602 45.0308 20.1692 40.5937 20.2363 40.3619C20.3705 39.8654 20.5718 39.4348 21.2086 39.4348C21.8454 39.4348 22.0467 39.8984 22.2142 40.3619C22.2392 40.4364 22.4865 41.1179 22.7873 41.947C23.2877 43.326 23.9362 45.1135 23.957 45.1963C23.957 45.2296 23.957 45.2959 23.9237 45.3288C23.8901 45.3288 23.6638 45.4199 23.4375 45.511C23.2112 45.6021 22.9849 45.6932 22.9514 45.6932C22.9176 45.6932 22.8505 45.6932 22.8172 45.6269C22.8172 45.6045 22.6508 45.1491 22.5315 44.8223C22.4731 44.6625 22.426 44.5335 22.415 44.5009H20.0017C19.9905 44.5344 19.9415 44.6685 19.8814 44.8332ZM22.08 43.375L21.2086 40.8917L20.4038 43.375H22.08Z" fill="white"/>
<path d="M18 48.6801V47.5411C18 47.4698 18.0721 47.4342 18.1082 47.4342H24.3066C24.3787 47.4342 24.4148 47.5055 24.4148 47.5411V48.6801C24.4148 48.7513 24.3427 48.787 24.3066 48.787H18.1082C18.0361 48.787 18 48.7157 18 48.6801Z" fill="white"/>
<rect x="17" y="52.0057" width="27" height="5" rx="1.46925" fill="white" fill-opacity="0.3"/>
<path opacity="0.8" fill-rule="nonzero" clip-rule="nonzero" d="M47.9558 57C49.3365 57 50.4558 55.8807 50.4558 54.5C50.4558 53.1193 49.3365 52 47.9558 52C46.5751 52 45.4558 53.1193 45.4558 54.5C45.4558 55.8807 46.5751 57 47.9558 57Z" fill="white"/>
</svg>
