<svg xmlns="http://www.w3.org/2000/svg" width="80" height="80" viewBox="0 0 80 80" fill="none"><rect width="80" height="80" fill="none"/>
<path d="M69.9468 39.9438C69.9468 56.5124 56.5153 69.9438 39.9468 69.9438C23.3782 69.9438 9.94678 56.5124 9.94678 39.9438C9.94678 23.3753 23.3782 9.94385 39.9468 9.94385C56.5153 9.94385 69.9468 23.3753 69.9468 39.9438Z" fill="#E7ECF0"/>
<path fill-rule="evenodd" clip-rule="evenodd" d="M39.0877 20.436C51.7601 20.5049 61.9878 25.3744 61.9878 37.6209C61.9878 49.7836 51.8996 54.67 39.3475 54.8037V54.8162C35.1724 54.7935 31.2627 54.2497 27.8967 53.0927C25.3311 54.267 22.696 55.0434 20.6456 55.5338C19.286 55.8589 18.3363 54.2963 19.0928 53.1207C19.7865 52.0427 20.5566 50.748 21.2683 49.3353C18.2456 46.6043 16.4474 42.7663 16.4474 37.6313C16.4474 25.4686 26.5356 20.5822 39.0877 20.4485V20.436Z" fill="white"/>
<path d="M36.7889 24.7524H41.8904L41.4823 41.2131H37.1971L36.7889 24.7524ZM41.2952 48.9503C40.7624 49.4604 40.1105 49.7155 39.3397 49.7155C38.5688 49.7155 37.9113 49.4604 37.3671 48.9503C36.8343 48.4288 36.5679 47.794 36.5679 47.0457C36.5679 46.2975 36.8343 45.6684 37.3671 45.1582C37.9113 44.6367 38.5688 44.376 39.3397 44.376C40.1105 44.376 40.7624 44.6367 41.2952 45.1582C41.8394 45.6684 42.1114 46.2975 42.1114 47.0457C42.1114 47.794 41.8394 48.4288 41.2952 48.9503Z" fill="#D6DDE2"/>
<path fill-rule="evenodd" clip-rule="evenodd" d="M39.0817 19.9478C32.7544 20.0152 26.984 21.2792 22.7803 24.1137C18.5487 26.9672 15.9468 31.3863 15.9468 37.6305C15.9468 42.7356 17.686 46.6296 20.6503 49.4442C19.9969 50.708 19.303 51.8684 18.6717 52.8494C18.1809 53.6121 18.2432 54.5063 18.6519 55.1556C19.0651 55.8122 19.8492 56.2374 20.7612 56.0193C21.3276 55.8838 21.9389 55.7266 22.5814 55.5453C22.2964 56.0243 22.015 56.4764 21.7452 56.8957C20.9887 58.0712 21.9384 59.6339 23.298 59.3087C25.3471 58.8187 27.9802 58.043 30.5443 56.8699C33.9114 58.028 37.8228 58.5723 41.9999 58.595V58.5864C54.552 58.4527 64.6402 53.5664 64.6402 41.4037C64.6402 37.3 63.4918 34.0246 61.4878 31.4807L60.5815 31.917C60.5815 31.917 61.4871 35.4843 61.4871 37.6201C61.4871 43.5386 59.0449 47.644 55.0945 50.3078C51.116 52.9906 45.5663 54.2366 39.3415 54.303C35.6322 54.3425 31.431 53.7783 27.8697 52.5541C25.5134 53.6327 23.0477 54.4443 20.5286 55.0467C20.0811 55.1537 19.7105 54.9602 19.4982 54.6229C19.2812 54.2783 19.2469 53.8034 19.5126 53.3905C20.3797 52.043 21.1649 50.6497 21.8856 49.219C18.533 46.1899 16.9468 42.1302 16.9468 37.6305C16.9468 31.712 19.389 27.6066 23.3394 24.9428C27.3179 22.2601 32.8676 21.014 39.0924 20.9477L39.0817 19.9478Z" fill="#B4C6D2"/>
</svg>
