<svg fill="none" height="80" viewBox="0 0 80 80" width="80" xmlns="http://www.w3.org/2000/svg"><rect width="80" height="80" fill="none"></rect><path d="m28.4021 70.2108v-24.2868l-14.7051-2.0763 2.6822 20.8373c.4067 3.1597 3.0969 5.5258 6.2827 5.5258z" fill="#ed6261"/><g clip-rule="evenodd" fill-rule="evenodd"><path d="m25.6874 53.7839c0-.9996.8103-1.8099 1.8098-1.8099 3.2953 0 5.9666-2.6713 5.9666-5.9666 0-.9995.8103-1.8098 1.8099-1.8098s1.8099.8103 1.8099 1.8098c0 5.2944-4.292 9.5863-9.5864 9.5863-.9995 0-1.8098-.8103-1.8098-1.8098z" fill="#ed6261"/><path d="m64.4991 36.4895c0-.9995.8103-1.8098 1.8099-1.8098h7.6919c.9996 0 1.8099.8103 1.8099 1.8098 0 .9996-.8103 1.8099-1.8099 1.8099h-7.6919c-.9996 0-1.8099-.8103-1.8099-1.8099z" fill="#d6dde2"/><path d="m64.7561 45.8997c.1792-.9834 1.0784-1.4835 2.0083-1.1171l7.4298 2.9277c.93.3665 1.5386 1.4607 1.3594 2.4441-.1791.9833-1.0783 1.4834-2.0082 1.117l-7.4298-2.9277c-.93-.3664-1.5386-1.4606-1.3595-2.444z" fill="#d6dde2"/><path d="m75.5537 22.3723c-.1791-.9833-1.0783-1.4834-2.0082-1.117l-7.4298 2.9277c-.93.3664-1.5386 1.4607-1.3595 2.444.1792.9834 1.0783 1.4835 2.0083 1.1171l7.4298-2.9277c.93-.3665 1.5386-1.4607 1.3594-2.4441z" fill="#d6dde2"/></g><path d="m29.5357 25.1668c-2.2232.4582-22.86812 3.9269-22.86812 3.9269s-1.66758 3.2816-1.66758 7.3296 1.66752 7.3296 1.66752 7.3296 21.02878 3.1873 22.86818 3.811c1.8393.6236 3.9643.9674 5.183 1.6705l-.1875-25.375c-2.2031.9218-2.7724.8493-4.9955 1.3074z" fill="#d6dde2"/><path d="m34.7936 49.2301 14.2689 7.9234v-41.1066l-14.2689 7.7093c-1.4176.257-2.5503 5.8612-2.5503 12.7369 0 6.8758 1.1327 12.48 2.5503 12.737z" fill="#e4eaee"/><ellipse cx="49.4546" cy="36.5374" fill="#b4c6d2" rx="6.44773" ry="20.4906"/><path clip-rule="evenodd" d="m43.3578 43.2214c-.2275-2.0952-.351-4.3443-.351-6.6851 0-2.3399.1235-4.5882.3507-6.6828l4.8966 1.2333v10.9013z" fill="#d6dde2" fill-rule="evenodd"/><ellipse cx="48.254" cy="36.5428" fill="#e4eaee" rx="2.44118" ry="5.48614"/></svg>