<svg xmlns="http://www.w3.org/2000/svg" width="128" height="128" viewBox="0 0 128 128" fill="none"><rect width="128" height="128" fill="none"/>
<path fill-rule="evenodd" clip-rule="evenodd" d="M127.191 83.8932C126.757 89.0348 121.16 92 116 92C102.745 92 92 102.745 92 116C92 121.16 89.0349 126.757 83.8932 127.191C77.9868 127.689 71.3557 128 64 128C51.5321 128 41.1462 127.108 32.8421 125.919C16.5742 123.591 4.40913 111.426 2.08077 95.1579C0.892237 86.8538 0 76.4679 0 64C0 51.5321 0.892237 41.1462 2.08077 32.8421C4.40913 16.574 16.5742 4.409 32.8421 2.081C41.1462 0.892001 51.5321 0 64 0C76.4679 0 86.8538 0.892001 95.1579 2.081C111.426 4.409 123.591 16.574 125.919 32.8421C127.108 41.1462 128 51.5321 128 64C128 71.3557 127.689 77.9868 127.191 83.8932Z" fill="black"/>
</svg>
