<svg width="80" height="80" viewBox="0 0 80 80" fill="none" xmlns="http://www.w3.org/2000/svg">
<rect width="80" height="80" fill="none"></rect>
<path d="M40.2555 69.511C56.4129 69.511 69.511 56.4129 69.511 40.2555C69.511 24.0981 56.4129 11 40.2555 11C24.0981 11 11 24.0981 11 40.2555C11 56.4129 24.0981 69.511 40.2555 69.511Z" fill="#FFDB6C"/>
<path fill-rule="evenodd" clip-rule="evenodd" d="M25.1539 46.7273C26.1072 45.774 27.6529 45.774 28.6062 46.7273C35.0399 53.161 45.4709 53.161 51.9046 46.7273C52.8579 45.774 54.4036 45.774 55.3569 46.7273C56.3102 47.6806 56.3102 49.2262 55.3569 50.1795C47.0166 58.5198 33.4942 58.5198 25.1539 50.1795C24.2006 49.2262 24.2006 47.6806 25.1539 46.7273Z" fill="#ED6261"/>
<path fill-rule="evenodd" clip-rule="evenodd" d="M31.7342 34.9035C29.8968 33.0662 26.9178 33.0662 25.0805 34.9035C24.1272 35.8568 22.5816 35.8568 21.6283 34.9035C20.675 33.9502 20.675 32.4046 21.6283 31.4513C25.3722 27.7074 31.4424 27.7074 35.1864 31.4513C36.1397 32.4046 36.1397 33.9502 35.1865 34.9035C34.2332 35.8568 32.6876 35.8568 31.7342 34.9035Z" fill="#18293D"/>
<path fill-rule="evenodd" clip-rule="evenodd" d="M55.1549 34.9035C53.3176 33.0662 50.3386 33.0662 48.5011 34.9035C47.5478 35.8568 46.0022 35.8568 45.0489 34.9035C44.0956 33.9502 44.0957 32.4046 45.049 31.4513C48.793 27.7074 54.8632 27.7074 58.6071 31.4513C59.5604 32.4046 59.5604 33.9502 58.6071 34.9035C57.6538 35.8568 56.1082 35.8568 55.1549 34.9035Z" fill="#18293D"/>
</svg>
