<svg width="80" height="80" viewBox="0 0 80 80" fill="none" xmlns="http://www.w3.org/2000/svg">
<rect width="80" height="80" fill="none"></rect>
<path d="M38.4534 25.4561L39.2875 24.6488C39.6368 24.3108 40.2196 24.5653 40.2102 25.0517L39.9894 36.5109C39.9822 36.887 39.8974 37.2575 39.7404 37.5991L37.6207 42.2109L33.9309 39.9703L36.3521 34.8174C36.4529 34.6028 36.5254 34.376 36.5676 34.1427L37.9811 26.3409C38.0422 26.0037 38.2074 25.6942 38.4534 25.4561Z" fill="#FAABA7"/>
<path d="M19.4885 54.5819H16.2703C16.0392 54.5819 15.8093 54.6142 15.5872 54.6778L7.68271 56.9405C4.72977 57.6596 3.01446 59.3185 2.15854 62.6039L0 71.9216H28.6959V64.9809C28.6959 64.1991 28.8533 63.4254 29.1588 62.706L39.1096 39.2629C39.1096 39.2629 37.6972 39.2629 36.7556 38.8501C35.814 38.4374 34.9901 36.9043 34.9901 36.9043L25.7458 51.1767C24.3704 53.3003 22.0153 54.5819 19.4885 54.5819Z" fill="#286CD9"/>
<path d="M15.6361 60.6692C18.0911 60.6692 20.0813 58.9747 20.0813 56.8844C20.0813 54.7941 18.0911 53.0995 15.6361 53.0995C13.1811 53.0995 11.1909 54.7941 11.1909 56.8844C11.1909 58.9747 13.1811 60.6692 15.6361 60.6692Z" fill="#4C8DF5"/>
<path d="M15.7197 47.7774H15.7197C13.7986 47.7774 12.2412 49.3377 12.2412 51.2625V55.3215C12.2412 57.2463 13.7986 58.8066 15.7197 58.8066H15.7197C17.6408 58.8066 19.1981 57.2463 19.1981 55.3215V51.2625C19.1981 49.3377 17.6408 47.7774 15.7197 47.7774Z" fill="#FB9F9A"/>
<path d="M22.3779 44.0878C22.3779 45.9065 22.4961 48.6786 21.6384 50.5334C20.4296 53.1473 17.9019 55.2396 15.7659 55.2396C13.6299 55.2396 11.1023 53.1473 9.89348 50.5334C9.03576 48.6786 9.15396 45.9065 9.15396 44.0878C9.15396 39.706 12.1142 36.8086 15.7659 36.8086C19.4176 36.8086 22.3779 39.706 22.3779 44.0878Z" fill="#FFC1BD"/>
<path d="M11.638 46.1567C11.638 47.3758 10.8143 49.0772 9.79836 49.0772C8.78236 49.0772 7.95874 47.3758 7.95874 46.1567C7.95874 44.9375 8.78236 43.9492 9.79836 43.9492C10.8143 43.9492 11.638 44.9375 11.638 46.1567Z" fill="#FFC1BD"/>
<path d="M23.5732 46.1567C23.5732 47.3758 22.7496 49.0772 21.7336 49.0772C20.7177 49.0772 19.894 47.3758 19.894 46.1567C19.894 44.9375 20.7177 43.9492 21.7336 43.9492C22.7496 43.9492 23.5732 44.9375 23.5732 46.1567Z" fill="#FFC1BD"/>
<path fill-rule="evenodd" clip-rule="evenodd" d="M10.1683 39.8312C11.3388 37.7958 13.4083 36.5879 15.7661 36.5879C17.8146 36.5879 19.6455 37.4997 20.8583 39.0739C21.4623 39.7366 22.4381 41.3583 22.4381 44.2294V46.1769H22.0055C21.8153 44.4599 21.6077 43.1653 20.7524 41.8845C20.1719 42.5161 19.1987 42.9083 17.8527 42.8644C15.3994 42.7845 13.9192 41.5734 12.9371 40.7544C11.0865 41.655 10.2605 43.2158 9.95297 44.2296L9.59896 46.1361H9.16626V44.2296C9.16626 42.0988 9.6807 40.7456 10.2112 39.845L10.1683 39.8312Z" fill="#18293D"/>
<path d="M41.5467 25.4561L40.7126 24.6488C40.3633 24.3108 39.7805 24.5653 39.7899 25.0517L39.893 30.4062L40.0107 36.5109C40.0179 36.887 40.1027 37.2575 40.2597 37.5991L42.3794 42.2109L46.0692 39.9703L43.648 34.8174C43.5472 34.6028 43.4747 34.376 43.4325 34.1427L42.019 26.3409C41.9579 26.0037 41.7927 25.6942 41.5467 25.4561Z" fill="#FFC1BD"/>
<path d="M60.5115 54.5819H63.7298C63.9608 54.5819 64.1907 54.6142 64.4129 54.6778L72.3173 56.9405C74.5281 57.6596 76.9729 59.189 77.8818 62.6039L80 71.9216H51.3041V64.9809C51.3041 64.1991 51.1467 63.4254 50.8413 62.706L40.8904 39.2629C40.8904 39.2629 42.3028 39.2629 43.2444 38.8501C44.186 38.4374 45.0099 36.9043 45.0099 36.9043L54.2543 51.1767C55.6297 53.3003 57.9847 54.5819 60.5115 54.5819Z" fill="#536B88"/>
<path d="M58.7117 54.252L64.5344 54.7642L70.0553 56.2437C70.0553 56.2437 68.4599 61.3246 67.8026 63.3019C67.2975 64.8211 65.7023 68.1723 64.9901 69.6437C64.8464 69.9405 64.4305 69.9426 64.2834 69.6474C63.5372 68.1494 61.8467 64.6976 61.4078 63.3019C60.8397 61.4954 58.7117 54.252 58.7117 54.252Z" fill="#F6F7F8"/>
<path d="M64.2803 47.7774H64.2803C66.2014 47.7774 67.7588 49.3377 67.7588 51.2625V55.3215C67.7588 57.2463 66.2014 58.8066 64.2803 58.8066H64.2803C62.3592 58.8066 60.8019 57.2463 60.8019 55.3215V51.2625C60.8019 49.3377 62.3592 47.7774 64.2803 47.7774Z" fill="#FB9F9A"/>
<path d="M57.4706 44.0878C57.4706 45.9065 57.3523 48.6786 58.2101 50.5334C59.4189 53.1473 61.9465 55.2396 64.0825 55.2396C66.2186 55.2396 68.7462 53.1473 69.955 50.5334C70.8127 48.6786 70.6945 45.9065 70.6945 44.0878C70.6945 39.706 67.7342 36.8086 64.0825 36.8086C60.4309 36.8086 57.4706 39.706 57.4706 44.0878Z" fill="#FFC1BD"/>
<path d="M68.2104 46.1567C68.2104 47.3758 69.0341 49.0772 70.05 49.0772C71.0661 49.0772 71.8897 47.3758 71.8897 46.1567C71.8897 44.9375 71.0661 43.9492 70.05 43.9492C69.0341 43.9492 68.2104 44.9375 68.2104 46.1567Z" fill="#FFC1BD"/>
<path d="M56.2751 46.1567C56.2751 47.3758 57.0988 49.0772 58.1148 49.0772C59.1308 49.0772 59.9545 47.3758 59.9545 46.1567C59.9545 44.9375 59.1308 43.9492 58.1148 43.9492C57.0988 43.9492 56.2751 44.9375 56.2751 46.1567Z" fill="#FFC1BD"/>
<path fill-rule="evenodd" clip-rule="evenodd" d="M70.0474 44.2296C69.7346 43.1983 68.8852 41.601 66.9667 40.7084L66.9471 40.7248C65.9652 41.5438 64.479 42.7836 61.996 42.8644C60.7176 42.9061 59.7755 42.5544 59.1868 41.978C58.3826 43.2285 58.1805 44.5016 57.995 46.1769H57.5623V44.2294C57.5623 42.3158 57.9957 40.9572 58.4637 40.0677C58.4675 39.9895 58.4745 39.9106 58.4846 39.8312C59.6553 37.7958 61.7247 36.5879 64.0826 36.5879C66.1319 36.5879 67.9635 37.5004 69.1763 39.0758L69.241 39.043C69.8901 39.8835 70.8342 41.3431 70.8342 44.2296V46.1361H70.4014L70.0474 44.2296Z" fill="#18293D"/>
<path fill-rule="evenodd" clip-rule="evenodd" d="M40.2339 4.19849C40.6766 4.19849 41.0354 4.55734 41.0354 5.00001V14.9989C41.0354 15.4416 40.6766 15.8004 40.2339 15.8004C39.7912 15.8004 39.4324 15.4416 39.4324 14.9989V5.00001C39.4324 4.55734 39.7912 4.19849 40.2339 4.19849Z" fill="#D6DDE2"/>
<path fill-rule="evenodd" clip-rule="evenodd" d="M53.5309 10.8244C53.8447 11.1366 53.8459 11.6441 53.5337 11.9579L50.7079 14.798L47.8822 17.638C47.5699 17.9518 47.0624 17.9531 46.7486 17.6409C46.4348 17.3287 46.4336 16.8212 46.7458 16.5074L52.3973 10.8273C52.7096 10.5135 53.2171 10.5122 53.5309 10.8244Z" fill="#D6DDE2"/>
<path fill-rule="evenodd" clip-rule="evenodd" d="M26.9029 10.9572C27.2167 10.645 27.7242 10.6463 28.0365 10.9601L33.5517 16.5032C33.8639 16.817 33.8626 17.3245 33.5488 17.6367C33.235 17.9489 32.7275 17.9476 32.4153 17.6338L26.9001 12.0907C26.5879 11.7769 26.5891 11.2694 26.9029 10.9572Z" fill="#D6DDE2"/>
</svg>
