<svg fill="none" height="80" viewBox="0 0 80 80" width="80" xmlns="http://www.w3.org/2000/svg"><rect width="80" height="80" fill="none"></rect><circle cx="39.969" cy="39.969" fill="#d6dde2" r="29.0315"/><circle cx="40" cy="40" fill="#f1f4f8" r="25"/><g fill="#d6dde2"><path clip-rule="evenodd" d="m50.3818 52.6205 7.4853 7.111 2.7549-2.9-7.4847-7.1106c-.7972 1.0755-1.7233 2.0496-2.7555 2.8996zm-23.5247-22.3485c.7972-1.0754 1.7232-2.0496 2.7554-2.8996l-7.4849-7.1107-2.755 2.9z" fill-rule="evenodd"/><path clip-rule="evenodd" d="m40.2579 30.1914c-2.556 0-4.6175 2.064-4.6175 4.597h-4c0-4.7538 3.864-8.597 8.6175-8.597s8.6175 3.8432 8.6175 8.597c0 2.0177-.5201 3.5655-1.3857 4.825-.7788 1.1332-1.7909 1.9467-2.5635 2.5677-.0356.0287-.0707.0569-.1052.0847-.8523.6863-1.4384 1.1826-1.8638 1.8222-.383.5758-.6993 1.3751-.6993 2.7197h-4c0-2.0607.5109-3.6452 1.3687-4.9349.8024-1.2064 1.8497-2.0495 2.6472-2.6916l.0385-.031c.8703-.7007 1.4547-1.1823 1.8808-1.8023.3752-.5459.6823-1.2918.6823-2.5595 0-2.533-2.0615-4.597-4.6175-4.597z" fill-rule="evenodd"/><path d="m43.0523 51.7042c0 1.5431-1.2509 2.7941-2.794 2.7941s-2.7941-1.251-2.7941-2.7941 1.251-2.794 2.7941-2.794 2.794 1.2509 2.794 2.794z"/></g></svg>