<svg width="80" height="80" viewBox="0 0 80 80" fill="none" xmlns="http://www.w3.org/2000/svg">
<rect width="80" height="80" fill="none"></rect>
<path fill-rule="evenodd" clip-rule="evenodd" d="M39.8831 24.4953C38.0119 24.4953 36.4351 26.0682 36.4351 27.9854L31.0714 28.028C31.0714 23.1739 35.1453 19 39.8831 19C44.6209 19 48.6948 23.1313 48.6948 27.9854C48.6948 31.9127 46.013 35.486 42.1791 36.6636V38.6948C42.1791 39.6468 41.8382 40.5071 41.0325 40.9813L15.7468 55.8972H63.2532L44.8636 44.9065L47.5455 40.1963L67.8506 52.3645C68.6563 52.8387 69 53.7676 69 54.7196V58.6449C69 60.1133 68.1346 61 66.7013 61H12.4788C11.0455 61 10 59.7208 10 58.2523V54.7196C10 53.7676 10.3437 52.8387 11.1494 52.3645L36.8182 37.4486V34.3084C36.8182 32.8399 38.4498 31.5607 39.8831 31.5607C41.7543 31.5607 43.3312 29.9026 43.3312 27.9854C43.3312 26.0682 41.5832 24.4953 39.8831 24.4953Z" fill="white"/>
</svg>
