<svg width="96" height="96" viewBox="0 0 96 96" xmlns="http://www.w3.org/2000/svg"><g fill="none" fill-rule="evenodd"><path d="M0 0h96v96H0z"/><circle fill="#FFF" opacity=".35" cx="55" cy="46" r="7.5"/><path d="M82.5 8h-68C9.813 8 6 11.813 6 16.5v60c0 4.687 3.813 8.5 8.5 8.5H18v3.5c0 .827.673 1.5 1.5 1.5h10c.827 0 1.5-.673 1.5-1.5V85h31v3.5c0 .827.673 1.5 1.5 1.5h10c.827 0 1.5-.673 1.5-1.5V85h7.5c4.687 0 8.5-3.813 8.5-8.5v-60c0-4.687-3.813-8.5-8.5-8.5zM30 88.5a.5.5 0 0 1-.5.5h-10a.5.5 0 0 1-.5-.5V85h11v3.5zm44 0a.5.5 0 0 1-.5.5h-10a.5.5 0 0 1-.5-.5V85h11v3.5zm16-12c0 4.136-3.364 7.5-7.5 7.5h-68C10.364 84 7 80.636 7 76.5v-60C7 12.364 10.364 9 14.5 9h68c4.136 0 7.5 3.364 7.5 7.5v60z" fill="#FFF"/><path d="M55 70.5c13.509 0 24.5-10.991 24.5-24.5S68.509 21.5 55 21.5 30.5 32.491 30.5 46 41.491 70.5 55 70.5zm0-46c11.855 0 21.5 9.645 21.5 21.5S66.855 67.5 55 67.5 33.5 57.855 33.5 46 43.145 24.5 55 24.5z" fill="#FFF" opacity=".3"/><path fill="#FFF" opacity=".3" d="M40.673 32.83l1.414-1.414 5.657 5.657-1.414 1.414zm-4.468 8.78l.517-1.933 7.728 2.07-.518 1.933zm.001 7.898l7.727-2.07.518 1.932-7.728 2.07zm4.468 8.778l5.657-5.657 1.414 1.414L42.09 59.7zm8.257 5.366l2.07-7.727 1.933.517-2.07 7.728zm7.766-7.212l1.932-.519 2.07 7.728-1.932.517zm5.191-2.396l1.414-1.415 5.657 5.657-1.414 1.415z"/></g></svg>