<svg width="56" height="56" viewBox="0 0 56 56" fill="none" xmlns="http://www.w3.org/2000/svg">
<rect width="56" height="56" fill="none"/>
<g id="art_shield_xxs_color">
<path id="ellipse" fill-rule="evenodd" clip-rule="evenodd" d="M28 56C43.464 56 56 43.464 56 28C56 12.536 43.464 0 28 0C12.536 0 0 12.536 0 28C0 43.464 12.536 56 28 56Z" fill="#5C85AD" fill-opacity="0.07"/>
<path id="vector" fill-rule="evenodd" clip-rule="evenodd" d="M40.125 18.6782C33.3513 17.9008 27.4356 14.6997 27.4356 14.6997C27.4356 14.6997 21.5199 17.9008 14.7461 18.6782C14.7461 18.6782 13.2409 37.1224 27.4356 43.8752C36.1783 39.716 38.9652 31.1217 39.8163 25.1334C40.3471 21.3991 40.125 18.6782 40.125 18.6782Z" fill="#5C85AD"/>
<path id="shape" fill-rule="evenodd" clip-rule="evenodd" d="M26.1065 23.3586C26.0167 23.6732 23.8634 29.6934 23.774 29.9181C23.7293 30.008 23.774 30.098 23.8187 30.098C23.8714 30.098 24.294 30.2678 24.6437 30.4083C24.8905 30.5075 25.101 30.5921 25.1195 30.5921C25.1642 30.5921 25.254 30.5473 25.254 30.5021C25.254 30.4712 25.4846 29.8316 25.6448 29.387C25.719 29.1813 25.7781 29.0173 25.7924 28.9747H29.0221C29.0367 29.0188 29.0997 29.1934 29.1776 29.4098C29.3374 29.8532 29.5605 30.472 29.5605 30.5021C29.6052 30.5921 29.695 30.5921 29.7401 30.5921C29.785 30.5921 30.0884 30.4683 30.3915 30.3446C30.6939 30.2212 30.9961 30.098 31.0408 30.098C31.0855 30.0532 31.0855 29.9632 31.0855 29.9181C31.0573 29.8047 30.1736 27.3351 29.5015 25.4572C29.1075 24.3561 28.7862 23.4584 28.753 23.3586C28.5287 22.7298 28.2597 22.1006 27.4072 22.1006C26.5547 22.1006 26.2857 22.685 26.1065 23.3586ZM23.2583 34.79H31.5532C31.6015 34.79 31.6979 34.7416 31.6979 34.645V33.0992C31.6979 33.0508 31.6496 32.9543 31.5532 32.9543H23.2583C23.2099 32.9543 23.1136 33.0027 23.1136 33.0992V34.645C23.1136 34.6935 23.1619 34.79 23.2583 34.79ZM26.3307 27.4476H28.5734L27.4072 24.0781L26.3307 27.4476Z" fill="white"/>
</g>
</svg>
