<svg width="80" height="80" viewBox="0 0 80 80" fill="none" xmlns="http://www.w3.org/2000/svg">
<rect width="80" height="80" fill="none"></rect>
<path d="M16.4978 19.1088C21.6499 15.6508 29.4467 12 40.9567 12C55.5624 12 60.87 15.0814 63.9568 17.0042C67.2748 19.072 68.3921 22.0254 68.3921 28.1834C68.2523 28.8572 67.7818 29.9985 67.5565 30.7378C65.3047 38.1356 59.3689 54.6657 57.3258 58.9888C55.2783 63.3141 51.4809 63.601 49.7265 58.9888C47.9699 54.3766 47.6655 53.032 47.6655 53.032C47.6655 53.032 27.2039 50.1477 16.4978 41.4008C14.2811 39.5907 11.9598 37.2634 11.0813 34.752C11.0813 28.6191 11.3311 22.5799 16.4978 19.1088Z" fill="#E9EEF1"/>
<path d="M16.4984 22.6458C21.6505 19.1878 29.4473 15.537 40.9573 15.537C55.563 15.537 60.8706 18.6184 63.9574 20.5412C67.6438 22.8385 69.8112 26.8769 67.5572 34.2748C65.3053 41.6726 59.3695 58.2027 57.3264 62.5258C55.2789 66.8511 51.4815 67.138 49.7271 62.5258C47.9705 57.9136 47.6661 56.569 47.6661 56.569C47.6661 56.569 27.2045 53.6847 16.4984 44.9378C9.30553 39.0642 9.03014 27.6631 16.4984 22.6458Z" fill="#D1DDE5"/>
<path d="M54.2018 29.5483C54.2018 37.4898 39.8225 48.7822 39.8225 48.7822C39.8225 48.7822 25.4431 37.4898 25.4431 29.5483C25.4431 21.6068 36.9022 19.4987 39.8225 27.3924C42.8864 19.6246 54.2018 21.6068 54.2018 29.5483Z" fill="#EE514A"/>
</svg>
