<svg xmlns="http://www.w3.org/2000/svg" width="128" height="128" viewBox="0 0 128 128" fill="none"><rect width="128" height="128" fill="none"/>
<path d="M59.9903 36.7577C49.1703 61.735 49.6302 81.0057 53.2941 91.1213C56.1993 99.1422 64.7004 99.8132 70.784 97.8984C82.0282 94.3593 107.915 76.8764 115.295 70.552C122.675 64.2275 123.098 56.8731 116.163 49.121C109.228 41.3689 90.6935 28.6819 75.9585 26.4516C66.1894 24.9729 62.642 30.6365 59.9903 36.7577Z" fill="#E7ECF0"/>
<path d="M66.1266 44H106L89.8734 70H50L66.1266 44Z" fill="#18293D"/>
<path d="M42.9016 38.2055C43.0455 37.3537 44.1151 37.0671 44.6655 37.7329L55.0724 50.3194C55.2967 50.5907 55.6444 50.7257 55.9906 50.6759L72.0494 48.3666C72.8988 48.2444 73.5042 49.1814 73.0477 49.9118L64.4174 63.7201C64.2314 64.0178 64.2127 64.392 64.368 64.7084L71.5736 79.3848C71.9547 80.161 71.2592 81.0268 70.4266 80.8124L54.686 76.7599C54.3467 76.6726 53.9874 76.7688 53.7372 77.0142L42.1317 88.394C41.5178 88.9959 40.4826 88.594 40.4246 87.7311L39.3266 71.4182C39.3029 71.0666 39.0996 70.7518 38.7896 70.5871L24.4115 62.9438C23.651 62.5396 23.7067 61.4254 24.5034 61.1065L39.5654 55.0771C39.8901 54.9471 40.1237 54.6563 40.1823 54.3091L42.9016 38.2055Z" fill="#FCD971"/>
<path fill-rule="evenodd" clip-rule="evenodd" d="M42.7528 37.9605C42.9601 36.687 44.5504 36.2608 45.3667 37.2601L55.6671 49.8696C55.7778 50.0052 55.9498 50.0731 56.121 50.0488L71.9454 47.8034C73.1988 47.6255 74.0961 49.0154 73.429 50.1016L64.9654 63.8836C64.8751 64.0307 64.8665 64.2151 64.9426 64.3715L72.1076 79.0755C72.6725 80.2347 71.6401 81.5212 70.4069 81.1948L54.8901 77.0875C54.7214 77.0429 54.5427 77.0908 54.419 77.2137L43.0347 88.5291C42.1299 89.4284 40.5926 88.8305 40.5021 87.5441L39.316 70.6697L40.3063 70.6058L41.4925 87.4802C41.5226 87.909 42.035 88.1083 42.3366 87.8085L53.721 76.4931C54.0921 76.1242 54.6283 75.9805 55.1343 76.1144L70.6511 80.2217C71.0622 80.3305 71.4063 79.9017 71.218 79.5153L64.053 64.8113C63.8245 64.3423 63.8503 63.7888 64.1213 63.3476L72.5849 49.5656C72.8073 49.2035 72.5082 48.7403 72.0904 48.7995L56.266 51.0449C55.7524 51.1178 55.2364 50.9142 54.9041 50.5075L44.6037 37.8979C44.3316 37.5648 43.8015 37.7069 43.7324 38.1314L41.0262 54.7581L40.0466 54.5872L42.7528 37.9605Z" fill="#18293D"/>
<path d="M18 69H52V115H18V69Z" fill="#FAFAFA"/>
<path d="M50 69H90V115H50V69Z" fill="#D6DDE2"/>
<path d="M66 69H74V115H66V69Z" fill="#EF3124"/>
<path fill-rule="evenodd" clip-rule="evenodd" d="M18 69V115H17V69H18Z" fill="#18293D"/>
<path fill-rule="evenodd" clip-rule="evenodd" d="M2 115L114 115L114 114L2 114L2 115Z" fill="#18293D"/>
</svg>
