<svg fill="none" height="80" viewBox="0 0 80 80" width="80" xmlns="http://www.w3.org/2000/svg"><rect width="80" height="80" fill="none"></rect><rect fill="#f6f7f8" height="5.64424" rx="2.82212" transform="matrix(-1 0 0 -1 136.3168 137.918)" width="56.9079" x="68.1584" y="68.959"/><path d="m49.2037 26.9083-1.0158-5.7347c-.1574-.889-.9301-1.5369-1.833-1.5369h-13.3008c-.9029 0-1.6756.6479-1.833 1.5369l-1.0158 5.7347" stroke="#d6dde2" stroke-width="4.19"/><path d="m68.1584 58.553c0 3.5983-2.917 6.5154-6.5153 6.5154h-44.808c-3.0843 0-5.5846-2.5004-5.5846-5.5846v-26.1778h56.9079z" fill="#d6dde2"/><path d="m11.2505 32.6091c0-3.5983 2.917-6.5153 6.5153-6.5153h44.8081c3.0843 0 5.5846 2.5003 5.5846 5.5845v13.3798l-2.468 2.8359c-1.7677 2.0312-4.3285 3.1973-7.0211 3.1973h-37.9906c-2.7334 0-5.3286-1.2015-7.0971-3.2857l-2.3312-2.7475z" fill="#e4eaee"/><g fill="#f6f7f8"><rect height="8.87499" rx=".930765" transform="matrix(-1 0 0 -1 56.5904 111.0586)" width="6.6317" x="28.2952" y="55.5293"/><rect height="8.87499" rx=".930765" transform="matrix(-1 0 0 -1 117.9042 111.0586)" width="6.6317" x="58.9521" y="55.5293"/></g></svg>