<svg xmlns="http://www.w3.org/2000/svg" width="80" height="80" viewBox="0 0 80 80" fill="none"><rect width="80" height="80" fill="none"/>
<path d="M1.30048 20.5263C2.75571 10.3588 10.3588 2.75571 20.5263 1.30048C25.7164 0.557648 32.2076 0 40 0C47.7924 0 54.2836 0.557648 59.4737 1.30048C69.6412 2.75571 77.2443 10.3588 78.6995 20.5263C79.4423 25.7164 80 32.2076 80 40C80 47.7924 79.4423 54.2836 78.6995 59.4737C77.2443 69.6412 69.6412 77.2443 59.4737 78.6995C54.2836 79.4423 47.7924 80 40 80C32.2076 80 25.7164 79.4423 20.5263 78.6995C10.3588 77.2443 2.75571 69.6412 1.30048 59.4737C0.557648 54.2836 0 47.7924 0 40C0 32.2076 0.557648 25.7164 1.30048 20.5263Z" fill="black"/>
</svg>
