<svg xmlns="http://www.w3.org/2000/svg" width="80" height="80" viewBox="0 0 80 80" fill="none"><rect width="80" height="80" fill="none"/>
<path d="M71.5 40C71.5 57.397 57.397 71.5 40 71.5C22.603 71.5 8.5 57.397 8.5 40C8.5 22.603 22.603 8.5 40 8.5C57.397 8.5 71.5 22.603 71.5 40Z" fill="#E7ECF0"/>
<path d="M29.889 11.5C40.1827 11.5559 48.4906 15.5115 48.4906 25.4592C48.4906 35.3384 40.2968 39.3077 30.1016 39.4167V39.4253C26.7089 39.4069 23.532 38.9648 20.7972 38.0243C18.9968 38.8481 17.1544 39.4307 15.6127 39.8307C14.2596 40.1818 13.299 38.6262 14.0326 37.4362C14.4877 36.6979 14.9656 35.8641 15.4149 34.9723C12.9603 32.754 11.5 29.6367 11.5 25.4661C11.5 15.5869 19.6938 11.6176 29.889 11.5086V11.5Z" fill="white"/>
<path fill-rule="evenodd" clip-rule="evenodd" d="M29.389 10.9973L29.8918 11C35.0896 11.0283 39.8504 12.0394 43.327 14.354C46.8323 16.6876 48.9906 20.3209 48.9906 25.4592C48.9906 30.5617 46.8623 34.1806 43.3989 36.5163C40.0738 38.7587 35.5569 39.7942 30.6016 39.9083V39.928L30.0988 39.9253C26.7445 39.9071 23.5791 39.4797 20.8237 38.5612C19.0475 39.3573 17.2473 39.9232 15.7383 40.3147C14.828 40.5509 14.0396 40.1348 13.6196 39.4818C13.2051 38.8374 13.1324 37.9436 13.607 37.1738C13.9987 36.5384 14.4068 35.8324 14.7978 35.0806C12.4016 32.7793 11 29.6068 11 25.4661C11 20.3637 13.1283 16.7447 16.5917 14.409C19.9168 12.1667 24.4337 11.1311 29.389 11.017V10.9973ZM30.2944 12.0043L29.8944 12.0086C24.848 12.0626 20.3611 13.0732 17.1508 15.2381C13.9686 17.3841 12 20.6894 12 25.4661C12 29.5067 13.4086 32.4853 15.7502 34.6013L16.033 34.8569L15.8615 35.1973C15.4046 36.1041 14.9194 36.9505 14.4582 37.6986C14.1991 38.1188 14.24 38.5978 14.4607 38.9409C14.6758 39.2754 15.0443 39.4616 15.4872 39.3467C17.0102 38.9516 18.8231 38.3778 20.5891 37.5696L20.7708 37.4865L20.9598 37.5515C23.5216 38.4325 26.4974 38.8707 29.6963 38.921L30.0962 38.9167C35.1426 38.8628 39.6295 37.8522 42.8397 35.6872C46.022 33.5412 47.9906 30.236 47.9906 25.4592C47.9906 20.6498 45.9949 17.3314 42.7729 15.1864C39.6092 13.0802 35.2244 12.0818 30.2944 12.0043Z" fill="#18293D"/>
<path d="M24.1289 28.8242C24.1289 29.9978 23.1775 30.9492 22.0039 30.9492C20.8303 30.9492 19.8789 29.9978 19.8789 28.8242C19.8789 27.6506 20.8303 26.6992 22.0039 26.6992C23.1775 26.6992 24.1289 27.6506 24.1289 28.8242Z" fill="#18293D"/>
<path d="M32.1204 28.8242C32.1204 29.9978 31.169 30.9492 29.9954 30.9492C28.8218 30.9492 27.8704 29.9978 27.8704 28.8242C27.8704 27.6506 28.8218 26.6992 29.9954 26.6992C31.169 26.6992 32.1204 27.6506 32.1204 28.8242Z" fill="#18293D"/>
<path d="M40.1118 28.8242C40.1118 29.9978 39.1604 30.9492 37.9868 30.9492C36.8132 30.9492 35.8618 29.9978 35.8618 28.8242C35.8618 27.6506 36.8132 26.6992 37.9868 26.6992C39.1604 26.6992 40.1118 27.6506 40.1118 28.8242Z" fill="#18293D"/>
<path d="M54.4426 39.543C46.1761 39.5989 39.5045 43.5544 39.5045 53.5022C39.5045 63.3814 46.0845 67.3506 54.272 67.4597V67.4692C57.3839 67.4481 60.2698 66.8744 62.6589 65.6365C64.7322 66.6936 66.9406 67.409 68.7396 67.8757C70.0928 68.2268 71.0534 66.6712 70.3198 65.4813C69.4411 64.0559 68.4777 62.2746 67.7988 60.4077C68.7043 58.5336 69.2101 56.2489 69.2101 53.51C69.2101 43.6308 62.63 39.6615 54.4426 39.5525V39.543Z" fill="#EF3124"/>
<path d="M52.4033 60.0615C52.1478 60.3169 51.8343 60.4446 51.4628 60.4446C51.0912 60.4446 50.7778 60.3169 50.5223 60.0615C50.2669 59.806 50.1392 59.4925 50.1392 59.121C50.1392 58.7494 50.2669 58.436 50.5223 58.1805C50.7778 57.9251 51.0912 57.7974 51.4628 57.7974C51.8343 57.7974 52.1478 57.9251 52.4033 58.1805C52.6587 58.436 52.7864 58.7494 52.7864 59.121C52.7864 59.4925 52.6587 59.806 52.4033 60.0615ZM52.4033 51.516C52.1478 51.7714 51.8343 51.8991 51.4628 51.8991C51.0912 51.8991 50.7778 51.7714 50.5223 51.516C50.2669 51.2605 50.1392 50.947 50.1392 50.5755C50.1392 50.2039 50.2669 49.8905 50.5223 49.635C50.7778 49.3796 51.0912 49.2519 51.4628 49.2519C51.8343 49.2519 52.1478 49.3796 52.4033 49.635C52.6587 49.8905 52.7864 50.2039 52.7864 50.5755C52.7864 50.947 52.6587 51.2605 52.4033 51.516Z" fill="white"/>
<path d="M59.6483 50.2272C59.8419 51.3031 59.9386 52.4719 59.9386 53.7336C59.9386 54.9953 59.8419 56.168 59.6483 57.2517C59.4626 58.3276 59.1955 59.2797 58.8472 60.1079C58.4989 60.9361 58.1544 61.6289 57.8139 62.1862C57.481 62.7513 57.0901 63.3202 56.6412 63.893H54.946C55.2324 63.5602 55.5304 63.0996 55.84 62.5113C56.1574 61.9308 56.4747 61.2148 56.7921 60.3633C57.1095 59.5196 57.3688 58.5134 57.57 57.3445C57.779 56.1757 57.8835 54.9721 57.8835 53.7336C57.8835 52.4951 57.779 51.2915 57.57 50.1227C57.3688 48.9461 57.1056 47.936 56.7805 47.0923C56.4631 46.2486 56.1496 45.5364 55.84 44.9559C55.5304 44.3676 55.2324 43.9071 54.946 43.5742H56.6412C57.0901 44.147 57.481 44.7159 57.8139 45.281C58.1544 45.8383 58.4989 46.5311 58.8472 47.3593C59.1955 48.1875 59.4626 49.1435 59.6483 50.2272Z" fill="white"/>
</svg>
