<svg xmlns="http://www.w3.org/2000/svg" width="80" height="160" viewBox="0 0 80 160" fill="none"><rect width="80" height="160" fill="none"/>
<path d="M0 8V152C0 156.418 3.58172 160 8 160H40V0H8C3.58172 0 0 3.58172 0 8Z" fill="white"/>
<path d="M0 8V152C0 156.418 3.58172 160 8 160H40V158H8C4.68629 158 2 155.314 2 152V8C2 4.68629 4.68629 2 8 2H40V0H8C3.58172 0 0 3.58172 0 8Z" fill="#E9E9EB"/>
<rect x="8" y="11" width="8" height="8" rx="4" fill="#EF3124"/>
<path d="M40 128V148H12C9.79086 148 8 146.209 8 144V132C8 129.791 9.79086 128 12 128H40Z" fill="#E9E9EB"/>
<path d="M40 118V124H11C9.34314 124 8 122.657 8 121C8 119.343 9.34315 118 11 118H40Z" fill="#E9E9EB"/>
<path d="M40 88V108H12C9.79086 108 8 106.209 8 104V92C8 89.7909 9.79086 88 12 88H40Z" fill="#E9E9EB"/>
<path d="M40 78V84H11C9.34314 84 8 82.6569 8 81C8 79.3431 9.34315 78 11 78H40Z" fill="#E9E9EB"/>
<path d="M40 28V68H12C9.79086 68 8 66.2091 8 64V32C8 29.7909 9.79086 28 12 28H40Z" fill="#E9E9EB"/>
<path d="M40 12V18H23.2222C21.5654 18 20.2222 16.6569 20.2222 15C20.2222 13.3431 21.5654 12 23.2222 12H40Z" fill="#E9E9EB"/>
<path d="M40 160H72C76.4183 160 80 156.418 80 152V8C80 3.58172 76.4183 0 72 0H40V160Z" fill="#121212"/>
<path d="M40 2H72C75.3137 2 78 4.68629 78 8V152C78 155.314 75.3137 158 72 158H40V160H72C76.4183 160 80 156.418 80 152V8C80 3.58172 76.4183 0 72 0H40V2Z" fill="#2B2B2B"/>
<path d="M40 18V12H49.2222C50.8791 12 52.2222 13.3431 52.2222 15C52.2222 16.6569 50.8791 18 49.2222 18H40Z" fill="#2B2B2B"/>
<path d="M40 68V28H68C70.2091 28 72 29.7909 72 32V64C72 66.2091 70.2091 68 68 68H40Z" fill="#2B2B2B"/>
<path d="M40 84V78H61C62.6569 78 64 79.3431 64 81C64 82.6569 62.6569 84 61 84H40Z" fill="#2B2B2B"/>
<path d="M40 108V88H68C70.2091 88 72 89.7909 72 92V104C72 106.209 70.2091 108 68 108H40Z" fill="#2B2B2B"/>
<path d="M40 124V118H61C62.6569 118 64 119.343 64 121C64 122.657 62.6569 124 61 124H40Z" fill="#2B2B2B"/>
<path d="M40 148V128H68C70.2091 128 72 129.791 72 132V144C72 146.209 70.2091 148 68 148H40Z" fill="#2B2B2B"/>
</svg>
