<svg xmlns="http://www.w3.org/2000/svg" width="48" height="48" viewBox="0 0 48 48" fill="none"><rect width="48" height="48" fill="none"/>
<path fill-rule="evenodd" clip-rule="evenodd" d="M47.8761 19.1721C47.7687 17.1254 45.572 15.8916 43.5247 15.9877C43.3508 15.9959 43.1759 16 43 16C36.9249 16 32 11.0751 32 5C32 4.82411 32.0041 4.64918 32.0123 4.47531C32.1084 2.42804 30.8746 0.231326 28.8279 0.123921C27.3235 0.0449787 25.7142 0 24 0C19.3246 0 15.4298 0.334589 12.3158 0.780288C6.21531 1.65342 1.65342 6.21531 0.780288 12.3158C0.334589 15.4298 0 19.3246 0 24C0 28.6754 0.334589 32.5702 0.780288 35.6842C1.65342 41.7847 6.21531 46.3466 12.3158 47.2197C15.4298 47.6654 19.3246 48 24 48C28.6754 48 32.5702 47.6654 35.6842 47.2197C41.7847 46.3466 46.3466 41.7847 47.2197 35.6842C47.6654 32.5702 48 28.6754 48 24C48 22.2858 47.955 20.6765 47.8761 19.1721Z" fill="black"/>
</svg>
