<svg width="96" height="96" viewBox="0 0 96 96" xmlns="http://www.w3.org/2000/svg"><title>art_subscrption__m__white</title><g fill="none" fill-rule="evenodd"><path d="M0 0h96v96H0z"/><path d="M65.913 19H30.086L19.42 50.892c-.734 2.408-.51 4.71.693 6.792L42.618 95h10.765l22.495-37.3c1.21-2.095 1.436-4.391.706-6.796L65.914 19zm11.623 31.6c.793 2.6.595 5.2-.793 7.6L53.947 96H42.053L19.256 58.2c-1.387-2.4-1.586-5-.793-7.6L29.366 18h37.267l10.903 32.6z" fill="#FFF" fill-rule="nonzero"/><path d="M51 60.418V95h-6V60.418A8.003 8.003 0 0 1 48 45a8 8 0 0 1 3 15.418zM24 0h48v9H24z" fill="#FFF" opacity=".3"/></g></svg>