<svg width="80" height="80" viewBox="0 0 80 80" fill="none" xmlns="http://www.w3.org/2000/svg">
<rect width="80" height="80" fill="none"></rect>
<path d="M51.796 19.442C52.2843 15.5452 55.6692 12.7493 59.462 13.0178C58.5017 14.1904 57.9238 15.7002 57.9238 17.3477C57.9238 18.3483 58.137 19.2981 58.5196 20.1524L62.5606 20.7785C67.3158 21.5153 70.3746 25.6563 69.963 30.7188C69.752 32.1365 68.4715 33.4653 67.0819 33.25L50.2068 30.2969L51.7984 19.4423L51.796 19.442Z" fill="white"/>
<path d="M11.743 26.8395C12.0868 26.2033 13.0071 26.588 13.0071 27.3145C13.0071 31.8435 14.6818 35.3066 17.4086 37.4688C19.9284 35.0416 23.1361 33.25 26.8751 33.25H43.3387C51.1091 33.25 57.3028 39.9705 57.3028 47.898L57.2038 60.25C57.2038 60.7459 57.3935 61.3714 57.5703 61.8334C57.8955 62.6837 58.4385 63.6249 58.4385 64.5622C58.4385 65.9086 57.2887 67 55.969 67H51.8531C49.6947 67 47.7372 64.9833 47.7372 62.7813V55.1875H22.2384V60.25C22.2187 61.0938 22.329 61.3714 22.5058 61.8334C22.831 62.6837 23.374 63.6249 23.374 64.5622C23.374 66.1563 22.021 67 20.7013 67H16.5854C14.427 67 13.2927 64.9833 13.2927 62.7813V44.2715C13.2927 44.2715 13.0071 42.6826 12.5164 41.9644C9.43754 37.4584 9.18902 31.5654 11.743 26.8395Z" fill="white"/>
</svg>
