<svg xmlns="http://www.w3.org/2000/svg" width="64" height="64" viewBox="0 0 64 64" fill="none"><rect width="64" height="64" fill="none"/>
<path fill-rule="evenodd" clip-rule="evenodd" d="M63.7213 40.3057C63.5124 43.3263 60.0279 45 57 45C50.3726 45 45 50.3726 45 57C45 60.0279 43.3263 63.5124 40.3057 63.7213C37.78 63.8959 35.0115 64 32 64C25.7661 64 20.5731 63.5539 16.421 62.9596C8.28708 61.7954 2.20457 55.7129 1.04038 47.579C0.446119 43.4269 0 38.2339 0 32C0 25.7661 0.446119 20.5731 1.04038 16.421C2.20456 8.2871 8.28708 2.2046 16.421 1.0404C20.5731 0.446101 25.7661 0 32 0C38.2339 0 43.4269 0.446101 47.579 1.0404C55.7129 2.2046 61.7954 8.2871 62.9596 16.421C63.5539 20.5731 64 25.7661 64 32C64 35.0115 63.8959 37.78 63.7213 40.3057Z" fill="black"/>
</svg>
