<svg xmlns="http://www.w3.org/2000/svg" width="128" height="128" viewBox="0 0 128 128" fill="none"><rect width="128" height="128" fill="none"/>
<path d="M11 47.7415C11 45.6753 12.6784 44.0002 14.7488 44.0002L97.2512 44.0002C99.3216 44.0002 101 45.6753 101 47.7415L101 96.2588C101 98.3251 99.3216 100 97.2512 100L14.7488 100C12.6784 100 11 98.3251 11 96.2588L11 47.7415Z" fill="#EF3124"/>
<path fill-rule="evenodd" clip-rule="evenodd" d="M12.7291 98.2781C12.4919 98.4821 12.2453 98.6942 12 98.9052C12.679 99.5817 13.6165 100 14.6519 100L97.247 100C99.3197 100 101 98.3237 101 96.2558L101 47.7001C101 46.6392 100.558 45.6813 99.847 45L99.1942 45.7013C99.7165 46.2077 100.041 46.9161 100.041 47.7001L100.041 96.2558C100.041 97.7952 98.79 99.0432 97.247 99.0432L14.6519 99.0432C13.9069 99.0432 13.23 98.7522 12.7291 98.2781Z" fill="#18293D"/>
<path d="M95 88C95 91.3137 92.3137 94 89 94C85.6863 94 83 91.3137 83 88C83 84.6863 85.6863 82 89 82C92.3137 82 95 84.6863 95 88Z" fill="white"/>
<path d="M55 44L56 44L56 99.9998L55 99.9998L55 44Z" fill="#E7ECF0"/>
<path d="M86 88C86 91.3137 83.3137 94 80 94C76.6863 94 74 91.3137 74 88C74 84.6863 76.6863 82 80 82C83.3137 82 86 84.6863 86 88Z" fill="#D6DDE2"/>
<path d="M19 69L35 69L35 72L19 72L19 69Z" fill="white"/>
<path fill-rule="evenodd" clip-rule="evenodd" d="M26.9335 53.0795C26.88 53.1696 26.8166 53.3044 26.7587 53.4994C26.4275 54.6151 25.7641 56.7383 25.0627 58.9598L28.8462 58.9598C28.3883 57.5305 27.9496 56.1392 27.6156 55.0798C27.3794 54.3308 27.1955 53.7477 27.0942 53.4346C27.042 53.2732 26.984 53.1584 26.9335 53.0795ZM29.8039 61.9145C30.2198 63.1892 30.4604 64.0954 30.7556 65L34 65C33.6271 63.8575 32.8353 61.6337 32.2964 59.9813C31.6291 57.9355 30.9597 55.8118 30.4814 54.2945C30.2359 53.5156 30.0407 52.8964 29.9221 52.5296C29.4983 51.2195 28.4612 50.008 26.9343 50C25.3592 49.9919 24.3274 51.2557 23.9097 52.6627C23.4926 54.0679 22.5242 57.1473 21.6215 59.9926C21.0875 61.6759 20.3538 63.8954 20 65L23.0678 65C23.3488 64.1223 23.7151 63.2083 24.1264 61.9145L29.8039 61.9145Z" fill="white"/>
<path d="M59 44C59 37.3726 64.3581 32 70.9677 32H100.032C106.642 32 112 37.3726 112 44V44C112 50.6274 106.642 56 100.032 56H70.9677C64.3581 56 59 50.6274 59 44V44Z" fill="white" fill-opacity="0.95"/>
<path fill-rule="evenodd" clip-rule="evenodd" d="M100.032 33.2H70.9677C65.0191 33.2 60.1968 38.0353 60.1968 44C60.1968 49.9647 65.0191 54.8 70.9677 54.8H100.032C105.981 54.8 110.803 49.9647 110.803 44C110.803 38.0353 105.981 33.2 100.032 33.2ZM70.9677 32C64.3581 32 59 37.3726 59 44C59 50.6274 64.3581 56 70.9677 56H100.032C106.642 56 112 50.6274 112 44C112 37.3726 106.642 32 100.032 32H70.9677Z" fill="#18293D"/>
<path d="M79 44C79 48.4183 75.4183 52 71 52C66.5817 52 63 48.4183 63 44C63 39.5817 66.5817 36 71 36C75.4183 36 79 39.5817 79 44Z" fill="#D6DDE2"/>
<path fill-rule="evenodd" clip-rule="evenodd" d="M71 50.8211C74.7672 50.8211 77.8211 47.7672 77.8211 44C77.8211 40.2328 74.7672 37.1789 71 37.1789C67.2328 37.1789 64.1789 40.2328 64.1789 44C64.1789 47.7672 67.2328 50.8211 71 50.8211ZM71 52C75.4183 52 79 48.4183 79 44C79 39.5817 75.4183 36 71 36C66.5817 36 63 39.5817 63 44C63 48.4183 66.5817 52 71 52Z" fill="#18293D"/>
<path d="M103.126 59.5142L101.004 41.669C100.942 41.1482 101.548 40.8069 101.979 41.1197L116.752 51.8353C117.149 52.123 117.052 52.727 116.584 52.8822L112.148 54.3543C111.782 54.4758 111.621 54.8934 111.814 55.2202L115.759 61.8882C115.928 62.1745 115.827 62.5405 115.534 62.7058L113.38 63.9197C113.087 64.085 112.712 63.9869 112.542 63.7007L108.598 57.0326C108.405 56.7059 107.954 56.6331 107.663 56.8817L104.139 59.8953C103.767 60.2132 103.183 59.9933 103.126 59.5142Z" fill="#2E445F"/>
<path fill-rule="evenodd" clip-rule="evenodd" d="M86.0965 41.6485L94 21.4279L92.8475 21L84.3069 42.8505H88.4206L80 64.5752L81.1537 65L90.2049 41.6485H86.0965Z" fill="#18293D"/>
</svg>
