<svg width="80" height="80" viewBox="0 0 80 80" fill="none" xmlns="http://www.w3.org/2000/svg">
<rect width="80" height="80" fill="none"></rect>
<path fill-rule="evenodd" clip-rule="evenodd" d="M49.6985 22.3432L32 40.0416L49.6568 57.6985C45.1344 62.2104 38.893 65 32 65C18.1929 65 7 53.8071 7 40C7 26.1929 18.1929 15 32 15C38.9141 15 45.1727 17.8068 49.6985 22.3432ZM58 40C58 43.3137 55.3137 46 52 46C48.6863 46 46 43.3137 46 40C46 36.6863 48.6863 34 52 34C55.3137 34 58 36.6863 58 40ZM67 46.0199C70.3137 46.0199 73 43.3336 73 40.0199C73 36.7062 70.3137 34.0199 67 34.0199C63.6863 34.0199 61 36.7062 61 40.0199C61 43.3336 63.6863 46.0199 67 46.0199Z" fill="white"/>
</svg>
