<svg width="96" height="96" viewBox="0 0 96 96" xmlns="http://www.w3.org/2000/svg"><title>art_notifications_m_black</title><g fill="none"><path d="M0 0h96v96H0z"/><path d="M76.638 16.284c-11.111-11.112-29.193-11.112-40.305 0l-14.031 14.03L6.294 33.14c-2.288.404-3.812 1.464-4.292 2.985s.161 3.264 1.804 4.907l50.912 50.912c1.287 1.287 2.636 1.959 3.891 1.959.348 0 .688-.051 1.017-.155 1.521-.479 2.582-2.004 2.985-4.292l2.825-16.008 14.03-14.031c5.361-5.361 8.313-12.518 8.313-20.152s-2.952-14.792-8.313-20.152l-2.828-2.829zm2.121 42.426L64.506 72.964l-2.88 16.318c-.336 1.903-1.153 3.15-2.302 3.513-1.147.362-2.534-.192-3.899-1.558L4.513 40.325c-1.366-1.366-1.92-2.751-1.558-3.899.362-1.148 1.609-1.966 3.513-2.302l16.318-2.88L37.04 16.991c5.361-5.362 12.402-8.042 19.445-8.042 7.041 0 14.085 2.681 19.445 8.042l2.828 2.829c5.172 5.172 8.021 12.078 8.021 19.445 0 7.367-2.848 14.273-8.02 19.445z" fill="#0b1f35"/><path d="M70.627 22.294l-2.828 2.829 2.828 2.827c3 3.001 4.652 7.019 4.652 11.314 0 4.296-1.652 8.313-4.652 11.313l2.828 2.828c3.756-3.755 5.824-8.777 5.824-14.142 0-5.364-2.068-10.386-5.824-14.143l-2.828-2.826zM14.059 81.691c4.686 4.686 12.284 4.686 16.971 0l-16.971-16.97c-4.686 4.686-4.686 12.284 0 16.97zM86.926 8.824a7.994 7.994 0 0 0-11.304 0l11.304 11.304a7.992 7.992 0 0 0 0-11.304z" fill="#0b1f35" opacity=".3"/></g></svg>