<svg width="80" height="80" viewBox="0 0 80 80" fill="none" xmlns="http://www.w3.org/2000/svg">
<rect width="80" height="80" fill="none"></rect>
<path fill-rule="evenodd" clip-rule="evenodd" d="M40.183 59.366C50.7774 59.366 59.366 50.7775 59.366 40.183C59.366 29.5885 50.7774 21 40.183 21C29.5886 21 21 29.5885 21 40.183C21 50.7775 29.5886 59.366 40.183 59.366ZM32.2596 40.183C32.2596 35.807 35.807 32.2596 40.183 32.2596C44.559 32.2596 48.1064 35.807 48.1064 40.183C48.1064 44.559 44.559 48.1064 40.183 48.1064C35.807 48.1064 32.2596 44.559 32.2596 40.183ZM40.183 29.7575C34.4251 29.7575 29.7575 34.4251 29.7575 40.183C29.7575 45.9409 34.4251 50.6085 40.183 50.6085C45.9409 50.6085 50.6085 45.9409 50.6085 40.183C50.6085 34.4251 45.9409 29.7575 40.183 29.7575Z" fill="white"/>
<path fill-rule="evenodd" clip-rule="evenodd" d="M66.6932 23.2735C66.969 22.8412 67.4548 22.6 67.9676 22.6V22.6C68.9075 22.6 69.6 23.4674 69.6 24.4087V60.2H66.3351L67.1514 41.4C62.3834 36.12 63.6914 27.9791 66.6932 23.2735Z" fill="white"/>
<path d="M14.0445 36.0292C16.0922 35.4462 17.6 33.3958 17.6 30.25C17.6 26.4945 15.451 22.6 12.8 22.6C10.149 22.6 8 26.4945 8 30.25C8 33.3958 9.50782 35.4462 11.5555 36.0292L11.2 60.2H14.4L14.0445 36.0292Z" fill="white"/>
</svg>
