<svg xmlns="http://www.w3.org/2000/svg" width="48" height="48" viewBox="0 0 48 48" fill="none"><rect width="48" height="48" fill="none"/>
<path fill-rule="evenodd" clip-rule="evenodd" d="M48 24C48 37.2548 37.2548 48 24 48C10.7452 48 0 37.2548 0 24C0 10.7452 10.7452 0 24 0C37.2548 0 48 10.7452 48 24ZM24.0002 34.6352C29.6852 34.6352 34.4552 31.0952 35.6852 26.3852L41.0702 28.5752C38.9252 35.4002 32.0852 40.4102 24.0002 40.4102C15.9152 40.4102 9.07517 35.4002 6.93017 28.5752L12.3152 26.3852C13.5452 31.1102 18.3152 34.6352 24.0002 34.6352Z" fill="#E81F11"/>
</svg>
