<?xml version="1.0" encoding="UTF-8"?>
<svg width="96px" height="96px" viewBox="0 0 96 96" version="1.1" xmlns="http://www.w3.org/2000/svg" xmlns:xlink="http://www.w3.org/1999/xlink">
    <!-- Generator: Sketch 48.2 (47327) - http://www.bohemiancoding.com/sketch -->
    <title>art_costs_m_white</title>
    <desc>Created with Sketch.</desc>
    <defs></defs>
    <g id="mobile" stroke="none" stroke-width="1" fill="none" fill-rule="evenodd" transform="translate(-1300.000000, -1203.000000)">
        <g id="Headings" transform="translate(64.000000, 77.000000)"></g>
        <g id="art_costs__m__white" transform="translate(1300.000000, 1203.000000)">
            <g id="Group">
                <rect id="Rectangle-path" x="0" y="0" width="96" height="96"></rect>
                <g opacity="0.3" transform="translate(36.000000, 4.000000)" fill="#FFFFFF" id="Shape">
                    <path d="M0.612,1.499 L0.921,2.651 L15.57,0.163 C10.562,-0.245 5.502,0.189 0.612,1.499 L0.612,1.499 Z"></path>
                    <path d="M24.055,1.693 L1.682,5.493 L2.202,7.433 L28.055,3.041 C26.747,2.529 25.412,2.08 24.055,1.693 L24.055,1.693 Z"></path>
                    <path d="M32.758,5.214 L2.964,10.275 L3.484,12.215 L35.458,6.784 C34.576,6.229 33.676,5.706 32.758,5.214 L32.758,5.214 Z"></path>
                    <polygon points="34.798 9.868 4.245 15.058 4.765 16.998 33.27 12.156"></polygon>
                    <polygon points="31.031 15.508 5.526 19.84 6.046 21.78 29.503 17.796"></polygon>
                    <polygon points="27.264 21.148 6.808 24.622 7.328 26.563 25.736 23.436"></polygon>
                    <polygon points="23.497 26.787 8.089 29.405 8.609 31.345 21.968 29.076"></polygon>
                    <polygon points="19.73 32.427 9.371 34.187 9.891 36.127 18.201 34.716"></polygon>
                    <polygon points="15.963 38.067 10.652 38.969 11.172 40.91 14.434 40.355"></polygon>
                </g>
                <path d="M48,92 C65.691,92 81.593,81.479 88.513,65.196 L87.593,64.804 C80.83,80.718 65.289,91 48,91 C24.29,91 5,71.71 5,48 C5,30.711 15.282,15.17 31.195,8.407 L30.804,7.487 C14.521,14.407 4,30.309 4,48 C4,72.262 23.738,92 48,92 L48,92 Z" id="Shape" fill="#FFFFFF"></path>
                <path d="M90.501,36.612 C88.502,29.152 84.574,22.348 79.113,16.887 L48,48 L90.501,59.388 C92.5,51.928 92.5,44.072 90.501,36.612 L90.501,36.612 Z" id="Shape" fill="#FFFFFF" opacity="0.3"></path>
            </g>
        </g>
    </g>
</svg>