<svg fill="none" height="80" viewBox="0 0 80 80" width="80" xmlns="http://www.w3.org/2000/svg" xmlns:xlink="http://www.w3.org/1999/xlink"><rect width="80" height="80" fill="none"></rect><linearGradient id="a" gradientUnits="userSpaceOnUse" x1="19.978" x2="28.2992" y1="37.8079" y2="37.8079"><stop offset=".331849" stop-color="#ffc1bd"/><stop offset="1" stop-color="#fb9f9a"/></linearGradient><linearGradient id="b" gradientUnits="userSpaceOnUse" x1="59.938" x2="52.2569" y1="37.8079" y2="37.8079"><stop offset=".286498" stop-color="#ffc1bd"/><stop offset="1" stop-color="#fb9f9a"/></linearGradient><linearGradient id="c" gradientUnits="userSpaceOnUse" x1="40.3695" x2="46.6431" y1="83.0802" y2="50.2577"><stop offset="0" stop-color="#1d61ce"/><stop offset="1" stop-color="#3a7eeb"/></linearGradient><linearGradient id="d" gradientUnits="userSpaceOnUse" x1="40.2104" x2="40.2104" y1="34.6819" y2="59.5434"><stop offset=".536458" stop-color="#fb9f9a"/><stop offset="1" stop-color="#ffc1bd"/></linearGradient><path d="m31.0154 31.212c0 2.7533-1.8637 6.5959-4.1626 6.5959-2.299 0-4.1626-3.8426-4.1626-6.5959 0-2.7534 1.8636-4.9854 4.1626-4.9854 2.2989 0 4.1626 2.232 4.1626 4.9854z" fill="url(#a)"/><path d="m58.0222 31.212c0 2.7533-1.8636 6.5959-4.1626 6.5959-2.2989 0-4.1626-3.8426-4.1626-6.5959 0-2.7534 1.8637-4.9854 4.1626-4.9854 2.299 0 4.1626 2.232 4.1626 4.9854z" fill="url(#b)"/><path d="m65.8668 56.5752 4.0384 8.6294c-9.9297 6.866-14.6781 8.3967-29.4881 8.3967-14.0762 0-20.1794-1.8585-29.5834-8.3967l4.0264-8.6351c.7456-1.5992 2.1561-2.79 3.8576-3.2568l15.505-4.2541h12.0121l15.7568 4.2617c1.7078.4619 3.1254 1.6525 3.8752 3.2549z" fill="url(#c)"/><ellipse cx="40.3716" cy="53.5324" fill="#4c8df5" rx="9.31159" ry="7.91326"/><rect fill="url(#d)" height="24.8615" rx="7.8559" width="15.7118" x="32.3281" y="34.6816"/><path d="m55.3174 26.5374c0 4.1075.2675 10.3681-1.6733 14.557-2.7352 5.9033-8.4546 10.6288-13.2879 10.6288-4.8332 0-10.5526-4.7255-13.2878-10.6288-1.9408-4.1889-1.6733-10.4495-1.6733-14.557 0-9.8961 6.6983-16.4397 14.9611-16.4397 8.2629 0 14.9612 6.5436 14.9612 16.4397z" fill="#ffc1bd"/><g stroke-linecap="round" stroke-width="1.10171"><path d="m45.4469 43.3903c-2.7623 2.7623-7.2409 2.7623-10.0032 0" stroke="#ed6261"/><path d="m31.1815 33.6207c1.3723-1.3723 3.5972-1.3723 4.9696 0" stroke="#18293d"/><path d="m44.7134 33.6207c1.3724-1.3723 3.5973-1.3723 4.9696 0" stroke="#18293d"/></g><path clip-rule="evenodd" d="m27.1598 26.6863c.6899-2.27 2.5353-5.7565 6.6562-7.7927l.0587.0489c2.2218 1.8498 5.5847 4.6497 11.203 4.8323 3.0537.0993 5.2594-.7912 6.5717-2.224 1.8485 2.8382 2.3087 5.7221 2.7305 9.5254h.9772v-4.39c0-6.5065-2.2274-10.1664-3.5896-11.6452l-.0026.0272c-2.7443-3.4656-6.8369-5.46859-11.4084-5.46859-4.5433 0-8.6135 1.97829-11.3574 5.40449l-.0181-.0092c-1.4658 1.8947-3.5979 5.1849-3.5979 11.6914v4.2976h.9772z" fill="#18293d" fill-rule="evenodd"/><path d="m37.2798 39.0748c0-.5008.4519-.8803.9451-.7939l1.6618.2913c.2442.0429.4942.0418.738-.0031l1.5096-.2781c.4964-.0914.9541.2897.9541.7945 0 .2771-.142.5349-.3763.6829l-.9605.6069c-.9169.5794-2.0822.5922-3.0117.0333l-1.0695-.6431c-.2424-.1458-.3906-.4079-.3906-.6907z" fill="#fb9f9a"/></svg>