<svg xmlns="http://www.w3.org/2000/svg" width="80" height="80" viewBox="0 0 80 80" fill="none"><rect width="80" height="80" fill="none"/>
<path d="M70.6876 16.7071L20.8235 11.0171C19.817 10.9268 18.9021 11.1977 18.0787 11.7396C17.3467 12.3719 16.8892 13.1847 16.7063 14.0879L15.8828 21.1326H59.6168C63.8255 21.2229 67.1193 24.4743 67.3023 28.6289V60.5107C67.3023 60.4223 67.4993 60.334 67.7434 60.2245C67.9983 60.1102 68.3047 59.9727 68.4917 59.7882C69.2237 59.1559 69.6811 58.3431 69.6811 57.3496L73.9814 20.681C74.0728 19.7778 73.7984 18.7844 73.1579 18.0618C72.6089 17.249 71.694 16.7974 70.6876 16.7071Z" fill="#DBDEE1"/>
<path d="M35.8313 57.5298C37.3867 58.7942 39.2166 59.5167 41.2294 59.5167C42.7848 59.5167 44.3402 59.1555 45.6211 58.3426L63.6454 47.0601V65.568C63.6454 67.5549 61.6325 69 59.6197 69H9.11511C7.28523 68.9097 5.91283 67.3743 6.00432 65.568V58.8845L20.1859 48.5884C21.9242 47.324 24.3031 47.4143 25.8585 48.8594L35.8313 57.5298Z" fill="#DBDEE1"/>
<path d="M44.4706 39.1334C44.4706 41.298 42.6929 43.0529 40.5 43.0529C38.3071 43.0529 36.5294 41.298 36.5294 39.1334C36.5294 36.9687 38.3071 35.2139 40.5 35.2139C42.6929 35.2139 44.4706 36.9687 44.4706 39.1334Z" fill="#DBDEE1"/>
<path fill-rule="evenodd" clip-rule="evenodd" d="M59.6192 24.7447H9.38917C7.37631 24.7447 6.00391 26.6414 6.00391 28.6283V54.3686L18.0811 45.6982C21.1919 43.4403 25.4006 43.6209 28.2369 46.1498L38.3012 54.8202C39.8566 56.0846 41.961 56.2652 43.6993 55.2718L63.645 42.8154V28.6283C63.462 26.551 61.8151 24.835 59.6192 24.7447ZM48 39.1334C48 43.2222 44.6421 46.5369 40.5 46.5369C36.3579 46.5369 33 43.2222 33 39.1334C33 35.0445 36.3579 31.7298 40.5 31.7298C44.6421 31.7298 48 35.0445 48 39.1334Z" fill="#DBDEE1"/>
</svg>
