<?xml version="1.0" encoding="UTF-8"?>
<svg width="96px" height="96px" viewBox="0 0 96 96" version="1.1" xmlns="http://www.w3.org/2000/svg" xmlns:xlink="http://www.w3.org/1999/xlink">
    <!-- Generator: Sketch 48.2 (47327) - http://www.bohemiancoding.com/sketch -->
    <title>art_phone-contactless_m_white art_phone_contactless art_phone_contactless art_phone_contactless</title>
    <desc>Created with Sketch.</desc>
    <defs></defs>
    <g id="set" stroke="none" stroke-width="1" fill="none" fill-rule="evenodd">
        <g id="art_phone-contactless_m_white-art_phone_contactless-art_phone_contactless-art_phone_contactless">
            <rect id="_ph_" x="0" y="0" width="96" height="96"></rect>
            <g id="art" transform="translate(20.000000, 4.000000)" fill="#FFFFFF">
                <rect id="Rectangle-path" opacity="0.2" x="1" y="14" width="54" height="52"></rect>
                <rect id="Rectangle-path" opacity="0.3" x="20" y="74" width="16" height="4"></rect>
                <path d="M1,81.2 C1,84.4477153 3.75228475,87.2 7,87.2 L49,87.2 C52.2477153,87.2 55,84.4477153 55,81.2 L55,7 C55,3.75228475 52.2477153,1 49,1 L7,1 C3.75228475,1 1,3.75228475 1,7 L1,81.2 Z M0,7 C0,3.2 3.2,0 7,0 L49,0 C52.8,0 56,3.2 56,7 L56,81.2 C56,85 52.8,88.2 49,88.2 L7,88.2 C3.2,88.2 0,85 0,81.2 L0,7 Z" id="Shape" fill-rule="nonzero"></path>
                <path d="M20.0436347,45.2131691 C19.7784435,45.1035159 19.4758385,44.74279 19.3857158,44.4291255 C19.285475,44.0787531 19.3675972,43.80062 19.7655016,43.1462307 C20.2772948,42.3045369 20.3965955,41.8529825 20.3965955,40.7529214 C20.3965955,39.6530956 20.2772948,39.2013058 19.7655016,38.359612 C19.5920802,38.0744197 19.4179529,37.7325183 19.3784213,37.6000404 C19.213471,37.0451861 19.6758496,36.3653836 20.29659,36.2489065 C20.8229721,36.1500775 21.184404,36.3851494 21.6681955,37.1404855 C23.0692145,39.3271951 23.0689792,42.2487691 21.6674896,44.4171248 C21.1731092,45.1821085 20.6217845,45.4524765 20.0436347,45.2131691 Z M24.0949185,47.2939905 C23.7603117,47.1431586 23.4722957,46.7892566 23.3939384,46.4325309 C23.3461711,46.2153424 23.4285286,45.9748584 23.8254918,45.1710491 C25.2836904,42.2174733 25.299456,39.3728447 23.8734945,36.4882139 C23.247342,35.2210848 23.2336942,34.9690708 23.7631354,34.4692783 C24.0245617,34.2229117 24.1356267,34.1791445 24.5027059,34.1791445 C25.1182695,34.1791445 25.4375813,34.4885735 25.9879648,35.6187539 C26.8341295,37.3569681 27.1805016,38.8650518 27.177678,40.7971591 C27.174619,42.7831518 26.8508363,44.1465216 25.9467861,45.9795646 C25.428875,47.0290346 25.1730961,47.3062265 24.6547143,47.3772892 C24.4965879,47.3989375 24.2448092,47.3612883 24.0949185,47.2939905 Z M28.4368067,49.5277616 C27.8951296,49.3701058 27.5045196,48.7055983 27.6612342,48.2076883 C27.6991187,48.087211 27.9541917,47.5321214 28.2276186,46.9739727 C29.3862712,44.6112533 29.8681803,42.0784067 29.6321672,39.5916804 C29.4380388,37.5482728 29.0716655,36.2597307 28.1492613,34.3742142 C27.5304034,33.1092028 27.501696,32.9131919 27.8614806,32.4037518 C28.2036173,31.9194896 29.0577824,31.840897 29.5062779,32.2526846 C29.817354,32.5378769 30.7844665,34.5575185 31.1576637,35.7011114 C32.3930264,39.4862628 32.2045453,43.5495473 30.6213986,47.2681067 C29.8102947,49.1726831 29.2408514,49.7616569 28.4368067,49.5277616 Z M32.6471582,51.7302368 C32.2939621,51.6281135 31.9360599,51.2078549 31.8607616,50.8068915 C31.8118177,50.5457005 31.8715857,50.3642786 32.2459594,49.6402384 C33.758514,46.7141936 34.4159623,44.0215735 34.4159623,40.7531567 C34.4159623,37.594393 33.8338123,35.1368448 32.388085,32.1910341 C32.0774795,31.5587637 31.823583,30.9716723 31.823583,30.8867264 C31.823583,30.5732972 32.0859505,30.1189191 32.3699663,29.9405562 C32.7593997,29.6963074 33.4119065,29.741957 33.7243945,30.0351497 C33.8444011,30.1480972 34.1564184,30.6601256 34.4176094,31.1730953 C35.4520198,33.2045022 36.1610004,35.4333318 36.5109021,37.7529901 C36.7276201,39.1888345 36.7706813,41.9096915 36.5977305,43.2238821 C36.2784186,45.6484873 35.6383831,47.8116663 34.6138556,49.9310781 C33.9945271,51.2120904 33.6057996,51.7391785 33.2803698,51.7391785 C33.2151897,51.7391785 33.1090662,51.7554147 33.0443567,51.7754158 C32.9794119,51.7949463 32.8008138,51.7749452 32.6471582,51.7302368 Z" id="Combined-Shape"></path>
            </g>
        </g>
    </g>
</svg>