<svg fill="none" height="80" viewBox="0 0 80 80" width="80" xmlns="http://www.w3.org/2000/svg" xmlns:xlink="http://www.w3.org/1999/xlink"><rect width="80" height="80" fill="none"></rect><linearGradient id="a" gradientUnits="userSpaceOnUse" x1="40.076" x2="40.076" y1="17.9644" y2="30.4842"><stop offset="0" stop-color="#76889d"/><stop offset="1" stop-color="#17293e"/></linearGradient><linearGradient id="b" gradientUnits="userSpaceOnUse" x1="40.0761" x2="40.0761" y1="26.2321" y2="55.7716"><stop offset="0" stop-color="#445c78"/><stop offset="1" stop-color="#637b98"/></linearGradient><linearGradient id="c" gradientUnits="userSpaceOnUse" x1="40.076" x2="40.076" y1="26.0938" y2="51.0912"><stop offset="0" stop-color="#d6dde2"/><stop offset=".51282" stop-color="#b5c6d2"/></linearGradient><rect fill="#f6f7f8" height="5.64424" rx="2.82212" transform="matrix(-1 0 0 -1 137.06 137.918)" width="56.9079" x="68.53" y="68.959"/><path d="m49.5752 26.9083-.9813-5.5399c-.1774-1.0017-1.0481-1.7317-2.0654-1.7317h-12.9051c-1.0173 0-1.8879.73-2.0653 1.7317l-.9813 5.5399" stroke="url(#a)" stroke-width="4.19499"/><path d="m68.53 57.7291c0 4.0544-3.2868 7.3412-7.3412 7.3412h-43.2742c-3.4752 0-6.2925-2.8172-6.2925-6.2925v-25.4698h56.9079z" fill="url(#b)"/><path d="m11.6221 33.435c0-4.0545 3.2868-7.3412 7.3412-7.3412h43.2742c3.4752 0 6.2925 2.8172 6.2925 6.2924v12.6718l-2.1153 2.4306c-1.9918 2.2887-4.8771 3.6026-7.9111 3.6026h-36.907c-3.0799 0-6.004-1.3538-7.9967-3.7022l-1.9778-2.331z" fill="url(#c)"/><g fill="#18293d"><rect height="8.87497" rx="1.04875" transform="matrix(-1 0 0 -1 57.3334 111.0586)" width="6.63169" x="28.6667" y="55.5293"/><rect height="8.87497" rx="1.04875" transform="matrix(-1 0 0 -1 118.6474 111.0586)" width="6.63169" x="59.3237" y="55.5293"/></g></svg>