<svg width="80" height="80" viewBox="0 0 80 80" fill="none" xmlns="http://www.w3.org/2000/svg">
<rect width="80" height="80" fill="none"/>
<path fill-rule="evenodd" clip-rule="evenodd" d="M40 80C62.0914 80 80 62.0914 80 40C80 17.9086 62.0914 0 40 0C17.9086 0 0 17.9086 0 40C0 62.0914 17.9086 80 40 80Z" fill="#5C85AD" fill-opacity="0.07"/>
<path fill-rule="evenodd" clip-rule="evenodd" d="M57.3214 26.6835C47.6446 25.573 39.1936 21 39.1936 21C39.1936 21 30.7426 25.573 21.0658 26.6835C21.0658 26.6835 18.9155 53.0324 39.1936 62.6792C51.6833 56.7376 55.6646 44.46 56.8804 35.9052C57.6386 30.5705 57.3214 26.6835 57.3214 26.6835Z" fill="#5C85AD"/>
<path fill-rule="evenodd" clip-rule="evenodd" d="M37.2949 33.37C37.1666 33.8194 34.0905 42.4196 33.9628 42.7406C33.8989 42.8691 33.9628 42.9975 34.0267 42.9975C34.1019 42.9975 34.7056 43.2402 35.2052 43.4409C35.5577 43.5826 35.8584 43.7034 35.8849 43.7034C35.9487 43.7034 36.077 43.6394 36.077 43.5749C36.077 43.5308 36.4064 42.6171 36.6354 41.982C36.7413 41.688 36.8258 41.4537 36.8462 41.3929H41.46C41.4809 41.4559 41.5708 41.7052 41.6821 42.014C41.9104 42.6475 42.2291 43.5319 42.2291 43.5749C42.293 43.7034 42.4213 43.7034 42.4857 43.7034C42.5499 43.7034 42.9833 43.5266 43.4163 43.3499C43.8484 43.1736 44.2801 42.9975 44.3439 42.9975C44.4078 42.9336 44.4078 42.8051 44.4078 42.7406C44.3675 42.5786 43.1052 39.0511 42.1452 36.3685C41.5822 34.7954 41.1231 33.5124 41.0757 33.37C40.7553 32.4716 40.3709 31.5728 39.1531 31.5728C37.9352 31.5728 37.5509 32.4077 37.2949 33.37ZM33.2261 49.7H45.0759C45.145 49.7 45.2827 49.6308 45.2827 49.4928V47.2846C45.2827 47.2153 45.2136 47.0774 45.0759 47.0774H33.2261C33.157 47.0774 33.0193 47.1466 33.0193 47.2846V49.4928C33.0193 49.5621 33.0884 49.7 33.2261 49.7ZM37.6153 39.2108H40.8191L39.1531 34.3973L37.6153 39.2108Z" fill="white"/>
</svg>
