<svg xmlns="http://www.w3.org/2000/svg" width="48" height="48" viewBox="0 0 48 48" fill="none"><rect width="48" height="48" fill="none"/>
<path d="M47.2902 29.8173C46.9031 31.3719 45.2285 32.1079 43.629 32.0177C43.4208 32.0059 43.2111 32 43 32C36.9249 32 32 36.9249 32 43C32 43.2111 32.0059 43.4208 32.0177 43.629C32.1078 45.2285 31.3719 46.9031 29.8173 47.2902C27.9547 47.7539 26.0061 48 24 48C10.7452 48 0 37.2548 0 24C0 10.7452 10.7452 0 24 0C37.2548 0 48 10.7452 48 24C48 26.0061 47.7539 27.9547 47.2902 29.8173Z" fill="black"/>
</svg>
