<svg width="80" height="80" viewBox="0 0 80 80" fill="none" xmlns="http://www.w3.org/2000/svg">
<rect width="80" height="80" fill="none"></rect>
<path d="M71 59C71 62.866 67.866 66 64 66H15C11.6863 66 9 63.3137 9 60V32H71V59Z" fill="#637B98"/>
<path d="M9 30C9 26.134 12.134 23 16 23H65C68.3137 23 71 25.6863 71 29V43.4835L68.2668 46.5971C66.3681 48.76 63.6296 50 60.7516 50H19.1811C16.2592 50 13.4836 48.7221 11.5837 46.5023L9 43.4835V30Z" fill="#B6C6D3"/>
<path d="M59 53C59 53.5523 58.5523 54 58 54H53C52.4477 54 52 53.5523 52 53V45C52 44.4477 52.4477 44 53 44H58C58.5523 44 59 44.4477 59 45V53Z" fill="#18293D"/>
<path d="M28 53C28 53.5523 27.5523 54 27 54H22C21.4477 54 21 53.5523 21 53V45C21 44.4477 21.4477 44 22 44H27C27.5523 44 28 44.4477 28 45V53Z" fill="#18293D"/>
<path fill-rule="evenodd" clip-rule="evenodd" d="M48 23L46.9545 18H33.0455L32 23H28L29.1017 17.3316C29.4278 15.4078 31.0943 14 33.0455 14H46.9545C48.9057 14 50.5722 15.4078 50.8983 17.3316L52 23H48Z" fill="#18293D"/>
</svg>
