<svg width="80" height="80" viewBox="0 0 80 80" fill="none" xmlns="http://www.w3.org/2000/svg">
<rect width="80" height="80" fill="none"></rect>
<path d="M76 76V72.2756C76 67.6663 74.1691 63.246 70.9095 59.9869C67.6504 56.7278 63.23 54.8964 58.6207 54.8964H21.3793C11.7811 54.8964 4 62.6774 4 72.2756V76H76Z" fill="#2C2F38"/>
<path d="M30.0689 51.6093H49.9311V61.1036H30.0689V51.6093Z" fill="#35495E"/>
<path d="M62.6181 64.8275H63.3877C68.5892 64.8275 73.1078 66.8511 74.2746 69.6938L75.4287 72.5118C75.805 73.4083 75.9989 74.3702 76 75.3419V76H4V75.3419C4.0011 74.3702 4.19501 73.4083 4.57129 72.5118L5.7254 69.6938C6.89215 66.8511 11.4108 64.8275 16.6123 64.8275H62.6181Z" fill="#95A5A5"/>
<path d="M32.5518 41.2415H47.4482C48.8193 41.2415 49.9311 42.3527 49.9311 43.7244V52.414C49.9311 53.7851 48.8193 54.8964 47.4482 54.8964H32.5518C31.1807 54.8964 30.0689 53.7851 30.0689 52.414V43.7244C30.0689 42.3527 31.1807 41.2415 32.5518 41.2415V41.2415Z" fill="#FDD7AD"/>
<path d="M49.9311 52.414V43.7244C49.9272 42.3544 48.8176 41.2453 47.4482 41.2415H32.5518C31.1824 41.2453 30.0728 42.3544 30.0689 43.7244V54.8964C27.764 54.898 25.5524 53.9834 23.9226 52.353C22.2928 50.7232 21.3776 48.5122 21.3793 46.2067V28.8275C21.3793 23.8622 23.8622 4 31.3104 4V13.9311C31.3142 15.3005 32.4238 16.4096 33.7933 16.414H46.2067C47.5762 16.4096 48.6858 15.3005 48.6896 13.9311V4C56.1378 4 58.6207 23.8622 58.6207 28.8275V46.2067C58.6224 48.5122 57.7072 50.7232 56.0774 52.353C54.4476 53.9834 52.236 54.898 49.9311 54.8964V52.414Z" fill="#2C2F38"/>
<path d="M66.0689 76H13.9311L18.1367 62.4302C18.3668 61.665 19.655 61.1036 21.1727 61.1036H58.835C60.3533 61.1036 61.6409 61.665 61.871 62.4302L66.0689 76Z" fill="#7F8C8D"/>
<path d="M37.2688 33.601C35.8658 35.0171 33.7944 35.5412 31.8866 34.9622C29.9118 34.6897 28.2501 33.3467 27.5684 31.4735C27.5684 31.4735 28.3666 27.8359 33.217 28.9C36.8546 29.6976 37.2688 33.601 37.2688 33.601Z" fill="#E6E7E8"/>
<path d="M42.7136 33.601C44.1166 35.0171 46.188 35.5412 48.0953 34.9622C50.0701 34.6892 51.7323 33.3467 52.414 31.4735C52.414 31.4735 51.6158 27.8359 46.7654 28.9C43.1284 29.6976 42.7136 33.601 42.7136 33.601Z" fill="#E6E7E8"/>
<path d="M49.9311 71.0347C49.9311 68.292 45.4849 66.0689 40 66.0689C34.5151 66.0689 30.0689 68.292 30.0689 71.0347C30.0689 73.7769 34.5151 76 40 76C45.4849 76 49.9311 73.7769 49.9311 71.0347V71.0347Z" fill="#F0C419"/>
<path d="M40 74.7585C39.3145 74.7585 38.7585 74.2026 38.7585 73.5171V69.8515C36.8046 69.9526 34.9348 70.6777 33.423 71.9197C32.9358 72.4025 32.1497 72.3992 31.6669 71.9125C31.184 71.4258 31.1873 70.6398 31.674 70.1569C33.9927 68.1948 36.9656 67.1785 40 67.3104C40.6855 67.3104 41.2415 67.8663 41.2415 68.5518V73.5171C41.2415 74.2026 40.6855 74.7585 40 74.7585Z" fill="#2C2F38"/>
<path d="M40 74.7586C39.3145 74.7586 38.7585 74.2026 38.7585 73.5171V68.5518C38.7585 67.8663 39.3145 67.3104 40 67.3104C43.0344 67.1791 46.0073 68.1953 48.326 70.1569C48.7962 70.6431 48.7913 71.416 48.3145 71.8955C47.8371 72.3751 47.0642 72.3844 46.5753 71.9169C45.063 70.6777 43.1943 69.9542 41.2415 69.8515V73.5171C41.2415 74.2026 40.6855 74.7586 40 74.7586V74.7586Z" fill="#2C2F38"/>
<path d="M42.4829 72.2756C42.1533 72.2762 41.8375 72.1454 41.6051 71.912L40 70.3069L38.3949 71.912C37.9076 72.3828 37.1337 72.3756 36.6547 71.8972C36.1757 71.4182 36.1691 70.6442 36.6398 70.1569L39.1222 67.674C39.3551 67.4411 39.671 67.3104 40 67.3104C40.329 67.3104 40.6449 67.4411 40.8778 67.674L43.3602 70.1569C43.7156 70.5118 43.8216 71.0457 43.6293 71.5093C43.4371 71.9735 42.985 72.2756 42.4829 72.2756Z" fill="#2C2F38"/>
<path d="M45.8683 45.586C44.8658 47.5493 41.7347 47.8267 40.0247 47.8267C38.3109 47.8267 35.1841 47.5493 34.1811 45.586C36.0938 46.0573 38.0549 46.3034 40.0247 46.3188C41.9946 46.3034 43.9562 46.0573 45.8683 45.586V45.586Z" fill="#2C2F38"/>
</svg>
