<svg xmlns="http://www.w3.org/2000/svg" width="80" height="80" viewBox="0 0 80 80" fill="none"><rect width="80" height="80" fill="none"/>
<path d="M56 8C56 5.43821 54.8998 2.77822 52.4654 1.98054C48.5426 0.69517 44.3525 0 40 0C17.9086 0 0 17.9086 0 40C0 62.0914 17.9086 80 40 80C44.3525 80 48.5426 79.3048 52.4654 78.0195C54.8998 77.2218 56 74.5618 56 72C56 63.1634 63.1634 56 72 56C74.5618 56 77.2218 54.8998 78.0195 52.4654C79.3048 48.5426 80 44.3525 80 40C80 35.6475 79.3048 31.4574 78.0195 27.5346C77.2218 25.1002 74.5618 24 72 24C63.1634 24 56 16.8366 56 8Z" fill="black"/>
</svg>
