<svg width="80" height="80" viewBox="0 0 80 80" fill="none" xmlns="http://www.w3.org/2000/svg">
<rect width="80" height="80" fill="none"></rect>
<path d="M42.0616 38.9295H35.689V29.4128H42.0616C44.692 29.4128 46.8244 31.5432 46.8244 34.1712C46.8244 36.7991 44.692 38.9295 42.0616 38.9295Z" fill="white"/>
<path fill-rule="evenodd" clip-rule="evenodd" d="M58.4439 12.0074C58.2831 12.0025 58.1217 12 57.9598 12C53.8702 12 50.1627 13.5814 47.4557 16.1461C44.6888 15.3395 41.7242 14.9021 38.641 14.9021C25.4694 14.9021 14.4619 22.8843 11.7816 33.5397C9.17462 35.6456 7.78398 38.8303 8.02736 42.3965C8.07438 43.0854 9.05632 43.1671 9.41955 42.5796C9.92282 41.7655 10.5378 41.0528 11.2423 40.4442C11.7864 46.4515 14.9332 51.8293 19.7122 55.7416V65.0652C19.7122 66.1338 20.5793 67 21.6488 67H28.4268C29.4964 67 30.3634 66.1338 30.3634 65.0652V61.1594C32.9757 61.8693 35.7564 62.2521 38.641 62.2521C41.1378 62.2521 43.5568 61.9653 45.8561 61.4278V65.0652C45.8561 66.1338 46.7231 67 47.7927 67H54.5707C55.6403 67 56.5073 66.1338 56.5073 65.0652V56.5673C60.0217 53.9749 62.7676 50.6314 64.4098 46.8257H68.1268C70.2659 46.8257 72 45.0933 72 42.9562V34.2498C72 32.1127 70.2659 30.3802 68.1268 30.3802H64.4321C63.8527 29.028 63.1342 27.7339 62.2914 26.5107C61.2048 24.9335 59.9116 23.4744 58.4439 22.1609V12.0074ZM59.4122 29.4129C59.4122 30.4814 58.5452 31.3476 57.4756 31.3476C56.4061 31.3476 55.539 30.4814 55.539 29.4129C55.539 28.3443 56.4061 27.4781 57.4756 27.4781C58.5452 27.4781 59.4122 28.3443 59.4122 29.4129ZM42.0616 26.5107H32.7842V38.9295H27.4589V41.8316H32.7842V43.9236H27.4586V46.8257H32.7842V52.1463H35.689L35.689 46.8257H44.8878V43.9236H35.689V41.8316H42.0616C46.2963 41.8316 49.7293 38.4019 49.7293 34.1712C49.7293 29.9404 46.2963 26.5107 42.0616 26.5107Z" fill="white"/>
</svg>
