<svg width="96" height="96" viewBox="0 0 96 96" xmlns="http://www.w3.org/2000/svg"><g fill="none" fill-rule="evenodd"><path d="M0 0h96v96H0z"/><path d="M81.037 82.394c0 2.52-2.05 4.569-4.569 4.569H13.606a4.574 4.574 0 0 1-4.569-4.569V19.533c0-2.52 2.05-4.569 4.569-4.569h52.998v-1H13.606a5.576 5.576 0 0 0-5.569 5.569v62.861a5.575 5.575 0 0 0 5.569 5.569h62.861a5.575 5.575 0 0 0 5.569-5.569V41.562h-1v40.832h.001z" fill="#FFF"/><path fill="#FFF" opacity=".3" d="M31.037 63.478v8.485h8.485l36.77-36.769-8.486-8.486zm42.426-42.426l5.657-5.656 8.485 8.485-5.657 5.657zM55 28H17v5h33zM43 40H17v5h21z"/></g></svg>