<?xml version="1.0" encoding="UTF-8"?>
<svg width="96px" height="96px" viewBox="0 0 96 96" version="1.1" xmlns="http://www.w3.org/2000/svg" xmlns:xlink="http://www.w3.org/1999/xlink">
    <!-- Generator: Sketch 48.2 (47327) - http://www.bohemiancoding.com/sketch -->
    <title>art_deposit_m_white</title>
    <desc>Created with Sketch.</desc>
    <defs></defs>
    <g id="mobile" stroke="none" stroke-width="1" fill="none" fill-rule="evenodd" transform="translate(-1572.000000, -1203.000000)">
        <g id="Headings" transform="translate(64.000000, 77.000000)"></g>
        <g id="art_deposit__m__white" transform="translate(1572.000000, 1203.000000)">
            <g id="Group">
                <rect id="Rectangle-path" x="0" y="0" width="96" height="96"></rect>
                <circle id="Oval" fill="#FFFFFF" opacity="0.35" cx="55" cy="46" r="7.5"></circle>
                <path d="M82.5,8 L14.5,8 C9.813,8 6,11.813 6,16.5 L6,76.5 C6,81.187 9.813,85 14.5,85 L18,85 L18,88.5 C18,89.327 18.673,90 19.5,90 L29.5,90 C30.327,90 31,89.327 31,88.5 L31,85 L62,85 L62,88.5 C62,89.327 62.673,90 63.5,90 L73.5,90 C74.327,90 75,89.327 75,88.5 L75,85 L82.5,85 C87.187,85 91,81.187 91,76.5 L91,16.5 C91,11.813 87.187,8 82.5,8 L82.5,8 Z M30,88.5 C30,88.776 29.776,89 29.5,89 L19.5,89 C19.224,89 19,88.776 19,88.5 L19,85 L30,85 L30,88.5 L30,88.5 Z M74,88.5 C74,88.776 73.776,89 73.5,89 L63.5,89 C63.224,89 63,88.776 63,88.5 L63,85 L74,85 L74,88.5 L74,88.5 Z M90,76.5 C90,80.636 86.636,84 82.5,84 L75,84 L62,84 L31,84 L18,84 L14.5,84 C10.364,84 7,80.636 7,76.5 L7,16.5 C7,12.364 10.364,9 14.5,9 L82.5,9 C86.636,9 90,12.364 90,16.5 L90,76.5 L90,76.5 Z" id="Shape" fill="#FFFFFF"></path>
                <path d="M55,70.5 C68.509,70.5 79.5,59.509 79.5,46 C79.5,32.491 68.509,21.5 55,21.5 C41.491,21.5 30.5,32.491 30.5,46 C30.5,59.509 41.491,70.5 55,70.5 L55,70.5 Z M55,24.5 C66.855,24.5 76.5,34.145 76.5,46 C76.5,57.855 66.855,67.5 55,67.5 C43.145,67.5 33.5,57.855 33.5,46 C33.5,34.145 43.145,24.5 55,24.5 L55,24.5 Z" id="Shape" fill="#FFFFFF" opacity="0.3"></path>
                <rect id="Rectangle-path" fill="#FFFFFF" opacity="0.3" transform="translate(44.209243, 34.951361) rotate(-45.000000) translate(-44.209243, -34.951361) " x="43.2092527" y="30.9513995" width="1.99998082" height="7.99992328"></rect>
                <rect id="Rectangle-path" fill="#FFFFFF" opacity="0.3" transform="translate(40.327435, 41.677934) rotate(-75.000671) translate(-40.327435, -41.677934) " x="39.3274647" y="37.6780531" width="1.99994025" height="7.999761"></rect>
                <rect id="Rectangle-path" fill="#FFFFFF" opacity="0.3" transform="translate(40.327446, 49.438776) rotate(-14.999329) translate(-40.327446, -49.438776) " x="36.3275655" y="48.4388054" width="7.999761" height="1.99994025"></rect>
                <rect id="Rectangle-path" fill="#FFFFFF" opacity="0.3" transform="translate(44.209562, 56.164980) rotate(-45.000000) translate(-44.209562, -56.164980) " x="40.2096009" y="55.1649901" width="7.99992328" height="1.99998082"></rect>
                <rect id="Rectangle-path" fill="#FFFFFF" opacity="0.3" transform="translate(50.932375, 60.046747) rotate(-75.000671) translate(-50.932375, -60.046747) " x="46.9324948" y="59.046777" width="7.999761" height="1.99994025"></rect>
                <rect id="Rectangle-path" fill="#FFFFFF" opacity="0.3" transform="translate(58.697828, 60.044196) rotate(-14.999329) translate(-58.697828, -60.044196) " x="57.6978576" y="56.0443156" width="1.99994025" height="7.999761"></rect>
                <rect id="Rectangle-path" fill="#FFFFFF" opacity="0.3" transform="translate(65.423182, 56.164661) rotate(-45.000000) translate(-65.423182, -56.164661) " x="64.4231915" y="52.1646995" width="1.99998082" height="7.99992328"></rect>
            </g>
        </g>
    </g>
</svg>