<svg width="80" height="80" viewBox="0 0 80 80" fill="none" xmlns="http://www.w3.org/2000/svg">
<rect width="80" height="80" fill="none"></rect>
<path d="M35.1423 26.1476C39.3502 23.7675 40.7619 18.4451 40.7619 18.4451C40.7619 18.4451 35.3513 16.9817 31.1434 19.3618C26.9355 21.7419 25.5238 27.0643 25.5238 27.0643C25.5238 27.0643 30.9345 28.5277 35.1423 26.1476Z" fill="white"/>
<path d="M30.0952 57.5948C33.6684 59.1446 37.5864 60 41.6954 60C58.4322 60 72 45.8083 72 28.3019H65.0952C65.0952 42.307 55.0425 52.8679 41.6954 52.8679C40.6418 52.8679 39.6087 52.8021 38.5995 52.6739C36.2353 55.0895 33.2326 56.6895 30.0952 57.5948Z" fill="white"/>
<path fill-rule="evenodd" clip-rule="evenodd" d="M40.4238 50.4509C40.8445 50.4772 41.2685 50.4906 41.6954 50.4906C53.3476 50.4906 62.7935 40.5564 62.7935 28.3019H37.9314C43.5493 31.4206 44.989 38.8063 42.4655 46.3229C41.9504 47.8574 41.257 49.2304 40.4238 50.4509ZM57.5218 31.8216C58.2592 32.2721 58.5118 33.2697 58.0861 34.0499C57.6604 34.8302 56.7176 35.0975 55.9802 34.647C55.2429 34.1966 54.2361 31.6979 54.2361 31.6979C54.2361 31.6979 56.7845 31.3711 57.5218 31.8216ZM51.7816 37.8465C52.3836 38.4836 52.3836 39.5164 51.7816 40.1535C51.1795 40.7905 50.2034 40.7905 49.6014 40.1535C48.9994 39.5164 48.6381 36.8271 48.6381 36.8271C48.6381 36.8271 51.1795 37.2095 51.7816 37.8465Z" fill="white"/>
<path fill-rule="evenodd" clip-rule="evenodd" d="M21.7439 29.461C18.9288 29.0729 15.7291 28.5535 12.5742 30.2752C8.34484 32.5834 6.74059 38.4656 9.07405 45.4647C11.4075 52.4637 18.2089 55.7399 24.7718 56.0377C31.3347 55.7399 38.1163 52.4637 40.4498 45.4647C42.7832 38.4656 41.179 32.5835 36.9496 30.2753C33.7703 28.5402 30.6068 29.0727 27.7978 29.4607C26.6983 29.6126 25.6744 29.7541 24.7718 29.7541C23.8697 29.7541 22.845 29.6128 21.7439 29.461ZM18.5631 46.4895C15.5539 43.3596 15.5539 38.2851 18.5631 35.1552C19.1236 34.5723 19.1236 33.6271 18.5631 33.0442C18.0027 32.4612 17.094 32.4612 16.5335 33.0442C12.4033 37.34 12.4033 44.3048 16.5335 48.6005C17.094 49.1835 18.0027 49.1835 18.5631 48.6005C19.1236 48.0176 19.1236 47.0725 18.5631 46.4895Z" fill="white"/>
</svg>
