<svg fill="none" height="80" viewBox="0 0 80 80" width="80" xmlns="http://www.w3.org/2000/svg" xmlns:xlink="http://www.w3.org/1999/xlink"><rect width="80" height="80" fill="none"></rect><linearGradient id="a"><stop offset=".291667" stop-color="#d6dde2" stop-opacity="0"/><stop offset="1" stop-color="#d6dde2"/></linearGradient><linearGradient id="b" gradientUnits="userSpaceOnUse" x1="51.4302" x2="53.284" xlink:href="#a" y1="15.0632" y2="42.4437"/><linearGradient id="c" gradientUnits="userSpaceOnUse" x1="62.4719" x2="64.337" xlink:href="#a" y1="14.1472" y2="41.6961"/><linearGradient id="d" gradientUnits="userSpaceOnUse" x1="66.7007" x2="68.0308" xlink:href="#a" y1="21.7988" y2="41.4443"/><linearGradient id="e" gradientUnits="userSpaceOnUse" x1="56.7704" x2="58.8567" xlink:href="#a" y1="10.2331" y2="41.0478"/><linearGradient id="f"><stop offset="0" stop-color="#d6dde2" stop-opacity="0"/><stop offset="1" stop-color="#d6dde2"/></linearGradient><linearGradient id="g" gradientUnits="userSpaceOnUse" x1="58.8315" x2="53.2196" xlink:href="#f" y1="35.8366" y2="43.3545"/><linearGradient id="h" gradientUnits="userSpaceOnUse" x1="29.3374" x2="27.4836" xlink:href="#a" y1="15.0632" y2="42.4437"/><linearGradient id="i" gradientUnits="userSpaceOnUse" x1="18.2957" x2="16.4306" xlink:href="#a" y1="14.1472" y2="41.6961"/><linearGradient id="j" gradientUnits="userSpaceOnUse" x1="14.0668" x2="12.7368" xlink:href="#a" y1="21.7988" y2="41.4443"/><linearGradient id="k" gradientUnits="userSpaceOnUse" x1="23.9971" x2="21.9109" xlink:href="#a" y1="10.2331" y2="41.0478"/><linearGradient id="l" gradientUnits="userSpaceOnUse" x1="21.9361" x2="27.548" xlink:href="#f" y1="35.8366" y2="43.3545"/><clipPath id="m"><path d="m0 0h80v80h-80z"/></clipPath><g clip-path="url(#m)"><path d="m54.7372 53.1348h14.4584l1.489 15.0565h-15.9474z" fill="#e4eaee"/><path d="m54.0183 60.084s4.4268.7406 8.6303.7406c4.2036 0 8.8133-.7406 8.8133-.7406l.7005 8.1109h-18.1441z" fill="#d6dde2"/><g fill="#e4eaee"><path d="m49.2875 17.4423c-.0298-1.2473.9279-2.2969 2.1727-2.3812 1.247-.0844 2.3386.8297 2.4745 2.0721l2.374 21.7029c.2015 1.8425-1.1715 3.4821-3.0207 3.6073-1.8523.1254-3.4352-1.319-3.4795-3.175z"/><path d="m59.2349 16.6997c-.0869-1.2828.8827-2.3932 2.1655-2.48 1.2069-.0817 2.2753.7745 2.4585 1.9702l3.3354 21.7717c.2889 1.8859-1.0971 3.6154-3.0007 3.7443-1.7954.1215-3.3494-1.2354-3.4709-3.0308z"/><path d="m65.4842 23.5271c.0055-.9283.7264-1.6951 1.6526-1.7578.9594-.065 1.7955.6469 1.8846 1.6043l1.4232 15.3065c.1317 1.4168-.9298 2.6637-2.3495 2.7599-1.4679.0993-2.711-1.0694-2.7022-2.5406z"/><path d="m54.5163 12.6304c-.0413-1.2493.9147-2.3066 2.1619-2.3911 1.2413-.084 2.3279.8262 2.4628 2.0631l2.7399 25.1228c.2018 1.8509-1.1776 3.4976-3.0352 3.6234-1.8493.1252-3.434-1.3076-3.4952-3.1601z"/></g><path d="m49.2875 17.4423c-.0298-1.2473.9279-2.2969 2.1727-2.3812 1.247-.0844 2.3386.8297 2.4745 2.0721l2.374 21.7029c.2015 1.8425-1.1715 3.4821-3.0207 3.6073-1.8523.1254-3.4352-1.319-3.4795-3.175z" fill="url(#b)"/><path d="m59.2349 16.6997c-.0869-1.2828.8827-2.3932 2.1655-2.48 1.2069-.0817 2.2753.7745 2.4585 1.9702l3.3354 21.7717c.2889 1.8859-1.0971 3.6154-3.0007 3.7443-1.7954.1215-3.3494-1.2354-3.4709-3.0308z" fill="url(#c)"/><path d="m65.4842 23.5271c.0055-.9283.7264-1.6951 1.6526-1.7578.9594-.065 1.7955.6469 1.8846 1.6043l1.4232 15.3065c.1317 1.4168-.9298 2.6637-2.3495 2.7599-1.4679.0993-2.711-1.0694-2.7022-2.5406z" fill="url(#d)"/><path d="m54.5163 12.6304c-.0413-1.2493.9147-2.3066 2.1619-2.3911 1.2413-.084 2.3279.8262 2.4628 2.0631l2.7399 25.1228c.2018 1.8509-1.1776 3.4976-3.0352 3.6234-1.8493.1252-3.434-1.3076-3.4952-3.1601z" fill="url(#e)"/><path d="m49.6724 35.7835c6.1194-4.1441 14.1712-4.2748 20.4667-.4036l1.3394 10.8745c.7731 6.2761-3.883 11.9139-10.1922 12.3411-6.4196.4346-11.8445-4.7005-11.7626-11.1343z" fill="#e4eaee"/><path d="m55.4787 37.819c4.5748 3.0337 6.4205 8.515 6.4205 8.515l-12.2443-4.0384v-6.5115s1.249-.9988 5.8238 2.0349z" fill="url(#g)"/><path d="m42.4731 36.4126c-.9534-1.1847-.4016-3.3382 1.0803-3.6792.3664-.0843.7469-.0507 1.0794.1247 1.539.8113 6.2202 3.6557 9.861 9.8413.5009.8509 1.4545 1.3513 2.4404 1.4066 1.8449.1034 4.783.7272 6.3399 3.4706 2.3791 4.1923.6808 10.0446-6.0678 9.8104s-8.0777-6.9735-8.0777-6.9735c-1.8747-7.0314-4.6151-11.4658-6.6555-14.0009z" fill="#e4eaee"/><path d="m40.5093 10.1039v-4.65059-4.650576" stroke="#d6dde2" stroke-linecap="round" stroke-width="1.69418"/><path d="m47.1077 12.0318 2.6336-2.64187 2.6336-2.64188" stroke="#d6dde2" stroke-linecap="round" stroke-width="1.69418"/><path d="m33.752 12.0274-2.5701-2.57814-2.5701-2.57817" stroke="#d6dde2" stroke-linecap="round" stroke-width="1.69418"/><path d="m26.0304 53.1348h-14.4584l-1.489 15.0565h15.9474z" fill="#e4eaee"/><path d="m26.7493 60.084s-4.4268.7406-8.6304.7406c-4.2035 0-8.81323-.7406-8.81323-.7406l-.70047 8.1109h18.1441z" fill="#d6dde2"/><path d="m31.4801 17.4423c.0298-1.2473-.9279-2.2969-2.1727-2.3812-1.247-.0844-2.3386.8297-2.4745 2.0721l-2.374 21.7029c-.2016 1.8425 1.1714 3.4821 3.0207 3.6073 1.8522.1254 3.4352-1.319 3.4795-3.175z" fill="#e4eaee"/><path d="m21.5327 16.6997c.0868-1.2828-.8827-2.3932-2.1655-2.48-1.2069-.0817-2.2753.7745-2.4585 1.9702l-3.3354 21.7717c-.2889 1.8859 1.0971 3.6154 3.0006 3.7443 1.7954.1215 3.3494-1.2354 3.471-3.0308z" fill="#e4eaee"/><path d="m15.2834 23.5271c-.0055-.9283-.7264-1.6951-1.6527-1.7578-.9593-.065-1.7955.6469-1.8845 1.6043l-1.4232 15.3065c-.1318 1.4168.9298 2.6637 2.3494 2.7599 1.468.0993 2.711-1.0694 2.7023-2.5406z" fill="#e4eaee"/><path d="m26.2513 12.6304c.0412-1.2493-.9148-2.3066-2.1619-2.3911-1.2413-.084-2.3279.8262-2.4628 2.0631l-2.7399 25.1228c-.2019 1.8509 1.1776 3.4976 3.0351 3.6234 1.8493.1252 3.4341-1.3076 3.4952-3.1601z" fill="#e4eaee"/><path d="m31.4801 17.4423c.0298-1.2473-.9279-2.2969-2.1727-2.3812-1.247-.0844-2.3386.8297-2.4745 2.0721l-2.374 21.7029c-.2016 1.8425 1.1714 3.4821 3.0207 3.6073 1.8522.1254 3.4352-1.319 3.4795-3.175z" fill="url(#h)"/><path d="m21.5327 16.6997c.0868-1.2828-.8827-2.3932-2.1655-2.48-1.2069-.0817-2.2753.7745-2.4585 1.9702l-3.3354 21.7717c-.2889 1.8859 1.0971 3.6154 3.0006 3.7443 1.7954.1215 3.3494-1.2354 3.471-3.0308z" fill="url(#i)"/><path d="m15.2834 23.5271c-.0055-.9283-.7264-1.6951-1.6527-1.7578-.9593-.065-1.7955.6469-1.8845 1.6043l-1.4232 15.3065c-.1318 1.4168.9298 2.6637 2.3494 2.7599 1.468.0993 2.711-1.0694 2.7023-2.5406z" fill="url(#j)"/><path d="m26.2513 12.6304c.0412-1.2493-.9148-2.3066-2.1619-2.3911-1.2413-.084-2.3279.8262-2.4628 2.0631l-2.7399 25.1228c-.2019 1.8509 1.1776 3.4976 3.0351 3.6234 1.8493.1252 3.4341-1.3076 3.4952-3.1601z" fill="url(#k)"/><path d="m31.0952 35.7835c-6.1194-4.1441-14.1713-4.2748-20.4667-.4036l-1.33945 10.8745c-.77304 6.2761 3.88305 11.9139 10.19215 12.3411 6.4197.4346 11.8446-4.7005 11.7626-11.1343z" fill="#e4eaee"/><path d="m25.2888 37.819c-4.5747 3.0337-6.4204 8.515-6.4204 8.515l12.2443-4.0384v-6.5115s-1.2491-.9988-5.8239 2.0349z" fill="url(#l)"/><path d="m38.2945 36.4126c.9534-1.1847.4016-3.3382-1.0804-3.6792-.3663-.0843-.7468-.0507-1.0793.1247-1.5391.8113-6.2202 3.6557-9.861 9.8413-.5009.8509-1.4546 1.3513-2.4404 1.4066-1.8449.1034-4.783.7272-6.3399 3.4706-2.3792 4.1923-.6808 10.0446 6.0678 9.8104s8.0776-6.9735 8.0776-6.9735c1.8748-7.0314 4.6152-11.4658 6.6556-14.0009z" fill="#e4eaee"/></g></svg>