<svg xmlns="http://www.w3.org/2000/svg" width="48" height="48" viewBox="0 0 48 48" fill="none"><rect width="48" height="48" fill="none"/>
<path fill-rule="evenodd" clip-rule="evenodd" d="M32.0123 4.47531C32.1084 2.42804 30.8746 0.231326 28.8279 0.123921C27.3235 0.0449787 25.7142 0 24 0C19.3246 0 15.4298 0.334589 12.3158 0.780288C6.21531 1.65342 1.65342 6.21531 0.780288 12.3158C0.334589 15.4298 0 19.3246 0 24C0 28.6754 0.334589 32.5702 0.780288 35.6842C1.65342 41.7847 6.21531 46.3466 12.3158 47.2197C15.4298 47.6654 19.3246 48 24 48C25.7142 48 27.3235 47.955 28.8279 47.8761C30.8746 47.7687 32.1084 45.572 32.0123 43.5247C32.0041 43.3508 32 43.1759 32 43C32 36.9249 36.9249 32 43 32C43.1759 32 43.3508 32.0041 43.5247 32.0123C45.572 32.1084 47.7687 30.8746 47.8761 28.8279C47.955 27.3235 48 25.7142 48 24C48 22.2858 47.955 20.6765 47.8761 19.1721C47.7687 17.1254 45.572 15.8916 43.5247 15.9877C43.3508 15.9959 43.1759 16 43 16C36.9249 16 32 11.0751 32 5C32 4.82411 32.0041 4.64918 32.0123 4.47531Z" fill="black"/>
</svg>
