<svg xmlns="http://www.w3.org/2000/svg" width="128" height="128" viewBox="0 0 128 128" fill="none"><rect width="128" height="128" fill="none"/>
<path d="M52.2421 83.8834L69.2579 113.356C70.4962 115.5 73.2317 116.239 75.3679 115.006L85.0876 109.394C86.7865 108.413 87.6439 106.434 87.2012 104.516L86.5823 101.834C86.4824 101.401 86.4472 100.956 86.478 100.513L87.7431 82.3006C87.8408 80.8937 87.2713 79.5206 86.206 78.5946L85.7283 78.1794C84.5786 77.18 84.0121 75.6656 84.2244 74.1587L84.7127 70.6923C84.8184 69.9424 84.7324 69.1772 84.4627 68.4684L83.7271 66.5343C82.7449 63.9521 79.6914 62.8577 77.3081 64.2337L53.8679 77.7669C51.7317 79.0002 51.0038 81.7387 52.2421 83.8834Z" fill="#BFC2C4"/>
<path d="M124.301 80.8557L107.285 51.3834C106.047 49.2387 103.311 48.5 101.174 49.7335L87.5426 57.6038C85.5416 58.7591 84.7552 61.2557 85.7294 63.3606L88.1212 68.5287C88.3942 69.1185 88.5361 69.7602 88.5372 70.4095L88.5411 72.7615C88.5429 73.8466 88.9377 74.8955 89.6523 75.7134L90.95 77.1986C91.6646 78.0164 92.0594 79.0653 92.0612 80.1505L92.0849 94.3729C92.0856 94.8124 92.0218 95.2494 91.8955 95.6699L91.8524 95.8133C90.6852 99.698 94.8698 103.026 98.3763 101.001L122.674 86.9726C124.811 85.7391 125.539 83.0004 124.301 80.8557Z" fill="#CACCCE"/>
<path fill-rule="evenodd" clip-rule="evenodd" d="M83.4193 26.8319C78.3529 16.9287 66.1295 13.0248 56.1039 18.1537C51.7839 20.3638 48.584 23.8868 46.7471 27.9762L53.1763 25.7908L54.4665 29.5928L42.6206 33.6196L36.5262 22.9473L40.0192 20.9534L43.0856 26.3231C45.2857 21.4333 49.1144 17.2198 54.2754 14.5795C66.2538 8.45141 80.9112 13.0983 87 25L83.4193 26.8319Z" fill="#F15045"/>
<path d="M14.1649 45.8184C14.6261 44.2619 16.2874 43.3815 17.8755 43.852L81.1578 62.6029C82.7459 63.0735 83.6594 64.7168 83.1982 66.2734L72.3682 102.824C71.907 104.38 70.2457 105.26 68.6576 104.79L5.37523 86.039C3.78716 85.5685 2.87366 83.9252 3.33489 82.3686L14.1649 45.8184Z" fill="#EF3124"/>
<path d="M69.9842 95.3984C69.1213 98.3108 66.0607 99.9722 63.1483 99.1093C60.2359 98.2463 58.5745 95.1858 59.4375 92.2734C60.3004 89.361 63.361 87.6996 66.2734 88.5625C69.1858 89.4255 70.8472 92.486 69.9842 95.3984Z" fill="white"/>
<path d="M49 53L49.9588 53.2841L37.4586 95.4711L36.4998 95.187L49 53Z" fill="#E7ECF0"/>
<path fill-rule="evenodd" clip-rule="evenodd" d="M83.2912 65.79L72.3107 102.848C71.902 104.227 70.4599 105.017 69.0898 104.611L6.12251 85.9531L5.91105 86.6668L68.8784 105.324C70.6399 105.846 72.494 104.832 73.0195 103.058L84 66L83.2912 65.79Z" fill="#18293D"/>
<path d="M14 67L27.4231 70.9773L26.5709 73.8537L13.1477 69.8764L14 67Z" fill="white"/>
<path fill-rule="evenodd" clip-rule="evenodd" d="M25.3564 54.5849C25.2849 54.6513 25.1927 54.7553 25.0895 54.9145C24.4988 55.8256 23.3452 57.5505 22.1316 59.3535L25.5001 60.3516C25.4714 58.9517 25.4498 57.5909 25.4333 56.5548C25.4216 55.8222 25.4125 55.252 25.4054 54.945C25.4017 54.7868 25.3805 54.6688 25.3564 54.5849ZM25.5693 63.2483C25.6016 64.4987 25.5755 65.3731 25.5985 66.2605L28.487 67.1164C28.4579 65.9956 28.3427 63.7967 28.301 62.1758C28.2493 60.1691 28.2165 58.0921 28.193 56.6081C28.181 55.8463 28.1714 55.2407 28.163 54.8812C28.1331 53.5969 27.531 52.2392 26.1737 51.8293C24.7735 51.4065 23.5197 52.2653 22.7748 53.4142C22.0309 54.5616 20.3522 57.0618 18.794 59.3699C17.8723 60.7353 16.6305 62.528 16.0227 63.4231L18.7539 64.2324C19.2369 63.5211 19.8053 62.7999 20.5146 61.7505L25.5693 63.2483Z" fill="white"/>
<path d="M60.9842 92.3984C60.1213 95.3108 57.0607 96.9722 54.1483 96.1093C51.2359 95.2463 49.5745 92.1858 50.4375 89.2734C51.3004 86.361 54.361 84.6996 57.2734 85.5625C60.1858 86.4255 61.8472 89.486 60.9842 92.3984Z" fill="#D6DDE2"/>
<path d="M116 57C116 69.7025 105.703 80 93 80C80.2975 80 70 69.7025 70 57C70 44.2975 80.2975 34 93 34C105.703 34 116 44.2975 116 57Z" fill="#F2C94C"/>
<path fill-rule="evenodd" clip-rule="evenodd" d="M70.9954 57.5C70.9954 69.9289 81.071 80.0046 93.5 80.0046C105.929 80.0046 116.005 69.9289 116.005 57.5C116.005 45.071 105.929 34.9954 93.5 34.9954L93.5 34C106.479 34 117 44.5213 117 57.5C117 70.4787 106.479 81 93.5 81C80.5213 81 70 70.4787 70 57.5L70.9954 57.5Z" fill="#18293D"/>
<path fill-rule="evenodd" clip-rule="evenodd" d="M94.6758 45H92.2666V47.0747C90.5086 47.281 89.1173 47.8478 88.0927 48.7749C87.0066 49.7486 86.4635 51.0135 86.4635 52.5696C86.4635 53.8891 86.8801 54.9993 87.7135 55.9002C88.5562 56.792 89.764 57.429 91.3371 57.8112L92.2666 58.0446V64.5382C91.3566 64.3925 90.616 64.0748 90.0449 63.5851C89.4082 63.0391 89.0524 62.3475 88.9775 61.5103H86C86.0094 63.0846 86.6086 64.3723 87.7978 65.3733C88.9228 66.3117 90.4124 66.8632 92.2666 67.0278V69H94.6758V67.0245C96.6564 66.8432 98.198 66.2655 99.3006 65.2914C100.434 64.2904 101 62.9618 101 61.3056C101 59.8951 100.574 58.753 99.7219 57.8794C98.8699 56.9967 97.5684 56.3415 95.8174 55.9138L94.6758 55.6633V49.5493C95.5283 49.685 96.2319 50.0139 96.7865 50.5358C97.3764 51.0818 97.6854 51.7415 97.7135 52.515H100.649C100.602 51.0044 100.022 49.7532 98.9073 48.7613C97.8358 47.7905 96.4253 47.222 94.6758 47.0558V45ZM94.6758 64.6113V58.5148C95.7998 58.7607 96.6298 59.1268 97.1657 59.613C97.7369 60.1135 98.0225 60.7687 98.0225 61.5786C98.0225 62.4795 97.7135 63.1984 97.0955 63.7353C96.5172 64.2368 95.7106 64.5288 94.6758 64.6113ZM92.2666 49.5531V55.1585C91.4111 54.9455 90.7455 54.624 90.2697 54.194C89.736 53.7117 89.4691 53.102 89.4691 52.3649C89.4691 51.5823 89.764 50.9271 90.3539 50.3993C90.8722 49.9276 91.5098 49.6455 92.2666 49.5531Z" fill="white"/>
</svg>
