<svg fill="none" height="80" viewBox="0 0 80 80" width="80" xmlns="http://www.w3.org/2000/svg" xmlns:xlink="http://www.w3.org/1999/xlink"><rect width="80" height="80" fill="none"></rect><linearGradient id="a" gradientUnits="userSpaceOnUse" x1="27.0377" x2="20.8284" y1="70.4998" y2="48.1162"><stop offset="0" stop-color="#3a7eeb"/><stop offset="1" stop-color="#1d61ce"/></linearGradient><linearGradient id="b" gradientUnits="userSpaceOnUse" x1="40.0759" x2="40.0759" y1="22.1016" y2="54.0478"><stop offset="0" stop-color="#ffe288"/><stop offset="1" stop-color="#f2c94c"/></linearGradient><ellipse cx="40.1244" cy="73.9071" fill="#f6f7f8" rx="22.7179" ry="5.44229"/><path d="m36.7549 38.0817 13.1415 7.5873c.4998.2885.671.9275.3825 1.4272l-17.419 30.1706c-.4049.7013-1.4193.6953-1.8159-.0109l-3.7125-6.6114c-.1872-.3333-.5413-.5378-.9235-.5332l-7.582.0906c-.8098.0096-1.3222-.8658-.9173-1.5672l17.419-30.1705c.2885-.4998.9275-.671 1.4272-.3825z" fill="url(#a)"/><path d="m43.0786 38.0045-13.3395 7.7016c-.4998.2885-.671.9275-.3825 1.4273l17.4251 30.1811c.4036.699 1.4137.6959 1.8129-.0056l3.8093-6.6933c.1869-.3284.5366-.5303.9145-.528l7.7012.0477c.8071.005 1.3149-.8682.9113-1.5672l-3.8034-6.5876-13.6217-23.5935c-.2885-.4998-.9275-.671-1.4272-.3825z" fill="#4c8df5"/><path d="m36.3884 15.2977c2.0387-2.0316 5.3364-2.0316 7.375 0l3.6322 3.6194c.8339.8309 1.9239 1.3559 3.0935 1.4897l5.0944.5831c2.8593.3272 4.9155 2.9055 4.5982 5.766l-.5651 5.0964c-.1298 1.17.1394 2.3496.764 3.3475l2.7204 4.3464c1.527 2.4396.7932 5.6547-1.6411 7.1902l-4.3369 2.7356c-.9956.6281-1.75 1.574-2.1407 2.6845l-1.7021 4.8369c-.9553 2.7149-3.9265 4.1457-6.6447 3.1999l-4.8428-1.6851c-1.1118-.3868-2.3217-.3868-3.4335 0l-4.8429 1.6851c-2.7182.9458-5.6893-.4851-6.6447-3.1999l-1.702-4.8369c-.3908-1.1105-1.1451-2.0564-2.1408-2.6845l-4.3369-2.7356c-2.4342-1.5355-3.168-4.7506-1.6411-7.1902l2.7205-4.3465c.6245-.9978.8938-2.1774.764-3.3474l-.5652-5.0964c-.3172-2.8605 1.7389-5.4388 4.5983-5.766l5.0944-.5831c1.1695-.1338 2.2596-.6588 3.0935-1.4897z" fill="#f2c94c"/><circle cx="40.0759" cy="38.0747" fill="url(#b)" r="15.9731"/></svg>