<svg fill="none" height="80" viewBox="0 0 80 80" width="80" xmlns="http://www.w3.org/2000/svg" xmlns:xlink="http://www.w3.org/1999/xlink"><rect width="80" height="80" fill="none"></rect><clipPath id="a"><path d="m0 0h80v80h-80z"/></clipPath><g clip-path="url(#a)"><path d="m38.1548 21.6182.8357-.8073c.3499-.338.9338-.0835.9244.4029l-.2212 11.4592c-.0072.3761-.0922.7466-.2495 1.0882l-2.1237 4.6118-3.6968-2.2406 2.4258-5.1529c.101-.2146.1736-.4414.216-.6747l1.4161-7.8018c.0612-.3372.2267-.6467.4732-.8848z" fill="#e4eaee"/><path d="m19.1542 50.744h-3.2245c-.2315 0-.4618.0323-.6844.0959l-7.91944 2.2627c-2.95856.7191-4.67713 2.378-5.53468 5.6634l-2.16264 9.3177h28.75056v-6.9407c0-.7818.1577-1.5555.4636-2.2749l9.9699-23.4431s-1.4152 0-2.3586-.4128c-.9434-.4127-1.7689-1.9458-1.7689-1.9458l-9.2618 14.2724c-1.3781 2.1236-3.7376 3.4052-6.2691 3.4052z" fill="#d6dde2"/><ellipse cx="15.2942" cy="53.0465" fill="#f6f7f8" rx="4.45362" ry="3.78482"/><rect fill="#e4eaee" height="11.0292" rx="3.48506" width="6.97013" x="11.8931" y="43.9395"/><g fill="#f6f7f8"><path d="m11.2887 42.3207c0 1.2192-.8252 2.9206-1.84316 2.9206-1.01793 0-1.84312-1.7014-1.84312-2.9206 0-1.2191.82519-2.2074 1.84312-2.2074 1.01796 0 1.84316.9883 1.84316 2.2074z"/><path d="m23.2468 42.3207c0 1.2192-.8252 2.9206-1.8431 2.9206-1.018 0-1.8432-1.7014-1.8432-2.9206 0-1.2191.8252-2.2074 1.8432-2.2074 1.0179 0 1.8431.9883 1.8431 2.2074z"/><path d="m22.0489 40.2499c0 1.8187.1184 4.5908-.7409 6.4456-1.2111 2.6139-3.7435 4.7062-5.8836 4.7062s-4.6725-2.0923-5.88363-4.7062c-.85935-1.8548-.74093-4.6269-.74093-6.4456 0-4.3818 2.96586-7.2792 6.62456-7.2792 3.6586 0 6.6245 2.8974 6.6245 7.2792z"/></g><path d="m9.56909 40.3917c.31031-1.021 1.14751-2.5968 3.02941-3.4942.9839.8191 2.4708 2.0485 4.9478 2.129 1.3486.0439 2.3237-.3483 2.9053-.9799.8569 1.2808 1.0649 2.5754 1.2554 4.2924h.4335v-1.9475c0-2.8711-.9777-4.4928-1.5828-5.1555-1.2151-1.5742-3.0495-2.486-5.1019-2.486-2.0391 0-3.863.9-5.0782 2.4554-.65028.8405-1.59672 2.2998-1.59672 5.1863v1.9065h.43352z" fill="#d6dde2"/><path d="m41.2544 21.6182-.8357-.8073c-.35-.338-.9338-.0835-.9245.4029l.1034 5.3545.1178 6.1047c.0073.3761.0923.7466.2496 1.0882l2.1237 4.6118 3.6968-2.2406-2.4258-5.1529c-.101-.2146-.1736-.4414-.216-.6747l-1.4161-7.8018c-.0612-.3372-.2267-.6467-.4732-.8848z" fill="#e4eaee"/><path d="m60.255 50.744h3.2245c.2314 0 .4618.0323.6843.0959l7.9195 2.2627c2.2151.7191 4.6644 2.2485 5.575 5.6634l2.1223 9.3177h-28.7505v-6.9407c0-.7818-.1577-1.5555-.4636-2.2749l-9.9699-23.4431s1.4151 0 2.3586-.4128c.9434-.4127 1.7689-1.9458 1.7689-1.9458l9.2618 14.2724c1.3781 2.1236 3.7375 3.4052 6.2691 3.4052z" fill="#d6dde2"/><path d="m58.4519 50.4141 5.8337.5122 5.5315 1.4795s-1.5984 5.0809-2.257 7.0582c-.506 1.5192-2.1044 4.8704-2.8179 6.3418-.1439.2968-.5607.2989-.708.0037-.7477-1.498-2.4414-4.9498-2.8811-6.3455-.5691-1.8065-2.7012-9.0499-2.7012-9.0499z" fill="#f6f7f8"/><rect fill="#e4eaee" height="11.0292" rx="3.48506" transform="matrix(-1 0 0 1 67.5161 43.9395)" width="6.97013"/><path d="m67.9687 42.3188c0 1.2191.8252 2.9205 1.8431 2.9205s1.8431-1.7014 1.8431-2.9205c0-1.2192-.8252-2.2075-1.8431-2.2075s-1.8431.9883-1.8431 2.2075z" fill="#f6f7f8"/><path d="m56.0105 42.3188c0 1.2191.8252 2.9205 1.8432 2.9205 1.0179 0 1.8431-1.7014 1.8431-2.9205 0-1.2192-.8252-2.2075-1.8431-2.2075-1.018 0-1.8432.9883-1.8432 2.2075z" fill="#f6f7f8"/><path d="m57.2084 40.2499c0 1.8187-.1184 4.5908.7409 6.4456 1.2111 2.6139 3.7436 4.7062 5.8836 4.7062 2.1401 0 4.6726-2.0923 5.8836-4.7062.8594-1.8548.741-4.6269.741-6.4456 0-4.3818-2.9659-7.2792-6.6246-7.2792-3.6586 0-6.6245 2.8974-6.6245 7.2792z" fill="#f6f7f8"/><path d="m57.9093 40.7081c.3103-1.021 1.1475-2.5967 3.0294-3.4942.9839.8191 2.4708 2.0485 4.9478 2.129 1.3486.0439 2.3237-.3483 2.9053-.9799.8569 1.2808 1.0649 2.5754 1.2554 4.2924h.4335v-1.9475c0-2.8711-.9777-4.4928-1.5828-5.1555-1.2151-1.5742-3.0495-2.486-5.1019-2.486-2.0391 0-3.863.9-5.0782 2.4554-.6503.8405-1.5967 2.2998-1.5967 5.1863v1.9065h.4335z" fill="#d6dde2"/><path d="m39.9388 11.161v-4.99945-4.99944" stroke="#d6dde2" stroke-linecap="round" stroke-width="1.60304"/><path d="m47.0324 13.2348 2.8312-2.84 2.8311-2.84011" stroke="#d6dde2" stroke-linecap="round" stroke-width="1.60304"/><path d="m32.6749 13.2306-2.7629-2.7715-2.7628-2.7716" stroke="#d6dde2" stroke-linecap="round" stroke-width="1.60304"/></g></svg>