<svg width="64" height="64" viewBox="0 0 64 64" xmlns="http://www.w3.org/2000/svg"><title>art_alfabank_logo__xs__color</title><g fill="none" fill-rule="evenodd"><path d="M0 0h64v64H0z"/><rect fill="#F03226" width="64" height="64" rx="32"/><path d="M22 43.1h20v3.8H22v-3.8zm13.305-23.158c.234.622 5.679 15.223 5.842 15.661.045.121.015.323-.177.395-.193.072-3.023 1.149-3.179 1.207a.31.31 0 0 1-.39-.18c-.058-.152-1.11-3.492-1.242-3.848h-8.137c-.133.356-1.37 3.702-1.424 3.848a.303.303 0 0 1-.39.18c-.165-.065-3.008-1.144-3.176-1.207a.306.306 0 0 1-.18-.395c.2-.547 5.563-14.914 5.838-15.66.53-1.45 1.213-2.943 3.309-2.943s2.755 1.47 3.306 2.942zm-6.05 9.847h5.5l-2.738-8.02h-.034l-2.729 8.02z" fill="#FFF"/></g></svg>