<svg xmlns="http://www.w3.org/2000/svg" width="80" height="80" viewBox="0 0 80 80" fill="none"><rect width="80" height="80" fill="none"/>
<circle cx="39.9468" cy="39.9438" r="30" fill="#E7ECF0"/>
<path fill-rule="evenodd" clip-rule="evenodd" d="M62.2848 52.3823L59.5758 44.2457C59.1015 42.8211 58.0121 41.685 56.6086 41.1515L44.5122 36.5527H35.1925L23.285 41.1449C21.8902 41.6829 20.8092 42.8168 20.3385 44.2358L19.8561 45.6897L14.7153 59.9697C11.7792 68.1257 19.0723 76.4573 27.1475 73.3059C31.735 71.5156 35.9979 69.3272 40.0579 66.4514C44.2037 69.1118 48.1881 71.1721 52.3698 72.893C60.4479 76.2175 67.8654 67.8841 64.9066 59.665L62.2848 52.3823Z" fill="#EF3124"/>
<path d="M42.4438 45.45C41.2863 47.4353 38.418 47.4353 37.2605 45.45L32.6603 37.5602L39.8521 34.6615L47.0439 37.5602L42.4438 45.45Z" fill="white"/>
<path d="M29.0977 54.6686C30.8103 55.128 36.4948 56.3288 38.0006 57.1181L25.0629 60.5016L19.8317 63.929C19.3471 64.2465 18.7036 63.8988 18.7036 63.3194C18.7036 63.1933 18.736 63.0697 18.8008 62.9615C19.0977 62.4659 19.7561 61.4226 19.7561 61.4226C19.7561 59.2736 22.6273 56.8347 23.9226 55.6774C25.2178 54.5198 27.0076 54.1079 29.0977 54.6686Z" fill="white"/>
<path fill-rule="evenodd" clip-rule="evenodd" d="M35.192 36.4087C36.7563 37.5591 38.4483 38.2524 40.0104 38.2524C41.4674 38.2524 43.0376 37.6491 44.5117 36.6343V37.6189C44.5117 40.1924 42.4254 42.2787 39.8519 42.2787C37.2783 42.2787 35.192 40.1924 35.192 37.6189V36.4087Z" fill="#B4C6D2"/>
<path fill-rule="evenodd" clip-rule="evenodd" d="M50.6604 20.3255V20.3239C50.6604 13.2794 45.8922 8.62134 40.0104 8.62134C34.1285 8.62134 29.3603 13.2794 29.3603 20.3239V20.3254C28.2356 20.8291 27.4348 22.1278 27.4348 23.6506C27.4348 25.3575 28.441 27.6525 29.7818 28.2166C29.9583 29.1008 30.2056 29.9397 30.5515 30.6862C32.4985 34.8884 36.5698 38.2522 40.0104 38.2522C43.4509 38.2522 47.5222 34.8884 49.4692 30.6862C49.8151 29.9396 50.0625 29.1007 50.239 28.2165C51.5796 27.6521 52.5856 25.3573 52.5856 23.6506C52.5856 22.1279 51.785 20.8293 50.6604 20.3255Z" fill="white"/>
<path fill-rule="evenodd" clip-rule="evenodd" d="M35.3548 14.8878C32.4214 16.3372 31.1078 18.819 30.6167 20.4349L30.0476 23.4942H29.3519V21.5014C28.8332 21.9327 28.4348 22.6969 28.4348 23.6506C28.4348 24.3304 28.6415 25.1815 29.004 25.923C29.3809 26.6944 29.8275 27.1509 30.1696 27.2949L30.6586 27.5006L30.7624 28.0208C30.9283 28.8518 31.1552 29.6105 31.4588 30.2658C32.3671 32.2262 33.7756 33.9959 35.3492 35.2671C36.9372 36.5499 38.5991 37.2522 40.0104 37.2522C41.4216 37.2522 43.0835 36.5499 44.6715 35.2671C46.2451 33.9959 47.6536 32.2262 48.5619 30.2658C48.8655 29.6104 49.0924 28.8517 49.2583 28.0207L49.3621 27.5006L49.851 27.2948C50.1931 27.1507 50.6396 26.6942 51.0166 25.9229C51.3789 25.1814 51.5856 24.3304 51.5856 23.6506C51.5856 22.7094 51.1976 21.9528 50.6888 21.5185V23.56H49.9932C49.6929 20.8526 49.3654 18.7997 48.0495 16.7794C47.1153 17.7993 45.5452 18.4332 43.3714 18.3625C39.3721 18.2325 36.9782 16.2395 35.3966 14.9227L35.3548 14.8878ZM29.3522 20.3291C29.3751 15.7675 30.8776 13.4509 31.9131 12.1125L31.926 12.119C33.8792 9.68018 36.7766 8.27197 40.0106 8.27197C43.2649 8.27197 46.1782 9.69783 48.1317 12.1648L48.1336 12.1455C49.0965 13.1907 50.6667 15.7671 50.6886 20.3384C51.7983 20.851 52.5856 22.1407 52.5856 23.6506C52.5856 25.3573 51.5796 27.6521 50.239 28.2165C50.0625 29.1007 49.8151 29.9396 49.4692 30.6862C47.5222 34.8884 43.4509 38.2522 40.0104 38.2522C36.5698 38.2522 32.4985 34.8884 30.5515 30.6862C30.2056 29.9397 29.9583 29.1008 29.7818 28.2166C28.441 27.6525 27.4348 25.3575 27.4348 23.6506C27.4348 22.1315 28.2317 20.8353 29.3522 20.3291Z" fill="#18293D"/>
<path d="M43.3513 58.7467C42.8301 57.0713 40.9392 56.3505 40.9392 56.3505C46.2349 54.8875 50.5768 54.8438 50.5768 54.8438C52.6622 55.2724 55.9274 57.0366 57.2869 59.6836C57.3324 59.7165 57.3779 59.7496 57.4234 59.7829C58.6856 60.7085 58.0435 61.7645 56.5314 61.36C55.8355 61.1739 55.079 60.9639 54.3047 60.7362C52.355 60.1628 51.1176 60.1142 50.4944 60.1493C50.1715 60.1674 49.8848 60.329 49.6325 60.5313C46.9703 62.6671 43.7022 62.2275 43.7022 62.2275C43.6876 61.9643 43.8725 60.4222 43.3513 58.7467Z" fill="white"/>
<path fill-rule="evenodd" clip-rule="evenodd" d="M23.5894 55.3043C25.0282 54.0185 26.9987 53.5876 29.2273 54.1854C29.6677 54.3036 30.3618 54.4685 31.1838 54.6637C31.9598 54.8481 32.8499 55.0596 33.7481 55.2844C34.6626 55.5132 35.5763 55.7538 36.3584 55.9877C36.9921 56.1773 37.5644 56.3696 37.9834 56.5555L39.3651 56.2857L39.3362 56.2747L40.806 55.8686C43.4854 55.1284 45.9218 54.7476 47.6887 54.5516C48.5726 54.4535 49.2901 54.4016 49.7881 54.3742C50.049 54.3599 50.3102 54.3467 50.5715 54.3438C50.5803 55.1785 50.5715 54.3438 50.5715 54.3438C51.8546 54.3309 53.4511 55.3338 54.48 56.0149C55.7357 56.8463 56.9306 57.9661 57.668 59.3343C57.7328 59.3763 57.7969 59.4193 57.8601 59.4637L57.868 59.4693L57.8704 59.4711L57.8713 59.4718C58.0998 59.637 58.3699 59.9972 58.49 60.283C58.6328 60.6227 58.6388 60.9975 58.4497 61.322C58.3558 61.4832 58.2302 61.6103 58.0816 61.7066C58.5854 61.9339 59.1121 62.1866 59.6635 62.4683L59.2085 63.3588C55.6141 61.5225 53.1281 60.9629 51.1534 60.6492C50.8913 60.6363 50.6817 60.6395 50.5225 60.6485C50.3502 60.6582 50.1627 60.747 49.9453 60.9214C48.5225 62.0628 46.9451 62.5107 45.7367 62.6757C45.1311 62.7585 44.6125 62.771 44.2431 62.7627C43.9006 62.755 43.5648 62.7135 43.2259 62.668C43.1547 61.3875 43.2639 60.1491 42.8738 58.8953C42.658 58.2015 42.1494 57.6824 41.6564 57.3253C41.4435 57.171 41.2413 57.0528 41.0819 56.969L38.9684 57.3817L25.2685 60.9644L20.1057 64.347C19.2886 64.8824 18.2036 64.2961 18.2036 63.3192C18.2036 63.1074 18.2581 62.8942 18.3719 62.7043C18.5231 62.452 18.7643 62.0635 18.9658 61.741C19.0636 61.5845 19.1617 61.4282 19.26 61.272C19.3219 60.0524 20.1225 58.8427 20.9745 57.8519C21.8805 56.7984 22.9511 55.8747 23.5894 55.3043ZM55.6627 58.285C54.4266 57.7506 52.6965 57.1741 50.54 56.8809L50.4053 57.8717C52.6088 58.1713 54.3383 58.7806 55.5129 59.3122C56.1002 59.5779 56.5482 59.824 56.8469 60.0017C57.1195 60.1639 57.4411 60.3683 57.5682 60.6705C57.6118 60.7744 57.5892 60.8127 57.5857 60.8186C57.5779 60.832 57.5337 60.8915 57.377 60.9265C57.2211 60.9613 56.9814 60.9629 56.6605 60.877C55.9679 60.6918 55.2153 60.4829 54.4457 60.2565C53.0514 59.8464 51.9995 59.6945 51.2577 59.6533C50.9326 59.6021 50.7617 59.6334 50.4663 59.6501C49.9927 59.6767 49.6068 59.9109 49.3196 60.1414C48.0802 61.1357 46.6925 61.5359 45.6013 61.6849C45.1425 61.7476 44.6791 61.7737 44.2162 61.7617C44.2225 61.5565 44.2262 61.2977 44.2164 61.0003C44.1947 60.3437 44.1067 59.4918 43.8287 58.5983C43.5255 57.6236 42.8359 56.9474 42.2557 56.5246C44.4026 55.9999 46.3355 55.7078 47.799 55.5455C48.6625 55.4497 49.3615 55.3992 49.8431 55.3727C50.1946 55.3534 50.4301 55.3468 50.5291 55.3447C51.4943 55.5522 52.7487 56.068 53.928 56.8487C54.554 57.2632 55.1482 57.7452 55.6627 58.285ZM19.2297 63.2182C19.3572 63.0055 19.5542 62.6872 19.7367 62.3946L19.7385 62.3967L23.3725 59.3357C24.2139 58.627 25.2786 58.2383 26.3786 58.2383L26.3786 57.2383C25.0428 57.2383 23.75 57.7103 22.7283 58.5708L20.4488 60.4909C20.6934 59.8544 21.1541 59.1768 21.7327 58.5039C22.5861 57.5115 23.5988 56.637 24.2558 56.05C25.4075 55.0207 27.0166 54.6277 28.9682 55.1513C29.4128 55.2705 30.1342 55.4421 30.9767 55.6424C31.757 55.828 32.6412 56.0382 33.5053 56.2544C34.53 56.5109 35.5471 56.781 36.3539 57.0318L24.8572 60.0384L19.5577 63.5105C19.3701 63.6334 19.1138 63.4118 19.2297 63.2182Z" fill="#18293D"/>
</svg>
