<svg xmlns="http://www.w3.org/2000/svg" width="96" height="96" viewBox="0 0 96 96">
  <g fill="none">
    <polygon points="0 0 96 0 96 96 0 96"/>
    <g fill="#0B1F35" fill-rule="nonzero" transform="translate(1 6)">
      <path d="M13.059 75.691C17.745 80.377 25.343 80.377 30.03 75.691L13.059 58.721C8.373 63.407 8.373 71.005 13.059 75.691zM69.627 16.294L66.799 19.123 69.627 21.95C72.627 24.951 74.279 28.969 74.279 33.264 74.279 37.56 72.627 41.577 69.627 44.577L72.455 47.405C76.211 43.65 78.279 38.628 78.279 33.263 78.279 27.899 76.211 22.877 72.455 19.12L69.627 16.294zM74.622 2.824L85.926 14.128C87.4252818 12.6291441 88.2676053 10.5960035 88.2676053 8.476 88.2676053 6.35599646 87.4252818 4.32285594 85.926 2.824 82.8042888-.297035798 77.7437112-.297035798 74.622 2.824z" opacity=".3"/>
      <path d="M75.638,10.284 C64.527,-0.828 46.445,-0.828 35.333,10.284 L21.302,24.314 L5.294,27.14 C3.006,27.544 1.482,28.604 1.002,30.125 C0.522,31.646 1.163,33.389 2.806,35.032 L53.718,85.944 C55.005,87.231 56.354,87.903 57.609,87.903 C57.957,87.903 58.297,87.852 58.626,87.748 C60.147,87.269 61.208,85.744 61.611,83.456 L64.436,67.448 L78.466,53.417 C83.827,48.056 86.779,40.899 86.779,33.265 C86.779,25.631 83.827,18.473 78.466,13.113 L75.638,10.284 Z M77.759,52.71 L63.506,66.964 L60.626,83.282 C60.29,85.185 59.473,86.432 58.324,86.795 C57.177,87.157 55.79,86.603 54.425,85.237 L3.513,34.325 C2.147,32.959 1.593,31.574 1.955,30.426 C2.317,29.278 3.564,28.46 5.468,28.124 L21.786,25.244 L36.04,10.991 C41.401,5.629 48.442,2.949 55.485,2.949 C62.526,2.949 69.57,5.63 74.93,10.991 L77.758,13.82 C82.93,18.992 85.779,25.898 85.779,33.265 C85.779,40.632 82.931,47.538 77.759,52.71 Z"/>
    </g>
  </g>
</svg>
