<svg width="80" height="80" viewBox="0 0 80 80" fill="none" xmlns="http://www.w3.org/2000/svg">
<rect width="80" height="80" fill="none"></rect>
<path fill-rule="evenodd" clip-rule="evenodd" d="M8.88659 33.6931L7 26.6074C12.1338 28.2847 18.9732 28.3677 26.0533 26.4585C33.1335 24.5493 39.0152 21.0359 42.6279 17L44.5145 24.0858C48.9711 40.8238 47.1959 55.8456 34.7698 59.1964C22.3437 62.5472 13.3431 50.4312 8.88659 33.6931ZM18.0056 40.1208C18.0736 38.9783 18.8566 37.9588 20.0129 37.647C21.1692 37.3352 22.3538 37.8241 22.9804 38.7793C23.2863 39.2455 23.9097 39.3739 24.3729 39.0662C24.8361 38.7584 24.9638 38.131 24.6579 37.6649C23.569 36.0048 21.5096 35.1492 19.4927 35.6931C17.4758 36.237 16.1174 38.0141 15.9991 39.9998C15.9659 40.5574 16.3881 41.0365 16.9422 41.0699C17.4963 41.1034 17.9723 40.6785 18.0056 40.1208ZM32.3541 49.115C34.2592 48.6013 35.9084 47.6777 37.1659 46.5201C37.8427 45.8971 39.0256 46.1953 38.9012 47.1065C38.4985 50.0557 36.4507 52.5944 33.4929 53.392C30.5352 54.1895 27.5005 53.0215 25.6864 50.67C25.126 49.9435 26.0023 49.0901 26.8979 49.289C28.562 49.6587 30.4491 49.6287 32.3541 49.115ZM35.5973 33.4446C34.441 33.7564 33.658 34.7758 33.59 35.9184C33.5567 36.476 33.0806 36.9009 32.5266 36.8675C31.9725 36.8341 31.5503 36.3549 31.5835 35.7973C31.7018 33.8117 33.0602 32.0345 35.0771 31.4906C37.094 30.9468 39.1533 31.8023 40.2423 33.4624C40.5481 33.9286 40.4205 34.556 39.9573 34.8638C39.4941 35.1715 38.8706 35.0431 38.5648 34.5769C37.9382 33.6216 36.7536 33.1328 35.5973 33.4446Z" fill="white"/>
<path fill-rule="evenodd" clip-rule="evenodd" d="M39.9628 59.108C41.4459 60.239 43.1952 61.1008 45.2302 61.6495C57.6563 65.0003 66.6569 52.8843 71.1134 36.1463L73 29.0605C67.8662 30.7379 61.0269 30.8209 53.9467 28.9117C51.7457 28.3182 49.6605 27.5696 47.7233 26.6985C47.9951 28.0805 48.2248 29.4455 48.4101 30.7888L48.7118 33.3486C49.24 38.7872 48.9855 43.8016 47.7993 48.0567C48.1888 48.0953 48.58 48.1663 48.9698 48.2714C51.926 49.0686 53.9733 51.605 54.3774 54.5524C54.5024 55.4633 53.3176 55.7641 52.641 55.1416C51.3837 53.9848 49.7351 53.0618 47.831 52.5484C47.287 52.4017 46.7445 52.2944 46.2083 52.2247C44.7543 55.1111 42.6964 57.4593 39.9628 59.108ZM57.8419 38.1439C57.91 39.2865 58.693 40.3059 59.8493 40.6177C61.0056 40.9295 62.1902 40.4406 62.8168 39.4854C63.1226 39.0192 63.7461 38.8908 64.2093 39.1985C64.6725 39.5063 64.8001 40.1337 64.4943 40.5999C63.4053 42.26 61.346 43.1155 59.3291 42.5716C57.3122 42.0278 55.9538 40.2506 55.8355 38.2649C55.8023 37.7073 56.2245 37.2282 56.7786 37.1948C57.3326 37.1613 57.8087 37.5863 57.8419 38.1439Z" fill="white"/>
</svg>
