<svg fill="none" height="80" viewBox="0 0 80 80" width="80" xmlns="http://www.w3.org/2000/svg" xmlns:xlink="http://www.w3.org/1999/xlink"><rect width="80" height="80" fill="none"></rect><mask id="a" height="37" maskUnits="userSpaceOnUse" width="50" x="12" y="28"><path d="m24.2283 28.2188c.6528.5168 1.0268.9348 1.9408 1.5224 1.1424.7344 3.2641 1.4688 6.2834.7344l27.5063 18.0239c1.3248.9415 1.6355 2.7787.694 4.1035-.9415 1.3247-2.7786 1.6355-4.1034.694l-10.2485-7.2834 11.531 8.2321c1.3247.9415 1.6354 2.7787.694 4.1035-.9415 1.3247-2.7787 1.6355-4.1035.694l-.9761-.6937c1.0122.9996 1.1801 2.6136.3293 3.8108-.94 1.3226-2.7709 1.6395-4.1007.7097l-8.3218-5.8132 3.0583 2.1735c1.3364.9498 1.6499 2.8031.7001 4.1396-.938 1.3198-2.7605 1.6446-4.0967.7301l-23.247-16.884-4.8349-3.4981z" fill="#d6dde2"/></mask><path d="m61.2595 49.978c2.4889-2.897 5.5083-4.8147 9.3029-7.3037l-11.5947-15.2212-24.7826 20.9137 16.3126 11.3979z" fill="#d6dde2"/><path d="m21.598 26.2207c.6528.5168 3.6571 2.9327 4.5711 3.5202 1.1424.7345 3.2641 1.4689 6.2834.7345l27.5063 18.0239c1.3248.9415 1.6355 2.7787.694 4.1034-.9415 1.3248-2.7787 1.6355-4.1034.694l-10.2485-7.2834 11.531 8.2322c1.3247.9415 1.6354 2.7787.6939 4.1034-.9414 1.3248-2.7786 1.6355-4.1034.694l-.9761-.6937c1.0122.9997 1.1801 2.6137.3293 3.8109-.94 1.3226-2.7709 1.6395-4.1007.7096l-8.3218-5.8131 3.0583 2.1734c1.3364.9498 1.6499 2.8032.7001 4.1397-.938 1.3198-2.7605 1.6446-4.0967.7301l-23.247-16.8841-7.4652-5.4959z" fill="#e4eaee"/><path d="m17.1497 21.1095 6.8761 4.8866s-4.7619 5.144-7.2724 8.5674c-2.5104 3.4234-5.908 9.9788-5.908 9.9788l-6.87603-4.8867z" fill="#d6dde2"/><g fill="#d6dde2" mask="url(#a)"><path d="m36.3049 53.2812 8.5746 6.3787c1.1712 1.7568.9063 2.6839.6274 2.9279z"/><path d="m41.3241 49.9375 12.5482 8.9422c1.1712 1.7568.9062 2.6839.6274 2.9279z"/><path d="m46.8652 46.1738 11.9462 8.7838c1.1712 1.7567.9063 2.6839.6275 2.9279z"/><path d="m25.6355 48.8822-2.6725 3.7605c-.9864 1.3879-2.9111 1.7135-4.2991.7271-1.3879-.9864-1.7134-2.9112-.7271-4.2991l2.6725-3.7605c.9864-1.3879 2.9112-1.7134 4.2991-.7271 1.388.9864 1.7135 2.9112.7271 4.2991z"/><path d="m31.7269 51.3422-4.7482 6.6813c-1.1325 1.5934-3.3422 1.9672-4.9356.8347-1.5935-1.1324-1.9672-3.3421-.8348-4.9355l4.7483-6.6814c1.1324-1.5934 3.3422-1.9671 4.9356-.8347s1.9671 3.3422.8347 4.9356z"/><path d="m34.6126 56.6229-2.3887 3.3612c-1.1269 1.5856-3.3257 1.9575-4.9113.8306-1.5856-1.1268-1.9575-3.3257-.8307-4.9113l2.3887-3.3612c1.1269-1.5856 3.3258-1.9574 4.9114-.8306 1.5856 1.1269 1.9575 3.3257.8306 4.9113z"/><path d="m37.8435 62.1644-.249.3505c-1.0872 1.5297-3.2086 1.8885-4.7384.8013-1.5297-1.0871-1.8885-3.2085-.8013-4.7383l.249-.3505c1.0872-1.5297 3.2086-1.8885 4.7384-.8013 1.5297 1.0871 1.8885 3.2085.8013 4.7383z"/></g><path d="m55.0574 30.3143 4.4882-3.0194c0 9.9941-2.0673 12.6511-3.1009 12.7304-3.1826 2.5297-6.3284 2.2849-8.0421 1.1424-.8986-.599-3.6107-2.2124-6.0318-3.7049-1.9863-1.2246-4.5468-1.2105-6.4089.1959-2.1131 1.596-4.0803 3.9987-6.8548 3.509-2.7746-.4896-2.693-2.6929-2.1217-3.509.5712-.816 1.7137-2.4481 4.2434-5.5491 2.5298-3.101 2.2849-3.6722 8.9765-4.0802 5.3533-.3265 12.1319 1.3872 14.8521 2.2849z" fill="#d6dde2"/><g fill="#e4eaee"><path d="m24.3772 49.6947-2.5676 3.6129c-.9864 1.388-2.9111 1.7135-4.2991.7271-1.3879-.9864-1.7135-2.9111-.7271-4.2991l2.5676-3.6129c.9864-1.3879 2.9112-1.7134 4.2991-.7271 1.388.9864 1.7135 2.9112.7271 4.2991z"/><path d="m30.3193 51.5287-5.1788 7.2872c-.9726 1.3685-2.8704 1.6895-4.2389.7169s-1.6895-2.8704-.7169-4.2389l5.1788-7.2872c.9726-1.3685 2.8704-1.6895 4.2389-.7169s1.6895 2.8704.7169 4.2389z"/><path d="m33.5542 57.1517-2.7465 3.8646c-.9818 1.3814-2.8975 1.7054-4.279.7237-1.3814-.9818-1.7054-2.8975-.7236-4.2789l2.7465-3.8647c.9817-1.3814 2.8975-1.7054 4.2789-.7236 1.3814.9817 1.7054 2.8975.7237 4.2789z"/><path d="m36.6821 62.1494-.8867 1.2477c-.9111 1.282-2.6889 1.5826-3.9709.6716-1.282-.9111-1.5826-2.689-.6716-3.9709l.8868-1.2477c.911-1.282 2.6889-1.5827 3.9708-.6716 1.282.911 1.5827 2.6889.6716 3.9709z"/><path d="m63.5877 21.1095-6.876 4.8866s4.7618 5.144 7.2723 8.5674 5.908 9.9788 5.908 9.9788l6.8761-4.8867z"/></g></svg>