<svg width="96" height="96" viewBox="0 0 96 96" fill="none" xmlns="http://www.w3.org/2000/svg">
<rect width="96" height="96" fill="none"/>
<g clip-path="url(#clip0)">
<path fill-rule="evenodd" clip-rule="evenodd" d="M28.6353 36V36.0105C28.625 36.0105 25.3543 36 24.4821 39.1546C23.6826 42.0472 21.4294 50.0332 21.3671 50.2533H20.7441C20.7441 50.2533 18.4391 42.0891 17.6292 39.1441C16.757 35.9895 13.4759 36 13.4759 36H6V60H13.4759V45.7467H13.7874H14.0989L18.4598 60H23.6514L28.0124 45.7572H28.6353V60H36.1112V36H28.6353Z" fill="#4DB45E"/>
<path fill-rule="evenodd" clip-rule="evenodd" d="M55.9432 36C55.9432 36 53.7523 36.1991 52.7244 38.5153L47.429 50.2533H46.806V36H39.3301V60H46.3906C46.3906 60 48.6853 59.7904 49.7133 57.4847L54.9049 45.7467H55.5278V60H63.0037V36H55.9432Z" fill="#4DB45E"/>
<path fill-rule="evenodd" clip-rule="evenodd" d="M66.3262 46.8997V60.0001H73.8021V52.3494H81.901C85.4312 52.3494 88.4216 50.0752 89.5326 46.8997H66.3262Z" fill="#4DB45E"/>
<path fill-rule="evenodd" clip-rule="evenodd" d="M81.9008 36H65.2773C66.108 40.5694 69.5033 44.2376 73.8954 45.4323C74.8922 45.7048 75.9409 45.8515 77.0207 45.8515H89.8336C89.9478 45.3066 89.9997 44.7511 89.9997 44.1747C89.9997 39.6576 86.376 36 81.9008 36Z" fill="#00B4E6"/>
</g>
<defs>
<clipPath id="clip0">
<rect x="6" y="36" width="84" height="24" fill="white"/>
</clipPath>
</defs>
</svg>
