<svg xmlns="http://www.w3.org/2000/svg" width="128" height="128" viewBox="0 0 128 128" fill="none"><rect width="128" height="128" fill="none"/>
<path d="M30.8064 19.6991C15.9881 32.1937 11.3143 42.9489 11.6462 59.1215C11.9649 75.2942 12.3367 93.4452 40.2072 109.392C71.4371 127.264 90.2653 110.919 101.485 101.186L101.578 101.107C108.058 95.4767 115.905 87.9746 119.198 61.2726C121.894 39.4568 112.001 25.4352 93.0139 14.441C71.4902 1.97299 48.267 4.97382 30.8064 19.6991Z" fill="#F20E1F"/>
<path d="M27.6595 39.8684C41.7076 41.1431 52.7151 55.3107 56.4595 62.2286L44.4163 98.1854C33.5948 91.0418 11.9782 74.0327 12.111 63.1315C12.2703 49.4817 10.0927 38.275 27.6595 39.8684Z" fill="#F91935"/>
<path d="M28.3101 41.807C42.3583 43.0817 53.3657 57.2493 57.1101 64.1671L45.067 100.124C34.2454 92.9804 12.6288 75.9713 12.7616 65.0701C12.9209 51.4203 10.7433 40.2136 28.3101 41.807Z" fill="#FC294C"/>
<path d="M70.7334 78.6269C68.2769 90.4177 68.0114 96.6319 71.1715 99.5397L80.3865 107.254C83.9716 104.307 109.983 58.3381 114.976 52.5356C121.894 44.4891 110.992 33.7206 109.452 35.5928C101.791 44.8875 78.0628 50.0791 73.6147 52.4825C69.1931 54.8725 73.8139 63.8883 70.7334 78.6269Z" fill="#EC0719"/>
<path d="M69.2993 116.257C74.8761 119.005 98.0993 106.816 106.292 95.8485C106.292 68.9472 77.213 70.2617 75.2611 77.0866C69.7773 85.5978 62.3283 112.831 69.2993 116.257Z" fill="#E50520"/>
<path d="M71.9549 111.477C77.5317 114.225 108.363 101.332 111.019 88.8112C118.919 49.1233 79.8686 65.4818 77.9168 72.3067C72.4329 80.8179 64.984 108.051 71.9549 111.477Z" fill="#D60528"/>
<path d="M69.9632 54.0095C65.3159 49.5481 50.657 49.6942 43.9118 50.3315C68.1972 75.1614 62.7533 100.336 66.7898 94.0162C70.8263 87.6825 75.7657 59.5863 69.9632 54.0095Z" fill="#F21C35"/>
<path d="M111.13 85.2584C120.275 67.5661 120.487 49.5001 111.602 44.9069C102.716 40.3137 88.0991 50.9327 78.9532 68.6251C69.8072 86.3175 69.5959 104.383 78.4812 108.977C87.3664 113.57 101.984 102.951 111.13 85.2584Z" fill="#C60525"/>
<path d="M104.879 30.0983C105.144 19.3143 88.1242 10.1487 66.8642 9.62634C45.6041 9.10397 28.1547 17.4226 27.8897 28.2066C27.6247 38.9906 44.6446 48.1562 65.9046 48.6785C87.1647 49.2009 104.614 40.8822 104.879 30.0983Z" fill="#F92A30"/>
<path d="M59.614 109.296C70.3816 102.657 70.2189 82.8537 59.2507 65.0639C48.2825 47.274 30.6623 38.2341 19.8947 44.8728C9.12716 51.5114 9.28981 71.3146 20.258 89.1045C31.2262 106.894 48.8465 115.934 59.614 109.296Z" fill="#ED081C"/>
<path d="M67.5201 57.3024C62.8728 52.841 46.8861 48.3265 40.7914 54.1157C65.0769 78.9456 59.6329 104.121 63.6695 97.8003C71.9948 92.436 73.3226 62.8792 67.5201 57.3024Z" fill="#EF2B3E"/>
<path d="M63.5367 61.2859C59.0222 56.5191 43.9516 46.7332 37.8438 52.5224C62.1292 77.3523 58.4911 109.087 62.5276 102.766C70.8662 97.402 69.3392 66.8626 63.5367 61.2859Z" fill="#F73741"/>
<path d="M59.614 109.296C70.3816 102.657 70.2189 82.8537 59.2507 65.0639C48.2825 47.274 30.6623 38.2341 19.8947 44.8728C9.12716 51.5114 9.28981 71.3146 20.258 89.1045C31.2262 106.894 48.8465 115.934 59.614 109.296Z" fill="#DB0721"/>
<path d="M37.5782 61.5115C37.3126 60.1439 35.5467 59.3472 35.2678 60.5024C35.0554 61.392 34.8296 62.2816 34.6172 63.1845C33.4089 68.2435 30.8197 70.2484 26.0794 70.753C25.0969 70.8592 25.1367 72.4526 26.1326 73.3821C31.4039 78.2816 33.3425 82.5571 35.0421 89.9264C35.2944 91.0152 35.5599 92.1173 35.8122 93.2061C36.1309 94.5605 37.8836 95.304 38.1093 94.202C38.2819 93.299 38.4545 92.3961 38.6139 91.48C39.5832 86.514 43.9251 84.6285 48.4794 84.2302C49.4222 84.1505 49.4089 82.5837 48.4529 81.6277C41.4819 76.197 39.3043 70.992 38.1757 64.7381C37.9765 63.6758 37.7774 62.6003 37.5782 61.5115Z" fill="#601DA0"/>
<path d="M90.4777 88.373C87.2512 86.6336 87.3176 80.2469 90.6238 74.0992C93.93 67.9514 99.2279 64.3664 102.454 66.1058C105.681 67.8452 105.615 74.2319 102.308 80.3797C99.0022 86.5274 93.7043 90.0991 90.4777 88.373Z" fill="#FF842C"/>
<path d="M104.141 36.0841C104.539 36.8808 101.286 40.9439 95.3375 43.9447C89.3889 46.9455 82.1259 48.5124 81.7143 47.7157C81.3159 46.919 87.9284 44.0642 93.8769 41.0634C99.8255 38.0493 103.729 35.2874 104.141 36.0841Z" fill="#F92D4F"/>
<path d="M100.184 38.1821C100.45 38.7 98.3251 41.3423 94.4612 43.2942C90.5973 45.246 85.8703 46.2552 85.6047 45.7373C85.3392 45.2195 89.6412 43.3606 93.5051 41.4087C97.369 39.4701 99.9184 37.6643 100.184 38.1821Z" fill="#FF436C"/>
<path d="M96.891 39.8286C97.0371 40.1207 95.8421 41.6211 93.6379 42.7365C91.4338 43.8518 88.7516 44.4228 88.6055 44.1307C88.4595 43.8385 90.9026 42.7763 93.1068 41.6742C95.2977 40.5589 96.745 39.5365 96.891 39.8286Z" fill="#FF556A"/>
<path d="M58.9159 20.602C51.8388 20.4825 47.8554 24.7315 48.6786 29.4452C50.3383 38.8991 64.6653 40.7315 70.9591 34.2784C75.6329 29.485 80.9043 24.9439 85.8835 26.0593C86.3217 26.1522 86.6802 25.7008 86.2952 25.4751C82.0196 22.8593 74.2919 22.4477 71.4238 22.7398C69.1533 22.9655 68.4894 21.9697 69.0338 20.7747C69.9101 18.8361 69.6446 17.8402 68.5956 17.1763C68.2902 16.9904 67.7458 17.3489 67.5865 17.641C66.9093 18.929 64.0811 20.695 58.9159 20.602Z" fill="#F1EDF7"/>
<path d="M68.1043 19.0485C67.7059 19.9116 67.945 20.6684 68.9674 20.9473C68.9939 20.8942 69.0072 20.8411 69.0338 20.7747C69.8968 18.8626 69.6446 17.8668 68.6221 17.2029C68.6089 17.6942 68.4362 18.305 68.1043 19.0485Z" fill="#E1DDE8"/>
<path d="M86.2952 25.475C85.4454 24.9572 84.4495 24.519 83.3873 24.1605C78.886 24.1605 74.2122 28.2502 70.0296 32.5522C64.6653 38.0626 53.4454 37.5315 49.2363 31.3838C52.3832 39.1116 65.1168 40.2535 70.9591 34.2784C75.6329 29.485 80.9043 24.9439 85.8835 26.0593C86.3217 26.1522 86.6802 25.7008 86.2952 25.475Z" fill="#E1DDE8"/>
<path d="M72.5524 23.8684C75.1815 23.6028 81.9002 23.9348 86.2952 26.0061C86.4943 25.8866 86.5607 25.6344 86.3084 25.4883C82.0329 22.8725 74.3051 22.4609 71.4371 22.753C70.8529 22.8194 70.3616 22.7929 69.9898 22.6999C70.0031 23.4966 70.7998 24.041 72.5524 23.8684Z" fill="white"/>
<path d="M49.794 30.5871C48.9707 25.8602 52.9408 21.6245 60.0313 21.744C65.2097 21.8236 68.0247 20.0709 68.7151 18.783C68.8346 18.5573 69.1931 18.2917 69.4853 18.2651C69.3525 17.8137 69.0471 17.4685 68.5956 17.1896C68.2902 17.0037 67.7458 17.3622 67.5865 17.6543C66.896 18.9423 64.0678 20.7083 58.9027 20.6153C51.8255 20.4958 47.8421 24.7448 48.6653 29.4585C49.0637 31.7556 50.2188 33.6145 51.8255 34.9954C50.8296 33.7739 50.0993 32.3133 49.794 30.5871Z" fill="white"/>
<path d="M103.65 67.3008C103.862 70.0493 102.176 74.0593 100.303 77.5381C96.9973 83.6859 93.0404 85.9829 89.8139 84.2568C89.0836 83.8585 88.5259 83.2344 88.1408 82.4244C88.3002 84.5224 89.0836 86.1556 90.4778 86.9124C93.7043 88.6386 99.0022 85.0668 102.308 78.919C104.871 74.1522 105.004 70.0759 103.65 67.3008Z" fill="#F79E5C"/>
<path d="M104.128 67.9381C104.34 70.6867 103.517 74.2452 101.645 77.724C98.3383 83.8717 93.0404 87.4435 89.8139 85.7174C89.0836 85.319 88.5259 84.695 88.1408 83.885C88.3002 85.9829 89.0836 87.6161 90.4778 88.373C93.7043 90.0991 99.0022 86.5273 102.308 80.3796C104.871 75.6128 105.482 70.7132 104.128 67.9381Z" fill="#FF9545"/>
<path d="M91.8188 75.2942C95.1251 69.1465 100.423 65.5614 103.65 67.3008C103.716 67.3407 103.782 67.3805 103.835 67.4203C103.477 66.8626 103.012 66.4112 102.455 66.1058C99.228 64.3664 93.93 67.9514 90.6238 74.0992C87.384 80.1274 87.2512 86.368 90.2919 88.2535C88.5657 85.6112 89.0836 80.3664 91.8188 75.2942Z" fill="#EF711D"/>
<path d="M26.2653 71.5365C26.2653 71.5365 38.6271 70.8593 37.8437 92.8344L36.6752 93.8568C36.6752 93.8568 34.9093 79.2377 26.2653 72.7979V71.5365Z" fill="#5F2BAA"/>
<path d="M35.0819 61.2593C35.0819 61.2593 32.4529 83.3539 47.5765 84.3232L48.5193 83.4336C48.5193 83.4336 38.2155 76.9406 36.8479 62.0825L35.0819 61.2593Z" fill="#551D96"/>
<path d="M41.2031 86.8858C43.1018 85.2393 45.7574 84.4692 48.4794 84.2302C48.891 84.1903 49.1168 83.8717 49.1699 83.4468C46.0761 83.7256 43.0885 84.7082 41.2031 86.8858Z" fill="#7C3DC4"/>
<path d="M35.4138 62.3879C35.613 61.5646 35.8122 60.7547 36.0114 59.9447C35.6661 59.9182 35.374 60.0775 35.2678 60.5024C35.0553 61.392 34.8296 62.2816 34.6172 63.1845C34.1259 65.2161 33.4221 66.7563 32.4396 67.8982C33.847 66.7032 34.8031 64.9372 35.4138 62.3879Z" fill="#7C3DC4"/>
<path d="M36.6089 92.4095C36.3566 91.3207 36.0911 90.2186 35.8388 89.1298C34.1392 81.7605 32.2006 77.485 26.9292 72.5854C26.3583 72.0543 26.106 71.3107 26.1724 70.7397C26.1458 70.7397 26.106 70.753 26.0794 70.753C25.0969 70.8592 25.1367 72.4526 26.1326 73.3821C31.4039 78.2817 33.3425 82.5572 35.0421 89.9265C35.2944 91.0153 35.56 92.1173 35.8122 93.2061C36.1309 94.5605 37.8836 95.3041 38.1093 94.202C38.1226 94.109 38.1492 94.0161 38.1624 93.9364C37.5649 93.8568 36.8081 93.2593 36.6089 92.4095Z" fill="#7C3DC4"/>
<path d="M37.0205 92.5422C36.9143 93.1796 36.7948 93.8169 36.6753 94.441C37.2728 94.8526 37.9765 94.8659 38.1093 94.202C38.2819 93.2991 38.4545 92.3962 38.6138 91.48C39.0122 89.4219 39.9948 87.8949 41.3226 86.7928C39.1981 87.9082 37.5649 89.7406 37.0205 92.5422Z" fill="#4C138E"/>
<path d="M30.1425 69.6908C29.0139 70.2485 27.6728 70.5937 26.0794 70.7531C25.6014 70.8062 25.3757 71.2045 25.3624 71.6958C27.3541 71.3904 28.9209 70.7663 30.1425 69.6908Z" fill="#4C138E"/>
<path d="M48.4529 81.6277C41.4819 76.197 39.3043 70.992 38.1757 64.7381C37.9765 63.6758 37.7773 62.6003 37.5782 61.5115C37.3126 60.1439 35.5466 59.3472 35.2678 60.5024C35.2014 60.7547 35.1483 61.007 35.0819 61.2592C35.4935 61.5248 35.8786 62.0028 35.9848 62.5738C36.184 63.6626 36.3832 64.7381 36.5823 65.8003C37.711 72.0543 39.8886 77.2593 46.8595 82.69C47.3375 83.168 47.5765 83.8053 47.5898 84.3232C47.8819 84.2833 48.1873 84.2568 48.4794 84.2302C49.4222 84.1506 49.4089 82.5837 48.4529 81.6277Z" fill="#4C138E"/>
</svg>
