<svg xmlns="http://www.w3.org/2000/svg" width="24" height="24" viewBox="0 0 24 24" fill="none"><rect width="24" height="24" fill="none"/>
<path d="M0.390144 6.15789C0.826712 3.10765 3.10765 0.826712 6.15789 0.390144C7.71491 0.167294 9.66228 0 12 0C14.3377 0 16.2851 0.167294 17.8421 0.390144C20.8923 0.826712 23.1733 3.10765 23.6099 6.15789C23.8327 7.71491 24 9.66228 24 12C24 14.3377 23.8327 16.2851 23.6099 17.8421C23.1733 20.8923 20.8923 23.1733 17.8421 23.6099C16.2851 23.8327 14.3377 24 12 24C9.66228 24 7.71491 23.8327 6.15789 23.6099C3.10765 23.1733 0.826712 20.8923 0.390144 17.8421C0.167294 16.2851 0 14.3377 0 12C0 9.66228 0.167295 7.71491 0.390144 6.15789Z" fill="black"/>
</svg>
