<svg fill="none" height="80" viewBox="0 0 80 80" width="80" xmlns="http://www.w3.org/2000/svg"><rect width="80" height="80" fill="none"></rect><path d="m40.4475 17.6133c-10.3136 0-18.6744 8.3608-18.6744 18.6745 0 4.6153 1.6743 8.8396 4.4486 12.0985l2.0279 2.0659c1.6625 1.6937 2.5939 3.9722 2.5939 6.3455v3.7878h9.604l9.6041.0045v-4.52c0-1.9069.7483-3.7376 2.0841-5.0985l2.5377-2.5852c2.7743-3.2589 4.4486-7.4832 4.4486-12.0985 0-10.3137-8.3608-18.6745-18.6745-18.6745z" fill="#e4eaee"/><path d="m50.1241 64.8763v-4.1615h-19.2707v4.1615l6.3252 3.2014 1.3554 2.401h4.0152l1.2498-2.401z" fill="#d6dde2"/><g stroke="#d6dde2" stroke-linecap="round" stroke-width="1.60304"><path d="m40.4475 11.2104v-8.00337"/><path d="m62.371 23.7009 6.9311-4.0017"/><path d="m62.371 47.9768 6.9311 4.0017"/><path d="m40.4475 11.2104v-8.00337"/><path d="m18.5238 23.7009-6.9311-4.0017"/><path d="m18.5238 47.9768-6.9311 4.0017"/></g></svg>