<svg fill="none" height="80" viewBox="0 0 80 80" width="80" xmlns="http://www.w3.org/2000/svg"><rect width="80" height="80" fill="none"></rect><path d="m30.644 31.21c0 2.7534-1.8636 6.5959-4.1626 6.5959-2.2989 0-4.1626-3.8425-4.1626-6.5959 0-2.7533 1.8637-4.9854 4.1626-4.9854 2.299 0 4.1626 2.2321 4.1626 4.9854z" fill="#f6f7f8"/><path d="m57.651 31.21c0 2.7534-1.8637 6.5959-4.1626 6.5959s-4.1626-3.8425-4.1626-6.5959c0-2.7533 1.8637-4.9854 4.1626-4.9854s4.1626 2.2321 4.1626 4.9854z" fill="#f6f7f8"/><path d="m65.3922 56.3507 4.1417 8.85c-9.9297 6.866-14.6781 8.3967-29.4882 8.3967-14.0761 0-20.1794-1.8585-29.5833-8.3967l4.1289-8.8553c.6806-1.4595 1.9679-2.5463 3.5209-2.9724l15.7391-4.3183h12.0122l15.9919 4.3253c1.5587.4215 2.8525 1.5082 3.5368 2.9707z" fill="#d6dde2"/><ellipse cx="39.9245" cy="53.4295" fill="#f6f7f8" rx="9.29392" ry="7.89825"/><rect fill="#e4eaee" height="24.8615" rx="7.8559" width="15.7118" x="31.9568" y="34.6797"/><path d="m54.9462 26.5355c0 4.1074.2675 10.3681-1.6733 14.5569-2.7352 5.9033-8.4546 10.6288-13.2879 10.6288-4.8332 0-10.5526-4.7255-13.2878-10.6288-1.9408-4.1888-1.6734-10.4495-1.6734-14.5569 0-9.8962 6.6984-16.4398 14.9612-16.4398 8.2629 0 14.9612 6.5436 14.9612 16.4398z" fill="#f6f7f8"/><g stroke="#d6dde2" stroke-linecap="round" stroke-width="1.00551"><path d="m44.9903 43.3066c-2.7571 2.757-7.2272 2.757-9.9842 0"/><path d="m30.7519 33.559c1.3697-1.3697 3.5904-1.3697 4.9601 0"/><path d="m44.2583 33.559c1.3697-1.3697 3.5905-1.3697 4.9602 0"/></g><path d="m26.7883 26.6872c.69-2.2701 2.5355-5.7569 6.6568-7.793l.058.0483c2.2218 1.8498 5.5847 4.6497 11.203 4.8323 3.0539.0993 5.2596-.7913 6.5719-2.2242 1.8484 2.8381 2.3086 5.722 2.7304 9.5252h.9772v-4.39c0-6.5066-2.2274-10.1665-3.5896-11.6452l-.0026.0276c-2.7443-3.4656-6.837-5.46859-11.4085-5.46859-4.5435 0-8.614 1.97849-11.3579 5.40509l-.0175-.0089c-1.4658 1.8947-3.5979 5.1849-3.5979 11.6914v4.2976h.9772z" fill="#d6dde2"/><path d="m36.9084 39.0709c0-.5008.4519-.8804.9452-.7939l1.6618.2913c.2442.0429.4941.0418.738-.0031l1.5095-.2781c.4964-.0915.9542.2897.9542.7945 0 .2771-.142.5348-.3763.6829l-.9605.6069c-.917.5794-2.0822.5922-3.0118.0333l-1.0694-.6431c-.2424-.1458-.3907-.4079-.3907-.6907z" fill="#e4eaee"/></svg>