<svg width="80" height="80" viewBox="0 0 80 80" fill="none" xmlns="http://www.w3.org/2000/svg">
<rect width="80" height="80" fill="none"></rect>
<path d="M43.0461 60.0864L40.6018 58.4407C42.0237 56.0561 43.181 49.1064 49.9214 47.2014C50.8442 46.9405 51.7702 47.5402 51.9519 48.4818C53.3606 55.7821 49.7943 62.2619 48.2097 64.5494L43.0461 60.0864Z" fill="#F1F4F6"/>
<path d="M19.8856 36.9279L21.5286 39.3739C23.8002 38.025 30.4986 37.0433 32.1627 30.4084C32.3869 29.5144 31.8142 28.6309 30.9144 28.4309C23.8193 26.8543 17.5964 30.2526 15.4226 31.7643L19.8856 36.9279Z" fill="#F1F4F6"/>
<path d="M31.8753 61.329C27.5557 65.6487 9 71.4399 9 71.4399C9 71.4399 14.7913 52.8843 19.1109 48.5646C23.4305 44.245 29.7897 43.6007 33.3145 47.1255C36.8393 50.6503 36.1949 57.0094 31.8753 61.329Z" fill="#E4E8EC"/>
<path d="M34.8143 45.1556L25.0049 35.3462C30.5957 29.5019 51.4132 11.9207 69.8513 8.04011C71.1091 7.77541 72.1945 8.86081 71.9298 10.1186C68.0492 28.5567 50.4681 49.3742 44.6237 54.965L34.8143 45.1556Z" fill="#E1E6EA"/>
<path d="M40.8364 25.0794C39.6987 28.5529 41.7141 30.9826 45.338 30.5064C48.9619 30.0302 52.8219 26.8284 53.9596 23.3549C55.0973 19.8814 53.0818 17.4517 49.4579 17.9279C45.834 18.4041 41.974 21.6059 40.8364 25.0794Z" fill="#ECF0F3"/>
<path d="M43.5137 24.7265C42.8401 26.7832 44.0334 28.2219 46.1791 27.9399C48.3248 27.6579 50.6103 25.7621 51.284 23.7055C51.9576 21.6488 50.7642 20.2101 48.6185 20.4921C46.4728 20.7741 44.1873 22.6699 43.5137 24.7265Z" fill="#FCFCFD"/>
<path d="M44.7528 54.85L25.1011 35.1983L21.2568 39.0425L40.9085 58.6942L44.7528 54.85Z" fill="#E4EAEE"/>
<path d="M31.3773 49.1634L27.7786 45.5647C29.8903 43.368 35.2721 38.9701 41.5795 36.9075C42.8866 36.48 44.0607 37.6541 43.6332 38.9612C41.5705 45.2686 37.1726 50.6504 34.976 52.7621L31.3773 49.1634Z" fill="#F1F4F6"/>
</svg>
