<svg width="80" height="80" viewBox="0 0 80 80" fill="none" xmlns="http://www.w3.org/2000/svg">
<rect width="80" height="80" fill="none"></rect>
<path d="M44.4779 40C50.946 51.5 52.4386 61.5 42.9853 73H37.0147C27.5613 61.5 29.054 51.5 35.5221 40H44.4779Z" fill="white"/>
<path d="M42.7524 35.5C42.8592 34.6138 43.1482 32.3262 43.4598 31.4769C43.9418 30.1633 44.4779 28.702 44.4779 26.5C44.4779 23.5 41.9902 22 40 22C38.0098 22 35.5221 23.5 35.5221 26.5C35.5221 28.7021 36.0582 30.1633 36.5402 31.4769C36.8518 32.3262 37.1408 34.6138 37.2476 35.5H42.7524Z" fill="white"/>
<path d="M57.2832 58C66.7365 46.5 65.2438 36.5 58.7758 25C58.3587 24.2666 58.0291 23.6045 57.7731 23H50.8227C50.5667 23.6045 50.237 24.2666 49.82 25C48.6322 27.1118 47.6123 29.173 46.797 31.2022C46.5991 31.8452 46.3947 32.3962 46.2291 32.8424C46.1018 33.1853 45.9975 33.4663 45.9369 33.6796C45.7781 34.238 45.7229 34.6972 45.8229 35.3004C45.9335 35.9674 46.2635 36.9732 47.1548 38.5406L47.1617 38.5528C50.5071 44.5009 52.766 50.3981 52.766 56.5C52.766 57.0011 52.7508 57.501 52.7201 58H57.2832Z" fill="white"/>
<path d="M57.7577 16.4769C57.3342 17.6311 56.9525 18.6713 57.0131 20H51.5827C51.6432 18.6713 51.2615 17.6311 50.8381 16.4769C50.3561 15.1633 49.82 13.7021 49.82 11.5C49.82 8.50001 52.3077 7 54.2979 7C56.2881 7 58.7758 8.50001 58.7758 11.5C58.7758 13.702 58.2396 15.1633 57.7577 16.4769Z" fill="white"/>
<path d="M33.2029 31.202C32.3877 29.1729 31.3677 27.1117 30.18 25C29.763 24.2666 29.4333 23.6045 29.1773 23H22.2269C21.9709 23.6045 21.6413 24.2666 21.2242 25C14.7562 36.5 13.2635 46.5 22.7168 58H27.2799C27.2492 57.501 27.234 57.0011 27.234 56.5C27.2341 50.3981 29.4929 44.5009 32.8384 38.5528L32.8452 38.5406C33.7365 36.9732 34.0665 35.9674 34.1771 35.3004C34.2771 34.6972 34.2219 34.238 34.0631 33.6796C34.0025 33.4663 33.8982 33.1853 33.7709 32.8424C33.6053 32.3962 33.4008 31.8451 33.2029 31.202Z" fill="white"/>
<path d="M29.1619 16.4769C28.7385 17.6311 28.3568 18.6713 28.4173 20H22.9869C23 18.5 22.6658 17.6311 22.2423 16.4769C21.7604 15.1633 21.2242 13.7021 21.2242 11.5C21.2243 8.50001 23.712 7 25.7022 7C27.6923 7 30.18 8.50001 30.18 11.5C30.18 13.702 29.6439 15.1633 29.1619 16.4769Z" fill="white"/>
</svg>
