<svg xmlns="http://www.w3.org/2000/svg" width="64" height="64" viewBox="0 0 64 64" fill="none"><rect width="64" height="64" fill="none"/>
<path fill-rule="evenodd" clip-rule="evenodd" d="M63.7213 23.6943C63.5124 20.6737 60.0279 19 57 19C50.3726 19 45 13.6274 45 7C45 3.97212 43.3263 0.487586 40.3057 0.278733C37.78 0.104108 35.0115 0 32 0C25.7661 0 20.5731 0.446119 16.421 1.04038C8.28708 2.20456 2.20457 8.28708 1.04038 16.421C0.446119 20.5731 0 25.7661 0 32C0 38.2339 0.446119 43.4269 1.04038 47.579C2.20456 55.7129 8.28708 61.7954 16.421 62.9596C20.5731 63.5539 25.7661 64 32 64C38.2339 64 43.4269 63.5539 47.579 62.9596C55.7129 61.7954 61.7954 55.7129 62.9596 47.579C63.5539 43.4269 64 38.2339 64 32C64 28.9885 63.8959 26.22 63.7213 23.6943Z" fill="black"/>
</svg>
