<svg width="80" height="80" viewBox="0 0 80 80" fill="none" xmlns="http://www.w3.org/2000/svg">
<rect width="80" height="80" fill="none"></rect>
<path d="M38.2133 13.0016L31.1319 35.8653H42.3372L36.0038 54.5402L57.9271 25.0218H48.1834L49.8574 14.359H52.941C64.5481 17.7089 72.7926 26.2059 72.7926 36.1589C72.7926 42.537 69.4069 48.3173 63.9203 52.5282V65.986C63.9203 66.7002 63.0918 67.3415 62.5291 67.3415H60.0918L49.0815 58.8571C46.79 59.2676 44.3997 59.4848 41.9422 59.4848C24.904 59.4848 11.0918 49.0414 11.0918 36.1589C11.0918 25.0565 21.3505 15.3557 35.0918 13C35.0918 13 37.1554 13.098 38.2133 13.0016V13.0016Z" fill="#D6DDE2"/>
<path fill-rule="evenodd" clip-rule="evenodd" d="M35.1215 13.002L28.0401 35.8657H39.2454L32.912 54.5406L54.8353 25.0222H45.0916L49.8492 14.3594C61.4563 17.7092 69.7008 26.2063 69.7008 36.1593C69.7008 42.5374 66.3152 48.3176 60.8285 52.5286V66.5747C60.8285 67.289 60.0414 67.723 59.4373 67.3419L45.9897 58.8575C43.6983 59.268 41.3079 59.4852 38.8504 59.4852C21.8122 59.4852 8 49.0418 8 36.1593C8 24.231 19.8417 14.3939 35.1215 13.002V13.002Z" fill="#E4EAEE"/>
</svg>
