<svg fill="none" height="80" viewBox="0 0 80 80" width="80" xmlns="http://www.w3.org/2000/svg"><rect width="80" height="80" fill="none"></rect><path d="m48.635 37.8652h-11.7963l-6.4343 20.7745h8.2216l-4.647 13.7023 16.0858-21.6585h-7.1492z" fill="#f2c94c"/><path clip-rule="evenodd" d="m62.4468 22.7948c0 .7366-.0538 1.4606-.1577 2.1683 5.3592.5989 9.5257 5.1448 9.5257 10.6639 0 5.9265-4.8044 10.7309-10.7308 10.7309h-40.3531c-5.9265 0-10.7309-4.8044-10.7309-10.7309 0-5.534 4.1891-10.0896 9.5692-10.6687 1.7238-3.7013 5.4767-6.2669 9.8288-6.2669 1.3565 0 2.6547.2492 3.8515.7044 1.5358-6.5326 7.4012-11.3958 14.4025-11.3958 8.1709 0 14.7948 6.6239 14.7948 14.7948z" fill="#627b98" fill-rule="evenodd"/></svg>