<svg width="80" height="80" viewBox="0 0 80 80" fill="none" xmlns="http://www.w3.org/2000/svg">
<rect width="80" height="80" fill="none"></rect>
<path fill-rule="evenodd" clip-rule="evenodd" d="M17 21C17 20.4477 17.4477 20 18 20H26C26.5523 20 27 20.4477 27 21V59C27 59.5523 26.5523 60 26 60H18C17.4477 60 17 59.5523 17 59V21ZM53 21C53 20.4477 53.4477 20 54 20H62C62.5523 20 63 20.4477 63 21V59C63 59.5523 62.5523 60 62 60H54C53.4477 60 53 59.5523 53 59V21ZM10 31C8.89543 31 8 31.8954 8 33V47C8 48.1046 8.89543 49 10 49H12C13.1046 49 14 48.1046 14 47V33C14 31.8954 13.1046 31 12 31H10ZM66 33C66 31.8954 66.8954 31 68 31H70C71.1046 31 72 31.8954 72 33V47C72 48.1046 71.1046 49 70 49H68C66.8954 49 66 48.1046 66 47V33ZM31 36C30.4477 36 30 36.4477 30 37V43C30 43.5523 30.4477 44 31 44H49C49.5523 44 50 43.5523 50 43V37C50 36.4477 49.5523 36 49 36H31Z" fill="white"/>
</svg>
