<svg width="80" height="80" viewBox="0 0 80 80" fill="none" xmlns="http://www.w3.org/2000/svg">
<rect width="80" height="80" fill="none"/>
<path fill-rule="nonzero" clip-rule="nonzero" d="M40 80C62.0914 80 80 62.0914 80 40C80 17.9086 62.0914 0 40 0C17.9086 0 0 17.9086 0 40C0 62.0914 17.9086 80 40 80Z" fill="#5C85AD" fill-opacity="0.07"/>
<path d="M28.8927 67.3568L9.19775 30.3159L29.5875 19.4745L49.2825 56.5154L28.8927 67.3568Z" fill="#DCE8F0"/>
<path d="M25.7753 30.6595C25.1212 29.4295 23.5751 28.9726 22.3217 29.639C21.0684 30.3054 20.5826 31.8427 21.2366 33.0727C21.8906 34.3027 23.4368 34.7596 24.6901 34.0932C25.9434 33.4268 26.4293 31.8895 25.7753 30.6595Z" fill="#F8FAFB"/>
<path d="M37.9997 53.6504C37.3457 52.4204 35.7995 51.9635 34.5462 52.6299C33.2929 53.2963 32.8071 54.8336 33.4611 56.0636C34.1151 57.2936 35.6613 57.7505 36.9146 57.0841C38.1679 56.4177 38.6538 54.8804 37.9997 53.6504Z" fill="#F8FAFB"/>
<path d="M36.9883 43.2727C36.9883 47.691 33.454 51.2727 29.0942 51.2727C24.7344 51.2727 21.2001 47.691 21.2001 43.2727C21.2001 38.8544 24.7344 35.2727 29.0942 35.2727C33.454 35.2727 36.9883 38.8544 36.9883 43.2727Z" fill="#F8FAFB"/>
<path d="M27.9055 58.8012L27.1733 16.8562L50.2626 16.4532L50.9948 58.3982L27.9055 58.8012Z" fill="#B8D1E0"/>
<path d="M41.7881 24.6884C41.7637 23.2955 40.5935 22.1865 39.1742 22.2113C37.755 22.236 36.6242 23.3852 36.6485 24.7781C36.6728 26.171 37.843 27.28 39.2623 27.2553C40.6815 27.2305 41.8124 26.0813 41.7881 24.6884Z" fill="#F5F8FA"/>
<path d="M42.2424 50.7232C42.2181 49.3304 41.0478 48.2213 39.6286 48.2461C38.2093 48.2708 37.0785 49.4201 37.1028 50.8129C37.1271 52.2058 38.2974 53.3149 39.7166 53.2901C41.1359 53.2653 42.2667 52.1161 42.2424 50.7232Z" fill="#F5F8FA"/>
<path d="M46.7882 37C46.7882 41.4183 43.2539 45 38.8941 45C34.5343 45 31 41.4183 31 37C31 32.5817 34.5343 29 38.8941 29C43.2539 29 46.7882 32.5817 46.7882 37Z" fill="#F5F8FA"/>
<path d="M30.9373 51.1887L48.0004 12.8643L69.0967 22.2569L52.0336 60.5814L30.9373 51.1887Z" fill="#5C85AD"/>
<path d="M57.9359 26.139C58.5025 24.8663 57.9106 23.3666 56.6138 22.7893C55.3171 22.2119 53.8065 22.7756 53.2399 24.0482C52.6733 25.3209 53.2652 26.8206 54.5619 27.3979C55.8587 27.9753 57.3692 27.4116 57.9359 26.139Z" fill="#F0F5F7"/>
<path d="M47.3449 49.9266C47.9115 48.654 47.3196 47.1543 46.0229 46.5769C44.7261 45.9996 43.2156 46.5632 42.649 47.8358C42.0824 49.1085 42.6742 50.6082 43.971 51.1855C45.2677 51.7629 46.7783 51.1992 47.3449 49.9266Z" fill="#F0F5F7"/>
<path d="M57.0824 36.7272C57.0824 40.7439 53.8694 44 49.9059 44C45.9425 44 42.7295 40.7439 42.7295 36.7272C42.7295 32.7106 45.9425 29.4545 49.9059 29.4545C53.8694 29.4545 57.0824 32.7106 57.0824 36.7272Z" fill="#F0F5F7"/>
</svg>
