<svg xmlns="http://www.w3.org/2000/svg" width="96" height="96" viewBox="0 0 96 96">
  <g fill="none" fill-rule="evenodd">
    <polygon points="0 0 96 0 96 96 0 96"/>
    <path fill="#FFF" fill-rule="nonzero" d="M22,29 C19.790861,29 18,30.790861 18,33 L18,79 C18,81.209139 19.790861,83 22,83 L86,83 C88.209139,83 90,81.209139 90,79 L90,33 C90,30.790861 88.209139,29 86,29 L22,29 Z M22,27 L86,27 C89.3137085,27 92,29.6862915 92,33 L92,79 C92,82.3137085 89.3137085,85 86,85 L22,85 C18.6862915,85 16,82.3137085 16,79 L16,33 C16,29.6862915 18.6862915,27 22,27 Z"/>
    <circle cx="32" cy="43" r="6" fill="#FFF" fill-rule="nonzero" opacity=".3"/>
    <path fill="#FFF" fill-rule="nonzero" d="M42.1269103,74 L28.1148342,74 C27.0102647,74 26.1148342,73.1045695 26.1148342,72 C26.1148342,71.4750479 26.3212275,70.9711415 26.6894763,70.5970192 L38.8386497,58.2540708 C40.000917,57.0732657 41.9003525,57.0582379 43.0811576,58.2205052 C43.0924344,58.231605 43.1036233,58.2427939 43.1147231,58.2540708 L49.5128814,64.7542775 L61.253839,50.0570042 C62.2879619,48.7624943 64.1756917,48.5514088 65.4702016,49.5855317 C65.6443896,49.7246823 65.8025236,49.8828162 65.9416741,50.0570042 L82.473692,70.7517033 C83.1631073,71.6147099 83.0223836,72.8731965 82.159377,73.5626117 C81.8049276,73.8457646 81.3647432,74 80.9110803,74 L42.1269103,74 Z" opacity=".3"/>
    <path fill="#FFF" fill-rule="nonzero" d="M81,27 L81,18.9090909 C81,14.5410206 77.4337165,11 73.0344828,11 L11.9655172,11 C7.56628354,11 4,14.5410206 4,18.9090909 L4,61.0909091 C4,65.4589794 7.56628354,69 11.9655172,69 L16,69 L16,67 L11.9655172,67 C8.66768279,67 6,64.3512146 6,61.0909091 L6,18.9090909 C6,15.6487854 8.66768279,13 11.9655172,13 L73.0344828,13 C76.3323172,13 79,15.6487854 79,18.9090909 L79,27 L81,27 Z M81,18.9090909 C81,14.5410206 77.4337165,11 73.0344828,11 L11.9655172,11 C7.56628354,11 4,14.5410206 4,18.9090909 L4,61.0909091 C4,65.4589794 7.56628354,69 11.9655172,69 L16,69 L16,67 L11.9655172,67 C8.66768279,67 6,64.3512146 6,61.0909091 L6,18.9090909 C6,15.6487854 8.66768279,13 11.9655172,13 L73.0344828,13 C76.3323172,13 79,15.6487854 79,18.9090909 L79,27 L81,27 L81,18.9090909 Z"/>
  </g>
</svg>
