<svg fill="none" height="80" viewBox="0 0 80 80" width="80" xmlns="http://www.w3.org/2000/svg" xmlns:xlink="http://www.w3.org/1999/xlink"><rect width="80" height="80" fill="none"></rect><linearGradient id="a" gradientUnits="userSpaceOnUse" x1="44.6779" x2="36.1976" y1="29.1334" y2="29.1334"><stop offset="0" stop-color="#fb9f9a"/><stop offset="1" stop-color="#ffc1bd"/></linearGradient><linearGradient id="b" gradientUnits="userSpaceOnUse" x1="19.592" x2="34.1545" y1="74.4744" y2="39.0534"><stop offset="0" stop-color="#1d61ce"/><stop offset=".692739" stop-color="#3a7eeb"/></linearGradient><linearGradient id="c" gradientUnits="userSpaceOnUse" x1="60.5601" x2="60.5601" y1="75.8848" y2="43.318"><stop offset="0" stop-color="#445c78"/><stop offset="1" stop-color="#637b98"/></linearGradient><clipPath id="d"><path d="m0 0h80v80h-80z"/></clipPath><g clip-path="url(#d)"><path d="m38.5264 21.6182.8357-.8073c.3499-.338.9338-.0835.9244.4029l-.2212 11.4592c-.0072.3761-.0922.7466-.2495 1.0882l-2.1237 4.6118-3.6968-2.2406 2.4258-5.1529c.101-.2146.1736-.4414.2159-.6747l1.4162-7.8018c.0612-.3372.2267-.6467.4732-.8848z" fill="url(#a)"/><path d="m19.5256 50.744h-3.2244c-.2315 0-.4618.0323-.6844.0959l-7.91948 2.2627c-2.95856.7191-4.67713 2.378-5.53468 5.6634l-2.16264 9.3177h28.7505v-6.9407c0-.7818.1577-1.5555.4637-2.2749l9.9698-23.4431s-1.4151 0-2.3585-.4128c-.9434-.4127-1.7689-1.9458-1.7689-1.9458l-9.2619 14.2724c-1.378 2.1236-3.7375 3.4052-6.2691 3.4052z" fill="url(#b)"/><ellipse cx="15.6658" cy="53.0465" fill="#4c8df5" rx="4.45362" ry="3.78482"/><rect fill="#fb9f9a" height="11.0292" rx="3.48506" width="6.97013" x="12.2644" y="43.9395"/><g fill="#ffc1bd"><path d="m22.4204 40.2499c0 1.8187.1184 4.5908-.7409 6.4456-1.2111 2.6139-3.7436 4.7062-5.8837 4.7062-2.14 0-4.6725-2.0923-5.88357-4.7062-.85935-1.8548-.74093-4.6269-.74093-6.4456 0-4.3818 2.9659-7.2792 6.6245-7.2792 3.6587 0 6.6246 2.8974 6.6246 7.2792z"/><path d="m11.6601 42.3188c0 1.2191-.8252 2.9205-1.8431 2.9205-1.01793 0-1.84312-1.7014-1.84312-2.9205 0-1.2192.82519-2.2075 1.84312-2.2075 1.0179 0 1.8431.9883 1.8431 2.2075z"/><path d="m23.6181 42.3188c0 1.2191-.8252 2.9205-1.8431 2.9205s-1.8431-1.7014-1.8431-2.9205c0-1.2192.8252-2.2075 1.8431-2.2075s1.8431.9883 1.8431 2.2075z"/></g><path clip-rule="evenodd" d="m10.1875 35.9933c1.1728-2.0354 3.2462-3.2433 5.6085-3.2433 2.0524 0 3.8868.9118 5.1019 2.486.6051.6627 1.5828 2.2844 1.5828 5.1555v1.9475h-.4335c-.1905-1.717-.3985-3.0116-1.2554-4.2924-.5816.6316-1.5567 1.0238-2.9053.9799-2.4579-.0799-3.9409-1.291-4.9249-2.11-1.8541.9006-2.6817 2.4614-2.9898 3.4752l-.35469 1.9065h-.43352v-1.9065c0-2.1308.51542-3.484 1.04691-4.3846z" fill="#18293d" fill-rule="evenodd"/><path d="m41.6257 21.6182-.8357-.8073c-.3499-.338-.9338-.0835-.9244.4029l.1033 5.3545.1179 6.1047c.0072.3761.0922.7466.2495 1.0882l2.1237 4.6118 3.6968-2.2406-2.4258-5.1529c-.101-.2146-.1736-.4414-.2159-.6747l-1.4162-7.8018c-.0612-.3372-.2267-.6467-.4732-.8848z" fill="#ffc1bd"/><path d="m60.6265 50.744h3.2244c.2315 0 .4618.0323.6844.0959l7.9195 2.2627c2.215.7191 4.6644 2.2485 5.575 5.6634l2.1223 9.3177h-28.7505v-6.9407c0-.7818-.1577-1.5555-.4637-2.2749l-9.9698-23.4431s1.4151 0 2.3585-.4128c.9434-.4127 1.7689-1.9458 1.7689-1.9458l9.2619 14.2724c1.378 2.1236 3.7375 3.4052 6.2691 3.4052z" fill="url(#c)"/><path d="m58.8232 50.4141 5.8338.5122 5.5314 1.4795s-1.5984 5.0809-2.257 7.0582c-.506 1.5192-2.1043 4.8704-2.8178 6.3418-.144.2968-.5607.2989-.7081.0037-.7476-1.498-2.4413-4.9498-2.881-6.3455-.5692-1.8065-2.7013-9.0499-2.7013-9.0499z" fill="#f6f7f8"/><rect fill="#fb9f9a" height="11.0292" rx="3.48506" transform="matrix(-1 0 0 1 67.8877 43.9395)" width="6.97013"/><path d="m57.5799 40.2499c0 1.8187-.1185 4.5908.7409 6.4456 1.2111 2.6139 3.7435 4.7062 5.8836 4.7062s4.6725-2.0923 5.8836-4.7062c.8594-1.8548.7409-4.6269.7409-6.4456 0-4.3818-2.9659-7.2792-6.6245-7.2792s-6.6245 2.8974-6.6245 7.2792z" fill="#ffc1bd"/><path d="m68.3401 42.3188c0 1.2191.8252 2.9205 1.8431 2.9205 1.018 0 1.8432-1.7014 1.8432-2.9205 0-1.2192-.8252-2.2075-1.8432-2.2075-1.0179 0-1.8431.9883-1.8431 2.2075z" fill="#ffc1bd"/><path d="m56.3821 42.3188c0 1.2191.8252 2.9205 1.8431 2.9205 1.018 0 1.8432-1.7014 1.8432-2.9205 0-1.2192-.8252-2.2075-1.8432-2.2075-1.0179 0-1.8431.9883-1.8431 2.2075z" fill="#ffc1bd"/><path clip-rule="evenodd" d="m70.1805 40.3917c-.3134-1.0313-1.1644-2.6286-3.0866-3.5212l-.0196.0164c-.9838.819-2.4728 2.0588-4.9605 2.1396-1.2809.0417-2.2247-.31-2.8146-.8864-.8057 1.2505-1.0082 2.5236-1.194 4.1989h-.4336v-1.9475c0-1.9136.4343-3.2722.9032-4.1617.0038-.0782.0108-.1571.0209-.2365 1.1729-2.0354 3.2463-3.2433 5.6086-3.2433 2.0532 0 3.8883.9125 5.1034 2.4879l.0649-.0328c.6503.8405 1.5962 2.3001 1.5962 5.1866v1.9065h-.4336z" fill="#18293d" fill-rule="evenodd"/><path d="m40.3103 11.161v-4.99945-4.99944" stroke="#d6dde2" stroke-linecap="round" stroke-width="1.60304"/><path d="m47.4039 13.2348 2.8311-2.84 2.8312-2.84011" stroke="#d6dde2" stroke-linecap="round" stroke-width="1.60304"/><path d="m33.0462 13.2306-2.7628-2.7715-2.7629-2.7716" stroke="#d6dde2" stroke-linecap="round" stroke-width="1.60304"/></g></svg>