<svg xmlns="http://www.w3.org/2000/svg" width="128" height="128" viewBox="0 0 128 128" fill="none"><rect width="128" height="128" fill="none"/>
<path fill-rule="evenodd" clip-rule="evenodd" d="M92 12C92 6.84005 89.0349 1.24346 83.8932 0.809301C77.9868 0.31056 71.3557 0 64 0C51.5321 0 41.1462 0.892237 32.8421 2.08077C16.5742 4.40913 4.40913 16.5742 2.08077 32.8421C0.892237 41.1462 0 51.5321 0 64C0 76.4679 0.892237 86.8538 2.08077 95.1579C4.40913 111.426 16.5742 123.591 32.8421 125.919C41.1462 127.108 51.5321 128 64 128C71.3557 128 77.9868 127.689 83.8932 127.191C89.0349 126.757 92 121.16 92 116C92 102.745 102.745 92 116 92C121.16 92 126.757 89.0349 127.191 83.8932C127.689 77.9868 128 71.3557 128 64C128 56.6443 127.689 50.0132 127.191 44.1068C126.757 38.9652 121.16 36 116 36C102.745 36 92 25.2548 92 12Z" fill="black"/>
</svg>
