<svg width="80" height="80" viewBox="0 0 80 80" fill="none" xmlns="http://www.w3.org/2000/svg">
<rect width="80" height="80" fill="none"></rect>
<path fill-rule="evenodd" clip-rule="evenodd" d="M29.9076 21.1715C30.2423 19.282 31.8846 17.905 33.8035 17.905H47.1043C49.0232 17.905 50.6656 19.282 51.0002 21.1715C51.0002 21.1716 51.0002 21.1716 51.0002 21.1717L52.016 26.9062L47.8902 27.637L46.9086 22.095H33.9993L33.0176 27.637L28.8918 26.9062L29.9076 21.1717C29.9076 21.1716 29.9076 21.1716 29.9076 21.1715ZM46.8744 21.9023L46.8745 21.9027Z" fill="#D6DDE2"/>
<path d="M68.9079 58.9163C68.9079 62.5146 65.9909 65.4317 62.3926 65.4317H17.5846C14.5003 65.4317 12 62.9313 12 59.8471V33.6693H68.9079V58.9163Z" fill="#D6DDE2"/>
<path d="M12 32.9723C12 29.374 14.917 26.457 18.5153 26.457H63.3234C66.4077 26.457 68.908 28.9573 68.908 32.0415V45.4213L66.44 48.2572C64.6723 50.2884 62.1115 51.4545 59.4189 51.4545H21.4283C18.6949 51.4545 16.0997 50.253 14.3312 48.1688L12 45.4213V32.9723Z" fill="#E4EAEE"/>
<path d="M23.3437 55.8926H28.1139C28.628 55.8926 29.0447 55.4759 29.0447 54.9618V47.9484C29.0447 47.4343 28.628 47.0176 28.1139 47.0176H23.3437C22.8297 47.0176 22.413 47.4343 22.413 47.9484V54.9618C22.413 55.4759 22.8297 55.8926 23.3437 55.8926Z" fill="#F6F7F8"/>
<path d="M54.0007 55.8926H58.7709C59.2849 55.8926 59.7017 55.4759 59.7017 54.9618V47.9484C59.7017 47.4343 59.2849 47.0176 58.7709 47.0176H54.0007C53.4867 47.0176 53.07 47.4343 53.07 47.9484V54.9618C53.07 55.4759 53.4867 55.8926 54.0007 55.8926Z" fill="#F6F7F8"/>
</svg>
