<svg fill="none" height="80" viewBox="0 0 80 80" width="80" xmlns="http://www.w3.org/2000/svg" xmlns:xlink="http://www.w3.org/1999/xlink"><rect width="80" height="80" fill="none"></rect><linearGradient id="a"><stop offset="0" stop-color="#ffc1bd"/><stop offset="1" stop-color="#fb9f9a"/></linearGradient><linearGradient id="b" gradientUnits="userSpaceOnUse" x1="16" x2="25.3244" xlink:href="#a" y1="40.8468" y2="41.0159"/><linearGradient id="c" gradientUnits="userSpaceOnUse" x1="65.4332" x2="57.2928" xlink:href="#a" y1="41.0159" y2="40.9314"/><path d="m27.6478 40.9048c0 3.8523-2.6074 9.2284-5.8239 9.2284-3.2164 0-5.8239-5.3761-5.8239-9.2284 0-3.8522 2.6075-6.9751 5.8239-6.9751 3.2165 0 5.8239 3.1229 5.8239 6.9751z" fill="url(#b)"/><path d="m65.4333 40.9048c0 3.8523-2.6075 9.2284-5.824 9.2284-3.2164 0-5.8239-5.3761-5.8239-9.2284 0-3.8522 2.6075-6.9751 5.8239-6.9751 3.2165 0 5.824 3.1229 5.824 6.9751z" fill="url(#c)"/><path d="m61.6494 34.3623c0 5.7468.3742 14.5061-2.3412 20.3668-3.8268 8.2593-11.8288 14.8708-18.5911 14.8708s-14.7643-6.6115-18.5911-14.8708c-2.7154-5.8607-2.3412-14.62-2.3412-20.3668 0-13.8457 9.3717-23.001 20.9323-23.001s20.9323 9.1553 20.9323 23.001z" fill="#ffc1bd"/><g stroke-linecap="round" stroke-width="1.1633"><path d="m30.6379 56.1446c5.6189 5.6189 14.7289 5.6189 20.3478 0-3.0786 1.166-6.6193 2.1124-10.1929 2.0628-3.6174-.0503-7.2665-1.1096-10.1549-2.0628z" fill="#ed6261" stroke="#ed6261" stroke-linejoin="round"/><path d="m27.8506 44.2657c1.9201-1.92 5.033-1.92 6.953 0" stroke="#18293d"/><path d="m46.7833 44.2676c1.92-1.92 5.0329-1.92 6.953 0" stroke="#18293d"/><path d="m26.6284 39.702c1.9493-3.0923 6.2187-3.904 9.5361-1.8129-2.9217-.3624-6.9185.1788-9.5361 1.8129z" fill="#18293d" stroke="#18293d" stroke-linejoin="round"/><path d="m55.0276 39.7001c-1.9492-3.0924-6.2187-3.9041-9.5361-1.813 2.9217-.3624 6.9185.1789 9.5361 1.813z" fill="#18293d" stroke="#18293d" stroke-linejoin="round"/></g><path clip-rule="evenodd" d="m21.9816 22.5522c4.0506-8.9604 11.0703-12.1518 18.5345-12.1518 7.1132 0 14.3801 1.5606 18.6596 11.6837 1.3504 2.8023 2.5283 6.8936 2.5283 12.4904v6.1421h-1.3672c-.5633-5.0791-1.527-10.617-4.7409-14.3727-1.086 1.3521-3.4226 2.4394-6.7603 3.5075-6.5096 2.0831-15.3532-1.4222-17.2855-6.1736-5.7544 2.8498-8.3325 7.7218-9.2969 10.8949l-1.1186 6.0129h-1.3673v-6.0129c0-5.4158 1.0559-9.239 2.3431-12.0058z" fill="#18293d" fill-rule="evenodd"/><path d="m36.4126 51.9031c0-.7007.6322-1.2317 1.3224-1.1107l2.3249.4076c.3418.0599.6914.0584 1.0326-.0045l2.112-.389c.6946-.128 1.335.4053 1.335 1.1115 0 .3877-.1987.7484-.5265.9555l-1.3438.8491c-1.283.8106-2.9133.8286-4.2138.0466l-1.4963-.8998c-.3391-.2039-.5465-.5706-.5465-.9663z" fill="#fb9f9a"/></svg>