<svg width="80" height="80" viewBox="0 0 80 80" fill="none" xmlns="http://www.w3.org/2000/svg">
<rect width="80" height="80" fill="none"></rect>
<path d="M26 19V65H50V45.1016C49.1234 44.5088 48.4851 43.7019 48.0426 42.9311C47.299 41.6356 46.8609 40.0408 46.5455 38.8926L46.5188 38.7953C46.319 38.0686 46.1554 37.4845 46 37.0118V61H30V23H50V19H26Z" fill="white"/>
<path d="M36.1321 26.9969L56.87 26.94C58.2225 26.9362 59.5096 27.5213 60.3961 28.5428L62.8556 31.3768C64.8835 33.7135 66 36.7035 66 39.7974V63H53V46H57.5C58.3284 46 59 45.3284 59 44.5C59 43.6715 58.3284 43 57.5 43H52.9943C50.6934 42.9954 49.8472 40.2133 49.0478 37.5852C48.3317 35.2308 47.6531 33 46 33H39.8679C37.1794 33 35 30.8206 35 28.1321C35 27.5064 35.5064 26.9986 36.1321 26.9969Z" fill="white"/>
<path d="M11 30C11 28.3431 12.3431 27 14 27H23V33H14C12.3431 33 11 31.6569 11 30Z" fill="white"/>
<path d="M7 40C7 38.3431 8.34315 37 10 37H23V43H10C8.34315 43 7 41.6569 7 40Z" fill="white"/>
<path d="M14 47C12.3431 47 11 48.3431 11 50C11 51.6569 12.3431 53 14 53H23V47H14Z" fill="white"/>
<path d="M14 60C14 58.3431 15.3431 57 17 57H23V63H17C15.3431 63 14 61.6569 14 60Z" fill="white"/>
<path d="M69 37H73V63H69V37Z" fill="white"/>
</svg>
