<svg width="64" height="64" viewBox="0 0 64 64" xmlns="http://www.w3.org/2000/svg"><g fill="none" fill-rule="evenodd"><path d="M0 0h64v64H0z"/><path d="M47.644 39.364c.122-3.535-1.28-7.01-3.474-9.752-3.474-4.388-9.569-6.46-15.054-5.73-5.303.671-10.544 4.267-12.738 9.204-1.402 3.23-1.646 6.765-1.158 10.178.914 6.217 4.144 11.886 8.654 16.213 1.28 1.219 3.23-.731 1.95-1.95-3.778-3.657-6.582-8.229-7.679-13.41-.122-.426-.183-.853-.244-1.218 0-.061 0-.183-.06-.244-.062-.366.06.305 0-.06 0-.184-.062-.428-.062-.61-.06-.549-.122-1.158-.122-1.707 0-1.219.122-2.377.366-3.535.488-2.255 1.585-4.327 3.17-5.912.792-.792 1.401-1.22 2.194-1.829 1.097-.731 2.194-1.34 3.474-1.767 2.925-.975 5.973-.853 8.837.06 2.134.671 3.962 1.768 5.425 3.292.792.792 1.219 1.341 1.828 2.377.244.366.427.792.61 1.22.06.121.122.182.122.304.122.305-.061-.183.06.122.062.183.184.426.245.61.243.73.487 1.462.609 2.254 0 .183.061.305.061.488-.061-.488 0 0 0 .122.06.487.06.975.06 1.402.123 1.706 2.926 1.706 2.926-.122z" fill="#FFF"/><path d="M29.847 39.242c-.06 2.62.854 5.241 2.134 7.497 1.828 3.29 4.754 5.85 8.35 6.948 2.803.853 5.607.731 8.532.426.732-.06 1.402-.609 1.402-1.401 0-.732-.61-1.463-1.402-1.402-2.377.244-4.754.426-6.948-.122-.975-.244-1.645-.488-2.377-.853-.365-.183-.731-.427-1.097-.61-.183-.122-.305-.244-.487-.305-.122-.06-.183-.122-.244-.182-.061-.061-.061-.061 0 0-.061-.061-.122-.061-.122-.122a11.295 11.295 0 0 1-1.707-1.707c-.122-.122-.243-.305-.365-.427.182.183-.183-.243-.183-.304-.244-.305-.427-.67-.67-.976-.366-.609-.671-1.219-.976-1.889 0-.06-.06-.122-.06-.183.121.305.06.122 0 .061-.062-.183-.123-.305-.184-.487-.122-.305-.183-.61-.304-.915-.183-.548-.305-1.097-.427-1.645 0-.061-.061-.488-.061-.183.06.305 0-.122 0-.183v-1.097c0-1.707-2.743-1.707-2.804.06zM7.906 24.31c.06-.123.122-.184.243-.305.122-.122.183-.244.244-.366s.305-.366 0 0c.061-.122.183-.183.244-.305.792-.975 1.707-1.95 2.62-2.864 1.403-1.341 2.622-2.317 4.206-3.353 1.89-1.219 3.901-2.255 5.973-2.986a29.23 29.23 0 0 1 7.619-1.585c1.158-.06 2.316-.06 3.413 0 .549 0 1.158.061 1.707.061.304 0 .67.061.975.122.183 0 .366.06.548.06.366.062-.304-.06.061 0 .122 0 .244 0 .305.062 1.829.305 3.657.731 5.425 1.34 5.241 1.83 9.934 5.547 13.287 10.118.426.61 1.219.915 1.889.488.61-.366.914-1.28.488-1.89-3.292-4.57-7.62-8.289-12.8-10.544a31.023 31.023 0 0 0-10.97-2.56c-3.597-.182-7.315.061-10.789 1.037-4.51 1.28-8.654 3.656-12.19 6.704-1.767 1.585-3.535 3.352-4.814 5.363-1.037 1.524 1.34 2.926 2.316 1.402z" fill="#FFF"/><path d="M12.294 49.786c-.67-1.646-1.036-3.352-1.34-5.12-.062-.365-.123-.792-.184-1.158 0-.06-.06-.426 0 0 0-.122 0-.183-.06-.304 0-.244-.062-.488-.062-.732-.122-.914-.122-1.828-.122-2.804 0-.975.061-2.01.183-2.986 0-.122 0-.244.061-.366-.06.305 0-.06 0-.122.061-.243.061-.487.122-.731.122-.549.183-1.097.366-1.585.61-2.194 1.34-3.961 2.682-5.85a16.53 16.53 0 0 1 2.194-2.5c.975-.914 1.95-1.706 3.108-2.438 2.865-1.828 6.156-3.108 9.57-3.413 3.717-.366 7.435.183 10.91 1.524 2.742 1.036 5.24 2.62 7.252 4.754 1.097 1.097 1.95 2.377 2.743 3.718.426.731.853 1.524 1.219 2.316.183.427.426.853.61 1.28-.123-.244-.062-.061 0 0 .182.426.304.853.426 1.28.122.365.183.731.244 1.097.06.183.06.426.122.67 0 .122.06.244.06.366-.06-.366 0 .183 0 .244.061.487.061.975.061 1.524v1.462c0-.122 0-.122 0 0-.182 1.22-.426 1.89-1.158 2.865l-.121.183-.305.304c-.183.183-.366.366-.488.427-.61.488-1.34.792-2.072.975-1.585.488-3.413.366-4.937-.426a6.048 6.048 0 0 1-2.62-2.621 4.422 4.422 0 0 1-.306-.732 2.166 2.166 0 0 1-.121-.609c-.061-.244-.244-.731 0-.183-.122-.305 0-.731-.061-1.036 0-.488-.122-.975-.183-1.524-1.341-6.704-10.91-8.776-15.237-3.779-3.292 3.78-2.378 9.326-.61 13.592 2.011 4.937 5.851 8.838 10.605 11.215 1.524.792 3.17 1.402 4.815 1.95 1.707.549 2.438-2.133.732-2.682-2.926-.975-5.913-2.377-8.229-4.327-1.95-1.585-3.29-3.291-4.51-5.425l-.731-1.462-.061-.122c-.061-.122-.122-.244-.122-.305-.122-.244-.183-.488-.244-.731a19.297 19.297 0 0 1-.731-2.682c-.061-.427-.122-.792-.183-1.158 0-.122 0-.183-.061-.244-.061-.305 0 .122 0 0 0-.183-.061-.366-.061-.548-.183-1.524.06-3.048.853-4.389 1.707-2.803 5.06-3.291 7.863-2.133 1.036.427 2.011 1.158 2.62 2.133.732 1.158.671 2.438.854 3.84.06.366 0 .122 0 .06 0 .184.06.306.06.489.062.182.062.426.123.609.122.427.304.914.487 1.28.183.427.488.914.793 1.28a8.85 8.85 0 0 0 4.632 3.17c3.291.974 7.314.121 9.569-2.56 2.742-3.292 2.438-8.107 1.158-12.008-.853-2.56-2.316-4.997-3.962-7.07-1.828-2.377-4.144-4.388-6.826-5.79-6.948-3.657-15.298-4.144-22.43-.853-4.936 2.255-9.203 6.095-11.336 11.154-1.646 3.9-2.133 8.228-1.707 12.494.244 2.56.732 5.12 1.585 7.558.061.122.122.244.122.366.305.73.914 1.218 1.707.975.365-.061.975-.915.67-1.646zM15.402 9.499c.549-.366 1.097-.61 1.707-.915.305-.121.548-.243.853-.426.061-.061.549-.244.366-.183-.183.122.122-.061.122-.061.122-.061.244-.122.426-.183a30.05 30.05 0 0 1 2.5-.853A34.578 34.578 0 0 1 36.368 5.72c3.9.61 7.74 1.89 11.215 3.657.67.365 1.523.183 1.889-.488.366-.61.183-1.585-.488-1.89-6.095-3.047-12.92-4.692-19.808-4.266-4.45.305-8.777 1.341-12.8 3.17-.792.365-1.584.731-2.316 1.219-.609.426-.914 1.219-.487 1.89.305.609 1.219.913 1.828.487z" fill="#FFF"/></g></svg>