<svg fill="none" height="80" viewBox="0 0 80 80" width="80" xmlns="http://www.w3.org/2000/svg" xmlns:xlink="http://www.w3.org/1999/xlink"><rect width="80" height="80" fill="none"></rect><linearGradient id="a" gradientUnits="userSpaceOnUse" x1="40.0521" x2="53.716" y1="87.2712" y2="45.8271"><stop offset="0" stop-color="#1d61ce"/><stop offset="1" stop-color="#3a7eeb"/></linearGradient><linearGradient id="b"><stop offset=".385417" stop-color="#ffc1bd"/><stop offset="1" stop-color="#fb9f9a"/></linearGradient><linearGradient id="c" gradientUnits="userSpaceOnUse" x1="11.8859" x2="15.7418" xlink:href="#b" y1="27.0517" y2="35.7258"/><linearGradient id="d" gradientUnits="userSpaceOnUse" x1="16.879" x2="22.2532" xlink:href="#b" y1="20.7409" y2="32.8303"/><linearGradient id="e" gradientUnits="userSpaceOnUse" x1="11.9655" x2="17.3727" xlink:href="#b" y1="22.8361" y2="34.9999"/><linearGradient id="f" gradientUnits="userSpaceOnUse" x1="13.5158" x2="19.564" xlink:href="#b" y1="19.886" y2="33.4917"/><linearGradient id="g" gradientUnits="userSpaceOnUse" x1="23.163" x2="21.1918" y1="38.6055" y2="28.468"><stop offset="0" stop-color="#fb9f9a"/><stop offset="1" stop-color="#fb9f9a" stop-opacity="0"/></linearGradient><path d="m45.3753 40.1641 13.0139 4.9475c2.2291.8474 3.7465 2.9324 3.8675 5.314l.9178 18.0648c.0633 1.2473-.7046 2.3811-1.9041 2.7286-3.7804 1.095-12.4212 3.2504-21.8692 3.2504-9.6274 0-17.6587-3.0502-20.9577-4.5135-.9975-.4424-1.5728-1.4623-1.5134-2.552l.9272-17.0152c.1287-2.3627 1.6317-4.4302 3.8394-5.2816l12.8172-4.943z" fill="#f6f7f8"/><path d="m31.5101 41.3223c.0004 3.559.1656 9.222 1.075 13.3619.7297 3.3219 2.6402 7.0591 4.3316 9.9164l2.0965-14.2541-1.0883-1.4164 2.1124-2.0024v-.0963l2.1125 2.0504-1.0883 1.3685 2.0773 14.1232c1.6016-2.7379 3.3669-6.2804 4.165-9.6893 1.0322-4.4093 1.1697-9.8976 1.1301-13.3576l9.9554 3.7847c2.2291.8475 3.7465 2.9324 3.8675 5.3141l.9178 18.0648c.0633 1.2472-.7046 2.381-1.9041 2.7285-3.7804 1.0951-12.4212 3.2504-21.8692 3.2504-9.6274 0-17.6587-3.0501-20.9577-4.5134-.9975-.4425-1.5728-1.4624-1.5134-2.552l.9272-17.0152c.1287-2.3628 1.6317-4.4302 3.8394-5.2817z" fill="url(#a)"/><path d="m34.5134 35.085c0-2.9993 2.4315-5.4307 5.4308-5.4307 2.9993 0 5.4307 2.4314 5.4307 5.4307v6.3252c0 2.9993-2.4314 5.4307-5.4307 5.4307-2.9993 0-5.4308-2.4314-5.4308-5.4307z" fill="#fb9f9a"/><g fill="#ffc1bd"><path d="m50.4062 24.0249c0 2.8395.1849 7.1674-1.1568 10.0631-1.8908 4.081-5.8445 7.3477-9.1858 7.3477-3.3412 0-7.295-3.2667-9.1858-7.3477-1.3417-2.8957-1.1568-7.2236-1.1568-10.0631 0-6.8412 4.6306-11.3647 10.3426-11.3647 5.7121 0 10.3426 4.5235 10.3426 11.3647z"/><path d="m33.6058 27.2569c0 1.9034-1.2884 4.5598-2.8776 4.5598-1.5893 0-2.8776-2.6564-2.8776-4.5598s1.2883-3.4464 2.8776-3.4464c1.5892 0 2.8776 1.543 2.8776 3.4464z"/><path d="m52.2759 27.2569c0 1.9034-1.2883 4.5598-2.8776 4.5598-1.5892 0-2.8775-2.6564-2.8775-4.5598s1.2883-3.4464 2.8775-3.4464c1.5893 0 2.8776 1.543 2.8776 3.4464z"/></g><path clip-rule="evenodd" d="m30.9409 24.1263c.4769-1.5692 1.7526-3.9794 4.6014-5.387l.0406.0338c1.5359 1.2788 3.8607 3.2143 7.7446 3.3406 2.1109.0686 3.6356-.5469 4.5428-1.5373 1.2779 1.962 1.596 3.9556 1.8876 6.5848h.6755v-3.0348c0-4.4979-1.5398-7.028-2.4814-8.0502l-.0018.0185c-1.8971-2.3956-4.7263-3.7802-7.8865-3.7802-3.1407 0-5.9544 1.3675-7.8513 3.736l-.0125-.0064c-1.0133 1.3098-2.4873 3.5843-2.4873 8.0822v2.971h.6756z" fill="#18293d" fill-rule="evenodd"/><path d="m16.949 43.6278c.5728-2.3775.9699-3.9584.9699-3.9584l6.4384-.7436.0248 5.1364s-1.6321.7503-4.0071.5628-3.426-.9972-3.426-.9972z" fill="#ffc1bd"/><path d="m16.2524 45.688c.4972-2.2041.8447-3.6724.8447-3.6724s1.7167.7846 3.5711.9414c1.8544.1567 3.8495-.5462 3.8495-.5462v4.4642s-1.5802.8125-4.4552.4375-3.8101-1.6245-3.8101-1.6245z" fill="#f6f7f8"/><path d="m12.8131 64.447c.0278-4.5566 3.5516-19.7693 3.5516-19.7693s1.7498 1.2777 3.6043 1.4344c1.8544.1567 4.6354-.3999 4.6354-.3999l-.0812 26.3468c.006.2036-.0426.4043-.1604.5706-.5811.8205-2.668 3.2439-6.4383 2.1671-4.5066-1.2871-5.1392-5.793-5.1114-10.3497z" fill="#4c8df5"/><path d="m12.7936 27.5143c-.2114-.3945-.6913-.559-1.1003-.3772-.4235.1883-.6197.6799-.4421 1.1081l2.8393 6.8455c.2628.6336.9961.9262 1.6229.6475.6482-.2881.915-1.0662.58-1.6914z" fill="url(#c)"/><path d="m18.3281 21.273c-.2681-.5385-.9127-.7703-1.4623-.5259-.5506.2447-.8102.8802-.5884 1.4404l3.8741 9.7862c.3289.8308 1.2834 1.2207 2.0999.8577.8178-.3636 1.1674-1.3357.7685-2.1369z" fill="url(#d)"/><path d="m13.92 23.1955c-.2518-.5664-.9151-.8215-1.4815-.5697-.5329.2369-.7955.8424-.6044 1.3934l3.4797 10.032c.3014.869 1.2817 1.2942 2.1221.9206.7928-.3524 1.1497-1.2807.7973-2.0734z" fill="url(#e)"/><path d="m15.0164 20.4003c-.2637-.5419-.9093-.7774-1.4599-.5326-.5481.2437-.8064.8763-.5855 1.4339l4.4882 11.3265c.3306.8345 1.2894 1.2259 2.1096.8613.8165-.363 1.1695-1.3305.7785-2.134z" fill="url(#f)"/><path d="m22.4652 29.502-.3921-.4202c-3.4123-.3486-6.7156 1.3199-8.4601 4.2731l-.1357.2296 1.7961 4.7237c1.1275 2.9655 4.5142 4.3757 7.4133 3.087 2.7901-1.2403 4.0464-4.5075 2.8061-7.2976z" fill="#ffc1bd"/><path d="m20.2767 31.3546c-1.2672 2.3232-.82 5.0753-.82 5.0753l4.2948-4.5077-1.2221-2.8204s-.9855-.0704-2.2527 2.2528z" fill="url(#g)"/><path d="m25.5045 27.825c.1397-.7197-.5803-1.5135-1.2888-1.3252-.1752.0465-.3298.1465-.4321.2961-.4961.7255-1.9603 3.1793-2.0025 6.9196-.0019.1731-.1077.3301-.2639.4047-.6554.3131-2.3101 1.2857-2.3665 3.147-.0704 2.3227 1.9712 4.4351 4.7953 2.8159 2.8242-1.6192 1.8734-4.7913 1.8734-4.7913-.7838-3.4195-.6139-5.9268-.3149-7.4668z" fill="#ffc1bd"/></svg>