<svg width="80" height="80" viewBox="0 0 80 80" fill="none" xmlns="http://www.w3.org/2000/svg"><rect width="80" height="80" fill="none"></rect><path fill-rule="evenodd" clip-rule="evenodd" d="M65.6577 47.0294C67.5527 44.1907 68.6179 40.9931 68.6179 37.611C68.6179 25.8719 55.7856 16.3555 39.9563 16.3555C24.1269 16.3555 11.2947 25.8719 11.2947 37.611C11.2947 49.3501 24.1269 58.8665 39.9563 58.8665C45.8681 58.8665 51.3618 57.5392 55.9252 55.2644L63.2746 59.9014C64.3093 60.5542 65.6577 59.8107 65.6577 58.5872V47.0294Z" fill="#E4EAEE"/><path fill-rule="evenodd" clip-rule="evenodd" d="M65.6577 49.7794C67.5527 46.9407 68.6179 43.7431 68.6179 40.361C68.6179 28.6219 55.7856 19.1055 39.9563 19.1055C24.1269 19.1055 11.2947 28.6219 11.2947 40.361C11.2947 52.1001 24.1269 61.6165 39.9563 61.6165C45.8681 61.6165 51.3618 60.2892 55.9252 58.0144L63.2746 62.6514C64.3093 63.3042 65.6577 62.5607 65.6577 61.3372V49.7794Z" fill="url(#paint0_linear)"/><ellipse cx="40.0627" cy="68.1355" rx="28.7099" ry="4.00075" fill="#F6F7F8"/><path d="M54.369 34.5874C54.369 42.5289 39.9897 53.8213 39.9897 53.8213C39.9897 53.8213 25.6104 42.5289 25.6104 34.5874C25.6104 26.6459 37.0694 24.5378 39.9897 32.4315C43.0536 24.6637 54.369 26.6459 54.369 34.5874Z" fill="url(#paint1_linear)"/><defs><linearGradient id="paint0_linear" x1="39.9563" y1="19.1055" x2="39.9563" y2="62.8936" gradientUnits="userSpaceOnUse"><stop stop-color="#D6DDE2"/><stop offset="1" stop-color="#B5C6D2"/></linearGradient><linearGradient id="paint1_linear" x1="39.9897" y1="27.4648" x2="39.9897" y2="53.8213" gradientUnits="userSpaceOnUse"><stop stop-color="#ED5C56"/><stop offset="1" stop-color="#DB3739"/></linearGradient></defs></svg>