<svg width="80" height="80" viewBox="0 0 80 80" fill="none" xmlns="http://www.w3.org/2000/svg">
<rect width="80" height="80" fill="none"></rect>
<path fill-rule="evenodd" clip-rule="evenodd" d="M66.4717 37.2641C67.9258 37.2641 68.5552 35.4351 67.4055 34.5509L41.2217 14.4149C40.5024 13.8617 39.4976 13.8617 38.7783 14.4149L12.5945 34.5509C11.4448 35.4351 12.0742 37.2641 13.5283 37.2641C14.3707 37.2641 15.0536 37.9424 15.0536 38.7792V65.0176C15.0536 66.1124 15.9471 67 17.0493 67H62.9507C64.0529 67 64.9464 66.1124 64.9464 65.0176V38.7792C64.9464 37.9424 65.6293 37.2641 66.4717 37.2641ZM28 37H38.0043V46H28V37ZM38 49H28V58H38V49ZM41.9957 49H51.9743V58H41.9957V49ZM51.9743 37H41.9957V46H51.9743V37Z" fill="white"/>
</svg>
