<svg xmlns="http://www.w3.org/2000/svg" width="80" height="80" viewBox="0 0 80 80" fill="none"><rect width="80" height="80" fill="none"/>
<circle r="30" transform="matrix(-1 0 0 1 40.3999 39.9438)" fill="#E7ECF0"/>
<path fill-rule="evenodd" clip-rule="evenodd" d="M21.9744 38.9033H23.2509C23.9416 38.9033 24.6036 38.6169 25.051 38.0906C25.2785 37.8229 25.5043 37.5503 25.7329 37.2742C26.3909 36.4795 27.0726 35.6562 27.8888 34.8401C28.3181 34.4107 28.8136 34.007 29.3235 33.5917C30.4675 32.6597 31.6836 31.669 32.386 30.1978C34.8186 25.1031 35.7342 19.0416 36.0611 15.943C36.1863 14.7572 37.0934 13.7183 38.2816 13.8174C40.0105 13.9617 41.8599 14.7539 42.9038 17.3075C44.3866 20.9344 43.6292 26.071 42.9038 29.4044C42.3961 31.7377 43.9193 33.3905 45.7328 33.3905C46.3022 33.3905 47.0748 33.3628 47.9772 33.3304C52.133 33.1811 59.0427 32.933 61.5457 34.8401C64.1772 36.845 63.8669 40.7201 61.5457 43.1864C62.1986 43.6941 63.2866 45.3625 63.2866 47.1033C63.2866 49.2794 61.9465 50.6479 60.2401 51.4509C60.5786 52.539 60.8049 55.2302 59.5863 56.6229C58.8737 57.4372 58.1612 58.0135 57.2483 58.3962C57.4231 58.7481 57.7583 59.829 57.7003 61.3378C57.6278 63.2237 56.6122 64.747 53.4932 65.3998C50.3741 66.0527 46.7483 66.3255 41.5982 66.3255C36.4481 66.3255 30.6451 65.6002 28.324 63.4241C27.1103 62.2863 26.3883 61.7249 25.838 61.297C25.5462 61.0702 25.3027 60.8809 25.0598 60.6631H21.8706C22.4306 58.1203 23.0488 54.2475 23.0488 49.5411C23.0488 45.1242 22.5043 41.4414 21.9744 38.9033Z" fill="white"/>
<path fill-rule="evenodd" clip-rule="evenodd" d="M35.5638 15.8905C35.7072 14.5318 36.7759 13.1901 38.3231 13.3192C39.2474 13.3963 40.2289 13.6487 41.1254 14.242C42.0262 14.8381 42.8105 15.7579 43.3666 17.1183C44.1471 19.0275 44.3275 21.301 44.2313 23.488C44.1349 25.6816 43.7581 27.8298 43.3923 29.5107C42.9476 31.5543 44.2603 32.8905 45.7327 32.8905C46.291 32.8905 47.053 32.8632 47.9592 32.8307L47.9688 32.8303C50.0418 32.7559 52.8279 32.6558 55.412 32.815C56.7065 32.8948 57.9641 33.0403 59.0651 33.2911C60.1579 33.5401 61.1399 33.9023 61.8487 34.4423C64.6604 36.5846 64.3909 40.5396 62.2372 43.1571C62.5375 43.4909 62.8471 43.9434 63.107 44.4565C63.4851 45.203 63.7866 46.1332 63.7866 47.1033C63.7866 49.3696 62.47 50.8359 60.8254 51.7163C60.957 52.3162 61.0413 53.1228 60.9963 53.9498C60.9404 54.9775 60.6799 56.1323 59.9625 56.9522C59.3281 57.6771 58.6762 58.2414 57.8809 58.6523C58.0654 59.2403 58.245 60.1849 58.1999 61.357C58.1602 62.3885 57.8585 63.3662 57.1043 64.1727C56.3576 64.9713 55.2157 65.5501 53.5956 65.8892C50.4278 66.5522 46.7629 66.8255 41.5981 66.8255C38.8207 66.8255 35.8391 66.6165 33.2966 66.0798L33.5031 65.1013C35.9545 65.6188 38.8613 65.8255 41.5981 65.8255C46.7335 65.8255 50.3203 65.5531 53.3907 64.9104C54.8897 64.5967 55.815 64.0875 56.3739 63.4897C56.9254 62.8999 57.1678 62.173 57.2006 61.3186C57.2402 60.29 57.0861 59.4877 56.9467 59.0168C56.7411 59.0686 56.521 59.1106 56.3013 59.1453C55.8821 59.2116 55.4303 59.2565 55.0181 59.2872C54.605 59.3179 54.2259 59.3346 53.9502 59.3437C53.8122 59.3482 53.6998 59.3508 53.6215 59.3524C53.5823 59.3531 53.5517 59.3536 53.5306 59.3539L53.5064 59.3542L53.4981 59.3542C53.4981 59.3542 53.4973 59.3543 53.4931 58.8543L53.4889 58.3543L53.4955 58.3542L53.5171 58.354L53.6022 58.3525C53.6765 58.3511 53.7844 58.3486 53.9173 58.3442C54.1834 58.3354 54.5483 58.3193 54.9441 58.2899C55.3408 58.2604 55.7629 58.218 56.1451 58.1576C56.5355 58.0959 56.852 58.0201 57.0549 57.9351C57.8789 57.5896 58.5322 57.0682 59.2099 56.2937C59.7112 55.7208 59.9468 54.8337 59.9978 53.8955C60.0354 53.2035 59.9697 52.5359 59.8717 52.0409C59.5739 52.09 59.2272 52.1284 58.8675 52.1595C58.2608 52.2119 57.5738 52.2469 56.9306 52.2703C56.2865 52.2937 55.6819 52.3057 55.2385 52.3118C55.0167 52.3149 54.835 52.3165 54.7086 52.3173L54.5623 52.3181L54.5111 52.3182L54.5091 51.3182L54.5214 51.3182L54.5586 51.3181L54.702 51.3173C54.8263 51.3165 55.0056 51.3149 55.2247 51.3119C55.6631 51.3058 56.2599 51.294 56.8942 51.2709C57.5295 51.2478 58.198 51.2136 58.7814 51.1632C59.3511 51.1139 59.8025 51.052 60.0637 50.9812C61.644 50.2272 62.7866 49.0058 62.7866 47.1033C62.7866 46.3326 62.544 45.5582 62.2149 44.9083C61.9312 44.3483 61.6039 43.9207 61.3593 43.6864H55.3801V42.6864H61.325C63.3832 40.3564 63.5056 36.9619 61.2427 35.2378C60.7 34.8243 59.8796 34.5023 58.843 34.2661C57.8146 34.0318 56.6158 33.8911 55.3505 33.8131C52.819 33.6572 50.0769 33.7553 47.9951 33.83L47.9854 33.8304C47.0908 33.8625 46.3111 33.8905 45.7327 33.8905C43.5782 33.8905 41.8444 31.9211 42.4152 29.298C42.7748 27.6456 43.1394 25.5588 43.2323 23.4441C43.3255 21.3226 43.1432 19.2144 42.441 17.4967C41.9532 16.3035 41.2907 15.5505 40.5736 15.0759C39.8523 14.5986 39.0446 14.3828 38.24 14.3157C37.4108 14.2465 36.6652 14.9827 36.5583 15.9955C36.2297 19.1094 35.3073 25.2399 32.8372 30.4132C32.0862 31.9861 30.7955 33.0374 29.6717 33.9529L29.6392 33.9793C29.1252 34.3981 28.6503 34.7855 28.2423 35.1936C27.4451 35.9908 26.7775 36.7965 26.1179 37.5931L26.1171 37.5941C25.8891 37.8694 25.6616 38.1442 25.4319 38.4144C24.8833 39.0598 24.0783 39.4033 23.2508 39.4033H21.9744V38.4033H23.2508C23.8048 38.4033 24.3239 38.174 24.67 37.7668C24.8951 37.5019 25.1187 37.2318 25.3477 36.9553L25.3533 36.9486C26.0082 36.1576 26.7024 35.3193 27.5351 34.4865C27.9826 34.0391 28.4947 33.6219 28.9969 33.2128L29.0076 33.204C30.1642 32.2618 31.2881 31.3367 31.9348 29.9824C34.3298 24.9664 35.2385 18.9737 35.5638 15.8905Z" fill="#18293D"/>
<path d="M10.3999 35.272H22.1507C22.1507 35.272 23.3999 44.5861 23.3999 50.0383C23.3999 55.4904 22.1507 64.272 22.1507 64.272H10.3999V35.272Z" fill="#EF3124"/>
</svg>
