<svg width="56" height="56" viewBox="0 0 56 56" fill="none" xmlns="http://www.w3.org/2000/svg">
<rect width="56" height="56" fill="none"/>
<path fill-rule="evenodd" clip-rule="evenodd" d="M28 56C43.464 56 56 43.464 56 28C56 12.536 43.464 0 28 0C12.536 0 0 12.536 0 28C0 43.464 12.536 56 28 56Z" fill="#5C85AD" fill-opacity="0.07"/>
<rect x="17" y="17.2715" width="20.913" height="13.6867" rx="2" transform="rotate(-9 17 17.2715)" fill="#5C85AD"/>
<rect x="14" y="20" width="27" height="21" rx="2.4" fill="#A5C2D6"/>
<rect x="29" y="27" width="14" height="8" rx="2.4" fill="#D2E0EB"/>
<path fill-rule="evenodd" clip-rule="evenodd" d="M40.5 32.5C41.3284 32.5 42 31.8284 42 31C42 30.1716 41.3284 29.5 40.5 29.5C39.6716 29.5 39 30.1716 39 31C39 31.8284 39.6716 32.5 40.5 32.5Z" fill="#5C85AD"/>
</svg>
