<svg fill="none" height="80" viewBox="0 0 80 80" width="80" xmlns="http://www.w3.org/2000/svg" xmlns:xlink="http://www.w3.org/1999/xlink"><rect width="80" height="80" fill="none"></rect><linearGradient id="a" gradientUnits="userSpaceOnUse" x1="18.4153" x2="36.234" y1="28.4727" y2="48.571"><stop offset="0" stop-color="#d6dde2"/><stop offset="1" stop-color="#b5c6d2"/></linearGradient><linearGradient id="b"><stop offset="0" stop-color="#1d61ce"/><stop offset="1" stop-color="#3a7eeb"/></linearGradient><linearGradient id="c" gradientUnits="userSpaceOnUse" x1="40.4719" x2="46.9282" xlink:href="#b" y1="67.5638" y2="53.5297"/><linearGradient id="d" gradientUnits="userSpaceOnUse" x1="50.9167" x2="70.6949" xlink:href="#b" y1="43.6484" y2="34.2185"/><linearGradient id="e" gradientUnits="userSpaceOnUse" x1="81.739" x2="66.5948" y1="51.7078" y2="46.0576"><stop offset="0" stop-color="#76889d"/><stop offset="1" stop-color="#17293e"/></linearGradient><path clip-rule="evenodd" d="m76.7998 58.084c.0001-.0367.0002-.0734.0002-.1101 0-20.3241-16.4759-36.8001-36.8-36.8001s-36.80005 16.476-36.80005 36.8001c0 .2257.00203.451.00608.6757v-.5656h13.67627c-.0002-.0369-.0003-.0739-.0003-.111 0-12.7677 10.3503-23.1179 23.118-23.1179s23.118 10.3502 23.118 23.1179c0 .0371-.0001.0741-.0003.111z" fill="url(#a)" fill-rule="evenodd"/><path d="m40.3114 56.7581 14.7863-4.9495" stroke="#18293d" stroke-linecap="round" stroke-width="3.59657"/><circle cx="40.4719" cy="56.6928" fill="url(#c)" r="6.13333" transform="matrix(-1 0 0 -1 80.9438 113.3856)"/><ellipse cx="40.4719" cy="56.6931" fill="#fff" rx="3.06668" ry="3.06667" transform="matrix(-1 0 0 -1 80.9438 113.3862)"/><g clip-rule="evenodd" fill-rule="evenodd"><path d="m74.7598 45.86-13.0559 4.133c-3.2414-8.8131-11.6975-15.1059-21.6277-15.1379v-13.6813c16.0471.0325 29.6831 10.336 34.6836 24.6862z" fill="url(#d)"/><path d="m76.8001 57.9734-.0002.1101h-13.6821l.0002-.111c0-2.8398-.512-5.56-1.4488-8.0733l12.9021-4.5672c1.4419 3.9422 2.2288 8.1999 2.2288 12.6414z" fill="url(#e)"/></g></svg>