<svg xmlns="http://www.w3.org/2000/svg" width="80" height="80" viewBox="0 0 80 80" fill="none"><rect width="80" height="80" fill="none"/>
<circle cx="40" cy="40" r="30" fill="#E7ECF0"/>
<path fill-rule="evenodd" clip-rule="evenodd" d="M27.0022 52.3654C27.0031 52.712 27.0039 53.0335 27.0039 53.3281L27.0039 57.3458H27.0001L27.0001 58.3117H27.0039V58.328L18 58.3282C18.4652 55.7393 20.9513 48.1085 27.1289 44.1372C26.9896 47.5046 26.997 50.3569 27.0022 52.3649V52.3654Z" fill="#B4C6D2"/>
<path fill-rule="evenodd" clip-rule="evenodd" d="M33.3431 58.3116C33.9367 63.937 40.8723 77.166 40.8723 77.166C40.8723 77.166 47.8081 63.9366 48.4015 58.3113L33.3431 58.3116Z" fill="#EF3124"/>
<path fill-rule="evenodd" clip-rule="evenodd" d="M27.0039 53.3281C27.0039 53.0334 27.0031 52.7117 27.0022 52.3649C26.9795 43.5978 26.9152 18.7362 39.2016 5.17663C39.9028 4.40273 41.1052 4.40255 41.8035 5.17902C53.9815 18.7186 53.9703 44.7325 53.9667 52.9386C53.9667 53.0733 53.9666 53.2032 53.9666 53.3281H54.004V58.3281H27.0039L27.0039 53.3281Z" fill="white"/>
<path fill-rule="evenodd" clip-rule="evenodd" d="M42.1733 4.91586C41.2829 3.88633 39.7232 3.89859 38.8077 4.87039C36.9564 6.83541 35.3492 8.87727 34.0043 11.43L34.8589 11.8802C36.1517 9.42624 37.6999 7.45476 39.5107 5.53272C40.0517 4.95853 40.9437 4.97061 41.4427 5.54767C47.5103 12.5638 50.587 23.6337 52.1137 34.003C53.5791 43.9565 53.6046 53.1765 53.5268 57.3453L46.0909 57.3454C46.1193 54.2435 45.4011 47.5622 42.4967 41.8205C41.876 40.5934 40.2158 40.5934 39.595 41.8205C36.6906 47.5623 35.9724 54.2438 36.0008 57.3456L27 57.3458L27 58.3117L54.1811 58.3112L54.192 58.3285L63.9998 58.328C63.514 55.6241 60.9164 47.4216 54.1227 43.6314C53.9033 40.5735 53.5696 37.2609 53.0692 33.8623C51.5374 23.4574 48.4306 12.1514 42.1733 4.91586Z" fill="#18293D"/>
<path d="M38.919 35.2279C36.7137 38.1004 33.5995 37.8101 31.963 34.5796C30.3266 31.3491 30.7877 26.4017 32.9929 23.5292C35.1982 20.6567 38.3124 20.947 39.9489 24.1775C41.5853 27.408 41.1242 32.3554 38.919 35.2279Z" fill="#B4C6D2"/>
<path d="M37.7103 32.8406C36.4046 34.5414 34.5606 34.3696 33.5917 32.4568C32.6227 30.544 32.8958 27.6146 34.2015 25.9138C35.5072 24.213 37.3511 24.3849 38.3201 26.2976C39.289 28.2104 39.016 31.1398 37.7103 32.8406Z" fill="white"/>
</svg>
