<svg fill="none" height="80" viewBox="0 0 80 80" width="80" xmlns="http://www.w3.org/2000/svg"><rect width="80" height="80" fill="none"></rect><path d="m28.4021 70.2108v-24.2868l-14.7051-2.0763 2.6822 20.8373c.4067 3.1597 3.0969 5.5258 6.2827 5.5258z" fill="#d6dde2"/><g stroke="#d6dde2" stroke-linecap="round" stroke-width="3.61972"><path d="m35.2737 46.0087c0 4.2948-3.4817 7.7765-7.7765 7.7765"/><path d="m74.0009 36.4902h-7.6919"/><path d="m73.8699 49.4921-7.4298-2.9276"/><path d="m66.4401 25.9648 7.4298-2.9277"/></g><path clip-rule="evenodd" d="m29.5357 25.1668-22.86812 3.9027v.1527c-.00002 0-.00004 0-.00006 0-.92095 0-1.66752 3.2816-1.66752 7.3296s.74657 7.3296 1.66752 7.3296c.10049 0 .1989-.0391.2945-.114l22.57368 3.7964c6.0401.7784 14.9053 5.8331 19.2867 9.4173v-40.9811c-4.705 4.5444-13.4409 8.4758-19.2867 9.1668z" fill="#e4eaee" fill-rule="evenodd"/><path clip-rule="evenodd" d="m34.9137 48.6948v.0088l14.9409 7.5788v-39.3644l-14.9409 7.3525v.03c-1.4843.2462-2.6704 5.6128-2.6704 12.1972 0 6.5843 1.1861 11.951 2.6704 12.1971z" fill="#f1f4f8" fill-rule="evenodd"/><ellipse cx="49.4546" cy="36.5374" fill="#d6dde2" rx="6.44773" ry="20.4906"/><path clip-rule="evenodd" d="m43.3578 43.2214c-.2275-2.0952-.351-4.3443-.351-6.6851 0-2.3399.1235-4.5882.3507-6.6828l4.8966 1.2333v10.9013z" fill="#e4eaee" fill-rule="evenodd"/><ellipse cx="48.254" cy="36.5428" fill="#f1f4f8" rx="2.44118" ry="5.48614"/></svg>