<svg xmlns="http://www.w3.org/2000/svg" width="64" height="64" viewBox="0 0 64 64" fill="none"><rect width="64" height="64" fill="none"/>
<path d="M45 57C45 59.2857 44.1047 61.7201 41.9316 62.4289C38.8051 63.4487 35.4669 64 32 64C14.3269 64 0 49.6731 0 32C0 14.3269 14.3269 0 32 0C35.4669 0 38.8051 0.551341 41.9316 1.57113C44.1047 2.27992 45 4.71428 45 7C45 13.6274 50.3726 19 57 19C59.2857 19 61.7201 19.8953 62.4289 22.0684C63.4487 25.1949 64 28.5331 64 32C64 35.4669 63.4487 38.8051 62.4289 41.9316C61.7201 44.1047 59.2857 45 57 45C50.3726 45 45 50.3726 45 57Z" fill="black"/>
</svg>
