<svg width="80" height="80" viewBox="0 0 80 80" fill="none" xmlns="http://www.w3.org/2000/svg">
<rect width="80" height="80" fill="none"></rect>
<path fill-rule="evenodd" clip-rule="evenodd" d="M18 11C16.8954 11 16 11.8954 16 13V15C16 16.1046 16.8954 17 18 17H38C39.1046 17 40 16.1046 40 15V13C40 11.8954 39.1046 11 38 11H18ZM26 20C24.8954 20 24 20.8954 24 22V23C24 24.1046 24.8954 25 26 25H30C31.1046 25 32 24.1046 32 23V22C32 20.8954 31.1046 20 30 20H26ZM16 28H54C59.5229 28 64 32.4772 64 38V51H50.5938V41.5991H16V28ZM55.2435 55.2263L52.0099 61.1655C50.8156 63.3591 51.1939 66.0754 52.942 67.8592C55.1698 70.1324 58.8302 70.1324 61.058 67.8592C62.8061 66.0754 63.1844 63.3591 61.9901 61.1655L58.7565 55.2263C57.9989 53.8347 56.0011 53.8347 55.2435 55.2263Z" fill="white"/>
</svg>
