<?xml version="1.0" encoding="UTF-8"?>
<svg width="96px" height="96px" viewBox="0 0 96 96" version="1.1" xmlns="http://www.w3.org/2000/svg" xmlns:xlink="http://www.w3.org/1999/xlink">
    <!-- Generator: Sketch 48.2 (47327) - http://www.bohemiancoding.com/sketch -->
    <title>art_favorites_m_white</title>
    <desc>Created with Sketch.</desc>
    <defs></defs>
    <g id="set" stroke="none" stroke-width="1" fill="none" fill-rule="evenodd">
        <g id="art_favorites_m_white">
            <rect id="_ph_" x="0" y="0" width="96" height="96"></rect>
            <g id="art" transform="translate(3.000000, 4.000000)" fill="#FFFFFF">
                <path d="M89.847,32.727 C89.506,31.678 88.573,31 87.47,31 L58.659,31 C57.572,31 56.617,30.306 56.281,29.272 L47.378,1.87 C47.037,0.82 46.104,0.142 45,0.142 C43.896,0.142 42.963,0.82 42.622,1.87 L33.719,29.272 C33.383,30.306 32.427,31 31.341,31 L2.53,31 C1.426,31 0.494,31.678 0.153,32.727 C-0.188,33.777 0.169,34.874 1.061,35.522 L24.369,52.455 C25.249,53.094 25.613,54.217 25.277,55.25 L16.375,82.651 C16.034,83.7 16.391,84.797 17.283,85.446 C18.177,86.094 19.33,86.093 20.221,85.446 L43.53,68.512 C44.408,67.874 45.59,67.874 46.469,68.512 L69.778,85.447 C70.224,85.772 70.736,85.933 71.248,85.933 C71.76,85.933 72.271,85.771 72.718,85.447 C73.611,84.799 73.967,83.701 73.626,82.652 L64.723,55.25 C64.387,54.216 64.752,53.093 65.631,52.455 L88.939,35.522 C89.831,34.874 90.188,33.776 89.847,32.727 L89.847,32.727 Z M88.351,34.714 L65.043,51.646 C63.813,52.54 63.302,54.112 63.772,55.559 L72.675,82.96 C72.923,83.724 72.556,84.328 72.13,84.637 C71.704,84.948 71.016,85.109 70.366,84.637 L47.058,67.703 C46.443,67.256 45.721,67.033 45,67.033 C44.279,67.033 43.558,67.256 42.942,67.703 L19.634,84.638 C18.985,85.108 18.297,84.947 17.871,84.638 C17.444,84.328 17.078,83.725 17.326,82.96 L26.228,55.559 C26.699,54.113 26.188,52.54 24.957,51.646 L1.649,34.714 C0.999,34.241 0.941,33.537 1.104,33.036 C1.267,32.535 1.727,32 2.53,32 L31.341,32 C32.862,32 34.199,31.028 34.67,29.581 L43.573,2.178 C43.821,1.414 44.473,1.142 45,1.142 C45.527,1.142 46.179,1.414 46.427,2.179 L55.33,29.582 C55.8,31.028 57.138,32 58.659,32 L87.47,32 C88.273,32 88.734,32.535 88.896,33.036 C89.059,33.537 89.001,34.241 88.351,34.714 L88.351,34.714 Z" id="Shape"></path>
                <path d="M68,37 L54.925,37 C53.404,37 52.067,36.028 51.597,34.582 L46.661,19.391 L43.807,20.318 L48.743,35.509 C49.615,38.195 52.1,40 54.925,40 L68,40 L68,37 L68,37 Z" id="Shape" opacity="0.3"></path>
            </g>
        </g>
    </g>
</svg>