<svg width="128" height="128" viewBox="0 0 128 128" fill="none" xmlns="http://www.w3.org/2000/svg">
<rect width="128" height="128" fill="none"/>
<g clip-path="url(#clip0)">
<path fill-rule="evenodd" clip-rule="evenodd" d="M35.4141 46V46.0153C35.3988 46.0153 30.5706 46 29.2831 50.6004C28.1028 54.8188 24.7768 66.4651 24.6848 66.786H23.7651C23.7651 66.786 20.3624 54.8799 19.1669 50.5852C17.8794 45.9847 13.0358 46 13.0358 46H2V81H13.0358V60.214H13.4957H13.9555L20.3931 81H28.0569L34.4944 60.2293H35.4141V81H46.4499V46H35.4141Z" fill="#4DB45E"/>
<path fill-rule="evenodd" clip-rule="evenodd" d="M75.7253 46C75.7253 46 72.4911 46.2904 70.9737 49.6681L63.1567 66.786H62.237V46H51.2012V81H61.6239C61.6239 81 65.0113 80.6943 66.5287 77.3319L74.1925 60.214H75.1122V81H86.148V46H75.7253Z" fill="#4DB45E"/>
<path fill-rule="evenodd" clip-rule="evenodd" d="M91.0527 61.8953V81.0001H102.089V69.8429H114.044C119.255 69.8429 123.67 66.5263 125.31 61.8953H91.0527Z" fill="#4DB45E"/>
<path fill-rule="evenodd" clip-rule="evenodd" d="M114.044 46H89.5049C90.7311 52.6638 95.7432 58.0131 102.227 59.7555C103.698 60.1528 105.246 60.3668 106.84 60.3668H125.755C125.923 59.5721 126 58.762 126 57.9214C126 51.3341 120.65 46 114.044 46Z" fill="#00B4E6"/>
</g>
<defs>
<clipPath id="clip0">
<rect x="2" y="46" width="124" height="35" fill="white"/>
</clipPath>
</defs>
</svg>
