<svg width="80" height="80" viewBox="0 0 80 80" fill="none" xmlns="http://www.w3.org/2000/svg">
<rect width="80" height="80" fill="none"></rect>
<path fill-rule="evenodd" clip-rule="evenodd" d="M22.2258 33.7442C22.5368 33.7864 22.8628 33.8317 23.2047 33.8792C26.7474 34.3713 32.0056 35.1017 40 35.1017C47.9944 35.1017 53.2526 34.3713 56.7953 33.8792C57.1372 33.8317 57.4632 33.7864 57.7742 33.7442C57.3867 31.4459 56 29.0367 53.3416 26.9306C50.1541 24.4053 45.4576 22.6441 40 22.6441C34.5424 22.6441 29.8459 24.4053 26.6584 26.9306C24 29.0367 22.6133 31.4459 22.2258 33.7442ZM15.9407 33.839C15.435 33.9554 14.9477 34.0876 14.4985 34.2214C12.9668 34.6778 12 36.2151 12 37.9131V54.2034C12 56.4968 13.7411 58.3559 15.8889 58.3559H16.6667V63.339C16.6667 64.2564 17.3631 65 18.2222 65H24.4444C25.3036 65 26 64.2564 26 63.339V58.3559H54V63.339C54 64.2564 54.6964 65 55.5556 65H61.7778C62.6369 65 63.3333 64.2564 63.3333 63.339V58.3559H64.1111C66.2589 58.3559 68 56.4968 68 54.2034V37.9131C68 36.2151 67.0332 34.6778 65.5015 34.2214C65.0524 34.0876 64.565 33.9554 64.0592 33.839C63.2387 23.8781 52.7807 16 40 16C27.2193 16 16.7612 23.8781 15.9407 33.839ZM23.6667 47.5593C23.6667 49.8527 21.9255 51.7119 19.7778 51.7119C17.63 51.7119 15.8889 49.8527 15.8889 47.5593C15.8889 45.266 17.63 43.4068 19.7778 43.4068C21.9255 43.4068 23.6667 45.266 23.6667 47.5593ZM60.2222 51.7119C62.37 51.7119 64.1111 49.8527 64.1111 47.5593C64.1111 45.266 62.37 43.4068 60.2222 43.4068C58.0745 43.4068 56.3333 45.266 56.3333 47.5593C56.3333 49.8527 58.0745 51.7119 60.2222 51.7119ZM30.6667 44.6525C30.6667 43.9645 31.189 43.4068 31.8333 43.4068H47.3889C48.0332 43.4068 48.5556 43.9645 48.5556 44.6525C48.5556 45.3405 48.0332 45.8983 47.3889 45.8983H31.8333C31.189 45.8983 30.6667 45.3405 30.6667 44.6525ZM31.8333 49.2203C31.189 49.2203 30.6667 49.7781 30.6667 50.4661C30.6667 51.1541 31.189 51.7119 31.8333 51.7119H47.3889C48.0332 51.7119 48.5556 51.1541 48.5556 50.4661C48.5556 49.7781 48.0332 49.2203 47.3889 49.2203H31.8333Z" fill="white"/>
</svg>
