<svg width="96" height="96" viewBox="0 0 96 96" xmlns="http://www.w3.org/2000/svg"><title>art_location_m_white</title><g transform="translate(0 -1)" fill="none" fill-rule="evenodd"><path d="M0 0h96v96H0z"/><path d="M88.948 32.733a2.087 2.087 0 0 0-1.252-.265c.199-1.312.304-2.644.304-3.987 0-14.612-11.888-26.5-26.5-26.5S35 13.869 35 28.481c0 2.312.316 4.588.899 6.787l-1.609-.959a2.504 2.504 0 0 0-2.507-.015L6.244 48.89A2.51 2.51 0 0 0 5 51.052V90.11c0 .904.468 1.714 1.251 2.166a2.476 2.476 0 0 0 2.501-.002l23.997-13.88a1.503 1.503 0 0 1 1.502 0L60.249 93.43c.386.224.819.335 1.251.335.432 0 .866-.111 1.252-.335l25.001-14.46A4.51 4.51 0 0 0 90 75.076V34.564c0-.762-.393-1.447-1.052-1.831zM61.5 2.981c14.061 0 25.5 11.439 25.5 25.5 0 5.028-1.47 9.899-4.26 14.101L61.533 77.109 40.25 42.566A25.376 25.376 0 0 1 36 28.481c0-14.061 11.439-25.5 25.5-25.5zM89 75.076a3.508 3.508 0 0 1-1.748 3.029l-25.001 14.46a1.5 1.5 0 0 1-1.501 0L34.751 77.528a2.518 2.518 0 0 0-2.503.001L8.251 91.409a1.488 1.488 0 0 1-1.5.001A1.485 1.485 0 0 1 6 90.11V51.052c0-.532.286-1.029.744-1.295l25.535-14.595a1.504 1.504 0 0 1 1.501.008l2.532 1.509a26.316 26.316 0 0 0 3.096 6.427l22.125 35.912L83.582 43.12a26.358 26.358 0 0 0 3.919-9.6A1.11 1.11 0 0 1 89 34.564v40.512z" fill="#FFF" fill-rule="nonzero"/><path d="M36.724 36.342l-2.674-1.594-.014-.008a1.96 1.96 0 0 0-.503-.208l-.007-.001a2.03 2.03 0 0 0-.526-.063v43.29h.002c.146-.038.294-.053.443-.058.051-.001.101.003.153.005.11.005.219.019.327.043.048.01.094.019.141.033.149.044.296.1.435.18l.002.001L60.5 92.998l.015.006c.155.088.318.154.487.197V77.198L39.834 42.843a25.943 25.943 0 0 1-3.11-6.501z" fill="#FFF" fill-rule="nonzero" opacity=".3"/><circle fill="#FFF" fill-rule="nonzero" opacity=".3" cx="61.5" cy="28.5" r="10.5"/></g></svg>