<svg fill="none" height="80" viewBox="0 0 80 80" width="80" xmlns="http://www.w3.org/2000/svg"><rect width="80" height="80" fill="none"></rect><path clip-rule="evenodd" d="m76.4264 57.9732c-.0003-20.3227-16.4752-36.7974-36.798-36.7974s-36.79766 16.4747-36.79796 36.7974h13.68126c.0006-12.7665 10.35-23.1156 23.1167-23.1156 12.7666 0 23.116 10.3491 23.1166 23.1156z" fill="#f6f7f8" fill-rule="evenodd"/><path d="m39.9396 56.7578 14.7855-4.9492" stroke="#d6dde2" stroke-linecap="round" stroke-width="3.77415"/><circle cx="40.1002" cy="56.6932" fill="#d6dde2" r="6.13299" transform="matrix(-1 0 0 -1 80.2004 113.3864)"/><circle cx="40.1001" cy="56.6933" fill="#fff" r="3.0665" transform="matrix(-1 0 0 -1 80.2002 113.3866)"/><g clip-rule="evenodd" fill-rule="evenodd"><path d="m74.3448 45.7421-13.058 4.1336c-3.2817-8.7726-11.7406-15.0181-21.6583-15.0181v-13.6818h.0001c16.0349 0 29.6743 10.2561 34.7162 24.5663z" fill="#e4eaee"/><path d="m74.1543 45.2148c1.4694 3.9749 2.272 8.273 2.2721 12.7585h-13.6814c-.0001-2.8842-.5284-5.6451-1.4935-8.1911z" fill="#d6dde2"/></g></svg>