<svg xmlns="http://www.w3.org/2000/svg" width="80" height="80" viewBox="0 0 80 80" fill="none"><rect width="80" height="80" fill="none"/>
<circle cx="35.5" cy="43.5" r="31.5" fill="#E7ECF0"/>
<path d="M61.6784 39.8269C61.6784 53.8213 50.3337 65.1661 36.3392 65.1661C22.3448 65.1661 11 53.8213 11 39.8269C11 39.8269 27.6515 37.9738 36.3392 43.0395C49.7328 38.6986 61.6784 39.8269 61.6784 39.8269Z" fill="#EF3124"/>
<path d="M56.9725 44.0195C56.9725 51.269 47.7347 58.5938 36.3392 58.5938C24.9437 58.5938 15.7058 51.269 15.7058 44.0195C15.7058 44.0195 24.9437 47.1317 36.3392 47.1317C47.7347 47.1317 56.9725 44.0195 56.9725 44.0195Z" fill="#18293D"/>
<path d="M54.2141 44.6641C54.2141 49.4073 46.2112 52.2891 36.3392 52.2891C26.4671 52.2891 18.4642 49.4073 18.4642 44.6641C18.4642 44.6641 26.4671 47.0391 36.3392 47.0391C46.2112 47.0391 54.2141 44.6641 54.2141 44.6641Z" fill="white"/>
<path d="M57.908 5C68.2017 5.05595 76.5095 9.01146 76.5095 18.9592C76.5095 28.8384 68.3158 32.8077 58.1205 32.9167V32.9253C54.7279 32.9069 51.551 32.4648 48.8161 31.5243C47.0157 32.3481 45.1734 32.9307 43.6317 33.3307C42.2785 33.6818 41.3179 32.1262 42.0515 30.9362C42.5066 30.1979 42.9845 29.3641 43.4339 28.4723C40.9792 26.254 39.5189 23.1367 39.5189 18.9661C39.5189 9.0869 47.7127 5.11764 57.908 5.00861V5Z" fill="white"/>
<path fill-rule="evenodd" clip-rule="evenodd" d="M57.408 4.49727L57.9107 4.5C63.1085 4.52825 67.8693 5.5394 71.346 7.85397C74.8513 10.1876 77.0095 13.8209 77.0095 18.9592C77.0095 24.0616 74.8812 27.6806 71.4178 30.0163C68.0927 32.2586 63.5758 33.2942 58.6205 33.4083V33.428L58.1177 33.4253C54.7634 33.4071 51.598 32.9796 48.8426 32.0612C47.0664 32.8572 45.2662 33.4232 43.7572 33.8147C42.847 34.0509 42.0586 33.6348 41.6385 32.9818C41.224 32.3373 41.1513 31.4436 41.6259 30.6738C42.0176 30.0384 42.4257 29.3324 42.8167 28.5806C40.4205 26.2793 39.0189 23.1068 39.0189 18.9661C39.0189 13.8636 41.1472 10.2447 44.6106 7.90899C47.9357 5.66664 52.4526 4.63108 57.408 4.51696V4.49727ZM58.3133 5.50429L57.9133 5.50857C52.8669 5.56254 48.3801 6.57314 45.1698 8.73808C41.9875 10.8841 40.0189 14.1893 40.0189 18.9661C40.0189 23.0067 41.4275 25.9852 43.7691 28.1013L44.0519 28.3569L43.8804 28.6973C43.4235 29.6041 42.9383 30.4505 42.4771 31.1986C42.218 31.6188 42.2589 32.0978 42.4796 32.4409C42.6948 32.7754 43.0632 32.9616 43.5061 32.8467C45.0291 32.4516 46.842 31.8777 48.6081 31.0696L48.7898 30.9865L48.9787 31.0515C51.5405 31.9325 54.5163 32.3707 57.7152 32.421L58.1151 32.4167C63.1615 32.3627 67.6484 31.3521 70.8587 29.1872C74.0409 27.0412 76.0095 23.7359 76.0095 18.9592C76.0095 14.1497 74.0138 10.8314 70.7918 8.68638C67.6281 6.5802 63.2433 5.58177 58.3133 5.50429Z" fill="#18293D"/>
<circle cx="50.0229" cy="22.3242" r="2.125" fill="#18293D"/>
<circle cx="58.0144" cy="22.3242" r="2.125" fill="#18293D"/>
<circle cx="66.0059" cy="22.3242" r="2.125" fill="#18293D"/>
</svg>
