<svg fill="none" height="80" viewBox="0 0 81 80" width="81" xmlns="http://www.w3.org/2000/svg" xmlns:xlink="http://www.w3.org/1999/xlink"><rect width="80" height="80" fill="none"></rect><linearGradient id="a" gradientUnits="userSpaceOnUse" x1="39.2912" x2="45.1537" y1="26.4934" y2="78.0838"><stop offset="0" stop-color="#d6dde2"/><stop offset="1" stop-color="#b5c6d2"/></linearGradient><linearGradient id="b"><stop offset="0" stop-color="#1d61ce"/><stop offset="1" stop-color="#3a7eeb"/></linearGradient><linearGradient id="c" gradientUnits="userSpaceOnUse" x1="6.61803" x2="13.5846" xlink:href="#b" y1="18.3481" y2="3.20493"/><linearGradient id="d" gradientUnits="userSpaceOnUse" x1="37.1818" x2="37.8545" xlink:href="#b" y1="47.175" y2="39.6992"/><clipPath id="e"><path d="m.369629 0h80v80h-80z"/></clipPath><g clip-path="url(#e)"><path d="m19.4999 43.4995s10.1944-2.159 11.1292-10.2128c-7.7171-2.4868-15.8002 1.5938-18.1291 3.2133z" fill="#4c8df5"/><path d="m38.9998 62.998s2.2279-10.125 10.2818-11.0598c2.4868 7.7171-1.6623 15.7304-3.2818 18.0592z" fill="#4c8df5"/><path d="m30.0602 65.7694c-4.3196 4.3196-22.87528 10.1109-22.87528 10.1109s5.79128-18.5557 10.11088-22.8753c4.3196-4.3197 10.6788-4.964 14.2036-1.4392s2.8805 9.884-1.4392 14.2036z" fill="#f2c94c"/><path d="m32.9993 49.5959-9.8095-9.8094c5.5909-5.8443 26.4084-23.4255 44.8465-27.306 1.2577-.2648 2.3431.8206 2.0784 2.0784-3.8805 18.4381-21.4617 39.2556-27.306 44.8465z" fill="url(#a)"/><circle fill="url(#c)" r="6.61803" transform="matrix(-.311262 .950324 -.991476 .130288 45.5828 28.6554)"/><ellipse fill="#f6f7f8" rx="3.91855" ry="3.91855" transform="matrix(-.311262 .950324 -.991476 .130288 45.5836 28.6563)"/><path d="m23.2859 39.6387h27.7917v5.43657h-27.7917z" fill="url(#d)" transform="matrix(.70710678 .70710678 -.70710678 .70710678 34.849076 -4.855711)"/><path d="m29.562 53.6037-3.5987-3.5987c2.1117-2.1966 7.4935-6.5945 13.8009-8.6572 1.3071-.4275 2.4812.7466 2.0537 2.0537-2.0626 6.3074-6.4605 11.6892-8.6572 13.8009z" fill="#4c8df5"/></g></svg>