<svg width="80" height="80" viewBox="0 0 80 80" fill="none" xmlns="http://www.w3.org/2000/svg"><rect width="80" height="80" fill="none"></rect><path d="M18.2643 48.0344C18.2643 48.0344 25.8363 46.7273 28.8947 40.0611C31.5164 34.3468 31.3548 30.0035 31.2552 26.7987C31.2257 25.8512 31.6978 24.9199 32.641 24.8243C34.9085 24.5944 38.5357 25.9398 39.4544 30.5193C40.4598 35.5314 40.0571 43.0342 40.0571 43.0342C40.0571 43.0342 45.1535 42.806 47.7647 42.806C50.3759 42.806 53.0883 45.7833 51.28 51.1372C49.4717 56.491 47.0606 61.7095 46.0552 64.6714C45.0522 67.6333 42.1397 70.1387 36.3122 70.1387C30.4847 70.1387 18.2643 70.1387 18.2643 70.1387" fill="#FFC1BD"/><path d="M49.1168 66.8944C48.7761 68.2193 47.8084 69.2924 46.5019 69.6984C43.5798 70.6065 38.0639 72.0918 33.2434 72.0918C26.3003 72.0918 18.2991 70.9333 18.2991 70.9333L18.2991 64.0616L49.8452 64.0616L49.1168 66.8944Z" fill="#FFC1BD"/><path d="M49.0716 67.082C49.0716 67.082 49.0716 65.6223 47.3035 65.6223C47.3035 65.6223 44.7951 66.1263 44.2914 62.7399L48.4167 62.7399C50.9085 62.7399 49.268 65.2814 49.0716 67.082Z" fill="url(#paint0_linear)"/><path d="M52.214 61.2486C51.9211 63.213 50.2809 64.6965 48.2972 64.7915L33.6551 65.4925C31.5706 65.5923 29.8259 63.9291 29.8259 61.8422V61.8422C29.8259 59.8239 31.462 58.1877 33.4803 58.1877L52.6704 58.1877L52.214 61.2486Z" fill="#FFC1BD"/><path d="M52.1489 61.3867C52.1489 61.3867 52.247 60.3526 50.3808 60.3526C50.3808 60.3526 47.5123 60.8566 47.0086 57.4702L50.9375 57.4702C53.2619 57.4702 52.4105 59.4223 52.1489 61.3867Z" fill="url(#paint1_linear)"/><path d="M54.5024 56.0865C54.2751 58.2002 52.4909 59.8027 50.365 59.8027L35.4195 59.8027C33.1212 59.8027 31.2581 57.9396 31.2581 55.6414L31.2581 55.0364C31.2581 52.7381 33.1212 50.8751 35.4195 50.8751L50.6744 50.8751C53.0183 50.8751 54.8443 52.9081 54.5936 55.2385L54.5024 56.0865Z" fill="#FFC1BD"/><path d="M54.5275 55.8516C54.5275 55.8516 53.6875 53.7571 50.8064 53.7571C50.8064 53.7571 46.5956 54.2612 46.0919 50.8748L50.3972 50.8748C52.8891 50.8748 54.8304 53.0361 54.5639 55.5136L54.5275 55.8516Z" fill="url(#paint2_linear)"/><path d="M56.896 47.3029C56.896 50.0718 54.6514 52.3164 51.8824 52.3164L34.3865 52.3164C31.6176 52.3164 29.373 50.0718 29.373 47.3029L29.373 46.6699C29.373 43.901 31.6176 41.6564 34.3865 41.6564L51.8825 41.6564C54.6514 41.6564 56.896 43.901 56.896 46.6699L56.896 47.3029Z" fill="#FFC1BD"/><path fill-rule="evenodd" clip-rule="evenodd" d="M49.1167 66.8944C48.776 68.2193 47.8083 69.2924 46.5018 69.6984C43.5797 70.6065 38.0638 72.0918 33.2433 72.0918C26.3002 72.0918 18.299 70.9333 18.299 70.9333L18.299 70.1394L18.2644 70.1394L18.2644 48.0351C18.2644 48.0351 25.8363 46.728 28.8947 40.0618C31.492 34.4006 31.3576 30.085 31.258 26.8891L31.2552 26.7995C31.2258 25.8519 31.6978 24.9206 32.641 24.825C34.9085 24.5951 38.5358 25.9405 39.4544 30.52C40.1951 34.2123 40.1716 39.2563 40.1078 41.6567L51.8825 41.6567C54.6514 41.6567 56.896 43.9014 56.896 46.6703L56.896 47.3032C56.896 49.5114 55.4684 51.3861 53.4859 52.0549C54.2803 52.8639 54.7258 54.0103 54.5936 55.2394L54.5024 56.0874C54.359 57.4205 53.5963 58.5503 52.5192 59.2029L52.2141 61.2493C51.9966 62.7083 51.0358 63.9021 49.743 64.4587L49.1167 66.8944Z" fill="url(#paint3_linear)"/><path d="M8.40009 70.8008L18.264 70.8008C18.264 70.8008 20.1892 65.3784 20.1892 57.3601C20.1892 49.3419 18.264 43.9195 18.264 43.9195L8.40009 43.9195L8.40009 70.8008Z" fill="url(#paint4_linear)"/><path fill-rule="evenodd" clip-rule="evenodd" d="M43.8688 24.3925C42.7697 22.7461 42.1519 20.8915 42.1519 18.9299C42.1519 12.1211 49.5947 6.60156 58.7758 6.60156C67.9569 6.60156 75.3997 12.1211 75.3997 18.9299C75.3997 25.7386 67.9569 31.2582 58.7758 31.2582C55.3471 31.2582 52.1609 30.4884 49.5142 29.1692L45.251 31.859C44.6509 32.2376 43.8688 31.8064 43.8688 31.0968V24.3925Z" fill="url(#paint5_linear)"/><defs><linearGradient id="paint0_linear" x1="44.8035" y1="66.5377" x2="45.3352" y2="63.984" gradientUnits="userSpaceOnUse"><stop stop-color="#FB9F9A" stop-opacity="0"/><stop offset="1" stop-color="#FB9F9A"/></linearGradient><linearGradient id="paint1_linear" x1="47.7171" y1="61.268" x2="48.2489" y2="58.7143" gradientUnits="userSpaceOnUse"><stop stop-color="#FB9F9A" stop-opacity="0"/><stop offset="1" stop-color="#FB9F9A"/></linearGradient><linearGradient id="paint2_linear" x1="50.3402" y1="54.6729" x2="50.8719" y2="52.1192" gradientUnits="userSpaceOnUse"><stop stop-color="#FB9F9A" stop-opacity="0"/><stop offset="1" stop-color="#FB9F9A"/></linearGradient><linearGradient id="paint3_linear" x1="32.1226" y1="24.8004" x2="45.8881" y2="70.9113" gradientUnits="userSpaceOnUse"><stop stop-color="#FDB4B0"/><stop offset="1" stop-color="#FFC1BD" stop-opacity="0"/></linearGradient><linearGradient id="paint4_linear" x1="14.2947" y1="33.5373" x2="-4.3158" y2="51.2787" gradientUnits="userSpaceOnUse"><stop stop-color="#1D61CE"/><stop offset="1" stop-color="#3A7EEB"/></linearGradient><linearGradient id="paint5_linear" x1="58.7758" y1="6.60156" x2="58.7758" y2="31.9995" gradientUnits="userSpaceOnUse"><stop stop-color="#D6DDE2"/><stop offset="1" stop-color="#B5C6D2"/></linearGradient></defs></svg>