<svg xmlns="http://www.w3.org/2000/svg" width="80" height="80" viewBox="0 0 80 80" fill="none"><rect width="80" height="80" fill="none"/>
<circle cx="40.3999" cy="39.9438" r="30" fill="#E7ECF0"/>
<path fill-rule="evenodd" clip-rule="evenodd" d="M39.7865 69.9634C45.657 69.9634 48.8896 69.0023 52.0215 67.509C54.745 72.7341 56.3026 75.2616 60.8177 76.2395C64.34 77.0025 67.3905 74.0042 67.3064 70.4012C67.2097 66.2612 66.7012 60.7041 64.9903 55.6348C61.7271 45.9659 60.188 43.1763 60.188 43.1763L60.1338 43.2028C59.6366 41.8068 58.5363 40.6845 57.1097 40.1735L44.8682 35.7883H35.6275L23.5731 40.1651C22.1544 40.6802 21.0617 41.8004 20.5678 43.1914L20.5368 43.1763C20.5368 43.1763 18.9978 45.9659 15.7346 55.6348C14.0237 60.7041 13.5151 66.2612 13.4184 70.4012C13.3343 74.0042 16.3848 77.0025 19.9072 76.2395C24.3885 75.2689 25.9564 72.7718 28.6425 67.6257C31.1846 69.0035 34.1101 69.9634 39.7865 69.9634Z" fill="#B4C6D2"/>
<path d="M42.8404 50.5325C41.6829 52.5178 38.8146 52.5178 37.6571 50.5325L30.1182 37.6025L40.2488 33.5193L50.3793 37.6025L42.8404 50.5325Z" fill="white"/>
<path fill-rule="evenodd" clip-rule="evenodd" d="M35.6279 35.6453C37.179 36.786 38.8567 37.4735 40.4056 37.4735C41.8502 37.4735 43.4071 36.8753 44.8686 35.8692V36.8449C44.8686 39.3966 42.8 41.4652 40.2483 41.4652C37.6965 41.4652 35.6279 39.3966 35.6279 36.8449V35.6453Z" fill="#B4C6D2"/>
<path fill-rule="evenodd" clip-rule="evenodd" d="M50.9653 19.6986C50.9653 19.698 50.9653 19.6974 50.9653 19.6969C50.9653 12.7121 46.2376 8.09351 40.4056 8.09351C34.5735 8.09351 29.8458 12.7121 29.8458 19.6969V19.6984C28.7305 20.1977 27.9365 21.4855 27.9365 22.9954C27.9365 24.6879 28.9342 26.9635 30.2637 27.5228C30.4387 28.3994 30.6839 29.2312 31.0268 29.9713C32.9574 34.138 36.9942 37.4733 40.4056 37.4733C43.8169 37.4733 47.8537 34.138 49.7843 29.9713C50.1272 29.2311 50.3725 28.3993 50.5475 27.5226C51.8767 26.963 52.8742 24.6877 52.8742 22.9954C52.8742 21.4857 52.0803 20.1981 50.9653 19.6986Z" fill="white"/>
<path fill-rule="evenodd" clip-rule="evenodd" d="M35.7891 14.3068C32.8807 15.7439 31.5783 18.2047 31.0913 19.8068L30.527 22.8401H29.8373V20.8756C29.3278 21.3023 28.9365 22.0553 28.9365 22.9954C28.9365 23.668 29.1411 24.5106 29.5 25.2449C29.8735 26.009 30.315 26.4595 30.6515 26.601L31.1405 26.8067L31.2443 27.327C31.4087 28.1504 31.6335 28.902 31.9342 29.5509C32.8343 31.4935 34.2299 33.2472 35.7893 34.5069C37.3629 35.7781 39.0089 36.4733 40.4056 36.4733C41.8022 36.4733 43.4482 35.7781 45.0218 34.5069C46.5812 33.2472 47.9769 31.4935 48.8769 29.5509C49.1776 28.9019 49.4024 28.1503 49.5668 27.3268L49.6706 26.8067L50.1594 26.6009C50.4959 26.4592 50.9374 26.0087 51.3108 25.2447C51.6696 24.5104 51.8742 23.6679 51.8742 22.9954C51.8742 22.0676 51.493 21.322 50.9933 20.8925V22.9057H50.3036C50.0059 20.2212 49.6811 18.1857 48.3763 16.1824C47.45 17.1936 45.8932 17.8222 43.7379 17.7521C39.7725 17.6232 37.3989 15.647 35.8307 14.3414L35.7891 14.3068ZM29.8375 19.7021C29.8602 15.1791 31.35 12.882 32.3767 11.5549L32.3896 11.5614C34.3263 9.14331 37.199 7.74707 40.4056 7.74707C43.6323 7.74707 46.521 9.16085 48.4579 11.607L48.4597 11.5879C49.4145 12.6243 50.9714 15.1788 50.9931 19.7112C52.0935 20.2195 52.8742 21.4982 52.8742 22.9954C52.8742 24.6877 51.8767 26.963 50.5475 27.5226C50.3725 28.3993 50.1272 29.2311 49.7843 29.9713C47.8537 34.138 43.8169 37.4733 40.4056 37.4733C36.9942 37.4733 32.9574 34.138 31.0268 29.9713C30.6839 29.2312 30.4387 28.3994 30.2637 27.5228C28.9342 26.9635 27.9365 24.6879 27.9365 22.9954C27.9365 21.4892 28.7266 20.2041 29.8375 19.7021Z" fill="#B4C6D2"/>
<path fill-rule="evenodd" clip-rule="evenodd" d="M53.3199 51.9306L54.3601 45.0738C52.0746 39.4333 42.9678 38.781 40.2482 45.6758C37.6542 38.6639 28.4405 39.4058 26.1373 45.0813L27.1764 51.9306C27.2176 52.1863 27.3053 52.4321 27.4353 52.6561L29.5081 56.2292C29.6644 56.4987 29.7825 56.807 29.8673 57.141C34.1884 62.688 40.2482 67.447 40.2482 67.447C40.2482 67.447 46.3078 62.6882 50.6289 57.1413C50.7137 56.8072 50.8318 56.4987 50.9882 56.2292L53.061 52.6562C53.1909 52.4322 53.2787 52.1863 53.3199 51.9306ZM25.8038 49.5499C25.7228 49.1775 25.6662 48.8098 25.6366 48.4479L25.8038 49.5499ZM54.6922 49.5519L54.86 48.446C54.8303 48.8091 54.7736 49.1782 54.6922 49.5519Z" fill="#D6DDE2"/>
<path fill-rule="evenodd" clip-rule="evenodd" d="M55.44 44.623L54.3083 52.0827L54.3084 52.0827L54.3077 52.0868C54.2472 52.4643 54.1178 52.8273 53.926 53.1579L51.8533 56.731L51.5543 56.5576L51.8532 56.731C51.4501 57.4259 51.3532 58.6722 51.5646 59.9887C51.775 61.299 52.2616 62.4957 52.8394 63.0893L52.7817 63.1454L53.3562 63.7329C54.8898 65.3013 57.4746 65.0757 58.7135 63.2655C59.5561 62.0342 59.5196 60.4026 58.6227 59.2102L58.3058 58.7889C57.6485 57.9808 57.302 56.9642 57.3289 55.9228L57.5443 47.5935C57.5576 47.0803 57.4196 46.5742 57.1474 46.1387L56.4336 44.996C56.2025 44.626 55.7902 44.5182 55.44 44.623Z" fill="white"/>
<path fill-rule="evenodd" clip-rule="evenodd" d="M25.0564 44.623L26.1881 52.0827L26.1887 52.0868C26.2492 52.4643 26.3786 52.8273 26.5704 53.1579L28.6432 56.731C29.0463 57.4259 29.1432 58.6722 28.9318 59.9887C28.7214 61.299 28.2349 62.4957 27.6571 63.0893L27.7147 63.1454L27.1402 63.7329C25.6066 65.3013 23.0218 65.0757 21.783 63.2655C20.9403 62.0342 20.9769 60.4026 21.8738 59.2102L22.1907 58.7889C22.848 57.9808 23.1944 56.9642 23.1675 55.9228L22.9521 47.5935C22.9389 47.0803 23.0769 46.5742 23.349 46.1387L24.0629 44.996C24.2939 44.626 24.7063 44.5182 25.0564 44.623Z" fill="white"/>
</svg>
