<svg width="120" height="120" viewBox="0 0 120 120" fill="none" xmlns="http://www.w3.org/2000/svg">
<rect width="120" height="120" fill="none"></rect>
<path fill-rule="evenodd" clip-rule="evenodd" d="M33.2583 43V43.0144C33.244 43.0144 28.7273 43 27.5229 47.3376C26.4188 51.3148 23.3073 62.2956 23.2213 62.5983H22.3609C22.3609 62.5983 19.1778 51.3725 18.0593 47.3231C16.8549 42.9856 12.3239 43 12.3239 43H2V76H12.3239V56.4017H12.754H13.1842L19.2064 76H26.3758L32.398 56.4162H33.2583V76H43.5822V43H33.2583Z" fill="#4DB45E"/>
<path fill-rule="evenodd" clip-rule="evenodd" d="M70.9692 43C70.9692 43 67.9438 43.2738 66.5242 46.4585L59.2115 62.5983H58.3512V43H48.0273V76H57.7776C57.7776 76 60.9465 75.7118 62.366 72.5415L69.5354 56.4017H70.3957V76H80.7195V43H70.9692Z" fill="#4DB45E"/>
<path fill-rule="evenodd" clip-rule="evenodd" d="M85.3076 57.9868V75.9999H95.6315V65.4803H106.816C111.691 65.4803 115.82 62.3532 117.355 57.9868H85.3076Z" fill="#4DB45E"/>
<path fill-rule="evenodd" clip-rule="evenodd" d="M106.816 43H83.8594C85.0065 49.283 89.6952 54.3266 95.7605 55.9694C97.137 56.3441 98.5852 56.5459 100.076 56.5459H117.77C117.928 55.7965 118 55.0328 118 54.2402C118 48.0293 112.996 43 106.816 43Z" fill="url(#paint0_linear)"/>
<defs>
<linearGradient id="paint0_linear" x1="83.8622" y1="49.7729" x2="118" y2="49.7729" gradientUnits="userSpaceOnUse">
<stop offset="0.3" stop-color="#00B4E6"/>
<stop offset="1" stop-color="#088CCB"/>
</linearGradient>
</defs>
</svg>
