<svg fill="none" height="120" viewBox="0 0 120 120" width="120" xmlns="http://www.w3.org/2000/svg" xmlns:xlink="http://www.w3.org/1999/xlink"><linearGradient id="a" gradientUnits="userSpaceOnUse" x1="83.8622" x2="118" y1="49.7729" y2="49.7729"><stop offset=".3" stop-color="#00b4e6"/><stop offset="1" stop-color="#088ccb"/></linearGradient><clipPath id="b"><path d="m2 43h116v33h-116z"/></clipPath><path d="m0 0h120v120h-120z" fill="none"/><g clip-path="url(#b)" clip-rule="evenodd" fill-rule="evenodd"><g fill="#4db45e"><path d="m33.2583 43v.0144c-.0143 0-4.531-.0144-5.7354 4.3232-1.1041 3.9772-4.2156 14.958-4.3016 15.2607h-.8604s-3.1831-11.2258-4.3016-15.2752c-1.2044-4.3375-5.7354-4.3231-5.7354-4.3231h-10.3239v33h10.3239v-19.5983h.4301.4302l6.0222 19.5983h7.1694l6.0222-19.5838h.8603v19.5838h10.3239v-33z"/><path d="m70.9692 43s-3.0254.2738-4.445 3.4585l-7.3127 16.1398h-.8603v-19.5983h-10.3239v33h9.7503s3.1689-.2882 4.5884-3.4585l7.1694-16.1398h.8603v19.5983h10.3238v-33z"/><path d="m85.3076 57.9869v18.0131h10.3239v-10.5196h11.1845c4.875 0 9.004-3.1271 10.539-7.4935z"/></g><path d="m106.816 43h-22.9566c1.1471 6.283 5.8358 11.3266 11.9011 12.9694 1.3765.3747 2.8247.5765 4.3155.5765h17.694c.158-.7494.23-1.5131.23-2.3057 0-6.2109-5.004-11.2402-11.184-11.2402z" fill="url(#a)"/></g></svg>