<svg width="84" height="24" viewBox="0 0 84 24" fill="none" xmlns="http://www.w3.org/2000/svg">
<rect width="96" height="96" fill="none"></rect>
<path fill-rule="evenodd" clip-rule="evenodd" d="M22.6353 4.59134e-07V0.0105023C22.625 0.0105023 19.3543 -1.19209e-06 18.4821 3.1546C17.6826 6.0472 15.4294 14.0332 15.3671 14.2533H14.7441C14.7441 14.2533 12.4391 6.0891 11.6292 3.1441C10.757 -0.0104992 7.4759 4.59134e-07 7.4759 4.59134e-07H0V24H7.4759V9.7467H7.7874H8.0989L12.4598 24H17.6514L22.0124 9.7572H22.6353V24H30.1112V4.59134e-07H22.6353Z" fill="#4DB45E"/>
<path fill-rule="evenodd" clip-rule="evenodd" d="M49.9432 0C49.9432 0 47.7523 0.199101 46.7244 2.5153L41.429 14.2533H40.806V0H33.3301V24H40.3906C40.3906 24 42.6853 23.7904 43.7133 21.4847L48.9049 9.7467H49.5278V24H57.0037V0H49.9432Z" fill="#4DB45E"/>
<path fill-rule="evenodd" clip-rule="evenodd" d="M60.3262 10.8997V24.0001H67.8021V16.3494H75.901C79.4312 16.3494 82.4216 14.0752 83.5326 10.8997H60.3262Z" fill="#4DB45E"/>
<path fill-rule="evenodd" clip-rule="evenodd" d="M75.9008 0H59.2773C60.108 4.5694 63.5033 8.2376 67.8954 9.4323C68.8922 9.7048 69.9409 9.8515 71.0207 9.8515H83.8336C83.9478 9.3066 83.9997 8.7511 83.9997 8.1747C83.9997 3.6576 80.376 0 75.9008 0V0Z" fill="url(#paint0_linear)"/>
<defs>
<linearGradient id="paint0_linear" x1="59.2794" y1="4.9258" x2="83.9997" y2="4.9258" gradientUnits="userSpaceOnUse">
<stop offset="0.3" stop-color="#00B4E6"/>
<stop offset="1" stop-color="#088CCB"/>
</linearGradient>
</defs>
</svg>
