<svg fill="none" height="96" viewBox="0 0 96 96" width="96" xmlns="http://www.w3.org/2000/svg" xmlns:xlink="http://www.w3.org/1999/xlink"><linearGradient id="a" gradientUnits="userSpaceOnUse" x1="65.2794" x2="89.9997" y1="40.9258" y2="40.9258"><stop offset=".3" stop-color="#00b4e6"/><stop offset="1" stop-color="#088ccb"/></linearGradient><clipPath id="b"><path d="m6 36h84v24h-84z"/></clipPath><g clip-path="url(#b)"><path d="m0 0h96v96h-96z" fill="none"/><g clip-rule="evenodd" fill-rule="evenodd"><path d="m28.6353 36v.0105c-.0103 0-3.281-.0105-4.1532 3.1441-.7995 2.8926-3.0527 10.8786-3.115 11.0987h-.623s-2.305-8.1642-3.1149-11.1092c-.8722-3.1546-4.1533-3.1441-4.1533-3.1441h-7.4759v24h7.4759v-14.2533h.3115.3115l4.3609 14.2533h5.1916l4.361-14.2428h.6229v14.2428h7.4759v-24z" fill="#4db45e"/><path d="m55.9432 36s-2.1909.1991-3.2188 2.5153l-5.2954 11.738h-.623v-14.2533h-7.4759v24h7.0605s2.2947-.2096 3.3227-2.5153l5.1916-11.738h.6229v14.2533h7.4759v-24z" fill="#4db45e"/><path d="m66.3262 46.8997v13.1004h7.4759v-7.6507h8.0989c3.5302 0 6.5206-2.2742 7.6316-5.4497z" fill="#4db45e"/><path d="m81.9008 36h-16.6235c.8307 4.5694 4.226 8.2376 8.6181 9.4323.9968.2725 2.0455.4192 3.1253.4192h12.8129c.1142-.5449.1661-1.1004.1661-1.6768 0-4.5171-3.6237-8.1747-8.0989-8.1747z" fill="url(#a)"/></g></g></svg>