<svg width="112" height="112" viewBox="0 0 112 112" fill="none" xmlns="http://www.w3.org/2000/svg">
<rect width="112" height="112" fill="none"/>
<g clip-path="url(#clip0)">
<path fill-rule="evenodd" clip-rule="evenodd" d="M31.1026 41V41.0131C31.0892 41.0131 26.8841 41 25.7627 44.9432C24.7347 48.559 21.8378 58.5415 21.7577 58.8166H20.9567C20.9567 58.8166 17.9931 48.6114 16.9518 44.9301C15.8304 40.9869 11.6119 41 11.6119 41H2V71H11.6119V53.1834H12.0124H12.4129L18.0198 71H24.6947L30.3016 53.1965H31.1026V71H40.7145V41H31.1026Z" fill="#4DB45E"/>
<path fill-rule="evenodd" clip-rule="evenodd" d="M66.2122 41C66.2122 41 63.3954 41.2489 62.0738 44.1441L55.2654 58.8166H54.4644V41H44.8525V71H53.9304C53.9304 71 56.8807 70.738 58.2024 67.8559L64.8773 53.1834H65.6782V71H75.2901V41H66.2122Z" fill="#4DB45E"/>
<path fill-rule="evenodd" clip-rule="evenodd" d="M79.5625 54.6245V71.0001H89.1744V61.4367H99.5872C104.126 61.4367 107.971 58.5939 109.399 54.6245H79.5625Z" fill="#4DB45E"/>
<path fill-rule="evenodd" clip-rule="evenodd" d="M99.5869 41H78.2139C79.2819 46.7118 83.6472 51.2969 89.2942 52.7904C90.5758 53.131 91.9241 53.3144 93.3125 53.3144H109.786C109.933 52.6332 110 51.9389 110 51.2183C110 45.5721 105.341 41 99.5869 41Z" fill="#00B4E6"/>
</g>
<defs>
<clipPath id="clip0">
<rect x="2" y="41" width="108" height="30" fill="white"/>
</clipPath>
</defs>
</svg>
