<svg xmlns="http://www.w3.org/2000/svg" width="24" height="24" viewBox="0 0 24 24" fill="none"><rect width="24" height="24" fill="none"/>
<path fill-rule="evenodd" clip-rule="evenodd" d="M15.1297 3.53585L19.7269 9.22739C20.2238 9.74772 20.2238 10.5913 19.7269 11.1117L15.1541 16.6837C14.4335 17.4382 12.3152 17.4383 11.5946 16.6837L11.5498 16.6368L16.0777 10.1695L11.5946 3.65531L11.7087 3.53594C12.391 2.82141 14.4474 2.82133 15.1297 3.53585ZM3.37268 15.7721C2.87577 15.2518 2.87578 14.4082 3.37268 13.8878L7.94543 8.31582C8.66601 7.56127 10.7843 7.56121 11.5049 8.31577L11.5498 8.36275L7.02183 14.83L11.5049 21.3442L11.3909 21.4636C10.7086 22.1781 8.65219 22.1782 7.96984 21.4637L3.37268 15.7721Z" fill="#0B1F35"/>
</svg>
