<svg xmlns="http://www.w3.org/2000/svg" width="24" height="24" viewBox="0 0 24 24" fill="none"><rect width="24" height="24" fill="none"/>
<path fill-rule="evenodd" clip-rule="evenodd" d="M12.9718 15.996C12.9718 14.7231 14.7496 14.5208 15.0154 15.8849C15.0588 16.1074 15.1609 16.3227 15.3486 16.4499C16.6086 17.3041 18.1596 18.2086 19.5337 17.5537C20.2591 17.208 20.5458 16.5808 20.5458 15.9963C20.5458 14.245 18.0877 14.245 18.1026 15.996C17.4769 16.1214 16.6366 15.7461 16.6366 14.9955V12.9938C22.989 13.4944 24.5919 5.98864 21.4157 2.23576L17.828 6.11186C17.4572 6.51251 17.2926 7.05611 17.1665 7.58728C17.037 8.13296 16.7114 8.74061 15.9037 8.74061C14.6821 8.74061 14.4377 7.61502 14.4377 6.23875C14.4377 3.61289 16.5145 3.86239 17.3696 4.23767C17.9804 3.11183 17.0387 2.41641 16.2527 2.09786C14.1934 1.48562 12.2498 3.86235 12.0055 5.98881C11.7612 3.86235 9.80659 1.48562 7.74729 2.09786C6.9613 2.41641 6.01959 3.11183 6.6304 4.23767C7.48553 3.86239 9.56227 3.61289 9.56227 6.23875C9.56227 7.61502 9.31795 8.74061 8.09633 8.74061C7.2886 8.74061 6.96302 8.13296 6.83349 7.58728C6.7074 7.05611 6.54281 6.51251 6.17197 6.11186L2.58426 2.23576C-0.591931 5.98864 1.01098 13.4944 7.36337 12.9938V14.9955C7.36337 15.7461 6.52306 16.1214 5.89743 15.996C5.91225 14.245 3.45421 14.245 3.45421 15.9963C3.45421 16.5808 3.74092 17.208 4.46631 17.5537C5.84044 18.2086 7.39142 17.3041 8.65137 16.4499C8.83906 16.3227 8.94118 16.1074 8.98455 15.8849C9.25038 14.5208 11.0282 14.7231 11.0282 15.996C11.0282 16.4964 10.7839 16.8719 10.1731 17.3723L8.54578 18.4832C8.04811 18.8229 7.95848 19.5318 8.44083 19.8929C9.50745 20.6915 10.7476 21 11.9945 21C13.2417 21 14.489 20.6914 15.5586 19.8923C16.0414 19.5317 15.9519 18.8229 15.4542 18.4832L13.8269 17.3723C13.2161 16.8719 12.9718 16.4964 12.9718 15.996ZM10.6169 9C10.2762 9 10 9.27619 10 9.61688V12.0712C10 12.7599 10.5583 13.3182 11.247 13.3182C11.3719 13.3182 11.4903 13.3744 11.5692 13.4713L11.782 13.7325C11.8945 13.8706 12.1055 13.8706 12.218 13.7325L12.4308 13.4713C12.5097 13.3744 12.6281 13.3182 12.753 13.3182C13.4417 13.3182 14 12.7599 14 12.0712V9.61688C14 9.27619 13.7238 9 13.3831 9H10.6169Z" fill="#0B1F35"/>
</svg>
