<svg xmlns="http://www.w3.org/2000/svg" width="24" height="24" viewBox="0 0 24 24" fill="none"><rect width="24" height="24" fill="none"/>
<path d="M4.03919 2.17647C4.4254 1.45233 5.17929 1 5.99998 1C6.82067 1 7.57455 1.45233 7.96076 2.17647L8.03919 2.32353C8.43135 3.05882 8.43135 3.94118 8.03919 4.67647L7.99998 4.75C7.58331 5.53125 7.58331 6.46875 7.99998 7.25L8.54537 8.27261C9.91343 10.8377 10.31 13.8103 9.66222 16.6444L8.66664 21H3.33331L2.33774 16.6444C1.68996 13.8103 2.08652 10.8377 3.45458 8.27262L3.99998 7.25C4.41664 6.46875 4.41664 5.53125 3.99998 4.75L3.96076 4.67647C3.56861 3.94118 3.56861 3.05882 3.96076 2.32353L4.03919 2.17647Z" fill="#0B1F35"/>
<path fill-rule="evenodd" clip-rule="evenodd" d="M10.8848 20.2704C11.823 20.7374 12.8808 21 13.9999 21C17.8659 21 20.9999 17.866 20.9999 14C20.9999 10.134 17.8659 7 13.9999 7C12.7618 7 11.5989 7.3214 10.5898 7.88531C11.9566 10.7448 12.3207 13.9886 11.6118 17.09L10.8848 20.2704ZM18 12C18.5523 12 19 11.5523 19 11C19 10.4477 18.5523 10 18 10C17.4477 10 17 10.4477 17 11C17 11.5523 17.4477 12 18 12ZM15 12C15 12.5523 14.5523 13 14 13C13.4477 13 13 12.5523 13 12C13 11.4477 13.4477 11 14 11C14.5523 11 15 11.4477 15 12ZM17 16C17.5523 16 18 15.5523 18 15C18 14.4477 17.5523 14 17 14C16.4477 14 16 14.4477 16 15C16 15.5523 16.4477 16 17 16Z" fill="#0B1F35"/>
</svg>
