<svg xmlns="http://www.w3.org/2000/svg" width="24" height="24" viewBox="0 0 24 24" fill="none"><rect width="24" height="24" fill="none"/>
<path d="M23 6.18414C23 7.51902 22.013 8.64825 20.6901 8.82684L18 9.19V15.8348C18 16.416 17.6371 16.9355 17.0913 17.1354C13.8039 18.3395 10.1961 18.3395 6.90869 17.1354C6.36291 16.9355 6 16.416 6 15.8348V9.19001L3.3099 8.82684C1.98702 8.64825 1 7.51903 1 6.18415V6L23 6V6.18414Z" fill="#0B1F35"/>
<path d="M20 10.9374V18.4373C19.4022 18.9806 19 19.9264 19 20.6667C19 21.7712 19.8954 22 21 22C22.1046 22 23 21.7712 23 20.6667C23 19.9264 22.5978 18.9806 22 18.4373V10.543C21.67 10.669 21.3211 10.759 20.9577 10.8081L20 10.9374Z" fill="#0B1F35"/>
</svg>
