<svg xmlns="http://www.w3.org/2000/svg" width="24" height="24" viewBox="0 0 24 24" fill="none"><rect width="24" height="24" fill="none"/>
<path d="M3.20768 5.87888C4.09781 3.16482 6.68562 1.48314 9.40745 1.62513C7.52386 3.62303 6.68851 6.52176 7.45136 9.36877C7.95074 11.2325 9.05433 12.773 10.4949 13.8359C10.1847 13.9086 9.86767 13.9576 9.54661 13.9815C9.50458 14.0261 9.45913 14.0677 9.41054 14.1059L8.59937 14.7431C8.2064 15.0518 8.0376 15.5665 8.17141 16.048L8.32701 16.6078C8.46083 17.0893 8.29202 17.604 7.89906 17.9127L7.4421 18.2717C7.04913 18.5804 6.88032 19.0951 7.01414 19.5766L7.16974 20.1364C7.30356 20.6179 7.13475 21.1326 6.74178 21.4413L5.34117 22.5416C4.64656 23.0872 3.62038 22.7507 3.38386 21.8997L2.78629 19.7496C2.72085 19.5141 2.72657 19.2646 2.80273 19.0324L4.96864 12.4284C3.18875 10.8397 2.41666 8.29076 3.20768 5.87888Z" fill="#0B1F35"/>
<path fill-rule="evenodd" clip-rule="evenodd" d="M19.1189 12.1683C21.0514 10.6908 22.0075 8.14263 21.3388 5.64705C20.4541 2.34532 17.0604 0.38593 13.7587 1.27062C10.4569 2.15532 8.49753 5.54909 9.38223 8.85081C10.0391 11.3023 12.0792 13.0138 14.4378 13.3705L16.2363 20.0824C16.2995 20.3185 16.4312 20.5305 16.6148 20.6918L18.291 22.165C18.9545 22.748 19.9977 22.4685 20.2807 21.6318L20.8515 19.9446C21.0116 19.4713 20.8714 18.948 20.496 18.6182L20.0596 18.2346C19.6842 17.9047 19.544 17.3815 19.7041 16.9081L19.8903 16.3577C20.0505 15.8843 19.9103 15.3611 19.5349 15.0312L19.0984 14.6476C18.7231 14.3177 18.5829 13.7945 18.743 13.3211L19.0736 12.344C19.093 12.2864 19.1082 12.2277 19.1189 12.1683ZM17.4438 5.45742C17.44 5.44205 17.4361 5.42668 17.4319 5.41132C17.0781 4.09062 15.7206 3.30687 14.3999 3.66075C13.0792 4.01462 12.2954 5.37213 12.6493 6.69282L12.6496 6.69396L17.4318 5.41257L17.4438 5.45742Z" fill="#0B1F35"/>
</svg>
