<svg xmlns="http://www.w3.org/2000/svg" width="24" height="24" viewBox="0 0 24 24" fill="none"><rect width="24" height="24" fill="none"/>
<path fill-rule="evenodd" clip-rule="evenodd" d="M5.00002 19.9996L18 19.9996C19.1046 19.9996 20 19.1041 20 17.9996L20 11C20 9.89543 19.1046 9.00001 18 9.00001L6 9.00001C6 8.42948 6.42632 7.94894 6.99278 7.88096L18.5 6.5001C18.5137 5.12918 17.3284 4.0532 15.9652 4.19911L5.70853 5.29695C4.18396 5.46013 3.02787 6.74642 3.0251 8.27969C3.02244 9.75 3.01817 11.2736 3.0139 12.7971C3.00897 14.559 3.00403 16.3208 3.00159 18.0001C2.99998 19.1046 3.89545 19.9996 5.00002 19.9996ZM15 14.5086C15 15.3486 15.6686 16 16.5086 16C17.3486 16 18 15.3486 18 14.5086C18 13.6686 17.3486 13 16.5086 13C15.6686 13 15 13.6686 15 14.5086Z" fill="#0B1F35"/>
</svg>
