<svg xmlns="http://www.w3.org/2000/svg" width="24" height="24" viewBox="0 0 24 24" fill="none"><rect width="24" height="24" fill="none"/>
<path d="M16 1C16.743 1.56719 17.179 2.44846 17.179 3.38323V3.77102L22.3927 7.19677C22.3927 7.19677 22.3927 7.5 22.3927 8C21.0001 11 17.1972 10.7824 15.8635 9.99999L12.251 7.27571L16 1Z" fill="#0B1F35"/>
<path d="M1.99967 7.02434L2.99992 11L1.99959 20.1164H4.37716C4.97518 20.1164 5.4395 19.595 5.37047 19.001L5.13797 17H13.5001V20H17.0001C17.0001 19.3753 16.6879 18.7918 16.168 18.4453L15.5001 18L16.5 12.5L11 8L5.33301 9.99999L3.03157 7.02434H1.99967Z" fill="#0B1F35"/>
</svg>
