<svg xmlns="http://www.w3.org/2000/svg" width="24" height="24" viewBox="0 0 24 24" fill="none"><rect width="24" height="24" fill="none"/>
<path fill-rule="evenodd" clip-rule="evenodd" d="M13.6551 5.24916C14.2091 3.88915 15.5315 3 17 3V6.75353C17.9492 7.42675 18.7079 8.35107 19.1791 9.42969H21.3918C21.7067 9.42969 21.9433 9.71741 21.8823 10.0264L21.2968 12.9952C21.1217 13.8829 20.3724 14.5493 19.4678 14.5681C19.3332 14.5709 19.1989 14.5725 19.0694 14.5725L17.1428 16.4991L15.8569 20.5H13V18.5C10.5 18.5 9 18.5 7 18V20.5H4.28589L2.1307 14.2829C1.86134 13.5737 1.71387 12.8045 1.71387 12.0008C1.71387 8.45044 4.59204 5.57227 8.14244 5.57227H13.2853C13.3644 5.57227 13.4433 5.5737 13.5217 5.57653L13.6551 5.24916ZM15.5 10.4297C16.0523 10.4297 16.5 9.98197 16.5 9.42969C16.5 8.8774 16.0523 8.42969 15.5 8.42969C14.9477 8.42969 14.5 8.8774 14.5 9.42969C14.5 9.98197 14.9477 10.4297 15.5 10.4297Z" fill="#0B1F35"/>
</svg>
