<svg xmlns="http://www.w3.org/2000/svg" width="24" height="24" viewBox="0 0 24 24" fill="none"><rect width="24" height="24" fill="none"/>
<path fill-rule="evenodd" clip-rule="evenodd" d="M3.58661 13C2.67257 13 2.23761 11.8749 2.91393 11.2601L10.991 3.9173C11.5631 3.39718 12.4369 3.39718 13.009 3.9173L21.0861 11.2601C21.7624 11.8749 21.3274 13 20.4134 13H19V19.5C19 20.3284 18.3284 21 17.5 21H6.5C5.67157 21 5 20.3284 5 19.5V13H3.58661ZM15.9999 3.54477H17.9999V6.99984L15.9999 4.99984V3.54477ZM11.5733 9.69814L9.36793 13.3069C8.11183 15.3624 9.59111 18 12 18C14.4088 18 15.8881 15.3624 14.632 13.3069L12.4266 9.69814C12.2316 9.3791 11.7683 9.3791 11.5733 9.69814Z" fill="#0B1F35"/>
</svg>
