<svg xmlns="http://www.w3.org/2000/svg" width="24" height="24" viewBox="0 0 24 24" fill="none"><rect width="24" height="24" fill="none"/>
<g clip-path="url(#clip0)">
<path d="M16 4.5V11.3704L9.62963 11.3704C7.82959 11.3704 6.37037 12.8296 6.37037 14.6296L6.37037 20H3.5C2.67157 20 2 19.3284 2 18.5L2 7L6 3L14.5 3C15.3284 3 16 3.67157 16 4.5Z" fill="#0B1F35"/>
<path d="M23 21.8703C23 22.7704 22.2704 23.5 21.3704 23.5H9.62962C8.72961 23.5 7.99999 22.7704 7.99999 21.8703L7.99999 14.6296C7.99999 13.7296 8.7296 13 9.62962 13L21.3704 13C22.2704 13 23 13.7296 23 14.6296V18L8 18L8 21H23V21.8703Z" fill="#0B1F35"/>
</g>
<defs>
<clipPath id="clip0">
<rect width="24" height="24" fill="white" transform="translate(0 24) rotate(-90)"/>
</clipPath>
</defs>
</svg>
