<svg xmlns="http://www.w3.org/2000/svg" width="18" height="18" viewBox="0 0 18 18" fill="none"><rect width="18" height="18" fill="none"/>
<path fill-rule="evenodd" clip-rule="evenodd" d="M13.4649 8.60881L14.158 7.91609C15.2805 6.79277 15.2805 4.96536 14.158 3.8423C13.0352 2.71923 11.2075 2.71923 10.0851 3.8423L7.25072 6.67678C6.70632 7.22092 6.40606 7.94441 6.40606 8.71368C6.40606 9.48269 6.70568 10.207 7.25007 10.7512C7.39852 10.8998 7.59287 10.9738 7.78723 10.9738C7.98145 10.9738 8.17593 10.8995 8.32412 10.7512C8.62089 10.4547 8.62089 9.9729 8.32412 9.67717C8.0668 9.41881 7.92507 9.07782 7.92507 8.71419C7.92507 8.34993 8.06757 8.00816 8.32412 7.75148L11.1594 4.91648C11.6731 4.40247 12.5698 4.40247 13.0839 4.91648C13.6143 5.4473 13.6143 6.31096 13.0834 6.84178L12.3904 7.53488C12.0929 7.83152 12.0929 8.3123 12.3904 8.60881C12.6872 8.90583 13.168 8.90583 13.4649 8.60881ZM9.67633 8.32422C9.37905 8.02732 9.37905 7.54668 9.67581 7.25004C9.97232 6.95366 10.4531 6.95327 10.7499 7.24978C11.2944 7.79379 11.5939 8.51689 11.5939 9.28707C11.5939 10.0566 11.2944 10.7794 10.7499 11.3237L7.91538 14.1579C7.35404 14.7194 6.61659 15 5.87874 15C5.14064 15 4.40331 14.7194 3.84171 14.1579C2.71943 13.035 2.71943 11.208 3.84171 10.0852L4.53598 9.39077C4.83275 9.09556 5.31417 9.09491 5.61016 9.39077C5.90615 9.68741 5.90615 10.1688 5.61016 10.4656L4.91654 11.159C4.38559 11.6895 4.38559 12.5537 4.9159 13.0844C5.44633 13.6143 6.31051 13.6143 6.84159 13.0844L9.67581 10.2495C9.93301 9.99142 10.0747 9.65043 10.0747 9.28707C10.0747 8.92357 9.93379 8.58077 9.67633 8.32422Z" fill="#0B1F35"/>
</svg>
