<svg xmlns="http://www.w3.org/2000/svg" width="24" height="24" viewBox="0 0 24 24" fill="none"><rect width="24" height="24" fill="none"/>
<path d="M8.66681 7.4668C8.00406 7.4668 7.4668 8.00406 7.4668 8.66681C7.4668 9.32955 8.00406 9.86682 8.66681 9.86682C9.32955 9.86682 9.86681 9.32955 9.86681 8.66681C9.86681 8.00406 9.32955 7.4668 8.66681 7.4668Z" fill="#0B1F35"/>
<path d="M15.3338 14.1328C15.9965 14.1328 16.5338 14.67 16.5338 15.3328C16.5338 15.9955 15.9965 16.5328 15.3338 16.5328C14.671 16.5328 14.1338 15.9955 14.1338 15.3328C14.1338 14.67 14.671 14.1328 15.3338 14.1328Z" fill="#0B1F35"/>
<path fill-rule="evenodd" clip-rule="evenodd" d="M22 12C22 17.5229 17.5228 22 12 22C6.47715 22 2 17.5229 2 12C2 6.47715 6.47715 2 12 2C17.5228 2 22 6.47715 22 12ZM8.66721 5.86658C7.1208 5.86658 5.86719 7.12019 5.86719 8.6666C5.86719 10.213 7.1208 11.4666 8.66721 11.4666C10.2136 11.4666 11.4672 10.213 11.4672 8.6666C11.4672 7.12019 10.2136 5.86658 8.66721 5.86658ZM15.3338 12.5333C16.8802 12.5333 18.1338 13.787 18.1338 15.3334C18.1338 16.8798 16.8802 18.1334 15.3338 18.1334C13.7874 18.1334 12.5338 16.8798 12.5338 15.3334C12.5338 13.787 13.7874 12.5333 15.3338 12.5333ZM8.62538 17.4998L16.6254 7.49977L15.376 6.50025L7.37598 16.5003L8.62538 17.4998Z" fill="#0B1F35"/>
</svg>
