<svg xmlns="http://www.w3.org/2000/svg" width="24" height="24" viewBox="0 0 24 24" fill="none"><rect width="24" height="24" fill="none"/>
<g clip-path="url(#clip0)">
<path d="M11 0L14.1273 7.6355L22 8.40325L16.3917 13.5836L15.9766 13.9609L15.8222 13.7667L13.7355 11.0584C12.7952 9.83797 11.0916 9.51743 9.77208 10.3105C8.31811 11.1844 7.85995 13.081 8.75419 14.5223L10.8272 17.8634L4.20163 22L5.94 13.89L0 8.40325L7.87275 7.6355L11 0Z" fill="#0B1F35"/>
<path d="M12.1513 12.2782C11.8313 11.8628 11.2522 11.7536 10.8025 12.0239C10.3049 12.3229 10.1476 12.9735 10.4538 13.4669L14.3461 19.7403C13.3205 19.6349 12.293 19.8395 11.2495 20.2195C10.6049 20.4543 10.1679 21.0474 10.0595 21.7272L10 22.5L10.8962 22.4733H12.0237C12.7182 22.4733 13.3838 22.7137 13.9835 23.0643C14.9155 23.6092 15.9035 23.9852 17 24C17.0452 24.0006 17.0905 24.0006 17.1361 24H18.5C20.9853 24 23 21.9853 23 19.5C23.0002 18.8371 22.778 18.1311 22.4057 17.5264L22.0176 16.9277C21.086 15.4311 19.2616 14.7609 17.5849 15.3L15.0961 16.1002L12.1513 12.2782Z" fill="#0B1F35"/>
</g>
<defs>
<clipPath id="clip0">
<path d="M0 0H24V24H0V0Z" fill="white"/>
</clipPath>
</defs>
</svg>
