<svg xmlns="http://www.w3.org/2000/svg" width="24" height="24" viewBox="0 0 24 24" fill="none"><rect width="24" height="24" fill="none"/>
<path fill-rule="evenodd" clip-rule="evenodd" d="M1.5 2C0.671573 2 0 2.67157 0 3.5V8H9.5H15H16V3.5C16 2.67157 15.3284 2 14.5 2H1.5ZM0 10H6.33682C6.12085 10.4546 6 10.9632 6 11.5V13H1.5C0.671573 13 0 12.3284 0 11.5V10ZM9.5 10C8.67157 10 8 10.6716 8 11.5V19.5C8 20.3284 8.67157 21 9.5 21H22.5C23.3284 21 24 20.3284 24 19.5V11.5C24 10.6716 23.3284 10 22.5 10H9.5Z" fill="#0B1F35"/>
</svg>
