<svg xmlns="http://www.w3.org/2000/svg" width="24" height="24" viewBox="0 0 24 24" fill="none"><rect width="24" height="24" fill="none"/>
<path d="M10.1127 3.99935C9.8806 4.59075 9.67597 5.2581 9.50756 5.99991L14.4924 5.99991C14.324 5.2581 14.1194 4.59075 13.8873 3.99935C13.3355 2.59324 12.6569 1.68333 12 1.17871C11.3431 1.68333 10.6645 2.59324 10.1127 3.99935Z" fill="#0B1F35"/>
<path d="M3.33782 5.99991C4.60972 3.80117 6.69475 2.13165 9.18172 1.40254C8.83134 1.95738 8.51987 2.58344 8.25094 3.26869C7.93241 4.08031 7.66608 4.99257 7.46217 5.99991L3.33782 5.99991Z" fill="#0B1F35"/>
<path d="M2.4578 7.99991C2.16035 8.94695 2 9.9547 2 10.9999C2 12.0451 2.16035 13.0529 2.4578 13.9999L7.1554 13.9999C7.05378 13.0625 7 12.0614 7 10.9997C7 9.9382 7.05376 8.9372 7.15536 7.99991H2.4578Z" fill="#0B1F35"/>
<path d="M3.33782 15.9999C4.21602 17.5181 5.48186 18.7839 7 19.6621V15.9999H3.33782Z" fill="#0B1F35"/>
<path fill-rule="evenodd" clip-rule="evenodd" d="M9 16H22V23H9V16ZM18 19.5C18 20.8807 16.8807 22 15.5 22C14.1193 22 13 20.8807 13 19.5C13 18.1193 14.1193 17 15.5 17C16.8807 17 18 18.1193 18 19.5Z" fill="#0B1F35"/>
<path d="M22 10.9999C22 12.0451 21.8396 13.0529 21.5422 13.9999H16.8446C16.9462 13.0625 17 12.0614 17 10.9997C17 9.9382 16.9462 8.9372 16.8446 7.99991L21.5422 7.99991C21.8396 8.94695 22 9.9547 22 10.9999Z" fill="#0B1F35"/>
<path d="M14.8183 1.40254C17.3053 2.13165 19.3903 3.80117 20.6622 5.99991L16.5378 5.99991C16.3339 4.99257 16.0676 4.08032 15.7491 3.26869C15.4801 2.58344 15.1687 1.95738 14.8183 1.40254Z" fill="#0B1F35"/>
<path d="M9.16812 7.99991C9.05954 8.91787 9 9.9184 9 10.9997C9 12.0812 9.05955 13.0818 9.16817 13.9999H14.8318C14.9404 13.0818 15 12.0812 15 10.9997C15 9.9184 14.9405 8.91787 14.8319 7.99991H9.16812Z" fill="#0B1F35"/>
</svg>
