<svg xmlns="http://www.w3.org/2000/svg" width="24" height="24" viewBox="0 0 24 24" fill="none"><rect width="24" height="24" fill="none"/>
<path d="M10.8966 7.05768C10.7444 5.73557 10.4722 3.18738 10.4238 1.4856C10.4162 1.21731 10.1988 1.00032 9.93039 1.0002C9.66183 1.00009 9.44406 1.21777 9.44406 1.48633V5.93467C9.44406 6.26814 9.17374 6.53846 8.84027 6.53846C8.52322 6.53846 8.26018 6.29324 8.23797 5.97697L7.91574 1.3879C7.9004 1.16942 7.71867 1.00004 7.49965 1.00008C7.28059 1.00004 7.09883 1.16945 7.08349 1.38796L6.76127 5.97697C6.73906 6.29324 6.47601 6.53846 6.15896 6.53846C5.8255 6.53846 5.55517 6.26814 5.55517 5.93467V1.4861C5.55517 1.21763 5.33754 1 5.06908 1C4.80061 1 4.58314 1.21701 4.5755 1.48537C4.52706 3.1872 4.25486 5.73552 4.10266 7.05767C4.042 7.58469 4.29462 8.09813 4.75084 8.36886L5.99615 9.10782L5.57138 21.0013C5.53238 22.0934 6.40717 23 7.5 23C8.59283 23 9.46762 22.0934 9.42862 21.0013L9.00384 9.1074L10.2484 8.36886C10.7046 8.09813 10.9572 7.58469 10.8966 7.05768Z" fill="#0B1F35"/>
<path d="M19 1H18.3637C17.008 1 15.868 2.01722 15.7142 3.3642L14.7723 11.6151C14.6501 12.6851 15.181 13.6916 16.0651 14.2139L15.2552 20.8946C15.1195 22.014 15.9932 23 17.1208 23C18.1586 23 19 22.1586 19 21.1208V1Z" fill="#0B1F35"/>
</svg>
