<svg xmlns="http://www.w3.org/2000/svg" width="24" height="24" viewBox="0 0 24 24" fill="none"><rect width="24" height="24" fill="none"/>
<path d="M22.9993 6.0796C22.9998 6.05311 23 6.02658 23 6C23 3.11859 20.3137 1 17 1C13.6863 1 11 3.11859 11 6C11 8.66066 13.0401 10.6792 16 11V13C17.875 13 23 10.1576 23 6.13466C23 6.11607 22.9998 6.09772 22.9993 6.0796Z" fill="#0B1F35"/>
<path fill-rule="evenodd" clip-rule="evenodd" d="M14 12.6068C12.484 12.1112 11.1843 11.2108 10.2902 10L2.99999 10.0001C2.44771 10.0001 2 10.4478 2 11.0001V20.9998C2 21.5521 2.44772 21.9998 3 21.9998H19C19.5523 21.9998 20 21.5521 20 20.9998V13.6441C19.5594 13.9069 19.1193 14.1337 18.6942 14.3218C17.8447 14.6978 16.8745 14.9999 16 14.9999H14V12.6068ZM4 19.9998V11.9998H7V19.9998H4Z" fill="#0B1F35"/>
</svg>
