<svg xmlns="http://www.w3.org/2000/svg" width="24" height="24" viewBox="0 0 24 24" fill="none"><rect width="24" height="24" fill="none"/>
<path fill-rule="evenodd" clip-rule="evenodd" d="M19.364 5.63604C18.1053 4.37737 16.5016 3.5202 14.7558 3.17294C13.01 2.82567 11.2004 3.0039 9.55585 3.68509C7.91131 4.36628 6.50571 5.51983 5.51677 6.99987C5.09865 7.62565 4.76294 8.2979 4.51472 9H2.5C2.22386 9 2 9.22386 2 9.5V10.5C2 10.7761 2.22386 11 2.5 11H4.05572C4.01872 11.3309 4 11.6648 4 12C4 12.3352 4.01872 12.6691 4.05572 13H2.5C2.22386 13 2 13.2239 2 13.5V14.5C2 14.7761 2.22386 15 2.5 15H4.51472C4.76295 15.7021 5.09865 16.3744 5.51677 17.0001C6.50571 18.4802 7.91132 19.6337 9.55585 20.3149C11.2004 20.9961 13.01 21.1743 14.7558 20.8271C16.5016 20.4798 18.1053 19.6226 19.364 18.364L16.8849 15.8849C16.1166 16.6533 15.1376 17.1765 14.0718 17.3885C13.0061 17.6005 11.9014 17.4917 10.8975 17.0759C9.89359 16.6601 9.03553 15.9559 8.43183 15.0524C8.4202 15.035 8.40869 15.0175 8.39727 15H13.5C13.7761 15 14 14.7761 14 14.5V13.5C14 13.2239 13.7761 13 13.5 13H7.59767C7.5369 12.6717 7.5059 12.337 7.5059 12C7.5059 11.663 7.5369 11.3283 7.59767 11H13.5C13.7761 11 14 10.7761 14 10.5V9.5C14 9.22386 13.7761 9 13.5 9H8.39727C8.40869 8.98249 8.4202 8.96504 8.43183 8.94765C9.03552 8.04415 9.89358 7.33996 10.8975 6.92412C11.9014 6.50829 13.0061 6.39948 14.0718 6.61148C15.1376 6.82347 16.1165 7.34673 16.8849 8.11509L19.364 5.63604Z" fill="#0B1F35"/>
</svg>
