<svg xmlns="http://www.w3.org/2000/svg" width="24" height="24" viewBox="0 0 24 24" fill="none"><rect width="24" height="24" fill="none"/>
<path d="M3 3H6V17H3V3Z" fill="#0B1F35"/>
<path d="M12 17H8V3H12V17Z" fill="#0B1F35"/>
<path d="M14 3V17H16V3H14Z" fill="#0B1F35"/>
<path d="M17 17V3H20V17H17Z" fill="#0B1F35"/>
<path d="M3 19H5V21H3V19Z" fill="#0B1F35"/>
<path d="M6 19H8V21H6V19Z" fill="#0B1F35"/>
<path d="M9 19H11V21H9V19Z" fill="#0B1F35"/>
<path d="M12 19H14V21H12V19Z" fill="#0B1F35"/>
<path d="M15 21V19H17V21H15Z" fill="#0B1F35"/>
<path d="M18 19H20V21H18V19Z" fill="#0B1F35"/>
</svg>
