<svg xmlns="http://www.w3.org/2000/svg" width="24" height="24" viewBox="0 0 24 24" fill="none"><rect width="24" height="24" fill="none"/>
<path fill-rule="evenodd" clip-rule="evenodd" d="M22 12C22 17.5229 17.5228 22 12 22C6.47715 22 2 17.5229 2 12C2 6.47715 6.47715 2 12 2C17.5228 2 22 6.47715 22 12ZM12.7668 14.1192V14.1926H10.4201V13.7892C10.4201 12.7421 11.2849 12.0436 12.1394 11.3533C12.9738 10.6793 13.7983 10.0133 13.7983 9.03833C13.7983 8.085 13.1567 7.48 12.0933 7.48C11.0117 7.48 10.37 8.23167 10.37 9.27667V9.80833H8.09668V9.14833C8.09668 6.94833 9.60001 5.5 12.0933 5.5C14.6783 5.5 16.145 6.83833 16.145 9.03833C16.145 11.2543 14.9563 12.0143 13.3142 13.0642L13.2984 13.0742C12.8768 13.3676 12.7668 13.6426 12.7668 14.1192ZM13 18.5009H10.2001V15.5859H13V18.5009Z" fill="#0B1F35"/>
</svg>
