<svg xmlns="http://www.w3.org/2000/svg" width="24" height="24" viewBox="0 0 24 24" fill="none"><rect width="24" height="24" fill="none"/>
<path fill-rule="evenodd" clip-rule="evenodd" d="M14 1.33333H16L14.6666 3.99999H12.6666L14 1.33333ZM6.91459 5.33398C5.48681 5.33398 4.31235 6.45857 4.25044 7.88502L3.78747 18.5517C3.73863 19.6769 4.39303 20.6639 5.35399 21.0985C5.34045 21.1747 5.33337 21.2532 5.33337 21.3333V22C5.33337 22.7364 5.93033 23.3333 6.66671 23.3333C7.40309 23.3333 8.00004 22.7364 8.00004 22V21.334H16V22C16 22.7364 16.597 23.3333 17.3333 23.3333C18.0697 23.3333 18.6667 22.7364 18.6667 22V21.3333C18.6667 21.2532 18.6596 21.1747 18.6461 21.0985C19.607 20.664 20.2615 19.6769 20.2126 18.5517L19.7497 7.88502C19.6877 6.45857 18.5133 5.33398 17.0855 5.33398H6.91459ZM7.59437 7.33398C6.88672 7.33398 6.30234 7.8868 6.26309 8.59336L5.99972 13.334H17.9997L17.7364 8.59336C17.6971 7.8868 17.1127 7.33398 16.4051 7.33398H7.59437ZM8.5 17.5C8.5 18.3284 7.82843 19 7 19C6.17157 19 5.5 18.3284 5.5 17.5C5.5 16.6716 6.17157 16 7 16C7.82843 16 8.5 16.6716 8.5 17.5ZM16.9998 19.001C17.8282 19.001 18.4998 18.3294 18.4998 17.501C18.4998 16.6725 17.8282 16.001 16.9998 16.001C16.1713 16.001 15.4998 16.6725 15.4998 17.501C15.4998 18.3294 16.1713 19.001 16.9998 19.001ZM12 1.33333H9.99996L8.66663 3.99999H10.6666L12 1.33333Z" fill="#0B1F35"/>
</svg>
