<svg xmlns="http://www.w3.org/2000/svg" width="24" height="24" viewBox="0 0 24 24" fill="none"><rect width="24" height="24" fill="none"/>
<path d="M6.93333 6L7.09818 5.38182C7.62998 3.38758 9.43606 2 11.5 2C13.5639 2 15.37 3.38757 15.9018 5.38182L19 17H4L5.56522 11.1304L3 6H6.93333Z" fill="#0B1F35"/>
<path d="M19 21V18.5H4V21H19Z" fill="#0B1F35"/>
<path d="M20.1924 15.6489L21.9465 14.4424C22.8779 13.8017 23.3042 12.6434 23.0102 11.5518L21.8775 7.34641C21.564 6.18233 20.5085 5.37338 19.3029 5.37325L17.4521 5.37305L17.9855 7.37311L19.3027 7.37325C19.6041 7.37328 19.8679 7.57552 19.9463 7.86654L21.079 12.0719C21.1525 12.3448 21.0459 12.6344 20.8131 12.7946L19.6454 13.5977L20.1924 15.6489Z" fill="#0B1F35"/>
</svg>
