<svg xmlns="http://www.w3.org/2000/svg" width="18" height="18" viewBox="0 0 18 18" fill="none"><rect width="18" height="18" fill="none"/>
<path fill-rule="evenodd" clip-rule="evenodd" d="M12.7207 8.67402L13.2983 8.09674C14.2338 7.16061 14.2338 5.63772 13.2983 4.70181C12.3626 3.7659 10.8395 3.7659 9.90411 4.70181L7.54208 7.06395C7.0884 7.51741 6.83818 8.12034 6.83818 8.76141C6.83818 9.40227 7.08786 10.0058 7.54154 10.4594C7.66525 10.5832 7.82721 10.6449 7.98918 10.6449C8.15104 10.6449 8.31311 10.583 8.43661 10.4594C8.68392 10.2123 8.68392 9.8108 8.43661 9.56435C8.22216 9.34904 8.10405 9.06487 8.10405 8.76184C8.10405 8.45828 8.22281 8.17346 8.43661 7.95956L10.7994 5.59699C11.2275 5.16864 11.9747 5.16864 12.4032 5.59699C12.8452 6.03935 12.8452 6.75909 12.4028 7.20145L11.8253 7.77906C11.5773 8.02626 11.5773 8.42692 11.8253 8.67402C12.0726 8.92155 12.4733 8.92155 12.7207 8.67402ZM9.56352 8.43687C9.31578 8.18944 9.31578 7.78889 9.56309 7.54169C9.81019 7.2947 10.2108 7.29437 10.4582 7.54147C10.9119 7.99483 11.1615 8.59743 11.1615 9.23926C11.1615 9.88055 10.9119 10.4829 10.4582 10.9365L8.09602 13.2984C7.62823 13.7663 7.01366 14.0002 6.39878 14.0002C5.78367 14.0002 5.16921 13.7663 4.7012 13.2984C3.76594 12.3626 3.76594 10.8401 4.7012 9.90437L5.27978 9.32569C5.52709 9.07966 5.92829 9.07913 6.17495 9.32569C6.42162 9.57289 6.42162 9.97409 6.17495 10.2214L5.59692 10.7992C5.15445 11.2414 5.15445 11.9615 5.59638 12.4038C6.03842 12.8454 6.75859 12.8454 7.20117 12.4038L9.56309 10.0413C9.77743 9.82624 9.89554 9.54207 9.89554 9.23926C9.89554 8.93634 9.77808 8.65066 9.56352 8.43687Z" fill="#0B1F35"/>
</svg>
