<svg xmlns="http://www.w3.org/2000/svg" width="24" height="24" viewBox="0 0 24 24" fill="none"><rect width="24" height="24" fill="none"/>
<path d="M19 2.00005V6.11329L16 3.11335V2.00005C16 1.67857 16.2239 1.41797 16.5 1.41797H18.5C18.7761 1.41797 19 1.67857 19 2.00005Z" fill="#0B1F35"/>
<path fill-rule="evenodd" clip-rule="evenodd" d="M1.61763 12.9995C1.02072 12.9995 0.721792 12.2778 1.14388 11.8558L10.9394 2.06042C11.5252 1.47465 12.4749 1.47465 13.0607 2.06042L22.8563 11.8558C23.2784 12.2778 22.9794 12.9995 22.3825 12.9995H19.9999V18.9993C19.9999 20.1039 19.1044 20.9993 17.9999 20.9993H5.99987C4.8953 20.9993 3.99987 20.1039 3.99987 18.9993V12.9995H1.61763ZM10.0789 10.0006C10.8706 10.0006 11.5714 10.3901 11.9999 10.9879C12.4285 10.3898 13.1295 10 13.9214 10C15.226 10 16.2836 11.0576 16.2836 12.3621C16.2836 13.0261 16.0096 13.626 15.5687 14.0551L15.5717 14.0558L12.0007 17.5401L8.42976 14.0558L8.43138 14.0555C7.99058 13.6263 7.7168 13.0265 7.7168 12.3628C7.7168 11.0582 8.77435 10.0006 10.0789 10.0006Z" fill="#0B1F35"/>
</svg>
