<svg xmlns="http://www.w3.org/2000/svg" width="24" height="24" viewBox="0 0 24 24" fill="none"><rect width="24" height="24" fill="none"/>
<path fill-rule="evenodd" clip-rule="evenodd" d="M19 20.5C19 21.3284 18.3284 22 17.5 22H6.5C5.67157 22 5 21.3284 5 20.5V3.5C5 2.67157 5.67157 2 6.5 2H17.5C18.3284 2 19 2.67157 19 3.5L19 20.5ZM12 20.0156C12.8284 20.0156 13.5 19.3441 13.5 18.5156C13.5 17.6872 12.8284 17.0156 12 17.0156C11.1716 17.0156 10.5 17.6872 10.5 18.5156C10.5 19.3441 11.1716 20.0156 12 20.0156Z" fill="#0B1F35"/>
</svg>
