<svg xmlns="http://www.w3.org/2000/svg" width="24" height="24" viewBox="0 0 24 24" fill="none"><rect width="24" height="24" fill="none"/>
<path d="M3.56954 4.26616C2.22592 5.22589 2.06857 7.1636 3.23972 8.32755L15.2742 20.2879C16.4406 21.4472 18.3681 21.2847 19.3239 19.9465L21.7199 16.5921C22.0048 16.1933 21.9586 15.6467 21.6108 15.3013L21.2571 14.9501L17.8536 18.3536L17.1464 17.6465L20.5475 14.2454L19.7519 13.4553L16.3536 16.8536L15.6464 16.1465L19.0423 12.7507L18.2466 11.9605L14.8536 15.3536L14.1464 14.6465L17.537 11.2559L16.7414 10.4658L13.3536 13.8536L12.6464 13.1465L16.0318 9.76112L15.2362 8.97099L11.8536 12.3536L11.1464 11.6465L14.5266 8.26635L13.7309 7.47622L10.3536 10.8536L9.64644 10.1465L13.0214 6.77158L12.2257 5.98146L8.85355 9.3536L8.14644 8.6465L11.5161 5.27681L10.7205 4.48669L7.35355 7.8536L6.64644 7.1465L10.0109 3.78204L9.21524 2.99192L5.85355 6.3536L5.14644 5.6465L8.50567 2.28727L8.1986 1.98234C7.85267 1.63881 7.30943 1.59481 6.91272 1.87817L3.56954 4.26616Z" fill="#0B1F35"/>
</svg>
