<svg xmlns="http://www.w3.org/2000/svg" width="24" height="24" viewBox="0 0 24 24" fill="none"><rect width="24" height="24" fill="none"/>
<path d="M1.5 3C1.5 4.38071 2.61929 5.5 4 5.5L7.24999 17H18.0001L18 16.5C18 15.3954 17.1046 14.5 16 14.5H9.5L19.5823 11.4315C20.4245 11.1752 21 10.3984 21 9.51812V5H6.60867L6.21573 3.70885C6.08758 3.28778 5.69919 3 5.25905 3H1.5Z" fill="#0B1F35"/>
<path d="M10 19.75C10 20.7165 9.2165 21.5 8.25 21.5C7.2835 21.5 6.5 20.7165 6.5 19.75C6.5 18.7835 7.2835 18 8.25 18C9.2165 18 10 18.7835 10 19.75Z" fill="#0B1F35"/>
<path d="M19 19.75C19 20.7165 18.2165 21.5 17.25 21.5C16.2835 21.5 15.5 20.7165 15.5 19.75C15.5 18.7835 16.2835 18 17.25 18C18.2165 18 19 18.7835 19 19.75Z" fill="#0B1F35"/>
</svg>
