<svg xmlns="http://www.w3.org/2000/svg" width="24" height="24" viewBox="0 0 24 24" fill="none"><rect width="24" height="24" fill="none"/>
<path fill-rule="evenodd" clip-rule="evenodd" d="M3.00001 4.99994C3.00001 4.44765 3.44772 3.99994 4.00001 3.99994L20 3.99995C20.5523 3.99995 21 4.44767 21 4.99995L21 15C21 15.5522 20.5523 16 20 16L4 15.9999C3.44771 15.9999 3 15.5522 3 14.9999L3.00001 4.99994ZM14 9.99994C14 11.1045 13.1046 11.9999 12 11.9999C10.8954 11.9999 10 11.1045 10 9.99994C10 8.89537 10.8954 7.99994 12 7.99994C13.1046 7.99994 14 8.89537 14 9.99994ZM5.00001 9.99994L5.00001 13.9999L8.50001 13.9999L5.00001 9.99994ZM19 5.99994L19 9.99993L15.5 5.99993L19 5.99994Z" fill="#0B1F35"/>
<path d="M4.47755 19.6842L4.05763 17.9999H15.3663L5.68977 20.4126C5.15389 20.5462 4.61116 20.2201 4.47755 19.6842Z" fill="#0B1F35"/>
</svg>
