<svg xmlns="http://www.w3.org/2000/svg" width="24" height="24" viewBox="0 0 24 24" fill="none"><rect width="24" height="24" fill="none"/>
<path fill-rule="evenodd" clip-rule="evenodd" d="M4.62817 10H6.14788L6.30044 6.90194C6.46321 3.59646 9.19067 1 12.5002 1C15.8096 1 18.5371 3.59646 18.6999 6.90194L18.8524 10H20.3727C20.9047 10 21.3436 10.4166 21.3713 10.9479C21.5445 14.2646 21.7176 17.5717 21.8908 20.8957C21.9504 22.0397 21.0389 23 19.8933 23H5.10759C3.96208 23 3.05062 22.0398 3.11018 20.8958C3.28326 17.5718 3.4564 14.2647 3.62953 10.9479C3.65726 10.4166 4.09614 10 4.62817 10ZM16.0364 7.03309L16.1825 10H8.81778L8.96388 7.0331C9.05672 5.14767 10.6124 3.66667 12.5002 3.66667C14.3879 3.66667 15.9436 5.14767 16.0364 7.03309ZM7.50024 17.0002C8.32871 17.0002 9.00032 16.3286 9.00032 15.5001C9.00032 14.6716 8.32871 14 7.50024 14C6.67176 14 6.00015 14.6716 6.00015 15.5001C6.00015 16.3286 6.67176 17.0002 7.50024 17.0002ZM14.0003 15.5001C14.0003 16.3286 13.3287 17.0002 12.5002 17.0002C11.6718 17.0002 11.0002 16.3286 11.0002 15.5001C11.0002 14.6716 11.6718 14 12.5002 14C13.3287 14 14.0003 14.6716 14.0003 15.5001ZM17.5002 17.0002C18.3287 17.0002 19.0003 16.3286 19.0003 15.5001C19.0003 14.6716 18.3287 14 17.5002 14C16.6718 14 16.0002 14.6716 16.0002 15.5001C16.0002 16.3286 16.6718 17.0002 17.5002 17.0002Z" fill="#0B1F35"/>
</svg>
