<svg xmlns="http://www.w3.org/2000/svg" width="24" height="24" viewBox="0 0 24 24" fill="none"><rect width="24" height="24" fill="none"/>
<path fill-rule="evenodd" clip-rule="evenodd" d="M8 3C6.89543 3 6 3.89543 6 5V19H4C3.44772 19 3 19.4477 3 20V21H20V20C20 19.4477 19.5523 19 19 19H17.2716C18.1342 18.4827 18.9364 17.7748 19.481 16.8621C20.2504 15.5723 20.4456 13.9682 19.7176 12.1687L19.714 12.1596L17 5.80999V5C17 3.89543 16.1046 3 15 3H8ZM17.7634 15.8374C17.5678 16.1651 17.3072 16.4667 17 16.7365V10.8987L17.8671 12.9273C18.3652 14.165 18.1988 15.1076 17.7634 15.8374ZM15 5H8V10H15V5Z" fill="#0B1F35"/>
</svg>
