<svg xmlns="http://www.w3.org/2000/svg" width="24" height="24" viewBox="0 0 24 24" fill="none"><rect width="24" height="24" fill="none"/>
<path d="M14.3688 7.25622L16.4459 5.17918C17.4179 4.20715 18.6435 3.52785 19.983 3.21876C20.4631 3.10794 20.8934 3.53825 20.7826 4.01839C20.4735 5.35784 19.7942 6.58346 18.8222 7.55549L16.7452 9.63253L18.4376 18.9412C18.6491 20.1043 17.5797 20.4521 16.7013 20.7376C16.6354 20.7591 16.5706 20.7801 16.5075 20.8012L12.4678 13.9099L9.85388 16.5238L9.99649 18.6634C10.0534 19.5171 9.56533 20.3138 8.77892 20.6508L8.42807 20.8012L6.52705 17.4743L3.2002 15.5733L3.35058 15.2224C3.6876 14.436 4.48428 13.948 5.33799 14.0049L7.47757 14.1475L10.0915 11.5336L3.2002 7.49386C3.22123 7.43075 3.2423 7.36594 3.26372 7.30006C3.5493 6.4217 3.89702 5.35221 5.06014 5.56375L14.3688 7.25622Z" fill="#0B1F35"/>
<path d="M11.7544 3.69039C11.9692 3.47559 12.3174 3.4756 12.5322 3.69039L13.31 4.46821C13.5248 4.68299 13.5248 5.03123 13.31 5.24602L12.9195 5.6365L10.2871 5.15764L11.7544 3.69039Z" fill="#0B1F35"/>
<path d="M18.3625 11.0829L18.8443 13.7124L20.3103 12.2464C20.5251 12.0316 20.5251 11.6833 20.3103 11.4686L19.5325 10.6907C19.3177 10.476 18.9695 10.4759 18.7547 10.6907L18.3625 11.0829Z" fill="#0B1F35"/>
</svg>
