<svg xmlns="http://www.w3.org/2000/svg" width="24" height="24" viewBox="0 0 24 24" fill="none"><rect width="24" height="24" fill="none"/>
<path d="M6 2L5 5.33333C5.23372 5.80063 5.59028 6.13541 6 6.33768V12.332C5.44772 12.332 5 12.7797 5 13.332V20C5 21.1046 5.89543 22 7 22C8.10457 22 9 21.1046 9 20V13.332C9 12.7797 8.55228 12.332 8 12.332V6.33768C8.40972 6.13541 8.76628 5.80063 9 5.33333L8 2H6Z" fill="#0B1F35"/>
<path d="M20 2H12V8H20L20 2Z" fill="#0B1F35"/>
<path d="M12 10.261V10H20L20 10.261C20 10.7207 19.7632 11.148 19.3733 11.3917L17.6447 12.4721L17.9167 20.0017C17.9622 21.0916 17.0908 22 16 22C14.9092 22 14.0378 21.0916 14.0833 20.0017L14.3553 12.4721L12.6267 11.3917C12.2368 11.148 12 10.7207 12 10.261Z" fill="#0B1F35"/>
</svg>
