<svg xmlns="http://www.w3.org/2000/svg" width="24" height="24" viewBox="0 0 24 24" fill="none"><rect width="24" height="24" fill="none"/>
<path fill-rule="evenodd" clip-rule="evenodd" d="M22.9996 10.5653C22.9996 5.28251 18.0748 1 11.9998 1C5.92477 1 1 5.28251 1 10.5653C1 15.4253 5.5 19.5 11 20V22.9501C16.7134 22.9501 22.9996 17.5 22.9996 10.5653ZM10 11V9H13C13.5523 9 14 9.44771 14 10V18L12 17.998V11H10ZM12.5 7C13.3284 7 14 6.32843 14 5.5C14 4.67157 13.3284 4 12.5 4C11.6716 4 11 4.67157 11 5.5C11 6.32843 11.6716 7 12.5 7Z" fill="#0B1F35"/>
</svg>
