<svg xmlns="http://www.w3.org/2000/svg" width="24" height="24" viewBox="0 0 24 24" fill="none"><rect width="24" height="24" fill="none"/>
<path d="M11.9997 3.24834C11.3993 2.4161 10.4178 1.87392 9.30898 1.87392C7.48148 1.87392 6 3.34668 6 5.16342C6 6.08853 6.38414 6.92444 7.0025 7.52211L6.99721 7.52327L11.9996 12.3755L17.0021 7.52327L16.9966 7.52208C17.6155 6.92435 18 6.08809 18 5.16255C18 3.34581 16.5185 1.87305 14.691 1.87305C13.5818 1.87305 12.6001 2.41561 11.9997 3.24834Z" fill="#0B1F35"/>
<path d="M12.166 13.6065L17.2919 13.9819C19.3821 14.135 20.9998 15.8756 20.9998 17.9714V19.4389L21 19.4997V22.4997C13.3227 22.4997 6.34042 18.8614 4.45388 17.792C4.13851 17.6132 3.95508 17.2793 3.95508 16.9168C3.95508 16.212 4.63868 15.6954 5.32517 15.8547C7.28423 16.3092 11.0984 17.0049 15.1424 16.7085L11.7834 15.7299C11.3203 15.595 11.002 15.1706 11.002 14.6884C11.002 14.058 11.5374 13.5604 12.166 13.6065Z" fill="#0B1F35"/>
</svg>
