<svg xmlns="http://www.w3.org/2000/svg" width="24" height="24" viewBox="0 0 24 24" fill="none"><rect width="24" height="24" fill="none"/>
<path fill-rule="evenodd" clip-rule="evenodd" d="M13 5.0761C13 4.43312 12.5048 3.99902 12 3.99902C11.4952 3.99902 11 4.43312 11 5.0761C11 5.58626 10.5864 5.99983 10.0763 5.99983L9.42373 5.99983C8.91357 5.99983 8.5 5.58626 8.5 5.0761C8.5 3.37668 9.85406 1.49902 12 1.49902C14.0291 1.49902 15.5 3.37668 15.5 5.0761V6.09955C15.5 7.42206 14.8466 8.65582 13.7604 9.39968L22.9981 15H23C23 18.1626 20.758 20 17.0128 20H6.97231C3.46685 20 1.08341 18.4494 1 15L11.577 8.46376C12.4616 7.91716 13 6.95151 13 5.91171V5.0761ZM3.78856 16.249C4.30803 17.2249 5.48625 17.5 7 17.5H17C18.8899 17.5 19.9158 17.3238 20.3091 16.3078L12 11.303L3.78856 16.249Z" fill="#0B1F35"/>
</svg>
