<svg xmlns="http://www.w3.org/2000/svg" width="24" height="24" viewBox="0 0 24 24" fill="none"><rect width="24" height="24" fill="none"/>
<path fill-rule="evenodd" clip-rule="evenodd" d="M11.3446 3.31831L2 7.85714V9.49999C2 10.3284 2.67157 11 3.5 11H4V18H3.5C2.67157 18 2 18.6716 2 19.5V21H22V19.5C22 18.6716 21.3284 18 20.5 18H20V11H20.5C21.3284 11 22 10.3284 22 9.5V7.85714L12.6554 3.31831C12.2416 3.11733 11.7584 3.11733 11.3446 3.31831ZM16 11V18H14V11H16ZM8 18H10V11H8V18ZM12 9C12.8284 9 13.5 8.32843 13.5 7.5C13.5 6.67157 12.8284 6 12 6C11.1716 6 10.5 6.67157 10.5 7.5C10.5 8.32843 11.1716 9 12 9Z" fill="#0B1F35"/>
</svg>
