<svg xmlns="http://www.w3.org/2000/svg" width="24" height="24" viewBox="0 0 24 24" fill="none"><rect width="24" height="24" fill="none"/>
<path d="M19 6.27791V2.00005C19 1.67857 18.7762 1.41797 18.5 1.41797H16.5C16.2239 1.41797 16 1.67857 16 2.00005V3.11335L19 6.27791Z" fill="#0B1F35"/>
<path fill-rule="evenodd" clip-rule="evenodd" d="M1.50012 12V13L3.99991 12.9995V18.9993C3.99991 20.1039 4.89534 20.9993 5.99991 20.9993H17.9999C19.1045 20.9993 19.9999 20.1039 19.9999 18.9993V12.9995L22.5001 13V12L13.0608 2.06042C12.475 1.47465 11.5253 1.47465 10.9395 2.06042L1.50012 12ZM14 13H10V19H14V13Z" fill="#0B1F35"/>
</svg>
