<svg xmlns="http://www.w3.org/2000/svg" width="36" height="36" viewBox="0 0 36 36" fill="none"><rect width="36" height="36" fill="none"/>
<path d="M16 30H2V32H16V30Z" fill="white" fill-opacity="0.3"/>
<path d="M35 30H21V32H35V30Z" fill="white" fill-opacity="0.3"/>
<path fill-rule="evenodd" clip-rule="evenodd" d="M32.85 3H23.45C21.254 3 19.362 4.2 18.5 5.921C17.638 4.2 15.746 3 13.55 3H4.15C2.964 3 2 3.897 2 5V27.5C2 27.776 2.224 28 2.5 28H15.2C16.744 28 18 29.122 18 30.5C18 30.776 18.224 31 18.5 31C18.776 31 19 30.776 19 30.5C19 29.122 20.256 28 21.8 28H34.5C34.776 28 35 27.776 35 27.5V5C35 3.897 34.036 3 32.85 3ZM18 28.136C17.305 27.438 16.307 27 15.2 27H3V5C3 4.449 3.516 4 4.15 4H13.55C16.003 4 18 5.794 18 8V28.136ZM34 27H21.8C20.693 27 19.696 27.438 19 28.136V8C19 5.794 20.997 4 23.45 4H32.85C33.484 4 34 4.449 34 5V27Z" fill="white"/>
<path d="M14 9H7V11H14V9Z" fill="white" fill-opacity="0.3"/>
<path d="M14 14H7V16H14V14Z" fill="white" fill-opacity="0.3"/>
<path d="M14 19H7V21H14V19Z" fill="white" fill-opacity="0.3"/>
<path d="M30 9H23V11H30V9Z" fill="white" fill-opacity="0.3"/>
<path d="M30 14H23V16H30V14Z" fill="white" fill-opacity="0.3"/>
<path d="M30 19H23V21H30V19Z" fill="white" fill-opacity="0.3"/>
</svg>
