<?xml version="1.0" encoding="UTF-8"?>
<svg width="36px" height="36px" viewBox="0 0 36 36" version="1.1" xmlns="http://www.w3.org/2000/svg" xmlns:xlink="http://www.w3.org/1999/xlink">
    <!-- Generator: Sketch 50.2 (55047) - http://www.bohemiancoding.com/sketch -->
    <title>icon_category_experiments_xl_white</title>
    <desc>Created with Sketch.</desc>
    <defs></defs>
    <g id="Page-1" stroke="none" stroke-width="1" fill="none" fill-rule="evenodd">
        <g id="icon_category_experiments_xl_white">
            <rect id="Rectangle-path" x="0" y="0" width="36" height="36"></rect>
            <path d="M23.5,1.5 L12.5,1.5 L12.5,13.1542351 L2.20971529,28.2466527 C1.75684976,28.9108555 1.51462466,29.6961017 1.51462466,30.5 C1.51462466,32.709139 3.30548566,34.5 5.51462466,34.5 L30.4853753,34.5 C31.2892737,34.5 32.0745199,34.2577749 32.7387226,33.8049094 C34.5639737,32.56042 35.0347741,30.0719037 33.7902847,28.2466527 L23.5,13.1542351 L23.5,1.5 Z" id="Combined-Shape" stroke="#FFFFFF"></path>
            <rect id="Rectangle-14" stroke="#FFFFFF" x="11.5" y="1.5" width="13" height="1"></rect>
            <rect id="Rectangle-9" fill="#FFFFFF" x="13" y="5" width="6" height="1"></rect>
            <rect id="Rectangle-9" fill="#FFFFFF" x="13" y="9" width="3" height="1"></rect>
            <path d="M12,21 L24,21 L28.7971527,27.8530753 C29.4305817,28.7579739 29.2105122,30.0050348 28.3056136,30.6384638 C27.9694465,30.8737808 27.5690331,31 27.1586889,31 L8.84131112,31 C7.73674162,31 6.84131112,30.1045695 6.84131112,29 C6.84131112,28.5896558 6.96753033,28.1892424 7.20284728,27.8530753 L12,21 Z" id="Rectangle-13" fill="#FFFFFF" opacity="0.300000012"></path>
        </g>
    </g>
</svg>