<svg xmlns="http://www.w3.org/2000/svg" width="36" height="36" viewBox="0 0 36 36" fill="none"><rect width="36" height="36" fill="none"/>
<g clip-path="url(#clip0)">
<path d="M14 30H22V31H14V30Z" fill="#0B1F35" fill-opacity="0.3"/>
<path d="M14 32.5H22V33.5H14V32.5Z" fill="#0B1F35" fill-opacity="0.3"/>
<path fill-rule="evenodd" clip-rule="evenodd" d="M25.3905 22.0423C26.2934 20.6589 26.8183 19.0071 26.8183 17.2296C26.8183 12.3594 22.8702 8.41138 18.0001 8.41138C13.1299 8.41138 9.18188 12.3594 9.18188 17.2296C9.18188 19.007 9.70673 20.6589 10.6096 22.0422C10.7076 22.1924 10.8076 22.3445 10.909 22.4988C12.3611 24.7085 14.091 27.3408 14.091 30.3486V32.9999C14.091 34.1045 14.9864 34.9999 16.091 34.9999H19.9092C21.0137 34.9999 21.9092 34.1045 21.9092 32.9999V30.3486C21.9092 27.3408 23.639 24.7086 25.0912 22.4988C25.1926 22.3445 25.2926 22.1924 25.3905 22.0423ZM25.9642 22.9918C24.4757 25.2628 22.9092 27.6528 22.9092 30.3486V32.9999C22.9092 34.6568 21.566 35.9999 19.9092 35.9999H16.091C14.4341 35.9999 13.091 34.6568 13.091 32.9999V30.3486C13.091 27.6528 11.5245 25.2628 10.036 22.9918C9.94767 22.8571 9.85963 22.7228 9.77221 22.5888C8.76646 21.0479 8.18188 19.207 8.18188 17.2296C8.18188 11.8071 12.5776 7.41138 18.0001 7.41138C23.4225 7.41138 27.8183 11.8071 27.8183 17.2296C27.8183 19.207 27.2337 21.0479 26.2279 22.5888C26.1405 22.7228 26.0525 22.8571 25.9642 22.9918Z" fill="#0B1F35"/>
<path fill-rule="evenodd" clip-rule="evenodd" d="M18.5 4.37115e-08L18.5 4.90925L17.5 4.90925L17.5 0L18.5 4.37115e-08Z" fill="#0B1F35" fill-opacity="0.3"/>
<path fill-rule="evenodd" clip-rule="evenodd" d="M-4.37114e-08 18.3995L4.9091 18.3995L4.9091 19.3995L0 19.3995L-4.37114e-08 18.3995Z" fill="#0B1F35" fill-opacity="0.3"/>
<path fill-rule="evenodd" clip-rule="evenodd" d="M4.85359 4.65312L8.32485 8.12438L7.61774 8.83149L4.14648 5.36023L4.85359 4.65312Z" fill="#0B1F35" fill-opacity="0.3"/>
<path fill-rule="evenodd" clip-rule="evenodd" d="M36 18.5577L31.0909 18.5577L31.0909 19.5577L36 19.5577L36 18.5577Z" fill="#0B1F35" fill-opacity="0.3"/>
<path fill-rule="evenodd" clip-rule="evenodd" d="M31.8536 5.36018L28.3823 8.83144L27.6752 8.12433L31.1465 4.65308L31.8536 5.36018Z" fill="#0B1F35" fill-opacity="0.3"/>
</g>
<defs>
<clipPath id="clip0">
<path d="M0 0H36V36H0V0Z" fill="white"/>
</clipPath>
</defs>
</svg>
