<svg width="36" height="36" viewBox="0 0 36 36" xmlns="http://www.w3.org/2000/svg"><g fill="none" fill-rule="evenodd"><path d="M0 0h36v36H0z"/><path d="M7.452 34h21.096c1.379 0 2.5-1.122 2.5-2.5v-27c0-1.378-1.121-2.5-2.5-2.5H7.452a2.503 2.503 0 0 0-2.5 2.5v27c0 1.378 1.121 2.5 2.5 2.5zm-1.5-29.5c0-.827.673-1.5 1.5-1.5h21.096c.827 0 1.5.673 1.5 1.5v27c0 .827-.673 1.5-1.5 1.5H7.452c-.827 0-1.5-.673-1.5-1.5v-27z" fill="#0B1F35"/><path d="M18 28.586c4.214 0 7.643-3.429 7.643-7.643S22.214 13.3 18 13.3s-7.643 3.429-7.643 7.643 3.429 7.643 7.643 7.643zM18 15.3a5.64 5.64 0 0 1 4.703 2.532c-1.046.648-1.751 1.789-1.751 3.111 0 1.322.705 2.463 1.751 3.111A5.64 5.64 0 0 1 18 26.586a5.65 5.65 0 0 1-5.643-5.643A5.65 5.65 0 0 1 18 15.3zM18 6h8v3h-8z" fill="#0B1F35" opacity=".3"/><circle fill="#0B1F35" opacity=".3" cx="12.5" cy="7.5" r="2"/></g></svg>