<svg xmlns="http://www.w3.org/2000/svg" width="36" height="36" viewBox="0 0 36 36" fill="none"><rect width="36" height="36" fill="none"/>
<path fill-rule="evenodd" clip-rule="evenodd" d="M0 0H36V36H0V0Z" fill="#0B1F35" fill-opacity="0.01"/>
<path fill-rule="evenodd" clip-rule="evenodd" d="M33 15V34H36V35H33H32H4H3H0V34H3V15V14H4H11V10V9H12H24H25V10V14H32H33V15ZM25 15H24H12H11H4V34H32V15H25ZM12 14H24V10H12V14Z" fill="#0B1F35"/>
<path fill-rule="evenodd" clip-rule="evenodd" d="M10 20H12V34H10V20ZM17 20H19V34H17V20ZM24 20H26V34H24V20ZM18 0H17V9H18V4L25 5V1L18 0Z" fill="#0B1F35" fill-opacity="0.3"/>
</svg>
