<svg xmlns="http://www.w3.org/2000/svg" width="24" height="24" viewBox="0 0 24 24" fill="none"><rect width="24" height="24" fill="none"/>
<path d="M11 20H1V21H11V20Z" fill="white" fill-opacity="0.3"/>
<path d="M24 20H14V21H24V20Z" fill="white" fill-opacity="0.3"/>
<path fill-rule="evenodd" clip-rule="evenodd" d="M22.4 1H15.8C14.379 1 13.152 1.731 12.5 2.799C11.848 1.731 10.622 1 9.2 1H2.6C1.718 1 1 1.673 1 2.5V17.5C1 17.776 1.224 18 1.5 18H10.3C11.238 18 12 18.673 12 19.5C12 19.776 12.224 20 12.5 20C12.776 20 13 19.776 13 19.5C13 18.673 13.763 18 14.7 18H23.5C23.776 18 24 17.776 24 17.5V2.5C24 1.673 23.282 1 22.4 1ZM12 17.559C11.536 17.21 10.943 17 10.3 17H2V2.5C2 2.224 2.269 2 2.6 2H9.2C10.744 2 12 3.122 12 4.5V17.559ZM23 17H14.7C14.056 17 13.464 17.21 13 17.559V4.5C13 3.122 14.256 2 15.8 2H22.4C22.731 2 23 2.224 23 2.5V17Z" fill="white"/>
<path d="M9 12H5V13H9V12Z" fill="white" fill-opacity="0.3"/>
<path d="M9 9H5V10H9V9Z" fill="white" fill-opacity="0.3"/>
<path d="M9 6H5V7H9V6Z" fill="white" fill-opacity="0.3"/>
<path d="M20 12H16V13H20V12Z" fill="white" fill-opacity="0.3"/>
<path d="M20 9H16V10H20V9Z" fill="white" fill-opacity="0.3"/>
<path d="M20 6H16V7H20V6Z" fill="white" fill-opacity="0.3"/>
</svg>
