<svg width="48" height="48" viewBox="0 0 48 48" fill="none" xmlns="http://www.w3.org/2000/svg">
<rect width="48" height="48" fill="none"/>
<path fill-rule="nonzero" clip-rule="nonzero" d="M24 48C37.2548 48 48 37.2548 48 24C48 10.7452 37.2548 0 24 0C10.7452 0 0 10.7452 0 24C0 37.2548 10.7452 48 24 48Z" fill="#5C85AD" fill-opacity="0.07"/>
<path d="M16.5319 13.9126C16.8548 12.8563 17.9729 12.2618 19.0292 12.5847L37.8803 18.3481C38.9367 18.6711 39.5312 19.7892 39.2082 20.8455L36.2611 30.485C35.9382 31.5413 34.8201 32.1358 33.7638 31.8129L14.9126 26.0495C13.8563 25.7266 13.2618 24.6085 13.5847 23.5522L16.5319 13.9126Z" fill="#B8D1E0"/>
<rect x="10" y="19.5729" width="23" height="15" rx="2" fill="#5C85AD"/>
<path fill-rule="nonzero" clip-rule="nonzero" d="M13.2171 25.812C13.1457 26.0076 13.048 26.275 13.048 26.2882C13.048 26.3082 13.0077 26.3279 12.9875 26.3279C12.9791 26.3279 12.8841 26.2903 12.773 26.2462C12.6163 26.1841 12.4277 26.1093 12.4041 26.1093C12.3841 26.1093 12.3641 26.0696 12.3841 26.0298C12.4244 25.9305 13.3898 23.2682 13.4301 23.1292C13.5106 22.8313 13.6314 22.5729 14.0134 22.5729C14.3955 22.5729 14.5163 22.8511 14.6168 23.1292C14.6318 23.1739 14.7802 23.5828 14.9607 24.0803C15.2609 24.9077 15.65 25.9801 15.6625 26.0298C15.6625 26.0498 15.6625 26.0896 15.6425 26.1093C15.6224 26.1093 15.4866 26.164 15.3508 26.2186C15.215 26.2733 15.0792 26.3279 15.0591 26.3279C15.0388 26.3279 14.9986 26.3279 14.9786 26.2882C14.9786 26.2747 14.8788 26.0015 14.8072 25.8054C14.7721 25.7096 14.7439 25.6321 14.7373 25.6126H13.2893C13.2826 25.6327 13.2532 25.7131 13.2171 25.812ZM14.5363 24.937L14.0134 23.4471L13.5306 24.937H14.5363Z" fill="white"/>
<path d="M12 28.5088V27.637C12 27.5943 12.0433 27.5729 12.0649 27.5729H15.9351C15.9784 27.5729 16 27.6157 16 27.637V28.5088C16 28.5516 15.9567 28.5729 15.9351 28.5729H12.0649C12.0216 28.5729 12 28.5302 12 28.5088Z" fill="white"/>
<rect x="12" y="29.5729" width="15" height="3" rx="1.408" fill="white" fill-opacity="0.3"/>
<path opacity="0.8" fill-rule="nonzero" clip-rule="nonzero" d="M29.5 32.5729C30.3284 32.5729 31 31.9013 31 31.0729C31 30.2445 30.3284 29.5729 29.5 29.5729C28.6716 29.5729 28 30.2445 28 31.0729C28 31.9013 28.6716 32.5729 29.5 32.5729Z" fill="white"/>
</svg>
