<svg width="48" height="48" viewBox="0 0 48 48" fill="none" xmlns="http://www.w3.org/2000/svg">
<rect width="48" height="48" fill="none"/>
<path fill-rule="nonzero" clip-rule="nonzero" d="M24 48C37.2548 48 48 37.2548 48 24C48 10.7452 37.2548 0 24 0C10.7452 0 0 10.7452 0 24C0 37.2548 10.7452 48 24 48Z" fill="#5C85AD" fill-opacity="0.07"/>
<path fill-rule="nonzero" clip-rule="nonzero" d="M34.3929 16.0099C28.5869 15.3436 23.5163 12.5998 23.5163 12.5998C23.5163 12.5998 18.4456 15.3436 12.6396 16.0099C12.6396 16.0099 11.3494 31.8192 23.5163 37.6073C31.0101 34.0423 33.3988 26.6758 34.1283 21.5429C34.5833 18.3421 34.3929 16.0099 34.3929 16.0099Z" fill="#5C85AD"/>
<path fill-rule="nonzero" clip-rule="nonzero" d="M22.2496 19.2003C22.164 19.5004 20.1096 25.2442 20.0243 25.4585C19.9816 25.5444 20.0243 25.6302 20.0669 25.6302C20.1172 25.6302 20.5204 25.7922 20.8541 25.9263C21.0895 26.0209 21.2903 26.1016 21.3079 26.1016C21.3506 26.1016 21.4363 26.0588 21.4363 26.0158C21.4363 25.9863 21.6563 25.3761 21.8092 24.9519C21.8799 24.7556 21.9364 24.5991 21.95 24.5585H25.0314C25.0454 24.6006 25.1054 24.7671 25.1797 24.9733C25.3322 25.3964 25.5451 25.9871 25.5451 26.0158C25.5877 26.1016 25.6734 26.1016 25.7164 26.1016C25.7593 26.1016 26.0488 25.9835 26.3379 25.8655C26.6265 25.7478 26.9148 25.6302 26.9574 25.6302C27.0001 25.5874 27.0001 25.5016 27.0001 25.4585C26.9732 25.3504 26.13 22.9942 25.4889 21.2026C25.1129 20.152 24.8064 19.2954 24.7747 19.2003C24.5607 18.6003 24.304 18 23.4907 18C22.6773 18 22.4206 18.5576 22.2496 19.2003ZM20.1181 30H26.8819C26.9214 30 27 29.9472 27 29.842V28.158C27 28.1052 26.9606 28 26.8819 28H20.1181C20.0786 28 20 28.0528 20 28.158V29.842C20 29.8948 20.0395 30 20.1181 30ZM22.4634 23.1015H24.6031L23.4904 19.8867L22.4634 23.1015Z" fill="white"/>
</svg>
