<svg width="24" height="24" viewBox="0 0 24 24" fill="none" xmlns="http://www.w3.org/2000/svg">
<rect width="24" height="24" fill="none"/>
<path d="M12 0C9.64699 0 10.2972 1.15188 10.9438 2.5H13.0558C13.7023 1.15188 14.353 0 12 0Z" fill="white"/>
<path fill-rule="evenodd" clip-rule="evenodd" d="M11.9997 24C10.11 24 8.51389 23.3048 7.24771 22C7.5989 21.5012 8.45144 21.219 9.04045 20.9111C10.0129 20.4028 11.0038 19.8848 11.0038 18.466C11.0038 16.7803 7.90302 17.0386 9.32422 19.4312C8.84391 19.5194 8.15939 19.5738 7.40866 19.8414C6.05658 20.3234 4.24761 20.6571 3.08878 19.8923C2.55386 19.5695 2.34942 18.9597 2.34942 18.4491C2.34942 18.023 2.58643 18.0324 2.93691 18.1996L2.52225 12.6038C1.88085 12.4727 1.47119 11.8752 1.60661 11.2665C1.74244 10.6558 2.37528 10.2651 3.02011 10.3937C3.66493 10.5224 4.07755 11.1216 3.94172 11.7323C3.86011 12.0991 3.59907 12.3866 3.26382 12.5298L4.12592 18.0306C4.67511 18.1122 5.30005 18.49 5.17118 19.0145C5.57026 19.3181 6.59995 18.9212 6.95965 18.6649C6.51883 17.762 6.15938 17.0128 7.07056 16.3979C7.06132 16.403 7.05239 16.4083 7.04376 16.4137C8.03342 15.6843 7.51666 14.6294 6.52452 15.0171C6.36996 15.1324 6.16947 15.1897 5.9587 15.158C5.53322 15.0939 5.13212 15.0064 4.75489 14.8975L4.43916 12.883C4.68243 12.6209 4.85988 12.2977 4.94124 11.9319C5.19333 10.7986 4.42755 9.68644 3.23081 9.44772C1.91983 9.18621 0.63734 10.1281 0.562929 11.3849C-0.337362 9.31504 -0.131034 6.72037 0.990648 4.37111C1.39508 3.52406 2.60545 3.63148 3.09469 4.43741C3.86702 5.70965 4.75018 6.6751 6.0806 7.9043C6.54148 8.33011 6.54097 9.0014 6.36487 9.58791C6.06643 10.5819 6.84435 11.1647 7.67953 11.1647C9.30691 11.1647 10.0297 9.81139 10.0297 8.59852C10.0297 5.82549 7.90701 6.07391 6.60766 6.36213C5.98098 5.25087 6.45158 4.56195 7.34915 4.22555C6.81289 3.17987 6.66656 2.37657 8.20827 2.37657C9.75002 2.37657 9.60361 3.17986 9.06739 4.22555C10.222 4.4998 11.9651 5.86508 12 8C12.0349 5.86508 13.778 4.4998 14.9326 4.22555C14.3963 3.17987 14.25 2.37657 15.7917 2.37657C17.3334 2.37657 17.1872 3.17987 16.6508 4.22555C17.5484 4.56195 18.019 5.25087 17.3923 6.36213C16.093 6.07391 13.9798 5.82549 13.9798 8.59852C13.9798 10.6302 15.3045 11.1647 16.3205 11.1647C17.1557 11.1647 17.9336 10.5819 17.6351 9.58791C17.459 9.0014 17.4585 8.33011 17.9194 7.9043C19.2498 6.6751 20.133 5.70965 20.9053 4.43741C21.3946 3.63148 22.6049 3.52406 23.0094 4.37111C25.1572 8.86955 23.9488 14.2678 18.0413 15.158C17.846 15.1874 17.6516 15.1409 17.4937 15.0303C16.5035 14.616 15.9662 15.6284 16.876 16.3629C17.8543 16.9843 17.4896 17.7448 17.0404 18.6649C17.4001 18.9212 18.4297 19.3181 18.8288 19.0145C18.8045 18.9156 18.7917 18.8125 18.7917 18.7066C18.7917 17.959 19.4317 17.353 20.2211 17.353C21.0106 17.353 21.6506 17.959 21.6506 18.7066C21.6506 19.2172 21.352 19.6618 20.9112 19.8923C19.7524 20.6571 17.9434 20.3234 16.5913 19.8414C15.8406 19.5738 15.1561 19.5194 14.6758 19.4312C16.097 17.0386 12.9962 16.7803 12.9962 18.466C12.9962 19.8848 13.9871 20.4028 14.9596 20.9111C15.5486 21.219 16.2402 21.4933 16.5913 21.9922C15.3252 23.297 13.8894 24 11.9997 24ZM10.5871 11.2621C9.89599 11.2621 9.33571 11.8455 9.33571 12.5V14.1498C9.33571 15.543 10.5285 16.75 11.9998 16.75C13.471 16.75 14.6637 15.543 14.6637 14.1498V12.5C14.6637 11.8455 14.1034 11.2621 13.4123 11.2621H10.5871Z" fill="white"/>
</svg>
