<svg width="48" height="48" viewBox="0 0 48 48" xmlns="http://www.w3.org/2000/svg"><g fill="none" fill-rule="evenodd"><path d="M0 0h48v48H0z"/><path fill="#FFF" fill-rule="nonzero" opacity=".3" d="M16.929 12.686l18.385 18.385-4.243 4.243-18.385-18.385z"/><path d="M24 37c7.18 0 13-5.82 13-13s-5.82-13-13-13-13 5.82-13 13 5.82 13 13 13zm9.083-25.773s4.077-17.415 7.335-3.66c13.713 3.217-3.675 7.32-3.675 7.32l-3.66-3.66zm-18.33 25.496s-4.01 17.134-7.215 3.6c-13.492-3.164 3.615-7.2 3.615-7.2l3.6 3.6z" stroke="#FFF"/></g></svg>