<svg width="48" height="48" viewBox="0 0 48 48" fill="none" xmlns="http://www.w3.org/2000/svg">
<rect width="48" height="48" fill="none"/>
<path fill-rule="nonzero" clip-rule="nonzero" d="M24 48C37.2548 48 48 37.2548 48 24C48 10.7452 37.2548 0 24 0C10.7452 0 0 10.7452 0 24C0 37.2548 10.7452 48 24 48Z" fill="#5C85AD" fill-opacity="0.07"/>
<path d="M33.4946 28.4576C33.1886 28.7643 32.694 28.7643 32.3881 28.4576L31.2816 27.3511C30.9748 27.045 30.9748 26.5497 31.2816 26.2445L33.4947 24.0314C33.8007 23.7254 34.2953 23.7254 34.6012 24.0314L35.7078 25.1379C36.0145 25.4431 36.0145 25.9385 35.7078 26.2444L33.4946 28.4576Z" fill="#B2CCDC"/>
<path d="M21.7561 16.7191C21.4501 17.0259 20.9555 17.0259 20.6496 16.7191L19.5431 15.6126C19.2363 15.3066 19.2363 14.8113 19.5431 14.5061L21.7562 12.2929C22.0622 11.9869 22.5568 11.9869 22.8627 12.2929L23.9692 13.3995C24.276 13.7046 24.276 14.2 23.9692 14.506L21.7561 16.7191Z" fill="#B2CCDC"/>
<path d="M11.5825 27.0267C13.1476 27.0267 20.1908 27.8092 20.1908 27.8092C20.1908 27.8092 20.9734 34.8524 20.9734 36.4176C20.9734 37.9827 19.4083 37.9827 18.6257 37.2001C17.8431 36.4176 15.4954 32.5047 15.4954 32.5047C15.4954 32.5047 11.5825 30.157 10.7999 29.3744C10.0174 28.5918 10.0173 27.0267 11.5825 27.0267Z" fill="#5C85AD"/>
<path d="M13.1473 14.5359C15.495 14.5054 32.7117 15.288 32.7117 15.288C32.7117 15.288 33.4347 32.5047 33.4645 34.8524C33.4943 37.2001 31.303 37.9842 30.4422 34.8532C29.5814 31.7221 26.4511 21.5486 26.4511 21.5486C26.4511 21.5486 15.5302 18.0927 13.1434 17.5558C10.017 16.8531 10.7995 14.5664 13.1473 14.5359Z" fill="#5C85AD"/>
<path d="M31.1471 12.1575C32.7122 10.5924 36.6251 9.8098 37.4076 10.5924C38.1902 11.375 37.4076 15.2878 35.8425 16.853C34.2773 18.4181 20.9735 30.9393 20.9735 30.9393C20.9735 30.9393 15.8868 34.4609 14.713 33.2871C13.5391 32.1132 17.0607 27.0265 17.0607 27.0265C17.0607 27.0265 29.5819 13.7227 31.1471 12.1575Z" fill="#B2CCDC"/>
</svg>
