<?xml version="1.0" encoding="UTF-8"?>
<svg width="48px" height="48px" viewBox="0 0 48 48" version="1.1" xmlns="http://www.w3.org/2000/svg" xmlns:xlink="http://www.w3.org/1999/xlink">
    <!-- Generator: Sketch 52 (66869) - http://www.bohemiancoding.com/sketch -->
    <title>icon_category-tax-fines_xxl_black</title>
    <desc>Created with Sketch.</desc>
    <g id="icon_category-tax-fines_xxl_black" stroke="none" stroke-width="1" fill="none" fill-rule="evenodd">
        <g fill-rule="nonzero">
            <rect id="Rectangle" x="0" y="0" width="48" height="48"></rect>
            <path d="M6.75,42.5110938 L10.5663743,45.3914859 L15.1118077,42.3842384 L19.4572028,45.399453 L24.0033864,42.3860722 L28.4428914,45.4011623 L32.9803479,42.3838205 L37.3154151,45.3895915 L41.25,42.5066525 L41.25,5.39543293 L37.3259978,2.61464453 L32.9805067,5.7490947 L28.4424055,2.60968023 L23.9848903,5.74668374 L19.450107,2.60763859 L14.8909668,5.74864473 L10.5491713,2.61773358 L6.75,5.39100067 L6.75,42.5110938 Z M15.0984438,43.5921259 L10.5283841,46.6156661 L5.75,43.0092012 L5.75,4.88288346 L10.5455871,1.38226642 L14.9041093,4.52523939 L19.4514516,1.39236141 L23.9801584,4.52720039 L28.4374991,1.39031977 L32.9684524,4.52478943 L37.3208529,1.38535547 L42.25,4.87845119 L42.25,43.0136426 L37.3314356,46.6175605 L32.9686112,43.5925438 L28.4370132,46.6059897 L23.9966136,43.5902921 L19.4443558,46.607699 L15.0984438,43.5921259 Z" id="Path-2" fill="#0B1F35"></path>
            <path d="M13.5,21.4 L34.5,21.4 L34.5,25.6 L13.5,25.6 L13.5,21.4 Z M27.5,29.8 L33.1,29.8 L33.1,34 L27.5,34 L27.5,29.8 Z M13.5,29.8 L23.3,29.8 L23.3,34 L13.5,34 L13.5,29.8 Z M13.5,13 L26.1,13 L26.1,17.2 L13.5,17.2 L13.5,13 Z" id="Shape" fill="#0B1F35" opacity="0.3"></path>
        </g>
    </g>
</svg>