<svg width="48" height="48" fill="none" xmlns="http://www.w3.org/2000/svg"><path fill-rule="evenodd" clip-rule="evenodd" d="M30.84 33l6.192 6.707A3.996 3.996 0 0039.968 41c2.408 0 4.304-2.15 4-4.62L41.49 16.254C41.12 13.24 38.602 11 35.642 11H12.358c-2.96 0-5.477 2.24-5.848 5.254L4.032 36.38c-.304 2.47 1.591 4.62 4 4.62a3.996 3.996 0 002.936-1.293L17.16 33h13.68zm-.438 1l5.895 6.385A4.996 4.996 0 0039.968 42c3.026 0 5.368-2.693 4.992-5.742l-2.477-20.126C42.05 12.629 39.119 10 35.642 10H12.358c-3.477 0-6.41 2.629-6.84 6.132L3.04 36.258C2.664 39.307 5.006 42 8.032 42c1.39 0 2.72-.584 3.67-1.615L17.599 34h12.804z" fill="#0B1F35"/><path d="M25 2h-2v8h2V2zM17 18h-3v3h-3v3h3v3h3v-3h3v-3h-3v-3zM32.5 21a1.5 1.5 0 100-3 1.5 1.5 0 000 3zM34 25.5a1.5 1.5 0 11-3 0 1.5 1.5 0 013 0zM37 22.5a1.5 1.5 0 11-3 0 1.5 1.5 0 013 0zM31 22.5a1.5 1.5 0 11-3 0 1.5 1.5 0 013 0z" fill="#0B1F35" fill-opacity=".3"/></svg>