<?xml version="1.0" encoding="UTF-8"?>
<svg width="36px" height="36px" viewBox="0 0 36 36" version="1.1" xmlns="http://www.w3.org/2000/svg" xmlns:xlink="http://www.w3.org/1999/xlink">
    <!-- Generator: Sketch 51.2 (57519) - http://www.bohemiancoding.com/sketch -->
    <title>icon_category-guard_xl_black</title>
    <desc>Created with Sketch.</desc>
    <defs></defs>
    <g id="icons" stroke="none" stroke-width="1" fill="none" fill-rule="evenodd">
        <g id="icon_category-guard_xl_black">
            <rect id="Rectangle" x="0" y="0" width="36" height="36"></rect>
            <g id="icon" transform="translate(2.000000, 2.000000)" fill="#0B1F35">
                <path d="M0,5.37289338 L16,0 L32,5.37289338 C29.8705729,23.1242978 24.5372396,32 16,32 C7.46276042,32 2.12942708,23.1242978 0,5.37289338 Z M1,6.02018558 C3.00340123,22.6733952 8.00555476,31 16.0064606,31 C24.0073664,31 29.0052129,22.6733952 31,6.02018558 L16.0064606,1 L1,6.02018558 Z" id="Combined-Shape"></path>
                <path d="M16,3 L29,7.33074339 C29,10.4692601 27.9780114,14.8023683 25.9340342,20.3300681 C23.890057,25.857768 20.5787123,28.7476912 16,28.9998379 L16,3 Z" id="Rectangle-path" fill-rule="nonzero" opacity="0.3"></path>
            </g>
        </g>
    </g>
</svg>