<svg width="48" height="48" fill="none" xmlns="http://www.w3.org/2000/svg"><path d="M17 18h-3v3h-3v3h3v3h3v-3h3v-3h-3v-3zM34 19.5a1.5 1.5 0 11-3 0 1.5 1.5 0 013 0zM35.5 24a1.5 1.5 0 100-3 1.5 1.5 0 000 3zM34 25.5a1.5 1.5 0 11-3 0 1.5 1.5 0 013 0zM29.5 24a1.5 1.5 0 100-3 1.5 1.5 0 000 3zM23 2h2v8h-2z" fill="#fff" fill-opacity=".3"/><path fill-rule="evenodd" clip-rule="evenodd" d="M12.34 10c-3.482 0-6.42 2.629-6.851 6.132L3.042 35.978C2.647 39.176 5.107 42 8.285 42a5.254 5.254 0 003.978-1.83L17.588 34h12.824l5.325 6.17A5.254 5.254 0 0039.714 42c3.18 0 5.639-2.824 5.244-6.022l-2.447-19.846C42.08 12.629 39.142 10 35.66 10H12.34zm-.004 1a6.002 6.002 0 00-5.962 5.305L4.028 36.4a4.122 4.122 0 007.198 3.192L16.997 33h14.006l5.77 6.593a4.124 4.124 0 007.199-3.192l-2.346-20.096A6.001 6.001 0 0035.664 11H12.336z" fill="#fff"/></svg>