<svg width="24" height="24" viewBox="0 0 24 24" xmlns="http://www.w3.org/2000/svg"><g fill="none" fill-rule="evenodd"><path d="M0 0h24v24H0z"/><path d="M21 12.949c1.14-.232 2-1.242 2-2.449C23 9.122 21.879 8 20.5 8a2.503 2.503 0 0 0-2.5 2.5c0 1.207.86 2.217 2 2.449V16.5c0 3.033-2.468 5.5-5.5 5.5A5.506 5.506 0 0 1 9 16.5v-1.59c2.833-.478 5-2.942 5-5.91V1h-3v1h2v7c0 2.757-2.243 5-5 5s-5-2.243-5-5V2h2V1H2v8c0 3.309 2.691 6 6 6v1.5c0 3.584 2.916 6.5 6.5 6.5s6.5-2.916 6.5-6.5v-3.551zM19 10.5c0-.827.673-1.5 1.5-1.5s1.5.673 1.5 1.5-.673 1.5-1.5 1.5-1.5-.673-1.5-1.5z" fill="#FFF"/><path fill="#FFF" opacity=".3" d="M2.5 9h11v1h-11z"/></g></svg>