<svg width="48" height="48" viewBox="0 0 48 48" fill="none" xmlns="http://www.w3.org/2000/svg">
<rect width="48" height="48" fill="none"/>
<path fill-rule="nonzero" clip-rule="nonzero" d="M24 48C37.2548 48 48 37.2548 48 24C48 10.7452 37.2548 0 24 0C10.7452 0 0 10.7452 0 24C0 37.2548 10.7452 48 24 48Z" fill="#5C85AD" fill-opacity="0.07"/>
<path d="M14.8843 16.7795C14.7115 15.6886 15.4558 14.6641 16.5468 14.4913L30.3008 12.3129C31.3918 12.1401 32.4163 12.8844 32.5891 13.9754L33.7985 21.6116C33.9713 22.7026 33.227 23.7271 32.136 23.8999L18.382 26.0783C17.291 26.2511 16.2665 25.5067 16.0938 24.4158L14.8843 16.7795Z" fill="#5C85AD"/>
<rect x="12" y="17" width="23" height="19" rx="2.4" fill="#A5C2D6"/>
<rect x="25" y="23" width="12" height="7" rx="2.4" fill="#D2E0EB"/>
<path fill-rule="nonzero" clip-rule="nonzero" d="M34.5 28C35.3284 28 36 27.3284 36 26.5C36 25.6716 35.3284 25 34.5 25C33.6716 25 33 25.6716 33 26.5C33 27.3284 33.6716 28 34.5 28Z" fill="#5C85AD"/>
</svg>
