<svg width="18" height="18" viewBox="0 0 18 18" fill="none" xmlns="http://www.w3.org/2000/svg">
<rect width="18" height="18" fill="none"/>
<path d="M3.43539 6.35075C3.28342 6.24677 3.08357 6.38604 3.12851 6.56462L4.5 14H13.5L14.8708 6.56462C14.9157 6.38604 14.7159 6.24677 14.5639 6.35075L12.4226 7.81589C12.4726 7.95111 12.5 8.09736 12.5 8.25C12.5 8.94036 11.9404 9.5 11.25 9.5C10.5596 9.5 10 8.94036 10 8.25C10 7.57878 10.5291 7.03112 11.1929 7.00128L9.40335 4.5524C9.20362 4.27908 8.7957 4.27908 8.59596 4.5524L6.80642 7.00125C7.47059 7.03075 8 7.57855 8 8.25C8 8.94036 7.44036 9.5 6.75 9.5C6.05964 9.5 5.5 8.94036 5.5 8.25C5.5 8.0975 5.52731 7.95138 5.5773 7.81626L3.43539 6.35075Z" fill="#FFFFFF"/>
</svg>
