<svg width="24" height="24" viewBox="0 0 24 24" xmlns="http://www.w3.org/2000/svg"><g fill="none" fill-rule="evenodd"><path d="M0 0h24v24H0z"/><path d="M5.5 23.006h13c1.379 0 2.5-1.122 2.5-2.5v-17c0-1.378-1.121-2.5-2.5-2.5h-13a2.503 2.503 0 0 0-2.5 2.5v17c0 1.378 1.121 2.5 2.5 2.5zM4 3.506c0-.827.673-1.5 1.5-1.5h13c.827 0 1.5.673 1.5 1.5v17c0 .827-.673 1.5-1.5 1.5h-13c-.827 0-1.5-.673-1.5-1.5v-17z" fill="#FFF"/><path d="M12 19c2.757 0 5-2.243 5-5s-2.243-5-5-5-5 2.243-5 5 2.243 5 5 5zm0-9c1.395 0 2.622.72 3.338 1.805A2.48 2.48 0 0 0 14 14a2.48 2.48 0 0 0 1.338 2.195A3.996 3.996 0 0 1 12 18c-2.206 0-4-1.794-4-4s1.794-4 4-4zm0-6h5v2h-5z" fill="#FFF" opacity=".3"/><circle fill="#FFF" opacity=".3" cx="8" cy="5" r="1.75"/></g></svg>