<svg xmlns="http://www.w3.org/2000/svg" width="48" height="48" viewBox="0 0 48 48" fill="none"><rect width="48" height="48" fill="none"/>
<g clip-path="url(#clip0)">
<path fill-rule="evenodd" clip-rule="evenodd" d="M26.9301 9.2895C28.6627 7.56164 30.9858 6.51227 33.4276 7.22736C33.4433 7.23197 33.4588 7.23733 33.4741 7.24341C34.3486 7.59256 35.3764 8.17119 36.0106 9.03162C36.3341 9.47052 36.5608 9.99096 36.5999 10.5895C36.6389 11.1882 36.4874 11.8232 36.1219 12.4869C35.9921 12.7227 35.7064 12.8212 35.4606 12.7149C34.6139 12.3489 33.1903 12.0639 32.0212 12.4666C31.4539 12.6621 30.9451 13.0187 30.5713 13.6205C30.1932 14.2292 29.9297 15.1268 29.9297 16.4387C29.9297 17.8758 30.0632 19.0867 30.4645 19.9251C30.6597 20.333 30.9108 20.636 31.2285 20.8402C31.5456 21.044 31.9656 21.1728 32.5372 21.1728C33.0615 21.1728 33.4447 21.0344 33.7341 20.8328C34.0283 20.6279 34.2542 20.3374 34.4262 19.9939C34.7766 19.2944 34.8682 18.4479 34.8856 17.9288C34.8991 17.5288 35.0394 17.1155 35.3391 16.7965L43.1322 8.50297C43.7582 7.83676 44.8686 7.82657 45.4388 8.626C48.4475 12.8444 48.9968 18.7164 47.1117 23.4129C45.2104 28.1496 40.8293 31.6909 34.0616 31.1655C33.7744 31.1432 33.5596 30.8903 33.5817 30.6007C33.6038 30.311 33.8545 30.0943 34.1416 30.1166C40.4289 30.6046 44.4036 27.3565 46.145 23.0181C47.9025 18.6395 47.3813 13.1509 44.5922 9.24038C44.4424 9.0304 44.1112 8.99038 43.8891 9.22668L36.0961 17.5202C35.9975 17.6252 35.9342 17.7807 35.928 17.9644C35.9088 18.5345 35.8101 19.5641 35.3571 20.4684C35.1275 20.9268 34.7983 21.3701 34.3268 21.6985C33.8505 22.0303 33.2573 22.2248 32.5372 22.2248C31.805 22.2248 31.182 22.0578 30.668 21.7274C30.1546 21.3975 29.7864 20.928 29.5253 20.3825C29.014 19.3143 28.8867 17.8951 28.8867 16.4387C28.8867 14.9901 29.1774 13.883 29.6875 13.0619C30.2018 12.234 30.9152 11.7359 31.6842 11.4711C32.9692 11.0284 34.4016 11.2357 35.4016 11.5693C35.5354 11.2241 35.5763 10.922 35.5591 10.6586C35.5355 10.2963 35.3993 9.96555 35.1736 9.65933C34.7138 9.03554 33.9089 8.55156 33.1133 8.23087C31.1675 7.67196 29.228 8.4773 27.6634 10.0376C26.0919 11.6048 24.981 13.863 24.7347 15.9746C24.7038 16.2395 24.4813 16.4392 24.2168 16.4392C23.9524 16.4392 23.7298 16.2395 23.6989 15.9746C23.4527 13.8639 22.3366 11.6058 20.7592 10.0383C19.1885 8.47746 17.243 7.6719 15.2969 8.23087C14.5013 8.55156 13.6964 9.03554 13.2366 9.65933C13.0109 9.96555 12.8747 10.2963 12.8511 10.6586C12.8339 10.922 12.8748 11.2241 13.0086 11.5693C14.0086 11.2357 15.441 11.0284 16.726 11.4711C17.495 11.7359 18.2084 12.234 18.7228 13.0619C19.2328 13.883 19.5235 14.9901 19.5235 16.4387C19.5235 17.8951 19.3962 19.3143 18.8849 20.3825C18.6238 20.928 18.2556 21.3975 17.7422 21.7274C17.2282 22.0578 16.6052 22.2248 15.8731 22.2248C15.1529 22.2248 14.5597 22.0303 14.0834 21.6985C13.6119 21.3701 13.2827 20.9268 13.0531 20.4684C12.6001 19.5641 12.5014 18.5345 12.4822 17.9644C12.476 17.7807 12.4127 17.6252 12.3141 17.5202L4.52104 9.22668C4.299 8.99038 3.96775 9.0304 3.81799 9.24038C1.02887 13.1509 0.507657 18.6395 2.2652 23.0181C4.0066 27.3565 7.98131 30.6046 14.2686 30.1166C14.5557 30.0943 14.8064 30.311 14.8285 30.6007C14.8506 30.8903 14.6358 31.1432 14.3486 31.1655C7.5809 31.6909 3.19974 28.1496 1.29846 23.4129C-0.586667 18.7164 -0.0373647 12.8444 2.97135 8.626C3.54153 7.82657 4.652 7.83676 5.27802 8.50297L13.0711 16.7965C13.3708 17.1155 13.5111 17.5288 13.5246 17.9288C13.542 18.4479 13.6336 19.2944 13.984 19.9939C14.156 20.3374 14.3819 20.6279 14.6761 20.8328C14.9655 21.0344 15.3487 21.1728 15.8731 21.1728C16.4446 21.1728 16.8646 21.044 17.1817 20.8402C17.4994 20.636 17.7505 20.333 17.9457 19.9251C18.347 19.0867 18.4805 17.8758 18.4805 16.4387C18.4805 15.1268 18.217 14.2292 17.839 13.6205C17.4651 13.0187 16.9563 12.6621 16.389 12.4666C15.2199 12.0639 13.7963 12.3489 12.9496 12.7149C12.7038 12.8212 12.4181 12.7227 12.2883 12.4869C11.9228 11.8232 11.7713 11.1882 11.8103 10.5895C11.8494 9.99096 12.0761 9.47052 12.3996 9.03162C13.0338 8.17119 14.0616 7.59256 14.9361 7.24341C14.9514 7.23733 14.9669 7.23197 14.9827 7.22736C17.4242 6.51233 19.7529 7.56149 21.4911 9.28884C22.6898 10.48 23.6471 12.0274 24.2161 13.6475C24.7827 12.028 25.7356 10.4807 26.9301 9.2895ZM14.3086 32.8787C14.5966 32.8787 14.8301 33.1142 14.8301 33.4047V34.8497C14.8301 35.8698 14.2415 36.6151 13.5074 37.0465C12.7844 37.4714 11.8735 37.6261 11.0796 37.4694C10.8331 37.4208 10.656 37.2019 10.6582 36.9486C10.665 36.1633 10.3944 35.6181 10.0218 35.2663C9.64129 34.9071 9.12034 34.7181 8.58412 34.7181C8.04794 34.7181 7.52407 34.9072 7.13894 35.268C6.76169 35.6213 6.48629 36.1682 6.48629 36.9537C6.48629 37.6169 6.69357 38.3018 7.1712 38.8713C7.64658 39.4382 8.41995 39.9264 9.61425 40.1444C11.6441 40.5147 13.683 39.5304 15.5745 38.2672L16.9432 37.3531C17.0781 37.2631 17.1856 37.085 17.2197 36.8408C17.3438 35.9532 17.7309 35.2747 18.2755 34.828C18.8153 34.3854 19.4802 34.1951 20.1211 34.2275C21.4072 34.2925 22.6524 35.27 22.6524 36.9532C22.6524 38.2484 21.9754 39.1731 20.6315 40.2575C20.6197 40.267 20.6075 40.276 20.595 40.2845L16.128 43.2883C15.848 43.4766 15.8445 43.8257 16.0378 44.0013C18.3871 46.1369 21.2617 46.948 24.1934 46.948C27.126 46.948 30.0193 46.1364 32.3724 44.0007C32.5654 43.8255 32.5624 43.4767 32.2822 43.2883L27.8153 40.2845C27.8027 40.276 27.7905 40.267 27.7788 40.2575C26.4348 39.1731 25.7578 38.2484 25.7578 36.9532C25.7578 35.27 27.003 34.2925 28.2891 34.2275C28.93 34.1951 29.5949 34.3854 30.1347 34.828C30.6793 35.2747 31.0664 35.9532 31.1905 36.8408C31.2246 37.085 31.3322 37.2631 31.467 37.3531L32.8357 38.2672C34.7272 39.5304 36.7661 40.5147 38.7959 40.1443C39.9902 39.9264 40.7636 39.4382 41.239 38.8713C41.7166 38.3018 41.9239 37.6169 41.9239 36.9537C41.9239 36.1682 41.6485 35.6213 41.2712 35.268C40.8861 34.9072 40.3622 34.7181 39.8261 34.7181C39.2898 34.7181 38.7689 34.9071 38.3884 35.2663C38.0158 35.6181 37.7452 36.1633 37.752 36.9486C37.7542 37.2019 37.5771 37.4208 37.3306 37.4694C36.5367 37.6261 35.6258 37.4714 34.9028 37.0465C34.1687 36.6151 33.5801 35.8698 33.5801 34.8497V33.405C33.5801 33.1144 33.8136 32.8787 34.1016 32.8787C34.3896 32.8787 34.6231 33.1142 34.6231 33.4047V34.8497C34.6231 35.4076 34.9313 35.8457 35.4278 36.1375C35.8158 36.3655 36.2892 36.4824 36.7325 36.477C36.8229 35.6465 37.1679 34.9777 37.6756 34.4983C38.2699 33.9372 39.0547 33.666 39.8261 33.6661C40.5976 33.6661 41.3834 33.9373 41.981 34.4971C42.5865 35.0642 42.9669 35.8981 42.9669 36.9537C42.9669 37.8377 42.6892 38.771 42.0353 39.5508C41.379 40.3332 40.3741 40.9255 38.9816 41.1796C36.5196 41.6288 34.1745 40.423 32.2599 39.1443L30.8913 38.2303C30.4427 37.9307 30.2213 37.4425 30.1577 36.9877C30.0665 36.3351 29.7965 35.9066 29.4767 35.6443C29.1521 35.3781 28.7452 35.2578 28.3413 35.2782C27.5377 35.3188 26.8008 35.901 26.8008 36.9532C26.8008 37.7583 27.1634 38.4104 28.4128 39.4219L32.8608 42.413C33.6424 42.9386 33.8255 44.097 33.07 44.7827C30.4817 47.1319 27.318 48 24.1934 48C21.0683 48 17.9235 47.1316 15.3396 44.7828C14.5849 44.0968 14.7677 42.9386 15.5494 42.413L19.9974 39.4219C21.2468 38.4104 21.6094 37.7583 21.6094 36.9532C21.6094 35.901 20.8725 35.3188 20.0689 35.2782C19.665 35.2578 19.2581 35.3781 18.9335 35.6443C18.6137 35.9066 18.3437 36.3351 18.2525 36.9877C18.1889 37.4425 17.9676 37.9307 17.5189 38.2303L16.1503 39.1443C14.2357 40.423 11.8906 41.6288 9.4286 41.1796C8.03608 40.9255 7.03115 40.3332 6.37492 39.5508C5.72095 38.771 5.44332 37.8377 5.44332 36.9537C5.44332 35.8981 5.82373 35.0642 6.42921 34.4971C7.0268 33.9373 7.81259 33.6661 8.58407 33.6661C9.35552 33.666 10.1403 33.9372 10.7346 34.4983C11.2423 34.9777 11.5873 35.6465 11.6777 36.477C12.121 36.4824 12.5944 36.3655 12.9824 36.1375C13.4789 35.8457 13.7871 35.4076 13.7871 34.8497V33.405C13.7871 33.1144 14.0206 32.8787 14.3086 32.8787Z" fill="white"/>
<path d="M19.2051 24.0037C19.2051 22.8971 20.1022 22 21.2088 22H27.2014C28.308 22 29.2051 22.8971 29.2051 24.0037V29.5C29.2051 31.0241 27.9696 32.2596 26.4455 32.2596C25.9054 32.2596 25.3925 32.497 25.0429 32.9088L24.7452 33.2596C24.4623 33.5929 23.9479 33.5929 23.665 33.2596L23.3673 32.9088C23.0177 32.497 22.5048 32.2596 21.9647 32.2596C20.4406 32.2596 19.2051 31.0241 19.2051 29.5V24.0037Z" fill="white" fill-opacity="0.3"/>
<path d="M21.5226 7H26.8869C27.7547 5.82942 28.2023 5.25906 28.6818 4.41043C30.0089 2.0614 28.9156 -4.32215e-05 24.2054 6.79666e-10C19.4951 4.32242e-05 18.4012 2.06123 19.7283 4.41025C20.2078 5.25888 20.6547 5.53679 21.5226 7Z" fill="white" fill-opacity="0.3"/>
</g>
<defs>
<clipPath id="clip0">
<rect width="48" height="48" fill="white"/>
</clipPath>
</defs>
</svg>
