<?xml version="1.0" encoding="UTF-8"?>
<svg width="48px" height="48px" viewBox="0 0 48 48" version="1.1" xmlns="http://www.w3.org/2000/svg" xmlns:xlink="http://www.w3.org/1999/xlink">
    <!-- Generator: Sketch 51.2 (57519) - http://www.bohemiancoding.com/sketch -->
    <title>icon_category-tv_xxl_white</title>
    <desc>Created with Sketch.</desc>
    <defs></defs>
    <g id="icons" stroke="none" stroke-width="1" fill="none" fill-rule="evenodd">
        <g id="icon_category-tv_xxl_white">
            <rect id="Rectangle" x="0" y="0" width="48" height="48"></rect>
            <g id="icon" transform="translate(2.666667, 3.000000)">
                <path d="M3.33333333,5 L39.3333333,5 C40.9901876,5 42.3333333,6.34314575 42.3333333,8 L42.3333333,36 C42.3333333,37.6568542 40.9901876,39 39.3333333,39 L3.33333333,39 C1.67647908,39 0.333333333,37.6568542 0.333333333,36 L0.333333333,8 C0.333333333,6.34314575 1.67647908,5 3.33333333,5 Z M3.33333333,6 C2.22876383,6 1.33333333,6.8954305 1.33333333,8 L1.33333333,36 C1.33333333,37.1045695 2.22876383,38 3.33333333,38 L39.3333333,38 C40.4379028,38 41.3333333,37.1045695 41.3333333,36 L41.3333333,8 C41.3333333,6.8954305 40.4379028,6 39.3333333,6 L3.33333333,6 Z" id="Combined-Shape" fill="#FFFFFF"></path>
                <path d="M29.4673665,5 L25,0" id="Line" stroke="#FFFFFF" stroke-linecap="square" transform="translate(27.233683, 2.500000) scale(-1, 1) translate(-27.233683, -2.500000) "></path>
                <path d="M17.6666667,5 L13.3634847,0" id="Line" stroke="#FFFFFF" stroke-linecap="square"></path>
                <rect id="Rectangle-path" fill="#FFFFFF" opacity="0.2" x="0.333333333" y="10" width="41" height="24"></rect>
                <rect id="Rectangle-path" fill="#FFFFFF" x="11.3333333" y="41" width="20" height="1"></rect>
            </g>
        </g>
    </g>
</svg>