<svg width="49" height="48" viewBox="0 0 49 48" fill="none" xmlns="http://www.w3.org/2000/svg">
<rect width="48" height="48" fill="none"/>
<path fill-rule="evenodd" clip-rule="evenodd" d="M27.225 9.2895C28.9576 7.56164 31.2807 6.51227 33.7225 7.22736C33.7382 7.23197 33.7537 7.23733 33.769 7.24341C34.6435 7.59256 35.6713 8.17119 36.3055 9.03162C36.629 9.47052 36.8557 9.99096 36.8948 10.5895C36.9338 11.1882 36.7823 11.8232 36.4168 12.4869C36.287 12.7227 36.0013 12.8212 35.7555 12.7149C34.9088 12.3489 33.4852 12.0639 32.3161 12.4666C31.7488 12.6621 31.24 13.0187 30.8662 13.6205C30.4881 14.2292 30.2246 15.1268 30.2246 16.4387C30.2246 17.8758 30.3581 19.0867 30.7594 19.9251C30.9546 20.333 31.2057 20.636 31.5234 20.8402C31.8405 21.044 32.2605 21.1728 32.8321 21.1728C33.3564 21.1728 33.7396 21.0344 34.029 20.8328C34.3232 20.6279 34.5491 20.3374 34.7211 19.9939C35.0715 19.2944 35.1631 18.4479 35.1805 17.9288C35.194 17.5288 35.3343 17.1155 35.634 16.7965L43.4271 8.50297C44.0531 7.83676 45.1635 7.82657 45.7337 8.626C48.7424 12.8444 49.2917 18.7164 47.4066 23.4129C45.5053 28.1496 41.1242 31.6909 34.3565 31.1655C34.0693 31.1432 33.8545 30.8903 33.8766 30.6007C33.8987 30.311 34.1494 30.0943 34.4365 30.1166C40.7238 30.6046 44.6985 27.3565 46.4399 23.0181C48.1974 18.6395 47.6762 13.1509 44.8871 9.24038C44.7373 9.0304 44.4061 8.99038 44.184 9.22668L36.391 17.5202C36.2924 17.6252 36.2291 17.7807 36.2229 17.9644C36.2037 18.5345 36.105 19.5641 35.652 20.4684C35.4224 20.9268 35.0932 21.3701 34.6217 21.6985C34.1454 22.0303 33.5522 22.2248 32.8321 22.2248C32.0999 22.2248 31.4769 22.0578 30.9629 21.7274C30.4495 21.3975 30.0813 20.928 29.8202 20.3825C29.3089 19.3143 29.1816 17.8951 29.1816 16.4387C29.1816 14.9901 29.4723 13.883 29.9824 13.0619C30.4967 12.234 31.2101 11.7359 31.9791 11.4711C33.2641 11.0284 34.6965 11.2357 35.6965 11.5693C35.8303 11.2241 35.8712 10.922 35.854 10.6586C35.8304 10.2963 35.6942 9.96555 35.4685 9.65933C35.0087 9.03554 34.2038 8.55156 33.4082 8.23087C31.4624 7.67196 29.5229 8.4773 27.9583 10.0376C26.3868 11.6048 25.2759 13.863 25.0296 15.9746C24.9987 16.2395 24.7762 16.4392 24.5117 16.4392C24.2473 16.4392 24.0247 16.2395 23.9938 15.9746C23.7476 13.8639 22.6315 11.6058 21.0541 10.0383C19.4834 8.47746 17.5379 7.6719 15.5918 8.23087C14.7962 8.55156 13.9913 9.03554 13.5315 9.65933C13.3058 9.96555 13.1696 10.2963 13.146 10.6586C13.1288 10.922 13.1697 11.2241 13.3035 11.5693C14.3035 11.2357 15.7359 11.0284 17.0209 11.4711C17.7899 11.7359 18.5033 12.234 19.0177 13.0619C19.5277 13.883 19.8184 14.9901 19.8184 16.4387C19.8184 17.8951 19.6911 19.3143 19.1798 20.3825C18.9187 20.928 18.5505 21.3975 18.0371 21.7274C17.5231 22.0578 16.9001 22.2248 16.168 22.2248C15.4478 22.2248 14.8546 22.0303 14.3783 21.6985C13.9068 21.3701 13.5776 20.9268 13.348 20.4684C12.895 19.5641 12.7963 18.5345 12.7771 17.9644C12.7709 17.7807 12.7076 17.6252 12.609 17.5202L4.81596 9.22668C4.59392 8.99038 4.26267 9.0304 4.11291 9.24038C1.32379 13.1509 0.802577 18.6395 2.56012 23.0181C4.30152 27.3565 8.27623 30.6046 14.5635 30.1166C14.8506 30.0943 15.1013 30.311 15.1234 30.6007C15.1455 30.8903 14.9307 31.1432 14.6435 31.1655C7.87582 31.6909 3.49466 28.1496 1.59338 23.4129C-0.291746 18.7164 0.257556 12.8444 3.26627 8.626C3.83645 7.82657 4.94692 7.83676 5.57294 8.50297L13.366 16.7965C13.6657 17.1155 13.806 17.5288 13.8195 17.9288C13.8369 18.4479 13.9285 19.2944 14.2789 19.9939C14.4509 20.3374 14.6768 20.6279 14.971 20.8328C15.2604 21.0344 15.6436 21.1728 16.168 21.1728C16.7395 21.1728 17.1595 21.044 17.4766 20.8402C17.7943 20.636 18.0454 20.333 18.2406 19.9251C18.6419 19.0867 18.7754 17.8758 18.7754 16.4387C18.7754 15.1268 18.5119 14.2292 18.1339 13.6205C17.76 13.0187 17.2512 12.6621 16.6839 12.4666C15.5148 12.0639 14.0912 12.3489 13.2445 12.7149C12.9987 12.8212 12.713 12.7227 12.5832 12.4869C12.2177 11.8232 12.0662 11.1882 12.1052 10.5895C12.1443 9.99096 12.371 9.47052 12.6945 9.03162C13.3287 8.17119 14.3565 7.59256 15.231 7.24341C15.2463 7.23733 15.2618 7.23197 15.2776 7.22736C17.7191 6.51233 20.0478 7.56149 21.786 9.28884C22.9847 10.48 23.942 12.0274 24.511 13.6475C25.0776 12.028 26.0305 10.4807 27.225 9.2895ZM14.6035 32.8787C14.8915 32.8787 15.125 33.1142 15.125 33.4047V34.8497C15.125 35.8698 14.5364 36.6151 13.8023 37.0465C13.0793 37.4714 12.1684 37.6261 11.3745 37.4694C11.128 37.4208 10.9509 37.2019 10.9531 36.9486C10.9599 36.1633 10.6893 35.6181 10.3167 35.2663C9.93621 34.9071 9.41526 34.7181 8.87904 34.7181C8.34286 34.7181 7.81899 34.9072 7.43386 35.268C7.05661 35.6213 6.78121 36.1682 6.78121 36.9537C6.78121 37.6169 6.98849 38.3018 7.46612 38.8713C7.9415 39.4382 8.71487 39.9264 9.90917 40.1444C11.939 40.5147 13.9779 39.5304 15.8694 38.2672L17.2381 37.3531C17.373 37.2631 17.4805 37.085 17.5146 36.8408C17.6387 35.9532 18.0258 35.2747 18.5704 34.828C19.1102 34.3854 19.7751 34.1951 20.416 34.2275C21.7021 34.2925 22.9473 35.27 22.9473 36.9532C22.9473 38.2484 22.2703 39.1731 20.9264 40.2575C20.9146 40.267 20.9024 40.276 20.8899 40.2845L16.4229 43.2883C16.1429 43.4766 16.1394 43.8257 16.3327 44.0013C18.682 46.1369 21.5566 46.948 24.4883 46.948C27.4209 46.948 30.3142 46.1364 32.6673 44.0007C32.8603 43.8255 32.8573 43.4767 32.5771 43.2883L28.1102 40.2845C28.0976 40.276 28.0854 40.267 28.0737 40.2575C26.7297 39.1731 26.0527 38.2484 26.0527 36.9532C26.0527 35.27 27.2979 34.2925 28.584 34.2275C29.2249 34.1951 29.8898 34.3854 30.4296 34.828C30.9742 35.2747 31.3613 35.9532 31.4854 36.8408C31.5195 37.085 31.6271 37.2631 31.7619 37.3531L33.1306 38.2672C35.0221 39.5304 37.061 40.5147 39.0908 40.1443C40.2851 39.9264 41.0585 39.4382 41.5339 38.8713C42.0115 38.3018 42.2188 37.6169 42.2188 36.9537C42.2188 36.1682 41.9434 35.6213 41.5661 35.268C41.181 34.9072 40.6571 34.7181 40.121 34.7181C39.5847 34.7181 39.0638 34.9071 38.6833 35.2663C38.3107 35.6181 38.0401 36.1633 38.0469 36.9486C38.0491 37.2019 37.872 37.4208 37.6255 37.4694C36.8316 37.6261 35.9207 37.4714 35.1977 37.0465C34.4636 36.6151 33.875 35.8698 33.875 34.8497V33.405C33.875 33.1144 34.1085 32.8787 34.3965 32.8787C34.6845 32.8787 34.918 33.1142 34.918 33.4047V34.8497C34.918 35.4076 35.2262 35.8457 35.7227 36.1375C36.1107 36.3655 36.5841 36.4824 37.0274 36.477C37.1178 35.6465 37.4628 34.9777 37.9705 34.4983C38.5648 33.9372 39.3496 33.666 40.121 33.6661C40.8925 33.6661 41.6783 33.9373 42.2759 34.4971C42.8814 35.0642 43.2618 35.8981 43.2618 36.9537C43.2618 37.8377 42.9841 38.771 42.3302 39.5508C41.6739 40.3332 40.669 40.9255 39.2765 41.1796C36.8145 41.6288 34.4694 40.423 32.5548 39.1443L31.1862 38.2303C30.7376 37.9307 30.5162 37.4425 30.4526 36.9877C30.3614 36.3351 30.0914 35.9066 29.7716 35.6443C29.447 35.3781 29.0401 35.2578 28.6362 35.2782C27.8326 35.3188 27.0957 35.901 27.0957 36.9532C27.0957 37.7583 27.4583 38.4104 28.7077 39.4219L33.1557 42.413C33.9373 42.9386 34.1204 44.097 33.3649 44.7827C30.7766 47.1319 27.6129 48 24.4883 48C21.3632 48 18.2184 47.1316 15.6345 44.7828C14.8798 44.0968 15.0626 42.9386 15.8443 42.413L20.2923 39.4219C21.5417 38.4104 21.9043 37.7583 21.9043 36.9532C21.9043 35.901 21.1674 35.3188 20.3638 35.2782C19.9599 35.2578 19.553 35.3781 19.2284 35.6443C18.9086 35.9066 18.6386 36.3351 18.5474 36.9877C18.4838 37.4425 18.2625 37.9307 17.8138 38.2303L16.4452 39.1443C14.5306 40.423 12.1855 41.6288 9.72352 41.1796C8.331 40.9255 7.32607 40.3332 6.66984 39.5508C6.01587 38.771 5.73824 37.8377 5.73824 36.9537C5.73824 35.8981 6.11865 35.0642 6.72413 34.4971C7.32172 33.9373 8.10751 33.6661 8.87899 33.6661C9.65044 33.666 10.4352 33.9372 11.0295 34.4983C11.5372 34.9777 11.8822 35.6465 11.9726 36.477C12.4159 36.4824 12.8893 36.3655 13.2773 36.1375C13.7738 35.8457 14.082 35.4076 14.082 34.8497V33.405C14.082 33.1144 14.3155 32.8787 14.6035 32.8787Z" fill="white"/>
<path d="M19.5 24.0037C19.5 22.8971 20.3971 22 21.5037 22H27.4963C28.6029 22 29.5 22.8971 29.5 24.0037V29.5C29.5 31.0241 28.2645 32.2596 26.7404 32.2596C26.2003 32.2596 25.6874 32.497 25.3378 32.9088L25.0401 33.2596C24.7572 33.5929 24.2428 33.5929 23.9599 33.2596L23.6622 32.9088C23.3126 32.497 22.7997 32.2596 22.2596 32.2596C20.7355 32.2596 19.5 31.0241 19.5 29.5V24.0037Z" fill="white" fill-opacity="0.3"/>
<path d="M21.8175 7H27.1818C28.0496 5.82942 28.4972 5.25906 28.9767 4.41043C30.3038 2.0614 29.2105 -4.32215e-05 24.5003 6.79666e-10C19.79 4.32242e-05 18.6961 2.06123 20.0232 4.41025C20.5027 5.25888 20.9496 5.53679 21.8175 7Z" fill="white" fill-opacity="0.3"/>
</svg>
