<svg xmlns="http://www.w3.org/2000/svg" viewBox="0 0 48 48"><defs><style>.cls-1{fill:none;}.cls-2{opacity:0.3;}.cls-3{fill:#0b1f35;}</style></defs><title>icon_balance-transfer_xxl_black</title><g id="Layer_2" data-name="Layer 2"><rect class="cls-1" width="48" height="48"/><g class="cls-2"><rect class="cls-3" x="12.01" y="19" width="8" height="4"/><rect class="cls-3" x="6.01" y="9" width="36" height="4"/></g><path class="cls-3" d="M39.5,2H8.5A3.5,3.5,0,0,0,5,5.5v21A3.5,3.5,0,0,0,8.5,30H21.91l.6-1H8.5A2.51,2.51,0,0,1,6,26.5V5.5A2.5,2.5,0,0,1,8.5,3h31A2.5,2.5,0,0,1,42,5.5v21A2.51,2.51,0,0,1,39.5,29H25.83L32.9,16.75a.5.5,0,1,0-.86-.5L18,40.58a3.53,3.53,0,0,0-1.55-3.2,3.11,3.11,0,0,0-2.38-.25,7,7,0,0,0-4,3.4c-1.65,2.88-1.45,6,.45,7.1A2.8,2.8,0,0,0,12,48a3.56,3.56,0,0,0,.95-.13,7,7,0,0,0,4-3.4h0L24,32.17l7.1,12.3h0a7,7,0,0,0,4,3.4A3.56,3.56,0,0,0,36,48a2.8,2.8,0,0,0,1.43-.37c1.9-1.11,2.1-4.22.45-7.1a7,7,0,0,0-4-3.4,3.07,3.07,0,0,0-2.38.25A3.53,3.53,0,0,0,30,40.58l-5.43-9.41L25.25,30H39.5A3.5,3.5,0,0,0,43,26.5V5.5A3.5,3.5,0,0,0,39.5,2ZM16,44a6.16,6.16,0,0,1-3.35,2.93,2.11,2.11,0,0,1-1.62-.15C9.69,46,9.65,43.34,11,41a6.16,6.16,0,0,1,3.35-2.93A2.83,2.83,0,0,1,15,38a1.92,1.92,0,0,1,.94.23C17.31,39,17.35,41.67,16,44Zm16-5.74A1.92,1.92,0,0,1,33,38a2.83,2.83,0,0,1,.68.09A6.16,6.16,0,0,1,37,41c1.32,2.31,1.28,4.94-.09,5.73a2.11,2.11,0,0,1-1.62.15A6.16,6.16,0,0,1,32,44C30.65,41.67,30.69,39,32.06,38.24Z"/></g></svg>