<svg width="48" height="48" viewBox="0 0 48 48" fill="none" xmlns="http://www.w3.org/2000/svg">
<rect width="48" height="48" fill="none"/>
<path fill-rule="nonzero" clip-rule="nonzero" d="M24 48C37.2548 48 48 37.2548 48 24C48 10.7452 37.2548 0 24 0C10.7452 0 0 10.7452 0 24C0 37.2548 10.7452 48 24 48Z" fill="#5C85AD" fill-opacity="0.07"/>
<path d="M17.3357 40.4141L5.51868 18.1896L17.7525 11.6847L29.5695 33.9092L17.3357 40.4141Z" fill="#DCE8F0"/>
<path d="M15.4651 18.3957C15.0727 17.6577 14.145 17.3835 13.393 17.7834C12.641 18.1832 12.3495 19.1056 12.7419 19.8436C13.1343 20.5817 14.0621 20.8558 14.814 20.4559C15.566 20.0561 15.8575 19.1337 15.4651 18.3957Z" fill="#F8FAFB"/>
<path d="M22.7998 32.1902C22.4074 31.4522 21.4797 31.1781 20.7277 31.5779C19.9757 31.9778 19.6842 32.9002 20.0766 33.6382C20.469 34.3762 21.3967 34.6503 22.1487 34.2505C22.9007 33.8507 23.1922 32.9282 22.7998 32.1902Z" fill="#F8FAFB"/>
<path d="M22.193 25.9636C22.193 28.6146 20.0724 30.7636 17.4565 30.7636C14.8406 30.7636 12.72 28.6146 12.72 25.9636C12.72 23.3127 14.8406 21.1636 17.4565 21.1636C20.0724 21.1636 22.193 23.3127 22.193 25.9636Z" fill="#F8FAFB"/>
<path d="M16.7432 35.2807L16.304 10.1137L30.1575 9.87193L30.5968 35.0389L16.7432 35.2807Z" fill="#B8D1E0"/>
<path d="M25.0728 14.813C25.0582 13.9773 24.3561 13.3119 23.5045 13.3268C22.653 13.3416 21.9745 14.0311 21.9891 14.8669C22.0037 15.7026 22.7058 16.368 23.5573 16.3532C24.4089 16.3383 25.0874 15.6488 25.0728 14.813Z" fill="#F5F8FA"/>
<path d="M25.3454 30.4339C25.3308 29.5982 24.6287 28.9328 23.7771 28.9476C22.9256 28.9625 22.2471 29.652 22.2617 30.4878C22.2763 31.3235 22.9784 31.9889 23.83 31.9741C24.6815 31.9592 25.36 31.2697 25.3454 30.4339Z" fill="#F5F8FA"/>
<path d="M28.0729 22.2C28.0729 24.851 25.9523 27 23.3364 27C20.7206 27 18.6 24.851 18.6 22.2C18.6 19.549 20.7206 17.4 23.3364 17.4C25.9523 17.4 28.0729 19.549 28.0729 22.2Z" fill="#F5F8FA"/>
<path d="M18.5624 30.7132L28.8003 7.71855L41.4581 13.3542L31.2202 36.3489L18.5624 30.7132Z" fill="#5C85AD"/>
<path d="M34.7616 15.6834C35.1016 14.9198 34.7464 14.02 33.9684 13.6736C33.1903 13.3272 32.284 13.6654 31.944 14.4289C31.6041 15.1925 31.9592 16.0923 32.7372 16.4388C33.5153 16.7852 34.4216 16.447 34.7616 15.6834Z" fill="#F0F5F7"/>
<path d="M28.407 29.956C28.747 29.1924 28.3919 28.2926 27.6138 27.9462C26.8358 27.5997 25.9294 27.9379 25.5895 28.7015C25.2495 29.4651 25.6046 30.3649 26.3827 30.7113C27.1607 31.0577 28.0671 30.7196 28.407 29.956Z" fill="#F0F5F7"/>
<path d="M34.2495 22.0364C34.2495 24.4463 32.3217 26.4 29.9436 26.4C27.5656 26.4 25.6378 24.4463 25.6378 22.0364C25.6378 19.6264 27.5656 17.6727 29.9436 17.6727C32.3217 17.6727 34.2495 19.6264 34.2495 22.0364Z" fill="#F0F5F7"/>
</svg>
