<svg xmlns="http://www.w3.org/2000/svg" width="48" height="48" viewBox="0 0 48 48" fill="none"><rect width="48" height="48" fill="none"/>
<g clip-path="url(#clip0)">
<path d="M18 40H30V41H18V40Z" fill="#0B1F35" fill-opacity="0.3"/>
<path d="M18 43H30V44H18V43Z" fill="#0B1F35" fill-opacity="0.3"/>
<path fill-rule="evenodd" clip-rule="evenodd" d="M33.2886 30.714C35.0388 28.6163 36.0911 25.9189 36.0911 22.973C36.0911 16.2954 30.6778 10.8821 24.0001 10.8821C17.3225 10.8821 11.9092 16.2954 11.9092 22.973C11.9092 25.9189 12.9614 28.6163 14.7116 30.7139C16.5554 32.9238 18.4546 35.6886 18.4546 38.9269V44C18.4546 45.6569 19.7977 47 21.4546 47H26.5455C28.2024 47 29.5455 45.6569 29.5455 44V38.927C29.5455 35.6887 31.4448 32.9239 33.2886 30.714ZM34.0565 31.3546C32.2269 33.5474 30.5455 36.0713 30.5455 38.927V44C30.5455 46.2092 28.7547 48 26.5455 48H21.4546C19.2455 48 17.4546 46.2092 17.4546 44V38.9269C17.4546 36.0712 15.7733 33.5473 13.9437 31.3546C12.0491 29.0839 10.9092 26.1616 10.9092 22.973C10.9092 15.7431 16.7702 9.88208 24.0001 9.88208C31.23 9.88208 37.0911 15.7431 37.0911 22.973C37.0911 26.1616 35.9511 29.0839 34.0565 31.3546Z" fill="#0B1F35"/>
<path d="M24 6.54566L24 0" stroke="#0B1F35" stroke-opacity="0.3"/>
<path d="M6.54546 25.1995L0 25.1995" stroke="#0B1F35" stroke-opacity="0.3"/>
<path d="M10.6283 11.3038L6 6.67542" stroke="#0B1F35" stroke-opacity="0.3"/>
<path d="M41.4545 25.4104L48 25.4104" stroke="#0B1F35" stroke-opacity="0.3"/>
<path d="M37.3717 11.3038L42 6.67542" stroke="#0B1F35" stroke-opacity="0.3"/>
</g>
<defs>
<clipPath id="clip0">
<path d="M0 0H48V48H0V0Z" fill="white"/>
</clipPath>
</defs>
</svg>
