<svg width="36" height="36" viewBox="0 0 36 36" xmlns="http://www.w3.org/2000/svg"><g fill="none" fill-rule="evenodd"><path d="M0 0h36v36H0z"/><path fill="#0B1F35" opacity=".4" d="M12.577 25.976l11.09-12.917.758.651-11.089 12.917z"/><path d="M23 27c1.654 0 3-1.346 3-3s-1.346-3-3-3-3 1.346-3 3 1.346 3 3 3zm0-5a2 2 0 1 1 .001 3.999A2 2 0 0 1 23 22zm-9-4c1.654 0 3-1.346 3-3s-1.346-3-3-3-3 1.346-3 3 1.346 3 3 3zm0-5a2 2 0 1 1 .001 3.999A2 2 0 0 1 14 13z" fill="#0B1F35" opacity=".3"/><path d="M33 19.5c0-7.826-6.237-14.208-14-14.475V0h-1v5.025C10.237 5.292 4 11.674 4 19.5c0 4.5 2.061 8.528 5.288 11.189l-2.4 3.328.812.586 2.39-3.314a14.414 14.414 0 0 0 16.64.135l2.322 3.22.812-.585-2.333-3.235C30.859 28.166 33 24.081 33 19.5zM18.5 33C11.056 33 5 26.944 5 19.5S11.056 6 18.5 6 32 12.056 32 19.5 25.944 33 18.5 33z" fill="#0B1F35"/><path d="M12.091 2.932l-.709-1.87a20.187 20.187 0 0 0-7.713 5.245l1.477 1.349a18.184 18.184 0 0 1 6.945-4.724zm13.525-1.87l-.709 1.87a18.192 18.192 0 0 1 6.945 4.724l1.477-1.349a20.202 20.202 0 0 0-7.713-5.245z" fill="#0B1F35" opacity=".3"/></g></svg>