<svg width="36" height="36" viewBox="0 0 36 36" fill="none" xmlns="http://www.w3.org/2000/svg">
<path fill-rule="evenodd" clip-rule="evenodd" d="M20.0438 6.96712C21.3432 5.67123 23.0855 4.8842 24.9168 5.42052C24.9286 5.42398 24.9403 5.428 24.9517 5.43256C25.6076 5.69442 26.3784 6.12839 26.8541 6.77372C27.0968 7.10289 27.2668 7.49322 27.2961 7.94215C27.3253 8.39112 27.2118 8.86742 26.9376 9.36516C26.8402 9.542 26.626 9.61587 26.4417 9.53618C25.8066 9.26165 24.7389 9.04794 23.8621 9.34997C23.4366 9.49656 23.055 9.76405 22.7746 10.2154C22.491 10.6719 22.2935 11.3451 22.2935 12.329C22.2935 13.4069 22.3936 14.315 22.6946 14.9438C22.841 15.2497 23.0292 15.477 23.2675 15.6301C23.5054 15.783 23.8204 15.8796 24.249 15.8796C24.6423 15.8796 24.9297 15.7758 25.1468 15.6246C25.3674 15.4709 25.5368 15.253 25.6658 14.9954C25.9287 14.4708 25.9973 13.8359 26.0104 13.4466C26.0205 13.1466 26.1257 12.8366 26.3505 12.5974L32.1953 6.37723C32.6648 5.87757 33.4977 5.86993 33.9253 6.4695C36.1818 9.63329 36.5938 14.0373 35.18 17.5597C33.754 21.1122 30.4681 23.7682 25.3924 23.3741C25.177 23.3574 25.0158 23.1678 25.0324 22.9505C25.049 22.7333 25.237 22.5707 25.4524 22.5874C30.1678 22.9535 33.1489 20.5173 34.4549 17.2636C35.7731 13.9796 35.3822 9.86315 33.2903 6.93029C33.178 6.7728 32.9296 6.74278 32.763 6.92001L26.9182 13.1402C26.8443 13.2189 26.7968 13.3355 26.7922 13.4733C26.7778 13.9009 26.7037 14.6731 26.364 15.3513C26.1918 15.6951 25.9449 16.0276 25.5913 16.2739C25.2341 16.5227 24.7892 16.6686 24.249 16.6686C23.6999 16.6686 23.2327 16.5433 22.8472 16.2956C22.4621 16.0481 22.186 15.696 21.9901 15.2869C21.6067 14.4857 21.5112 13.4213 21.5112 12.329C21.5112 11.2426 21.7292 10.4123 22.1118 9.79644C22.4975 9.1755 23.0326 8.80196 23.6093 8.6033C24.5731 8.27129 25.6474 8.42674 26.3974 8.67699C26.4977 8.41808 26.5284 8.19148 26.5155 7.99392C26.4978 7.72224 26.3957 7.47416 26.2264 7.24449C25.8815 6.77666 25.2779 6.41367 24.6812 6.17315C23.2218 5.75397 21.7672 6.35798 20.5937 7.52821C19.4151 8.70361 18.582 10.3973 18.3972 11.981C18.3741 12.1796 18.2071 12.3294 18.0088 12.3294C17.8105 12.3294 17.6435 12.1796 17.6204 11.981C17.4357 10.3979 16.5986 8.70434 15.4156 7.5287C14.2376 6.35809 12.7784 5.75393 11.3188 6.17315C10.7221 6.41367 10.1185 6.77666 9.77361 7.24449C9.60432 7.47416 9.50218 7.72224 9.48447 7.99392C9.4716 8.19148 9.50228 8.41808 9.60261 8.67699C10.3526 8.42674 11.4269 8.27129 12.3907 8.6033C12.9674 8.80196 13.5025 9.1755 13.8882 9.79644C14.2708 10.4123 14.4888 11.2426 14.4888 12.329C14.4888 13.4213 14.3933 14.4857 14.0099 15.2869C13.814 15.696 13.5379 16.0481 13.1528 16.2956C12.7673 16.5433 12.3001 16.6686 11.751 16.6686C11.2108 16.6686 10.7659 16.5227 10.4087 16.2739C10.0551 16.0276 9.80823 15.6951 9.636 15.3513C9.29626 14.6731 9.22219 13.9009 9.20782 13.4733C9.20319 13.3355 9.15572 13.2189 9.08176 13.1402L3.23697 6.92001C3.07044 6.74278 2.82201 6.7728 2.70968 6.93029C0.617844 9.86315 0.226932 13.9796 1.54509 17.2636C2.85114 20.5173 5.83217 22.9535 10.5476 22.5874C10.763 22.5707 10.951 22.7333 10.9676 22.9505C10.9842 23.1678 10.823 23.3574 10.6076 23.3741C5.53186 23.7682 2.24599 21.1122 0.820037 17.5597C-0.59381 14.0373 -0.181833 9.63329 2.0747 6.4695C2.50234 5.86993 3.33519 5.87757 3.8047 6.37723L9.64949 12.5974C9.87427 12.8366 9.97952 13.1466 9.9896 13.4466C10.0027 13.8359 10.0713 14.4708 10.3342 14.9954C10.4632 15.253 10.6326 15.4709 10.8532 15.6246C11.0703 15.7758 11.3577 15.8796 11.751 15.8796C12.1796 15.8796 12.4946 15.783 12.7325 15.6301C12.9708 15.477 13.159 15.2497 13.3054 14.9438C13.6064 14.315 13.7065 13.4069 13.7065 12.329C13.7065 11.3451 13.509 10.6719 13.2254 10.2154C12.945 9.76405 12.5634 9.49656 12.1379 9.34997C11.2611 9.04794 10.1934 9.26165 9.55835 9.53618C9.37401 9.61587 9.15978 9.542 9.06238 9.36516C8.78824 8.86742 8.67466 8.39112 8.70393 7.94215C8.73319 7.49322 8.90324 7.10289 9.14588 6.77372C9.62155 6.12839 10.3924 5.69442 11.0483 5.43256C11.0597 5.428 11.0714 5.42398 11.0832 5.42052C12.9143 4.88425 14.6609 5.67112 15.9645 6.96663C16.8635 7.85999 17.5815 9.02058 18.0082 10.2356C18.4332 9.02097 19.1479 7.86054 20.0438 6.96712ZM10.5776 24.659C10.7936 24.659 10.9687 24.8357 10.9687 25.0535V26.1372C10.9687 26.9023 10.5273 27.4614 9.97672 27.7849C9.43446 28.1035 8.75129 28.2196 8.15584 28.1021C7.97101 28.0656 7.8382 27.9014 7.83984 27.7115C7.8449 27.1225 7.64194 26.7135 7.36255 26.4498C7.07716 26.1803 6.68645 26.0385 6.28428 26.0386C5.88214 26.0386 5.48924 26.1804 5.20039 26.451C4.91746 26.716 4.71091 27.1262 4.71091 27.7153C4.71091 28.2127 4.86637 28.7263 5.22459 29.1535C5.58112 29.5786 6.16115 29.9448 7.05688 30.1083C8.57923 30.386 10.1084 29.6478 11.5271 28.7004L12.5536 28.0149C12.6547 27.9473 12.7354 27.8137 12.761 27.6306C12.8541 26.9649 13.1444 26.456 13.5528 26.121C13.9577 25.789 14.4563 25.6463 14.937 25.6706C15.9016 25.7194 16.8355 26.4525 16.8355 27.7149C16.8355 28.6863 16.3277 29.3798 15.3198 30.1932C15.3109 30.2003 15.3018 30.207 15.2924 30.2133L11.9422 32.4662C11.7321 32.6075 11.7296 32.8692 11.8745 33.001C13.6365 34.6026 15.7924 35.211 17.9912 35.211C20.1906 35.211 22.3607 34.6023 24.1255 33.0005C24.2702 32.8691 24.2679 32.6075 24.0578 32.4662L20.7076 30.2133C20.6982 30.207 20.6891 30.2003 20.6802 30.1932C19.6723 29.3798 19.1646 28.6863 19.1646 27.7149C19.1646 26.4525 20.0984 25.7194 21.063 25.6706C21.5437 25.6463 22.0423 25.789 22.4472 26.121C22.8556 26.456 23.1459 26.9649 23.239 27.6306C23.2647 27.8137 23.3453 27.9473 23.4464 28.0149L24.4729 28.7004C25.8916 29.6478 27.4208 30.386 28.9431 30.1083C29.8388 29.9448 30.4189 29.5786 30.7754 29.1535C31.1336 28.7263 31.2891 28.2127 31.2891 27.7153C31.2891 27.1262 31.0825 26.716 30.7996 26.451C30.5108 26.1804 30.1179 26.0386 29.7157 26.0386C29.3136 26.0385 28.9228 26.1803 28.6374 26.4498C28.3581 26.7135 28.1551 27.1225 28.1602 27.7115C28.1618 27.9014 28.029 28.0656 27.8442 28.1021C27.2487 28.2196 26.5655 28.1035 26.0233 27.7849C25.4727 27.4614 25.0313 26.9023 25.0313 26.1372V25.0537C25.0313 24.8358 25.2064 24.659 25.4224 24.659C25.6384 24.659 25.8135 24.8357 25.8135 25.0535V26.1372C25.8135 26.5557 26.0447 26.8843 26.417 27.1031C26.7081 27.2741 27.063 27.3618 27.3955 27.3578C27.4633 26.7349 27.7221 26.2332 28.1029 25.8737C28.5486 25.4529 29.1372 25.2495 29.7158 25.2495C30.2944 25.2496 30.8837 25.453 31.3319 25.8728C31.786 26.2982 32.0713 26.9236 32.0713 27.7153C32.0713 28.3783 31.8631 29.0782 31.3726 29.6631C30.8804 30.2499 30.1267 30.6941 29.0824 30.8847C27.2358 31.2216 25.477 30.3172 24.0411 29.3583L23.0146 28.6727C22.6782 28.4481 22.5122 28.0819 22.4645 27.7408C22.396 27.2514 22.1936 26.9299 21.9537 26.7332C21.7102 26.5336 21.4051 26.4433 21.1021 26.4586C20.4994 26.4891 19.9468 26.9258 19.9468 27.7149C19.9468 28.3188 20.2187 28.8078 21.1558 29.5664L24.4917 31.8097C25.078 32.2039 25.2153 33.0727 24.6487 33.587C22.7075 35.3489 20.3346 36 17.9912 36C15.6474 36 13.2888 35.3487 11.3508 33.5871C10.7848 33.0726 10.922 32.204 11.5083 31.8097L14.8442 29.5664C15.7813 28.8078 16.0532 28.3188 16.0532 27.7149C16.0532 26.9258 15.5006 26.4891 14.8979 26.4586C14.5949 26.4433 14.2898 26.5336 14.0463 26.7332C13.8064 26.9299 13.604 27.2514 13.5355 27.7408C13.4878 28.0819 13.3218 28.4481 12.9854 28.6727L11.9589 29.3583C10.523 30.3172 8.76416 31.2216 6.91764 30.8847C5.87325 30.6941 5.11955 30.2499 4.62738 29.6631C4.1369 29.0782 3.92868 28.3783 3.92868 27.7153C3.92868 26.9236 4.21398 26.2982 4.6681 25.8728C5.11629 25.453 5.70563 25.2496 6.28424 25.2495C6.86283 25.2495 7.45139 25.4529 7.8971 25.8737C8.2779 26.2332 8.53667 26.7349 8.60447 27.3578C8.93696 27.3618 9.29194 27.2741 9.58297 27.1031C9.95534 26.8843 10.1865 26.5557 10.1865 26.1372V25.0537C10.1865 24.8358 10.3616 24.659 10.5776 24.659Z" fill="white"/>
<path d="M14.25 18.0028C14.25 17.1728 14.9228 16.5 15.7528 16.5H20.2472C21.0772 16.5 21.75 17.1728 21.75 18.0028V22.125C21.75 23.268 20.8234 24.1947 19.6803 24.1947C19.2752 24.1947 18.8905 24.3727 18.6284 24.6816L18.4051 24.9447C18.1929 25.1947 17.8071 25.1947 17.5949 24.9447L17.3716 24.6816C17.1095 24.3727 16.7248 24.1947 16.3197 24.1947C15.1766 24.1947 14.25 23.268 14.25 22.125V18.0028Z" fill="white" fill-opacity="0.46"/>
<path d="M15.9881 5.25H20.0113C20.6622 4.37207 20.9979 3.94429 21.3575 3.30782C22.3529 1.54605 21.5328 -3.24161e-05 18.0002 5.09675e-10C14.4675 3.24182e-05 13.647 1.54592 14.6424 3.30769C15.002 3.94416 15.3372 4.15259 15.9881 5.25Z" fill="white" fill-opacity="0.46"/>
</svg>
