<?xml version="1.0" encoding="UTF-8"?>
<svg width="36px" height="36px" viewBox="0 0 36 36" version="1.1" xmlns="http://www.w3.org/2000/svg" xmlns:xlink="http://www.w3.org/1999/xlink">
    <!-- Generator: Sketch 51.2 (57519) - http://www.bohemiancoding.com/sketch -->
    <title>icon_category-tv_xl_black</title>
    <desc>Created with Sketch.</desc>
    <defs></defs>
    <g id="icons" stroke="none" stroke-width="1" fill="none" fill-rule="evenodd">
        <g id="icon_category-tv_xl_black">
            <rect id="Rectangle" x="0" y="0" width="36" height="36"></rect>
            <g id="icon" transform="translate(2.000000, 1.500000)">
                <path d="M3,4.5 L29,4.5 C30.6568542,4.5 32,5.84314575 32,7.5 L32,27.5 C32,29.1568542 30.6568542,30.5 29,30.5 L3,30.5 C1.34314575,30.5 2.02906125e-16,29.1568542 0,27.5 L0,7.5 C-2.02906125e-16,5.84314575 1.34314575,4.5 3,4.5 Z M3,5.5 C1.8954305,5.5 1,6.3954305 1,7.5 L1,27.5 C1,28.6045695 1.8954305,29.5 3,29.5 L29,29.5 C30.1045695,29.5 31,28.6045695 31,27.5 L31,7.5 C31,6.3954305 30.1045695,5.5 29,5.5 L3,5.5 Z" id="Combined-Shape" fill="#0B1F35"></path>
                <path d="M22.1005249,4.5 L18,0" id="Line" stroke="#0B1F35" stroke-linecap="square" transform="translate(20.050262, 2.250000) scale(-1, 1) translate(-20.050262, -2.250000) "></path>
                <path d="M14,4.5 L10.0226135,0" id="Line" stroke="#0B1F35" stroke-linecap="square"></path>
                <rect id="Rectangle-path" fill="#0B1F35" opacity="0.2" x="1" y="8.5" width="30" height="18"></rect>
                <rect id="Rectangle-path" fill="#0B1F35" x="8" y="31.5" width="15" height="1"></rect>
            </g>
        </g>
    </g>
</svg>