<svg xmlns="http://www.w3.org/2000/svg" width="36" height="36" viewBox="0 0 36 36" fill="none"><rect width="36" height="36" fill="none"/>
<g clip-path="url(#clip0)">
<path fill-rule="evenodd" clip-rule="evenodd" d="M19.95 6.75277C21.2575 5.43903 23.031 4.6221 24.9072 5.17572C24.9224 5.18023 24.9375 5.18546 24.9523 5.1914C25.6127 5.45704 26.4009 5.90157 26.891 6.57138C27.1419 6.91435 27.3192 7.32327 27.3497 7.79451C27.3801 8.26575 27.2614 8.76133 26.9813 9.27375C26.8571 9.50085 26.5802 9.59568 26.3429 9.49232C25.7263 9.22377 24.6974 9.01987 23.8642 9.30908C23.4642 9.44792 23.1061 9.70024 22.8413 10.1298C22.5722 10.5662 22.3782 11.2207 22.3782 12.1935C22.3782 13.2712 22.4784 14.1612 22.7671 14.769C22.9065 15.0623 23.0819 15.2727 23.2978 15.4125C23.5128 15.5517 23.803 15.6438 24.2104 15.6438C24.8795 15.6438 25.2493 15.32 25.4858 14.8805C25.7393 14.4095 25.8231 13.8202 25.8452 13.409C25.8658 13.0269 25.9992 12.6246 26.292 12.3108L31.8492 6.35196C32.4475 5.71042 33.5366 5.69044 34.0713 6.48868C36.2249 9.70415 36.5713 14.092 35.1287 17.5893C33.6707 21.1239 30.3796 23.7522 25.3375 23.3579C25.0622 23.3363 24.8565 23.0957 24.878 22.8204C24.8995 22.5451 25.1402 22.3394 25.4155 22.3609C29.9934 22.719 32.899 20.3722 34.2042 17.208C35.5248 14.0066 35.2008 9.972 33.2404 7.04518C33.1101 6.85069 32.7971 6.80173 32.5805 7.034L27.0233 12.9928C26.9209 13.1026 26.8544 13.2664 26.8438 13.4628C26.8189 13.9252 26.724 14.6898 26.3664 15.3544C25.9918 16.0505 25.3181 16.6438 24.2104 16.6438C23.646 16.6438 23.1589 16.5138 22.7543 16.2519C22.3508 15.9906 22.0646 15.6208 21.8639 15.1981C21.4724 14.3741 21.3782 13.2888 21.3782 12.1935C21.3782 11.0933 21.5972 10.2422 21.9901 9.60496C22.3873 8.96079 22.9402 8.57124 23.5363 8.36437C24.4803 8.0367 25.5203 8.16803 26.2756 8.40316C26.3426 8.19715 26.3619 8.01663 26.3517 7.85907C26.3356 7.60876 26.2424 7.37843 26.0839 7.16182C25.7593 6.71816 25.1839 6.36553 24.6015 6.12824C23.209 5.72798 21.8074 6.3041 20.6588 7.45818C19.504 8.61856 18.6864 10.2933 18.5054 11.8564C18.4762 12.1086 18.2626 12.2989 18.0087 12.2989C17.7548 12.2989 17.5413 12.1086 17.5121 11.8564C17.3312 10.2941 16.5098 8.61949 15.3506 7.45881C14.1975 6.30426 12.7913 5.72792 11.3985 6.12824C10.8161 6.36553 10.2407 6.71816 9.91607 7.16182C9.7576 7.37843 9.6644 7.60876 9.64821 7.85907C9.63801 8.01663 9.65735 8.19715 9.7244 8.40316C10.4797 8.16803 11.5197 8.0367 12.4637 8.36437C13.0598 8.57124 13.6127 8.96079 14.0099 9.60496C14.4028 10.2422 14.6218 11.0933 14.6218 12.1935C14.6218 13.2888 14.5276 14.3741 14.1361 15.1981C13.9354 15.6208 13.6493 15.9906 13.2457 16.2519C12.8412 16.5138 12.354 16.6438 11.7896 16.6438C10.6819 16.6438 10.0082 16.0505 9.63356 15.3544C9.27591 14.6898 9.18106 13.9252 9.15616 13.4628C9.14559 13.2664 9.07904 13.1026 8.97668 12.9928L3.41942 7.034C3.20281 6.80173 2.88981 6.85069 2.75954 7.04518C0.799194 9.972 0.475172 14.0066 1.79573 17.208C3.10093 20.3722 6.00656 22.719 10.5846 22.3609C10.8599 22.3394 11.1005 22.5451 11.122 22.8204C11.1436 23.0957 10.9378 23.3363 10.6625 23.3579C5.62035 23.7522 2.32928 21.1239 0.871297 17.5893C-0.571317 14.092 -0.224992 9.70415 1.92869 6.48868C2.46335 5.69044 3.55243 5.71042 4.15074 6.35196L9.708 12.3108C10.0008 12.6246 10.1342 13.0269 10.1548 13.409C10.1769 13.8202 10.2607 14.4095 10.5142 14.8805C10.7507 15.32 11.1205 15.6438 11.7896 15.6438C12.197 15.6438 12.4872 15.5517 12.7022 15.4125C12.9181 15.2727 13.0935 15.0623 13.2329 14.769C13.5216 14.1612 13.6218 13.2712 13.6218 12.1935C13.6218 11.2207 13.4278 10.5662 13.1587 10.1298C12.8939 9.70024 12.5358 9.44792 12.1358 9.30908C11.3026 9.01987 10.2737 9.22377 9.65707 9.49232C9.41977 9.59568 9.14283 9.50085 9.01868 9.27375C8.73857 8.76133 8.6198 8.26575 8.65029 7.79451C8.68078 7.32327 8.85808 6.91435 9.10899 6.57138C9.59901 5.90157 10.3873 5.45704 11.0477 5.1914C11.0625 5.18546 11.0776 5.18023 11.0928 5.17572C12.9688 4.62217 14.7465 5.43887 16.0581 6.75214C16.892 7.58712 17.5708 8.65132 18.008 9.77711C18.4434 8.65177 19.119 7.58779 19.95 6.75277ZM10.6235 24.4304C10.8997 24.4304 11.1235 24.6543 11.1235 24.9304V26.02C11.1235 26.8282 10.6593 27.419 10.0854 27.7587C9.52286 28.0918 8.81467 28.2136 8.19382 28.0901C7.95827 28.0433 7.78929 27.8356 7.79134 27.5955C7.79616 27.03 7.60349 26.6486 7.34932 26.4068C7.08811 26.1583 6.72895 26.0261 6.35672 26.0262C5.98451 26.0262 5.62298 26.1584 5.35822 26.4083C5.1004 26.6516 4.90438 27.0345 4.90438 27.6001C4.90438 28.3728 5.28901 29.2058 6.32922 29.6527C7.24845 30.0476 8.23612 29.9708 9.26514 29.6111C10.3001 29.2494 11.3287 28.6181 12.2931 27.9691L12.4047 27.894C12.5454 27.7993 12.6576 27.6114 12.7096 27.3404C12.9669 26.0009 14.0142 25.3721 15.0227 25.4519C16.0186 25.5307 16.954 26.3075 16.954 27.5997C16.954 28.6174 16.4204 29.3384 15.409 30.1608C15.3977 30.1699 15.386 30.1786 15.374 30.1867L12.2399 32.3102C11.9709 32.4924 11.9799 32.8127 12.1541 32.964C13.8484 34.4353 15.8961 35.0008 17.9913 35.0008C20.0872 35.0008 22.1482 34.4349 23.8459 32.9633C24.0198 32.8125 24.0292 32.4925 23.7601 32.3102L20.626 30.1867C20.614 30.1786 20.6023 30.1699 20.5911 30.1608C19.5796 29.3384 19.046 28.6174 19.046 27.5997C19.046 26.3075 19.9814 25.5307 20.9773 25.4519C21.9858 25.3721 23.0332 26.0009 23.2904 27.3404C23.3424 27.6114 23.4546 27.7993 23.5953 27.894L23.7069 27.9691C24.6713 28.6181 25.6999 29.2494 26.7348 29.6111C27.7638 29.9708 28.7515 30.0476 29.6707 29.6527C30.7109 29.2058 31.0956 28.3728 31.0956 27.6001C31.0956 27.0345 30.8996 26.6516 30.6417 26.4083C30.377 26.1584 30.0154 26.0262 29.6432 26.0262C29.271 26.0261 28.9118 26.1583 28.6506 26.4068C28.3965 26.6486 28.2038 27.03 28.2086 27.5955C28.2107 27.8356 28.0417 28.0433 27.8061 28.0901C27.1853 28.2136 26.4771 28.0918 25.9146 27.7587C25.3407 27.419 24.8765 26.8282 24.8765 26.02V24.931C24.8765 24.6549 25.1003 24.4304 25.3765 24.4304C25.6526 24.4304 25.8765 24.6543 25.8765 24.9304V26.02C25.8765 26.3969 26.0806 26.6949 26.424 26.8982C26.6671 27.0422 26.9587 27.1229 27.2386 27.1356C27.3234 26.5342 27.583 26.0422 27.9614 25.6823C28.4268 25.2395 29.0408 25.0261 29.6433 25.0262C30.2458 25.0262 30.8604 25.2396 31.3281 25.6811C31.8028 26.129 32.0956 26.7831 32.0956 27.6001C32.0956 28.7348 31.5064 29.9525 30.0655 30.5715C28.8378 31.099 27.5746 30.964 26.4049 30.5551C25.241 30.1483 24.1229 29.4543 23.1486 28.7988L23.037 28.7237C22.5949 28.4262 22.3888 27.9479 22.3083 27.529C22.1498 26.7033 21.5705 26.4081 21.0562 26.4488C20.5294 26.4905 20.046 26.8788 20.046 27.5997C20.046 28.1588 20.2869 28.6215 21.2052 29.3712L24.321 31.4823C25.0544 31.9792 25.242 33.0765 24.5009 33.7189C22.5812 35.3829 20.2687 36.0008 17.9913 36.0008C15.7134 36.0008 13.4142 35.3827 11.4984 33.719C10.7583 33.0763 10.9455 31.9793 11.679 31.4823L14.7948 29.3713C15.7131 28.6215 15.954 28.1588 15.954 27.5997C15.954 26.8788 15.4706 26.4905 14.9438 26.4488C14.4295 26.4081 13.8502 26.7033 13.6917 27.529C13.6112 27.9479 13.4051 28.4262 12.963 28.7237L12.8514 28.7988C11.8771 29.4543 10.759 30.1483 9.5951 30.5551C8.42533 30.964 7.16215 31.099 5.93449 30.5715C4.4936 29.9525 3.90438 28.7348 3.90438 27.6001C3.90438 26.7831 4.19717 26.1291 4.67184 25.6811C5.13956 25.2396 5.75419 25.0262 6.35667 25.0262C6.95912 25.0261 7.57317 25.2395 8.03855 25.6823C8.4169 26.0422 8.67652 26.5342 8.76133 27.1356C9.04127 27.1229 9.33281 27.0422 9.57592 26.8982C9.91934 26.6949 10.1235 26.3969 10.1235 26.02V24.931C10.1235 24.6549 10.3474 24.4304 10.6235 24.4304Z" fill="#0B1F35"/>
<path d="M14.25 17.8465C14.25 17.0166 14.9228 16.3438 15.7528 16.3438H20.2472C21.0772 16.3438 21.75 17.0166 21.75 17.8465V21.9688C21.75 23.1118 20.8234 24.0385 19.6803 24.0385C19.2752 24.0385 18.8905 24.2165 18.6284 24.5254L18.4051 24.7885C18.1929 25.0385 17.8071 25.0385 17.5949 24.7885L17.3716 24.5254C17.1095 24.2165 16.7248 24.0385 16.3197 24.0385C15.1766 24.0385 14.25 23.1118 14.25 21.9688V17.8465Z" fill="#0B1F35" fill-opacity="0.3"/>
<path d="M16.0841 5H19.9157C20.5356 4.16388 20.8553 3.75647 21.1978 3.1503C22.1458 1.47243 21.3648 -3.08725e-05 18.0004 4.85475e-10C14.6359 3.08745e-05 13.8545 1.4723 14.8025 3.15018C15.145 3.75634 15.4642 3.95485 16.0841 5Z" fill="#0B1F35" fill-opacity="0.3"/>
</g>
<defs>
<clipPath id="clip0">
<rect width="36" height="36" fill="white"/>
</clipPath>
</defs>
</svg>
