<svg xmlns="http://www.w3.org/2000/svg" width="48" height="48" viewBox="0 0 48 48" fill="none"><rect width="48" height="48" fill="none"/>
<path fill-rule="evenodd" clip-rule="evenodd" d="M24.5 47C22.085 47 20.065 45.279 19.601 43H1V41H20.5C21.052 41 21.5 41.448 21.5 42C21.5 43.654 22.846 45 24.5 45C26.154 45 27.5 43.654 27.5 42C27.5 41.448 27.948 41 28.5 41H48V43H29.399C28.935 45.279 26.915 47 24.5 47Z" fill="white" fill-opacity="0.3"/>
<path fill-rule="evenodd" clip-rule="evenodd" d="M45.829 2H30.943C28.024 2 25.525 3.663 24.5 6.009C23.475 3.663 20.976 2 18.057 2H3.171C1.832 2 1 2.944 1 4.464V37.5C1 37.776 1.224 38 1.5 38H20.163C20.252 38.081 20.371 38.131 20.5 38.131C21.984 38.131 23.488 39.28 23.978 40.615C23.9 40.906 23.852 41.202 23.852 41.5C23.852 41.776 24.076 42 24.352 42H24.5H24.647C24.923 42 25.147 41.776 25.147 41.5C25.147 41.202 25.1 40.906 25.021 40.615C25.512 39.28 27.015 38.131 28.499 38.131C28.629 38.131 28.748 38.081 28.836 38H47.5C47.776 38 48 37.776 48 37.5V4.464C48 2.944 47.168 2 45.829 2ZM24 38.791C23.191 37.896 22.043 37.255 20.854 37.147C20.764 37.056 20.638 37 20.5 37H2V4.464C2 3.796 2.203 3 3.171 3H18.057C21.334 3 24 5.409 24 8.369V38.791ZM47 37H28.5C28.362 37 28.236 37.056 28.146 37.147C26.957 37.255 25.809 37.897 25 38.791V8.369C25 5.409 27.666 3 30.943 3H45.829C46.797 3 47 3.796 47 4.464V37Z" fill="white"/>
<path d="M18 12H8V15H18V12Z" fill="white" fill-opacity="0.3"/>
<path d="M18 19H8V22H18V19Z" fill="white" fill-opacity="0.3"/>
<path d="M18 26H8V29H18V26Z" fill="white" fill-opacity="0.3"/>
<path d="M41 12H31V15H41V12Z" fill="white" fill-opacity="0.3"/>
<path d="M41 19H31V22H41V19Z" fill="white" fill-opacity="0.3"/>
<path d="M41 26H31V29H41V26Z" fill="white" fill-opacity="0.3"/>
</svg>
