<svg xmlns="http://www.w3.org/2000/svg" width="24" height="24" viewBox="0 0 24 24" fill="none"><rect width="24" height="24" fill="none"/>
<g clip-path="url(#clip0)">
<path d="M9 21H15V22H9V21Z" fill="#0B1F35" fill-opacity="0.3"/>
<path d="M9 19H15V20H9V19Z" fill="#0B1F35" fill-opacity="0.3"/>
<path fill-rule="evenodd" clip-rule="evenodd" d="M16.2604 15.0367C17.0633 14.0745 17.5455 12.8382 17.5455 11.4866C17.5455 8.42395 15.0627 5.94116 12 5.94116C8.93738 5.94116 6.45459 8.42395 6.45459 11.4866C6.45459 12.8382 6.93683 14.0745 7.73971 15.0368C8.66881 16.1503 9.72733 17.6532 9.72733 19.4636V22C9.72733 22.5523 10.175 23 10.7273 23H13.2728C13.8251 23 14.2728 22.5523 14.2728 22V19.4636C14.2728 17.6531 15.3313 16.1503 16.2604 15.0367ZM17.0282 15.6774C16.1135 16.7737 15.2728 18.0357 15.2728 19.4636V22C15.2728 23.1046 14.3774 24 13.2728 24H10.7273C9.62276 24 8.72733 23.1046 8.72733 22V19.4636C8.72733 18.0357 7.88665 16.7738 6.97188 15.6774C6.02457 14.542 5.45459 13.0809 5.45459 11.4866C5.45459 7.87166 8.38509 4.94116 12 4.94116C15.615 4.94116 18.5455 7.87166 18.5455 11.4866C18.5455 13.0809 17.9755 14.542 17.0282 15.6774Z" fill="#0B1F35"/>
<path fill-rule="evenodd" clip-rule="evenodd" d="M12.5 4.37115e-08L12.5 3.27283L11.5 3.27283L11.5 0L12.5 4.37115e-08Z" fill="#0B1F35" fill-opacity="0.3"/>
<path fill-rule="evenodd" clip-rule="evenodd" d="M-4.37114e-08 12.0999L3.27273 12.0999L3.27273 13.0999L0 13.0999L-4.37114e-08 12.0999Z" fill="#0B1F35" fill-opacity="0.3"/>
<path fill-rule="evenodd" clip-rule="evenodd" d="M3.35359 2.98393L5.66776 5.2981L4.96065 6.00521L2.64648 3.69104L3.35359 2.98393Z" fill="#0B1F35" fill-opacity="0.3"/>
<path fill-rule="evenodd" clip-rule="evenodd" d="M24 12.2056L20.7273 12.2056L20.7273 13.2056L24 13.2056L24 12.2056Z" fill="#0B1F35" fill-opacity="0.3"/>
<path fill-rule="evenodd" clip-rule="evenodd" d="M21.3536 3.69099L19.0394 6.00516L18.3323 5.29806L20.6465 2.98389L21.3536 3.69099Z" fill="#0B1F35" fill-opacity="0.3"/>
</g>
<defs>
<clipPath id="clip0">
<path d="M0 0H24V24H0V0Z" fill="white"/>
</clipPath>
</defs>
</svg>
