<?xml version="1.0" encoding="UTF-8"?>
<svg width="24px" height="24px" viewBox="0 0 24 24" version="1.1" xmlns="http://www.w3.org/2000/svg" xmlns:xlink="http://www.w3.org/1999/xlink">
    <!-- Generator: Sketch 50.2 (55047) - http://www.bohemiancoding.com/sketch -->
    <title>icon_category_experiments_m_black</title>
    <desc>Created with Sketch.</desc>
    <defs></defs>
    <g id="Page-1" stroke="none" stroke-width="1" fill="none" fill-rule="evenodd">
        <g id="icon_category_experiments_m_black">
            <rect id="Rectangle-path" x="0" y="0" width="24" height="24"></rect>
            <path d="M15.75,1.5 L8.25,1.5 L8.5,1.5 L8.5,10.1561882 L2.67022451,18.5769751 C2.38077489,18.9950689 2.22570499,19.4914889 2.22570499,20 C2.22570499,21.3807119 3.34499312,22.5 4.72570499,22.5 L19.274295,22.5 C19.7828062,22.5 20.2792261,22.3449301 20.69732,22.0554805 C21.8325305,21.2695655 22.1156905,19.7121856 21.3297755,18.5769751 L15.5,10.1561882 L15.5,1.5 L15.75,1.5 Z" id="Combined-Shape" stroke="#0B1F35"></path>
            <rect id="Rectangle-9" fill="#0B1F35" x="9" y="4" width="4" height="1"></rect>
            <rect id="Rectangle-9" fill="#0B1F35" x="9" y="7" width="2" height="1"></rect>
            <path d="M9,14 L15,14 L18.3598156,18.0317787 C18.7840925,18.540911 18.7153036,19.2975886 18.2061713,19.7218655 C17.9905133,19.9015805 17.7186739,20 17.4379501,20 L6.56204994,20 C5.89930824,20 5.36204994,19.4627417 5.36204994,18.8 C5.36204994,18.5192762 5.4604694,18.2474367 5.6401844,18.0317787 L9,14 Z" id="Rectangle-13" fill="#0B1F35" opacity="0.300000012"></path>
        </g>
    </g>
</svg>