<svg xmlns="http://www.w3.org/2000/svg" width="24" height="24" viewBox="0 0 24 24" fill="none"><rect width="24" height="24" fill="none"/>
<g clip-path="url(#clip0)">
<path fill-rule="evenodd" clip-rule="evenodd" d="M20 3.5C20 2.1196 18.882 1 17.501 1L6.49903 0.999999C5.11801 0.999999 4 2.1196 4 3.5L4 14.29C4 15.1224 4.41426 15.9002 5.10499 16.3646L12 21.001L18.895 16.3646C19.5857 15.9002 20 15.1224 20 14.29L20 3.5ZM17.501 2C18.3291 2 19 2.67126 19 3.5L19 14.29C19 14.7894 18.7514 15.2561 18.337 15.5348L12 19.7959L5.663 15.5348C5.24856 15.2561 5 14.7894 5 14.29L5 3.5C5 2.67126 5.67092 2 6.49903 2L17.501 2Z" fill="#0B1F35"/>
<path d="M12 10.5C13.3807 10.5 14.5 9.38071 14.5 8C14.5 6.61929 13.3807 5.5 12 5.5C10.6193 5.5 9.5 6.61929 9.5 8C9.5 9.38071 10.6193 10.5 12 10.5Z" fill="#0B1F35" fill-opacity="0.3"/>
<path d="M23 21L1 21L1 24H23V21Z" fill="#0B1F35" fill-opacity="0.3"/>
</g>
<defs>
<clipPath id="clip0">
<rect width="24" height="24" fill="white" transform="matrix(-1 -8.74228e-08 -8.74228e-08 1 24 0)"/>
</clipPath>
</defs>
</svg>
