<svg width="48" height="48" viewBox="0 0 48 48" xmlns="http://www.w3.org/2000/svg"><g fill="none" fill-rule="evenodd"><path d="M0 0h48v48H0z"/><path d="M18 25c2.757 0 5-2.243 5-5s-2.243-5-5-5-5 2.243-5 5 2.243 5 5 5zm0-8a3 3 0 1 1 0 6 3 3 0 0 1 0-6zM30 27c-2.757 0-5 2.243-5 5s2.243 5 5 5 5-2.243 5-5-2.243-5-5-5zm0 8a3 3 0 1 1 0-6 3 3 0 0 1 0 6zM15.785 34.032L30.7 16.663l1.517 1.303-14.915 17.37z" fill="#0B1F35" opacity=".3"/><path d="M44 26c0-10.69-8.438-19.423-19-19.949V0h-2v6.051C12.438 6.577 4 15.31 4 26c0 6.39 3.024 12.076 7.703 15.74l-2.65 3.675 1.622 1.17 2.664-3.694A19.851 19.851 0 0 0 24 46c3.921 0 7.571-1.151 10.662-3.109l2.664 3.694 1.622-1.17-2.65-3.675C40.976 38.076 44 32.39 44 26zM24 45C13.523 45 5 36.477 5 26S13.523 7 24 7s19 8.523 19 19-8.523 19-19 19z" fill="#0B1F35"/><path d="M15.613 4.365L14.195.625A27.815 27.815 0 0 0 3.571 7.849l2.954 2.697a23.811 23.811 0 0 1 9.088-6.181zM33.802.625l-1.418 3.74a23.8 23.8 0 0 1 9.088 6.181l2.954-2.697A27.822 27.822 0 0 0 33.802.625z" fill="#0B1F35" opacity=".3"/></g></svg>