<svg width="24" height="24" fill="none" xmlns="http://www.w3.org/2000/svg"><path fill-rule="evenodd" clip-rule="evenodd" d="M12.972 16.496c0-1.273 1.778-1.475 2.043-.111.044.222.146.438.334.565 1.26.854 2.81 1.759 4.185 1.104.725-.346 1.012-.973 1.012-1.558 0-1.751-2.458-1.751-2.443 0-.626.125-1.466-.25-1.466-1v-2.002c6.352.5 7.955-7.005 4.779-10.758l-3.588 3.876c-.37.4-.535.944-.662 1.475-.129.546-.455 1.154-1.262 1.154-1.222 0-1.466-1.126-1.466-2.502 0-2.626 2.077-2.377 2.932-2.001.61-1.126-.331-1.822-1.117-2.14-2.06-.612-4.003 1.764-4.248 3.89-.244-2.126-2.198-4.502-4.258-3.89-.786.318-1.727 1.014-1.117 2.14.856-.376 2.932-.625 2.932 2 0 1.377-.244 2.503-1.466 2.503-.807 0-1.133-.608-1.263-1.154-.126-.53-.29-1.074-.661-1.475L2.584 2.736c-3.176 3.753-1.573 11.258 4.78 10.758v2.002c0 .75-.84 1.125-1.467 1 .015-1.751-2.443-1.751-2.443 0 0 .585.287 1.212 1.012 1.558 1.374.655 2.925-.25 4.185-1.104.188-.127.29-.343.334-.565.265-1.364 2.043-1.162 2.043.111 0 .5-.244.876-.855 1.376l-1.627 1.111c-.498.34-.588 1.049-.105 1.41 1.066.799 2.307 1.107 3.553 1.107 1.248 0 2.495-.309 3.565-1.108.482-.36.393-1.07-.105-1.409l-1.627-1.11c-.61-.501-.855-.877-.855-1.377zM10.617 9.5a.617.617 0 00-.617.617v2.454c0 .689.558 1.247 1.247 1.247.125 0 .243.056.322.153l.213.261a.281.281 0 00.436 0l.213-.26a.416.416 0 01.322-.154c.689 0 1.247-.558 1.247-1.247v-2.454a.617.617 0 00-.617-.617h-2.766z" fill="#0B1F35"/></svg>