<svg width="48" height="48" viewBox="0 0 48 48" xmlns="http://www.w3.org/2000/svg"><g fill="none" fill-rule="evenodd"><path d="M0 0h48v48H0z"/><path d="M37.5 46h-28C7.6 46 6 44.4 6 42.5v-37C6 3.6 7.6 2 9.5 2h21.2L41 12.3v30.2c0 1.9-1.6 3.5-3.5 3.5zM9.5 3C8.1 3 7 4.1 7 5.5v37C7 43.9 8.1 45 9.5 45h28c1.4 0 2.5-1.1 2.5-2.5V12.7L30.3 3H9.5z" fill="#0B1F35"/><path d="M31.1 29.4c0-3.2-1.9-5-6.5-6.1l-.6-.2v-7.5c2.3.3 3.8 1.7 4 3.8h2.8c-.1-3.4-2.9-5.9-6.8-6.3V11h-2v2c-4.1.3-7 2.8-7 6.3 0 3 1.8 4.8 6 5.9l1 .3v8c-2.7-.3-4.6-1.8-4.8-3.9h-2.8c.3 3.7 3.2 6.2 7.6 6.5v2h2V36c4.4-.5 7.1-2.9 7.1-6.6zM17.9 19.2c0-1.9 1.6-3.3 4.1-3.6v7c-2.9-.8-4.1-1.8-4.1-3.4zM24 33.4v-7.5c2.9.8 4.2 1.9 4.2 3.8 0 2-1.7 3.4-4.2 3.7z" fill="#0B1F35" opacity=".3"/></g></svg>