<svg height="18" viewBox="0 0 18 18" width="18" xmlns="http://www.w3.org/2000/svg"><g fill="none" fill-rule="evenodd"><path d="m-276-48h360v280h-360z" fill="#212a33"/><g opacity=".8"><path d="m0 0h18v18h-18z"/><g fill="#fff" transform="translate(2 1)"><path d="m6.86902089 4h-5.86902089v11h9v-8.18918819zm-5.86902089-1h6.25204069l3.74795931 3.36470092v8.63529908c0 .5522847-.4477153 1-1 1h-9c-.55228475 0-1-.4477153-1-1v-11c0-.55228475.44771525-1 1-1z" fill-rule="nonzero"/><path d="m10.2520407 1-.66803596-.255871.28501615.255871zm-.38301981 0 3.13097911 2.81081181v8.18918819h-2.5475431v1h2.5475431c.5522847 0 1-.4477153 1-1v-8.63529908l-3.7479593-3.36470092h-6.2520407c-.55228475 0-1 .44771525-1 1v2.59139258h1v-2.59139258zm3.46294321 3.10882992-.3319641-.744129v.44611089zm-.3319641-.29801811v-.44611089l.3319641.744129zm0 0v8.18918819h-2.5475431v1h2.5475431c.5522847 0 1-.4477153 1-1v-8.63529908l-3.7479593-3.36470092h-6.2520407c-.55228475 0-1 .44771525-1 1v2.59139258h1v-2.59139258h5.86902089zm-2.7479593-2.81081181-.66803596-.255871.28501615.255871z" fill-rule="nonzero"/><path d="m2 13 1.65052285-3.30104571c.12349463-.24698925.42383115-.34710142.6708204-.22360679.06471181.0323559.12163091.0783702.1668276.13486607l.94873664 1.18592083c.31858088.3982261.88876497.4867506 1.31309251.2038656l.31369271-.2091285c.22976435-.1531762.54019902-.0910893.69337525.1386751.00439927.0065989.00864091.0133015.01272132.0201022l1.23021072 2.0503512z" opacity=".3"/><rect height="2" opacity=".3" rx="1" width="2" x="5" y="7"/></g></g></g></svg>