<svg xmlns="http://www.w3.org/2000/svg" width="18" height="18" viewBox="0 0 18 18"><g fill="none" fill-rule="evenodd"><path d="M0 0h18v18H0z"/><path fill="#0B1F35" fill-rule="nonzero" d="M14.262 5.5h-1V2.059a.56.56 0 0 0-.56-.559H5.97L2.262 5.207V5.5h-1v-.707L5.555.5h7.148c.86 0 1.559.699 1.559 1.559V5.5zm-1.5 12h-10c-.827 0-1.5-.673-1.5-1.5h1a.5.5 0 0 0 .5.5h10a.5.5 0 0 0 .5-.5h1c0 .827-.673 1.5-1.5 1.5zm-11.5-4.313V7.5h1.953c.695 0 1.269.222 1.719.666.45.444.676 1.014.676 1.709v.941c0 .698-.226 1.268-.676 1.709-.45.441-1.023.662-1.72.662H1.263zm1.14-4.808v3.93h.755c.409 0 .729-.138.96-.414.233-.276.349-.636.349-1.081v-.948c0-.439-.116-.797-.348-1.073-.232-.276-.552-.414-.961-.414h-.754zm8.872 2.646c0 .715-.233 1.307-.698 1.774-.465.467-1.068.701-1.812.701-.738 0-1.337-.234-1.798-.701-.461-.467-.691-1.059-.691-1.774v-1.05c0-.713.229-1.304.689-1.772.459-.469 1.058-.703 1.796-.703.744 0 1.349.234 1.815.703.466.469.7 1.059.7 1.772v1.05h-.001zM10.072 9.97c0-.455-.116-.828-.35-1.119-.233-.292-.554-.438-.962-.438-.408 0-.726.145-.951.436-.225.291-.337.664-.337 1.121v1.059c0 .463.114.84.342 1.132.227.292.544.438.95.438.413 0 .734-.146.964-.438.23-.291.346-.669.346-1.132V9.97h-.002zm6.65 1.459l.009.024c.01.627-.177 1.126-.561 1.494-.384.368-.917.553-1.6.553-.684 0-1.24-.226-1.667-.677-.427-.451-.641-1.032-.641-1.742V9.923c0-.707.208-1.288.625-1.742.417-.454.958-.681 1.625-.681.703 0 1.253.185 1.648.555.396.37.589.874.578 1.512l-.008.024h-1.11c0-.385-.09-.679-.27-.883-.18-.204-.46-.306-.84-.306-.34 0-.716.142-.916.426-.2.284-.334.646-.334 1.086v1.165c0 .446.139.81.35 1.094.21.284.6.426.96.426.356 0 .62-.098.79-.294.172-.196.257-.488.257-.875h1.106v-.001z"/></g></svg>