<svg width="48" height="48" viewBox="0 0 48 48" fill="none" xmlns="http://www.w3.org/2000/svg">
<rect width="48" height="48" fill="none"/>
<path d="M41.4889 12.4487V44.5C41.4889 46.1569 40.1457 47.5 38.4889 47.5H10.5C8.84314 47.5 7.5 46.1569 7.5 44.5V3.5C7.5 1.84315 8.84315 0.5 10.5 0.5H30.7927L40.6113 10.3285C41.1732 10.891 41.4889 11.6536 41.4889 12.4487Z" fill="#F3F4F5" stroke="#E7E9EB"/>
<path fill-rule="evenodd" clip-rule="evenodd" d="M41.9889 14V11L31 0L10.5 1.1518e-07C8.56701 -5.38098e-08 7 1.56701 7 3.5L7 14H41.9889Z" fill="#4A90E2"/>
<path d="M11.6836 4.36328V10H13.9023C15.5898 10 16.5469 8.96875 16.5469 7.14453C16.5469 5.375 15.5781 4.36328 13.9023 4.36328H11.6836ZM12.8633 5.33594H13.7148C14.7383 5.33594 15.3438 6 15.3438 7.16406C15.3438 8.37109 14.7578 9.02734 13.7148 9.02734H12.8633V5.33594ZM20.1328 4.21875C18.4727 4.21875 17.418 5.35156 17.418 7.17969C17.418 9.00391 18.457 10.1445 20.1328 10.1445C21.7969 10.1445 22.8438 9.00391 22.8438 7.17969C22.8438 5.35547 21.793 4.21875 20.1328 4.21875ZM20.1328 5.21875C21.0469 5.21875 21.6367 5.98047 21.6367 7.17969C21.6367 8.375 21.0508 9.14453 20.1328 9.14453C19.2031 9.14453 18.625 8.375 18.625 7.17969C18.625 5.98047 19.2148 5.21875 20.1328 5.21875ZM26.3594 10.1445C27.7188 10.1445 28.7109 9.32031 28.8086 8.11719H27.6602C27.5469 8.73828 27.0391 9.13672 26.3633 9.13672C25.4727 9.13672 24.9219 8.38672 24.9219 7.17969C24.9219 5.97266 25.4727 5.22266 26.3594 5.22266C27.0312 5.22266 27.543 5.65234 27.6562 6.30469H28.8047C28.7188 5.09375 27.6953 4.21875 26.3594 4.21875C24.7227 4.21875 23.7148 5.34766 23.7148 7.17969C23.7148 9.01172 24.7266 10.1445 26.3594 10.1445Z" fill="white"/>
<path d="M36 19H12C11.4477 19 11 19.4477 11 20C11 20.5523 11.4477 21 12 21H36C36.5523 21 37 20.5523 37 20C37 19.4477 36.5523 19 36 19Z" fill="#B6BCC3"/>
<path d="M29 23H12C11.4477 23 11 23.4477 11 24C11 24.5523 11.4477 25 12 25H29C29.5523 25 30 24.5523 30 24C30 23.4477 29.5523 23 29 23Z" fill="#B6BCC3"/>
<path d="M34 27H12C11.4477 27 11 27.4477 11 28C11 28.5523 11.4477 29 12 29H34C34.5523 29 35 28.5523 35 28C35 27.4477 34.5523 27 34 27Z" fill="#B6BCC3"/>
<path d="M26 34H12C11.4477 34 11 34.4477 11 35C11 35.5523 11.4477 36 12 36H26C26.5523 36 27 35.5523 27 35C27 34.4477 26.5523 34 26 34Z" fill="#B6BCC3"/>
<path d="M31 38H12C11.4477 38 11 38.4477 11 39C11 39.5523 11.4477 40 12 40H31C31.5523 40 32 39.5523 32 39C32 38.4477 31.5523 38 31 38Z" fill="#B6BCC3"/>
<path opacity="0.6" d="M31 0L42 11H34.5C32.567 11 31 9.433 31 7.5V0Z" fill="white"/>
</svg>
