<?xml version="1.0" encoding="UTF-8"?>
<svg width="24px" height="24px" viewBox="0 0 24 24" version="1.1" xmlns="http://www.w3.org/2000/svg" xmlns:xlink="http://www.w3.org/1999/xlink">
    <!-- Generator: Sketch 48.1 (47250) - http://www.bohemiancoding.com/sketch -->
    <title>icon_account-default_m_black</title>
    <desc>Created with Sketch.</desc>
    <defs></defs>
    <g id="Page-1" stroke="none" stroke-width="1" fill="none" fill-rule="evenodd">
        <g id="icon_account-default_m_black">
            <polygon id="Shape" points="0 0 24 0 24 24 0 24"></polygon>
            <path d="M7,11 L17,11 L17,13 L7,13 L7,11 Z M7,7 L13,7 L13,9 L7,9 L7,7 Z M9,19 C7.8954305,19 7,18.1045695 7,17 C7,15.8954305 7.8954305,15 9,15 C10.1045695,15 11,15.8954305 11,17 C11,18.1045695 10.1045695,19 9,19 Z" id="Shape" fill-opacity="0.95" fill="#0B1F35" fill-rule="nonzero" opacity="0.35"></path>
            <path d="M19,23 L5,23 C3.9,23 3,22.1 3,21 L3,3 C3,1.9 3.9,1 5,1 L15.7,1 L21,6.3 L21,21 C21,22.1 20.1,23 19,23 Z M5,2 C4.4,2 4,2.4 4,3 L4,21 C4,21.6 4.4,22 5,22 L19,22 C19.6,22 20,21.6 20,21 L20,6.7 L15.3,2 L5,2 Z" id="Shape" fill-opacity="0.95" fill="#0B1F35" fill-rule="nonzero"></path>
        </g>
    </g>
</svg>