<svg height="36" viewBox="0 0 36 36" width="36" xmlns="http://www.w3.org/2000/svg"><g fill="none" fill-rule="evenodd"><path d="m-112-180h360v280h-360z" fill="#212a33"/><path d="m-112-40h360v140h-360z" fill="#fff"/><g opacity=".8"><path d="m0 0h36v36h-36z"/><g fill="#0b1f35" transform="translate(4 1)"><path d="m20.5147361.67556051.7373046.32443949h-.4400346zm.29727.32443949 6.1879939 6.75355646v17.24644354c0 1.1045695-.8954305 2-2 2h-3.4734881v1h3.4734881c1.6568542 0 3-1.3431458 3-3v-17.63529908l-6.7479593-7.36470092h-12.2520407c-1.65685425 0-3 1.34314575-3 3v2.70251632h1v-2.70251632c0-1.1045695.8954305-2 2-2zm6.4506894 7.04026143-.2626955-.67556051v.38885554zm-.2626955-.67556051.2626955.67556051-.2626955-.28670497zm0 17.63529908c0 1.1045695-.8954305 2-2 2h-3.4734881v1h3.4734881c1.6568542 0 3-1.3431458 3-3v-17.63529908l-6.7479593-7.36470092h-12.2520407c-1.65685425 0-3 1.34314575-3 3v2.70251632h1v-2.70251632c0-1.1045695.8954305-2 2-2h11.8120061l6.1879939 6.75355646zm-6.1879939-24h.4400346l-.7373046-.32443949z" fill-rule="nonzero"/><path d="m14.8120061 6h-11.8120061c-1.1045695 0-2 .8954305-2 2v22c0 1.1045695.8954305 2 2 2h16c1.1045695 0 2-.8954305 2-2v-17.2464435zm-11.8120061-1h12.2520407l6.7479593 7.3647009v17.6352991c0 1.6568542-1.3431458 3-3 3h-16c-1.65685425 0-3-1.3431458-3-3v-22c0-1.65685425 1.34314575-3 3-3z" fill-rule="nonzero"/><path d="m3.88648243 25.4929799 2.84960847-4.8443344c.42002923-.7140497 1.33938183-.9524004 2.05343152-.5323712.21110672.1241805.38859425.2981653.51695728.5067552l2.0799484 3.3799161c.289451.4703579.9053978.6170119 1.3757557.3275609.0445849-.0274368.0869464-.0583324.126694-.0924017l1.7736426-1.5202652c.4193259-.3594221 1.0506259-.3108606 1.410048.1084653.0212418.0247821.0412575.0505893.0599753.077329l1.7660327 2.5229038c.3167145.4524493.2066797 1.0759797-.2457696 1.3926942-.1680836.1176585-.3682903.1807681-.5734624.1807681h-12.33092776c-.55228475 0-1-.4477153-1-1 0-.1782928.04766776-.3533435.13806579-.5070201z" opacity=".3"/><rect height="4" opacity=".3" rx="2" width="4" x="12" y="14"/></g></g></g></svg>