<svg width="26" height="26" fill="none" xmlns="http://www.w3.org/2000/svg"><g clip-path="url(#clip0)" fill="#0B1F35"><path fill-rule="evenodd" clip-rule="evenodd" d="M17 26H4a4.005 4.005 0 01-3.998-3.874H0V6.293L6.293 0H17c2.206 0 4 1.794 4 4v5h-1V4c0-1.654-1.346-3-3-3H6.707L1 6.707V22c0 1.654 1.346 3 3 3h13c1.654 0 3-1.346 3-3h1c0 2.206-1.794 4-4 4z"/><path d="M8.751 16.133H6.742v2.876H5.8V11.9h2.692c.801 0 1.416.183 1.846.548.433.364.65.895.65 1.592 0 .442-.12.828-.362 1.157-.237.329-.57.574-.996.737l1.67 3.018v.058h-1.006l-1.543-2.876zm-2.009-.766h1.78c.465 0 .835-.12 1.108-.362.277-.24.415-.563.415-.966 0-.44-.132-.777-.395-1.011-.26-.235-.638-.353-1.133-.357H6.742v2.696zM17.343 17.154h-2.979l-.669 1.855h-.966l2.714-7.11h.82l2.72 7.11h-.962l-.678-1.855zm-2.695-.772h2.416l-1.21-3.325-1.206 3.325zM23.439 16.133h-2.061v2.876h-.943V11.9h2.745c.8 0 1.416.183 1.846.548.433.364.649.895.649 1.592 0 .442-.12.828-.361 1.157-.238.329-.57.574-.996.737l1.67 3.018v.058h-1.006l-1.543-2.876zm-2.061-.766h1.831c.466 0 .835-.12 1.109-.362.276-.24.415-.563.415-.966 0-.44-.132-.777-.396-1.011-.26-.235-.638-.353-1.133-.357h-1.826v2.696z"/></g><defs><clipPath id="clip0"><path fill="#fff" d="M0 0h26v26H0z"/></clipPath></defs></svg>