<svg width="24" height="24" fill="none" xmlns="http://www.w3.org/2000/svg"><path fill-rule="evenodd" clip-rule="evenodd" d="M20 19V4c0-1.103-.897-2-2-2H8.707L4 6.707V19H3V6.293L8.293 1H18c1.654 0 3 1.346 3 3v15h-1zm-2 4H6c-1.654 0-3-1.346-3-3v-1h1v1c0 1.103.897 2 2 2h12c1.103 0 2-.897 2-2v-1h1v1c0 1.654-1.346 3-3 3z" fill="#D5352B"/><path d="M11.83 15.155c-.554 0-.95.396-.95.957 0 .554.396.95.95.95.554 0 .943-.396.943-.95 0-.56-.389-.957-.943-.957zM11.98 7C10.059 7 9.075 8.176 9 9.652h1.169c.075-.978.731-1.586 1.764-1.586 1.019 0 1.675.622 1.675 1.47 0 .731-.308 1.162-1.101 1.647-.937.561-1.374 1.176-1.367 2.078v.629h1.196v-.444c0-.718.246-1.101 1.114-1.613.875-.526 1.429-1.285 1.429-2.358C14.879 8.067 13.703 7 11.98 7z" fill="#D5352B"/></svg>