<svg width="32" height="32" fill="none" xmlns="http://www.w3.org/2000/svg"><g clip-path="url(#clip0)" fill="#0B1F35"><path fill-rule="evenodd" clip-rule="evenodd" d="M21.558 32h-17a4.505 4.505 0 01-4.5-4.5V8.294L8.292 0h13.266c2.481 0 4.5 2.019 4.5 4.5V10h-1V4.5c0-1.93-1.57-3.5-3.5-3.5H8.708l-7.65 7.706V27.5c0 1.93 1.57 3.5 3.5 3.5h17c1.93 0 3.5-1.57 3.5-3.5V26h1v1.5c0 2.481-2.019 4.5-4.5 4.5z"/><path d="M9.788 18.36H7.18V22H6v-9h3.463c1.004 0 1.775.23 2.313.692.543.462.814 1.133.814 2.015 0 .56-.15 1.05-.453 1.465-.297.417-.713.728-1.248.934l2.093 3.82V22h-1.26l-1.934-3.64zm-2.607-.971H9.5c.583 0 1.046-.153 1.39-.458.346-.305.52-.713.52-1.224 0-.556-.166-.982-.496-1.28-.327-.296-.8-.446-1.42-.45H7.18v3.412zM20.465 19.651h-3.732L15.895 22h-1.212l3.402-9h1.028l3.409 9h-1.206l-.85-2.349zm-3.377-.977h3.029l-1.518-4.209-1.511 4.21zM28.288 18.36h-2.575V22h-1.181v-9h3.431c1.004 0 1.775.23 2.313.692.543.462.814 1.134.814 2.015 0 .56-.15 1.05-.453 1.465-.297.417-.713.728-1.248.934l2.093 3.82V22h-1.26l-1.934-3.64zm-2.575-.971H28c.583 0 1.046-.153 1.39-.458.346-.305.52-.713.52-1.224 0-.556-.166-.982-.497-1.28-.326-.296-.799-.446-1.42-.45h-2.28v3.412z"/></g><defs><clipPath id="clip0"><path fill="#fff" d="M0 0h32v32H0z"/></clipPath></defs></svg>