<svg xmlns="http://www.w3.org/2000/svg" width="35" height="48" viewBox="0 0 35 48" fill="none"><rect width="48" height="48" fill="none"/>
<path d="M34.4889 12.4487V44.5C34.4889 46.1569 33.1457 47.5 31.4889 47.5H3.5C1.84314 47.5 0.5 46.1569 0.5 44.5V3.5C0.5 1.84315 1.84315 0.5 3.5 0.5H23.7927L33.6113 10.3285C34.1732 10.891 34.4889 11.6536 34.4889 12.4487Z" fill="#F3F4F5" stroke="#E7E9EB"/>
<path fill-rule="evenodd" clip-rule="evenodd" d="M34.9888 14L34.9888 11L23.9999 4.76137e-06L3.49991 4.87655e-06C1.56692 4.70756e-06 -8.66511e-05 1.56701 -8.68201e-05 3.5L-8.7738e-05 14L34.9888 14Z" fill="#4A90E2"/>
<path d="M4.68359 4.36328V10H6.90234C8.58984 10 9.54688 8.96875 9.54688 7.14453C9.54688 5.375 8.57812 4.36328 6.90234 4.36328H4.68359ZM5.86328 5.33594H6.71484C7.73828 5.33594 8.34375 6 8.34375 7.16406C8.34375 8.37109 7.75781 9.02734 6.71484 9.02734H5.86328V5.33594ZM13.1328 4.21875C11.4727 4.21875 10.418 5.35156 10.418 7.17969C10.418 9.00391 11.457 10.1445 13.1328 10.1445C14.7969 10.1445 15.8438 9.00391 15.8438 7.17969C15.8438 5.35547 14.793 4.21875 13.1328 4.21875ZM13.1328 5.21875C14.0469 5.21875 14.6367 5.98047 14.6367 7.17969C14.6367 8.375 14.0508 9.14453 13.1328 9.14453C12.2031 9.14453 11.625 8.375 11.625 7.17969C11.625 5.98047 12.2148 5.21875 13.1328 5.21875ZM19.3594 10.1445C20.7188 10.1445 21.7109 9.32031 21.8086 8.11719H20.6602C20.5469 8.73828 20.0391 9.13672 19.3633 9.13672C18.4727 9.13672 17.9219 8.38672 17.9219 7.17969C17.9219 5.97266 18.4727 5.22266 19.3594 5.22266C20.0312 5.22266 20.543 5.65234 20.6562 6.30469H21.8047C21.7188 5.09375 20.6953 4.21875 19.3594 4.21875C17.7227 4.21875 16.7148 5.34766 16.7148 7.17969C16.7148 9.01172 17.7266 10.1445 19.3594 10.1445Z" fill="white"/>
<rect x="4" y="19" width="26" height="2" rx="1" fill="#B6BCC3"/>
<rect x="4" y="23" width="19" height="2" rx="1" fill="#B6BCC3"/>
<rect x="4" y="27" width="24" height="2" rx="1" fill="#B6BCC3"/>
<rect x="4" y="34" width="16" height="2" rx="1" fill="#B6BCC3"/>
<rect x="4" y="38" width="21" height="2" rx="1" fill="#B6BCC3"/>
<path opacity="0.6" d="M24 0L35 11H27.5C25.567 11 24 9.433 24 7.5V0Z" fill="white"/>
</svg>
