<svg height="30" viewBox="0 0 30 30" width="30" xmlns="http://www.w3.org/2000/svg"><g fill="none" fill-rule="evenodd"><path d="m-177-180h360v280h-360z" fill="#212a33"/><path d="m-177-40h360v140h-360z" fill="#fff"/><g opacity=".8" transform=""><path d="m0 0h30v21.0592998 8.9407002h-30z"/><g fill="#0b1f35" transform="translate(4 2)"><path d="m15.5147361.67556051.7373046.32443949h-.4400346zm.29727.32443949 6.1879939 6.75355646v13.24644354c0 .5522847-.4477153 1-1 1h-2.3715388v1h2.3715388c1.1045695 0 2-.8954305 2-2v-13.63529908l-6.7479593-7.36470092h-10.2520407c-1.1045695 0-2 .8954305-2 2v2.67669654h1v-2.67669654c0-.55228475.44771525-1 1-1zm6.4506894 7.04026143-.2626955-.67556051v.38885554zm-.2626955-.67556051.2626955.67556051-.2626955-.28670497zm0 .38885554v13.24644354c0 .5522847-.4477153 1-1 1h-2.3715388v1h2.3715388c1.1045695 0 2-.8954305 2-2v-13.63529908l-6.7479593-7.36470092h-10.2520407c-1.1045695 0-2 .8954305-2 2v2.67669654h1v-2.67669654c0-.55228475.44771525-1 1-1h9.8120061zm-5.7479593-6.75355646-.7373046-.32443949.29727.32443949z" fill-rule="nonzero"/><path d="m18 11.7535565-6.1879939-6.7535565h-9.8120061c-.55228475 0-1 .44771525-1 1v19c0 .5522847.44771525 1 1 1h15c.5522847 0 1-.4477153 1-1zm-16-7.7535565h10.2520407l6.7479593 7.3647009v13.6352991c0 1.1045695-.8954305 2-2 2h-15c-1.1045695 0-2-.8954305-2-2v-19c0-1.1045695.8954305-2 2-2z" fill-rule="nonzero"/><path d="m3.42746827 21.2519305 2.72533653-4.7693389c.27400997-.4795174.88486463-.6461142 1.36438208-.3721042.14876844.0850105.27319812.2068209.36135399.3537474l1.52074315 2.5345719c.28414815.4735803.89840838.6271453 1.37198868.3429972.044131-.0264786.086152-.0563245.1256886-.0892717l1.2481111-1.0400926c.4242769-.3535641 1.0548416-.29624 1.4084057.1280369.0227823.0273387.0440889.055874.063829.0854842l1.8644595 2.7966892c.1531762.2297643.0910893.540199-.138675.6933752-.0821338.0547559-.1786377.0839749-.2773501.0839749h-11.20415166c-.27614238 0-.5-.2238576-.5-.5 0-.0870135.02270766-.1725206.06587843-.2480695z" opacity=".3"/><rect height="3" opacity=".3" rx="1.5" width="3" x="10" y="12"/></g></g></g></svg>