<svg width="18" height="18" fill="none" xmlns="http://www.w3.org/2000/svg"><path fill-rule="evenodd" clip-rule="evenodd" d="M14 15.706V2.467c0-.29-.251-.526-.559-.526H6.707L3 5.431v10.275H2V5.04L6.293 1h7.148C14.301 1 15 1.658 15 2.467v13.239h-1z" fill="#D5352B"/><path fill-rule="evenodd" clip-rule="evenodd" d="M13.5 17h-10c-.827 0-1.5-.633-1.5-1.412h1c0 .26.224.47.5.47h10c.275 0 .5-.21.5-.47h1c0 .779-.673 1.412-1.5 1.412z" fill="#D5352B"/><path d="M8.83 12.155c-.554 0-.95.396-.95.957 0 .554.396.95.95.95.554 0 .943-.396.943-.95 0-.56-.389-.957-.943-.957zM8.98 4C7.059 4 6.075 5.176 6 6.652h1.169c.075-.978.731-1.586 1.764-1.586 1.019 0 1.675.622 1.675 1.47 0 .731-.308 1.162-1.101 1.647-.937.561-1.374 1.176-1.367 2.078v.629h1.196v-.444c0-.718.246-1.101 1.114-1.613.875-.526 1.429-1.285 1.429-2.358C11.879 5.067 10.703 4 8.98 4z" fill="#D5352B"/></svg>