<svg width="36" height="36" fill="none" xmlns="http://www.w3.org/2000/svg"><path fill-rule="evenodd" clip-rule="evenodd" d="M9.558 34a4.505 4.505 0 01-4.5-4.5V10.294L13.292 2h13.266c2.481 0 4.5 2.019 4.5 4.5V28h-1V6.5c0-1.93-1.57-3.5-3.5-3.5h-12.85l-7.65 7.706V29.5c0 1.93 1.57 3.5 3.5 3.5h17c1.93 0 3.5-1.57 3.5-3.5V28h1v1.5c0 2.481-2.019 4.5-4.5 4.5h-17z" fill="#D5352B"/><path d="M18.218 23c-.837 0-1.5.647-1.5 1.5 0 .837.663 1.5 1.5 1.5.853 0 1.5-.663 1.5-1.5 0-.853-.647-1.5-1.5-1.5zm.228-11.724c1.729 0 2.943 1.104 2.943 2.627 0 1.158-.526 1.908-1.869 2.798-1.504.976-2.127 1.876-2.116 3.291V21h1.429v-.804c0-1.19.397-1.801 1.805-2.702 1.472-.943 2.267-2.069 2.267-3.656 0-2.187-1.815-3.838-4.404-3.838-2.771 0-4.372 1.769-4.501 4.042h1.396c.138-1.694 1.331-2.766 3.05-2.766z" fill="#D5352B"/></svg>