<svg xmlns="http://www.w3.org/2000/svg" width="24" height="24" viewBox="0 0 24 24" fill="none"><rect width="24" height="24" fill="none"/>
<path d="M11.2419 3.24877C11.4867 2.52285 12.5134 2.52285 12.7581 3.24877L14.7411 9.13103C14.7959 9.29371 14.9484 9.40325 15.1201 9.40325H21.4629C22.245 9.40325 22.5625 10.4099 21.9218 10.8586L16.8288 14.425C16.6835 14.5268 16.6226 14.7123 16.6792 14.8804L18.6384 20.6921C18.8851 21.424 18.0541 22.046 17.4214 21.603L12.2295 17.9672C12.0917 17.8707 11.9083 17.8707 11.7706 17.9672L6.57859 21.603C5.94593 22.046 5.11489 21.424 5.36162 20.6921L7.32079 14.8804C7.37749 14.7123 7.31658 14.5268 7.17119 14.425L2.07822 10.8586C1.43758 10.4099 1.75501 9.40325 2.53711 9.40325H8.87993C9.0516 9.40325 9.20413 9.29371 9.25897 9.13103L11.2419 3.24877Z" fill="#0B1F35"/>
</svg>
