<svg xmlns="http://www.w3.org/2000/svg" width="24" height="24" viewBox="0 0 24 24" fill="none"><rect width="24" height="24" fill="none"/>
<path fill-rule="evenodd" clip-rule="evenodd" d="M12 22C17.5228 22 22 17.5228 22 12C22 6.47715 17.5228 2 12 2C6.47715 2 2 6.47715 2 12C2 17.5228 6.47715 22 12 22ZM11 12C11 12.5523 11.4477 13 12 13C12.0852 13 12.1679 12.9893 12.2469 12.9693C12.6798 12.8593 13 12.4671 13 12V8C13 7.44772 12.5523 7 12 7C11.9169 7 11.8362 7.01013 11.7591 7.02921C11.3232 7.13703 11 7.53077 11 7.99999V12ZM10.8 16C10.8 16.6627 11.3373 17.2 12 17.2C12.6627 17.2 13.2 16.6627 13.2 16C13.2 15.3373 12.6627 14.8 12 14.8C11.3373 14.8 10.8 15.3373 10.8 16Z" fill="#0B1F35"/>
</svg>
