<svg xmlns="http://www.w3.org/2000/svg" width="24" height="24" viewBox="0 0 24 24" fill="none"><rect width="24" height="24" fill="none"/>
<path fill-rule="evenodd" clip-rule="evenodd" d="M10 3.34404C10 2.67418 10.6457 2.19373 11.2873 2.38621L19.4299 4.82897C19.7683 4.93049 20 5.24195 20 5.59523V18.4048C20 18.7581 19.7683 19.0695 19.4299 19.171L11.2873 21.6138C10.6457 21.8063 10 21.3258 10 20.656V3.34404ZM14 12C14 12.5523 13.5523 13 13 13C12.4477 13 12 12.5523 12 12C12 11.4477 12.4477 11 13 11C13.5523 11 14 11.4477 14 12ZM5 5C4.44772 5 4 5.44772 4 6V18C4 18.5523 4.44772 19 5 19H8V5H5Z" fill="#0B1F35"/>
</svg>
