<svg xmlns="http://www.w3.org/2000/svg" width="24" height="24" viewBox="0 0 24 24" fill="none"><rect width="24" height="24" fill="none"/>
<path d="M12.0001 7.00009C11.4478 7.00009 11.0001 7.44781 11.0001 8.00009V10.8001C11.0001 10.9105 10.9106 11.0001 10.8001 11.0001L8.00012 11.0001C7.44784 11.0001 7.00012 11.4478 7.00012 12.0001C7.00012 12.5523 7.44784 13.0001 8.00012 13.0001L10.8001 13.0001C10.9106 13.0001 11.0001 13.0896 11.0001 13.2001V16.0001C11.0001 16.5524 11.4478 17.0001 12.0001 17.0001C12.5524 17.0001 13.0001 16.5524 13.0001 16.0001V13.2001C13.0001 13.0896 13.0897 13.0001 13.2001 13.0001L16.0001 13.0001C16.5524 13.0001 17.0001 12.5523 17.0001 12.0001C17.0001 11.4478 16.5524 11.0001 16.0001 11.0001L13.2001 11.0001C13.0897 11.0001 13.0001 10.9105 13.0001 10.8001V8.00009C13.0001 7.44781 12.5524 7.00009 12.0001 7.00009Z" fill="#0B1F35"/>
</svg>
