<svg xmlns="http://www.w3.org/2000/svg" width="24" height="24" viewBox="0 0 24 24" fill="none"><rect width="24" height="24" fill="none"/>
<path fill-rule="evenodd" clip-rule="evenodd" d="M9.18691 4.62429C8.48929 3.78715 8.14049 3.36858 8.13516 3.01508C8.13052 2.70776 8.26746 2.41539 8.50651 2.22221C8.7815 2 9.32635 2 10.4161 2H13.5839C14.6736 2 15.2185 2 15.4935 2.22221C15.7325 2.41539 15.8695 2.70776 15.8648 3.01508C15.8595 3.36858 15.5107 3.78715 14.8131 4.6243L13.2292 6.52502C12.807 7.03155 12.596 7.28482 12.3433 7.37718C12.1216 7.45821 11.8784 7.45821 11.6567 7.37718C11.404 7.28482 11.193 7.03155 10.7708 6.52501L9.18691 4.62429Z" fill="#0B1F35"/>
<path fill-rule="evenodd" clip-rule="evenodd" d="M9.18691 19.3757C8.48929 20.2128 8.14049 20.6314 8.13516 20.9849C8.13052 21.2922 8.26746 21.5846 8.50651 21.7778C8.7815 22 9.32635 22 10.4161 22H13.5839C14.6736 22 15.2185 22 15.4935 21.7778C15.7325 21.5846 15.8695 21.2922 15.8648 20.9849C15.8595 20.6314 15.5107 20.2128 14.8131 19.3757L13.2292 17.475C12.807 16.9684 12.596 16.7152 12.3433 16.6228C12.1216 16.5418 11.8784 16.5418 11.6567 16.6228C11.404 16.7152 11.193 16.9685 10.7708 17.475L9.18691 19.3757Z" fill="#0B1F35"/>
</svg>
