<svg xmlns="http://www.w3.org/2000/svg" width="24" height="24" viewBox="0 0 24 24" fill="none"><rect width="24" height="24" fill="none"/>
<path d="M16.6031 10.9999C16.7812 10.9999 16.8705 10.7845 16.7445 10.6585L13.8537 7.76765C13.4631 7.37713 13.4632 6.74396 13.8537 6.35344C14.2442 5.96292 14.8774 5.96292 15.2679 6.35344L20.6315 11.717C20.7877 11.8733 20.7877 12.1265 20.6315 12.2827L15.2679 17.6463C14.8774 18.0369 14.2442 18.0369 13.8537 17.6463C13.4632 17.2558 13.4632 16.6226 13.8537 16.2321L16.7445 13.3413C16.8705 13.2153 16.7812 12.9999 16.6031 12.9999L4.50012 12.9999C3.94784 12.9999 3.50012 12.5522 3.50012 11.9999C3.50012 11.4476 3.94784 10.9999 4.50012 10.9999L16.6031 10.9999Z" fill="#0B1F35"/>
</svg>
