<svg xmlns="http://www.w3.org/2000/svg" width="24" height="24" viewBox="0 0 24 24" fill="none"><rect width="24" height="24" fill="none"/>
<path fill-rule="evenodd" clip-rule="evenodd" d="M12 22C17.5228 22 22 17.5228 22 12C22 6.47715 17.5228 2 12 2C6.47715 2 2 6.47715 2 12C2 17.5228 6.47715 22 12 22ZM17.0001 14.3273C17.4087 13.9558 17.4388 13.3234 17.0673 12.9147L12.296 7.66629C12.1373 7.49172 11.8628 7.49172 11.7041 7.66629L6.93278 12.9147C6.56128 13.3234 6.59139 13.9558 7.00005 14.3273C7.40871 14.6988 8.04116 14.6687 8.41266 14.2601L11.8521 10.4767C11.9314 10.3894 12.0687 10.3894 12.148 10.4767L15.5874 14.2601C15.9589 14.6687 16.5914 14.6988 17.0001 14.3273Z" fill="#0B1F35"/>
</svg>
