<svg xmlns="http://www.w3.org/2000/svg" width="24" height="24" viewBox="0 0 24 24" fill="none"><rect width="24" height="24" fill="none"/>
<path d="M13.0001 16.6031C13.0001 16.7812 13.2155 16.8705 13.3415 16.7445L16.2323 13.8537C16.6228 13.4632 17.256 13.4632 17.6465 13.8537C18.037 14.2442 18.037 14.8774 17.6465 15.2679L12.2829 20.6315C12.1267 20.7877 11.8734 20.7877 11.7172 20.6315L6.35362 15.2679C5.9631 14.8774 5.9631 14.2442 6.35362 13.8537C6.74415 13.4632 7.37731 13.4632 7.76784 13.8537L10.6586 16.7445C10.7846 16.8705 11.0001 16.7812 11.0001 16.6031L11.0001 4.50012C11.0001 3.94784 11.4478 3.50012 12.0001 3.50012C12.5524 3.50012 13.0001 3.94784 13.0001 4.50012L13.0001 16.6031Z" fill="#0B1F35"/>
</svg>
