<svg xmlns="http://www.w3.org/2000/svg" width="24" height="24" viewBox="0 0 24 24" fill="none"><rect width="24" height="24" fill="none"/>
<path d="M19.4557 14C19.0131 14 18.63 14.2941 18.4593 14.7025C18.1178 15.5195 17.6147 16.2848 16.9498 16.9497C14.2635 19.636 9.93718 19.6826 7.19403 17.0895C7.11376 17.0137 7.11359 16.8864 7.19169 16.8083L8.6431 15.3569C8.869 15.131 8.75197 14.7445 8.4387 14.6819L2.68887 13.5319C2.40899 13.4759 2.16222 13.7227 2.2182 14.0026L3.36816 19.7524C3.43081 20.0657 3.81733 20.1827 4.04323 19.9568L5.49464 18.5054C5.57274 18.4273 5.69969 18.4279 5.77949 18.5043C9.30413 21.878 14.8967 21.8313 18.364 18.364C19.2935 17.4345 19.9772 16.3522 20.415 15.198C20.6426 14.5982 20.1654 14 19.5239 14H19.4557Z" fill="#0B1F35"/>
<path d="M21.3112 10.4681L15.5613 9.31815C15.2481 9.2555 15.131 8.86898 15.3569 8.64308L16.8083 7.19167C16.8865 7.11357 16.8863 6.98635 16.806 6.91047C14.0629 4.31741 9.73653 4.364 7.05027 7.05025C6.38537 7.71516 5.88219 8.48054 5.54073 9.29753C5.37006 9.70588 4.98692 10 4.54433 10H4.47616C3.83459 10 3.35743 9.4018 3.585 8.80195C4.02287 7.64777 4.70656 6.56554 5.63606 5.63604C9.10336 2.16874 14.6959 2.12196 18.2206 5.49571C18.3004 5.57209 18.4273 5.57272 18.5054 5.49462L19.9568 4.04322C20.1827 3.81731 20.5692 3.93434 20.6319 4.24761L21.7818 9.99744C21.8378 10.2773 21.5911 10.5241 21.3112 10.4681Z" fill="#0B1F35"/>
</svg>
