<svg xmlns="http://www.w3.org/2000/svg" width="24" height="24" viewBox="0 0 24 24" fill="none"><rect width="24" height="24" fill="none"/>
<path fill-rule="evenodd" clip-rule="evenodd" d="M10 3C10.5523 3 11 3.44772 11 4V10C11 10.5523 10.5523 11 10 11H4C3.44772 11 3 10.5523 3 10V4C3 3.44772 3.44772 3 4 3H10Z" fill="#0B1F35"/>
<path fill-rule="evenodd" clip-rule="evenodd" d="M10 13C10.5523 13 11 13.4477 11 14V20C11 20.5523 10.5523 21 10 21H4C3.44772 21 3 20.5523 3 20V14C3 13.4477 3.44772 13 4 13H10ZM6.2 16C6.08954 16 6 16.0895 6 16.2V17.8C6 17.9105 6.08954 18 6.2 18H7.8C7.91046 18 8 17.9105 8 17.8V16.2C8 16.0895 7.91046 16 7.8 16H6.2Z" fill="#0B1F35"/>
<path fill-rule="evenodd" clip-rule="evenodd" d="M21 4C21 3.44772 20.5523 3 20 3H14C13.4477 3 13 3.44772 13 4V10C13 10.5523 13.4477 11 14 11H20C20.5523 11 21 10.5523 21 10V4ZM16 6.2C16 6.08954 16.0895 6 16.2 6H17.8C17.9105 6 18 6.08954 18 6.2V7.8C18 7.91046 17.9105 8 17.8 8H16.2C16.0895 8 16 7.91046 16 7.8V6.2Z" fill="#0B1F35"/>
<path d="M13 13.4C13 13.1791 13.1791 13 13.4 13H16.6C16.8209 13 17 13.1791 17 13.4V15H13.4C13.1791 15 13 14.8209 13 14.6V13.4Z" fill="#0B1F35"/>
<path fill-rule="evenodd" clip-rule="evenodd" d="M19 15H17V17H13.4C13.1791 17 13 17.1791 13 17.4V20.6C13 20.8209 13.1791 21 13.4 21H14.6C14.8209 21 15 20.8209 15 20.6V19.2C15 19.0895 15.0895 19 15.2 19H17V20.6C17 20.8209 17.1791 21 17.4 21H20.6C20.8209 21 21 20.8209 21 20.6V17.4C21 17.1791 20.8209 17 20.6 17H19V15ZM19 17H17V19H18.8C18.9105 19 19 18.9105 19 18.8V17Z" fill="#0B1F35"/>
<path d="M19 15V13.4C19 13.1791 19.1791 13 19.4 13H20.6C20.8209 13 21 13.1791 21 13.4V14.6C21 14.8209 20.8209 15 20.6 15H19Z" fill="#0B1F35"/>
</svg>
