<svg xmlns="http://www.w3.org/2000/svg" width="24" height="24" viewBox="0 0 24 24" fill="none"><rect width="24" height="24" fill="none"/>
<path d="M12 14C13.1046 14 14 13.1046 14 12C14 10.8954 13.1046 10 12 10C10.8954 10 10 10.8954 10 12C10 13.1046 10.8954 14 12 14Z" fill="#0B1F35"/>
<path fill-rule="evenodd" clip-rule="evenodd" d="M1.12668 12.0833C1.10198 12.0305 1.10198 11.9695 1.12668 11.9167C3.04031 7.82774 7.18956 4.79999 11.9999 4.79999C16.8103 4.79999 20.9597 7.82775 22.8733 11.9167C22.898 11.9695 22.898 12.0305 22.8733 12.0833C20.9597 16.1722 16.8104 19.2 12 19.2C7.18961 19.2 3.04031 16.1722 1.12668 12.0833ZM16.2 12C16.2 14.3196 14.3196 16.2 12 16.2C9.68045 16.2 7.80005 14.3196 7.80005 12C7.80005 9.6804 9.68045 7.8 12 7.8C14.3196 7.8 16.2 9.6804 16.2 12Z" fill="#0B1F35"/>
</svg>
