<svg xmlns="http://www.w3.org/2000/svg" width="24" height="24" viewBox="0 0 24 24" fill="none"><rect width="24" height="24" fill="none"/>
<path d="M7.89461 2.71565C7.59085 2.18953 6.9181 2.00927 6.39198 2.31302C5.86586 2.61678 5.6856 3.28953 5.98935 3.81565L16.0328 21.2114C16.3365 21.7375 17.0093 21.9177 17.5354 21.614C18.0615 21.3102 18.2418 20.6375 17.938 20.1114L7.89461 2.71565Z" fill="#0B1F35"/>
<path d="M3.585 8.80195C3.92665 7.90142 4.41793 7.04468 5.05887 6.27012C5.10288 6.21693 5.18616 6.22455 5.22068 6.28434L6.19907 7.97895C6.21836 8.01238 6.21665 8.05389 6.19504 8.08587C5.93425 8.47172 5.71615 8.87781 5.54073 9.29753C5.37006 9.70588 4.98692 10 4.54433 10H4.47616C3.83459 10 3.35743 9.4018 3.585 8.80195Z" fill="#0B1F35"/>
<path d="M7.19403 17.0895C8.66789 18.4827 10.5988 19.114 12.4868 18.9832C12.5252 18.9805 12.5619 18.9998 12.5812 19.0331L13.5603 20.729C13.5949 20.7889 13.5597 20.8649 13.4915 20.8763C10.7818 21.3292 7.90474 20.5386 5.77949 18.5043C5.69969 18.4279 5.57274 18.4273 5.49464 18.5054L4.04323 19.9568C3.81733 20.1827 3.43081 20.0657 3.36816 19.7524L2.2182 14.0026C2.16222 13.7227 2.40899 13.4759 2.68887 13.5319L8.4387 14.6819C8.75197 14.7445 8.869 15.131 8.6431 15.3569L7.19169 16.8083C7.11359 16.8864 7.11376 17.0137 7.19403 17.0895Z" fill="#0B1F35"/>
<path d="M17.7887 15.9381C17.7669 15.9701 17.7651 16.0118 17.7844 16.0454L18.7613 17.7374C18.7958 17.7971 18.8788 17.8048 18.9229 17.7518C19.5728 16.9715 20.0702 16.1071 20.415 15.198C20.6426 14.5982 20.1654 14 19.5239 14H19.4557C19.0131 14 18.63 14.2941 18.4593 14.7025C18.2802 15.1309 18.0567 15.5451 17.7887 15.9381Z" fill="#0B1F35"/>
<path d="M10.4803 3.12849C10.4123 3.14008 10.3774 3.21596 10.4118 3.27571L11.3894 4.96896C11.4088 5.00246 11.4457 5.02174 11.4843 5.01891C13.3815 4.8796 15.3246 5.51012 16.806 6.91047C16.8863 6.98635 16.8865 7.11357 16.8083 7.19167L15.3569 8.64308C15.131 8.86898 15.2481 9.2555 15.5613 9.31815L21.3112 10.4681C21.5911 10.5241 21.8378 10.2773 21.7818 9.99744L20.6319 4.24761C20.5692 3.93434 20.1827 3.81731 19.9568 4.04322L18.5054 5.49462C18.4273 5.57272 18.3003 5.57209 18.2206 5.49571C16.0879 3.45439 13.1982 2.66531 10.4803 3.12849Z" fill="#0B1F35"/>
</svg>
