<svg xmlns="http://www.w3.org/2000/svg" width="24" height="24" viewBox="0 0 24 24" fill="none"><rect width="24" height="24" fill="none"/>
<path fill-rule="evenodd" clip-rule="evenodd" d="M3.2 21C3.08954 21 3 20.9105 3 20.8V13.2C3 13.0895 3.08954 13 3.2 13H6.8C6.91046 13 7 13.0895 7 13.2V20.8C7 20.9105 6.91046 21 6.8 21H3.2Z" fill="#0B1F35"/>
<path fill-rule="evenodd" clip-rule="evenodd" d="M10.2 21C10.0895 21 10 20.9105 10 20.8V3.2C10 3.08954 10.0895 3 10.2 3H13.8C13.9105 3 14 3.08954 14 3.2V20.8C14 20.9105 13.9105 21 13.8 21H10.2Z" fill="#0B1F35"/>
<path fill-rule="evenodd" clip-rule="evenodd" d="M17.2 21C17.0895 21 17 20.9105 17 20.8V9.2C17 9.08954 17.0895 9 17.2 9H20.8C20.9105 9 21 9.08954 21 9.2V20.8C21 20.9105 20.9105 21 20.8 21H17.2Z" fill="#0B1F35"/>
</svg>
