<svg xmlns="http://www.w3.org/2000/svg" width="24" height="24" viewBox="0 0 24 24" fill="none"><rect width="24" height="24" fill="none"/>
<path fill-rule="evenodd" clip-rule="evenodd" d="M12 22C17.5228 22 22 17.5228 22 12C22 6.47715 17.5228 2 12 2C6.47715 2 2 6.47715 2 12C2 17.5228 6.47715 22 12 22ZM14.3273 6.99995C13.9558 6.59129 13.3234 6.56118 12.9147 6.93268L7.66629 11.704C7.49172 11.8627 7.49172 12.1372 7.66629 12.2959L12.9147 17.0672C13.3234 17.4387 13.9558 17.4086 14.3273 16.9999C14.6988 16.5913 14.6687 15.9588 14.2601 15.5873L10.4767 12.1479C10.3894 12.0686 10.3894 11.9313 10.4767 11.852L14.2601 8.41256C14.6687 8.04106 14.6988 7.40861 14.3273 6.99995Z" fill="#0B1F35"/>
</svg>
