<svg xmlns="http://www.w3.org/2000/svg" width="24" height="24" viewBox="0 0 24 24" fill="none"><rect width="24" height="24" fill="none"/>
<path fill-rule="evenodd" clip-rule="evenodd" d="M19.8307 16.3307L22 18.5L20.5 20L18.6276 18.1276L17.1925 16.6925L7.25886 6.75886L5.85752 5.35752L4 3.5L5.5 2L7.57395 4.07395C8.85238 3.35798 10.2974 3 11.777 3C14.6043 3 17.2769 4.5 18.777 6.5L19.0002 4H21.0002V10H15.0002V8H17.277C15.777 6 14.1557 5 11.777 5C10.7894 5 9.85657 5.1455 9.01204 5.51204L18.2254 14.7254C18.517 13.9506 18.7555 13.0479 18.9333 12H21.0001C20.8603 13.6783 20.4471 15.1218 19.8307 16.3307ZM17 19.5L15.5 18C14.5 18.5 13.4746 19 12.2232 19C9.84441 19 8.22316 18 6.72316 16H9V14H3V20H5L5.22316 17.5C6.72329 19.5 9.39589 21 12.2232 21C13.9463 21 15.5 20.5 17 19.5ZM6 8.5L4.52843 7.02843C3.5 8.5 3.1655 10.0142 3.00002 12H5C5.23461 10.6172 5.5 9.5 6 8.5Z" fill="#0B1F35"/>
</svg>
