<svg xmlns="http://www.w3.org/2000/svg" width="24" height="24" viewBox="0 0 24 24" fill="none"><rect width="24" height="24" fill="none"/>
<path d="M19.85 2.25C20.0709 2.25 20.25 2.42909 20.25 2.65V16.25C20.25 16.8023 19.8023 17.25 19.25 17.25C18.6977 17.25 18.25 16.8023 18.25 16.25V4.45C18.25 4.33954 18.1605 4.25 18.05 4.25H9.25C8.69772 4.25 8.25 3.80228 8.25 3.25C8.25 2.69772 8.69772 2.25 9.25 2.25H19.85Z" fill="#0B1F35"/>
<path d="M14.75 6.75C15.3023 6.75 15.75 7.19772 15.75 7.75V20.75C15.75 21.3023 15.3023 21.75 14.75 21.75H4.75C4.19772 21.75 3.75 21.3023 3.75 20.75V7.75C3.75 7.19772 4.19772 6.75 4.75 6.75H14.75Z" fill="#0B1F35"/>
</svg>
