<svg xmlns="http://www.w3.org/2000/svg" width="24" height="24" viewBox="0 0 24 24" fill="none"><rect width="24" height="24" fill="none"/>
<path fill-rule="evenodd" clip-rule="evenodd" d="M9.18691 5.37571C8.48929 6.21285 8.14049 6.63142 8.13516 6.98492C8.13052 7.29224 8.26746 7.58461 8.50651 7.77779C8.7815 8 9.32635 8 10.4161 8H13.5839C14.6736 8 15.2185 8 15.4935 7.77779C15.7325 7.58461 15.8695 7.29224 15.8648 6.98492C15.8595 6.63142 15.5107 6.21285 14.8131 5.3757L13.2292 3.47498C12.807 2.96845 12.596 2.71518 12.3433 2.62282C12.1216 2.54179 11.8784 2.54179 11.6567 2.62282C11.404 2.71518 11.193 2.96845 10.7708 3.47499L9.18691 5.37571Z" fill="#0B1F35"/>
<path fill-rule="evenodd" clip-rule="evenodd" d="M9.18691 18.6243C8.48929 17.7872 8.14049 17.3686 8.13516 17.0151C8.13052 16.7078 8.26746 16.4154 8.50651 16.2222C8.7815 16 9.32635 16 10.4161 16H13.5839C14.6736 16 15.2185 16 15.4935 16.2222C15.7325 16.4154 15.8695 16.7078 15.8648 17.0151C15.8595 17.3686 15.5107 17.7872 14.8131 18.6243L13.2292 20.525C12.807 21.0316 12.596 21.2848 12.3433 21.3772C12.1216 21.4582 11.8784 21.4582 11.6567 21.3772C11.404 21.2848 11.193 21.0315 10.7708 20.525L9.18691 18.6243Z" fill="#0B1F35"/>
</svg>
