<svg xmlns="http://www.w3.org/2000/svg" width="24" height="24" viewBox="0 0 24 24" fill="none"><rect width="24" height="24" fill="none"/>
<path fill-rule="evenodd" clip-rule="evenodd" d="M12 22C17.5228 22 22 17.5228 22 12C22 6.47715 17.5228 2 12 2C6.47715 2 2 6.47715 2 12C2 17.5228 6.47715 22 12 22ZM6.99995 9.67267C6.59129 10.0442 6.56118 10.6766 6.93268 11.0853L11.704 16.3337C11.8627 16.5083 12.1372 16.5083 12.2959 16.3337L17.0672 11.0853C17.4387 10.6766 17.4086 10.0442 16.9999 9.67267C16.5913 9.30117 15.9588 9.33128 15.5873 9.73994L12.1479 13.5233C12.0686 13.6106 11.9313 13.6106 11.852 13.5233L8.41256 9.73994C8.04106 9.33128 7.40861 9.30117 6.99995 9.67267Z" fill="#0B1F35"/>
</svg>
