<svg xmlns="http://www.w3.org/2000/svg" width="24" height="24" viewBox="0 0 24 24" fill="none"><rect width="24" height="24" fill="none"/>
<path d="M15.0002 8H17.277L18.777 6.5L19.0002 4H21.0002V10H15.0002V8Z" fill="#0B1F35"/>
<path d="M5.06688 12C6.00002 6.5 8.60598 5 11.777 5C14.1557 5 15.777 6 17.277 8L18.777 8L18.777 6.5C17.2769 4.5 14.6043 3 11.777 3C7.49383 3 3.50002 6 3.00002 12H5.06688Z" fill="#0B1F35"/>
<path d="M9 16H6.72316L5.22316 17.5L5 20H3V14H9V16Z" fill="#0B1F35"/>
<path d="M18.9333 12C18.0001 17.5 15.3942 19 12.2232 19C9.84441 19 8.22316 18 6.72316 16L5.22316 16L5.22316 17.5C6.72329 19.5 9.39589 21 12.2232 21C16.5063 21 20.5001 18 21.0001 12H18.9333Z" fill="#0B1F35"/>
</svg>
