<svg xmlns="http://www.w3.org/2000/svg" width="24" height="24" viewBox="0 0 24 24" fill="none"><rect width="24" height="24" fill="none"/>
<path fill-rule="evenodd" clip-rule="evenodd" d="M12 22C17.5228 22 22 17.5228 22 12C22 6.47715 17.5228 2 12 2C6.47715 2 2 6.47715 2 12C2 17.5228 6.47715 22 12 22ZM14.1214 8.46455C14.5119 8.07403 15.1451 8.07403 15.5356 8.46455C15.9261 8.85508 15.9261 9.48824 15.5356 9.87877L13.5557 11.8586C13.4776 11.9367 13.4776 12.0634 13.5557 12.1415L15.5356 14.1214C15.9261 14.5119 15.9261 15.1451 15.5356 15.5356C15.1451 15.9261 14.5119 15.9261 14.1214 15.5356L12.1415 13.5557C12.0634 13.4776 11.9368 13.4776 11.8587 13.5557L9.87874 15.5356C9.48821 15.9261 8.85505 15.9261 8.46452 15.5356C8.074 15.1451 8.074 14.5119 8.46452 14.1214L10.4444 12.1415C10.5226 12.0634 10.5226 11.9367 10.4444 11.8586L8.46455 9.87874C8.07402 9.48821 8.07402 8.85505 8.46455 8.46452C8.85507 8.074 9.48824 8.074 9.87876 8.46452L11.8587 10.4444C11.9368 10.5225 12.0634 10.5225 12.1415 10.4444L14.1214 8.46455Z" fill="#0B1F35"/>
</svg>
