<svg xmlns="http://www.w3.org/2000/svg" width="24" height="24" viewBox="0 0 24 24" fill="none"><rect width="24" height="24" fill="none"/>
<path d="M7.39693 13.0001C7.21875 13.0001 7.12951 13.2155 7.2555 13.3415L10.1463 16.2323C10.5368 16.6229 10.5368 17.256 10.1463 17.6465C9.75579 18.0371 9.12263 18.0371 8.7321 17.6465L3.3685 12.2829C3.21229 12.1267 3.21229 11.8735 3.3685 11.7173L8.7321 6.35365C9.12263 5.96313 9.75579 5.96313 10.1463 6.35365C10.5368 6.74418 10.5368 7.37734 10.1463 7.76787L7.25551 10.6587C7.12951 10.7847 7.21875 11.0001 7.39693 11.0001L19.4999 11.0001C20.0522 11.0001 20.4999 11.4478 20.4999 12.0001C20.4999 12.5524 20.0522 13.0001 19.4999 13.0001L7.39693 13.0001Z" fill="#0B1F35"/>
</svg>
