<svg xmlns="http://www.w3.org/2000/svg" width="24" height="24" viewBox="0 0 24 24" fill="none"><rect width="24" height="24" fill="none"/>
<path d="M20.9442 14.7016C21.0271 14.7845 21.1632 14.7787 21.2372 14.6878C21.886 13.8901 22.5643 12.931 23 12.0001C21.0863 7.91113 16.8103 4.98957 11.9999 4.98957C11.8363 4.98957 11.6735 4.99307 11.5115 5C11.3411 5.00728 11.265 5.02242 11.3856 5.14298L20.9442 14.7016Z" fill="#0B1F35"/>
<path fill-rule="evenodd" clip-rule="evenodd" d="M5.5 2L22 18.5L20.5 20L18.0591 17.4732C16.2807 18.5608 14.2101 19 12 19C7.18958 19 2.91363 16.089 1 12.0001C2.15522 9.53167 4.2518 7.36659 6.69008 6.10427L4 3.5L5.5 2ZM13.6766 13.0908L15.2484 14.6626C14.4781 15.6012 13.309 16.2 12 16.2C9.68043 16.2 7.80002 14.3196 7.80002 12C7.80002 10.691 8.39883 9.52191 9.33745 8.75164L10.9092 10.3234C10.3618 10.6802 10 11.2979 10 12C10 13.1046 10.8954 14 12 14C12.7021 14 13.3198 13.6382 13.6766 13.0908Z" fill="#0B1F35"/>
</svg>
