<svg xmlns="http://www.w3.org/2000/svg" width="24" height="24" viewBox="0 0 24 24" fill="none"><rect width="24" height="24" fill="none"/>
<path d="M13.9249 6.82242C13.8468 6.74431 13.7201 6.74432 13.642 6.82242L3.30936 17.1551C3.25886 17.2056 3.2228 17.2687 3.20493 17.3378L2.08493 21.6714C2.0468 21.8189 2.18107 21.9532 2.32861 21.915L6.66214 20.795C6.73129 20.7772 6.79439 20.7411 6.84489 20.6906L17.1775 10.358C17.2557 10.2798 17.2557 10.1532 17.1775 10.0751L13.9249 6.82242Z" fill="#0B1F35"/>
<path d="M18.5918 8.6609C18.6699 8.739 18.7965 8.739 18.8746 8.6609L21.0607 6.47485C21.4512 6.08433 21.4512 5.45116 21.0607 5.06064L18.9393 2.93932C18.5488 2.54879 17.9156 2.54879 17.5251 2.93932L15.3391 5.12536C15.261 5.20347 15.261 5.3301 15.3391 5.40821L18.5918 8.6609Z" fill="#0B1F35"/>
</svg>
