<svg xmlns="http://www.w3.org/2000/svg" width="24" height="24" viewBox="0 0 24 24" fill="none"><rect width="24" height="24" fill="none"/>
<path fill-rule="evenodd" clip-rule="evenodd" d="M22 12C22 6.47715 17.5228 2 12 2C6.47715 2 2 6.47715 2 12C2 17.5228 6.47715 22 12 22C17.5228 22 22 17.5228 22 12ZM13.3414 14.2445C13.2154 14.3705 13 14.2812 13 14.103V7.00009C13 6.44781 12.5523 6.00009 12 6.00009C11.4477 6.00009 11 6.44781 11 7.00009L11 14.103C11 14.2812 10.7846 14.3705 10.6586 14.2445L9.41423 13.0001C9.0237 12.6096 8.39054 12.6096 8.00001 13.0001C7.60949 13.3906 7.60949 14.0238 8.00001 14.4143L11.7172 18.1315C11.8734 18.2877 12.1266 18.2877 12.2829 18.1315L16 14.4143C16.3905 14.0238 16.3905 13.3906 16 13.0001C15.6095 12.6096 14.9763 12.6096 14.5858 13.0001L13.3414 14.2445Z" fill="#0B1F35"/>
</svg>
