<svg xmlns="http://www.w3.org/2000/svg" width="24" height="24" viewBox="0 0 24 24" fill="none"><rect width="24" height="24" fill="none"/>
<path fill-rule="evenodd" clip-rule="evenodd" d="M12 22C17.5228 22 22 17.5228 22 12C22 6.47715 17.5228 2 12 2C6.47715 2 2 6.47715 2 12C2 17.5228 6.47715 22 12 22ZM11.0001 8.00006C11.0001 7.44778 11.4478 7.00006 12.0001 7.00006C12.5524 7.00006 13.0001 7.44778 13.0001 8.00006V10.8C13.0001 10.9105 13.0897 11 13.2001 11H16.0001C16.5524 11 17.0001 11.4477 17.0001 12C17.0001 12.5523 16.5524 13 16.0001 13L13.2001 13C13.0897 13 13.0001 13.0896 13.0001 13.2V16.0001C13.0001 16.5523 12.5524 17.0001 12.0001 17.0001C11.4478 17.0001 11.0001 16.5523 11.0001 16.0001V13.2C11.0001 13.0896 10.9106 13 10.8001 13L8.00012 13C7.44784 13 7.00012 12.5523 7.00012 12C7.00012 11.4477 7.44784 11 8.00012 11L10.8001 11C10.9106 11 11.0001 10.9105 11.0001 10.8V8.00006Z" fill="#0B1F35"/>
</svg>
