<svg xmlns="http://www.w3.org/2000/svg" width="24" height="24" viewBox="0 0 24 24" fill="none"><rect width="24" height="24" fill="none"/>
<path fill-rule="evenodd" clip-rule="evenodd" d="M10 3.21981C10 2.58876 10.5773 2.11547 11.1961 2.23923L18.8746 3.77492C19.529 3.90579 20 4.48037 20 5.14773V18.8523C20 19.5196 19.529 20.0942 18.8746 20.2251L11.1961 21.7608C10.5773 21.8845 10 21.4112 10 20.7802V3.21981ZM13.4 13.4C14.1732 13.4 14.8 12.7732 14.8 12C14.8 11.2268 14.1732 10.6 13.4 10.6C12.6268 10.6 12 11.2268 12 12C12 12.7732 12.6268 13.4 13.4 13.4Z" fill="#0B1F35"/>
<path d="M5 5C4.44772 5 4 5.44772 4 6V18C4 18.5523 4.44772 19 5 19H7.8C7.91046 19 8 18.9105 8 18.8V5.2C8 5.08954 7.91046 5 7.8 5H5Z" fill="#0B1F35"/>
</svg>
