<svg xmlns="http://www.w3.org/2000/svg" width="24" height="24" viewBox="0 0 24 24" fill="none"><rect width="24" height="24" fill="none"/>
<path d="M12.4968 13.9378C12.338 13.9784 12.1715 14 12 14C10.8954 14 10 13.1046 10 12C10 11.0626 10.6449 10.2759 11.5152 10.0592C11.6704 10.0205 11.8328 10 12 10C13.1045 10 14 10.8954 14 12C14 12.9331 13.361 13.7169 12.4968 13.9378Z" fill="#0B1F35"/>
<path d="M20.4968 13.9378C20.338 13.9784 20.1715 14 20 14C18.8954 14 18 13.1046 18 12C18 10.8954 18.8954 10 20 10C21.1046 10 22 10.8954 22 12C22 12.9331 21.3611 13.7169 20.4968 13.9378Z" fill="#0B1F35"/>
<path d="M4.49682 13.9378C4.33797 13.9784 4.17151 14 4 14C2.89543 14 2 13.1046 2 12C2 11.0626 2.64486 10.2759 3.51516 10.0592C3.67038 10.0205 3.83278 10 3.99998 10C5.10455 10 5.99998 10.8954 5.99998 12C5.99998 12.9331 5.36104 13.7169 4.49682 13.9378Z" fill="#0B1F35"/>
</svg>
