<svg xmlns="http://www.w3.org/2000/svg" width="24" height="24" viewBox="0 0 24 24" fill="none"><rect width="24" height="24" fill="none"/>
<path fill-rule="evenodd" clip-rule="evenodd" d="M19.5858 19C19.9764 19.3905 20.6095 19.3905 21 19C21.3906 18.6095 21.3906 17.9763 21 17.5858L6.41426 3.00002C6.02373 2.60949 5.39057 2.60949 5.00005 3.00002C4.60952 3.39054 4.60952 4.02371 5.00004 4.41423L6.6901 6.10429C4.25183 7.36661 2.28189 9.44829 1.12668 11.9167C1.10198 11.9695 1.10198 12.0305 1.12668 12.0833C3.04031 16.1722 7.18961 19.2 12 19.2C14.2101 19.2 16.2808 18.5608 18.0591 17.4733L19.5858 19ZM15.2484 14.6626L13.6766 13.0908C13.3198 13.6382 12.7022 14 12 14C10.8955 14 10 13.1046 10 12C10 11.2979 10.3618 10.6802 10.9092 10.3234L9.33747 8.75166C8.39885 9.52192 7.80005 10.691 7.80005 12C7.80005 14.3196 9.68045 16.2 12 16.2C13.309 16.2 14.4781 15.6012 15.2484 14.6626Z" fill="#0B1F35"/>
<path d="M20.9443 14.7016C21.0271 14.7845 21.1633 14.7788 21.2372 14.6879C21.8861 13.8901 22.4376 13.0142 22.8733 12.0833C22.898 12.0305 22.898 11.9695 22.8733 11.9167C20.9597 7.82775 16.8103 4.79999 11.9999 4.79999C11.8363 4.79999 11.6735 4.80349 11.5115 4.81042C11.3411 4.8177 11.2651 5.02243 11.3856 5.14299L20.9443 14.7016Z" fill="#0B1F35"/>
</svg>
