<svg xmlns="http://www.w3.org/2000/svg" width="24" height="24" viewBox="0 0 24 24" fill="none"><rect width="24" height="24" fill="none"/>
<path d="M17.2 3C17.0895 3 17 3.08954 17 3.2V20.8C17 20.9105 17.0895 21 17.2 21H20.8C20.9105 21 21 20.9105 21 20.8V3.2C21 3.08954 20.9105 3 20.8 3H17.2Z" fill="#0B1F35"/>
<path d="M10.2 21C10.0895 21 10 20.9105 10 20.8V9.2C10 9.08954 10.0895 9 10.2 9H13.8C13.9105 9 14 9.08954 14 9.2V20.8C14 20.9105 13.9105 21 13.8 21H10.2Z" fill="#0B1F35"/>
<path d="M3.2 21C3.08954 21 3 20.9105 3 20.8V13.2C3 13.0895 3.08954 13 3.2 13H6.8C6.91046 13 7 13.0895 7 13.2V20.8C7 20.9105 6.91046 21 6.8 21H3.2Z" fill="#0B1F35"/>
</svg>
