<svg xmlns="http://www.w3.org/2000/svg" width="24" height="24" viewBox="0 0 24 24" fill="none"><rect width="24" height="24" fill="none"/>
<path fill-rule="evenodd" clip-rule="evenodd" d="M22 12C22 17.5228 17.5228 22 12 22C6.47715 22 2 17.5228 2 12C2 6.47715 6.47715 2 12 2C17.5228 2 22 6.47715 22 12ZM10 12C10 11.4477 10.4477 11 11 11H12.2C12.6418 11 13 11.3582 13 11.8V16C13 16.5523 12.5523 17 12 17C11.4477 17 11 16.5523 11 16V13C10.4477 13 10 12.5523 10 12ZM10.8 8C10.8 8.66274 11.3372 9.2 12 9.2C12.6627 9.2 13.2 8.66274 13.2 8C13.2 7.33726 12.6627 6.8 12 6.8C11.3372 6.8 10.8 7.33726 10.8 8Z" fill="#0B1F35"/>
</svg>
