<svg xmlns="http://www.w3.org/2000/svg" width="24" height="24" viewBox="0 0 24 24" fill="none"><rect width="24" height="24" fill="none"/>
<path d="M13.6207 7.12178C13.5426 7.04368 13.4159 7.04368 13.3378 7.12178L3.59098 16.8687C3.54048 16.9192 3.50442 16.9823 3.48654 17.0514L3.36654 20.3849C3.32841 20.5325 3.46269 20.6667 3.61023 20.6286L6.94376 20.5086C7.01291 20.4907 7.07601 20.4547 7.12651 20.4042L16.8734 10.6573C16.9515 10.5792 16.9515 10.4526 16.8734 10.3745L13.6207 7.12178Z" fill="#0B1F35"/>
<path d="M18.2876 8.96026C18.3657 9.03837 18.4923 9.03837 18.5704 8.96026L20.3423 7.18843C20.7328 6.7979 20.7328 6.16474 20.3423 5.77421L18.2209 3.65289C17.8304 3.26237 17.1973 3.26237 16.8067 3.65289L15.0349 5.42473C14.9568 5.50283 14.9568 5.62946 15.0349 5.70757L18.2876 8.96026Z" fill="#0B1F35"/>
</svg>
