<svg xmlns="http://www.w3.org/2000/svg" width="24" height="24" viewBox="0 0 24 24" fill="none"><rect width="24" height="24" fill="none"/>
<path fill-rule="evenodd" clip-rule="evenodd" d="M12 2C6.47715 2 2 6.47715 2 12C2 17.5228 6.47715 22 12 22C17.5228 22 22 17.5228 22 12C22 6.47715 17.5228 2 12 2ZM9.70697 13.9427C9.48605 14.3253 9.61715 14.8146 9.99979 15.0355C10.3824 15.2564 10.8717 15.1253 11.0926 14.7427L11.9996 13.1717L12.9072 14.7437C13.1281 15.1263 13.6174 15.2574 14.0001 15.0365C14.3827 14.8156 14.5138 14.3263 14.2929 13.9437L13.3857 12.3723H15.2C15.6419 12.3723 16 12.0142 16 11.5723C16 11.1305 15.6419 10.7723 15.2 10.7723H13.3849L14.2926 9.20013C14.5135 8.81749 14.3824 8.32822 13.9998 8.10731C13.6172 7.88639 13.1279 8.01749 12.907 8.40013L11.9996 9.97166L11.0929 8.40111C10.872 8.01847 10.3827 7.88737 10.0001 8.10829C9.61742 8.3292 9.48632 8.81847 9.70724 9.20111L10.6144 10.7723H8.80003C8.3582 10.7723 8.00003 11.1305 8.00003 11.5723C8.00003 12.0142 8.3582 12.3723 8.80003 12.3723H10.6136L9.70697 13.9427Z" fill="#0B1F35"/>
</svg>
