<svg xmlns="http://www.w3.org/2000/svg" width="24" height="24" viewBox="0 0 24 24" fill="none"><rect width="24" height="24" fill="none"/>
<path d="M21.7837 6.6L14.7816 2.09999C14.4506 1.87191 14 2.04791 14 2.4505L14 5H10.5C5.50004 5 4 8.809 4 10.309V10.5C4 10.8717 4.36717 11.1717 4.62079 10.9C4.67926 10.8374 4.73838 10.7724 4.79889 10.7059C5.48494 9.95192 6.3511 9 8.50001 9H14L14 11.5495C14 11.9521 14.4506 12.1281 14.7816 11.9L21.7837 7.4C22.0721 7.20133 22.0721 6.79867 21.7837 6.6Z" fill="#0B1F35"/>
<path d="M2.21628 16.601L9.21837 12.101C9.54943 11.8729 10 12.0489 10 12.4515V15.0049H15.5C17.6489 15.0049 18.5151 14.053 19.2011 13.299C19.2616 13.2325 19.3208 13.1675 19.3792 13.1049C19.6328 12.8332 20 13.1332 20 13.5049V13.6959C20 15.1959 18.5 19.0049 13.5 19.0049H10V21.5504C10 21.953 9.54943 22.1291 9.21837 21.901L2.21628 17.401C1.92791 17.2023 1.92791 16.7997 2.21628 16.601Z" fill="#0B1F35"/>
</svg>
