<svg xmlns="http://www.w3.org/2000/svg" width="24" height="24" viewBox="0 0 24 24" fill="none"><rect width="24" height="24" fill="none"/>
<path fill-rule="evenodd" clip-rule="evenodd" d="M12 22C17.5228 22 22 17.5228 22 12C22 6.47715 17.5228 2 12 2C6.47715 2 2 6.47715 2 12C2 17.5228 6.47715 22 12 22ZM16.6138 10.1144C17.0005 9.72006 16.9943 9.08692 16.6 8.70021C16.2057 8.31349 15.5726 8.31964 15.1859 8.71394L10.8582 13.1265C10.7798 13.2064 10.6511 13.2064 10.5726 13.1265L9.01419 11.5375C8.62748 11.1432 7.99434 11.137 7.60005 11.5237C7.20575 11.9105 7.1996 12.5436 7.58632 12.9379L10.4299 15.8372C10.5867 15.9971 10.8442 15.9971 11.001 15.8372L16.6138 10.1144Z" fill="#0B1F35"/>
</svg>
