<svg xmlns="http://www.w3.org/2000/svg" width="24" height="24" viewBox="0 0 24 24" fill="none"><rect width="24" height="24" fill="none"/>
<path d="M10.9999 7.39693C10.9999 7.21875 10.7845 7.12951 10.6585 7.2555L7.76765 10.1463C7.37713 10.5368 6.74396 10.5368 6.35344 10.1463C5.96292 9.75579 5.96292 9.12263 6.35344 8.7321L11.717 3.3685C11.8733 3.21229 12.1265 3.21229 12.2827 3.3685L17.6463 8.7321C18.0369 9.12263 18.0369 9.75579 17.6463 10.1463C17.2558 10.5368 16.6226 10.5368 16.2321 10.1463L13.3413 7.25551C13.2153 7.12951 12.9999 7.21875 12.9999 7.39693L12.9999 19.4999C12.9999 20.0522 12.5522 20.4999 11.9999 20.4999C11.4476 20.4999 10.9999 20.0522 10.9999 19.4999L10.9999 7.39693Z" fill="#0B1F35"/>
</svg>
