<svg xmlns="http://www.w3.org/2000/svg" width="24" height="24" viewBox="0 0 24 24" fill="none"><rect width="24" height="24" fill="none"/>
<path d="M12 14C13.1046 14 14 13.1046 14 12C14 10.8954 13.1046 9.99999 12 9.99999C10.8955 9.99999 10 10.8954 10 12C10 13.1046 10.8955 14 12 14Z" fill="#0B1F35"/>
<path fill-rule="evenodd" clip-rule="evenodd" d="M1 11.9999C2.91363 7.91098 7.18958 4.99988 12 4.99988C16.8103 4.99988 21.0864 7.91098 23 11.9999C21.0864 16.0889 16.8104 18.9999 12 18.9999C7.18963 18.9999 2.91363 16.0889 1 11.9999ZM16.2001 12C16.2001 14.3196 14.3197 16.2 12.0001 16.2C9.68047 16.2 7.80007 14.3196 7.80007 12C7.80007 9.68039 9.68047 7.79999 12.0001 7.79999C14.3197 7.79999 16.2001 9.68039 16.2001 12Z" fill="#0B1F35"/>
</svg>
