<svg xmlns="http://www.w3.org/2000/svg" width="24" height="24" viewBox="0 0 24 24" fill="none"><rect width="24" height="24" fill="none"/>
<path fill-rule="evenodd" clip-rule="evenodd" d="M12 22C17.5228 22 22 17.5228 22 12C22 6.47715 17.5228 2 12 2C6.47715 2 2 6.47715 2 12C2 17.5228 6.47715 22 12 22ZM9.67267 17.0001C10.0442 17.4087 10.6766 17.4388 11.0853 17.0673L16.3337 12.296C16.5083 12.1373 16.5083 11.8628 16.3337 11.7041L11.0853 6.93278C10.6766 6.56128 10.0442 6.59139 9.67267 7.00005C9.30117 7.40871 9.33128 8.04116 9.73994 8.41266L13.5233 11.8521C13.6106 11.9314 13.6106 12.0687 13.5233 12.148L9.73994 15.5874C9.33128 15.9589 9.30117 16.5914 9.67267 17.0001Z" fill="#0B1F35"/>
</svg>
