<svg xmlns="http://www.w3.org/2000/svg" width="24" height="24" viewBox="0 0 24 24" fill="none"><rect width="24" height="24" fill="none"/>
<path fill-rule="evenodd" clip-rule="evenodd" d="M6.00024 11.0001L10.8003 11.0001C10.9107 11.0001 11.0003 10.9105 11.0003 10.8001V6.00012C11.0002 5.44784 11.448 5.00012 12.0002 5.00012C12.5525 5.00012 13.0002 5.44784 13.0002 6.00012V10.8001C13.0002 10.9105 13.0898 11.0001 13.2002 11.0001L18.0002 11.0001C18.5525 11.0001 19.0002 11.4478 19.0002 12.0001C19.0002 12.5524 18.5525 13.0001 18.0002 13.0001L13.2002 13.0001C13.0898 13.0001 13.0002 13.0896 13.0002 13.2001V18.0001C13.0002 18.5524 12.5525 19.0001 12.0002 19.0001C11.448 19.0001 11.0003 18.5524 11.0003 18.0001V13.2001C11.0003 13.0896 10.9107 13.0001 10.8003 13.0001L6.00024 13.0001C5.44796 13.0001 5.00024 12.5524 5.00024 12.0001C5.00024 11.4478 5.44796 11.0001 6.00024 11.0001Z" fill="#0B1F35"/>
</svg>
