<svg xmlns="http://www.w3.org/2000/svg" width="24" height="24" viewBox="0 0 24 24" fill="none"><rect width="24" height="24" fill="none"/>
<path d="M20.7659 3.2341C19.9471 2.41529 18.6196 2.41529 17.8008 3.2341L12.1415 8.89337C12.0634 8.97148 11.9368 8.97148 11.8587 8.89337L6.19946 3.23416C5.38065 2.41535 4.0531 2.41535 3.2343 3.23416C2.41549 4.05297 2.41549 5.38052 3.2343 6.19932L8.89351 11.8585C8.97161 11.9366 8.97161 12.0633 8.89351 12.1414L3.23422 17.8007C2.41542 18.6195 2.41542 19.947 3.23422 20.7658C4.05303 21.5846 5.38058 21.5846 6.19938 20.7658L11.8587 15.1065C11.9368 15.0284 12.0634 15.0284 12.1415 15.1065L17.8009 20.7659C18.6197 21.5847 19.9472 21.5847 20.766 20.7659C21.5848 19.9471 21.5848 18.6195 20.766 17.8007L15.1067 12.1414C15.0286 12.0633 15.0286 11.9366 15.1067 11.8585L20.7659 6.19926C21.5847 5.38046 21.5847 4.05291 20.7659 3.2341Z" fill="#0B1F35"/>
</svg>
