<svg xmlns="http://www.w3.org/2000/svg" width="24" height="24" viewBox="0 0 24 24" fill="none"><rect width="24" height="24" fill="none"/>
<path fill-rule="evenodd" clip-rule="evenodd" d="M10 2H14V4.25203C15.4407 4.62285 16.7244 5.3849 17.7309 6.41819L19.9999 5.00012L21.9999 8.50012L19.7271 9.92059C19.9051 10.5837 20 11.2807 20 12C20 12.7192 19.9051 13.4163 19.7271 14.0794L22.0002 15.5001L20.0002 19.0001L17.7309 17.5818C16.7244 18.6151 15.4407 19.3771 14 19.748V22H10V19.748C8.5593 19.3772 7.27566 18.6151 6.26909 17.5818L3.99992 19L2 15.5L4.27292 14.0794C4.09492 13.4164 4 12.7193 4 12C4 11.2808 4.09491 10.5837 4.2729 9.92063L1.99976 8.5L3.99976 5L6.26903 6.41824C7.2756 5.38493 8.55926 4.62285 10 4.25203V2ZM12 15.5C13.933 15.5 15.5 13.933 15.5 12C15.5 10.067 13.933 8.5 12 8.5C10.067 8.5 8.5 10.067 8.5 12C8.5 13.933 10.067 15.5 12 15.5Z" fill="#0B1F35"/>
</svg>
