<svg xmlns="http://www.w3.org/2000/svg" width="24" height="24" viewBox="0 0 24 24" fill="none"><rect width="24" height="24" fill="none"/>
<path fill-rule="evenodd" clip-rule="evenodd" d="M9.62444 2.88868C9.68112 2.38264 10.109 2 10.6182 2H13.3819C13.8912 2 14.3191 2.38267 14.3757 2.88873L14.531 4.27588C14.5397 4.35374 14.5932 4.41913 14.6673 4.44468C15.6332 4.77786 16.5156 5.28692 17.2754 5.93305C17.3389 5.98711 17.4291 5.99775 17.5026 5.95838L18.6721 5.33265C19.1463 5.07895 19.7362 5.24568 20.0074 5.71004L21.5043 8.27304C21.7795 8.7441 21.6263 9.34875 21.1601 9.632L20.0478 10.3078C19.9754 10.3517 19.9388 10.4365 19.9546 10.5196C20.0454 10.9994 20.0929 11.4942 20.0929 12C20.0929 12.5058 20.0454 13.0005 19.9546 13.4803C19.9389 13.5634 19.9754 13.6482 20.0478 13.6921L21.16 14.3679C21.6262 14.6511 21.7794 15.2558 21.5043 15.7268L20.0074 18.2898C19.7362 18.7542 19.1463 18.9209 18.6721 18.6672L17.5027 18.0415C17.4291 18.0022 17.339 18.0128 17.2754 18.0669C16.5187 18.7105 15.6402 19.2181 14.6788 19.5513C14.599 19.579 14.5438 19.6526 14.5414 19.737L14.5055 21.0278C14.4905 21.5691 14.0474 22 13.5059 22H10.4942C9.95271 22 9.50961 21.5691 9.49456 21.0278L9.45865 19.7371C9.4563 19.6526 9.40109 19.579 9.3213 19.5514C8.35984 19.2181 7.48132 18.7105 6.72457 18.0669C6.661 18.0128 6.57086 18.0022 6.49728 18.0415L5.32787 18.6672C4.85371 18.9209 4.26381 18.7542 3.99259 18.2898L2.49567 15.7268C2.22055 15.2558 2.37372 14.6511 2.83994 14.3679L3.95221 13.6921C4.02457 13.6481 4.06116 13.5634 4.04542 13.4802C3.95463 13.0005 3.90716 12.5057 3.90716 12C3.90716 11.4942 3.95464 10.9994 4.04543 10.5197C4.06118 10.4365 4.02459 10.3518 3.95223 10.3078L2.83992 9.632C2.3737 9.34875 2.22052 8.7441 2.49565 8.27304L3.99257 5.71004C4.26378 5.24568 4.85368 5.07895 5.32784 5.33265L6.49736 5.9584C6.57094 5.99777 6.66108 5.98713 6.72465 5.93307C7.48441 5.28692 8.36688 4.77784 9.33281 4.44466C9.40687 4.41911 9.46033 4.35372 9.46905 4.27587L9.62444 2.88868ZM12 15.7C14.0435 15.7 15.7 14.0435 15.7 12C15.7 9.95655 14.0435 8.3 12 8.3C9.9566 8.3 8.30005 9.95655 8.30005 12C8.30005 14.0435 9.9566 15.7 12 15.7Z" fill="#0B1F35"/>
</svg>
