<svg xmlns="http://www.w3.org/2000/svg" width="24" height="24" viewBox="0 0 24 24" fill="none"><rect width="24" height="24" fill="none"/>
<path d="M8.46471 7.0504L11.8588 10.4445C11.9369 10.5226 12.0636 10.5226 12.1417 10.4445L15.5357 7.05044C15.9263 6.65992 16.5594 6.65992 16.95 7.05044C17.3405 7.44097 17.3405 8.07413 16.95 8.46466L13.5559 11.8587C13.4778 11.9368 13.4778 12.0635 13.5559 12.1416L16.95 15.5357C17.3405 15.9262 17.3405 16.5594 16.95 16.9499C16.5595 17.3404 15.9263 17.3404 15.5358 16.9499L12.1417 13.5558C12.0636 13.4777 11.9369 13.4777 11.8588 13.5558L8.46468 16.9499C8.07415 17.3405 7.44099 17.3405 7.05046 16.9499C6.65994 16.5594 6.65994 15.9262 7.05046 15.5357L10.4446 12.1416C10.5227 12.0635 10.5227 11.9368 10.4446 11.8587L7.0505 8.46461C6.65997 8.07409 6.65997 7.44092 7.0505 7.0504C7.44102 6.65988 8.07418 6.65988 8.46471 7.0504Z" fill="#0B1F35"/>
</svg>
