<?xml version="1.0" encoding="UTF-8"?>
<svg width="30px" height="30px" viewBox="0 0 30 30" version="1.1" xmlns="http://www.w3.org/2000/svg" xmlns:xlink="http://www.w3.org/1999/xlink">
    <!-- Generator: Sketch 51 (57462) - http://www.bohemiancoding.com/sketch -->
    <title>icon_action-photo-or-file_l_black</title>
    <desc>Created with Sketch.</desc>
    <defs></defs>
    <g id="Final" stroke="none" stroke-width="1" fill="none" fill-rule="evenodd">
        <g id="Artboard-Copy-2" transform="translate(-177.000000, -180.000000)">
            <rect id="Rectangle-4" fill="#FFFFFF" x="0" y="140" width="360" height="140"></rect>
            <g id="icon_action-photo-or-file_l_black" opacity="0.8" transform="translate(177.000000, 180.000000)">
                <polygon points="0 0 30 0 30 21.0592998 30 30 0 30"></polygon>
                <g id="Group" transform="translate(4.000000, 2.000000)" fill="#0B1F35">
                    <path d="M15.5147361,0.675560509 L16.2520407,1 L15.8120061,1 L15.5147361,0.675560509 Z M15.8120061,1 L22,7.75355646 L22,21 C22,21.5522847 21.5522847,22 21,22 L18.6284612,22 L18.6284612,23 L21,23 C22.1045695,23 23,22.1045695 23,21 L23,7.36470092 L16.2520407,4.4408921e-16 L6,0 C4.8954305,2.02906125e-16 4,0.8954305 4,2 L4,4.67669654 L5,4.67669654 L5,2 C5,1.44771525 5.44771525,1 6,1 L15.8120061,1 Z M22.2626955,8.04026143 L22,7.36470092 L22,7.75355646 L22.2626955,8.04026143 Z M22,7.36470092 L22.2626955,8.04026143 L22,7.75355646 L22,7.36470092 Z M22,7.75355646 L22,21 C22,21.5522847 21.5522847,22 21,22 L18.6284612,22 L18.6284612,23 L21,23 C22.1045695,23 23,22.1045695 23,21 L23,7.36470092 L16.2520407,4.4408921e-16 L6,0 C4.8954305,2.02906125e-16 4,0.8954305 4,2 L4,4.67669654 L5,4.67669654 L5,2 C5,1.44771525 5.44771525,1 6,1 L15.8120061,1 L22,7.75355646 Z M16.2520407,1 L15.5147361,0.675560509 L15.8120061,1 L16.2520407,1 Z" id="Rectangle-2-Copy" fill-rule="nonzero"></path>
                    <path d="M18,11.7535565 L11.8120061,5 L2,5 C1.44771525,5 1,5.44771525 1,6 L1,25 C1,25.5522847 1.44771525,26 2,26 L17,26 C17.5522847,26 18,25.5522847 18,25 L18,11.7535565 Z M2,4 L12.2520407,4 L19,11.3647009 L19,25 C19,26.1045695 18.1045695,27 17,27 L2,27 C0.8954305,27 -1.94046545e-14,26.1045695 -1.95399252e-14,25 L-1.95399252e-14,6 C-1.9675196e-14,4.8954305 0.8954305,4 2,4 Z" id="Rectangle-2-Copy" fill-rule="nonzero"></path>
                    <path d="M3.42746827,21.2519305 L6.1528048,16.4825916 C6.42681477,16.0030742 7.03766943,15.8364774 7.51718688,16.1104874 C7.66595532,16.1954979 7.790385,16.3173083 7.87854087,16.4642348 L9.39928402,18.9988067 C9.68343217,19.472387 10.2976924,19.625952 10.7712727,19.3418039 C10.8154037,19.3153253 10.8574247,19.2854794 10.8969613,19.2525322 L12.1450724,18.2124396 C12.5693493,17.8588755 13.199914,17.9161996 13.5534781,18.3404765 C13.5762604,18.3678152 13.597567,18.3963505 13.6173071,18.4259607 L15.4817666,21.2226499 C15.6349428,21.4524142 15.5728559,21.7628489 15.3430916,21.9160251 C15.2609578,21.970781 15.1644539,22 15.0657415,22 L3.86158984,22 C3.58544746,22 3.36158984,21.7761424 3.36158984,21.5 C3.36158984,21.4129865 3.3842975,21.3274794 3.42746827,21.2519305 Z" id="Line" opacity="0.300000012"></path>
                    <rect id="Rectangle-path" opacity="0.300000012" x="10" y="12" width="3" height="3" rx="1.5"></rect>
                </g>
            </g>
        </g>
    </g>
</svg>