<svg width="24" height="24" viewBox="0 0 24 24" xmlns="http://www.w3.org/2000/svg"><g fill="none" fill-rule="evenodd"><path d="M0 0h24v24H0z"/><path d="M10.386 5H19a2 2 0 0 1 2 2v14a2 2 0 0 1-2 2H8a2 2 0 0 1-2-2V9.224L10.386 5zm.426 1L7 9.777V21a1 1 0 0 0 1 1h11a1 1 0 0 0 1-1V7a1 1 0 0 0-1-1h-8.188z" fill="#0A1E32"/><path d="M17 5h-1V3a1 1 0 0 0-1-1H6.812L3 5.777V17a1 1 0 0 0 1 1h2v1H4a2 2 0 0 1-2-2V5.224L6.386 1H15a2 2 0 0 1 2 2v2z" fill="#0A1E32" opacity=".3"/><path fill="#0A1E32" opacity=".3" d="M10 11h5v2h-5zM10 15h7v2h-7z"/></g></svg>