<?xml version="1.0" encoding="UTF-8"?>
<svg width="36px" height="36px" viewBox="0 0 36 36" version="1.1" xmlns="http://www.w3.org/2000/svg" xmlns:xlink="http://www.w3.org/1999/xlink">
    <!-- Generator: Sketch 51 (57462) - http://www.bohemiancoding.com/sketch -->
    <title>icon_action-photo-or-file_xl_black</title>
    <desc>Created with Sketch.</desc>
    <defs></defs>
    <g id="Final" stroke="none" stroke-width="1" fill="none" fill-rule="evenodd">
        <g id="Artboard-Copy-2" transform="translate(-112.000000, -180.000000)">
            <rect id="Rectangle-4" fill="#FFFFFF" x="0" y="140" width="360" height="140"></rect>
            <g id="icon_action-photo-or-file_xl_black" opacity="0.8" transform="translate(112.000000, 180.000000)">
                <rect x="0" y="0" width="36" height="36"></rect>
                <g id="Group" transform="translate(4.000000, 1.000000)" fill="#0B1F35">
                    <path d="M20.5147361,0.675560509 L21.2520407,1 L20.8120061,1 L20.5147361,0.675560509 Z M20.8120061,1 L27,7.75355646 L27,25 C27,26.1045695 26.1045695,27 25,27 L21.5265119,27 L21.5265119,28 L25,28 C26.6568542,28 28,26.6568542 28,25 L28,7.36470092 L21.2520407,0 L9,0 C7.34314575,3.04359188e-16 6,1.34314575 6,3 L6,5.70251632 L7,5.70251632 L7,3 C7,1.8954305 7.8954305,1 9,1 L20.8120061,1 Z M27.2626955,8.04026143 L27,7.36470092 L27,7.75355646 L27.2626955,8.04026143 Z M27,7.36470092 L27.2626955,8.04026143 L27,7.75355646 L27,7.36470092 Z M27,25 C27,26.1045695 26.1045695,27 25,27 L21.5265119,27 L21.5265119,28 L25,28 C26.6568542,28 28,26.6568542 28,25 L28,7.36470092 L21.2520407,0 L9,0 C7.34314575,3.04359188e-16 6,1.34314575 6,3 L6,5.70251632 L7,5.70251632 L7,3 C7,1.8954305 7.8954305,1 9,1 L20.8120061,1 L27,7.75355646 L27,25 Z M20.8120061,1 L21.2520407,1 L20.5147361,0.675560509 L20.8120061,1 Z" id="Rectangle-2-Copy" fill-rule="nonzero"></path>
                    <path d="M14.8120061,6 L3,6 C1.8954305,6 1,6.8954305 1,8 L1,30 C1,31.1045695 1.8954305,32 3,32 L19,32 C20.1045695,32 21,31.1045695 21,30 L21,12.7535565 L14.8120061,6 Z M3,5 L15.2520407,5 L22,12.3647009 L22,30 C22,31.6568542 20.6568542,33 19,33 L3,33 C1.34314575,33 -1.22446645e-14,31.6568542 -1.46549439e-14,30 L-1.46549439e-14,8 C-1.48578501e-14,6.34314575 1.34314575,5 3,5 Z" id="Rectangle-2-Copy" fill-rule="nonzero"></path>
                    <path d="M3.88648243,25.4929799 L6.7360909,20.6486455 C7.15612013,19.9345958 8.07547273,19.6962451 8.78952242,20.1162743 C9.00062914,20.2404548 9.17811667,20.4144396 9.3064797,20.6230295 L11.3864281,24.0029456 C11.6758791,24.4733035 12.2918259,24.6199575 12.7621838,24.3305065 C12.8067687,24.3030697 12.8491302,24.2721741 12.8888778,24.2381048 L14.6625204,22.7178396 C15.0818463,22.3584175 15.7131463,22.406979 16.0725684,22.8263049 C16.0938102,22.851087 16.1138259,22.8768942 16.1325437,22.9036339 L17.8985764,25.4265377 C18.2152909,25.878987 18.1052561,26.5025174 17.6528068,26.8192319 C17.4847232,26.9368904 17.2845165,27 17.0793444,27 L4.74841664,27 C4.19613189,27 3.74841664,26.5522847 3.74841664,26 C3.74841664,25.8217072 3.7960844,25.6466565 3.88648243,25.4929799 Z" id="Line" opacity="0.300000012"></path>
                    <rect id="Rectangle-path" opacity="0.300000012" x="12" y="14" width="4" height="4" rx="2"></rect>
                </g>
            </g>
        </g>
    </g>
</svg>