<svg width="24" height="24" viewBox="0 0 24 24" fill="none" xmlns="http://www.w3.org/2000/svg">
<path fill-rule="evenodd" clip-rule="evenodd" d="M16.5 9C17.3284 9 18 8.32843 18 7.5C18 6.67157 17.3284 6 16.5 6C15.6716 6 15 6.67157 15 7.5C15 8.32843 15.6716 9 16.5 9Z" fill="#0B1F35"/>
<path fill-rule="evenodd" clip-rule="evenodd" d="M4 2H20C21.1046 2 22 2.89543 22 4V15.7929L19.4778 13.2706C18.9429 12.7357 18.0933 12.6828 17.4962 13.1473L14.3899 15.5633C14.1908 15.7181 13.9076 15.7005 13.7293 15.5222L8.06066 9.85352C7.47487 9.26774 6.52513 9.26774 5.93934 9.85352L2 13.7929V4C2 2.89543 2.89543 2 4 2ZM2 15.2071V20C2 21.1046 2.89543 22 4 22H20C21.1046 22 22 21.1046 22 20V17.2071L18.7707 13.9777C18.5924 13.7994 18.3092 13.7818 18.1101 13.9366L15.0038 16.3527C14.4067 16.8171 13.5571 16.7642 13.0222 16.2293L7.35355 10.5606C7.15829 10.3654 6.84171 10.3654 6.64645 10.5606L2 15.2071ZM1 4C1 2.34315 2.34315 1 4 1H20C21.6569 1 23 2.34315 23 4V20C23 21.6569 21.6569 23 20 23H4C2.34315 23 1 21.6569 1 20V4Z" fill="#0B1F35"/>
</svg>
