<?xml version="1.0" encoding="UTF-8"?>
<svg width="48px" height="48px" viewBox="0 0 48 48" version="1.1" xmlns="http://www.w3.org/2000/svg" xmlns:xlink="http://www.w3.org/1999/xlink">
    <!-- Generator: Sketch 51 (57462) - http://www.bohemiancoding.com/sketch -->
    <title>icon_action-photo or file_xxl_white</title>
    <desc>Created with Sketch.</desc>
    <defs></defs>
    <g id="Final" stroke="none" stroke-width="1" fill="none" fill-rule="evenodd">
        <g id="Artboard-Copy-2" transform="translate(-40.000000, -48.000000)">
            <rect fill="#212A33" x="0" y="0" width="360" height="280"></rect>
            <g id="icon_action-photo-or-file_xxl_white" opacity="0.8" transform="translate(40.000000, 48.000000)">
                <rect x="0" y="0" width="48" height="48"></rect>
                <g id="Group" transform="translate(6.000000, 2.000000)" fill="#FFFFFF">
                    <path d="M29,16.7907088 L19.8495239,8 L3,8 C1.8954305,8 1,8.8954305 1,10 L1,41 C1,42.1045695 1.8954305,43 3,43 L27,43 C28.1045695,43 29,42.1045695 29,41 L29,16.7907088 Z M3,7 L20.2520407,7 L30,16.3647009 L30,41 C30,42.6568542 28.6568542,44 27,44 L3,44 C1.34314575,44 2.02906125e-16,42.6568542 0,41 L0,10 C-2.02906125e-16,8.34314575 1.34314575,7 3,7 Z" id="Rectangle-2-Copy" fill-rule="nonzero"></path>
                    <path d="M26.5592525,0.721141132 L27.2520407,1 L26.8495239,1 L26.5592525,0.721141132 Z M26.8495239,1 L36,9.79070881 L36,34 C36,35.1045695 35.1045695,36 34,36 L29.4912326,36 L29.4912326,37 L34,37 C35.6568542,37 37,35.6568542 37,34 L37,9.36470092 L27.2520407,1.77635684e-15 L10,0 C8.34314575,3.04359188e-16 7,1.34314575 7,3 L7,7.50676988 L8,7.50676988 L8,3 C8,1.8954305 8.8954305,1 10,1 L26.8495239,1 Z M36.3072118,10.085842 L36,9.36470092 L36,9.79070881 L36.3072118,10.085842 Z M36,9.36470092 L36.3072118,10.085842 L36,9.79070881 L36,9.36470092 Z M36,34 C36,35.1045695 35.1045695,36 34,36 L29.4912326,36 L29.4912326,37 L34,37 C35.6568542,37 37,35.6568542 37,34 L37,9.36470092 L27.2520407,1.77635684e-15 L10,0 C8.34314575,3.04359188e-16 7,1.34314575 7,3 L7,7.50676988 L8,7.50676988 L8,3 C8,1.8954305 8.8954305,1 10,1 L26.8495239,1 L36,9.79070881 L36,34 Z M26.8495239,1 L27.2520407,1 L26.5592525,0.721141132 L26.8495239,1 Z" id="Rectangle-2-Copy" fill-rule="nonzero"></path>
                    <path d="M4.9251851,34.4800531 L9.41490645,27.1040823 C9.98922399,26.1605606 11.2196758,25.8612615 12.1631975,26.435579 C12.3972516,26.5780468 12.5995349,26.7670886 12.7574983,26.9909768 L15.8072184,31.3134742 C16.4440023,32.2160151 17.6918716,32.4314536 18.5944125,31.7946696 C18.6128875,31.7816347 18.63114,31.7682874 18.6491624,31.7546335 L20.1200738,30.6402575 C21.0005033,29.973236 22.2549602,30.1462374 22.9219817,31.0266669 C22.960522,31.0775379 22.9966053,31.1302246 23.0301075,31.1845459 L25.0595086,34.4750649 C25.3494222,34.9451378 25.2033743,35.5612286 24.7333014,35.8511422 C24.5755047,35.9484621 24.3937604,36 24.2083663,36 L5.77938365,36 C5.2270989,36 4.77938365,35.5522847 4.77938365,35 C4.77938365,34.8165932 4.82982331,34.6367188 4.9251851,34.4800531 Z" id="Line" opacity="0.300000012"></path>
                    <rect id="Rectangle-path" opacity="0.300000012" x="15" y="17" width="7" height="7" rx="3.5"></rect>
                </g>
            </g>
        </g>
    </g>
</svg>