<svg fill="none" height="24" viewBox="0 0 24 24" width="24" xmlns="http://www.w3.org/2000/svg"><path d="m0 0h24v24h-24z"/><path d="m10.405 11.345c0-.7865.635-1.42428 1.4185-1.42428s1.4185.63778 1.4185 1.42428v1.7088c0 .7866-.635 1.4242-1.4185 1.4242s-1.4185-.6376-1.4185-1.4242zm-2.405-6.31476.02928.05144-.02775-.04782s.22384.73766.74077 1.62592c.39218.6736.75901 1.1162.93042 1.30815l.09165.16092v12.65175c0 .6733.54343 1.2191 1.21403 1.2191h1.6903c.6704 0 1.214-.5458 1.214-1.2191v-12.66985l.0677-.11825c.1584-.17429.5432-.62764.9557-1.33645.5171-.88815.7409-1.62581.7409-1.62581v-1.00388h-7.647zm7.647-2.45569c0-.31733-.2561-.57455-.5722-.57455h-6.50252c-.31592 0-.57221.25722-.57221.57455 0 .00252.00077.00483.00077.00724h-.00077v.56325h.53169c.01365.00088.02665.00406.04052.00406h6.50252c.0139 0 .0269-.00318.0405-.00406h.5317v-.56325h-.0007c.0001-.00241.0007-.00472.0007-.00724m-3.9667 11.29895c.4712.0794.9172-.2398.9963-.7128.0791-.4732-.2387-.9211-.71-1.0005-.4711-.0793-.9172.2398-.9963.713-.0791.4731.2388.9209.71 1.0003" fill="#fff"/></svg>
