<?xml version="1.0" encoding="UTF-8"?>
<svg width="36px" height="36px" viewBox="0 0 36 36" version="1.1" xmlns="http://www.w3.org/2000/svg" xmlns:xlink="http://www.w3.org/1999/xlink">
    <!-- Generator: Sketch 48.2 (47327) - http://www.bohemiancoding.com/sketch -->
    <title>icon_nps_hand_xl_black</title>
    <desc>Created with Sketch.</desc>
    <defs></defs>
    <g id="set" stroke="none" stroke-width="1" fill="none" fill-rule="evenodd">
        <g id="icon_nps_hand_xl_black">
            <rect id="_ph_-copy" x="0" y="0" width="36" height="36"></rect>
            <g id="art" transform="translate(3.000000, 2.000000)" fill="#0F2338">
                <path d="M28.6122369,23.719396 C28.2551222,26.704882 27.5765586,29.310365 22.8759968,30.9561648 C21.4841184,31.4434834 20.1782035,31.6805454 18.8832628,31.6805454 L18.8828055,31.6805454 C16.1269411,31.6801056 13.7355074,30.599912 10.9659254,29.3486292 L10.2539824,29.0280018 C5.92882533,27.0879636 2.80761571,25.4843865 2.74314302,25.4522797 C2.16791863,25.1941064 1.73215643,24.735376 1.51587572,24.1605336 C1.299595,23.5848116 1.3288592,22.9624688 1.59818127,22.4069784 C1.99141893,21.5955139 2.80761571,21.0914822 3.72852344,21.0914822 C4.07557854,21.0914822 4.41440308,21.164492 4.7203054,21.3017153 L9.66641213,23.6617798 C9.91790133,23.7818502 10.2196884,23.7427063 10.4291103,23.5619411 C10.638075,23.3816156 10.71215,23.0970532 10.6156696,22.8437179 L3.37689581,3.84928896 C3.05270337,2.99120364 3.09705692,1.84107902 4.29048749,1.42369154 C4.48710633,1.35464008 4.67915262,1.31945463 4.8606821,1.31945463 C5.55204878,1.31945463 6.16751145,1.85559302 6.5072505,2.7537018 L10.8863634,14.3257587 C11.0162233,14.6683771 11.4112899,14.8447442 11.7652038,14.7198358 C12.121404,14.5949274 12.3052197,14.2166838 12.1753599,13.8740654 L11.5498376,12.2212286 C11.0335989,10.8564727 12.1310063,9.91130333 12.9943002,9.60914822 C13.196406,9.53833749 13.4067424,9.50227239 13.6193651,9.50227239 C14.3857213,9.50227239 15.0766307,9.96760006 15.339094,10.6603137 L16.1914138,12.9143821 L16.1987298,12.9341739 C16.329047,13.2763524 16.7236564,13.4527195 17.0775703,13.328251 C17.4337704,13.2033426 17.6171289,12.825099 17.4877263,12.4829204 L17.0871726,11.4229585 C16.7616084,10.5204515 17.255899,9.52118458 18.1896098,9.19439965 C18.3917157,9.12358892 18.6020521,9.08752382 18.815132,9.08752382 C19.581031,9.08752382 20.2719404,9.55329131 20.5344037,10.246005 L21.5367025,12.8954699 L21.5504201,12.9319748 C21.6798227,13.2741533 22.0716886,13.4514001 22.4297178,13.3260519 C22.7854607,13.2015833 22.9688192,12.8228999 22.8394165,12.4802815 L22.242244,10.9026536 C22.4539522,10.691101 22.8993167,10.3537604 23.2024755,10.2477643 C23.3721164,10.1883888 23.5568466,10.1584812 23.7516365,10.1584812 C24.4064229,10.1584812 24.9885061,10.4892245 25.1682065,10.9637883 C26.2185169,13.739481 28.8847597,21.4420173 28.6122369,23.719396 M26.4567458,10.5125348 C26.0785975,9.51150858 24.9912496,8.83902654 23.7516365,8.83902654 C23.3968081,8.83902654 23.0543255,8.89576308 22.7333338,9.00791673 C22.435662,9.11215364 22.0735176,9.3188682 21.731035,9.57748131 C21.2166253,8.48629233 20.0739498,7.7680692 18.815132,7.7680692 C18.4420135,7.7680692 18.0739248,7.8309632 17.7209254,7.95455212 C17.001209,8.20656795 16.4310144,8.6859698 16.0665837,9.27928456 C15.4694112,8.59932561 14.5782249,8.18281777 13.6193651,8.18281777 C13.2462466,8.18281777 12.8781579,8.24571177 12.5247012,8.36930069 C11.7729771,8.6327518 11.0829822,9.12490837 10.6225283,9.77100132 L7.79624697,2.30244832 C7.25074403,0.860724234 6.15379386,0 4.8606821,0 C4.51865679,0 4.16885817,0.0615745492 3.82134582,0.183404193 C2.13773992,0.772760592 1.40887849,2.50432488 2.08881384,4.3018619 L8.73544483,21.7446122 L5.31564893,20.1124469 C4.81129877,19.8863803 4.27722715,19.7720276 3.72852344,19.7720276 C2.29046246,19.7720276 0.966714749,20.5870107 0.354910109,21.849289 C-0.0689635101,22.7232077 -0.11468882,23.7031227 0.225964736,24.6091482 C0.566618292,25.5164932 1.2547842,26.240434 2.12950937,26.6318722 C2.16060258,26.6477056 5.31199091,28.2671163 9.67418543,30.2238675 L10.3829277,30.5431755 C13.1794877,31.8063334 15.8205815,32.9995602 18.8828055,33 L18.8832628,33 C20.3405284,33 21.8000802,32.7369887 23.3446812,32.1960123 C28.7713609,30.2964375 29.595331,27.0413429 29.9748511,23.8702536 C30.339739,20.8196745 26.6158698,10.9316816 26.4567458,10.5125348" id="Fill-1"></path>
            </g>
        </g>
    </g>
</svg>