<svg width="48" height="48" viewBox="0 0 48 48" fill="none" xmlns="http://www.w3.org/2000/svg">
<path fill-rule="evenodd" clip-rule="evenodd" d="M6 3.5H42C43.3807 3.5 44.5 4.61929 44.5 6V32.9393L38.5305 26.9698C37.1266 25.5659 34.8715 25.4996 33.3875 26.8187L28.6902 30.9941C27.7773 31.8056 26.3838 31.7406 25.5505 30.8477L15.667 20.2583C14.2194 18.7072 11.7742 18.6651 10.2739 20.1654L3.5 26.9393V6C3.5 4.61929 4.61929 3.5 6 3.5ZM3.5 29.0606L3.5 42C3.5 43.3807 4.61929 44.5 6 44.5H42C43.3807 44.5 44.5 43.3807 44.5 42V35.0606L37.4699 28.0305C36.6275 27.1881 35.2745 27.1484 34.3841 27.9398L29.6867 32.1153C28.1653 33.4676 25.8428 33.3593 24.4539 31.8712L14.5705 21.2818C13.7018 20.3511 12.2348 20.3259 11.3346 21.226L3.5 29.0606ZM2 6C2 3.79086 3.79086 2 6 2H42C44.2091 2 46 3.79086 46 6V42C46 44.2091 44.2091 46 42 46H6C3.79086 46 2 44.2091 2 42V6Z" fill="white"/>
<path fill-rule="evenodd" clip-rule="evenodd" d="M32.5 19C34.433 19 36 17.433 36 15.5C36 13.567 34.433 12 32.5 12C30.567 12 29 13.567 29 15.5C29 17.433 30.567 19 32.5 19Z" fill="white"/>
</svg>
