<svg width="24" height="24" viewBox="0 0 24 24" fill="none" xmlns="http://www.w3.org/2000/svg">
<path fill-rule="evenodd" clip-rule="evenodd" d="M14 8H10V20.5C10 21.3284 10.6716 22 11.5 22H12.5C13.3284 22 14 21.3284 14 20.5V8ZM12.0121 10.032C11.1846 10.032 10.514 10.6621 10.514 11.4393V13.1276C10.514 13.9047 11.1846 14.5347 12.0121 14.5347C12.8396 14.5347 13.5102 13.9047 13.5102 13.1276V11.4393C13.5102 10.6621 12.8396 10.032 12.0121 10.032Z" fill="#0B1F35"/>
<path d="M16 4H8V5C8 6 10 8 10 8H14C14 8 16 6 16 5L16 4Z" fill="#0B1F35"/>
<path d="M12.8767 13.0043C12.8767 13.4885 12.4842 13.881 12 13.881C11.5158 13.881 11.1233 13.4885 11.1233 13.0043C11.1233 12.5201 11.5158 12.1276 12 12.1276C12.4842 12.1276 12.8767 12.5201 12.8767 13.0043Z" fill="#0B1F35"/>
<path d="M8.5 2.0719C8.22386 2.0719 8 2.29576 8 2.5719V3.0719H16L16 2.57173C16 2.29559 15.7761 2.0719 15.5 2.0719H8.5Z" fill="#0B1F35"/>
</svg>
