<?xml version="1.0" encoding="UTF-8"?>
<svg width="24px" height="24px" viewBox="0 0 24 24" version="1.1" xmlns="http://www.w3.org/2000/svg" xmlns:xlink="http://www.w3.org/1999/xlink">
    <!-- Generator: Sketch 47.1 (45422) - http://www.bohemiancoding.com/sketch -->
    <title>icon_pin_m_white</title>
    <desc>Created with Sketch.</desc>
    <defs></defs>
    <g id="October-2017" stroke="none" stroke-width="1" fill="none" fill-rule="evenodd">
        <g id="icon_pin_m_white">
            <g>
                <rect id="_ph_" x="0" y="0" width="24" height="24"></rect>
                <polygon id="Line" fill="#FFFFFF" fill-rule="nonzero" points="0.146446609 23.1464466 8.37867966 14.9142136 9.08578644 15.6213203 0.853553391 23.8535534"></polygon>
                <polygon id="Line-2" fill="#FFFFFF" fill-rule="nonzero" opacity="0.300000012" points="14.3385175 5 9 10.3377562 9.6615109 11 15 5.66148247"></polygon>
                <path d="M14.5337122,20.2947313 C15.2582148,19.3143162 15.37608,17.9914842 14.8010804,16.8854511 L14.1693359,15.6702669 L19.6332634,10.2063394 L19.9732346,10.5455231 C20.5827226,11.1535991 21.5695772,11.1530269 22.1783596,10.5442446 L22.3200566,10.4025476 L13.5974524,1.67994339 L13.4557554,1.82164036 C12.8469731,2.43042275 12.8464009,3.41727742 13.4544769,4.02676535 L13.7936606,4.36673659 L8.32973311,9.83066407 L7.1145489,9.19891957 C6.00851579,8.62392005 4.68568375,8.74178523 3.70526872,9.46628775 L14.5337122,20.2947313 Z M15.6542584,16.4419048 C16.4978335,18.0645531 16.1921849,20.0467961 14.8990093,21.3399717 L14.5590376,21.6799434 L2.32005661,9.44096242 L2.66002831,9.10099072 C3.95320395,7.80781508 5.93544693,7.50216648 7.55809523,8.34574159 L8.14806039,8.65245002 L12.4668653,4.33364513 C11.8048013,3.35279256 11.9079455,2.00956351 12.7758121,1.14169697 L13.5974524,0.320056613 L23.6799434,10.4025476 L22.858303,11.2241879 C21.9904365,12.0920545 20.6472074,12.1951987 19.6663549,11.5331347 L15.34755,15.8519396 L15.6542584,16.4419048 Z" id="Line" fill="#FFFFFF" fill-rule="nonzero"></path>
            </g>
        </g>
    </g>
</svg>