<svg width="36" height="36" viewBox="0 0 36 36" xmlns="http://www.w3.org/2000/svg"><g transform="translate(1)" fill="none" fill-rule="evenodd"><path d="M0 0h36v36H0z"/><path d="M9 13.241L16.339 6H28.5A2.5 2.5 0 0 1 31 8.5v23a2.5 2.5 0 0 1-2.5 2.5h-17A2.5 2.5 0 0 1 9 31.5V13.241zm1 .517V31.4a1.6 1.6 0 0 0 1.6 1.6h16.8a1.6 1.6 0 0 0 1.6-1.6V8.6A1.6 1.6 0 0 0 28.4 7H16.703L10 13.758z" fill="#0A1E32"/><path d="M26 6h-1V3.6A1.6 1.6 0 0 0 23.4 2H11.703L5 8.758V26.4A1.6 1.6 0 0 0 6.6 28H9v1H6.5A2.5 2.5 0 0 1 4 26.5V8.241L11.339 1H23.5A2.5 2.5 0 0 1 26 3.5V6z" fill="#0A1E32" opacity=".3"/><path fill="#0A1E32" opacity=".3" d="M14 14h8v3h-8zM14 19h12v3H14z"/><circle fill="#0A1E32" opacity=".3" cx="16" cy="26" r="2"/></g></svg>