<svg xmlns="http://www.w3.org/2000/svg" width="24" height="24" viewBox="0 0 24 24">
  <g fill="none" fill-rule="evenodd">
    <rect width="24" height="24"/>
    <path fill="#0B1F35" fill-opacity=".3" d="M8.28953383,15.5 L19.5101591,15.5 C20.0568332,15.5 20.5,15.9477153 20.5,16.5 C20.5,17.0522847 20.0568332,17.5 19.5101591,17.5 L8.28953383,17.5 L9.07437198,18.2928932 C9.4609289,18.6834175 9.4609289,19.3165825 9.07437198,19.7071068 C8.68781505,20.0976311 8.06108245,20.0976311 7.67452553,19.7071068 L4.5,16.5 L7.67452553,13.2928932 C8.06108245,12.9023689 8.68781505,12.9023689 9.07437198,13.2928932 C9.4609289,13.6834175 9.4609289,14.3165825 9.07437198,14.7071068 L8.28953383,15.5 Z" transform="matrix(-1 0 0 1 25 0)"/>
    <path fill="#0B1F35" fill-opacity=".3" d="M7.78953383,6.5 L19.0101591,6.5 C19.5568332,6.5 20,6.94771525 20,7.5 C20,8.05228475 19.5568332,8.5 19.0101591,8.5 L7.78953383,8.5 L8.57437198,9.29289322 C8.9609289,9.68341751 8.9609289,10.3165825 8.57437198,10.7071068 C8.18781505,11.0976311 7.56108245,11.0976311 7.17452553,10.7071068 L4,7.5 L7.17452553,4.29289322 C7.56108245,3.90236893 8.18781505,3.90236893 8.57437198,4.29289322 C8.9609289,4.68341751 8.9609289,5.31658249 8.57437198,5.70710678 L7.78953383,6.5 Z"/>
  </g>
</svg>
