<?xml version="1.0" encoding="UTF-8"?>
<svg width="27px" height="33px" viewBox="0 0 27 33" version="1.1" xmlns="http://www.w3.org/2000/svg" xmlns:xlink="http://www.w3.org/1999/xlink">
    <!-- Generator: Sketch 52.6 (67491) - http://www.bohemiancoding.com/sketch -->
    <title>icon_selfemloyed-reg_xl_white</title>
    <desc>Created with Sketch.</desc>
    <g id="ver_4" stroke="none" stroke-width="1" fill="none" fill-rule="evenodd">
        <g id="icon_selfemloyed-reg_xl_white" transform="translate(-5.000000, -1.000000)">
            <polygon id="Path" points="0 0 36 0 36 36 0 36"></polygon>
            <path d="M8,2 C6.8954305,2 6,2.8954305 6,4 L6,31 C6,32.1045695 6.8954305,33 8,33 L29,33 C30.1045695,33 31,32.1045695 31,31 L31,4 C31,2.8954305 30.1045695,2 29,2 L8,2 Z M8,1 L29,1 C30.6568542,1 32,2.34314575 32,4 L32,31 C32,32.6568542 30.6568542,34 29,34 L8,34 C6.34314575,34 5,32.6568542 5,31 L5,4 C5,2.34314575 6.34314575,1 8,1 Z" id="Rectangle" fill="#FFFFFF" fill-rule="nonzero"></path>
            <path d="M10,13 L25,13 L25,16 L10,16 L10,13 Z M10,7 L20.5,7 L20.5,10 L10,10 L10,7 Z M10,19 L16,19 L16,22 L10,22 L10,19 Z" id="Combined-Shape" fill="#FFFFFF" fill-rule="nonzero" opacity="0.3"></path>
            <path d="M21.6,26.0717163 C20.6284426,25.3549827 20,24.2138569 20,22.9285714 C20,20.7588813 21.790861,19 24,19 C26.209139,19 28,20.7588813 28,22.9285714 C28,24.2138569 27.3715574,25.3549827 26.4,26.0717163 L26.4,30 L24,28.3647858 L21.6,30 L21.6,26.0717163 Z" id="Combined-Shape" fill="#FFFFFF" fill-rule="nonzero" opacity="0.3"></path>
        </g>
    </g>
</svg>