<svg xmlns="http://www.w3.org/2000/svg" width="24" height="24" viewBox="0 0 24 24">
  <g fill="none">
    <rect width="24" height="24" fill="none"/>
    <path fill="#0F2338" d="M4,17.2665888 C4,17.6746705 4.35397908,18 4.792924,18 L19.207076,18 C19.6450192,18 20,17.6729343 20,17.2665888 L20,6.7334112 C20,6.32532946 19.6460209,6 19.207076,6 L4.792924,6 C4.35498082,6 4,6.32706574 4,6.7334112 L4,17.2665888 Z M4.62912682,5 L19.3708732,5 C20.2706151,5 21,5.6806329 21,6.52949296 L21,17.470507 C21,18.3152227 20.272085,19 19.3708732,19 L4.62912682,19 C3.72938492,19 3,18.3193671 3,17.470507 L3,6.52949296 C3,5.68477732 3.72791505,5 4.62912682,5 Z"/>
    <rect width="16" height="3" x="4" y="8" fill="#0F2338" opacity=".3"/>
    <rect width="4" height="2" x="5" y="14" fill="#0F2338" opacity=".3"/>
    <polygon fill="#0F2338" points="20.989 6.001 19.989 6.001 19.989 2.004 24 2.004 24 2.999 20.989 2.999" transform="matrix(-1 0 0 1 43.99 0)"/>
    <polygon fill="#0F2338" points=".996 6.001 -.004 6.001 -.004 2.004 4.007 2.004 4.007 2.999 .996 2.999" transform="matrix(0 1 1 0 -2.001 2.001)"/>
    <polygon fill="#0F2338" points="20.996 22.001 19.996 22.001 19.996 18.004 24.007 18.004 24.007 18.999 20.996 18.999" transform="matrix(0 -1 -1 0 42.004 42.004)"/>
    <polygon fill="#0F2338" points=".996 22.001 -.004 22.001 -.004 18.004 4.007 18.004 4.007 18.999 .996 18.999" transform="rotate(-90 2.002 20.003)"/>
  </g>
</svg>
