<?xml version="1.0" encoding="UTF-8"?>
<svg width="18px" height="22px" viewBox="0 0 18 22" version="1.1" xmlns="http://www.w3.org/2000/svg" xmlns:xlink="http://www.w3.org/1999/xlink">
    <!-- Generator: Sketch 52.6 (67491) - http://www.bohemiancoding.com/sketch -->
    <title>icon_selfemloyed-reg_m_white</title>
    <desc>Created with Sketch.</desc>
    <g id="ver_4" stroke="none" stroke-width="1" fill="none" fill-rule="evenodd">
        <g id="icon_selfemloyed-reg_m_white" transform="translate(-3.000000, -1.000000)">
            <polygon id="Path" points="0 0 24 0 24 24 0 24"></polygon>
            <path d="M5,2 C4.44771525,2 4,2.44771525 4,3 L4,21 C4,21.5522847 4.44771525,22 5,22 L19,22 C19.5522847,22 20,21.5522847 20,21 L20,3 C20,2.44771525 19.5522847,2 19,2 L5,2 Z M5,1 L19,1 C20.1045695,1 21,1.8954305 21,3 L21,21 C21,22.1045695 20.1045695,23 19,23 L5,23 C3.8954305,23 3,22.1045695 3,21 L3,3 C3,1.8954305 3.8954305,1 5,1 Z" id="Rectangle" fill="#FFFFFF" fill-rule="nonzero"></path>
            <path d="M7,9.113 L17,9.113 L17,11.113 L7,11.113 L7,9.113 Z M7,5.113 L14,5.113 L14,7.113 L7,7.113 L7,5.113 Z M7,13.113 L11,13.113 L11,15.113 L7,15.113 L7,13.113 Z" id="Combined-Shape" fill="#FFFFFF" fill-rule="nonzero" opacity="0.3"></path>
            <path d="M14,17.5001831 C13.3927766,17.0440799 13,16.3179089 13,15.5 C13,14.1192881 14.1192881,13 15.5,13 C16.8807119,13 18,14.1192881 18,15.5 C18,16.3179089 17.6072234,17.0440799 17,17.5001831 L17,20 L15.5,18.9594092 L14,20 L14,17.5001831 Z" id="Combined-Shape" fill="#FFFFFF" fill-rule="nonzero" opacity="0.3"></path>
        </g>
    </g>
</svg>