<?xml version="1.0" encoding="UTF-8"?>
<svg width="24px" height="24px" viewBox="0 0 24 24" version="1.1" xmlns="http://www.w3.org/2000/svg" xmlns:xlink="http://www.w3.org/1999/xlink">
    <!-- Generator: Sketch 51 (57462) - http://www.bohemiancoding.com/sketch -->
    <title>icon_action-photo-or-file_m_white</title>
    <desc>Created with Sketch.</desc>
    <defs></defs>
    <g id="Final" stroke="none" stroke-width="1" fill="none" fill-rule="evenodd" opacity="0.8">
        <g id="icon_action-photo-or-file_m_white">
            <rect opacity="0" x="0" y="0" width="24" height="24"></rect>
            <g id="Group" transform="translate(3.000000, 1.000000)" fill="#FFFFFF">
                <path d="M8.91539524,5 L2,5 C1.44771525,5 1,5.44771525 1,6 L1,20 C1,20.5522847 1.44771525,21 2,21 L13,21 C13.5522847,21 14,20.5522847 14,20 L14,8.86098402 L8.91539524,5 Z M2,4 L9.25204069,4 L15,8.36470092 L15,20 C15,21.1045695 14.1045695,22 13,22 L2,22 C0.8954305,22 -1.94046545e-14,21.1045695 -1.95399252e-14,20 L-1.95399252e-14,6 C-1.9675196e-14,4.8954305 0.8954305,4 2,4 Z" id="Rectangle-2-Copy" fill-rule="nonzero"></path>
                <path d="M12.6472867,0.79641231 L13.2520407,1 L12.9153952,1 L12.6472867,0.79641231 Z M12.9153952,1 L18,4.86098402 L18,16 C18,16.5522847 17.5522847,17 17,17 L14.5068268,17 L14.5068268,18 L17,18 C18.1045695,18 19,17.1045695 19,16 L19,4.36470092 L13.2520407,0 L6,0 C4.8954305,2.02906125e-16 4,0.8954305 4,2 L4,4.58082122 L5,4.58082122 L5,2 C5,1.44771525 5.44771525,1 6,1 L12.9153952,1 Z M18.395246,5.16111323 L18,4.36470092 L18,4.86098402 L18.395246,5.16111323 Z M18,4.36470092 L18.395246,5.16111323 L18,4.86098402 L18,4.36470092 Z M18,4.86098402 L18,16 C18,16.5522847 17.5522847,17 17,17 L14.5068268,17 L14.5068268,18 L17,18 C18.1045695,18 19,17.1045695 19,16 L19,4.36470092 L13.2520407,0 L6,0 C4.8954305,2.02906125e-16 4,0.8954305 4,2 L4,4.58082122 L5,4.58082122 L5,2 C5,1.44771525 5.44771525,1 6,1 L12.9153952,1 L18,4.86098402 Z M13.2520407,1 L12.6472867,0.79641231 L12.9153952,1 L13.2520407,1 Z" id="Rectangle-2-Copy" fill-rule="nonzero"></path>
                <path d="M2.07921087,17.2222993 L4.59397884,13.457028 C4.90071854,12.9977577 5.52169234,12.8741073 5.98096263,13.180847 C6.10928863,13.266554 6.21603819,13.380797 6.29285572,13.5146339 L7.18195071,15.0636781 C7.45687555,15.5426716 8.06804713,15.7081019 8.54704063,15.4331771 C8.66777646,15.3638791 8.77271353,15.2701361 8.85513485,15.1579484 L9.0022655,14.9576816 C9.32925437,14.5126011 9.95514033,14.4168688 10.4002209,14.7438577 C10.5124086,14.826279 10.6061517,14.9312161 10.6754496,15.0519519 L11.9376819,17.2511023 C12.0751444,17.490599 11.9924292,17.7961848 11.7529324,17.9336472 C11.6771855,17.9771232 11.5913718,18 11.5040347,18 L2.49500208,18 C2.21885971,18 1.99500208,17.7761424 1.99500208,17.5 C1.99500208,17.4011439 2.02430608,17.3045063 2.07921087,17.2222993 Z" id="Line" opacity="0.300000012"></path>
                <rect id="Rectangle-path" opacity="0.300000012" x="7" y="9" width="3" height="3" rx="1.5"></rect>
            </g>
        </g>
    </g>
</svg>