<svg width="36" height="36" viewBox="0 0 36 36" xmlns="http://www.w3.org/2000/svg"><g fill="none" fill-rule="evenodd"><path d="M0 0h36v36H0z"/><path d="M10 13.241L17.339 6H29.5A2.5 2.5 0 0 1 32 8.5v23a2.5 2.5 0 0 1-2.5 2.5h-17a2.5 2.5 0 0 1-2.5-2.5V13.241zm1 .517V31.4a1.6 1.6 0 0 0 1.6 1.6h16.8a1.6 1.6 0 0 0 1.6-1.6V8.6A1.6 1.6 0 0 0 29.4 7H17.703L11 13.758z" fill="#FFF"/><path d="M27 6h-1V3.6A1.6 1.6 0 0 0 24.4 2H12.703L6 8.758V26.4A1.6 1.6 0 0 0 7.6 28H10v1H7.5A2.5 2.5 0 0 1 5 26.5V8.241L12.339 1H24.5A2.5 2.5 0 0 1 27 3.5V6z" fill="#FFF" opacity=".3"/><path fill="#FFF" opacity=".3" d="M15 14h8v3h-8zm0 5h12v3H15z"/><circle fill="#FFF" opacity=".3" cx="17" cy="26" r="2"/></g></svg>