<?xml version="1.0" encoding="UTF-8" standalone="no"?>
<svg width="24px" height="21px" viewBox="0 0 24 21" version="1.1" xmlns="http://www.w3.org/2000/svg" xmlns:xlink="http://www.w3.org/1999/xlink">
    <!-- Generator: Sketch 50.2 (55047) - http://www.bohemiancoding.com/sketch -->
    <title>icon_photo_card__m__black</title>
    <desc>Created with Sketch.</desc>
    <defs></defs>
    <g id="Page-1" stroke="none" stroke-width="1" fill="none" fill-rule="evenodd">
        <g id="card-transfer-copy-20" transform="translate(-339.000000, -28.000000)" fill="#FFFFFF">
            <g id="icon_photo_card__m__black" transform="translate(339.000000, 26.000000)">
                <g id="Group">
                    <rect id="ph" fill-opacity="0" x="0" y="0" width="24" height="24"></rect>
                    <path d="M4,17.2665888 C4,17.6746705 4.35397908,18 4.792924,18 L19.207076,18 C19.6450192,18 20,17.6729343 20,17.2665888 L20,6.7334112 C20,6.32532946 19.6460209,6 19.207076,6 L4.792924,6 C4.35498082,6 4,6.32706574 4,6.7334112 L4,17.2665888 Z M4.62912682,5 L19.3708732,5 C20.2706151,5 21,5.6806329 21,6.52949296 L21,17.470507 C21,18.3152227 20.272085,19 19.3708732,19 L4.62912682,19 C3.72938492,19 3,18.3193671 3,17.470507 L3,6.52949296 C3,5.68477732 3.72791505,5 4.62912682,5 Z" id="Rectangle-2" fill-rule="nonzero"></path>
                    <rect id="shape" opacity="0.300000012" x="4" y="8" width="16" height="3"></rect>
                    <rect id="rect" opacity="0.3" x="5" y="14" width="4" height="2"></rect>
                    <polygon id="Path-2" fill-rule="nonzero" transform="translate(21.994758, 4.002765) scale(-1, 1) translate(-21.994758, -4.002765) " points="20.9890905 6.00116502 19.9890905 6.00116502 19.9890905 2.00436401 24.0004262 2.00436401 24.0004262 2.99935913 20.9890905 2.99935913"></polygon>
                    <polygon id="Path-2" fill-rule="nonzero" transform="translate(2.001594, 4.002765) scale(-1, 1) rotate(90.000000) translate(-2.001594, -4.002765) " points="0.995925903 6.00116502 -0.00407409668 6.00116502 -0.00407409668 2.00436401 4.00726163 2.00436401 4.00726163 2.99935913 0.995925903 2.99935913"></polygon>
                    <polygon id="Path-2" fill-rule="nonzero" transform="translate(22.001594, 20.002765) scale(-1, 1) rotate(-90.000000) translate(-22.001594, -20.002765) " points="20.9959259 22.001165 19.9959259 22.001165 19.9959259 18.004364 24.0072616 18.004364 24.0072616 18.9993591 20.9959259 18.9993591"></polygon>
                    <polygon id="Path-2" fill-rule="nonzero" transform="translate(2.001594, 20.002765) rotate(-90.000000) translate(-2.001594, -20.002765) " points="0.995925903 22.001165 -0.00407409668 22.001165 -0.00407409668 18.004364 4.00726163 18.004364 4.00726163 18.9993591 0.995925903 18.9993591"></polygon>
                </g>
            </g>
        </g>
    </g>
</svg>