<?xml version="1.0" encoding="UTF-8"?>
<svg width="24px" height="24px" viewBox="0 0 24 24" version="1.1" xmlns="http://www.w3.org/2000/svg" xmlns:xlink="http://www.w3.org/1999/xlink">
    <!-- Generator: Sketch 48.2 (47327) - http://www.bohemiancoding.com/sketch -->
    <title>icon_fingerprint_m_black</title>
    <desc>Created with Sketch.</desc>
    <defs></defs>
    <g id="set" stroke="none" stroke-width="1" fill="none" fill-rule="evenodd">
        <g id="icon_fingerprint_m_black">
            <rect id="_ph_" x="0" y="0" width="24" height="24"></rect>
            <g id="icon_tool_fingerprint__m__white" transform="translate(2.000000, 1.000000)" fill="#0F2338">
                <path d="M15.8666849,13.7614064 C15.9123968,12.4357618 15.3867102,11.1329732 14.5638963,10.1044559 C13.2611077,8.45882813 10.9755136,7.68172614 8.91847889,7.95599743 C6.93001203,8.20741278 4.96440111,9.55591329 4.14158723,11.4072445 C3.61590059,12.6186094 3.52447683,13.9442539 3.70732436,15.2241866 C4.05016347,17.5554926 5.26152834,19.6810951 6.95286797,21.3038669 C7.43284273,21.7609857 8.16423284,21.0295956 7.68425808,20.5724768 C6.26718974,19.2011204 5.21581646,17.4869248 4.80440952,15.5441698 C4.75869764,15.3841782 4.7358417,15.2241866 4.71298576,15.087051 C4.71298576,15.0641951 4.71298576,15.0184832 4.69012982,14.9956272 C4.66727387,14.8584916 4.71298576,15.1099069 4.69012982,14.9727713 C4.69012982,14.9042035 4.66727387,14.8127797 4.66727387,14.7442119 C4.64441793,14.5385084 4.62156199,14.309949 4.62156199,14.1042455 C4.62156199,13.6471267 4.66727387,13.2128638 4.75869764,12.778601 C4.94154517,11.9329311 5.3529521,11.1558292 5.94720657,10.5615747 C6.2443338,10.2644475 6.47289321,10.1044559 6.77002044,9.87589647 C7.18142738,9.60162517 7.59283431,9.37306576 8.07280907,9.21307418 C9.16989424,8.84737912 10.3126913,8.89309101 11.3869205,9.23593012 C12.1868784,9.48734547 12.8725567,9.89875241 13.4210992,10.4701509 C13.7182265,10.7672782 13.8782181,10.9729816 14.1067775,11.3615326 C14.1982012,11.4986683 14.2667691,11.6586599 14.3353369,11.8186514 C14.3581928,11.8643633 14.3810488,11.8872193 14.3810488,11.9329311 C14.4267606,12.0472109 14.3581928,11.8643633 14.4039047,11.978643 C14.4267606,12.0472109 14.4724725,12.1386346 14.4953285,12.2072024 C14.5867522,12.4814737 14.678176,12.755745 14.7238879,13.0528723 C14.7238879,13.1214401 14.7467438,13.167152 14.7467438,13.2357198 C14.7238879,13.0528723 14.7467438,13.2357198 14.7467438,13.2814317 C14.7695998,13.4642792 14.7695998,13.6471267 14.7695998,13.8071183 C14.8153116,14.4470846 15.8666849,14.4470846 15.8666849,13.7614064 L15.8666849,13.7614064 L15.8666849,13.7614064 Z" id="Shape"></path>
                <path d="M9.19275018,13.7156945 C9.16989424,14.6985 9.51273335,15.6813055 9.99270811,16.5269753 C10.6783863,17.7611961 11.7754715,18.7211456 13.123972,19.1325525 C14.1753453,19.4525357 15.2267186,19.4068238 16.3238037,19.2925441 C16.598075,19.2696882 16.8494904,19.0639847 16.8494904,18.7668575 C16.8494904,18.4925862 16.620931,18.2183149 16.3238037,18.2411708 C15.432422,18.3325946 14.5410404,18.4011624 13.7182265,18.195459 C13.3525314,18.1040352 13.1011161,18.0126114 12.8268448,17.8754758 C12.6897091,17.806908 12.5525735,17.7154842 12.4154378,17.6469164 C12.34687,17.6012045 12.3011581,17.5554926 12.2325903,17.5326367 C12.1868784,17.5097807 12.1640225,17.4869248 12.1411666,17.4640689 C12.1183106,17.4412129 12.1183106,17.4412129 12.1411666,17.4640689 C12.1183106,17.4412129 12.0954547,17.4412129 12.0954547,17.418357 C11.8668953,17.2355094 11.6383359,17.00695 11.4554883,16.7783906 C11.4097764,16.7326787 11.3640646,16.6641109 11.3183527,16.618399 C11.3869205,16.6869669 11.2497849,16.5269753 11.2497849,16.5041193 C11.1583611,16.3898396 11.0897933,16.252704 10.9983695,16.1384243 C10.8612339,15.9098649 10.7469542,15.6813055 10.6326745,15.4298901 C10.6326745,15.4070342 10.6098185,15.3841782 10.6098185,15.3613223 C10.6555304,15.475602 10.6326745,15.4070342 10.6098185,15.3841782 C10.5869626,15.3156104 10.5641066,15.2698985 10.5412507,15.2013307 C10.4955388,15.087051 10.4726829,14.9727713 10.426971,14.8584916 C10.3584032,14.6527881 10.3126913,14.4470846 10.2669794,14.2413812 C10.2669794,14.2185252 10.2441235,14.0585337 10.2441235,14.1728134 C10.2669794,14.2870931 10.2441235,14.1271015 10.2441235,14.1042455 L10.2441235,13.6928386 C10.2441235,13.0528723 9.21560612,13.0528723 9.19275018,13.7156945 L9.19275018,13.7156945 L9.19275018,13.7156945 Z" id="Shape"></path>
                <path d="M0.964611446,8.11598901 C0.987467386,8.07027713 1.01032333,8.04742119 1.05603521,8.00170931 C1.10174709,7.95599743 1.12460303,7.91028555 1.14745897,7.86457366 C1.17031491,7.81886178 1.26173868,7.72743802 1.14745897,7.86457366 C1.17031491,7.81886178 1.2160268,7.79600584 1.23888274,7.75029396 C1.53600997,7.3845989 1.87884908,7.01890385 2.2216882,6.67606474 C2.74737484,6.17323404 3.20449366,5.80753898 3.79874812,5.41898799 C4.50728229,4.96186917 5.26152834,4.57331817 6.03863033,4.29904688 C6.95286797,3.97906371 7.91281748,3.77336024 8.89562294,3.70479242 C9.32988582,3.68193648 9.7641487,3.68193648 10.1755556,3.70479242 C10.3812591,3.70479242 10.6098185,3.72764836 10.815522,3.72764836 C10.9298017,3.72764836 11.0669373,3.7505043 11.181217,3.77336024 C11.2497849,3.77336024 11.3183527,3.79621618 11.3869205,3.79621618 C11.5240562,3.81907212 11.2726408,3.77336024 11.4097764,3.79621618 C11.4554883,3.79621618 11.5012002,3.79621618 11.5240562,3.81907212 C12.2097344,3.93335183 12.8954126,4.09334341 13.5582349,4.32190282 C15.5238458,5.00758105 17.2837533,6.40179345 18.54083,8.11598901 C18.7008216,8.34454842 18.9979488,8.45882813 19.2493642,8.29883654 C19.4779236,8.1617009 19.5922033,7.81886178 19.4322117,7.59030237 C18.1979909,5.8761068 16.5752191,4.48189441 14.6324641,3.63622459 C13.3296755,3.06482607 11.9354631,2.7448429 10.5183947,2.67627508 C9.16989424,2.60770725 7.77568184,2.69913102 6.47289321,3.06482607 C4.78155358,3.54480083 3.2273496,4.43618253 1.90170502,5.57897957 C1.23888274,6.17323404 0.57606045,6.83605632 0.0960856906,7.59030237 C-0.292465305,8.1617009 0.598916391,8.68738754 0.964611446,8.11598901 L0.964611446,8.11598901 L0.964611446,8.11598901 Z" id="Shape"></path>
                <path d="M2.61023919,17.6697723 C2.35882384,17.0526619 2.2216882,16.4126956 2.10740849,15.7498733 C2.08455255,15.6127376 2.06169661,15.452746 2.03884067,15.3156104 C2.03884067,15.2927545 2.01598473,15.1556188 2.03884067,15.3156104 C2.03884067,15.2698985 2.03884067,15.2470426 2.01598473,15.2013307 C2.01598473,15.1099069 1.99312879,15.0184832 1.99312879,14.9270594 C1.94741691,14.5842203 1.94741691,14.2413812 1.94741691,13.8756861 C1.94741691,13.5099911 1.97027285,13.1214401 2.01598473,12.755745 C2.01598473,12.7100331 2.01598473,12.6643213 2.03884067,12.6186094 C2.01598473,12.7328891 2.03884067,12.5957534 2.03884067,12.5728975 C2.06169661,12.4814737 2.06169661,12.39005 2.08455255,12.2986262 C2.13026443,12.0929227 2.15312037,11.8872193 2.2216882,11.7043717 C2.45024761,10.8815579 2.7245189,10.2187356 3.2273496,9.51020141 C3.45590901,9.19021824 3.7301803,8.87023506 4.05016347,8.57310783 C4.41585852,8.23026872 4.78155358,7.93314149 5.21581646,7.6588702 C6.29004568,6.97319197 7.52426649,6.49321721 8.80419918,6.3789375 C10.1984116,6.24180186 11.592624,6.44750533 12.8954126,6.95033603 C13.9239299,7.33888702 14.8610235,7.93314149 15.6152696,8.73309942 C16.0266765,9.14450636 16.3466597,9.62448112 16.6437869,10.1273118 C16.8037785,10.4015831 16.9637701,10.6987103 17.1009057,10.9958376 C17.1694736,11.1558292 17.2608973,11.3158207 17.3294651,11.4758123 C17.2837533,11.3843886 17.3066092,11.4529564 17.3294651,11.4758123 C17.398033,11.6358039 17.4437448,11.7957955 17.4894567,11.9557871 C17.5351686,12.0929227 17.5580246,12.2300584 17.5808805,12.367194 C17.6037364,12.4357618 17.6037364,12.5271856 17.6265924,12.6186094 C17.6265924,12.6643213 17.6494483,12.7100331 17.6494483,12.755745 C17.6265924,12.6186094 17.6494483,12.8243128 17.6494483,12.8471688 C17.6723043,13.0300163 17.6723043,13.2128638 17.6723043,13.4185673 L17.6723043,13.7156945 L17.6723043,13.8756861 L17.6723043,13.9671099 C17.6723043,13.921398 17.6723043,13.921398 17.6723043,13.9671099 C17.6037364,14.4242287 17.5123127,14.6756441 17.2380414,15.0413391 C17.2837533,14.9727713 17.1923295,15.1099069 17.1923295,15.1099069 C17.1466176,15.1556188 17.1237617,15.1784748 17.0780498,15.2241866 C17.009482,15.2927545 16.9409141,15.3613223 16.8952023,15.3841782 C16.6666429,15.5670258 16.3923716,15.6813055 16.1181003,15.7498733 C15.5238458,15.9327208 14.8381676,15.8870089 14.2667691,15.5898817 C13.8325062,15.3613223 13.512523,15.0413391 13.2839636,14.6070762 C13.2382517,14.5156525 13.2153958,14.4699406 13.1696839,14.3328049 C13.146828,14.2642371 13.123972,14.1728134 13.123972,14.1042455 C13.1011161,14.0128218 13.0325483,13.8299742 13.123972,14.0356777 C13.0782601,13.921398 13.123972,13.7614064 13.1011161,13.6471267 C13.1011161,13.4642792 13.0554042,13.2814317 13.0325483,13.0757282 C12.5297176,10.5615747 8.94133483,9.7844727 7.31856302,11.6586599 C6.08434221,13.0757282 6.42718133,15.1556188 7.09000361,16.7555347 C7.84424966,18.6068659 9.28417394,20.0696461 11.0669373,20.9610278 C11.6383359,21.258155 12.2554463,21.4867145 12.8725567,21.6924179 C13.512523,21.8981214 13.7867943,20.89246 13.146828,20.6867565 C12.0497428,20.3210615 10.9298017,19.7953748 10.0612759,19.0639847 C9.32988582,18.4697303 8.82705512,17.8297639 8.3699363,17.029806 C8.27851254,16.8469584 8.18708878,16.6641109 8.09566501,16.4812634 C8.04995313,16.3898396 8.11852095,16.5269753 8.07280907,16.4355515 C8.04995313,16.3898396 8.02709719,16.3441277 8.02709719,16.3212718 C7.98138531,16.229848 7.95852937,16.1384243 7.93567343,16.0470005 C7.82139372,15.7270173 7.72996996,15.3841782 7.66140213,15.0413391 C7.63854619,14.8813475 7.61569025,14.7442119 7.59283431,14.6070762 C7.59283431,14.5613644 7.59283431,14.5385084 7.56997837,14.5156525 C7.54712243,14.4013728 7.56997837,14.5613644 7.56997837,14.5156525 C7.56997837,14.4470846 7.54712243,14.3785168 7.54712243,14.309949 C7.47855461,13.7385505 7.56997837,13.167152 7.8671056,12.6643213 C8.50707195,11.612948 9.7641487,11.4301004 10.815522,11.8643633 C11.204073,12.0243549 11.569768,12.2986262 11.7983274,12.6643213 C12.0725987,13.0985841 12.0497428,13.5785589 12.1183106,14.1042455 C12.1411666,14.2413812 12.1183106,14.1499574 12.1183106,14.1271015 C12.1183106,14.1956693 12.1411666,14.2413812 12.1411666,14.309949 C12.1640225,14.3785168 12.1640225,14.4699406 12.1868784,14.5385084 C12.2325903,14.6985 12.3011581,14.8813475 12.369726,15.0184832 C12.4382938,15.1784748 12.5525735,15.3613223 12.6668532,15.4984579 C13.1011161,16.0698565 13.6953705,16.4812634 14.4039047,16.6869669 C15.6381255,17.0526619 17.1466176,16.7326787 17.9922874,15.7270173 C19.0208048,14.4927965 18.9065251,12.6871772 18.4265503,11.224397 C18.1065671,10.2644475 17.5580246,9.35020982 16.9409141,8.57310783 C16.2552359,7.68172614 15.3867102,6.92748009 14.3810488,6.40179345 C11.7754715,5.03043699 8.64420759,4.84758946 5.97006251,6.08181027 C4.11873129,6.92748009 2.51881543,8.36740436 1.7188575,10.2644475 C1.10174709,11.7272277 0.918899564,13.3499995 1.07889115,14.9499153 C1.17031491,15.9098649 1.35316244,16.8698144 1.67314561,17.784052 C1.69600155,17.8297639 1.7188575,17.8754758 1.7188575,17.9211877 C1.8331372,18.195459 2.06169661,18.3783065 2.35882384,18.2868827 C2.49595949,18.2640268 2.7245189,17.9440436 2.61023919,17.6697723 L2.61023919,17.6697723 L2.61023919,17.6697723 Z" id="Shape"></path>
                <path d="M3.77589218,2.56199537 C3.98159565,2.42485973 4.18729912,2.33343596 4.41585852,2.21915626 C4.53013823,2.17344438 4.62156199,2.12773249 4.7358417,2.05916467 C4.75869764,2.03630873 4.94154517,1.96774091 4.87297734,1.99059685 C4.80440952,2.03630873 4.91868922,1.96774091 4.91868922,1.96774091 C4.96440111,1.94488497 5.01011299,1.92202903 5.07868081,1.89917308 C5.37580804,1.78489338 5.69579122,1.67061368 6.01577439,1.57918991 C7.82139372,1.03064733 9.74129276,0.870655743 11.6383359,1.14492703 C13.1011161,1.37348644 14.5410404,1.8534612 15.843829,2.51628349 C16.0952443,2.65341913 16.4152275,2.58485131 16.5523632,2.33343596 C16.6894988,2.10487655 16.620931,1.7391815 16.3695156,1.62490179 C14.0839215,0.482104747 11.5240562,-0.135005657 8.94133483,0.024985929 C7.27285114,0.139265634 5.65007933,0.527816629 4.14158723,1.21349486 C3.84446,1.3506305 3.54733277,1.48776615 3.27306148,1.67061368 C3.04450207,1.83060526 2.93022236,2.12773249 3.09021395,2.37914784 C3.20449366,2.60770725 3.54733277,2.72198696 3.77589218,2.56199537 L3.77589218,2.56199537 L3.77589218,2.56199537 Z" id="Shape"></path>
            </g>
        </g>
    </g>
</svg>