<svg width="24" height="24" viewBox="0 0 24 24" xmlns="http://www.w3.org/2000/svg"><g fill="none" fill-rule="evenodd"><path d="M0 0h24v24H0z"/><path d="M23.936 7.245l-.871-.49a11.935 11.935 0 0 1-3.579 3.942c-1.443 1.017-3.1 1.703-4.925 2.043-.938.175-1.776.26-2.561.26-.785 0-1.623-.085-2.561-.26l-.092.491.091-.491c-1.824-.34-3.481-1.026-4.925-2.043A11.941 11.941 0 0 1 .935 6.755l-.872.49c.855 1.524 2.011 2.826 3.412 3.905l-1.76 1.76.707.707 1.877-1.877a13.368 13.368 0 0 0 4.433 1.857l-.849 3.171.966.258.867-3.237c.812.132 1.573.211 2.284.211.711 0 1.472-.079 2.284-.21l.868 3.237.967-.26-.85-3.17c1.614-.362 3.1-.984 4.432-1.857l1.875 1.875.707-.707-1.759-1.759c1.401-1.078 2.557-2.38 3.412-3.904z" fill="#0B1F35"/></g></svg>