<?xml version="1.0" encoding="UTF-8"?>
<svg width="17px" height="18px" viewBox="0 0 17 18" version="1.1" xmlns="http://www.w3.org/2000/svg" xmlns:xlink="http://www.w3.org/1999/xlink">
    <!-- Generator: Sketch 47 (45396) - http://www.bohemiancoding.com/sketch -->
    <title>icon_attachment_m_black</title>
    <desc>Created with Sketch.</desc>
    <defs></defs>
    <g id="Page-1" stroke="none" stroke-width="1" fill="none" fill-rule="evenodd">
        <g id="icon_attachment_m_black" transform="translate(-3.000000, -3.000000)">
            <polygon id="Shape" points="0 0 24 0 24 24 0 24"></polygon>
            <path d="M11.508,19.071 C13.4676496,20.98133 16.5989669,20.9612671 18.533977,19.0259833 C20.4689871,17.0906995 20.4886071,13.9593794 18.578,12 L10.801,4.222 C9.79047428,3.21147425 8.31760094,2.81681902 6.93719712,3.1866971 C5.5567933,3.55657518 4.47857518,4.6347933 4.1086971,6.01519712 C3.73881902,7.39560094 4.13347425,8.86847428 5.144,9.879 L11.508,16.243 C12.263851,17.0110809 13.3735872,17.3147595 14.4152062,17.0385552 C15.4568252,16.7623509 16.2702817,15.9487026 16.5462405,14.9070186 C16.8221992,13.8653345 16.518259,12.7556699 15.75,12 L12.92,9.172 L12.214,9.879 L15.043,12.707 C15.5483522,13.2125308 15.7456194,13.9492627 15.5604929,14.6396759 C15.3753665,15.3300892 14.8359715,15.8692935 14.1454929,16.0541759 C13.4550143,16.2390584 12.7183522,16.0415308 12.213,15.536 L5.852,9.172 C4.68032793,8.0003279 4.68032795,6.10067212 5.85200003,4.92900003 C7.02367212,3.75732795 8.9233279,3.75732793 10.095,4.929 L17.873,12.707 C18.8835257,13.7175257 19.278181,15.1903991 18.9083029,16.5708029 C18.5384248,17.9512067 17.4602067,19.0294248 16.0798029,19.3993029 C14.6993991,19.769181 13.2265257,19.3745257 12.216,18.364 L5.85,12 L5.143,12.707 L11.508,19.071 Z" id="Shape" fill="#0B1F35" fill-rule="nonzero"></path>
        </g>
    </g>
</svg>