<svg width="48" height="48" viewBox="0 0 48 48" xmlns="http://www.w3.org/2000/svg"><g transform="translate(1)" fill="none" fill-rule="evenodd"><path d="M0 0h48v48H0z"/><path d="M12 18.286L21.435 9H38.5a3.5 3.5 0 0 1 3.5 3.5v30a3.5 3.5 0 0 1-3.5 3.5h-23a3.5 3.5 0 0 1-3.5-3.5V18.286zm1 .417V42.5a2.5 2.5 0 0 0 2.5 2.5h23a2.5 2.5 0 0 0 2.5-2.5v-30a2.5 2.5 0 0 0-2.5-2.5H21.771L13 18.703z" fill="#0A1E32"/><path d="M35 9h-1V5.5A2.5 2.5 0 0 0 31.5 3H14.771L6 11.703V35.5A2.5 2.5 0 0 0 8.5 38H12v1H8.5A3.5 3.5 0 0 1 5 35.5V11.286L14.435 2H31.5A3.5 3.5 0 0 1 35 5.5V9z" fill="#0A1E32" opacity=".3"/><path fill="#0A1E32" opacity=".3" d="M19 19h12v4H19zM19 26h16v4H19z"/><circle fill="#0A1E32" opacity=".3" cx="22" cy="36" r="3"/></g></svg>