<svg width="18" height="18" viewBox="0 0 18 18" fill="none" xmlns="http://www.w3.org/2000/svg">
<path fill-rule="evenodd" clip-rule="evenodd" d="M4 2H14C15.1046 2 16 2.89543 16 4V10.9325L14.4694 9.65692C13.9071 9.18833 13.0887 9.19402 12.5329 9.67037L10.3777 11.5177C10.1793 11.6877 9.8835 11.6764 9.69875 11.4916L6.06066 7.85352C5.47487 7.26774 4.52513 7.26774 3.93934 7.85352L2 9.79286V4C2 2.89543 2.89543 2 4 2ZM2 11.2071V14C2 15.1046 2.89543 16 4 16H14C15.1046 16 16 15.1046 16 14V12.2342L13.8292 10.4251C13.6417 10.2689 13.3689 10.2708 13.1837 10.4296L11.0285 12.2769C10.4334 12.787 9.54588 12.753 8.99164 12.1987L5.35355 8.56063C5.15829 8.36537 4.84171 8.36537 4.64645 8.56063L2 11.2071ZM1 4C1 2.34315 2.34315 1 4 1H14C15.6569 1 17 2.34315 17 4V14C17 15.6569 15.6569 17 14 17H4C2.34315 17 1 15.6569 1 14V4Z" fill="#0B1F35"/>
<path fill-rule="evenodd" clip-rule="evenodd" d="M12 7C12.5523 7 13 6.55228 13 6C13 5.44772 12.5523 5 12 5C11.4477 5 11 5.44772 11 6C11 6.55228 11.4477 7 12 7Z" fill="#0B1F35"/>
</svg>
