<?xml version="1.0" encoding="UTF-8"?>
<svg width="36px" height="44px" viewBox="0 0 36 44" version="1.1" xmlns="http://www.w3.org/2000/svg" xmlns:xlink="http://www.w3.org/1999/xlink">
    <!-- Generator: Sketch 52.6 (67491) - http://www.bohemiancoding.com/sketch -->
    <title>icon_selfemloyed-reg_xxl_white</title>
    <desc>Created with Sketch.</desc>
    <g id="ver_4" stroke="none" stroke-width="1" fill="none" fill-rule="evenodd">
        <g id="icon_selfemloyed-reg_xxl_white" transform="translate(-6.000000, -2.000000)">
            <polygon id="Path" points="0 0 48 0 48 48 0 48"></polygon>
            <path d="M10,3 C8.34314575,3 7,4.34314575 7,6 L7,42 C7,43.6568542 8.34314575,45 10,45 L38,45 C39.6568542,45 41,43.6568542 41,42 L41,6 C41,4.34314575 39.6568542,3 38,3 L10,3 Z M10,2 L38,2 C40.209139,2 42,3.790861 42,6 L42,42 C42,44.209139 40.209139,46 38,46 L10,46 C7.790861,46 6,44.209139 6,42 L6,6 C6,3.790861 7.790861,2 10,2 Z" id="Rectangle" fill="#FFFFFF" fill-rule="nonzero"></path>
            <path d="M14,18 L34,18 L34,22 L14,22 L14,18 Z M14,10 L28,10 L28,14 L14,14 L14,10 Z M14,26 L22,26 L22,30 L14,30 L14,26 Z" id="Combined-Shape" fill="#FFFFFF" fill-rule="nonzero" opacity="0.3"></path>
            <path d="M28,35.0003662 C26.7855533,34.0881599 26,32.6358178 26,31 C26,28.2385763 28.2385763,26 31,26 C33.7614237,26 36,28.2385763 36,31 C36,32.6358178 35.2144467,34.0881599 34,35.0003662 L34,40 L31,37.9188183 L28,40 L28,35.0003662 Z" id="Combined-Shape" fill="#FFFFFF" fill-rule="nonzero" opacity="0.3"></path>
        </g>
    </g>
</svg>