<svg width="24" height="24" viewBox="0 0 24 24" xmlns="http://www.w3.org/2000/svg"><g fill="none" fill-rule="evenodd"><path d="M-1 0h24v24H-1z"/><path d="M9.386 5H18a2 2 0 0 1 2 2v14a2 2 0 0 1-2 2H7a2 2 0 0 1-2-2V9.224L9.386 5zm.426 1L6 9.777V21a1 1 0 0 0 1 1h11a1 1 0 0 0 1-1V7a1 1 0 0 0-1-1H9.812z" fill="#FFF"/><path d="M16 5h-1V3a1 1 0 0 0-1-1H5.812L2 5.777V17a1 1 0 0 0 1 1h2v1H3a2 2 0 0 1-2-2V5.224L5.386 1H14a2 2 0 0 1 2 2v2z" fill="#FFF" opacity=".3"/><path fill="#FFF" opacity=".3" d="M9 11h5v2H9zm0 4h7v2H9z"/></g></svg>