<svg width="36" height="36" viewBox="0 0 36 36" fill="none" xmlns="http://www.w3.org/2000/svg">
<path fill-rule="evenodd" clip-rule="evenodd" d="M6 3.5H30C31.3807 3.5 32.5 4.61929 32.5 6V24.048L28.3672 20.2104C27.3144 19.2327 25.6864 19.2303 24.6307 20.2048L21.0103 23.5467C20.4911 24.026 19.6782 23.98 19.2164 23.4453L12.4293 15.5865C11.4078 14.4037 9.60731 14.3089 8.4672 15.3777L3.5 20.0345V6C3.5 4.61929 4.61929 3.5 6 3.5ZM3.5 22.0906L3.5 30C3.5 31.3807 4.61929 32.5 6 32.5H30C31.3807 32.5 32.5 31.3807 32.5 30V26.0949L27.3465 21.3096C26.868 20.8652 26.128 20.8641 25.6481 21.307L22.0277 24.6489C20.8855 25.7033 19.0972 25.6021 18.0812 24.4257L11.2941 16.5669C10.8298 16.0293 10.0113 15.9862 9.49311 16.472L3.5 22.0906ZM2 6C2 3.79086 3.79086 2 6 2H30C32.2091 2 34 3.79086 34 6V30C34 32.2091 32.2091 34 30 34H6C3.79086 34 2 32.2091 2 30V6Z" fill="#0B1F35"/>
<path fill-rule="evenodd" clip-rule="evenodd" d="M24.5 14C25.8807 14 27 12.8807 27 11.5C27 10.1193 25.8807 9 24.5 9C23.1193 9 22 10.1193 22 11.5C22 12.8807 23.1193 14 24.5 14Z" fill="#0B1F35"/>
</svg>
