<svg width="30" height="30" viewBox="0 0 30 30" fill="none" xmlns="http://www.w3.org/2000/svg">
<path fill-rule="evenodd" clip-rule="evenodd" d="M21 11C22.1046 11 23 10.1046 23 9C23 7.89543 22.1046 7 21 7C19.8954 7 19 7.89543 19 9C19 10.1046 19.8954 11 21 11Z" fill="#0B1F35"/>
<path fill-rule="evenodd" clip-rule="evenodd" d="M5 2.5H25C26.3807 2.5 27.5 3.61929 27.5 5V20.7448L24.3718 17.7525C23.3249 16.7512 21.6806 16.7337 20.6127 17.7126L17.561 20.51C17.0298 20.9969 16.1981 20.9351 15.7448 20.3751L9.95239 13.2198C8.93918 11.9682 7.07216 11.8511 5.9105 12.9663L2.5 16.2403V5C2.5 3.61929 3.61929 2.5 5 2.5ZM2.5 18.3197V24V25C2.5 26.3807 3.61929 27.5 5 27.5H25C26.3807 27.5 27.5 26.3807 27.5 25V24V22.8205L23.3349 18.8365C22.8591 18.3813 22.1117 18.3734 21.6263 18.8184L18.5746 21.6158C17.406 22.6869 15.5763 22.5509 14.5789 21.3189L8.78652 14.1636C8.32597 13.5947 7.47732 13.5414 6.9493 14.0484L2.5 18.3197ZM29 24V25C29 27.2091 27.2091 29 25 29H5C2.79086 29 1 27.2091 1 25V24V17.6803V5C1 2.79086 2.79086 1 5 1H25C27.2091 1 29 2.79086 29 5V22.1795V24Z" fill="#0B1F35"/>
</svg>
