<svg xmlns="http://www.w3.org/2000/svg" width="24" height="24" viewBox="0 0 24 24">
  <g fill="none">
    <rect width="24" height="24"/>
    <g fill="#FFF" transform="translate(0 1)">
      <path d="M4,16.2665888 C4,16.6746705 4.35397908,17 4.792924,17 L19.207076,17 C19.6450192,17 20,16.6729343 20,16.2665888 L20,5.7334112 C20,5.32532946 19.6460209,5 19.207076,5 L4.792924,5 C4.35498082,5 4,5.32706574 4,5.7334112 L4,16.2665888 Z M4.62912682,4 L19.3708732,4 C20.2706151,4 21,4.6806329 21,5.52949296 L21,16.470507 C21,17.3152227 20.272085,18 19.3708732,18 L4.62912682,18 C3.72938492,18 3,17.3193671 3,16.470507 L3,5.52949296 C3,4.68477732 3.72791505,4 4.62912682,4 Z"/>
      <rect width="16" height="3" x="4" y="7" opacity=".3"/>
      <rect width="4" height="2" x="5" y="13" opacity=".3"/>
      <polygon points="20.989 5.001 19.989 5.001 19.989 1.004 24 1.004 24 1.999 20.989 1.999" transform="matrix(-1 0 0 1 43.99 0)"/>
      <polygon points=".996 5.001 -.004 5.001 -.004 1.004 4.007 1.004 4.007 1.999 .996 1.999" transform="matrix(0 1 1 0 -1.001 1.001)"/>
      <polygon points="20.996 21.001 19.996 21.001 19.996 17.004 24.007 17.004 24.007 17.999 20.996 17.999" transform="matrix(0 -1 -1 0 41.004 41.004)"/>
      <polygon points=".996 21.001 -.004 21.001 -.004 17.004 4.007 17.004 4.007 17.999 .996 17.999" transform="rotate(-90 2.002 19.003)"/>
    </g>
  </g>
</svg>
