<svg width="48" height="48" viewBox="0 0 48 48" xmlns="http://www.w3.org/2000/svg"><g fill="none" fill-rule="evenodd"><path d="M0 0h48v48H0z"/><path d="M39.438 12.641c-1.145-4.27-4.163-7.292-6.4-8.584l-1.018-.588a3.487 3.487 0 0 0-2.655-.35A3.475 3.475 0 0 0 27.24 4.75l-3.263 5.65a3.478 3.478 0 0 0-.347 2.655c.242.905.82 1.66 1.627 2.126l2.825 1.631c1.393.804 1.802 2.112 1.286 4.116-.466 1.814-1.596 3.771-2.503 5.343l.865.5c.938-1.625 2.106-3.647 2.606-5.594.626-2.437.036-4.197-1.755-5.231l-2.825-1.631a2.485 2.485 0 0 1-1.161-1.519 2.484 2.484 0 0 1 .246-1.896l3.263-5.65c.33-.576.877-.995 1.519-1.165a2.48 2.48 0 0 1 1.896.25l1.018.587c2.072 1.196 4.869 4.003 5.934 7.977 1.126 4.204.779 8.619-4.421 17.628-5.201 9.008-8.852 11.516-13.057 12.643-3.976 1.065-7.802.045-9.874-1.15l-1.018-.587a2.486 2.486 0 0 1-1.165-1.518 2.486 2.486 0 0 1 .249-1.897l3.263-5.651c.33-.576.877-.995 1.519-1.165a2.48 2.48 0 0 1 1.896.25l2.825 1.631c1.792 1.034 3.61.666 5.407-1.095 1.436-1.407 2.698-3.592 3.635-5.217l-.432-.275-.433-.225c-.907 1.572-2.131 3.691-3.47 5.002-1.478 1.448-2.813 1.748-4.207.943l-2.825-1.631a3.477 3.477 0 0 0-2.655-.35 3.477 3.477 0 0 0-2.125 1.63L8.32 37.518a3.475 3.475 0 0 0-.35 2.656 3.475 3.475 0 0 0 1.631 2.125l1.018.587c1.579.912 4.099 1.729 6.946 1.729 1.187 0 2.431-.143 3.688-.479 4.451-1.193 8.289-3.802 13.662-13.109 5.373-9.307 5.714-13.935 4.523-18.386z" fill="#FFF" fill-rule="nonzero"/></g></svg>