<svg xmlns="http://www.w3.org/2000/svg" width="24" height="24" viewBox="0 0 24 24" fill="none"><rect width="24" height="24" fill="none"/>
<path d="M10.6568 14.645V12.6919H12.9079C13.4299 12.6919 13.9029 12.9479 13.9029 13.6009C13.9029 14.254 13.4613 14.645 12.8815 14.645H10.6568Z" fill="#0B1F35"/>
<path fill-rule="evenodd" clip-rule="evenodd" d="M4 3C4 2.44772 4.44772 2 5 2H12.185C13.9599 2 15.3468 3.53245 15.1701 5.29851L15.0243 6.75677C15.0117 6.88251 15.1175 6.98825 15.2432 6.97568L16.7015 6.82985C18.4675 6.65325 20 8.0401 20 9.81496V21C20 21.5523 19.5523 22 19 22H5C4.44772 22 4 21.5523 4 21V3ZM8.81763 11.0222V19.0206H10.6568V16.2129H11.856C12.6885 16.2129 13.3244 16.1747 13.7635 16.0983C15.039 15.8542 15.7952 14.9941 15.7952 13.6491C15.7952 13.0126 15.6192 12.328 15.2671 11.9279C14.4671 11.0106 13.2203 11.0161 12.0356 11.0214C11.9463 11.0218 11.8573 11.0222 11.769 11.0222H8.81763Z" fill="#0B1F35"/>
</svg>
