<svg xmlns="http://www.w3.org/2000/svg" width="24" height="24" viewBox="0 0 24 24" fill="none"><rect width="24" height="24" fill="none"/>
<path fill-rule="evenodd" clip-rule="evenodd" d="M4 3C4 2.44772 4.44772 2 5 2H12.185C13.9599 2 15.3468 3.53245 15.1701 5.29851L15.0243 6.75677C15.0117 6.88251 15.1175 6.98825 15.2432 6.97568L16.7015 6.82985C18.4675 6.65325 20 8.0401 20 9.81496V21C20 21.5523 19.5523 22 19 22H5C4.44772 22 4 21.5523 4 21V3ZM11.2425 11H12.9428L14.6104 16.1685L16.169 11.0112H18L15.4823 19H13.782L12.0272 13.7079L10.2507 19H8.594L6 11.0112H8.03817L9.58584 16.1573L11.2425 11Z" fill="#0B1F35"/>
</svg>
