<svg xmlns="http://www.w3.org/2000/svg" width="36" height="36" viewBox="0 0 36 36" fill="none"><rect width="36" height="36" fill="none"/>
<path d="M9 17H12V21H9V17ZM16 17H19V21H16V17ZM23 17H26V21H23V17ZM15 25H20V35H15V25Z" fill="white" fill-opacity="0.3"/>
<path fill-rule="evenodd" clip-rule="evenodd" d="M17.5 0H17V11H6.55C5.61286 10.9973 4.7129 11.3664 4.04743 12.0262C3.38196 12.6861 3.00529 13.5829 3 14.52V35H0V36H3H33H36V35H33V14.52C32.9947 13.5829 32.618 12.6861 31.9526 12.0262C31.2871 11.3664 30.3871 10.9973 29.45 11H18V1H24V4H20V5H25V0H18H17.5ZM32 35V14.52C31.9947 13.8481 31.7234 13.2056 31.2455 12.7333C30.7675 12.261 30.1219 11.9973 29.45 12H6.55C5.87807 11.9973 5.23246 12.261 4.75453 12.7333C4.2766 13.2056 4.00529 13.8481 4 14.52V35H32Z" fill="white"/>
</svg>
