<svg xmlns="http://www.w3.org/2000/svg" width="36" height="36" viewBox="0 0 36 36" fill="none"><rect width="36" height="36" fill="none"/>
<path d="M33 36H3V14.52C3.00529 13.5829 3.38196 12.6861 4.04743 12.0262C4.7129 11.3664 5.61286 10.9973 6.55 11H29.45C30.3871 10.9973 31.2871 11.3664 31.9526 12.0262C32.618 12.6861 32.9947 13.5829 33 14.52V36ZM4 35H32V14.52C31.9947 13.8481 31.7234 13.2056 31.2455 12.7333C30.7675 12.261 30.1219 11.9973 29.45 12H6.55C5.87807 11.9973 5.23246 12.261 4.75453 12.7333C4.2766 13.2056 4.00529 13.8481 4 14.52V35Z" fill="#0B1F35"/>
<path d="M9 17H12V21H9V17ZM16 17H19V21H16V17ZM23 17H26V21H23V17ZM15 25H20V35H15V25Z" fill="#0B1F35" fill-opacity="0.3"/>
<path d="M25 5H20V4H24V1H17.5V0H25V5Z" fill="#0B1F35"/>
<path d="M17 0H18V11.26H17V0ZM0 35H36V36H0V35Z" fill="#0B1F35"/>
</svg>
