<svg width="24" height="24" viewBox="0 0 24 24" xmlns="http://www.w3.org/2000/svg"><g fill="none" fill-rule="evenodd"><path d="M0 0h24v24H0z"/><g fill="#FFF"><path d="M3 4a1 1 0 0 0-1 1v15a1 1 0 0 0 1 1h19a1 1 0 0 0 1-1V5a1 1 0 0 0-1-1H3zm0-1h19a2 2 0 0 1 2 2v15a2 2 0 0 1-2 2H3a2 2 0 0 1-2-2V5a2 2 0 0 1 2-2z" fill-rule="nonzero"/><g opacity=".3"><path d="M3 7h3v3H3zM7 7h3v3H7zM11 7h3v3h-3zM15 7h3v3h-3zM19 7h3v3h-3z"/></g><path opacity=".3" d="M3 11h3v3H3zM7 11h3v3H7zM11 11h3v3h-3zM7 15h11v3H7zM15 11h3v3h-3zM19 11h3v3h-3z"/></g></g></svg>