<svg width="24" height="24" viewBox="0 0 24 24" fill="none" xmlns="http://www.w3.org/2000/svg">
<path d="M3 3C2.44772 3 2 3.44772 2 4V17C2 17.5523 2.44772 18 3 18H22C22.5523 18 23 17.5523 23 17V4C23 3.44772 22.5523 3 22 3H3ZM3 2H22C23.1046 2 24 2.89543 24 4V17C24 18.1046 23.1046 19 22 19H3C1.89543 19 1 18.1046 1 17V4C1 2.89543 1.89543 2 3 2Z" fill="white"/>
<g opacity="0.3">
<path opacity="0.3" d="M6 5H3V8H6V5Z" fill="white"/>
<path opacity="0.3" d="M10 5H7V8H10V5Z" fill="white"/>
<path opacity="0.3" d="M14 5H11V8H14V5Z" fill="white"/>
<path opacity="0.3" d="M18 5H15V8H18V5Z" fill="white"/>
<path opacity="0.3" d="M22 5H19V8H22V5Z" fill="white"/>
</g>
<path opacity="0.3" d="M6 9H3V12H6V9Z" fill="white"/>
<path opacity="0.3" d="M10 9H7V12H10V9Z" fill="white"/>
<path opacity="0.3" d="M14 9H11V12H14V9Z" fill="white"/>
<path opacity="0.3" d="M18 13H7V16H18V13Z" fill="white"/>
<path opacity="0.3" d="M18 9H15V12H18V9Z" fill="white"/>
<path opacity="0.3" d="M22 9H19V12H22V9Z" fill="white"/>
<path d="M7.69539 21.6854L8.3046 20.3146L12.5 22.1793L16.6954 20.3146L17.3046 21.6854L12.5 23.8207L7.69539 21.6854Z" fill="white"/>
</svg>