<svg width="16" height="16" fill="none" xmlns="http://www.w3.org/2000/svg"><path clip-rule="evenodd" d="M7.5 3.5a6 6 0 00-6 6v3.45a2.55 2.55 0 002.55 2.55h7.9a2.55 2.55 0 002.55-2.55V9.5a6 6 0 00-6-6h-1z" stroke="#fff"/><path d="M6.364 9.727c.752 0 1.363-.611 1.363-1.363S7.116 7 6.364 7 5 7.612 5 8.364c0 .752.612 1.363 1.364 1.363zm0-2.182a.818.818 0 110 1.637.818.818 0 010-1.637zm3.272 2.728c-.752 0-1.363.611-1.363 1.363S8.884 13 9.636 13 11 12.388 11 11.636c0-.752-.612-1.363-1.364-1.363zm0 2.181a.818.818 0 110-1.636.818.818 0 010 1.636zM5.76 12.19l4.067-4.736.414.355-4.068 4.737-.413-.355z" fill="#fff" fill-opacity=".3"/><path fill-rule="evenodd" clip-rule="evenodd" d="M9.772 16A3.228 3.228 0 0013 12.772V9.5A6.5 6.5 0 006.5 3h1A6.5 6.5 0 0114 9.5v3.272A3.228 3.228 0 0110.772 16h-1z" fill="#fff" fill-opacity=".3"/><path clip-rule="evenodd" d="M5.6 1.616L6.777 3.5h2.446l.845-1.353a6.775 6.775 0 01-.934-.051 2.673 2.673 0 01-.366-.077 4.997 4.997 0 01-.357-.116l-.342-.124A4.288 4.288 0 006.5 1.5c-.412 0-.713.042-.894.114l-.005.002z" stroke="#fff"/></svg>