<svg xmlns="http://www.w3.org/2000/svg" width="36" height="36" viewBox="0 0 36 36" fill="none"><rect width="36" height="36" fill="none"/>
<path d="M1 35V36H24V35H1Z" fill="none"/>
<path d="M20.9182 1.05168C20.1468 0.280262 18.8361 0.564192 18.4531 1.58569L17.0941 5.20988C17.069 5.27672 17.03 5.33741 16.9795 5.38789L7.91302 14.4544C7.86254 14.5049 7.80185 14.544 7.73501 14.569L4.11059 15.9281C3.08909 16.3111 2.80516 17.6218 3.57658 18.3932L14.4503 29.267C15.2216 30.0384 16.5323 29.7545 16.9154 28.733L18.5911 24.2647C18.6162 24.1979 18.6553 24.1372 18.7057 24.0868L20.89 21.9025L20.1829 21.1954L17.9986 23.3797C17.8472 23.5311 17.73 23.7131 17.6548 23.9136L15.9791 28.3819C15.8514 28.7224 15.4145 28.817 15.1574 28.5599L4.28368 17.6861C4.02654 17.429 4.12119 16.9921 4.46169 16.8644L8.08611 15.5054C8.28662 15.4302 8.4687 15.3129 8.62012 15.1615L17.6866 6.09499C17.838 5.94357 17.9553 5.76149 18.0304 5.56098L19.3894 1.93679C19.5171 1.59629 19.954 1.50165 20.2111 1.75879L20.7633 2.31096C20.7675 2.31518 20.7718 2.3193 20.7761 2.32334L30.2566 11.8038C30.2606 11.8081 30.2648 11.8124 30.269 11.8166L31.0849 12.6325C31.342 12.8896 31.2474 13.3265 30.9069 13.4542L26.4384 15.1301C26.2379 15.2052 26.0558 15.3225 25.9044 15.4739L23.7204 17.6579L24.4275 18.365L26.6115 16.181C26.662 16.1305 26.7227 16.0914 26.7895 16.0664L31.258 14.3905C32.2795 14.0075 32.5634 12.6968 31.792 11.9254L30.9885 11.1219C30.9844 11.1176 30.9803 11.1133 30.9761 11.1091L21.4709 1.60385C21.4666 1.59965 21.4624 1.59553 21.4581 1.5915L20.9182 1.05168Z" fill="#0B1F35"/>
<path d="M20.1826 21.1952L29.3748 30.3874C30.3517 31.3643 31.9355 31.3643 32.9123 30.3874C33.8891 29.4106 33.8891 27.8268 32.9123 26.85L23.7201 17.6577L20.1826 21.1952Z" fill="#B6BCC3"/>
</svg>
