<svg xmlns="http://www.w3.org/2000/svg" width="24" height="24">
  <defs>
    <radialGradient id="a" r="57.734375%" fx="50%" fy="50%">
      <stop offset="0%" stop-color="#FFF2B5"/>
      <stop offset="100%" stop-color="#F6BA00"/>
    </radialGradient>
  </defs>
  <g fill="none" transform="translate(2 2)">
    <rect width="20" height="20" fill="url(#a)" rx="10"/>
    <path fill="#0B1F35" d="M10.8951201 6.57100969c.0636784.17738982 1.5364687 4.35105381 1.5801339 4.47613641.0127357.0345682.0045484.0923336-.0477588.1128017-.0518524.0204681-.8173577.3283986-.8596583.344773-.0423007.0168293-.0900595-.0077323-.1055242-.0513975-.0159196-.0432104-.3525055-1.0647938-.3884383-1.1666792l-2.11184847-.0090969-.4220968 1.1757761c-.01500991.0418458-.06049447.0700462-.1055242.0513975l-.85920349-.344773c-.04367629-.0186377-.06507736-.0682402-.04866849-.1128017.05458148-.1564669 1.50462952-4.26281378 1.57922421-4.47613641.14327639-.41390957.32839859-.84100967.89513634-.84100967.5671925 0 .7454921.42027741.8942266.84100967zM7.35460128 13.1071422c-.04684911 0-.0846013.0404812-.0846013.0900594v.9970218c0 .050033.03775219.0896046.0846013.0896046h5.28985532c.0463942 0 .0836916-.0395716.0836916-.0896046v-.9970218c0-.050033-.0372974-.0896046-.0836916-.0896046H7.35460128v-.0004548zm1.89852588-3.76202868h1.48780024l-.6645295-2.24238923h-.17329625l-.64997449 2.24238923z"/>
  </g>
</svg>