<svg width="24" height="24" viewBox="0 0 24 24" fill="none" xmlns="http://www.w3.org/2000/svg">
<rect width="24" height="24" fill="none"/>
<path d="M2.20898 21.8818V22.8418H12.769V21.8818H2.20898Z" fill="#0B1F35"/>
<path d="M13.8001 11.2827L19.5061 16.9888C20.1038 17.5865 20.1325 18.5269 19.5701 19.0892C19.0077 19.6515 18.0673 19.6229 17.4696 19.0252L11.7637 13.3193L12.7818 12.301L13.8001 11.2827Z" fill="#B6BCC3"/>
<path fill-rule="evenodd" clip-rule="evenodd" d="M13.1437 2.48141C12.3705 1.70816 11.071 2.00181 10.7398 3.02464L9.96207 5.42612C9.93903 5.49732 9.89967 5.56182 9.84697 5.61452L6.09449 9.36696C6.04181 9.41965 5.97731 9.45908 5.9061 9.48214L3.50462 10.2597C2.48179 10.5909 2.18814 11.8905 2.9614 12.6638L8.34538 18.0477C9.11864 18.821 10.4182 18.5274 10.7494 17.5045L11.527 15.103C11.55 15.0318 11.5895 14.9673 11.6422 14.9146L12.5001 14.0566L11.8067 13.3632L10.9488 14.2212C10.7907 14.3793 10.6724 14.5727 10.6032 14.7863L9.82556 17.1879C9.71516 17.5288 9.28195 17.6267 9.0242 17.3689L3.64023 11.985C3.38247 11.7272 3.48036 11.2941 3.8213 11.1837L6.22278 10.406C6.43638 10.3368 6.62989 10.2185 6.78796 10.0604L10.5404 6.30797C10.6985 6.1499 10.8168 5.95639 10.886 5.74279L11.6636 3.34132C11.774 3.00037 12.2071 2.90249 12.4649 3.16024L17.8489 8.54422C18.1066 8.80198 18.0088 9.23514 17.6678 9.34555L15.2664 10.1232C15.0528 10.1924 14.8592 10.3106 14.7011 10.4687L13.8432 11.3267L14.5367 12.0202L15.3946 11.1622C15.4473 11.1095 15.5118 11.0701 15.583 11.047L17.9845 10.2693C19.0073 9.93817 19.301 8.63866 18.5277 7.8654L13.1437 2.48141Z" fill="#0B1F35"/>
</svg>
