<svg width="24" height="24" viewBox="0 0 24 24" xmlns="http://www.w3.org/2000/svg"><g fill="none" fill-rule="evenodd"><path d="M0 0h24v24H0z"/><g fill="#0F2338"><path d="M3 4a1 1 0 0 0-1 1v15a1 1 0 0 0 1 1h19a1 1 0 0 0 1-1V5a1 1 0 0 0-1-1H3zm0-1h19a2 2 0 0 1 2 2v15a2 2 0 0 1-2 2H3a2 2 0 0 1-2-2V5a2 2 0 0 1 2-2z" fill-rule="nonzero"/><path d="M3 7h3v3H3zm4 0h3v3H7zm4 0h3v3h-3zm4 0h3v3h-3zm4 0h3v3h-3zM3 11h3v3H3zm4 0h3v3H7zm4 0h3v3h-3zm-4 4h11v3H7zm8-4h3v3h-3zm4 0h3v3h-3z" opacity=".3"/></g></g></svg>