<svg xmlns="http://www.w3.org/2000/svg" width="12" height="12" viewBox="0 0 12 12">
  <g fill="none" fill-rule="evenodd" stroke="#FFF" transform="translate(2 1)">
    <path fill="#FFF" fill-opacity=".5" d="M3.75,3 C1.95507456,3 0.5,4.45507456 0.5,6.25 L0.5,8.41965602 C0.5,9.01631353 0.983686473,9.5 1.58034398,9.5 L6.41965602,9.5 C7.01631353,9.5 7.5,9.01631353 7.5,8.41965602 L7.5,6.25 C7.5,4.45507456 6.04492544,3 4.25,3 L3.75,3 Z"/>
    <path d="M2.1341033,0.635134438 L3.1232928,2.83333333 L4.8767072,2.83333333 L5.60292268,1.21952114 C5.33419132,1.21939461 5.08973706,1.19919317 4.86895537,1.15830767 C4.75970988,1.13807702 4.6527336,1.10648925 4.54197153,1.06373917 C4.44834055,1.02760105 4.35671406,0.985690683 4.2410196,0.928019871 C4.20840291,0.911761258 4.02224447,0.81693563 3.96828075,0.790334847 C3.56070064,0.589423023 3.24527216,0.5 2.8,0.5 C2.39556328,0.5 2.20674049,0.55212262 2.1341033,0.635134438 Z"/>
  </g>
</svg>
