<svg width="24" height="24" fill="none" xmlns="http://www.w3.org/2000/svg"><path clip-rule="evenodd" d="M11.5 5.5a9 9 0 00-9 9v5.144A3.856 3.856 0 006.356 23.5h11.288a3.856 3.856 0 003.856-3.856V14.5a9 9 0 00-9-9h-1z" stroke="#fff"/><path d="M9.818 14.636a1.82 1.82 0 001.818-1.818A1.82 1.82 0 009.818 11 1.82 1.82 0 008 12.818a1.82 1.82 0 001.818 1.818zm0-2.909a1.09 1.09 0 110 2.182 1.09 1.09 0 010-2.182zm4.364 3.637a1.82 1.82 0 00-1.818 1.818A1.82 1.82 0 0014.182 19 1.82 1.82 0 0016 17.182a1.82 1.82 0 00-1.818-1.818zm0 2.909a1.09 1.09 0 110-2.182 1.09 1.09 0 010 2.182zm-5.17-.352l5.424-6.316.552.473-5.424 6.317-.551-.474z" fill="#fff" fill-opacity=".3"/><path fill-rule="evenodd" clip-rule="evenodd" d="M14.644 23.947A4.356 4.356 0 0019 19.591v-5.117c0-4.904-3.725-8.937-8.5-9.425.32-.032.645-.049.974-.049h1.052A9.474 9.474 0 0122 14.474v5.117a4.356 4.356 0 01-4.356 4.356h-3z" fill="#fff" fill-opacity=".3"/><path clip-rule="evenodd" d="M7.55 1.938L9.778 5.5h4.446l1.835-2.937c-.814.035-1.522.013-2.124-.067a4.127 4.127 0 01-.564-.118 8.014 8.014 0 01-.572-.187l-.57-.207c-.932-.33-1.684-.484-2.728-.484-1.151 0-1.766.18-1.95.438z" stroke="#fff"/></svg>