<svg width="24" height="24" viewBox="0 0 24 24" fill="none" xmlns="http://www.w3.org/2000/svg">
	<rect width="24" height="24" fill="none"/>
	<path d="M0 6C0 4.89543 0.895431 4 2 4H22C23.1046 4 24 4.89543 24 6V18C24 19.1046 23.1046 20 22 20H2C0.89543 20 0 19.1046 0 18V6Z" fill="#F3F4F5"/>
	<path d="M8.56543 12.4233C8.56543 11.7188 8.00049 11.1538 7.2832 11.1538C6.57861 11.1538 6.01367 11.7188 6.01367 12.4233C6.01367 13.1279 6.57861 13.6929 7.2832 13.6929C8.00049 13.6929 8.56543 13.1279 8.56543 12.4233ZM13.2627 12.4233C13.2627 11.7188 12.7041 11.1538 11.9995 11.1538C11.2949 11.1538 10.7363 11.7188 10.7363 12.4233C10.7363 13.1279 11.2949 13.6929 11.9995 13.6929C12.7041 13.6929 13.2627 13.1279 13.2627 12.4233ZM17.9854 12.4233C17.9854 11.7188 17.4141 11.1538 16.7158 11.1538C15.9985 11.1538 15.4336 11.7188 15.4336 12.4233C15.4336 13.1279 15.9985 13.6929 16.7158 13.6929C17.4141 13.6929 17.9854 13.1279 17.9854 12.4233Z" fill="#0B1F35"/>
</svg>
