<svg width="18" height="18" viewBox="0 0 18 18" xmlns="http://www.w3.org/2000/svg"><g transform="translate(3 3)" fill-rule="nonzero" fill="none"><rect fill="gold" width="12" height="12" rx="6"/><path d="M6.657 3.59l1.158 3.14c.009.024.003.064-.035.079l-.63.242a.06.06 0 0 1-.078-.036l-.284-.819L5.24 6.19l-.31.825c-.01.029-.044.049-.077.036l-.63-.242a.062.062 0 0 1-.035-.08c.04-.11 1.103-2.99 1.157-3.14C5.45 3.3 5.586 3 6.001 3c.416 0 .547.295.656.59zM4.062 8.175A.063.063 0 0 0 4 8.238v.7c0 .034.028.062.062.062h3.877A.062.062 0 0 0 8 8.937v-.7a.062.062 0 0 0-.061-.062H4.062zm1.391-2.64h1.09l-.486-1.572H5.93l-.477 1.573z" fill="#0B1F35"/></g></svg>