<?xml version="1.0" encoding="UTF-8"?>
<svg width="48px" height="48px" viewBox="0 0 48 48" version="1.1" xmlns="http://www.w3.org/2000/svg" xmlns:xlink="http://www.w3.org/1999/xlink">
    <!-- Generator: Sketch 49 (51002) - http://www.bohemiancoding.com/sketch -->
    <title>icon_cashback-bonus_xxl_color</title>
    <desc>Created with Sketch.</desc>
    <defs></defs>
    <g id="icon_cashback-bonus_xxl_color" stroke="none" stroke-width="1" fill="none" fill-rule="evenodd">
        <rect id="Rectangle-path-Copy" fill="#FFD700" fill-rule="nonzero" x="2" y="2" width="44" height="44" rx="22"></rect>
        <path d="M26.9625,15.2613527 C27.1375,15.7383282 31.185,26.9607039 31.305,27.2970329 C31.3400001,27.3899817 31.3174998,27.5453045 31.17375,27.6003402 C31.03125,27.655376 28.9275,28.4833563 28.8112501,28.5273847 C28.695,28.5726363 28.56375,28.5065937 28.5212501,28.3891843 C28.4775001,28.2729978 27.5524999,25.5261086 27.4537499,25.2521535 L21.65,25.2276933 L20.49,28.3891843 C20.44875,28.5017016 20.32375,28.5775284 20.2,28.5273847 L17.83875,27.6003402 C17.7187195,27.5502262 17.6599054,27.4168523 17.705,27.2970329 C17.855,26.8763161 21.84,15.8349463 22.045,15.2613527 C22.43875,14.1484101 22.9475,13 24.5050001,13 C26.0637499,13 26.5537501,14.1300649 26.9625,15.2613527 Z M17.2325,32.8360629 C17.10375,32.8360629 17,32.944911 17,33.0782196 L17,35.7590663 C17,35.8935977 17.10375,36 17.2325,36 L31.77,36 C31.8974999,36 32,35.8935977 32,35.7590663 L32,33.0782196 C32,32.9436881 31.8974999,32.8372858 31.77,32.8372858 L17.2325,32.8372858 L17.2325,32.8360629 Z M22.45,22.7205147 L26.53875,22.7205147 L24.7125001,16.691056 L24.23625,16.691056 L22.45,22.7205147 Z" id="Shape-Copy" fill="#0B1F35" fill-rule="nonzero"></path>
    </g>
</svg>