<svg width="36" height="36" fill="none" xmlns="http://www.w3.org/2000/svg"><path clip-rule="evenodd" d="M17 8.5C9.544 8.5 3.5 14.544 3.5 22v7.495A6.005 6.005 0 009.505 35.5h16.99a6.005 6.005 0 006.005-6.005V22c0-7.456-6.044-13.5-13.5-13.5h-2z" stroke="#fff"/><path d="M14.727 22.454a2.73 2.73 0 002.727-2.727A2.73 2.73 0 0014.727 17 2.73 2.73 0 0012 19.727a2.73 2.73 0 002.727 2.727zm0-4.363a1.636 1.636 0 110 3.273 1.636 1.636 0 010-3.273zm6.546 5.454a2.73 2.73 0 00-2.727 2.728A2.73 2.73 0 0021.273 29 2.73 2.73 0 0024 26.273a2.73 2.73 0 00-2.727-2.727zm0 4.364a1.636 1.636 0 110-3.273 1.636 1.636 0 010 3.273zm-7.754-.528l8.135-9.474.828.71-8.135 9.475-.828-.71z" fill="#fff" fill-opacity=".3"/><path fill-rule="evenodd" clip-rule="evenodd" d="M23.184 36a6.437 6.437 0 006.437-6.437V22c0-7.267-5.536-13.24-12.621-13.933A14.17 14.17 0 0118.379 8H19c7.732 0 14 6.268 14 14v7.563A6.437 6.437 0 0126.563 36h-3.38z" fill="#fff" fill-opacity=".3"/><path clip-rule="evenodd" d="M15.278 8.5h5.445l2.333-3.733c-1.052.054-1.959.03-2.722-.071a4.853 4.853 0 01-.662-.14 9.536 9.536 0 01-.68-.22c-.077-.028-.544-.2-.685-.25-1.128-.4-2.041-.586-3.306-.586-1.475 0-2.255.247-2.457.626L15.278 8.5z" stroke="#fff"/></svg>