<svg xmlns="http://www.w3.org/2000/svg" width="24" height="24" viewBox="0 0 24 24" fill="none"><rect width="24" height="24" fill="none"/>
<path d="M11.8454 18.659C15.3756 14.9809 15.3756 9.01785 11.8454 5.33975C11.616 5.10068 11.6238 4.72086 11.8628 4.4914C12.1019 4.26194 12.4817 4.26974 12.7112 4.50881C16.687 8.65124 16.687 15.3475 12.7112 19.49C12.4817 19.729 12.1019 19.7368 11.8628 19.5074C11.6238 19.2779 11.616 18.8981 11.8454 18.659ZM8.05596 16.5206C10.4512 14.0242 10.4512 9.97516 8.05596 7.47872C7.82654 7.23961 7.8344 6.85979 8.07351 6.63037C8.31262 6.40095 8.69244 6.40881 8.92186 6.64792C11.7626 9.60865 11.7626 14.3907 8.92186 17.3514C8.69244 17.5906 8.31262 17.5984 8.07351 17.369C7.8344 17.1396 7.82654 16.7597 8.05596 16.5206ZM4.26668 14.2165C5.43992 12.9938 5.43992 11.005 4.26668 9.78227C4.03725 9.54317 4.04509 9.16336 4.28419 8.93393C4.52329 8.7045 4.90311 8.71234 5.13254 8.95144C6.7513 10.6384 6.7513 13.3603 5.13254 15.0473C4.90311 15.2864 4.52329 15.2943 4.28419 15.0648C4.04509 14.8354 4.03725 14.4556 4.26668 14.2165Z" fill="#0B1F35"/>
<path fill-rule="evenodd" clip-rule="evenodd" d="M18.8984 9.37997C19.2409 9.33667 19.5536 9.57919 19.5969 9.92164C20.1925 14.6323 19.5969 18 16.5 21.7678C16.2559 22.0118 15.8602 22.0118 15.6161 21.7678C15.372 21.5237 15.372 21.128 15.6161 20.8839C18.5 17 18.9128 14.476 18.3567 10.0784C18.3135 9.73598 18.556 9.42327 18.8984 9.37997Z" fill="#0B1F35"/>
<circle cx="20" cy="4" r="4" fill="#EF3124"/>
</svg>
