<svg xmlns="http://www.w3.org/2000/svg" width="36" height="36">
  <defs>
    <radialGradient id="a" r="57.734375%" fx="50%" fy="50%">
      <stop offset="0%" stop-color="#FFF2B5"/>
      <stop offset="100%" stop-color="#F6BA00"/>
    </radialGradient>
  </defs>
  <g fill="none" transform="translate(2 2)">
    <rect width="32" height="32" fill="url(#a)" rx="16"/>
    <path fill="#0B1F35" d="M17.6416667 9.59769488c.1166667.33699351 2.8149999 8.26584592 2.895 8.50346962.0233333.0656704.0083332.1754093-.0875.2142933-.095.0388839-1.4975.6238701-1.575.6549771-.0775.0319712-.1650001-.0146894-.1933333-.0976416-.0291667-.0820883-.6458335-2.0228253-.7116668-2.2163805L14.1 16.6391311l-.7733333 2.2336622c-.0275.0794959-.1108334.1330691-.1933334.0976416l-1.5741666-.6549771c-.0800204-.0354067-.1192298-.1296383-.0891667-.2142933.1-.2972455 2.7566667-8.0982133 2.8933333-8.50346962C14.6258333 8.81137669 14.965 8 16.0033334 8c1.0391665 0 1.3658334.79841539 1.6383333 1.59769488zM11.155 22.0146097c-.0858333 0-.155.0769035-.155.1710889v1.8940765c0 .0950494.0691667.1702249.155.1702249h9.6916667C20.9316666 24.25 21 24.1748245 21 24.0797751v-1.8940765c0-.0950494-.0683334-.1702249-.1533333-.1702249H11.155v-.000864zm3.4783333-7.1468548h2.7258334l-1.2175-4.2599436h-.3175l-1.1908334 4.2599436z"/>
  </g>
</svg>