<svg xmlns="http://www.w3.org/2000/svg" width="24" height="24" viewBox="0 0 24 24" fill="none"><rect width="24" height="24" fill="none"/>
<g clip-path="url(#clip0)">
<path d="M1 23.0001V24.0001H12V23.0001H1Z" fill="#0B1F35"/>
<path d="M10.8244 12.9452L9.61564 14.154C9.58775 14.1818 9.56611 14.2154 9.55222 14.2524L8.62491 16.7251C8.41291 17.2904 7.68759 17.4475 7.26076 17.0206L1.24339 11.0032C0.816501 10.5763 0.973623 9.851 1.53891 9.63906L3.5446 8.88695C3.58159 8.87312 3.61518 8.85148 3.64311 8.82353L8.82355 3.643C8.85149 3.61507 8.87307 3.58149 8.88696 3.5445L9.63901 1.53893C9.85096 0.973645 10.5763 0.816523 11.0032 1.24341L11.3019 1.54214C11.3043 1.54437 11.3066 1.54665 11.309 1.54898L16.569 6.80903C16.5714 6.81136 16.5736 6.81374 16.5759 6.81612L17.0206 7.26076C17.4474 7.68764 17.2903 8.41296 16.725 8.62491L14.2522 9.55233C14.2153 9.56616 14.1817 9.5878 14.1537 9.61574L12.9452 10.8243" stroke="#0B1F35"/>
<path d="M12.5605 10.4393L18.1527 16.0315C18.7385 16.6173 18.7385 17.5671 18.1527 18.1529C17.567 18.7386 16.6172 18.7386 16.0314 18.1529L15.319 17.4405L13.546 15.6674L11.773 13.8944L10.4392 12.5607L11.4999 11.5L12.5605 10.4393Z" fill="#B6BCC3"/>
</g>
<defs>
<clipPath id="clip0">
<rect width="24" height="24" fill="white"/>
</clipPath>
</defs>
</svg>
