<svg xmlns="http://www.w3.org/2000/svg" width="48" height="48">
  <defs>
    <radialGradient id="a" r="57.734375%" fx="50%" fy="50%">
      <stop offset="0%" stop-color="#FFF2B5"/>
      <stop offset="100%" stop-color="#F6BA00"/>
    </radialGradient>
  </defs>
  <g fill="none">
    <rect width="44" height="44" x="2" y="2" fill="url(#a)" rx="22"/>
    <path fill="#0B1F35" d="M26.9625 15.2613527c.175.4769755 4.2225 11.6993512 4.3425 12.0356802.0350001.0929488.0124998.2482716-.13125.3033073-.1425.0550358-2.24625.8830161-2.3624999.9270445-.1162501.0452516-.2475001-.020791-.29-.1382004-.04375-.1161865-.9687502-2.8630757-1.0675002-3.1370308L21.65 25.2276933l-1.16 3.161491c-.04125.1125173-.16625.1883441-.29.1382004l-2.36125-.9270445c-.1200305-.050114-.1788446-.1834879-.13375-.3033073.15-.4207168 4.135-11.4620866 4.34-12.0356802C22.43875 14.1484101 22.9475 13 24.5050001 13c1.5587498 0 2.04875 1.1300649 2.4574999 2.2613527zm-9.73 17.5747102c-.12875 0-.2325.1088481-.2325.2421567v2.6808467C17 35.8935977 17.10375 36 17.2325 36H31.77c.1274999 0 .23-.1064023.23-.2409337v-2.6808467c0-.1345315-.1025001-.2409338-.23-.2409338H17.2325v-.0012229zM22.45 22.7205147h4.08875l-1.8262499-6.0294587H24.23625L22.45 22.7205147z"/>
  </g>
</svg>