<svg xmlns="http://www.w3.org/2000/svg" width="24" height="24" viewBox="0 0 24 24" fill="none"><rect width="24" height="24" fill="none"/>
<path d="M16.4456 1.69824C19.8308 1.69824 22.2488 3.39206 22.2488 6.53587C22.2488 9.51451 19.003 12.4508 16.4317 13.5183C16.2974 13.574 16.2303 13.6019 16.1699 13.5893C16.1209 13.5791 16.0738 13.5477 16.0456 13.5064C16.0107 13.4555 16.0106 13.3795 16.0103 13.2274C16.0095 12.7101 16.007 11.8265 16 10.9998C13.0984 10.9998 10.6425 9.57741 10.6425 6.53587C10.6425 3.39206 13.0604 1.69824 16.4456 1.69824Z" fill="black"/>
<path fill-rule="evenodd" clip-rule="evenodd" d="M15.7625 15.5474C15.8444 15.5644 15.9237 15.5759 16 15.583L16 20C15.9999 21.1046 15.1045 22 14 22H5.99994C4.89538 22 3.99995 21.1046 3.99994 20V3.99998C3.99995 2.89542 4.89538 2 5.99994 2H10.3479C9.24316 3.17744 8.64243 4.73793 8.64243 6.53587C8.64243 8.66663 9.53718 10.3815 11.0297 11.5059C11.9107 12.1696 12.9392 12.5846 14.0094 12.8041L14.0103 13.2307L14.0103 13.2426C14.0102 13.2952 14.0098 13.4524 14.0248 13.6031C14.0433 13.7885 14.1025 14.2086 14.3952 14.6362C14.7152 15.1037 15.2077 15.432 15.7625 15.5474ZM11.9999 18V20H7.99995V18H11.9999Z" fill="black"/>
</svg>
