<svg xmlns="http://www.w3.org/2000/svg" width="24" height="24" viewBox="0 0 24 24" fill="none"><rect width="24" height="24" fill="none"/>
<g clip-path="url(#clip0_55712_8797)">
<path d="M2.91669 16.8125C4.19252 18.1597 5.99813 19 8.00001 19C10.7924 19 13.2029 17.3649 14.3264 15H16.2277C16.5114 15.0017 16.7955 14.9156 17.0419 14.7419L17.6093 14.3416C18.0973 13.9975 18.7331 13.9975 19.2211 14.3416L19.3175 14.4097C20.0112 14.8989 20.9508 14.6716 21.3745 13.9121L24 8.99992L14.3264 8.99998C13.2029 6.63505 10.7924 5 8.00001 5C5.99813 5 4.19252 5.84034 2.91669 7.18751L9.33334 12L2.91669 16.8125Z" fill="black"/>
<path d="M0 7.5L6 12L0 16.5V7.5Z" fill="black"/>
</g>
<defs>
<clipPath id="clip0_55712_8797">
<rect width="24" height="24" fill="white"/>
</clipPath>
</defs>
</svg>
