<svg xmlns="http://www.w3.org/2000/svg" width="24" height="24" viewBox="0 0 24 24" fill="none"><rect width="24" height="24" fill="none"/>
<path d="M11 3.37529C10.3996 2.54306 9.41817 2.00087 8.30934 2.00087C6.48184 2.00087 5.00036 3.47363 5.00036 5.29038C5.00036 6.21548 5.3845 7.05139 6.00285 7.64907L5.99757 7.65023L11 12.5025L16.0024 7.65023L15.997 7.64904C16.6159 7.0513 17.0004 6.21504 17.0004 5.2895C17.0004 3.47276 15.5189 2 13.6914 2C12.5822 2 11.6004 2.54256 11 3.37529Z" fill="black"/>
<path d="M9.16406 14.1067L14.29 14.4822C16.3802 14.6352 17.9978 16.3759 17.9978 18.4717V19.9392L17.998 20V23C10.3208 23 3.33847 19.3617 1.45193 18.2923C1.13656 18.1135 0.953125 17.7796 0.953125 17.417C0.953125 16.7123 1.63672 16.1957 2.32321 16.3549C4.28227 16.8095 8.09647 17.5052 12.1405 17.2088L8.7814 16.2302C8.31838 16.0953 8 15.6709 8.00001 15.1886C8.00002 14.5583 8.53541 14.0607 9.16406 14.1067Z" fill="black"/>
<path d="M19 24V17H22V24H19Z" fill="black"/>
</svg>
