<svg xmlns="http://www.w3.org/2000/svg" width="24" height="24" viewBox="0 0 24 24" fill="none"><rect width="24" height="24" fill="none"/>
<path fill-rule="evenodd" clip-rule="evenodd" d="M2 9.01429L14.4857 21.5L15.4633 20.7939L15.662 19.67C15.9257 18.1782 16.6416 16.8036 17.7126 15.7323L19.0767 14.3678C19.2052 14.2393 19.3276 14.1064 19.444 13.9694C16.9442 13.6929 15 11.5735 15 9C15 6.82314 16.3911 4.9712 18.3329 4.28467C17.0554 3.19007 15.4457 2.5 13.7933 2.5C12.0275 2.5 10.3724 3.18295 9.13215 4.42317L7.76747 5.78746C6.69623 6.85838 5.32174 7.5742 3.83014 7.83797L2.70693 8.03659L2 9.01429ZM4.81105 18.5959C5.84119 19.626 7.51034 19.626 8.54048 18.5959L4.81105 14.8664C3.7809 15.8966 3.7809 17.5657 4.81105 18.5959ZM19 6H21V8H23V10H21V12H19V10H17V8H19V6Z" fill="black"/>
</svg>
