<svg xmlns="http://www.w3.org/2000/svg" width="24" height="24" viewBox="0 0 24 24" fill="none"><rect width="24" height="24" fill="none"/>
<path d="M21.9998 10V8L11.999 3L1.99977 8V10L4 9.99977L3.99902 16.5528H4.00367L3.99902 17C3.32146 17.3388 1.99902 18.0313 1.99902 18.7889L1.99977 20H11.9306C11.0088 18.4309 10.2799 16.3728 10.0595 13.7082C10.0319 13.3745 10.0124 13.0318 10.0013 12.68C9.95443 11.1853 11.1612 10 12.6029 10H21.9998Z" fill="black"/>
<path d="M17.5 22.4952C17.5 22.4952 12.6584 20.8675 12.0527 13.5434C12.028 13.2443 12.0103 12.9357 12.0003 12.6173C11.9896 12.2765 12.2648 12 12.6029 12H22.3971C22.7352 12 23.0104 12.2765 22.9997 12.6173C22.9897 12.9357 22.972 13.2443 22.9473 13.5434C22.3416 20.8675 17.5 22.4952 17.5 22.4952Z" fill="black"/>
</svg>
