<svg xmlns="http://www.w3.org/2000/svg" width="24" height="24" viewBox="0 0 24 24" fill="none"><rect width="24" height="24" fill="none"/>
<path fill-rule="evenodd" clip-rule="evenodd" d="M15 13L16.9961 7H13.0892L14.5001 22H9.50009L10.9085 7H7.00391L9.00009 13C9.00009 14.0609 8.57858 15.0783 7.82843 15.8284C7.07829 16.5786 6.06087 17 5.00001 17C3.93914 17 2.92173 16.5786 2.17158 15.8284C1.42143 15.0783 1.00009 14.0609 1.00009 13L4.00009 4H20.0001L23 13C23 14.0609 22.5786 15.0783 21.8284 15.8284C21.0783 16.5786 20.0609 17 19 17C17.9391 17 16.9217 16.5786 16.1716 15.8284C15.4214 15.0783 15 14.0609 15 13ZM3.1121 13H6.89573L5.00391 7.32456L3.1121 13ZM18.9961 7.32456L20.8879 13H17.1043L18.9961 7.32456Z" fill="black"/>
</svg>
