<svg xmlns="http://www.w3.org/2000/svg" width="24" height="24" viewBox="0 0 24 24" fill="none"><rect width="24" height="24" fill="none"/>
<path d="M7.03076 5C7.03076 3.89543 7.92619 3 9.03076 3H22C23.1046 3 24 3.89543 24 5V12C24 13.1046 23.1046 14 22 14H21V8C21 6.89543 20.1046 6 19 6H7.03076V5Z" fill="black"/>
<path fill-rule="evenodd" clip-rule="evenodd" d="M0 10C0 8.89543 0.895431 8 2 8H17C18.1046 8 19 8.89543 19 10V18C19 19.1046 18.1046 20 17 20H2C0.895431 20 0 19.1046 0 18V10ZM12.5039 14C12.5039 15.6569 11.1608 17 9.50391 17C7.84705 17 6.50391 15.6569 6.50391 14C6.50391 12.3431 7.84705 11 9.50391 11C11.1608 11 12.5039 12.3431 12.5039 14Z" fill="black"/>
</svg>
