<svg xmlns="http://www.w3.org/2000/svg" width="24" height="24" viewBox="0 0 24 24" fill="none"><rect width="24" height="24" fill="none"/>
<path d="M18.6013 4H5.39884C5.14281 4 4.89653 4.09821 4.71074 4.27438L2.89116 6.00005C2.33697 6.5308 2 7.23167 2 8C2 9.65685 3.567 11 5.5 11C6.97281 11 8.23314 10.2203 8.74976 9.11611C9.26641 10.2203 10.5268 11 11.9997 11C13.4729 11 14.7335 10.22 15.2499 9.11547C15.7664 10.22 17.0269 11 18.5 11C20.433 11 22 9.65685 22 8C22 7.2317 21.6633 6.53074 21.1092 6L19.2894 4.27437C19.1036 4.0982 18.8574 4 18.6013 4Z" fill="black"/>
<path d="M5.5 12.9998C4.6404 12.9998 3.77828 12.8064 3 12.4471V19.9998H9V15.9998H15V19.9998H21V12.4471C20.2217 12.8064 19.3596 12.9998 18.5 12.9998C17.3268 12.9998 16.187 12.6587 15.2499 12.0381C14.3128 12.6588 13.1729 12.9998 11.9997 12.9998C10.8266 12.9998 9.68687 12.6588 8.74979 12.0383C7.81275 12.6588 6.67304 12.9998 5.5 12.9998Z" fill="black"/>
</svg>
