<svg xmlns="http://www.w3.org/2000/svg" width="24" height="24" viewBox="0 0 24 24" fill="none"><rect width="24" height="24" fill="none"/>
<path d="M11.2148 7.0625C11.2148 5.05051 10.4023 3 7.96484 3C5.52733 3 4.71484 5.01294 4.71484 7.0625C4.71484 9.11205 6.15501 10.7187 7.96484 10.7187C9.77469 10.7187 11.2148 9.07449 11.2148 7.0625Z" fill="black"/>
<path d="M16.5064 7C18.4978 7 19.1616 8.67525 19.1616 10.319C19.1616 11.9628 17.985 13.3062 16.5064 13.3062C16.0514 13.3062 15.625 13.1819 15.2527 12.961C15.1046 12.8423 14.9499 12.7251 14.7887 12.61C14.2135 12.0661 13.8511 11.2483 13.8511 10.319C13.8511 8.64457 14.5149 7 16.5064 7Z" fill="black"/>
<path d="M18 20.9998L23 20.9997V18.9245C22.8583 16.535 19.3795 15.2644 17.1768 15.0372C17.5928 15.6677 17.9342 16.4412 17.9965 17.4956L18 17.5545V20.9998Z" fill="black"/>
<path d="M16 20.9999H10.0283L9 14.3006L10.0604 12.7156C12.4929 13.2001 14.1704 14.4808 15.0631 15.5538C15.5982 16.197 15.9476 16.7266 16 17.6136V20.9999Z" fill="black"/>
<path d="M7 14.3006L5.93608 12.7163C3.50546 13.2013 1.82915 14.4813 0.936907 15.5538C0.401804 16.197 0.0524356 16.7266 0 17.6136V20.9999H5.96786L7 14.3006Z" fill="black"/>
</svg>
