<svg xmlns="http://www.w3.org/2000/svg" width="24" height="24" viewBox="0 0 24 24" fill="none"><rect width="24" height="24" fill="none"/>
<path fill-rule="evenodd" clip-rule="evenodd" d="M22 20C22.5523 20 23 19.5523 23 19V11.815C23 10.0401 21.4675 8.65324 19.7015 8.82985L18.2432 8.97568C18.1175 8.98825 18.0117 8.88251 18.0243 8.75677L18.1701 7.29851C18.3468 5.53245 16.9599 4 15.185 4H2C1.44772 4 1 4.44771 1 5V19C1 19.5523 1.44772 20 2 20H22ZM5 10H13V12H5V10ZM5 14H19V16H5V14Z" fill="black"/>
</svg>
