<svg xmlns="http://www.w3.org/2000/svg" width="24" height="24" viewBox="0 0 24 24" fill="none"><rect width="24" height="24" fill="none"/>
<path fill-rule="evenodd" clip-rule="evenodd" d="M10 3.32066C10 2.6508 10.6457 2.17035 11.2873 2.36284L19.4299 4.8056C19.7683 4.90711 20 5.21857 20 5.57186V18.3814C20 18.7347 19.7683 19.0462 19.4299 19.1477L11.2873 21.5904C10.6457 21.7829 10 21.3025 10 20.6326V3.32066ZM14 11.9766C14 12.5289 13.5523 12.9766 13 12.9766C12.4477 12.9766 12 12.5289 12 11.9766C12 11.4243 12.4477 10.9766 13 10.9766C13.5523 10.9766 14 11.4243 14 11.9766Z" fill="black"/>
<path d="M4 4.97675H8V18.9767H4V4.97675Z" fill="black"/>
</svg>
