<svg xmlns="http://www.w3.org/2000/svg" width="24" height="24" viewBox="0 0 24 24" fill="none"><rect width="24" height="24" fill="none"/>
<path fill-rule="evenodd" clip-rule="evenodd" d="M7.84854 18.9877L9.54228 20.6814L20.7143 9.50018C21.5506 8.66396 21.9793 7.57457 22.0005 6.47874C22.0228 5.32583 21.5941 4.1658 20.7143 3.28602C19.8648 2.43649 18.754 2.00753 17.6405 1.99915C16.5049 1.9906 15.3666 2.41956 14.5002 3.28602L3.32812 14.4673L5.0201 16.1592L1.79281 19.3787C1.60085 19.5706 1.50325 19.8212 1.5 20.0728C1.49664 20.333 1.59424 20.5943 1.79281 20.7929L3.20702 22.2071C3.40286 22.4029 3.65971 22.5006 3.91639 22.5C4.17156 22.4994 4.42655 22.4018 4.62124 22.2071L7.84854 18.9877ZM12.8309 14.5613L16.7868 10.6017L13.401 7.21597L9.44512 11.1756L12.8309 14.5613Z" fill="black"/>
</svg>
