<svg xmlns="http://www.w3.org/2000/svg" width="24" height="24" viewBox="0 0 24 24" fill="none"><rect width="24" height="24" fill="none"/>
<path d="M19.2074 7.49036L13.4025 1.6938C13.2544 1.55954 13.0547 1.49885 12.8437 1.5C12.3981 1.50244 11.9021 1.78089 11.7356 2.22488L11.201 3.65996C11.146 3.80661 11.0602 3.93979 10.9495 4.05054L5.52892 9.47115C5.41816 9.5819 5.28498 9.66765 5.13833 9.72264L3.71231 10.2573C3.24783 10.4315 2.99184 10.8679 3.0002 11.3088C3.00361 11.4888 3.05113 11.6696 3.14654 11.8336C3.18438 11.8986 3.24264 11.9813 3.31747 12.0561L3.32173 12.0604L8.96973 17.7073C9.53731 18.2351 10.4675 18.0218 10.7428 17.2878L11.4719 15.3436C11.5269 15.197 11.6127 15.0638 11.7234 14.9531L13.3812 13.2953L19.0859 19L20.5001 17.5858L14.7954 11.8811L16.4312 10.2453C16.5419 10.1345 16.6751 10.0488 16.8217 9.99379L18.7879 9.2646C19.2379 9.09583 19.4922 8.68048 19.5 8.25353C19.5049 7.98406 19.4116 7.70997 19.2074 7.49036Z" fill="black"/>
<path d="M3 22V20H12V22H3Z" fill="black"/>
</svg>
