<svg xmlns="http://www.w3.org/2000/svg" width="24" height="24" viewBox="0 0 24 24" fill="none"><rect width="24" height="24" fill="none"/>
<path d="M12.2512 19.8678C13.6452 17.5686 14.5001 14.878 14.5001 11.9963C14.5001 9.11615 13.6461 6.4269 12.2535 4.12849L8.73612 6.04988C9.82253 7.78337 10.5001 9.82166 10.5001 11.9963C10.5001 14.1725 9.82162 16.2121 8.73376 17.9464L12.2512 19.8678Z" fill="black"/>
<path d="M14.4649 21.0771C16.0745 18.4154 17.0001 15.3096 17.0001 11.9987C17.0001 8.68785 16.0745 5.58211 14.465 2.92048L17.9805 1.00009C19.8974 4.22602 21.0001 7.98277 21.0001 11.9987C21.0001 16.0147 19.8974 19.7715 17.9805 22.9975L14.4649 21.0771Z" fill="black"/>
<path d="M6.52691 16.7409C7.39898 15.37 8.00011 13.7462 8.00011 11.9987C8.00011 10.2514 7.39899 8.62753 6.52696 7.25664L3.00064 9.1829C3.57191 9.98521 4.00011 10.9582 4.00011 11.9987C4.00011 13.0393 3.57189 14.0123 3.0006 14.8147L6.52691 16.7409Z" fill="black"/>
</svg>
