<svg xmlns="http://www.w3.org/2000/svg" width="24" height="24" viewBox="0 0 24 24" fill="none"><rect width="24" height="24" fill="none"/>
<path d="M14.5 2L6.99997 3L9.07064 6.106C7.16916 7.47181 5.74123 9.42797 5.03114 11.7003L4.323 13.9663C4.64446 13.9371 4.97444 13.9575 5.30209 14.0335C6.10303 14.2193 7.22089 14.4449 8.5329 14.6202C8.63865 12.9215 10.1148 11.6127 11.837 11.7389L16.9629 12.1143C17.0094 12.1177 17.0557 12.1216 17.1019 12.1261L16.9688 11.7003C16.2617 9.43768 14.843 7.48853 12.9536 6.12353L14.5 2Z" fill="black"/>
<path d="M11.6909 13.7334L16.8168 14.1088C18.907 14.2619 20.5247 16.0026 20.5247 18.0984V19.5659L20.5249 19.6267V22.6267C12.8476 22.6267 5.86533 18.9884 3.97879 17.9189C3.66341 17.7402 3.47998 17.4062 3.47998 17.0437C3.47998 16.339 4.16358 15.8223 4.85007 15.9816C6.80913 16.4362 10.6233 17.1319 14.6673 16.8354L11.3083 15.8569C10.8452 15.722 10.5269 15.2976 10.5269 14.8153C10.5269 14.185 11.0623 13.6874 11.6909 13.7334Z" fill="black"/>
</svg>
