<svg xmlns="http://www.w3.org/2000/svg" width="24" height="24" viewBox="0 0 24 24" fill="none"><rect width="24" height="24" fill="none"/>
<path d="M8 3C7.44772 3 7 3.44772 7 4V9C7 9.55228 7.44772 10 8 10H10.9999V12H5C3.89543 12 3 12.8954 3 14V16H2C1.44772 16 1 16.4477 1 17V20C1 20.5523 1.44772 21 2 21H6C6.55228 21 7 20.5523 7 20V17C7 16.4477 6.55228 16 6 16H5V14H19V16H18C17.4477 16 17 16.4477 17 17V20C17 20.5523 17.4477 21 18 21H22C22.5523 21 23 20.5523 23 20V17C23 16.4477 22.5523 16 22 16H21V14C21 12.8954 20.1046 12 19 12H12.9999V10H16C16.5523 10 17 9.55229 17 9V4C17 3.44772 16.5523 3 16 3H8Z" fill="black"/>
<path d="M9 17C9 16.4477 9.44772 16 10 16H14C14.5523 16 15 16.4477 15 17V20C15 20.5523 14.5523 21 14 21H10C9.44772 21 9 20.5523 9 20V17Z" fill="black"/>
</svg>
