<svg xmlns="http://www.w3.org/2000/svg" width="24" height="24" viewBox="0 0 24 24" fill="none"><rect width="24" height="24" fill="none"/>
<path d="M20.2795 5.62086C20.5679 5.81953 20.5679 6.22219 20.2795 6.42086L14.3178 11.3271C13.9915 11.5955 13.5 11.3635 13.5 10.941V8.49999C13.0829 8.49999 12.6582 8.49299 12.2292 8.48591C9.31804 8.4379 6.21336 8.3867 4.00004 10.5H3.50004C3.50004 6.83157 6.12128 3.49999 10 3.49999H13.5V1.06405C13.5 0.640715 13.9933 0.408942 14.3192 0.679138L20.2795 5.62086Z" fill="black"/>
<path d="M3.71628 18.3791C3.42791 18.1805 3.42791 17.7778 3.71628 17.5791L9.68112 12.6735C10.0076 12.405 10.4992 12.6376 10.4987 13.0603L10.4958 15.5C10.9129 15.5 11.3376 15.507 11.7666 15.5141C14.6778 15.5621 17.7824 15.6133 19.9958 13.5H20.4958C20.4958 17.1684 17.8745 20.5 13.9958 20.5H10.4958V22.9359C10.4958 23.3593 10.0025 23.5911 9.67664 23.3209L3.71628 18.3791Z" fill="black"/>
</svg>
