<svg xmlns="http://www.w3.org/2000/svg" width="24" height="24" viewBox="0 0 24 24" fill="none"><rect width="24" height="24" fill="none"/>
<path fill-rule="evenodd" clip-rule="evenodd" d="M7 3.00049C7 1.89592 7.89543 1.00049 9 1.00049H13C14.1046 1.00049 15 1.89592 15 3.00049V5H19C20.1046 5 21 5.89543 21 7V12.0799C20.9294 12.0933 20.8589 12.1096 20.7886 12.1291L20.7736 12.1332C20.7129 12.0962 20.6516 12.0601 20.5896 12.0251C20.2723 10.9141 19.2558 10.1429 18.0941 10.1429H16.9032C15.7409 10.1429 14.7239 10.9149 14.4072 12.0269C14.346 12.0615 14.2854 12.0972 14.2255 12.1338L14.2083 12.129C13.0816 11.817 11.8852 12.2969 11.2864 13.3011L10.7076 14.2719C10.083 15.3199 10.2729 16.6614 11.1629 17.495L11.1683 17.5L11.1629 17.5051C10.7272 17.9132 10.4592 18.443 10.3725 19.0005H7C6.98491 19.0005 6.96986 19.0003 6.95484 19H3C1.89543 19 1 18.1046 1 17V7C1 5.89543 1.89543 5 3 5H7V3.00049ZM13 5V3.00049H9V5H13Z" fill="black"/>
<path fill-rule="evenodd" clip-rule="evenodd" d="M22.4672 18.9649L21.718 18.2631C21.7625 18.0155 21.7857 17.7605 21.7857 17.5C21.7857 17.2395 21.7625 16.9845 21.718 16.7369L22.4672 16.0352C22.6715 15.844 22.715 15.5363 22.5717 15.296L21.993 14.3252C21.8557 14.0949 21.5813 13.9849 21.3227 14.0564L20.3728 14.3197C19.9477 13.9354 19.4452 13.6351 18.8914 13.4452L18.6705 12.5893C18.6026 12.3265 18.3656 12.1429 18.0941 12.1429H16.9032C16.6317 12.1429 16.3947 12.3265 16.3268 12.5893L16.1056 13.4462C15.5528 13.6363 15.051 13.9363 14.6265 14.3202L13.6745 14.0564C13.416 13.9849 13.1416 14.0949 13.0043 14.3252L12.4256 15.296C12.2824 15.5363 12.3259 15.844 12.5301 16.0352L13.2816 16.7392C13.2374 16.986 13.2143 17.2403 13.2143 17.5C13.2143 17.7597 13.2374 18.014 13.2817 18.2609L12.5301 18.9649C12.3259 19.1561 12.2824 19.4637 12.4256 19.704L13.0043 20.6747C13.1416 20.9051 13.416 21.0152 13.6745 20.9436L14.6266 20.6798C15.0511 21.0637 15.5528 21.3637 16.1056 21.5537L16.3268 22.4107C16.3947 22.6736 16.6317 22.8571 16.9032 22.8571H18.0941C18.3656 22.8571 18.6026 22.6736 18.6705 22.4107L18.8915 21.5548C19.4452 21.3649 19.9477 21.0646 20.3727 20.6804L21.3227 20.9436C21.5813 21.0152 21.8557 20.9051 21.993 20.6747L22.5717 19.704C22.715 19.4637 22.6715 19.1561 22.4672 18.9649ZM19.1087 17.5003C19.1087 16.6117 18.3883 15.8912 17.4998 15.8912C16.6111 15.8912 15.8907 16.6117 15.8907 17.5003C15.8907 18.3889 16.6111 19.1093 17.4998 19.1093C18.3883 19.1093 19.1087 18.3889 19.1087 17.5003Z" fill="black"/>
</svg>
