<svg xmlns="http://www.w3.org/2000/svg" width="24" height="24" viewBox="0 0 24 24" fill="none"><rect width="24" height="24" fill="none"/>
<path d="M3 3H19V6H3V3Z" fill="black"/>
<path d="M15.2489 21.9987C19.2534 21.9987 22.4997 18.7524 22.4997 14.7479C22.4997 10.7434 19.2534 7.49707 15.2489 7.49707C11.2444 7.49707 7.99805 10.7434 7.99805 14.7479C7.99805 18.7524 11.2444 21.9987 15.2489 21.9987Z" fill="black"/>
<path d="M8.92083 8H3V11H6.78874C7.29442 9.86023 8.02366 8.84168 8.92083 8Z" fill="black"/>
<path d="M6.16294 13H3V16H6.08206C6.02666 15.5905 5.99805 15.1726 5.99805 14.7479C5.99805 14.1503 6.0547 13.566 6.16294 13Z" fill="black"/>
<path d="M6.58585 18H3V21H8.43051C7.63716 20.1353 7.00618 19.1192 6.58585 18Z" fill="black"/>
</svg>
