<svg xmlns="http://www.w3.org/2000/svg" width="24" height="24" viewBox="0 0 24 24" fill="none"><rect width="24" height="24" fill="none"/>
<path d="M13.9094 10.9989L12.6859 14.6354H15.1103L13.9547 10.9989H13.9094Z" fill="black"/>
<path fill-rule="evenodd" clip-rule="evenodd" d="M6 3C6 2.44772 6.44772 2 7 2H14.185C15.9599 2 17.3468 3.53245 17.1701 5.29851L17.0243 6.75677C17.0117 6.88251 17.1175 6.98825 17.2432 6.97568L18.7015 6.82985C20.4675 6.65325 22 8.0401 22 9.81496V21C22 21.5523 21.5523 22 21 22H7C6.44772 22 6 21.5523 6 21V3ZM14 9C14.9823 9 15.2689 9.58589 15.5176 10.3276L18.0897 18H16.1865L15.6087 16.176H12.1648L11.5417 18H9.75181L12.4509 10.3276C12.7127 9.58348 13.0177 9 14 9Z" fill="black"/>
<path d="M4.5 7.60132L1.04204 19.2772C0.885206 19.8067 1.18735 20.3631 1.7169 20.52L4.52451 21.3515C4.50836 21.2366 4.5 21.1193 4.5 21V7.60132Z" fill="black"/>
</svg>
