<svg xmlns="http://www.w3.org/2000/svg" width="24" height="24" viewBox="0 0 24 24" fill="none"><rect width="24" height="24" fill="none"/>
<path fill-rule="evenodd" clip-rule="evenodd" d="M7 2C6.44772 2 6 2.44772 6 3V21C6 21.5523 6.44772 22 7 22H21C21.5523 22 22 21.5523 22 21V9.81496C22 8.0401 20.4675 6.65325 18.7015 6.82985L17.2432 6.97568C17.1175 6.98825 17.0117 6.88251 17.0243 6.75677L17.1701 5.29851C17.3468 3.53245 15.9599 2 14.185 2H7ZM9 11H14V13H9V11ZM9 15H18V17H9V15Z" fill="black"/>
<path d="M1.04192 19.2772L4.49988 7.60132V21C4.49988 21.1193 4.50823 21.2366 4.52439 21.3515L1.71678 20.52C1.18723 20.3631 0.885084 19.8067 1.04192 19.2772Z" fill="black"/>
</svg>
