<svg xmlns="http://www.w3.org/2000/svg" width="24" height="24" viewBox="0 0 24 24" fill="none"><rect width="24" height="24" fill="none"/>
<path d="M16.0001 18.5H20.4999C21.0522 18.5 21.4999 18.0523 21.4999 17.5V8.63996C21.4999 6.8651 19.9674 5.47825 18.2014 5.65485L17.2499 5.75L17.3451 4.79851C17.5217 3.03246 16.1348 1.5 14.3599 1.5H8.8999C8.34762 1.5 7.8999 1.94772 7.8999 2.5V6.47537C8.87129 6.27654 9.91646 6.53236 10.698 7.24283L17.1697 13.1262C18.8779 14.6791 18.0553 17.3941 16.0001 17.9131V18.5Z" fill="black"/>
<path fill-rule="evenodd" clip-rule="evenodd" d="M1.26388 14.6061C0.721976 15.0987 1.07049 16.0002 1.80286 16.0002H3V20.7982C3 21.462 3.53809 22.0001 4.20187 22.0001H12.7981C13.4619 22.0001 14 21.462 14 20.7982V16.0002H15.2852C16.0176 16.0002 16.3661 15.0987 15.8242 14.6061L9.35251 8.72271C8.89409 8.30597 8.194 8.30597 7.73558 8.72271L1.26388 14.6061ZM10 16.0001H7V20.0001H10V16.0001Z" fill="black"/>
</svg>
