<svg xmlns="http://www.w3.org/2000/svg" width="24" height="24" viewBox="0 0 24 24" fill="none"><rect width="24" height="24" fill="none"/>
<path fill-rule="evenodd" clip-rule="evenodd" d="M18 2C19.1046 2 20 2.89543 20 4V20.0013C20 21.1058 19.1046 22 18 22L6.00092 22C4.89652 22 4.00115 21.1061 4.00093 20.0017C4.00054 18.0262 4 15.2002 4 14.5L4.00127 3.9998C4.00141 2.89532 4.89679 2.00004 6.00127 2.00004L18 2ZM17.9999 5.99919V7.99999H5.99988V5.99915C5.99988 5.44686 6.4476 4.99914 6.99989 4.99915L16.9999 4.99919C17.5522 4.99919 17.9999 5.44691 17.9999 5.99919ZM7.49805 13.8499C8.24346 13.8499 8.84778 13.2456 8.84778 12.5001C8.84778 11.7547 8.24347 11.1504 7.49805 11.1504C6.75264 11.1504 6.14832 11.7547 6.14832 12.5001C6.14832 13.2456 6.75264 13.8499 7.49805 13.8499ZM12.4738 18.5263C13.0395 18.5263 13.4979 18.068 13.4982 17.5024C13.4984 16.9348 13.0387 16.4736 12.4712 16.4736H7.0229C6.45608 16.4736 5.99658 16.9331 5.99658 17.4999C5.99658 18.0668 6.45608 18.5263 7.0229 18.5263L12.4738 18.5263ZM13.3475 12.5C13.3475 13.2454 12.7433 13.8496 11.9979 13.8496C11.2526 13.8496 10.6483 13.2454 10.6483 12.5C10.6483 11.7546 11.2526 11.1504 11.9979 11.1504C12.7433 11.1504 13.3475 11.7546 13.3475 12.5ZM17.8475 12.5C17.8475 13.2454 17.2433 13.8496 16.4979 13.8496C15.7526 13.8496 15.1483 13.2454 15.1483 12.5C15.1483 11.7546 15.7526 11.1504 16.4979 11.1504C17.2433 11.1504 17.8475 11.7546 17.8475 12.5ZM16.4999 18.8477C17.2442 18.8477 17.8475 18.2443 17.8475 17.5C17.8475 16.7557 17.2442 16.1523 16.4999 16.1523C15.7556 16.1523 15.1522 16.7557 15.1522 17.5C15.1522 18.2443 15.7556 18.8477 16.4999 18.8477Z" fill="black"/>
</svg>
