<svg xmlns="http://www.w3.org/2000/svg" width="24" height="24" viewBox="0 0 24 24" fill="none"><rect width="24" height="24" fill="none"/>
<path d="M20.542 14C20.8386 13.0556 20.9991 12.0421 21 11C21 5.47721 16.5227 1 10.9999 1C5.47711 1 1 5.47711 1 10.9999C1 15.4775 3.9429 19.2678 8 20.542V18.4183C7.27434 18.1246 6.60158 17.7275 6 17.2452V14H7.80156C8.46359 13.9992 9 13.4622 9 12.8V11.799L6.49902 9H3.25201C3.90963 6.44487 5.79787 4.38377 8.24724 3.48618L11.8423 7.58977C12.0701 7.84986 12.3991 7.99902 12.7449 7.99902H14.7984C15.3507 7.99902 16 8.44674 16 8.99902V11.0173C16 11.6558 16.2037 12.2775 16.5814 12.7922L17.4677 14H20.542Z" fill="black"/>
<path fill-rule="evenodd" clip-rule="evenodd" d="M10 16H23V23H10V16ZM19 19.5C19 20.8807 17.8807 22 16.5 22C15.1193 22 14 20.8807 14 19.5C14 18.1193 15.1193 17 16.5 17C17.8807 17 19 18.1193 19 19.5Z" fill="black"/>
</svg>
