<svg xmlns="http://www.w3.org/2000/svg" width="24" height="24" viewBox="0 0 24 24" fill="none"><rect width="24" height="24" fill="none"/>
<path fill-rule="evenodd" clip-rule="evenodd" d="M12.9718 16.497C12.9718 15.2241 14.7496 15.0218 15.0154 16.3858C15.0588 16.6084 15.1609 16.8237 15.3486 16.951C16.0144 17.4023 16.7613 17.8677 17.5206 18.1097C18.068 18.3322 18.6953 18.4888 19.2525 18.4235C19.2765 18.4207 19.2998 18.4166 19.3225 18.4114C20.0553 18.2908 20.6143 17.6544 20.6143 16.8875C20.6143 16.6218 20.5471 16.3717 20.4289 16.1534C20.3337 15.9857 20.2215 15.8289 20.1161 15.6676C20.0357 15.5445 19.8778 15.4979 19.7434 15.5575C19.5157 15.6585 19.2882 15.7582 19.0619 15.8574C18.7358 16.0002 18.4112 16.1424 18.0933 16.2855C17.9263 16.3606 17.7714 16.4303 17.5917 16.4388C17.4779 16.4442 17.3542 16.4251 17.2112 16.3672C16.8845 16.2011 16.6366 15.9041 16.6366 15.4965V13.4948C22.989 13.9954 24.5919 6.48962 21.4157 2.73674L17.828 6.61283C17.4572 7.01348 17.2926 7.55708 17.1665 8.08826C17.037 8.63393 16.7114 9.24159 15.9037 9.24159C14.6821 9.24159 14.4377 8.11599 14.4377 6.73972C14.4377 4.11386 16.5145 4.36336 17.3696 4.73864C17.9804 3.6128 17.0387 2.91739 16.2527 2.59884C14.1934 1.98659 12.2498 4.36333 12.0055 6.48978C11.7612 4.36333 9.80659 1.98659 7.74729 2.59884C6.9613 2.91739 6.01959 3.6128 6.6304 4.73864C7.48553 4.36336 9.56227 4.11386 9.56227 6.73972C9.56227 8.11599 9.31795 9.24159 8.09633 9.24159C7.2886 9.24159 6.96302 8.63393 6.83349 8.08826C6.7074 7.55708 6.54281 7.01348 6.17197 6.61283L2.58426 2.73674C-0.591931 6.48962 1.01098 13.9954 7.36337 13.4948V15.5006C7.36174 15.9058 7.11487 16.2012 6.78966 16.3669C6.64633 16.4251 6.52232 16.4442 6.4083 16.4388C6.22864 16.4303 6.07369 16.3606 5.90667 16.2855C5.58867 16.1424 5.26492 16.0005 4.93869 15.8576C4.71217 15.7584 4.48445 15.6586 4.25663 15.5575C4.12219 15.4979 3.96433 15.5445 3.88386 15.6676C3.77845 15.8289 3.66633 15.9857 3.57107 16.1534C3.45286 16.3717 3.38574 16.6218 3.38574 16.8875C3.38574 17.6544 3.94472 18.2908 4.67746 18.4113C4.7002 18.4166 4.72353 18.4207 4.74753 18.4235C5.30471 18.4888 5.93199 18.3322 6.47943 18.1097C7.23865 17.8677 7.98564 17.4023 8.65138 16.951C8.83732 16.8249 8.94422 16.612 8.98828 16.3916C9.25411 15.0276 11.0282 15.2241 11.0282 16.497C11.0282 16.9974 10.7839 17.3729 10.1731 17.8733L8.54578 18.9842C8.04811 19.3239 7.95848 20.0328 8.44083 20.3939C9.50745 21.1925 10.7476 21.501 11.9945 21.501C13.2417 21.501 14.4889 21.1924 15.5586 20.3933C16.0414 20.0327 15.9519 19.3239 15.4542 18.9842L13.8269 17.8733C13.2161 17.3729 12.9718 16.9974 12.9718 16.497Z" fill="black"/>
</svg>
