<svg xmlns="http://www.w3.org/2000/svg" width="24" height="24" viewBox="0 0 24 24" fill="none"><rect width="24" height="24" fill="none"/>
<path fill-rule="evenodd" clip-rule="evenodd" d="M11 6.5C11 8.98528 8.98528 11 6.5 11C4.01472 11 2 8.98528 2 6.5C2 4.01472 4.01472 2 6.5 2C8.98528 2 11 4.01472 11 6.5ZM6.5 8.2C7.43888 8.2 8.2 7.43888 8.2 6.5C8.2 5.56112 7.43888 4.8 6.5 4.8C5.56112 4.8 4.8 5.56112 4.8 6.5C4.8 7.43888 5.56112 8.2 6.5 8.2Z" fill="black"/>
<path d="M3.98651 18.9802L17.4851 2.89326L20.013 5.01446L6.51446 21.1014L3.98651 18.9802Z" fill="black"/>
<path fill-rule="evenodd" clip-rule="evenodd" d="M17.5 22C19.9853 22 22 19.9853 22 17.5C22 15.0147 19.9853 13 17.5 13C15.0147 13 13 15.0147 13 17.5C13 19.9853 15.0147 22 17.5 22ZM19.2 17.5C19.2 18.4389 18.4389 19.2 17.5 19.2C16.5611 19.2 15.8 18.4389 15.8 17.5C15.8 16.5611 16.5611 15.8 17.5 15.8C18.4389 15.8 19.2 16.5611 19.2 17.5Z" fill="black"/>
</svg>
