<svg xmlns="http://www.w3.org/2000/svg" width="24" height="24" viewBox="0 0 24 24" fill="none"><rect width="24" height="24" fill="none"/>
<path d="M16.7785 7.78947C16.7785 4.92218 15.5839 2 11.9999 2C8.41596 2 7.22131 4.86865 7.22131 7.78947C7.22131 10.7103 9.33885 13 11.9999 13C14.661 13 16.7785 10.6568 16.7785 7.78947Z" fill="#0B1F35"/>
<path d="M23 22C23 23.1046 22.1046 24 21 24H3C1.89543 24 1 23.1046 1 22V21.4957C1.0721 20.4546 1.55248 19.3201 2.28825 18.5651C3.83632 16.9764 7.10097 15 12 15C17.3684 15 20.5247 17.1013 21.9101 18.6775C22.5173 19.3684 22.937 20.5863 23 21.4957V22Z" fill="#0B1F35"/>
</svg>
