<svg xmlns="http://www.w3.org/2000/svg" width="26" height="24" viewBox="0 0 26 24" fill="none"><rect width="26" height="24" fill="none"/>
<path fill-rule="evenodd" clip-rule="evenodd" d="M2.00025 4.0105L8.00025 4.0105V2.0105C8.00025 0.905928 8.89568 0.0104979 10.0002 0.010498L16.0002 0.0104991C17.1048 0.0104993 18.0002 0.90593 18.0002 2.0105L18.0002 4.0105L24.0002 4.0105C25.1048 4.0105 26.0003 4.90593 26.0002 6.0105L26.0002 20.1158C26.0002 21.1622 25.0302 22.0105 23.8336 22.0105L2.16691 22.0105C0.970293 22.0105 0.000243958 21.1622 0.000244141 20.1158L0.000246607 6.0105C0.0002468 4.90593 0.895678 4.0105 2.00025 4.0105ZM16.0002 4.0105L10.0002 4.0105V2.0105L16.0002 2.0105V4.0105ZM15.0002 11.0105L11.0002 11.0105L11.0002 13.0105C11.0002 13.5628 11.448 14.0105 12.0002 14.0105L14.0002 14.0105C14.5525 14.0105 15.0002 13.5628 15.0002 13.0105L15.0002 11.0105Z" fill="black"/>
</svg>
