<svg xmlns="http://www.w3.org/2000/svg" width="24" height="24" viewBox="0 0 24 24" fill="none"><rect width="24" height="24" fill="none"/>
<path d="M10 5C10 3.896 10.896 3 12 3C13.104 3 14 3.896 14 5C14 6.104 13.104 7 12 7C10.896 7 10 6.104 10 5Z" fill="black"/>
<path d="M10 12C10 10.896 10.896 10 12 10C13.104 10 14 10.896 14 12C14 13.104 13.104 14 12 14C10.896 14 10 13.104 10 12Z" fill="black"/>
<path d="M10 19C10 17.896 10.896 17 12 17C13.104 17 14 17.896 14 19C14 20.104 13.104 21 12 21C10.896 21 10 20.104 10 19Z" fill="black"/>
</svg>
