<svg xmlns="http://www.w3.org/2000/svg" width="24" height="24" viewBox="0 0 24 24" fill="none"><rect width="24" height="24" fill="none"/>
<path d="M23 4.22C23 3.08102 23 2.51153 22.7748 2.07805C22.5851 1.71276 22.2872 1.41492 21.9219 1.22517C21.4885 1 20.919 1 19.78 1H14.61C14.0405 1 13.7558 1 13.539 1.11259C13.3564 1.20746 13.2075 1.35638 13.1126 1.53903C13 1.75576 13 2.04051 13 2.61V9.39C13 9.95949 13 10.2442 13.1126 10.461C13.2075 10.6436 13.3564 10.7925 13.539 10.8874C13.7558 11 14.0405 11 14.61 11H21.39C21.9595 11 22.2442 11 22.461 10.8874C22.6436 10.7925 22.7925 10.6436 22.8874 10.461C23 10.2442 23 9.95949 23 9.39V4.22Z" fill="black"/>
<path d="M11 2.61C11 2.04051 11 1.75576 10.8874 1.53903C10.7925 1.35638 10.6436 1.20746 10.461 1.11259C10.2442 1 9.95949 1 9.39 1H4.22C3.08102 1 2.51153 1 2.07805 1.22517C1.71276 1.41492 1.41492 1.71276 1.22517 2.07805C1 2.51153 1 3.08102 1 4.22V14.39C1 14.9595 1 15.2442 1.11259 15.461C1.20746 15.6436 1.35638 15.7925 1.53903 15.8874C1.75576 16 2.04051 16 2.61 16H9.39C9.95949 16 10.2442 16 10.461 15.8874C10.6436 15.7925 10.7925 15.6436 10.8874 15.461C11 15.2442 11 14.9595 11 14.39V2.61Z" fill="black"/>
<path d="M11 19.61C11 19.0405 11 18.7558 10.8874 18.539C10.7925 18.3564 10.6436 18.2075 10.461 18.1126C10.2442 18 9.95949 18 9.39 18H2.33333C2.02334 18 1.86835 18 1.74118 18.0341C1.39609 18.1265 1.12654 18.3961 1.03407 18.7412C1 18.8683 1 19.0233 1 19.3333C1 19.9533 1 21.2633 1.06815 21.5176C1.25308 22.2078 1.79218 22.7469 2.48236 22.9319C2.73669 23 3.04669 23 3.66667 23H9.39C9.95949 23 10.2442 23 10.461 22.8874C10.6436 22.7925 10.7925 22.6436 10.8874 22.461C11 22.2442 11 21.9595 11 21.39V19.61Z" fill="black"/>
<path d="M23 14.61C23 14.0405 23 13.7558 22.8874 13.539C22.7925 13.3564 22.6436 13.2075 22.461 13.1126C22.2442 13 21.9595 13 21.39 13H14.61C14.0405 13 13.7558 13 13.539 13.1126C13.3564 13.2075 13.2075 13.3564 13.1126 13.539C13 13.7558 13 14.0405 13 14.61V21.39C13 21.9595 13 22.2442 13.1126 22.461C13.2075 22.6436 13.3564 22.7925 13.539 22.8874C13.7558 23 14.0405 23 14.61 23H19.78C20.919 23 21.4885 23 21.9219 22.7748C22.2872 22.5851 22.5851 22.2872 22.7748 21.9219C23 21.4885 23 20.919 23 19.78V14.61Z" fill="black"/>
</svg>
