<svg xmlns="http://www.w3.org/2000/svg" width="18" height="18" viewBox="0 0 18 18" fill="none"><rect width="18" height="18" fill="none"/>
<path d="M10.6 8.99992C10.6 9.88358 9.88368 10.5999 9.00002 10.5999C8.11637 10.5999 7.40002 9.88358 7.40002 8.99992C7.40002 8.11626 8.11637 7.39992 9.00002 7.39992C9.88368 7.39992 10.6 8.11626 10.6 8.99992Z" fill="black"/>
<path d="M10.6 14.501C10.6 15.3846 9.8837 16.101 9.00005 16.101C8.11639 16.101 7.40005 15.3846 7.40005 14.501C7.40005 13.6173 8.11639 12.901 9.00005 12.901C9.8837 12.901 10.6 13.6173 10.6 14.501Z" fill="black"/>
<path d="M10.6 3.49844C10.6 4.38209 9.8837 5.09844 9.00005 5.09844C8.11639 5.09844 7.40005 4.38209 7.40005 3.49844C7.40005 2.61478 8.11639 1.89844 9.00005 1.89844C9.8837 1.89844 10.6 2.61478 10.6 3.49844Z" fill="black"/>
</svg>
