<svg xmlns="http://www.w3.org/2000/svg" width="24" height="24" viewBox="0 0 24 24" fill="none"><rect width="24" height="24" fill="none"/>
<path d="M10 11.75H14C15.1046 11.75 16 10.6046 16 9.5C16 8.39543 15.1046 7.5 14 7.5H10V11.75Z" fill="#0B1F35"/>
<path fill-rule="evenodd" clip-rule="evenodd" d="M1.23247 2.06414C1 2.5032 1 3.08213 1 4.24V19.76C1 20.9179 1 21.4968 1.23247 21.9359C1.42007 22.2902 1.70983 22.5799 2.06414 22.7675C2.5032 23 3.08213 23 4.24 23H19.76C20.9179 23 21.4968 23 21.9359 22.7675C22.2902 22.5799 22.5799 22.2902 22.7675 21.9359C23 21.4968 23 20.9179 23 19.76V4.24C23 3.08213 23 2.5032 22.7675 2.06414C22.5799 1.70983 22.2902 1.42007 21.9359 1.23247C21.4968 1 20.9179 1 19.76 1H4.24C3.08213 1 2.5032 1 2.06414 1.23247C1.70983 1.42007 1.42007 1.70983 1.23247 2.06414ZM8 18.5V16.5H6V15H8V13.5H6V12H8V5.5H14C16.2091 5.5 18 7.29086 18 9.5C18 11.7091 16.2091 13.5 14 13.5H10V15H16V16.5H10V18.5H8Z" fill="#0B1F35"/>
</svg>
