<svg xmlns="http://www.w3.org/2000/svg" width="24" height="24" viewBox="0 0 24 24" fill="none"><rect width="24" height="24" fill="none"/>
<path d="M10 8H13.5C14.6046 8 15.5 8.89543 15.5 10C15.5 11.1046 14.6046 12 13.5 12H10V8Z" fill="black"/>
<path fill-rule="evenodd" clip-rule="evenodd" d="M1 4.24C1 3.08213 1 2.5032 1.23247 2.06414C1.42007 1.70983 1.70983 1.42007 2.06414 1.23247C2.5032 1 3.08213 1 4.24 1H19.76C20.9179 1 21.4968 1 21.9359 1.23247C22.2902 1.42007 22.5799 1.70983 22.7675 2.06414C23 2.5032 23 3.08213 23 4.24V19.76C23 20.9179 23 21.4968 22.7675 21.9359C22.5799 22.2902 22.2902 22.5799 21.9359 22.7675C21.4968 23 20.9179 23 19.76 23H4.24C3.08213 23 2.5032 23 2.06414 22.7675C1.70983 22.5799 1.42007 22.2902 1.23247 21.9359C1 21.4968 1 20.9179 1 19.76V4.24ZM13.5 6H8V12.25H6.33002V13.75H8V15H6.33002V16.5H8V18H10V16.5H15.5V15H10V13.75H13.5C15.6401 13.75 17.5049 12.3558 17.5049 10C17.5049 7.64422 15.6401 6 13.5 6Z" fill="black"/>
</svg>
