<svg xmlns="http://www.w3.org/2000/svg" width="24" height="24" viewBox="0 0 24 24" fill="none"><rect width="24" height="24" fill="none"/>
<path fill-rule="evenodd" clip-rule="evenodd" d="M22 12C22 17.5228 17.5228 22 12 22C10.2029 22 8.51651 21.526 7.05906 20.6961L2 22L3.35865 17.0358C2.49492 15.5569 2 13.8362 2 12C2 6.47715 6.47715 2 12 2C17.5228 2 22 6.47715 22 12ZM16.7564 14.1623L16.1618 13.8922C16.1618 13.8922 15.2969 13.514 14.7563 13.2435C14.6483 13.1895 14.5214 13.1455 14.3789 13.1895C14.3119 13.2101 14.2695 13.2435 14.216 13.2975C14.216 13.2975 14.162 13.3515 13.4053 14.2164C13.3512 14.3244 13.2432 14.3784 13.1351 14.3784H13.0811C13.0186 14.3784 12.9429 14.3469 12.8662 14.3069C12.7606 14.252 12.6541 14.199 12.5476 14.146C12.4279 14.0864 12.3081 14.0269 12.1897 13.9645C11.9243 13.8248 11.6735 13.6704 11.443 13.4959C11.0537 13.2013 10.6925 12.8733 10.363 12.5133C10.0857 12.2104 9.82356 11.8772 9.62188 11.5139L9.56785 11.4058C9.53446 11.3724 9.52171 11.3391 9.50408 11.2929C9.49319 11.2644 9.48043 11.231 9.4598 11.1897C9.4598 11.0817 9.4598 10.9736 9.51383 10.9196C9.51383 10.9196 9.72993 10.6494 9.89202 10.487C9.94604 10.433 9.98656 10.3654 10.0271 10.2979C10.0676 10.2304 10.1081 10.1628 10.1622 10.1088C10.2702 9.94673 10.3242 9.73062 10.2702 9.56817C10.2162 9.29803 9.56749 7.83856 9.40541 7.51403C9.29735 7.35195 9.1893 7.29792 9.02721 7.2439H8.43255C8.13229 7.2439 7.87377 7.42449 7.73019 7.56806C7.20938 8.08887 6.86539 8.8288 6.86539 9.56781C6.86539 10.0004 6.97344 10.4326 7.13552 10.8112L7.18955 10.9732C7.64485 11.9341 8.24172 12.8006 9.02531 13.5722C9.10555 13.6512 9.18546 13.7313 9.26554 13.8116C9.56533 14.1119 9.8676 14.4148 10.1989 14.6744C11.246 15.4947 12.4229 16.0939 13.7302 16.4329C13.8922 16.487 14.1094 16.5195 14.2708 16.541C14.4322 16.5625 14.6478 16.554 14.8114 16.541C15.082 16.5195 15.4061 16.4329 15.6222 16.3249C15.8779 16.1971 16.1082 16.0543 16.3047 15.871C16.4502 15.7353 16.6154 15.5811 16.7028 15.4064C16.7871 15.2378 16.8385 15.0361 16.8827 14.8272C16.8853 14.8146 16.8881 14.8019 16.8908 14.7891C16.9427 14.5475 16.9994 14.2834 16.7564 14.1623Z" fill="black"/>
</svg>
