<svg xmlns="http://www.w3.org/2000/svg" width="24" height="24" fill="none"><path d="M0 0h24v24H0z"/><g clip-path="url(#a)"><path fill-rule="evenodd" clip-rule="evenodd" d="M0 7a2 2 0 0 1 2-2h20a2 2 0 0 1 2 2v10a2 2 0 0 1-2 2H2a2 2 0 0 1-2-2V7zm4.5 6a1.5 1.5 0 1 0 0 3 1.5 1.5 0 0 0 0-3zm0-5a1.5 1.5 0 1 0 0 3 1.5 1.5 0 0 0 0-3zM8 9.5a1.5 1.5 0 1 1 3 0 1.5 1.5 0 0 1-3 0zM14.5 8a1.5 1.5 0 1 0 0 3 1.5 1.5 0 0 0 0-3zM18 9.5a1.5 1.5 0 1 1 3 0 1.5 1.5 0 0 1-3 0zM14.5 16h-5a1.5 1.5 0 0 1 0-3h5a1.5 1.5 0 0 1 0 3zm3.5-1.5a1.5 1.5 0 1 1 3 0 1.5 1.5 0 0 1-3 0z" fill="#000"/></g><defs><clipPath id="a"><path fill="#fff" transform="rotate(-180 12 12)" d="M0 0h24v24H0z"/></clipPath></defs></svg>
