<svg xmlns="http://www.w3.org/2000/svg" width="24" height="24" viewBox="0 0 24 24" fill="none"><rect width="24" height="24" fill="none"/>
<path fill-rule="evenodd" clip-rule="evenodd" d="M7.50237 6.5L3.00237 2L1.50391 3.49846L4.50545 6.5H4.22459C2.99729 6.5 2.00237 7.30338 2.00237 8.5L2.00237 16.5C2.00237 17.6966 2.99729 18.5 4.22459 18.5L16.5054 18.5L20 22L21.5119 20.5096L19.5024 18.5H19.5054L14.7043 13.6989L14.7033 13.7009L10.8063 9.8039L10.8083 9.80288L7.50539 6.5H7.50237ZM9.30731 11.3019C9.11419 11.6809 9.00237 12.0904 9.00237 12.5C9.00237 14 10.5024 15.5 12.0024 15.5C12.4193 15.5 12.8298 15.3907 13.207 15.2015L9.30731 11.3019ZM7.55792 16.5H4.22459L4.22459 13L7.55792 16.5Z" fill="black"/>
<path fill-rule="evenodd" clip-rule="evenodd" d="M22.0024 16.5C22.0024 16.9385 21.8688 17.3241 21.6391 17.6368L10.5023 6.5H19.7801C21.0074 6.5 22.0024 7.30338 22.0024 8.5V16.5ZM19.7801 8.5L16.4468 8.5L19.7801 12V8.5Z" fill="black"/>
</svg>
