<svg xmlns="http://www.w3.org/2000/svg" width="24" height="24" viewBox="0 0 24 24" fill="none"><rect width="24" height="24" fill="none"/>
<path d="M4.9479 11.0695L3.65108 12.3671C1.44883 14.5707 1.44883 18.1435 3.65108 20.3471C5.85333 22.5507 9.42389 22.5507 11.6261 20.3471L14.4001 17.5714C16.6023 15.3678 16.6023 11.7951 14.4001 9.59152C14.225 9.41638 14.0414 9.25515 13.8504 9.10784L12.0904 10.8689C12.2951 10.996 12.4886 11.1484 12.6664 11.3263C13.9111 12.5718 13.9111 14.5912 12.6664 15.8367L9.89244 18.6123C8.64768 19.8578 6.62954 19.8578 5.38479 18.6123C4.14004 17.3668 4.14004 15.3474 5.38479 14.1019L6.68161 12.8043L4.9479 11.0695Z" fill="black"/>
<path d="M20.3477 3.65245C18.1454 1.44886 14.5749 1.44886 12.3726 3.65245L9.5987 6.42807C7.39644 8.63167 7.39644 12.2044 9.5987 14.408C9.74733 14.5567 9.9022 14.6954 10.0625 14.824L11.8151 13.0704C11.6447 12.9562 11.4829 12.8238 11.3324 12.6732C10.0877 11.4277 10.0877 9.40835 11.3324 8.16284L14.1063 5.38721C15.3511 4.14171 17.3692 4.14171 18.614 5.38721C19.8587 6.63272 19.8587 8.65209 18.614 9.8976L17.3722 11.1401L19.1059 12.8749L20.3477 11.6324C22.55 9.42877 22.55 5.85604 20.3477 3.65245Z" fill="black"/>
</svg>
