<svg width="24" height="24" viewBox="0 0 24 24" fill="none" xmlns="http://www.w3.org/2000/svg">
<path fill-rule="evenodd" clip-rule="evenodd" d="M20.5393 4.44803C21.5084 4.69497 22.27 5.41992 22.5294 6.34243C22.9981 8.01282 23 11.5 23 11.5C23 11.5 23 14.9872 22.5294 16.6576C22.27 17.5801 21.5084 18.305 20.5393 18.552C18.7846 19 12 19 12 19C12 19 5.21537 19 3.46066 18.552C2.49159 18.305 1.73005 17.5801 1.47064 16.6576C0.999999 14.9872 1 11.5 1 11.5C1 11.5 1 8.01282 1.47064 6.34243C1.73005 5.41992 2.49159 4.69497 3.46067 4.44803C5.21538 4 12 4 12 4C12 4 18.7846 4 20.5393 4.44803ZM16 11.5L10 15V8L16 11.5Z" fill="#0B1F35"/>
</svg>
