<svg xmlns="http://www.w3.org/2000/svg" width="24" height="24" viewBox="0 0 24 24" fill="none"><rect width="24" height="24" fill="none"/>
<path fill-rule="evenodd" clip-rule="evenodd" d="M1.84616 5.69231L7.38462 5.69231V3.84615C7.38462 2.82655 8.21117 2 9.23077 2L14.7692 2C15.7888 2 16.6154 2.82655 16.6154 3.84616L16.6154 5.69231L22.1538 5.69231C23.1735 5.69231 24 6.51886 24 7.53846L24 20.5587C24 21.5246 23.1046 22.3077 22 22.3077L2 22.3077C0.895429 22.3077 -1.6889e-07 21.5246 0 20.5587L2.27653e-06 7.53846C2.4548e-06 6.51886 0.826554 5.69231 1.84616 5.69231ZM14.7692 5.69231L9.23077 5.69231V3.84615L14.7692 3.84615V5.69231ZM13.8462 12.1538L10.1538 12.1538L10.1538 14C10.1538 14.5098 10.5671 14.9231 11.0769 14.9231L12.9231 14.9231C13.4329 14.9231 13.8462 14.5098 13.8462 14L13.8462 12.1538Z" fill="black"/>
</svg>
