<svg xmlns="http://www.w3.org/2000/svg" width="24" height="24" viewBox="0 0 24 24" fill="none"><rect width="24" height="24" fill="none"/>
<path d="M1 9.03322C1 8.07025 1.46226 7.16582 2.24272 6.60176L10.8285 0.396608C11.1781 0.143922 11.5891 1.49012e-07 12 0C12.4109 -1.49012e-07 12.8219 0.143921 13.1715 0.396607L21.7573 6.60176C22.5377 7.16582 23 8.07025 23 9.03322V20.9999C23 22.1045 22.1046 22.9999 21 22.9999H15C14.4477 22.9999 14 22.5522 14 21.9999V16.9999C14 16.4476 13.5523 15.9999 13 15.9999H11C10.4477 15.9999 10 16.4476 10 16.9999V21.9999C10 22.5522 9.55228 22.9999 9 22.9999H3C1.89543 22.9999 1 22.1045 1 20.9999V9.03322Z" fill="#0B1F35"/>
</svg>
