<svg xmlns="http://www.w3.org/2000/svg" width="24" height="24" viewBox="0 0 24 24" fill="none"><rect width="24" height="24" fill="none"/>
<path d="M16.7329 18.8615L19.8728 22.0015L21.287 20.5872L17.9805 17.2807L17.9808 17.2782L5.70263 5.00002H5.69981L2.70712 2.00732L1.29291 3.42154L3.08995 5.21858C2.4429 5.5498 2.00001 6.22319 2.00001 7.00002L2.00001 17C2.00001 18.1046 2.89544 19 4.00001 19H16C16.2587 19 16.5059 18.9509 16.7329 18.8615Z" fill="black"/>
<path d="M21.4585 17.8336C21.2956 17.7331 21.145 17.614 21.0097 17.4787L8.53106 5.00002H16C17.1046 5.00002 18 5.89545 18 7.00002L18 8.41419L21.4585 6.28002C22.3059 5.75708 23 6.18408 23 7.22997V16.8832C23 17.928 22.3059 18.3565 21.4585 17.8336Z" fill="black"/>
</svg>
