<svg xmlns="http://www.w3.org/2000/svg" width="24" height="24" viewBox="0 0 24 24" fill="none"><rect width="24" height="24" fill="none"/>
<path fill-rule="evenodd" clip-rule="evenodd" d="M2 8.5C2 7.30338 2.99492 6.5 4.22222 6.5L19.7778 6.5C21.0051 6.5 22 7.30338 22 8.5V16.5C22 17.6966 21.0051 18.5 19.7778 18.5H4.22222C2.99492 18.5 2 17.6966 2 16.5L2 8.5ZM14.2222 12.5C14.2222 13.6966 13.2273 14.6667 12 14.6667C10.7727 14.6667 9.77778 13.6966 9.77778 12.5C9.77778 11.3034 10.7727 10.3333 12 10.3333C13.2273 10.3333 14.2222 11.3034 14.2222 12.5ZM7.55556 16.5H4.22222V13L7.55556 16.5ZM19.7778 8.5H16.4444L19.7778 12V8.5Z" fill="black"/>
</svg>
