<svg width="24" height="24" viewBox="0 0 24 24" fill="none" xmlns="http://www.w3.org/2000/svg">
<path fill-rule="evenodd" clip-rule="evenodd" d="M8.36548 8.36539C9.32941 7.40145 10.6368 6.85992 12 6.85992C13.3632 6.85992 14.6706 7.40145 15.6345 8.36539C16.5985 9.32932 17.14 10.6367 17.14 11.9999C17.14 13.3631 16.5985 14.6705 15.6345 15.6344C14.6706 16.5984 13.3632 17.1399 12 17.1399C10.6368 17.1399 9.32941 16.5984 8.36548 15.6344C7.40154 14.6705 6.86001 13.3631 6.86001 11.9999C6.86001 10.6367 7.40154 9.32932 8.36548 8.36539ZM10.7231 15.0826C11.1279 15.2503 11.5618 15.3366 12 15.3366C12.8849 15.3366 13.7336 14.985 14.3594 14.3593C14.9851 13.7335 15.3367 12.8849 15.3367 11.9999C15.3367 11.115 14.9851 10.2663 14.3594 9.64054C13.7336 9.01479 12.8849 8.66325 12 8.66325C11.5618 8.66325 11.1279 8.74955 10.7231 8.91724C10.3183 9.08492 9.95047 9.3307 9.64063 9.64054C9.33079 9.95037 9.08501 10.3182 8.91733 10.723C8.74964 11.1279 8.66334 11.5617 8.66334 11.9999C8.66334 12.4381 8.74964 12.872 8.91733 13.2768C9.08501 13.6816 9.33079 14.0495 9.64063 14.3593C9.95046 14.6691 10.3183 14.9149 10.7231 15.0826Z" fill="#0B1F35"/>
<path d="M18.2797 7.62572C18.5076 7.39786 18.6356 7.08882 18.6356 6.76658C18.6356 6.44435 18.5076 6.13531 18.2797 5.90745C18.0518 5.67959 17.7428 5.55158 17.4206 5.55158C17.0983 5.55158 16.7893 5.67959 16.5614 5.90745C16.3336 6.1353 16.2056 6.44434 16.2056 6.76658C16.2056 7.08882 16.3336 7.39786 16.5614 7.62572C16.7893 7.85357 17.0983 7.98158 17.4206 7.98158C17.7428 7.98158 18.0518 7.85357 18.2797 7.62572Z" fill="#0B1F35"/>
<path fill-rule="evenodd" clip-rule="evenodd" d="M7.87722 2.06C8.94389 2.01111 9.28389 2 12 2C14.7167 2 15.0561 2.01167 16.1222 2.06C17.1872 2.10834 17.9144 2.27778 18.5506 2.525C19.2177 2.77619 19.8221 3.16977 20.3217 3.67834C20.8303 4.17782 21.2239 4.78224 21.475 5.44945C21.7222 6.08556 21.8911 6.81278 21.94 7.87723C21.9889 8.94389 22 9.28389 22 12C22 14.7161 21.9883 15.0561 21.94 16.1228C21.8917 17.1872 21.7222 17.9144 21.475 18.5506C21.2194 19.2078 20.8772 19.7661 20.3217 20.3217C19.8222 20.8303 19.2178 21.2239 18.5506 21.475C17.9144 21.7222 17.1872 21.8911 16.1228 21.94C15.0561 21.9889 14.7161 22 12 22C9.28389 22 8.94389 21.9883 7.87722 21.94C6.81277 21.8917 6.08555 21.7222 5.44944 21.475C4.79222 21.2194 4.23389 20.8772 3.67833 20.3217C3.16967 19.8222 2.77607 19.2178 2.525 18.5506C2.27778 17.9144 2.10889 17.1872 2.06 16.1228C2.01111 15.0561 2 14.7167 2 12C2 9.28333 2.01167 8.94389 2.06 7.87778C2.10833 6.81278 2.27778 6.08556 2.525 5.44944C2.77619 4.78229 3.16977 4.17789 3.67833 3.67833C4.17781 3.16967 4.78223 2.77608 5.44944 2.525C6.08556 2.27778 6.81278 2.10889 7.87722 2.06ZM16.0411 3.86C14.9867 3.81222 14.67 3.80167 12 3.80167C9.33 3.80167 9.01333 3.81222 7.95889 3.86C6.98389 3.90445 6.45444 4.06722 6.10222 4.20445C5.63556 4.38556 5.30222 4.60222 4.95222 4.95222C4.60278 5.30222 4.38555 5.63556 4.20444 6.10222C4.06722 6.45444 3.90444 6.98389 3.86 7.95889C3.81222 9.01333 3.80167 9.33 3.80166 12C3.80166 14.67 3.81222 14.9867 3.86 16.0411C3.90444 17.0161 4.06722 17.5456 4.20444 17.8978C4.36465 18.3322 4.62017 18.7251 4.95222 19.0478C5.27485 19.3798 5.66782 19.6354 6.10222 19.7956C6.45444 19.9328 6.98389 20.0956 7.95889 20.14C9.01333 20.1878 9.32944 20.1983 12 20.1983C14.6706 20.1983 14.9867 20.1878 16.0411 20.14C17.0161 20.0956 17.5456 19.9328 17.8978 19.7956C18.3644 19.6144 18.6978 19.3978 19.0478 19.0478C19.3798 18.7251 19.6354 18.3322 19.7956 17.8978C19.9328 17.5456 20.0956 17.0161 20.14 16.0411C20.1878 14.9867 20.1983 14.67 20.1983 12C20.1983 9.33 20.1878 9.01334 20.14 7.95889C20.0956 6.98389 19.9328 6.45445 19.7956 6.10223C19.6144 5.63556 19.3978 5.30223 19.0478 4.95223C18.6978 4.60278 18.3644 4.38556 17.8978 4.20445C17.5456 4.06722 17.0161 3.90445 16.0411 3.86Z" fill="#0B1F35"/>
</svg>
