<svg width="24" height="24" viewBox="0 0 24 24" fill="none" xmlns="http://www.w3.org/2000/svg">
<path d="M8.06366 21.1999C16.0597 21.1999 20.4332 14.1587 20.4332 8.05267C20.4332 7.85268 20.4332 7.65359 20.4205 7.4554C21.2713 6.80129 22.0058 5.99138 22.5895 5.0636C21.796 5.43728 20.9543 5.68234 20.0925 5.7906C21 5.21313 21.6793 4.30487 22.0038 3.23484C21.1504 3.77307 20.2168 4.15239 19.2432 4.35642C18.5878 3.61563 17.7209 3.12509 16.7767 2.96072C15.8325 2.79636 14.8636 2.96732 14.0201 3.44716C13.1765 3.927 12.5052 4.68897 12.1102 5.61514C11.7151 6.54132 11.6182 7.58008 11.8345 8.57067C10.1061 8.47857 8.41523 8.00117 6.87166 7.16946C5.32808 6.33774 3.96633 5.1703 2.87478 3.74293C2.31885 4.76016 2.14858 5.96434 2.39864 7.11031C2.6487 8.25628 3.30029 9.25787 4.22074 9.91116C3.52889 9.88936 2.85213 9.691 2.24757 9.3328C2.24757 9.35172 2.24757 9.37154 2.24757 9.39136C2.24785 10.4582 2.5953 11.4921 3.231 12.3176C3.86671 13.1432 4.75152 13.7097 5.73536 13.9209C5.09533 14.1064 4.4238 14.1336 3.77237 14.0002C4.05017 14.9183 4.59101 15.7212 5.31926 16.2966C6.0475 16.8719 6.92673 17.191 7.83397 17.2091C6.29454 18.495 4.39285 19.1931 2.43489 19.191C2.08899 19.1903 1.74344 19.168 1.39999 19.1243C3.38811 20.4804 5.70138 21.1996 8.06366 21.1963" fill="#0B1F35"/>
</svg>
