<svg xmlns="http://www.w3.org/2000/svg" width="24" height="24" viewBox="0 0 24 24" fill="none"><rect width="24" height="24" fill="none"/>
<path fill-rule="evenodd" clip-rule="evenodd" d="M6.99848 5.99841L2.99846 2L1.5 3.49786L4.0097 6.00655C2.88209 6.09356 2 6.87133 2 7.9976L2 16.994C2 18.1901 2.99492 18.9932 4.22222 18.9932L17.0016 18.9932L20.0096 22L21.508 20.5021L19.9903 18.985C19.9937 18.9848 19.9971 18.9845 20.0004 18.9842L14.1298 13.116C14.1289 13.1187 14.1281 13.1215 14.1272 13.1243L10.9981 9.99641C11.0011 9.9958 11.0041 9.99519 11.0071 9.99459L7.00935 5.99841H6.99848ZM9.28688 11.2816C9.10369 11.6291 9 12.025 9 12.445C9 13.8252 10.1193 14.944 11.5 14.944C11.9202 14.944 12.3163 14.8404 12.6639 14.6573L9.28688 11.2816ZM4 16.994H7.33333L4 13.4954L4 16.994Z" fill="black"/>
<path fill-rule="evenodd" clip-rule="evenodd" d="M22 16.994C22 17.2935 21.9376 17.5684 21.8248 17.8122L10.0063 5.99841H19.7778C21.0051 5.99841 22 6.80147 22 7.9976V16.994ZM16.6667 7.9976H20V11.4962L16.6667 7.9976Z" fill="black"/>
</svg>
