<svg width="24" height="24" viewBox="0 0 24 24" fill="none" xmlns="http://www.w3.org/2000/svg">
<path fill-rule="evenodd" clip-rule="evenodd" d="M22.4823 5.90214C22.6454 5.39324 22.4823 5.02314 21.76 5.02313H19.3601C18.7544 5.02313 18.4748 5.34698 18.3117 5.69395C18.3117 5.69395 17.0768 8.65481 15.3526 10.5747C14.7934 11.1299 14.5371 11.315 14.2342 11.315C14.0711 11.315 13.8614 11.1299 13.8614 10.621V5.879C13.8614 5.27758 13.675 5 13.1624 5H9.38788C9.01509 5 8.78209 5.27758 8.78209 5.55516C8.78209 6.13345 9.64418 6.27224 9.73738 7.89146V11.4075C9.73738 12.1708 9.59758 12.3096 9.29468 12.3096C8.4792 12.3096 6.49872 9.3256 5.31044 5.92527C5.07744 5.25445 4.84445 5 4.23866 5H1.81549C1.1165 5 1 5.32384 1 5.67082C1 6.29537 1.81549 9.4413 4.79785 13.605C6.77832 16.4502 9.59758 17.9769 12.1372 17.9769C13.675 17.9769 13.8614 17.6299 13.8614 17.0516V14.9004C13.8614 14.2064 14.0012 14.0908 14.4905 14.0908C14.84 14.0908 15.4691 14.2758 16.8904 15.6406C18.5214 17.2598 18.8009 18 19.7096 18H22.1095C22.8085 18 23.1347 17.653 22.9483 16.9822C22.7386 16.3114 21.9464 15.3399 20.9212 14.1833C20.362 13.5356 19.5232 12.8185 19.2669 12.4715C18.9174 12.0089 19.0106 11.8238 19.2669 11.4075C19.2436 11.4075 22.1794 7.29004 22.4823 5.90214Z" fill="#0B1F35"/>
</svg>
