<svg xmlns="http://www.w3.org/2000/svg" width="24" height="24" viewBox="0 0 24 24" fill="none"><rect width="24" height="24" fill="none"/>
<path d="M13.6897 18.3118H9.60181V21.2444H6.40259V18.3118H3.80005V15.7346H6.40259V14.3762H3.80005V11.7991H6.40259V2.76001H13.4739C15.5136 2.76001 17.1428 3.29321 18.3616 4.35962C19.5803 5.41756 20.1897 6.82674 20.1897 8.58716C20.1897 10.3814 19.6099 11.7906 18.4504 12.8147C17.2909 13.8303 15.6786 14.3508 13.6135 14.3762H9.60181V15.7346H13.6897V18.3118ZM9.60181 11.7991H13.4231C14.5741 11.7991 15.4543 11.5325 16.0637 10.9993C16.6731 10.4661 16.9778 9.67049 16.9778 8.61255C16.9778 7.66463 16.6773 6.89022 16.0764 6.28931C15.484 5.6884 14.663 5.37524 13.6135 5.34985H9.60181V11.7991Z" fill="#0B1F35"/>
</svg>
