<svg xmlns="http://www.w3.org/2000/svg" width="24" height="24" viewBox="0 0 24 24" fill="none"><rect width="24" height="24" fill="none"/>
<path d="M11.3008 23.414H12.7905V21.1991C16.1523 20.9618 18.7891 19.1425 18.7891 15.8993C18.7891 13.0912 16.8906 11.6674 13.4233 10.8632L12.7905 10.705V5.20744C14.478 5.41838 15.6646 6.38078 15.8359 8.04192H18.5781C18.4727 5.04924 16.0864 3.0717 12.7905 2.80803V0.580002H11.3008V2.80803C7.97852 3.05852 5.60547 4.99651 5.60547 7.96281C5.60547 10.6391 7.41162 12.142 10.7603 12.9198L11.3008 13.0517V18.7997C9.17822 18.5888 8.17627 17.4418 7.93896 15.8993H5.20996C5.30225 19.0634 7.95215 20.9487 11.3008 21.1991V23.414ZM8.40039 7.73869C8.40039 6.5258 9.40234 5.43156 11.3008 5.20744V10.3622C9.19141 9.8217 8.40039 8.9384 8.40039 7.73869ZM15.9941 16.163C15.9941 17.5737 15.0449 18.6415 12.7905 18.8129V13.4076C15.2427 13.9877 15.9941 14.7919 15.9941 16.163Z" fill="#0B1F35"/>
</svg>
