<svg xmlns="http://www.w3.org/2000/svg" width="24" height="24" viewBox="0 0 24 24" fill="none"><rect width="24" height="24" fill="none"/>
<path d="M11.3235 14.6262C11.3235 14.0197 11.2576 13.4792 11.1653 12.9782H16.9529V11.0798H10.7039C10.5061 10.3415 10.3611 9.56367 10.3611 8.60127C10.3611 6.45235 11.9299 5.01534 14.5403 5.01534C16.0696 5.01534 17.3748 5.27901 18.1921 5.63496V3.20918C17.4934 2.87959 15.9377 2.55 14.1843 2.55C10.0315 2.55 7.40796 4.89668 7.40796 8.57491C7.40796 9.40547 7.56616 10.2624 7.75073 11.0798H4.88989V12.9782H8.22534C8.37036 13.611 8.46265 14.2043 8.46265 14.7448C8.46265 16.8674 7.30249 18.7395 4.92944 19.0954V21.4421H19.115V19.0031H9.09546V18.9372C10.4797 18.3176 11.3235 16.696 11.3235 14.6262Z" fill="#0B1F35"/>
</svg>
