<svg xmlns="http://www.w3.org/2000/svg" width="24" height="24" viewBox="0 0 24 24" fill="none"><rect width="24" height="24" fill="none"/>
<path d="M15.6924 14.5552H11.1729C11.2236 16.0278 11.5918 17.1281 12.2773 17.856C12.9714 18.5838 13.9616 18.9478 15.248 18.9478C16.179 18.9478 17.0465 18.8081 17.8506 18.5288L18.2061 21.1187C17.1904 21.3641 16.141 21.4868 15.0576 21.4868C12.891 21.4868 11.1855 20.8774 9.94141 19.6587C8.69727 18.4399 8.04134 16.7388 7.97363 14.5552H5.79004V12.7651H7.97363V11.1401H5.79004V9.3501H7.98633C8.09635 7.19189 8.78613 5.51611 10.0557 4.32275C11.3252 3.12093 13.0306 2.52002 15.1719 2.52002C16.069 2.52002 17.0804 2.6512 18.2061 2.91357L17.8506 5.51611C16.9873 5.22835 16.1283 5.08447 15.2734 5.08447C13.9954 5.08447 13.0137 5.44841 12.3281 6.17627C11.6426 6.90413 11.2617 7.96208 11.1855 9.3501H15.6924V11.1401H11.1729V12.7651H15.6924V14.5552Z" fill="#0B1F35"/>
</svg>
