<svg xmlns="http://www.w3.org/2000/svg" width="24" height="24" viewBox="0 0 24 24" fill="none"><rect width="24" height="24" fill="none"/>
<path d="M11.3235 14.6262C11.3235 14.0198 11.2576 13.4792 11.1653 12.9783H16.9529V11.0798H10.7039C10.5061 10.3416 10.3611 9.56372 10.3611 8.60132C10.3611 6.45239 11.9299 5.01538 14.5403 5.01538C16.0696 5.01538 17.3748 5.27905 18.1921 5.63501V3.20923C17.4934 2.87964 15.9377 2.55005 14.1843 2.55005C10.0315 2.55005 7.40796 4.89673 7.40796 8.57495C7.40796 9.40552 7.56616 10.2625 7.75073 11.0798H4.88989V12.9783H8.22534C8.37036 13.6111 8.46265 14.2043 8.46265 14.7449C8.46265 16.8674 7.30249 18.7395 4.92944 19.0955V21.4421H19.115V19.0032H9.09546V18.9373C10.4797 18.3176 11.3235 16.696 11.3235 14.6262Z" fill="#0B1F35"/>
</svg>
