<svg xmlns="http://www.w3.org/2000/svg" width="24" height="24" viewBox="0 0 24 24" fill="none"><rect width="24" height="24" fill="none"/>
<path d="M10.5786 13.7638L10.6675 15.9982C10.6675 17.1407 10.3966 18.0717 9.85498 18.7911H18.6909L18.6782 21.3556H5.36084V18.7911H6.40186C6.73193 18.715 6.98584 18.4441 7.16357 17.9786C7.34977 17.5047 7.44287 16.8826 7.44287 16.1124L7.354 13.7638H5.31006V11.2374H7.27783L7.17627 8.16516C7.17627 6.45553 7.70524 5.10559 8.76318 4.11536C9.82113 3.12512 11.2091 2.63 12.9272 2.63C14.6453 2.63 15.9953 3.09127 16.9771 4.01379C17.9588 4.93632 18.4497 6.17623 18.4497 7.73352H15.3394C15.3394 6.92948 15.1151 6.30741 14.6665 5.86731C14.2264 5.41874 13.6086 5.19446 12.813 5.19446C12.0597 5.19446 11.4631 5.46952 11.0229 6.01965C10.5913 6.56978 10.3755 7.28495 10.3755 8.16516L10.4897 11.2374H14.438V13.7638H10.5786Z" fill="#0B1F35"/>
</svg>
