<svg xmlns="http://www.w3.org/2000/svg" width="24" height="24" viewBox="0 0 24 24" fill="none"><rect width="24" height="24" fill="none"/>
<path d="M15.6924 14.5552H11.1729C11.2236 16.0278 11.5918 17.1281 12.2773 17.8559C12.9714 18.5838 13.9616 18.9477 15.248 18.9477C16.179 18.9477 17.0465 18.8081 17.8506 18.5288L18.2061 21.1186C17.1904 21.3641 16.141 21.4868 15.0576 21.4868C12.891 21.4868 11.1855 20.8774 9.94141 19.6587C8.69727 18.4399 8.04134 16.7388 7.97363 14.5552H5.79004V12.7651H7.97363V11.1401H5.79004V9.35008H7.98633C8.09635 7.19188 8.78613 5.5161 10.0557 4.32274C11.3252 3.12092 13.0306 2.52 15.1719 2.52C16.069 2.52 17.0804 2.65119 18.2061 2.91356L17.8506 5.5161C16.9873 5.22834 16.1283 5.08446 15.2734 5.08446C13.9954 5.08446 13.0137 5.44839 12.3281 6.17625C11.6426 6.90412 11.2617 7.96206 11.1855 9.35008H15.6924V11.1401H11.1729V12.7651H15.6924V14.5552Z" fill="#0B1F35"/>
</svg>
