<svg xmlns="http://www.w3.org/2000/svg" width="24" height="24" viewBox="0 0 24 24" fill="none"><rect width="24" height="24" fill="none"/>
<path d="M10.5786 13.7637L10.6675 15.998C10.6675 17.1406 10.3966 18.0716 9.85498 18.791H18.6909L18.6782 21.3555H5.36084V18.791H6.40186C6.73193 18.7148 6.98584 18.444 7.16357 17.9785C7.34977 17.5046 7.44287 16.8825 7.44287 16.1123L7.354 13.7637H5.31006V11.2373H7.27783L7.17627 8.16504C7.17627 6.4554 7.70524 5.10547 8.76318 4.11523C9.82113 3.125 11.2091 2.62988 12.9272 2.62988C14.6453 2.62988 15.9953 3.09115 16.9771 4.01367C17.9588 4.9362 18.4497 6.17611 18.4497 7.7334H15.3394C15.3394 6.92936 15.1151 6.30729 14.6665 5.86719C14.2264 5.41862 13.6086 5.19434 12.813 5.19434C12.0597 5.19434 11.4631 5.4694 11.0229 6.01953C10.5913 6.56966 10.3755 7.28483 10.3755 8.16504L10.4897 11.2373H14.438V13.7637H10.5786Z" fill="#0B1F35"/>
</svg>
