<svg xmlns="http://www.w3.org/2000/svg" width="24" height="24" viewBox="0 0 24 24" fill="none"><rect width="24" height="24" fill="none"/>
<path d="M2.8999 14.5694H5.10156C5.97168 18.9199 9.10938 21.5303 13.46 21.5303C17.5601 21.5303 20.3154 19.4077 21.1064 16.0855H18.2192C17.5996 17.7993 15.9517 18.9595 13.4731 18.9595C10.8364 18.9595 8.8457 17.3379 8.10742 14.5694H15.3716V13.0928H7.84375C7.8042 12.7368 7.79102 12.3809 7.79102 11.9986C7.79102 11.6162 7.8042 11.2603 7.84375 10.9043H15.3716V9.42775H8.12061C8.87207 6.68556 10.8496 5.0508 13.46 5.0508C15.8857 5.0508 17.6787 6.46144 18.2324 8.33351H21.1064C20.5659 4.98488 17.5732 2.48 13.46 2.48C9.13574 2.48 5.98486 5.10353 5.10156 9.42775H2.8999V10.9043H4.89062C4.86426 11.2603 4.85107 11.6294 4.85107 11.9986C4.85107 12.3677 4.86426 12.7368 4.89062 13.0928H2.8999V14.5694Z" fill="#0B1F35"/>
</svg>
