<svg xmlns="http://www.w3.org/2000/svg" width="24" height="24" viewBox="0 0 24 24" fill="none"><rect width="24" height="24" fill="none"/>
<path d="M11.3008 23.4141H12.7905V21.1992C16.1523 20.9619 18.7891 19.1426 18.7891 15.8994C18.7891 13.0913 16.8906 11.6675 13.4233 10.8633L12.7905 10.7051V5.20752C14.478 5.41846 15.6646 6.38086 15.8359 8.04199H18.5781C18.4727 5.04932 16.0864 3.07178 12.7905 2.80811V0.580078H11.3008V2.80811C7.97852 3.05859 5.60547 4.99658 5.60547 7.96289C5.60547 10.6392 7.41162 12.1421 10.7603 12.9199L11.3008 13.0518V18.7998C9.17822 18.5889 8.17627 17.4419 7.93896 15.8994H5.20996C5.30225 19.0635 7.95215 20.9487 11.3008 21.1992V23.4141ZM8.40039 7.73877C8.40039 6.52588 9.40234 5.43164 11.3008 5.20752V10.3623C9.19141 9.82178 8.40039 8.93848 8.40039 7.73877ZM15.9941 16.1631C15.9941 17.5737 15.0449 18.6416 12.7905 18.813V13.4077C15.2427 13.9878 15.9941 14.792 15.9941 16.1631Z" fill="#0B1F35"/>
</svg>
