<svg xmlns="http://www.w3.org/2000/svg" width="24" height="24" viewBox="0 0 24 24" fill="none"><rect width="24" height="24" fill="none"/>
<path d="M13.6897 18.3118H9.60181V21.2444H6.40259V18.3118H3.80005V15.7346H6.40259V14.3762H3.80005V11.7991H6.40259V2.75999H13.4739C15.5136 2.75999 17.1428 3.2932 18.3616 4.3596C19.5803 5.41755 20.1897 6.82673 20.1897 8.58714C20.1897 10.3814 19.6099 11.7906 18.4504 12.8147C17.2909 13.8303 15.6786 14.3508 13.6135 14.3762H9.60181V15.7346H13.6897V18.3118ZM9.60181 11.7991H13.4231C14.5741 11.7991 15.4543 11.5325 16.0637 10.9993C16.6731 10.466 16.9778 9.67048 16.9778 8.61253C16.9778 7.66462 16.6773 6.8902 16.0764 6.28929C15.484 5.68838 14.663 5.37523 13.6135 5.34984H9.60181V11.7991Z" fill="#0B1F35"/>
</svg>
