<svg xmlns="http://www.w3.org/2000/svg" width="24" height="24" viewBox="0 0 24 24" fill="none"><rect width="24" height="24" fill="none"/>
<path d="M15.0025 16.5426C15.0025 15.8275 14.7754 15.2387 14.3211 14.776C13.8668 14.3049 13.1097 13.8843 12.0498 13.5142C10.9899 13.1356 10.1655 12.7865 9.57662 12.4669C7.61658 11.4154 6.63656 9.8591 6.63656 7.79811C6.63656 6.40168 7.06137 5.25342 7.911 4.35331C8.76064 3.45321 9.91311 2.91903 11.3684 2.75079V0H13.3873V2.77603C14.8511 2.98633 15.9825 3.60883 16.7817 4.64353C17.5808 5.66982 17.9804 7.00736 17.9804 8.65615H14.9268C14.9268 7.59621 14.687 6.76341 14.2075 6.15773C13.7365 5.54364 13.0929 5.23659 12.2769 5.23659C11.4694 5.23659 10.8384 5.45531 10.3842 5.89274C9.92993 6.33018 9.7028 6.95689 9.7028 7.77287C9.7028 8.50473 9.92573 9.09359 10.3716 9.53943C10.8258 9.97687 11.5913 10.3933 12.6681 10.7886C13.7449 11.184 14.5903 11.5499 15.2044 11.8864C15.8185 12.2229 16.3358 12.6099 16.7564 13.0473C17.177 13.4763 17.5009 13.9727 17.728 14.5363C17.9552 15.0999 18.0687 15.7603 18.0687 16.5173C18.0687 17.939 17.6313 19.0915 16.7564 19.9748C15.89 20.858 14.6786 21.3796 13.1224 21.5394V24H11.1161V21.552C9.45044 21.367 8.16758 20.7697 7.26747 19.7603C6.37578 18.7508 5.92993 17.4132 5.92993 15.7476H8.99618C8.99618 16.8076 9.26116 17.6278 9.79113 18.2082C10.3295 18.7886 11.0866 19.0789 12.0624 19.0789C13.0214 19.0789 13.7491 18.8475 14.2454 18.3849C14.7501 17.9222 15.0025 17.3081 15.0025 16.5426Z" fill="#0B1F35"/>
</svg>
