<svg xmlns="http://www.w3.org/2000/svg" width="24" height="24" viewBox="0 0 24 24" fill="none"><rect width="24" height="24" fill="none"/>
<path d="M7.76207 11C7.76207 10.3163 8.31632 9.76208 9.00001 9.76208C9.6837 9.76208 10.2379 10.3163 10.2379 11C10.2379 11.6837 9.6837 12.2379 9.00001 12.2379C8.31632 12.2379 7.76207 11.6837 7.76207 11Z" fill="#0B1F35"/>
<path fill-rule="evenodd" clip-rule="evenodd" d="M2 5C2 4.44772 2.44772 4 3 4H21C21.5523 4 22 4.44772 22 5V19.6C22 19.8209 21.8209 20 21.6 20H19.2472C19.0957 20 18.9572 19.9144 18.8894 19.7789L18.1106 18.2211C18.0428 18.0856 17.9043 18 17.7528 18H6.24721C6.0957 18 5.9572 18.0856 5.88944 18.2211L5.11056 19.7789C5.0428 19.9144 4.90429 20 4.75279 20H2.4C2.17909 20 2 19.8209 2 19.6V5ZM16.4 13.9C16.2343 13.9 16.1 13.7657 16.1 13.6V8.40001C16.1 8.23432 16.2343 8.10001 16.4 8.10001H17.6C17.7657 8.10001 17.9 8.23432 17.9 8.40001V13.6C17.9 13.7657 17.7657 13.9 17.6 13.9H16.4ZM9.00001 8.10001C7.39838 8.10001 6.10001 9.39838 6.10001 11C6.10001 12.6016 7.39838 13.9 9.00001 13.9C10.6016 13.9 11.9 12.6016 11.9 11C11.9 9.39838 10.6016 8.10001 9.00001 8.10001Z" fill="#0B1F35"/>
</svg>
