<svg xmlns="http://www.w3.org/2000/svg" width="24" height="24" viewBox="0 0 24 24" fill="none"><rect width="24" height="24" fill="none"/>
<path fill-rule="evenodd" clip-rule="evenodd" d="M2 4C2 3.44772 2.44772 3 3 3H21C21.5523 3 22 3.44772 22 4V16C22 16.5523 21.5523 17 21 17H3C2.44772 17 2 16.5523 2 16V4ZM14 10C14 11.1046 13.1046 12 12 12C10.8954 12 10 11.1046 10 10C10 8.89543 10.8954 8 12 8C13.1046 8 14 8.89543 14 10ZM8 15H4V11L8 15ZM20 5H16L20 9V5ZM19 21L20 19H4L5 21H19Z" fill="#0B1F35"/>
</svg>
