<svg xmlns="http://www.w3.org/2000/svg" width="24" height="24" viewBox="0 0 24 24" fill="none"><rect width="24" height="24" fill="none"/>
<path d="M19.1808 7.57934C19.8011 7.16974 19.7736 6.25049 19.1298 5.8788L11.54 1.49684C10.8962 1.12515 10.0863 1.5609 10.0418 2.30295L9.87361 5.10479C9.87175 5.13579 9.8627 5.16592 9.84717 5.19281L6.89439 10.3072C6.87886 10.3341 6.85729 10.357 6.83138 10.3741L4.489 11.9207C3.86863 12.3303 3.8962 13.2495 4.53999 13.6212L12.1298 18.0032C12.7736 18.3748 13.5834 17.9391 13.628 17.197L13.7962 14.3952C13.798 14.3642 13.8071 14.3341 13.8226 14.3072L14.699 12.7892C14.7542 12.6936 14.8765 12.6608 14.9722 12.716L19.9951 15.616C20.4734 15.8922 21.085 15.7283 21.3612 15.25C21.6373 14.7717 21.4734 14.1601 20.9951 13.884L15.9722 10.984C15.8765 10.9287 15.8438 10.8064 15.899 10.7108L16.7754 9.19281C16.7909 9.16592 16.8125 9.14301 16.8384 9.12591L19.1808 7.57934Z" fill="#0B1F35"/>
<path d="M2.5 22C2.5 21.4477 2.94772 21 3.5 21H13.5C14.0523 21 14.5 21.4477 14.5 22C14.5 22.5523 14.0523 23 13.5 23H3.5C2.94772 23 2.5 22.5523 2.5 22Z" fill="#0B1F35"/>
</svg>
