<svg xmlns="http://www.w3.org/2000/svg" width="24" height="24" viewBox="0 0 24 24" fill="none"><rect width="24" height="24" fill="none"/>
<path fill-rule="evenodd" clip-rule="evenodd" d="M20 10H4V18C4 20.2091 5.79086 22 8 22H16C18.2091 22 20 20.2091 20 18V10ZM12 17C12.8284 17 13.5 16.3284 13.5 15.5C13.5 14.6716 12.8284 14 12 14C11.1716 14 10.5 14.6716 10.5 15.5C10.5 16.3284 11.1716 17 12 17Z" fill="#0B1F35"/>
<path d="M7 7C7 4.23858 9.23858 2 12 2C14.7614 2 17 4.23858 17 7V10H15V7C15 5.34315 13.6569 4 12 4C10.3431 4 9 5.34315 9 7V10H7V7Z" fill="#0B1F35"/>
</svg>
