<svg xmlns="http://www.w3.org/2000/svg" width="24" height="24" viewBox="0 0 24 24" fill="none"><rect width="24" height="24" fill="none"/>
<path d="M16 2.48284C16 2.30466 16.2154 2.21543 16.3414 2.34142L19.6586 5.65858C19.7846 5.78457 19.6953 6 19.5172 6H16.2C16.0895 6 16 5.91046 16 5.8V2.48284Z" fill="#0B1F35"/>
<path d="M12.7621 16C12.7621 15.3163 13.3163 14.7621 14 14.7621C14.6837 14.7621 15.2379 15.3163 15.2379 16C15.2379 16.6837 14.6837 17.2379 14 17.2379C13.3163 17.2379 12.7621 16.6837 12.7621 16Z" fill="#0B1F35"/>
<path fill-rule="evenodd" clip-rule="evenodd" d="M13.8 2C13.9105 2 14 2.08954 14 2.2V7.6C14 7.82091 14.1791 8 14.4 8H19.8C19.9105 8 20 8.08954 20 8.2V21C20 21.5523 19.5523 22 19 22H5C4.44772 22 4 21.5523 4 21V3C4 2.44772 4.44772 2 5 2H13.8ZM14 13.1C12.3984 13.1 11.1 14.3984 11.1 16C11.1 17.6016 12.3984 18.9 14 18.9C15.6016 18.9 16.9 17.6016 16.9 16C16.9 14.3984 15.6016 13.1 14 13.1Z" fill="#0B1F35"/>
</svg>
