<svg xmlns="http://www.w3.org/2000/svg" width="24" height="24" viewBox="0 0 24 24" fill="none"><rect width="24" height="24" fill="none"/>
<path d="M13.1106 4.22673C14.746 2.59125 17.3977 2.59125 19.0331 4.22673L19.7735 4.96705C21.4089 6.60253 21.4089 9.25416 19.7735 10.8896L18.2928 12.3703L16.8122 10.8896L18.2928 9.40899C19.1106 8.59125 19.1106 7.26544 18.2928 6.4477L17.5525 5.70738C16.7348 4.88964 15.4089 4.88964 14.5912 5.70738L10.8896 9.40899C10.0718 10.2267 10.0718 11.5525 10.8896 12.3703L11.6299 13.1106L10.1493 14.5913L9.40894 13.8509C7.77346 12.2155 7.77346 9.56382 9.40894 7.92834L13.1106 4.22673Z" fill="#0B1F35"/>
<path d="M10.8896 19.7735C9.25411 21.409 6.60248 21.409 4.967 19.7735L4.22668 19.0332C2.5912 17.3977 2.5912 14.7461 4.22668 13.1106L5.70732 11.63L7.18797 13.1106L5.70732 14.5913C4.88958 15.409 4.88958 16.7348 5.70732 17.5525L6.44765 18.2929C7.26538 19.1106 8.5912 19.1106 9.40894 18.2929L13.1106 14.5913C13.9283 13.7735 13.9283 12.4477 13.1106 11.63L12.3702 10.8896L13.8509 9.40899L14.5912 10.1493C16.2267 11.7848 16.2267 14.4364 14.5912 16.0719L10.8896 19.7735Z" fill="#0B1F35"/>
</svg>
