<svg xmlns="http://www.w3.org/2000/svg" width="24" height="24" viewBox="0 0 24 24" fill="none"><rect width="24" height="24" fill="none"/>
<path d="M21 8.30495C21 8.15099 20.8333 8.05477 20.7 8.13175L12.2 13.0392C12.0762 13.1107 11.9238 13.1107 11.8 13.0392L3.3 8.13175C3.16667 8.05477 3 8.151 3 8.30496V18C3 18.5523 3.44772 19 4 19L20 19C20.5523 19 21 18.5523 21 18V8.30495Z" fill="#0B1F35"/>
<path d="M21 5.41154C21 5.55857 20.9216 5.69443 20.7942 5.76795L12.2 10.7298C12.0762 10.8013 11.9238 10.8013 11.8 10.7298L3.20577 5.76795C3.07844 5.69443 3 5.55857 3 5.41154C3 5.18425 3.18425 5 3.41154 5H20.5885C20.8157 5 21 5.18425 21 5.41154Z" fill="#0B1F35"/>
</svg>
