<svg xmlns="http://www.w3.org/2000/svg" width="24" height="24" viewBox="0 0 24 24" fill="none"><rect width="24" height="24" fill="none"/>
<path d="M16.3414 2.34142C16.2154 2.21543 16 2.30466 16 2.48284V5.8C16 5.91046 16.0895 6 16.2 6H19.5172C19.6953 6 19.7846 5.78457 19.6586 5.65858L16.3414 2.34142Z" fill="#0B1F35"/>
<path fill-rule="evenodd" clip-rule="evenodd" d="M14 2.2C14 2.08954 13.9105 2 13.8 2H5C4.44772 2 4 2.44772 4 3V21C4 21.5523 4.44772 22 5 22H19C19.5523 22 20 21.5523 20 21V8.2C20 8.08954 19.9105 8 19.8 8H14.4C14.1791 8 14 7.82091 14 7.6V2.2ZM7.40001 17.1H16.6C16.7657 17.1 16.9 17.2343 16.9 17.4V18.6C16.9 18.7657 16.7657 18.9 16.6 18.9H7.40001C7.23432 18.9 7.10001 18.7657 7.10001 18.6V17.4C7.10001 17.2343 7.23432 17.1 7.40001 17.1ZM12.6 13.1H7.40001C7.23432 13.1 7.10001 13.2343 7.10001 13.4V14.6C7.10001 14.7657 7.23432 14.9 7.40001 14.9H12.6C12.7657 14.9 12.9 14.7657 12.9 14.6V13.4C12.9 13.2343 12.7657 13.1 12.6 13.1Z" fill="#0B1F35"/>
</svg>
