<svg xmlns="http://www.w3.org/2000/svg" width="24" height="24" viewBox="0 0 24 24" fill="none"><rect width="24" height="24" fill="none"/>
<path d="M5.99942 5.21643C6.09019 3.78322 7.30276 2.66669 8.76869 2.66669H15.1852C16.6497 2.66669 17.8623 3.78322 17.9544 5.21643L18.6481 8.95053C17.5195 8.95053 15.7631 9.77808 15.3333 11.5047H8.66662C7.99996 9.33335 6.48038 8.95053 5.51077 8.95053L5.99942 5.21643Z" fill="#0B1F35"/>
<path d="M5.87863 10.9737C4.88419 10.4105 3.61065 10.7447 3.0362 11.7202L1.99976 13.479L5.33309 15.4415C5.31634 17.19 5.33309 18.9137 5.33309 20.6667C5.33309 21.3334 5.33309 21.3334 5.33309 21.3334H7.33309C7.33309 21.3334 7.62939 19.5556 7.77753 18.6667H16.222C16.3701 19.5556 16.5183 20.4445 16.6664 21.3334H18.6664C18.6664 21.3334 18.6664 21.3334 18.6664 20.6667L18.6479 15.4415L21.9998 13.6701L20.9633 11.9113C20.3889 10.9358 19.1153 10.6015 18.1209 11.1647L17.5193 11.5047C16.9828 11.8086 16.636 12.781 16.5208 13.3334H7.50849C7.4394 12.7076 7.07766 11.6523 6.48018 11.3136L5.87863 10.9737Z" fill="#0B1F35"/>
</svg>
