<svg xmlns="http://www.w3.org/2000/svg" width="24" height="24" viewBox="0 0 24 24" fill="none"><rect width="24" height="24" fill="none"/>
<path fill-rule="evenodd" clip-rule="evenodd" d="M6.5 11C8.433 11 10 9.433 10 7.5C10 5.567 8.433 4 6.5 4C4.567 4 3 5.567 3 7.5C3 9.433 4.567 11 6.5 11ZM6.5 8.5C7.05228 8.5 7.5 8.05228 7.5 7.5C7.5 6.94772 7.05228 6.5 6.5 6.5C5.94772 6.5 5.5 6.94772 5.5 7.5C5.5 8.05228 5.94772 8.5 6.5 8.5Z" fill="#0B1F35"/>
<path d="M14.7814 5C14.6067 5 14.4446 5.09118 14.354 5.24051L6.27667 18.5443C6.15529 18.7442 6.29922 19 6.53311 19H9.21863C9.39333 19 9.55536 18.9088 9.64602 18.7595L17.7233 5.45569C17.8447 5.25577 17.7008 5 17.4669 5H14.7814Z" fill="#0B1F35"/>
<path fill-rule="evenodd" clip-rule="evenodd" d="M21 16.5C21 18.433 19.433 20 17.5 20C15.567 20 14 18.433 14 16.5C14 14.567 15.567 13 17.5 13C19.433 13 21 14.567 21 16.5ZM18.5 16.5C18.5 17.0523 18.0523 17.5 17.5 17.5C16.9477 17.5 16.5 17.0523 16.5 16.5C16.5 15.9477 16.9477 15.5 17.5 15.5C18.0523 15.5 18.5 15.9477 18.5 16.5Z" fill="#0B1F35"/>
</svg>
