<svg xmlns="http://www.w3.org/2000/svg" width="24" height="24" viewBox="0 0 24 24" fill="none"><rect width="24" height="24" fill="none"/>
<path d="M17.2949 13.2125C17.8522 13.2125 18.378 13.4541 18.814 13.906L21.2814 16.3714C21.7353 16.8188 21.9736 17.3512 21.9736 17.906C21.9736 18.4564 21.7398 18.9933 21.2949 19.4541C20.85 19.95 20.5893 20.2 19.9061 20.8635C19.223 21.6018 18.3511 21.9732 17.3129 21.9732C17.223 21.9732 17.1241 21.9687 17.0297 21.9642C15.4882 21.8658 14.1084 21.2886 13.0747 20.8009C10.3691 19.4989 8.00052 17.651 6.03198 15.311C4.40951 13.3691 3.32186 11.557 2.59377 9.60179C2.29715 8.80537 1.91063 7.58837 2.01849 6.28188C2.0904 5.47204 2.41849 4.77405 2.99377 4.20134C3.56906 3.62864 4.08142 3.08725 4.53085 2.65772C4.98029 2.22819 5.51063 2 6.05894 2C6.60726 2 7.12861 2.22819 7.56456 2.65772C7.8567 2.92617 8.13984 3.21253 8.4095 3.48993C8.54433 3.6331 8.68814 3.77627 8.82745 3.91496L8.82748 3.91499L10.0544 5.13647C10.9983 6.07606 10.9983 7.29307 10.0544 8.23266C9.92861 8.35794 9.80276 8.4877 9.67692 8.61298C9.34434 8.94855 9.00276 9.29754 8.63422 9.63311C8.90838 10.2371 9.28591 10.8322 9.84771 11.5392C11.0073 12.9575 12.2162 14.0537 13.5466 14.8949C13.6769 14.9754 13.8297 15.0514 13.9915 15.132L13.9915 15.132C14.1039 15.1902 14.2207 15.2483 14.3376 15.311L15.7578 13.9016C16.2118 13.4497 16.7421 13.2125 17.2949 13.2125Z" fill="#0B1F35"/>
</svg>
