<svg xmlns="http://www.w3.org/2000/svg" width="24" height="24" viewBox="0 0 24 24" fill="none"><rect width="24" height="24" fill="none"/>
<path fill-rule="evenodd" clip-rule="evenodd" d="M12 1C9.23858 1 7 3.23858 7 6V7H9V6C9 4.34315 10.3431 3 12 3C13.6569 3 15 4.34315 15 6V10H4V18C4 20.2091 5.79086 22 8 22H16C18.2091 22 20 20.2091 20 18V10H17V6C17 3.23858 14.7614 1 12 1ZM13.5 15.5C13.5 16.3284 12.8284 17 12 17C11.1716 17 10.5 16.3284 10.5 15.5C10.5 14.6716 11.1716 14 12 14C12.8284 14 13.5 14.6716 13.5 15.5Z" fill="#0B1F35"/>
</svg>
