<svg xmlns="http://www.w3.org/2000/svg" width="24" height="24" viewBox="0 0 24 24" fill="none"><rect width="24" height="24" fill="none"/>
<path fill-rule="evenodd" clip-rule="evenodd" d="M8 5C8 6.10457 8.89543 7 10 7H5C3.96447 7 3.11275 7.787 3.01033 8.79551C3.0035 8.86275 3 8.93096 3 9V11C3 11.5523 3.44771 12 4 12C4.55228 12 5 11.5523 5 11V9.4C5 9.17909 5.17909 9 5.4 9H18.6C18.8209 9 19 9.17909 19 9.4V11C19 11.5523 19.4477 12 20 12C20.5523 12 21 11.5523 21 11V9C21 7.89543 20.1046 7 19 7H14C15.1046 7 16 6.10457 16 5C16 3.89543 15.1046 3 14 3C12.8954 3 12 3.89543 12 5C12 3.89543 11.1046 3 10 3C8.89543 3 8 3.89543 8 5Z" fill="#0B1F35"/>
<path d="M18 10.9C18 10.6791 17.8209 10.5 17.6 10.5H6.39996C6.17905 10.5 5.99996 10.6791 5.99996 10.9V11.5C5.99996 12.6046 5.10453 13.5 3.99996 13.5C3.73785 13.5 3.48751 13.4496 3.25811 13.3579C3.15384 13.3162 3.03121 13.3551 2.9814 13.4558L1.85793 15.7256C1.65129 16.1431 1.5248 16.5719 1.46987 16.9981C1.44879 17.2155 1.45673 17.3497 1.46987 17.5C1.71296 19.3916 3.31152 21 5.44285 21H18.557C20.6883 21 22.2869 19.3916 22.53 17.5C22.5404 17.3152 22.5436 17.2037 22.53 16.9981C22.475 16.5719 22.3485 16.1431 22.1419 15.7256L21.0184 13.4558C20.9686 13.3552 20.846 13.3163 20.7417 13.3579C20.5124 13.4496 20.2621 13.5 20 13.5C18.8954 13.5 18 12.6046 18 11.5V10.9Z" fill="#0B1F35"/>
</svg>
