<svg xmlns="http://www.w3.org/2000/svg" width="24" height="24" viewBox="0 0 24 24" fill="none"><rect width="24" height="24" fill="none"/>
<path fill-rule="evenodd" clip-rule="evenodd" d="M22.5 8V10H20.5V18L21.3944 18.4472C22.072 18.786 22.5 19.4785 22.5 20.2361V21H1.5V20.2361C1.5 19.4785 1.928 18.786 2.60557 18.4472L3.5 18V10H1.5V8L12 3L22.5 8ZM5.5 10V18H8.5V10H5.5ZM10.5 10V18H13.5V10H10.5ZM15.5 10V18H18.5V10H15.5ZM13 7C13 7.55228 12.5523 8 12 8C11.4477 8 11 7.55228 11 7C11 6.44772 11.4477 6 12 6C12.5523 6 13 6.44772 13 7Z" fill="#0B1F35"/>
</svg>
