<svg xmlns="http://www.w3.org/2000/svg" width="24" height="24" viewBox="0 0 24 24" fill="none"><rect width="24" height="24" fill="none"/>
<path fill-rule="evenodd" clip-rule="evenodd" d="M12.5891 4.34202C14.3784 2.55266 17.2796 2.55266 19.0689 4.34202L18.1853 5.22563L19.0689 4.34202L19.658 4.93109C21.4473 6.72045 21.4473 9.62157 19.658 11.4109L19.3634 11.7055C18.8754 12.1935 18.0842 12.1935 17.5962 11.7055C17.1082 11.2175 17.1082 10.4262 17.5962 9.93823L17.8908 9.6437C18.7041 8.83035 18.7041 7.51166 17.8908 6.69832L18.7744 5.81471L17.8908 6.69832L17.3017 6.10924C16.4883 5.2959 15.1696 5.2959 14.3563 6.10924L10.2328 10.2328C9.74477 10.7208 9.74477 11.512 10.2328 12L10.8218 12.5891C11.3099 13.0771 11.3099 13.8683 10.8218 14.3563C10.3338 14.8443 9.54263 14.8443 9.05462 14.3563L8.46555 13.7672C7.00153 12.3032 7.00153 9.92957 8.46555 8.46555L12.5891 4.34202ZM13.4727 9.93823C13.9607 9.45023 14.7519 9.45023 15.2399 9.93824L15.5345 10.2328C16.9985 11.6968 16.9985 14.0704 15.5345 15.5345L11.4109 19.658C9.62157 21.4473 6.72045 21.4473 4.93109 19.658L4.34202 19.0689L5.22563 18.1853L4.34202 19.0689C2.55266 17.2796 2.55266 14.3784 4.34202 12.5891L4.63655 12.2945C5.12456 11.8065 5.91578 11.8065 6.40378 12.2945C6.89179 12.7825 6.89179 13.5738 6.40378 14.0618L6.10924 14.3563L5.22563 13.4727L6.10924 14.3563C5.2959 15.1696 5.2959 16.4883 6.10924 17.3017L6.69832 17.8908L5.81471 18.7744L6.69832 17.8908C7.51166 18.7041 8.83035 18.7041 9.6437 17.8908L13.7672 13.7672C14.2552 13.2792 14.2552 12.488 13.7672 12L13.4727 11.7055C12.9847 11.2175 12.9847 10.4262 13.4727 9.93823Z" fill="#0B1F35"/>
</svg>
