<svg xmlns="http://www.w3.org/2000/svg" width="24" height="24" viewBox="0 0 24 24" fill="none"><rect width="24" height="24" fill="none"/>
<path fill-rule="evenodd" clip-rule="evenodd" d="M3 4H21C21.5523 4 22 4.44772 22 5V16C22 16.5523 21.5523 17 21 17H3C2.44772 17 2 16.5523 2 16V5C2 4.44772 2.44772 4 3 4ZM16 6H20V11L16 6ZM12 8C10.62 8 9.5 9.125 9.5 10.5C9.5 11.875 10.62 13 12 13C13.3813 13 14.5 11.875 14.5 10.5C14.5 9.125 13.3813 8 12 8ZM4 10V15H8L4 10Z" fill="#0B1F35"/>
<path d="M21 18V19C21 19.5523 20.5523 20 20 20H4C3.44772 20 3 19.5523 3 19V18H21Z" fill="#0B1F35"/>
</svg>
