<svg xmlns="http://www.w3.org/2000/svg" width="24" height="24" viewBox="0 0 24 24" fill="none"><rect width="24" height="24" fill="none"/>
<path fill-rule="evenodd" clip-rule="evenodd" d="M12 18.2383C12.0426 18.214 12.0866 18.1885 12.1317 18.1618C12.7931 17.7698 13.7114 17.1113 14.6418 16.0776C16.2094 14.3357 17.941 11.3859 18.3893 6.5H5.61067C6.05895 11.3859 7.79055 14.3357 9.35822 16.0776C10.2885 17.1113 11.2068 17.7698 11.8682 18.1618C11.9134 18.1885 11.9574 18.214 12 18.2383ZM3.10122 6.5C4.0907 18.3636 12 21 12 21C12 21 19.9093 18.3636 20.8988 6.5C20.9392 6.01549 20.968 5.5156 20.9843 4.99987C21.0018 4.44786 20.5523 4 20 4H3.99999C3.4477 4 2.99816 4.44786 3.01563 4.99987C3.03195 5.5156 3.06081 6.01549 3.10122 6.5Z" fill="#0B1F35"/>
<path d="M12 20C12 20 20 17 20 5H12V20Z" fill="#0B1F35"/>
</svg>
