<svg xmlns="http://www.w3.org/2000/svg" width="24" height="24" viewBox="0 0 24 24" fill="none"><rect width="24" height="24" fill="none"/>
<path d="M7 5.2C7 5.08954 7.08954 5 7.2 5H16.8C16.9105 5 17 5.08954 17 5.2V9.92149C17 10.0755 17.1667 10.1717 17.3 10.0947L18.8 9.22867C18.9238 9.15722 19 9.02517 19 8.88226V4C19 3.44771 18.5523 3 18 3H6C5.44772 3 5 3.44772 5 4V8.88227C5 9.02517 5.07624 9.15722 5.2 9.22867L6.7 10.0947C6.83333 10.1717 7 10.0755 7 9.92149V5.2Z" fill="#0B1F35"/>
<path d="M9.30001 6.1C9.18955 6.1 9.10001 6.18954 9.10001 6.3V7.7C9.10001 7.81046 9.18955 7.9 9.30001 7.9H14.7C14.8105 7.9 14.9 7.81046 14.9 7.7V6.3C14.9 6.18954 14.8105 6.1 14.7 6.1H9.30001Z" fill="#0B1F35"/>
<path d="M9.30001 9.1C9.18955 9.1 9.10001 9.18954 9.10001 9.3V10.7C9.10001 10.8105 9.18955 10.9 9.30001 10.9H14.7C14.8105 10.9 14.9 10.8105 14.9 10.7V9.3C14.9 9.18954 14.8105 9.1 14.7 9.1H9.30001Z" fill="#0B1F35"/>
<path d="M21 10.3049C21 10.151 20.8333 10.0547 20.7 10.1317L12.2 15.0392C12.0762 15.1106 11.9238 15.1106 11.8 15.0392L3.3 10.1317C3.16667 10.0547 3 10.151 3 10.3049V20C3 20.5522 3.44772 21 4 21H20C20.5523 21 21 20.5522 21 20V10.3049Z" fill="#0B1F35"/>
</svg>
