<svg xmlns="http://www.w3.org/2000/svg" width="24" height="24" viewBox="0 0 24 24" fill="none"><rect width="24" height="24" fill="none"/>
<path fill-rule="evenodd" clip-rule="evenodd" d="M5 2C4.44772 2 4 2.44772 4 3V21C4 21.5523 4.44772 22 5 22H19C19.5523 22 20 21.5523 20 21V8H14V2H5ZM16 6V2L20 6H16ZM17 16C17 17.6569 15.6569 19 14 19C12.3431 19 11 17.6569 11 16C11 14.3431 12.3431 13 14 13C15.6569 13 17 14.3431 17 16ZM15.3002 16C15.3002 16.718 14.7182 17.3 14.0002 17.3C13.2822 17.3 12.7002 16.718 12.7002 16C12.7002 15.282 13.2822 14.7 14.0002 14.7C14.7182 14.7 15.3002 15.282 15.3002 16Z" fill="#0B1F35"/>
</svg>
