<svg xmlns="http://www.w3.org/2000/svg" width="24" height="24" viewBox="0 0 24 24" fill="none"><rect width="24" height="24" fill="none"/>
<path fill-rule="evenodd" clip-rule="evenodd" d="M5.72919 11.6354C5.90577 11.5471 6.05227 11.4085 6.15022 11.2371L9.86824 4.73058C9.95459 4.57948 10 4.40846 10 4.23444V2.76619C10 1.9889 10.848 1.50879 11.5145 1.9087L18.4379 6.06276C19.1146 6.46874 19.0764 7.46179 18.3706 7.81468L17.2605 8.36977C17.0904 8.45483 16.948 8.58662 16.8502 8.7497L15.5 11L22 14.5L21 16.5L14.5 13L13.1425 15.2625C13.0493 15.4179 13 15.5957 13 15.777V17.2338C13 18.0111 12.152 18.4912 11.4855 18.0913L4.56207 13.9372C3.88543 13.5313 3.92357 12.5382 4.62935 12.1853L5.72919 11.6354ZM2 21V23H14V21H2Z" fill="#0B1F35"/>
</svg>
