<svg xmlns="http://www.w3.org/2000/svg" width="24" height="24" viewBox="0 0 24 24" fill="none"><rect width="24" height="24" fill="none"/>
<path d="M20.0902 19.3988C18.2444 21.2446 15.3324 21.5543 13.2238 20.0154C9.26519 17.1262 6.87373 14.7348 3.98454 10.7761C2.44564 8.66759 2.75537 5.75556 4.6012 3.90974L4.97626 3.53468C5.68912 2.82181 6.8449 2.82182 7.55776 3.53468L10.1393 6.11618C10.8521 6.82904 10.8521 7.98482 10.1393 8.69768L9.29864 9.5383C10.1393 11.9246 12.0754 13.8607 14.4616 14.7013L15.3023 13.8607C16.0151 13.1478 17.1709 13.1478 17.8838 13.8607L20.4653 16.4422C21.1781 17.155 21.1781 18.3108 20.4653 19.0237L20.0902 19.3988Z" fill="#0B1F35"/>
</svg>
