<svg xmlns="http://www.w3.org/2000/svg" width="24" height="24" viewBox="0 0 24 24" fill="none"><rect width="24" height="24" fill="none"/>
<path fill-rule="evenodd" clip-rule="evenodd" d="M6 4C6 3.44772 6.44771 3 7 3H17C17.5523 3 18 3.44772 18 4V7H21C21.5523 7 22 7.44772 22 8V12.62L14.188 13.9623C14.0898 13.9791 14 13.9035 14 13.8038C14 13.3599 13.6401 13 13.1962 13H10.8038C10.3599 13 10 13.3599 10 13.8038C10 13.9035 9.91024 13.9791 9.81201 13.9623L2 12.62V8C2 7.44772 2.44772 7 3 7H6V4ZM8 6.8C8 6.91046 8.08954 7 8.2 7H15.8C15.9105 7 16 6.91046 16 6.8V5.2C16 5.08954 15.9105 5 15.8 5H8.2C8.08954 5 8 5.08954 8 5.2V6.8Z" fill="#0B1F35"/>
<path d="M2 14.69V20C2 20.5523 2.44772 21 3 21H21C21.5523 21 22 20.5523 22 20V14.69L14.1329 16.0423C14.0561 16.0555 14 16.122 14 16.2C14 16.6418 13.6418 17 13.2 17H10.8C10.3582 17 10 16.6418 10 16.2C10 16.1221 9.94388 16.0555 9.8671 16.0423L2 14.69Z" fill="#0B1F35"/>
</svg>
