<svg xmlns="http://www.w3.org/2000/svg" width="24" height="24" viewBox="0 0 24 24" fill="none"><rect width="24" height="24" fill="none"/>
<path d="M9.29998 6.10001C9.18952 6.10001 9.09998 6.18955 9.09998 6.30001V7.70001C9.09998 7.81046 9.18952 7.90001 9.29998 7.90001H14.7C14.8104 7.90001 14.9 7.81046 14.9 7.70001V6.30001C14.9 6.18955 14.8104 6.10001 14.7 6.10001H9.29998Z" fill="#0B1F35"/>
<path fill-rule="evenodd" clip-rule="evenodd" d="M5 8.8C5 8.91046 4.91046 9 4.8 9H3C2.44772 9 2 9.44772 2 10V16C2 16.5523 2.44772 17 3 17H4.8C4.91046 17 5 17.0895 5 17.2V20C5 20.5523 5.44772 21 6 21H18C18.5523 21 19 20.5523 19 20V17.2C19 17.0895 19.0895 17 19.2 17H21C21.5523 17 22 16.5523 22 16V10C22 9.44772 21.5523 9 21 9H19.2C19.0895 9 19 8.91046 19 8.8V4C19 3.44772 18.5523 3 18 3H6C5.44772 3 5 3.44772 5 4V8.8ZM7.2 5C7.08954 5 7 5.08954 7 5.2V8.8C7 8.91046 7.08954 9 7.2 9H16.8C16.9105 9 17 8.91046 17 8.8V5.2C17 5.08954 16.9105 5 16.8 5H7.2ZM16.8 16C16.9105 16 17 16.0895 17 16.2V18.8C17 18.9105 16.9105 19 16.8 19H7.2C7.08954 19 7 18.9105 7 18.8V16.2C7 16.0895 7.08954 16 7.2 16H16.8ZM5.9999 13.1C6.60742 13.1 7.0999 12.6075 7.0999 12C7.0999 11.3925 6.60742 10.9 5.9999 10.9C5.39239 10.9 4.8999 11.3925 4.8999 12C4.8999 12.6075 5.39239 13.1 5.9999 13.1Z" fill="#0B1F35"/>
</svg>
