<svg xmlns="http://www.w3.org/2000/svg" width="24" height="24" viewBox="0 0 24 24" fill="none"><rect width="24" height="24" fill="none"/>
<path fill-rule="evenodd" clip-rule="evenodd" d="M7.99989 5C7.99989 3.89543 8.89532 3 9.99988 3C11.1045 3 11.9999 3.89543 11.9999 5C11.9999 3.89543 12.8953 3 13.9999 3C15.1045 3 15.9999 3.89543 15.9999 5C15.9999 6.10457 15.1045 7 13.9999 7H19.9999C20.5522 7 20.9999 7.44772 20.9999 8V10C20.9999 10.5523 20.5522 11 19.9999 11C19.4476 11 18.9999 10.5523 18.9999 10V9.4C18.9999 9.17909 18.8208 9 18.5999 9H5.39989C5.17897 9 4.99989 9.17909 4.99989 9.4V10C4.99989 10.5523 4.55217 11 3.99989 11C3.4476 11 2.99989 10.5523 2.99989 10V8C2.99989 7.44772 3.4476 7 3.99989 7H9.99988C8.89532 7 7.99989 6.10457 7.99989 5ZM7.66655 11C7.29836 11 6.99989 11.2985 6.99989 11.6667C6.99989 12.403 6.40293 13 5.66655 13H3.69289C3.27604 13 2.90292 13.2586 2.75656 13.6489L1.5199 16.9466C0.784429 18.9079 2.23427 21 4.32889 21H19.6709C21.7655 21 23.2153 18.9079 22.4799 16.9466L21.2432 13.6489C21.0968 13.2586 20.7237 13 20.3069 13H18.3332C17.5968 13 16.9999 12.403 16.9999 11.6667C16.9999 11.2985 16.7014 11 16.3332 11H7.66655Z" fill="#0B1F35"/>
</svg>
