<svg xmlns="http://www.w3.org/2000/svg" width="24" height="24" viewBox="0 0 24 24" fill="none"><rect width="24" height="24" fill="none"/>
<path d="M9 5H15V7H9V5Z" fill="#0B1F35"/>
<path fill-rule="evenodd" clip-rule="evenodd" d="M19 8H21C21.5523 8 22 8.44772 22 9V17C22 17.5523 21.5523 18 21 18H19V22H5V18H3C2.44772 18 2 17.5523 2 17V9C2 8.44772 2.44772 8 3 8H5V2H19V8ZM17 20V17H7V20H17ZM17 8V4H7V8H17ZM6 13C6.55228 13 7 12.5523 7 12C7 11.4477 6.55228 11 6 11C5.44772 11 5 11.4477 5 12C5 12.5523 5.44772 13 6 13Z" fill="#0B1F35"/>
</svg>
