<svg xmlns="http://www.w3.org/2000/svg" width="24" height="24" viewBox="0 0 24 24" fill="none"><rect width="24" height="24" fill="none"/>
<path fill-rule="evenodd" clip-rule="evenodd" d="M3 7C3 5.34315 4.34315 4 6 4C7.65685 4 9 5.34315 9 7V8C9 9.65685 7.65685 11 6 11C4.34315 11 3 9.65685 3 8V7ZM5 7C5 6.44772 5.44772 6 6 6C6.55228 6 7 6.44772 7 7V8C7 8.55228 6.55228 9 6 9C5.44772 9 5 8.55228 5 8V7ZM19 4L8 20H5L16.0855 4H19ZM18 13C16.3431 13 15 14.3431 15 16V17C15 18.6569 16.3431 20 18 20C19.6569 20 21 18.6569 21 17V16C21 14.3431 19.6569 13 18 13ZM18 15C17.4477 15 17 15.4477 17 16V17C17 17.5523 17.4477 18 18 18C18.5523 18 19 17.5523 19 17V16C19 15.4477 18.5523 15 18 15Z" fill="#0B1F35"/>
</svg>
