<?xml version="1.0" encoding="UTF-8"?>
<svg width="48px" height="48px" viewBox="0 0 48 48" version="1.1" xmlns="http://www.w3.org/2000/svg" xmlns:xlink="http://www.w3.org/1999/xlink">
    <!-- Generator: Sketch 48.2 (47327) - http://www.bohemiancoding.com/sketch -->
    <title>icon_preloader-logo_xxl_color</title>
    <desc>Created with Sketch.</desc>
    <defs></defs>
    <g id="Artboard-2" stroke="none" stroke-width="1" fill="none" fill-rule="evenodd" transform="translate(-189.000000, -127.000000)">
        <g id="Page-1" transform="translate(193.000000, 131.000000)">
            <path d="M20,-0.0001 C31.046,-0.0001 40,8.9549 40,19.9999 C40,31.0449 31.046,39.9999 20,39.9999 C8.954,39.9999 0,31.0449 0,19.9999 C0,8.9549 8.954,-0.0001 20,-0.0001" id="Fill-1" fill="#F03226"></path>
            <path d="M21.9198,12.78 L25.4298,22.13 C25.4488,22.176 25.4478,22.229 25.4278,22.274 C25.4058,22.32 25.3668,22.354 25.3208,22.37 L23.4098,23.09 C23.3168,23.118 23.2168,23.071 23.1798,22.98 C23.1798,22.89 22.5098,20.9 22.4298,20.68 L17.5498,20.68 L16.6898,23 C16.6748,23.045 16.6408,23.082 16.5978,23.103 C16.5548,23.123 16.5048,23.126 16.4598,23.11 L14.5498,22.39 C14.5028,22.374 14.4638,22.339 14.4428,22.294 C14.4218,22.248 14.4208,22.197 14.4398,22.15 L17.9998,12.76 C18.3198,11.9 18.7298,11 19.9998,11 C21.2698,11 21.5898,11.88 21.9198,12.76 L21.9198,12.78 Z M18.2798,18.66 L21.5898,18.66 L19.9398,13.87 L18.2798,18.66 Z M13.9998,27 C14.0028,26.952 14.0238,26.908 14.0598,26.875 C14.0948,26.844 14.1418,26.827 14.1898,26.83 L25.8208,26.83 C25.9158,26.829 25.9948,26.905 25.9998,27 L25.9998,28.86 C25.9948,28.955 25.9158,29.03 25.8208,29.03 L14.1898,29.03 C14.1418,29.033 14.0948,29.016 14.0598,28.985 C14.0238,28.952 14.0028,28.908 13.9998,28.86 L13.9998,27 Z" id="Fill-3" fill="#FFFFFF"></path>
        </g>
    </g>
</svg>