<?xml version="1.0" encoding="UTF-8"?>
<svg width="24px" height="24px" viewBox="0 0 24 24" version="1.1" xmlns="http://www.w3.org/2000/svg" xmlns:xlink="http://www.w3.org/1999/xlink">
    <!-- Generator: Sketch 48.2 (47327) - http://www.bohemiancoding.com/sketch -->
    <title>icon_cashback-bonus_m_color</title>
    <desc>Created with Sketch.</desc>
    <defs>
        <radialGradient cx="50%" cy="50%" fx="50%" fy="50%" r="57.734375%" id="radialGradient-1">
            <stop stop-color="#FFF2B5" offset="0%"></stop>
            <stop stop-color="#F6BA00" offset="100%"></stop>
        </radialGradient>
    </defs>
    <g id="ver_4" stroke="none" stroke-width="1" fill="none" fill-rule="evenodd">
        <g id="icon_cashback-bonus_m_color" fill-rule="nonzero">
            <rect id="Rectangle-path-Copy" fill="url(#radialGradient-1)" x="2" y="2" width="20" height="20" rx="10"></rect>
            <path d="M12.8951201,8.57100969 C12.9587985,8.74839951 14.4315888,12.9220635 14.475254,13.0471461 C14.4879897,13.0817143 14.4798024,13.1394797 14.4274952,13.1599478 C14.3756428,13.1804159 13.6101375,13.4883464 13.5678369,13.5047208 C13.5255362,13.5215501 13.4777774,13.4969885 13.4623127,13.4533233 C13.4463931,13.4101129 13.1098072,12.3885295 13.0738744,12.2866441 L10.9620259,12.2775472 L10.5399291,13.4533233 C10.5249192,13.4951691 10.4794347,13.5233695 10.4344049,13.5047208 L9.57520144,13.1599478 C9.53152515,13.1413101 9.51012408,13.0917076 9.52653295,13.0471461 C9.58111443,12.8906792 11.0311625,8.78433232 11.1057572,8.57100969 C11.2490335,8.15710012 11.4341557,7.73000002 12.0008935,7.73000002 C12.568086,7.73000002 12.7463856,8.15027743 12.8951201,8.57100969 Z M9.35460128,15.1071422 C9.30775217,15.1071422 9.26999998,15.1476234 9.26999998,15.1972016 L9.26999998,16.1942234 C9.26999998,16.2442564 9.30775217,16.283828 9.35460128,16.283828 L14.6444566,16.283828 C14.6908508,16.283828 14.7281482,16.2442564 14.7281482,16.1942234 L14.7281482,15.1972016 C14.7281482,15.1471686 14.6908508,15.107597 14.6444566,15.107597 L9.35460128,15.107597 L9.35460128,15.1071422 Z M11.2531272,11.3451135 L12.7409274,11.3451135 L12.0763979,9.10272429 L11.9031016,9.10272429 L11.2531272,11.3451135 Z" id="Shape-Copy" fill="#0B1F35"></path>
        </g>
    </g>
</svg>