<svg xmlns="http://www.w3.org/2000/svg" width="44" height="44" viewBox="0 0 44 44">
  <g fill="none" fill-rule="evenodd">
    <rect width="44" height="44"/>
    <circle cx="22" cy="22" r="22" fill="#F5F5F5" fill-rule="nonzero"/>
    <path fill="#0B1F35" fill-rule="nonzero" d="M22,11.241 C22.2,11.241 22.401,11.356 22.476,11.586 L24.773,18.654 C24.8388876,18.8606139 25.0311359,19.0006516 25.248,19 L32.679,19 C32.8959122,18.9996591 33.0883034,19.1392163 33.1553223,19.3455158 C33.2223411,19.5518152 33.1486993,19.7777964 32.973,19.905 L26.961,24.273 C26.7856294,24.400222 26.712148,24.6259148 26.779,24.832 L29.075,31.9 C29.1245835,32.0527397 29.098101,32.2199826 29.0037546,32.3499314 C28.9094082,32.4798802 28.7585861,32.5568492 28.598,32.557 C28.4926631,32.5565689 28.3902693,32.5222038 28.306,32.459 L22.294,28.091 C22.1189175,27.9629403 21.8810825,27.9629403 21.706,28.091 L15.694,32.459 C15.6097307,32.5222038 15.5073369,32.5565689 15.402,32.557 C15.2414139,32.5568492 15.0905918,32.4798802 14.9962454,32.3499314 C14.901899,32.2199826 14.8754165,32.0527397 14.925,31.9 L17.221,24.832 C17.2881841,24.6259147 17.2146391,24.4000266 17.039,24.273 L11.027,19.905 C10.8513007,19.7777964 10.7776589,19.5518152 10.8446777,19.3455158 C10.9116966,19.1392163 11.1040878,18.9996591 11.321,19 L18.752,19 C18.9686554,19.0002737 19.1608369,18.8609824 19.228,18.655 L21.525,11.587 C21.5889335,11.3789842 21.7824008,11.2380585 22,11.241 Z M22,10.241 C21.348,10.241 20.775,10.658 20.573,11.278 L18.389,18 L11.321,18 C10.669,18 10.096,18.417 9.895,19.036 C9.694,19.656 9.913,20.33 10.44,20.713 L16.158,24.867 L13.973,31.59 C13.823,32.053 13.899,32.542 14.182,32.932 C14.466,33.323 14.922,33.556 15.401,33.556 C15.717,33.556 16.021,33.456 16.281,33.267 L22,29.112 L27.718,33.267 C27.978,33.456 28.282,33.556 28.598,33.556 C29.077,33.556 29.533,33.323 29.817,32.932 C30.1,32.542 30.177,32.053 30.026,31.59 L27.842,24.868 L33.56,20.714 C34.0865486,20.3326517 34.3067628,19.6550387 34.105,19.037 C33.9057852,18.4179874 33.3292781,17.9987462 32.679,18 L25.611,18 L23.427,11.277 C23.2267807,10.6584228 22.6501724,10.239806 22,10.241 Z"/>
  </g>
</svg>
