<svg width="36" height="36" viewBox="0 0 36 36" xmlns="http://www.w3.org/2000/svg">
  <g fill="none" fill-rule="evenodd" opacity=".3">
    <path d="M0 0h36v36H0z"/>
    <path d="M22.795 25.96l1-2.367-2.29-5.138h1.245l1.628 3.857 1.5-3.857h1.254L24.02 25.96h-1.225zm-5.766-6.09c-.31.337-.462.808-.462 1.34 0 .484.15.935.47 1.267.28.288.644.475 1.095.475.445 0 .826-.118 1.135-.455.31-.336.426-.834.426-1.343 0-.48-.12-.96-.436-1.296-.31-.325-.685-.46-1.116-.46-.463 0-.847.184-1.113.473m2.597 4.056v-.567c-.13.23-.492.442-.75.527-.262.094-.542.14-.827.14-.395 0-.696-.073-1.02-.212-.322-.142-.615-.35-.873-.627-.245-.256-.436-.563-.567-.912-.138-.35-.21-.71-.21-1.08 0-.8.28-1.478.803-2.035.57-.602 1.267-.828 1.922-.828.263 0 .522.044.773.13.25.084.568.275.732.544v-.55h1.18v5.47h-1.163zm8.744-8.943l-.06-3.654h1.128v4.61h-1.622l-1.123-3.785h-.03l.065 3.784H25.61v-4.61h1.688l1.048 3.653h.025zM7.883 11.76L7.26 15.98H6.03l.843-4.653H8.9l.843 4.652H8.517L7.91 11.76H7.88zm5.31 3.128l.562-3.56h1.856l.102 4.653h-1.14L14.54 11.8h-.022l-.762 4.183h-1.152L11.84 11.8h-.026l-.028 4.183h-1.14l.105-4.65h1.858l.56 3.558h.023zm9.547.396c.32 0 .414-.222.437-.334.01-.05.01-.118.01-.178V11.33h1.156v3.335c0 .087-.01.26-.013.308-.078.87-.754 1.148-1.59 1.148-.838 0-1.51-.278-1.587-1.147-.006-.047-.014-.22-.01-.308V11.33h1.15v3.442c-.003.06.003.128.01.178.022.112.12.334.436.334zm-18.626-.616c-.236-.6-1.854-.874-2.053-1.828-.043-.233-.04-.42-.008-.624.12-.76.783-1.035 1.59-1.035.647 0 1.54.16 1.54 1.174v.327H4.044v-.29c0-.25-.156-.42-.426-.42-.284 0-.383.162-.416.314-.013.052-.017.147.005.244.128.546 1.858.832 2.05 1.81.018.097.058.36.002.764-.107.775-.784 1.06-1.61 1.06-.855 0-1.652-.31-1.652-1.35v-.36h1.22l.002.453c0 .254.17.423.455.423.306 0 .41-.16.446-.315.02-.087.033-.232-.01-.345zm14.803-.005c-.232-.6-1.833-.87-2.03-1.813-.05-.235-.044-.418-.008-.62.116-.756.773-1.024 1.575-1.024.636 0 1.518.157 1.518 1.16v.323H18.85V12.4c0-.247-.154-.413-.42-.413-.283 0-.382.16-.412.308-.01.05-.016.15.005.24.126.542 1.837.827 2.027 1.79.02.1.06.36.005.758-.107.77-.78 1.052-1.59 1.052-.85 0-1.64-.305-1.64-1.335v-.358h1.21v.447c0 .253.17.418.453.418.3 0 .403-.155.438-.308.018-.087.037-.23-.01-.34zm13.32.574c.327 0 .443-.21.464-.337.01-.052.012-.12.01-.178v-.673h-.464v-.683h1.612v1.25c0 .087-.003.15-.016.307-.076.843-.795 1.15-1.604 1.15-.805 0-1.52-.307-1.595-1.15-.018-.156-.018-.22-.018-.307V12.66c0-.084.01-.23.02-.306.1-.875.788-1.15 1.593-1.15.81 0 1.52.272 1.6 1.15.017.143.008.306.008.306l.003.15H32.7v-.26s0-.11-.015-.177c-.02-.1-.108-.336-.456-.336-.327 0-.426.224-.452.336-.015.062-.017.146-.017.22v2.13c0 .058.003.125.01.177.02.127.136.337.467.337zm-20.31 4.16c-.432 0-.807.138-1.116.46-.314.337-.437.818-.437 1.297 0 .51.12 1.007.427 1.343.31.337.692.455 1.136.455.45 0 .816-.187 1.095-.475.32-.332.472-.783.472-1.268 0-.532-.153-1.003-.463-1.34-.267-.288-.65-.473-1.113-.473m-2.65 6.562v-7.505h1.184v.55c.164-.268.482-.46.73-.545.25-.084.51-.128.775-.128.654 0 1.352.226 1.92.83.524.556.8 1.233.8 2.035 0 .368-.068.73-.205 1.08-.133.348-.324.656-.568.91-.258.278-.55.486-.874.627-.322.14-.624.212-1.02.212-.287 0-.564-.045-.826-.14-.258-.084-.62-.296-.75-.527v2.6H9.278" fill="#0B1F35"/>
  </g>
</svg>
