<svg width="24" height="24" viewBox="0 0 24 24" xmlns="http://www.w3.org/2000/svg">
  <g fill="none" fill-rule="evenodd" opacity=".3">
    <path d="M0 0h24v24H0z"/>
    <path d="M13.515 19c-.19 0-.444-.072-.722-.35L5.35 11.207c-.406-.407-.373-.763-.317-.94.056-.176.233-.486.798-.585l2.273-.402 2.002-2C10.93 6.453 12.03 6 13.205 6c1.176 0 2.277.454 3.102 1.28l.414.413c.826.825 1.28 1.926 1.28 3.1 0 1.176-.454 2.276-1.28 3.1l-2 2.004-.403 2.272c-.1.564-.41.742-.586.797-.054.018-.127.033-.215.033zm-4.03-2.004c-.685.685-1.795.685-2.48 0-.686-.686-.686-1.796 0-2.48l2.48 2.48z" fill="#0B1F35"/>
  </g>
</svg>
