<svg xmlns="http://www.w3.org/2000/svg" width="48" height="48" viewBox="0 0 48 48">
  <g fill="none">
    <polygon points="0 0 48 0 48 48 0 48"/>
    <path fill="#EF3124" d="M24,4 C35.045695,4 44,12.954305 44,24 C44,35.045695 35.045695,44 24,44 C12.954305,44 4,35.045695 4,24 C4,12.954305 12.954305,4 24,4"/>
    <g fill="#FFF" transform="translate(18 15)">
      <polygon points="0 16 12 16 12 14 0 14"/>
      <path d="M4.53,7 L6,2.67 L6,2.67 L7.42,7 L4.53,7 Z M7.9,1.87 C7.61,0.99 7.26,0.29 6.09,0.29 C4.92,0.29 4.56,0.99 4.25,1.87 L1,11 L3.13,11 L3.88,8.84 L8,8.84 L8.7,11 L11,11 L7.9,1.87 Z"/>
    </g>
  </g>
</svg>
