<svg id="Слой_1" data-name="Слой 1" xmlns="http://www.w3.org/2000/svg" viewBox="0 0 48 48"><defs><style>.cls-1{fill:none;}.cls-2{fill:#ec342e;}.cls-3{fill:#fff;}</style></defs><title>icon_preloader-logo_xxl_color</title><g id="Page-1"><g id="icon_preloader-logo_xxl_color" data-name="icon preloader-logo xxl color"><polygon id="Shape" class="cls-1" points="0 0 48 0 48 48 0 48 0 0"/><circle id="Oval" class="cls-2" cx="24" cy="24" r="20"/><path id="Shape-2" data-name="Shape" class="cls-3" d="M18,31a.18.18,0,0,1,.19-.17H29.82A.18.18,0,0,1,30,31v1.86a.18.18,0,0,1-.18.17H18.19a.18.18,0,0,1-.19-.17Zm7.92-14.22,3.51,9.35a.18.18,0,0,1-.11.24l-1.91.72a.19.19,0,0,1-.23-.11c0-.09-.67-2.08-.75-2.3H21.55L20.69,27a.18.18,0,0,1-.23.11l-1.91-.72a.18.18,0,0,1-.11-.24L22,16.76c.32-.86.73-1.76,2-1.76S25.59,15.88,25.92,16.76Zm-3.64,5.88h3.31l-1.65-4.79h0Z"/></g></g></svg>