<svg width="48" height="48" viewBox="0 0 48 48" xmlns="http://www.w3.org/2000/svg"><g fill="none" fill-rule="evenodd"><path d="M0 0h48v48H0z"/><path d="M24 4c11.046 0 20 8.955 20 20s-8.954 20-20 20S4 35.045 4 24 12.954 4 24 4" fill="#F03226"/><path d="M25.92 16.78l3.51 9.35a.185.185 0 0 1-.002.144.187.187 0 0 1-.107.096l-1.911.72a.19.19 0 0 1-.23-.11c0-.09-.67-2.08-.75-2.3h-4.88L20.69 27a.18.18 0 0 1-.23.11l-1.91-.72a.18.18 0 0 1-.11-.24L22 16.76c.32-.86.73-1.76 2-1.76s1.59.88 1.92 1.76v.02zm-3.64 5.88h3.31l-1.65-4.79-1.66 4.79zM18 31a.18.18 0 0 1 .19-.17h11.63A.179.179 0 0 1 30 31v1.86a.18.18 0 0 1-.18.17H18.19a.18.18 0 0 1-.19-.17V31z" fill="#FFF"/></g></svg>