<?xml version="1.0" encoding="UTF-8"?>
<svg width="18px" height="14px" viewBox="0 0 18 14" version="1.1" xmlns="http://www.w3.org/2000/svg" xmlns:xlink="http://www.w3.org/1999/xlink">
    <!-- Generator: Sketch 49.3 (51167) - http://www.bohemiancoding.com/sketch -->
    <title>icon_list_m_white</title>
    <desc>Created with Sketch.</desc>
    <defs></defs>
    <g id="icon" stroke="none" stroke-width="1" fill="none" fill-rule="evenodd">
        <g id="icon_list_m_white" transform="translate(-3.000000, -5.000000)">
            <polygon id="Shape" points="0 0 24 0 24 24 0 24"></polygon>
            <g id="art" transform="translate(3.000000, 5.000000)" fill="#FFFFFF">
                <polygon id="Path" points="0 8 2 8 2 6 0 6"></polygon>
                <polygon id="Path" points="0 14 2 14 2 12 0 12"></polygon>
                <polygon id="Path" points="0 2 2 2 2 0 0 0"></polygon>
                <polygon id="Path" fill-opacity="0.300000012" points="4 8 18 8 18 6 4 6"></polygon>
                <polygon id="Path" fill-opacity="0.300000012" points="4 14 18 14 18 12 4 12"></polygon>
                <polygon id="Path" fill-opacity="0.300000012" points="4 0 4 2 18 2 18 0"></polygon>
            </g>
        </g>
    </g>
</svg>