<svg xmlns="http://www.w3.org/2000/svg" width="24" height="24" viewBox="0 0 24 24"><g fill="none" fill-rule="evenodd"><path d="M0 0h24v24H0z"/><g fill="#0B1F35"><path d="M15.25 13A2.252 2.252 0 0 0 13 15.25a2.252 2.252 0 0 0 2.25 2.25 2.252 2.252 0 0 0 2.25-2.25A2.252 2.252 0 0 0 15.25 13zm0 3.5a1.25 1.25 0 1 1 0-2.5 1.25 1.25 0 0 1 0 2.5zm-5.5-4A2.252 2.252 0 0 0 12 10.25 2.252 2.252 0 0 0 9.75 8a2.252 2.252 0 0 0-2.25 2.25 2.252 2.252 0 0 0 2.25 2.25zm0-3.5a1.25 1.25 0 1 1 0 2.5 1.25 1.25 0 0 1 0-2.5zM8.5 16.712l7.267-8.462.759.651-7.267 8.463zM8.895 1.87L8.185 0A13.596 13.596 0 0 0 3 3.526l1.477 1.349A11.571 11.571 0 0 1 8.895 1.87zm7.105 0a11.571 11.571 0 0 1 4.418 3.005l1.477-1.349A13.574 13.574 0 0 0 16.71 0L16 1.87z" opacity=".3"/><path d="M22 12.5c0-5.07-3.995-9.212-9-9.475V0h-1v3.025C6.995 3.288 3 7.43 3 12.5a9.474 9.474 0 0 0 3.306 7.187l-1.553 2.155.812.585 1.531-2.124A9.436 9.436 0 0 0 12.5 22a9.442 9.442 0 0 0 5.284-1.61l1.489 2.065.812-.585-1.501-2.082A9.486 9.486 0 0 0 22 12.5zM12.5 21C7.813 21 4 17.187 4 12.5 4 7.813 7.813 4 12.5 4c4.687 0 8.5 3.813 8.5 8.5 0 4.687-3.813 8.5-8.5 8.5z"/></g></g></svg>