<svg width="36" height="36" viewBox="0 0 36 36" xmlns="http://www.w3.org/2000/svg">
  <g fill="none" fill-rule="evenodd" opacity=".3">
    <path d="M0 0h36v36H0z"/>
    <path d="M3.925 15.36h-.04v5.23c0 .436.36.793.8.793h.69v1.824c0 .438.357.793.798.793.44 0 .8-.355.8-.793v-1.824h1.076v1.824c0 .438.357.793.8.793.44 0 .798-.355.798-.793v-1.824h.672c.44 0 .8-.357.8-.793v-5.23H3.924zm1.592-1.886c0 .186.152.337.34.337.187 0 .34-.15.34-.336 0-.186-.153-.337-.34-.337-.188 0-.34.15-.34.337zm3.29 0c0 .186.153.337.34.337.188 0 .34-.15.34-.336 0-.186-.152-.337-.34-.337-.187 0-.34.15-.34.337zM3.895 15.08l-.002-.108c0-.243.03-.48.09-.708.223-.877.856-1.618 1.71-2.058L5.14 11.19c-.034-.062-.01-.14.053-.174.064-.034.142-.01.177.052l.56 1.028c.478-.206 1.015-.32 1.582-.32.56 0 1.094.112 1.57.315l.558-1.022c.034-.063.113-.086.176-.052.063.034.086.112.052.174l-.552 1.01c.897.46 1.55 1.247 1.75 2.178.022.105.038.212.05.32v.383h-7.22zm9.106.933c0-.438-.358-.793-.8-.793-.44 0-.8.355-.8.793v3.334c0 .438.36.793.8.793.442 0 .8-.355.8-.793v-3.334zm-9.4 0v3.334c-.002.438-.36.793-.8.793-.442 0-.8-.355-.8-.793v-3.334c0-.438.358-.793.8-.793.44 0 .798.355.8.793zM34 15.114h-1.01l-1.97 4.756-1.964-4.75h-1.04l2.48 5.802-.197.45c-.222.5-.64.718-1.04.718h-.33V23h.317c.89 0 1.596-.482 1.973-1.398L34 15.114zm-6.523 6.03V15.12h-.896v.687C26.08 15.3 25.386 15 24.597 15c-1.71 0-3.055 1.398-3.055 3.127 0 1.734 1.346 3.138 3.056 3.138.79 0 1.482-.307 1.985-.807v.687h.897zm-2.816-.758c-1.224 0-2.217-1.013-2.217-2.26 0-1.24.993-2.253 2.218-2.253.767 0 1.49.362 1.86.982.02.037.06.097.06.2v2.138c-.005.108-.04.174-.065.205-.4.602-1.088.988-1.854.988zm-8.763 2.566v-2.494c.502.506 1.196.813 1.985.813 1.704 0 3.055-1.403 3.055-3.13 0-1.736-1.35-3.14-3.055-3.14-.79 0-1.483.307-1.985.807v-.687H15v7.832h.897zm1.92-2.56c-.766 0-1.478-.368-1.86-.982-.024-.037-.06-.097-.06-.2V17.05c.006-.102.042-.17.066-.2.4-.6 1.088-.968 1.853-.968 1.22 0 2.212 1.012 2.212 2.26 0 1.24-.992 2.252-2.212 2.252z" fill="#0B1F35"/>
  </g>
</svg>
