<?xml version="1.0" encoding="UTF-8"?>
<svg width="24px" height="24px" viewBox="0 0 24 24" version="1.1" xmlns="http://www.w3.org/2000/svg" xmlns:xlink="http://www.w3.org/1999/xlink">
    <!-- Generator: Sketch 48.2 (47327) - http://www.bohemiancoding.com/sketch -->
    <title>Artboard 2</title>
    <desc>Created with Sketch.</desc>
    <defs>
        <radialGradient cx="50%" cy="50%" fx="50%" fy="50%" r="57.734375%" id="radialGradient-1">
            <stop stop-color="#FFF2B5" offset="0%"></stop>
            <stop stop-color="#F6BA00" offset="100%"></stop>
        </radialGradient>
    </defs>
    <g id="v_4" stroke="none" stroke-width="1" fill="none" fill-rule="evenodd">
        <g id="Artboard-2">
            <g id="Group-16-Copy-3" transform="translate(4.000000, 4.000000)">
-                <g id="Group-15-Copy-2" fill="url(#radialGradient-1)">
-                    <circle id="Oval-3" cx="8" cy="8" r="8"></circle>
-                </g>
-                <path d="M5,11.8733318 C5,11.8219015 5.04145577,11.7804878 5.09276634,11.7804878 L10.9078772,11.7804878 C10.9588466,11.7804878 11,11.8219015 11,11.8733318 L11,12.9072405 C11,12.9587544 10.9588466,13 10.9078772,13 L5.09276634,13 C5.04145577,13 5,12.9587544 5,12.9072405 L5,11.8733318 Z M8.96221798,3.97590283 C9.03242327,4.18233088 10.6681238,9.02527623 10.7171973,9.17063177 C10.7308254,9.21070191 10.721795,9.27766878 10.6640339,9.30143393 C10.6061821,9.32538395 9.75591752,9.68269403 9.70905641,9.70185424 C9.66203043,9.72092201 9.60911997,9.69255098 9.59182515,9.64225602 C9.57444744,9.59196201 9.25854521,8.48403609 9.21867305,8.36585366 L6.77422861,8.36585366 C6.73435646,8.48403609 6.36298155,9.59380418 6.34649807,9.64225602 C6.33022572,9.69052394 6.27932008,9.72313298 6.22964805,9.70185424 C6.17972476,9.68039156 5.32587894,9.32262023 5.27544266,9.30143393 C5.22649648,9.28153704 5.2040474,9.22129459 5.22150974,9.17063177 C5.28157402,8.98898286 6.89244202,4.22373572 6.97499465,3.97590283 C7.13431663,3.49552806 7.33947113,3 7.9689928,3 C8.59876746,3 8.79676813,3.48769815 8.96221798,3.97590283 Z M7.14458238,7.24194702 L8.79676813,7.24194702 L7.97435992,4.58155327 L7.96413604,4.58155327 L7.14458238,7.24194702 Z" id="Path" fill="#512C06"></path>
            </g>
        </g>
    </g>
</svg>
