<svg xmlns="http://www.w3.org/2000/svg" width="48" height="48" viewBox="0 0 48 48" fill="none"><rect width="48" height="48" fill="none"/>
<path d="M39.5392 38.6535C40.0938 39.0283 40.8283 38.8784 41.263 38.2638C44.0361 34.3515 45.61 29.285 45.61 23.9338C45.61 18.5825 43.9911 13.531 41.263 9.60374C40.8283 8.97418 40.0938 8.82429 39.5392 9.21402C38.9696 9.61873 38.8797 10.3532 39.3144 10.9828C41.7277 14.5353 43.2267 19.0921 43.2267 23.9338C43.2267 28.7754 41.7877 33.4072 39.3144 36.8848C38.8797 37.5143 38.9696 38.2488 39.5392 38.6535ZM19.3033 37.6942C20.3226 37.6942 21.0571 36.9447 21.0571 35.9404V12.0321C21.0571 11.0278 20.3226 10.2033 19.2733 10.2033C18.5388 10.2033 18.0442 10.5181 17.2497 11.2676L10.6094 17.5182C10.5044 17.6082 10.3845 17.6531 10.2346 17.6531H5.75274C3.63921 17.6531 2.5 18.8073 2.5 21.0708V26.8717C2.5 29.1202 3.63921 30.2744 5.75274 30.2744H10.2346C10.3845 30.2744 10.5044 30.3193 10.6094 30.4093L17.2497 36.7199C17.9692 37.3944 18.5688 37.6942 19.3033 37.6942ZM33.4984 34.5614C34.083 34.9511 34.8025 34.8012 35.2222 34.2016C37.2009 31.4435 38.355 27.7711 38.355 23.9338C38.355 20.0815 37.2308 16.394 35.2222 13.6509C34.7875 13.0663 34.083 12.9164 33.4984 13.3062C32.9288 13.6959 32.8389 14.4304 33.2886 15.0749C34.9224 17.4733 35.9417 20.6211 35.9417 23.9338C35.9417 27.2465 34.9374 30.4243 33.2886 32.7926C32.8539 33.4372 32.9288 34.1716 33.4984 34.5614ZM27.5176 30.5142C28.0272 30.8739 28.7617 30.769 29.1964 30.1694C30.3656 28.5955 31.0701 26.2871 31.0701 23.9338C31.0701 21.5804 30.3656 19.287 29.1964 17.6981C28.7617 17.0985 28.0422 16.9936 27.5176 17.3384C26.873 17.788 26.7831 18.5525 27.2628 19.1971C28.1322 20.3663 28.6568 22.15 28.6568 23.9338C28.6568 25.7175 28.1022 27.5013 27.2478 28.6855C26.7981 29.33 26.873 30.0645 27.5176 30.5142Z" fill="#0B1F35"/>
</svg>
