<svg xmlns="http://www.w3.org/2000/svg" width="48" height="48" viewBox="0 0 48 48" fill="none"><rect width="48" height="48" fill="none"/>
<path d="M23.7382 6.2373C20.4843 6.2373 18.2762 8.61133 18.1932 12.0645V12.7285L29.2333 23.752C29.2665 23.6357 29.2831 23.4863 29.2831 23.3535V12.2471C29.2831 8.69434 27.0585 6.2373 23.7382 6.2373ZM35.9403 36.8672C36.4384 37.3652 37.2518 37.3652 37.7499 36.8672C38.2313 36.3525 38.2479 35.5557 37.7499 35.0576L12.0673 9.3916C11.5692 8.91016 10.7391 8.89355 10.2411 9.3916C9.75964 9.88965 9.75964 10.7197 10.2411 11.2012L35.9403 36.8672ZM11.868 23.6191C11.868 30.127 16.1512 34.6924 22.493 35.2236V39.0918H16.3173C15.62 39.0918 15.0721 39.6562 15.0721 40.3535C15.0721 41.0508 15.62 41.5986 16.3173 41.5986H31.1591C31.8563 41.5986 32.4042 41.0508 32.4042 40.3535C32.4042 39.6562 31.8563 39.0918 31.1591 39.0918H24.9999V35.2236C26.8593 35.0742 28.5526 34.5762 29.9803 33.7627L28.204 31.9697C26.9423 32.584 25.4315 32.9326 23.7382 32.9326C18.0604 32.9326 14.3749 29.1807 14.3749 23.5195V20.249C14.3749 19.5518 13.8104 19.0039 13.1132 19.0039C12.4159 19.0039 11.868 19.5518 11.868 20.249V23.6191ZM32.537 27.0391L34.4794 28.9814C35.2098 27.4209 35.6249 25.6113 35.6249 23.6191V20.249C35.6249 19.5518 35.0604 19.0039 34.3632 19.0039C33.6659 19.0039 33.118 19.5518 33.118 20.249V23.5195C33.118 24.7979 32.9188 25.9766 32.537 27.0391ZM23.7382 29.3633C24.3192 29.3633 24.8671 29.2803 25.3485 29.0977L18.1932 21.959V23.3535C18.1932 26.8896 20.4344 29.3633 23.7382 29.3633Z" fill="#0B1F35"/>
</svg>
