<svg xmlns="http://www.w3.org/2000/svg" width="48" height="48" viewBox="0 0 48 48" fill="none"><rect width="48" height="48" fill="none"/>
<path d="M38.9141 18.7646C39.7939 18.7646 40.2588 18.2666 40.2588 17.4033V13.3359C40.2588 9.91602 38.5156 8.20605 35.0459 8.20605H30.9785C30.1152 8.20605 29.6338 8.6709 29.6338 9.53418C29.6338 10.3975 30.1152 10.8789 30.9785 10.8789H34.9961C36.6396 10.8789 37.5859 11.7588 37.5859 13.4854V17.4033C37.5859 18.2666 38.0674 18.7646 38.9141 18.7646ZM9.08105 18.7646C9.96094 18.7646 10.4258 18.2666 10.4258 17.4033V13.4854C10.4258 11.7588 11.3389 10.8789 12.999 10.8789H17.0166C17.8965 10.8789 18.3779 10.3975 18.3779 9.53418C18.3779 8.6709 17.8965 8.20605 17.0166 8.20605H12.9658C9.49609 8.20605 7.75293 9.91602 7.75293 13.3359V17.4033C7.75293 18.2666 8.23438 18.7646 9.08105 18.7646ZM22.6777 27.248H22.8105C24.4873 27.248 25.4004 26.335 25.4004 24.6582V19.4287C25.4004 18.7812 24.9688 18.3662 24.3379 18.3662C23.6738 18.3662 23.2422 18.7812 23.2422 19.4287V24.8076C23.2422 24.9736 23.1426 25.0566 22.9932 25.0566H22.4121C21.8145 25.0566 21.3496 25.5215 21.3496 26.1191C21.3496 26.833 21.8311 27.248 22.6777 27.248ZM17.6807 23.3301C18.4609 23.3301 19.0254 22.7822 19.0254 21.9854V19.7275C19.0254 18.9307 18.4609 18.3828 17.6807 18.3828C16.9004 18.3828 16.3525 18.9307 16.3525 19.7275V21.9854C16.3525 22.7822 16.9004 23.3301 17.6807 23.3301ZM30.2812 23.3301C31.0449 23.3301 31.5928 22.7822 31.5928 21.9854V19.7275C31.5928 18.9307 31.0449 18.3828 30.2812 18.3828C29.4844 18.3828 28.9365 18.9307 28.9365 19.7275V21.9854C28.9365 22.7822 29.4844 23.3301 30.2812 23.3301ZM23.9062 32.8262C25.915 32.8262 27.9404 31.9629 29.3848 30.5186C29.584 30.3359 29.6836 30.0537 29.6836 29.7217C29.6836 29.0908 29.2188 28.6426 28.6045 28.6426C28.2891 28.6426 28.0566 28.7588 27.7412 29.0908C26.8281 30.0371 25.3838 30.6846 23.9062 30.6846C22.5117 30.6846 21.0508 30.0703 20.0879 29.0908C19.8223 28.8418 19.6064 28.6426 19.208 28.6426C18.5938 28.6426 18.1289 29.0908 18.1289 29.7217C18.1289 30.0039 18.2285 30.2695 18.4443 30.502C19.7891 32.0293 21.8975 32.8262 23.9062 32.8262ZM12.9658 40.6953H17.0166C17.8965 40.6953 18.3779 40.2139 18.3779 39.3672C18.3779 38.5039 17.8965 38.0225 17.0166 38.0225H12.999C11.3389 38.0225 10.4258 37.1426 10.4258 35.416V31.498C10.4258 30.6182 9.94434 30.1367 9.08105 30.1367C8.21777 30.1367 7.75293 30.6182 7.75293 31.498V35.5488C7.75293 38.9854 9.49609 40.6953 12.9658 40.6953ZM30.9785 40.6953H35.0459C38.5156 40.6953 40.2588 38.9688 40.2588 35.5488V31.498C40.2588 30.6182 39.7773 30.1367 38.9141 30.1367C38.0508 30.1367 37.5859 30.6182 37.5859 31.498V35.416C37.5859 37.1426 36.6396 38.0225 34.9961 38.0225H30.9785C30.1152 38.0225 29.6338 38.5039 29.6338 39.3672C29.6338 40.2139 30.1152 40.6953 30.9785 40.6953Z" fill="#0B1F35"/>
</svg>
