<svg xmlns="http://www.w3.org/2000/svg" width="48" height="48" viewBox="0 0 48 48" fill="none"><rect width="48" height="48" fill="none"/>
<path d="M17.0439 30.9191C21.8418 35.7169 27.6689 39.4191 32.4336 39.4191C34.5752 39.4191 36.4512 38.672 37.9619 37.0118C38.8418 36.0323 39.3896 34.8868 39.3896 33.7579C39.3896 32.9279 39.0742 32.131 38.2939 31.5665L33.1973 27.9474C32.417 27.4161 31.7695 27.1505 31.1719 27.1505C30.4248 27.1505 29.7441 27.5822 28.9805 28.3292L27.8018 29.4913C27.6191 29.674 27.3867 29.757 27.1709 29.757C26.9219 29.757 26.6729 29.6573 26.5068 29.5743C25.4775 29.0265 23.7178 27.5157 22.0742 25.8888C20.4473 24.2618 18.9365 22.5021 18.4053 21.4728C18.3223 21.2902 18.2227 21.0577 18.2227 20.8087C18.2227 20.5929 18.2891 20.3771 18.4717 20.1945L19.6504 18.9825C20.3809 18.2189 20.8291 17.5548 20.8291 16.7911C20.8291 16.1935 20.5469 15.546 19.999 14.7657L16.4297 9.73547C15.8486 8.9386 15.0352 8.58997 14.1387 8.58997C13.043 8.58997 11.9141 9.08801 10.9346 10.0343C9.32422 11.5782 8.61035 13.4874 8.61035 15.5958C8.61035 20.3605 12.2461 26.1378 17.0439 30.9191Z" fill="#0B1F35"/>
</svg>
