<svg xmlns="http://www.w3.org/2000/svg" width="48" height="48" viewBox="0 0 48 48" fill="none"><rect width="48" height="48" fill="none"/>
<path d="M6.29618 19.9619C6.84403 20.1611 7.49149 19.9121 7.74051 19.2314C10.3968 11.8936 16.722 8.05859 23.346 8.05859C26.3011 8.05859 28.5921 8.63965 30.5677 9.73535C31.2151 10.084 31.8958 10.084 32.1614 9.46973C32.4436 8.87207 32.1614 8.44043 31.6634 8.1416C29.1067 6.54785 26.5501 6 23.346 6C15.6097 6 8.80301 10.1504 5.74833 18.252C5.41629 19.1152 5.74833 19.7627 6.29618 19.9619ZM41.2093 26.1543C41.8069 26.1543 42.222 25.6562 42.1556 25.0254C41.4417 18.1689 39.1839 13.9189 35.3157 10.4658C34.8011 10.0176 34.1536 10.1172 33.8382 10.5156C33.4729 10.9141 33.4729 11.5117 33.9876 11.9932C37.3245 15.1641 39.6321 19.1152 40.18 25.0752C40.2464 25.6895 40.6282 26.1543 41.2093 26.1543ZM8.90262 34.8701C9.25125 35.3516 9.94852 35.4678 10.4466 35.0361C11.6751 34.0068 12.2893 32.3301 12.2893 30.5869C12.2893 28.2461 11.2766 27.0674 11.2766 24.2285C11.2766 17.6875 16.7054 12.2422 23.2796 12.2422C31.1321 12.2422 36.2288 18.6836 36.2454 28.2461C36.2454 32.0146 35.6311 34.6543 35.0169 36.1318C34.7845 36.6963 34.9837 37.2939 35.4817 37.543C35.9964 37.7754 36.6936 37.5596 36.9095 36.9785C37.5569 35.2354 38.304 32.3135 38.304 28.2295C38.304 17.4717 32.3606 10.2002 23.2796 10.2002C15.5931 10.2002 9.23465 16.5586 9.23465 24.2285C9.23465 26.9844 10.2639 28.8438 10.2972 30.5703C10.2972 31.6992 9.86551 32.7617 9.10184 33.4258C8.6868 33.8242 8.60379 34.4385 8.90262 34.8701ZM16.5559 28.7109C16.1409 27.582 15.4934 26.1709 15.4934 24.3115C15.4934 19.9121 18.9466 16.459 23.346 16.459C25.0227 16.459 25.554 16.6416 26.9983 17.3223C27.5628 17.5713 28.0608 17.4219 28.2766 16.9902C28.5589 16.4922 28.4095 15.8613 27.7952 15.5127C26.6663 14.832 25.0393 14.3838 23.346 14.3838C17.8343 14.3838 13.4348 18.7832 13.4348 24.3115C13.4348 26.3701 13.9827 28.1133 14.5472 29.4912C14.7962 30.1055 15.3606 30.3711 16.0081 30.1221C16.5559 29.9062 16.7552 29.3086 16.5559 28.7109ZM29.721 19.6465C31.2815 21.9873 32.0784 25.1748 32.0784 29.126C32.0784 33.3428 30.9163 37.3271 29.1067 39.585C28.7747 40.0332 28.7415 40.6475 29.1399 41.0459C29.5882 41.4609 30.3186 41.4277 30.6839 40.9297C32.7591 38.1406 34.1038 33.6914 34.1038 29.0596C34.1038 23.8965 32.9915 20.9746 31.514 18.5508C31.1487 17.9531 30.5013 17.7871 30.0032 18.0527C29.4554 18.335 29.3059 19.0322 29.721 19.6465ZM16.5061 40.2324C19.2786 38.0078 20.8059 34.4385 20.7893 30.5039C20.7561 27.5322 19.7102 25.7061 19.7102 24.1123C19.7102 22.0371 21.1712 20.6758 23.3128 20.6758C26.5169 20.6758 27.6624 24.2783 27.7786 28.9434C27.928 34.0898 26.1018 38.5557 23.5784 40.7305C23.1468 41.0957 23.0472 41.6768 23.346 42.125C23.6946 42.623 24.4085 42.7227 24.8733 42.2744C27.5628 39.8506 29.721 34.5215 29.7044 28.8105C29.6878 22.9336 27.9446 18.6172 23.3128 18.6172C20.1087 18.6172 17.6848 20.7588 17.6848 23.9297C17.6848 25.8555 18.6975 28.1963 18.7141 30.5039C18.7307 33.8242 17.5022 36.7627 15.2278 38.6221C14.7464 39.0205 14.6634 39.6016 14.9788 40.0664C15.344 40.5811 16.0247 40.6475 16.5061 40.2324ZM7.04325 30.0391C7.5745 29.873 7.84012 29.3252 7.69071 28.6943C7.27567 27.001 7.02665 25.3076 7.09305 22.9834C7.10965 22.3525 6.74442 21.9541 6.21317 21.9043C5.5325 21.8379 5.10086 22.2695 5.05106 22.8672C4.90165 24.7764 5.06766 26.9678 5.71512 29.292C5.89774 29.9062 6.47879 30.2217 7.04325 30.0391ZM25.0393 32.2803C25.4876 29.9727 25.3216 27.1006 24.4749 24.5771C24.2591 23.8965 23.7278 23.6143 23.1634 23.7969C22.6155 23.9629 22.3167 24.4775 22.4993 25.0918C23.263 27.5322 23.3958 29.873 23.014 31.9814C22.9143 32.5459 23.1468 33.0771 23.7776 33.1768C24.3753 33.2764 24.9065 32.9277 25.0393 32.2803ZM12.97 38.0078C14.2483 37.3604 15.9085 35.2021 16.3899 33.4922C16.5559 32.9609 16.3069 32.3467 15.7425 32.1641C15.2278 31.9814 14.68 32.2969 14.4807 32.8779C14.0159 34.2891 13.2522 35.3682 12.0403 36.1982C11.4261 36.6299 11.3098 37.1777 11.5091 37.626C11.7249 38.1074 12.3225 38.3398 12.97 38.0078ZM20.4573 41.5771C21.7688 40.5977 23.3294 38.5059 24.01 36.3975C24.1595 35.9326 24.0266 35.2686 23.4622 35.0693C22.8479 34.8535 22.3167 35.1689 22.1341 35.667C21.3206 37.7422 20.3245 39.0371 19.1956 39.917C18.7473 40.2822 18.6145 40.8965 18.93 41.3613C19.2288 41.876 19.9427 41.9424 20.4573 41.5771Z" fill="#0B1F35"/>
</svg>
