<svg xmlns="http://www.w3.org/2000/svg" width="24" height="24" viewBox="0 0 24 24" fill="none"><rect width="24" height="24" fill="none"/>
<path d="M20.2661 9.01587C20.8691 9.01587 21.1938 8.68188 21.1938 8.07886V5.82446C21.1938 3.83911 20.1548 2.80005 18.1416 2.80005H15.8872C15.2842 2.80005 14.9502 3.12476 14.9502 3.72778C14.9502 4.32153 15.2842 4.64624 15.8872 4.64624H18.021C18.8652 4.64624 19.3477 5.09155 19.3477 5.99146V8.07886C19.3477 8.68188 19.6724 9.01587 20.2661 9.01587ZM3.72461 9.01587C4.32764 9.01587 4.64307 8.68188 4.64307 8.07886V5.99146C4.64307 5.09155 5.11621 4.64624 5.96973 4.64624H8.10352C8.70654 4.64624 9.04053 4.32153 9.04053 3.72778C9.04053 3.12476 8.70654 2.80005 8.10352 2.80005H5.84912C3.84521 2.80005 2.79688 3.82983 2.79688 5.82446V8.07886C2.79688 8.68188 3.13086 9.01587 3.72461 9.01587ZM11.2578 13.5525H11.3413C12.2969 13.5525 12.8164 13.0237 12.8164 12.0774V9.16431C12.8164 8.78394 12.5659 8.53345 12.1763 8.53345C11.7866 8.53345 11.5361 8.78394 11.5361 9.16431V12.1238C11.5361 12.2073 11.4805 12.2537 11.397 12.2537H11.1187C10.7568 12.2537 10.4785 12.532 10.4785 12.8845C10.4785 13.302 10.7754 13.5525 11.2578 13.5525ZM8.521 11.3816C8.97559 11.3816 9.30029 11.0569 9.30029 10.593V9.3313C9.30029 8.86743 8.97559 8.54272 8.521 8.54272C8.06641 8.54272 7.7417 8.87671 7.7417 9.3313V10.593C7.7417 11.0569 8.06641 11.3816 8.521 11.3816ZM15.4512 11.3816C15.8965 11.3816 16.2305 11.0569 16.2305 10.593V9.3313C16.2305 8.87671 15.8965 8.54272 15.4512 8.54272C14.9873 8.54272 14.6626 8.86743 14.6626 9.3313V10.593C14.6626 11.0569 14.9873 11.3816 15.4512 11.3816ZM11.9443 16.6047C13.0669 16.6047 14.208 16.1223 15.0151 15.3152C15.1357 15.1946 15.2007 15.0369 15.2007 14.8328C15.2007 14.4709 14.9131 14.2019 14.5513 14.2019C14.3657 14.2019 14.2266 14.2668 14.041 14.4617C13.5493 14.9719 12.7515 15.3337 11.9443 15.3337C11.1743 15.3337 10.3857 14.9905 9.85693 14.4617C9.69922 14.304 9.56006 14.2019 9.3374 14.2019C8.96631 14.2019 8.68799 14.4709 8.68799 14.8328C8.68799 14.9998 8.75293 15.1575 8.87354 15.3059C9.61572 16.1501 10.7939 16.6047 11.9443 16.6047ZM5.84912 21.197H8.10352C8.70654 21.197 9.04053 20.863 9.04053 20.2693C9.04053 19.6755 8.70654 19.3416 8.10352 19.3416H5.96973C5.11621 19.3416 4.64307 18.9055 4.64307 18.0056V15.9182C4.64307 15.3152 4.31836 14.9812 3.72461 14.9812C3.12158 14.9812 2.79688 15.3152 2.79688 15.9182V18.1726C2.79688 20.158 3.84521 21.197 5.84912 21.197ZM15.8872 21.197H18.1416C20.1548 21.197 21.1938 20.158 21.1938 18.1726V15.9182C21.1938 15.3152 20.8599 14.9812 20.2661 14.9812C19.6631 14.9812 19.3477 15.3152 19.3477 15.9182V18.0056C19.3477 18.9055 18.8652 19.3416 18.021 19.3416H15.8872C15.2842 19.3416 14.9502 19.6755 14.9502 20.2693C14.9502 20.863 15.2842 21.197 15.8872 21.197Z" fill="#0B1F35"/>
</svg>
