<svg xmlns="http://www.w3.org/2000/svg" width="48" height="48" viewBox="0 0 48 48" fill="none"><rect width="48" height="48" fill="none"/>
<path d="M24 17.5556C26.6064 17.5556 28.7812 15.3974 28.7812 12.7744C28.7812 10.1513 26.6064 7.99314 24 8.00974C21.377 8.02634 19.2021 10.1513 19.2021 12.7744C19.2021 15.3974 21.377 17.5556 24 17.5556ZM36.0361 17.5556C38.6592 17.5556 40.8008 15.3974 40.8008 12.7744C40.8008 10.1513 38.6592 7.99314 36.0361 8.00974C33.4131 8.02634 31.2715 10.1513 31.2715 12.7744C31.2715 15.3974 33.4131 17.5556 36.0361 17.5556ZM11.9473 17.539C14.5703 17.539 16.7119 15.3974 16.7119 12.791C16.7119 10.1845 14.5703 8.00974 11.9473 8.00974C9.32422 8.00974 7.18262 10.1845 7.18262 12.791C7.18262 15.3974 9.32422 17.539 11.9473 17.539ZM24 28.8115C26.6064 28.8115 28.7812 26.6533 28.7812 24.0302C28.7812 21.4238 26.6064 19.249 24 19.2656C21.377 19.2822 19.2021 21.4238 19.2021 24.0302C19.2021 26.6533 21.377 28.8115 24 28.8115ZM11.9473 28.8115C14.5703 28.8115 16.7119 26.6533 16.7119 24.0302C16.7119 21.4238 14.5703 19.249 11.9473 19.2656C9.32422 19.2822 7.18262 21.4238 7.18262 24.0302C7.18262 26.6533 9.32422 28.8115 11.9473 28.8115ZM36.0361 28.8115C38.6592 28.8115 40.8008 26.6533 40.8008 24.0302C40.8008 21.4238 38.6592 19.249 36.0361 19.2656C33.4131 19.2822 31.2715 21.4238 31.2715 24.0302C31.2715 26.6533 33.4131 28.8115 36.0361 28.8115ZM11.9473 40.0674C14.5703 40.0674 16.7119 37.9092 16.7119 35.2861C16.7119 32.6797 14.5703 30.5215 11.9473 30.5215C9.32422 30.5215 7.18262 32.6797 7.18262 35.2861C7.18262 37.9092 9.32422 40.0674 11.9473 40.0674ZM24 40.0674C26.6064 40.0674 28.7812 37.9092 28.7812 35.2861C28.7812 32.6797 26.6064 30.5215 24 30.5215C21.377 30.5215 19.2021 32.6797 19.2021 35.2861C19.2021 37.9092 21.377 40.0674 24 40.0674ZM36.0361 40.0674C38.6592 40.0674 40.8008 37.9092 40.8008 35.2861C40.8008 32.6797 38.6592 30.5215 36.0361 30.5215C33.4131 30.5215 31.2715 32.6797 31.2715 35.2861C31.2715 37.9092 33.4131 40.0674 36.0361 40.0674Z" fill="#0B1F35"/>
</svg>
