<svg xmlns="http://www.w3.org/2000/svg" width="48" height="48" viewBox="0 0 48 48" fill="none"><rect width="48" height="48" fill="none"/>
<path d="M11.084 42.0264C11.748 42.0264 12.2129 41.7109 12.9932 40.9805L17.8242 36.4814C16.8945 35.7344 16.1309 34.5557 16.1309 31.8496V20.8428C16.1309 15.7461 19.2188 12.7246 24.3154 12.7246H35.9365L35.9199 12.0938C35.6709 8.69043 33.4297 6.48242 29.6279 6.48242H6.85059C3.04883 6.48242 0.541992 8.75684 0.541992 12.708V29.0107C0.541992 32.9619 3.04883 35.502 6.85059 35.502H9.60645V40.333C9.60645 41.3623 10.1543 42.0264 11.084 42.0264ZM37.9121 44.334C38.8584 44.334 39.3896 43.6533 39.3896 42.6406V37.793H41.1494C44.9512 37.793 47.458 35.2529 47.458 31.3184V21.2246C47.458 17.2568 44.9512 14.999 41.1494 14.999H24.6973C20.7295 14.999 18.4053 17.2568 18.4053 21.2246V31.3184C18.4053 35.2529 20.7295 37.793 24.6973 37.793H30.0098L36.0029 43.2715C36.7832 44.002 37.248 44.334 37.9121 44.334Z" fill="#0B1F35"/>
</svg>
