<svg xmlns="http://www.w3.org/2000/svg" width="24" height="24" viewBox="0 0 24 24" fill="none"><rect width="24" height="24" fill="none"/>
<path d="M11.9075 23.3262C17.9396 23.3262 22.9023 18.3738 22.9023 12.3314C22.9023 6.28889 17.9396 1.32617 11.8972 1.32617C5.85468 1.32617 0.902344 6.28889 0.902344 12.3314C0.902344 18.3738 5.86506 23.3262 11.9075 23.3262ZM8.22183 12.3417C8.22183 13.245 7.4224 14.0133 6.52953 14.0133C5.61589 14.0133 4.8476 13.245 4.8476 12.3417C4.8476 11.4385 5.60551 10.6598 6.52953 10.6598C7.4224 10.6598 8.22183 11.4385 8.22183 12.3417ZM13.5687 12.3417C13.5687 13.245 12.8108 14.0133 11.8972 14.0133C10.9835 14.0133 10.2256 13.245 10.2256 12.3417C10.2256 11.4385 10.9835 10.6598 11.8972 10.6598C12.8108 10.6598 13.5687 11.4385 13.5687 12.3417ZM18.9467 12.3417C18.9467 13.245 18.1888 14.0133 17.2648 14.0133C16.3719 14.0133 15.5829 13.245 15.5829 12.3417C15.5829 11.4385 16.3615 10.6598 17.2648 10.6598C18.1888 10.6598 18.9467 11.4385 18.9467 12.3417Z" fill="#0B1F35"/>
</svg>
