<svg xmlns="http://www.w3.org/2000/svg" width="48" height="48" viewBox="0 0 48 48" fill="none"><rect width="48" height="48" fill="none"/>
<path d="M24 17C16.8115 17 10.0547 18.5107 6.68454 21.8809C5.1572 23.4082 4.39353 25.251 4.49314 27.4756C4.55954 28.8203 4.97458 30.0156 5.75486 30.7959C6.33591 31.3936 7.14939 31.7256 8.09568 31.5762L14.2549 30.5303C15.1845 30.3809 15.832 30.0986 16.247 29.667C16.7949 29.1357 16.9609 28.3389 16.9609 27.293V25.6162C16.9609 25.3506 17.0771 25.1514 17.2431 24.9854C17.4092 24.7861 17.6582 24.7031 17.8408 24.6533C18.9697 24.3877 21.2607 24.1387 24 24.1387C26.7392 24.1387 29.0136 24.3379 30.1592 24.6699C30.3252 24.7197 30.5576 24.8193 30.7402 24.9854C30.8896 25.1514 30.9892 25.334 31.0058 25.5996L31.0224 27.293C31.039 28.3389 31.205 29.1357 31.7363 29.667C32.1679 30.0986 32.8154 30.3809 33.7451 30.5303L39.8213 31.5596C40.8008 31.7256 41.6308 31.377 42.2783 30.7461C43.0586 29.9824 43.4902 28.8037 43.5234 27.459C43.5732 25.2178 42.7099 23.375 41.2158 21.8809C37.8457 18.5107 31.1884 17 24 17Z" fill="#0B1F35"/>
</svg>
